<?xml version="1.0" encoding="UTF-8"?>
<svg id="_图层_2" data-name="图层 2" xmlns="http://www.w3.org/2000/svg" viewBox="0 0 432.96 432.94">
  <defs>
    <style>
      .cls-1 {
        fill: #fff;
      }

      .cls-2 {
        stroke-linecap: round;
        stroke-linejoin: round;
        stroke-width: 10px;
      }

      .cls-2, .cls-3 {
        fill: none;
        stroke: #fff;
      }

      .cls-3 {
        stroke-miterlimit: 10;
        stroke-width: 9px;
      }
    </style>
  </defs>
  <g id="_图层_1-2" data-name="图层 1">
    <g>
      <g>
        <path class="cls-1" d="M132.46,39.36c-2.42,8.73-5.17,16.65-8.25,23.76v73.81h-12.43v-51.04c-3.3,4.84-6.05,8.69-8.25,11.55l-5.28-14.19c3.81-5.43,7.86-12.72,12.15-21.89,4.29-9.17,7.43-17.64,9.41-25.41l12.65,3.41Zm44.88,58.63c3.52,4.18,7.33,7.99,11.44,11.44,4.11,3.45,8.91,6.75,14.41,9.9l-7.15,11.99c-5.65-4.47-10.4-8.63-14.25-12.48s-7.35-7.94-10.5-12.27v30.03h-12.43v-30.58c-7.11,9.75-15.88,18.19-26.29,25.3l-6.82-11c5.65-3.37,10.54-6.8,14.69-10.28,4.14-3.48,8.05-7.5,11.71-12.05h-21.67v-11.88h28.38v-8.25h-23.43V39.47h59.18v38.39h-23.32v8.25h28.49v11.88h-22.44Zm4.18-45.98h-32.89v13.42h32.89v-13.42Z"/>
        <path class="cls-1" d="M252.36,57.73c-3.67,7.92-8.18,15.51-13.53,22.77v56.32h-12.87v-41.58c-3.96,3.96-7.48,7.26-10.56,9.9l-6.38-13.64c11-9.09,20.02-20.35,27.06-33.77h-22.77v-12.43h28.6c.95-2.27,2.24-5.83,3.85-10.67l14.63,1.98c-.59,1.98-1.54,4.88-2.86,8.69h52.91v12.43h-58.08Zm59.4,36.63v11.99h-26.29v15.29c0,3.67-.37,6.56-1.1,8.69-.73,2.13-2.04,3.69-3.91,4.67-1.87,.99-4.49,1.48-7.87,1.48-5.21,0-9.68-.18-13.42-.55l-2.42-12.32c4.47,.51,8.32,.77,11.55,.77,1.69,0,2.84-.44,3.46-1.32s.94-2.42,.94-4.62v-12.1h-28.71v-11.99h28.71v-6.93l13.53-8.47h-34.76v-11.88h55.88v11.88l-21.89,14.41v.99h26.29Z"/>
        <path class="cls-1" d="M105.18,257.04v-98.23h92.29v98.23h-12.32v-4.4H117.61v4.4h-12.43Zm12.43-15.84h67.54v-70.84H117.61v70.84Zm66.44-36.96l-4.4,10.67c-12.32-3.3-21.82-6.64-28.49-10.01-3.89,1.91-7.7,3.52-11.44,4.84,1.76,.37,6.97,1.43,15.62,3.19,4.18,.73,8.32,1.54,12.43,2.42l-1.54,9.57c-3.15-.73-12.5-2.6-28.05-5.61l-3.41-.66,1.32-7.48c-4.99,1.76-9.5,3.26-13.53,4.51l-4.4-10.34c8.87-2.27,16.35-4.62,22.44-7.04-3.15-2.42-5.76-4.69-7.81-6.82-2.35,2.2-5.06,4.47-8.14,6.82l-6.38-7.81c7.11-5.35,13.27-11.84,18.48-19.47l10.45,2.31c-.59,.88-1.1,1.65-1.54,2.31-.44,.66-.84,1.25-1.21,1.76h33.88v8.69c-6.01,5.35-11.4,9.53-16.17,12.54,5.13,1.76,12.43,3.63,21.89,5.61Zm-56.54,18.26l8.25,1.54c18.55,3.59,30.95,6.05,37.18,7.37l-1.76,9.79c-8.07-1.69-23.1-4.66-45.1-8.91l1.43-9.79Zm13.31-36.41c2.71,2.64,6.12,5.17,10.23,7.59,4.47-2.27,8.32-4.8,11.55-7.59h-21.78Z"/>
        <path class="cls-1" d="M308.13,194.78h-68.42c0,5.21-.11,10.01-.33,14.41h52.58v47.19h-13.09v-34.43h-40.59c-.88,7.11-2.33,13.38-4.35,18.81-2.02,5.43-4.93,11.04-8.75,16.83l-12.87-7.92c3.74-5.21,6.58-10.36,8.52-15.46,1.94-5.1,3.3-10.95,4.07-17.54,.77-6.6,1.16-15.07,1.16-25.41v-33.77h13.64v24.53h32.56v-26.29h12.98v26.29h22.88v12.76Z"/>
      </g>
      <path class="cls-2" d="M7,275H79.92c3.07,0,5.82,1.87,6.96,4.71l16.23,40.57c1.14,2.85,3.9,4.71,6.96,4.71H248.92"/>
      <path class="cls-2" d="M252.72,340.57c0-48.53,39.34-87.87,87.87-87.87,25.45,0,48.36,10.82,64.41,28.11v-3.04c0-1.83-.17-3.66-.5-5.46L356.14,11.13c-.66-3.55-3.76-6.13-7.37-6.13H61.24c-3.62,0-6.72,2.58-7.37,6.13L5.5,272.29c-.33,1.8-.5,3.63-.5,5.46v97.24c0,16.57,13.43,30,30,30h245.84c-17.3-16.05-28.13-38.97-28.13-64.43Z"/>
      <circle class="cls-3" cx="340.59" cy="340.57" r="87.87"/>
      <polyline class="cls-2" points="381.52 342.83 340.59 383.76 299.65 342.83"/>
      <line class="cls-2" x1="340.59" y1="382.68" x2="340.59" y2="301.89"/>
    </g>
  </g>
</svg>