<?xml version="1.0" encoding="utf-8" standalone="no"?>
<!DOCTYPE svg PUBLIC "-//W3C//DTD SVG 1.1//EN"
  "http://www.w3.org/Graphics/SVG/1.1/DTD/svg11.dtd">
<svg xmlns:xlink="http://www.w3.org/1999/xlink" width="1152pt" height="648pt" viewBox="0 0 1152 648" xmlns="http://www.w3.org/2000/svg" version="1.1">
 <metadata>
  <rdf:RDF xmlns:dc="http://purl.org/dc/elements/1.1/" xmlns:cc="http://creativecommons.org/ns#" xmlns:rdf="http://www.w3.org/1999/02/22-rdf-syntax-ns#">
   <cc:Work>
    <dc:type rdf:resource="http://purl.org/dc/dcmitype/StillImage"/>
    <dc:date>2024-03-14T14:55:08.249231</dc:date>
    <dc:format>image/svg+xml</dc:format>
    <dc:creator>
     <cc:Agent>
      <dc:title>Matplotlib v3.8.3, https://matplotlib.org/</dc:title>
     </cc:Agent>
    </dc:creator>
   </cc:Work>
  </rdf:RDF>
 </metadata>
 <defs>
  <style type="text/css">*{stroke-linejoin: round; stroke-linecap: butt}</style>
 </defs>
 <g id="figure_1">
  <g id="patch_1">
   <path d="M 0 648 
L 1152 648 
L 1152 0 
L 0 0 
L 0 648 
z
" style="fill: none"/>
  </g>
  <g id="axes_1">
   <g id="line2d_1">
    <path d="M 253.616 421.857985 
L 257.118061 419.066477 
L 260.620121 416.276766 
L 264.122182 413.490641 
L 267.624242 410.709885 
L 271.126303 407.936267 
L 274.628364 405.171537 
L 278.130424 402.417421 
L 281.632485 399.67562 
L 285.134545 396.947805 
L 288.636606 394.23561 
L 292.138667 391.54063 
L 295.640727 388.864421 
L 299.142788 386.20849 
L 302.644848 383.574297 
L 306.146909 380.96325 
L 309.64897 378.376704 
L 313.15103 375.815955 
L 316.653091 373.282243 
L 320.155152 370.776747 
L 323.657212 368.300582 
L 327.159273 365.854802 
L 330.661333 363.440396 
L 334.163394 361.058287 
L 337.665455 358.709335 
L 341.167515 356.394331 
L 344.669576 354.114002 
L 348.171636 351.86901 
L 351.673697 349.65995 
L 355.175758 347.487354 
L 358.677818 345.35169 
L 362.179879 343.253364 
L 365.681939 341.192721 
L 369.184 339.170044 
L 372.686061 337.185559 
L 376.188121 335.239437 
L 379.690182 333.331792 
L 383.192242 331.462685 
L 386.694303 329.632126 
L 390.196364 327.840078 
L 393.698424 326.086454 
L 397.200485 324.371126 
L 400.702545 322.693918 
L 404.204606 321.05462 
L 407.706667 319.452978 
L 411.208727 317.888706 
L 414.710788 316.361484 
L 418.212848 314.870957 
L 421.714909 313.416745 
L 425.21697 311.998439 
L 428.71903 310.615603 
L 432.221091 309.267782 
L 435.723152 307.954496 
L 439.225212 306.675247 
L 442.727273 305.429522 
L 446.229333 304.21679 
L 449.731394 303.036508 
L 453.233455 301.888119 
L 456.735515 300.771058 
L 460.237576 299.68475 
L 463.739636 298.628613 
L 467.241697 297.602058 
L 470.743758 296.604494 
L 474.245818 295.635325 
L 477.747879 294.693953 
L 481.249939 293.779778 
L 484.752 292.892203 
L 488.254061 292.03063 
L 491.756121 291.194463 
L 495.258182 290.38311 
L 498.760242 289.595981 
L 502.262303 288.832491 
L 505.764364 288.092062 
L 509.266424 287.374118 
L 512.768485 286.678094 
L 516.270545 286.003427 
L 519.772606 285.349564 
L 523.274667 284.715959 
L 526.776727 284.102074 
L 530.278788 283.50738 
L 533.780848 282.931355 
L 537.282909 282.373488 
L 540.78497 281.833276 
L 544.28703 281.310225 
L 547.789091 280.803851 
L 551.291152 280.313679 
L 554.793212 279.839246 
L 558.295273 279.380095 
L 561.797333 278.935781 
L 565.299394 278.50587 
L 568.801455 278.089935 
L 572.303515 277.687561 
L 575.805576 277.298342 
L 579.307636 276.92188 
L 582.809697 276.557791 
L 586.311758 276.205697 
L 589.813818 275.865229 
L 593.315879 275.536031 
L 596.817939 275.217754 
L 600.32 274.910056 
" clip-path="url(#p8f7fc9cc04)" style="fill: none; stroke: #b679f2; stroke-width: 3; stroke-linecap: round"/>
   </g>
   <g id="text_1">
    <path d="M 609.22498 276.630062 
Q 608.71248 276.630062 608.253105 276.533187 
Q 607.795292 276.434749 607.396855 276.239437 
Q 606.998417 276.044124 606.651542 275.750374 
L 606.651542 275.750374 
L 607.271855 274.989437 
L 607.271855 274.989437 
Q 607.678105 275.340999 608.165605 275.517562 
Q 608.654667 275.692562 609.22498 275.692562 
Q 609.996855 275.692562 610.421855 275.406624 
Q 610.846855 275.120687 610.846855 274.598812 
L 610.846855 274.594124 
Q 610.846855 274.222249 610.653105 274.005062 
Q 610.460917 273.787874 610.154667 273.683187 
Q 609.84998 273.578499 609.367167 273.489437 
Q 609.351542 273.484749 609.334355 273.484749 
Q 609.31873 273.484749 609.303105 273.480062 
L 609.229667 273.465999 
Q 608.517167 273.344124 608.070292 273.190999 
Q 607.623417 273.036312 607.30623 272.628499 
Q 606.989042 272.220687 606.989042 271.469124 
L 606.989042 271.464437 
Q 606.989042 270.805062 607.284355 270.339437 
Q 607.579667 269.872249 608.145292 269.628499 
Q 608.71248 269.383187 609.507792 269.383187 
Q 609.889042 269.383187 610.257792 269.467562 
Q 610.626542 269.550374 610.984355 269.714437 
Q 611.34373 269.876937 611.690605 270.125374 
L 611.690605 270.125374 
L 611.12498 270.917562 
L 611.12498 270.917562 
Q 610.71873 270.619124 610.315605 270.470687 
Q 609.914042 270.320687 609.507792 270.320687 
Q 608.78123 270.320687 608.378105 270.611312 
Q 607.97498 270.901937 607.97498 271.434749 
L 607.97498 271.439437 
Q 607.97498 271.805062 608.182792 272.015999 
Q 608.390605 272.225374 608.69998 272.325374 
Q 609.010917 272.425374 609.56248 272.533187 
Q 609.58123 272.537874 609.598417 272.540999 
Q 609.615605 272.542562 609.635917 272.547249 
Q 609.659355 272.551937 609.689042 272.558187 
Q 609.71873 272.562874 609.742167 272.567562 
Q 610.38748 272.698812 610.81873 272.880062 
Q 611.251542 273.059749 611.542167 273.462874 
Q 611.832792 273.865999 611.832792 274.564437 
L 611.832792 274.573812 
Q 611.832792 275.223812 611.52498 275.684749 
Q 611.217167 276.145687 610.632792 276.387874 
Q 610.04998 276.630062 609.22498 276.630062 
z
M 613.922832 275.609749 
L 615.529082 275.609749 
Q 616.315019 275.609749 616.746269 275.201937 
Q 617.179082 274.794124 617.179082 274.051937 
L 617.179082 271.961312 
Q 617.179082 271.219124 616.746269 270.811312 
Q 616.315019 270.403499 615.529082 270.403499 
L 613.922832 270.403499 
L 613.922832 269.456624 
L 615.499394 269.456624 
Q 616.354082 269.456624 616.958769 269.755062 
Q 617.565019 270.051937 617.882207 270.623812 
Q 618.199394 271.195687 618.199394 272.000374 
L 618.199394 274.012874 
Q 618.199394 274.817562 617.882207 275.389437 
Q 617.565019 275.961312 616.957207 276.259749 
Q 616.349394 276.556624 615.494707 276.556624 
L 613.922832 276.556624 
L 613.922832 275.609749 
z
M 613.249394 269.456624 
L 614.244707 269.456624 
L 614.244707 276.556624 
L 613.249394 276.556624 
L 613.249394 269.456624 
z
M 623.332207 270.345687 
L 621.496269 276.556624 
L 620.436894 276.556624 
L 622.272832 270.403499 
L 620.465019 270.403499 
L 620.465019 271.425374 
L 619.469707 271.425374 
L 619.469707 269.456624 
L 623.332207 269.456624 
L 623.332207 270.345687 
z
M 628.614824 272.811312 
L 628.614824 273.758187 
L 624.650761 273.758187 
L 624.650761 272.811312 
L 628.614824 272.811312 
z
M 627.130449 275.267562 
L 626.135136 275.267562 
L 626.135136 271.301937 
L 627.130449 271.301937 
L 627.130449 275.267562 
z
M 636.691386 272.733187 
L 636.691386 273.973812 
Q 636.691386 274.764437 636.383574 275.367562 
Q 636.075761 275.970687 635.511699 276.300374 
Q 634.947636 276.630062 634.205449 276.630062 
Q 633.453886 276.630062 632.885136 276.320687 
Q 632.316386 276.009749 632.003886 275.444124 
Q 631.691386 274.876937 631.691386 274.130062 
L 631.691386 272.034749 
Q 631.691386 271.244124 631.999199 270.644124 
Q 632.307011 270.042562 632.869511 269.712874 
Q 633.433574 269.383187 634.175761 269.383187 
Q 634.786699 269.383187 635.300761 269.645687 
Q 635.816386 269.906624 636.163261 270.384749 
Q 636.510136 270.862874 636.632011 271.492562 
L 636.632011 271.492562 
L 635.553886 271.492562 
L 635.553886 271.492562 
Q 635.464824 271.136312 635.255449 270.880062 
Q 635.046074 270.623812 634.761699 270.489437 
Q 634.478886 270.355062 634.175761 270.355062 
Q 633.736699 270.355062 633.403886 270.565999 
Q 633.072636 270.775374 632.891386 271.153499 
Q 632.711699 271.531624 632.711699 272.034749 
L 632.711699 274.130062 
Q 632.711699 274.589437 632.896074 274.933187 
Q 633.082011 275.276937 633.421074 275.467562 
Q 633.761699 275.658187 634.205449 275.658187 
Q 634.644511 275.658187 634.975761 275.461312 
Q 635.308574 275.262874 635.489824 274.887874 
Q 635.671074 274.511312 635.671074 273.992562 
L 635.671074 273.684749 
L 634.230449 273.684749 
L 634.230449 272.733187 
L 636.691386 272.733187 
z
M 640.279667 276.630062 
Q 639.576542 276.630062 639.078105 276.365999 
Q 638.58123 276.101937 638.31873 275.592562 
Q 638.057792 275.081624 638.057792 274.359749 
L 638.057792 273.787874 
Q 638.057792 273.036312 638.309355 272.505062 
Q 638.560917 271.972249 639.039042 271.694124 
Q 639.51873 271.414437 640.192167 271.414437 
Q 640.826542 271.414437 641.27498 271.733187 
Q 641.72498 272.050374 641.960917 272.650374 
Q 642.198417 273.250374 642.198417 274.090999 
L 642.198417 274.422249 
L 638.78123 274.422249 
L 638.78123 273.622249 
L 641.251542 273.622249 
L 641.251542 273.622249 
Q 641.207792 273.001937 640.93123 272.658187 
Q 640.65623 272.312874 640.192167 272.312874 
Q 639.62498 272.312874 639.315605 272.684749 
Q 639.00623 273.055062 639.00623 273.734749 
L 639.00623 274.378499 
Q 639.00623 275.008187 639.33748 275.345687 
Q 639.670292 275.683187 640.279667 275.683187 
Q 640.582792 275.683187 640.879667 275.561312 
Q 641.178105 275.437874 641.41248 275.219124 
L 641.41248 275.219124 
L 642.067167 275.872249 
L 642.067167 275.872249 
Q 641.690605 276.234749 641.221855 276.433187 
Q 640.753105 276.630062 640.279667 276.630062 
z
M 643.565996 271.487874 
L 644.562871 271.487874 
L 644.562871 276.556624 
L 643.565996 276.556624 
L 643.565996 271.487874 
z
M 646.642558 273.484749 
Q 646.642558 272.948812 646.364433 272.656624 
Q 646.086308 272.362874 645.583183 272.362874 
Q 645.094121 272.362874 644.828496 272.622249 
Q 644.562871 272.880062 644.562871 273.348812 
L 644.459746 272.372249 
Q 644.694121 271.912874 645.072246 271.664437 
Q 645.450371 271.414437 645.909746 271.414437 
Q 646.734746 271.414437 647.186308 271.955062 
Q 647.637871 272.494124 647.637871 273.480062 
L 647.637871 276.556624 
L 646.642558 276.556624 
L 646.642558 273.484749 
z
M 650.939433 276.630062 
Q 650.344121 276.630062 649.889433 276.412874 
Q 649.434746 276.195687 649.158183 275.783187 
Q 648.883183 275.370687 648.809746 274.789437 
L 648.809746 274.789437 
L 649.825371 274.789437 
L 649.825371 274.789437 
Q 649.869121 275.090999 650.015996 275.286312 
Q 650.162871 275.481624 650.394121 275.576937 
Q 650.626933 275.672249 650.939433 275.672249 
Q 651.431621 275.672249 651.705058 275.409749 
Q 651.978496 275.145687 651.978496 274.667562 
L 651.978496 274.451937 
Q 651.978496 273.919124 651.719121 273.630062 
Q 651.461308 273.339437 650.987871 273.339437 
L 650.484746 273.339437 
L 650.484746 272.390999 
L 650.987871 272.390999 
Q 651.403496 272.390999 651.631621 272.142562 
Q 651.861308 271.894124 651.861308 271.439437 
L 651.861308 271.219124 
Q 651.861308 270.800374 651.619121 270.570687 
Q 651.378496 270.340999 650.934746 270.340999 
Q 650.680058 270.340999 650.480058 270.436312 
Q 650.280058 270.531624 650.140996 270.730062 
Q 650.001933 270.926937 649.937871 271.223812 
L 649.937871 271.223812 
L 648.926933 271.223812 
L 648.926933 271.223812 
Q 649.025371 270.644124 649.295683 270.228499 
Q 649.567558 269.812874 649.981621 269.598812 
Q 650.397246 269.383187 650.934746 269.383187 
Q 651.851933 269.383187 652.355058 269.867562 
Q 652.858183 270.350374 652.858183 271.230062 
L 652.858183 271.347249 
Q 652.858183 271.878499 652.569121 272.273812 
Q 652.281621 272.669124 651.755058 272.850374 
Q 652.336308 272.976937 652.655058 273.422249 
Q 652.975371 273.865999 652.975371 274.555062 
L 652.975371 274.672249 
Q 652.975371 275.292562 652.736308 275.731624 
Q 652.497246 276.170687 652.039433 276.400374 
Q 651.583183 276.630062 650.939433 276.630062 
z
" style="fill: #ffffff; stroke: #000000"/>
    <path d="M 609.22498 276.630062 
Q 608.71248 276.630062 608.253105 276.533187 
Q 607.795292 276.434749 607.396855 276.239437 
Q 606.998417 276.044124 606.651542 275.750374 
L 606.651542 275.750374 
L 607.271855 274.989437 
L 607.271855 274.989437 
Q 607.678105 275.340999 608.165605 275.517562 
Q 608.654667 275.692562 609.22498 275.692562 
Q 609.996855 275.692562 610.421855 275.406624 
Q 610.846855 275.120687 610.846855 274.598812 
L 610.846855 274.594124 
Q 610.846855 274.222249 610.653105 274.005062 
Q 610.460917 273.787874 610.154667 273.683187 
Q 609.84998 273.578499 609.367167 273.489437 
Q 609.351542 273.484749 609.334355 273.484749 
Q 609.31873 273.484749 609.303105 273.480062 
L 609.229667 273.465999 
Q 608.517167 273.344124 608.070292 273.190999 
Q 607.623417 273.036312 607.30623 272.628499 
Q 606.989042 272.220687 606.989042 271.469124 
L 606.989042 271.464437 
Q 606.989042 270.805062 607.284355 270.339437 
Q 607.579667 269.872249 608.145292 269.628499 
Q 608.71248 269.383187 609.507792 269.383187 
Q 609.889042 269.383187 610.257792 269.467562 
Q 610.626542 269.550374 610.984355 269.714437 
Q 611.34373 269.876937 611.690605 270.125374 
L 611.690605 270.125374 
L 611.12498 270.917562 
L 611.12498 270.917562 
Q 610.71873 270.619124 610.315605 270.470687 
Q 609.914042 270.320687 609.507792 270.320687 
Q 608.78123 270.320687 608.378105 270.611312 
Q 607.97498 270.901937 607.97498 271.434749 
L 607.97498 271.439437 
Q 607.97498 271.805062 608.182792 272.015999 
Q 608.390605 272.225374 608.69998 272.325374 
Q 609.010917 272.425374 609.56248 272.533187 
Q 609.58123 272.537874 609.598417 272.540999 
Q 609.615605 272.542562 609.635917 272.547249 
Q 609.659355 272.551937 609.689042 272.558187 
Q 609.71873 272.562874 609.742167 272.567562 
Q 610.38748 272.698812 610.81873 272.880062 
Q 611.251542 273.059749 611.542167 273.462874 
Q 611.832792 273.865999 611.832792 274.564437 
L 611.832792 274.573812 
Q 611.832792 275.223812 611.52498 275.684749 
Q 611.217167 276.145687 610.632792 276.387874 
Q 610.04998 276.630062 609.22498 276.630062 
z
M 613.922832 275.609749 
L 615.529082 275.609749 
Q 616.315019 275.609749 616.746269 275.201937 
Q 617.179082 274.794124 617.179082 274.051937 
L 617.179082 271.961312 
Q 617.179082 271.219124 616.746269 270.811312 
Q 616.315019 270.403499 615.529082 270.403499 
L 613.922832 270.403499 
L 613.922832 269.456624 
L 615.499394 269.456624 
Q 616.354082 269.456624 616.958769 269.755062 
Q 617.565019 270.051937 617.882207 270.623812 
Q 618.199394 271.195687 618.199394 272.000374 
L 618.199394 274.012874 
Q 618.199394 274.817562 617.882207 275.389437 
Q 617.565019 275.961312 616.957207 276.259749 
Q 616.349394 276.556624 615.494707 276.556624 
L 613.922832 276.556624 
L 613.922832 275.609749 
z
M 613.249394 269.456624 
L 614.244707 269.456624 
L 614.244707 276.556624 
L 613.249394 276.556624 
L 613.249394 269.456624 
z
M 623.332207 270.345687 
L 621.496269 276.556624 
L 620.436894 276.556624 
L 622.272832 270.403499 
L 620.465019 270.403499 
L 620.465019 271.425374 
L 619.469707 271.425374 
L 619.469707 269.456624 
L 623.332207 269.456624 
L 623.332207 270.345687 
z
M 628.614824 272.811312 
L 628.614824 273.758187 
L 624.650761 273.758187 
L 624.650761 272.811312 
L 628.614824 272.811312 
z
M 627.130449 275.267562 
L 626.135136 275.267562 
L 626.135136 271.301937 
L 627.130449 271.301937 
L 627.130449 275.267562 
z
M 636.691386 272.733187 
L 636.691386 273.973812 
Q 636.691386 274.764437 636.383574 275.367562 
Q 636.075761 275.970687 635.511699 276.300374 
Q 634.947636 276.630062 634.205449 276.630062 
Q 633.453886 276.630062 632.885136 276.320687 
Q 632.316386 276.009749 632.003886 275.444124 
Q 631.691386 274.876937 631.691386 274.130062 
L 631.691386 272.034749 
Q 631.691386 271.244124 631.999199 270.644124 
Q 632.307011 270.042562 632.869511 269.712874 
Q 633.433574 269.383187 634.175761 269.383187 
Q 634.786699 269.383187 635.300761 269.645687 
Q 635.816386 269.906624 636.163261 270.384749 
Q 636.510136 270.862874 636.632011 271.492562 
L 636.632011 271.492562 
L 635.553886 271.492562 
L 635.553886 271.492562 
Q 635.464824 271.136312 635.255449 270.880062 
Q 635.046074 270.623812 634.761699 270.489437 
Q 634.478886 270.355062 634.175761 270.355062 
Q 633.736699 270.355062 633.403886 270.565999 
Q 633.072636 270.775374 632.891386 271.153499 
Q 632.711699 271.531624 632.711699 272.034749 
L 632.711699 274.130062 
Q 632.711699 274.589437 632.896074 274.933187 
Q 633.082011 275.276937 633.421074 275.467562 
Q 633.761699 275.658187 634.205449 275.658187 
Q 634.644511 275.658187 634.975761 275.461312 
Q 635.308574 275.262874 635.489824 274.887874 
Q 635.671074 274.511312 635.671074 273.992562 
L 635.671074 273.684749 
L 634.230449 273.684749 
L 634.230449 272.733187 
L 636.691386 272.733187 
z
M 640.279667 276.630062 
Q 639.576542 276.630062 639.078105 276.365999 
Q 638.58123 276.101937 638.31873 275.592562 
Q 638.057792 275.081624 638.057792 274.359749 
L 638.057792 273.787874 
Q 638.057792 273.036312 638.309355 272.505062 
Q 638.560917 271.972249 639.039042 271.694124 
Q 639.51873 271.414437 640.192167 271.414437 
Q 640.826542 271.414437 641.27498 271.733187 
Q 641.72498 272.050374 641.960917 272.650374 
Q 642.198417 273.250374 642.198417 274.090999 
L 642.198417 274.422249 
L 638.78123 274.422249 
L 638.78123 273.622249 
L 641.251542 273.622249 
L 641.251542 273.622249 
Q 641.207792 273.001937 640.93123 272.658187 
Q 640.65623 272.312874 640.192167 272.312874 
Q 639.62498 272.312874 639.315605 272.684749 
Q 639.00623 273.055062 639.00623 273.734749 
L 639.00623 274.378499 
Q 639.00623 275.008187 639.33748 275.345687 
Q 639.670292 275.683187 640.279667 275.683187 
Q 640.582792 275.683187 640.879667 275.561312 
Q 641.178105 275.437874 641.41248 275.219124 
L 641.41248 275.219124 
L 642.067167 275.872249 
L 642.067167 275.872249 
Q 641.690605 276.234749 641.221855 276.433187 
Q 640.753105 276.630062 640.279667 276.630062 
z
M 643.565996 271.487874 
L 644.562871 271.487874 
L 644.562871 276.556624 
L 643.565996 276.556624 
L 643.565996 271.487874 
z
M 646.642558 273.484749 
Q 646.642558 272.948812 646.364433 272.656624 
Q 646.086308 272.362874 645.583183 272.362874 
Q 645.094121 272.362874 644.828496 272.622249 
Q 644.562871 272.880062 644.562871 273.348812 
L 644.459746 272.372249 
Q 644.694121 271.912874 645.072246 271.664437 
Q 645.450371 271.414437 645.909746 271.414437 
Q 646.734746 271.414437 647.186308 271.955062 
Q 647.637871 272.494124 647.637871 273.480062 
L 647.637871 276.556624 
L 646.642558 276.556624 
L 646.642558 273.484749 
z
M 650.939433 276.630062 
Q 650.344121 276.630062 649.889433 276.412874 
Q 649.434746 276.195687 649.158183 275.783187 
Q 648.883183 275.370687 648.809746 274.789437 
L 648.809746 274.789437 
L 649.825371 274.789437 
L 649.825371 274.789437 
Q 649.869121 275.090999 650.015996 275.286312 
Q 650.162871 275.481624 650.394121 275.576937 
Q 650.626933 275.672249 650.939433 275.672249 
Q 651.431621 275.672249 651.705058 275.409749 
Q 651.978496 275.145687 651.978496 274.667562 
L 651.978496 274.451937 
Q 651.978496 273.919124 651.719121 273.630062 
Q 651.461308 273.339437 650.987871 273.339437 
L 650.484746 273.339437 
L 650.484746 272.390999 
L 650.987871 272.390999 
Q 651.403496 272.390999 651.631621 272.142562 
Q 651.861308 271.894124 651.861308 271.439437 
L 651.861308 271.219124 
Q 651.861308 270.800374 651.619121 270.570687 
Q 651.378496 270.340999 650.934746 270.340999 
Q 650.680058 270.340999 650.480058 270.436312 
Q 650.280058 270.531624 650.140996 270.730062 
Q 650.001933 270.926937 649.937871 271.223812 
L 649.937871 271.223812 
L 648.926933 271.223812 
L 648.926933 271.223812 
Q 649.025371 270.644124 649.295683 270.228499 
Q 649.567558 269.812874 649.981621 269.598812 
Q 650.397246 269.383187 650.934746 269.383187 
Q 651.851933 269.383187 652.355058 269.867562 
Q 652.858183 270.350374 652.858183 271.230062 
L 652.858183 271.347249 
Q 652.858183 271.878499 652.569121 272.273812 
Q 652.281621 272.669124 651.755058 272.850374 
Q 652.336308 272.976937 652.655058 273.422249 
Q 652.975371 273.865999 652.975371 274.555062 
L 652.975371 274.672249 
Q 652.975371 275.292562 652.736308 275.731624 
Q 652.497246 276.170687 652.039433 276.400374 
Q 651.583183 276.630062 650.939433 276.630062 
z
" style="fill: #ffffff"/>
   </g>
  </g>
 </g>
 <defs>
  <clipPath id="p8f7fc9cc04">
   <rect x="144" y="77.76" width="892.8" height="498.96"/>
  </clipPath>
 </defs>
</svg>
