<?xml version="1.0" encoding="utf-8" standalone="no"?>
<!DOCTYPE svg PUBLIC "-//W3C//DTD SVG 1.1//EN"
  "http://www.w3.org/Graphics/SVG/1.1/DTD/svg11.dtd">
<svg xmlns:xlink="http://www.w3.org/1999/xlink" width="1152pt" height="648pt" viewBox="0 0 1152 648" xmlns="http://www.w3.org/2000/svg" version="1.1">
 <metadata>
  <rdf:RDF xmlns:dc="http://purl.org/dc/elements/1.1/" xmlns:cc="http://creativecommons.org/ns#" xmlns:rdf="http://www.w3.org/1999/02/22-rdf-syntax-ns#">
   <cc:Work>
    <dc:type rdf:resource="http://purl.org/dc/dcmitype/StillImage"/>
    <dc:date>2024-03-14T14:55:08.677227</dc:date>
    <dc:format>image/svg+xml</dc:format>
    <dc:creator>
     <cc:Agent>
      <dc:title>Matplotlib v3.8.3, https://matplotlib.org/</dc:title>
     </cc:Agent>
    </dc:creator>
   </cc:Work>
  </rdf:RDF>
 </metadata>
 <defs>
  <style type="text/css">*{stroke-linejoin: round; stroke-linecap: butt}</style>
 </defs>
 <g id="figure_1">
  <g id="patch_1">
   <path d="M 0 648 
L 1152 648 
L 1152 0 
L 0 0 
L 0 648 
z
" style="fill: none"/>
  </g>
  <g id="axes_1">
   <g id="line2d_1">
    <path d="M 249.648 468.367064 
L 252.694141 466.248736 
L 255.740283 464.169188 
L 258.786424 462.127712 
L 261.832566 460.12361 
L 264.878707 458.1562 
L 267.924848 456.22481 
L 270.97099 454.328782 
L 274.017131 452.467468 
L 277.063273 450.640234 
L 280.109414 448.846456 
L 283.155556 447.085521 
L 286.201697 445.35683 
L 289.247838 443.659793 
L 292.29398 441.993829 
L 295.340121 440.358371 
L 298.386263 438.75286 
L 301.432404 437.176749 
L 304.478545 435.629499 
L 307.524687 434.110583 
L 310.570828 432.619482 
L 313.61697 431.155686 
L 316.663111 429.718697 
L 319.709253 428.308024 
L 322.755394 426.923184 
L 325.801535 425.563706 
L 328.847677 424.229125 
L 331.893818 422.918985 
L 334.93996 421.63284 
L 337.986101 420.370249 
L 341.032242 419.130782 
L 344.078384 417.914016 
L 347.124525 416.719535 
L 350.170667 415.546931 
L 353.216808 414.395803 
L 356.262949 413.265759 
L 359.309091 412.156413 
L 362.355232 411.067385 
L 365.401374 409.998304 
L 368.447515 408.948805 
L 371.493657 407.918529 
L 374.539798 406.907123 
L 377.585939 405.914244 
L 380.632081 404.939551 
L 383.678222 403.982711 
L 386.724364 403.043398 
L 389.770505 402.121291 
L 392.816646 401.216074 
L 395.862788 400.327439 
L 398.908929 399.455082 
L 401.955071 398.598705 
L 405.001212 397.758014 
L 408.047354 396.932724 
L 411.093495 396.122552 
L 414.139636 395.327221 
L 417.185778 394.546459 
L 420.231919 393.78 
L 423.278061 393.027581 
L 426.324202 392.288946 
L 429.370343 391.563842 
L 432.416485 390.852021 
L 435.462626 390.153241 
L 438.508768 389.467262 
L 441.554909 388.793849 
L 444.601051 388.132773 
L 447.647192 387.483808 
L 450.693333 386.846732 
L 453.739475 386.221328 
L 456.785616 385.60738 
L 459.831758 385.004681 
L 462.877899 384.413023 
L 465.92404 383.832204 
L 468.970182 383.262026 
L 472.016323 382.702294 
L 475.062465 382.152817 
L 478.108606 381.613407 
L 481.154747 381.083879 
L 484.200889 380.564052 
L 487.24703 380.05375 
L 490.293172 379.552796 
L 493.339313 379.061021 
L 496.385455 378.578255 
L 499.431596 378.104335 
L 502.477737 377.639097 
L 505.523879 377.182383 
L 508.57002 376.734037 
L 511.616162 376.293905 
L 514.662303 375.861838 
L 517.708444 375.437686 
L 520.754586 375.021306 
L 523.800727 374.612554 
L 526.846869 374.211292 
L 529.89301 373.817382 
L 532.939152 373.430689 
L 535.985293 373.051081 
L 539.031434 372.678428 
L 542.077576 372.312603 
L 545.123717 371.953481 
L 548.169859 371.600938 
L 551.216 371.254856 
" clip-path="url(#pa788c1c9ca)" style="fill: none; stroke: #f2b230; stroke-width: 3; stroke-linecap: round"/>
   </g>
   <g id="text_1">
    <path d="M 558.661605 371.954549 
L 560.267855 371.954549 
Q 561.053792 371.954549 561.485042 371.546736 
Q 561.917855 371.138924 561.917855 370.396736 
L 561.917855 368.306111 
Q 561.917855 367.563924 561.485042 367.156111 
Q 561.053792 366.748299 560.267855 366.748299 
L 558.661605 366.748299 
L 558.661605 365.801424 
L 560.238168 365.801424 
Q 561.092855 365.801424 561.697542 366.099861 
Q 562.303792 366.396736 562.62098 366.968611 
Q 562.938167 367.540486 562.938167 368.345174 
L 562.938167 370.357674 
Q 562.938167 371.162361 562.62098 371.734236 
Q 562.303792 372.306111 561.69598 372.604549 
Q 561.088167 372.901424 560.23348 372.901424 
L 558.661605 372.901424 
L 558.661605 371.954549 
z
M 557.988168 365.801424 
L 558.98348 365.801424 
L 558.98348 372.901424 
L 557.988168 372.901424 
L 557.988168 365.801424 
z
M 566.117855 372.901424 
L 565.12098 372.901424 
L 565.12098 366.885799 
L 564.110042 367.506111 
L 564.110042 366.474861 
L 565.12098 365.801424 
L 566.117855 365.801424 
L 566.117855 372.901424 
z
M 567.621175 372.037361 
L 570.096175 368.735799 
Q 570.3118 368.452986 570.43055 368.148299 
Q 570.550863 367.842049 570.550863 367.579549 
L 570.550863 367.568611 
Q 570.550863 367.145174 570.300863 366.910799 
Q 570.052425 366.676424 569.594613 366.676424 
Q 569.158675 366.676424 568.889925 366.932674 
Q 568.622738 367.188924 568.563363 367.657674 
L 568.563363 367.662361 
L 567.533675 367.662361 
L 567.533675 367.657674 
Q 567.621175 367.046736 567.891488 366.615486 
Q 568.163363 366.182674 568.59305 365.956111 
Q 569.022738 365.727986 569.583675 365.727986 
Q 570.219613 365.727986 570.66805 365.945174 
Q 571.11805 366.162361 571.352425 366.577986 
Q 571.5868 366.993611 571.5868 367.579549 
L 571.5868 367.584236 
Q 571.5868 367.959236 571.43055 368.370174 
Q 571.2743 368.779549 570.994613 369.160799 
L 568.939925 371.954549 
L 571.625863 371.954549 
L 571.625863 372.901424 
L 567.621175 372.901424 
L 567.621175 372.037361 
z
M 574.921566 372.974861 
Q 573.924691 372.974861 573.409066 372.443611 
Q 572.895003 371.910799 572.895003 370.957674 
L 572.895003 367.731111 
Q 572.895003 366.773299 573.412191 366.243611 
Q 573.929378 365.713924 574.921566 365.713924 
Q 575.916878 365.713924 576.432503 366.242049 
Q 576.948128 366.768611 576.948128 367.731111 
L 576.948128 370.957674 
Q 576.948128 371.915486 576.429378 372.445174 
Q 575.912191 372.974861 574.921566 372.974861 
z
M 574.921566 372.027986 
Q 575.448128 372.027986 575.699691 371.751424 
Q 575.951253 371.474861 575.951253 370.957674 
L 575.951253 367.731111 
Q 575.951253 367.212361 575.701253 366.937361 
Q 575.452816 366.660799 574.921566 366.660799 
Q 574.388753 366.660799 574.138753 366.937361 
Q 573.890316 367.212361 573.890316 367.731111 
L 573.890316 370.957674 
Q 573.890316 371.474861 574.141878 371.751424 
Q 574.393441 372.027986 574.921566 372.027986 
z
M 580.439144 372.974861 
Q 579.442269 372.974861 578.926644 372.443611 
Q 578.412582 371.910799 578.412582 370.957674 
L 578.412582 367.731111 
Q 578.412582 366.773299 578.929769 366.243611 
Q 579.446957 365.713924 580.439144 365.713924 
Q 581.434457 365.713924 581.950082 366.242049 
Q 582.465707 366.768611 582.465707 367.731111 
L 582.465707 370.957674 
Q 582.465707 371.915486 581.946957 372.445174 
Q 581.429769 372.974861 580.439144 372.974861 
z
M 580.439144 372.027986 
Q 580.965707 372.027986 581.217269 371.751424 
Q 581.468832 371.474861 581.468832 370.957674 
L 581.468832 367.731111 
Q 581.468832 367.212361 581.218832 366.937361 
Q 580.970394 366.660799 580.439144 366.660799 
Q 579.906332 366.660799 579.656332 366.937361 
Q 579.407894 367.212361 579.407894 367.731111 
L 579.407894 370.957674 
Q 579.407894 371.474861 579.659457 371.751424 
Q 579.911019 372.027986 580.439144 372.027986 
z
" style="fill: #ffffff; stroke: #000000"/>
    <path d="M 558.661605 371.954549 
L 560.267855 371.954549 
Q 561.053792 371.954549 561.485042 371.546736 
Q 561.917855 371.138924 561.917855 370.396736 
L 561.917855 368.306111 
Q 561.917855 367.563924 561.485042 367.156111 
Q 561.053792 366.748299 560.267855 366.748299 
L 558.661605 366.748299 
L 558.661605 365.801424 
L 560.238168 365.801424 
Q 561.092855 365.801424 561.697542 366.099861 
Q 562.303792 366.396736 562.62098 366.968611 
Q 562.938167 367.540486 562.938167 368.345174 
L 562.938167 370.357674 
Q 562.938167 371.162361 562.62098 371.734236 
Q 562.303792 372.306111 561.69598 372.604549 
Q 561.088167 372.901424 560.23348 372.901424 
L 558.661605 372.901424 
L 558.661605 371.954549 
z
M 557.988168 365.801424 
L 558.98348 365.801424 
L 558.98348 372.901424 
L 557.988168 372.901424 
L 557.988168 365.801424 
z
M 566.117855 372.901424 
L 565.12098 372.901424 
L 565.12098 366.885799 
L 564.110042 367.506111 
L 564.110042 366.474861 
L 565.12098 365.801424 
L 566.117855 365.801424 
L 566.117855 372.901424 
z
M 567.621175 372.037361 
L 570.096175 368.735799 
Q 570.3118 368.452986 570.43055 368.148299 
Q 570.550863 367.842049 570.550863 367.579549 
L 570.550863 367.568611 
Q 570.550863 367.145174 570.300863 366.910799 
Q 570.052425 366.676424 569.594613 366.676424 
Q 569.158675 366.676424 568.889925 366.932674 
Q 568.622738 367.188924 568.563363 367.657674 
L 568.563363 367.662361 
L 567.533675 367.662361 
L 567.533675 367.657674 
Q 567.621175 367.046736 567.891488 366.615486 
Q 568.163363 366.182674 568.59305 365.956111 
Q 569.022738 365.727986 569.583675 365.727986 
Q 570.219613 365.727986 570.66805 365.945174 
Q 571.11805 366.162361 571.352425 366.577986 
Q 571.5868 366.993611 571.5868 367.579549 
L 571.5868 367.584236 
Q 571.5868 367.959236 571.43055 368.370174 
Q 571.2743 368.779549 570.994613 369.160799 
L 568.939925 371.954549 
L 571.625863 371.954549 
L 571.625863 372.901424 
L 567.621175 372.901424 
L 567.621175 372.037361 
z
M 574.921566 372.974861 
Q 573.924691 372.974861 573.409066 372.443611 
Q 572.895003 371.910799 572.895003 370.957674 
L 572.895003 367.731111 
Q 572.895003 366.773299 573.412191 366.243611 
Q 573.929378 365.713924 574.921566 365.713924 
Q 575.916878 365.713924 576.432503 366.242049 
Q 576.948128 366.768611 576.948128 367.731111 
L 576.948128 370.957674 
Q 576.948128 371.915486 576.429378 372.445174 
Q 575.912191 372.974861 574.921566 372.974861 
z
M 574.921566 372.027986 
Q 575.448128 372.027986 575.699691 371.751424 
Q 575.951253 371.474861 575.951253 370.957674 
L 575.951253 367.731111 
Q 575.951253 367.212361 575.701253 366.937361 
Q 575.452816 366.660799 574.921566 366.660799 
Q 574.388753 366.660799 574.138753 366.937361 
Q 573.890316 367.212361 573.890316 367.731111 
L 573.890316 370.957674 
Q 573.890316 371.474861 574.141878 371.751424 
Q 574.393441 372.027986 574.921566 372.027986 
z
M 580.439144 372.974861 
Q 579.442269 372.974861 578.926644 372.443611 
Q 578.412582 371.910799 578.412582 370.957674 
L 578.412582 367.731111 
Q 578.412582 366.773299 578.929769 366.243611 
Q 579.446957 365.713924 580.439144 365.713924 
Q 581.434457 365.713924 581.950082 366.242049 
Q 582.465707 366.768611 582.465707 367.731111 
L 582.465707 370.957674 
Q 582.465707 371.915486 581.946957 372.445174 
Q 581.429769 372.974861 580.439144 372.974861 
z
M 580.439144 372.027986 
Q 580.965707 372.027986 581.217269 371.751424 
Q 581.468832 371.474861 581.468832 370.957674 
L 581.468832 367.731111 
Q 581.468832 367.212361 581.218832 366.937361 
Q 580.970394 366.660799 580.439144 366.660799 
Q 579.906332 366.660799 579.656332 366.937361 
Q 579.407894 367.212361 579.407894 367.731111 
L 579.407894 370.957674 
Q 579.407894 371.474861 579.659457 371.751424 
Q 579.911019 372.027986 580.439144 372.027986 
z
" style="fill: #ffffff"/>
   </g>
  </g>
 </g>
 <defs>
  <clipPath id="pa788c1c9ca">
   <rect x="144" y="77.76" width="892.8" height="498.96"/>
  </clipPath>
 </defs>
</svg>
