<?xml version="1.0" encoding="utf-8" standalone="no"?>
<!DOCTYPE svg PUBLIC "-//W3C//DTD SVG 1.1//EN"
  "http://www.w3.org/Graphics/SVG/1.1/DTD/svg11.dtd">
<svg xmlns:xlink="http://www.w3.org/1999/xlink" width="1152pt" height="648pt" viewBox="0 0 1152 648" xmlns="http://www.w3.org/2000/svg" version="1.1">
 <metadata>
  <rdf:RDF xmlns:dc="http://purl.org/dc/elements/1.1/" xmlns:cc="http://creativecommons.org/ns#" xmlns:rdf="http://www.w3.org/1999/02/22-rdf-syntax-ns#">
   <cc:Work>
    <dc:type rdf:resource="http://purl.org/dc/dcmitype/StillImage"/>
    <dc:date>2024-09-27T18:41:41.316413</dc:date>
    <dc:format>image/svg+xml</dc:format>
    <dc:creator>
     <cc:Agent>
      <dc:title>Matplotlib v3.8.1, https://matplotlib.org/</dc:title>
     </cc:Agent>
    </dc:creator>
   </cc:Work>
  </rdf:RDF>
 </metadata>
 <defs>
  <style type="text/css">*{stroke-linejoin: round; stroke-linecap: butt}</style>
 </defs>
 <g id="figure_1">
  <g id="patch_1">
   <path d="M 0 648 
L 1152 648 
L 1152 0 
L 0 0 
L 0 648 
z
" style="fill: none"/>
  </g>
  <g id="axes_1">
   <g id="PathCollection_1">
    <defs>
     <path id="m127bba06e1" d="M 0 2.738613 
C 0.726289 2.738613 1.422928 2.450055 1.936492 1.936492 
C 2.450055 1.422928 2.738613 0.726289 2.738613 0 
C 2.738613 -0.726289 2.450055 -1.422928 1.936492 -1.936492 
C 1.422928 -2.450055 0.726289 -2.738613 0 -2.738613 
C -0.726289 -2.738613 -1.422928 -2.450055 -1.936492 -1.936492 
C -2.450055 -1.422928 -2.738613 -0.726289 -2.738613 0 
C -2.738613 0.726289 -2.450055 1.422928 -1.936492 1.936492 
C -1.422928 2.450055 -0.726289 2.738613 0 2.738613 
z
" style="stroke: #bfff80"/>
    </defs>
    <g clip-path="url(#p70943306eb)">
     <use xlink:href="#m127bba06e1" x="758.048" y="144.43353" style="fill: #bfff80; stroke: #bfff80"/>
     <use xlink:href="#m127bba06e1" x="279.408" y="357.36471" style="fill: #bfff80; stroke: #bfff80"/>
    </g>
   </g>
   <g id="text_1">
    <path d="M 766.75298 138.980098 
L 767.60298 138.980098 
L 770.220168 146.080098 
L 769.145167 146.080098 
L 767.17798 140.351973 
L 765.210793 146.080098 
L 764.135792 146.080098 
L 766.75298 138.980098 
z
M 765.342042 143.57541 
L 769.07798 143.57541 
L 769.07798 144.522285 
L 765.342042 144.522285 
L 765.342042 143.57541 
z
M 772.861964 146.080098 
L 771.865089 146.080098 
L 771.865089 140.064473 
L 770.854152 140.684785 
L 770.854152 139.653535 
L 771.865089 138.980098 
L 772.861964 138.980098 
L 772.861964 146.080098 
z
M 776.552785 146.153535 
Q 775.909035 146.153535 775.419972 145.909785 
Q 774.932472 145.664473 774.665285 145.217598 
Q 774.39966 144.770723 774.39966 144.180098 
L 774.39966 144.06291 
Q 774.39966 143.53166 774.665285 143.06291 
Q 774.932472 142.59416 775.376222 142.355098 
Q 774.99966 142.148848 774.773097 141.761348 
Q 774.546535 141.372285 774.546535 140.942598 
L 774.546535 140.772285 
Q 774.546535 140.216035 774.794972 139.79416 
Q 775.04341 139.370723 775.498097 139.139473 
Q 775.952785 138.90666 776.552785 138.90666 
Q 777.152785 138.90666 777.607472 139.139473 
Q 778.06216 139.370723 778.310597 139.79416 
Q 778.559035 140.216035 778.559035 140.772285 
L 778.559035 140.942598 
Q 778.559035 141.383223 778.327785 141.76916 
Q 778.096535 142.153535 777.715285 142.355098 
Q 778.163722 142.598848 778.434035 143.066035 
Q 778.70591 143.53166 778.70591 144.06291 
L 778.70591 144.180098 
Q 778.70591 144.770723 778.440285 145.217598 
Q 778.17466 145.664473 777.685597 145.909785 
Q 777.198097 146.153535 776.552785 146.153535 
z
M 776.552785 145.195723 
Q 776.89966 145.195723 777.16216 145.059785 
Q 777.426222 144.922285 777.569972 144.676973 
Q 777.715285 144.430098 777.715285 144.10666 
L 777.715285 144.039473 
Q 777.715285 143.711348 777.569972 143.466035 
Q 777.426222 143.21916 777.16216 143.083223 
Q 776.89966 142.945723 776.552785 142.945723 
Q 776.20591 142.945723 775.941847 143.083223 
Q 775.679347 143.21916 775.534035 143.467598 
Q 775.390285 143.716035 775.390285 144.04416 
L 775.390285 144.117598 
Q 775.390285 144.439473 775.534035 144.683223 
Q 775.679347 144.926973 775.941847 145.061348 
Q 776.20591 145.195723 776.552785 145.195723 
z
M 776.552785 141.98791 
Q 776.851222 141.98791 777.079347 141.859785 
Q 777.309035 141.730098 777.435597 141.491035 
Q 777.563722 141.25041 777.563722 140.93791 
L 777.563722 140.870723 
Q 777.563722 140.572285 777.435597 140.342598 
Q 777.309035 140.11291 777.079347 139.989473 
Q 776.851222 139.864473 776.552785 139.864473 
Q 776.254347 139.864473 776.02466 139.989473 
Q 775.796535 140.11291 775.66841 140.342598 
Q 775.541847 140.572285 775.541847 140.87541 
L 775.541847 140.948848 
Q 775.541847 141.255098 775.66841 141.492598 
Q 775.796535 141.730098 776.02466 141.859785 
Q 776.254347 141.98791 776.552785 141.98791 
z
" style="fill: #ffffff; stroke: #000000"/>
    <path d="M 766.75298 138.980098 
L 767.60298 138.980098 
L 770.220168 146.080098 
L 769.145167 146.080098 
L 767.17798 140.351973 
L 765.210793 146.080098 
L 764.135792 146.080098 
L 766.75298 138.980098 
z
M 765.342042 143.57541 
L 769.07798 143.57541 
L 769.07798 144.522285 
L 765.342042 144.522285 
L 765.342042 143.57541 
z
M 772.861964 146.080098 
L 771.865089 146.080098 
L 771.865089 140.064473 
L 770.854152 140.684785 
L 770.854152 139.653535 
L 771.865089 138.980098 
L 772.861964 138.980098 
L 772.861964 146.080098 
z
M 776.552785 146.153535 
Q 775.909035 146.153535 775.419972 145.909785 
Q 774.932472 145.664473 774.665285 145.217598 
Q 774.39966 144.770723 774.39966 144.180098 
L 774.39966 144.06291 
Q 774.39966 143.53166 774.665285 143.06291 
Q 774.932472 142.59416 775.376222 142.355098 
Q 774.99966 142.148848 774.773097 141.761348 
Q 774.546535 141.372285 774.546535 140.942598 
L 774.546535 140.772285 
Q 774.546535 140.216035 774.794972 139.79416 
Q 775.04341 139.370723 775.498097 139.139473 
Q 775.952785 138.90666 776.552785 138.90666 
Q 777.152785 138.90666 777.607472 139.139473 
Q 778.06216 139.370723 778.310597 139.79416 
Q 778.559035 140.216035 778.559035 140.772285 
L 778.559035 140.942598 
Q 778.559035 141.383223 778.327785 141.76916 
Q 778.096535 142.153535 777.715285 142.355098 
Q 778.163722 142.598848 778.434035 143.066035 
Q 778.70591 143.53166 778.70591 144.06291 
L 778.70591 144.180098 
Q 778.70591 144.770723 778.440285 145.217598 
Q 778.17466 145.664473 777.685597 145.909785 
Q 777.198097 146.153535 776.552785 146.153535 
z
M 776.552785 145.195723 
Q 776.89966 145.195723 777.16216 145.059785 
Q 777.426222 144.922285 777.569972 144.676973 
Q 777.715285 144.430098 777.715285 144.10666 
L 777.715285 144.039473 
Q 777.715285 143.711348 777.569972 143.466035 
Q 777.426222 143.21916 777.16216 143.083223 
Q 776.89966 142.945723 776.552785 142.945723 
Q 776.20591 142.945723 775.941847 143.083223 
Q 775.679347 143.21916 775.534035 143.467598 
Q 775.390285 143.716035 775.390285 144.04416 
L 775.390285 144.117598 
Q 775.390285 144.439473 775.534035 144.683223 
Q 775.679347 144.926973 775.941847 145.061348 
Q 776.20591 145.195723 776.552785 145.195723 
z
M 776.552785 141.98791 
Q 776.851222 141.98791 777.079347 141.859785 
Q 777.309035 141.730098 777.435597 141.491035 
Q 777.563722 141.25041 777.563722 140.93791 
L 777.563722 140.870723 
Q 777.563722 140.572285 777.435597 140.342598 
Q 777.309035 140.11291 777.079347 139.989473 
Q 776.851222 139.864473 776.552785 139.864473 
Q 776.254347 139.864473 776.02466 139.989473 
Q 775.796535 140.11291 775.66841 140.342598 
Q 775.541847 140.572285 775.541847 140.87541 
L 775.541847 140.948848 
Q 775.541847 141.255098 775.66841 141.492598 
Q 775.796535 141.730098 776.02466 141.859785 
Q 776.254347 141.98791 776.552785 141.98791 
z
" style="fill: #ffffff"/>
   </g>
   <g id="text_2">
    <path d="M 288.11298 351.911278 
L 288.96298 351.911278 
L 291.580168 359.011278 
L 290.505167 359.011278 
L 288.53798 353.283153 
L 286.570792 359.011278 
L 285.495792 359.011278 
L 288.11298 351.911278 
z
M 286.702043 356.506591 
L 290.43798 356.506591 
L 290.43798 357.453465 
L 286.702043 357.453465 
L 286.702043 356.506591 
z
M 294.221964 359.011278 
L 293.225089 359.011278 
L 293.225089 352.995653 
L 292.214152 353.615966 
L 292.214152 352.584716 
L 293.225089 351.911278 
L 294.221964 351.911278 
L 294.221964 359.011278 
z
M 297.912785 359.084716 
Q 297.269035 359.084716 296.779972 358.840965 
Q 296.292472 358.595653 296.025285 358.148778 
Q 295.75966 357.701903 295.75966 357.111278 
L 295.75966 356.994091 
Q 295.75966 356.462841 296.025285 355.994091 
Q 296.292472 355.525341 296.736222 355.286278 
Q 296.35966 355.080028 296.133097 354.692528 
Q 295.906535 354.303466 295.906535 353.873778 
L 295.906535 353.703465 
Q 295.906535 353.147216 296.154972 352.725341 
Q 296.40341 352.301903 296.858097 352.070653 
Q 297.312785 351.837841 297.912785 351.837841 
Q 298.512785 351.837841 298.967472 352.070653 
Q 299.42216 352.301903 299.670597 352.725341 
Q 299.919035 353.147216 299.919035 353.703465 
L 299.919035 353.873778 
Q 299.919035 354.314403 299.687785 354.70034 
Q 299.456535 355.084716 299.075285 355.286278 
Q 299.523722 355.530028 299.794035 355.997215 
Q 300.06591 356.462841 300.06591 356.994091 
L 300.06591 357.111278 
Q 300.06591 357.701903 299.800285 358.148778 
Q 299.53466 358.595653 299.045597 358.840965 
Q 298.558097 359.084716 297.912785 359.084716 
z
M 297.912785 358.126903 
Q 298.25966 358.126903 298.52216 357.990966 
Q 298.786222 357.853466 298.929972 357.608153 
Q 299.075285 357.361278 299.075285 357.037841 
L 299.075285 356.970653 
Q 299.075285 356.642528 298.929972 356.397216 
Q 298.786222 356.150341 298.52216 356.014403 
Q 298.25966 355.876903 297.912785 355.876903 
Q 297.56591 355.876903 297.301847 356.014403 
Q 297.039347 356.150341 296.894035 356.398778 
Q 296.750285 356.647216 296.750285 356.975341 
L 296.750285 357.048778 
Q 296.750285 357.370653 296.894035 357.614403 
Q 297.039347 357.858153 297.301847 357.992528 
Q 297.56591 358.126903 297.912785 358.126903 
z
M 297.912785 354.91909 
Q 298.211222 354.91909 298.439347 354.790966 
Q 298.669035 354.661278 298.795597 354.422215 
Q 298.923722 354.181591 298.923722 353.869091 
L 298.923722 353.801903 
Q 298.923722 353.503466 298.795597 353.273778 
Q 298.669035 353.04409 298.439347 352.920653 
Q 298.211222 352.795653 297.912785 352.795653 
Q 297.614347 352.795653 297.38466 352.920653 
Q 297.156535 353.04409 297.02841 353.273778 
Q 296.901847 353.503466 296.901847 353.806591 
L 296.901847 353.880028 
Q 296.901847 354.186278 297.02841 354.423778 
Q 297.156535 354.661278 297.38466 354.790966 
Q 297.614347 354.91909 297.912785 354.91909 
z
" style="fill: #ffffff; stroke: #000000"/>
    <path d="M 288.11298 351.911278 
L 288.96298 351.911278 
L 291.580168 359.011278 
L 290.505167 359.011278 
L 288.53798 353.283153 
L 286.570792 359.011278 
L 285.495792 359.011278 
L 288.11298 351.911278 
z
M 286.702043 356.506591 
L 290.43798 356.506591 
L 290.43798 357.453465 
L 286.702043 357.453465 
L 286.702043 356.506591 
z
M 294.221964 359.011278 
L 293.225089 359.011278 
L 293.225089 352.995653 
L 292.214152 353.615966 
L 292.214152 352.584716 
L 293.225089 351.911278 
L 294.221964 351.911278 
L 294.221964 359.011278 
z
M 297.912785 359.084716 
Q 297.269035 359.084716 296.779972 358.840965 
Q 296.292472 358.595653 296.025285 358.148778 
Q 295.75966 357.701903 295.75966 357.111278 
L 295.75966 356.994091 
Q 295.75966 356.462841 296.025285 355.994091 
Q 296.292472 355.525341 296.736222 355.286278 
Q 296.35966 355.080028 296.133097 354.692528 
Q 295.906535 354.303466 295.906535 353.873778 
L 295.906535 353.703465 
Q 295.906535 353.147216 296.154972 352.725341 
Q 296.40341 352.301903 296.858097 352.070653 
Q 297.312785 351.837841 297.912785 351.837841 
Q 298.512785 351.837841 298.967472 352.070653 
Q 299.42216 352.301903 299.670597 352.725341 
Q 299.919035 353.147216 299.919035 353.703465 
L 299.919035 353.873778 
Q 299.919035 354.314403 299.687785 354.70034 
Q 299.456535 355.084716 299.075285 355.286278 
Q 299.523722 355.530028 299.794035 355.997215 
Q 300.06591 356.462841 300.06591 356.994091 
L 300.06591 357.111278 
Q 300.06591 357.701903 299.800285 358.148778 
Q 299.53466 358.595653 299.045597 358.840965 
Q 298.558097 359.084716 297.912785 359.084716 
z
M 297.912785 358.126903 
Q 298.25966 358.126903 298.52216 357.990966 
Q 298.786222 357.853466 298.929972 357.608153 
Q 299.075285 357.361278 299.075285 357.037841 
L 299.075285 356.970653 
Q 299.075285 356.642528 298.929972 356.397216 
Q 298.786222 356.150341 298.52216 356.014403 
Q 298.25966 355.876903 297.912785 355.876903 
Q 297.56591 355.876903 297.301847 356.014403 
Q 297.039347 356.150341 296.894035 356.398778 
Q 296.750285 356.647216 296.750285 356.975341 
L 296.750285 357.048778 
Q 296.750285 357.370653 296.894035 357.614403 
Q 297.039347 357.858153 297.301847 357.992528 
Q 297.56591 358.126903 297.912785 358.126903 
z
M 297.912785 354.91909 
Q 298.211222 354.91909 298.439347 354.790966 
Q 298.669035 354.661278 298.795597 354.422215 
Q 298.923722 354.181591 298.923722 353.869091 
L 298.923722 353.801903 
Q 298.923722 353.503466 298.795597 353.273778 
Q 298.669035 353.04409 298.439347 352.920653 
Q 298.211222 352.795653 297.912785 352.795653 
Q 297.614347 352.795653 297.38466 352.920653 
Q 297.156535 353.04409 297.02841 353.273778 
Q 296.901847 353.503466 296.901847 353.806591 
L 296.901847 353.880028 
Q 296.901847 354.186278 297.02841 354.423778 
Q 297.156535 354.661278 297.38466 354.790966 
Q 297.614347 354.91909 297.912785 354.91909 
z
" style="fill: #ffffff"/>
   </g>
  </g>
 </g>
 <defs>
  <clipPath id="p70943306eb">
   <rect x="144" y="77.76" width="892.8" height="498.96"/>
  </clipPath>
 </defs>
</svg>
