<?xml version="1.0" encoding="utf-8" standalone="no"?>
<!DOCTYPE svg PUBLIC "-//W3C//DTD SVG 1.1//EN"
  "http://www.w3.org/Graphics/SVG/1.1/DTD/svg11.dtd">
<svg xmlns:xlink="http://www.w3.org/1999/xlink" width="1152pt" height="648pt" viewBox="0 0 1152 648" xmlns="http://www.w3.org/2000/svg" version="1.1">
 <metadata>
  <rdf:RDF xmlns:dc="http://purl.org/dc/elements/1.1/" xmlns:cc="http://creativecommons.org/ns#" xmlns:rdf="http://www.w3.org/1999/02/22-rdf-syntax-ns#">
   <cc:Work>
    <dc:type rdf:resource="http://purl.org/dc/dcmitype/StillImage"/>
    <dc:date>2024-09-19T17:32:04.719375</dc:date>
    <dc:format>image/svg+xml</dc:format>
    <dc:creator>
     <cc:Agent>
      <dc:title>Matplotlib v3.8.1, https://matplotlib.org/</dc:title>
     </cc:Agent>
    </dc:creator>
   </cc:Work>
  </rdf:RDF>
 </metadata>
 <defs>
  <style type="text/css">*{stroke-linejoin: round; stroke-linecap: butt}</style>
 </defs>
 <g id="figure_1">
  <g id="patch_1">
   <path d="M 0 648 
L 1152 648 
L 1152 0 
L 0 0 
L 0 648 
z
" style="fill: none"/>
  </g>
  <g id="axes_1">
   <g id="line2d_1">
    <path d="M 239.232 467.767053 
L 243.470545 463.73912 
L 247.709091 459.813032 
L 251.947636 455.988454 
L 256.186182 452.264888 
L 260.424727 448.641678 
L 264.663273 445.118025 
L 268.901818 441.692995 
L 273.140364 438.365528 
L 277.378909 435.13445 
L 281.617455 431.998481 
L 285.856 428.956244 
L 290.094545 426.006278 
L 294.333091 423.147044 
L 298.571636 420.376931 
L 302.810182 417.694272 
L 307.048727 415.097345 
L 311.287273 412.584385 
L 315.525818 410.153587 
L 319.764364 407.803119 
L 324.002909 405.531123 
L 328.241455 403.335723 
L 332.48 401.215032 
L 336.718545 399.167156 
L 340.957091 397.190198 
L 345.195636 395.282267 
L 349.434182 393.441475 
L 353.672727 391.665948 
L 357.911273 389.953826 
L 362.149818 388.303266 
L 366.388364 386.712446 
L 370.626909 385.179569 
L 374.865455 383.702861 
L 379.104 382.280579 
L 383.342545 380.911006 
L 387.581091 379.592458 
L 391.819636 378.323285 
L 396.058182 377.10187 
L 400.296727 375.926628 
L 404.535273 374.796013 
L 408.773818 373.708514 
L 413.012364 372.662656 
L 417.250909 371.657002 
L 421.489455 370.690152 
L 425.728 369.760741 
L 429.966545 368.867446 
L 434.205091 368.008975 
L 438.443636 367.184078 
L 442.682182 366.39154 
L 446.920727 365.63018 
L 451.159273 364.898855 
L 455.397818 364.196458 
L 459.636364 363.521914 
L 463.874909 362.874184 
L 468.113455 362.252263 
L 472.352 361.655178 
L 476.590545 361.081987 
L 480.829091 360.531782 
L 485.067636 360.003685 
L 489.306182 359.496846 
L 493.544727 359.010447 
L 497.783273 358.543698 
L 502.021818 358.095836 
L 506.260364 357.666125 
L 510.498909 357.253857 
L 514.737455 356.858347 
L 518.976 356.478936 
L 523.214545 356.114991 
L 527.453091 355.765899 
L 531.691636 355.431072 
L 535.930182 355.109943 
L 540.168727 354.801966 
L 544.407273 354.506617 
L 548.645818 354.223389 
L 552.884364 353.951797 
L 557.122909 353.691374 
L 561.361455 353.44167 
L 565.6 353.202252 
L 569.838545 352.972705 
L 574.077091 352.75263 
L 578.315636 352.541643 
L 582.554182 352.339374 
L 586.792727 352.14547 
L 591.031273 351.95959 
L 595.269818 351.781406 
L 599.508364 351.610606 
L 603.746909 351.446886 
L 607.985455 351.289957 
L 612.224 351.139541 
L 616.462545 350.995371 
L 620.701091 350.857191 
L 624.939636 350.724754 
L 629.178182 350.597825 
L 633.416727 350.476176 
L 637.655273 350.35959 
L 641.893818 350.247858 
L 646.132364 350.14078 
L 650.370909 350.038164 
L 654.609455 349.939825 
L 658.848 349.845586 
" clip-path="url(#pa2dbbe3d59)" style="fill: none; stroke: #33ffcc; stroke-width: 3; stroke-linecap: round"/>
   </g>
   <g id="text_1">
    <path d="M 667.55298 344.392154 
L 668.40298 344.392154 
L 671.020168 351.492154 
L 669.945168 351.492154 
L 667.97798 345.764029 
L 666.010793 351.492154 
L 664.935793 351.492154 
L 667.55298 344.392154 
z
M 666.142043 348.987466 
L 669.87798 348.987466 
L 669.87798 349.934341 
L 666.142043 349.934341 
L 666.142043 348.987466 
z
M 673.661964 351.492154 
L 672.665089 351.492154 
L 672.665089 345.476529 
L 671.654152 346.096841 
L 671.654152 345.065591 
L 672.665089 344.392154 
L 673.661964 344.392154 
L 673.661964 351.492154 
z
M 677.109035 351.565591 
Q 676.513722 351.565591 676.059035 351.348404 
Q 675.604347 351.131216 675.327785 350.718716 
Q 675.052785 350.306216 674.979347 349.724966 
L 674.979347 349.724966 
L 675.994972 349.724966 
L 675.994972 349.724966 
Q 676.038722 350.026529 676.185597 350.221841 
Q 676.332472 350.417154 676.563722 350.512466 
Q 676.796535 350.607779 677.109035 350.607779 
Q 677.601222 350.607779 677.87466 350.345279 
Q 678.148097 350.081216 678.148097 349.603091 
L 678.148097 349.387466 
Q 678.148097 348.854654 677.888722 348.565591 
Q 677.63091 348.274966 677.157472 348.274966 
L 676.654347 348.274966 
L 676.654347 347.326529 
L 677.157472 347.326529 
Q 677.573097 347.326529 677.801222 347.078091 
Q 678.03091 346.829654 678.03091 346.374966 
L 678.03091 346.154654 
Q 678.03091 345.735904 677.788722 345.506216 
Q 677.548097 345.276529 677.104347 345.276529 
Q 676.84966 345.276529 676.64966 345.371841 
Q 676.44966 345.467154 676.310597 345.665591 
Q 676.171535 345.862466 676.107472 346.159341 
L 676.107472 346.159341 
L 675.096535 346.159341 
L 675.096535 346.159341 
Q 675.194972 345.579654 675.465285 345.164029 
Q 675.73716 344.748404 676.151222 344.534341 
Q 676.566847 344.318716 677.104347 344.318716 
Q 678.021535 344.318716 678.52466 344.803091 
Q 679.027785 345.285904 679.027785 346.165591 
L 679.027785 346.282779 
Q 679.027785 346.814029 678.738722 347.209341 
Q 678.451222 347.604654 677.92466 347.785904 
Q 678.50591 347.912466 678.82466 348.357779 
Q 679.144972 348.801529 679.144972 349.490591 
L 679.144972 349.607779 
Q 679.144972 350.228091 678.90591 350.667154 
Q 678.666847 351.106216 678.209035 351.335904 
Q 677.752785 351.565591 677.109035 351.565591 
z
" style="fill: #ffffff; stroke: #000000"/>
    <path d="M 667.55298 344.392154 
L 668.40298 344.392154 
L 671.020168 351.492154 
L 669.945168 351.492154 
L 667.97798 345.764029 
L 666.010793 351.492154 
L 664.935793 351.492154 
L 667.55298 344.392154 
z
M 666.142043 348.987466 
L 669.87798 348.987466 
L 669.87798 349.934341 
L 666.142043 349.934341 
L 666.142043 348.987466 
z
M 673.661964 351.492154 
L 672.665089 351.492154 
L 672.665089 345.476529 
L 671.654152 346.096841 
L 671.654152 345.065591 
L 672.665089 344.392154 
L 673.661964 344.392154 
L 673.661964 351.492154 
z
M 677.109035 351.565591 
Q 676.513722 351.565591 676.059035 351.348404 
Q 675.604347 351.131216 675.327785 350.718716 
Q 675.052785 350.306216 674.979347 349.724966 
L 674.979347 349.724966 
L 675.994972 349.724966 
L 675.994972 349.724966 
Q 676.038722 350.026529 676.185597 350.221841 
Q 676.332472 350.417154 676.563722 350.512466 
Q 676.796535 350.607779 677.109035 350.607779 
Q 677.601222 350.607779 677.87466 350.345279 
Q 678.148097 350.081216 678.148097 349.603091 
L 678.148097 349.387466 
Q 678.148097 348.854654 677.888722 348.565591 
Q 677.63091 348.274966 677.157472 348.274966 
L 676.654347 348.274966 
L 676.654347 347.326529 
L 677.157472 347.326529 
Q 677.573097 347.326529 677.801222 347.078091 
Q 678.03091 346.829654 678.03091 346.374966 
L 678.03091 346.154654 
Q 678.03091 345.735904 677.788722 345.506216 
Q 677.548097 345.276529 677.104347 345.276529 
Q 676.84966 345.276529 676.64966 345.371841 
Q 676.44966 345.467154 676.310597 345.665591 
Q 676.171535 345.862466 676.107472 346.159341 
L 676.107472 346.159341 
L 675.096535 346.159341 
L 675.096535 346.159341 
Q 675.194972 345.579654 675.465285 345.164029 
Q 675.73716 344.748404 676.151222 344.534341 
Q 676.566847 344.318716 677.104347 344.318716 
Q 678.021535 344.318716 678.52466 344.803091 
Q 679.027785 345.285904 679.027785 346.165591 
L 679.027785 346.282779 
Q 679.027785 346.814029 678.738722 347.209341 
Q 678.451222 347.604654 677.92466 347.785904 
Q 678.50591 347.912466 678.82466 348.357779 
Q 679.144972 348.801529 679.144972 349.490591 
L 679.144972 349.607779 
Q 679.144972 350.228091 678.90591 350.667154 
Q 678.666847 351.106216 678.209035 351.335904 
Q 677.752785 351.565591 677.109035 351.565591 
z
" style="fill: #ffffff"/>
   </g>
  </g>
 </g>
 <defs>
  <clipPath id="pa2dbbe3d59">
   <rect x="144" y="77.76" width="892.8" height="498.96"/>
  </clipPath>
 </defs>
</svg>
