<?xml version="1.0" encoding="utf-8" standalone="no"?>
<!DOCTYPE svg PUBLIC "-//W3C//DTD SVG 1.1//EN"
  "http://www.w3.org/Graphics/SVG/1.1/DTD/svg11.dtd">
<svg xmlns:xlink="http://www.w3.org/1999/xlink" width="1152pt" height="648pt" viewBox="0 0 1152 648" xmlns="http://www.w3.org/2000/svg" version="1.1">
 <metadata>
  <rdf:RDF xmlns:dc="http://purl.org/dc/elements/1.1/" xmlns:cc="http://creativecommons.org/ns#" xmlns:rdf="http://www.w3.org/1999/02/22-rdf-syntax-ns#">
   <cc:Work>
    <dc:type rdf:resource="http://purl.org/dc/dcmitype/StillImage"/>
    <dc:date>2024-03-14T14:55:07.691200</dc:date>
    <dc:format>image/svg+xml</dc:format>
    <dc:creator>
     <cc:Agent>
      <dc:title>Matplotlib v3.8.3, https://matplotlib.org/</dc:title>
     </cc:Agent>
    </dc:creator>
   </cc:Work>
  </rdf:RDF>
 </metadata>
 <defs>
  <style type="text/css">*{stroke-linejoin: round; stroke-linecap: butt}</style>
 </defs>
 <g id="figure_1">
  <g id="patch_1">
   <path d="M 0 648 
L 1152 648 
L 1152 0 
L 0 0 
L 0 648 
z
" style="fill: none"/>
  </g>
  <g id="axes_1">
   <g id="line2d_1">
    <path d="M 235.264 465.27857 
L 238.736 462.540222 
L 242.208 459.825382 
L 245.68 457.134248 
L 249.152 454.467005 
L 252.624 451.823827 
L 256.096 449.204876 
L 259.568 446.610301 
L 263.04 444.040241 
L 266.512 441.494822 
L 269.984 438.974158 
L 273.456 436.478353 
L 276.928 434.0075 
L 280.4 431.561679 
L 283.872 429.14096 
L 287.344 426.745405 
L 290.816 424.37506 
L 294.288 422.029966 
L 297.76 419.710151 
L 301.232 417.415634 
L 304.704 415.146424 
L 308.176 412.90252 
L 311.648 410.683912 
L 315.12 408.490582 
L 318.592 406.322501 
L 322.064 404.179634 
L 325.536 402.061934 
L 329.008 399.969351 
L 332.48 397.901821 
L 335.952 395.859276 
L 339.424 393.841639 
L 342.896 391.848828 
L 346.368 389.880751 
L 349.84 387.937309 
L 353.312 386.0184 
L 356.784 384.123912 
L 360.256 382.253728 
L 363.728 380.407726 
L 367.2 378.585776 
L 370.672 376.787745 
L 374.144 375.013493 
L 377.616 373.262875 
L 381.088 371.535743 
L 384.56 369.831941 
L 388.032 368.151313 
L 391.504 366.493694 
L 394.976 364.858918 
L 398.448 363.246814 
L 401.92 361.657209 
L 405.392 360.089924 
L 408.864 358.544779 
L 412.336 357.02159 
L 415.808 355.52017 
L 419.28 354.040328 
L 422.752 352.581874 
L 426.224 351.144613 
L 429.696 349.728348 
L 433.168 348.332881 
L 436.64 346.958011 
L 440.112 345.603536 
L 443.584 344.269253 
L 447.056 342.954955 
L 450.528 341.660438 
L 454 340.385494 
L 457.472 339.129914 
L 460.944 337.893489 
L 464.416 336.676009 
L 467.888 335.477265 
L 471.36 334.297044 
L 474.832 333.135136 
L 478.304 331.991329 
L 481.776 330.865412 
L 485.248 329.757174 
L 488.72 328.666402 
L 492.192 327.592886 
L 495.664 326.536414 
L 499.136 325.496777 
L 502.608 324.473763 
L 506.08 323.467165 
L 509.552 322.476772 
L 513.024 321.502376 
L 516.496 320.543772 
L 519.968 319.600751 
L 523.44 318.673108 
L 526.912 317.76064 
L 530.384 316.863142 
L 533.856 315.980412 
L 537.328 315.11225 
L 540.8 314.258455 
L 544.272 313.418829 
L 547.744 312.593174 
L 551.216 311.781295 
L 554.688 310.982998 
L 558.16 310.198089 
L 561.632 309.426378 
L 565.104 308.667673 
L 568.576 307.921788 
L 572.048 307.188535 
L 575.52 306.467729 
L 578.992 305.759188 
" clip-path="url(#p3ba86b6b89)" style="fill: none; stroke: #30d2f2; stroke-width: 3; stroke-linecap: round"/>
   </g>
   <g id="text_1">
    <path d="M 587.89698 307.479193 
Q 587.38448 307.479193 586.925105 307.382318 
Q 586.467292 307.283881 586.068855 307.088568 
Q 585.670417 306.893256 585.323542 306.599506 
L 585.323542 306.599506 
L 585.943855 305.838568 
L 585.943855 305.838568 
Q 586.350105 306.190131 586.837605 306.366693 
Q 587.326667 306.541693 587.89698 306.541693 
Q 588.668855 306.541693 589.093855 306.255756 
Q 589.518855 305.969818 589.518855 305.447943 
L 589.518855 305.443256 
Q 589.518855 305.071381 589.325105 304.854193 
Q 589.132917 304.637006 588.826667 304.532318 
Q 588.52198 304.427631 588.039167 304.338568 
Q 588.023542 304.333881 588.006355 304.333881 
Q 587.99073 304.333881 587.975105 304.329193 
L 587.901667 304.315131 
Q 587.189167 304.193256 586.742292 304.040131 
Q 586.295417 303.885443 585.97823 303.477631 
Q 585.661042 303.069818 585.661042 302.318256 
L 585.661042 302.313568 
Q 585.661042 301.654193 585.956355 301.188568 
Q 586.251667 300.721381 586.817292 300.477631 
Q 587.38448 300.232318 588.179792 300.232318 
Q 588.561042 300.232318 588.929792 300.316693 
Q 589.298542 300.399506 589.656355 300.563568 
Q 590.01573 300.726068 590.362605 300.974506 
L 590.362605 300.974506 
L 589.79698 301.766693 
L 589.79698 301.766693 
Q 589.39073 301.468256 588.987605 301.319818 
Q 588.586042 301.169818 588.179792 301.169818 
Q 587.45323 301.169818 587.050105 301.460443 
Q 586.64698 301.751068 586.64698 302.283881 
L 586.64698 302.288568 
Q 586.64698 302.654193 586.854792 302.865131 
Q 587.062605 303.074506 587.37198 303.174506 
Q 587.682917 303.274506 588.23448 303.382318 
Q 588.25323 303.387006 588.270417 303.390131 
Q 588.287605 303.391693 588.307917 303.396381 
Q 588.331355 303.401068 588.361042 303.407318 
Q 588.39073 303.412006 588.414167 303.416693 
Q 589.05948 303.547943 589.49073 303.729193 
Q 589.923542 303.908881 590.214167 304.312006 
Q 590.504792 304.715131 590.504792 305.413568 
L 590.504792 305.422943 
Q 590.504792 306.072943 590.19698 306.533881 
Q 589.889167 306.994818 589.304792 307.237006 
Q 588.72198 307.479193 587.89698 307.479193 
z
M 592.594832 306.458881 
L 594.201082 306.458881 
Q 594.987019 306.458881 595.418269 306.051068 
Q 595.851082 305.643256 595.851082 304.901068 
L 595.851082 302.810443 
Q 595.851082 302.068256 595.418269 301.660443 
Q 594.987019 301.252631 594.201082 301.252631 
L 592.594832 301.252631 
L 592.594832 300.305756 
L 594.171394 300.305756 
Q 595.026082 300.305756 595.630769 300.604193 
Q 596.237019 300.901068 596.554207 301.472943 
Q 596.871394 302.044818 596.871394 302.849506 
L 596.871394 304.862006 
Q 596.871394 305.666693 596.554207 306.238568 
Q 596.237019 306.810443 595.629207 307.108881 
Q 595.021394 307.405756 594.166707 307.405756 
L 592.594832 307.405756 
L 592.594832 306.458881 
z
M 591.921394 300.305756 
L 592.916707 300.305756 
L 592.916707 307.405756 
L 591.921394 307.405756 
L 591.921394 300.305756 
z
M 600.416707 307.479193 
Q 599.772957 307.479193 599.283894 307.235443 
Q 598.796394 306.990131 598.529207 306.543256 
Q 598.263582 306.096381 598.263582 305.505756 
L 598.263582 305.388568 
Q 598.263582 304.857318 598.529207 304.388568 
Q 598.796394 303.919818 599.240144 303.680756 
Q 598.863582 303.474506 598.637019 303.087006 
Q 598.410457 302.697943 598.410457 302.268256 
L 598.410457 302.097943 
Q 598.410457 301.541693 598.658894 301.119818 
Q 598.907332 300.696381 599.362019 300.465131 
Q 599.816707 300.232318 600.416707 300.232318 
Q 601.016707 300.232318 601.471394 300.465131 
Q 601.926082 300.696381 602.174519 301.119818 
Q 602.422957 301.541693 602.422957 302.097943 
L 602.422957 302.268256 
Q 602.422957 302.708881 602.191707 303.094818 
Q 601.960457 303.479193 601.579207 303.680756 
Q 602.027644 303.924506 602.297957 304.391693 
Q 602.569832 304.857318 602.569832 305.388568 
L 602.569832 305.505756 
Q 602.569832 306.096381 602.304207 306.543256 
Q 602.038582 306.990131 601.549519 307.235443 
Q 601.062019 307.479193 600.416707 307.479193 
z
M 600.416707 306.521381 
Q 600.763582 306.521381 601.026082 306.385443 
Q 601.290144 306.247943 601.433894 306.002631 
Q 601.579207 305.755756 601.579207 305.432318 
L 601.579207 305.365131 
Q 601.579207 305.037006 601.433894 304.791693 
Q 601.290144 304.544818 601.026082 304.408881 
Q 600.763582 304.271381 600.416707 304.271381 
Q 600.069832 304.271381 599.805769 304.408881 
Q 599.543269 304.544818 599.397957 304.793256 
Q 599.254207 305.041693 599.254207 305.369818 
L 599.254207 305.443256 
Q 599.254207 305.765131 599.397957 306.008881 
Q 599.543269 306.252631 599.805769 306.387006 
Q 600.069832 306.521381 600.416707 306.521381 
z
M 600.416707 303.313568 
Q 600.715144 303.313568 600.943269 303.185443 
Q 601.172957 303.055756 601.299519 302.816693 
Q 601.427644 302.576068 601.427644 302.263568 
L 601.427644 302.196381 
Q 601.427644 301.897943 601.299519 301.668256 
Q 601.172957 301.438568 600.943269 301.315131 
Q 600.715144 301.190131 600.416707 301.190131 
Q 600.118269 301.190131 599.888582 301.315131 
Q 599.660457 301.438568 599.532332 301.668256 
Q 599.405769 301.897943 599.405769 302.201068 
L 599.405769 302.274506 
Q 599.405769 302.580756 599.532332 302.818256 
Q 599.660457 303.055756 599.888582 303.185443 
Q 600.118269 303.313568 600.416707 303.313568 
z
M 607.877644 303.660443 
L 607.877644 304.607318 
L 603.913582 304.607318 
L 603.913582 303.660443 
L 607.877644 303.660443 
z
M 606.393269 306.116693 
L 605.397957 306.116693 
L 605.397957 302.151068 
L 606.393269 302.151068 
L 606.393269 306.116693 
z
M 615.954207 303.582318 
L 615.954207 304.822943 
Q 615.954207 305.613568 615.646394 306.216693 
Q 615.338582 306.819818 614.774519 307.149506 
Q 614.210457 307.479193 613.468269 307.479193 
Q 612.716707 307.479193 612.147957 307.169818 
Q 611.579207 306.858881 611.266707 306.293256 
Q 610.954207 305.726068 610.954207 304.979193 
L 610.954207 302.883881 
Q 610.954207 302.093256 611.262019 301.493256 
Q 611.569832 300.891693 612.132332 300.562006 
Q 612.696394 300.232318 613.438582 300.232318 
Q 614.049519 300.232318 614.563582 300.494818 
Q 615.079207 300.755756 615.426082 301.233881 
Q 615.772957 301.712006 615.894832 302.341693 
L 615.894832 302.341693 
L 614.816707 302.341693 
L 614.816707 302.341693 
Q 614.727644 301.985443 614.518269 301.729193 
Q 614.308894 301.472943 614.024519 301.338568 
Q 613.741707 301.204193 613.438582 301.204193 
Q 612.999519 301.204193 612.666707 301.415131 
Q 612.335457 301.624506 612.154207 302.002631 
Q 611.974519 302.380756 611.974519 302.883881 
L 611.974519 304.979193 
Q 611.974519 305.438568 612.158894 305.782318 
Q 612.344832 306.126068 612.683894 306.316693 
Q 613.024519 306.507318 613.468269 306.507318 
Q 613.907332 306.507318 614.238582 306.310443 
Q 614.571394 306.112006 614.752644 305.737006 
Q 614.933894 305.360443 614.933894 304.841693 
L 614.933894 304.533881 
L 613.493269 304.533881 
L 613.493269 303.582318 
L 615.954207 303.582318 
z
M 619.542488 307.479193 
Q 618.839363 307.479193 618.340925 307.215131 
Q 617.84405 306.951068 617.58155 306.441693 
Q 617.320613 305.930756 617.320613 305.208881 
L 617.320613 304.637006 
Q 617.320613 303.885443 617.572175 303.354193 
Q 617.823738 302.821381 618.301863 302.543256 
Q 618.78155 302.263568 619.454988 302.263568 
Q 620.089363 302.263568 620.5378 302.582318 
Q 620.9878 302.899506 621.223738 303.499506 
Q 621.461238 304.099506 621.461238 304.940131 
L 621.461238 305.271381 
L 618.04405 305.271381 
L 618.04405 304.471381 
L 620.514363 304.471381 
L 620.514363 304.471381 
Q 620.470613 303.851068 620.19405 303.507318 
Q 619.91905 303.162006 619.454988 303.162006 
Q 618.8878 303.162006 618.578425 303.533881 
Q 618.26905 303.904193 618.26905 304.583881 
L 618.26905 305.227631 
Q 618.26905 305.857318 618.6003 306.194818 
Q 618.933113 306.532318 619.542488 306.532318 
Q 619.845613 306.532318 620.142488 306.410443 
Q 620.440925 306.287006 620.6753 306.068256 
L 620.6753 306.068256 
L 621.329988 306.721381 
L 621.329988 306.721381 
Q 620.953425 307.083881 620.484675 307.282318 
Q 620.015925 307.479193 619.542488 307.479193 
z
M 622.828816 302.337006 
L 623.825691 302.337006 
L 623.825691 307.405756 
L 622.828816 307.405756 
L 622.828816 302.337006 
z
M 625.905378 304.333881 
Q 625.905378 303.797943 625.627253 303.505756 
Q 625.349128 303.212006 624.846003 303.212006 
Q 624.356941 303.212006 624.091316 303.471381 
Q 623.825691 303.729193 623.825691 304.197943 
L 623.722566 303.221381 
Q 623.956941 302.762006 624.335066 302.513568 
Q 624.713191 302.263568 625.172566 302.263568 
Q 625.997566 302.263568 626.449128 302.804193 
Q 626.900691 303.343256 626.900691 304.329193 
L 626.900691 307.405756 
L 625.905378 307.405756 
L 625.905378 304.333881 
z
M 630.080378 307.405756 
L 629.083503 307.405756 
L 629.083503 301.390131 
L 628.072566 302.010443 
L 628.072566 300.979193 
L 629.083503 300.305756 
L 630.080378 300.305756 
L 630.080378 307.405756 
z
" style="fill: #ffffff; stroke: #000000"/>
    <path d="M 587.89698 307.479193 
Q 587.38448 307.479193 586.925105 307.382318 
Q 586.467292 307.283881 586.068855 307.088568 
Q 585.670417 306.893256 585.323542 306.599506 
L 585.323542 306.599506 
L 585.943855 305.838568 
L 585.943855 305.838568 
Q 586.350105 306.190131 586.837605 306.366693 
Q 587.326667 306.541693 587.89698 306.541693 
Q 588.668855 306.541693 589.093855 306.255756 
Q 589.518855 305.969818 589.518855 305.447943 
L 589.518855 305.443256 
Q 589.518855 305.071381 589.325105 304.854193 
Q 589.132917 304.637006 588.826667 304.532318 
Q 588.52198 304.427631 588.039167 304.338568 
Q 588.023542 304.333881 588.006355 304.333881 
Q 587.99073 304.333881 587.975105 304.329193 
L 587.901667 304.315131 
Q 587.189167 304.193256 586.742292 304.040131 
Q 586.295417 303.885443 585.97823 303.477631 
Q 585.661042 303.069818 585.661042 302.318256 
L 585.661042 302.313568 
Q 585.661042 301.654193 585.956355 301.188568 
Q 586.251667 300.721381 586.817292 300.477631 
Q 587.38448 300.232318 588.179792 300.232318 
Q 588.561042 300.232318 588.929792 300.316693 
Q 589.298542 300.399506 589.656355 300.563568 
Q 590.01573 300.726068 590.362605 300.974506 
L 590.362605 300.974506 
L 589.79698 301.766693 
L 589.79698 301.766693 
Q 589.39073 301.468256 588.987605 301.319818 
Q 588.586042 301.169818 588.179792 301.169818 
Q 587.45323 301.169818 587.050105 301.460443 
Q 586.64698 301.751068 586.64698 302.283881 
L 586.64698 302.288568 
Q 586.64698 302.654193 586.854792 302.865131 
Q 587.062605 303.074506 587.37198 303.174506 
Q 587.682917 303.274506 588.23448 303.382318 
Q 588.25323 303.387006 588.270417 303.390131 
Q 588.287605 303.391693 588.307917 303.396381 
Q 588.331355 303.401068 588.361042 303.407318 
Q 588.39073 303.412006 588.414167 303.416693 
Q 589.05948 303.547943 589.49073 303.729193 
Q 589.923542 303.908881 590.214167 304.312006 
Q 590.504792 304.715131 590.504792 305.413568 
L 590.504792 305.422943 
Q 590.504792 306.072943 590.19698 306.533881 
Q 589.889167 306.994818 589.304792 307.237006 
Q 588.72198 307.479193 587.89698 307.479193 
z
M 592.594832 306.458881 
L 594.201082 306.458881 
Q 594.987019 306.458881 595.418269 306.051068 
Q 595.851082 305.643256 595.851082 304.901068 
L 595.851082 302.810443 
Q 595.851082 302.068256 595.418269 301.660443 
Q 594.987019 301.252631 594.201082 301.252631 
L 592.594832 301.252631 
L 592.594832 300.305756 
L 594.171394 300.305756 
Q 595.026082 300.305756 595.630769 300.604193 
Q 596.237019 300.901068 596.554207 301.472943 
Q 596.871394 302.044818 596.871394 302.849506 
L 596.871394 304.862006 
Q 596.871394 305.666693 596.554207 306.238568 
Q 596.237019 306.810443 595.629207 307.108881 
Q 595.021394 307.405756 594.166707 307.405756 
L 592.594832 307.405756 
L 592.594832 306.458881 
z
M 591.921394 300.305756 
L 592.916707 300.305756 
L 592.916707 307.405756 
L 591.921394 307.405756 
L 591.921394 300.305756 
z
M 600.416707 307.479193 
Q 599.772957 307.479193 599.283894 307.235443 
Q 598.796394 306.990131 598.529207 306.543256 
Q 598.263582 306.096381 598.263582 305.505756 
L 598.263582 305.388568 
Q 598.263582 304.857318 598.529207 304.388568 
Q 598.796394 303.919818 599.240144 303.680756 
Q 598.863582 303.474506 598.637019 303.087006 
Q 598.410457 302.697943 598.410457 302.268256 
L 598.410457 302.097943 
Q 598.410457 301.541693 598.658894 301.119818 
Q 598.907332 300.696381 599.362019 300.465131 
Q 599.816707 300.232318 600.416707 300.232318 
Q 601.016707 300.232318 601.471394 300.465131 
Q 601.926082 300.696381 602.174519 301.119818 
Q 602.422957 301.541693 602.422957 302.097943 
L 602.422957 302.268256 
Q 602.422957 302.708881 602.191707 303.094818 
Q 601.960457 303.479193 601.579207 303.680756 
Q 602.027644 303.924506 602.297957 304.391693 
Q 602.569832 304.857318 602.569832 305.388568 
L 602.569832 305.505756 
Q 602.569832 306.096381 602.304207 306.543256 
Q 602.038582 306.990131 601.549519 307.235443 
Q 601.062019 307.479193 600.416707 307.479193 
z
M 600.416707 306.521381 
Q 600.763582 306.521381 601.026082 306.385443 
Q 601.290144 306.247943 601.433894 306.002631 
Q 601.579207 305.755756 601.579207 305.432318 
L 601.579207 305.365131 
Q 601.579207 305.037006 601.433894 304.791693 
Q 601.290144 304.544818 601.026082 304.408881 
Q 600.763582 304.271381 600.416707 304.271381 
Q 600.069832 304.271381 599.805769 304.408881 
Q 599.543269 304.544818 599.397957 304.793256 
Q 599.254207 305.041693 599.254207 305.369818 
L 599.254207 305.443256 
Q 599.254207 305.765131 599.397957 306.008881 
Q 599.543269 306.252631 599.805769 306.387006 
Q 600.069832 306.521381 600.416707 306.521381 
z
M 600.416707 303.313568 
Q 600.715144 303.313568 600.943269 303.185443 
Q 601.172957 303.055756 601.299519 302.816693 
Q 601.427644 302.576068 601.427644 302.263568 
L 601.427644 302.196381 
Q 601.427644 301.897943 601.299519 301.668256 
Q 601.172957 301.438568 600.943269 301.315131 
Q 600.715144 301.190131 600.416707 301.190131 
Q 600.118269 301.190131 599.888582 301.315131 
Q 599.660457 301.438568 599.532332 301.668256 
Q 599.405769 301.897943 599.405769 302.201068 
L 599.405769 302.274506 
Q 599.405769 302.580756 599.532332 302.818256 
Q 599.660457 303.055756 599.888582 303.185443 
Q 600.118269 303.313568 600.416707 303.313568 
z
M 607.877644 303.660443 
L 607.877644 304.607318 
L 603.913582 304.607318 
L 603.913582 303.660443 
L 607.877644 303.660443 
z
M 606.393269 306.116693 
L 605.397957 306.116693 
L 605.397957 302.151068 
L 606.393269 302.151068 
L 606.393269 306.116693 
z
M 615.954207 303.582318 
L 615.954207 304.822943 
Q 615.954207 305.613568 615.646394 306.216693 
Q 615.338582 306.819818 614.774519 307.149506 
Q 614.210457 307.479193 613.468269 307.479193 
Q 612.716707 307.479193 612.147957 307.169818 
Q 611.579207 306.858881 611.266707 306.293256 
Q 610.954207 305.726068 610.954207 304.979193 
L 610.954207 302.883881 
Q 610.954207 302.093256 611.262019 301.493256 
Q 611.569832 300.891693 612.132332 300.562006 
Q 612.696394 300.232318 613.438582 300.232318 
Q 614.049519 300.232318 614.563582 300.494818 
Q 615.079207 300.755756 615.426082 301.233881 
Q 615.772957 301.712006 615.894832 302.341693 
L 615.894832 302.341693 
L 614.816707 302.341693 
L 614.816707 302.341693 
Q 614.727644 301.985443 614.518269 301.729193 
Q 614.308894 301.472943 614.024519 301.338568 
Q 613.741707 301.204193 613.438582 301.204193 
Q 612.999519 301.204193 612.666707 301.415131 
Q 612.335457 301.624506 612.154207 302.002631 
Q 611.974519 302.380756 611.974519 302.883881 
L 611.974519 304.979193 
Q 611.974519 305.438568 612.158894 305.782318 
Q 612.344832 306.126068 612.683894 306.316693 
Q 613.024519 306.507318 613.468269 306.507318 
Q 613.907332 306.507318 614.238582 306.310443 
Q 614.571394 306.112006 614.752644 305.737006 
Q 614.933894 305.360443 614.933894 304.841693 
L 614.933894 304.533881 
L 613.493269 304.533881 
L 613.493269 303.582318 
L 615.954207 303.582318 
z
M 619.542488 307.479193 
Q 618.839363 307.479193 618.340925 307.215131 
Q 617.84405 306.951068 617.58155 306.441693 
Q 617.320613 305.930756 617.320613 305.208881 
L 617.320613 304.637006 
Q 617.320613 303.885443 617.572175 303.354193 
Q 617.823738 302.821381 618.301863 302.543256 
Q 618.78155 302.263568 619.454988 302.263568 
Q 620.089363 302.263568 620.5378 302.582318 
Q 620.9878 302.899506 621.223738 303.499506 
Q 621.461238 304.099506 621.461238 304.940131 
L 621.461238 305.271381 
L 618.04405 305.271381 
L 618.04405 304.471381 
L 620.514363 304.471381 
L 620.514363 304.471381 
Q 620.470613 303.851068 620.19405 303.507318 
Q 619.91905 303.162006 619.454988 303.162006 
Q 618.8878 303.162006 618.578425 303.533881 
Q 618.26905 303.904193 618.26905 304.583881 
L 618.26905 305.227631 
Q 618.26905 305.857318 618.6003 306.194818 
Q 618.933113 306.532318 619.542488 306.532318 
Q 619.845613 306.532318 620.142488 306.410443 
Q 620.440925 306.287006 620.6753 306.068256 
L 620.6753 306.068256 
L 621.329988 306.721381 
L 621.329988 306.721381 
Q 620.953425 307.083881 620.484675 307.282318 
Q 620.015925 307.479193 619.542488 307.479193 
z
M 622.828816 302.337006 
L 623.825691 302.337006 
L 623.825691 307.405756 
L 622.828816 307.405756 
L 622.828816 302.337006 
z
M 625.905378 304.333881 
Q 625.905378 303.797943 625.627253 303.505756 
Q 625.349128 303.212006 624.846003 303.212006 
Q 624.356941 303.212006 624.091316 303.471381 
Q 623.825691 303.729193 623.825691 304.197943 
L 623.722566 303.221381 
Q 623.956941 302.762006 624.335066 302.513568 
Q 624.713191 302.263568 625.172566 302.263568 
Q 625.997566 302.263568 626.449128 302.804193 
Q 626.900691 303.343256 626.900691 304.329193 
L 626.900691 307.405756 
L 625.905378 307.405756 
L 625.905378 304.333881 
z
M 630.080378 307.405756 
L 629.083503 307.405756 
L 629.083503 301.390131 
L 628.072566 302.010443 
L 628.072566 300.979193 
L 629.083503 300.305756 
L 630.080378 300.305756 
L 630.080378 307.405756 
z
" style="fill: #ffffff"/>
   </g>
  </g>
 </g>
 <defs>
  <clipPath id="p3ba86b6b89">
   <rect x="144" y="77.76" width="892.8" height="498.96"/>
  </clipPath>
 </defs>
</svg>
