<?xml version="1.0" encoding="utf-8" standalone="no"?>
<!DOCTYPE svg PUBLIC "-//W3C//DTD SVG 1.1//EN"
  "http://www.w3.org/Graphics/SVG/1.1/DTD/svg11.dtd">
<svg xmlns:xlink="http://www.w3.org/1999/xlink" width="1152pt" height="648pt" viewBox="0 0 1152 648" xmlns="http://www.w3.org/2000/svg" version="1.1">
 <metadata>
  <rdf:RDF xmlns:dc="http://purl.org/dc/elements/1.1/" xmlns:cc="http://creativecommons.org/ns#" xmlns:rdf="http://www.w3.org/1999/02/22-rdf-syntax-ns#">
   <cc:Work>
    <dc:type rdf:resource="http://purl.org/dc/dcmitype/StillImage"/>
    <dc:date>2024-03-14T14:55:07.953894</dc:date>
    <dc:format>image/svg+xml</dc:format>
    <dc:creator>
     <cc:Agent>
      <dc:title>Matplotlib v3.8.3, https://matplotlib.org/</dc:title>
     </cc:Agent>
    </dc:creator>
   </cc:Work>
  </rdf:RDF>
 </metadata>
 <defs>
  <style type="text/css">*{stroke-linejoin: round; stroke-linecap: butt}</style>
 </defs>
 <g id="figure_1">
  <g id="patch_1">
   <path d="M 0 648 
L 1152 648 
L 1152 0 
L 0 0 
L 0 648 
z
" style="fill: none"/>
  </g>
  <g id="axes_1">
   <g id="line2d_1">
    <path d="M 222.864 484.657936 
L 224.597495 483.322835 
L 226.33099 481.998831 
L 228.064485 480.685831 
L 229.79798 479.383746 
L 231.531475 478.092484 
L 233.26497 476.811956 
L 234.998465 475.542072 
L 236.73196 474.282746 
L 238.465455 473.033888 
L 240.198949 471.795413 
L 241.932444 470.567235 
L 243.665939 469.349267 
L 245.399434 468.141426 
L 247.132929 466.943628 
L 248.866424 465.755789 
L 250.599919 464.577826 
L 252.333414 463.409659 
L 254.066909 462.251205 
L 255.800404 461.102385 
L 257.533899 459.963118 
L 259.267394 458.833325 
L 261.000889 457.712928 
L 262.734384 456.601848 
L 264.467879 455.500009 
L 266.201374 454.407333 
L 267.934869 453.323746 
L 269.668364 452.249171 
L 271.401859 451.183533 
L 273.135354 450.126759 
L 274.868848 449.078776 
L 276.602343 448.039509 
L 278.335838 447.008887 
L 280.069333 445.986839 
L 281.802828 444.973292 
L 283.536323 443.968177 
L 285.269818 442.971423 
L 287.003313 441.982962 
L 288.736808 441.002724 
L 290.470303 440.030641 
L 292.203798 439.066645 
L 293.937293 438.11067 
L 295.670788 437.162649 
L 297.404283 436.222515 
L 299.137778 435.290204 
L 300.871273 434.36565 
L 302.604768 433.448789 
L 304.338263 432.539557 
L 306.071758 431.637891 
L 307.805253 430.743728 
L 309.538747 429.857006 
L 311.272242 428.977662 
L 313.005737 428.105637 
L 314.739232 427.240868 
L 316.472727 426.383296 
L 318.206222 425.532861 
L 319.939717 424.689504 
L 321.673212 423.853165 
L 323.406707 423.023787 
L 325.140202 422.201312 
L 326.873697 421.385682 
L 328.607192 420.576841 
L 330.340687 419.774732 
L 332.074182 418.9793 
L 333.807677 418.190488 
L 335.541172 417.408243 
L 337.274667 416.632508 
L 339.008162 415.863231 
L 340.741657 415.100358 
L 342.475152 414.343835 
L 344.208646 413.59361 
L 345.942141 412.84963 
L 347.675636 412.111843 
L 349.409131 411.380199 
L 351.142626 410.654645 
L 352.876121 409.935132 
L 354.609616 409.221609 
L 356.343111 408.514026 
L 358.076606 407.812334 
L 359.810101 407.116485 
L 361.543596 406.426429 
L 363.277091 405.742118 
L 365.010586 405.063505 
L 366.744081 404.390542 
L 368.477576 403.723183 
L 370.211071 403.06138 
L 371.944566 402.405088 
L 373.678061 401.754261 
L 375.411556 401.108853 
L 377.145051 400.468819 
L 378.878545 399.834115 
L 380.61204 399.204696 
L 382.345535 398.580518 
L 384.07903 397.961539 
L 385.812525 397.347714 
L 387.54602 396.739 
L 389.279515 396.135356 
L 391.01301 395.536739 
L 392.746505 394.943107 
L 394.48 394.354419 
" clip-path="url(#p95a0c851d4)" style="fill: none; stroke: #3051f2; stroke-width: 3; stroke-linecap: round"/>
   </g>
   <g id="text_1">
    <path d="M 403.38498 396.074424 
Q 402.87248 396.074424 402.413105 395.977549 
Q 401.955292 395.879112 401.556855 395.683799 
Q 401.158417 395.488487 400.811542 395.194737 
L 400.811542 395.194737 
L 401.431855 394.433799 
L 401.431855 394.433799 
Q 401.838105 394.785362 402.325605 394.961924 
Q 402.814667 395.136924 403.38498 395.136924 
Q 404.156855 395.136924 404.581855 394.850987 
Q 405.006855 394.565049 405.006855 394.043174 
L 405.006855 394.038487 
Q 405.006855 393.666612 404.813105 393.449424 
Q 404.620918 393.232237 404.314667 393.127549 
Q 404.00998 393.022862 403.527168 392.933799 
Q 403.511543 392.929112 403.494355 392.929112 
Q 403.47873 392.929112 403.463105 392.924424 
L 403.389667 392.910362 
Q 402.677167 392.788487 402.230293 392.635362 
Q 401.783417 392.480674 401.46623 392.072862 
Q 401.149043 391.665049 401.149043 390.913487 
L 401.149043 390.908799 
Q 401.149043 390.249424 401.444355 389.783799 
Q 401.739667 389.316612 402.305293 389.072862 
Q 402.87248 388.827549 403.667793 388.827549 
Q 404.049042 388.827549 404.417793 388.911924 
Q 404.786542 388.994737 405.144355 389.158799 
Q 405.50373 389.321299 405.850605 389.569737 
L 405.850605 389.569737 
L 405.28498 390.361924 
L 405.28498 390.361924 
Q 404.87873 390.063487 404.475605 389.915049 
Q 404.074043 389.765049 403.667793 389.765049 
Q 402.94123 389.765049 402.538105 390.055674 
Q 402.13498 390.346299 402.13498 390.879112 
L 402.13498 390.883799 
Q 402.13498 391.249424 402.342792 391.460362 
Q 402.550605 391.669737 402.85998 391.769737 
Q 403.170917 391.869737 403.72248 391.977549 
Q 403.74123 391.982237 403.758418 391.985362 
Q 403.775605 391.986924 403.795917 391.991612 
Q 403.819355 391.996299 403.849042 392.002549 
Q 403.87873 392.007237 403.902168 392.011924 
Q 404.54748 392.143174 404.97873 392.324424 
Q 405.411542 392.504112 405.702167 392.907237 
Q 405.992793 393.310362 405.992793 394.008799 
L 405.992793 394.018174 
Q 405.992793 394.668174 405.68498 395.129112 
Q 405.377167 395.590049 404.792793 395.832237 
Q 404.20998 396.074424 403.38498 396.074424 
z
M 408.082832 395.054112 
L 409.689082 395.054112 
Q 410.475019 395.054112 410.906269 394.646299 
Q 411.339082 394.238487 411.339082 393.496299 
L 411.339082 391.405674 
Q 411.339082 390.663487 410.906269 390.255674 
Q 410.475019 389.847862 409.689082 389.847862 
L 408.082832 389.847862 
L 408.082832 388.900987 
L 409.659394 388.900987 
Q 410.514082 388.900987 411.118769 389.199424 
Q 411.725019 389.496299 412.042207 390.068174 
Q 412.359394 390.640049 412.359394 391.444737 
L 412.359394 393.457237 
Q 412.359394 394.261924 412.042207 394.833799 
Q 411.725019 395.405674 411.117207 395.704112 
Q 410.509394 396.000987 409.654707 396.000987 
L 408.082832 396.000987 
L 408.082832 395.054112 
z
M 407.409394 388.900987 
L 408.404707 388.900987 
L 408.404707 396.000987 
L 407.409394 396.000987 
L 407.409394 388.900987 
z
M 417.492207 389.790049 
L 415.656269 396.000987 
L 414.596894 396.000987 
L 416.432832 389.847862 
L 414.625019 389.847862 
L 414.625019 390.869737 
L 413.629707 390.869737 
L 413.629707 388.900987 
L 417.492207 388.900987 
L 417.492207 389.790049 
z
M 422.526386 389.790049 
L 420.690449 396.000987 
L 419.631074 396.000987 
L 421.467011 389.847862 
L 419.659199 389.847862 
L 419.659199 390.869737 
L 418.663886 390.869737 
L 418.663886 388.900987 
L 422.526386 388.900987 
L 422.526386 389.790049 
z
M 425.973066 396.074424 
Q 425.329316 396.074424 424.840253 395.830674 
Q 424.352753 395.585362 424.085566 395.138487 
Q 423.819941 394.691612 423.819941 394.100987 
L 423.819941 393.983799 
Q 423.819941 393.452549 424.085566 392.983799 
Q 424.352753 392.515049 424.796503 392.275987 
Q 424.419941 392.069737 424.193378 391.682237 
Q 423.966816 391.293174 423.966816 390.863487 
L 423.966816 390.693174 
Q 423.966816 390.136924 424.215253 389.715049 
Q 424.463691 389.291612 424.918378 389.060362 
Q 425.373066 388.827549 425.973066 388.827549 
Q 426.573066 388.827549 427.027753 389.060362 
Q 427.482441 389.291612 427.730878 389.715049 
Q 427.979316 390.136924 427.979316 390.693174 
L 427.979316 390.863487 
Q 427.979316 391.304112 427.748066 391.690049 
Q 427.516816 392.074424 427.135566 392.275987 
Q 427.584003 392.519737 427.854316 392.986924 
Q 428.126191 393.452549 428.126191 393.983799 
L 428.126191 394.100987 
Q 428.126191 394.691612 427.860566 395.138487 
Q 427.594941 395.585362 427.105878 395.830674 
Q 426.618378 396.074424 425.973066 396.074424 
z
M 425.973066 395.116612 
Q 426.319941 395.116612 426.582441 394.980674 
Q 426.846503 394.843174 426.990253 394.597862 
Q 427.135566 394.350987 427.135566 394.027549 
L 427.135566 393.960362 
Q 427.135566 393.632237 426.990253 393.386924 
Q 426.846503 393.140049 426.582441 393.004112 
Q 426.319941 392.866612 425.973066 392.866612 
Q 425.626191 392.866612 425.362128 393.004112 
Q 425.099628 393.140049 424.954316 393.388487 
Q 424.810566 393.636924 424.810566 393.965049 
L 424.810566 394.038487 
Q 424.810566 394.360362 424.954316 394.604112 
Q 425.099628 394.847862 425.362128 394.982237 
Q 425.626191 395.116612 425.973066 395.116612 
z
M 425.973066 391.908799 
Q 426.271503 391.908799 426.499628 391.780674 
Q 426.729316 391.650987 426.855878 391.411924 
Q 426.984003 391.171299 426.984003 390.858799 
L 426.984003 390.791612 
Q 426.984003 390.493174 426.855878 390.263487 
Q 426.729316 390.033799 426.499628 389.910362 
Q 426.271503 389.785362 425.973066 389.785362 
Q 425.674628 389.785362 425.444941 389.910362 
Q 425.216816 390.033799 425.088691 390.263487 
Q 424.962128 390.493174 424.962128 390.796299 
L 424.962128 390.869737 
Q 424.962128 391.175987 425.088691 391.413487 
Q 425.216816 391.650987 425.444941 391.780674 
Q 425.674628 391.908799 425.973066 391.908799 
z
M 434.518378 392.177549 
L 434.518378 393.418174 
Q 434.518378 394.208799 434.210566 394.811924 
Q 433.902753 395.415049 433.338691 395.744737 
Q 432.774628 396.074424 432.032441 396.074424 
Q 431.280878 396.074424 430.712128 395.765049 
Q 430.143378 395.454112 429.830878 394.888487 
Q 429.518378 394.321299 429.518378 393.574424 
L 429.518378 391.479112 
Q 429.518378 390.688487 429.826191 390.088487 
Q 430.134003 389.486924 430.696503 389.157237 
Q 431.260566 388.827549 432.002753 388.827549 
Q 432.613691 388.827549 433.127753 389.090049 
Q 433.643378 389.350987 433.990253 389.829112 
Q 434.337128 390.307237 434.459003 390.936924 
L 434.459003 390.936924 
L 433.380878 390.936924 
L 433.380878 390.936924 
Q 433.291816 390.580674 433.082441 390.324424 
Q 432.873066 390.068174 432.588691 389.933799 
Q 432.305878 389.799424 432.002753 389.799424 
Q 431.563691 389.799424 431.230878 390.010362 
Q 430.899628 390.219737 430.718378 390.597862 
Q 430.538691 390.975987 430.538691 391.479112 
L 430.538691 393.574424 
Q 430.538691 394.033799 430.723066 394.377549 
Q 430.909003 394.721299 431.248066 394.911924 
Q 431.588691 395.102549 432.032441 395.102549 
Q 432.471503 395.102549 432.802753 394.905674 
Q 433.135566 394.707237 433.316816 394.332237 
Q 433.498066 393.955674 433.498066 393.436924 
L 433.498066 393.129112 
L 432.057441 393.129112 
L 432.057441 392.177549 
L 434.518378 392.177549 
z
" style="fill: #ffffff; stroke: #000000"/>
    <path d="M 403.38498 396.074424 
Q 402.87248 396.074424 402.413105 395.977549 
Q 401.955292 395.879112 401.556855 395.683799 
Q 401.158417 395.488487 400.811542 395.194737 
L 400.811542 395.194737 
L 401.431855 394.433799 
L 401.431855 394.433799 
Q 401.838105 394.785362 402.325605 394.961924 
Q 402.814667 395.136924 403.38498 395.136924 
Q 404.156855 395.136924 404.581855 394.850987 
Q 405.006855 394.565049 405.006855 394.043174 
L 405.006855 394.038487 
Q 405.006855 393.666612 404.813105 393.449424 
Q 404.620918 393.232237 404.314667 393.127549 
Q 404.00998 393.022862 403.527168 392.933799 
Q 403.511543 392.929112 403.494355 392.929112 
Q 403.47873 392.929112 403.463105 392.924424 
L 403.389667 392.910362 
Q 402.677167 392.788487 402.230293 392.635362 
Q 401.783417 392.480674 401.46623 392.072862 
Q 401.149043 391.665049 401.149043 390.913487 
L 401.149043 390.908799 
Q 401.149043 390.249424 401.444355 389.783799 
Q 401.739667 389.316612 402.305293 389.072862 
Q 402.87248 388.827549 403.667793 388.827549 
Q 404.049042 388.827549 404.417793 388.911924 
Q 404.786542 388.994737 405.144355 389.158799 
Q 405.50373 389.321299 405.850605 389.569737 
L 405.850605 389.569737 
L 405.28498 390.361924 
L 405.28498 390.361924 
Q 404.87873 390.063487 404.475605 389.915049 
Q 404.074043 389.765049 403.667793 389.765049 
Q 402.94123 389.765049 402.538105 390.055674 
Q 402.13498 390.346299 402.13498 390.879112 
L 402.13498 390.883799 
Q 402.13498 391.249424 402.342792 391.460362 
Q 402.550605 391.669737 402.85998 391.769737 
Q 403.170917 391.869737 403.72248 391.977549 
Q 403.74123 391.982237 403.758418 391.985362 
Q 403.775605 391.986924 403.795917 391.991612 
Q 403.819355 391.996299 403.849042 392.002549 
Q 403.87873 392.007237 403.902168 392.011924 
Q 404.54748 392.143174 404.97873 392.324424 
Q 405.411542 392.504112 405.702167 392.907237 
Q 405.992793 393.310362 405.992793 394.008799 
L 405.992793 394.018174 
Q 405.992793 394.668174 405.68498 395.129112 
Q 405.377167 395.590049 404.792793 395.832237 
Q 404.20998 396.074424 403.38498 396.074424 
z
M 408.082832 395.054112 
L 409.689082 395.054112 
Q 410.475019 395.054112 410.906269 394.646299 
Q 411.339082 394.238487 411.339082 393.496299 
L 411.339082 391.405674 
Q 411.339082 390.663487 410.906269 390.255674 
Q 410.475019 389.847862 409.689082 389.847862 
L 408.082832 389.847862 
L 408.082832 388.900987 
L 409.659394 388.900987 
Q 410.514082 388.900987 411.118769 389.199424 
Q 411.725019 389.496299 412.042207 390.068174 
Q 412.359394 390.640049 412.359394 391.444737 
L 412.359394 393.457237 
Q 412.359394 394.261924 412.042207 394.833799 
Q 411.725019 395.405674 411.117207 395.704112 
Q 410.509394 396.000987 409.654707 396.000987 
L 408.082832 396.000987 
L 408.082832 395.054112 
z
M 407.409394 388.900987 
L 408.404707 388.900987 
L 408.404707 396.000987 
L 407.409394 396.000987 
L 407.409394 388.900987 
z
M 417.492207 389.790049 
L 415.656269 396.000987 
L 414.596894 396.000987 
L 416.432832 389.847862 
L 414.625019 389.847862 
L 414.625019 390.869737 
L 413.629707 390.869737 
L 413.629707 388.900987 
L 417.492207 388.900987 
L 417.492207 389.790049 
z
M 422.526386 389.790049 
L 420.690449 396.000987 
L 419.631074 396.000987 
L 421.467011 389.847862 
L 419.659199 389.847862 
L 419.659199 390.869737 
L 418.663886 390.869737 
L 418.663886 388.900987 
L 422.526386 388.900987 
L 422.526386 389.790049 
z
M 425.973066 396.074424 
Q 425.329316 396.074424 424.840253 395.830674 
Q 424.352753 395.585362 424.085566 395.138487 
Q 423.819941 394.691612 423.819941 394.100987 
L 423.819941 393.983799 
Q 423.819941 393.452549 424.085566 392.983799 
Q 424.352753 392.515049 424.796503 392.275987 
Q 424.419941 392.069737 424.193378 391.682237 
Q 423.966816 391.293174 423.966816 390.863487 
L 423.966816 390.693174 
Q 423.966816 390.136924 424.215253 389.715049 
Q 424.463691 389.291612 424.918378 389.060362 
Q 425.373066 388.827549 425.973066 388.827549 
Q 426.573066 388.827549 427.027753 389.060362 
Q 427.482441 389.291612 427.730878 389.715049 
Q 427.979316 390.136924 427.979316 390.693174 
L 427.979316 390.863487 
Q 427.979316 391.304112 427.748066 391.690049 
Q 427.516816 392.074424 427.135566 392.275987 
Q 427.584003 392.519737 427.854316 392.986924 
Q 428.126191 393.452549 428.126191 393.983799 
L 428.126191 394.100987 
Q 428.126191 394.691612 427.860566 395.138487 
Q 427.594941 395.585362 427.105878 395.830674 
Q 426.618378 396.074424 425.973066 396.074424 
z
M 425.973066 395.116612 
Q 426.319941 395.116612 426.582441 394.980674 
Q 426.846503 394.843174 426.990253 394.597862 
Q 427.135566 394.350987 427.135566 394.027549 
L 427.135566 393.960362 
Q 427.135566 393.632237 426.990253 393.386924 
Q 426.846503 393.140049 426.582441 393.004112 
Q 426.319941 392.866612 425.973066 392.866612 
Q 425.626191 392.866612 425.362128 393.004112 
Q 425.099628 393.140049 424.954316 393.388487 
Q 424.810566 393.636924 424.810566 393.965049 
L 424.810566 394.038487 
Q 424.810566 394.360362 424.954316 394.604112 
Q 425.099628 394.847862 425.362128 394.982237 
Q 425.626191 395.116612 425.973066 395.116612 
z
M 425.973066 391.908799 
Q 426.271503 391.908799 426.499628 391.780674 
Q 426.729316 391.650987 426.855878 391.411924 
Q 426.984003 391.171299 426.984003 390.858799 
L 426.984003 390.791612 
Q 426.984003 390.493174 426.855878 390.263487 
Q 426.729316 390.033799 426.499628 389.910362 
Q 426.271503 389.785362 425.973066 389.785362 
Q 425.674628 389.785362 425.444941 389.910362 
Q 425.216816 390.033799 425.088691 390.263487 
Q 424.962128 390.493174 424.962128 390.796299 
L 424.962128 390.869737 
Q 424.962128 391.175987 425.088691 391.413487 
Q 425.216816 391.650987 425.444941 391.780674 
Q 425.674628 391.908799 425.973066 391.908799 
z
M 434.518378 392.177549 
L 434.518378 393.418174 
Q 434.518378 394.208799 434.210566 394.811924 
Q 433.902753 395.415049 433.338691 395.744737 
Q 432.774628 396.074424 432.032441 396.074424 
Q 431.280878 396.074424 430.712128 395.765049 
Q 430.143378 395.454112 429.830878 394.888487 
Q 429.518378 394.321299 429.518378 393.574424 
L 429.518378 391.479112 
Q 429.518378 390.688487 429.826191 390.088487 
Q 430.134003 389.486924 430.696503 389.157237 
Q 431.260566 388.827549 432.002753 388.827549 
Q 432.613691 388.827549 433.127753 389.090049 
Q 433.643378 389.350987 433.990253 389.829112 
Q 434.337128 390.307237 434.459003 390.936924 
L 434.459003 390.936924 
L 433.380878 390.936924 
L 433.380878 390.936924 
Q 433.291816 390.580674 433.082441 390.324424 
Q 432.873066 390.068174 432.588691 389.933799 
Q 432.305878 389.799424 432.002753 389.799424 
Q 431.563691 389.799424 431.230878 390.010362 
Q 430.899628 390.219737 430.718378 390.597862 
Q 430.538691 390.975987 430.538691 391.479112 
L 430.538691 393.574424 
Q 430.538691 394.033799 430.723066 394.377549 
Q 430.909003 394.721299 431.248066 394.911924 
Q 431.588691 395.102549 432.032441 395.102549 
Q 432.471503 395.102549 432.802753 394.905674 
Q 433.135566 394.707237 433.316816 394.332237 
Q 433.498066 393.955674 433.498066 393.436924 
L 433.498066 393.129112 
L 432.057441 393.129112 
L 432.057441 392.177549 
L 434.518378 392.177549 
z
" style="fill: #ffffff"/>
   </g>
  </g>
 </g>
 <defs>
  <clipPath id="p95a0c851d4">
   <rect x="144" y="77.76" width="892.8" height="498.96"/>
  </clipPath>
 </defs>
</svg>
