<?xml version="1.0" encoding="utf-8" standalone="no"?>
<!DOCTYPE svg PUBLIC "-//W3C//DTD SVG 1.1//EN"
  "http://www.w3.org/Graphics/SVG/1.1/DTD/svg11.dtd">
<svg xmlns:xlink="http://www.w3.org/1999/xlink" width="1152pt" height="648pt" viewBox="0 0 1152 648" xmlns="http://www.w3.org/2000/svg" version="1.1">
 <metadata>
  <rdf:RDF xmlns:dc="http://purl.org/dc/elements/1.1/" xmlns:cc="http://creativecommons.org/ns#" xmlns:rdf="http://www.w3.org/1999/02/22-rdf-syntax-ns#">
   <cc:Work>
    <dc:type rdf:resource="http://purl.org/dc/dcmitype/StillImage"/>
    <dc:date>2024-07-10T10:08:28.926114</dc:date>
    <dc:format>image/svg+xml</dc:format>
    <dc:creator>
     <cc:Agent>
      <dc:title>Matplotlib v3.9.1, https://matplotlib.org/</dc:title>
     </cc:Agent>
    </dc:creator>
   </cc:Work>
  </rdf:RDF>
 </metadata>
 <defs>
  <style type="text/css">*{stroke-linejoin: round; stroke-linecap: butt}</style>
 </defs>
 <g id="figure_1">
  <g id="patch_1">
   <path d="M 0 648 
L 1152 648 
L 1152 0 
L 0 0 
L 0 648 
z
" style="fill: none"/>
  </g>
  <g id="axes_1">
   <g id="line2d_1">
    <path d="M 254.112 482.377055 
L 258.465778 477.770636 
L 262.819556 473.316612 
L 267.173333 469.009945 
L 271.527111 464.845766 
L 275.880889 460.819364 
L 280.234667 456.926186 
L 284.588444 453.161827 
L 288.942222 449.522028 
L 293.296 446.002672 
L 297.649778 442.599775 
L 302.003556 439.309487 
L 306.357333 436.128085 
L 310.711111 433.051967 
L 315.064889 430.077652 
L 319.418667 427.201773 
L 323.772444 424.421074 
L 328.126222 421.732407 
L 332.48 419.132729 
L 336.833778 416.619095 
L 341.187556 414.188659 
L 345.541333 411.838669 
L 349.895111 409.566464 
L 354.248889 407.36947 
L 358.602667 405.245199 
L 362.956444 403.191245 
L 367.310222 401.205282 
L 371.664 399.28506 
L 376.017778 397.428403 
L 380.371556 395.633208 
L 384.725333 393.897442 
L 389.079111 392.219138 
L 393.432889 390.596394 
L 397.786667 389.027371 
L 402.140444 387.510293 
L 406.494222 386.04344 
L 410.848 384.625149 
L 415.201778 383.253813 
L 419.555556 381.927879 
L 423.909333 380.645843 
L 428.263111 379.406253 
L 432.616889 378.207704 
L 436.970667 377.048837 
L 441.324444 375.928339 
L 445.678222 374.84494 
L 450.032 373.797411 
L 454.385778 372.784566 
L 458.739556 371.805257 
L 463.093333 370.858373 
L 467.447111 369.94284 
L 471.800889 369.057622 
L 476.154667 368.201714 
L 480.508444 367.374146 
L 484.862222 366.57398 
L 489.216 365.800309 
L 493.569778 365.052256 
L 497.923556 364.328972 
L 502.277333 363.629638 
L 506.631111 362.95346 
L 510.984889 362.299672 
L 515.338667 361.667533 
L 519.692444 361.056326 
L 524.046222 360.465358 
L 528.4 359.893959 
L 532.753778 359.341481 
L 537.107556 358.807297 
L 541.461333 358.290802 
L 545.815111 357.79141 
L 550.168889 357.308555 
L 554.522667 356.841689 
L 558.876444 356.390284 
L 563.230222 355.953826 
L 567.584 355.531821 
L 571.937778 355.12379 
L 576.291556 354.729272 
L 580.645333 354.347817 
L 584.999111 353.978995 
L 589.352889 353.622386 
L 593.706667 353.277586 
L 598.060444 352.944204 
L 602.414222 352.621862 
L 606.768 352.310195 
L 611.121778 352.008848 
L 615.475556 351.717481 
L 619.829333 351.435762 
L 624.183111 351.163373 
L 628.536889 350.900004 
L 632.890667 350.645357 
L 637.244444 350.399142 
L 641.598222 350.161082 
L 645.952 349.930904 
L 650.305778 349.70835 
L 654.659556 349.493165 
L 659.013333 349.285106 
L 663.367111 349.083938 
L 667.720889 348.889431 
L 672.074667 348.701366 
L 676.428444 348.519529 
L 680.782222 348.343714 
L 685.136 348.173721 
" clip-path="url(#p095358e761)" style="fill: none; stroke: #30b1f2; stroke-width: 3; stroke-linecap: round"/>
   </g>
   <g id="text_1">
    <path d="M 692.937855 343.301539 
L 693.933167 343.301539 
L 693.933167 349.820289 
L 692.937855 349.820289 
L 692.937855 343.301539 
z
M 690.930042 342.720289 
L 695.94098 342.720289 
L 695.94098 343.667164 
L 690.930042 343.667164 
L 690.930042 342.720289 
z
M 698.699183 349.893726 
Q 697.996058 349.893726 697.497621 349.629664 
Q 697.000746 349.365601 696.738246 348.856226 
Q 696.477308 348.345289 696.477308 347.623414 
L 696.477308 347.051539 
Q 696.477308 346.299976 696.728871 345.768726 
Q 696.980433 345.235914 697.458558 344.957789 
Q 697.938246 344.678101 698.611683 344.678101 
Q 699.246058 344.678101 699.694496 344.996851 
Q 700.144496 345.314039 700.380433 345.914039 
Q 700.617933 346.514039 700.617933 347.354664 
L 700.617933 347.685914 
L 697.200746 347.685914 
L 697.200746 346.885914 
L 699.671058 346.885914 
L 699.671058 346.885914 
Q 699.627308 346.265601 699.350746 345.921851 
Q 699.075746 345.576539 698.611683 345.576539 
Q 698.044496 345.576539 697.735121 345.948414 
Q 697.425746 346.318726 697.425746 346.998414 
L 697.425746 347.642164 
Q 697.425746 348.271851 697.756996 348.609351 
Q 698.089808 348.946851 698.699183 348.946851 
Q 699.002308 348.946851 699.299183 348.824976 
Q 699.597621 348.701539 699.831996 348.482789 
L 699.831996 348.482789 
L 700.486683 349.135914 
L 700.486683 349.135914 
Q 700.110121 349.498414 699.641371 349.696851 
Q 699.172621 349.893726 698.699183 349.893726 
z
M 701.985511 344.751539 
L 702.982386 344.751539 
L 702.982386 349.820289 
L 701.985511 349.820289 
L 701.985511 344.751539 
z
M 705.062074 346.748414 
Q 705.062074 346.212476 704.783949 345.920289 
Q 704.505824 345.626539 704.002699 345.626539 
Q 703.513636 345.626539 703.248011 345.885914 
Q 702.982386 346.143726 702.982386 346.612476 
L 702.879261 345.635914 
Q 703.113636 345.176539 703.491761 344.928101 
Q 703.869886 344.678101 704.329261 344.678101 
Q 705.154261 344.678101 705.605824 345.218726 
Q 706.057386 345.757789 706.057386 346.743726 
L 706.057386 349.820289 
L 705.062074 349.820289 
L 705.062074 346.748414 
z
M 709.363636 349.893726 
Q 708.913636 349.893726 708.519886 349.806226 
Q 708.127699 349.717164 707.785511 349.542164 
Q 707.444886 349.365601 707.155824 349.103101 
L 707.155824 349.103101 
L 707.748011 348.374976 
L 707.748011 348.374976 
Q 708.157386 348.687476 708.562074 348.843726 
Q 708.968324 348.999976 709.363636 348.999976 
Q 709.954261 348.999976 710.249574 348.817164 
Q 710.544886 348.634351 710.544886 348.267164 
Q 710.544886 348.023414 710.383949 347.901539 
Q 710.223011 347.779664 709.983949 347.739039 
Q 709.744886 347.696851 709.310511 347.662476 
Q 709.271449 347.662476 709.226136 347.660914 
Q 709.182386 347.657789 709.143324 347.651539 
Q 709.124574 347.651539 709.104261 347.649976 
Q 709.085511 347.646851 709.065199 347.646851 
Q 708.573011 347.607789 708.230824 347.503101 
Q 707.888636 347.398414 707.662074 347.110914 
Q 707.435511 346.821851 707.435511 346.284351 
Q 707.435511 345.748414 707.654261 345.392164 
Q 707.874574 345.034351 708.308949 344.856226 
Q 708.743324 344.678101 709.398011 344.678101 
Q 709.793324 344.678101 710.151136 344.751539 
Q 710.510511 344.824976 710.837074 344.968726 
Q 711.165199 345.112476 711.468324 345.332789 
L 711.468324 345.332789 
L 710.866761 346.060914 
L 710.866761 346.060914 
Q 710.487074 345.815601 710.118324 345.693726 
Q 709.749574 345.571851 709.398011 345.571851 
Q 708.890199 345.571851 708.635511 345.745289 
Q 708.382386 345.918726 708.382386 346.265601 
Q 708.382386 346.470289 708.526136 346.573414 
Q 708.669886 346.674976 708.888636 346.709351 
Q 709.108949 346.743726 709.515199 346.768726 
Q 709.544886 346.773414 709.576136 346.773414 
Q 709.607386 346.773414 709.641761 346.778101 
Q 709.655824 346.778101 709.669886 346.778101 
Q 709.685511 346.778101 709.701136 346.782789 
Q 710.232386 346.817164 710.605824 346.924976 
Q 710.979261 347.032789 711.232386 347.349976 
Q 711.487074 347.667164 711.487074 348.267164 
Q 711.487074 348.814039 711.252699 349.173414 
Q 711.018324 349.532789 710.546449 349.714039 
Q 710.076136 349.893726 709.363636 349.893726 
z
M 714.700746 349.893726 
Q 714.041371 349.893726 713.572621 349.635914 
Q 713.103871 349.376539 712.856996 348.881226 
Q 712.610121 348.384351 712.610121 347.685914 
L 712.610121 346.860914 
Q 712.610121 346.173414 712.856996 345.682789 
Q 713.103871 345.190601 713.572621 344.934351 
Q 714.041371 344.678101 714.700746 344.678101 
Q 715.360121 344.678101 715.828871 344.934351 
Q 716.297621 345.190601 716.542933 345.682789 
Q 716.789808 346.173414 716.789808 346.860914 
L 716.789808 347.701539 
Q 716.789808 348.393726 716.542933 348.885914 
Q 716.297621 349.376539 715.828871 349.635914 
Q 715.360121 349.893726 714.700746 349.893726 
z
M 714.700746 348.946851 
Q 715.222621 348.946851 715.508558 348.620289 
Q 715.794496 348.292164 715.794496 347.701539 
L 715.794496 346.860914 
Q 715.794496 346.270289 715.508558 345.948414 
Q 715.222621 345.626539 714.700746 345.626539 
Q 714.177308 345.626539 713.891371 345.948414 
Q 713.606996 346.270289 713.606996 346.860914 
L 713.606996 347.701539 
Q 713.606996 348.292164 713.891371 348.620289 
Q 714.177308 348.946851 714.700746 348.946851 
z
M 718.206214 344.751539 
L 719.203089 344.751539 
L 719.203089 349.820289 
L 718.206214 349.820289 
L 718.206214 344.751539 
z
M 720.993714 345.953101 
Q 720.862464 345.792164 720.662464 345.709351 
Q 720.462464 345.626539 720.198402 345.626539 
Q 719.724964 345.626539 719.464027 345.887476 
Q 719.203089 346.148414 719.203089 346.612476 
L 719.099964 345.635914 
Q 719.334339 345.181226 719.704652 344.929664 
Q 720.076527 344.678101 720.524964 344.678101 
Q 720.871839 344.678101 721.153089 344.778101 
Q 721.434339 344.878101 721.643714 345.073414 
L 720.993714 345.953101 
z
M 729.134339 345.996851 
L 729.134339 347.237476 
Q 729.134339 348.028101 728.826527 348.631226 
Q 728.518714 349.234351 727.954652 349.564039 
Q 727.390589 349.893726 726.648402 349.893726 
Q 725.896839 349.893726 725.328089 349.584351 
Q 724.759339 349.273414 724.446839 348.707789 
Q 724.134339 348.140601 724.134339 347.393726 
L 724.134339 345.298414 
Q 724.134339 344.507789 724.442152 343.907789 
Q 724.749964 343.306226 725.312464 342.976539 
Q 725.876527 342.646851 726.618714 342.646851 
Q 727.229652 342.646851 727.743714 342.909351 
Q 728.259339 343.170289 728.606214 343.648414 
Q 728.953089 344.126539 729.074964 344.756226 
L 729.074964 344.756226 
L 727.996839 344.756226 
L 727.996839 344.756226 
Q 727.907777 344.399976 727.698402 344.143726 
Q 727.489027 343.887476 727.204652 343.753101 
Q 726.921839 343.618726 726.618714 343.618726 
Q 726.179652 343.618726 725.846839 343.829664 
Q 725.515589 344.039039 725.334339 344.417164 
Q 725.154652 344.795289 725.154652 345.298414 
L 725.154652 347.393726 
Q 725.154652 347.853101 725.339027 348.196851 
Q 725.524964 348.540601 725.864027 348.731226 
Q 726.204652 348.921851 726.648402 348.921851 
Q 727.087464 348.921851 727.418714 348.724976 
Q 727.751527 348.526539 727.932777 348.151539 
Q 728.114027 347.774976 728.114027 347.256226 
L 728.114027 346.948414 
L 726.673402 346.948414 
L 726.673402 345.996851 
L 729.134339 345.996851 
z
M 732.435121 349.893726 
Q 731.839808 349.893726 731.385121 349.676539 
Q 730.930433 349.459351 730.653871 349.046851 
Q 730.378871 348.634351 730.305433 348.053101 
L 730.305433 348.053101 
L 731.321058 348.053101 
L 731.321058 348.053101 
Q 731.364808 348.354664 731.511683 348.549976 
Q 731.658558 348.745289 731.889808 348.840601 
Q 732.122621 348.935914 732.435121 348.935914 
Q 732.927308 348.935914 733.200746 348.673414 
Q 733.474183 348.409351 733.474183 347.931226 
L 733.474183 347.715601 
Q 733.474183 347.182789 733.214808 346.893726 
Q 732.956996 346.603101 732.483558 346.603101 
L 731.980433 346.603101 
L 731.980433 345.654664 
L 732.483558 345.654664 
Q 732.899183 345.654664 733.127308 345.406226 
Q 733.356996 345.157789 733.356996 344.703101 
L 733.356996 344.482789 
Q 733.356996 344.064039 733.114808 343.834351 
Q 732.874183 343.604664 732.430433 343.604664 
Q 732.175746 343.604664 731.975746 343.699976 
Q 731.775746 343.795289 731.636683 343.993726 
Q 731.497621 344.190601 731.433558 344.487476 
L 731.433558 344.487476 
L 730.422621 344.487476 
L 730.422621 344.487476 
Q 730.521058 343.907789 730.791371 343.492164 
Q 731.063246 343.076539 731.477308 342.862476 
Q 731.892933 342.646851 732.430433 342.646851 
Q 733.347621 342.646851 733.850746 343.131226 
Q 734.353871 343.614039 734.353871 344.493726 
L 734.353871 344.610914 
Q 734.353871 345.142164 734.064808 345.537476 
Q 733.777308 345.932789 733.250746 346.114039 
Q 733.831996 346.240601 734.150746 346.685914 
Q 734.471058 347.129664 734.471058 347.818726 
L 734.471058 347.935914 
Q 734.471058 348.556226 734.231996 348.995289 
Q 733.992933 349.434351 733.535121 349.664039 
Q 733.078871 349.893726 732.435121 349.893726 
z
" style="fill: #ffffff; stroke: #000000"/>
    <path d="M 692.937855 343.301539 
L 693.933167 343.301539 
L 693.933167 349.820289 
L 692.937855 349.820289 
L 692.937855 343.301539 
z
M 690.930042 342.720289 
L 695.94098 342.720289 
L 695.94098 343.667164 
L 690.930042 343.667164 
L 690.930042 342.720289 
z
M 698.699183 349.893726 
Q 697.996058 349.893726 697.497621 349.629664 
Q 697.000746 349.365601 696.738246 348.856226 
Q 696.477308 348.345289 696.477308 347.623414 
L 696.477308 347.051539 
Q 696.477308 346.299976 696.728871 345.768726 
Q 696.980433 345.235914 697.458558 344.957789 
Q 697.938246 344.678101 698.611683 344.678101 
Q 699.246058 344.678101 699.694496 344.996851 
Q 700.144496 345.314039 700.380433 345.914039 
Q 700.617933 346.514039 700.617933 347.354664 
L 700.617933 347.685914 
L 697.200746 347.685914 
L 697.200746 346.885914 
L 699.671058 346.885914 
L 699.671058 346.885914 
Q 699.627308 346.265601 699.350746 345.921851 
Q 699.075746 345.576539 698.611683 345.576539 
Q 698.044496 345.576539 697.735121 345.948414 
Q 697.425746 346.318726 697.425746 346.998414 
L 697.425746 347.642164 
Q 697.425746 348.271851 697.756996 348.609351 
Q 698.089808 348.946851 698.699183 348.946851 
Q 699.002308 348.946851 699.299183 348.824976 
Q 699.597621 348.701539 699.831996 348.482789 
L 699.831996 348.482789 
L 700.486683 349.135914 
L 700.486683 349.135914 
Q 700.110121 349.498414 699.641371 349.696851 
Q 699.172621 349.893726 698.699183 349.893726 
z
M 701.985511 344.751539 
L 702.982386 344.751539 
L 702.982386 349.820289 
L 701.985511 349.820289 
L 701.985511 344.751539 
z
M 705.062074 346.748414 
Q 705.062074 346.212476 704.783949 345.920289 
Q 704.505824 345.626539 704.002699 345.626539 
Q 703.513636 345.626539 703.248011 345.885914 
Q 702.982386 346.143726 702.982386 346.612476 
L 702.879261 345.635914 
Q 703.113636 345.176539 703.491761 344.928101 
Q 703.869886 344.678101 704.329261 344.678101 
Q 705.154261 344.678101 705.605824 345.218726 
Q 706.057386 345.757789 706.057386 346.743726 
L 706.057386 349.820289 
L 705.062074 349.820289 
L 705.062074 346.748414 
z
M 709.363636 349.893726 
Q 708.913636 349.893726 708.519886 349.806226 
Q 708.127699 349.717164 707.785511 349.542164 
Q 707.444886 349.365601 707.155824 349.103101 
L 707.155824 349.103101 
L 707.748011 348.374976 
L 707.748011 348.374976 
Q 708.157386 348.687476 708.562074 348.843726 
Q 708.968324 348.999976 709.363636 348.999976 
Q 709.954261 348.999976 710.249574 348.817164 
Q 710.544886 348.634351 710.544886 348.267164 
Q 710.544886 348.023414 710.383949 347.901539 
Q 710.223011 347.779664 709.983949 347.739039 
Q 709.744886 347.696851 709.310511 347.662476 
Q 709.271449 347.662476 709.226136 347.660914 
Q 709.182386 347.657789 709.143324 347.651539 
Q 709.124574 347.651539 709.104261 347.649976 
Q 709.085511 347.646851 709.065199 347.646851 
Q 708.573011 347.607789 708.230824 347.503101 
Q 707.888636 347.398414 707.662074 347.110914 
Q 707.435511 346.821851 707.435511 346.284351 
Q 707.435511 345.748414 707.654261 345.392164 
Q 707.874574 345.034351 708.308949 344.856226 
Q 708.743324 344.678101 709.398011 344.678101 
Q 709.793324 344.678101 710.151136 344.751539 
Q 710.510511 344.824976 710.837074 344.968726 
Q 711.165199 345.112476 711.468324 345.332789 
L 711.468324 345.332789 
L 710.866761 346.060914 
L 710.866761 346.060914 
Q 710.487074 345.815601 710.118324 345.693726 
Q 709.749574 345.571851 709.398011 345.571851 
Q 708.890199 345.571851 708.635511 345.745289 
Q 708.382386 345.918726 708.382386 346.265601 
Q 708.382386 346.470289 708.526136 346.573414 
Q 708.669886 346.674976 708.888636 346.709351 
Q 709.108949 346.743726 709.515199 346.768726 
Q 709.544886 346.773414 709.576136 346.773414 
Q 709.607386 346.773414 709.641761 346.778101 
Q 709.655824 346.778101 709.669886 346.778101 
Q 709.685511 346.778101 709.701136 346.782789 
Q 710.232386 346.817164 710.605824 346.924976 
Q 710.979261 347.032789 711.232386 347.349976 
Q 711.487074 347.667164 711.487074 348.267164 
Q 711.487074 348.814039 711.252699 349.173414 
Q 711.018324 349.532789 710.546449 349.714039 
Q 710.076136 349.893726 709.363636 349.893726 
z
M 714.700746 349.893726 
Q 714.041371 349.893726 713.572621 349.635914 
Q 713.103871 349.376539 712.856996 348.881226 
Q 712.610121 348.384351 712.610121 347.685914 
L 712.610121 346.860914 
Q 712.610121 346.173414 712.856996 345.682789 
Q 713.103871 345.190601 713.572621 344.934351 
Q 714.041371 344.678101 714.700746 344.678101 
Q 715.360121 344.678101 715.828871 344.934351 
Q 716.297621 345.190601 716.542933 345.682789 
Q 716.789808 346.173414 716.789808 346.860914 
L 716.789808 347.701539 
Q 716.789808 348.393726 716.542933 348.885914 
Q 716.297621 349.376539 715.828871 349.635914 
Q 715.360121 349.893726 714.700746 349.893726 
z
M 714.700746 348.946851 
Q 715.222621 348.946851 715.508558 348.620289 
Q 715.794496 348.292164 715.794496 347.701539 
L 715.794496 346.860914 
Q 715.794496 346.270289 715.508558 345.948414 
Q 715.222621 345.626539 714.700746 345.626539 
Q 714.177308 345.626539 713.891371 345.948414 
Q 713.606996 346.270289 713.606996 346.860914 
L 713.606996 347.701539 
Q 713.606996 348.292164 713.891371 348.620289 
Q 714.177308 348.946851 714.700746 348.946851 
z
M 718.206214 344.751539 
L 719.203089 344.751539 
L 719.203089 349.820289 
L 718.206214 349.820289 
L 718.206214 344.751539 
z
M 720.993714 345.953101 
Q 720.862464 345.792164 720.662464 345.709351 
Q 720.462464 345.626539 720.198402 345.626539 
Q 719.724964 345.626539 719.464027 345.887476 
Q 719.203089 346.148414 719.203089 346.612476 
L 719.099964 345.635914 
Q 719.334339 345.181226 719.704652 344.929664 
Q 720.076527 344.678101 720.524964 344.678101 
Q 720.871839 344.678101 721.153089 344.778101 
Q 721.434339 344.878101 721.643714 345.073414 
L 720.993714 345.953101 
z
M 729.134339 345.996851 
L 729.134339 347.237476 
Q 729.134339 348.028101 728.826527 348.631226 
Q 728.518714 349.234351 727.954652 349.564039 
Q 727.390589 349.893726 726.648402 349.893726 
Q 725.896839 349.893726 725.328089 349.584351 
Q 724.759339 349.273414 724.446839 348.707789 
Q 724.134339 348.140601 724.134339 347.393726 
L 724.134339 345.298414 
Q 724.134339 344.507789 724.442152 343.907789 
Q 724.749964 343.306226 725.312464 342.976539 
Q 725.876527 342.646851 726.618714 342.646851 
Q 727.229652 342.646851 727.743714 342.909351 
Q 728.259339 343.170289 728.606214 343.648414 
Q 728.953089 344.126539 729.074964 344.756226 
L 729.074964 344.756226 
L 727.996839 344.756226 
L 727.996839 344.756226 
Q 727.907777 344.399976 727.698402 344.143726 
Q 727.489027 343.887476 727.204652 343.753101 
Q 726.921839 343.618726 726.618714 343.618726 
Q 726.179652 343.618726 725.846839 343.829664 
Q 725.515589 344.039039 725.334339 344.417164 
Q 725.154652 344.795289 725.154652 345.298414 
L 725.154652 347.393726 
Q 725.154652 347.853101 725.339027 348.196851 
Q 725.524964 348.540601 725.864027 348.731226 
Q 726.204652 348.921851 726.648402 348.921851 
Q 727.087464 348.921851 727.418714 348.724976 
Q 727.751527 348.526539 727.932777 348.151539 
Q 728.114027 347.774976 728.114027 347.256226 
L 728.114027 346.948414 
L 726.673402 346.948414 
L 726.673402 345.996851 
L 729.134339 345.996851 
z
M 732.435121 349.893726 
Q 731.839808 349.893726 731.385121 349.676539 
Q 730.930433 349.459351 730.653871 349.046851 
Q 730.378871 348.634351 730.305433 348.053101 
L 730.305433 348.053101 
L 731.321058 348.053101 
L 731.321058 348.053101 
Q 731.364808 348.354664 731.511683 348.549976 
Q 731.658558 348.745289 731.889808 348.840601 
Q 732.122621 348.935914 732.435121 348.935914 
Q 732.927308 348.935914 733.200746 348.673414 
Q 733.474183 348.409351 733.474183 347.931226 
L 733.474183 347.715601 
Q 733.474183 347.182789 733.214808 346.893726 
Q 732.956996 346.603101 732.483558 346.603101 
L 731.980433 346.603101 
L 731.980433 345.654664 
L 732.483558 345.654664 
Q 732.899183 345.654664 733.127308 345.406226 
Q 733.356996 345.157789 733.356996 344.703101 
L 733.356996 344.482789 
Q 733.356996 344.064039 733.114808 343.834351 
Q 732.874183 343.604664 732.430433 343.604664 
Q 732.175746 343.604664 731.975746 343.699976 
Q 731.775746 343.795289 731.636683 343.993726 
Q 731.497621 344.190601 731.433558 344.487476 
L 731.433558 344.487476 
L 730.422621 344.487476 
L 730.422621 344.487476 
Q 730.521058 343.907789 730.791371 343.492164 
Q 731.063246 343.076539 731.477308 342.862476 
Q 731.892933 342.646851 732.430433 342.646851 
Q 733.347621 342.646851 733.850746 343.131226 
Q 734.353871 343.614039 734.353871 344.493726 
L 734.353871 344.610914 
Q 734.353871 345.142164 734.064808 345.537476 
Q 733.777308 345.932789 733.250746 346.114039 
Q 733.831996 346.240601 734.150746 346.685914 
Q 734.471058 347.129664 734.471058 347.818726 
L 734.471058 347.935914 
Q 734.471058 348.556226 734.231996 348.995289 
Q 733.992933 349.434351 733.535121 349.664039 
Q 733.078871 349.893726 732.435121 349.893726 
z
" style="fill: #ffffff"/>
   </g>
  </g>
 </g>
 <defs>
  <clipPath id="p095358e761">
   <rect x="144" y="77.76" width="892.8" height="498.96"/>
  </clipPath>
 </defs>
</svg>
