<?xml version="1.0" encoding="utf-8" standalone="no"?>
<!DOCTYPE svg PUBLIC "-//W3C//DTD SVG 1.1//EN"
  "http://www.w3.org/Graphics/SVG/1.1/DTD/svg11.dtd">
<svg xmlns:xlink="http://www.w3.org/1999/xlink" width="1152pt" height="648pt" viewBox="0 0 1152 648" xmlns="http://www.w3.org/2000/svg" version="1.1">
 <metadata>
  <rdf:RDF xmlns:dc="http://purl.org/dc/elements/1.1/" xmlns:cc="http://creativecommons.org/ns#" xmlns:rdf="http://www.w3.org/1999/02/22-rdf-syntax-ns#">
   <cc:Work>
    <dc:type rdf:resource="http://purl.org/dc/dcmitype/StillImage"/>
    <dc:date>2024-03-14T14:55:07.922719</dc:date>
    <dc:format>image/svg+xml</dc:format>
    <dc:creator>
     <cc:Agent>
      <dc:title>Matplotlib v3.8.3, https://matplotlib.org/</dc:title>
     </cc:Agent>
    </dc:creator>
   </cc:Work>
  </rdf:RDF>
 </metadata>
 <defs>
  <style type="text/css">*{stroke-linejoin: round; stroke-linecap: butt}</style>
 </defs>
 <g id="figure_1">
  <g id="patch_1">
   <path d="M 0 648 
L 1152 648 
L 1152 0 
L 0 0 
L 0 648 
z
" style="fill: none"/>
  </g>
  <g id="axes_1">
   <g id="line2d_1">
    <path d="M 239.232 481.979626 
L 241.185939 480.513284 
L 243.139879 479.055945 
L 245.093818 477.608218 
L 247.047758 476.170696 
L 249.001697 474.743953 
L 250.955636 473.328543 
L 252.909576 471.925003 
L 254.863515 470.533849 
L 256.817455 469.155573 
L 258.771394 467.790651 
L 260.725333 466.439533 
L 262.679273 465.102649 
L 264.633212 463.780406 
L 266.587152 462.473187 
L 268.541091 461.181353 
L 270.49503 459.905244 
L 272.44897 458.645174 
L 274.402909 457.401434 
L 276.356848 456.174295 
L 278.310788 454.964002 
L 280.264727 453.770779 
L 282.218667 452.594827 
L 284.172606 451.436325 
L 286.126545 450.29543 
L 288.080485 449.172279 
L 290.034424 448.066987 
L 291.988364 446.979648 
L 293.942303 445.910336 
L 295.896242 444.859108 
L 297.850182 443.825998 
L 299.804121 442.811026 
L 301.758061 441.814191 
L 303.712 440.835477 
L 305.665939 439.874849 
L 307.619879 438.93226 
L 309.573818 438.007646 
L 311.527758 437.100926 
L 313.481697 436.212009 
L 315.435636 435.34079 
L 317.389576 434.487149 
L 319.343515 433.650958 
L 321.297455 432.832075 
L 323.251394 432.030348 
L 325.205333 431.245617 
L 327.159273 430.477712 
L 329.113212 429.726452 
L 331.067152 428.991651 
L 333.021091 428.273114 
L 334.97503 427.570641 
L 336.92897 426.884025 
L 338.882909 426.213052 
L 340.836848 425.557505 
L 342.790788 424.917162 
L 344.744727 424.291795 
L 346.698667 423.681175 
L 348.652606 423.085069 
L 350.606545 422.50324 
L 352.560485 421.935452 
L 354.514424 421.381464 
L 356.468364 420.841036 
L 358.422303 420.313924 
L 360.376242 419.799887 
L 362.330182 419.29868 
L 364.284121 418.810062 
L 366.238061 418.333789 
L 368.192 417.869619 
L 370.145939 417.41731 
L 372.099879 416.976622 
L 374.053818 416.547316 
L 376.007758 416.129155 
L 377.961697 415.721903 
L 379.915636 415.325326 
L 381.869576 414.939192 
L 383.823515 414.563273 
L 385.777455 414.197342 
L 387.731394 413.841174 
L 389.685333 413.494547 
L 391.639273 413.157243 
L 393.593212 412.829046 
L 395.547152 412.509743 
L 397.501091 412.199125 
L 399.45503 411.896984 
L 401.40897 411.603117 
L 403.362909 411.317324 
L 405.316848 411.039408 
L 407.270788 410.769177 
L 409.224727 410.506439 
L 411.178667 410.251008 
L 413.132606 410.0027 
L 415.086545 409.761337 
L 417.040485 409.526742 
L 418.994424 409.298741 
L 420.948364 409.077165 
L 422.902303 408.861849 
L 424.856242 408.652629 
L 426.810182 408.449347 
L 428.764121 408.251846 
L 430.718061 408.059974 
L 432.672 407.873582 
" clip-path="url(#p1d6f14a898)" style="fill: none; stroke: #79a1f2; stroke-width: 3; stroke-linecap: round"/>
   </g>
   <g id="text_1">
    <path d="M 441.57698 409.593587 
Q 441.06448 409.593587 440.605105 409.496712 
Q 440.147292 409.398275 439.748855 409.202962 
Q 439.350417 409.00765 439.003542 408.7139 
L 439.003542 408.7139 
L 439.623855 407.952962 
L 439.623855 407.952962 
Q 440.030105 408.304525 440.517605 408.481087 
Q 441.006667 408.656087 441.57698 408.656087 
Q 442.348855 408.656087 442.773855 408.37015 
Q 443.198855 408.084212 443.198855 407.562337 
L 443.198855 407.55765 
Q 443.198855 407.185775 443.005105 406.968587 
Q 442.812918 406.7514 442.506667 406.646712 
Q 442.20198 406.542025 441.719168 406.452962 
Q 441.703543 406.448275 441.686355 406.448275 
Q 441.67073 406.448275 441.655105 406.443587 
L 441.581667 406.429525 
Q 440.869168 406.30765 440.422293 406.154525 
Q 439.975417 405.999837 439.65823 405.592025 
Q 439.341043 405.184212 439.341043 404.43265 
L 439.341043 404.427962 
Q 439.341043 403.768587 439.636355 403.302962 
Q 439.931668 402.835775 440.497293 402.592025 
Q 441.06448 402.346712 441.859793 402.346712 
Q 442.241042 402.346712 442.609793 402.431087 
Q 442.978543 402.5139 443.336355 402.677962 
Q 443.69573 402.840462 444.042605 403.0889 
L 444.042605 403.0889 
L 443.47698 403.881087 
L 443.47698 403.881087 
Q 443.07073 403.58265 442.667605 403.434212 
Q 442.266043 403.284212 441.859793 403.284212 
Q 441.13323 403.284212 440.730105 403.574837 
Q 440.32698 403.865462 440.32698 404.398275 
L 440.32698 404.402962 
Q 440.32698 404.768587 440.534792 404.979525 
Q 440.742605 405.1889 441.05198 405.2889 
Q 441.362917 405.3889 441.91448 405.496712 
Q 441.93323 405.5014 441.950418 405.504525 
Q 441.967605 405.506087 441.987917 405.510775 
Q 442.011355 405.515462 442.041043 405.521712 
Q 442.07073 405.5264 442.094168 405.531087 
Q 442.73948 405.662337 443.17073 405.843587 
Q 443.603543 406.023275 443.894167 406.4264 
Q 444.184793 406.829525 444.184793 407.527962 
L 444.184793 407.537337 
Q 444.184793 408.187337 443.87698 408.648275 
Q 443.569167 409.109212 442.984793 409.3514 
Q 442.40198 409.593587 441.57698 409.593587 
z
M 446.274832 408.573275 
L 447.881082 408.573275 
Q 448.667019 408.573275 449.098269 408.165462 
Q 449.531082 407.75765 449.531082 407.015462 
L 449.531082 404.924837 
Q 449.531082 404.18265 449.098269 403.774837 
Q 448.667019 403.367025 447.881082 403.367025 
L 446.274832 403.367025 
L 446.274832 402.42015 
L 447.851394 402.42015 
Q 448.706082 402.42015 449.310769 402.718587 
Q 449.917019 403.015462 450.234207 403.587337 
Q 450.551394 404.159212 450.551394 404.9639 
L 450.551394 406.9764 
Q 450.551394 407.781087 450.234207 408.352962 
Q 449.917019 408.924837 449.309207 409.223275 
Q 448.701394 409.52015 447.846707 409.52015 
L 446.274832 409.52015 
L 446.274832 408.573275 
z
M 445.601394 402.42015 
L 446.596707 402.42015 
L 446.596707 409.52015 
L 445.601394 409.52015 
L 445.601394 402.42015 
z
M 455.684207 403.309212 
L 453.848269 409.52015 
L 452.788894 409.52015 
L 454.624832 403.367025 
L 452.817019 403.367025 
L 452.817019 404.3889 
L 451.821707 404.3889 
L 451.821707 402.42015 
L 455.684207 402.42015 
L 455.684207 403.309212 
z
M 463.760183 405.696712 
L 463.760183 406.937337 
Q 463.760183 407.727962 463.452371 408.331087 
Q 463.144558 408.934212 462.580496 409.2639 
Q 462.016433 409.593587 461.274246 409.593587 
Q 460.522683 409.593587 459.953933 409.284212 
Q 459.385183 408.973275 459.072683 408.40765 
Q 458.760183 407.840462 458.760183 407.093587 
L 458.760183 404.998275 
Q 458.760183 404.20765 459.067996 403.60765 
Q 459.375808 403.006087 459.938308 402.6764 
Q 460.502371 402.346712 461.244558 402.346712 
Q 461.855496 402.346712 462.369558 402.609212 
Q 462.885183 402.87015 463.232058 403.348275 
Q 463.578933 403.8264 463.700808 404.456087 
L 463.700808 404.456087 
L 462.622683 404.456087 
L 462.622683 404.456087 
Q 462.533621 404.099837 462.324246 403.843587 
Q 462.114871 403.587337 461.830496 403.452962 
Q 461.547683 403.318587 461.244558 403.318587 
Q 460.805496 403.318587 460.472683 403.529525 
Q 460.141433 403.7389 459.960183 404.117025 
Q 459.780496 404.49515 459.780496 404.998275 
L 459.780496 407.093587 
Q 459.780496 407.552962 459.964871 407.896712 
Q 460.150808 408.240462 460.489871 408.431087 
Q 460.830496 408.621712 461.274246 408.621712 
Q 461.713308 408.621712 462.044558 408.424837 
Q 462.377371 408.2264 462.558621 407.8514 
Q 462.739871 407.474837 462.739871 406.956087 
L 462.739871 406.648275 
L 461.299246 406.648275 
L 461.299246 405.696712 
L 463.760183 405.696712 
z
M 467.348464 409.593587 
Q 466.645339 409.593587 466.146902 409.329525 
Q 465.650027 409.065462 465.387527 408.556087 
Q 465.126589 408.04515 465.126589 407.323275 
L 465.126589 406.7514 
Q 465.126589 405.999837 465.378152 405.468587 
Q 465.629714 404.935775 466.107839 404.65765 
Q 466.587527 404.377962 467.260964 404.377962 
Q 467.895339 404.377962 468.343777 404.696712 
Q 468.793777 405.0139 469.029714 405.6139 
Q 469.267214 406.2139 469.267214 407.054525 
L 469.267214 407.385775 
L 465.850027 407.385775 
L 465.850027 406.585775 
L 468.320339 406.585775 
L 468.320339 406.585775 
Q 468.276589 405.965462 468.000027 405.621712 
Q 467.725027 405.2764 467.260964 405.2764 
Q 466.693777 405.2764 466.384402 405.648275 
Q 466.075027 406.018587 466.075027 406.698275 
L 466.075027 407.342025 
Q 466.075027 407.971712 466.406277 408.309212 
Q 466.739089 408.646712 467.348464 408.646712 
Q 467.651589 408.646712 467.948464 408.524837 
Q 468.246902 408.4014 468.481277 408.18265 
L 468.481277 408.18265 
L 469.135964 408.835775 
L 469.135964 408.835775 
Q 468.759402 409.198275 468.290652 409.396712 
Q 467.821902 409.593587 467.348464 409.593587 
z
M 470.634793 404.4514 
L 471.631667 404.4514 
L 471.631667 409.52015 
L 470.634793 409.52015 
L 470.634793 404.4514 
z
M 473.711355 406.448275 
Q 473.711355 405.912337 473.43323 405.62015 
Q 473.155105 405.3264 472.65198 405.3264 
Q 472.162917 405.3264 471.897292 405.585775 
Q 471.631667 405.843587 471.631667 406.312337 
L 471.528543 405.335775 
Q 471.762918 404.8764 472.141043 404.627962 
Q 472.519167 404.377962 472.978543 404.377962 
Q 473.803542 404.377962 474.255105 404.918587 
Q 474.706667 405.45765 474.706667 406.443587 
L 474.706667 409.52015 
L 473.711355 409.52015 
L 473.711355 406.448275 
z
M 477.886355 409.52015 
L 476.88948 409.52015 
L 476.88948 403.504525 
L 475.878542 404.124837 
L 475.878542 403.093587 
L 476.88948 402.42015 
L 477.886355 402.42015 
L 477.886355 409.52015 
z
" style="fill: #ffffff; stroke: #000000"/>
    <path d="M 441.57698 409.593587 
Q 441.06448 409.593587 440.605105 409.496712 
Q 440.147292 409.398275 439.748855 409.202962 
Q 439.350417 409.00765 439.003542 408.7139 
L 439.003542 408.7139 
L 439.623855 407.952962 
L 439.623855 407.952962 
Q 440.030105 408.304525 440.517605 408.481087 
Q 441.006667 408.656087 441.57698 408.656087 
Q 442.348855 408.656087 442.773855 408.37015 
Q 443.198855 408.084212 443.198855 407.562337 
L 443.198855 407.55765 
Q 443.198855 407.185775 443.005105 406.968587 
Q 442.812918 406.7514 442.506667 406.646712 
Q 442.20198 406.542025 441.719168 406.452962 
Q 441.703543 406.448275 441.686355 406.448275 
Q 441.67073 406.448275 441.655105 406.443587 
L 441.581667 406.429525 
Q 440.869168 406.30765 440.422293 406.154525 
Q 439.975417 405.999837 439.65823 405.592025 
Q 439.341043 405.184212 439.341043 404.43265 
L 439.341043 404.427962 
Q 439.341043 403.768587 439.636355 403.302962 
Q 439.931668 402.835775 440.497293 402.592025 
Q 441.06448 402.346712 441.859793 402.346712 
Q 442.241042 402.346712 442.609793 402.431087 
Q 442.978543 402.5139 443.336355 402.677962 
Q 443.69573 402.840462 444.042605 403.0889 
L 444.042605 403.0889 
L 443.47698 403.881087 
L 443.47698 403.881087 
Q 443.07073 403.58265 442.667605 403.434212 
Q 442.266043 403.284212 441.859793 403.284212 
Q 441.13323 403.284212 440.730105 403.574837 
Q 440.32698 403.865462 440.32698 404.398275 
L 440.32698 404.402962 
Q 440.32698 404.768587 440.534792 404.979525 
Q 440.742605 405.1889 441.05198 405.2889 
Q 441.362917 405.3889 441.91448 405.496712 
Q 441.93323 405.5014 441.950418 405.504525 
Q 441.967605 405.506087 441.987917 405.510775 
Q 442.011355 405.515462 442.041043 405.521712 
Q 442.07073 405.5264 442.094168 405.531087 
Q 442.73948 405.662337 443.17073 405.843587 
Q 443.603543 406.023275 443.894167 406.4264 
Q 444.184793 406.829525 444.184793 407.527962 
L 444.184793 407.537337 
Q 444.184793 408.187337 443.87698 408.648275 
Q 443.569167 409.109212 442.984793 409.3514 
Q 442.40198 409.593587 441.57698 409.593587 
z
M 446.274832 408.573275 
L 447.881082 408.573275 
Q 448.667019 408.573275 449.098269 408.165462 
Q 449.531082 407.75765 449.531082 407.015462 
L 449.531082 404.924837 
Q 449.531082 404.18265 449.098269 403.774837 
Q 448.667019 403.367025 447.881082 403.367025 
L 446.274832 403.367025 
L 446.274832 402.42015 
L 447.851394 402.42015 
Q 448.706082 402.42015 449.310769 402.718587 
Q 449.917019 403.015462 450.234207 403.587337 
Q 450.551394 404.159212 450.551394 404.9639 
L 450.551394 406.9764 
Q 450.551394 407.781087 450.234207 408.352962 
Q 449.917019 408.924837 449.309207 409.223275 
Q 448.701394 409.52015 447.846707 409.52015 
L 446.274832 409.52015 
L 446.274832 408.573275 
z
M 445.601394 402.42015 
L 446.596707 402.42015 
L 446.596707 409.52015 
L 445.601394 409.52015 
L 445.601394 402.42015 
z
M 455.684207 403.309212 
L 453.848269 409.52015 
L 452.788894 409.52015 
L 454.624832 403.367025 
L 452.817019 403.367025 
L 452.817019 404.3889 
L 451.821707 404.3889 
L 451.821707 402.42015 
L 455.684207 402.42015 
L 455.684207 403.309212 
z
M 463.760183 405.696712 
L 463.760183 406.937337 
Q 463.760183 407.727962 463.452371 408.331087 
Q 463.144558 408.934212 462.580496 409.2639 
Q 462.016433 409.593587 461.274246 409.593587 
Q 460.522683 409.593587 459.953933 409.284212 
Q 459.385183 408.973275 459.072683 408.40765 
Q 458.760183 407.840462 458.760183 407.093587 
L 458.760183 404.998275 
Q 458.760183 404.20765 459.067996 403.60765 
Q 459.375808 403.006087 459.938308 402.6764 
Q 460.502371 402.346712 461.244558 402.346712 
Q 461.855496 402.346712 462.369558 402.609212 
Q 462.885183 402.87015 463.232058 403.348275 
Q 463.578933 403.8264 463.700808 404.456087 
L 463.700808 404.456087 
L 462.622683 404.456087 
L 462.622683 404.456087 
Q 462.533621 404.099837 462.324246 403.843587 
Q 462.114871 403.587337 461.830496 403.452962 
Q 461.547683 403.318587 461.244558 403.318587 
Q 460.805496 403.318587 460.472683 403.529525 
Q 460.141433 403.7389 459.960183 404.117025 
Q 459.780496 404.49515 459.780496 404.998275 
L 459.780496 407.093587 
Q 459.780496 407.552962 459.964871 407.896712 
Q 460.150808 408.240462 460.489871 408.431087 
Q 460.830496 408.621712 461.274246 408.621712 
Q 461.713308 408.621712 462.044558 408.424837 
Q 462.377371 408.2264 462.558621 407.8514 
Q 462.739871 407.474837 462.739871 406.956087 
L 462.739871 406.648275 
L 461.299246 406.648275 
L 461.299246 405.696712 
L 463.760183 405.696712 
z
M 467.348464 409.593587 
Q 466.645339 409.593587 466.146902 409.329525 
Q 465.650027 409.065462 465.387527 408.556087 
Q 465.126589 408.04515 465.126589 407.323275 
L 465.126589 406.7514 
Q 465.126589 405.999837 465.378152 405.468587 
Q 465.629714 404.935775 466.107839 404.65765 
Q 466.587527 404.377962 467.260964 404.377962 
Q 467.895339 404.377962 468.343777 404.696712 
Q 468.793777 405.0139 469.029714 405.6139 
Q 469.267214 406.2139 469.267214 407.054525 
L 469.267214 407.385775 
L 465.850027 407.385775 
L 465.850027 406.585775 
L 468.320339 406.585775 
L 468.320339 406.585775 
Q 468.276589 405.965462 468.000027 405.621712 
Q 467.725027 405.2764 467.260964 405.2764 
Q 466.693777 405.2764 466.384402 405.648275 
Q 466.075027 406.018587 466.075027 406.698275 
L 466.075027 407.342025 
Q 466.075027 407.971712 466.406277 408.309212 
Q 466.739089 408.646712 467.348464 408.646712 
Q 467.651589 408.646712 467.948464 408.524837 
Q 468.246902 408.4014 468.481277 408.18265 
L 468.481277 408.18265 
L 469.135964 408.835775 
L 469.135964 408.835775 
Q 468.759402 409.198275 468.290652 409.396712 
Q 467.821902 409.593587 467.348464 409.593587 
z
M 470.634793 404.4514 
L 471.631667 404.4514 
L 471.631667 409.52015 
L 470.634793 409.52015 
L 470.634793 404.4514 
z
M 473.711355 406.448275 
Q 473.711355 405.912337 473.43323 405.62015 
Q 473.155105 405.3264 472.65198 405.3264 
Q 472.162917 405.3264 471.897292 405.585775 
Q 471.631667 405.843587 471.631667 406.312337 
L 471.528543 405.335775 
Q 471.762918 404.8764 472.141043 404.627962 
Q 472.519167 404.377962 472.978543 404.377962 
Q 473.803542 404.377962 474.255105 404.918587 
Q 474.706667 405.45765 474.706667 406.443587 
L 474.706667 409.52015 
L 473.711355 409.52015 
L 473.711355 406.448275 
z
M 477.886355 409.52015 
L 476.88948 409.52015 
L 476.88948 403.504525 
L 475.878542 404.124837 
L 475.878542 403.093587 
L 476.88948 402.42015 
L 477.886355 402.42015 
L 477.886355 409.52015 
z
" style="fill: #ffffff"/>
   </g>
  </g>
 </g>
 <defs>
  <clipPath id="p1d6f14a898">
   <rect x="144" y="77.76" width="892.8" height="498.96"/>
  </clipPath>
 </defs>
</svg>
