<?xml version="1.0" encoding="utf-8" standalone="no"?>
<!DOCTYPE svg PUBLIC "-//W3C//DTD SVG 1.1//EN"
  "http://www.w3.org/Graphics/SVG/1.1/DTD/svg11.dtd">
<svg xmlns:xlink="http://www.w3.org/1999/xlink" width="1152pt" height="648pt" viewBox="0 0 1152 648" xmlns="http://www.w3.org/2000/svg" version="1.1">
 <metadata>
  <rdf:RDF xmlns:dc="http://purl.org/dc/elements/1.1/" xmlns:cc="http://creativecommons.org/ns#" xmlns:rdf="http://www.w3.org/1999/02/22-rdf-syntax-ns#">
   <cc:Work>
    <dc:type rdf:resource="http://purl.org/dc/dcmitype/StillImage"/>
    <dc:date>2024-09-27T18:27:21.342321</dc:date>
    <dc:format>image/svg+xml</dc:format>
    <dc:creator>
     <cc:Agent>
      <dc:title>Matplotlib v3.9.2, https://matplotlib.org/</dc:title>
     </cc:Agent>
    </dc:creator>
   </cc:Work>
  </rdf:RDF>
 </metadata>
 <defs>
  <style type="text/css">*{stroke-linejoin: round; stroke-linecap: butt}</style>
 </defs>
 <g id="figure_1">
  <g id="patch_1">
   <path d="M 0 648 
L 1152 648 
L 1152 0 
L 0 0 
L 0 648 
z
" style="fill: none"/>
  </g>
  <g id="axes_1">
   <g id="PathCollection_1">
    <defs>
     <path id="m3b0f7818e8" d="M 0 2.738613 
C 0.726289 2.738613 1.422928 2.450055 1.936492 1.936492 
C 2.450055 1.422928 2.738613 0.726289 2.738613 0 
C 2.738613 -0.726289 2.450055 -1.422928 1.936492 -1.936492 
C 1.422928 -2.450055 0.726289 -2.738613 0 -2.738613 
C -0.726289 -2.738613 -1.422928 -2.450055 -1.936492 -1.936492 
C -2.450055 -1.422928 -2.738613 -0.726289 -2.738613 0 
C -2.738613 0.726289 -2.450055 1.422928 -1.936492 1.936492 
C -1.422928 2.450055 -0.726289 2.738613 0 2.738613 
z
" style="stroke: #66ff33"/>
    </defs>
    <g clip-path="url(#pb4bbb316c7)">
     <use xlink:href="#m3b0f7818e8" x="841.376" y="181.16946" style="fill: #66ff33; stroke: #66ff33"/>
     <use xlink:href="#m3b0f7818e8" x="615.2" y="226.45008" style="fill: #66ff33; stroke: #66ff33"/>
     <use xlink:href="#m3b0f7818e8" x="227.824" y="427.34385" style="fill: #66ff33; stroke: #66ff33"/>
    </g>
   </g>
   <g id="text_1">
    <path d="M 850.08098 175.716028 
L 850.93098 175.716028 
L 853.548167 182.816028 
L 852.473167 182.816028 
L 850.50598 177.087903 
L 848.538792 182.816028 
L 847.463792 182.816028 
L 850.08098 175.716028 
z
M 848.670042 180.31134 
L 852.40598 180.31134 
L 852.40598 181.258215 
L 848.670042 181.258215 
L 848.670042 180.31134 
z
M 856.189964 182.816028 
L 855.193089 182.816028 
L 855.193089 176.800403 
L 854.182152 177.420715 
L 854.182152 176.389465 
L 855.193089 175.716028 
L 856.189964 175.716028 
L 856.189964 182.816028 
z
M 861.468285 176.60509 
L 859.632347 182.816028 
L 858.572972 182.816028 
L 860.40891 176.662903 
L 858.601097 176.662903 
L 858.601097 177.684778 
L 857.605785 177.684778 
L 857.605785 175.716028 
L 861.468285 175.716028 
L 861.468285 176.60509 
z
M 863.494652 179.114465 
L 865.764964 179.114465 
Q 866.086839 179.114465 866.330589 178.962903 
Q 866.575902 178.81134 866.708714 178.533215 
Q 866.843089 178.25509 866.843089 177.894153 
L 866.843089 177.894153 
Q 866.843089 177.528528 866.708714 177.250403 
Q 866.575902 176.970715 866.330589 176.81759 
Q 866.086839 176.662903 865.764964 176.662903 
L 863.494652 176.662903 
L 863.494652 175.716028 
L 865.730589 175.716028 
Q 866.364964 175.716028 866.847777 175.987903 
Q 867.332152 176.258215 867.597777 176.751965 
Q 867.864964 177.244153 867.864964 177.894153 
L 867.864964 177.894153 
Q 867.864964 178.544153 867.597777 179.034778 
Q 867.332152 179.525403 866.847777 179.794153 
Q 866.364964 180.06134 865.730589 180.06134 
L 863.494652 180.06134 
L 863.494652 179.114465 
z
M 862.982152 175.716028 
L 863.977464 175.716028 
L 863.977464 182.816028 
L 862.982152 182.816028 
L 862.982152 175.716028 
z
M 869.1093 177.747278 
L 870.106175 177.747278 
L 870.106175 182.816028 
L 869.1093 182.816028 
L 869.1093 177.747278 
z
M 871.8968 178.94884 
Q 871.76555 178.787903 871.56555 178.70509 
Q 871.36555 178.622278 871.101488 178.622278 
Q 870.62805 178.622278 870.367113 178.883215 
Q 870.106175 179.144153 870.106175 179.608215 
L 870.00305 178.631653 
Q 870.237425 178.176965 870.607738 177.925403 
Q 870.979613 177.67384 871.42805 177.67384 
Q 871.774925 177.67384 872.056175 177.77384 
Q 872.337425 177.87384 872.5468 178.069153 
L 871.8968 178.94884 
z
M 875.320628 182.889465 
Q 874.661253 182.889465 874.192503 182.631653 
Q 873.723753 182.372278 873.476878 181.876965 
Q 873.230003 181.38009 873.230003 180.681653 
L 873.230003 179.856653 
Q 873.230003 179.169153 873.476878 178.678528 
Q 873.723753 178.18634 874.192503 177.93009 
Q 874.661253 177.67384 875.320628 177.67384 
Q 875.980003 177.67384 876.448753 177.93009 
Q 876.917503 178.18634 877.162816 178.678528 
Q 877.409691 179.169153 877.409691 179.856653 
L 877.409691 180.697278 
Q 877.409691 181.389465 877.162816 181.881653 
Q 876.917503 182.372278 876.448753 182.631653 
Q 875.980003 182.889465 875.320628 182.889465 
z
M 875.320628 181.94259 
Q 875.842503 181.94259 876.128441 181.616028 
Q 876.414378 181.287903 876.414378 180.697278 
L 876.414378 179.856653 
Q 876.414378 179.266028 876.128441 178.944153 
Q 875.842503 178.622278 875.320628 178.622278 
Q 874.797191 178.622278 874.511253 178.944153 
Q 874.226878 179.266028 874.226878 179.856653 
L 874.226878 180.697278 
Q 874.226878 181.287903 874.511253 181.616028 
Q 874.797191 181.94259 875.320628 181.94259 
z
" style="fill: #ffffff; stroke: #000000"/>
    <path d="M 850.08098 175.716028 
L 850.93098 175.716028 
L 853.548167 182.816028 
L 852.473167 182.816028 
L 850.50598 177.087903 
L 848.538792 182.816028 
L 847.463792 182.816028 
L 850.08098 175.716028 
z
M 848.670042 180.31134 
L 852.40598 180.31134 
L 852.40598 181.258215 
L 848.670042 181.258215 
L 848.670042 180.31134 
z
M 856.189964 182.816028 
L 855.193089 182.816028 
L 855.193089 176.800403 
L 854.182152 177.420715 
L 854.182152 176.389465 
L 855.193089 175.716028 
L 856.189964 175.716028 
L 856.189964 182.816028 
z
M 861.468285 176.60509 
L 859.632347 182.816028 
L 858.572972 182.816028 
L 860.40891 176.662903 
L 858.601097 176.662903 
L 858.601097 177.684778 
L 857.605785 177.684778 
L 857.605785 175.716028 
L 861.468285 175.716028 
L 861.468285 176.60509 
z
M 863.494652 179.114465 
L 865.764964 179.114465 
Q 866.086839 179.114465 866.330589 178.962903 
Q 866.575902 178.81134 866.708714 178.533215 
Q 866.843089 178.25509 866.843089 177.894153 
L 866.843089 177.894153 
Q 866.843089 177.528528 866.708714 177.250403 
Q 866.575902 176.970715 866.330589 176.81759 
Q 866.086839 176.662903 865.764964 176.662903 
L 863.494652 176.662903 
L 863.494652 175.716028 
L 865.730589 175.716028 
Q 866.364964 175.716028 866.847777 175.987903 
Q 867.332152 176.258215 867.597777 176.751965 
Q 867.864964 177.244153 867.864964 177.894153 
L 867.864964 177.894153 
Q 867.864964 178.544153 867.597777 179.034778 
Q 867.332152 179.525403 866.847777 179.794153 
Q 866.364964 180.06134 865.730589 180.06134 
L 863.494652 180.06134 
L 863.494652 179.114465 
z
M 862.982152 175.716028 
L 863.977464 175.716028 
L 863.977464 182.816028 
L 862.982152 182.816028 
L 862.982152 175.716028 
z
M 869.1093 177.747278 
L 870.106175 177.747278 
L 870.106175 182.816028 
L 869.1093 182.816028 
L 869.1093 177.747278 
z
M 871.8968 178.94884 
Q 871.76555 178.787903 871.56555 178.70509 
Q 871.36555 178.622278 871.101488 178.622278 
Q 870.62805 178.622278 870.367113 178.883215 
Q 870.106175 179.144153 870.106175 179.608215 
L 870.00305 178.631653 
Q 870.237425 178.176965 870.607738 177.925403 
Q 870.979613 177.67384 871.42805 177.67384 
Q 871.774925 177.67384 872.056175 177.77384 
Q 872.337425 177.87384 872.5468 178.069153 
L 871.8968 178.94884 
z
M 875.320628 182.889465 
Q 874.661253 182.889465 874.192503 182.631653 
Q 873.723753 182.372278 873.476878 181.876965 
Q 873.230003 181.38009 873.230003 180.681653 
L 873.230003 179.856653 
Q 873.230003 179.169153 873.476878 178.678528 
Q 873.723753 178.18634 874.192503 177.93009 
Q 874.661253 177.67384 875.320628 177.67384 
Q 875.980003 177.67384 876.448753 177.93009 
Q 876.917503 178.18634 877.162816 178.678528 
Q 877.409691 179.169153 877.409691 179.856653 
L 877.409691 180.697278 
Q 877.409691 181.389465 877.162816 181.881653 
Q 876.917503 182.372278 876.448753 182.631653 
Q 875.980003 182.889465 875.320628 182.889465 
z
M 875.320628 181.94259 
Q 875.842503 181.94259 876.128441 181.616028 
Q 876.414378 181.287903 876.414378 180.697278 
L 876.414378 179.856653 
Q 876.414378 179.266028 876.128441 178.944153 
Q 875.842503 178.622278 875.320628 178.622278 
Q 874.797191 178.622278 874.511253 178.944153 
Q 874.226878 179.266028 874.226878 179.856653 
L 874.226878 180.697278 
Q 874.226878 181.287903 874.511253 181.616028 
Q 874.797191 181.94259 875.320628 181.94259 
z
" style="fill: #ffffff"/>
   </g>
   <g id="text_2">
    <path d="M 623.90498 220.996648 
L 624.75498 220.996648 
L 627.372168 228.096648 
L 626.297168 228.096648 
L 624.32998 222.368523 
L 622.362793 228.096648 
L 621.287793 228.096648 
L 623.90498 220.996648 
z
M 622.494042 225.59196 
L 626.22998 225.59196 
L 626.22998 226.538835 
L 622.494042 226.538835 
L 622.494042 225.59196 
z
M 630.013964 228.096648 
L 629.017089 228.096648 
L 629.017089 222.081023 
L 628.006152 222.701335 
L 628.006152 221.670085 
L 629.017089 220.996648 
L 630.013964 220.996648 
L 630.013964 228.096648 
z
M 635.292285 221.88571 
L 633.456347 228.096648 
L 632.396972 228.096648 
L 634.23291 221.943523 
L 632.425097 221.943523 
L 632.425097 222.965398 
L 631.429785 222.965398 
L 631.429785 220.996648 
L 635.292285 220.996648 
L 635.292285 221.88571 
z
M 637.318652 224.395085 
L 639.588964 224.395085 
Q 639.910839 224.395085 640.154589 224.243523 
Q 640.399902 224.09196 640.532714 223.813835 
Q 640.667089 223.53571 640.667089 223.174773 
L 640.667089 223.174773 
Q 640.667089 222.809148 640.532714 222.531023 
Q 640.399902 222.251335 640.154589 222.09821 
Q 639.910839 221.943523 639.588964 221.943523 
L 637.318652 221.943523 
L 637.318652 220.996648 
L 639.554589 220.996648 
Q 640.188964 220.996648 640.671777 221.268523 
Q 641.156152 221.538835 641.421777 222.032585 
Q 641.688964 222.524773 641.688964 223.174773 
L 641.688964 223.174773 
Q 641.688964 223.824773 641.421777 224.315398 
Q 641.156152 224.806023 640.671777 225.074773 
Q 640.188964 225.34196 639.554589 225.34196 
L 637.318652 225.34196 
L 637.318652 224.395085 
z
M 636.806152 220.996648 
L 637.801464 220.996648 
L 637.801464 228.096648 
L 636.806152 228.096648 
L 636.806152 220.996648 
z
M 642.9333 223.027898 
L 643.930175 223.027898 
L 643.930175 228.096648 
L 642.9333 228.096648 
L 642.9333 223.027898 
z
M 645.7208 224.22946 
Q 645.58955 224.068523 645.38955 223.98571 
Q 645.18955 223.902898 644.925488 223.902898 
Q 644.45205 223.902898 644.191113 224.163835 
Q 643.930175 224.424773 643.930175 224.888835 
L 643.82705 223.912273 
Q 644.061425 223.457585 644.431738 223.206023 
Q 644.803613 222.95446 645.25205 222.95446 
Q 645.598925 222.95446 645.880175 223.05446 
Q 646.161425 223.15446 646.3708 223.349773 
L 645.7208 224.22946 
z
M 649.144628 228.170085 
Q 648.485253 228.170085 648.016503 227.912273 
Q 647.547753 227.652898 647.300878 227.157585 
Q 647.054003 226.66071 647.054003 225.962273 
L 647.054003 225.137273 
Q 647.054003 224.449773 647.300878 223.959148 
Q 647.547753 223.46696 648.016503 223.21071 
Q 648.485253 222.95446 649.144628 222.95446 
Q 649.804003 222.95446 650.272753 223.21071 
Q 650.741503 223.46696 650.986816 223.959148 
Q 651.233691 224.449773 651.233691 225.137273 
L 651.233691 225.977898 
Q 651.233691 226.670085 650.986816 227.162273 
Q 650.741503 227.652898 650.272753 227.912273 
Q 649.804003 228.170085 649.144628 228.170085 
z
M 649.144628 227.22321 
Q 649.666503 227.22321 649.952441 226.896648 
Q 650.238378 226.568523 650.238378 225.977898 
L 650.238378 225.137273 
Q 650.238378 224.546648 649.952441 224.224773 
Q 649.666503 223.902898 649.144628 223.902898 
Q 648.621191 223.902898 648.335253 224.224773 
Q 648.050878 224.546648 648.050878 225.137273 
L 648.050878 225.977898 
Q 648.050878 226.568523 648.335253 226.896648 
Q 648.621191 227.22321 649.144628 227.22321 
z
" style="fill: #ffffff; stroke: #000000"/>
    <path d="M 623.90498 220.996648 
L 624.75498 220.996648 
L 627.372168 228.096648 
L 626.297168 228.096648 
L 624.32998 222.368523 
L 622.362793 228.096648 
L 621.287793 228.096648 
L 623.90498 220.996648 
z
M 622.494042 225.59196 
L 626.22998 225.59196 
L 626.22998 226.538835 
L 622.494042 226.538835 
L 622.494042 225.59196 
z
M 630.013964 228.096648 
L 629.017089 228.096648 
L 629.017089 222.081023 
L 628.006152 222.701335 
L 628.006152 221.670085 
L 629.017089 220.996648 
L 630.013964 220.996648 
L 630.013964 228.096648 
z
M 635.292285 221.88571 
L 633.456347 228.096648 
L 632.396972 228.096648 
L 634.23291 221.943523 
L 632.425097 221.943523 
L 632.425097 222.965398 
L 631.429785 222.965398 
L 631.429785 220.996648 
L 635.292285 220.996648 
L 635.292285 221.88571 
z
M 637.318652 224.395085 
L 639.588964 224.395085 
Q 639.910839 224.395085 640.154589 224.243523 
Q 640.399902 224.09196 640.532714 223.813835 
Q 640.667089 223.53571 640.667089 223.174773 
L 640.667089 223.174773 
Q 640.667089 222.809148 640.532714 222.531023 
Q 640.399902 222.251335 640.154589 222.09821 
Q 639.910839 221.943523 639.588964 221.943523 
L 637.318652 221.943523 
L 637.318652 220.996648 
L 639.554589 220.996648 
Q 640.188964 220.996648 640.671777 221.268523 
Q 641.156152 221.538835 641.421777 222.032585 
Q 641.688964 222.524773 641.688964 223.174773 
L 641.688964 223.174773 
Q 641.688964 223.824773 641.421777 224.315398 
Q 641.156152 224.806023 640.671777 225.074773 
Q 640.188964 225.34196 639.554589 225.34196 
L 637.318652 225.34196 
L 637.318652 224.395085 
z
M 636.806152 220.996648 
L 637.801464 220.996648 
L 637.801464 228.096648 
L 636.806152 228.096648 
L 636.806152 220.996648 
z
M 642.9333 223.027898 
L 643.930175 223.027898 
L 643.930175 228.096648 
L 642.9333 228.096648 
L 642.9333 223.027898 
z
M 645.7208 224.22946 
Q 645.58955 224.068523 645.38955 223.98571 
Q 645.18955 223.902898 644.925488 223.902898 
Q 644.45205 223.902898 644.191113 224.163835 
Q 643.930175 224.424773 643.930175 224.888835 
L 643.82705 223.912273 
Q 644.061425 223.457585 644.431738 223.206023 
Q 644.803613 222.95446 645.25205 222.95446 
Q 645.598925 222.95446 645.880175 223.05446 
Q 646.161425 223.15446 646.3708 223.349773 
L 645.7208 224.22946 
z
M 649.144628 228.170085 
Q 648.485253 228.170085 648.016503 227.912273 
Q 647.547753 227.652898 647.300878 227.157585 
Q 647.054003 226.66071 647.054003 225.962273 
L 647.054003 225.137273 
Q 647.054003 224.449773 647.300878 223.959148 
Q 647.547753 223.46696 648.016503 223.21071 
Q 648.485253 222.95446 649.144628 222.95446 
Q 649.804003 222.95446 650.272753 223.21071 
Q 650.741503 223.46696 650.986816 223.959148 
Q 651.233691 224.449773 651.233691 225.137273 
L 651.233691 225.977898 
Q 651.233691 226.670085 650.986816 227.162273 
Q 650.741503 227.652898 650.272753 227.912273 
Q 649.804003 228.170085 649.144628 228.170085 
z
M 649.144628 227.22321 
Q 649.666503 227.22321 649.952441 226.896648 
Q 650.238378 226.568523 650.238378 225.977898 
L 650.238378 225.137273 
Q 650.238378 224.546648 649.952441 224.224773 
Q 649.666503 223.902898 649.144628 223.902898 
Q 648.621191 223.902898 648.335253 224.224773 
Q 648.050878 224.546648 648.050878 225.137273 
L 648.050878 225.977898 
Q 648.050878 226.568523 648.335253 226.896648 
Q 648.621191 227.22321 649.144628 227.22321 
z
" style="fill: #ffffff"/>
   </g>
   <g id="text_3">
    <path d="M 236.52898 421.890418 
L 237.37898 421.890418 
L 239.996167 428.990418 
L 238.921167 428.990418 
L 236.95398 423.262293 
L 234.986792 428.990418 
L 233.911792 428.990418 
L 236.52898 421.890418 
z
M 235.118043 426.48573 
L 238.85398 426.48573 
L 238.85398 427.432605 
L 235.118043 427.432605 
L 235.118043 426.48573 
z
M 242.637964 428.990418 
L 241.641089 428.990418 
L 241.641089 422.974793 
L 240.630152 423.595105 
L 240.630152 422.563855 
L 241.641089 421.890418 
L 242.637964 421.890418 
L 242.637964 428.990418 
z
M 247.916285 422.77948 
L 246.080347 428.990418 
L 245.020972 428.990418 
L 246.85691 422.837293 
L 245.049097 422.837293 
L 245.049097 423.859168 
L 244.053785 423.859168 
L 244.053785 421.890418 
L 247.916285 421.890418 
L 247.916285 422.77948 
z
M 249.942652 425.288855 
L 252.212964 425.288855 
Q 252.534839 425.288855 252.778589 425.137293 
Q 253.023902 424.98573 253.156714 424.707605 
Q 253.291089 424.42948 253.291089 424.068543 
L 253.291089 424.068543 
Q 253.291089 423.702918 253.156714 423.424793 
Q 253.023902 423.145105 252.778589 422.99198 
Q 252.534839 422.837293 252.212964 422.837293 
L 249.942652 422.837293 
L 249.942652 421.890418 
L 252.178589 421.890418 
Q 252.812964 421.890418 253.295777 422.162293 
Q 253.780152 422.432605 254.045777 422.926355 
Q 254.312964 423.418543 254.312964 424.068543 
L 254.312964 424.068543 
Q 254.312964 424.718543 254.045777 425.209168 
Q 253.780152 425.699793 253.295777 425.968543 
Q 252.812964 426.23573 252.178589 426.23573 
L 249.942652 426.23573 
L 249.942652 425.288855 
z
M 249.430152 421.890418 
L 250.425464 421.890418 
L 250.425464 428.990418 
L 249.430152 428.990418 
L 249.430152 421.890418 
z
M 255.5573 423.921668 
L 256.554175 423.921668 
L 256.554175 428.990418 
L 255.5573 428.990418 
L 255.5573 423.921668 
z
M 258.3448 425.12323 
Q 258.21355 424.962293 258.01355 424.87948 
Q 257.81355 424.796668 257.549488 424.796668 
Q 257.07605 424.796668 256.815113 425.057605 
Q 256.554175 425.318543 256.554175 425.782605 
L 256.45105 424.806043 
Q 256.685425 424.351355 257.055738 424.099793 
Q 257.427613 423.84823 257.87605 423.84823 
Q 258.222925 423.84823 258.504175 423.94823 
Q 258.785425 424.04823 258.9948 424.243543 
L 258.3448 425.12323 
z
M 261.768628 429.063855 
Q 261.109253 429.063855 260.640503 428.806043 
Q 260.171753 428.546668 259.924878 428.051355 
Q 259.678003 427.55448 259.678003 426.856043 
L 259.678003 426.031043 
Q 259.678003 425.343543 259.924878 424.852918 
Q 260.171753 424.36073 260.640503 424.10448 
Q 261.109253 423.84823 261.768628 423.84823 
Q 262.428003 423.84823 262.896753 424.10448 
Q 263.365503 424.36073 263.610816 424.852918 
Q 263.857691 425.343543 263.857691 426.031043 
L 263.857691 426.871668 
Q 263.857691 427.563855 263.610816 428.056043 
Q 263.365503 428.546668 262.896753 428.806043 
Q 262.428003 429.063855 261.768628 429.063855 
z
M 261.768628 428.11698 
Q 262.290503 428.11698 262.576441 427.790418 
Q 262.862378 427.462293 262.862378 426.871668 
L 262.862378 426.031043 
Q 262.862378 425.440418 262.576441 425.118543 
Q 262.290503 424.796668 261.768628 424.796668 
Q 261.245191 424.796668 260.959253 425.118543 
Q 260.674878 425.440418 260.674878 426.031043 
L 260.674878 426.871668 
Q 260.674878 427.462293 260.959253 427.790418 
Q 261.245191 428.11698 261.768628 428.11698 
z
" style="fill: #ffffff; stroke: #000000"/>
    <path d="M 236.52898 421.890418 
L 237.37898 421.890418 
L 239.996167 428.990418 
L 238.921167 428.990418 
L 236.95398 423.262293 
L 234.986792 428.990418 
L 233.911792 428.990418 
L 236.52898 421.890418 
z
M 235.118043 426.48573 
L 238.85398 426.48573 
L 238.85398 427.432605 
L 235.118043 427.432605 
L 235.118043 426.48573 
z
M 242.637964 428.990418 
L 241.641089 428.990418 
L 241.641089 422.974793 
L 240.630152 423.595105 
L 240.630152 422.563855 
L 241.641089 421.890418 
L 242.637964 421.890418 
L 242.637964 428.990418 
z
M 247.916285 422.77948 
L 246.080347 428.990418 
L 245.020972 428.990418 
L 246.85691 422.837293 
L 245.049097 422.837293 
L 245.049097 423.859168 
L 244.053785 423.859168 
L 244.053785 421.890418 
L 247.916285 421.890418 
L 247.916285 422.77948 
z
M 249.942652 425.288855 
L 252.212964 425.288855 
Q 252.534839 425.288855 252.778589 425.137293 
Q 253.023902 424.98573 253.156714 424.707605 
Q 253.291089 424.42948 253.291089 424.068543 
L 253.291089 424.068543 
Q 253.291089 423.702918 253.156714 423.424793 
Q 253.023902 423.145105 252.778589 422.99198 
Q 252.534839 422.837293 252.212964 422.837293 
L 249.942652 422.837293 
L 249.942652 421.890418 
L 252.178589 421.890418 
Q 252.812964 421.890418 253.295777 422.162293 
Q 253.780152 422.432605 254.045777 422.926355 
Q 254.312964 423.418543 254.312964 424.068543 
L 254.312964 424.068543 
Q 254.312964 424.718543 254.045777 425.209168 
Q 253.780152 425.699793 253.295777 425.968543 
Q 252.812964 426.23573 252.178589 426.23573 
L 249.942652 426.23573 
L 249.942652 425.288855 
z
M 249.430152 421.890418 
L 250.425464 421.890418 
L 250.425464 428.990418 
L 249.430152 428.990418 
L 249.430152 421.890418 
z
M 255.5573 423.921668 
L 256.554175 423.921668 
L 256.554175 428.990418 
L 255.5573 428.990418 
L 255.5573 423.921668 
z
M 258.3448 425.12323 
Q 258.21355 424.962293 258.01355 424.87948 
Q 257.81355 424.796668 257.549488 424.796668 
Q 257.07605 424.796668 256.815113 425.057605 
Q 256.554175 425.318543 256.554175 425.782605 
L 256.45105 424.806043 
Q 256.685425 424.351355 257.055738 424.099793 
Q 257.427613 423.84823 257.87605 423.84823 
Q 258.222925 423.84823 258.504175 423.94823 
Q 258.785425 424.04823 258.9948 424.243543 
L 258.3448 425.12323 
z
M 261.768628 429.063855 
Q 261.109253 429.063855 260.640503 428.806043 
Q 260.171753 428.546668 259.924878 428.051355 
Q 259.678003 427.55448 259.678003 426.856043 
L 259.678003 426.031043 
Q 259.678003 425.343543 259.924878 424.852918 
Q 260.171753 424.36073 260.640503 424.10448 
Q 261.109253 423.84823 261.768628 423.84823 
Q 262.428003 423.84823 262.896753 424.10448 
Q 263.365503 424.36073 263.610816 424.852918 
Q 263.857691 425.343543 263.857691 426.031043 
L 263.857691 426.871668 
Q 263.857691 427.563855 263.610816 428.056043 
Q 263.365503 428.546668 262.896753 428.806043 
Q 262.428003 429.063855 261.768628 429.063855 
z
M 261.768628 428.11698 
Q 262.290503 428.11698 262.576441 427.790418 
Q 262.862378 427.462293 262.862378 426.871668 
L 262.862378 426.031043 
Q 262.862378 425.440418 262.576441 425.118543 
Q 262.290503 424.796668 261.768628 424.796668 
Q 261.245191 424.796668 260.959253 425.118543 
Q 260.674878 425.440418 260.674878 426.031043 
L 260.674878 426.871668 
Q 260.674878 427.462293 260.959253 427.790418 
Q 261.245191 428.11698 261.768628 428.11698 
z
" style="fill: #ffffff"/>
   </g>
  </g>
 </g>
 <defs>
  <clipPath id="pb4bbb316c7">
   <rect x="144" y="77.76" width="892.8" height="498.96"/>
  </clipPath>
 </defs>
</svg>
