<?xml version="1.0" encoding="utf-8" standalone="no"?>
<!DOCTYPE svg PUBLIC "-//W3C//DTD SVG 1.1//EN"
  "http://www.w3.org/Graphics/SVG/1.1/DTD/svg11.dtd">
<svg xmlns:xlink="http://www.w3.org/1999/xlink" width="1152pt" height="648pt" viewBox="0 0 1152 648" xmlns="http://www.w3.org/2000/svg" version="1.1">
 <metadata>
  <rdf:RDF xmlns:dc="http://purl.org/dc/elements/1.1/" xmlns:cc="http://creativecommons.org/ns#" xmlns:rdf="http://www.w3.org/1999/02/22-rdf-syntax-ns#">
   <cc:Work>
    <dc:type rdf:resource="http://purl.org/dc/dcmitype/StillImage"/>
    <dc:date>2024-03-14T14:55:08.740037</dc:date>
    <dc:format>image/svg+xml</dc:format>
    <dc:creator>
     <cc:Agent>
      <dc:title>Matplotlib v3.8.3, https://matplotlib.org/</dc:title>
     </cc:Agent>
    </dc:creator>
   </cc:Work>
  </rdf:RDF>
 </metadata>
 <defs>
  <style type="text/css">*{stroke-linejoin: round; stroke-linecap: butt}</style>
 </defs>
 <g id="figure_1">
  <g id="patch_1">
   <path d="M 0 648 
L 1152 648 
L 1152 0 
L 0 0 
L 0 648 
z
" style="fill: none"/>
  </g>
  <g id="axes_1">
   <g id="line2d_1">
    <path d="M 196.08 506.751216 
L 197.593051 505.280966 
L 199.106101 503.835803 
L 200.619152 502.415299 
L 202.132202 501.019035 
L 203.645253 499.646598 
L 205.158303 498.29758 
L 206.671354 496.971584 
L 208.184404 495.668216 
L 209.697455 494.387091 
L 211.210505 493.12783 
L 212.723556 491.89006 
L 214.236606 490.673414 
L 215.749657 489.477534 
L 217.262707 488.302063 
L 218.775758 487.146655 
L 220.288808 486.010968 
L 221.801859 484.894665 
L 223.314909 483.797415 
L 224.82796 482.718895 
L 226.34101 481.658784 
L 227.854061 480.616768 
L 229.367111 479.592539 
L 230.880162 478.585793 
L 232.393212 477.596233 
L 233.906263 476.623566 
L 235.419313 475.667502 
L 236.932364 474.72776 
L 238.445414 473.804059 
L 239.958465 472.896128 
L 241.471515 472.003697 
L 242.984566 471.126502 
L 244.497616 470.264282 
L 246.010667 469.416782 
L 247.523717 468.583751 
L 249.036768 467.764942 
L 250.549818 466.960114 
L 252.062869 466.169026 
L 253.575919 465.391444 
L 255.08897 464.627139 
L 256.60202 463.875884 
L 258.115071 463.137455 
L 259.628121 462.411635 
L 261.141172 461.698208 
L 262.654222 460.996962 
L 264.167273 460.30769 
L 265.680323 459.630188 
L 267.193374 458.964253 
L 268.706424 458.30969 
L 270.219475 457.666304 
L 271.732525 457.033904 
L 273.245576 456.412303 
L 274.758626 455.801317 
L 276.271677 455.200764 
L 277.784727 454.610466 
L 279.297778 454.030248 
L 280.810828 453.459939 
L 282.323879 452.899368 
L 283.836929 452.348371 
L 285.34998 451.806783 
L 286.86303 451.274443 
L 288.376081 450.751195 
L 289.889131 450.236883 
L 291.402182 449.731354 
L 292.915232 449.234458 
L 294.428283 448.746048 
L 295.941333 448.265979 
L 297.454384 447.794109 
L 298.967434 447.330298 
L 300.480485 446.874408 
L 301.993535 446.426304 
L 303.506586 445.985852 
L 305.019636 445.552924 
L 306.532687 445.127389 
L 308.045737 444.709122 
L 309.558788 444.297998 
L 311.071838 443.893897 
L 312.584889 443.496697 
L 314.097939 443.106281 
L 315.61099 442.722533 
L 317.12404 442.345339 
L 318.637091 441.974588 
L 320.150141 441.610169 
L 321.663192 441.251975 
L 323.176242 440.899898 
L 324.689293 440.553835 
L 326.202343 440.213683 
L 327.715394 439.879341 
L 329.228444 439.550709 
L 330.741495 439.227691 
L 332.254545 438.91019 
L 333.767596 438.598112 
L 335.280646 438.291364 
L 336.793697 437.989856 
L 338.306747 437.693498 
L 339.819798 437.402203 
L 341.332848 437.115882 
L 342.845899 436.834453 
L 344.358949 436.557831 
L 345.872 436.285933 
" clip-path="url(#p8772a6e19d)" style="fill: none; stroke: #f2d230; stroke-width: 3; stroke-linecap: round"/>
   </g>
   <g id="text_1">
    <path d="M 353.317605 436.985626 
L 354.923855 436.985626 
Q 355.709792 436.985626 356.141042 436.577814 
Q 356.573855 436.170001 356.573855 435.427814 
L 356.573855 433.337189 
Q 356.573855 432.595001 356.141042 432.187189 
Q 355.709792 431.779376 354.923855 431.779376 
L 353.317605 431.779376 
L 353.317605 430.832501 
L 354.894167 430.832501 
Q 355.748855 430.832501 356.353543 431.130939 
Q 356.959792 431.427814 357.27698 431.999689 
Q 357.594167 432.571564 357.594167 433.376251 
L 357.594167 435.388751 
Q 357.594167 436.193439 357.27698 436.765314 
Q 356.959792 437.337189 356.35198 437.635626 
Q 355.744168 437.932501 354.88948 437.932501 
L 353.317605 437.932501 
L 353.317605 436.985626 
z
M 352.644167 430.832501 
L 353.63948 430.832501 
L 353.63948 437.932501 
L 352.644167 437.932501 
L 352.644167 430.832501 
z
M 361.573855 434.407501 
L 361.569167 434.582501 
Q 361.447293 434.807501 361.200418 434.912189 
Q 360.953542 435.016876 360.617605 435.016876 
Q 360.109792 435.016876 359.723855 434.759064 
Q 359.337918 434.499689 359.125417 434.029376 
Q 358.912917 433.557501 358.912917 432.937189 
L 358.912917 432.932501 
Q 358.912917 432.243439 359.144167 431.755939 
Q 359.37698 431.266876 359.823855 431.013751 
Q 360.27073 430.759064 360.89573 430.759064 
Q 361.52073 430.759064 361.96448 431.018439 
Q 362.409792 431.277814 362.641042 431.771564 
Q 362.872293 432.263751 362.872293 432.957501 
L 362.872293 432.962189 
Q 362.872293 433.341876 362.773855 433.774689 
Q 362.67698 434.207501 362.497293 434.630939 
Q 362.467605 434.695001 362.437917 434.760626 
Q 362.409792 434.826251 362.375417 434.890314 
L 360.861355 437.932501 
L 359.786355 437.932501 
L 361.573855 434.407501 
z
M 360.89573 434.109064 
Q 361.36448 434.109064 361.62073 433.791876 
Q 361.87698 433.474689 361.87698 432.898126 
L 361.87698 432.893439 
Q 361.87698 432.332501 361.62073 432.024689 
Q 361.36448 431.716876 360.89573 431.716876 
Q 360.422292 431.716876 360.166043 432.024689 
Q 359.909792 432.332501 359.909792 432.898126 
L 359.909792 432.902814 
Q 359.909792 433.479376 360.166043 433.795001 
Q 360.422292 434.109064 360.89573 434.109064 
z
M 364.083816 437.068439 
L 366.558816 433.766876 
Q 366.774441 433.484064 366.893191 433.179376 
Q 367.013503 432.873126 367.013503 432.610626 
L 367.013503 432.599689 
Q 367.013503 432.176251 366.763503 431.941876 
Q 366.515066 431.707501 366.057253 431.707501 
Q 365.621316 431.707501 365.352566 431.963751 
Q 365.085378 432.220001 365.026003 432.688751 
L 365.026003 432.693439 
L 363.996316 432.693439 
L 363.996316 432.688751 
Q 364.083816 432.077814 364.354128 431.646564 
Q 364.626003 431.213751 365.055691 430.987189 
Q 365.485378 430.759064 366.046316 430.759064 
Q 366.682253 430.759064 367.130691 430.976251 
Q 367.580691 431.193439 367.815066 431.609064 
Q 368.049441 432.024689 368.049441 432.610626 
L 368.049441 432.615314 
Q 368.049441 432.990314 367.893191 433.401251 
Q 367.736941 433.810626 367.457253 434.191876 
L 365.402566 436.985626 
L 368.088503 436.985626 
L 368.088503 437.932501 
L 364.083816 437.932501 
L 364.083816 437.068439 
z
M 371.384207 438.005939 
Q 370.387332 438.005939 369.871707 437.474689 
Q 369.357644 436.941876 369.357644 435.988751 
L 369.357644 432.762189 
Q 369.357644 431.804376 369.874832 431.274689 
Q 370.392019 430.745001 371.384207 430.745001 
Q 372.379519 430.745001 372.895144 431.273126 
Q 373.410769 431.799689 373.410769 432.762189 
L 373.410769 435.988751 
Q 373.410769 436.946564 372.892019 437.476251 
Q 372.374832 438.005939 371.384207 438.005939 
z
M 371.384207 437.059064 
Q 371.910769 437.059064 372.162332 436.782501 
Q 372.413894 436.505939 372.413894 435.988751 
L 372.413894 432.762189 
Q 372.413894 432.243439 372.163894 431.968439 
Q 371.915457 431.691876 371.384207 431.691876 
Q 370.851394 431.691876 370.601394 431.968439 
Q 370.352957 432.243439 370.352957 432.762189 
L 370.352957 435.988751 
Q 370.352957 436.505939 370.604519 436.782501 
Q 370.856082 437.059064 371.384207 437.059064 
z
" style="fill: #ffffff; stroke: #000000"/>
    <path d="M 353.317605 436.985626 
L 354.923855 436.985626 
Q 355.709792 436.985626 356.141042 436.577814 
Q 356.573855 436.170001 356.573855 435.427814 
L 356.573855 433.337189 
Q 356.573855 432.595001 356.141042 432.187189 
Q 355.709792 431.779376 354.923855 431.779376 
L 353.317605 431.779376 
L 353.317605 430.832501 
L 354.894167 430.832501 
Q 355.748855 430.832501 356.353543 431.130939 
Q 356.959792 431.427814 357.27698 431.999689 
Q 357.594167 432.571564 357.594167 433.376251 
L 357.594167 435.388751 
Q 357.594167 436.193439 357.27698 436.765314 
Q 356.959792 437.337189 356.35198 437.635626 
Q 355.744168 437.932501 354.88948 437.932501 
L 353.317605 437.932501 
L 353.317605 436.985626 
z
M 352.644167 430.832501 
L 353.63948 430.832501 
L 353.63948 437.932501 
L 352.644167 437.932501 
L 352.644167 430.832501 
z
M 361.573855 434.407501 
L 361.569167 434.582501 
Q 361.447293 434.807501 361.200418 434.912189 
Q 360.953542 435.016876 360.617605 435.016876 
Q 360.109792 435.016876 359.723855 434.759064 
Q 359.337918 434.499689 359.125417 434.029376 
Q 358.912917 433.557501 358.912917 432.937189 
L 358.912917 432.932501 
Q 358.912917 432.243439 359.144167 431.755939 
Q 359.37698 431.266876 359.823855 431.013751 
Q 360.27073 430.759064 360.89573 430.759064 
Q 361.52073 430.759064 361.96448 431.018439 
Q 362.409792 431.277814 362.641042 431.771564 
Q 362.872293 432.263751 362.872293 432.957501 
L 362.872293 432.962189 
Q 362.872293 433.341876 362.773855 433.774689 
Q 362.67698 434.207501 362.497293 434.630939 
Q 362.467605 434.695001 362.437917 434.760626 
Q 362.409792 434.826251 362.375417 434.890314 
L 360.861355 437.932501 
L 359.786355 437.932501 
L 361.573855 434.407501 
z
M 360.89573 434.109064 
Q 361.36448 434.109064 361.62073 433.791876 
Q 361.87698 433.474689 361.87698 432.898126 
L 361.87698 432.893439 
Q 361.87698 432.332501 361.62073 432.024689 
Q 361.36448 431.716876 360.89573 431.716876 
Q 360.422292 431.716876 360.166043 432.024689 
Q 359.909792 432.332501 359.909792 432.898126 
L 359.909792 432.902814 
Q 359.909792 433.479376 360.166043 433.795001 
Q 360.422292 434.109064 360.89573 434.109064 
z
M 364.083816 437.068439 
L 366.558816 433.766876 
Q 366.774441 433.484064 366.893191 433.179376 
Q 367.013503 432.873126 367.013503 432.610626 
L 367.013503 432.599689 
Q 367.013503 432.176251 366.763503 431.941876 
Q 366.515066 431.707501 366.057253 431.707501 
Q 365.621316 431.707501 365.352566 431.963751 
Q 365.085378 432.220001 365.026003 432.688751 
L 365.026003 432.693439 
L 363.996316 432.693439 
L 363.996316 432.688751 
Q 364.083816 432.077814 364.354128 431.646564 
Q 364.626003 431.213751 365.055691 430.987189 
Q 365.485378 430.759064 366.046316 430.759064 
Q 366.682253 430.759064 367.130691 430.976251 
Q 367.580691 431.193439 367.815066 431.609064 
Q 368.049441 432.024689 368.049441 432.610626 
L 368.049441 432.615314 
Q 368.049441 432.990314 367.893191 433.401251 
Q 367.736941 433.810626 367.457253 434.191876 
L 365.402566 436.985626 
L 368.088503 436.985626 
L 368.088503 437.932501 
L 364.083816 437.932501 
L 364.083816 437.068439 
z
M 371.384207 438.005939 
Q 370.387332 438.005939 369.871707 437.474689 
Q 369.357644 436.941876 369.357644 435.988751 
L 369.357644 432.762189 
Q 369.357644 431.804376 369.874832 431.274689 
Q 370.392019 430.745001 371.384207 430.745001 
Q 372.379519 430.745001 372.895144 431.273126 
Q 373.410769 431.799689 373.410769 432.762189 
L 373.410769 435.988751 
Q 373.410769 436.946564 372.892019 437.476251 
Q 372.374832 438.005939 371.384207 438.005939 
z
M 371.384207 437.059064 
Q 371.910769 437.059064 372.162332 436.782501 
Q 372.413894 436.505939 372.413894 435.988751 
L 372.413894 432.762189 
Q 372.413894 432.243439 372.163894 431.968439 
Q 371.915457 431.691876 371.384207 431.691876 
Q 370.851394 431.691876 370.601394 431.968439 
Q 370.352957 432.243439 370.352957 432.762189 
L 370.352957 435.988751 
Q 370.352957 436.505939 370.604519 436.782501 
Q 370.856082 437.059064 371.384207 437.059064 
z
" style="fill: #ffffff"/>
   </g>
  </g>
 </g>
 <defs>
  <clipPath id="p8772a6e19d">
   <rect x="144" y="77.76" width="892.8" height="498.96"/>
  </clipPath>
 </defs>
</svg>
