<?xml version="1.0" encoding="utf-8" standalone="no"?>
<!DOCTYPE svg PUBLIC "-//W3C//DTD SVG 1.1//EN"
  "http://www.w3.org/Graphics/SVG/1.1/DTD/svg11.dtd">
<svg xmlns:xlink="http://www.w3.org/1999/xlink" width="1152pt" height="648pt" viewBox="0 0 1152 648" xmlns="http://www.w3.org/2000/svg" version="1.1">
 <metadata>
  <rdf:RDF xmlns:dc="http://purl.org/dc/elements/1.1/" xmlns:cc="http://creativecommons.org/ns#" xmlns:rdf="http://www.w3.org/1999/02/22-rdf-syntax-ns#">
   <cc:Work>
    <dc:type rdf:resource="http://purl.org/dc/dcmitype/StillImage"/>
    <dc:date>2024-03-14T14:55:07.887902</dc:date>
    <dc:format>image/svg+xml</dc:format>
    <dc:creator>
     <cc:Agent>
      <dc:title>Matplotlib v3.8.3, https://matplotlib.org/</dc:title>
     </cc:Agent>
    </dc:creator>
   </cc:Work>
  </rdf:RDF>
 </metadata>
 <defs>
  <style type="text/css">*{stroke-linejoin: round; stroke-linecap: butt}</style>
 </defs>
 <g id="figure_1">
  <g id="patch_1">
   <path d="M 0 648 
L 1152 648 
L 1152 0 
L 0 0 
L 0 648 
z
" style="fill: none"/>
  </g>
  <g id="axes_1">
   <g id="line2d_1">
    <path d="M 234.768 461.927487 
L 237.26303 459.557536 
L 239.758061 457.20888 
L 242.253091 454.881619 
L 244.748121 452.575845 
L 247.243152 450.29164 
L 249.738182 448.029078 
L 252.233212 445.788223 
L 254.728242 443.569133 
L 257.223273 441.371856 
L 259.718303 439.196433 
L 262.213333 437.042896 
L 264.708364 434.911269 
L 267.203394 432.80157 
L 269.698424 430.713807 
L 272.193455 428.647983 
L 274.688485 426.604092 
L 277.183515 424.582121 
L 279.678545 422.582051 
L 282.173576 420.603856 
L 284.668606 418.647502 
L 287.163636 416.712951 
L 289.658667 414.800156 
L 292.153697 412.909066 
L 294.648727 411.039623 
L 297.143758 409.191764 
L 299.638788 407.365418 
L 302.133818 405.560511 
L 304.628848 403.776964 
L 307.123879 402.014691 
L 309.618909 400.273601 
L 312.113939 398.553601 
L 314.60897 396.854589 
L 317.104 395.176463 
L 319.59903 393.519113 
L 322.094061 391.882427 
L 324.589091 390.266288 
L 327.084121 388.670576 
L 329.579152 387.095167 
L 332.074182 385.539933 
L 334.569212 384.004742 
L 337.064242 382.489461 
L 339.559273 380.993953 
L 342.054303 379.518076 
L 344.549333 378.061688 
L 347.044364 376.624643 
L 349.539394 375.206792 
L 352.034424 373.807986 
L 354.529455 372.42807 
L 357.024485 371.066891 
L 359.519515 369.724291 
L 362.014545 368.400111 
L 364.509576 367.094191 
L 367.004606 365.806368 
L 369.499636 364.53648 
L 371.994667 363.28436 
L 374.489697 362.049844 
L 376.984727 360.832763 
L 379.479758 359.632949 
L 381.974788 358.450232 
L 384.469818 357.284444 
L 386.964848 356.135411 
L 389.459879 355.002965 
L 391.954909 353.886931 
L 394.449939 352.787138 
L 396.94497 351.703413 
L 399.44 350.635583 
L 401.93503 349.583475 
L 404.430061 348.546915 
L 406.925091 347.52573 
L 409.420121 346.519746 
L 411.915152 345.528791 
L 414.410182 344.552692 
L 416.905212 343.591276 
L 419.400242 342.64437 
L 421.895273 341.711803 
L 424.390303 340.793403 
L 426.885333 339.888999 
L 429.380364 338.998421 
L 431.875394 338.121499 
L 434.370424 337.258065 
L 436.865455 336.407949 
L 439.360485 335.570984 
L 441.855515 334.747004 
L 444.350545 333.935843 
L 446.845576 333.137336 
L 449.340606 332.351318 
L 451.835636 331.577628 
L 454.330667 330.816103 
L 456.825697 330.066582 
L 459.320727 329.328905 
L 461.815758 328.602915 
L 464.310788 327.888453 
L 466.805818 327.185362 
L 469.300848 326.493489 
L 471.795879 325.812679 
L 474.290909 325.14278 
L 476.785939 324.48364 
L 479.28097 323.835109 
L 481.776 323.197039 
" clip-path="url(#p8f79280ffe)" style="fill: none; stroke: #3071f2; stroke-width: 3; stroke-linecap: round"/>
   </g>
   <g id="text_1">
    <path d="M 490.68098 324.917045 
Q 490.16848 324.917045 489.709105 324.82017 
Q 489.251292 324.721732 488.852855 324.52642 
Q 488.454417 324.331107 488.107542 324.037357 
L 488.107542 324.037357 
L 488.727855 323.27642 
L 488.727855 323.27642 
Q 489.134105 323.627982 489.621605 323.804545 
Q 490.110667 323.979545 490.68098 323.979545 
Q 491.452855 323.979545 491.877855 323.693607 
Q 492.302855 323.40767 492.302855 322.885795 
L 492.302855 322.881107 
Q 492.302855 322.509232 492.109105 322.292045 
Q 491.916917 322.074857 491.610667 321.97017 
Q 491.30598 321.865482 490.823167 321.77642 
Q 490.807542 321.771732 490.790355 321.771732 
Q 490.77473 321.771732 490.759105 321.767045 
L 490.685667 321.752982 
Q 489.973167 321.631107 489.526292 321.477982 
Q 489.079417 321.323295 488.76223 320.915482 
Q 488.445042 320.50767 488.445042 319.756107 
L 488.445042 319.75142 
Q 488.445042 319.092045 488.740355 318.62642 
Q 489.035667 318.159232 489.601292 317.915482 
Q 490.16848 317.67017 490.963792 317.67017 
Q 491.345042 317.67017 491.713792 317.754545 
Q 492.082542 317.837357 492.440355 318.00142 
Q 492.79973 318.16392 493.146605 318.412357 
L 493.146605 318.412357 
L 492.58098 319.204545 
L 492.58098 319.204545 
Q 492.17473 318.906107 491.771605 318.75767 
Q 491.370042 318.60767 490.963792 318.60767 
Q 490.23723 318.60767 489.834105 318.898295 
Q 489.43098 319.18892 489.43098 319.721732 
L 489.43098 319.72642 
Q 489.43098 320.092045 489.638792 320.302982 
Q 489.846605 320.512357 490.15598 320.612357 
Q 490.466917 320.712357 491.01848 320.82017 
Q 491.03723 320.824857 491.054417 320.827982 
Q 491.071605 320.829545 491.091917 320.834232 
Q 491.115355 320.83892 491.145042 320.84517 
Q 491.17473 320.849857 491.198167 320.854545 
Q 491.84348 320.985795 492.27473 321.167045 
Q 492.707542 321.346732 492.998167 321.749857 
Q 493.288792 322.152982 493.288792 322.85142 
L 493.288792 322.860795 
Q 493.288792 323.510795 492.98098 323.971732 
Q 492.673167 324.43267 492.088792 324.674857 
Q 491.50598 324.917045 490.68098 324.917045 
z
M 495.378832 323.896732 
L 496.985082 323.896732 
Q 497.771019 323.896732 498.202269 323.48892 
Q 498.635082 323.081107 498.635082 322.33892 
L 498.635082 320.248295 
Q 498.635082 319.506107 498.202269 319.098295 
Q 497.771019 318.690482 496.985082 318.690482 
L 495.378832 318.690482 
L 495.378832 317.743607 
L 496.955394 317.743607 
Q 497.810082 317.743607 498.414769 318.042045 
Q 499.021019 318.33892 499.338207 318.910795 
Q 499.655394 319.48267 499.655394 320.287357 
L 499.655394 322.299857 
Q 499.655394 323.104545 499.338207 323.67642 
Q 499.021019 324.248295 498.413207 324.546732 
Q 497.805394 324.843607 496.950707 324.843607 
L 495.378832 324.843607 
L 495.378832 323.896732 
z
M 494.705394 317.743607 
L 495.700707 317.743607 
L 495.700707 324.843607 
L 494.705394 324.843607 
L 494.705394 317.743607 
z
M 504.788207 318.63267 
L 502.952269 324.843607 
L 501.892894 324.843607 
L 503.728832 318.690482 
L 501.921019 318.690482 
L 501.921019 319.712357 
L 500.925707 319.712357 
L 500.925707 317.743607 
L 504.788207 317.743607 
L 504.788207 318.63267 
z
M 510.070824 321.098295 
L 510.070824 322.04517 
L 506.106761 322.04517 
L 506.106761 321.098295 
L 510.070824 321.098295 
z
M 508.586449 323.554545 
L 507.591136 323.554545 
L 507.591136 319.58892 
L 508.586449 319.58892 
L 508.586449 323.554545 
z
M 518.147386 321.02017 
L 518.147386 322.260795 
Q 518.147386 323.05142 517.839574 323.654545 
Q 517.531761 324.25767 516.967699 324.587357 
Q 516.403636 324.917045 515.661449 324.917045 
Q 514.909886 324.917045 514.341136 324.60767 
Q 513.772386 324.296732 513.459886 323.731107 
Q 513.147386 323.16392 513.147386 322.417045 
L 513.147386 320.321732 
Q 513.147386 319.531107 513.455199 318.931107 
Q 513.763011 318.329545 514.325511 317.999857 
Q 514.889574 317.67017 515.631761 317.67017 
Q 516.242699 317.67017 516.756761 317.93267 
Q 517.272386 318.193607 517.619261 318.671732 
Q 517.966136 319.149857 518.088011 319.779545 
L 518.088011 319.779545 
L 517.009886 319.779545 
L 517.009886 319.779545 
Q 516.920824 319.423295 516.711449 319.167045 
Q 516.502074 318.910795 516.217699 318.77642 
Q 515.934886 318.642045 515.631761 318.642045 
Q 515.192699 318.642045 514.859886 318.852982 
Q 514.528636 319.062357 514.347386 319.440482 
Q 514.167699 319.818607 514.167699 320.321732 
L 514.167699 322.417045 
Q 514.167699 322.87642 514.352074 323.22017 
Q 514.538011 323.56392 514.877074 323.754545 
Q 515.217699 323.94517 515.661449 323.94517 
Q 516.100511 323.94517 516.431761 323.748295 
Q 516.764574 323.549857 516.945824 323.174857 
Q 517.127074 322.798295 517.127074 322.279545 
L 517.127074 321.971732 
L 515.686449 321.971732 
L 515.686449 321.02017 
L 518.147386 321.02017 
z
M 521.735667 324.917045 
Q 521.032542 324.917045 520.534105 324.652982 
Q 520.03723 324.38892 519.77473 323.879545 
Q 519.513792 323.368607 519.513792 322.646732 
L 519.513792 322.074857 
Q 519.513792 321.323295 519.765355 320.792045 
Q 520.016917 320.259232 520.495042 319.981107 
Q 520.97473 319.70142 521.648167 319.70142 
Q 522.282542 319.70142 522.73098 320.02017 
Q 523.18098 320.337357 523.416917 320.937357 
Q 523.654417 321.537357 523.654417 322.377982 
L 523.654417 322.709232 
L 520.23723 322.709232 
L 520.23723 321.909232 
L 522.707542 321.909232 
L 522.707542 321.909232 
Q 522.663792 321.28892 522.38723 320.94517 
Q 522.11223 320.599857 521.648167 320.599857 
Q 521.08098 320.599857 520.771605 320.971732 
Q 520.46223 321.342045 520.46223 322.021732 
L 520.46223 322.665482 
Q 520.46223 323.29517 520.79348 323.63267 
Q 521.126292 323.97017 521.735667 323.97017 
Q 522.038792 323.97017 522.335667 323.848295 
Q 522.634105 323.724857 522.86848 323.506107 
L 522.86848 323.506107 
L 523.523167 324.159232 
L 523.523167 324.159232 
Q 523.146605 324.521732 522.677855 324.72017 
Q 522.209105 324.917045 521.735667 324.917045 
z
M 525.021996 319.774857 
L 526.018871 319.774857 
L 526.018871 324.843607 
L 525.021996 324.843607 
L 525.021996 319.774857 
z
M 528.098558 321.771732 
Q 528.098558 321.235795 527.820433 320.943607 
Q 527.542308 320.649857 527.039183 320.649857 
Q 526.550121 320.649857 526.284496 320.909232 
Q 526.018871 321.167045 526.018871 321.635795 
L 525.915746 320.659232 
Q 526.150121 320.199857 526.528246 319.95142 
Q 526.906371 319.70142 527.365746 319.70142 
Q 528.190746 319.70142 528.642308 320.242045 
Q 529.093871 320.781107 529.093871 321.767045 
L 529.093871 324.843607 
L 528.098558 324.843607 
L 528.098558 321.771732 
z
M 530.451683 323.979545 
L 532.926683 320.677982 
Q 533.142308 320.39517 533.261058 320.090482 
Q 533.381371 319.784232 533.381371 319.521732 
L 533.381371 319.510795 
Q 533.381371 319.087357 533.131371 318.852982 
Q 532.882933 318.618607 532.425121 318.618607 
Q 531.989183 318.618607 531.720433 318.874857 
Q 531.453246 319.131107 531.393871 319.599857 
L 531.393871 319.604545 
L 530.364183 319.604545 
L 530.364183 319.599857 
Q 530.451683 318.98892 530.721996 318.55767 
Q 530.993871 318.124857 531.423558 317.898295 
Q 531.853246 317.67017 532.414183 317.67017 
Q 533.050121 317.67017 533.498558 317.887357 
Q 533.948558 318.104545 534.182933 318.52017 
Q 534.417308 318.935795 534.417308 319.521732 
L 534.417308 319.52642 
Q 534.417308 319.90142 534.261058 320.312357 
Q 534.104808 320.721732 533.825121 321.102982 
L 531.770433 323.896732 
L 534.456371 323.896732 
L 534.456371 324.843607 
L 530.451683 324.843607 
L 530.451683 323.979545 
z
" style="fill: #ffffff; stroke: #000000"/>
    <path d="M 490.68098 324.917045 
Q 490.16848 324.917045 489.709105 324.82017 
Q 489.251292 324.721732 488.852855 324.52642 
Q 488.454417 324.331107 488.107542 324.037357 
L 488.107542 324.037357 
L 488.727855 323.27642 
L 488.727855 323.27642 
Q 489.134105 323.627982 489.621605 323.804545 
Q 490.110667 323.979545 490.68098 323.979545 
Q 491.452855 323.979545 491.877855 323.693607 
Q 492.302855 323.40767 492.302855 322.885795 
L 492.302855 322.881107 
Q 492.302855 322.509232 492.109105 322.292045 
Q 491.916917 322.074857 491.610667 321.97017 
Q 491.30598 321.865482 490.823167 321.77642 
Q 490.807542 321.771732 490.790355 321.771732 
Q 490.77473 321.771732 490.759105 321.767045 
L 490.685667 321.752982 
Q 489.973167 321.631107 489.526292 321.477982 
Q 489.079417 321.323295 488.76223 320.915482 
Q 488.445042 320.50767 488.445042 319.756107 
L 488.445042 319.75142 
Q 488.445042 319.092045 488.740355 318.62642 
Q 489.035667 318.159232 489.601292 317.915482 
Q 490.16848 317.67017 490.963792 317.67017 
Q 491.345042 317.67017 491.713792 317.754545 
Q 492.082542 317.837357 492.440355 318.00142 
Q 492.79973 318.16392 493.146605 318.412357 
L 493.146605 318.412357 
L 492.58098 319.204545 
L 492.58098 319.204545 
Q 492.17473 318.906107 491.771605 318.75767 
Q 491.370042 318.60767 490.963792 318.60767 
Q 490.23723 318.60767 489.834105 318.898295 
Q 489.43098 319.18892 489.43098 319.721732 
L 489.43098 319.72642 
Q 489.43098 320.092045 489.638792 320.302982 
Q 489.846605 320.512357 490.15598 320.612357 
Q 490.466917 320.712357 491.01848 320.82017 
Q 491.03723 320.824857 491.054417 320.827982 
Q 491.071605 320.829545 491.091917 320.834232 
Q 491.115355 320.83892 491.145042 320.84517 
Q 491.17473 320.849857 491.198167 320.854545 
Q 491.84348 320.985795 492.27473 321.167045 
Q 492.707542 321.346732 492.998167 321.749857 
Q 493.288792 322.152982 493.288792 322.85142 
L 493.288792 322.860795 
Q 493.288792 323.510795 492.98098 323.971732 
Q 492.673167 324.43267 492.088792 324.674857 
Q 491.50598 324.917045 490.68098 324.917045 
z
M 495.378832 323.896732 
L 496.985082 323.896732 
Q 497.771019 323.896732 498.202269 323.48892 
Q 498.635082 323.081107 498.635082 322.33892 
L 498.635082 320.248295 
Q 498.635082 319.506107 498.202269 319.098295 
Q 497.771019 318.690482 496.985082 318.690482 
L 495.378832 318.690482 
L 495.378832 317.743607 
L 496.955394 317.743607 
Q 497.810082 317.743607 498.414769 318.042045 
Q 499.021019 318.33892 499.338207 318.910795 
Q 499.655394 319.48267 499.655394 320.287357 
L 499.655394 322.299857 
Q 499.655394 323.104545 499.338207 323.67642 
Q 499.021019 324.248295 498.413207 324.546732 
Q 497.805394 324.843607 496.950707 324.843607 
L 495.378832 324.843607 
L 495.378832 323.896732 
z
M 494.705394 317.743607 
L 495.700707 317.743607 
L 495.700707 324.843607 
L 494.705394 324.843607 
L 494.705394 317.743607 
z
M 504.788207 318.63267 
L 502.952269 324.843607 
L 501.892894 324.843607 
L 503.728832 318.690482 
L 501.921019 318.690482 
L 501.921019 319.712357 
L 500.925707 319.712357 
L 500.925707 317.743607 
L 504.788207 317.743607 
L 504.788207 318.63267 
z
M 510.070824 321.098295 
L 510.070824 322.04517 
L 506.106761 322.04517 
L 506.106761 321.098295 
L 510.070824 321.098295 
z
M 508.586449 323.554545 
L 507.591136 323.554545 
L 507.591136 319.58892 
L 508.586449 319.58892 
L 508.586449 323.554545 
z
M 518.147386 321.02017 
L 518.147386 322.260795 
Q 518.147386 323.05142 517.839574 323.654545 
Q 517.531761 324.25767 516.967699 324.587357 
Q 516.403636 324.917045 515.661449 324.917045 
Q 514.909886 324.917045 514.341136 324.60767 
Q 513.772386 324.296732 513.459886 323.731107 
Q 513.147386 323.16392 513.147386 322.417045 
L 513.147386 320.321732 
Q 513.147386 319.531107 513.455199 318.931107 
Q 513.763011 318.329545 514.325511 317.999857 
Q 514.889574 317.67017 515.631761 317.67017 
Q 516.242699 317.67017 516.756761 317.93267 
Q 517.272386 318.193607 517.619261 318.671732 
Q 517.966136 319.149857 518.088011 319.779545 
L 518.088011 319.779545 
L 517.009886 319.779545 
L 517.009886 319.779545 
Q 516.920824 319.423295 516.711449 319.167045 
Q 516.502074 318.910795 516.217699 318.77642 
Q 515.934886 318.642045 515.631761 318.642045 
Q 515.192699 318.642045 514.859886 318.852982 
Q 514.528636 319.062357 514.347386 319.440482 
Q 514.167699 319.818607 514.167699 320.321732 
L 514.167699 322.417045 
Q 514.167699 322.87642 514.352074 323.22017 
Q 514.538011 323.56392 514.877074 323.754545 
Q 515.217699 323.94517 515.661449 323.94517 
Q 516.100511 323.94517 516.431761 323.748295 
Q 516.764574 323.549857 516.945824 323.174857 
Q 517.127074 322.798295 517.127074 322.279545 
L 517.127074 321.971732 
L 515.686449 321.971732 
L 515.686449 321.02017 
L 518.147386 321.02017 
z
M 521.735667 324.917045 
Q 521.032542 324.917045 520.534105 324.652982 
Q 520.03723 324.38892 519.77473 323.879545 
Q 519.513792 323.368607 519.513792 322.646732 
L 519.513792 322.074857 
Q 519.513792 321.323295 519.765355 320.792045 
Q 520.016917 320.259232 520.495042 319.981107 
Q 520.97473 319.70142 521.648167 319.70142 
Q 522.282542 319.70142 522.73098 320.02017 
Q 523.18098 320.337357 523.416917 320.937357 
Q 523.654417 321.537357 523.654417 322.377982 
L 523.654417 322.709232 
L 520.23723 322.709232 
L 520.23723 321.909232 
L 522.707542 321.909232 
L 522.707542 321.909232 
Q 522.663792 321.28892 522.38723 320.94517 
Q 522.11223 320.599857 521.648167 320.599857 
Q 521.08098 320.599857 520.771605 320.971732 
Q 520.46223 321.342045 520.46223 322.021732 
L 520.46223 322.665482 
Q 520.46223 323.29517 520.79348 323.63267 
Q 521.126292 323.97017 521.735667 323.97017 
Q 522.038792 323.97017 522.335667 323.848295 
Q 522.634105 323.724857 522.86848 323.506107 
L 522.86848 323.506107 
L 523.523167 324.159232 
L 523.523167 324.159232 
Q 523.146605 324.521732 522.677855 324.72017 
Q 522.209105 324.917045 521.735667 324.917045 
z
M 525.021996 319.774857 
L 526.018871 319.774857 
L 526.018871 324.843607 
L 525.021996 324.843607 
L 525.021996 319.774857 
z
M 528.098558 321.771732 
Q 528.098558 321.235795 527.820433 320.943607 
Q 527.542308 320.649857 527.039183 320.649857 
Q 526.550121 320.649857 526.284496 320.909232 
Q 526.018871 321.167045 526.018871 321.635795 
L 525.915746 320.659232 
Q 526.150121 320.199857 526.528246 319.95142 
Q 526.906371 319.70142 527.365746 319.70142 
Q 528.190746 319.70142 528.642308 320.242045 
Q 529.093871 320.781107 529.093871 321.767045 
L 529.093871 324.843607 
L 528.098558 324.843607 
L 528.098558 321.771732 
z
M 530.451683 323.979545 
L 532.926683 320.677982 
Q 533.142308 320.39517 533.261058 320.090482 
Q 533.381371 319.784232 533.381371 319.521732 
L 533.381371 319.510795 
Q 533.381371 319.087357 533.131371 318.852982 
Q 532.882933 318.618607 532.425121 318.618607 
Q 531.989183 318.618607 531.720433 318.874857 
Q 531.453246 319.131107 531.393871 319.599857 
L 531.393871 319.604545 
L 530.364183 319.604545 
L 530.364183 319.599857 
Q 530.451683 318.98892 530.721996 318.55767 
Q 530.993871 318.124857 531.423558 317.898295 
Q 531.853246 317.67017 532.414183 317.67017 
Q 533.050121 317.67017 533.498558 317.887357 
Q 533.948558 318.104545 534.182933 318.52017 
Q 534.417308 318.935795 534.417308 319.521732 
L 534.417308 319.52642 
Q 534.417308 319.90142 534.261058 320.312357 
Q 534.104808 320.721732 533.825121 321.102982 
L 531.770433 323.896732 
L 534.456371 323.896732 
L 534.456371 324.843607 
L 530.451683 324.843607 
L 530.451683 323.979545 
z
" style="fill: #ffffff"/>
   </g>
  </g>
 </g>
 <defs>
  <clipPath id="p8f79280ffe">
   <rect x="144" y="77.76" width="892.8" height="498.96"/>
  </clipPath>
 </defs>
</svg>
