<?xml version="1.0" encoding="utf-8" standalone="no"?>
<!DOCTYPE svg PUBLIC "-//W3C//DTD SVG 1.1//EN"
  "http://www.w3.org/Graphics/SVG/1.1/DTD/svg11.dtd">
<svg xmlns:xlink="http://www.w3.org/1999/xlink" width="1152pt" height="648pt" viewBox="0 0 1152 648" xmlns="http://www.w3.org/2000/svg" version="1.1">
 <metadata>
  <rdf:RDF xmlns:dc="http://purl.org/dc/elements/1.1/" xmlns:cc="http://creativecommons.org/ns#" xmlns:rdf="http://www.w3.org/1999/02/22-rdf-syntax-ns#">
   <cc:Work>
    <dc:type rdf:resource="http://purl.org/dc/dcmitype/StillImage"/>
    <dc:date>2024-04-29T10:35:42.309780</dc:date>
    <dc:format>image/svg+xml</dc:format>
    <dc:creator>
     <cc:Agent>
      <dc:title>Matplotlib v3.8.4, https://matplotlib.org/</dc:title>
     </cc:Agent>
    </dc:creator>
   </cc:Work>
  </rdf:RDF>
 </metadata>
 <defs>
  <style type="text/css">*{stroke-linejoin: round; stroke-linecap: butt}</style>
 </defs>
 <g id="figure_1">
  <g id="patch_1">
   <path d="M 0 648 
L 1152 648 
L 1152 0 
L 0 0 
L 0 648 
z
" style="fill: none"/>
  </g>
  <g id="axes_1">
   <g id="line2d_1">
    <path d="M 207.984 554.464641 
L 211.420929 553.190993 
L 214.857859 551.956392 
L 218.294788 550.759642 
L 221.731717 549.599584 
L 225.168646 548.475094 
L 228.605576 547.385083 
L 232.042505 546.328493 
L 235.479434 545.3043 
L 238.916364 544.311513 
L 242.353293 543.349169 
L 245.790222 542.416335 
L 249.227152 541.512107 
L 252.664081 540.635607 
L 256.10101 539.785987 
L 259.537939 538.962423 
L 262.974869 538.164115 
L 266.411798 537.39029 
L 269.848727 536.640197 
L 273.285657 535.91311 
L 276.722586 535.208322 
L 280.159515 534.52515 
L 283.596444 533.862932 
L 287.033374 533.221025 
L 290.470303 532.598806 
L 293.907232 531.995672 
L 297.344162 531.411038 
L 300.781091 530.844336 
L 304.21802 530.295017 
L 307.654949 529.762548 
L 311.091879 529.246412 
L 314.528808 528.746108 
L 317.965737 528.261151 
L 321.402667 527.79107 
L 324.839596 527.335409 
L 328.276525 526.893726 
L 331.713455 526.465593 
L 335.150384 526.050592 
L 338.587313 525.648323 
L 342.024242 525.258394 
L 345.461172 524.880427 
L 348.898101 524.514055 
L 352.33503 524.158923 
L 355.77196 523.814686 
L 359.208889 523.481009 
L 362.645818 523.157569 
L 366.082747 522.844052 
L 369.519677 522.540153 
L 372.956606 522.245577 
L 376.393535 521.960039 
L 379.830465 521.683261 
L 383.267394 521.414975 
L 386.704323 521.15492 
L 390.141253 520.902843 
L 393.578182 520.6585 
L 397.015111 520.421654 
L 400.45204 520.192074 
L 403.88897 519.969538 
L 407.325899 519.75383 
L 410.762828 519.54474 
L 414.199758 519.342065 
L 417.636687 519.145608 
L 421.073616 518.955179 
L 424.510545 518.770593 
L 427.947475 518.59167 
L 431.384404 518.418237 
L 434.821333 518.250125 
L 438.258263 518.087171 
L 441.695192 517.929217 
L 445.132121 517.77611 
L 448.569051 517.6277 
L 452.00598 517.483844 
L 455.442909 517.344401 
L 458.879838 517.209237 
L 462.316768 517.078221 
L 465.753697 516.951224 
L 469.190626 516.828124 
L 472.627556 516.708802 
L 476.064485 516.59314 
L 479.501414 516.481027 
L 482.938343 516.372355 
L 486.375273 516.267017 
L 489.812202 516.16491 
L 493.249131 516.065937 
L 496.686061 515.970001 
L 500.12299 515.877009 
L 503.559919 515.78687 
L 506.996848 515.699496 
L 510.433778 515.614804 
L 513.870707 515.53271 
L 517.307636 515.453136 
L 520.744566 515.376003 
L 524.181495 515.301237 
L 527.618424 515.228765 
L 531.055354 515.158516 
L 534.492283 515.090424 
L 537.929212 515.02442 
L 541.366141 514.960442 
L 544.803071 514.898427 
L 548.24 514.838315 
" clip-path="url(#pf5bb682835)" style="fill: none; stroke: #ca79f2; stroke-width: 3; stroke-linecap: round"/>
   </g>
   <g id="text_1">
    <path d="M 557.14498 516.558321 
Q 556.63248 516.558321 556.173105 516.461446 
Q 555.715293 516.363008 555.316855 516.167696 
Q 554.918418 515.972383 554.571542 515.678633 
L 554.571542 515.678633 
L 555.191855 514.917696 
L 555.191855 514.917696 
Q 555.598105 515.269258 556.085605 515.445821 
Q 556.574668 515.620821 557.14498 515.620821 
Q 557.916855 515.620821 558.341855 515.334883 
Q 558.766855 515.048946 558.766855 514.527071 
L 558.766855 514.522383 
Q 558.766855 514.150508 558.573105 513.933321 
Q 558.380918 513.716133 558.074668 513.611446 
Q 557.76998 513.506758 557.287168 513.417696 
Q 557.271543 513.413008 557.254355 513.413008 
Q 557.23873 513.413008 557.223105 513.408321 
L 557.149667 513.394258 
Q 556.437167 513.272383 555.990293 513.119258 
Q 555.543418 512.964571 555.22623 512.556758 
Q 554.909042 512.148946 554.909042 511.397383 
L 554.909042 511.392696 
Q 554.909042 510.733321 555.204355 510.267696 
Q 555.499667 509.800508 556.065292 509.556758 
Q 556.63248 509.311446 557.427793 509.311446 
Q 557.809043 509.311446 558.177793 509.395821 
Q 558.546542 509.478633 558.904355 509.642696 
Q 559.26373 509.805196 559.610605 510.053633 
L 559.610605 510.053633 
L 559.04498 510.845821 
L 559.04498 510.845821 
Q 558.63873 510.547383 558.235605 510.398946 
Q 557.834043 510.248946 557.427793 510.248946 
Q 556.70123 510.248946 556.298105 510.539571 
Q 555.89498 510.830196 555.89498 511.363008 
L 555.89498 511.367696 
Q 555.89498 511.733321 556.102792 511.944258 
Q 556.310605 512.153633 556.61998 512.253633 
Q 556.930917 512.353633 557.48248 512.461446 
Q 557.50123 512.466133 557.518417 512.469258 
Q 557.535605 512.470821 557.555917 512.475508 
Q 557.579355 512.480196 557.609042 512.486446 
Q 557.63873 512.491133 557.662168 512.495821 
Q 558.30748 512.627071 558.73873 512.808321 
Q 559.171542 512.988008 559.462167 513.391133 
Q 559.752792 513.794258 559.752792 514.492696 
L 559.752792 514.502071 
Q 559.752792 515.152071 559.44498 515.613008 
Q 559.137168 516.073946 558.552793 516.316133 
Q 557.96998 516.558321 557.14498 516.558321 
z
M 561.842832 515.538008 
L 563.449082 515.538008 
Q 564.235019 515.538008 564.666269 515.130196 
Q 565.099082 514.722383 565.099082 513.980196 
L 565.099082 511.889571 
Q 565.099082 511.147383 564.666269 510.739571 
Q 564.235019 510.331758 563.449082 510.331758 
L 561.842832 510.331758 
L 561.842832 509.384883 
L 563.419394 509.384883 
Q 564.274082 509.384883 564.878769 509.683321 
Q 565.485019 509.980196 565.802207 510.552071 
Q 566.119394 511.123946 566.119394 511.928633 
L 566.119394 513.941133 
Q 566.119394 514.745821 565.802207 515.317696 
Q 565.485019 515.889571 564.877207 516.188008 
Q 564.269394 516.484883 563.414707 516.484883 
L 561.842832 516.484883 
L 561.842832 515.538008 
z
M 561.169394 509.384883 
L 562.164707 509.384883 
L 562.164707 516.484883 
L 561.169394 516.484883 
L 561.169394 509.384883 
z
M 569.664707 516.558321 
Q 569.020957 516.558321 568.531894 516.314571 
Q 568.044394 516.069258 567.777207 515.622383 
Q 567.511582 515.175508 567.511582 514.584883 
L 567.511582 514.467696 
Q 567.511582 513.936446 567.777207 513.467696 
Q 568.044394 512.998946 568.488144 512.759883 
Q 568.111582 512.553633 567.885019 512.166133 
Q 567.658457 511.777071 567.658457 511.347383 
L 567.658457 511.177071 
Q 567.658457 510.620821 567.906894 510.198946 
Q 568.155332 509.775508 568.610019 509.544258 
Q 569.064707 509.311446 569.664707 509.311446 
Q 570.264707 509.311446 570.719394 509.544258 
Q 571.174082 509.775508 571.422519 510.198946 
Q 571.670957 510.620821 571.670957 511.177071 
L 571.670957 511.347383 
Q 571.670957 511.788008 571.439707 512.173946 
Q 571.208457 512.558321 570.827207 512.759883 
Q 571.275644 513.003633 571.545957 513.470821 
Q 571.817832 513.936446 571.817832 514.467696 
L 571.817832 514.584883 
Q 571.817832 515.175508 571.552207 515.622383 
Q 571.286582 516.069258 570.797519 516.314571 
Q 570.310019 516.558321 569.664707 516.558321 
z
M 569.664707 515.600508 
Q 570.011582 515.600508 570.274082 515.464571 
Q 570.538144 515.327071 570.681894 515.081758 
Q 570.827207 514.834883 570.827207 514.511446 
L 570.827207 514.444258 
Q 570.827207 514.116133 570.681894 513.870821 
Q 570.538144 513.623946 570.274082 513.488008 
Q 570.011582 513.350508 569.664707 513.350508 
Q 569.317832 513.350508 569.053769 513.488008 
Q 568.791269 513.623946 568.645957 513.872383 
Q 568.502207 514.120821 568.502207 514.448946 
L 568.502207 514.522383 
Q 568.502207 514.844258 568.645957 515.088008 
Q 568.791269 515.331758 569.053769 515.466133 
Q 569.317832 515.600508 569.664707 515.600508 
z
M 569.664707 512.392696 
Q 569.963144 512.392696 570.191269 512.264571 
Q 570.420957 512.134883 570.547519 511.895821 
Q 570.675644 511.655196 570.675644 511.342696 
L 570.675644 511.275508 
Q 570.675644 510.977071 570.547519 510.747383 
Q 570.420957 510.517696 570.191269 510.394258 
Q 569.963144 510.269258 569.664707 510.269258 
Q 569.366269 510.269258 569.136582 510.394258 
Q 568.908457 510.517696 568.780332 510.747383 
Q 568.653769 510.977071 568.653769 511.280196 
L 568.653769 511.353633 
Q 568.653769 511.659883 568.780332 511.897383 
Q 568.908457 512.134883 569.136582 512.264571 
Q 569.366269 512.392696 569.664707 512.392696 
z
M 573.102207 515.620821 
L 575.577207 512.319258 
Q 575.792832 512.036446 575.911582 511.731758 
Q 576.031894 511.425508 576.031894 511.163008 
L 576.031894 511.152071 
Q 576.031894 510.728633 575.781894 510.494258 
Q 575.533457 510.259883 575.075644 510.259883 
Q 574.639707 510.259883 574.370957 510.516133 
Q 574.103769 510.772383 574.044394 511.241133 
L 574.044394 511.245821 
L 573.014707 511.245821 
L 573.014707 511.241133 
Q 573.102207 510.630196 573.372519 510.198946 
Q 573.644394 509.766133 574.074082 509.539571 
Q 574.503769 509.311446 575.064707 509.311446 
Q 575.700644 509.311446 576.149082 509.528633 
Q 576.599082 509.745821 576.833457 510.161446 
Q 577.067832 510.577071 577.067832 511.163008 
L 577.067832 511.167696 
Q 577.067832 511.542696 576.911582 511.953633 
Q 576.755332 512.363008 576.475644 512.744258 
L 574.420957 515.538008 
L 577.106894 515.538008 
L 577.106894 516.484883 
L 573.102207 516.484883 
L 573.102207 515.620821 
z
M 580.402597 516.558321 
Q 579.405722 516.558321 578.890097 516.027071 
Q 578.376035 515.494258 578.376035 514.541133 
L 578.376035 511.314571 
Q 578.376035 510.356758 578.893222 509.827071 
Q 579.41041 509.297383 580.402597 509.297383 
Q 581.39791 509.297383 581.913535 509.825508 
Q 582.42916 510.352071 582.42916 511.314571 
L 582.42916 514.541133 
Q 582.42916 515.498946 581.91041 516.028633 
Q 581.393222 516.558321 580.402597 516.558321 
z
M 580.402597 515.611446 
Q 580.92916 515.611446 581.180722 515.334883 
Q 581.432285 515.058321 581.432285 514.541133 
L 581.432285 511.314571 
Q 581.432285 510.795821 581.182285 510.520821 
Q 580.933847 510.244258 580.402597 510.244258 
Q 579.869785 510.244258 579.619785 510.520821 
Q 579.371347 510.795821 579.371347 511.314571 
L 579.371347 514.541133 
Q 579.371347 515.058321 579.62291 515.334883 
Q 579.874472 515.611446 580.402597 515.611446 
z
" style="fill: #ffffff; stroke: #000000"/>
    <path d="M 557.14498 516.558321 
Q 556.63248 516.558321 556.173105 516.461446 
Q 555.715293 516.363008 555.316855 516.167696 
Q 554.918418 515.972383 554.571542 515.678633 
L 554.571542 515.678633 
L 555.191855 514.917696 
L 555.191855 514.917696 
Q 555.598105 515.269258 556.085605 515.445821 
Q 556.574668 515.620821 557.14498 515.620821 
Q 557.916855 515.620821 558.341855 515.334883 
Q 558.766855 515.048946 558.766855 514.527071 
L 558.766855 514.522383 
Q 558.766855 514.150508 558.573105 513.933321 
Q 558.380918 513.716133 558.074668 513.611446 
Q 557.76998 513.506758 557.287168 513.417696 
Q 557.271543 513.413008 557.254355 513.413008 
Q 557.23873 513.413008 557.223105 513.408321 
L 557.149667 513.394258 
Q 556.437167 513.272383 555.990293 513.119258 
Q 555.543418 512.964571 555.22623 512.556758 
Q 554.909042 512.148946 554.909042 511.397383 
L 554.909042 511.392696 
Q 554.909042 510.733321 555.204355 510.267696 
Q 555.499667 509.800508 556.065292 509.556758 
Q 556.63248 509.311446 557.427793 509.311446 
Q 557.809043 509.311446 558.177793 509.395821 
Q 558.546542 509.478633 558.904355 509.642696 
Q 559.26373 509.805196 559.610605 510.053633 
L 559.610605 510.053633 
L 559.04498 510.845821 
L 559.04498 510.845821 
Q 558.63873 510.547383 558.235605 510.398946 
Q 557.834043 510.248946 557.427793 510.248946 
Q 556.70123 510.248946 556.298105 510.539571 
Q 555.89498 510.830196 555.89498 511.363008 
L 555.89498 511.367696 
Q 555.89498 511.733321 556.102792 511.944258 
Q 556.310605 512.153633 556.61998 512.253633 
Q 556.930917 512.353633 557.48248 512.461446 
Q 557.50123 512.466133 557.518417 512.469258 
Q 557.535605 512.470821 557.555917 512.475508 
Q 557.579355 512.480196 557.609042 512.486446 
Q 557.63873 512.491133 557.662168 512.495821 
Q 558.30748 512.627071 558.73873 512.808321 
Q 559.171542 512.988008 559.462167 513.391133 
Q 559.752792 513.794258 559.752792 514.492696 
L 559.752792 514.502071 
Q 559.752792 515.152071 559.44498 515.613008 
Q 559.137168 516.073946 558.552793 516.316133 
Q 557.96998 516.558321 557.14498 516.558321 
z
M 561.842832 515.538008 
L 563.449082 515.538008 
Q 564.235019 515.538008 564.666269 515.130196 
Q 565.099082 514.722383 565.099082 513.980196 
L 565.099082 511.889571 
Q 565.099082 511.147383 564.666269 510.739571 
Q 564.235019 510.331758 563.449082 510.331758 
L 561.842832 510.331758 
L 561.842832 509.384883 
L 563.419394 509.384883 
Q 564.274082 509.384883 564.878769 509.683321 
Q 565.485019 509.980196 565.802207 510.552071 
Q 566.119394 511.123946 566.119394 511.928633 
L 566.119394 513.941133 
Q 566.119394 514.745821 565.802207 515.317696 
Q 565.485019 515.889571 564.877207 516.188008 
Q 564.269394 516.484883 563.414707 516.484883 
L 561.842832 516.484883 
L 561.842832 515.538008 
z
M 561.169394 509.384883 
L 562.164707 509.384883 
L 562.164707 516.484883 
L 561.169394 516.484883 
L 561.169394 509.384883 
z
M 569.664707 516.558321 
Q 569.020957 516.558321 568.531894 516.314571 
Q 568.044394 516.069258 567.777207 515.622383 
Q 567.511582 515.175508 567.511582 514.584883 
L 567.511582 514.467696 
Q 567.511582 513.936446 567.777207 513.467696 
Q 568.044394 512.998946 568.488144 512.759883 
Q 568.111582 512.553633 567.885019 512.166133 
Q 567.658457 511.777071 567.658457 511.347383 
L 567.658457 511.177071 
Q 567.658457 510.620821 567.906894 510.198946 
Q 568.155332 509.775508 568.610019 509.544258 
Q 569.064707 509.311446 569.664707 509.311446 
Q 570.264707 509.311446 570.719394 509.544258 
Q 571.174082 509.775508 571.422519 510.198946 
Q 571.670957 510.620821 571.670957 511.177071 
L 571.670957 511.347383 
Q 571.670957 511.788008 571.439707 512.173946 
Q 571.208457 512.558321 570.827207 512.759883 
Q 571.275644 513.003633 571.545957 513.470821 
Q 571.817832 513.936446 571.817832 514.467696 
L 571.817832 514.584883 
Q 571.817832 515.175508 571.552207 515.622383 
Q 571.286582 516.069258 570.797519 516.314571 
Q 570.310019 516.558321 569.664707 516.558321 
z
M 569.664707 515.600508 
Q 570.011582 515.600508 570.274082 515.464571 
Q 570.538144 515.327071 570.681894 515.081758 
Q 570.827207 514.834883 570.827207 514.511446 
L 570.827207 514.444258 
Q 570.827207 514.116133 570.681894 513.870821 
Q 570.538144 513.623946 570.274082 513.488008 
Q 570.011582 513.350508 569.664707 513.350508 
Q 569.317832 513.350508 569.053769 513.488008 
Q 568.791269 513.623946 568.645957 513.872383 
Q 568.502207 514.120821 568.502207 514.448946 
L 568.502207 514.522383 
Q 568.502207 514.844258 568.645957 515.088008 
Q 568.791269 515.331758 569.053769 515.466133 
Q 569.317832 515.600508 569.664707 515.600508 
z
M 569.664707 512.392696 
Q 569.963144 512.392696 570.191269 512.264571 
Q 570.420957 512.134883 570.547519 511.895821 
Q 570.675644 511.655196 570.675644 511.342696 
L 570.675644 511.275508 
Q 570.675644 510.977071 570.547519 510.747383 
Q 570.420957 510.517696 570.191269 510.394258 
Q 569.963144 510.269258 569.664707 510.269258 
Q 569.366269 510.269258 569.136582 510.394258 
Q 568.908457 510.517696 568.780332 510.747383 
Q 568.653769 510.977071 568.653769 511.280196 
L 568.653769 511.353633 
Q 568.653769 511.659883 568.780332 511.897383 
Q 568.908457 512.134883 569.136582 512.264571 
Q 569.366269 512.392696 569.664707 512.392696 
z
M 573.102207 515.620821 
L 575.577207 512.319258 
Q 575.792832 512.036446 575.911582 511.731758 
Q 576.031894 511.425508 576.031894 511.163008 
L 576.031894 511.152071 
Q 576.031894 510.728633 575.781894 510.494258 
Q 575.533457 510.259883 575.075644 510.259883 
Q 574.639707 510.259883 574.370957 510.516133 
Q 574.103769 510.772383 574.044394 511.241133 
L 574.044394 511.245821 
L 573.014707 511.245821 
L 573.014707 511.241133 
Q 573.102207 510.630196 573.372519 510.198946 
Q 573.644394 509.766133 574.074082 509.539571 
Q 574.503769 509.311446 575.064707 509.311446 
Q 575.700644 509.311446 576.149082 509.528633 
Q 576.599082 509.745821 576.833457 510.161446 
Q 577.067832 510.577071 577.067832 511.163008 
L 577.067832 511.167696 
Q 577.067832 511.542696 576.911582 511.953633 
Q 576.755332 512.363008 576.475644 512.744258 
L 574.420957 515.538008 
L 577.106894 515.538008 
L 577.106894 516.484883 
L 573.102207 516.484883 
L 573.102207 515.620821 
z
M 580.402597 516.558321 
Q 579.405722 516.558321 578.890097 516.027071 
Q 578.376035 515.494258 578.376035 514.541133 
L 578.376035 511.314571 
Q 578.376035 510.356758 578.893222 509.827071 
Q 579.41041 509.297383 580.402597 509.297383 
Q 581.39791 509.297383 581.913535 509.825508 
Q 582.42916 510.352071 582.42916 511.314571 
L 582.42916 514.541133 
Q 582.42916 515.498946 581.91041 516.028633 
Q 581.393222 516.558321 580.402597 516.558321 
z
M 580.402597 515.611446 
Q 580.92916 515.611446 581.180722 515.334883 
Q 581.432285 515.058321 581.432285 514.541133 
L 581.432285 511.314571 
Q 581.432285 510.795821 581.182285 510.520821 
Q 580.933847 510.244258 580.402597 510.244258 
Q 579.869785 510.244258 579.619785 510.520821 
Q 579.371347 510.795821 579.371347 511.314571 
L 579.371347 514.541133 
Q 579.371347 515.058321 579.62291 515.334883 
Q 579.874472 515.611446 580.402597 515.611446 
z
" style="fill: #ffffff"/>
   </g>
  </g>
 </g>
 <defs>
  <clipPath id="pf5bb682835">
   <rect x="144" y="77.76" width="892.8" height="498.96"/>
  </clipPath>
 </defs>
</svg>
