<?xml version="1.0" encoding="utf-8" standalone="no"?>
<!DOCTYPE svg PUBLIC "-//W3C//DTD SVG 1.1//EN"
  "http://www.w3.org/Graphics/SVG/1.1/DTD/svg11.dtd">
<svg xmlns:xlink="http://www.w3.org/1999/xlink" width="1152pt" height="648pt" viewBox="0 0 1152 648" xmlns="http://www.w3.org/2000/svg" version="1.1">
 <metadata>
  <rdf:RDF xmlns:dc="http://purl.org/dc/elements/1.1/" xmlns:cc="http://creativecommons.org/ns#" xmlns:rdf="http://www.w3.org/1999/02/22-rdf-syntax-ns#">
   <cc:Work>
    <dc:type rdf:resource="http://purl.org/dc/dcmitype/StillImage"/>
    <dc:date>2024-04-29T10:35:42.277173</dc:date>
    <dc:format>image/svg+xml</dc:format>
    <dc:creator>
     <cc:Agent>
      <dc:title>Matplotlib v3.8.4, https://matplotlib.org/</dc:title>
     </cc:Agent>
    </dc:creator>
   </cc:Work>
  </rdf:RDF>
 </metadata>
 <defs>
  <style type="text/css">*{stroke-linejoin: round; stroke-linecap: butt}</style>
 </defs>
 <g id="figure_1">
  <g id="patch_1">
   <path d="M 0 648 
L 1152 648 
L 1152 0 
L 0 0 
L 0 648 
z
" style="fill: none"/>
  </g>
  <g id="axes_1">
   <g id="line2d_1">
    <path d="M 214.928 561.04495 
L 216.997172 560.726945 
L 219.066343 560.409067 
L 221.135515 560.091442 
L 223.204687 559.774197 
L 225.273859 559.457457 
L 227.34303 559.141347 
L 229.412202 558.82599 
L 231.481374 558.51151 
L 233.550545 558.198027 
L 235.619717 557.885662 
L 237.688889 557.574531 
L 239.758061 557.264752 
L 241.827232 556.956437 
L 243.896404 556.649699 
L 245.965576 556.344648 
L 248.034747 556.041389 
L 250.103919 555.740026 
L 252.173091 555.440662 
L 254.242263 555.143395 
L 256.311434 554.848319 
L 258.380606 554.555527 
L 260.449778 554.265109 
L 262.518949 553.977149 
L 264.588121 553.69173 
L 266.657293 553.40893 
L 268.726465 553.128826 
L 270.795636 552.851489 
L 272.864808 552.576986 
L 274.93398 552.305383 
L 277.003152 552.036741 
L 279.072323 551.771116 
L 281.141495 551.508562 
L 283.210667 551.249129 
L 285.279838 550.992864 
L 287.34901 550.739809 
L 289.418182 550.490003 
L 291.487354 550.243482 
L 293.556525 550.000277 
L 295.625697 549.760417 
L 297.694869 549.523928 
L 299.76404 549.290832 
L 301.833212 549.061145 
L 303.902384 548.834885 
L 305.971556 548.612063 
L 308.040727 548.392687 
L 310.109899 548.176765 
L 312.179071 547.9643 
L 314.248242 547.755291 
L 316.317414 547.549737 
L 318.386586 547.347632 
L 320.455758 547.148968 
L 322.524929 546.953737 
L 324.594101 546.761926 
L 326.663273 546.573519 
L 328.732444 546.388501 
L 330.801616 546.206852 
L 332.870788 546.028552 
L 334.93996 545.853578 
L 337.009131 545.681906 
L 339.078303 545.51351 
L 341.147475 545.348362 
L 343.216646 545.186433 
L 345.285818 545.027692 
L 347.35499 544.872108 
L 349.424162 544.719648 
L 351.493333 544.570277 
L 353.562505 544.423961 
L 355.631677 544.280663 
L 357.700848 544.140346 
L 359.77002 544.002972 
L 361.839192 543.868503 
L 363.908364 543.7369 
L 365.977535 543.608122 
L 368.046707 543.482129 
L 370.115879 543.358882 
L 372.185051 543.238337 
L 374.254222 543.120455 
L 376.323394 543.005193 
L 378.392566 542.892509 
L 380.461737 542.782361 
L 382.530909 542.674708 
L 384.600081 542.569506 
L 386.669253 542.466713 
L 388.738424 542.366288 
L 390.807596 542.268187 
L 392.876768 542.17237 
L 394.945939 542.078794 
L 397.015111 541.987417 
L 399.084283 541.898198 
L 401.153455 541.811096 
L 403.222626 541.72607 
L 405.291798 541.643079 
L 407.36097 541.562083 
L 409.430141 541.483041 
L 411.499313 541.405916 
L 413.568485 541.330666 
L 415.637657 541.257254 
L 417.706828 541.185642 
L 419.776 541.11579 
" clip-path="url(#pd2e94063de)" style="fill: none; stroke: #b230f2; stroke-width: 3; stroke-linecap: round"/>
   </g>
   <g id="text_1">
    <path d="M 428.68098 542.835796 
Q 428.16848 542.835796 427.709105 542.738921 
Q 427.251292 542.640483 426.852855 542.445171 
Q 426.454417 542.249858 426.107542 541.956108 
L 426.107542 541.956108 
L 426.727855 541.195171 
L 426.727855 541.195171 
Q 427.134105 541.546733 427.621605 541.723296 
Q 428.110667 541.898296 428.68098 541.898296 
Q 429.452855 541.898296 429.877855 541.612358 
Q 430.302855 541.326421 430.302855 540.804546 
L 430.302855 540.799858 
Q 430.302855 540.427983 430.109105 540.210796 
Q 429.916918 539.993608 429.610667 539.888921 
Q 429.30598 539.784233 428.823168 539.695171 
Q 428.807543 539.690483 428.790355 539.690483 
Q 428.77473 539.690483 428.759105 539.685796 
L 428.685667 539.671733 
Q 427.973167 539.549858 427.526293 539.396733 
Q 427.079417 539.242046 426.76223 538.834233 
Q 426.445042 538.426421 426.445042 537.674858 
L 426.445042 537.670171 
Q 426.445042 537.010796 426.740355 536.545171 
Q 427.035667 536.077983 427.601292 535.834233 
Q 428.16848 535.588921 428.963793 535.588921 
Q 429.345042 535.588921 429.713793 535.673296 
Q 430.082542 535.756108 430.440355 535.920171 
Q 430.79973 536.082671 431.146605 536.331108 
L 431.146605 536.331108 
L 430.58098 537.123296 
L 430.58098 537.123296 
Q 430.17473 536.824858 429.771605 536.676421 
Q 429.370043 536.526421 428.963793 536.526421 
Q 428.23723 536.526421 427.834105 536.817046 
Q 427.43098 537.107671 427.43098 537.640483 
L 427.43098 537.645171 
Q 427.43098 538.010796 427.638792 538.221733 
Q 427.846605 538.431108 428.15598 538.531108 
Q 428.466917 538.631108 429.01848 538.738921 
Q 429.03723 538.743608 429.054417 538.746733 
Q 429.071605 538.748296 429.091917 538.752983 
Q 429.115355 538.757671 429.145042 538.763921 
Q 429.17473 538.768608 429.198168 538.773296 
Q 429.84348 538.904546 430.27473 539.085796 
Q 430.707542 539.265483 430.998167 539.668608 
Q 431.288792 540.071733 431.288792 540.770171 
L 431.288792 540.779546 
Q 431.288792 541.429546 430.98098 541.890483 
Q 430.673167 542.351421 430.088793 542.593608 
Q 429.50598 542.835796 428.68098 542.835796 
z
M 433.378832 541.815483 
L 434.985082 541.815483 
Q 435.771019 541.815483 436.202269 541.407671 
Q 436.635082 540.999858 436.635082 540.257671 
L 436.635082 538.167046 
Q 436.635082 537.424858 436.202269 537.017046 
Q 435.771019 536.609233 434.985082 536.609233 
L 433.378832 536.609233 
L 433.378832 535.662358 
L 434.955394 535.662358 
Q 435.810082 535.662358 436.414769 535.960796 
Q 437.021019 536.257671 437.338207 536.829546 
Q 437.655394 537.401421 437.655394 538.206108 
L 437.655394 540.218608 
Q 437.655394 541.023296 437.338207 541.595171 
Q 437.021019 542.167046 436.413207 542.465483 
Q 435.805394 542.762358 434.950707 542.762358 
L 433.378832 542.762358 
L 433.378832 541.815483 
z
M 432.705394 535.662358 
L 433.700707 535.662358 
L 433.700707 542.762358 
L 432.705394 542.762358 
L 432.705394 535.662358 
z
M 441.200707 542.835796 
Q 440.556957 542.835796 440.067894 542.592046 
Q 439.580394 542.346733 439.313207 541.899858 
Q 439.047582 541.452983 439.047582 540.862358 
L 439.047582 540.745171 
Q 439.047582 540.213921 439.313207 539.745171 
Q 439.580394 539.276421 440.024144 539.037358 
Q 439.647582 538.831108 439.421019 538.443608 
Q 439.194457 538.054546 439.194457 537.624858 
L 439.194457 537.454546 
Q 439.194457 536.898296 439.442894 536.476421 
Q 439.691332 536.052983 440.146019 535.821733 
Q 440.600707 535.588921 441.200707 535.588921 
Q 441.800707 535.588921 442.255394 535.821733 
Q 442.710082 536.052983 442.958519 536.476421 
Q 443.206957 536.898296 443.206957 537.454546 
L 443.206957 537.624858 
Q 443.206957 538.065483 442.975707 538.451421 
Q 442.744457 538.835796 442.363207 539.037358 
Q 442.811644 539.281108 443.081957 539.748296 
Q 443.353832 540.213921 443.353832 540.745171 
L 443.353832 540.862358 
Q 443.353832 541.452983 443.088207 541.899858 
Q 442.822582 542.346733 442.333519 542.592046 
Q 441.846019 542.835796 441.200707 542.835796 
z
M 441.200707 541.877983 
Q 441.547582 541.877983 441.810082 541.742046 
Q 442.074144 541.604546 442.217894 541.359233 
Q 442.363207 541.112358 442.363207 540.788921 
L 442.363207 540.721733 
Q 442.363207 540.393608 442.217894 540.148296 
Q 442.074144 539.901421 441.810082 539.765483 
Q 441.547582 539.627983 441.200707 539.627983 
Q 440.853832 539.627983 440.589769 539.765483 
Q 440.327269 539.901421 440.181957 540.149858 
Q 440.038207 540.398296 440.038207 540.726421 
L 440.038207 540.799858 
Q 440.038207 541.121733 440.181957 541.365483 
Q 440.327269 541.609233 440.589769 541.743608 
Q 440.853832 541.877983 441.200707 541.877983 
z
M 441.200707 538.670171 
Q 441.499144 538.670171 441.727269 538.542046 
Q 441.956957 538.412358 442.083519 538.173296 
Q 442.211644 537.932671 442.211644 537.620171 
L 442.211644 537.552983 
Q 442.211644 537.254546 442.083519 537.024858 
Q 441.956957 536.795171 441.727269 536.671733 
Q 441.499144 536.546733 441.200707 536.546733 
Q 440.902269 536.546733 440.672582 536.671733 
Q 440.444457 536.795171 440.316332 537.024858 
Q 440.189769 537.254546 440.189769 537.557671 
L 440.189769 537.631108 
Q 440.189769 537.937358 440.316332 538.174858 
Q 440.444457 538.412358 440.672582 538.542046 
Q 440.902269 538.670171 441.200707 538.670171 
z
M 446.772582 542.835796 
Q 445.775707 542.835796 445.260082 542.304546 
Q 444.746019 541.771733 444.746019 540.818608 
L 444.746019 537.592046 
Q 444.746019 536.634233 445.263207 536.104546 
Q 445.780394 535.574858 446.772582 535.574858 
Q 447.767894 535.574858 448.283519 536.102983 
Q 448.799144 536.629546 448.799144 537.592046 
L 448.799144 540.818608 
Q 448.799144 541.776421 448.280394 542.306108 
Q 447.763207 542.835796 446.772582 542.835796 
z
M 446.772582 541.888921 
Q 447.299144 541.888921 447.550707 541.612358 
Q 447.802269 541.335796 447.802269 540.818608 
L 447.802269 537.592046 
Q 447.802269 537.073296 447.552269 536.798296 
Q 447.303832 536.521733 446.772582 536.521733 
Q 446.239769 536.521733 445.989769 536.798296 
Q 445.741332 537.073296 445.741332 537.592046 
L 445.741332 540.818608 
Q 445.741332 541.335796 445.992894 541.612358 
Q 446.244457 541.888921 446.772582 541.888921 
z
M 452.24641 542.835796 
Q 451.70891 542.835796 451.29016 542.626421 
Q 450.872972 542.415483 450.612035 542.015483 
Q 450.351097 541.615483 450.263597 541.052983 
L 450.263597 541.048296 
L 451.25891 541.048296 
L 451.25891 541.052983 
Q 451.313597 541.443608 451.57141 541.660796 
Q 451.830785 541.877983 452.24641 541.877983 
Q 452.724535 541.877983 452.985472 541.559233 
Q 453.24641 541.238921 453.24641 540.657671 
L 453.24641 540.062358 
Q 453.24641 539.485796 452.985472 539.167046 
Q 452.724535 538.846733 452.24641 538.846733 
Q 451.987035 538.846733 451.747972 538.993608 
Q 451.50891 539.138921 451.32766 539.402983 
L 450.419847 539.402983 
L 450.419847 535.662358 
L 454.037035 535.662358 
L 454.037035 536.609233 
L 451.41516 536.609233 
L 451.41516 538.206108 
Q 451.601097 538.054546 451.830785 537.971733 
Q 452.060472 537.888921 452.299535 537.888921 
Q 452.91516 537.888921 453.351097 538.143608 
Q 453.788597 538.396733 454.01516 538.885796 
Q 454.243285 539.373296 454.243285 540.062358 
L 454.243285 540.657671 
Q 454.243285 541.346733 454.00891 541.835796 
Q 453.774535 542.323296 453.324535 542.579546 
Q 452.876097 542.835796 452.24641 542.835796 
z
" style="fill: #ffffff; stroke: #000000"/>
    <path d="M 428.68098 542.835796 
Q 428.16848 542.835796 427.709105 542.738921 
Q 427.251292 542.640483 426.852855 542.445171 
Q 426.454417 542.249858 426.107542 541.956108 
L 426.107542 541.956108 
L 426.727855 541.195171 
L 426.727855 541.195171 
Q 427.134105 541.546733 427.621605 541.723296 
Q 428.110667 541.898296 428.68098 541.898296 
Q 429.452855 541.898296 429.877855 541.612358 
Q 430.302855 541.326421 430.302855 540.804546 
L 430.302855 540.799858 
Q 430.302855 540.427983 430.109105 540.210796 
Q 429.916918 539.993608 429.610667 539.888921 
Q 429.30598 539.784233 428.823168 539.695171 
Q 428.807543 539.690483 428.790355 539.690483 
Q 428.77473 539.690483 428.759105 539.685796 
L 428.685667 539.671733 
Q 427.973167 539.549858 427.526293 539.396733 
Q 427.079417 539.242046 426.76223 538.834233 
Q 426.445042 538.426421 426.445042 537.674858 
L 426.445042 537.670171 
Q 426.445042 537.010796 426.740355 536.545171 
Q 427.035667 536.077983 427.601292 535.834233 
Q 428.16848 535.588921 428.963793 535.588921 
Q 429.345042 535.588921 429.713793 535.673296 
Q 430.082542 535.756108 430.440355 535.920171 
Q 430.79973 536.082671 431.146605 536.331108 
L 431.146605 536.331108 
L 430.58098 537.123296 
L 430.58098 537.123296 
Q 430.17473 536.824858 429.771605 536.676421 
Q 429.370043 536.526421 428.963793 536.526421 
Q 428.23723 536.526421 427.834105 536.817046 
Q 427.43098 537.107671 427.43098 537.640483 
L 427.43098 537.645171 
Q 427.43098 538.010796 427.638792 538.221733 
Q 427.846605 538.431108 428.15598 538.531108 
Q 428.466917 538.631108 429.01848 538.738921 
Q 429.03723 538.743608 429.054417 538.746733 
Q 429.071605 538.748296 429.091917 538.752983 
Q 429.115355 538.757671 429.145042 538.763921 
Q 429.17473 538.768608 429.198168 538.773296 
Q 429.84348 538.904546 430.27473 539.085796 
Q 430.707542 539.265483 430.998167 539.668608 
Q 431.288792 540.071733 431.288792 540.770171 
L 431.288792 540.779546 
Q 431.288792 541.429546 430.98098 541.890483 
Q 430.673167 542.351421 430.088793 542.593608 
Q 429.50598 542.835796 428.68098 542.835796 
z
M 433.378832 541.815483 
L 434.985082 541.815483 
Q 435.771019 541.815483 436.202269 541.407671 
Q 436.635082 540.999858 436.635082 540.257671 
L 436.635082 538.167046 
Q 436.635082 537.424858 436.202269 537.017046 
Q 435.771019 536.609233 434.985082 536.609233 
L 433.378832 536.609233 
L 433.378832 535.662358 
L 434.955394 535.662358 
Q 435.810082 535.662358 436.414769 535.960796 
Q 437.021019 536.257671 437.338207 536.829546 
Q 437.655394 537.401421 437.655394 538.206108 
L 437.655394 540.218608 
Q 437.655394 541.023296 437.338207 541.595171 
Q 437.021019 542.167046 436.413207 542.465483 
Q 435.805394 542.762358 434.950707 542.762358 
L 433.378832 542.762358 
L 433.378832 541.815483 
z
M 432.705394 535.662358 
L 433.700707 535.662358 
L 433.700707 542.762358 
L 432.705394 542.762358 
L 432.705394 535.662358 
z
M 441.200707 542.835796 
Q 440.556957 542.835796 440.067894 542.592046 
Q 439.580394 542.346733 439.313207 541.899858 
Q 439.047582 541.452983 439.047582 540.862358 
L 439.047582 540.745171 
Q 439.047582 540.213921 439.313207 539.745171 
Q 439.580394 539.276421 440.024144 539.037358 
Q 439.647582 538.831108 439.421019 538.443608 
Q 439.194457 538.054546 439.194457 537.624858 
L 439.194457 537.454546 
Q 439.194457 536.898296 439.442894 536.476421 
Q 439.691332 536.052983 440.146019 535.821733 
Q 440.600707 535.588921 441.200707 535.588921 
Q 441.800707 535.588921 442.255394 535.821733 
Q 442.710082 536.052983 442.958519 536.476421 
Q 443.206957 536.898296 443.206957 537.454546 
L 443.206957 537.624858 
Q 443.206957 538.065483 442.975707 538.451421 
Q 442.744457 538.835796 442.363207 539.037358 
Q 442.811644 539.281108 443.081957 539.748296 
Q 443.353832 540.213921 443.353832 540.745171 
L 443.353832 540.862358 
Q 443.353832 541.452983 443.088207 541.899858 
Q 442.822582 542.346733 442.333519 542.592046 
Q 441.846019 542.835796 441.200707 542.835796 
z
M 441.200707 541.877983 
Q 441.547582 541.877983 441.810082 541.742046 
Q 442.074144 541.604546 442.217894 541.359233 
Q 442.363207 541.112358 442.363207 540.788921 
L 442.363207 540.721733 
Q 442.363207 540.393608 442.217894 540.148296 
Q 442.074144 539.901421 441.810082 539.765483 
Q 441.547582 539.627983 441.200707 539.627983 
Q 440.853832 539.627983 440.589769 539.765483 
Q 440.327269 539.901421 440.181957 540.149858 
Q 440.038207 540.398296 440.038207 540.726421 
L 440.038207 540.799858 
Q 440.038207 541.121733 440.181957 541.365483 
Q 440.327269 541.609233 440.589769 541.743608 
Q 440.853832 541.877983 441.200707 541.877983 
z
M 441.200707 538.670171 
Q 441.499144 538.670171 441.727269 538.542046 
Q 441.956957 538.412358 442.083519 538.173296 
Q 442.211644 537.932671 442.211644 537.620171 
L 442.211644 537.552983 
Q 442.211644 537.254546 442.083519 537.024858 
Q 441.956957 536.795171 441.727269 536.671733 
Q 441.499144 536.546733 441.200707 536.546733 
Q 440.902269 536.546733 440.672582 536.671733 
Q 440.444457 536.795171 440.316332 537.024858 
Q 440.189769 537.254546 440.189769 537.557671 
L 440.189769 537.631108 
Q 440.189769 537.937358 440.316332 538.174858 
Q 440.444457 538.412358 440.672582 538.542046 
Q 440.902269 538.670171 441.200707 538.670171 
z
M 446.772582 542.835796 
Q 445.775707 542.835796 445.260082 542.304546 
Q 444.746019 541.771733 444.746019 540.818608 
L 444.746019 537.592046 
Q 444.746019 536.634233 445.263207 536.104546 
Q 445.780394 535.574858 446.772582 535.574858 
Q 447.767894 535.574858 448.283519 536.102983 
Q 448.799144 536.629546 448.799144 537.592046 
L 448.799144 540.818608 
Q 448.799144 541.776421 448.280394 542.306108 
Q 447.763207 542.835796 446.772582 542.835796 
z
M 446.772582 541.888921 
Q 447.299144 541.888921 447.550707 541.612358 
Q 447.802269 541.335796 447.802269 540.818608 
L 447.802269 537.592046 
Q 447.802269 537.073296 447.552269 536.798296 
Q 447.303832 536.521733 446.772582 536.521733 
Q 446.239769 536.521733 445.989769 536.798296 
Q 445.741332 537.073296 445.741332 537.592046 
L 445.741332 540.818608 
Q 445.741332 541.335796 445.992894 541.612358 
Q 446.244457 541.888921 446.772582 541.888921 
z
M 452.24641 542.835796 
Q 451.70891 542.835796 451.29016 542.626421 
Q 450.872972 542.415483 450.612035 542.015483 
Q 450.351097 541.615483 450.263597 541.052983 
L 450.263597 541.048296 
L 451.25891 541.048296 
L 451.25891 541.052983 
Q 451.313597 541.443608 451.57141 541.660796 
Q 451.830785 541.877983 452.24641 541.877983 
Q 452.724535 541.877983 452.985472 541.559233 
Q 453.24641 541.238921 453.24641 540.657671 
L 453.24641 540.062358 
Q 453.24641 539.485796 452.985472 539.167046 
Q 452.724535 538.846733 452.24641 538.846733 
Q 451.987035 538.846733 451.747972 538.993608 
Q 451.50891 539.138921 451.32766 539.402983 
L 450.419847 539.402983 
L 450.419847 535.662358 
L 454.037035 535.662358 
L 454.037035 536.609233 
L 451.41516 536.609233 
L 451.41516 538.206108 
Q 451.601097 538.054546 451.830785 537.971733 
Q 452.060472 537.888921 452.299535 537.888921 
Q 452.91516 537.888921 453.351097 538.143608 
Q 453.788597 538.396733 454.01516 538.885796 
Q 454.243285 539.373296 454.243285 540.062358 
L 454.243285 540.657671 
Q 454.243285 541.346733 454.00891 541.835796 
Q 453.774535 542.323296 453.324535 542.579546 
Q 452.876097 542.835796 452.24641 542.835796 
z
" style="fill: #ffffff"/>
   </g>
  </g>
 </g>
 <defs>
  <clipPath id="pd2e94063de">
   <rect x="144" y="77.76" width="892.8" height="498.96"/>
  </clipPath>
 </defs>
</svg>
