<?xml version="1.0" encoding="utf-8" standalone="no"?>
<!DOCTYPE svg PUBLIC "-//W3C//DTD SVG 1.1//EN"
  "http://www.w3.org/Graphics/SVG/1.1/DTD/svg11.dtd">
<svg xmlns:xlink="http://www.w3.org/1999/xlink" width="1152pt" height="648pt" viewBox="0 0 1152 648" xmlns="http://www.w3.org/2000/svg" version="1.1">
 <metadata>
  <rdf:RDF xmlns:dc="http://purl.org/dc/elements/1.1/" xmlns:cc="http://creativecommons.org/ns#" xmlns:rdf="http://www.w3.org/1999/02/22-rdf-syntax-ns#">
   <cc:Work>
    <dc:type rdf:resource="http://purl.org/dc/dcmitype/StillImage"/>
    <dc:date>2024-03-14T14:55:08.865091</dc:date>
    <dc:format>image/svg+xml</dc:format>
    <dc:creator>
     <cc:Agent>
      <dc:title>Matplotlib v3.8.3, https://matplotlib.org/</dc:title>
     </cc:Agent>
    </dc:creator>
   </cc:Work>
  </rdf:RDF>
 </metadata>
 <defs>
  <style type="text/css">*{stroke-linejoin: round; stroke-linecap: butt}</style>
 </defs>
 <g id="figure_1">
  <g id="patch_1">
   <path d="M 0 648 
L 1152 648 
L 1152 0 
L 0 0 
L 0 648 
z
" style="fill: none"/>
  </g>
  <g id="axes_1">
   <g id="line2d_1">
    <path d="M 173.264 528.991374 
L 174.150788 527.966968 
L 175.037576 526.956042 
L 175.924364 525.958421 
L 176.811152 524.973929 
L 177.697939 524.002395 
L 178.584727 523.043647 
L 179.471515 522.097518 
L 180.358303 521.163843 
L 181.245091 520.242457 
L 182.131879 519.333199 
L 183.018667 518.435909 
L 183.905455 517.550432 
L 184.792242 516.67661 
L 185.67903 515.814292 
L 186.565818 514.963326 
L 187.452606 514.123563 
L 188.339394 513.294855 
L 189.226182 512.477057 
L 190.11297 511.670027 
L 190.999758 510.873622 
L 191.886545 510.087702 
L 192.773333 509.312131 
L 193.660121 508.546771 
L 194.546909 507.791489 
L 195.433697 507.046152 
L 196.320485 506.310629 
L 197.207273 505.584792 
L 198.094061 504.868513 
L 198.980848 504.161666 
L 199.867636 503.464127 
L 200.754424 502.775775 
L 201.641212 502.096487 
L 202.528 501.426146 
L 203.414788 500.764632 
L 204.301576 500.111831 
L 205.188364 499.467627 
L 206.075152 498.831908 
L 206.961939 498.204562 
L 207.848727 497.585478 
L 208.735515 496.974549 
L 209.622303 496.371666 
L 210.509091 495.776724 
L 211.395879 495.189619 
L 212.282667 494.610247 
L 213.169455 494.038506 
L 214.056242 493.474297 
L 214.94303 492.91752 
L 215.829818 492.368078 
L 216.716606 491.825873 
L 217.603394 491.290811 
L 218.490182 490.762798 
L 219.37697 490.24174 
L 220.263758 489.727547 
L 221.150545 489.220127 
L 222.037333 488.719393 
L 222.924121 488.225256 
L 223.810909 487.737628 
L 224.697697 487.256425 
L 225.584485 486.781562 
L 226.471273 486.312955 
L 227.358061 485.850522 
L 228.244848 485.394182 
L 229.131636 484.943855 
L 230.018424 484.49946 
L 230.905212 484.060922 
L 231.792 483.628161 
L 232.678788 483.201103 
L 233.565576 482.779672 
L 234.452364 482.363793 
L 235.339152 481.953395 
L 236.225939 481.548405 
L 237.112727 481.148751 
L 237.999515 480.754363 
L 238.886303 480.365172 
L 239.773091 479.98111 
L 240.659879 479.602109 
L 241.546667 479.228102 
L 242.433455 478.859024 
L 243.320242 478.49481 
L 244.20703 478.135395 
L 245.093818 477.780717 
L 245.980606 477.430713 
L 246.867394 477.085321 
L 247.754182 476.744481 
L 248.64097 476.408133 
L 249.527758 476.076218 
L 250.414545 475.748677 
L 251.301333 475.425453 
L 252.188121 475.106489 
L 253.074909 474.791728 
L 253.961697 474.481116 
L 254.848485 474.174597 
L 255.735273 473.872119 
L 256.622061 473.573627 
L 257.508848 473.279069 
L 258.395636 472.988393 
L 259.282424 472.701549 
L 260.169212 472.418485 
L 261.056 472.139152 
" clip-path="url(#p9cfeacf898)" style="fill: none; stroke: #d2f230; stroke-width: 3; stroke-linecap: round"/>
   </g>
   <g id="text_1">
    <path d="M 268.501605 472.838845 
L 270.107855 472.838845 
Q 270.893792 472.838845 271.325042 472.431033 
Q 271.757855 472.02322 271.757855 471.281033 
L 271.757855 469.190408 
Q 271.757855 468.44822 271.325042 468.040408 
Q 270.893792 467.632595 270.107855 467.632595 
L 268.501605 467.632595 
L 268.501605 466.68572 
L 270.078167 466.68572 
Q 270.932855 466.68572 271.537542 466.984158 
Q 272.143792 467.281033 272.46098 467.852908 
Q 272.778167 468.424783 272.778167 469.22947 
L 272.778167 471.24197 
Q 272.778167 472.046658 272.46098 472.618533 
Q 272.143792 473.190408 271.53598 473.488845 
Q 270.928167 473.78572 270.07348 473.78572 
L 268.501605 473.78572 
L 268.501605 472.838845 
z
M 267.828167 466.68572 
L 268.82348 466.68572 
L 268.82348 473.78572 
L 267.828167 473.78572 
L 267.828167 466.68572 
z
M 277.91098 467.574783 
L 276.075042 473.78572 
L 275.015667 473.78572 
L 276.851605 467.632595 
L 275.043792 467.632595 
L 275.043792 468.65447 
L 274.04848 468.65447 
L 274.04848 466.68572 
L 277.91098 466.68572 
L 277.91098 467.574783 
z
M 281.304535 473.859158 
Q 280.30766 473.859158 279.792035 473.327908 
Q 279.277972 472.795095 279.277972 471.84197 
L 279.277972 468.615408 
Q 279.277972 467.657595 279.79516 467.127908 
Q 280.312347 466.59822 281.304535 466.59822 
Q 282.299847 466.59822 282.815472 467.126345 
Q 283.331097 467.652908 283.331097 468.615408 
L 283.331097 471.84197 
Q 283.331097 472.799783 282.812347 473.32947 
Q 282.29516 473.859158 281.304535 473.859158 
z
M 281.304535 472.912283 
Q 281.831097 472.912283 282.08266 472.63572 
Q 282.334222 472.359158 282.334222 471.84197 
L 282.334222 468.615408 
Q 282.334222 468.096658 282.084222 467.821658 
Q 281.835785 467.545095 281.304535 467.545095 
Q 280.771722 467.545095 280.521722 467.821658 
Q 280.273285 468.096658 280.273285 468.615408 
L 280.273285 471.84197 
Q 280.273285 472.359158 280.524847 472.63572 
Q 280.77641 472.912283 281.304535 472.912283 
z
M 286.822113 473.859158 
Q 285.825238 473.859158 285.309613 473.327908 
Q 284.79555 472.795095 284.79555 471.84197 
L 284.79555 468.615408 
Q 284.79555 467.657595 285.312738 467.127908 
Q 285.829925 466.59822 286.822113 466.59822 
Q 287.817425 466.59822 288.33305 467.126345 
Q 288.848675 467.652908 288.848675 468.615408 
L 288.848675 471.84197 
Q 288.848675 472.799783 288.329925 473.32947 
Q 287.812738 473.859158 286.822113 473.859158 
z
M 286.822113 472.912283 
Q 287.348675 472.912283 287.600238 472.63572 
Q 287.8518 472.359158 287.8518 471.84197 
L 287.8518 468.615408 
Q 287.8518 468.096658 287.6018 467.821658 
Q 287.353363 467.545095 286.822113 467.545095 
Q 286.2893 467.545095 286.0393 467.821658 
Q 285.790863 468.096658 285.790863 468.615408 
L 285.790863 471.84197 
Q 285.790863 472.359158 286.042425 472.63572 
Q 286.293988 472.912283 286.822113 472.912283 
z
" style="fill: #ffffff; stroke: #000000"/>
    <path d="M 268.501605 472.838845 
L 270.107855 472.838845 
Q 270.893792 472.838845 271.325042 472.431033 
Q 271.757855 472.02322 271.757855 471.281033 
L 271.757855 469.190408 
Q 271.757855 468.44822 271.325042 468.040408 
Q 270.893792 467.632595 270.107855 467.632595 
L 268.501605 467.632595 
L 268.501605 466.68572 
L 270.078167 466.68572 
Q 270.932855 466.68572 271.537542 466.984158 
Q 272.143792 467.281033 272.46098 467.852908 
Q 272.778167 468.424783 272.778167 469.22947 
L 272.778167 471.24197 
Q 272.778167 472.046658 272.46098 472.618533 
Q 272.143792 473.190408 271.53598 473.488845 
Q 270.928167 473.78572 270.07348 473.78572 
L 268.501605 473.78572 
L 268.501605 472.838845 
z
M 267.828167 466.68572 
L 268.82348 466.68572 
L 268.82348 473.78572 
L 267.828167 473.78572 
L 267.828167 466.68572 
z
M 277.91098 467.574783 
L 276.075042 473.78572 
L 275.015667 473.78572 
L 276.851605 467.632595 
L 275.043792 467.632595 
L 275.043792 468.65447 
L 274.04848 468.65447 
L 274.04848 466.68572 
L 277.91098 466.68572 
L 277.91098 467.574783 
z
M 281.304535 473.859158 
Q 280.30766 473.859158 279.792035 473.327908 
Q 279.277972 472.795095 279.277972 471.84197 
L 279.277972 468.615408 
Q 279.277972 467.657595 279.79516 467.127908 
Q 280.312347 466.59822 281.304535 466.59822 
Q 282.299847 466.59822 282.815472 467.126345 
Q 283.331097 467.652908 283.331097 468.615408 
L 283.331097 471.84197 
Q 283.331097 472.799783 282.812347 473.32947 
Q 282.29516 473.859158 281.304535 473.859158 
z
M 281.304535 472.912283 
Q 281.831097 472.912283 282.08266 472.63572 
Q 282.334222 472.359158 282.334222 471.84197 
L 282.334222 468.615408 
Q 282.334222 468.096658 282.084222 467.821658 
Q 281.835785 467.545095 281.304535 467.545095 
Q 280.771722 467.545095 280.521722 467.821658 
Q 280.273285 468.096658 280.273285 468.615408 
L 280.273285 471.84197 
Q 280.273285 472.359158 280.524847 472.63572 
Q 280.77641 472.912283 281.304535 472.912283 
z
M 286.822113 473.859158 
Q 285.825238 473.859158 285.309613 473.327908 
Q 284.79555 472.795095 284.79555 471.84197 
L 284.79555 468.615408 
Q 284.79555 467.657595 285.312738 467.127908 
Q 285.829925 466.59822 286.822113 466.59822 
Q 287.817425 466.59822 288.33305 467.126345 
Q 288.848675 467.652908 288.848675 468.615408 
L 288.848675 471.84197 
Q 288.848675 472.799783 288.329925 473.32947 
Q 287.812738 473.859158 286.822113 473.859158 
z
M 286.822113 472.912283 
Q 287.348675 472.912283 287.600238 472.63572 
Q 287.8518 472.359158 287.8518 471.84197 
L 287.8518 468.615408 
Q 287.8518 468.096658 287.6018 467.821658 
Q 287.353363 467.545095 286.822113 467.545095 
Q 286.2893 467.545095 286.0393 467.821658 
Q 285.790863 468.096658 285.790863 468.615408 
L 285.790863 471.84197 
Q 285.790863 472.359158 286.042425 472.63572 
Q 286.293988 472.912283 286.822113 472.912283 
z
" style="fill: #ffffff"/>
   </g>
  </g>
 </g>
 <defs>
  <clipPath id="p9cfeacf898">
   <rect x="144" y="77.76" width="892.8" height="498.96"/>
  </clipPath>
 </defs>
</svg>
