<?xml version="1.0" encoding="utf-8" standalone="no"?>
<!DOCTYPE svg PUBLIC "-//W3C//DTD SVG 1.1//EN"
  "http://www.w3.org/Graphics/SVG/1.1/DTD/svg11.dtd">
<svg xmlns:xlink="http://www.w3.org/1999/xlink" width="1152pt" height="648pt" viewBox="0 0 1152 648" xmlns="http://www.w3.org/2000/svg" version="1.1">
 <metadata>
  <rdf:RDF xmlns:dc="http://purl.org/dc/elements/1.1/" xmlns:cc="http://creativecommons.org/ns#" xmlns:rdf="http://www.w3.org/1999/02/22-rdf-syntax-ns#">
   <cc:Work>
    <dc:type rdf:resource="http://purl.org/dc/dcmitype/StillImage"/>
    <dc:date>2024-04-29T10:35:42.212061</dc:date>
    <dc:format>image/svg+xml</dc:format>
    <dc:creator>
     <cc:Agent>
      <dc:title>Matplotlib v3.8.4, https://matplotlib.org/</dc:title>
     </cc:Agent>
    </dc:creator>
   </cc:Work>
  </rdf:RDF>
 </metadata>
 <defs>
  <style type="text/css">*{stroke-linejoin: round; stroke-linecap: butt}</style>
 </defs>
 <g id="figure_1">
  <g id="patch_1">
   <path d="M 0 648 
L 1152 648 
L 1152 0 
L 0 0 
L 0 648 
z
" style="fill: none"/>
  </g>
  <g id="axes_1">
   <g id="line2d_1">
    <path d="M 237.744 556.45699 
L 242.18796 555.605045 
L 246.631919 554.753551 
L 251.075879 553.902961 
L 255.519838 553.053723 
L 259.963798 552.206284 
L 264.407758 551.361088 
L 268.851717 550.518571 
L 273.295677 549.679166 
L 277.739636 548.843299 
L 282.183596 548.011388 
L 286.627556 547.183845 
L 291.071515 546.361069 
L 295.515475 545.543454 
L 299.959434 544.73138 
L 304.403394 543.925219 
L 308.847354 543.125329 
L 313.291313 542.332056 
L 317.735273 541.545736 
L 322.179232 540.766688 
L 326.623192 539.995221 
L 331.067152 539.231627 
L 335.511111 538.476185 
L 339.955071 537.729162 
L 344.39903 536.990806 
L 348.84299 536.261352 
L 353.286949 535.541022 
L 357.730909 534.830019 
L 362.174869 534.128535 
L 366.618828 533.436744 
L 371.062788 532.754806 
L 375.506747 532.082866 
L 379.950707 531.421056 
L 384.394667 530.769491 
L 388.838626 530.128274 
L 393.282586 529.497491 
L 397.726545 528.877217 
L 402.170505 528.267513 
L 406.614465 527.668425 
L 411.058424 527.07999 
L 415.502384 526.50223 
L 419.946343 525.935155 
L 424.390303 525.378763 
L 428.834263 524.833044 
L 433.278222 524.297975 
L 437.722182 523.773522 
L 442.166141 523.259643 
L 446.610101 522.756286 
L 451.054061 522.26339 
L 455.49802 521.780886 
L 459.94198 521.308697 
L 464.385939 520.846738 
L 468.829899 520.394918 
L 473.273859 519.953139 
L 477.717818 519.521296 
L 482.161778 519.09928 
L 486.605737 518.686975 
L 491.049697 518.284262 
L 495.493657 517.891016 
L 499.937616 517.507108 
L 504.381576 517.132407 
L 508.825535 516.766777 
L 513.269495 516.41008 
L 517.713455 516.062175 
L 522.157414 515.722919 
L 526.601374 515.392166 
L 531.045333 515.069771 
L 535.489293 514.755584 
L 539.933253 514.449458 
L 544.377212 514.151241 
L 548.821172 513.860784 
L 553.265131 513.577936 
L 557.709091 513.302547 
L 562.153051 513.034465 
L 566.59701 512.77354 
L 571.04097 512.519623 
L 575.484929 512.272564 
L 579.928889 512.032215 
L 584.372848 511.798429 
L 588.816808 511.571061 
L 593.260768 511.349964 
L 597.704727 511.134995 
L 602.148687 510.926014 
L 606.592646 510.722879 
L 611.036606 510.525452 
L 615.480566 510.333597 
L 619.924525 510.147177 
L 624.368485 509.966061 
L 628.812444 509.790117 
L 633.256404 509.619216 
L 637.700364 509.453232 
L 642.144323 509.292039 
L 646.588283 509.135516 
L 651.032242 508.983541 
L 655.476202 508.835997 
L 659.920162 508.692767 
L 664.364121 508.553737 
L 668.808081 508.418797 
L 673.25204 508.287837 
L 677.696 508.16075 
" clip-path="url(#p703c6d8482)" style="fill: none; stroke: #a279f2; stroke-width: 3; stroke-linecap: round"/>
   </g>
   <g id="text_1">
    <path d="M 678.66498 510.110419 
Q 678.15248 510.110419 677.693105 510.013544 
Q 677.235293 509.915107 676.836855 509.719794 
Q 676.438418 509.524482 676.091542 509.230732 
L 676.091542 509.230732 
L 676.711855 508.469794 
L 676.711855 508.469794 
Q 677.118105 508.821357 677.605605 508.997919 
Q 678.094668 509.172919 678.66498 509.172919 
Q 679.436855 509.172919 679.861855 508.886982 
Q 680.286855 508.601044 680.286855 508.079169 
L 680.286855 508.074482 
Q 680.286855 507.702607 680.093105 507.485419 
Q 679.900917 507.268232 679.594668 507.163544 
Q 679.28998 507.058857 678.807167 506.969794 
Q 678.791542 506.965107 678.774355 506.965107 
Q 678.75873 506.965107 678.743105 506.960419 
L 678.669667 506.946357 
Q 677.957167 506.824482 677.510292 506.671357 
Q 677.063418 506.516669 676.74623 506.108857 
Q 676.429042 505.701044 676.429042 504.949482 
L 676.429042 504.944794 
Q 676.429042 504.285419 676.724355 503.819794 
Q 677.019667 503.352607 677.585292 503.108857 
Q 678.15248 502.863544 678.947792 502.863544 
Q 679.329043 502.863544 679.697792 502.947919 
Q 680.066542 503.030732 680.424355 503.194794 
Q 680.78373 503.357294 681.130605 503.605732 
L 681.130605 503.605732 
L 680.56498 504.397919 
L 680.56498 504.397919 
Q 680.15873 504.099482 679.755605 503.951044 
Q 679.354042 503.801044 678.947792 503.801044 
Q 678.22123 503.801044 677.818105 504.091669 
Q 677.41498 504.382294 677.41498 504.915107 
L 677.41498 504.919794 
Q 677.41498 505.285419 677.622792 505.496357 
Q 677.830605 505.705732 678.13998 505.805732 
Q 678.450917 505.905732 679.00248 506.013544 
Q 679.02123 506.018232 679.038417 506.021357 
Q 679.055605 506.022919 679.075917 506.027607 
Q 679.099355 506.032294 679.129042 506.038544 
Q 679.15873 506.043232 679.182167 506.047919 
Q 679.82748 506.179169 680.25873 506.360419 
Q 680.691542 506.540107 680.982167 506.943232 
Q 681.272792 507.346357 681.272792 508.044794 
L 681.272792 508.054169 
Q 681.272792 508.704169 680.96498 509.165107 
Q 680.657168 509.626044 680.072792 509.868232 
Q 679.48998 510.110419 678.66498 510.110419 
z
M 683.362832 509.090107 
L 684.969082 509.090107 
Q 685.755019 509.090107 686.186269 508.682294 
Q 686.619082 508.274482 686.619082 507.532294 
L 686.619082 505.441669 
Q 686.619082 504.699482 686.186269 504.291669 
Q 685.755019 503.883857 684.969082 503.883857 
L 683.362832 503.883857 
L 683.362832 502.936982 
L 684.939394 502.936982 
Q 685.794082 502.936982 686.398769 503.235419 
Q 687.005019 503.532294 687.322207 504.104169 
Q 687.639394 504.676044 687.639394 505.480732 
L 687.639394 507.493232 
Q 687.639394 508.297919 687.322207 508.869794 
Q 687.005019 509.441669 686.397207 509.740107 
Q 685.789394 510.036982 684.934707 510.036982 
L 683.362832 510.036982 
L 683.362832 509.090107 
z
M 682.689394 502.936982 
L 683.684707 502.936982 
L 683.684707 510.036982 
L 682.689394 510.036982 
L 682.689394 502.936982 
z
M 691.184707 510.110419 
Q 690.540957 510.110419 690.051894 509.866669 
Q 689.564394 509.621357 689.297207 509.174482 
Q 689.031582 508.727607 689.031582 508.136982 
L 689.031582 508.019794 
Q 689.031582 507.488544 689.297207 507.019794 
Q 689.564394 506.551044 690.008144 506.311982 
Q 689.631582 506.105732 689.405019 505.718232 
Q 689.178457 505.329169 689.178457 504.899482 
L 689.178457 504.729169 
Q 689.178457 504.172919 689.426894 503.751044 
Q 689.675332 503.327607 690.130019 503.096357 
Q 690.584707 502.863544 691.184707 502.863544 
Q 691.784707 502.863544 692.239394 503.096357 
Q 692.694082 503.327607 692.942519 503.751044 
Q 693.190957 504.172919 693.190957 504.729169 
L 693.190957 504.899482 
Q 693.190957 505.340107 692.959707 505.726044 
Q 692.728457 506.110419 692.347207 506.311982 
Q 692.795644 506.555732 693.065957 507.022919 
Q 693.337832 507.488544 693.337832 508.019794 
L 693.337832 508.136982 
Q 693.337832 508.727607 693.072207 509.174482 
Q 692.806582 509.621357 692.317519 509.866669 
Q 691.830019 510.110419 691.184707 510.110419 
z
M 691.184707 509.152607 
Q 691.531582 509.152607 691.794082 509.016669 
Q 692.058144 508.879169 692.201894 508.633857 
Q 692.347207 508.386982 692.347207 508.063544 
L 692.347207 507.996357 
Q 692.347207 507.668232 692.201894 507.422919 
Q 692.058144 507.176044 691.794082 507.040107 
Q 691.531582 506.902607 691.184707 506.902607 
Q 690.837832 506.902607 690.573769 507.040107 
Q 690.311269 507.176044 690.165957 507.424482 
Q 690.022207 507.672919 690.022207 508.001044 
L 690.022207 508.074482 
Q 690.022207 508.396357 690.165957 508.640107 
Q 690.311269 508.883857 690.573769 509.018232 
Q 690.837832 509.152607 691.184707 509.152607 
z
M 691.184707 505.944794 
Q 691.483144 505.944794 691.711269 505.816669 
Q 691.940957 505.686982 692.067519 505.447919 
Q 692.195644 505.207294 692.195644 504.894794 
L 692.195644 504.827607 
Q 692.195644 504.529169 692.067519 504.299482 
Q 691.940957 504.069794 691.711269 503.946357 
Q 691.483144 503.821357 691.184707 503.821357 
Q 690.886269 503.821357 690.656582 503.946357 
Q 690.428457 504.069794 690.300332 504.299482 
Q 690.173769 504.529169 690.173769 504.832294 
L 690.173769 504.905732 
Q 690.173769 505.211982 690.300332 505.449482 
Q 690.428457 505.686982 690.656582 505.816669 
Q 690.886269 505.944794 691.184707 505.944794 
z
M 696.444082 510.036982 
L 695.447207 510.036982 
L 695.447207 504.021357 
L 694.436269 504.641669 
L 694.436269 503.610419 
L 695.447207 502.936982 
L 696.444082 502.936982 
L 696.444082 510.036982 
z
M 700.081777 510.110419 
Q 699.084902 510.110419 698.569277 509.579169 
Q 698.055214 509.046357 698.055214 508.093232 
L 698.055214 504.866669 
Q 698.055214 503.908857 698.572402 503.379169 
Q 699.089589 502.849482 700.081777 502.849482 
Q 701.077089 502.849482 701.592714 503.377607 
Q 702.108339 503.904169 702.108339 504.866669 
L 702.108339 508.093232 
Q 702.108339 509.051044 701.589589 509.580732 
Q 701.072402 510.110419 700.081777 510.110419 
z
M 700.081777 509.163544 
Q 700.608339 509.163544 700.859902 508.886982 
Q 701.111464 508.610419 701.111464 508.093232 
L 701.111464 504.866669 
Q 701.111464 504.347919 700.861464 504.072919 
Q 700.613027 503.796357 700.081777 503.796357 
Q 699.548964 503.796357 699.298964 504.072919 
Q 699.050527 504.347919 699.050527 504.866669 
L 699.050527 508.093232 
Q 699.050527 508.610419 699.302089 508.886982 
Q 699.553652 509.163544 700.081777 509.163544 
z
" style="fill: #ffffff; stroke: #000000"/>
    <path d="M 678.66498 510.110419 
Q 678.15248 510.110419 677.693105 510.013544 
Q 677.235293 509.915107 676.836855 509.719794 
Q 676.438418 509.524482 676.091542 509.230732 
L 676.091542 509.230732 
L 676.711855 508.469794 
L 676.711855 508.469794 
Q 677.118105 508.821357 677.605605 508.997919 
Q 678.094668 509.172919 678.66498 509.172919 
Q 679.436855 509.172919 679.861855 508.886982 
Q 680.286855 508.601044 680.286855 508.079169 
L 680.286855 508.074482 
Q 680.286855 507.702607 680.093105 507.485419 
Q 679.900917 507.268232 679.594668 507.163544 
Q 679.28998 507.058857 678.807167 506.969794 
Q 678.791542 506.965107 678.774355 506.965107 
Q 678.75873 506.965107 678.743105 506.960419 
L 678.669667 506.946357 
Q 677.957167 506.824482 677.510292 506.671357 
Q 677.063418 506.516669 676.74623 506.108857 
Q 676.429042 505.701044 676.429042 504.949482 
L 676.429042 504.944794 
Q 676.429042 504.285419 676.724355 503.819794 
Q 677.019667 503.352607 677.585292 503.108857 
Q 678.15248 502.863544 678.947792 502.863544 
Q 679.329043 502.863544 679.697792 502.947919 
Q 680.066542 503.030732 680.424355 503.194794 
Q 680.78373 503.357294 681.130605 503.605732 
L 681.130605 503.605732 
L 680.56498 504.397919 
L 680.56498 504.397919 
Q 680.15873 504.099482 679.755605 503.951044 
Q 679.354042 503.801044 678.947792 503.801044 
Q 678.22123 503.801044 677.818105 504.091669 
Q 677.41498 504.382294 677.41498 504.915107 
L 677.41498 504.919794 
Q 677.41498 505.285419 677.622792 505.496357 
Q 677.830605 505.705732 678.13998 505.805732 
Q 678.450917 505.905732 679.00248 506.013544 
Q 679.02123 506.018232 679.038417 506.021357 
Q 679.055605 506.022919 679.075917 506.027607 
Q 679.099355 506.032294 679.129042 506.038544 
Q 679.15873 506.043232 679.182167 506.047919 
Q 679.82748 506.179169 680.25873 506.360419 
Q 680.691542 506.540107 680.982167 506.943232 
Q 681.272792 507.346357 681.272792 508.044794 
L 681.272792 508.054169 
Q 681.272792 508.704169 680.96498 509.165107 
Q 680.657168 509.626044 680.072792 509.868232 
Q 679.48998 510.110419 678.66498 510.110419 
z
M 683.362832 509.090107 
L 684.969082 509.090107 
Q 685.755019 509.090107 686.186269 508.682294 
Q 686.619082 508.274482 686.619082 507.532294 
L 686.619082 505.441669 
Q 686.619082 504.699482 686.186269 504.291669 
Q 685.755019 503.883857 684.969082 503.883857 
L 683.362832 503.883857 
L 683.362832 502.936982 
L 684.939394 502.936982 
Q 685.794082 502.936982 686.398769 503.235419 
Q 687.005019 503.532294 687.322207 504.104169 
Q 687.639394 504.676044 687.639394 505.480732 
L 687.639394 507.493232 
Q 687.639394 508.297919 687.322207 508.869794 
Q 687.005019 509.441669 686.397207 509.740107 
Q 685.789394 510.036982 684.934707 510.036982 
L 683.362832 510.036982 
L 683.362832 509.090107 
z
M 682.689394 502.936982 
L 683.684707 502.936982 
L 683.684707 510.036982 
L 682.689394 510.036982 
L 682.689394 502.936982 
z
M 691.184707 510.110419 
Q 690.540957 510.110419 690.051894 509.866669 
Q 689.564394 509.621357 689.297207 509.174482 
Q 689.031582 508.727607 689.031582 508.136982 
L 689.031582 508.019794 
Q 689.031582 507.488544 689.297207 507.019794 
Q 689.564394 506.551044 690.008144 506.311982 
Q 689.631582 506.105732 689.405019 505.718232 
Q 689.178457 505.329169 689.178457 504.899482 
L 689.178457 504.729169 
Q 689.178457 504.172919 689.426894 503.751044 
Q 689.675332 503.327607 690.130019 503.096357 
Q 690.584707 502.863544 691.184707 502.863544 
Q 691.784707 502.863544 692.239394 503.096357 
Q 692.694082 503.327607 692.942519 503.751044 
Q 693.190957 504.172919 693.190957 504.729169 
L 693.190957 504.899482 
Q 693.190957 505.340107 692.959707 505.726044 
Q 692.728457 506.110419 692.347207 506.311982 
Q 692.795644 506.555732 693.065957 507.022919 
Q 693.337832 507.488544 693.337832 508.019794 
L 693.337832 508.136982 
Q 693.337832 508.727607 693.072207 509.174482 
Q 692.806582 509.621357 692.317519 509.866669 
Q 691.830019 510.110419 691.184707 510.110419 
z
M 691.184707 509.152607 
Q 691.531582 509.152607 691.794082 509.016669 
Q 692.058144 508.879169 692.201894 508.633857 
Q 692.347207 508.386982 692.347207 508.063544 
L 692.347207 507.996357 
Q 692.347207 507.668232 692.201894 507.422919 
Q 692.058144 507.176044 691.794082 507.040107 
Q 691.531582 506.902607 691.184707 506.902607 
Q 690.837832 506.902607 690.573769 507.040107 
Q 690.311269 507.176044 690.165957 507.424482 
Q 690.022207 507.672919 690.022207 508.001044 
L 690.022207 508.074482 
Q 690.022207 508.396357 690.165957 508.640107 
Q 690.311269 508.883857 690.573769 509.018232 
Q 690.837832 509.152607 691.184707 509.152607 
z
M 691.184707 505.944794 
Q 691.483144 505.944794 691.711269 505.816669 
Q 691.940957 505.686982 692.067519 505.447919 
Q 692.195644 505.207294 692.195644 504.894794 
L 692.195644 504.827607 
Q 692.195644 504.529169 692.067519 504.299482 
Q 691.940957 504.069794 691.711269 503.946357 
Q 691.483144 503.821357 691.184707 503.821357 
Q 690.886269 503.821357 690.656582 503.946357 
Q 690.428457 504.069794 690.300332 504.299482 
Q 690.173769 504.529169 690.173769 504.832294 
L 690.173769 504.905732 
Q 690.173769 505.211982 690.300332 505.449482 
Q 690.428457 505.686982 690.656582 505.816669 
Q 690.886269 505.944794 691.184707 505.944794 
z
M 696.444082 510.036982 
L 695.447207 510.036982 
L 695.447207 504.021357 
L 694.436269 504.641669 
L 694.436269 503.610419 
L 695.447207 502.936982 
L 696.444082 502.936982 
L 696.444082 510.036982 
z
M 700.081777 510.110419 
Q 699.084902 510.110419 698.569277 509.579169 
Q 698.055214 509.046357 698.055214 508.093232 
L 698.055214 504.866669 
Q 698.055214 503.908857 698.572402 503.379169 
Q 699.089589 502.849482 700.081777 502.849482 
Q 701.077089 502.849482 701.592714 503.377607 
Q 702.108339 503.904169 702.108339 504.866669 
L 702.108339 508.093232 
Q 702.108339 509.051044 701.589589 509.580732 
Q 701.072402 510.110419 700.081777 510.110419 
z
M 700.081777 509.163544 
Q 700.608339 509.163544 700.859902 508.886982 
Q 701.111464 508.610419 701.111464 508.093232 
L 701.111464 504.866669 
Q 701.111464 504.347919 700.861464 504.072919 
Q 700.613027 503.796357 700.081777 503.796357 
Q 699.548964 503.796357 699.298964 504.072919 
Q 699.050527 504.347919 699.050527 504.866669 
L 699.050527 508.093232 
Q 699.050527 508.610419 699.302089 508.886982 
Q 699.553652 509.163544 700.081777 509.163544 
z
" style="fill: #ffffff"/>
   </g>
  </g>
 </g>
 <defs>
  <clipPath id="p703c6d8482">
   <rect x="144" y="77.76" width="892.8" height="498.96"/>
  </clipPath>
 </defs>
</svg>
