<?xml version="1.0" encoding="utf-8" standalone="no"?>
<!DOCTYPE svg PUBLIC "-//W3C//DTD SVG 1.1//EN"
  "http://www.w3.org/Graphics/SVG/1.1/DTD/svg11.dtd">
<svg xmlns:xlink="http://www.w3.org/1999/xlink" width="1152pt" height="648pt" viewBox="0 0 1152 648" xmlns="http://www.w3.org/2000/svg" version="1.1">
 <metadata>
  <rdf:RDF xmlns:dc="http://purl.org/dc/elements/1.1/" xmlns:cc="http://creativecommons.org/ns#" xmlns:rdf="http://www.w3.org/1999/02/22-rdf-syntax-ns#">
   <cc:Work>
    <dc:type rdf:resource="http://purl.org/dc/dcmitype/StillImage"/>
    <dc:date>2024-03-14T14:55:07.855440</dc:date>
    <dc:format>image/svg+xml</dc:format>
    <dc:creator>
     <cc:Agent>
      <dc:title>Matplotlib v3.8.3, https://matplotlib.org/</dc:title>
     </cc:Agent>
    </dc:creator>
   </cc:Work>
  </rdf:RDF>
 </metadata>
 <defs>
  <style type="text/css">*{stroke-linejoin: round; stroke-linecap: butt}</style>
 </defs>
 <g id="figure_1">
  <g id="patch_1">
   <path d="M 0 648 
L 1152 648 
L 1152 0 
L 0 0 
L 0 648 
z
" style="fill: none"/>
  </g>
  <g id="axes_1">
   <g id="line2d_1">
    <path d="M 261.056 489.609822 
L 263.210343 488.74014 
L 265.364687 487.870663 
L 267.51903 487.001598 
L 269.673374 486.133148 
L 271.827717 485.265518 
L 273.982061 484.398912 
L 276.136404 483.533533 
L 278.290747 482.669582 
L 280.445091 481.807258 
L 282.599434 480.946761 
L 284.753778 480.088288 
L 286.908121 479.232034 
L 289.062465 478.378191 
L 291.216808 477.52695 
L 293.371152 476.6785 
L 295.525495 475.833027 
L 297.679838 474.990713 
L 299.834182 474.15174 
L 301.988525 473.316283 
L 304.142869 472.484518 
L 306.297212 471.656616 
L 308.451556 470.832743 
L 310.605899 470.013063 
L 312.760242 469.197738 
L 314.914586 468.386923 
L 317.068929 467.580772 
L 319.223273 466.779432 
L 321.377616 465.983049 
L 323.53196 465.191764 
L 325.686303 464.405712 
L 327.840646 463.625026 
L 329.99499 462.849834 
L 332.149333 462.08026 
L 334.303677 461.316421 
L 336.45802 460.558434 
L 338.612364 459.806408 
L 340.766707 459.060449 
L 342.921051 458.320657 
L 345.075394 457.58713 
L 347.229737 456.859959 
L 349.384081 456.139232 
L 351.538424 455.425031 
L 353.692768 454.717435 
L 355.847111 454.016517 
L 358.001455 453.322346 
L 360.155798 452.634988 
L 362.310141 451.954503 
L 364.464485 451.280946 
L 366.618828 450.61437 
L 368.773172 449.95482 
L 370.927515 449.30234 
L 373.081859 448.65697 
L 375.236202 448.018742 
L 377.390545 447.387688 
L 379.544889 446.763834 
L 381.699232 446.147203 
L 383.853576 445.537812 
L 386.007919 444.935677 
L 388.162263 444.340809 
L 390.316606 443.753214 
L 392.470949 443.172898 
L 394.625293 442.599859 
L 396.779636 442.034095 
L 398.93398 441.475599 
L 401.088323 440.924362 
L 403.242667 440.380371 
L 405.39701 439.843609 
L 407.551354 439.314059 
L 409.705697 438.791698 
L 411.86004 438.276502 
L 414.014384 437.768444 
L 416.168727 437.267494 
L 418.323071 436.773619 
L 420.477414 436.286786 
L 422.631758 435.806958 
L 424.786101 435.334094 
L 426.940444 434.868155 
L 429.094788 434.409097 
L 431.249131 433.956874 
L 433.403475 433.51144 
L 435.557818 433.072745 
L 437.712162 432.64074 
L 439.866505 432.215372 
L 442.020848 431.796588 
L 444.175192 431.384333 
L 446.329535 430.97855 
L 448.483879 430.579182 
L 450.638222 430.18617 
L 452.792566 429.799455 
L 454.946909 429.418974 
L 457.101253 429.044668 
L 459.255596 428.676472 
L 461.409939 428.314323 
L 463.564283 427.958158 
L 465.718626 427.607911 
L 467.87297 427.263516 
L 470.027313 426.924908 
L 472.181657 426.592019 
L 474.336 426.264784 
" clip-path="url(#p396ac263a4)" style="fill: none; stroke: #79b6f2; stroke-width: 3; stroke-linecap: round"/>
   </g>
   <g id="text_1">
    <path d="M 483.24098 427.984789 
Q 482.72848 427.984789 482.269105 427.887914 
Q 481.811292 427.789477 481.412855 427.594164 
Q 481.014417 427.398852 480.667542 427.105102 
L 480.667542 427.105102 
L 481.287855 426.344164 
L 481.287855 426.344164 
Q 481.694105 426.695727 482.181605 426.872289 
Q 482.670667 427.047289 483.24098 427.047289 
Q 484.012855 427.047289 484.437855 426.761352 
Q 484.862855 426.475414 484.862855 425.953539 
L 484.862855 425.948852 
Q 484.862855 425.576977 484.669105 425.359789 
Q 484.476918 425.142602 484.170667 425.037914 
Q 483.86598 424.933227 483.383168 424.844164 
Q 483.367543 424.839477 483.350355 424.839477 
Q 483.33473 424.839477 483.319105 424.834789 
L 483.245667 424.820727 
Q 482.533167 424.698852 482.086293 424.545727 
Q 481.639417 424.391039 481.32223 423.983227 
Q 481.005043 423.575414 481.005043 422.823852 
L 481.005043 422.819164 
Q 481.005043 422.159789 481.300355 421.694164 
Q 481.595667 421.226977 482.161293 420.983227 
Q 482.72848 420.737914 483.523793 420.737914 
Q 483.905042 420.737914 484.273793 420.822289 
Q 484.642542 420.905102 485.000355 421.069164 
Q 485.35973 421.231664 485.706605 421.480102 
L 485.706605 421.480102 
L 485.14098 422.272289 
L 485.14098 422.272289 
Q 484.73473 421.973852 484.331605 421.825414 
Q 483.930043 421.675414 483.523793 421.675414 
Q 482.79723 421.675414 482.394105 421.966039 
Q 481.99098 422.256664 481.99098 422.789477 
L 481.99098 422.794164 
Q 481.99098 423.159789 482.198792 423.370727 
Q 482.406605 423.580102 482.71598 423.680102 
Q 483.026917 423.780102 483.57848 423.887914 
Q 483.59723 423.892602 483.614418 423.895727 
Q 483.631605 423.897289 483.651917 423.901977 
Q 483.675355 423.906664 483.705042 423.912914 
Q 483.73473 423.917602 483.758168 423.922289 
Q 484.40348 424.053539 484.83473 424.234789 
Q 485.267542 424.414477 485.558167 424.817602 
Q 485.848793 425.220727 485.848793 425.919164 
L 485.848793 425.928539 
Q 485.848793 426.578539 485.54098 427.039477 
Q 485.233167 427.500414 484.648793 427.742602 
Q 484.06598 427.984789 483.24098 427.984789 
z
M 487.938832 426.964477 
L 489.545082 426.964477 
Q 490.331019 426.964477 490.762269 426.556664 
Q 491.195082 426.148852 491.195082 425.406664 
L 491.195082 423.316039 
Q 491.195082 422.573852 490.762269 422.166039 
Q 490.331019 421.758227 489.545082 421.758227 
L 487.938832 421.758227 
L 487.938832 420.811352 
L 489.515394 420.811352 
Q 490.370082 420.811352 490.974769 421.109789 
Q 491.581019 421.406664 491.898207 421.978539 
Q 492.215394 422.550414 492.215394 423.355102 
L 492.215394 425.367602 
Q 492.215394 426.172289 491.898207 426.744164 
Q 491.581019 427.316039 490.973207 427.614477 
Q 490.365394 427.911352 489.510707 427.911352 
L 487.938832 427.911352 
L 487.938832 426.964477 
z
M 487.265394 420.811352 
L 488.260707 420.811352 
L 488.260707 427.911352 
L 487.265394 427.911352 
L 487.265394 420.811352 
z
M 495.760707 427.984789 
Q 495.116957 427.984789 494.627894 427.741039 
Q 494.140394 427.495727 493.873207 427.048852 
Q 493.607582 426.601977 493.607582 426.011352 
L 493.607582 425.894164 
Q 493.607582 425.362914 493.873207 424.894164 
Q 494.140394 424.425414 494.584144 424.186352 
Q 494.207582 423.980102 493.981019 423.592602 
Q 493.754457 423.203539 493.754457 422.773852 
L 493.754457 422.603539 
Q 493.754457 422.047289 494.002894 421.625414 
Q 494.251332 421.201977 494.706019 420.970727 
Q 495.160707 420.737914 495.760707 420.737914 
Q 496.360707 420.737914 496.815394 420.970727 
Q 497.270082 421.201977 497.518519 421.625414 
Q 497.766957 422.047289 497.766957 422.603539 
L 497.766957 422.773852 
Q 497.766957 423.214477 497.535707 423.600414 
Q 497.304457 423.984789 496.923207 424.186352 
Q 497.371644 424.430102 497.641957 424.897289 
Q 497.913832 425.362914 497.913832 425.894164 
L 497.913832 426.011352 
Q 497.913832 426.601977 497.648207 427.048852 
Q 497.382582 427.495727 496.893519 427.741039 
Q 496.406019 427.984789 495.760707 427.984789 
z
M 495.760707 427.026977 
Q 496.107582 427.026977 496.370082 426.891039 
Q 496.634144 426.753539 496.777894 426.508227 
Q 496.923207 426.261352 496.923207 425.937914 
L 496.923207 425.870727 
Q 496.923207 425.542602 496.777894 425.297289 
Q 496.634144 425.050414 496.370082 424.914477 
Q 496.107582 424.776977 495.760707 424.776977 
Q 495.413832 424.776977 495.149769 424.914477 
Q 494.887269 425.050414 494.741957 425.298852 
Q 494.598207 425.547289 494.598207 425.875414 
L 494.598207 425.948852 
Q 494.598207 426.270727 494.741957 426.514477 
Q 494.887269 426.758227 495.149769 426.892602 
Q 495.413832 427.026977 495.760707 427.026977 
z
M 495.760707 423.819164 
Q 496.059144 423.819164 496.287269 423.691039 
Q 496.516957 423.561352 496.643519 423.322289 
Q 496.771644 423.081664 496.771644 422.769164 
L 496.771644 422.701977 
Q 496.771644 422.403539 496.643519 422.173852 
Q 496.516957 421.944164 496.287269 421.820727 
Q 496.059144 421.695727 495.760707 421.695727 
Q 495.462269 421.695727 495.232582 421.820727 
Q 495.004457 421.944164 494.876332 422.173852 
Q 494.749769 422.403539 494.749769 422.706664 
L 494.749769 422.780102 
Q 494.749769 423.086352 494.876332 423.323852 
Q 495.004457 423.561352 495.232582 423.691039 
Q 495.462269 423.819164 495.760707 423.819164 
z
M 499.207582 425.958227 
L 501.590394 420.816039 
L 502.616957 420.816039 
L 500.291957 425.898852 
L 503.773207 425.898852 
L 503.773207 426.822289 
L 499.207582 426.822289 
L 499.207582 425.958227 
z
M 502.270082 423.736352 
L 503.241957 423.736352 
L 503.241957 427.916039 
L 502.270082 427.916039 
L 502.270082 423.736352 
z
M 506.977308 427.984789 
Q 506.439808 427.984789 506.021058 427.775414 
Q 505.603871 427.564477 505.342933 427.164477 
Q 505.081996 426.764477 504.994496 426.201977 
L 504.994496 426.197289 
L 505.989808 426.197289 
L 505.989808 426.201977 
Q 506.044496 426.592602 506.302308 426.809789 
Q 506.561683 427.026977 506.977308 427.026977 
Q 507.455433 427.026977 507.716371 426.708227 
Q 507.977308 426.387914 507.977308 425.806664 
L 507.977308 425.211352 
Q 507.977308 424.634789 507.716371 424.316039 
Q 507.455433 423.995727 506.977308 423.995727 
Q 506.717933 423.995727 506.478871 424.142602 
Q 506.239808 424.287914 506.058558 424.551977 
L 505.150746 424.551977 
L 505.150746 420.811352 
L 508.767933 420.811352 
L 508.767933 421.758227 
L 506.146058 421.758227 
L 506.146058 423.355102 
Q 506.331996 423.203539 506.561683 423.120727 
Q 506.791371 423.037914 507.030433 423.037914 
Q 507.646058 423.037914 508.081996 423.292602 
Q 508.519496 423.545727 508.746058 424.034789 
Q 508.974183 424.522289 508.974183 425.211352 
L 508.974183 425.806664 
Q 508.974183 426.495727 508.739808 426.984789 
Q 508.505433 427.472289 508.055433 427.728539 
Q 507.606996 427.984789 506.977308 427.984789 
z
" style="fill: #ffffff; stroke: #000000"/>
    <path d="M 483.24098 427.984789 
Q 482.72848 427.984789 482.269105 427.887914 
Q 481.811292 427.789477 481.412855 427.594164 
Q 481.014417 427.398852 480.667542 427.105102 
L 480.667542 427.105102 
L 481.287855 426.344164 
L 481.287855 426.344164 
Q 481.694105 426.695727 482.181605 426.872289 
Q 482.670667 427.047289 483.24098 427.047289 
Q 484.012855 427.047289 484.437855 426.761352 
Q 484.862855 426.475414 484.862855 425.953539 
L 484.862855 425.948852 
Q 484.862855 425.576977 484.669105 425.359789 
Q 484.476918 425.142602 484.170667 425.037914 
Q 483.86598 424.933227 483.383168 424.844164 
Q 483.367543 424.839477 483.350355 424.839477 
Q 483.33473 424.839477 483.319105 424.834789 
L 483.245667 424.820727 
Q 482.533167 424.698852 482.086293 424.545727 
Q 481.639417 424.391039 481.32223 423.983227 
Q 481.005043 423.575414 481.005043 422.823852 
L 481.005043 422.819164 
Q 481.005043 422.159789 481.300355 421.694164 
Q 481.595667 421.226977 482.161293 420.983227 
Q 482.72848 420.737914 483.523793 420.737914 
Q 483.905042 420.737914 484.273793 420.822289 
Q 484.642542 420.905102 485.000355 421.069164 
Q 485.35973 421.231664 485.706605 421.480102 
L 485.706605 421.480102 
L 485.14098 422.272289 
L 485.14098 422.272289 
Q 484.73473 421.973852 484.331605 421.825414 
Q 483.930043 421.675414 483.523793 421.675414 
Q 482.79723 421.675414 482.394105 421.966039 
Q 481.99098 422.256664 481.99098 422.789477 
L 481.99098 422.794164 
Q 481.99098 423.159789 482.198792 423.370727 
Q 482.406605 423.580102 482.71598 423.680102 
Q 483.026917 423.780102 483.57848 423.887914 
Q 483.59723 423.892602 483.614418 423.895727 
Q 483.631605 423.897289 483.651917 423.901977 
Q 483.675355 423.906664 483.705042 423.912914 
Q 483.73473 423.917602 483.758168 423.922289 
Q 484.40348 424.053539 484.83473 424.234789 
Q 485.267542 424.414477 485.558167 424.817602 
Q 485.848793 425.220727 485.848793 425.919164 
L 485.848793 425.928539 
Q 485.848793 426.578539 485.54098 427.039477 
Q 485.233167 427.500414 484.648793 427.742602 
Q 484.06598 427.984789 483.24098 427.984789 
z
M 487.938832 426.964477 
L 489.545082 426.964477 
Q 490.331019 426.964477 490.762269 426.556664 
Q 491.195082 426.148852 491.195082 425.406664 
L 491.195082 423.316039 
Q 491.195082 422.573852 490.762269 422.166039 
Q 490.331019 421.758227 489.545082 421.758227 
L 487.938832 421.758227 
L 487.938832 420.811352 
L 489.515394 420.811352 
Q 490.370082 420.811352 490.974769 421.109789 
Q 491.581019 421.406664 491.898207 421.978539 
Q 492.215394 422.550414 492.215394 423.355102 
L 492.215394 425.367602 
Q 492.215394 426.172289 491.898207 426.744164 
Q 491.581019 427.316039 490.973207 427.614477 
Q 490.365394 427.911352 489.510707 427.911352 
L 487.938832 427.911352 
L 487.938832 426.964477 
z
M 487.265394 420.811352 
L 488.260707 420.811352 
L 488.260707 427.911352 
L 487.265394 427.911352 
L 487.265394 420.811352 
z
M 495.760707 427.984789 
Q 495.116957 427.984789 494.627894 427.741039 
Q 494.140394 427.495727 493.873207 427.048852 
Q 493.607582 426.601977 493.607582 426.011352 
L 493.607582 425.894164 
Q 493.607582 425.362914 493.873207 424.894164 
Q 494.140394 424.425414 494.584144 424.186352 
Q 494.207582 423.980102 493.981019 423.592602 
Q 493.754457 423.203539 493.754457 422.773852 
L 493.754457 422.603539 
Q 493.754457 422.047289 494.002894 421.625414 
Q 494.251332 421.201977 494.706019 420.970727 
Q 495.160707 420.737914 495.760707 420.737914 
Q 496.360707 420.737914 496.815394 420.970727 
Q 497.270082 421.201977 497.518519 421.625414 
Q 497.766957 422.047289 497.766957 422.603539 
L 497.766957 422.773852 
Q 497.766957 423.214477 497.535707 423.600414 
Q 497.304457 423.984789 496.923207 424.186352 
Q 497.371644 424.430102 497.641957 424.897289 
Q 497.913832 425.362914 497.913832 425.894164 
L 497.913832 426.011352 
Q 497.913832 426.601977 497.648207 427.048852 
Q 497.382582 427.495727 496.893519 427.741039 
Q 496.406019 427.984789 495.760707 427.984789 
z
M 495.760707 427.026977 
Q 496.107582 427.026977 496.370082 426.891039 
Q 496.634144 426.753539 496.777894 426.508227 
Q 496.923207 426.261352 496.923207 425.937914 
L 496.923207 425.870727 
Q 496.923207 425.542602 496.777894 425.297289 
Q 496.634144 425.050414 496.370082 424.914477 
Q 496.107582 424.776977 495.760707 424.776977 
Q 495.413832 424.776977 495.149769 424.914477 
Q 494.887269 425.050414 494.741957 425.298852 
Q 494.598207 425.547289 494.598207 425.875414 
L 494.598207 425.948852 
Q 494.598207 426.270727 494.741957 426.514477 
Q 494.887269 426.758227 495.149769 426.892602 
Q 495.413832 427.026977 495.760707 427.026977 
z
M 495.760707 423.819164 
Q 496.059144 423.819164 496.287269 423.691039 
Q 496.516957 423.561352 496.643519 423.322289 
Q 496.771644 423.081664 496.771644 422.769164 
L 496.771644 422.701977 
Q 496.771644 422.403539 496.643519 422.173852 
Q 496.516957 421.944164 496.287269 421.820727 
Q 496.059144 421.695727 495.760707 421.695727 
Q 495.462269 421.695727 495.232582 421.820727 
Q 495.004457 421.944164 494.876332 422.173852 
Q 494.749769 422.403539 494.749769 422.706664 
L 494.749769 422.780102 
Q 494.749769 423.086352 494.876332 423.323852 
Q 495.004457 423.561352 495.232582 423.691039 
Q 495.462269 423.819164 495.760707 423.819164 
z
M 499.207582 425.958227 
L 501.590394 420.816039 
L 502.616957 420.816039 
L 500.291957 425.898852 
L 503.773207 425.898852 
L 503.773207 426.822289 
L 499.207582 426.822289 
L 499.207582 425.958227 
z
M 502.270082 423.736352 
L 503.241957 423.736352 
L 503.241957 427.916039 
L 502.270082 427.916039 
L 502.270082 423.736352 
z
M 506.977308 427.984789 
Q 506.439808 427.984789 506.021058 427.775414 
Q 505.603871 427.564477 505.342933 427.164477 
Q 505.081996 426.764477 504.994496 426.201977 
L 504.994496 426.197289 
L 505.989808 426.197289 
L 505.989808 426.201977 
Q 506.044496 426.592602 506.302308 426.809789 
Q 506.561683 427.026977 506.977308 427.026977 
Q 507.455433 427.026977 507.716371 426.708227 
Q 507.977308 426.387914 507.977308 425.806664 
L 507.977308 425.211352 
Q 507.977308 424.634789 507.716371 424.316039 
Q 507.455433 423.995727 506.977308 423.995727 
Q 506.717933 423.995727 506.478871 424.142602 
Q 506.239808 424.287914 506.058558 424.551977 
L 505.150746 424.551977 
L 505.150746 420.811352 
L 508.767933 420.811352 
L 508.767933 421.758227 
L 506.146058 421.758227 
L 506.146058 423.355102 
Q 506.331996 423.203539 506.561683 423.120727 
Q 506.791371 423.037914 507.030433 423.037914 
Q 507.646058 423.037914 508.081996 423.292602 
Q 508.519496 423.545727 508.746058 424.034789 
Q 508.974183 424.522289 508.974183 425.211352 
L 508.974183 425.806664 
Q 508.974183 426.495727 508.739808 426.984789 
Q 508.505433 427.472289 508.055433 427.728539 
Q 507.606996 427.984789 506.977308 427.984789 
z
" style="fill: #ffffff"/>
   </g>
  </g>
 </g>
 <defs>
  <clipPath id="p396ac263a4">
   <rect x="144" y="77.76" width="892.8" height="498.96"/>
  </clipPath>
 </defs>
</svg>
