<?xml version="1.0" encoding="utf-8" standalone="no"?>
<!DOCTYPE svg PUBLIC "-//W3C//DTD SVG 1.1//EN"
  "http://www.w3.org/Graphics/SVG/1.1/DTD/svg11.dtd">
<svg xmlns:xlink="http://www.w3.org/1999/xlink" width="1152pt" height="648pt" viewBox="0 0 1152 648" xmlns="http://www.w3.org/2000/svg" version="1.1">
 <metadata>
  <rdf:RDF xmlns:dc="http://purl.org/dc/elements/1.1/" xmlns:cc="http://creativecommons.org/ns#" xmlns:rdf="http://www.w3.org/1999/02/22-rdf-syntax-ns#">
   <cc:Work>
    <dc:type rdf:resource="http://purl.org/dc/dcmitype/StillImage"/>
    <dc:date>2024-03-14T14:55:07.789438</dc:date>
    <dc:format>image/svg+xml</dc:format>
    <dc:creator>
     <cc:Agent>
      <dc:title>Matplotlib v3.8.3, https://matplotlib.org/</dc:title>
     </cc:Agent>
    </dc:creator>
   </cc:Work>
  </rdf:RDF>
 </metadata>
 <defs>
  <style type="text/css">*{stroke-linejoin: round; stroke-linecap: butt}</style>
 </defs>
 <g id="figure_1">
  <g id="patch_1">
   <path d="M 0 648 
L 1152 648 
L 1152 0 
L 0 0 
L 0 648 
z
" style="fill: none"/>
  </g>
  <g id="axes_1">
   <g id="line2d_1">
    <path d="M 238.24 470.425682 
L 240.554667 468.517204 
L 242.869333 466.632564 
L 245.184 464.771466 
L 247.498667 462.933615 
L 249.813333 461.118722 
L 252.128 459.3265 
L 254.442667 457.556667 
L 256.757333 455.808943 
L 259.072 454.083052 
L 261.386667 452.378723 
L 263.701333 450.695685 
L 266.016 449.033674 
L 268.330667 447.392427 
L 270.645333 445.771684 
L 272.96 444.171191 
L 275.274667 442.590694 
L 277.589333 441.029944 
L 279.904 439.488695 
L 282.218667 437.966703 
L 284.533333 436.463727 
L 286.848 434.979531 
L 289.162667 433.51388 
L 291.477333 432.066542 
L 293.792 430.63729 
L 296.106667 429.225896 
L 298.421333 427.83214 
L 300.736 426.455799 
L 303.050667 425.096657 
L 305.365333 423.7545 
L 307.68 422.429114 
L 309.994667 421.120292 
L 312.309333 419.827825 
L 314.624 418.55151 
L 316.938667 417.291146 
L 319.253333 416.046532 
L 321.568 414.817473 
L 323.882667 413.603774 
L 326.197333 412.405243 
L 328.512 411.221691 
L 330.826667 410.052931 
L 333.141333 408.898779 
L 335.456 407.759051 
L 337.770667 406.633568 
L 340.085333 405.522152 
L 342.4 404.424627 
L 344.714667 403.34082 
L 347.029333 402.270559 
L 349.344 401.213675 
L 351.658667 400.170002 
L 353.973333 399.139373 
L 356.288 398.121627 
L 358.602667 397.116603 
L 360.917333 396.124141 
L 363.232 395.144084 
L 365.546667 394.176278 
L 367.861333 393.22057 
L 370.176 392.276808 
L 372.490667 391.344843 
L 374.805333 390.424528 
L 377.12 389.515718 
L 379.434667 388.618268 
L 381.749333 387.732037 
L 384.064 386.856885 
L 386.378667 385.992673 
L 388.693333 385.139264 
L 391.008 384.296524 
L 393.322667 383.464319 
L 395.637333 382.642518 
L 397.952 381.830991 
L 400.266667 381.029609 
L 402.581333 380.238246 
L 404.896 379.456776 
L 407.210667 378.685076 
L 409.525333 377.923023 
L 411.84 377.170498 
L 414.154667 376.427381 
L 416.469333 375.693554 
L 418.784 374.968902 
L 421.098667 374.25331 
L 423.413333 373.546665 
L 425.728 372.848854 
L 428.042667 372.159768 
L 430.357333 371.479297 
L 432.672 370.807334 
L 434.986667 370.143773 
L 437.301333 369.488508 
L 439.616 368.841436 
L 441.930667 368.202454 
L 444.245333 367.571462 
L 446.56 366.948359 
L 448.874667 366.333047 
L 451.189333 365.725429 
L 453.504 365.125408 
L 455.818667 364.532889 
L 458.133333 363.947779 
L 460.448 363.369985 
L 462.762667 362.799416 
L 465.077333 362.235981 
L 467.392 361.679591 
" clip-path="url(#pbd141bf15e)" style="fill: none; stroke: #79caf2; stroke-width: 3; stroke-linecap: round"/>
   </g>
   <g id="text_1">
    <path d="M 476.29698 363.399596 
Q 475.78448 363.399596 475.325105 363.302721 
Q 474.867292 363.204284 474.468855 363.008971 
Q 474.070417 362.813659 473.723542 362.519909 
L 473.723542 362.519909 
L 474.343855 361.758971 
L 474.343855 361.758971 
Q 474.750105 362.110534 475.237605 362.287096 
Q 475.726667 362.462096 476.29698 362.462096 
Q 477.068855 362.462096 477.493855 362.176159 
Q 477.918855 361.890221 477.918855 361.368346 
L 477.918855 361.363659 
Q 477.918855 360.991784 477.725105 360.774596 
Q 477.532917 360.557409 477.226667 360.452721 
Q 476.92198 360.348034 476.439167 360.258971 
Q 476.423542 360.254284 476.406355 360.254284 
Q 476.39073 360.254284 476.375105 360.249596 
L 476.301667 360.235534 
Q 475.589167 360.113659 475.142292 359.960534 
Q 474.695417 359.805846 474.37823 359.398034 
Q 474.061042 358.990221 474.061042 358.238659 
L 474.061042 358.233971 
Q 474.061042 357.574596 474.356355 357.108971 
Q 474.651667 356.641784 475.217292 356.398034 
Q 475.78448 356.152721 476.579792 356.152721 
Q 476.961042 356.152721 477.329792 356.237096 
Q 477.698542 356.319909 478.056355 356.483971 
Q 478.41573 356.646471 478.762605 356.894909 
L 478.762605 356.894909 
L 478.19698 357.687096 
L 478.19698 357.687096 
Q 477.79073 357.388659 477.387605 357.240221 
Q 476.986042 357.090221 476.579792 357.090221 
Q 475.85323 357.090221 475.450105 357.380846 
Q 475.04698 357.671471 475.04698 358.204284 
L 475.04698 358.208971 
Q 475.04698 358.574596 475.254792 358.785534 
Q 475.462605 358.994909 475.77198 359.094909 
Q 476.082917 359.194909 476.63448 359.302721 
Q 476.65323 359.307409 476.670417 359.310534 
Q 476.687605 359.312096 476.707917 359.316784 
Q 476.731355 359.321471 476.761042 359.327721 
Q 476.79073 359.332409 476.814167 359.337096 
Q 477.45948 359.468346 477.89073 359.649596 
Q 478.323542 359.829284 478.614167 360.232409 
Q 478.904792 360.635534 478.904792 361.333971 
L 478.904792 361.343346 
Q 478.904792 361.993346 478.59698 362.454284 
Q 478.289167 362.915221 477.704792 363.157409 
Q 477.12198 363.399596 476.29698 363.399596 
z
M 480.994832 362.379284 
L 482.601082 362.379284 
Q 483.387019 362.379284 483.818269 361.971471 
Q 484.251082 361.563659 484.251082 360.821471 
L 484.251082 358.730846 
Q 484.251082 357.988659 483.818269 357.580846 
Q 483.387019 357.173034 482.601082 357.173034 
L 480.994832 357.173034 
L 480.994832 356.226159 
L 482.571394 356.226159 
Q 483.426082 356.226159 484.030769 356.524596 
Q 484.637019 356.821471 484.954207 357.393346 
Q 485.271394 357.965221 485.271394 358.769909 
L 485.271394 360.782409 
Q 485.271394 361.587096 484.954207 362.158971 
Q 484.637019 362.730846 484.029207 363.029284 
Q 483.421394 363.326159 482.566707 363.326159 
L 480.994832 363.326159 
L 480.994832 362.379284 
z
M 480.321394 356.226159 
L 481.316707 356.226159 
L 481.316707 363.326159 
L 480.321394 363.326159 
L 480.321394 356.226159 
z
M 488.816707 363.399596 
Q 488.172957 363.399596 487.683894 363.155846 
Q 487.196394 362.910534 486.929207 362.463659 
Q 486.663582 362.016784 486.663582 361.426159 
L 486.663582 361.308971 
Q 486.663582 360.777721 486.929207 360.308971 
Q 487.196394 359.840221 487.640144 359.601159 
Q 487.263582 359.394909 487.037019 359.007409 
Q 486.810457 358.618346 486.810457 358.188659 
L 486.810457 358.018346 
Q 486.810457 357.462096 487.058894 357.040221 
Q 487.307332 356.616784 487.762019 356.385534 
Q 488.216707 356.152721 488.816707 356.152721 
Q 489.416707 356.152721 489.871394 356.385534 
Q 490.326082 356.616784 490.574519 357.040221 
Q 490.822957 357.462096 490.822957 358.018346 
L 490.822957 358.188659 
Q 490.822957 358.629284 490.591707 359.015221 
Q 490.360457 359.399596 489.979207 359.601159 
Q 490.427644 359.844909 490.697957 360.312096 
Q 490.969832 360.777721 490.969832 361.308971 
L 490.969832 361.426159 
Q 490.969832 362.016784 490.704207 362.463659 
Q 490.438582 362.910534 489.949519 363.155846 
Q 489.462019 363.399596 488.816707 363.399596 
z
M 488.816707 362.441784 
Q 489.163582 362.441784 489.426082 362.305846 
Q 489.690144 362.168346 489.833894 361.923034 
Q 489.979207 361.676159 489.979207 361.352721 
L 489.979207 361.285534 
Q 489.979207 360.957409 489.833894 360.712096 
Q 489.690144 360.465221 489.426082 360.329284 
Q 489.163582 360.191784 488.816707 360.191784 
Q 488.469832 360.191784 488.205769 360.329284 
Q 487.943269 360.465221 487.797957 360.713659 
Q 487.654207 360.962096 487.654207 361.290221 
L 487.654207 361.363659 
Q 487.654207 361.685534 487.797957 361.929284 
Q 487.943269 362.173034 488.205769 362.307409 
Q 488.469832 362.441784 488.816707 362.441784 
z
M 488.816707 359.233971 
Q 489.115144 359.233971 489.343269 359.105846 
Q 489.572957 358.976159 489.699519 358.737096 
Q 489.827644 358.496471 489.827644 358.183971 
L 489.827644 358.116784 
Q 489.827644 357.818346 489.699519 357.588659 
Q 489.572957 357.358971 489.343269 357.235534 
Q 489.115144 357.110534 488.816707 357.110534 
Q 488.518269 357.110534 488.288582 357.235534 
Q 488.060457 357.358971 487.932332 357.588659 
Q 487.805769 357.818346 487.805769 358.121471 
L 487.805769 358.194909 
Q 487.805769 358.501159 487.932332 358.738659 
Q 488.060457 358.976159 488.288582 359.105846 
Q 488.518269 359.233971 488.816707 359.233971 
z
M 494.193269 363.399596 
Q 493.568269 363.399596 493.122957 363.148034 
Q 492.679207 362.896471 492.446394 362.415221 
Q 492.215144 361.933971 492.215144 361.255846 
L 492.215144 361.251159 
Q 492.215144 360.855846 492.307332 360.421471 
Q 492.401082 359.985534 492.576082 359.566784 
Q 492.605769 359.493346 492.640144 359.423034 
Q 492.674519 359.351159 492.708894 359.282409 
L 494.251082 356.226159 
L 495.326082 356.226159 
L 493.513582 359.766784 
L 493.518269 359.590221 
Q 493.641707 359.360534 493.876082 359.233971 
Q 494.110457 359.107409 494.422957 359.107409 
Q 494.974519 359.107409 495.369832 359.357409 
Q 495.765144 359.605846 495.969832 360.082409 
Q 496.174519 360.557409 496.174519 361.226159 
L 496.174519 361.230846 
Q 496.174519 361.915221 495.943269 362.404284 
Q 495.712019 362.891784 495.265144 363.146471 
Q 494.818269 363.399596 494.193269 363.399596 
z
M 494.193269 362.441784 
Q 494.666707 362.441784 494.922957 362.149596 
Q 495.179207 361.855846 495.179207 361.313659 
L 495.179207 361.308971 
Q 495.179207 360.713659 494.910457 360.388659 
Q 494.641707 360.063659 494.143269 360.063659 
Q 493.699519 360.063659 493.455769 360.391784 
Q 493.212019 360.718346 493.212019 361.313659 
L 493.212019 361.319909 
Q 493.212019 361.860534 493.468269 362.151159 
Q 493.724519 362.441784 494.193269 362.441784 
z
M 499.476667 363.399596 
Q 498.939167 363.399596 498.520417 363.190221 
Q 498.10323 362.979284 497.842292 362.579284 
Q 497.581355 362.179284 497.493855 361.616784 
L 497.493855 361.612096 
L 498.489167 361.612096 
L 498.489167 361.616784 
Q 498.543855 362.007409 498.801667 362.224596 
Q 499.061042 362.441784 499.476667 362.441784 
Q 499.954792 362.441784 500.21573 362.123034 
Q 500.476667 361.802721 500.476667 361.221471 
L 500.476667 360.626159 
Q 500.476667 360.049596 500.21573 359.730846 
Q 499.954792 359.410534 499.476667 359.410534 
Q 499.217292 359.410534 498.97823 359.557409 
Q 498.739167 359.702721 498.557917 359.966784 
L 497.650105 359.966784 
L 497.650105 356.226159 
L 501.267292 356.226159 
L 501.267292 357.173034 
L 498.645417 357.173034 
L 498.645417 358.769909 
Q 498.831355 358.618346 499.061042 358.535534 
Q 499.29073 358.452721 499.529792 358.452721 
Q 500.145417 358.452721 500.581355 358.707409 
Q 501.018855 358.960534 501.245417 359.449596 
Q 501.473542 359.937096 501.473542 360.626159 
L 501.473542 361.221471 
Q 501.473542 361.910534 501.239167 362.399596 
Q 501.004792 362.887096 500.554792 363.143346 
Q 500.106355 363.399596 499.476667 363.399596 
z
" style="fill: #ffffff; stroke: #000000"/>
    <path d="M 476.29698 363.399596 
Q 475.78448 363.399596 475.325105 363.302721 
Q 474.867292 363.204284 474.468855 363.008971 
Q 474.070417 362.813659 473.723542 362.519909 
L 473.723542 362.519909 
L 474.343855 361.758971 
L 474.343855 361.758971 
Q 474.750105 362.110534 475.237605 362.287096 
Q 475.726667 362.462096 476.29698 362.462096 
Q 477.068855 362.462096 477.493855 362.176159 
Q 477.918855 361.890221 477.918855 361.368346 
L 477.918855 361.363659 
Q 477.918855 360.991784 477.725105 360.774596 
Q 477.532917 360.557409 477.226667 360.452721 
Q 476.92198 360.348034 476.439167 360.258971 
Q 476.423542 360.254284 476.406355 360.254284 
Q 476.39073 360.254284 476.375105 360.249596 
L 476.301667 360.235534 
Q 475.589167 360.113659 475.142292 359.960534 
Q 474.695417 359.805846 474.37823 359.398034 
Q 474.061042 358.990221 474.061042 358.238659 
L 474.061042 358.233971 
Q 474.061042 357.574596 474.356355 357.108971 
Q 474.651667 356.641784 475.217292 356.398034 
Q 475.78448 356.152721 476.579792 356.152721 
Q 476.961042 356.152721 477.329792 356.237096 
Q 477.698542 356.319909 478.056355 356.483971 
Q 478.41573 356.646471 478.762605 356.894909 
L 478.762605 356.894909 
L 478.19698 357.687096 
L 478.19698 357.687096 
Q 477.79073 357.388659 477.387605 357.240221 
Q 476.986042 357.090221 476.579792 357.090221 
Q 475.85323 357.090221 475.450105 357.380846 
Q 475.04698 357.671471 475.04698 358.204284 
L 475.04698 358.208971 
Q 475.04698 358.574596 475.254792 358.785534 
Q 475.462605 358.994909 475.77198 359.094909 
Q 476.082917 359.194909 476.63448 359.302721 
Q 476.65323 359.307409 476.670417 359.310534 
Q 476.687605 359.312096 476.707917 359.316784 
Q 476.731355 359.321471 476.761042 359.327721 
Q 476.79073 359.332409 476.814167 359.337096 
Q 477.45948 359.468346 477.89073 359.649596 
Q 478.323542 359.829284 478.614167 360.232409 
Q 478.904792 360.635534 478.904792 361.333971 
L 478.904792 361.343346 
Q 478.904792 361.993346 478.59698 362.454284 
Q 478.289167 362.915221 477.704792 363.157409 
Q 477.12198 363.399596 476.29698 363.399596 
z
M 480.994832 362.379284 
L 482.601082 362.379284 
Q 483.387019 362.379284 483.818269 361.971471 
Q 484.251082 361.563659 484.251082 360.821471 
L 484.251082 358.730846 
Q 484.251082 357.988659 483.818269 357.580846 
Q 483.387019 357.173034 482.601082 357.173034 
L 480.994832 357.173034 
L 480.994832 356.226159 
L 482.571394 356.226159 
Q 483.426082 356.226159 484.030769 356.524596 
Q 484.637019 356.821471 484.954207 357.393346 
Q 485.271394 357.965221 485.271394 358.769909 
L 485.271394 360.782409 
Q 485.271394 361.587096 484.954207 362.158971 
Q 484.637019 362.730846 484.029207 363.029284 
Q 483.421394 363.326159 482.566707 363.326159 
L 480.994832 363.326159 
L 480.994832 362.379284 
z
M 480.321394 356.226159 
L 481.316707 356.226159 
L 481.316707 363.326159 
L 480.321394 363.326159 
L 480.321394 356.226159 
z
M 488.816707 363.399596 
Q 488.172957 363.399596 487.683894 363.155846 
Q 487.196394 362.910534 486.929207 362.463659 
Q 486.663582 362.016784 486.663582 361.426159 
L 486.663582 361.308971 
Q 486.663582 360.777721 486.929207 360.308971 
Q 487.196394 359.840221 487.640144 359.601159 
Q 487.263582 359.394909 487.037019 359.007409 
Q 486.810457 358.618346 486.810457 358.188659 
L 486.810457 358.018346 
Q 486.810457 357.462096 487.058894 357.040221 
Q 487.307332 356.616784 487.762019 356.385534 
Q 488.216707 356.152721 488.816707 356.152721 
Q 489.416707 356.152721 489.871394 356.385534 
Q 490.326082 356.616784 490.574519 357.040221 
Q 490.822957 357.462096 490.822957 358.018346 
L 490.822957 358.188659 
Q 490.822957 358.629284 490.591707 359.015221 
Q 490.360457 359.399596 489.979207 359.601159 
Q 490.427644 359.844909 490.697957 360.312096 
Q 490.969832 360.777721 490.969832 361.308971 
L 490.969832 361.426159 
Q 490.969832 362.016784 490.704207 362.463659 
Q 490.438582 362.910534 489.949519 363.155846 
Q 489.462019 363.399596 488.816707 363.399596 
z
M 488.816707 362.441784 
Q 489.163582 362.441784 489.426082 362.305846 
Q 489.690144 362.168346 489.833894 361.923034 
Q 489.979207 361.676159 489.979207 361.352721 
L 489.979207 361.285534 
Q 489.979207 360.957409 489.833894 360.712096 
Q 489.690144 360.465221 489.426082 360.329284 
Q 489.163582 360.191784 488.816707 360.191784 
Q 488.469832 360.191784 488.205769 360.329284 
Q 487.943269 360.465221 487.797957 360.713659 
Q 487.654207 360.962096 487.654207 361.290221 
L 487.654207 361.363659 
Q 487.654207 361.685534 487.797957 361.929284 
Q 487.943269 362.173034 488.205769 362.307409 
Q 488.469832 362.441784 488.816707 362.441784 
z
M 488.816707 359.233971 
Q 489.115144 359.233971 489.343269 359.105846 
Q 489.572957 358.976159 489.699519 358.737096 
Q 489.827644 358.496471 489.827644 358.183971 
L 489.827644 358.116784 
Q 489.827644 357.818346 489.699519 357.588659 
Q 489.572957 357.358971 489.343269 357.235534 
Q 489.115144 357.110534 488.816707 357.110534 
Q 488.518269 357.110534 488.288582 357.235534 
Q 488.060457 357.358971 487.932332 357.588659 
Q 487.805769 357.818346 487.805769 358.121471 
L 487.805769 358.194909 
Q 487.805769 358.501159 487.932332 358.738659 
Q 488.060457 358.976159 488.288582 359.105846 
Q 488.518269 359.233971 488.816707 359.233971 
z
M 494.193269 363.399596 
Q 493.568269 363.399596 493.122957 363.148034 
Q 492.679207 362.896471 492.446394 362.415221 
Q 492.215144 361.933971 492.215144 361.255846 
L 492.215144 361.251159 
Q 492.215144 360.855846 492.307332 360.421471 
Q 492.401082 359.985534 492.576082 359.566784 
Q 492.605769 359.493346 492.640144 359.423034 
Q 492.674519 359.351159 492.708894 359.282409 
L 494.251082 356.226159 
L 495.326082 356.226159 
L 493.513582 359.766784 
L 493.518269 359.590221 
Q 493.641707 359.360534 493.876082 359.233971 
Q 494.110457 359.107409 494.422957 359.107409 
Q 494.974519 359.107409 495.369832 359.357409 
Q 495.765144 359.605846 495.969832 360.082409 
Q 496.174519 360.557409 496.174519 361.226159 
L 496.174519 361.230846 
Q 496.174519 361.915221 495.943269 362.404284 
Q 495.712019 362.891784 495.265144 363.146471 
Q 494.818269 363.399596 494.193269 363.399596 
z
M 494.193269 362.441784 
Q 494.666707 362.441784 494.922957 362.149596 
Q 495.179207 361.855846 495.179207 361.313659 
L 495.179207 361.308971 
Q 495.179207 360.713659 494.910457 360.388659 
Q 494.641707 360.063659 494.143269 360.063659 
Q 493.699519 360.063659 493.455769 360.391784 
Q 493.212019 360.718346 493.212019 361.313659 
L 493.212019 361.319909 
Q 493.212019 361.860534 493.468269 362.151159 
Q 493.724519 362.441784 494.193269 362.441784 
z
M 499.476667 363.399596 
Q 498.939167 363.399596 498.520417 363.190221 
Q 498.10323 362.979284 497.842292 362.579284 
Q 497.581355 362.179284 497.493855 361.616784 
L 497.493855 361.612096 
L 498.489167 361.612096 
L 498.489167 361.616784 
Q 498.543855 362.007409 498.801667 362.224596 
Q 499.061042 362.441784 499.476667 362.441784 
Q 499.954792 362.441784 500.21573 362.123034 
Q 500.476667 361.802721 500.476667 361.221471 
L 500.476667 360.626159 
Q 500.476667 360.049596 500.21573 359.730846 
Q 499.954792 359.410534 499.476667 359.410534 
Q 499.217292 359.410534 498.97823 359.557409 
Q 498.739167 359.702721 498.557917 359.966784 
L 497.650105 359.966784 
L 497.650105 356.226159 
L 501.267292 356.226159 
L 501.267292 357.173034 
L 498.645417 357.173034 
L 498.645417 358.769909 
Q 498.831355 358.618346 499.061042 358.535534 
Q 499.29073 358.452721 499.529792 358.452721 
Q 500.145417 358.452721 500.581355 358.707409 
Q 501.018855 358.960534 501.245417 359.449596 
Q 501.473542 359.937096 501.473542 360.626159 
L 501.473542 361.221471 
Q 501.473542 361.910534 501.239167 362.399596 
Q 501.004792 362.887096 500.554792 363.143346 
Q 500.106355 363.399596 499.476667 363.399596 
z
" style="fill: #ffffff"/>
   </g>
  </g>
 </g>
 <defs>
  <clipPath id="pbd141bf15e">
   <rect x="144" y="77.76" width="892.8" height="498.96"/>
  </clipPath>
 </defs>
</svg>
