<?xml version="1.0" encoding="utf-8" standalone="no"?>
<!DOCTYPE svg PUBLIC "-//W3C//DTD SVG 1.1//EN"
  "http://www.w3.org/Graphics/SVG/1.1/DTD/svg11.dtd">
<svg xmlns:xlink="http://www.w3.org/1999/xlink" width="1152pt" height="648pt" viewBox="0 0 1152 648" xmlns="http://www.w3.org/2000/svg" version="1.1">
 <metadata>
  <rdf:RDF xmlns:dc="http://purl.org/dc/elements/1.1/" xmlns:cc="http://creativecommons.org/ns#" xmlns:rdf="http://www.w3.org/1999/02/22-rdf-syntax-ns#">
   <cc:Work>
    <dc:type rdf:resource="http://purl.org/dc/dcmitype/StillImage"/>
    <dc:date>2024-04-29T10:35:42.377460</dc:date>
    <dc:format>image/svg+xml</dc:format>
    <dc:creator>
     <cc:Agent>
      <dc:title>Matplotlib v3.8.4, https://matplotlib.org/</dc:title>
     </cc:Agent>
    </dc:creator>
   </cc:Work>
  </rdf:RDF>
 </metadata>
 <defs>
  <style type="text/css">*{stroke-linejoin: round; stroke-linecap: butt}</style>
 </defs>
 <g id="figure_1">
  <g id="patch_1">
   <path d="M 0 648 
L 1152 648 
L 1152 0 
L 0 0 
L 0 648 
z
" style="fill: none"/>
  </g>
  <g id="axes_1">
   <g id="PathCollection_1">
    <defs>
     <path id="mdd82f01e4d" d="M 0 2.738613 
C 0.726289 2.738613 1.422928 2.450055 1.936492 1.936492 
C 2.450055 1.422928 2.738613 0.726289 2.738613 0 
C 2.738613 -0.726289 2.450055 -1.422928 1.936492 -1.936492 
C 1.422928 -2.450055 0.726289 -2.738613 0 -2.738613 
C -0.726289 -2.738613 -1.422928 -2.450055 -1.936492 -1.936492 
C -2.450055 -1.422928 -2.738613 -0.726289 -2.738613 0 
C -2.738613 0.726289 -2.450055 1.422928 -1.936492 1.936492 
C -1.422928 2.450055 -0.726289 2.738613 0 2.738613 
z
" style="stroke: #ff0000"/>
    </defs>
    <g clip-path="url(#pe9fa22d3a8)">
     <use xlink:href="#mdd82f01e4d" x="836.912" y="302.35437" style="fill: #ff0000; stroke: #ff0000"/>
     <use xlink:href="#mdd82f01e4d" x="413.328" y="370.40004" style="fill: #ff0000; stroke: #ff0000"/>
    </g>
   </g>
   <g id="text_1">
    <path d="M 844.465418 300.885313 
L 847.599793 296.900938 
L 848.824793 296.900938 
L 844.318543 302.379063 
L 844.465418 300.885313 
z
M 843.684168 296.900938 
L 844.67948 296.900938 
L 844.67948 304.000938 
L 843.684168 304.000938 
L 843.684168 296.900938 
z
M 845.646668 300.211875 
L 846.432605 299.48375 
L 849.12323 304.000938 
L 847.902918 304.000938 
L 845.646668 300.211875 
z
M 852.467371 300.475938 
L 852.462683 300.650938 
Q 852.340808 300.875938 852.093933 300.980625 
Q 851.847058 301.085313 851.511121 301.085313 
Q 851.003308 301.085313 850.617371 300.8275 
Q 850.231433 300.568125 850.018933 300.097813 
Q 849.806433 299.625938 849.806433 299.005625 
L 849.806433 299.000938 
Q 849.806433 298.311875 850.037683 297.824375 
Q 850.270496 297.335313 850.717371 297.082188 
Q 851.164246 296.8275 851.789246 296.8275 
Q 852.414246 296.8275 852.857996 297.086875 
Q 853.303308 297.34625 853.534558 297.84 
Q 853.765808 298.332188 853.765808 299.025938 
L 853.765808 299.030625 
Q 853.765808 299.410313 853.667371 299.843125 
Q 853.570496 300.275938 853.390808 300.699375 
Q 853.361121 300.763438 853.331433 300.829063 
Q 853.303308 300.894688 853.268933 300.95875 
L 851.754871 304.000938 
L 850.679871 304.000938 
L 852.467371 300.475938 
z
M 851.789246 300.1775 
Q 852.257996 300.1775 852.514246 299.860313 
Q 852.770496 299.543125 852.770496 298.966563 
L 852.770496 298.961875 
Q 852.770496 298.400938 852.514246 298.093125 
Q 852.257996 297.785313 851.789246 297.785313 
Q 851.315808 297.785313 851.059558 298.093125 
Q 850.803308 298.400938 850.803308 298.966563 
L 850.803308 298.97125 
Q 850.803308 299.547813 851.059558 299.863438 
Q 851.315808 300.1775 851.789246 300.1775 
z
M 857.111707 304.074375 
Q 856.114832 304.074375 855.599207 303.543125 
Q 855.085144 303.010313 855.085144 302.057188 
L 855.085144 298.830625 
Q 855.085144 297.872813 855.602332 297.343125 
Q 856.119519 296.813438 857.111707 296.813438 
Q 858.107019 296.813438 858.622644 297.341563 
Q 859.138269 297.868125 859.138269 298.830625 
L 859.138269 302.057188 
Q 859.138269 303.015 858.619519 303.544688 
Q 858.102332 304.074375 857.111707 304.074375 
z
M 857.111707 303.1275 
Q 857.638269 303.1275 857.889832 302.850938 
Q 858.141394 302.574375 858.141394 302.057188 
L 858.141394 298.830625 
Q 858.141394 298.311875 857.891394 298.036875 
Q 857.642957 297.760313 857.111707 297.760313 
Q 856.578894 297.760313 856.328894 298.036875 
Q 856.080457 298.311875 856.080457 298.830625 
L 856.080457 302.057188 
Q 856.080457 302.574375 856.332019 302.850938 
Q 856.583582 303.1275 857.111707 303.1275 
z
M 862.316785 304.000938 
L 861.31991 304.000938 
L 861.31991 297.985313 
L 860.308972 298.605625 
L 860.308972 297.574375 
L 861.31991 296.900938 
L 862.316785 296.900938 
L 862.316785 304.000938 
z
M 865.95448 304.074375 
Q 864.957605 304.074375 864.44198 303.543125 
Q 863.927918 303.010313 863.927918 302.057188 
L 863.927918 298.830625 
Q 863.927918 297.872813 864.445105 297.343125 
Q 864.962292 296.813438 865.95448 296.813438 
Q 866.949793 296.813438 867.465418 297.341563 
Q 867.981043 297.868125 867.981043 298.830625 
L 867.981043 302.057188 
Q 867.981043 303.015 867.462292 303.544688 
Q 866.945105 304.074375 865.95448 304.074375 
z
M 865.95448 303.1275 
Q 866.481043 303.1275 866.732605 302.850938 
Q 866.984168 302.574375 866.984168 302.057188 
L 866.984168 298.830625 
Q 866.984168 298.311875 866.734168 298.036875 
Q 866.48573 297.760313 865.95448 297.760313 
Q 865.421668 297.760313 865.171668 298.036875 
Q 864.92323 298.311875 864.92323 298.830625 
L 864.92323 302.057188 
Q 864.92323 302.574375 865.174792 302.850938 
Q 865.426355 303.1275 865.95448 303.1275 
z
" style="fill: #ffffff; stroke: #000000"/>
    <path d="M 844.465418 300.885313 
L 847.599793 296.900938 
L 848.824793 296.900938 
L 844.318543 302.379063 
L 844.465418 300.885313 
z
M 843.684168 296.900938 
L 844.67948 296.900938 
L 844.67948 304.000938 
L 843.684168 304.000938 
L 843.684168 296.900938 
z
M 845.646668 300.211875 
L 846.432605 299.48375 
L 849.12323 304.000938 
L 847.902918 304.000938 
L 845.646668 300.211875 
z
M 852.467371 300.475938 
L 852.462683 300.650938 
Q 852.340808 300.875938 852.093933 300.980625 
Q 851.847058 301.085313 851.511121 301.085313 
Q 851.003308 301.085313 850.617371 300.8275 
Q 850.231433 300.568125 850.018933 300.097813 
Q 849.806433 299.625938 849.806433 299.005625 
L 849.806433 299.000938 
Q 849.806433 298.311875 850.037683 297.824375 
Q 850.270496 297.335313 850.717371 297.082188 
Q 851.164246 296.8275 851.789246 296.8275 
Q 852.414246 296.8275 852.857996 297.086875 
Q 853.303308 297.34625 853.534558 297.84 
Q 853.765808 298.332188 853.765808 299.025938 
L 853.765808 299.030625 
Q 853.765808 299.410313 853.667371 299.843125 
Q 853.570496 300.275938 853.390808 300.699375 
Q 853.361121 300.763438 853.331433 300.829063 
Q 853.303308 300.894688 853.268933 300.95875 
L 851.754871 304.000938 
L 850.679871 304.000938 
L 852.467371 300.475938 
z
M 851.789246 300.1775 
Q 852.257996 300.1775 852.514246 299.860313 
Q 852.770496 299.543125 852.770496 298.966563 
L 852.770496 298.961875 
Q 852.770496 298.400938 852.514246 298.093125 
Q 852.257996 297.785313 851.789246 297.785313 
Q 851.315808 297.785313 851.059558 298.093125 
Q 850.803308 298.400938 850.803308 298.966563 
L 850.803308 298.97125 
Q 850.803308 299.547813 851.059558 299.863438 
Q 851.315808 300.1775 851.789246 300.1775 
z
M 857.111707 304.074375 
Q 856.114832 304.074375 855.599207 303.543125 
Q 855.085144 303.010313 855.085144 302.057188 
L 855.085144 298.830625 
Q 855.085144 297.872813 855.602332 297.343125 
Q 856.119519 296.813438 857.111707 296.813438 
Q 858.107019 296.813438 858.622644 297.341563 
Q 859.138269 297.868125 859.138269 298.830625 
L 859.138269 302.057188 
Q 859.138269 303.015 858.619519 303.544688 
Q 858.102332 304.074375 857.111707 304.074375 
z
M 857.111707 303.1275 
Q 857.638269 303.1275 857.889832 302.850938 
Q 858.141394 302.574375 858.141394 302.057188 
L 858.141394 298.830625 
Q 858.141394 298.311875 857.891394 298.036875 
Q 857.642957 297.760313 857.111707 297.760313 
Q 856.578894 297.760313 856.328894 298.036875 
Q 856.080457 298.311875 856.080457 298.830625 
L 856.080457 302.057188 
Q 856.080457 302.574375 856.332019 302.850938 
Q 856.583582 303.1275 857.111707 303.1275 
z
M 862.316785 304.000938 
L 861.31991 304.000938 
L 861.31991 297.985313 
L 860.308972 298.605625 
L 860.308972 297.574375 
L 861.31991 296.900938 
L 862.316785 296.900938 
L 862.316785 304.000938 
z
M 865.95448 304.074375 
Q 864.957605 304.074375 864.44198 303.543125 
Q 863.927918 303.010313 863.927918 302.057188 
L 863.927918 298.830625 
Q 863.927918 297.872813 864.445105 297.343125 
Q 864.962292 296.813438 865.95448 296.813438 
Q 866.949793 296.813438 867.465418 297.341563 
Q 867.981043 297.868125 867.981043 298.830625 
L 867.981043 302.057188 
Q 867.981043 303.015 867.462292 303.544688 
Q 866.945105 304.074375 865.95448 304.074375 
z
M 865.95448 303.1275 
Q 866.481043 303.1275 866.732605 302.850938 
Q 866.984168 302.574375 866.984168 302.057188 
L 866.984168 298.830625 
Q 866.984168 298.311875 866.734168 298.036875 
Q 866.48573 297.760313 865.95448 297.760313 
Q 865.421668 297.760313 865.171668 298.036875 
Q 864.92323 298.311875 864.92323 298.830625 
L 864.92323 302.057188 
Q 864.92323 302.574375 865.174792 302.850938 
Q 865.426355 303.1275 865.95448 303.1275 
z
" style="fill: #ffffff"/>
   </g>
   <g id="text_2">
    <path d="M 420.881417 368.930983 
L 424.015792 364.946608 
L 425.240792 364.946608 
L 420.734542 370.424733 
L 420.881417 368.930983 
z
M 420.100167 364.946608 
L 421.09548 364.946608 
L 421.09548 372.046608 
L 420.100167 372.046608 
L 420.100167 364.946608 
z
M 422.062667 368.257545 
L 422.848605 367.529421 
L 425.53923 372.046608 
L 424.318917 372.046608 
L 422.062667 368.257545 
z
M 428.883371 368.521608 
L 428.878683 368.696608 
Q 428.756808 368.921608 428.509933 369.026296 
Q 428.263058 369.130983 427.927121 369.130983 
Q 427.419308 369.130983 427.033371 368.873171 
Q 426.647433 368.613795 426.434933 368.143483 
Q 426.222433 367.671608 426.222433 367.051295 
L 426.222433 367.046608 
Q 426.222433 366.357546 426.453683 365.870046 
Q 426.686496 365.380983 427.133371 365.127858 
Q 427.580246 364.873171 428.205246 364.873171 
Q 428.830246 364.873171 429.273996 365.132545 
Q 429.719308 365.39192 429.950558 365.885671 
Q 430.181808 366.377858 430.181808 367.071608 
L 430.181808 367.076296 
Q 430.181808 367.455983 430.083371 367.888796 
Q 429.986496 368.321608 429.806808 368.745046 
Q 429.777121 368.809108 429.747433 368.874733 
Q 429.719308 368.940358 429.684933 369.00442 
L 428.170871 372.046608 
L 427.095871 372.046608 
L 428.883371 368.521608 
z
M 428.205246 368.22317 
Q 428.673996 368.22317 428.930246 367.905983 
Q 429.186496 367.588796 429.186496 367.012233 
L 429.186496 367.007545 
Q 429.186496 366.446608 428.930246 366.138796 
Q 428.673996 365.830983 428.205246 365.830983 
Q 427.731808 365.830983 427.475558 366.138796 
Q 427.219308 366.446608 427.219308 367.012233 
L 427.219308 367.01692 
Q 427.219308 367.593483 427.475558 367.909108 
Q 427.731808 368.22317 428.205246 368.22317 
z
M 433.527707 372.120046 
Q 432.530832 372.120046 432.015207 371.588796 
Q 431.501144 371.055983 431.501144 370.102858 
L 431.501144 366.876295 
Q 431.501144 365.918483 432.018332 365.388796 
Q 432.535519 364.859108 433.527707 364.859108 
Q 434.523019 364.859108 435.038644 365.387233 
Q 435.554269 365.913795 435.554269 366.876295 
L 435.554269 370.102858 
Q 435.554269 371.060671 435.035519 371.590358 
Q 434.518332 372.120046 433.527707 372.120046 
z
M 433.527707 371.17317 
Q 434.054269 371.17317 434.305832 370.896608 
Q 434.557394 370.620046 434.557394 370.102858 
L 434.557394 366.876295 
Q 434.557394 366.357546 434.307394 366.082545 
Q 434.058957 365.805983 433.527707 365.805983 
Q 432.994894 365.805983 432.744894 366.082545 
Q 432.496457 366.357546 432.496457 366.876295 
L 432.496457 370.102858 
Q 432.496457 370.620046 432.748019 370.896608 
Q 432.999582 371.17317 433.527707 371.17317 
z
M 438.732785 372.046608 
L 437.73591 372.046608 
L 437.73591 366.030983 
L 436.724972 366.651296 
L 436.724972 365.620046 
L 437.73591 364.946608 
L 438.732785 364.946608 
L 438.732785 372.046608 
z
M 442.37048 372.120046 
Q 441.373605 372.120046 440.85798 371.588796 
Q 440.343917 371.055983 440.343917 370.102858 
L 440.343917 366.876295 
Q 440.343917 365.918483 440.861105 365.388796 
Q 441.378292 364.859108 442.37048 364.859108 
Q 443.365792 364.859108 443.881417 365.387233 
Q 444.397042 365.913795 444.397042 366.876295 
L 444.397042 370.102858 
Q 444.397042 371.060671 443.878292 371.590358 
Q 443.361105 372.120046 442.37048 372.120046 
z
M 442.37048 371.17317 
Q 442.897042 371.17317 443.148605 370.896608 
Q 443.400167 370.620046 443.400167 370.102858 
L 443.400167 366.876295 
Q 443.400167 366.357546 443.150167 366.082545 
Q 442.90173 365.805983 442.37048 365.805983 
Q 441.837667 365.805983 441.587667 366.082545 
Q 441.33923 366.357546 441.33923 366.876295 
L 441.33923 370.102858 
Q 441.33923 370.620046 441.590792 370.896608 
Q 441.842355 371.17317 442.37048 371.17317 
z
" style="fill: #ffffff; stroke: #000000"/>
    <path d="M 420.881417 368.930983 
L 424.015792 364.946608 
L 425.240792 364.946608 
L 420.734542 370.424733 
L 420.881417 368.930983 
z
M 420.100167 364.946608 
L 421.09548 364.946608 
L 421.09548 372.046608 
L 420.100167 372.046608 
L 420.100167 364.946608 
z
M 422.062667 368.257545 
L 422.848605 367.529421 
L 425.53923 372.046608 
L 424.318917 372.046608 
L 422.062667 368.257545 
z
M 428.883371 368.521608 
L 428.878683 368.696608 
Q 428.756808 368.921608 428.509933 369.026296 
Q 428.263058 369.130983 427.927121 369.130983 
Q 427.419308 369.130983 427.033371 368.873171 
Q 426.647433 368.613795 426.434933 368.143483 
Q 426.222433 367.671608 426.222433 367.051295 
L 426.222433 367.046608 
Q 426.222433 366.357546 426.453683 365.870046 
Q 426.686496 365.380983 427.133371 365.127858 
Q 427.580246 364.873171 428.205246 364.873171 
Q 428.830246 364.873171 429.273996 365.132545 
Q 429.719308 365.39192 429.950558 365.885671 
Q 430.181808 366.377858 430.181808 367.071608 
L 430.181808 367.076296 
Q 430.181808 367.455983 430.083371 367.888796 
Q 429.986496 368.321608 429.806808 368.745046 
Q 429.777121 368.809108 429.747433 368.874733 
Q 429.719308 368.940358 429.684933 369.00442 
L 428.170871 372.046608 
L 427.095871 372.046608 
L 428.883371 368.521608 
z
M 428.205246 368.22317 
Q 428.673996 368.22317 428.930246 367.905983 
Q 429.186496 367.588796 429.186496 367.012233 
L 429.186496 367.007545 
Q 429.186496 366.446608 428.930246 366.138796 
Q 428.673996 365.830983 428.205246 365.830983 
Q 427.731808 365.830983 427.475558 366.138796 
Q 427.219308 366.446608 427.219308 367.012233 
L 427.219308 367.01692 
Q 427.219308 367.593483 427.475558 367.909108 
Q 427.731808 368.22317 428.205246 368.22317 
z
M 433.527707 372.120046 
Q 432.530832 372.120046 432.015207 371.588796 
Q 431.501144 371.055983 431.501144 370.102858 
L 431.501144 366.876295 
Q 431.501144 365.918483 432.018332 365.388796 
Q 432.535519 364.859108 433.527707 364.859108 
Q 434.523019 364.859108 435.038644 365.387233 
Q 435.554269 365.913795 435.554269 366.876295 
L 435.554269 370.102858 
Q 435.554269 371.060671 435.035519 371.590358 
Q 434.518332 372.120046 433.527707 372.120046 
z
M 433.527707 371.17317 
Q 434.054269 371.17317 434.305832 370.896608 
Q 434.557394 370.620046 434.557394 370.102858 
L 434.557394 366.876295 
Q 434.557394 366.357546 434.307394 366.082545 
Q 434.058957 365.805983 433.527707 365.805983 
Q 432.994894 365.805983 432.744894 366.082545 
Q 432.496457 366.357546 432.496457 366.876295 
L 432.496457 370.102858 
Q 432.496457 370.620046 432.748019 370.896608 
Q 432.999582 371.17317 433.527707 371.17317 
z
M 438.732785 372.046608 
L 437.73591 372.046608 
L 437.73591 366.030983 
L 436.724972 366.651296 
L 436.724972 365.620046 
L 437.73591 364.946608 
L 438.732785 364.946608 
L 438.732785 372.046608 
z
M 442.37048 372.120046 
Q 441.373605 372.120046 440.85798 371.588796 
Q 440.343917 371.055983 440.343917 370.102858 
L 440.343917 366.876295 
Q 440.343917 365.918483 440.861105 365.388796 
Q 441.378292 364.859108 442.37048 364.859108 
Q 443.365792 364.859108 443.881417 365.387233 
Q 444.397042 365.913795 444.397042 366.876295 
L 444.397042 370.102858 
Q 444.397042 371.060671 443.878292 371.590358 
Q 443.361105 372.120046 442.37048 372.120046 
z
M 442.37048 371.17317 
Q 442.897042 371.17317 443.148605 370.896608 
Q 443.400167 370.620046 443.400167 370.102858 
L 443.400167 366.876295 
Q 443.400167 366.357546 443.150167 366.082545 
Q 442.90173 365.805983 442.37048 365.805983 
Q 441.837667 365.805983 441.587667 366.082545 
Q 441.33923 366.357546 441.33923 366.876295 
L 441.33923 370.102858 
Q 441.33923 370.620046 441.590792 370.896608 
Q 441.842355 371.17317 442.37048 371.17317 
z
" style="fill: #ffffff"/>
   </g>
  </g>
 </g>
 <defs>
  <clipPath id="pe9fa22d3a8">
   <rect x="144" y="77.76" width="892.8" height="498.96"/>
  </clipPath>
 </defs>
</svg>
