<?xml version="1.0" encoding="utf-8" standalone="no"?>
<!DOCTYPE svg PUBLIC "-//W3C//DTD SVG 1.1//EN"
  "http://www.w3.org/Graphics/SVG/1.1/DTD/svg11.dtd">
<svg xmlns:xlink="http://www.w3.org/1999/xlink" width="1152pt" height="648pt" viewBox="0 0 1152 648" xmlns="http://www.w3.org/2000/svg" version="1.1">
 <metadata>
  <rdf:RDF xmlns:dc="http://purl.org/dc/elements/1.1/" xmlns:cc="http://creativecommons.org/ns#" xmlns:rdf="http://www.w3.org/1999/02/22-rdf-syntax-ns#">
   <cc:Work>
    <dc:type rdf:resource="http://purl.org/dc/dcmitype/StillImage"/>
    <dc:date>2024-04-29T10:35:42.168253</dc:date>
    <dc:format>image/svg+xml</dc:format>
    <dc:creator>
     <cc:Agent>
      <dc:title>Matplotlib v3.8.4, https://matplotlib.org/</dc:title>
     </cc:Agent>
    </dc:creator>
   </cc:Work>
  </rdf:RDF>
 </metadata>
 <defs>
  <style type="text/css">*{stroke-linejoin: round; stroke-linecap: butt}</style>
 </defs>
 <g id="figure_1">
  <g id="patch_1">
   <path d="M 0 648 
L 1152 648 
L 1152 0 
L 0 0 
L 0 648 
z
" style="fill: none"/>
  </g>
  <g id="axes_1">
   <g id="PathCollection_1">
    <defs>
     <path id="m4c66345d72" d="M 0 2.738613 
C 0.726289 2.738613 1.422928 2.450055 1.936492 1.936492 
C 2.450055 1.422928 2.738613 0.726289 2.738613 0 
C 2.738613 -0.726289 2.450055 -1.422928 1.936492 -1.936492 
C 1.422928 -2.450055 0.726289 -2.738613 0 -2.738613 
C -0.726289 -2.738613 -1.422928 -2.450055 -1.936492 -1.936492 
C -2.450055 -1.422928 -2.738613 -0.726289 -2.738613 0 
C -2.738613 0.726289 -2.450055 1.422928 -1.936492 1.936492 
C -1.422928 2.450055 -0.726289 2.738613 0 2.738613 
z
" style="stroke: #79f2b6"/>
    </defs>
    <g clip-path="url(#p9832339642)">
     <use xlink:href="#m4c66345d72" x="311.152" y="511.97994" style="fill: #79f2b6; stroke: #79f2b6"/>
     <use xlink:href="#m4c66345d72" x="208.976" y="541.1691" style="fill: #79f2b6; stroke: #79f2b6"/>
    </g>
   </g>
   <g id="text_1">
    <path d="M 319.85698 506.526508 
L 320.70698 506.526508 
L 323.324167 513.626508 
L 322.249167 513.626508 
L 320.28198 507.898383 
L 318.314792 513.626508 
L 317.239792 513.626508 
L 319.85698 506.526508 
z
M 318.446042 511.121821 
L 322.18198 511.121821 
L 322.18198 512.068696 
L 318.446042 512.068696 
L 318.446042 511.121821 
z
M 326.765964 510.101508 
L 326.761277 510.276508 
Q 326.639402 510.501508 326.392527 510.606196 
Q 326.145652 510.710883 325.809714 510.710883 
Q 325.301902 510.710883 324.915964 510.453071 
Q 324.530027 510.193696 324.317527 509.723383 
Q 324.105027 509.251508 324.105027 508.631196 
L 324.105027 508.626508 
Q 324.105027 507.937446 324.336277 507.449946 
Q 324.569089 506.960883 325.015964 506.707758 
Q 325.462839 506.453071 326.087839 506.453071 
Q 326.712839 506.453071 327.156589 506.712446 
Q 327.601902 506.971821 327.833152 507.465571 
Q 328.064402 507.957758 328.064402 508.651508 
L 328.064402 508.656196 
Q 328.064402 509.035883 327.965964 509.468696 
Q 327.869089 509.901508 327.689402 510.324946 
Q 327.659714 510.389008 327.630027 510.454633 
Q 327.601902 510.520258 327.567527 510.584321 
L 326.053464 513.626508 
L 324.978464 513.626508 
L 326.765964 510.101508 
z
M 326.087839 509.803071 
Q 326.556589 509.803071 326.812839 509.485883 
Q 327.069089 509.168696 327.069089 508.592133 
L 327.069089 508.587446 
Q 327.069089 508.026508 326.812839 507.718696 
Q 326.556589 507.410883 326.087839 507.410883 
Q 325.614402 507.410883 325.358152 507.718696 
Q 325.101902 508.026508 325.101902 508.592133 
L 325.101902 508.596821 
Q 325.101902 509.173383 325.358152 509.489008 
Q 325.614402 509.803071 326.087839 509.803071 
z
M 332.857175 513.609321 
L 332.857175 514.556196 
L 328.794675 514.556196 
L 328.794675 513.609321 
L 332.857175 513.609321 
z
M 334.915769 507.107758 
L 335.911082 507.107758 
L 335.911082 513.626508 
L 334.915769 513.626508 
L 334.915769 507.107758 
z
M 332.907957 506.526508 
L 337.918894 506.526508 
L 337.918894 507.473383 
L 332.907957 507.473383 
L 332.907957 506.526508 
z
M 340.833347 513.699946 
Q 340.320847 513.699946 339.861472 513.603071 
Q 339.40366 513.504633 339.005222 513.309321 
Q 338.606785 513.114008 338.25991 512.820258 
L 338.25991 512.820258 
L 338.880222 512.059321 
L 338.880222 512.059321 
Q 339.286472 512.410883 339.773972 512.587446 
Q 340.263035 512.762446 340.833347 512.762446 
Q 341.605222 512.762446 342.030222 512.476508 
Q 342.455222 512.190571 342.455222 511.668696 
L 342.455222 511.664008 
Q 342.455222 511.292133 342.261472 511.074946 
Q 342.069285 510.857758 341.763035 510.753071 
Q 341.458347 510.648383 340.975535 510.559321 
Q 340.95991 510.554633 340.942722 510.554633 
Q 340.927097 510.554633 340.911472 510.549946 
L 340.838035 510.535883 
Q 340.125535 510.414008 339.67866 510.260883 
Q 339.231785 510.106196 338.914597 509.698383 
Q 338.59741 509.290571 338.59741 508.539008 
L 338.59741 508.534321 
Q 338.59741 507.874946 338.892722 507.409321 
Q 339.188035 506.942133 339.75366 506.698383 
Q 340.320847 506.453071 341.11616 506.453071 
Q 341.49741 506.453071 341.86616 506.537446 
Q 342.23491 506.620258 342.592722 506.784321 
Q 342.952097 506.946821 343.298972 507.195258 
L 343.298972 507.195258 
L 342.733347 507.987446 
L 342.733347 507.987446 
Q 342.327097 507.689008 341.923972 507.540571 
Q 341.52241 507.390571 341.11616 507.390571 
Q 340.389597 507.390571 339.986472 507.681196 
Q 339.583347 507.971821 339.583347 508.504633 
L 339.583347 508.509321 
Q 339.583347 508.874946 339.79116 509.085883 
Q 339.998972 509.295258 340.308347 509.395258 
Q 340.619285 509.495258 341.170847 509.603071 
Q 341.189597 509.607758 341.206785 509.610883 
Q 341.223972 509.612446 341.244285 509.617133 
Q 341.267722 509.621821 341.29741 509.628071 
Q 341.327097 509.632758 341.350535 509.637446 
Q 341.995847 509.768696 342.427097 509.949946 
Q 342.85991 510.129633 343.150535 510.532758 
Q 343.44116 510.935883 343.44116 511.634321 
L 343.44116 511.643696 
Q 343.44116 512.293696 343.133347 512.754633 
Q 342.825535 513.215571 342.24116 513.457758 
Q 341.658347 513.699946 340.833347 513.699946 
z
M 349.959324 506.526508 
L 350.892136 506.526508 
L 350.892136 513.626508 
L 349.920261 513.626508 
L 349.920261 508.309321 
L 349.968699 508.621821 
L 348.221824 512.640571 
L 347.528074 512.640571 
L 345.779636 508.718696 
L 345.828074 508.309321 
L 345.828074 513.626508 
L 344.857761 513.626508 
L 344.857761 506.526508 
L 345.789011 506.526508 
L 347.874949 511.214008 
L 349.959324 506.526508 
z
M 354.974167 513.699946 
Q 354.236667 513.699946 353.677292 513.373383 
Q 353.11948 513.045258 352.811667 512.445258 
Q 352.503855 511.843696 352.503855 511.053071 
L 352.503855 509.104633 
Q 352.503855 508.314008 352.811667 507.714008 
Q 353.11948 507.112446 353.677292 506.782758 
Q 354.236667 506.453071 354.974167 506.453071 
Q 355.585105 506.453071 356.097605 506.715571 
Q 356.610105 506.976508 356.953855 507.454633 
Q 357.299167 507.932758 357.421042 508.562446 
L 357.421042 508.562446 
L 356.40073 508.562446 
L 356.40073 508.562446 
Q 356.30698 508.231196 356.089792 507.970258 
Q 355.872605 507.707758 355.578855 507.567133 
Q 355.286667 507.424946 354.974167 507.424946 
Q 354.539792 507.424946 354.211667 507.635883 
Q 353.885105 507.845258 353.703855 508.223383 
Q 353.524167 508.601508 353.524167 509.104633 
L 353.524167 511.053071 
Q 353.524167 511.551508 353.703855 511.932758 
Q 353.885105 512.312446 354.211667 512.520258 
Q 354.539792 512.728071 354.974167 512.728071 
Q 355.291355 512.728071 355.58198 512.596821 
Q 355.872605 512.464008 356.089792 512.206196 
Q 356.30698 511.946821 356.40073 511.590571 
L 356.40073 511.590571 
L 357.421042 511.590571 
L 357.421042 511.590571 
Q 357.299167 512.220258 356.952292 512.698383 
Q 356.605417 513.176508 356.092917 513.439008 
Q 355.580417 513.699946 354.974167 513.699946 
z
" style="fill: #ffffff; stroke: #000000"/>
    <path d="M 319.85698 506.526508 
L 320.70698 506.526508 
L 323.324167 513.626508 
L 322.249167 513.626508 
L 320.28198 507.898383 
L 318.314792 513.626508 
L 317.239792 513.626508 
L 319.85698 506.526508 
z
M 318.446042 511.121821 
L 322.18198 511.121821 
L 322.18198 512.068696 
L 318.446042 512.068696 
L 318.446042 511.121821 
z
M 326.765964 510.101508 
L 326.761277 510.276508 
Q 326.639402 510.501508 326.392527 510.606196 
Q 326.145652 510.710883 325.809714 510.710883 
Q 325.301902 510.710883 324.915964 510.453071 
Q 324.530027 510.193696 324.317527 509.723383 
Q 324.105027 509.251508 324.105027 508.631196 
L 324.105027 508.626508 
Q 324.105027 507.937446 324.336277 507.449946 
Q 324.569089 506.960883 325.015964 506.707758 
Q 325.462839 506.453071 326.087839 506.453071 
Q 326.712839 506.453071 327.156589 506.712446 
Q 327.601902 506.971821 327.833152 507.465571 
Q 328.064402 507.957758 328.064402 508.651508 
L 328.064402 508.656196 
Q 328.064402 509.035883 327.965964 509.468696 
Q 327.869089 509.901508 327.689402 510.324946 
Q 327.659714 510.389008 327.630027 510.454633 
Q 327.601902 510.520258 327.567527 510.584321 
L 326.053464 513.626508 
L 324.978464 513.626508 
L 326.765964 510.101508 
z
M 326.087839 509.803071 
Q 326.556589 509.803071 326.812839 509.485883 
Q 327.069089 509.168696 327.069089 508.592133 
L 327.069089 508.587446 
Q 327.069089 508.026508 326.812839 507.718696 
Q 326.556589 507.410883 326.087839 507.410883 
Q 325.614402 507.410883 325.358152 507.718696 
Q 325.101902 508.026508 325.101902 508.592133 
L 325.101902 508.596821 
Q 325.101902 509.173383 325.358152 509.489008 
Q 325.614402 509.803071 326.087839 509.803071 
z
M 332.857175 513.609321 
L 332.857175 514.556196 
L 328.794675 514.556196 
L 328.794675 513.609321 
L 332.857175 513.609321 
z
M 334.915769 507.107758 
L 335.911082 507.107758 
L 335.911082 513.626508 
L 334.915769 513.626508 
L 334.915769 507.107758 
z
M 332.907957 506.526508 
L 337.918894 506.526508 
L 337.918894 507.473383 
L 332.907957 507.473383 
L 332.907957 506.526508 
z
M 340.833347 513.699946 
Q 340.320847 513.699946 339.861472 513.603071 
Q 339.40366 513.504633 339.005222 513.309321 
Q 338.606785 513.114008 338.25991 512.820258 
L 338.25991 512.820258 
L 338.880222 512.059321 
L 338.880222 512.059321 
Q 339.286472 512.410883 339.773972 512.587446 
Q 340.263035 512.762446 340.833347 512.762446 
Q 341.605222 512.762446 342.030222 512.476508 
Q 342.455222 512.190571 342.455222 511.668696 
L 342.455222 511.664008 
Q 342.455222 511.292133 342.261472 511.074946 
Q 342.069285 510.857758 341.763035 510.753071 
Q 341.458347 510.648383 340.975535 510.559321 
Q 340.95991 510.554633 340.942722 510.554633 
Q 340.927097 510.554633 340.911472 510.549946 
L 340.838035 510.535883 
Q 340.125535 510.414008 339.67866 510.260883 
Q 339.231785 510.106196 338.914597 509.698383 
Q 338.59741 509.290571 338.59741 508.539008 
L 338.59741 508.534321 
Q 338.59741 507.874946 338.892722 507.409321 
Q 339.188035 506.942133 339.75366 506.698383 
Q 340.320847 506.453071 341.11616 506.453071 
Q 341.49741 506.453071 341.86616 506.537446 
Q 342.23491 506.620258 342.592722 506.784321 
Q 342.952097 506.946821 343.298972 507.195258 
L 343.298972 507.195258 
L 342.733347 507.987446 
L 342.733347 507.987446 
Q 342.327097 507.689008 341.923972 507.540571 
Q 341.52241 507.390571 341.11616 507.390571 
Q 340.389597 507.390571 339.986472 507.681196 
Q 339.583347 507.971821 339.583347 508.504633 
L 339.583347 508.509321 
Q 339.583347 508.874946 339.79116 509.085883 
Q 339.998972 509.295258 340.308347 509.395258 
Q 340.619285 509.495258 341.170847 509.603071 
Q 341.189597 509.607758 341.206785 509.610883 
Q 341.223972 509.612446 341.244285 509.617133 
Q 341.267722 509.621821 341.29741 509.628071 
Q 341.327097 509.632758 341.350535 509.637446 
Q 341.995847 509.768696 342.427097 509.949946 
Q 342.85991 510.129633 343.150535 510.532758 
Q 343.44116 510.935883 343.44116 511.634321 
L 343.44116 511.643696 
Q 343.44116 512.293696 343.133347 512.754633 
Q 342.825535 513.215571 342.24116 513.457758 
Q 341.658347 513.699946 340.833347 513.699946 
z
M 349.959324 506.526508 
L 350.892136 506.526508 
L 350.892136 513.626508 
L 349.920261 513.626508 
L 349.920261 508.309321 
L 349.968699 508.621821 
L 348.221824 512.640571 
L 347.528074 512.640571 
L 345.779636 508.718696 
L 345.828074 508.309321 
L 345.828074 513.626508 
L 344.857761 513.626508 
L 344.857761 506.526508 
L 345.789011 506.526508 
L 347.874949 511.214008 
L 349.959324 506.526508 
z
M 354.974167 513.699946 
Q 354.236667 513.699946 353.677292 513.373383 
Q 353.11948 513.045258 352.811667 512.445258 
Q 352.503855 511.843696 352.503855 511.053071 
L 352.503855 509.104633 
Q 352.503855 508.314008 352.811667 507.714008 
Q 353.11948 507.112446 353.677292 506.782758 
Q 354.236667 506.453071 354.974167 506.453071 
Q 355.585105 506.453071 356.097605 506.715571 
Q 356.610105 506.976508 356.953855 507.454633 
Q 357.299167 507.932758 357.421042 508.562446 
L 357.421042 508.562446 
L 356.40073 508.562446 
L 356.40073 508.562446 
Q 356.30698 508.231196 356.089792 507.970258 
Q 355.872605 507.707758 355.578855 507.567133 
Q 355.286667 507.424946 354.974167 507.424946 
Q 354.539792 507.424946 354.211667 507.635883 
Q 353.885105 507.845258 353.703855 508.223383 
Q 353.524167 508.601508 353.524167 509.104633 
L 353.524167 511.053071 
Q 353.524167 511.551508 353.703855 511.932758 
Q 353.885105 512.312446 354.211667 512.520258 
Q 354.539792 512.728071 354.974167 512.728071 
Q 355.291355 512.728071 355.58198 512.596821 
Q 355.872605 512.464008 356.089792 512.206196 
Q 356.30698 511.946821 356.40073 511.590571 
L 356.40073 511.590571 
L 357.421042 511.590571 
L 357.421042 511.590571 
Q 357.299167 512.220258 356.952292 512.698383 
Q 356.605417 513.176508 356.092917 513.439008 
Q 355.580417 513.699946 354.974167 513.699946 
z
" style="fill: #ffffff"/>
   </g>
   <g id="text_2">
    <path d="M 217.68098 535.715668 
L 218.53098 535.715668 
L 221.148167 542.815668 
L 220.073167 542.815668 
L 218.10598 537.087543 
L 216.138792 542.815668 
L 215.063792 542.815668 
L 217.68098 535.715668 
z
M 216.270042 540.31098 
L 220.00598 540.31098 
L 220.00598 541.257856 
L 216.270042 541.257856 
L 216.270042 540.31098 
z
M 224.589964 539.290668 
L 224.585277 539.465668 
Q 224.463402 539.690668 224.216527 539.795355 
Q 223.969652 539.900043 223.633714 539.900043 
Q 223.125902 539.900043 222.739964 539.64223 
Q 222.354027 539.382856 222.141527 538.912543 
Q 221.929027 538.440668 221.929027 537.820356 
L 221.929027 537.815668 
Q 221.929027 537.126605 222.160277 536.639105 
Q 222.393089 536.150043 222.839964 535.896918 
Q 223.286839 535.64223 223.911839 535.64223 
Q 224.536839 535.64223 224.980589 535.901605 
Q 225.425902 536.16098 225.657152 536.65473 
Q 225.888402 537.146918 225.888402 537.840668 
L 225.888402 537.845355 
Q 225.888402 538.225043 225.789964 538.657855 
Q 225.693089 539.090668 225.513402 539.514105 
Q 225.483714 539.578168 225.454027 539.643793 
Q 225.425902 539.709418 225.391527 539.773481 
L 223.877464 542.815668 
L 222.802464 542.815668 
L 224.589964 539.290668 
z
M 223.911839 538.992231 
Q 224.380589 538.992231 224.636839 538.675043 
Q 224.893089 538.357855 224.893089 537.781293 
L 224.893089 537.776605 
Q 224.893089 537.215668 224.636839 536.907855 
Q 224.380589 536.600043 223.911839 536.600043 
Q 223.438402 536.600043 223.182152 536.907855 
Q 222.925902 537.215668 222.925902 537.781293 
L 222.925902 537.78598 
Q 222.925902 538.362543 223.182152 538.678168 
Q 223.438402 538.992231 223.911839 538.992231 
z
M 230.681175 542.79848 
L 230.681175 543.745355 
L 226.618675 543.745355 
L 226.618675 542.79848 
L 230.681175 542.79848 
z
M 232.739769 536.296918 
L 233.735082 536.296918 
L 233.735082 542.815668 
L 232.739769 542.815668 
L 232.739769 536.296918 
z
M 230.731957 535.715668 
L 235.742894 535.715668 
L 235.742894 536.662543 
L 230.731957 536.662543 
L 230.731957 535.715668 
z
M 238.657347 542.889105 
Q 238.144847 542.889105 237.685472 542.79223 
Q 237.22766 542.693793 236.829222 542.49848 
Q 236.430785 542.303168 236.08391 542.009418 
L 236.08391 542.009418 
L 236.704222 541.24848 
L 236.704222 541.24848 
Q 237.110472 541.600043 237.597972 541.776605 
Q 238.087035 541.951605 238.657347 541.951605 
Q 239.429222 541.951605 239.854222 541.665668 
Q 240.279222 541.37973 240.279222 540.857855 
L 240.279222 540.853168 
Q 240.279222 540.481293 240.085472 540.264105 
Q 239.893285 540.046918 239.587035 539.94223 
Q 239.282347 539.837543 238.799535 539.74848 
Q 238.78391 539.743793 238.766722 539.743793 
Q 238.751097 539.743793 238.735472 539.739105 
L 238.662035 539.725043 
Q 237.949535 539.603168 237.50266 539.450043 
Q 237.055785 539.295355 236.738597 538.887543 
Q 236.42141 538.47973 236.42141 537.728168 
L 236.42141 537.72348 
Q 236.42141 537.064105 236.716722 536.59848 
Q 237.012035 536.131293 237.57766 535.887543 
Q 238.144847 535.64223 238.94016 535.64223 
Q 239.32141 535.64223 239.69016 535.726606 
Q 240.05891 535.809418 240.416722 535.97348 
Q 240.776097 536.13598 241.122972 536.384418 
L 241.122972 536.384418 
L 240.557347 537.176605 
L 240.557347 537.176605 
Q 240.151097 536.878168 239.747972 536.72973 
Q 239.34641 536.57973 238.94016 536.57973 
Q 238.213597 536.57973 237.810472 536.870355 
Q 237.407347 537.16098 237.407347 537.693793 
L 237.407347 537.69848 
Q 237.407347 538.064105 237.61516 538.275043 
Q 237.822972 538.484418 238.132347 538.584418 
Q 238.443285 538.684418 238.994847 538.79223 
Q 239.013597 538.796918 239.030785 538.800043 
Q 239.047972 538.801605 239.068285 538.806293 
Q 239.091722 538.81098 239.12141 538.81723 
Q 239.151097 538.821918 239.174535 538.826605 
Q 239.819847 538.957855 240.251097 539.139105 
Q 240.68391 539.318793 240.974535 539.721918 
Q 241.26516 540.125043 241.26516 540.82348 
L 241.26516 540.832855 
Q 241.26516 541.482855 240.957347 541.943793 
Q 240.649535 542.40473 240.06516 542.646918 
Q 239.482347 542.889105 238.657347 542.889105 
z
M 247.783324 535.715668 
L 248.716136 535.715668 
L 248.716136 542.815668 
L 247.744261 542.815668 
L 247.744261 537.49848 
L 247.792699 537.81098 
L 246.045824 541.82973 
L 245.352074 541.82973 
L 243.603636 537.907855 
L 243.652074 537.49848 
L 243.652074 542.815668 
L 242.681761 542.815668 
L 242.681761 535.715668 
L 243.613011 535.715668 
L 245.698949 540.403168 
L 247.783324 535.715668 
z
M 252.798167 542.889105 
Q 252.060667 542.889105 251.501292 542.562543 
Q 250.94348 542.234418 250.635667 541.634418 
Q 250.327855 541.032855 250.327855 540.242231 
L 250.327855 538.293793 
Q 250.327855 537.503168 250.635667 536.903168 
Q 250.94348 536.301605 251.501292 535.971918 
Q 252.060667 535.64223 252.798167 535.64223 
Q 253.409105 535.64223 253.921605 535.90473 
Q 254.434105 536.165668 254.777855 536.643793 
Q 255.123167 537.121918 255.245042 537.751605 
L 255.245042 537.751605 
L 254.22473 537.751605 
L 254.22473 537.751605 
Q 254.13098 537.420355 253.913792 537.159418 
Q 253.696605 536.896918 253.402855 536.756293 
Q 253.110667 536.614105 252.798167 536.614105 
Q 252.363792 536.614105 252.035667 536.825043 
Q 251.709105 537.034418 251.527855 537.412543 
Q 251.348167 537.790668 251.348167 538.293793 
L 251.348167 540.242231 
Q 251.348167 540.740668 251.527855 541.121918 
Q 251.709105 541.501605 252.035667 541.709418 
Q 252.363792 541.91723 252.798167 541.91723 
Q 253.115355 541.91723 253.40598 541.78598 
Q 253.696605 541.653168 253.913792 541.395355 
Q 254.13098 541.13598 254.22473 540.77973 
L 254.22473 540.77973 
L 255.245042 540.77973 
L 255.245042 540.77973 
Q 255.123167 541.409418 254.776292 541.887543 
Q 254.429417 542.365668 253.916917 542.628168 
Q 253.404417 542.889105 252.798167 542.889105 
z
" style="fill: #ffffff; stroke: #000000"/>
    <path d="M 217.68098 535.715668 
L 218.53098 535.715668 
L 221.148167 542.815668 
L 220.073167 542.815668 
L 218.10598 537.087543 
L 216.138792 542.815668 
L 215.063792 542.815668 
L 217.68098 535.715668 
z
M 216.270042 540.31098 
L 220.00598 540.31098 
L 220.00598 541.257856 
L 216.270042 541.257856 
L 216.270042 540.31098 
z
M 224.589964 539.290668 
L 224.585277 539.465668 
Q 224.463402 539.690668 224.216527 539.795355 
Q 223.969652 539.900043 223.633714 539.900043 
Q 223.125902 539.900043 222.739964 539.64223 
Q 222.354027 539.382856 222.141527 538.912543 
Q 221.929027 538.440668 221.929027 537.820356 
L 221.929027 537.815668 
Q 221.929027 537.126605 222.160277 536.639105 
Q 222.393089 536.150043 222.839964 535.896918 
Q 223.286839 535.64223 223.911839 535.64223 
Q 224.536839 535.64223 224.980589 535.901605 
Q 225.425902 536.16098 225.657152 536.65473 
Q 225.888402 537.146918 225.888402 537.840668 
L 225.888402 537.845355 
Q 225.888402 538.225043 225.789964 538.657855 
Q 225.693089 539.090668 225.513402 539.514105 
Q 225.483714 539.578168 225.454027 539.643793 
Q 225.425902 539.709418 225.391527 539.773481 
L 223.877464 542.815668 
L 222.802464 542.815668 
L 224.589964 539.290668 
z
M 223.911839 538.992231 
Q 224.380589 538.992231 224.636839 538.675043 
Q 224.893089 538.357855 224.893089 537.781293 
L 224.893089 537.776605 
Q 224.893089 537.215668 224.636839 536.907855 
Q 224.380589 536.600043 223.911839 536.600043 
Q 223.438402 536.600043 223.182152 536.907855 
Q 222.925902 537.215668 222.925902 537.781293 
L 222.925902 537.78598 
Q 222.925902 538.362543 223.182152 538.678168 
Q 223.438402 538.992231 223.911839 538.992231 
z
M 230.681175 542.79848 
L 230.681175 543.745355 
L 226.618675 543.745355 
L 226.618675 542.79848 
L 230.681175 542.79848 
z
M 232.739769 536.296918 
L 233.735082 536.296918 
L 233.735082 542.815668 
L 232.739769 542.815668 
L 232.739769 536.296918 
z
M 230.731957 535.715668 
L 235.742894 535.715668 
L 235.742894 536.662543 
L 230.731957 536.662543 
L 230.731957 535.715668 
z
M 238.657347 542.889105 
Q 238.144847 542.889105 237.685472 542.79223 
Q 237.22766 542.693793 236.829222 542.49848 
Q 236.430785 542.303168 236.08391 542.009418 
L 236.08391 542.009418 
L 236.704222 541.24848 
L 236.704222 541.24848 
Q 237.110472 541.600043 237.597972 541.776605 
Q 238.087035 541.951605 238.657347 541.951605 
Q 239.429222 541.951605 239.854222 541.665668 
Q 240.279222 541.37973 240.279222 540.857855 
L 240.279222 540.853168 
Q 240.279222 540.481293 240.085472 540.264105 
Q 239.893285 540.046918 239.587035 539.94223 
Q 239.282347 539.837543 238.799535 539.74848 
Q 238.78391 539.743793 238.766722 539.743793 
Q 238.751097 539.743793 238.735472 539.739105 
L 238.662035 539.725043 
Q 237.949535 539.603168 237.50266 539.450043 
Q 237.055785 539.295355 236.738597 538.887543 
Q 236.42141 538.47973 236.42141 537.728168 
L 236.42141 537.72348 
Q 236.42141 537.064105 236.716722 536.59848 
Q 237.012035 536.131293 237.57766 535.887543 
Q 238.144847 535.64223 238.94016 535.64223 
Q 239.32141 535.64223 239.69016 535.726606 
Q 240.05891 535.809418 240.416722 535.97348 
Q 240.776097 536.13598 241.122972 536.384418 
L 241.122972 536.384418 
L 240.557347 537.176605 
L 240.557347 537.176605 
Q 240.151097 536.878168 239.747972 536.72973 
Q 239.34641 536.57973 238.94016 536.57973 
Q 238.213597 536.57973 237.810472 536.870355 
Q 237.407347 537.16098 237.407347 537.693793 
L 237.407347 537.69848 
Q 237.407347 538.064105 237.61516 538.275043 
Q 237.822972 538.484418 238.132347 538.584418 
Q 238.443285 538.684418 238.994847 538.79223 
Q 239.013597 538.796918 239.030785 538.800043 
Q 239.047972 538.801605 239.068285 538.806293 
Q 239.091722 538.81098 239.12141 538.81723 
Q 239.151097 538.821918 239.174535 538.826605 
Q 239.819847 538.957855 240.251097 539.139105 
Q 240.68391 539.318793 240.974535 539.721918 
Q 241.26516 540.125043 241.26516 540.82348 
L 241.26516 540.832855 
Q 241.26516 541.482855 240.957347 541.943793 
Q 240.649535 542.40473 240.06516 542.646918 
Q 239.482347 542.889105 238.657347 542.889105 
z
M 247.783324 535.715668 
L 248.716136 535.715668 
L 248.716136 542.815668 
L 247.744261 542.815668 
L 247.744261 537.49848 
L 247.792699 537.81098 
L 246.045824 541.82973 
L 245.352074 541.82973 
L 243.603636 537.907855 
L 243.652074 537.49848 
L 243.652074 542.815668 
L 242.681761 542.815668 
L 242.681761 535.715668 
L 243.613011 535.715668 
L 245.698949 540.403168 
L 247.783324 535.715668 
z
M 252.798167 542.889105 
Q 252.060667 542.889105 251.501292 542.562543 
Q 250.94348 542.234418 250.635667 541.634418 
Q 250.327855 541.032855 250.327855 540.242231 
L 250.327855 538.293793 
Q 250.327855 537.503168 250.635667 536.903168 
Q 250.94348 536.301605 251.501292 535.971918 
Q 252.060667 535.64223 252.798167 535.64223 
Q 253.409105 535.64223 253.921605 535.90473 
Q 254.434105 536.165668 254.777855 536.643793 
Q 255.123167 537.121918 255.245042 537.751605 
L 255.245042 537.751605 
L 254.22473 537.751605 
L 254.22473 537.751605 
Q 254.13098 537.420355 253.913792 537.159418 
Q 253.696605 536.896918 253.402855 536.756293 
Q 253.110667 536.614105 252.798167 536.614105 
Q 252.363792 536.614105 252.035667 536.825043 
Q 251.709105 537.034418 251.527855 537.412543 
Q 251.348167 537.790668 251.348167 538.293793 
L 251.348167 540.242231 
Q 251.348167 540.740668 251.527855 541.121918 
Q 251.709105 541.501605 252.035667 541.709418 
Q 252.363792 541.91723 252.798167 541.91723 
Q 253.115355 541.91723 253.40598 541.78598 
Q 253.696605 541.653168 253.913792 541.395355 
Q 254.13098 541.13598 254.22473 540.77973 
L 254.22473 540.77973 
L 255.245042 540.77973 
L 255.245042 540.77973 
Q 255.123167 541.409418 254.776292 541.887543 
Q 254.429417 542.365668 253.916917 542.628168 
Q 253.404417 542.889105 252.798167 542.889105 
z
" style="fill: #ffffff"/>
   </g>
  </g>
 </g>
 <defs>
  <clipPath id="p9832339642">
   <rect x="144" y="77.76" width="892.8" height="498.96"/>
  </clipPath>
 </defs>
</svg>
