<?xml version="1.0" encoding="utf-8" standalone="no"?>
<!DOCTYPE svg PUBLIC "-//W3C//DTD SVG 1.1//EN"
  "http://www.w3.org/Graphics/SVG/1.1/DTD/svg11.dtd">
<svg xmlns:xlink="http://www.w3.org/1999/xlink" width="1152pt" height="648pt" viewBox="0 0 1152 648" xmlns="http://www.w3.org/2000/svg" version="1.1">
 <metadata>
  <rdf:RDF xmlns:dc="http://purl.org/dc/elements/1.1/" xmlns:cc="http://creativecommons.org/ns#" xmlns:rdf="http://www.w3.org/1999/02/22-rdf-syntax-ns#">
   <cc:Work>
    <dc:type rdf:resource="http://purl.org/dc/dcmitype/StillImage"/>
    <dc:date>2024-03-14T14:55:07.757844</dc:date>
    <dc:format>image/svg+xml</dc:format>
    <dc:creator>
     <cc:Agent>
      <dc:title>Matplotlib v3.8.3, https://matplotlib.org/</dc:title>
     </cc:Agent>
    </dc:creator>
   </cc:Work>
  </rdf:RDF>
 </metadata>
 <defs>
  <style type="text/css">*{stroke-linejoin: round; stroke-linecap: butt}</style>
 </defs>
 <g id="figure_1">
  <g id="patch_1">
   <path d="M 0 648 
L 1152 648 
L 1152 0 
L 0 0 
L 0 648 
z
" style="fill: none"/>
  </g>
  <g id="axes_1">
   <g id="line2d_1">
    <path d="M 242.208 481.031552 
L 246.321293 477.560893 
L 250.434586 474.171857 
L 254.547879 470.862527 
L 258.661172 467.631034 
L 262.774465 464.47555 
L 266.887758 461.39429 
L 271.001051 458.385513 
L 275.114343 455.447515 
L 279.227636 452.578636 
L 283.340929 449.777251 
L 287.454222 447.041775 
L 291.567515 444.370661 
L 295.680808 441.762397 
L 299.794101 439.215505 
L 303.907394 436.728545 
L 308.020687 434.300107 
L 312.13398 431.928818 
L 316.247273 429.613333 
L 320.360566 427.352342 
L 324.473859 425.144564 
L 328.587152 422.988747 
L 332.700444 420.883672 
L 336.813737 418.828144 
L 340.92703 416.821 
L 345.040323 414.861101 
L 349.153616 412.947337 
L 353.266909 411.078624 
L 357.380202 409.253901 
L 361.493495 407.472135 
L 365.606788 405.732315 
L 369.720081 404.033455 
L 373.833374 402.374591 
L 377.946667 400.754783 
L 382.05996 399.173113 
L 386.173253 397.628682 
L 390.286545 396.120616 
L 394.399838 394.648059 
L 398.513131 393.210175 
L 402.626424 391.806148 
L 406.739717 390.435183 
L 410.85301 389.096501 
L 414.966303 387.789342 
L 419.079596 386.512966 
L 423.192889 385.266647 
L 427.306182 384.049678 
L 431.419475 382.861369 
L 435.532768 381.701045 
L 439.646061 380.568048 
L 443.759354 379.461734 
L 447.872646 378.381476 
L 451.985939 377.32666 
L 456.099232 376.296687 
L 460.212525 375.290973 
L 464.325818 374.308946 
L 468.439111 373.35005 
L 472.552404 372.413739 
L 476.665697 371.499481 
L 480.77899 370.606759 
L 484.892283 369.735064 
L 489.005576 368.883902 
L 493.118869 368.052789 
L 497.232162 367.241254 
L 501.345455 366.448835 
L 505.458747 365.675082 
L 509.57204 364.919556 
L 513.685333 364.181828 
L 517.798626 363.461478 
L 521.911919 362.758097 
L 526.025212 362.071286 
L 530.138505 361.400655 
L 534.251798 360.745822 
L 538.365091 360.106416 
L 542.478384 359.482073 
L 546.591677 358.872439 
L 550.70497 358.277167 
L 554.818263 357.695918 
L 558.931556 357.128364 
L 563.044848 356.57418 
L 567.158141 356.033053 
L 571.271434 355.504675 
L 575.384727 354.988745 
L 579.49802 354.48497 
L 583.611313 353.993065 
L 587.724606 353.512749 
L 591.837899 353.043749 
L 595.951192 352.585799 
L 600.064485 352.138639 
L 604.177778 351.702014 
L 608.291071 351.275677 
L 612.404364 350.859385 
L 616.517657 350.452901 
L 620.630949 350.055995 
L 624.744242 349.66844 
L 628.857535 349.290017 
L 632.970828 348.92051 
L 637.084121 348.55971 
L 641.197414 348.207411 
L 645.310707 347.863413 
L 649.424 347.52752 
" clip-path="url(#p0b1b62bf7f)" style="fill: none; stroke: #30b2f2; stroke-width: 3; stroke-linecap: round"/>
   </g>
   <g id="text_1">
    <path d="M 658.32898 349.247526 
Q 657.81648 349.247526 657.357105 349.150651 
Q 656.899293 349.052213 656.500855 348.856901 
Q 656.102418 348.661588 655.755542 348.367838 
L 655.755542 348.367838 
L 656.375855 347.606901 
L 656.375855 347.606901 
Q 656.782105 347.958463 657.269605 348.135026 
Q 657.758668 348.310026 658.32898 348.310026 
Q 659.100855 348.310026 659.525855 348.024088 
Q 659.950855 347.738151 659.950855 347.216276 
L 659.950855 347.211588 
Q 659.950855 346.839713 659.757105 346.622526 
Q 659.564917 346.405338 659.258668 346.300651 
Q 658.95398 346.195963 658.471167 346.106901 
Q 658.455542 346.102213 658.438355 346.102213 
Q 658.42273 346.102213 658.407105 346.097526 
L 658.333667 346.083463 
Q 657.621167 345.961588 657.174292 345.808463 
Q 656.727418 345.653776 656.41023 345.245963 
Q 656.093042 344.838151 656.093042 344.086588 
L 656.093042 344.081901 
Q 656.093042 343.422526 656.388355 342.956901 
Q 656.683667 342.489713 657.249292 342.245963 
Q 657.81648 342.000651 658.611792 342.000651 
Q 658.993043 342.000651 659.361792 342.085026 
Q 659.730542 342.167838 660.088355 342.331901 
Q 660.44773 342.494401 660.794605 342.742838 
L 660.794605 342.742838 
L 660.22898 343.535026 
L 660.22898 343.535026 
Q 659.82273 343.236588 659.419605 343.088151 
Q 659.018042 342.938151 658.611792 342.938151 
Q 657.88523 342.938151 657.482105 343.228776 
Q 657.07898 343.519401 657.07898 344.052213 
L 657.07898 344.056901 
Q 657.07898 344.422526 657.286792 344.633463 
Q 657.494605 344.842838 657.80398 344.942838 
Q 658.114917 345.042838 658.66648 345.150651 
Q 658.68523 345.155338 658.702417 345.158463 
Q 658.719605 345.160026 658.739917 345.164713 
Q 658.763355 345.169401 658.793042 345.175651 
Q 658.82273 345.180338 658.846167 345.185026 
Q 659.49148 345.316276 659.92273 345.497526 
Q 660.355542 345.677213 660.646167 346.080338 
Q 660.936792 346.483463 660.936792 347.181901 
L 660.936792 347.191276 
Q 660.936792 347.841276 660.62898 348.302213 
Q 660.321168 348.763151 659.736792 349.005338 
Q 659.15398 349.247526 658.32898 349.247526 
z
M 663.026832 348.227213 
L 664.633082 348.227213 
Q 665.419019 348.227213 665.850269 347.819401 
Q 666.283082 347.411588 666.283082 346.669401 
L 666.283082 344.578776 
Q 666.283082 343.836588 665.850269 343.428776 
Q 665.419019 343.020963 664.633082 343.020963 
L 663.026832 343.020963 
L 663.026832 342.074088 
L 664.603394 342.074088 
Q 665.458082 342.074088 666.062769 342.372526 
Q 666.669019 342.669401 666.986207 343.241276 
Q 667.303394 343.813151 667.303394 344.617838 
L 667.303394 346.630338 
Q 667.303394 347.435026 666.986207 348.006901 
Q 666.669019 348.578776 666.061207 348.877213 
Q 665.453394 349.174088 664.598707 349.174088 
L 663.026832 349.174088 
L 663.026832 348.227213 
z
M 662.353394 342.074088 
L 663.348707 342.074088 
L 663.348707 349.174088 
L 662.353394 349.174088 
L 662.353394 342.074088 
z
M 670.848707 349.247526 
Q 670.204957 349.247526 669.715894 349.003776 
Q 669.228394 348.758463 668.961207 348.311588 
Q 668.695582 347.864713 668.695582 347.274088 
L 668.695582 347.156901 
Q 668.695582 346.625651 668.961207 346.156901 
Q 669.228394 345.688151 669.672144 345.449088 
Q 669.295582 345.242838 669.069019 344.855338 
Q 668.842457 344.466276 668.842457 344.036588 
L 668.842457 343.866276 
Q 668.842457 343.310026 669.090894 342.888151 
Q 669.339332 342.464713 669.794019 342.233463 
Q 670.248707 342.000651 670.848707 342.000651 
Q 671.448707 342.000651 671.903394 342.233463 
Q 672.358082 342.464713 672.606519 342.888151 
Q 672.854957 343.310026 672.854957 343.866276 
L 672.854957 344.036588 
Q 672.854957 344.477213 672.623707 344.863151 
Q 672.392457 345.247526 672.011207 345.449088 
Q 672.459644 345.692838 672.729957 346.160026 
Q 673.001832 346.625651 673.001832 347.156901 
L 673.001832 347.274088 
Q 673.001832 347.864713 672.736207 348.311588 
Q 672.470582 348.758463 671.981519 349.003776 
Q 671.494019 349.247526 670.848707 349.247526 
z
M 670.848707 348.289713 
Q 671.195582 348.289713 671.458082 348.153776 
Q 671.722144 348.016276 671.865894 347.770963 
Q 672.011207 347.524088 672.011207 347.200651 
L 672.011207 347.133463 
Q 672.011207 346.805338 671.865894 346.560026 
Q 671.722144 346.313151 671.458082 346.177213 
Q 671.195582 346.039713 670.848707 346.039713 
Q 670.501832 346.039713 670.237769 346.177213 
Q 669.975269 346.313151 669.829957 346.561588 
Q 669.686207 346.810026 669.686207 347.138151 
L 669.686207 347.211588 
Q 669.686207 347.533463 669.829957 347.777213 
Q 669.975269 348.020963 670.237769 348.155338 
Q 670.501832 348.289713 670.848707 348.289713 
z
M 670.848707 345.081901 
Q 671.147144 345.081901 671.375269 344.953776 
Q 671.604957 344.824088 671.731519 344.585026 
Q 671.859644 344.344401 671.859644 344.031901 
L 671.859644 343.964713 
Q 671.859644 343.666276 671.731519 343.436588 
Q 671.604957 343.206901 671.375269 343.083463 
Q 671.147144 342.958463 670.848707 342.958463 
Q 670.550269 342.958463 670.320582 343.083463 
Q 670.092457 343.206901 669.964332 343.436588 
Q 669.837769 343.666276 669.837769 343.969401 
L 669.837769 344.042838 
Q 669.837769 344.349088 669.964332 344.586588 
Q 670.092457 344.824088 670.320582 344.953776 
Q 670.550269 345.081901 670.848707 345.081901 
z
M 676.473707 349.247526 
Q 675.829957 349.247526 675.340894 349.003776 
Q 674.853394 348.758463 674.586207 348.311588 
Q 674.320582 347.864713 674.320582 347.274088 
L 674.320582 347.156901 
Q 674.320582 346.625651 674.586207 346.156901 
Q 674.853394 345.688151 675.297144 345.449088 
Q 674.920582 345.242838 674.694019 344.855338 
Q 674.467457 344.466276 674.467457 344.036588 
L 674.467457 343.866276 
Q 674.467457 343.310026 674.715894 342.888151 
Q 674.964332 342.464713 675.419019 342.233463 
Q 675.873707 342.000651 676.473707 342.000651 
Q 677.073707 342.000651 677.528394 342.233463 
Q 677.983082 342.464713 678.231519 342.888151 
Q 678.479957 343.310026 678.479957 343.866276 
L 678.479957 344.036588 
Q 678.479957 344.477213 678.248707 344.863151 
Q 678.017457 345.247526 677.636207 345.449088 
Q 678.084644 345.692838 678.354957 346.160026 
Q 678.626832 346.625651 678.626832 347.156901 
L 678.626832 347.274088 
Q 678.626832 347.864713 678.361207 348.311588 
Q 678.095582 348.758463 677.606519 349.003776 
Q 677.119019 349.247526 676.473707 349.247526 
z
M 676.473707 348.289713 
Q 676.820582 348.289713 677.083082 348.153776 
Q 677.347144 348.016276 677.490894 347.770963 
Q 677.636207 347.524088 677.636207 347.200651 
L 677.636207 347.133463 
Q 677.636207 346.805338 677.490894 346.560026 
Q 677.347144 346.313151 677.083082 346.177213 
Q 676.820582 346.039713 676.473707 346.039713 
Q 676.126832 346.039713 675.862769 346.177213 
Q 675.600269 346.313151 675.454957 346.561588 
Q 675.311207 346.810026 675.311207 347.138151 
L 675.311207 347.211588 
Q 675.311207 347.533463 675.454957 347.777213 
Q 675.600269 348.020963 675.862769 348.155338 
Q 676.126832 348.289713 676.473707 348.289713 
z
M 676.473707 345.081901 
Q 676.772144 345.081901 677.000269 344.953776 
Q 677.229957 344.824088 677.356519 344.585026 
Q 677.484644 344.344401 677.484644 344.031901 
L 677.484644 343.964713 
Q 677.484644 343.666276 677.356519 343.436588 
Q 677.229957 343.206901 677.000269 343.083463 
Q 676.772144 342.958463 676.473707 342.958463 
Q 676.175269 342.958463 675.945582 343.083463 
Q 675.717457 343.206901 675.589332 343.436588 
Q 675.462769 343.666276 675.462769 343.969401 
L 675.462769 344.042838 
Q 675.462769 344.349088 675.589332 344.586588 
Q 675.717457 344.824088 675.945582 344.953776 
Q 676.175269 345.081901 676.473707 345.081901 
z
M 682.098707 349.247526 
Q 681.454957 349.247526 680.965894 349.003776 
Q 680.478394 348.758463 680.211207 348.311588 
Q 679.945582 347.864713 679.945582 347.274088 
L 679.945582 347.156901 
Q 679.945582 346.625651 680.211207 346.156901 
Q 680.478394 345.688151 680.922144 345.449088 
Q 680.545582 345.242838 680.319019 344.855338 
Q 680.092457 344.466276 680.092457 344.036588 
L 680.092457 343.866276 
Q 680.092457 343.310026 680.340894 342.888151 
Q 680.589332 342.464713 681.044019 342.233463 
Q 681.498707 342.000651 682.098707 342.000651 
Q 682.698707 342.000651 683.153394 342.233463 
Q 683.608082 342.464713 683.856519 342.888151 
Q 684.104957 343.310026 684.104957 343.866276 
L 684.104957 344.036588 
Q 684.104957 344.477213 683.873707 344.863151 
Q 683.642457 345.247526 683.261207 345.449088 
Q 683.709644 345.692838 683.979957 346.160026 
Q 684.251832 346.625651 684.251832 347.156901 
L 684.251832 347.274088 
Q 684.251832 347.864713 683.986207 348.311588 
Q 683.720582 348.758463 683.231519 349.003776 
Q 682.744019 349.247526 682.098707 349.247526 
z
M 682.098707 348.289713 
Q 682.445582 348.289713 682.708082 348.153776 
Q 682.972144 348.016276 683.115894 347.770963 
Q 683.261207 347.524088 683.261207 347.200651 
L 683.261207 347.133463 
Q 683.261207 346.805338 683.115894 346.560026 
Q 682.972144 346.313151 682.708082 346.177213 
Q 682.445582 346.039713 682.098707 346.039713 
Q 681.751832 346.039713 681.487769 346.177213 
Q 681.225269 346.313151 681.079957 346.561588 
Q 680.936207 346.810026 680.936207 347.138151 
L 680.936207 347.211588 
Q 680.936207 347.533463 681.079957 347.777213 
Q 681.225269 348.020963 681.487769 348.155338 
Q 681.751832 348.289713 682.098707 348.289713 
z
M 682.098707 345.081901 
Q 682.397144 345.081901 682.625269 344.953776 
Q 682.854957 344.824088 682.981519 344.585026 
Q 683.109644 344.344401 683.109644 344.031901 
L 683.109644 343.964713 
Q 683.109644 343.666276 682.981519 343.436588 
Q 682.854957 343.206901 682.625269 343.083463 
Q 682.397144 342.958463 682.098707 342.958463 
Q 681.800269 342.958463 681.570582 343.083463 
Q 681.342457 343.206901 681.214332 343.436588 
Q 681.087769 343.666276 681.087769 343.969401 
L 681.087769 344.042838 
Q 681.087769 344.349088 681.214332 344.586588 
Q 681.342457 344.824088 681.570582 344.953776 
Q 681.800269 345.081901 682.098707 345.081901 
z
" style="fill: #ffffff; stroke: #000000"/>
    <path d="M 658.32898 349.247526 
Q 657.81648 349.247526 657.357105 349.150651 
Q 656.899293 349.052213 656.500855 348.856901 
Q 656.102418 348.661588 655.755542 348.367838 
L 655.755542 348.367838 
L 656.375855 347.606901 
L 656.375855 347.606901 
Q 656.782105 347.958463 657.269605 348.135026 
Q 657.758668 348.310026 658.32898 348.310026 
Q 659.100855 348.310026 659.525855 348.024088 
Q 659.950855 347.738151 659.950855 347.216276 
L 659.950855 347.211588 
Q 659.950855 346.839713 659.757105 346.622526 
Q 659.564917 346.405338 659.258668 346.300651 
Q 658.95398 346.195963 658.471167 346.106901 
Q 658.455542 346.102213 658.438355 346.102213 
Q 658.42273 346.102213 658.407105 346.097526 
L 658.333667 346.083463 
Q 657.621167 345.961588 657.174292 345.808463 
Q 656.727418 345.653776 656.41023 345.245963 
Q 656.093042 344.838151 656.093042 344.086588 
L 656.093042 344.081901 
Q 656.093042 343.422526 656.388355 342.956901 
Q 656.683667 342.489713 657.249292 342.245963 
Q 657.81648 342.000651 658.611792 342.000651 
Q 658.993043 342.000651 659.361792 342.085026 
Q 659.730542 342.167838 660.088355 342.331901 
Q 660.44773 342.494401 660.794605 342.742838 
L 660.794605 342.742838 
L 660.22898 343.535026 
L 660.22898 343.535026 
Q 659.82273 343.236588 659.419605 343.088151 
Q 659.018042 342.938151 658.611792 342.938151 
Q 657.88523 342.938151 657.482105 343.228776 
Q 657.07898 343.519401 657.07898 344.052213 
L 657.07898 344.056901 
Q 657.07898 344.422526 657.286792 344.633463 
Q 657.494605 344.842838 657.80398 344.942838 
Q 658.114917 345.042838 658.66648 345.150651 
Q 658.68523 345.155338 658.702417 345.158463 
Q 658.719605 345.160026 658.739917 345.164713 
Q 658.763355 345.169401 658.793042 345.175651 
Q 658.82273 345.180338 658.846167 345.185026 
Q 659.49148 345.316276 659.92273 345.497526 
Q 660.355542 345.677213 660.646167 346.080338 
Q 660.936792 346.483463 660.936792 347.181901 
L 660.936792 347.191276 
Q 660.936792 347.841276 660.62898 348.302213 
Q 660.321168 348.763151 659.736792 349.005338 
Q 659.15398 349.247526 658.32898 349.247526 
z
M 663.026832 348.227213 
L 664.633082 348.227213 
Q 665.419019 348.227213 665.850269 347.819401 
Q 666.283082 347.411588 666.283082 346.669401 
L 666.283082 344.578776 
Q 666.283082 343.836588 665.850269 343.428776 
Q 665.419019 343.020963 664.633082 343.020963 
L 663.026832 343.020963 
L 663.026832 342.074088 
L 664.603394 342.074088 
Q 665.458082 342.074088 666.062769 342.372526 
Q 666.669019 342.669401 666.986207 343.241276 
Q 667.303394 343.813151 667.303394 344.617838 
L 667.303394 346.630338 
Q 667.303394 347.435026 666.986207 348.006901 
Q 666.669019 348.578776 666.061207 348.877213 
Q 665.453394 349.174088 664.598707 349.174088 
L 663.026832 349.174088 
L 663.026832 348.227213 
z
M 662.353394 342.074088 
L 663.348707 342.074088 
L 663.348707 349.174088 
L 662.353394 349.174088 
L 662.353394 342.074088 
z
M 670.848707 349.247526 
Q 670.204957 349.247526 669.715894 349.003776 
Q 669.228394 348.758463 668.961207 348.311588 
Q 668.695582 347.864713 668.695582 347.274088 
L 668.695582 347.156901 
Q 668.695582 346.625651 668.961207 346.156901 
Q 669.228394 345.688151 669.672144 345.449088 
Q 669.295582 345.242838 669.069019 344.855338 
Q 668.842457 344.466276 668.842457 344.036588 
L 668.842457 343.866276 
Q 668.842457 343.310026 669.090894 342.888151 
Q 669.339332 342.464713 669.794019 342.233463 
Q 670.248707 342.000651 670.848707 342.000651 
Q 671.448707 342.000651 671.903394 342.233463 
Q 672.358082 342.464713 672.606519 342.888151 
Q 672.854957 343.310026 672.854957 343.866276 
L 672.854957 344.036588 
Q 672.854957 344.477213 672.623707 344.863151 
Q 672.392457 345.247526 672.011207 345.449088 
Q 672.459644 345.692838 672.729957 346.160026 
Q 673.001832 346.625651 673.001832 347.156901 
L 673.001832 347.274088 
Q 673.001832 347.864713 672.736207 348.311588 
Q 672.470582 348.758463 671.981519 349.003776 
Q 671.494019 349.247526 670.848707 349.247526 
z
M 670.848707 348.289713 
Q 671.195582 348.289713 671.458082 348.153776 
Q 671.722144 348.016276 671.865894 347.770963 
Q 672.011207 347.524088 672.011207 347.200651 
L 672.011207 347.133463 
Q 672.011207 346.805338 671.865894 346.560026 
Q 671.722144 346.313151 671.458082 346.177213 
Q 671.195582 346.039713 670.848707 346.039713 
Q 670.501832 346.039713 670.237769 346.177213 
Q 669.975269 346.313151 669.829957 346.561588 
Q 669.686207 346.810026 669.686207 347.138151 
L 669.686207 347.211588 
Q 669.686207 347.533463 669.829957 347.777213 
Q 669.975269 348.020963 670.237769 348.155338 
Q 670.501832 348.289713 670.848707 348.289713 
z
M 670.848707 345.081901 
Q 671.147144 345.081901 671.375269 344.953776 
Q 671.604957 344.824088 671.731519 344.585026 
Q 671.859644 344.344401 671.859644 344.031901 
L 671.859644 343.964713 
Q 671.859644 343.666276 671.731519 343.436588 
Q 671.604957 343.206901 671.375269 343.083463 
Q 671.147144 342.958463 670.848707 342.958463 
Q 670.550269 342.958463 670.320582 343.083463 
Q 670.092457 343.206901 669.964332 343.436588 
Q 669.837769 343.666276 669.837769 343.969401 
L 669.837769 344.042838 
Q 669.837769 344.349088 669.964332 344.586588 
Q 670.092457 344.824088 670.320582 344.953776 
Q 670.550269 345.081901 670.848707 345.081901 
z
M 676.473707 349.247526 
Q 675.829957 349.247526 675.340894 349.003776 
Q 674.853394 348.758463 674.586207 348.311588 
Q 674.320582 347.864713 674.320582 347.274088 
L 674.320582 347.156901 
Q 674.320582 346.625651 674.586207 346.156901 
Q 674.853394 345.688151 675.297144 345.449088 
Q 674.920582 345.242838 674.694019 344.855338 
Q 674.467457 344.466276 674.467457 344.036588 
L 674.467457 343.866276 
Q 674.467457 343.310026 674.715894 342.888151 
Q 674.964332 342.464713 675.419019 342.233463 
Q 675.873707 342.000651 676.473707 342.000651 
Q 677.073707 342.000651 677.528394 342.233463 
Q 677.983082 342.464713 678.231519 342.888151 
Q 678.479957 343.310026 678.479957 343.866276 
L 678.479957 344.036588 
Q 678.479957 344.477213 678.248707 344.863151 
Q 678.017457 345.247526 677.636207 345.449088 
Q 678.084644 345.692838 678.354957 346.160026 
Q 678.626832 346.625651 678.626832 347.156901 
L 678.626832 347.274088 
Q 678.626832 347.864713 678.361207 348.311588 
Q 678.095582 348.758463 677.606519 349.003776 
Q 677.119019 349.247526 676.473707 349.247526 
z
M 676.473707 348.289713 
Q 676.820582 348.289713 677.083082 348.153776 
Q 677.347144 348.016276 677.490894 347.770963 
Q 677.636207 347.524088 677.636207 347.200651 
L 677.636207 347.133463 
Q 677.636207 346.805338 677.490894 346.560026 
Q 677.347144 346.313151 677.083082 346.177213 
Q 676.820582 346.039713 676.473707 346.039713 
Q 676.126832 346.039713 675.862769 346.177213 
Q 675.600269 346.313151 675.454957 346.561588 
Q 675.311207 346.810026 675.311207 347.138151 
L 675.311207 347.211588 
Q 675.311207 347.533463 675.454957 347.777213 
Q 675.600269 348.020963 675.862769 348.155338 
Q 676.126832 348.289713 676.473707 348.289713 
z
M 676.473707 345.081901 
Q 676.772144 345.081901 677.000269 344.953776 
Q 677.229957 344.824088 677.356519 344.585026 
Q 677.484644 344.344401 677.484644 344.031901 
L 677.484644 343.964713 
Q 677.484644 343.666276 677.356519 343.436588 
Q 677.229957 343.206901 677.000269 343.083463 
Q 676.772144 342.958463 676.473707 342.958463 
Q 676.175269 342.958463 675.945582 343.083463 
Q 675.717457 343.206901 675.589332 343.436588 
Q 675.462769 343.666276 675.462769 343.969401 
L 675.462769 344.042838 
Q 675.462769 344.349088 675.589332 344.586588 
Q 675.717457 344.824088 675.945582 344.953776 
Q 676.175269 345.081901 676.473707 345.081901 
z
M 682.098707 349.247526 
Q 681.454957 349.247526 680.965894 349.003776 
Q 680.478394 348.758463 680.211207 348.311588 
Q 679.945582 347.864713 679.945582 347.274088 
L 679.945582 347.156901 
Q 679.945582 346.625651 680.211207 346.156901 
Q 680.478394 345.688151 680.922144 345.449088 
Q 680.545582 345.242838 680.319019 344.855338 
Q 680.092457 344.466276 680.092457 344.036588 
L 680.092457 343.866276 
Q 680.092457 343.310026 680.340894 342.888151 
Q 680.589332 342.464713 681.044019 342.233463 
Q 681.498707 342.000651 682.098707 342.000651 
Q 682.698707 342.000651 683.153394 342.233463 
Q 683.608082 342.464713 683.856519 342.888151 
Q 684.104957 343.310026 684.104957 343.866276 
L 684.104957 344.036588 
Q 684.104957 344.477213 683.873707 344.863151 
Q 683.642457 345.247526 683.261207 345.449088 
Q 683.709644 345.692838 683.979957 346.160026 
Q 684.251832 346.625651 684.251832 347.156901 
L 684.251832 347.274088 
Q 684.251832 347.864713 683.986207 348.311588 
Q 683.720582 348.758463 683.231519 349.003776 
Q 682.744019 349.247526 682.098707 349.247526 
z
M 682.098707 348.289713 
Q 682.445582 348.289713 682.708082 348.153776 
Q 682.972144 348.016276 683.115894 347.770963 
Q 683.261207 347.524088 683.261207 347.200651 
L 683.261207 347.133463 
Q 683.261207 346.805338 683.115894 346.560026 
Q 682.972144 346.313151 682.708082 346.177213 
Q 682.445582 346.039713 682.098707 346.039713 
Q 681.751832 346.039713 681.487769 346.177213 
Q 681.225269 346.313151 681.079957 346.561588 
Q 680.936207 346.810026 680.936207 347.138151 
L 680.936207 347.211588 
Q 680.936207 347.533463 681.079957 347.777213 
Q 681.225269 348.020963 681.487769 348.155338 
Q 681.751832 348.289713 682.098707 348.289713 
z
M 682.098707 345.081901 
Q 682.397144 345.081901 682.625269 344.953776 
Q 682.854957 344.824088 682.981519 344.585026 
Q 683.109644 344.344401 683.109644 344.031901 
L 683.109644 343.964713 
Q 683.109644 343.666276 682.981519 343.436588 
Q 682.854957 343.206901 682.625269 343.083463 
Q 682.397144 342.958463 682.098707 342.958463 
Q 681.800269 342.958463 681.570582 343.083463 
Q 681.342457 343.206901 681.214332 343.436588 
Q 681.087769 343.666276 681.087769 343.969401 
L 681.087769 344.042838 
Q 681.087769 344.349088 681.214332 344.586588 
Q 681.342457 344.824088 681.570582 344.953776 
Q 681.800269 345.081901 682.098707 345.081901 
z
" style="fill: #ffffff"/>
   </g>
  </g>
 </g>
 <defs>
  <clipPath id="p0b1b62bf7f">
   <rect x="144" y="77.76" width="892.8" height="498.96"/>
  </clipPath>
 </defs>
</svg>
