<?xml version="1.0" encoding="utf-8" standalone="no"?>
<!DOCTYPE svg PUBLIC "-//W3C//DTD SVG 1.1//EN"
  "http://www.w3.org/Graphics/SVG/1.1/DTD/svg11.dtd">
<svg xmlns:xlink="http://www.w3.org/1999/xlink" width="1152pt" height="648pt" viewBox="0 0 1152 648" xmlns="http://www.w3.org/2000/svg" version="1.1">
 <metadata>
  <rdf:RDF xmlns:dc="http://purl.org/dc/elements/1.1/" xmlns:cc="http://creativecommons.org/ns#" xmlns:rdf="http://www.w3.org/1999/02/22-rdf-syntax-ns#">
   <cc:Work>
    <dc:type rdf:resource="http://purl.org/dc/dcmitype/StillImage"/>
    <dc:date>2024-05-27T14:28:58.704661</dc:date>
    <dc:format>image/svg+xml</dc:format>
    <dc:creator>
     <cc:Agent>
      <dc:title>Matplotlib v3.9.0, https://matplotlib.org/</dc:title>
     </cc:Agent>
    </dc:creator>
   </cc:Work>
  </rdf:RDF>
 </metadata>
 <defs>
  <style type="text/css">*{stroke-linejoin: round; stroke-linecap: butt}</style>
 </defs>
 <g id="figure_1">
  <g id="patch_1">
   <path d="M 0 648 
L 1152 648 
L 1152 0 
L 0 0 
L 0 648 
z
" style="fill: none"/>
  </g>
  <g id="axes_1">
   <g id="PathCollection_1">
    <defs>
     <path id="m454a50b410" d="M 0 2.738613 
C 0.726289 2.738613 1.422928 2.450055 1.936492 1.936492 
C 2.450055 1.422928 2.738613 0.726289 2.738613 0 
C 2.738613 -0.726289 2.450055 -1.422928 1.936492 -1.936492 
C 1.422928 -2.450055 0.726289 -2.738613 0 -2.738613 
C -0.726289 -2.738613 -1.422928 -2.450055 -1.936492 -1.936492 
C -2.450055 -1.422928 -2.738613 -0.726289 -2.738613 0 
C -2.738613 0.726289 -2.450055 1.422928 -1.936492 1.936492 
C -1.422928 2.450055 -0.726289 2.738613 0 2.738613 
z
" style="stroke: #ff0000"/>
    </defs>
    <g clip-path="url(#p7d0b37c6bf)">
     <use xlink:href="#m454a50b410" x="733.744" y="339.714" style="fill: #ff0000; stroke: #ff0000"/>
     <use xlink:href="#m454a50b410" x="618.672" y="357.92604" style="fill: #ff0000; stroke: #ff0000"/>
    </g>
   </g>
   <g id="text_1">
    <path d="M 741.297418 338.244943 
L 744.431793 334.260568 
L 745.656793 334.260568 
L 741.150543 339.738693 
L 741.297418 338.244943 
z
M 740.516168 334.260568 
L 741.51148 334.260568 
L 741.51148 341.360568 
L 740.516168 341.360568 
L 740.516168 334.260568 
z
M 742.478668 337.571506 
L 743.264605 336.843381 
L 745.95523 341.360568 
L 744.734918 341.360568 
L 742.478668 337.571506 
z
M 749.299371 337.835568 
L 749.294683 338.010568 
Q 749.172808 338.235568 748.925933 338.340256 
Q 748.679058 338.444943 748.343121 338.444943 
Q 747.835308 338.444943 747.449371 338.187131 
Q 747.063433 337.927755 746.850933 337.457443 
Q 746.638433 336.985568 746.638433 336.365255 
L 746.638433 336.360568 
Q 746.638433 335.671506 746.869683 335.184006 
Q 747.102496 334.694943 747.549371 334.441818 
Q 747.996246 334.187131 748.621246 334.187131 
Q 749.246246 334.187131 749.689996 334.446506 
Q 750.135308 334.70588 750.366558 335.199631 
Q 750.597808 335.691818 750.597808 336.385568 
L 750.597808 336.390256 
Q 750.597808 336.769943 750.499371 337.202756 
Q 750.402496 337.635568 750.222808 338.059006 
Q 750.193121 338.123068 750.163433 338.188693 
Q 750.135308 338.254318 750.100933 338.31838 
L 748.586871 341.360568 
L 747.511871 341.360568 
L 749.299371 337.835568 
z
M 748.621246 337.53713 
Q 749.089996 337.53713 749.346246 337.219943 
Q 749.602496 336.902756 749.602496 336.326193 
L 749.602496 336.321506 
Q 749.602496 335.760568 749.346246 335.452756 
Q 749.089996 335.144943 748.621246 335.144943 
Q 748.147808 335.144943 747.891558 335.452756 
Q 747.635308 335.760568 747.635308 336.326193 
L 747.635308 336.33088 
Q 747.635308 336.907443 747.891558 337.223068 
Q 748.147808 337.53713 748.621246 337.53713 
z
M 753.943707 341.434006 
Q 752.946832 341.434006 752.431207 340.902756 
Q 751.917144 340.369943 751.917144 339.416818 
L 751.917144 336.190255 
Q 751.917144 335.232443 752.434332 334.702756 
Q 752.951519 334.173068 753.943707 334.173068 
Q 754.939019 334.173068 755.454644 334.701193 
Q 755.970269 335.227756 755.970269 336.190255 
L 755.970269 339.416818 
Q 755.970269 340.374631 755.451519 340.904318 
Q 754.934332 341.434006 753.943707 341.434006 
z
M 753.943707 340.48713 
Q 754.470269 340.48713 754.721832 340.210568 
Q 754.973394 339.934006 754.973394 339.416818 
L 754.973394 336.190255 
Q 754.973394 335.671506 754.723394 335.396505 
Q 754.474957 335.119943 753.943707 335.119943 
Q 753.410894 335.119943 753.160894 335.396505 
Q 752.912457 335.671506 752.912457 336.190255 
L 752.912457 339.416818 
Q 752.912457 339.934006 753.164019 340.210568 
Q 753.415582 340.48713 753.943707 340.48713 
z
M 759.461285 341.434006 
Q 758.46441 341.434006 757.948785 340.902756 
Q 757.434722 340.369943 757.434722 339.416818 
L 757.434722 336.190255 
Q 757.434722 335.232443 757.95191 334.702756 
Q 758.469097 334.173068 759.461285 334.173068 
Q 760.456597 334.173068 760.972222 334.701193 
Q 761.487847 335.227756 761.487847 336.190255 
L 761.487847 339.416818 
Q 761.487847 340.374631 760.969097 340.904318 
Q 760.45191 341.434006 759.461285 341.434006 
z
M 759.461285 340.48713 
Q 759.987847 340.48713 760.23941 340.210568 
Q 760.490972 339.934006 760.490972 339.416818 
L 760.490972 336.190255 
Q 760.490972 335.671506 760.240972 335.396505 
Q 759.992535 335.119943 759.461285 335.119943 
Q 758.928472 335.119943 758.678472 335.396505 
Q 758.430035 335.671506 758.430035 336.190255 
L 758.430035 339.416818 
Q 758.430035 339.934006 758.681597 340.210568 
Q 758.93316 340.48713 759.461285 340.48713 
z
M 764.978863 341.434006 
Q 763.981988 341.434006 763.466363 340.902756 
Q 762.9523 340.369943 762.9523 339.416818 
L 762.9523 336.190255 
Q 762.9523 335.232443 763.469488 334.702756 
Q 763.986675 334.173068 764.978863 334.173068 
Q 765.974175 334.173068 766.4898 334.701193 
Q 767.005425 335.227756 767.005425 336.190255 
L 767.005425 339.416818 
Q 767.005425 340.374631 766.486675 340.904318 
Q 765.969488 341.434006 764.978863 341.434006 
z
M 764.978863 340.48713 
Q 765.505425 340.48713 765.756988 340.210568 
Q 766.00855 339.934006 766.00855 339.416818 
L 766.00855 336.190255 
Q 766.00855 335.671506 765.75855 335.396505 
Q 765.510113 335.119943 764.978863 335.119943 
Q 764.44605 335.119943 764.19605 335.396505 
Q 763.947613 335.671506 763.947613 336.190255 
L 763.947613 339.416818 
Q 763.947613 339.934006 764.199175 340.210568 
Q 764.450738 340.48713 764.978863 340.48713 
z
M 771.629253 334.260568 
L 772.312066 334.260568 
L 773.766753 339.827756 
L 775.023003 334.260568 
L 776.057378 334.260568 
L 774.324566 341.360568 
L 773.308941 341.360568 
L 771.999566 336.399631 
L 770.632378 341.360568 
L 769.616753 341.360568 
L 767.883941 334.260568 
L 768.918316 334.260568 
L 770.173003 339.827756 
L 771.629253 334.260568 
z
M 777.08355 334.260568 
L 778.078863 334.260568 
L 778.078863 341.360568 
L 777.08355 341.360568 
L 777.08355 334.260568 
z
M 777.580425 340.413693 
L 781.642925 340.413693 
L 781.642925 341.360568 
L 777.580425 341.360568 
L 777.580425 340.413693 
z
" style="fill: #ffffff; stroke: #000000"/>
    <path d="M 741.297418 338.244943 
L 744.431793 334.260568 
L 745.656793 334.260568 
L 741.150543 339.738693 
L 741.297418 338.244943 
z
M 740.516168 334.260568 
L 741.51148 334.260568 
L 741.51148 341.360568 
L 740.516168 341.360568 
L 740.516168 334.260568 
z
M 742.478668 337.571506 
L 743.264605 336.843381 
L 745.95523 341.360568 
L 744.734918 341.360568 
L 742.478668 337.571506 
z
M 749.299371 337.835568 
L 749.294683 338.010568 
Q 749.172808 338.235568 748.925933 338.340256 
Q 748.679058 338.444943 748.343121 338.444943 
Q 747.835308 338.444943 747.449371 338.187131 
Q 747.063433 337.927755 746.850933 337.457443 
Q 746.638433 336.985568 746.638433 336.365255 
L 746.638433 336.360568 
Q 746.638433 335.671506 746.869683 335.184006 
Q 747.102496 334.694943 747.549371 334.441818 
Q 747.996246 334.187131 748.621246 334.187131 
Q 749.246246 334.187131 749.689996 334.446506 
Q 750.135308 334.70588 750.366558 335.199631 
Q 750.597808 335.691818 750.597808 336.385568 
L 750.597808 336.390256 
Q 750.597808 336.769943 750.499371 337.202756 
Q 750.402496 337.635568 750.222808 338.059006 
Q 750.193121 338.123068 750.163433 338.188693 
Q 750.135308 338.254318 750.100933 338.31838 
L 748.586871 341.360568 
L 747.511871 341.360568 
L 749.299371 337.835568 
z
M 748.621246 337.53713 
Q 749.089996 337.53713 749.346246 337.219943 
Q 749.602496 336.902756 749.602496 336.326193 
L 749.602496 336.321506 
Q 749.602496 335.760568 749.346246 335.452756 
Q 749.089996 335.144943 748.621246 335.144943 
Q 748.147808 335.144943 747.891558 335.452756 
Q 747.635308 335.760568 747.635308 336.326193 
L 747.635308 336.33088 
Q 747.635308 336.907443 747.891558 337.223068 
Q 748.147808 337.53713 748.621246 337.53713 
z
M 753.943707 341.434006 
Q 752.946832 341.434006 752.431207 340.902756 
Q 751.917144 340.369943 751.917144 339.416818 
L 751.917144 336.190255 
Q 751.917144 335.232443 752.434332 334.702756 
Q 752.951519 334.173068 753.943707 334.173068 
Q 754.939019 334.173068 755.454644 334.701193 
Q 755.970269 335.227756 755.970269 336.190255 
L 755.970269 339.416818 
Q 755.970269 340.374631 755.451519 340.904318 
Q 754.934332 341.434006 753.943707 341.434006 
z
M 753.943707 340.48713 
Q 754.470269 340.48713 754.721832 340.210568 
Q 754.973394 339.934006 754.973394 339.416818 
L 754.973394 336.190255 
Q 754.973394 335.671506 754.723394 335.396505 
Q 754.474957 335.119943 753.943707 335.119943 
Q 753.410894 335.119943 753.160894 335.396505 
Q 752.912457 335.671506 752.912457 336.190255 
L 752.912457 339.416818 
Q 752.912457 339.934006 753.164019 340.210568 
Q 753.415582 340.48713 753.943707 340.48713 
z
M 759.461285 341.434006 
Q 758.46441 341.434006 757.948785 340.902756 
Q 757.434722 340.369943 757.434722 339.416818 
L 757.434722 336.190255 
Q 757.434722 335.232443 757.95191 334.702756 
Q 758.469097 334.173068 759.461285 334.173068 
Q 760.456597 334.173068 760.972222 334.701193 
Q 761.487847 335.227756 761.487847 336.190255 
L 761.487847 339.416818 
Q 761.487847 340.374631 760.969097 340.904318 
Q 760.45191 341.434006 759.461285 341.434006 
z
M 759.461285 340.48713 
Q 759.987847 340.48713 760.23941 340.210568 
Q 760.490972 339.934006 760.490972 339.416818 
L 760.490972 336.190255 
Q 760.490972 335.671506 760.240972 335.396505 
Q 759.992535 335.119943 759.461285 335.119943 
Q 758.928472 335.119943 758.678472 335.396505 
Q 758.430035 335.671506 758.430035 336.190255 
L 758.430035 339.416818 
Q 758.430035 339.934006 758.681597 340.210568 
Q 758.93316 340.48713 759.461285 340.48713 
z
M 764.978863 341.434006 
Q 763.981988 341.434006 763.466363 340.902756 
Q 762.9523 340.369943 762.9523 339.416818 
L 762.9523 336.190255 
Q 762.9523 335.232443 763.469488 334.702756 
Q 763.986675 334.173068 764.978863 334.173068 
Q 765.974175 334.173068 766.4898 334.701193 
Q 767.005425 335.227756 767.005425 336.190255 
L 767.005425 339.416818 
Q 767.005425 340.374631 766.486675 340.904318 
Q 765.969488 341.434006 764.978863 341.434006 
z
M 764.978863 340.48713 
Q 765.505425 340.48713 765.756988 340.210568 
Q 766.00855 339.934006 766.00855 339.416818 
L 766.00855 336.190255 
Q 766.00855 335.671506 765.75855 335.396505 
Q 765.510113 335.119943 764.978863 335.119943 
Q 764.44605 335.119943 764.19605 335.396505 
Q 763.947613 335.671506 763.947613 336.190255 
L 763.947613 339.416818 
Q 763.947613 339.934006 764.199175 340.210568 
Q 764.450738 340.48713 764.978863 340.48713 
z
M 771.629253 334.260568 
L 772.312066 334.260568 
L 773.766753 339.827756 
L 775.023003 334.260568 
L 776.057378 334.260568 
L 774.324566 341.360568 
L 773.308941 341.360568 
L 771.999566 336.399631 
L 770.632378 341.360568 
L 769.616753 341.360568 
L 767.883941 334.260568 
L 768.918316 334.260568 
L 770.173003 339.827756 
L 771.629253 334.260568 
z
M 777.08355 334.260568 
L 778.078863 334.260568 
L 778.078863 341.360568 
L 777.08355 341.360568 
L 777.08355 334.260568 
z
M 777.580425 340.413693 
L 781.642925 340.413693 
L 781.642925 341.360568 
L 777.580425 341.360568 
L 777.580425 340.413693 
z
" style="fill: #ffffff"/>
   </g>
   <g id="text_2">
    <path d="M 626.225418 356.456983 
L 629.359793 352.472608 
L 630.584793 352.472608 
L 626.078543 357.950733 
L 626.225418 356.456983 
z
M 625.444168 352.472608 
L 626.43948 352.472608 
L 626.43948 359.572608 
L 625.444168 359.572608 
L 625.444168 352.472608 
z
M 627.406668 355.783546 
L 628.192605 355.055421 
L 630.88323 359.572608 
L 629.662918 359.572608 
L 627.406668 355.783546 
z
M 634.227371 356.047608 
L 634.222683 356.222608 
Q 634.100808 356.447608 633.853933 356.552296 
Q 633.607058 356.656983 633.271121 356.656983 
Q 632.763308 356.656983 632.377371 356.399171 
Q 631.991433 356.139795 631.778933 355.669483 
Q 631.566433 355.197608 631.566433 354.577295 
L 631.566433 354.572608 
Q 631.566433 353.883546 631.797683 353.396046 
Q 632.030496 352.906983 632.477371 352.653858 
Q 632.924246 352.399171 633.549246 352.399171 
Q 634.174246 352.399171 634.617996 352.658546 
Q 635.063308 352.91792 635.294558 353.411671 
Q 635.525808 353.903858 635.525808 354.597608 
L 635.525808 354.602296 
Q 635.525808 354.981983 635.427371 355.414796 
Q 635.330496 355.847608 635.150808 356.271046 
Q 635.121121 356.335108 635.091433 356.400733 
Q 635.063308 356.466358 635.028933 356.53042 
L 633.514871 359.572608 
L 632.439871 359.572608 
L 634.227371 356.047608 
z
M 633.549246 355.74917 
Q 634.017996 355.74917 634.274246 355.431983 
Q 634.530496 355.114796 634.530496 354.538233 
L 634.530496 354.533546 
Q 634.530496 353.972608 634.274246 353.664796 
Q 634.017996 353.356983 633.549246 353.356983 
Q 633.075808 353.356983 632.819558 353.664796 
Q 632.563308 353.972608 632.563308 354.538233 
L 632.563308 354.54292 
Q 632.563308 355.119483 632.819558 355.435108 
Q 633.075808 355.74917 633.549246 355.74917 
z
M 638.871707 359.646046 
Q 637.874832 359.646046 637.359207 359.114796 
Q 636.845144 358.581983 636.845144 357.628858 
L 636.845144 354.402295 
Q 636.845144 353.444483 637.362332 352.914796 
Q 637.879519 352.385108 638.871707 352.385108 
Q 639.867019 352.385108 640.382644 352.913233 
Q 640.898269 353.439796 640.898269 354.402295 
L 640.898269 357.628858 
Q 640.898269 358.586671 640.379519 359.116358 
Q 639.862332 359.646046 638.871707 359.646046 
z
M 638.871707 358.69917 
Q 639.398269 358.69917 639.649832 358.422608 
Q 639.901394 358.146046 639.901394 357.628858 
L 639.901394 354.402295 
Q 639.901394 353.883546 639.651394 353.608545 
Q 639.402957 353.331983 638.871707 353.331983 
Q 638.338894 353.331983 638.088894 353.608545 
Q 637.840457 353.883546 637.840457 354.402295 
L 637.840457 357.628858 
Q 637.840457 358.146046 638.092019 358.422608 
Q 638.343582 358.69917 638.871707 358.69917 
z
M 644.389285 359.646046 
Q 643.39241 359.646046 642.876785 359.114796 
Q 642.362722 358.581983 642.362722 357.628858 
L 642.362722 354.402295 
Q 642.362722 353.444483 642.87991 352.914796 
Q 643.397097 352.385108 644.389285 352.385108 
Q 645.384597 352.385108 645.900222 352.913233 
Q 646.415847 353.439796 646.415847 354.402295 
L 646.415847 357.628858 
Q 646.415847 358.586671 645.897097 359.116358 
Q 645.37991 359.646046 644.389285 359.646046 
z
M 644.389285 358.69917 
Q 644.915847 358.69917 645.16741 358.422608 
Q 645.418972 358.146046 645.418972 357.628858 
L 645.418972 354.402295 
Q 645.418972 353.883546 645.168972 353.608545 
Q 644.920535 353.331983 644.389285 353.331983 
Q 643.856472 353.331983 643.606472 353.608545 
Q 643.358035 353.883546 643.358035 354.402295 
L 643.358035 357.628858 
Q 643.358035 358.146046 643.609597 358.422608 
Q 643.86116 358.69917 644.389285 358.69917 
z
M 649.906863 359.646046 
Q 648.909988 359.646046 648.394363 359.114796 
Q 647.8803 358.581983 647.8803 357.628858 
L 647.8803 354.402295 
Q 647.8803 353.444483 648.397488 352.914796 
Q 648.914675 352.385108 649.906863 352.385108 
Q 650.902175 352.385108 651.4178 352.913233 
Q 651.933425 353.439796 651.933425 354.402295 
L 651.933425 357.628858 
Q 651.933425 358.586671 651.414675 359.116358 
Q 650.897488 359.646046 649.906863 359.646046 
z
M 649.906863 358.69917 
Q 650.433425 358.69917 650.684988 358.422608 
Q 650.93655 358.146046 650.93655 357.628858 
L 650.93655 354.402295 
Q 650.93655 353.883546 650.68655 353.608545 
Q 650.438113 353.331983 649.906863 353.331983 
Q 649.37405 353.331983 649.12405 353.608545 
Q 648.875613 353.883546 648.875613 354.402295 
L 648.875613 357.628858 
Q 648.875613 358.146046 649.127175 358.422608 
Q 649.378738 358.69917 649.906863 358.69917 
z
M 656.557253 352.472608 
L 657.240066 352.472608 
L 658.694753 358.039796 
L 659.951003 352.472608 
L 660.985378 352.472608 
L 659.252566 359.572608 
L 658.236941 359.572608 
L 656.927566 354.611671 
L 655.560378 359.572608 
L 654.544753 359.572608 
L 652.811941 352.472608 
L 653.846316 352.472608 
L 655.101003 358.039796 
L 656.557253 352.472608 
z
M 662.01155 352.472608 
L 663.006863 352.472608 
L 663.006863 359.572608 
L 662.01155 359.572608 
L 662.01155 352.472608 
z
M 662.508425 358.625733 
L 666.570925 358.625733 
L 666.570925 359.572608 
L 662.508425 359.572608 
L 662.508425 358.625733 
z
" style="fill: #ffffff; stroke: #000000"/>
    <path d="M 626.225418 356.456983 
L 629.359793 352.472608 
L 630.584793 352.472608 
L 626.078543 357.950733 
L 626.225418 356.456983 
z
M 625.444168 352.472608 
L 626.43948 352.472608 
L 626.43948 359.572608 
L 625.444168 359.572608 
L 625.444168 352.472608 
z
M 627.406668 355.783546 
L 628.192605 355.055421 
L 630.88323 359.572608 
L 629.662918 359.572608 
L 627.406668 355.783546 
z
M 634.227371 356.047608 
L 634.222683 356.222608 
Q 634.100808 356.447608 633.853933 356.552296 
Q 633.607058 356.656983 633.271121 356.656983 
Q 632.763308 356.656983 632.377371 356.399171 
Q 631.991433 356.139795 631.778933 355.669483 
Q 631.566433 355.197608 631.566433 354.577295 
L 631.566433 354.572608 
Q 631.566433 353.883546 631.797683 353.396046 
Q 632.030496 352.906983 632.477371 352.653858 
Q 632.924246 352.399171 633.549246 352.399171 
Q 634.174246 352.399171 634.617996 352.658546 
Q 635.063308 352.91792 635.294558 353.411671 
Q 635.525808 353.903858 635.525808 354.597608 
L 635.525808 354.602296 
Q 635.525808 354.981983 635.427371 355.414796 
Q 635.330496 355.847608 635.150808 356.271046 
Q 635.121121 356.335108 635.091433 356.400733 
Q 635.063308 356.466358 635.028933 356.53042 
L 633.514871 359.572608 
L 632.439871 359.572608 
L 634.227371 356.047608 
z
M 633.549246 355.74917 
Q 634.017996 355.74917 634.274246 355.431983 
Q 634.530496 355.114796 634.530496 354.538233 
L 634.530496 354.533546 
Q 634.530496 353.972608 634.274246 353.664796 
Q 634.017996 353.356983 633.549246 353.356983 
Q 633.075808 353.356983 632.819558 353.664796 
Q 632.563308 353.972608 632.563308 354.538233 
L 632.563308 354.54292 
Q 632.563308 355.119483 632.819558 355.435108 
Q 633.075808 355.74917 633.549246 355.74917 
z
M 638.871707 359.646046 
Q 637.874832 359.646046 637.359207 359.114796 
Q 636.845144 358.581983 636.845144 357.628858 
L 636.845144 354.402295 
Q 636.845144 353.444483 637.362332 352.914796 
Q 637.879519 352.385108 638.871707 352.385108 
Q 639.867019 352.385108 640.382644 352.913233 
Q 640.898269 353.439796 640.898269 354.402295 
L 640.898269 357.628858 
Q 640.898269 358.586671 640.379519 359.116358 
Q 639.862332 359.646046 638.871707 359.646046 
z
M 638.871707 358.69917 
Q 639.398269 358.69917 639.649832 358.422608 
Q 639.901394 358.146046 639.901394 357.628858 
L 639.901394 354.402295 
Q 639.901394 353.883546 639.651394 353.608545 
Q 639.402957 353.331983 638.871707 353.331983 
Q 638.338894 353.331983 638.088894 353.608545 
Q 637.840457 353.883546 637.840457 354.402295 
L 637.840457 357.628858 
Q 637.840457 358.146046 638.092019 358.422608 
Q 638.343582 358.69917 638.871707 358.69917 
z
M 644.389285 359.646046 
Q 643.39241 359.646046 642.876785 359.114796 
Q 642.362722 358.581983 642.362722 357.628858 
L 642.362722 354.402295 
Q 642.362722 353.444483 642.87991 352.914796 
Q 643.397097 352.385108 644.389285 352.385108 
Q 645.384597 352.385108 645.900222 352.913233 
Q 646.415847 353.439796 646.415847 354.402295 
L 646.415847 357.628858 
Q 646.415847 358.586671 645.897097 359.116358 
Q 645.37991 359.646046 644.389285 359.646046 
z
M 644.389285 358.69917 
Q 644.915847 358.69917 645.16741 358.422608 
Q 645.418972 358.146046 645.418972 357.628858 
L 645.418972 354.402295 
Q 645.418972 353.883546 645.168972 353.608545 
Q 644.920535 353.331983 644.389285 353.331983 
Q 643.856472 353.331983 643.606472 353.608545 
Q 643.358035 353.883546 643.358035 354.402295 
L 643.358035 357.628858 
Q 643.358035 358.146046 643.609597 358.422608 
Q 643.86116 358.69917 644.389285 358.69917 
z
M 649.906863 359.646046 
Q 648.909988 359.646046 648.394363 359.114796 
Q 647.8803 358.581983 647.8803 357.628858 
L 647.8803 354.402295 
Q 647.8803 353.444483 648.397488 352.914796 
Q 648.914675 352.385108 649.906863 352.385108 
Q 650.902175 352.385108 651.4178 352.913233 
Q 651.933425 353.439796 651.933425 354.402295 
L 651.933425 357.628858 
Q 651.933425 358.586671 651.414675 359.116358 
Q 650.897488 359.646046 649.906863 359.646046 
z
M 649.906863 358.69917 
Q 650.433425 358.69917 650.684988 358.422608 
Q 650.93655 358.146046 650.93655 357.628858 
L 650.93655 354.402295 
Q 650.93655 353.883546 650.68655 353.608545 
Q 650.438113 353.331983 649.906863 353.331983 
Q 649.37405 353.331983 649.12405 353.608545 
Q 648.875613 353.883546 648.875613 354.402295 
L 648.875613 357.628858 
Q 648.875613 358.146046 649.127175 358.422608 
Q 649.378738 358.69917 649.906863 358.69917 
z
M 656.557253 352.472608 
L 657.240066 352.472608 
L 658.694753 358.039796 
L 659.951003 352.472608 
L 660.985378 352.472608 
L 659.252566 359.572608 
L 658.236941 359.572608 
L 656.927566 354.611671 
L 655.560378 359.572608 
L 654.544753 359.572608 
L 652.811941 352.472608 
L 653.846316 352.472608 
L 655.101003 358.039796 
L 656.557253 352.472608 
z
M 662.01155 352.472608 
L 663.006863 352.472608 
L 663.006863 359.572608 
L 662.01155 359.572608 
L 662.01155 352.472608 
z
M 662.508425 358.625733 
L 666.570925 358.625733 
L 666.570925 359.572608 
L 662.508425 359.572608 
L 662.508425 358.625733 
z
" style="fill: #ffffff"/>
   </g>
  </g>
 </g>
 <defs>
  <clipPath id="p7d0b37c6bf">
   <rect x="144" y="77.76" width="892.8" height="498.96"/>
  </clipPath>
 </defs>
</svg>
