<?xml version="1.0" encoding="utf-8" standalone="no"?>
<!DOCTYPE svg PUBLIC "-//W3C//DTD SVG 1.1//EN"
  "http://www.w3.org/Graphics/SVG/1.1/DTD/svg11.dtd">
<svg xmlns:xlink="http://www.w3.org/1999/xlink" width="1152pt" height="648pt" viewBox="0 0 1152 648" xmlns="http://www.w3.org/2000/svg" version="1.1">
 <metadata>
  <rdf:RDF xmlns:dc="http://purl.org/dc/elements/1.1/" xmlns:cc="http://creativecommons.org/ns#" xmlns:rdf="http://www.w3.org/1999/02/22-rdf-syntax-ns#">
   <cc:Work>
    <dc:type rdf:resource="http://purl.org/dc/dcmitype/StillImage"/>
    <dc:date>2024-03-14T14:55:08.057470</dc:date>
    <dc:format>image/svg+xml</dc:format>
    <dc:creator>
     <cc:Agent>
      <dc:title>Matplotlib v3.8.3, https://matplotlib.org/</dc:title>
     </cc:Agent>
    </dc:creator>
   </cc:Work>
  </rdf:RDF>
 </metadata>
 <defs>
  <style type="text/css">*{stroke-linejoin: round; stroke-linecap: butt}</style>
 </defs>
 <g id="figure_1">
  <g id="patch_1">
   <path d="M 0 648 
L 1152 648 
L 1152 0 
L 0 0 
L 0 648 
z
" style="fill: none"/>
  </g>
  <g id="axes_1">
   <g id="line2d_1">
    <path d="M 210.96 501.148429 
L 212.057212 500.128745 
L 213.154424 499.120407 
L 214.251636 498.123287 
L 215.348848 497.137263 
L 216.446061 496.16221 
L 217.543273 495.198007 
L 218.640485 494.244535 
L 219.737697 493.301672 
L 220.834909 492.369302 
L 221.932121 491.447309 
L 223.029333 490.535577 
L 224.126545 489.633991 
L 225.223758 488.742441 
L 226.32097 487.860813 
L 227.418182 486.988998 
L 228.515394 486.126888 
L 229.612606 485.274373 
L 230.709818 484.431348 
L 231.80703 483.597708 
L 232.904242 482.773347 
L 234.001455 481.958163 
L 235.098667 481.152055 
L 236.195879 480.35492 
L 237.293091 479.56666 
L 238.390303 478.787176 
L 239.487515 478.01637 
L 240.584727 477.254146 
L 241.681939 476.500409 
L 242.779152 475.755065 
L 243.876364 475.018019 
L 244.973576 474.28918 
L 246.070788 473.568457 
L 247.168 472.855759 
L 248.265212 472.150998 
L 249.362424 471.454084 
L 250.459636 470.764932 
L 251.556848 470.083454 
L 252.654061 469.409565 
L 253.751273 468.743182 
L 254.848485 468.084219 
L 255.945697 467.432596 
L 257.042909 466.78823 
L 258.140121 466.151041 
L 259.237333 465.520948 
L 260.334545 464.897874 
L 261.431758 464.28174 
L 262.52897 463.672468 
L 263.626182 463.069983 
L 264.723394 462.474209 
L 265.820606 461.885071 
L 266.917818 461.302496 
L 268.01503 460.72641 
L 269.112242 460.156742 
L 270.209455 459.593419 
L 271.306667 459.036372 
L 272.403879 458.485531 
L 273.501091 457.940827 
L 274.598303 457.40219 
L 275.695515 456.869555 
L 276.792727 456.342853 
L 277.889939 455.82202 
L 278.987152 455.30699 
L 280.084364 454.797697 
L 281.181576 454.294079 
L 282.278788 453.796072 
L 283.376 453.303614 
L 284.473212 452.816644 
L 285.570424 452.335099 
L 286.667636 451.858919 
L 287.764848 451.388046 
L 288.862061 450.922419 
L 289.959273 450.461981 
L 291.056485 450.006674 
L 292.153697 449.55644 
L 293.250909 449.111223 
L 294.348121 448.670968 
L 295.445333 448.235619 
L 296.542545 447.805121 
L 297.639758 447.379421 
L 298.73697 446.958465 
L 299.834182 446.5422 
L 300.931394 446.130574 
L 302.028606 445.723536 
L 303.125818 445.321034 
L 304.22303 444.923017 
L 305.320242 444.529437 
L 306.417455 444.140243 
L 307.514667 443.755387 
L 308.611879 443.37482 
L 309.709091 442.998495 
L 310.806303 442.626364 
L 311.903515 442.258381 
L 313.000727 441.894499 
L 314.097939 441.534674 
L 315.195152 441.178858 
L 316.292364 440.827009 
L 317.389576 440.479082 
L 318.486788 440.135033 
L 319.584 439.794819 
" clip-path="url(#pc2cc6950b9)" style="fill: none; stroke: #7979f2; stroke-width: 3; stroke-linecap: round"/>
   </g>
   <g id="text_1">
    <path d="M 328.48898 441.514825 
Q 327.97648 441.514825 327.517105 441.41795 
Q 327.059292 441.319512 326.660855 441.1242 
Q 326.262417 440.928887 325.915542 440.635137 
L 325.915542 440.635137 
L 326.535855 439.8742 
L 326.535855 439.8742 
Q 326.942105 440.225762 327.429605 440.402325 
Q 327.918667 440.577325 328.48898 440.577325 
Q 329.260855 440.577325 329.685855 440.291387 
Q 330.110855 440.00545 330.110855 439.483575 
L 330.110855 439.478887 
Q 330.110855 439.107012 329.917105 438.889825 
Q 329.724918 438.672637 329.418667 438.56795 
Q 329.11398 438.463262 328.631168 438.3742 
Q 328.615543 438.369512 328.598355 438.369512 
Q 328.58273 438.369512 328.567105 438.364825 
L 328.493667 438.350762 
Q 327.781167 438.228887 327.334293 438.075762 
Q 326.887417 437.921075 326.57023 437.513262 
Q 326.253042 437.10545 326.253042 436.353887 
L 326.253042 436.3492 
Q 326.253042 435.689825 326.548355 435.2242 
Q 326.843667 434.757012 327.409292 434.513262 
Q 327.97648 434.26795 328.771793 434.26795 
Q 329.153042 434.26795 329.521793 434.352325 
Q 329.890542 434.435137 330.248355 434.5992 
Q 330.60773 434.7617 330.954605 435.010137 
L 330.954605 435.010137 
L 330.38898 435.802325 
L 330.38898 435.802325 
Q 329.98273 435.503887 329.579605 435.35545 
Q 329.178043 435.20545 328.771793 435.20545 
Q 328.04523 435.20545 327.642105 435.496075 
Q 327.23898 435.7867 327.23898 436.319512 
L 327.23898 436.3242 
Q 327.23898 436.689825 327.446792 436.900762 
Q 327.654605 437.110137 327.96398 437.210137 
Q 328.274917 437.310137 328.82648 437.41795 
Q 328.84523 437.422637 328.862417 437.425762 
Q 328.879605 437.427325 328.899917 437.432012 
Q 328.923355 437.4367 328.953042 437.44295 
Q 328.98273 437.447637 329.006168 437.452325 
Q 329.65148 437.583575 330.08273 437.764825 
Q 330.515542 437.944512 330.806167 438.347637 
Q 331.096792 438.750762 331.096792 439.4492 
L 331.096792 439.458575 
Q 331.096792 440.108575 330.78898 440.569512 
Q 330.481167 441.03045 329.896793 441.272637 
Q 329.31398 441.514825 328.48898 441.514825 
z
M 333.186832 440.494512 
L 334.793082 440.494512 
Q 335.579019 440.494512 336.010269 440.0867 
Q 336.443082 439.678887 336.443082 438.9367 
L 336.443082 436.846075 
Q 336.443082 436.103887 336.010269 435.696075 
Q 335.579019 435.288262 334.793082 435.288262 
L 333.186832 435.288262 
L 333.186832 434.341387 
L 334.763394 434.341387 
Q 335.618082 434.341387 336.222769 434.639825 
Q 336.829019 434.9367 337.146207 435.508575 
Q 337.463394 436.08045 337.463394 436.885137 
L 337.463394 438.897637 
Q 337.463394 439.702325 337.146207 440.2742 
Q 336.829019 440.846075 336.221207 441.144512 
Q 335.613394 441.441387 334.758707 441.441387 
L 333.186832 441.441387 
L 333.186832 440.494512 
z
M 332.513394 434.341387 
L 333.508707 434.341387 
L 333.508707 441.441387 
L 332.513394 441.441387 
L 332.513394 434.341387 
z
M 338.830582 439.488262 
L 341.213394 434.346075 
L 342.239957 434.346075 
L 339.914957 439.428887 
L 343.396207 439.428887 
L 343.396207 440.352325 
L 338.830582 440.352325 
L 338.830582 439.488262 
z
M 341.893082 437.266387 
L 342.864957 437.266387 
L 342.864957 441.446075 
L 341.893082 441.446075 
L 341.893082 437.266387 
z
M 351.32648 437.61795 
L 351.32648 438.858575 
Q 351.32648 439.6492 351.018667 440.252325 
Q 350.710855 440.85545 350.146793 441.185137 
Q 349.58273 441.514825 348.840542 441.514825 
Q 348.08898 441.514825 347.52023 441.20545 
Q 346.95148 440.894512 346.63898 440.328887 
Q 346.32648 439.7617 346.32648 439.014825 
L 346.32648 436.919512 
Q 346.32648 436.128887 346.634292 435.528887 
Q 346.942105 434.927325 347.504605 434.597637 
Q 348.068668 434.26795 348.810855 434.26795 
Q 349.421792 434.26795 349.935855 434.53045 
Q 350.45148 434.791387 350.798355 435.269512 
Q 351.14523 435.747637 351.267105 436.377325 
L 351.267105 436.377325 
L 350.18898 436.377325 
L 350.18898 436.377325 
Q 350.099918 436.021075 349.890542 435.764825 
Q 349.681167 435.508575 349.396793 435.3742 
Q 349.11398 435.239825 348.810855 435.239825 
Q 348.371792 435.239825 348.03898 435.450762 
Q 347.70773 435.660137 347.52648 436.038262 
Q 347.346792 436.416387 347.346792 436.919512 
L 347.346792 439.014825 
Q 347.346792 439.4742 347.531167 439.81795 
Q 347.717105 440.1617 348.056167 440.352325 
Q 348.396793 440.54295 348.840542 440.54295 
Q 349.279605 440.54295 349.610855 440.346075 
Q 349.943668 440.147637 350.124917 439.772637 
Q 350.306167 439.396075 350.306167 438.877325 
L 350.306167 438.569512 
L 348.865543 438.569512 
L 348.865543 437.61795 
L 351.32648 437.61795 
z
M 354.914761 441.514825 
Q 354.211636 441.514825 353.713199 441.250762 
Q 353.216324 440.9867 352.953824 440.477325 
Q 352.692886 439.966387 352.692886 439.244512 
L 352.692886 438.672637 
Q 352.692886 437.921075 352.944449 437.389825 
Q 353.196011 436.857012 353.674136 436.578887 
Q 354.153824 436.2992 354.827261 436.2992 
Q 355.461636 436.2992 355.910074 436.61795 
Q 356.360074 436.935137 356.596011 437.535137 
Q 356.833511 438.135137 356.833511 438.975762 
L 356.833511 439.307012 
L 353.416324 439.307012 
L 353.416324 438.507012 
L 355.886636 438.507012 
L 355.886636 438.507012 
Q 355.842886 437.8867 355.566324 437.54295 
Q 355.291324 437.197637 354.827261 437.197637 
Q 354.260074 437.197637 353.950699 437.569512 
Q 353.641324 437.939825 353.641324 438.619512 
L 353.641324 439.263262 
Q 353.641324 439.89295 353.972574 440.23045 
Q 354.305386 440.56795 354.914761 440.56795 
Q 355.217886 440.56795 355.514761 440.446075 
Q 355.813199 440.322637 356.047574 440.103887 
L 356.047574 440.103887 
L 356.702261 440.757012 
L 356.702261 440.757012 
Q 356.325699 441.119512 355.856949 441.31795 
Q 355.388199 441.514825 354.914761 441.514825 
z
M 358.201089 436.372637 
L 359.197964 436.372637 
L 359.197964 441.441387 
L 358.201089 441.441387 
L 358.201089 436.372637 
z
M 361.277652 438.369512 
Q 361.277652 437.833575 360.999527 437.541387 
Q 360.721402 437.247637 360.218277 437.247637 
Q 359.729214 437.247637 359.463589 437.507012 
Q 359.197964 437.764825 359.197964 438.233575 
L 359.094839 437.257012 
Q 359.329214 436.797637 359.707339 436.5492 
Q 360.085464 436.2992 360.544839 436.2992 
Q 361.369839 436.2992 361.821402 436.839825 
Q 362.272964 437.378887 362.272964 438.364825 
L 362.272964 441.441387 
L 361.277652 441.441387 
L 361.277652 438.369512 
z
M 363.630777 440.577325 
L 366.105777 437.275762 
Q 366.321402 436.99295 366.440152 436.688262 
Q 366.560464 436.382012 366.560464 436.119512 
L 366.560464 436.108575 
Q 366.560464 435.685137 366.310464 435.450762 
Q 366.062027 435.216387 365.604214 435.216387 
Q 365.168277 435.216387 364.899527 435.472637 
Q 364.632339 435.728887 364.572964 436.197637 
L 364.572964 436.202325 
L 363.543277 436.202325 
L 363.543277 436.197637 
Q 363.630777 435.5867 363.901089 435.15545 
Q 364.172964 434.722637 364.602652 434.496075 
Q 365.032339 434.26795 365.593277 434.26795 
Q 366.229214 434.26795 366.677652 434.485137 
Q 367.127652 434.702325 367.362027 435.11795 
Q 367.596402 435.533575 367.596402 436.119512 
L 367.596402 436.1242 
Q 367.596402 436.4992 367.440152 436.910137 
Q 367.283902 437.319512 367.004214 437.700762 
L 364.949527 440.494512 
L 367.635464 440.494512 
L 367.635464 441.441387 
L 363.630777 441.441387 
L 363.630777 440.577325 
z
" style="fill: #ffffff; stroke: #000000"/>
    <path d="M 328.48898 441.514825 
Q 327.97648 441.514825 327.517105 441.41795 
Q 327.059292 441.319512 326.660855 441.1242 
Q 326.262417 440.928887 325.915542 440.635137 
L 325.915542 440.635137 
L 326.535855 439.8742 
L 326.535855 439.8742 
Q 326.942105 440.225762 327.429605 440.402325 
Q 327.918667 440.577325 328.48898 440.577325 
Q 329.260855 440.577325 329.685855 440.291387 
Q 330.110855 440.00545 330.110855 439.483575 
L 330.110855 439.478887 
Q 330.110855 439.107012 329.917105 438.889825 
Q 329.724918 438.672637 329.418667 438.56795 
Q 329.11398 438.463262 328.631168 438.3742 
Q 328.615543 438.369512 328.598355 438.369512 
Q 328.58273 438.369512 328.567105 438.364825 
L 328.493667 438.350762 
Q 327.781167 438.228887 327.334293 438.075762 
Q 326.887417 437.921075 326.57023 437.513262 
Q 326.253042 437.10545 326.253042 436.353887 
L 326.253042 436.3492 
Q 326.253042 435.689825 326.548355 435.2242 
Q 326.843667 434.757012 327.409292 434.513262 
Q 327.97648 434.26795 328.771793 434.26795 
Q 329.153042 434.26795 329.521793 434.352325 
Q 329.890542 434.435137 330.248355 434.5992 
Q 330.60773 434.7617 330.954605 435.010137 
L 330.954605 435.010137 
L 330.38898 435.802325 
L 330.38898 435.802325 
Q 329.98273 435.503887 329.579605 435.35545 
Q 329.178043 435.20545 328.771793 435.20545 
Q 328.04523 435.20545 327.642105 435.496075 
Q 327.23898 435.7867 327.23898 436.319512 
L 327.23898 436.3242 
Q 327.23898 436.689825 327.446792 436.900762 
Q 327.654605 437.110137 327.96398 437.210137 
Q 328.274917 437.310137 328.82648 437.41795 
Q 328.84523 437.422637 328.862417 437.425762 
Q 328.879605 437.427325 328.899917 437.432012 
Q 328.923355 437.4367 328.953042 437.44295 
Q 328.98273 437.447637 329.006168 437.452325 
Q 329.65148 437.583575 330.08273 437.764825 
Q 330.515542 437.944512 330.806167 438.347637 
Q 331.096792 438.750762 331.096792 439.4492 
L 331.096792 439.458575 
Q 331.096792 440.108575 330.78898 440.569512 
Q 330.481167 441.03045 329.896793 441.272637 
Q 329.31398 441.514825 328.48898 441.514825 
z
M 333.186832 440.494512 
L 334.793082 440.494512 
Q 335.579019 440.494512 336.010269 440.0867 
Q 336.443082 439.678887 336.443082 438.9367 
L 336.443082 436.846075 
Q 336.443082 436.103887 336.010269 435.696075 
Q 335.579019 435.288262 334.793082 435.288262 
L 333.186832 435.288262 
L 333.186832 434.341387 
L 334.763394 434.341387 
Q 335.618082 434.341387 336.222769 434.639825 
Q 336.829019 434.9367 337.146207 435.508575 
Q 337.463394 436.08045 337.463394 436.885137 
L 337.463394 438.897637 
Q 337.463394 439.702325 337.146207 440.2742 
Q 336.829019 440.846075 336.221207 441.144512 
Q 335.613394 441.441387 334.758707 441.441387 
L 333.186832 441.441387 
L 333.186832 440.494512 
z
M 332.513394 434.341387 
L 333.508707 434.341387 
L 333.508707 441.441387 
L 332.513394 441.441387 
L 332.513394 434.341387 
z
M 338.830582 439.488262 
L 341.213394 434.346075 
L 342.239957 434.346075 
L 339.914957 439.428887 
L 343.396207 439.428887 
L 343.396207 440.352325 
L 338.830582 440.352325 
L 338.830582 439.488262 
z
M 341.893082 437.266387 
L 342.864957 437.266387 
L 342.864957 441.446075 
L 341.893082 441.446075 
L 341.893082 437.266387 
z
M 351.32648 437.61795 
L 351.32648 438.858575 
Q 351.32648 439.6492 351.018667 440.252325 
Q 350.710855 440.85545 350.146793 441.185137 
Q 349.58273 441.514825 348.840542 441.514825 
Q 348.08898 441.514825 347.52023 441.20545 
Q 346.95148 440.894512 346.63898 440.328887 
Q 346.32648 439.7617 346.32648 439.014825 
L 346.32648 436.919512 
Q 346.32648 436.128887 346.634292 435.528887 
Q 346.942105 434.927325 347.504605 434.597637 
Q 348.068668 434.26795 348.810855 434.26795 
Q 349.421792 434.26795 349.935855 434.53045 
Q 350.45148 434.791387 350.798355 435.269512 
Q 351.14523 435.747637 351.267105 436.377325 
L 351.267105 436.377325 
L 350.18898 436.377325 
L 350.18898 436.377325 
Q 350.099918 436.021075 349.890542 435.764825 
Q 349.681167 435.508575 349.396793 435.3742 
Q 349.11398 435.239825 348.810855 435.239825 
Q 348.371792 435.239825 348.03898 435.450762 
Q 347.70773 435.660137 347.52648 436.038262 
Q 347.346792 436.416387 347.346792 436.919512 
L 347.346792 439.014825 
Q 347.346792 439.4742 347.531167 439.81795 
Q 347.717105 440.1617 348.056167 440.352325 
Q 348.396793 440.54295 348.840542 440.54295 
Q 349.279605 440.54295 349.610855 440.346075 
Q 349.943668 440.147637 350.124917 439.772637 
Q 350.306167 439.396075 350.306167 438.877325 
L 350.306167 438.569512 
L 348.865543 438.569512 
L 348.865543 437.61795 
L 351.32648 437.61795 
z
M 354.914761 441.514825 
Q 354.211636 441.514825 353.713199 441.250762 
Q 353.216324 440.9867 352.953824 440.477325 
Q 352.692886 439.966387 352.692886 439.244512 
L 352.692886 438.672637 
Q 352.692886 437.921075 352.944449 437.389825 
Q 353.196011 436.857012 353.674136 436.578887 
Q 354.153824 436.2992 354.827261 436.2992 
Q 355.461636 436.2992 355.910074 436.61795 
Q 356.360074 436.935137 356.596011 437.535137 
Q 356.833511 438.135137 356.833511 438.975762 
L 356.833511 439.307012 
L 353.416324 439.307012 
L 353.416324 438.507012 
L 355.886636 438.507012 
L 355.886636 438.507012 
Q 355.842886 437.8867 355.566324 437.54295 
Q 355.291324 437.197637 354.827261 437.197637 
Q 354.260074 437.197637 353.950699 437.569512 
Q 353.641324 437.939825 353.641324 438.619512 
L 353.641324 439.263262 
Q 353.641324 439.89295 353.972574 440.23045 
Q 354.305386 440.56795 354.914761 440.56795 
Q 355.217886 440.56795 355.514761 440.446075 
Q 355.813199 440.322637 356.047574 440.103887 
L 356.047574 440.103887 
L 356.702261 440.757012 
L 356.702261 440.757012 
Q 356.325699 441.119512 355.856949 441.31795 
Q 355.388199 441.514825 354.914761 441.514825 
z
M 358.201089 436.372637 
L 359.197964 436.372637 
L 359.197964 441.441387 
L 358.201089 441.441387 
L 358.201089 436.372637 
z
M 361.277652 438.369512 
Q 361.277652 437.833575 360.999527 437.541387 
Q 360.721402 437.247637 360.218277 437.247637 
Q 359.729214 437.247637 359.463589 437.507012 
Q 359.197964 437.764825 359.197964 438.233575 
L 359.094839 437.257012 
Q 359.329214 436.797637 359.707339 436.5492 
Q 360.085464 436.2992 360.544839 436.2992 
Q 361.369839 436.2992 361.821402 436.839825 
Q 362.272964 437.378887 362.272964 438.364825 
L 362.272964 441.441387 
L 361.277652 441.441387 
L 361.277652 438.369512 
z
M 363.630777 440.577325 
L 366.105777 437.275762 
Q 366.321402 436.99295 366.440152 436.688262 
Q 366.560464 436.382012 366.560464 436.119512 
L 366.560464 436.108575 
Q 366.560464 435.685137 366.310464 435.450762 
Q 366.062027 435.216387 365.604214 435.216387 
Q 365.168277 435.216387 364.899527 435.472637 
Q 364.632339 435.728887 364.572964 436.197637 
L 364.572964 436.202325 
L 363.543277 436.202325 
L 363.543277 436.197637 
Q 363.630777 435.5867 363.901089 435.15545 
Q 364.172964 434.722637 364.602652 434.496075 
Q 365.032339 434.26795 365.593277 434.26795 
Q 366.229214 434.26795 366.677652 434.485137 
Q 367.127652 434.702325 367.362027 435.11795 
Q 367.596402 435.533575 367.596402 436.119512 
L 367.596402 436.1242 
Q 367.596402 436.4992 367.440152 436.910137 
Q 367.283902 437.319512 367.004214 437.700762 
L 364.949527 440.494512 
L 367.635464 440.494512 
L 367.635464 441.441387 
L 363.630777 441.441387 
L 363.630777 440.577325 
z
" style="fill: #ffffff"/>
   </g>
  </g>
 </g>
 <defs>
  <clipPath id="pc2cc6950b9">
   <rect x="144" y="77.76" width="892.8" height="498.96"/>
  </clipPath>
 </defs>
</svg>
