<?xml version="1.0" encoding="utf-8" standalone="no"?>
<!DOCTYPE svg PUBLIC "-//W3C//DTD SVG 1.1//EN"
  "http://www.w3.org/Graphics/SVG/1.1/DTD/svg11.dtd">
<svg xmlns:xlink="http://www.w3.org/1999/xlink" width="1152pt" height="648pt" viewBox="0 0 1152 648" xmlns="http://www.w3.org/2000/svg" version="1.1">
 <metadata>
  <rdf:RDF xmlns:dc="http://purl.org/dc/elements/1.1/" xmlns:cc="http://creativecommons.org/ns#" xmlns:rdf="http://www.w3.org/1999/02/22-rdf-syntax-ns#">
   <cc:Work>
    <dc:type rdf:resource="http://purl.org/dc/dcmitype/StillImage"/>
    <dc:date>2024-04-29T10:42:05.301041</dc:date>
    <dc:format>image/svg+xml</dc:format>
    <dc:creator>
     <cc:Agent>
      <dc:title>Matplotlib v3.8.4, https://matplotlib.org/</dc:title>
     </cc:Agent>
    </dc:creator>
   </cc:Work>
  </rdf:RDF>
 </metadata>
 <defs>
  <style type="text/css">*{stroke-linejoin: round; stroke-linecap: butt}</style>
 </defs>
 <g id="figure_1">
  <g id="patch_1">
   <path d="M 0 648 
L 1152 648 
L 1152 0 
L 0 0 
L 0 648 
z
" style="fill: none"/>
  </g>
  <g id="axes_1">
   <g id="line2d_1">
    <path d="M 224.848 537.487371 
L 227.017374 536.927094 
L 229.186747 536.373843 
L 231.356121 535.82753 
L 233.525495 535.288068 
L 235.694869 534.755372 
L 237.864242 534.229356 
L 240.033616 533.709938 
L 242.20299 533.197035 
L 244.372364 532.690564 
L 246.541737 532.190445 
L 248.711111 531.6966 
L 250.880485 531.208949 
L 253.049859 530.727414 
L 255.219232 530.25192 
L 257.388606 529.78239 
L 259.55798 529.318749 
L 261.727354 528.860925 
L 263.896727 528.408844 
L 266.066101 527.962433 
L 268.235475 527.521623 
L 270.404848 527.086343 
L 272.574222 526.656523 
L 274.743596 526.232096 
L 276.91297 525.812993 
L 279.082343 525.399148 
L 281.251717 524.990496 
L 283.421091 524.58697 
L 285.590465 524.188507 
L 287.759838 523.795043 
L 289.929212 523.406516 
L 292.098586 523.022863 
L 294.26796 522.644025 
L 296.437333 522.269939 
L 298.606707 521.900548 
L 300.776081 521.535791 
L 302.945455 521.175611 
L 305.114828 520.819951 
L 307.284202 520.468753 
L 309.453576 520.121963 
L 311.622949 519.779524 
L 313.792323 519.441382 
L 315.961697 519.107483 
L 318.131071 518.777775 
L 320.300444 518.452204 
L 322.469818 518.130718 
L 324.639192 517.813267 
L 326.808566 517.4998 
L 328.977939 517.190266 
L 331.147313 516.884617 
L 333.316687 516.582804 
L 335.486061 516.284779 
L 337.655434 515.990494 
L 339.824808 515.699902 
L 341.994182 515.412958 
L 344.163556 515.129615 
L 346.332929 514.849827 
L 348.502303 514.573552 
L 350.671677 514.300744 
L 352.841051 514.031359 
L 355.010424 513.765356 
L 357.179798 513.502692 
L 359.349172 513.243325 
L 361.518545 512.987213 
L 363.687919 512.734315 
L 365.857293 512.484592 
L 368.026667 512.238003 
L 370.19604 511.99451 
L 372.365414 511.754073 
L 374.534788 511.516654 
L 376.704162 511.282215 
L 378.873535 511.050719 
L 381.042909 510.822128 
L 383.212283 510.596408 
L 385.381657 510.37352 
L 387.55103 510.153431 
L 389.720404 509.936104 
L 391.889778 509.721505 
L 394.059152 509.5096 
L 396.228525 509.300356 
L 398.397899 509.093738 
L 400.567273 508.889714 
L 402.736646 508.688251 
L 404.90602 508.489317 
L 407.075394 508.29288 
L 409.244768 508.09891 
L 411.414141 507.907374 
L 413.583515 507.718244 
L 415.752889 507.531487 
L 417.922263 507.347075 
L 420.091636 507.164979 
L 422.26101 506.985168 
L 424.430384 506.807615 
L 426.599758 506.632291 
L 428.769131 506.459168 
L 430.938505 506.288218 
L 433.107879 506.119415 
L 435.277253 505.952731 
L 437.446626 505.78814 
L 439.616 505.625615 
" clip-path="url(#p6feff2559f)" style="fill: none; stroke: #1f77b4; stroke-width: 3; stroke-linecap: round"/>
   </g>
   <g id="text_1">
    <path d="M 446.388167 500.172183 
L 447.38348 500.172183 
L 447.38348 507.272183 
L 446.388167 507.272183 
L 446.388167 500.172183 
z
M 446.87098 506.325308 
L 450.947542 506.325308 
L 450.947542 507.272183 
L 446.87098 507.272183 
L 446.87098 506.325308 
z
M 446.87098 503.273746 
L 450.411605 503.273746 
L 450.411605 504.220621 
L 446.87098 504.220621 
L 446.87098 503.273746 
z
M 446.87098 500.172183 
L 450.947542 500.172183 
L 450.947542 501.119058 
L 446.87098 501.119058 
L 446.87098 500.172183 
z
M 455.885042 501.061246 
L 454.049105 507.272183 
L 452.98973 507.272183 
L 454.825667 501.119058 
L 453.017855 501.119058 
L 453.017855 502.140933 
L 452.022542 502.140933 
L 452.022542 500.172183 
L 455.885042 500.172183 
L 455.885042 501.061246 
z
M 457.153597 505.319058 
L 459.53641 500.176871 
L 460.562972 500.176871 
L 458.237972 505.259683 
L 461.719222 505.259683 
L 461.719222 506.183121 
L 457.153597 506.183121 
L 457.153597 505.319058 
z
M 460.216097 503.097183 
L 461.187972 503.097183 
L 461.187972 507.276871 
L 460.216097 507.276871 
L 460.216097 503.097183 
z
M 462.832699 506.408121 
L 465.307699 503.106558 
Q 465.523324 502.823746 465.642074 502.519058 
Q 465.762386 502.212808 465.762386 501.950308 
L 465.762386 501.939371 
Q 465.762386 501.515933 465.512386 501.281558 
Q 465.263949 501.047183 464.806136 501.047183 
Q 464.370199 501.047183 464.101449 501.303433 
Q 463.834261 501.559683 463.774886 502.028433 
L 463.774886 502.033121 
L 462.745199 502.033121 
L 462.745199 502.028433 
Q 462.832699 501.417496 463.103011 500.986246 
Q 463.374886 500.553433 463.804574 500.326871 
Q 464.234261 500.098746 464.795199 500.098746 
Q 465.431136 500.098746 465.879574 500.315933 
Q 466.329574 500.533121 466.563949 500.948746 
Q 466.798324 501.364371 466.798324 501.950308 
L 466.798324 501.954996 
Q 466.798324 502.329996 466.642074 502.740933 
Q 466.485824 503.150308 466.206136 503.531558 
L 464.151449 506.325308 
L 466.837386 506.325308 
L 466.837386 507.272183 
L 462.832699 507.272183 
L 462.832699 506.408121 
z
M 470.133089 507.345621 
Q 469.136214 507.345621 468.620589 506.814371 
Q 468.106527 506.281558 468.106527 505.328433 
L 468.106527 502.101871 
Q 468.106527 501.144058 468.623714 500.614371 
Q 469.140902 500.084683 470.133089 500.084683 
Q 471.128402 500.084683 471.644027 500.612808 
Q 472.159652 501.139371 472.159652 502.101871 
L 472.159652 505.328433 
Q 472.159652 506.286246 471.640902 506.815933 
Q 471.123714 507.345621 470.133089 507.345621 
z
M 470.133089 506.398746 
Q 470.659652 506.398746 470.911214 506.122183 
Q 471.162777 505.845621 471.162777 505.328433 
L 471.162777 502.101871 
Q 471.162777 501.583121 470.912777 501.308121 
Q 470.664339 501.031558 470.133089 501.031558 
Q 469.600277 501.031558 469.350277 501.308121 
Q 469.101839 501.583121 469.101839 502.101871 
L 469.101839 505.328433 
Q 469.101839 505.845621 469.353402 506.122183 
Q 469.604964 506.398746 470.133089 506.398746 
z
" style="fill: #ffffff; stroke: #000000"/>
    <path d="M 446.388167 500.172183 
L 447.38348 500.172183 
L 447.38348 507.272183 
L 446.388167 507.272183 
L 446.388167 500.172183 
z
M 446.87098 506.325308 
L 450.947542 506.325308 
L 450.947542 507.272183 
L 446.87098 507.272183 
L 446.87098 506.325308 
z
M 446.87098 503.273746 
L 450.411605 503.273746 
L 450.411605 504.220621 
L 446.87098 504.220621 
L 446.87098 503.273746 
z
M 446.87098 500.172183 
L 450.947542 500.172183 
L 450.947542 501.119058 
L 446.87098 501.119058 
L 446.87098 500.172183 
z
M 455.885042 501.061246 
L 454.049105 507.272183 
L 452.98973 507.272183 
L 454.825667 501.119058 
L 453.017855 501.119058 
L 453.017855 502.140933 
L 452.022542 502.140933 
L 452.022542 500.172183 
L 455.885042 500.172183 
L 455.885042 501.061246 
z
M 457.153597 505.319058 
L 459.53641 500.176871 
L 460.562972 500.176871 
L 458.237972 505.259683 
L 461.719222 505.259683 
L 461.719222 506.183121 
L 457.153597 506.183121 
L 457.153597 505.319058 
z
M 460.216097 503.097183 
L 461.187972 503.097183 
L 461.187972 507.276871 
L 460.216097 507.276871 
L 460.216097 503.097183 
z
M 462.832699 506.408121 
L 465.307699 503.106558 
Q 465.523324 502.823746 465.642074 502.519058 
Q 465.762386 502.212808 465.762386 501.950308 
L 465.762386 501.939371 
Q 465.762386 501.515933 465.512386 501.281558 
Q 465.263949 501.047183 464.806136 501.047183 
Q 464.370199 501.047183 464.101449 501.303433 
Q 463.834261 501.559683 463.774886 502.028433 
L 463.774886 502.033121 
L 462.745199 502.033121 
L 462.745199 502.028433 
Q 462.832699 501.417496 463.103011 500.986246 
Q 463.374886 500.553433 463.804574 500.326871 
Q 464.234261 500.098746 464.795199 500.098746 
Q 465.431136 500.098746 465.879574 500.315933 
Q 466.329574 500.533121 466.563949 500.948746 
Q 466.798324 501.364371 466.798324 501.950308 
L 466.798324 501.954996 
Q 466.798324 502.329996 466.642074 502.740933 
Q 466.485824 503.150308 466.206136 503.531558 
L 464.151449 506.325308 
L 466.837386 506.325308 
L 466.837386 507.272183 
L 462.832699 507.272183 
L 462.832699 506.408121 
z
M 470.133089 507.345621 
Q 469.136214 507.345621 468.620589 506.814371 
Q 468.106527 506.281558 468.106527 505.328433 
L 468.106527 502.101871 
Q 468.106527 501.144058 468.623714 500.614371 
Q 469.140902 500.084683 470.133089 500.084683 
Q 471.128402 500.084683 471.644027 500.612808 
Q 472.159652 501.139371 472.159652 502.101871 
L 472.159652 505.328433 
Q 472.159652 506.286246 471.640902 506.815933 
Q 471.123714 507.345621 470.133089 507.345621 
z
M 470.133089 506.398746 
Q 470.659652 506.398746 470.911214 506.122183 
Q 471.162777 505.845621 471.162777 505.328433 
L 471.162777 502.101871 
Q 471.162777 501.583121 470.912777 501.308121 
Q 470.664339 501.031558 470.133089 501.031558 
Q 469.600277 501.031558 469.350277 501.308121 
Q 469.101839 501.583121 469.101839 502.101871 
L 469.101839 505.328433 
Q 469.101839 505.845621 469.353402 506.122183 
Q 469.604964 506.398746 470.133089 506.398746 
z
" style="fill: #ffffff"/>
   </g>
  </g>
 </g>
 <defs>
  <clipPath id="p6feff2559f">
   <rect x="144" y="77.76" width="892.8" height="498.96"/>
  </clipPath>
 </defs>
</svg>
