<?xml version="1.0" encoding="utf-8" standalone="no"?>
<!DOCTYPE svg PUBLIC "-//W3C//DTD SVG 1.1//EN"
  "http://www.w3.org/Graphics/SVG/1.1/DTD/svg11.dtd">
<svg xmlns:xlink="http://www.w3.org/1999/xlink" width="1152pt" height="648pt" viewBox="0 0 1152 648" xmlns="http://www.w3.org/2000/svg" version="1.1">
 <metadata>
  <rdf:RDF xmlns:dc="http://purl.org/dc/elements/1.1/" xmlns:cc="http://creativecommons.org/ns#" xmlns:rdf="http://www.w3.org/1999/02/22-rdf-syntax-ns#">
   <cc:Work>
    <dc:type rdf:resource="http://purl.org/dc/dcmitype/StillImage"/>
    <dc:date>2024-03-14T14:55:09.043548</dc:date>
    <dc:format>image/svg+xml</dc:format>
    <dc:creator>
     <cc:Agent>
      <dc:title>Matplotlib v3.8.3, https://matplotlib.org/</dc:title>
     </cc:Agent>
    </dc:creator>
   </cc:Work>
  </rdf:RDF>
 </metadata>
 <defs>
  <style type="text/css">*{stroke-linejoin: round; stroke-linecap: butt}</style>
 </defs>
 <g id="figure_1">
  <g id="patch_1">
   <path d="M 0 648 
L 1152 648 
L 1152 0 
L 0 0 
L 0 648 
z
" style="fill: none"/>
  </g>
  <g id="axes_1">
   <g id="PathCollection_1">
    <defs>
     <path id="m93947778ea" d="M 0 2.738613 
C 0.726289 2.738613 1.422928 2.450055 1.936492 1.936492 
C 2.450055 1.422928 2.738613 0.726289 2.738613 0 
C 2.738613 -0.726289 2.450055 -1.422928 1.936492 -1.936492 
C 1.422928 -2.450055 0.726289 -2.738613 0 -2.738613 
C -0.726289 -2.738613 -1.422928 -2.450055 -1.936492 -1.936492 
C -2.450055 -1.422928 -2.738613 -0.726289 -2.738613 0 
C -2.738613 0.726289 -2.450055 1.422928 -1.936492 1.936492 
C -1.422928 2.450055 -0.726289 2.738613 0 2.738613 
z
" style="stroke: #ff0000"/>
    </defs>
    <g clip-path="url(#p12c900b266)">
     <use xlink:href="#m93947778ea" x="619.168" y="388.92393" style="fill: #ff0000; stroke: #ff0000"/>
     <use xlink:href="#m93947778ea" x="340.416" y="439.19415" style="fill: #ff0000; stroke: #ff0000"/>
    </g>
   </g>
   <g id="text_1">
    <path d="M 626.721418 387.454873 
L 629.855793 383.470498 
L 631.080793 383.470498 
L 626.574543 388.948623 
L 626.721418 387.454873 
z
M 625.940168 383.470498 
L 626.93548 383.470498 
L 626.93548 390.570498 
L 625.940168 390.570498 
L 625.940168 383.470498 
z
M 627.902668 386.781435 
L 628.688605 386.053311 
L 631.37923 390.570498 
L 630.158918 390.570498 
L 627.902668 386.781435 
z
M 634.723371 387.045498 
L 634.718683 387.220498 
Q 634.596808 387.445498 634.349933 387.550185 
Q 634.103058 387.654873 633.767121 387.654873 
Q 633.259308 387.654873 632.873371 387.397061 
Q 632.487433 387.137685 632.274933 386.667373 
Q 632.062433 386.195498 632.062433 385.575185 
L 632.062433 385.570498 
Q 632.062433 384.881436 632.293683 384.393935 
Q 632.526496 383.904873 632.973371 383.651748 
Q 633.420246 383.397061 634.045246 383.397061 
Q 634.670246 383.397061 635.113996 383.656435 
Q 635.559308 383.91581 635.790558 384.40956 
Q 636.021808 384.901748 636.021808 385.595498 
L 636.021808 385.600186 
Q 636.021808 385.979873 635.923371 386.412686 
Q 635.826496 386.845498 635.646808 387.268935 
Q 635.617121 387.332998 635.587433 387.398623 
Q 635.559308 387.464248 635.524933 387.52831 
L 634.010871 390.570498 
L 632.935871 390.570498 
L 634.723371 387.045498 
z
M 634.045246 386.74706 
Q 634.513996 386.74706 634.770246 386.429873 
Q 635.026496 386.112685 635.026496 385.536123 
L 635.026496 385.531435 
Q 635.026496 384.970498 634.770246 384.662686 
Q 634.513996 384.354873 634.045246 384.354873 
Q 633.571808 384.354873 633.315558 384.662686 
Q 633.059308 384.970498 633.059308 385.536123 
L 633.059308 385.54081 
Q 633.059308 386.117373 633.315558 386.432998 
Q 633.571808 386.74706 634.045246 386.74706 
z
M 639.367707 390.643935 
Q 638.370832 390.643935 637.855207 390.112685 
Q 637.341144 389.579873 637.341144 388.626748 
L 637.341144 385.400185 
Q 637.341144 384.442373 637.858332 383.912686 
Q 638.375519 383.382998 639.367707 383.382998 
Q 640.363019 383.382998 640.878644 383.911123 
Q 641.394269 384.437685 641.394269 385.400185 
L 641.394269 388.626748 
Q 641.394269 389.584561 640.875519 390.114248 
Q 640.358332 390.643935 639.367707 390.643935 
z
M 639.367707 389.69706 
Q 639.894269 389.69706 640.145832 389.420498 
Q 640.397394 389.143935 640.397394 388.626748 
L 640.397394 385.400185 
Q 640.397394 384.881436 640.147394 384.606435 
Q 639.898957 384.329873 639.367707 384.329873 
Q 638.834894 384.329873 638.584894 384.606435 
Q 638.336457 384.881436 638.336457 385.400185 
L 638.336457 388.626748 
Q 638.336457 389.143935 638.588019 389.420498 
Q 638.839582 389.69706 639.367707 389.69706 
z
M 644.885285 390.643935 
Q 643.88841 390.643935 643.372785 390.112685 
Q 642.858722 389.579873 642.858722 388.626748 
L 642.858722 385.400185 
Q 642.858722 384.442373 643.37591 383.912686 
Q 643.893097 383.382998 644.885285 383.382998 
Q 645.880597 383.382998 646.396222 383.911123 
Q 646.911847 384.437685 646.911847 385.400185 
L 646.911847 388.626748 
Q 646.911847 389.584561 646.393097 390.114248 
Q 645.87591 390.643935 644.885285 390.643935 
z
M 644.885285 389.69706 
Q 645.411847 389.69706 645.66341 389.420498 
Q 645.914972 389.143935 645.914972 388.626748 
L 645.914972 385.400185 
Q 645.914972 384.881436 645.664972 384.606435 
Q 645.416535 384.329873 644.885285 384.329873 
Q 644.352472 384.329873 644.102472 384.606435 
Q 643.854035 384.881436 643.854035 385.400185 
L 643.854035 388.626748 
Q 643.854035 389.143935 644.105597 389.420498 
Q 644.35716 389.69706 644.885285 389.69706 
z
M 650.402863 390.643935 
Q 649.405988 390.643935 648.890363 390.112685 
Q 648.3763 389.579873 648.3763 388.626748 
L 648.3763 385.400185 
Q 648.3763 384.442373 648.893488 383.912686 
Q 649.410675 383.382998 650.402863 383.382998 
Q 651.398175 383.382998 651.9138 383.911123 
Q 652.429425 384.437685 652.429425 385.400185 
L 652.429425 388.626748 
Q 652.429425 389.584561 651.910675 390.114248 
Q 651.393488 390.643935 650.402863 390.643935 
z
M 650.402863 389.69706 
Q 650.929425 389.69706 651.180988 389.420498 
Q 651.43255 389.143935 651.43255 388.626748 
L 651.43255 385.400185 
Q 651.43255 384.881436 651.18255 384.606435 
Q 650.934113 384.329873 650.402863 384.329873 
Q 649.87005 384.329873 649.62005 384.606435 
Q 649.371613 384.881436 649.371613 385.400185 
L 649.371613 388.626748 
Q 649.371613 389.143935 649.623175 389.420498 
Q 649.874738 389.69706 650.402863 389.69706 
z
M 656.173566 390.643935 
Q 655.661066 390.643935 655.201691 390.54706 
Q 654.743878 390.448623 654.345441 390.25331 
Q 653.947003 390.057998 653.600128 389.764248 
L 653.600128 389.764248 
L 654.220441 389.00331 
L 654.220441 389.00331 
Q 654.626691 389.354873 655.114191 389.531435 
Q 655.603253 389.706435 656.173566 389.706435 
Q 656.945441 389.706435 657.370441 389.420498 
Q 657.795441 389.13456 657.795441 388.612685 
L 657.795441 388.607998 
Q 657.795441 388.236123 657.601691 388.018935 
Q 657.409503 387.801748 657.103253 387.69706 
Q 656.798566 387.592373 656.315753 387.50331 
Q 656.300128 387.498623 656.282941 387.498623 
Q 656.267316 387.498623 656.251691 387.493935 
L 656.178253 387.479873 
Q 655.465753 387.357998 655.018878 387.204873 
Q 654.572003 387.050185 654.254816 386.642373 
Q 653.937628 386.23456 653.937628 385.482998 
L 653.937628 385.47831 
Q 653.937628 384.818936 654.232941 384.35331 
Q 654.528253 383.886123 655.093878 383.642373 
Q 655.661066 383.397061 656.456378 383.397061 
Q 656.837628 383.397061 657.206378 383.481435 
Q 657.575128 383.564248 657.932941 383.72831 
Q 658.292316 383.89081 658.639191 384.139248 
L 658.639191 384.139248 
L 658.073566 384.931435 
L 658.073566 384.931435 
Q 657.667316 384.632998 657.264191 384.48456 
Q 656.862628 384.334561 656.456378 384.334561 
Q 655.729816 384.334561 655.326691 384.625185 
Q 654.923566 384.91581 654.923566 385.448623 
L 654.923566 385.45331 
Q 654.923566 385.818936 655.131378 386.029873 
Q 655.339191 386.239248 655.648566 386.339248 
Q 655.959503 386.439248 656.511066 386.54706 
Q 656.529816 386.551748 656.547003 386.554873 
Q 656.564191 386.556435 656.584503 386.561123 
Q 656.607941 386.56581 656.637628 386.57206 
Q 656.667316 386.576748 656.690753 386.581435 
Q 657.336066 386.712685 657.767316 386.893935 
Q 658.200128 387.073623 658.490753 387.476748 
Q 658.781378 387.879873 658.781378 388.57831 
L 658.781378 388.587685 
Q 658.781378 389.237685 658.473566 389.698623 
Q 658.165753 390.15956 657.581378 390.401748 
Q 656.998566 390.643935 656.173566 390.643935 
z
M 660.19798 383.470498 
L 661.193292 383.470498 
L 661.193292 390.570498 
L 660.19798 390.570498 
L 660.19798 383.470498 
z
M 660.694855 389.623623 
L 664.757355 389.623623 
L 664.757355 390.570498 
L 660.694855 390.570498 
L 660.694855 389.623623 
z
" style="fill: #ffffff; stroke: #000000"/>
    <path d="M 626.721418 387.454873 
L 629.855793 383.470498 
L 631.080793 383.470498 
L 626.574543 388.948623 
L 626.721418 387.454873 
z
M 625.940168 383.470498 
L 626.93548 383.470498 
L 626.93548 390.570498 
L 625.940168 390.570498 
L 625.940168 383.470498 
z
M 627.902668 386.781435 
L 628.688605 386.053311 
L 631.37923 390.570498 
L 630.158918 390.570498 
L 627.902668 386.781435 
z
M 634.723371 387.045498 
L 634.718683 387.220498 
Q 634.596808 387.445498 634.349933 387.550185 
Q 634.103058 387.654873 633.767121 387.654873 
Q 633.259308 387.654873 632.873371 387.397061 
Q 632.487433 387.137685 632.274933 386.667373 
Q 632.062433 386.195498 632.062433 385.575185 
L 632.062433 385.570498 
Q 632.062433 384.881436 632.293683 384.393935 
Q 632.526496 383.904873 632.973371 383.651748 
Q 633.420246 383.397061 634.045246 383.397061 
Q 634.670246 383.397061 635.113996 383.656435 
Q 635.559308 383.91581 635.790558 384.40956 
Q 636.021808 384.901748 636.021808 385.595498 
L 636.021808 385.600186 
Q 636.021808 385.979873 635.923371 386.412686 
Q 635.826496 386.845498 635.646808 387.268935 
Q 635.617121 387.332998 635.587433 387.398623 
Q 635.559308 387.464248 635.524933 387.52831 
L 634.010871 390.570498 
L 632.935871 390.570498 
L 634.723371 387.045498 
z
M 634.045246 386.74706 
Q 634.513996 386.74706 634.770246 386.429873 
Q 635.026496 386.112685 635.026496 385.536123 
L 635.026496 385.531435 
Q 635.026496 384.970498 634.770246 384.662686 
Q 634.513996 384.354873 634.045246 384.354873 
Q 633.571808 384.354873 633.315558 384.662686 
Q 633.059308 384.970498 633.059308 385.536123 
L 633.059308 385.54081 
Q 633.059308 386.117373 633.315558 386.432998 
Q 633.571808 386.74706 634.045246 386.74706 
z
M 639.367707 390.643935 
Q 638.370832 390.643935 637.855207 390.112685 
Q 637.341144 389.579873 637.341144 388.626748 
L 637.341144 385.400185 
Q 637.341144 384.442373 637.858332 383.912686 
Q 638.375519 383.382998 639.367707 383.382998 
Q 640.363019 383.382998 640.878644 383.911123 
Q 641.394269 384.437685 641.394269 385.400185 
L 641.394269 388.626748 
Q 641.394269 389.584561 640.875519 390.114248 
Q 640.358332 390.643935 639.367707 390.643935 
z
M 639.367707 389.69706 
Q 639.894269 389.69706 640.145832 389.420498 
Q 640.397394 389.143935 640.397394 388.626748 
L 640.397394 385.400185 
Q 640.397394 384.881436 640.147394 384.606435 
Q 639.898957 384.329873 639.367707 384.329873 
Q 638.834894 384.329873 638.584894 384.606435 
Q 638.336457 384.881436 638.336457 385.400185 
L 638.336457 388.626748 
Q 638.336457 389.143935 638.588019 389.420498 
Q 638.839582 389.69706 639.367707 389.69706 
z
M 644.885285 390.643935 
Q 643.88841 390.643935 643.372785 390.112685 
Q 642.858722 389.579873 642.858722 388.626748 
L 642.858722 385.400185 
Q 642.858722 384.442373 643.37591 383.912686 
Q 643.893097 383.382998 644.885285 383.382998 
Q 645.880597 383.382998 646.396222 383.911123 
Q 646.911847 384.437685 646.911847 385.400185 
L 646.911847 388.626748 
Q 646.911847 389.584561 646.393097 390.114248 
Q 645.87591 390.643935 644.885285 390.643935 
z
M 644.885285 389.69706 
Q 645.411847 389.69706 645.66341 389.420498 
Q 645.914972 389.143935 645.914972 388.626748 
L 645.914972 385.400185 
Q 645.914972 384.881436 645.664972 384.606435 
Q 645.416535 384.329873 644.885285 384.329873 
Q 644.352472 384.329873 644.102472 384.606435 
Q 643.854035 384.881436 643.854035 385.400185 
L 643.854035 388.626748 
Q 643.854035 389.143935 644.105597 389.420498 
Q 644.35716 389.69706 644.885285 389.69706 
z
M 650.402863 390.643935 
Q 649.405988 390.643935 648.890363 390.112685 
Q 648.3763 389.579873 648.3763 388.626748 
L 648.3763 385.400185 
Q 648.3763 384.442373 648.893488 383.912686 
Q 649.410675 383.382998 650.402863 383.382998 
Q 651.398175 383.382998 651.9138 383.911123 
Q 652.429425 384.437685 652.429425 385.400185 
L 652.429425 388.626748 
Q 652.429425 389.584561 651.910675 390.114248 
Q 651.393488 390.643935 650.402863 390.643935 
z
M 650.402863 389.69706 
Q 650.929425 389.69706 651.180988 389.420498 
Q 651.43255 389.143935 651.43255 388.626748 
L 651.43255 385.400185 
Q 651.43255 384.881436 651.18255 384.606435 
Q 650.934113 384.329873 650.402863 384.329873 
Q 649.87005 384.329873 649.62005 384.606435 
Q 649.371613 384.881436 649.371613 385.400185 
L 649.371613 388.626748 
Q 649.371613 389.143935 649.623175 389.420498 
Q 649.874738 389.69706 650.402863 389.69706 
z
M 656.173566 390.643935 
Q 655.661066 390.643935 655.201691 390.54706 
Q 654.743878 390.448623 654.345441 390.25331 
Q 653.947003 390.057998 653.600128 389.764248 
L 653.600128 389.764248 
L 654.220441 389.00331 
L 654.220441 389.00331 
Q 654.626691 389.354873 655.114191 389.531435 
Q 655.603253 389.706435 656.173566 389.706435 
Q 656.945441 389.706435 657.370441 389.420498 
Q 657.795441 389.13456 657.795441 388.612685 
L 657.795441 388.607998 
Q 657.795441 388.236123 657.601691 388.018935 
Q 657.409503 387.801748 657.103253 387.69706 
Q 656.798566 387.592373 656.315753 387.50331 
Q 656.300128 387.498623 656.282941 387.498623 
Q 656.267316 387.498623 656.251691 387.493935 
L 656.178253 387.479873 
Q 655.465753 387.357998 655.018878 387.204873 
Q 654.572003 387.050185 654.254816 386.642373 
Q 653.937628 386.23456 653.937628 385.482998 
L 653.937628 385.47831 
Q 653.937628 384.818936 654.232941 384.35331 
Q 654.528253 383.886123 655.093878 383.642373 
Q 655.661066 383.397061 656.456378 383.397061 
Q 656.837628 383.397061 657.206378 383.481435 
Q 657.575128 383.564248 657.932941 383.72831 
Q 658.292316 383.89081 658.639191 384.139248 
L 658.639191 384.139248 
L 658.073566 384.931435 
L 658.073566 384.931435 
Q 657.667316 384.632998 657.264191 384.48456 
Q 656.862628 384.334561 656.456378 384.334561 
Q 655.729816 384.334561 655.326691 384.625185 
Q 654.923566 384.91581 654.923566 385.448623 
L 654.923566 385.45331 
Q 654.923566 385.818936 655.131378 386.029873 
Q 655.339191 386.239248 655.648566 386.339248 
Q 655.959503 386.439248 656.511066 386.54706 
Q 656.529816 386.551748 656.547003 386.554873 
Q 656.564191 386.556435 656.584503 386.561123 
Q 656.607941 386.56581 656.637628 386.57206 
Q 656.667316 386.576748 656.690753 386.581435 
Q 657.336066 386.712685 657.767316 386.893935 
Q 658.200128 387.073623 658.490753 387.476748 
Q 658.781378 387.879873 658.781378 388.57831 
L 658.781378 388.587685 
Q 658.781378 389.237685 658.473566 389.698623 
Q 658.165753 390.15956 657.581378 390.401748 
Q 656.998566 390.643935 656.173566 390.643935 
z
M 660.19798 383.470498 
L 661.193292 383.470498 
L 661.193292 390.570498 
L 660.19798 390.570498 
L 660.19798 383.470498 
z
M 660.694855 389.623623 
L 664.757355 389.623623 
L 664.757355 390.570498 
L 660.694855 390.570498 
L 660.694855 389.623623 
z
" style="fill: #ffffff"/>
   </g>
   <g id="text_2">
    <path d="M 347.969417 437.725093 
L 351.103792 433.740718 
L 352.328792 433.740718 
L 347.822542 439.218843 
L 347.969417 437.725093 
z
M 347.188167 433.740718 
L 348.18348 433.740718 
L 348.18348 440.840718 
L 347.188167 440.840718 
L 347.188167 433.740718 
z
M 349.150667 437.051655 
L 349.936605 436.323531 
L 352.62723 440.840718 
L 351.406917 440.840718 
L 349.150667 437.051655 
z
M 355.971371 437.315718 
L 355.966683 437.490718 
Q 355.844808 437.715718 355.597933 437.820405 
Q 355.351058 437.925093 355.015121 437.925093 
Q 354.507308 437.925093 354.121371 437.667281 
Q 353.735433 437.407905 353.522933 436.937593 
Q 353.310433 436.465718 353.310433 435.845405 
L 353.310433 435.840718 
Q 353.310433 435.151656 353.541683 434.664155 
Q 353.774496 434.175093 354.221371 433.921968 
Q 354.668246 433.667281 355.293246 433.667281 
Q 355.918246 433.667281 356.361996 433.926655 
Q 356.807308 434.18603 357.038558 434.67978 
Q 357.269808 435.171968 357.269808 435.865718 
L 357.269808 435.870406 
Q 357.269808 436.250093 357.171371 436.682906 
Q 357.074496 437.115718 356.894808 437.539155 
Q 356.865121 437.603218 356.835433 437.668843 
Q 356.807308 437.734468 356.772933 437.79853 
L 355.258871 440.840718 
L 354.183871 440.840718 
L 355.971371 437.315718 
z
M 355.293246 437.01728 
Q 355.761996 437.01728 356.018246 436.700093 
Q 356.274496 436.382905 356.274496 435.806343 
L 356.274496 435.801655 
Q 356.274496 435.240718 356.018246 434.932906 
Q 355.761996 434.625093 355.293246 434.625093 
Q 354.819808 434.625093 354.563558 434.932906 
Q 354.307308 435.240718 354.307308 435.806343 
L 354.307308 435.81103 
Q 354.307308 436.387593 354.563558 436.703218 
Q 354.819808 437.01728 355.293246 437.01728 
z
M 360.615707 440.914155 
Q 359.618832 440.914155 359.103207 440.382905 
Q 358.589144 439.850093 358.589144 438.896968 
L 358.589144 435.670405 
Q 358.589144 434.712593 359.106332 434.182906 
Q 359.623519 433.653218 360.615707 433.653218 
Q 361.611019 433.653218 362.126644 434.181343 
Q 362.642269 434.707905 362.642269 435.670405 
L 362.642269 438.896968 
Q 362.642269 439.854781 362.123519 440.384468 
Q 361.606332 440.914155 360.615707 440.914155 
z
M 360.615707 439.96728 
Q 361.142269 439.96728 361.393832 439.690718 
Q 361.645394 439.414155 361.645394 438.896968 
L 361.645394 435.670405 
Q 361.645394 435.151656 361.395394 434.876655 
Q 361.146957 434.600093 360.615707 434.600093 
Q 360.082894 434.600093 359.832894 434.876655 
Q 359.584457 435.151656 359.584457 435.670405 
L 359.584457 438.896968 
Q 359.584457 439.414155 359.836019 439.690718 
Q 360.087582 439.96728 360.615707 439.96728 
z
M 366.133285 440.914155 
Q 365.13641 440.914155 364.620785 440.382905 
Q 364.106722 439.850093 364.106722 438.896968 
L 364.106722 435.670405 
Q 364.106722 434.712593 364.62391 434.182906 
Q 365.141097 433.653218 366.133285 433.653218 
Q 367.128597 433.653218 367.644222 434.181343 
Q 368.159847 434.707905 368.159847 435.670405 
L 368.159847 438.896968 
Q 368.159847 439.854781 367.641097 440.384468 
Q 367.12391 440.914155 366.133285 440.914155 
z
M 366.133285 439.96728 
Q 366.659847 439.96728 366.91141 439.690718 
Q 367.162972 439.414155 367.162972 438.896968 
L 367.162972 435.670405 
Q 367.162972 435.151656 366.912972 434.876655 
Q 366.664535 434.600093 366.133285 434.600093 
Q 365.600472 434.600093 365.350472 434.876655 
Q 365.102035 435.151656 365.102035 435.670405 
L 365.102035 438.896968 
Q 365.102035 439.414155 365.353597 439.690718 
Q 365.60516 439.96728 366.133285 439.96728 
z
M 371.650863 440.914155 
Q 370.653988 440.914155 370.138363 440.382905 
Q 369.6243 439.850093 369.6243 438.896968 
L 369.6243 435.670405 
Q 369.6243 434.712593 370.141488 434.182906 
Q 370.658675 433.653218 371.650863 433.653218 
Q 372.646175 433.653218 373.1618 434.181343 
Q 373.677425 434.707905 373.677425 435.670405 
L 373.677425 438.896968 
Q 373.677425 439.854781 373.158675 440.384468 
Q 372.641488 440.914155 371.650863 440.914155 
z
M 371.650863 439.96728 
Q 372.177425 439.96728 372.428988 439.690718 
Q 372.68055 439.414155 372.68055 438.896968 
L 372.68055 435.670405 
Q 372.68055 435.151656 372.43055 434.876655 
Q 372.182113 434.600093 371.650863 434.600093 
Q 371.11805 434.600093 370.86805 434.876655 
Q 370.619613 435.151656 370.619613 435.670405 
L 370.619613 438.896968 
Q 370.619613 439.414155 370.871175 439.690718 
Q 371.122738 439.96728 371.650863 439.96728 
z
M 377.421566 440.914155 
Q 376.909066 440.914155 376.449691 440.81728 
Q 375.991878 440.718843 375.593441 440.52353 
Q 375.195003 440.328218 374.848128 440.034468 
L 374.848128 440.034468 
L 375.468441 439.27353 
L 375.468441 439.27353 
Q 375.874691 439.625093 376.362191 439.801655 
Q 376.851253 439.976655 377.421566 439.976655 
Q 378.193441 439.976655 378.618441 439.690718 
Q 379.043441 439.40478 379.043441 438.882905 
L 379.043441 438.878218 
Q 379.043441 438.506343 378.849691 438.289155 
Q 378.657503 438.071968 378.351253 437.96728 
Q 378.046566 437.862593 377.563753 437.77353 
Q 377.548128 437.768843 377.530941 437.768843 
Q 377.515316 437.768843 377.499691 437.764155 
L 377.426253 437.750093 
Q 376.713753 437.628218 376.266878 437.475093 
Q 375.820003 437.320405 375.502816 436.912593 
Q 375.185628 436.50478 375.185628 435.753218 
L 375.185628 435.74853 
Q 375.185628 435.089156 375.480941 434.62353 
Q 375.776253 434.156343 376.341878 433.912593 
Q 376.909066 433.667281 377.704378 433.667281 
Q 378.085628 433.667281 378.454378 433.751655 
Q 378.823128 433.834468 379.180941 433.99853 
Q 379.540316 434.16103 379.887191 434.409468 
L 379.887191 434.409468 
L 379.321566 435.201655 
L 379.321566 435.201655 
Q 378.915316 434.903218 378.512191 434.75478 
Q 378.110628 434.604781 377.704378 434.604781 
Q 376.977816 434.604781 376.574691 434.895405 
Q 376.171566 435.18603 376.171566 435.718843 
L 376.171566 435.72353 
Q 376.171566 436.089156 376.379378 436.300093 
Q 376.587191 436.509468 376.896566 436.609468 
Q 377.207503 436.709468 377.759066 436.81728 
Q 377.777816 436.821968 377.795003 436.825093 
Q 377.812191 436.826655 377.832503 436.831343 
Q 377.855941 436.83603 377.885628 436.84228 
Q 377.915316 436.846968 377.938753 436.851655 
Q 378.584066 436.982905 379.015316 437.164155 
Q 379.448128 437.343843 379.738753 437.746968 
Q 380.029378 438.150093 380.029378 438.84853 
L 380.029378 438.857905 
Q 380.029378 439.507905 379.721566 439.968843 
Q 379.413753 440.42978 378.829378 440.671968 
Q 378.246566 440.914155 377.421566 440.914155 
z
M 381.44598 433.740718 
L 382.441292 433.740718 
L 382.441292 440.840718 
L 381.44598 440.840718 
L 381.44598 433.740718 
z
M 381.942855 439.893843 
L 386.005355 439.893843 
L 386.005355 440.840718 
L 381.942855 440.840718 
L 381.942855 439.893843 
z
" style="fill: #ffffff; stroke: #000000"/>
    <path d="M 347.969417 437.725093 
L 351.103792 433.740718 
L 352.328792 433.740718 
L 347.822542 439.218843 
L 347.969417 437.725093 
z
M 347.188167 433.740718 
L 348.18348 433.740718 
L 348.18348 440.840718 
L 347.188167 440.840718 
L 347.188167 433.740718 
z
M 349.150667 437.051655 
L 349.936605 436.323531 
L 352.62723 440.840718 
L 351.406917 440.840718 
L 349.150667 437.051655 
z
M 355.971371 437.315718 
L 355.966683 437.490718 
Q 355.844808 437.715718 355.597933 437.820405 
Q 355.351058 437.925093 355.015121 437.925093 
Q 354.507308 437.925093 354.121371 437.667281 
Q 353.735433 437.407905 353.522933 436.937593 
Q 353.310433 436.465718 353.310433 435.845405 
L 353.310433 435.840718 
Q 353.310433 435.151656 353.541683 434.664155 
Q 353.774496 434.175093 354.221371 433.921968 
Q 354.668246 433.667281 355.293246 433.667281 
Q 355.918246 433.667281 356.361996 433.926655 
Q 356.807308 434.18603 357.038558 434.67978 
Q 357.269808 435.171968 357.269808 435.865718 
L 357.269808 435.870406 
Q 357.269808 436.250093 357.171371 436.682906 
Q 357.074496 437.115718 356.894808 437.539155 
Q 356.865121 437.603218 356.835433 437.668843 
Q 356.807308 437.734468 356.772933 437.79853 
L 355.258871 440.840718 
L 354.183871 440.840718 
L 355.971371 437.315718 
z
M 355.293246 437.01728 
Q 355.761996 437.01728 356.018246 436.700093 
Q 356.274496 436.382905 356.274496 435.806343 
L 356.274496 435.801655 
Q 356.274496 435.240718 356.018246 434.932906 
Q 355.761996 434.625093 355.293246 434.625093 
Q 354.819808 434.625093 354.563558 434.932906 
Q 354.307308 435.240718 354.307308 435.806343 
L 354.307308 435.81103 
Q 354.307308 436.387593 354.563558 436.703218 
Q 354.819808 437.01728 355.293246 437.01728 
z
M 360.615707 440.914155 
Q 359.618832 440.914155 359.103207 440.382905 
Q 358.589144 439.850093 358.589144 438.896968 
L 358.589144 435.670405 
Q 358.589144 434.712593 359.106332 434.182906 
Q 359.623519 433.653218 360.615707 433.653218 
Q 361.611019 433.653218 362.126644 434.181343 
Q 362.642269 434.707905 362.642269 435.670405 
L 362.642269 438.896968 
Q 362.642269 439.854781 362.123519 440.384468 
Q 361.606332 440.914155 360.615707 440.914155 
z
M 360.615707 439.96728 
Q 361.142269 439.96728 361.393832 439.690718 
Q 361.645394 439.414155 361.645394 438.896968 
L 361.645394 435.670405 
Q 361.645394 435.151656 361.395394 434.876655 
Q 361.146957 434.600093 360.615707 434.600093 
Q 360.082894 434.600093 359.832894 434.876655 
Q 359.584457 435.151656 359.584457 435.670405 
L 359.584457 438.896968 
Q 359.584457 439.414155 359.836019 439.690718 
Q 360.087582 439.96728 360.615707 439.96728 
z
M 366.133285 440.914155 
Q 365.13641 440.914155 364.620785 440.382905 
Q 364.106722 439.850093 364.106722 438.896968 
L 364.106722 435.670405 
Q 364.106722 434.712593 364.62391 434.182906 
Q 365.141097 433.653218 366.133285 433.653218 
Q 367.128597 433.653218 367.644222 434.181343 
Q 368.159847 434.707905 368.159847 435.670405 
L 368.159847 438.896968 
Q 368.159847 439.854781 367.641097 440.384468 
Q 367.12391 440.914155 366.133285 440.914155 
z
M 366.133285 439.96728 
Q 366.659847 439.96728 366.91141 439.690718 
Q 367.162972 439.414155 367.162972 438.896968 
L 367.162972 435.670405 
Q 367.162972 435.151656 366.912972 434.876655 
Q 366.664535 434.600093 366.133285 434.600093 
Q 365.600472 434.600093 365.350472 434.876655 
Q 365.102035 435.151656 365.102035 435.670405 
L 365.102035 438.896968 
Q 365.102035 439.414155 365.353597 439.690718 
Q 365.60516 439.96728 366.133285 439.96728 
z
M 371.650863 440.914155 
Q 370.653988 440.914155 370.138363 440.382905 
Q 369.6243 439.850093 369.6243 438.896968 
L 369.6243 435.670405 
Q 369.6243 434.712593 370.141488 434.182906 
Q 370.658675 433.653218 371.650863 433.653218 
Q 372.646175 433.653218 373.1618 434.181343 
Q 373.677425 434.707905 373.677425 435.670405 
L 373.677425 438.896968 
Q 373.677425 439.854781 373.158675 440.384468 
Q 372.641488 440.914155 371.650863 440.914155 
z
M 371.650863 439.96728 
Q 372.177425 439.96728 372.428988 439.690718 
Q 372.68055 439.414155 372.68055 438.896968 
L 372.68055 435.670405 
Q 372.68055 435.151656 372.43055 434.876655 
Q 372.182113 434.600093 371.650863 434.600093 
Q 371.11805 434.600093 370.86805 434.876655 
Q 370.619613 435.151656 370.619613 435.670405 
L 370.619613 438.896968 
Q 370.619613 439.414155 370.871175 439.690718 
Q 371.122738 439.96728 371.650863 439.96728 
z
M 377.421566 440.914155 
Q 376.909066 440.914155 376.449691 440.81728 
Q 375.991878 440.718843 375.593441 440.52353 
Q 375.195003 440.328218 374.848128 440.034468 
L 374.848128 440.034468 
L 375.468441 439.27353 
L 375.468441 439.27353 
Q 375.874691 439.625093 376.362191 439.801655 
Q 376.851253 439.976655 377.421566 439.976655 
Q 378.193441 439.976655 378.618441 439.690718 
Q 379.043441 439.40478 379.043441 438.882905 
L 379.043441 438.878218 
Q 379.043441 438.506343 378.849691 438.289155 
Q 378.657503 438.071968 378.351253 437.96728 
Q 378.046566 437.862593 377.563753 437.77353 
Q 377.548128 437.768843 377.530941 437.768843 
Q 377.515316 437.768843 377.499691 437.764155 
L 377.426253 437.750093 
Q 376.713753 437.628218 376.266878 437.475093 
Q 375.820003 437.320405 375.502816 436.912593 
Q 375.185628 436.50478 375.185628 435.753218 
L 375.185628 435.74853 
Q 375.185628 435.089156 375.480941 434.62353 
Q 375.776253 434.156343 376.341878 433.912593 
Q 376.909066 433.667281 377.704378 433.667281 
Q 378.085628 433.667281 378.454378 433.751655 
Q 378.823128 433.834468 379.180941 433.99853 
Q 379.540316 434.16103 379.887191 434.409468 
L 379.887191 434.409468 
L 379.321566 435.201655 
L 379.321566 435.201655 
Q 378.915316 434.903218 378.512191 434.75478 
Q 378.110628 434.604781 377.704378 434.604781 
Q 376.977816 434.604781 376.574691 434.895405 
Q 376.171566 435.18603 376.171566 435.718843 
L 376.171566 435.72353 
Q 376.171566 436.089156 376.379378 436.300093 
Q 376.587191 436.509468 376.896566 436.609468 
Q 377.207503 436.709468 377.759066 436.81728 
Q 377.777816 436.821968 377.795003 436.825093 
Q 377.812191 436.826655 377.832503 436.831343 
Q 377.855941 436.83603 377.885628 436.84228 
Q 377.915316 436.846968 377.938753 436.851655 
Q 378.584066 436.982905 379.015316 437.164155 
Q 379.448128 437.343843 379.738753 437.746968 
Q 380.029378 438.150093 380.029378 438.84853 
L 380.029378 438.857905 
Q 380.029378 439.507905 379.721566 439.968843 
Q 379.413753 440.42978 378.829378 440.671968 
Q 378.246566 440.914155 377.421566 440.914155 
z
M 381.44598 433.740718 
L 382.441292 433.740718 
L 382.441292 440.840718 
L 381.44598 440.840718 
L 381.44598 433.740718 
z
M 381.942855 439.893843 
L 386.005355 439.893843 
L 386.005355 440.840718 
L 381.942855 440.840718 
L 381.942855 439.893843 
z
" style="fill: #ffffff"/>
   </g>
  </g>
 </g>
 <defs>
  <clipPath id="p12c900b266">
   <rect x="144" y="77.76" width="892.8" height="498.96"/>
  </clipPath>
 </defs>
</svg>
