<?xml version="1.0" encoding="utf-8" standalone="no"?>
<!DOCTYPE svg PUBLIC "-//W3C//DTD SVG 1.1//EN"
  "http://www.w3.org/Graphics/SVG/1.1/DTD/svg11.dtd">
<svg xmlns:xlink="http://www.w3.org/1999/xlink" width="1152pt" height="648pt" viewBox="0 0 1152 648" xmlns="http://www.w3.org/2000/svg" version="1.1">
 <metadata>
  <rdf:RDF xmlns:dc="http://purl.org/dc/elements/1.1/" xmlns:cc="http://creativecommons.org/ns#" xmlns:rdf="http://www.w3.org/1999/02/22-rdf-syntax-ns#">
   <cc:Work>
    <dc:type rdf:resource="http://purl.org/dc/dcmitype/StillImage"/>
    <dc:date>2024-03-14T14:55:08.896724</dc:date>
    <dc:format>image/svg+xml</dc:format>
    <dc:creator>
     <cc:Agent>
      <dc:title>Matplotlib v3.8.3, https://matplotlib.org/</dc:title>
     </cc:Agent>
    </dc:creator>
   </cc:Work>
  </rdf:RDF>
 </metadata>
 <defs>
  <style type="text/css">*{stroke-linejoin: round; stroke-linecap: butt}</style>
 </defs>
 <g id="figure_1">
  <g id="patch_1">
   <path d="M 0 648 
L 1152 648 
L 1152 0 
L 0 0 
L 0 648 
z
" style="fill: none"/>
  </g>
  <g id="axes_1">
   <g id="line2d_1">
    <path d="M 177.728 533.428045 
L 178.70497 532.271879 
L 179.681939 531.117793 
L 180.658909 529.966092 
L 181.635879 528.817077 
L 182.612848 527.671047 
L 183.589818 526.528297 
L 184.566788 525.389121 
L 185.543758 524.253806 
L 186.520727 523.122637 
L 187.497697 521.995895 
L 188.474667 520.873854 
L 189.451636 519.756785 
L 190.428606 518.644955 
L 191.405576 517.538623 
L 192.382545 516.438045 
L 193.359515 515.34347 
L 194.336485 514.25514 
L 195.313455 513.173294 
L 196.290424 512.098162 
L 197.267394 511.029969 
L 198.244364 509.968932 
L 199.221333 508.915262 
L 200.198303 507.869164 
L 201.175273 506.830835 
L 202.152242 505.800465 
L 203.129212 504.778237 
L 204.106182 503.764327 
L 205.083152 502.758904 
L 206.060121 501.762128 
L 207.037091 500.774153 
L 208.014061 499.795127 
L 208.99103 498.825187 
L 209.968 497.864465 
L 210.94497 496.913086 
L 211.921939 495.971167 
L 212.898909 495.038816 
L 213.875879 494.116135 
L 214.852848 493.203221 
L 215.829818 492.30016 
L 216.806788 491.407033 
L 217.783758 490.523913 
L 218.760727 489.650867 
L 219.737697 488.787955 
L 220.714667 487.935228 
L 221.691636 487.092735 
L 222.668606 486.260514 
L 223.645576 485.438598 
L 224.622545 484.627014 
L 225.599515 483.825784 
L 226.576485 483.034922 
L 227.553455 482.254436 
L 228.530424 481.484331 
L 229.507394 480.724603 
L 230.484364 479.975244 
L 231.461333 479.236242 
L 232.438303 478.507577 
L 233.415273 477.789227 
L 234.392242 477.081164 
L 235.369212 476.383354 
L 236.346182 475.69576 
L 237.323152 475.018341 
L 238.300121 474.351051 
L 239.277091 473.69384 
L 240.254061 473.046654 
L 241.23103 472.409436 
L 242.208 471.782125 
L 243.18497 471.164656 
L 244.161939 470.556963 
L 245.138909 469.958975 
L 246.115879 469.370618 
L 247.092848 468.791816 
L 248.069818 468.22249 
L 249.046788 467.662558 
L 250.023758 467.111939 
L 251.000727 466.570544 
L 251.977697 466.038288 
L 252.954667 465.515079 
L 253.931636 465.000827 
L 254.908606 464.495438 
L 255.885576 463.998818 
L 256.862545 463.510871 
L 257.839515 463.0315 
L 258.816485 462.560606 
L 259.793455 462.098089 
L 260.770424 461.64385 
L 261.747394 461.197787 
L 262.724364 460.759798 
L 263.701333 460.329781 
L 264.678303 459.907632 
L 265.655273 459.493249 
L 266.632242 459.086527 
L 267.609212 458.687363 
L 268.586182 458.295652 
L 269.563152 457.91129 
L 270.540121 457.534172 
L 271.517091 457.164195 
L 272.494061 456.801254 
L 273.47103 456.445246 
L 274.448 456.096067 
" clip-path="url(#pca52c4adac)" style="fill: none; stroke: #def279; stroke-width: 3; stroke-linecap: round"/>
   </g>
   <g id="text_1">
    <path d="M 286.073292 453.919197 
L 286.073292 455.159822 
Q 286.073292 455.950447 285.76548 456.553572 
Q 285.457667 457.156697 284.893605 457.486385 
Q 284.329542 457.816072 283.587355 457.816072 
Q 282.835792 457.816072 282.267042 457.506697 
Q 281.698292 457.19576 281.385792 456.630135 
Q 281.073292 456.062947 281.073292 455.316072 
L 281.073292 453.22076 
Q 281.073292 452.430135 281.381105 451.830135 
Q 281.688917 451.228572 282.251417 450.898885 
Q 282.81548 450.569197 283.557667 450.569197 
Q 284.168605 450.569197 284.682667 450.831697 
Q 285.198292 451.092635 285.545167 451.57076 
Q 285.892042 452.048885 286.013917 452.678572 
L 286.013917 452.678572 
L 284.935792 452.678572 
L 284.935792 452.678572 
Q 284.84673 452.322322 284.637355 452.066072 
Q 284.42798 451.809822 284.143605 451.675447 
Q 283.860792 451.541072 283.557667 451.541072 
Q 283.118605 451.541072 282.785792 451.75201 
Q 282.454542 451.961385 282.273292 452.33951 
Q 282.093605 452.717635 282.093605 453.22076 
L 282.093605 455.316072 
Q 282.093605 455.775447 282.27798 456.119197 
Q 282.463917 456.462947 282.80298 456.653572 
Q 283.143605 456.844197 283.587355 456.844197 
Q 284.026417 456.844197 284.357667 456.647322 
Q 284.69048 456.448885 284.87173 456.073885 
Q 285.05298 455.697322 285.05298 455.178572 
L 285.05298 454.87076 
L 283.612355 454.87076 
L 283.612355 453.919197 
L 286.073292 453.919197 
z
M 290.052199 454.217635 
L 290.047511 454.392635 
Q 289.925636 454.617635 289.678761 454.722322 
Q 289.431886 454.82701 289.095949 454.82701 
Q 288.588136 454.82701 288.202199 454.569197 
Q 287.816261 454.309822 287.603761 453.83951 
Q 287.391261 453.367635 287.391261 452.747322 
L 287.391261 452.742635 
Q 287.391261 452.053572 287.622511 451.566072 
Q 287.855324 451.07701 288.302199 450.823885 
Q 288.749074 450.569197 289.374074 450.569197 
Q 289.999074 450.569197 290.442824 450.828572 
Q 290.888136 451.087947 291.119386 451.581697 
Q 291.350636 452.073885 291.350636 452.767635 
L 291.350636 452.772322 
Q 291.350636 453.15201 291.252199 453.584822 
Q 291.155324 454.017635 290.975636 454.441072 
Q 290.945949 454.505135 290.916261 454.57076 
Q 290.888136 454.636385 290.853761 454.700447 
L 289.339699 457.742635 
L 288.264699 457.742635 
L 290.052199 454.217635 
z
M 289.374074 453.919197 
Q 289.842824 453.919197 290.099074 453.60201 
Q 290.355324 453.284822 290.355324 452.70826 
L 290.355324 452.703572 
Q 290.355324 452.142635 290.099074 451.834822 
Q 289.842824 451.52701 289.374074 451.52701 
Q 288.900636 451.52701 288.644386 451.834822 
Q 288.388136 452.142635 288.388136 452.70826 
L 288.388136 452.712947 
Q 288.388136 453.28951 288.644386 453.605135 
Q 288.900636 453.919197 289.374074 453.919197 
z
M 295.184035 454.217635 
L 295.179347 454.392635 
Q 295.057472 454.617635 294.810597 454.722322 
Q 294.563722 454.82701 294.227785 454.82701 
Q 293.719972 454.82701 293.334035 454.569197 
Q 292.948097 454.309822 292.735597 453.83951 
Q 292.523097 453.367635 292.523097 452.747322 
L 292.523097 452.742635 
Q 292.523097 452.053572 292.754347 451.566072 
Q 292.98716 451.07701 293.434035 450.823885 
Q 293.88091 450.569197 294.50591 450.569197 
Q 295.13091 450.569197 295.57466 450.828572 
Q 296.019972 451.087947 296.251222 451.581697 
Q 296.482472 452.073885 296.482472 452.767635 
L 296.482472 452.772322 
Q 296.482472 453.15201 296.384035 453.584822 
Q 296.28716 454.017635 296.107472 454.441072 
Q 296.077785 454.505135 296.048097 454.57076 
Q 296.019972 454.636385 295.985597 454.700447 
L 294.471535 457.742635 
L 293.396535 457.742635 
L 295.184035 454.217635 
z
M 294.50591 453.919197 
Q 294.97466 453.919197 295.23091 453.60201 
Q 295.48716 453.284822 295.48716 452.70826 
L 295.48716 452.703572 
Q 295.48716 452.142635 295.23091 451.834822 
Q 294.97466 451.52701 294.50591 451.52701 
Q 294.032472 451.52701 293.776222 451.834822 
Q 293.519972 452.142635 293.519972 452.70826 
L 293.519972 452.712947 
Q 293.519972 453.28951 293.776222 453.605135 
Q 294.032472 453.919197 294.50591 453.919197 
z
" style="fill: #ffffff; stroke: #000000"/>
    <path d="M 286.073292 453.919197 
L 286.073292 455.159822 
Q 286.073292 455.950447 285.76548 456.553572 
Q 285.457667 457.156697 284.893605 457.486385 
Q 284.329542 457.816072 283.587355 457.816072 
Q 282.835792 457.816072 282.267042 457.506697 
Q 281.698292 457.19576 281.385792 456.630135 
Q 281.073292 456.062947 281.073292 455.316072 
L 281.073292 453.22076 
Q 281.073292 452.430135 281.381105 451.830135 
Q 281.688917 451.228572 282.251417 450.898885 
Q 282.81548 450.569197 283.557667 450.569197 
Q 284.168605 450.569197 284.682667 450.831697 
Q 285.198292 451.092635 285.545167 451.57076 
Q 285.892042 452.048885 286.013917 452.678572 
L 286.013917 452.678572 
L 284.935792 452.678572 
L 284.935792 452.678572 
Q 284.84673 452.322322 284.637355 452.066072 
Q 284.42798 451.809822 284.143605 451.675447 
Q 283.860792 451.541072 283.557667 451.541072 
Q 283.118605 451.541072 282.785792 451.75201 
Q 282.454542 451.961385 282.273292 452.33951 
Q 282.093605 452.717635 282.093605 453.22076 
L 282.093605 455.316072 
Q 282.093605 455.775447 282.27798 456.119197 
Q 282.463917 456.462947 282.80298 456.653572 
Q 283.143605 456.844197 283.587355 456.844197 
Q 284.026417 456.844197 284.357667 456.647322 
Q 284.69048 456.448885 284.87173 456.073885 
Q 285.05298 455.697322 285.05298 455.178572 
L 285.05298 454.87076 
L 283.612355 454.87076 
L 283.612355 453.919197 
L 286.073292 453.919197 
z
M 290.052199 454.217635 
L 290.047511 454.392635 
Q 289.925636 454.617635 289.678761 454.722322 
Q 289.431886 454.82701 289.095949 454.82701 
Q 288.588136 454.82701 288.202199 454.569197 
Q 287.816261 454.309822 287.603761 453.83951 
Q 287.391261 453.367635 287.391261 452.747322 
L 287.391261 452.742635 
Q 287.391261 452.053572 287.622511 451.566072 
Q 287.855324 451.07701 288.302199 450.823885 
Q 288.749074 450.569197 289.374074 450.569197 
Q 289.999074 450.569197 290.442824 450.828572 
Q 290.888136 451.087947 291.119386 451.581697 
Q 291.350636 452.073885 291.350636 452.767635 
L 291.350636 452.772322 
Q 291.350636 453.15201 291.252199 453.584822 
Q 291.155324 454.017635 290.975636 454.441072 
Q 290.945949 454.505135 290.916261 454.57076 
Q 290.888136 454.636385 290.853761 454.700447 
L 289.339699 457.742635 
L 288.264699 457.742635 
L 290.052199 454.217635 
z
M 289.374074 453.919197 
Q 289.842824 453.919197 290.099074 453.60201 
Q 290.355324 453.284822 290.355324 452.70826 
L 290.355324 452.703572 
Q 290.355324 452.142635 290.099074 451.834822 
Q 289.842824 451.52701 289.374074 451.52701 
Q 288.900636 451.52701 288.644386 451.834822 
Q 288.388136 452.142635 288.388136 452.70826 
L 288.388136 452.712947 
Q 288.388136 453.28951 288.644386 453.605135 
Q 288.900636 453.919197 289.374074 453.919197 
z
M 295.184035 454.217635 
L 295.179347 454.392635 
Q 295.057472 454.617635 294.810597 454.722322 
Q 294.563722 454.82701 294.227785 454.82701 
Q 293.719972 454.82701 293.334035 454.569197 
Q 292.948097 454.309822 292.735597 453.83951 
Q 292.523097 453.367635 292.523097 452.747322 
L 292.523097 452.742635 
Q 292.523097 452.053572 292.754347 451.566072 
Q 292.98716 451.07701 293.434035 450.823885 
Q 293.88091 450.569197 294.50591 450.569197 
Q 295.13091 450.569197 295.57466 450.828572 
Q 296.019972 451.087947 296.251222 451.581697 
Q 296.482472 452.073885 296.482472 452.767635 
L 296.482472 452.772322 
Q 296.482472 453.15201 296.384035 453.584822 
Q 296.28716 454.017635 296.107472 454.441072 
Q 296.077785 454.505135 296.048097 454.57076 
Q 296.019972 454.636385 295.985597 454.700447 
L 294.471535 457.742635 
L 293.396535 457.742635 
L 295.184035 454.217635 
z
M 294.50591 453.919197 
Q 294.97466 453.919197 295.23091 453.60201 
Q 295.48716 453.284822 295.48716 452.70826 
L 295.48716 452.703572 
Q 295.48716 452.142635 295.23091 451.834822 
Q 294.97466 451.52701 294.50591 451.52701 
Q 294.032472 451.52701 293.776222 451.834822 
Q 293.519972 452.142635 293.519972 452.70826 
L 293.519972 452.712947 
Q 293.519972 453.28951 293.776222 453.605135 
Q 294.032472 453.919197 294.50591 453.919197 
z
" style="fill: #ffffff"/>
   </g>
  </g>
 </g>
 <defs>
  <clipPath id="pca52c4adac">
   <rect x="144" y="77.76" width="892.8" height="498.96"/>
  </clipPath>
 </defs>
</svg>
