<?xml version="1.0" encoding="utf-8" standalone="no"?>
<!DOCTYPE svg PUBLIC "-//W3C//DTD SVG 1.1//EN"
  "http://www.w3.org/Graphics/SVG/1.1/DTD/svg11.dtd">
<svg xmlns:xlink="http://www.w3.org/1999/xlink" width="1152pt" height="648pt" viewBox="0 0 1152 648" xmlns="http://www.w3.org/2000/svg" version="1.1">
 <metadata>
  <rdf:RDF xmlns:dc="http://purl.org/dc/elements/1.1/" xmlns:cc="http://creativecommons.org/ns#" xmlns:rdf="http://www.w3.org/1999/02/22-rdf-syntax-ns#">
   <cc:Work>
    <dc:type rdf:resource="http://purl.org/dc/dcmitype/StillImage"/>
    <dc:date>2024-05-27T14:28:58.747015</dc:date>
    <dc:format>image/svg+xml</dc:format>
    <dc:creator>
     <cc:Agent>
      <dc:title>Matplotlib v3.9.0, https://matplotlib.org/</dc:title>
     </cc:Agent>
    </dc:creator>
   </cc:Work>
  </rdf:RDF>
 </metadata>
 <defs>
  <style type="text/css">*{stroke-linejoin: round; stroke-linecap: butt}</style>
 </defs>
 <g id="figure_1">
  <g id="patch_1">
   <path d="M 0 648 
L 1152 648 
L 1152 0 
L 0 0 
L 0 648 
z
" style="fill: none"/>
  </g>
  <g id="axes_1">
   <g id="PathCollection_1">
    <defs>
     <path id="m8724c96f2f" d="M 0 2.738613 
C 0.726289 2.738613 1.422928 2.450055 1.936492 1.936492 
C 2.450055 1.422928 2.738613 0.726289 2.738613 0 
C 2.738613 -0.726289 2.450055 -1.422928 1.936492 -1.936492 
C 1.422928 -2.450055 0.726289 -2.738613 0 -2.738613 
C -0.726289 -2.738613 -1.422928 -2.450055 -1.936492 -1.936492 
C -2.450055 -1.422928 -2.738613 -0.726289 -2.738613 0 
C -2.738613 0.726289 -2.450055 1.422928 -1.936492 1.936492 
C -1.422928 2.450055 -0.726289 2.738613 0 2.738613 
z
" style="stroke: #ff0000"/>
    </defs>
    <g clip-path="url(#pded30def39)">
     <use xlink:href="#m8724c96f2f" x="618.176" y="394.47486" style="fill: #ff0000; stroke: #ff0000"/>
     <use xlink:href="#m8724c96f2f" x="576.512" y="405.32724" style="fill: #ff0000; stroke: #ff0000"/>
    </g>
   </g>
   <g id="text_1">
    <path d="M 625.729417 393.005803 
L 628.863792 389.021428 
L 630.088792 389.021428 
L 625.582542 394.499553 
L 625.729417 393.005803 
z
M 624.948167 389.021428 
L 625.94348 389.021428 
L 625.94348 396.121428 
L 624.948167 396.121428 
L 624.948167 389.021428 
z
M 626.910667 392.332365 
L 627.696605 391.604241 
L 630.38723 396.121428 
L 629.166917 396.121428 
L 626.910667 392.332365 
z
M 633.731371 392.596428 
L 633.726683 392.771428 
Q 633.604808 392.996428 633.357933 393.101115 
Q 633.111058 393.205803 632.775121 393.205803 
Q 632.267308 393.205803 631.881371 392.947991 
Q 631.495433 392.688615 631.282933 392.218303 
Q 631.070433 391.746428 631.070433 391.126115 
L 631.070433 391.121428 
Q 631.070433 390.432366 631.301683 389.944865 
Q 631.534496 389.455803 631.981371 389.202678 
Q 632.428246 388.947991 633.053246 388.947991 
Q 633.678246 388.947991 634.121996 389.207365 
Q 634.567308 389.46674 634.798558 389.96049 
Q 635.029808 390.452678 635.029808 391.146428 
L 635.029808 391.151116 
Q 635.029808 391.530803 634.931371 391.963616 
Q 634.834496 392.396428 634.654808 392.819865 
Q 634.625121 392.883928 634.595433 392.949553 
Q 634.567308 393.015178 634.532933 393.07924 
L 633.018871 396.121428 
L 631.943871 396.121428 
L 633.731371 392.596428 
z
M 633.053246 392.29799 
Q 633.521996 392.29799 633.778246 391.980803 
Q 634.034496 391.663615 634.034496 391.087053 
L 634.034496 391.082365 
Q 634.034496 390.521428 633.778246 390.213616 
Q 633.521996 389.905803 633.053246 389.905803 
Q 632.579808 389.905803 632.323558 390.213616 
Q 632.067308 390.521428 632.067308 391.087053 
L 632.067308 391.09174 
Q 632.067308 391.668303 632.323558 391.983928 
Q 632.579808 392.29799 633.053246 392.29799 
z
M 638.375707 396.194865 
Q 637.378832 396.194865 636.863207 395.663615 
Q 636.349144 395.130803 636.349144 394.177678 
L 636.349144 390.951115 
Q 636.349144 389.993303 636.866332 389.463616 
Q 637.383519 388.933928 638.375707 388.933928 
Q 639.371019 388.933928 639.886644 389.462053 
Q 640.402269 389.988615 640.402269 390.951115 
L 640.402269 394.177678 
Q 640.402269 395.135491 639.883519 395.665178 
Q 639.366332 396.194865 638.375707 396.194865 
z
M 638.375707 395.24799 
Q 638.902269 395.24799 639.153832 394.971428 
Q 639.405394 394.694865 639.405394 394.177678 
L 639.405394 390.951115 
Q 639.405394 390.432366 639.155394 390.157365 
Q 638.906957 389.880803 638.375707 389.880803 
Q 637.842894 389.880803 637.592894 390.157365 
Q 637.344457 390.432366 637.344457 390.951115 
L 637.344457 394.177678 
Q 637.344457 394.694865 637.596019 394.971428 
Q 637.847582 395.24799 638.375707 395.24799 
z
M 643.893285 396.194865 
Q 642.89641 396.194865 642.380785 395.663615 
Q 641.866722 395.130803 641.866722 394.177678 
L 641.866722 390.951115 
Q 641.866722 389.993303 642.38391 389.463616 
Q 642.901097 388.933928 643.893285 388.933928 
Q 644.888597 388.933928 645.404222 389.462053 
Q 645.919847 389.988615 645.919847 390.951115 
L 645.919847 394.177678 
Q 645.919847 395.135491 645.401097 395.665178 
Q 644.88391 396.194865 643.893285 396.194865 
z
M 643.893285 395.24799 
Q 644.419847 395.24799 644.67141 394.971428 
Q 644.922972 394.694865 644.922972 394.177678 
L 644.922972 390.951115 
Q 644.922972 390.432366 644.672972 390.157365 
Q 644.424535 389.880803 643.893285 389.880803 
Q 643.360472 389.880803 643.110472 390.157365 
Q 642.862035 390.432366 642.862035 390.951115 
L 642.862035 394.177678 
Q 642.862035 394.694865 643.113597 394.971428 
Q 643.36516 395.24799 643.893285 395.24799 
z
M 649.410863 396.194865 
Q 648.413988 396.194865 647.898363 395.663615 
Q 647.3843 395.130803 647.3843 394.177678 
L 647.3843 390.951115 
Q 647.3843 389.993303 647.901488 389.463616 
Q 648.418675 388.933928 649.410863 388.933928 
Q 650.406175 388.933928 650.9218 389.462053 
Q 651.437425 389.988615 651.437425 390.951115 
L 651.437425 394.177678 
Q 651.437425 395.135491 650.918675 395.665178 
Q 650.401488 396.194865 649.410863 396.194865 
z
M 649.410863 395.24799 
Q 649.937425 395.24799 650.188988 394.971428 
Q 650.44055 394.694865 650.44055 394.177678 
L 650.44055 390.951115 
Q 650.44055 390.432366 650.19055 390.157365 
Q 649.942113 389.880803 649.410863 389.880803 
Q 648.87805 389.880803 648.62805 390.157365 
Q 648.379613 390.432366 648.379613 390.951115 
L 648.379613 394.177678 
Q 648.379613 394.694865 648.631175 394.971428 
Q 648.882738 395.24799 649.410863 395.24799 
z
M 656.061253 389.021428 
L 656.744066 389.021428 
L 658.198753 394.588616 
L 659.455003 389.021428 
L 660.489378 389.021428 
L 658.756566 396.121428 
L 657.740941 396.121428 
L 656.431566 391.16049 
L 655.064378 396.121428 
L 654.048753 396.121428 
L 652.315941 389.021428 
L 653.350316 389.021428 
L 654.605003 394.588616 
L 656.061253 389.021428 
z
M 666.617113 389.021428 
L 667.549925 389.021428 
L 667.549925 396.121428 
L 666.57805 396.121428 
L 666.57805 390.80424 
L 666.626488 391.11674 
L 664.879613 395.135491 
L 664.185863 395.135491 
L 662.437425 391.213616 
L 662.485863 390.80424 
L 662.485863 396.121428 
L 661.51555 396.121428 
L 661.51555 389.021428 
L 662.4468 389.021428 
L 664.532738 393.708928 
L 666.617113 389.021428 
z
" style="fill: #ffffff; stroke: #000000"/>
    <path d="M 625.729417 393.005803 
L 628.863792 389.021428 
L 630.088792 389.021428 
L 625.582542 394.499553 
L 625.729417 393.005803 
z
M 624.948167 389.021428 
L 625.94348 389.021428 
L 625.94348 396.121428 
L 624.948167 396.121428 
L 624.948167 389.021428 
z
M 626.910667 392.332365 
L 627.696605 391.604241 
L 630.38723 396.121428 
L 629.166917 396.121428 
L 626.910667 392.332365 
z
M 633.731371 392.596428 
L 633.726683 392.771428 
Q 633.604808 392.996428 633.357933 393.101115 
Q 633.111058 393.205803 632.775121 393.205803 
Q 632.267308 393.205803 631.881371 392.947991 
Q 631.495433 392.688615 631.282933 392.218303 
Q 631.070433 391.746428 631.070433 391.126115 
L 631.070433 391.121428 
Q 631.070433 390.432366 631.301683 389.944865 
Q 631.534496 389.455803 631.981371 389.202678 
Q 632.428246 388.947991 633.053246 388.947991 
Q 633.678246 388.947991 634.121996 389.207365 
Q 634.567308 389.46674 634.798558 389.96049 
Q 635.029808 390.452678 635.029808 391.146428 
L 635.029808 391.151116 
Q 635.029808 391.530803 634.931371 391.963616 
Q 634.834496 392.396428 634.654808 392.819865 
Q 634.625121 392.883928 634.595433 392.949553 
Q 634.567308 393.015178 634.532933 393.07924 
L 633.018871 396.121428 
L 631.943871 396.121428 
L 633.731371 392.596428 
z
M 633.053246 392.29799 
Q 633.521996 392.29799 633.778246 391.980803 
Q 634.034496 391.663615 634.034496 391.087053 
L 634.034496 391.082365 
Q 634.034496 390.521428 633.778246 390.213616 
Q 633.521996 389.905803 633.053246 389.905803 
Q 632.579808 389.905803 632.323558 390.213616 
Q 632.067308 390.521428 632.067308 391.087053 
L 632.067308 391.09174 
Q 632.067308 391.668303 632.323558 391.983928 
Q 632.579808 392.29799 633.053246 392.29799 
z
M 638.375707 396.194865 
Q 637.378832 396.194865 636.863207 395.663615 
Q 636.349144 395.130803 636.349144 394.177678 
L 636.349144 390.951115 
Q 636.349144 389.993303 636.866332 389.463616 
Q 637.383519 388.933928 638.375707 388.933928 
Q 639.371019 388.933928 639.886644 389.462053 
Q 640.402269 389.988615 640.402269 390.951115 
L 640.402269 394.177678 
Q 640.402269 395.135491 639.883519 395.665178 
Q 639.366332 396.194865 638.375707 396.194865 
z
M 638.375707 395.24799 
Q 638.902269 395.24799 639.153832 394.971428 
Q 639.405394 394.694865 639.405394 394.177678 
L 639.405394 390.951115 
Q 639.405394 390.432366 639.155394 390.157365 
Q 638.906957 389.880803 638.375707 389.880803 
Q 637.842894 389.880803 637.592894 390.157365 
Q 637.344457 390.432366 637.344457 390.951115 
L 637.344457 394.177678 
Q 637.344457 394.694865 637.596019 394.971428 
Q 637.847582 395.24799 638.375707 395.24799 
z
M 643.893285 396.194865 
Q 642.89641 396.194865 642.380785 395.663615 
Q 641.866722 395.130803 641.866722 394.177678 
L 641.866722 390.951115 
Q 641.866722 389.993303 642.38391 389.463616 
Q 642.901097 388.933928 643.893285 388.933928 
Q 644.888597 388.933928 645.404222 389.462053 
Q 645.919847 389.988615 645.919847 390.951115 
L 645.919847 394.177678 
Q 645.919847 395.135491 645.401097 395.665178 
Q 644.88391 396.194865 643.893285 396.194865 
z
M 643.893285 395.24799 
Q 644.419847 395.24799 644.67141 394.971428 
Q 644.922972 394.694865 644.922972 394.177678 
L 644.922972 390.951115 
Q 644.922972 390.432366 644.672972 390.157365 
Q 644.424535 389.880803 643.893285 389.880803 
Q 643.360472 389.880803 643.110472 390.157365 
Q 642.862035 390.432366 642.862035 390.951115 
L 642.862035 394.177678 
Q 642.862035 394.694865 643.113597 394.971428 
Q 643.36516 395.24799 643.893285 395.24799 
z
M 649.410863 396.194865 
Q 648.413988 396.194865 647.898363 395.663615 
Q 647.3843 395.130803 647.3843 394.177678 
L 647.3843 390.951115 
Q 647.3843 389.993303 647.901488 389.463616 
Q 648.418675 388.933928 649.410863 388.933928 
Q 650.406175 388.933928 650.9218 389.462053 
Q 651.437425 389.988615 651.437425 390.951115 
L 651.437425 394.177678 
Q 651.437425 395.135491 650.918675 395.665178 
Q 650.401488 396.194865 649.410863 396.194865 
z
M 649.410863 395.24799 
Q 649.937425 395.24799 650.188988 394.971428 
Q 650.44055 394.694865 650.44055 394.177678 
L 650.44055 390.951115 
Q 650.44055 390.432366 650.19055 390.157365 
Q 649.942113 389.880803 649.410863 389.880803 
Q 648.87805 389.880803 648.62805 390.157365 
Q 648.379613 390.432366 648.379613 390.951115 
L 648.379613 394.177678 
Q 648.379613 394.694865 648.631175 394.971428 
Q 648.882738 395.24799 649.410863 395.24799 
z
M 656.061253 389.021428 
L 656.744066 389.021428 
L 658.198753 394.588616 
L 659.455003 389.021428 
L 660.489378 389.021428 
L 658.756566 396.121428 
L 657.740941 396.121428 
L 656.431566 391.16049 
L 655.064378 396.121428 
L 654.048753 396.121428 
L 652.315941 389.021428 
L 653.350316 389.021428 
L 654.605003 394.588616 
L 656.061253 389.021428 
z
M 666.617113 389.021428 
L 667.549925 389.021428 
L 667.549925 396.121428 
L 666.57805 396.121428 
L 666.57805 390.80424 
L 666.626488 391.11674 
L 664.879613 395.135491 
L 664.185863 395.135491 
L 662.437425 391.213616 
L 662.485863 390.80424 
L 662.485863 396.121428 
L 661.51555 396.121428 
L 661.51555 389.021428 
L 662.4468 389.021428 
L 664.532738 393.708928 
L 666.617113 389.021428 
z
" style="fill: #ffffff"/>
   </g>
   <g id="text_2">
    <path d="M 584.065417 403.858183 
L 587.199792 399.873808 
L 588.424792 399.873808 
L 583.918542 405.351933 
L 584.065417 403.858183 
z
M 583.284167 399.873808 
L 584.27948 399.873808 
L 584.27948 406.973808 
L 583.284167 406.973808 
L 583.284167 399.873808 
z
M 585.246667 403.184746 
L 586.032605 402.456621 
L 588.72323 406.973808 
L 587.502917 406.973808 
L 585.246667 403.184746 
z
M 592.067371 403.448808 
L 592.062683 403.623808 
Q 591.940808 403.848808 591.693933 403.953496 
Q 591.447058 404.058183 591.111121 404.058183 
Q 590.603308 404.058183 590.217371 403.800371 
Q 589.831433 403.540996 589.618933 403.070683 
Q 589.406433 402.598808 589.406433 401.978496 
L 589.406433 401.973808 
Q 589.406433 401.284746 589.637683 400.797246 
Q 589.870496 400.308183 590.317371 400.055058 
Q 590.764246 399.800371 591.389246 399.800371 
Q 592.014246 399.800371 592.457996 400.059746 
Q 592.903308 400.31912 593.134558 400.812871 
Q 593.365808 401.305058 593.365808 401.998808 
L 593.365808 402.003496 
Q 593.365808 402.383183 593.267371 402.815996 
Q 593.170496 403.248808 592.990808 403.672246 
Q 592.961121 403.736308 592.931433 403.801933 
Q 592.903308 403.867558 592.868933 403.931621 
L 591.354871 406.973808 
L 590.279871 406.973808 
L 592.067371 403.448808 
z
M 591.389246 403.150371 
Q 591.857996 403.150371 592.114246 402.833183 
Q 592.370496 402.515996 592.370496 401.939433 
L 592.370496 401.934746 
Q 592.370496 401.373808 592.114246 401.065996 
Q 591.857996 400.758183 591.389246 400.758183 
Q 590.915808 400.758183 590.659558 401.065996 
Q 590.403308 401.373808 590.403308 401.939433 
L 590.403308 401.94412 
Q 590.403308 402.520683 590.659558 402.836308 
Q 590.915808 403.150371 591.389246 403.150371 
z
M 596.711707 407.047246 
Q 595.714832 407.047246 595.199207 406.515996 
Q 594.685144 405.983183 594.685144 405.030058 
L 594.685144 401.803495 
Q 594.685144 400.845683 595.202332 400.315996 
Q 595.719519 399.786308 596.711707 399.786308 
Q 597.707019 399.786308 598.222644 400.314433 
Q 598.738269 400.840996 598.738269 401.803495 
L 598.738269 405.030058 
Q 598.738269 405.987871 598.219519 406.517558 
Q 597.702332 407.047246 596.711707 407.047246 
z
M 596.711707 406.10037 
Q 597.238269 406.10037 597.489832 405.823808 
Q 597.741394 405.547246 597.741394 405.030058 
L 597.741394 401.803495 
Q 597.741394 401.284746 597.491394 401.009746 
Q 597.242957 400.733183 596.711707 400.733183 
Q 596.178894 400.733183 595.928894 401.009746 
Q 595.680457 401.284746 595.680457 401.803495 
L 595.680457 405.030058 
Q 595.680457 405.547246 595.932019 405.823808 
Q 596.183582 406.10037 596.711707 406.10037 
z
M 602.229285 407.047246 
Q 601.23241 407.047246 600.716785 406.515996 
Q 600.202722 405.983183 600.202722 405.030058 
L 600.202722 401.803495 
Q 600.202722 400.845683 600.71991 400.315996 
Q 601.237097 399.786308 602.229285 399.786308 
Q 603.224597 399.786308 603.740222 400.314433 
Q 604.255847 400.840996 604.255847 401.803495 
L 604.255847 405.030058 
Q 604.255847 405.987871 603.737097 406.517558 
Q 603.21991 407.047246 602.229285 407.047246 
z
M 602.229285 406.10037 
Q 602.755847 406.10037 603.00741 405.823808 
Q 603.258972 405.547246 603.258972 405.030058 
L 603.258972 401.803495 
Q 603.258972 401.284746 603.008972 401.009746 
Q 602.760535 400.733183 602.229285 400.733183 
Q 601.696472 400.733183 601.446472 401.009746 
Q 601.198035 401.284746 601.198035 401.803495 
L 601.198035 405.030058 
Q 601.198035 405.547246 601.449597 405.823808 
Q 601.70116 406.10037 602.229285 406.10037 
z
M 607.746863 407.047246 
Q 606.749988 407.047246 606.234363 406.515996 
Q 605.7203 405.983183 605.7203 405.030058 
L 605.7203 401.803495 
Q 605.7203 400.845683 606.237488 400.315996 
Q 606.754675 399.786308 607.746863 399.786308 
Q 608.742175 399.786308 609.2578 400.314433 
Q 609.773425 400.840996 609.773425 401.803495 
L 609.773425 405.030058 
Q 609.773425 405.987871 609.254675 406.517558 
Q 608.737488 407.047246 607.746863 407.047246 
z
M 607.746863 406.10037 
Q 608.273425 406.10037 608.524988 405.823808 
Q 608.77655 405.547246 608.77655 405.030058 
L 608.77655 401.803495 
Q 608.77655 401.284746 608.52655 401.009746 
Q 608.278113 400.733183 607.746863 400.733183 
Q 607.21405 400.733183 606.96405 401.009746 
Q 606.715613 401.284746 606.715613 401.803495 
L 606.715613 405.030058 
Q 606.715613 405.547246 606.967175 405.823808 
Q 607.218738 406.10037 607.746863 406.10037 
z
M 614.397253 399.873808 
L 615.080066 399.873808 
L 616.534753 405.440996 
L 617.791003 399.873808 
L 618.825378 399.873808 
L 617.092566 406.973808 
L 616.076941 406.973808 
L 614.767566 402.012871 
L 613.400378 406.973808 
L 612.384753 406.973808 
L 610.651941 399.873808 
L 611.686316 399.873808 
L 612.941003 405.440996 
L 614.397253 399.873808 
z
M 624.953113 399.873808 
L 625.885925 399.873808 
L 625.885925 406.973808 
L 624.91405 406.973808 
L 624.91405 401.656621 
L 624.962488 401.969121 
L 623.215613 405.987871 
L 622.521863 405.987871 
L 620.773425 402.065996 
L 620.821863 401.656621 
L 620.821863 406.973808 
L 619.85155 406.973808 
L 619.85155 399.873808 
L 620.7828 399.873808 
L 622.868738 404.561308 
L 624.953113 399.873808 
z
" style="fill: #ffffff; stroke: #000000"/>
    <path d="M 584.065417 403.858183 
L 587.199792 399.873808 
L 588.424792 399.873808 
L 583.918542 405.351933 
L 584.065417 403.858183 
z
M 583.284167 399.873808 
L 584.27948 399.873808 
L 584.27948 406.973808 
L 583.284167 406.973808 
L 583.284167 399.873808 
z
M 585.246667 403.184746 
L 586.032605 402.456621 
L 588.72323 406.973808 
L 587.502917 406.973808 
L 585.246667 403.184746 
z
M 592.067371 403.448808 
L 592.062683 403.623808 
Q 591.940808 403.848808 591.693933 403.953496 
Q 591.447058 404.058183 591.111121 404.058183 
Q 590.603308 404.058183 590.217371 403.800371 
Q 589.831433 403.540996 589.618933 403.070683 
Q 589.406433 402.598808 589.406433 401.978496 
L 589.406433 401.973808 
Q 589.406433 401.284746 589.637683 400.797246 
Q 589.870496 400.308183 590.317371 400.055058 
Q 590.764246 399.800371 591.389246 399.800371 
Q 592.014246 399.800371 592.457996 400.059746 
Q 592.903308 400.31912 593.134558 400.812871 
Q 593.365808 401.305058 593.365808 401.998808 
L 593.365808 402.003496 
Q 593.365808 402.383183 593.267371 402.815996 
Q 593.170496 403.248808 592.990808 403.672246 
Q 592.961121 403.736308 592.931433 403.801933 
Q 592.903308 403.867558 592.868933 403.931621 
L 591.354871 406.973808 
L 590.279871 406.973808 
L 592.067371 403.448808 
z
M 591.389246 403.150371 
Q 591.857996 403.150371 592.114246 402.833183 
Q 592.370496 402.515996 592.370496 401.939433 
L 592.370496 401.934746 
Q 592.370496 401.373808 592.114246 401.065996 
Q 591.857996 400.758183 591.389246 400.758183 
Q 590.915808 400.758183 590.659558 401.065996 
Q 590.403308 401.373808 590.403308 401.939433 
L 590.403308 401.94412 
Q 590.403308 402.520683 590.659558 402.836308 
Q 590.915808 403.150371 591.389246 403.150371 
z
M 596.711707 407.047246 
Q 595.714832 407.047246 595.199207 406.515996 
Q 594.685144 405.983183 594.685144 405.030058 
L 594.685144 401.803495 
Q 594.685144 400.845683 595.202332 400.315996 
Q 595.719519 399.786308 596.711707 399.786308 
Q 597.707019 399.786308 598.222644 400.314433 
Q 598.738269 400.840996 598.738269 401.803495 
L 598.738269 405.030058 
Q 598.738269 405.987871 598.219519 406.517558 
Q 597.702332 407.047246 596.711707 407.047246 
z
M 596.711707 406.10037 
Q 597.238269 406.10037 597.489832 405.823808 
Q 597.741394 405.547246 597.741394 405.030058 
L 597.741394 401.803495 
Q 597.741394 401.284746 597.491394 401.009746 
Q 597.242957 400.733183 596.711707 400.733183 
Q 596.178894 400.733183 595.928894 401.009746 
Q 595.680457 401.284746 595.680457 401.803495 
L 595.680457 405.030058 
Q 595.680457 405.547246 595.932019 405.823808 
Q 596.183582 406.10037 596.711707 406.10037 
z
M 602.229285 407.047246 
Q 601.23241 407.047246 600.716785 406.515996 
Q 600.202722 405.983183 600.202722 405.030058 
L 600.202722 401.803495 
Q 600.202722 400.845683 600.71991 400.315996 
Q 601.237097 399.786308 602.229285 399.786308 
Q 603.224597 399.786308 603.740222 400.314433 
Q 604.255847 400.840996 604.255847 401.803495 
L 604.255847 405.030058 
Q 604.255847 405.987871 603.737097 406.517558 
Q 603.21991 407.047246 602.229285 407.047246 
z
M 602.229285 406.10037 
Q 602.755847 406.10037 603.00741 405.823808 
Q 603.258972 405.547246 603.258972 405.030058 
L 603.258972 401.803495 
Q 603.258972 401.284746 603.008972 401.009746 
Q 602.760535 400.733183 602.229285 400.733183 
Q 601.696472 400.733183 601.446472 401.009746 
Q 601.198035 401.284746 601.198035 401.803495 
L 601.198035 405.030058 
Q 601.198035 405.547246 601.449597 405.823808 
Q 601.70116 406.10037 602.229285 406.10037 
z
M 607.746863 407.047246 
Q 606.749988 407.047246 606.234363 406.515996 
Q 605.7203 405.983183 605.7203 405.030058 
L 605.7203 401.803495 
Q 605.7203 400.845683 606.237488 400.315996 
Q 606.754675 399.786308 607.746863 399.786308 
Q 608.742175 399.786308 609.2578 400.314433 
Q 609.773425 400.840996 609.773425 401.803495 
L 609.773425 405.030058 
Q 609.773425 405.987871 609.254675 406.517558 
Q 608.737488 407.047246 607.746863 407.047246 
z
M 607.746863 406.10037 
Q 608.273425 406.10037 608.524988 405.823808 
Q 608.77655 405.547246 608.77655 405.030058 
L 608.77655 401.803495 
Q 608.77655 401.284746 608.52655 401.009746 
Q 608.278113 400.733183 607.746863 400.733183 
Q 607.21405 400.733183 606.96405 401.009746 
Q 606.715613 401.284746 606.715613 401.803495 
L 606.715613 405.030058 
Q 606.715613 405.547246 606.967175 405.823808 
Q 607.218738 406.10037 607.746863 406.10037 
z
M 614.397253 399.873808 
L 615.080066 399.873808 
L 616.534753 405.440996 
L 617.791003 399.873808 
L 618.825378 399.873808 
L 617.092566 406.973808 
L 616.076941 406.973808 
L 614.767566 402.012871 
L 613.400378 406.973808 
L 612.384753 406.973808 
L 610.651941 399.873808 
L 611.686316 399.873808 
L 612.941003 405.440996 
L 614.397253 399.873808 
z
M 624.953113 399.873808 
L 625.885925 399.873808 
L 625.885925 406.973808 
L 624.91405 406.973808 
L 624.91405 401.656621 
L 624.962488 401.969121 
L 623.215613 405.987871 
L 622.521863 405.987871 
L 620.773425 402.065996 
L 620.821863 401.656621 
L 620.821863 406.973808 
L 619.85155 406.973808 
L 619.85155 399.873808 
L 620.7828 399.873808 
L 622.868738 404.561308 
L 624.953113 399.873808 
z
" style="fill: #ffffff"/>
   </g>
  </g>
 </g>
 <defs>
  <clipPath id="pded30def39">
   <rect x="144" y="77.76" width="892.8" height="498.96"/>
  </clipPath>
 </defs>
</svg>
