<?xml version="1.0" encoding="utf-8" standalone="no"?>
<!DOCTYPE svg PUBLIC "-//W3C//DTD SVG 1.1//EN"
  "http://www.w3.org/Graphics/SVG/1.1/DTD/svg11.dtd">
<svg xmlns:xlink="http://www.w3.org/1999/xlink" width="1152pt" height="648pt" viewBox="0 0 1152 648" xmlns="http://www.w3.org/2000/svg" version="1.1">
 <metadata>
  <rdf:RDF xmlns:dc="http://purl.org/dc/elements/1.1/" xmlns:cc="http://creativecommons.org/ns#" xmlns:rdf="http://www.w3.org/1999/02/22-rdf-syntax-ns#">
   <cc:Work>
    <dc:type rdf:resource="http://purl.org/dc/dcmitype/StillImage"/>
    <dc:date>2024-03-14T14:55:08.584399</dc:date>
    <dc:format>image/svg+xml</dc:format>
    <dc:creator>
     <cc:Agent>
      <dc:title>Matplotlib v3.8.3, https://matplotlib.org/</dc:title>
     </cc:Agent>
    </dc:creator>
   </cc:Work>
  </rdf:RDF>
 </metadata>
 <defs>
  <style type="text/css">*{stroke-linejoin: round; stroke-linecap: butt}</style>
 </defs>
 <g id="figure_1">
  <g id="patch_1">
   <path d="M 0 648 
L 1152 648 
L 1152 0 
L 0 0 
L 0 648 
z
" style="fill: none"/>
  </g>
  <g id="axes_1">
   <g id="line2d_1">
    <path d="M 233.28 465.346477 
L 237.062626 462.303248 
L 240.845253 459.307011 
L 244.627879 456.357041 
L 248.410505 453.452624 
L 252.193131 450.593058 
L 255.975758 447.777651 
L 259.758384 445.005723 
L 263.54101 442.276602 
L 267.323636 439.589629 
L 271.106263 436.944153 
L 274.888889 434.339534 
L 278.671515 431.775142 
L 282.454141 429.250356 
L 286.236768 426.764566 
L 290.019394 424.317169 
L 293.80202 421.907574 
L 297.584646 419.535196 
L 301.367273 417.199463 
L 305.149899 414.899808 
L 308.932525 412.635676 
L 312.715152 410.406516 
L 316.497778 408.211791 
L 320.280404 406.050969 
L 324.06303 403.923526 
L 327.845657 401.828947 
L 331.628283 399.766725 
L 335.410909 397.736361 
L 339.193535 395.737363 
L 342.976162 393.769248 
L 346.758788 391.831537 
L 350.541414 389.923762 
L 354.32404 388.045461 
L 358.106667 386.19618 
L 361.889293 384.375469 
L 365.671919 382.582888 
L 369.454545 380.818002 
L 373.237172 379.080385 
L 377.019798 377.369615 
L 380.802424 375.685278 
L 384.585051 374.026965 
L 388.367677 372.394275 
L 392.150303 370.786812 
L 395.932929 369.204187 
L 399.715556 367.646016 
L 403.498182 366.111921 
L 407.280808 364.601531 
L 411.063434 363.11448 
L 414.846061 361.650408 
L 418.628687 360.208959 
L 422.411313 358.789784 
L 426.193939 357.392539 
L 429.976566 356.016886 
L 433.759192 354.662491 
L 437.541818 353.329026 
L 441.324444 352.016167 
L 445.107071 350.723597 
L 448.889697 349.451002 
L 452.672323 348.198073 
L 456.454949 346.964507 
L 460.237576 345.750004 
L 464.020202 344.554271 
L 467.802828 343.377017 
L 471.585455 342.217957 
L 475.368081 341.076809 
L 479.150707 339.953298 
L 482.933333 338.847151 
L 486.71596 337.758099 
L 490.498586 336.685878 
L 494.281212 335.630229 
L 498.063838 334.590896 
L 501.846465 333.567625 
L 505.629091 332.56017 
L 509.411717 331.568286 
L 513.194343 330.591732 
L 516.97697 329.630272 
L 520.759596 328.683672 
L 524.542222 327.751703 
L 528.324848 326.834139 
L 532.107475 325.930756 
L 535.890101 325.041337 
L 539.672727 324.165665 
L 543.455354 323.303528 
L 547.23798 322.454717 
L 551.020606 321.619026 
L 554.803232 320.796252 
L 558.585859 319.986195 
L 562.368485 319.18866 
L 566.151111 318.403452 
L 569.933737 317.630382 
L 573.716364 316.869261 
L 577.49899 316.119905 
L 581.281616 315.382132 
L 585.064242 314.655764 
L 588.846869 313.940623 
L 592.629495 313.236537 
L 596.412121 312.543334 
L 600.194747 311.860847 
L 603.977374 311.18891 
L 607.76 310.52736 
" clip-path="url(#p2bf4cd66cb)" style="fill: none; stroke: #f2a179; stroke-width: 3; stroke-linecap: round"/>
   </g>
   <g id="text_1">
    <path d="M 615.205605 311.227053 
L 616.811855 311.227053 
Q 617.597792 311.227053 618.029042 310.81924 
Q 618.461855 310.411428 618.461855 309.66924 
L 618.461855 307.578615 
Q 618.461855 306.836428 618.029042 306.428615 
Q 617.597792 306.020803 616.811855 306.020803 
L 615.205605 306.020803 
L 615.205605 305.073928 
L 616.782168 305.073928 
Q 617.636855 305.073928 618.241542 305.372365 
Q 618.847792 305.66924 619.16498 306.241115 
Q 619.482167 306.81299 619.482167 307.617678 
L 619.482167 309.630178 
Q 619.482167 310.434865 619.16498 311.00674 
Q 618.847792 311.578615 618.23998 311.877053 
Q 617.632167 312.173928 616.77748 312.173928 
L 615.205605 312.173928 
L 615.205605 311.227053 
z
M 614.532168 305.073928 
L 615.52748 305.073928 
L 615.52748 312.173928 
L 614.532168 312.173928 
L 614.532168 305.073928 
z
M 623.461855 308.648928 
L 623.457167 308.823928 
Q 623.335292 309.048928 623.088417 309.153615 
Q 622.841542 309.258303 622.505605 309.258303 
Q 621.997792 309.258303 621.611855 309.00049 
Q 621.225917 308.741115 621.013417 308.270803 
Q 620.800917 307.798928 620.800917 307.178615 
L 620.800917 307.173928 
Q 620.800917 306.484865 621.032168 305.997365 
Q 621.26498 305.508303 621.711855 305.255178 
Q 622.15873 305.00049 622.78373 305.00049 
Q 623.40873 305.00049 623.85248 305.259865 
Q 624.297793 305.51924 624.529042 306.01299 
Q 624.760292 306.505178 624.760292 307.198928 
L 624.760292 307.203615 
Q 624.760292 307.583303 624.661855 308.016115 
Q 624.56498 308.448928 624.385292 308.872365 
Q 624.355605 308.936428 624.325917 309.002053 
Q 624.297793 309.067678 624.263417 309.13174 
L 622.749355 312.173928 
L 621.674355 312.173928 
L 623.461855 308.648928 
z
M 622.78373 308.35049 
Q 623.25248 308.35049 623.50873 308.033303 
Q 623.76498 307.716115 623.76498 307.139553 
L 623.76498 307.134865 
Q 623.76498 306.573928 623.50873 306.266115 
Q 623.25248 305.958303 622.78373 305.958303 
Q 622.310292 305.958303 622.054042 306.266115 
Q 621.797793 306.573928 621.797793 307.139553 
L 621.797793 307.14424 
Q 621.797793 307.720803 622.054042 308.036428 
Q 622.310292 308.35049 622.78373 308.35049 
z
M 628.106191 312.247365 
Q 627.109316 312.247365 626.593691 311.716115 
Q 626.079628 311.183303 626.079628 310.230178 
L 626.079628 307.003615 
Q 626.079628 306.045803 626.596816 305.516115 
Q 627.114003 304.986428 628.106191 304.986428 
Q 629.101503 304.986428 629.617128 305.514553 
Q 630.132753 306.041115 630.132753 307.003615 
L 630.132753 310.230178 
Q 630.132753 311.18799 629.614003 311.717678 
Q 629.096816 312.247365 628.106191 312.247365 
z
M 628.106191 311.30049 
Q 628.632753 311.30049 628.884316 311.023928 
Q 629.135878 310.747365 629.135878 310.230178 
L 629.135878 307.003615 
Q 629.135878 306.484865 628.885878 306.209865 
Q 628.637441 305.933303 628.106191 305.933303 
Q 627.573378 305.933303 627.323378 306.209865 
Q 627.074941 306.484865 627.074941 307.003615 
L 627.074941 310.230178 
Q 627.074941 310.747365 627.326503 311.023928 
Q 627.578066 311.30049 628.106191 311.30049 
z
M 633.623769 312.247365 
Q 632.626894 312.247365 632.111269 311.716115 
Q 631.597207 311.183303 631.597207 310.230178 
L 631.597207 307.003615 
Q 631.597207 306.045803 632.114394 305.516115 
Q 632.631582 304.986428 633.623769 304.986428 
Q 634.619082 304.986428 635.134707 305.514553 
Q 635.650332 306.041115 635.650332 307.003615 
L 635.650332 310.230178 
Q 635.650332 311.18799 635.131582 311.717678 
Q 634.614394 312.247365 633.623769 312.247365 
z
M 633.623769 311.30049 
Q 634.150332 311.30049 634.401894 311.023928 
Q 634.653457 310.747365 634.653457 310.230178 
L 634.653457 307.003615 
Q 634.653457 306.484865 634.403457 306.209865 
Q 634.155019 305.933303 633.623769 305.933303 
Q 633.090957 305.933303 632.840957 306.209865 
Q 632.592519 306.484865 632.592519 307.003615 
L 632.592519 310.230178 
Q 632.592519 310.747365 632.844082 311.023928 
Q 633.095644 311.30049 633.623769 311.30049 
z
M 639.141347 312.247365 
Q 638.144472 312.247365 637.628847 311.716115 
Q 637.114785 311.183303 637.114785 310.230178 
L 637.114785 307.003615 
Q 637.114785 306.045803 637.631972 305.516115 
Q 638.14916 304.986428 639.141347 304.986428 
Q 640.13666 304.986428 640.652285 305.514553 
Q 641.16791 306.041115 641.16791 307.003615 
L 641.16791 310.230178 
Q 641.16791 311.18799 640.64916 311.717678 
Q 640.131972 312.247365 639.141347 312.247365 
z
M 639.141347 311.30049 
Q 639.66791 311.30049 639.919472 311.023928 
Q 640.171035 310.747365 640.171035 310.230178 
L 640.171035 307.003615 
Q 640.171035 306.484865 639.921035 306.209865 
Q 639.672597 305.933303 639.141347 305.933303 
Q 638.608535 305.933303 638.358535 306.209865 
Q 638.110097 306.484865 638.110097 307.003615 
L 638.110097 310.230178 
Q 638.110097 310.747365 638.36166 311.023928 
Q 638.613222 311.30049 639.141347 311.30049 
z
" style="fill: #ffffff; stroke: #000000"/>
    <path d="M 615.205605 311.227053 
L 616.811855 311.227053 
Q 617.597792 311.227053 618.029042 310.81924 
Q 618.461855 310.411428 618.461855 309.66924 
L 618.461855 307.578615 
Q 618.461855 306.836428 618.029042 306.428615 
Q 617.597792 306.020803 616.811855 306.020803 
L 615.205605 306.020803 
L 615.205605 305.073928 
L 616.782168 305.073928 
Q 617.636855 305.073928 618.241542 305.372365 
Q 618.847792 305.66924 619.16498 306.241115 
Q 619.482167 306.81299 619.482167 307.617678 
L 619.482167 309.630178 
Q 619.482167 310.434865 619.16498 311.00674 
Q 618.847792 311.578615 618.23998 311.877053 
Q 617.632167 312.173928 616.77748 312.173928 
L 615.205605 312.173928 
L 615.205605 311.227053 
z
M 614.532168 305.073928 
L 615.52748 305.073928 
L 615.52748 312.173928 
L 614.532168 312.173928 
L 614.532168 305.073928 
z
M 623.461855 308.648928 
L 623.457167 308.823928 
Q 623.335292 309.048928 623.088417 309.153615 
Q 622.841542 309.258303 622.505605 309.258303 
Q 621.997792 309.258303 621.611855 309.00049 
Q 621.225917 308.741115 621.013417 308.270803 
Q 620.800917 307.798928 620.800917 307.178615 
L 620.800917 307.173928 
Q 620.800917 306.484865 621.032168 305.997365 
Q 621.26498 305.508303 621.711855 305.255178 
Q 622.15873 305.00049 622.78373 305.00049 
Q 623.40873 305.00049 623.85248 305.259865 
Q 624.297793 305.51924 624.529042 306.01299 
Q 624.760292 306.505178 624.760292 307.198928 
L 624.760292 307.203615 
Q 624.760292 307.583303 624.661855 308.016115 
Q 624.56498 308.448928 624.385292 308.872365 
Q 624.355605 308.936428 624.325917 309.002053 
Q 624.297793 309.067678 624.263417 309.13174 
L 622.749355 312.173928 
L 621.674355 312.173928 
L 623.461855 308.648928 
z
M 622.78373 308.35049 
Q 623.25248 308.35049 623.50873 308.033303 
Q 623.76498 307.716115 623.76498 307.139553 
L 623.76498 307.134865 
Q 623.76498 306.573928 623.50873 306.266115 
Q 623.25248 305.958303 622.78373 305.958303 
Q 622.310292 305.958303 622.054042 306.266115 
Q 621.797793 306.573928 621.797793 307.139553 
L 621.797793 307.14424 
Q 621.797793 307.720803 622.054042 308.036428 
Q 622.310292 308.35049 622.78373 308.35049 
z
M 628.106191 312.247365 
Q 627.109316 312.247365 626.593691 311.716115 
Q 626.079628 311.183303 626.079628 310.230178 
L 626.079628 307.003615 
Q 626.079628 306.045803 626.596816 305.516115 
Q 627.114003 304.986428 628.106191 304.986428 
Q 629.101503 304.986428 629.617128 305.514553 
Q 630.132753 306.041115 630.132753 307.003615 
L 630.132753 310.230178 
Q 630.132753 311.18799 629.614003 311.717678 
Q 629.096816 312.247365 628.106191 312.247365 
z
M 628.106191 311.30049 
Q 628.632753 311.30049 628.884316 311.023928 
Q 629.135878 310.747365 629.135878 310.230178 
L 629.135878 307.003615 
Q 629.135878 306.484865 628.885878 306.209865 
Q 628.637441 305.933303 628.106191 305.933303 
Q 627.573378 305.933303 627.323378 306.209865 
Q 627.074941 306.484865 627.074941 307.003615 
L 627.074941 310.230178 
Q 627.074941 310.747365 627.326503 311.023928 
Q 627.578066 311.30049 628.106191 311.30049 
z
M 633.623769 312.247365 
Q 632.626894 312.247365 632.111269 311.716115 
Q 631.597207 311.183303 631.597207 310.230178 
L 631.597207 307.003615 
Q 631.597207 306.045803 632.114394 305.516115 
Q 632.631582 304.986428 633.623769 304.986428 
Q 634.619082 304.986428 635.134707 305.514553 
Q 635.650332 306.041115 635.650332 307.003615 
L 635.650332 310.230178 
Q 635.650332 311.18799 635.131582 311.717678 
Q 634.614394 312.247365 633.623769 312.247365 
z
M 633.623769 311.30049 
Q 634.150332 311.30049 634.401894 311.023928 
Q 634.653457 310.747365 634.653457 310.230178 
L 634.653457 307.003615 
Q 634.653457 306.484865 634.403457 306.209865 
Q 634.155019 305.933303 633.623769 305.933303 
Q 633.090957 305.933303 632.840957 306.209865 
Q 632.592519 306.484865 632.592519 307.003615 
L 632.592519 310.230178 
Q 632.592519 310.747365 632.844082 311.023928 
Q 633.095644 311.30049 633.623769 311.30049 
z
M 639.141347 312.247365 
Q 638.144472 312.247365 637.628847 311.716115 
Q 637.114785 311.183303 637.114785 310.230178 
L 637.114785 307.003615 
Q 637.114785 306.045803 637.631972 305.516115 
Q 638.14916 304.986428 639.141347 304.986428 
Q 640.13666 304.986428 640.652285 305.514553 
Q 641.16791 306.041115 641.16791 307.003615 
L 641.16791 310.230178 
Q 641.16791 311.18799 640.64916 311.717678 
Q 640.131972 312.247365 639.141347 312.247365 
z
M 639.141347 311.30049 
Q 639.66791 311.30049 639.919472 311.023928 
Q 640.171035 310.747365 640.171035 310.230178 
L 640.171035 307.003615 
Q 640.171035 306.484865 639.921035 306.209865 
Q 639.672597 305.933303 639.141347 305.933303 
Q 638.608535 305.933303 638.358535 306.209865 
Q 638.110097 306.484865 638.110097 307.003615 
L 638.110097 310.230178 
Q 638.110097 310.747365 638.36166 311.023928 
Q 638.613222 311.30049 639.141347 311.30049 
z
" style="fill: #ffffff"/>
   </g>
  </g>
 </g>
 <defs>
  <clipPath id="p2bf4cd66cb">
   <rect x="144" y="77.76" width="892.8" height="498.96"/>
  </clipPath>
 </defs>
</svg>
