<?xml version="1.0" encoding="utf-8" standalone="no"?>
<!DOCTYPE svg PUBLIC "-//W3C//DTD SVG 1.1//EN"
  "http://www.w3.org/Graphics/SVG/1.1/DTD/svg11.dtd">
<svg xmlns:xlink="http://www.w3.org/1999/xlink" width="1152pt" height="648pt" viewBox="0 0 1152 648" xmlns="http://www.w3.org/2000/svg" version="1.1">
 <metadata>
  <rdf:RDF xmlns:dc="http://purl.org/dc/elements/1.1/" xmlns:cc="http://creativecommons.org/ns#" xmlns:rdf="http://www.w3.org/1999/02/22-rdf-syntax-ns#">
   <cc:Work>
    <dc:type rdf:resource="http://purl.org/dc/dcmitype/StillImage"/>
    <dc:date>2024-03-14T14:55:08.929406</dc:date>
    <dc:format>image/svg+xml</dc:format>
    <dc:creator>
     <cc:Agent>
      <dc:title>Matplotlib v3.8.3, https://matplotlib.org/</dc:title>
     </cc:Agent>
    </dc:creator>
   </cc:Work>
  </rdf:RDF>
 </metadata>
 <defs>
  <style type="text/css">*{stroke-linejoin: round; stroke-linecap: butt}</style>
 </defs>
 <g id="figure_1">
  <g id="patch_1">
   <path d="M 0 648 
L 1152 648 
L 1152 0 
L 0 0 
L 0 648 
z
" style="fill: none"/>
  </g>
  <g id="axes_1">
   <g id="line2d_1">
    <path d="M 186.656 534.145821 
L 187.928566 533.504185 
L 189.201131 532.868352 
L 190.473697 532.238268 
L 191.746263 531.613884 
L 193.018828 530.995147 
L 194.291394 530.382007 
L 195.56396 529.774412 
L 196.836525 529.172314 
L 198.109091 528.575663 
L 199.381657 527.984409 
L 200.654222 527.398504 
L 201.926788 526.8179 
L 203.199354 526.242548 
L 204.471919 525.672403 
L 205.744485 525.107416 
L 207.017051 524.547541 
L 208.289616 523.992732 
L 209.562182 523.442944 
L 210.834747 522.89813 
L 212.107313 522.358247 
L 213.379879 521.82325 
L 214.652444 521.293095 
L 215.92501 520.767738 
L 217.197576 520.247136 
L 218.470141 519.731245 
L 219.742707 519.220025 
L 221.015273 518.713431 
L 222.287838 518.211423 
L 223.560404 517.713959 
L 224.83297 517.220999 
L 226.105535 516.732501 
L 227.378101 516.248425 
L 228.650667 515.768732 
L 229.923232 515.293382 
L 231.195798 514.822335 
L 232.468364 514.355553 
L 233.740929 513.892998 
L 235.013495 513.434631 
L 236.286061 512.980414 
L 237.558626 512.53031 
L 238.831192 512.084282 
L 240.103758 511.642292 
L 241.376323 511.204306 
L 242.648889 510.770285 
L 243.921455 510.340196 
L 245.19402 509.914001 
L 246.466586 509.491666 
L 247.739152 509.073156 
L 249.011717 508.658437 
L 250.284283 508.247474 
L 251.556848 507.840233 
L 252.829414 507.436681 
L 254.10198 507.036784 
L 255.374545 506.64051 
L 256.647111 506.247825 
L 257.919677 505.858698 
L 259.192242 505.473095 
L 260.464808 505.090986 
L 261.737374 504.712338 
L 263.009939 504.337121 
L 264.282505 503.965303 
L 265.555071 503.596854 
L 266.827636 503.231742 
L 268.100202 502.869939 
L 269.372768 502.511414 
L 270.645333 502.156138 
L 271.917899 501.80408 
L 273.190465 501.455213 
L 274.46303 501.109507 
L 275.735596 500.766933 
L 277.008162 500.427464 
L 278.280727 500.09107 
L 279.553293 499.757726 
L 280.825859 499.427402 
L 282.098424 499.100071 
L 283.37099 498.775707 
L 284.643556 498.454283 
L 285.916121 498.135772 
L 287.188687 497.820147 
L 288.461253 497.507383 
L 289.733818 497.197454 
L 291.006384 496.890334 
L 292.278949 496.585997 
L 293.551515 496.284419 
L 294.824081 495.985574 
L 296.096646 495.689439 
L 297.369212 495.395987 
L 298.641778 495.105196 
L 299.914343 494.81704 
L 301.186909 494.531497 
L 302.459475 494.248542 
L 303.73204 493.968152 
L 305.004606 493.690304 
L 306.277172 493.414974 
L 307.549737 493.142141 
L 308.822303 492.871782 
L 310.094869 492.603873 
L 311.367434 492.338393 
L 312.64 492.07532 
" clip-path="url(#p86ad546563)" style="fill: none; stroke: #b2f230; stroke-width: 3; stroke-linecap: round"/>
   </g>
   <g id="text_1">
    <path d="M 324.265292 489.898451 
L 324.265292 491.139076 
Q 324.265292 491.929701 323.95748 492.532826 
Q 323.649667 493.135951 323.085605 493.465638 
Q 322.521542 493.795326 321.779355 493.795326 
Q 321.027792 493.795326 320.459042 493.485951 
Q 319.890292 493.175013 319.577792 492.609388 
Q 319.265292 492.042201 319.265292 491.295326 
L 319.265292 489.200013 
Q 319.265292 488.409388 319.573105 487.809388 
Q 319.880917 487.207826 320.443417 486.878138 
Q 321.00748 486.548451 321.749667 486.548451 
Q 322.360605 486.548451 322.874667 486.810951 
Q 323.390292 487.071888 323.737167 487.550013 
Q 324.084042 488.028138 324.205917 488.657826 
L 324.205917 488.657826 
L 323.127792 488.657826 
L 323.127792 488.657826 
Q 323.03873 488.301576 322.829355 488.045326 
Q 322.61998 487.789076 322.335605 487.654701 
Q 322.052792 487.520326 321.749667 487.520326 
Q 321.310605 487.520326 320.977792 487.731263 
Q 320.646542 487.940638 320.465292 488.318763 
Q 320.285605 488.696888 320.285605 489.200013 
L 320.285605 491.295326 
Q 320.285605 491.754701 320.46998 492.098451 
Q 320.655917 492.442201 320.99498 492.632826 
Q 321.335605 492.823451 321.779355 492.823451 
Q 322.218417 492.823451 322.549667 492.626576 
Q 322.88248 492.428138 323.06373 492.053138 
Q 323.24498 491.676576 323.24498 491.157826 
L 323.24498 490.850013 
L 321.804355 490.850013 
L 321.804355 489.898451 
L 324.265292 489.898451 
z
M 327.809824 493.795326 
Q 327.166074 493.795326 326.677011 493.551576 
Q 326.189511 493.306263 325.922324 492.859388 
Q 325.656699 492.412513 325.656699 491.821888 
L 325.656699 491.704701 
Q 325.656699 491.173451 325.922324 490.704701 
Q 326.189511 490.235951 326.633261 489.996888 
Q 326.256699 489.790638 326.030136 489.403138 
Q 325.803574 489.014076 325.803574 488.584388 
L 325.803574 488.414076 
Q 325.803574 487.857826 326.052011 487.435951 
Q 326.300449 487.012513 326.755136 486.781263 
Q 327.209824 486.548451 327.809824 486.548451 
Q 328.409824 486.548451 328.864511 486.781263 
Q 329.319199 487.012513 329.567636 487.435951 
Q 329.816074 487.857826 329.816074 488.414076 
L 329.816074 488.584388 
Q 329.816074 489.025013 329.584824 489.410951 
Q 329.353574 489.795326 328.972324 489.996888 
Q 329.420761 490.240638 329.691074 490.707826 
Q 329.962949 491.173451 329.962949 491.704701 
L 329.962949 491.821888 
Q 329.962949 492.412513 329.697324 492.859388 
Q 329.431699 493.306263 328.942636 493.551576 
Q 328.455136 493.795326 327.809824 493.795326 
z
M 327.809824 492.837513 
Q 328.156699 492.837513 328.419199 492.701576 
Q 328.683261 492.564076 328.827011 492.318763 
Q 328.972324 492.071888 328.972324 491.748451 
L 328.972324 491.681263 
Q 328.972324 491.353138 328.827011 491.107826 
Q 328.683261 490.860951 328.419199 490.725013 
Q 328.156699 490.587513 327.809824 490.587513 
Q 327.462949 490.587513 327.198886 490.725013 
Q 326.936386 490.860951 326.791074 491.109388 
Q 326.647324 491.357826 326.647324 491.685951 
L 326.647324 491.759388 
Q 326.647324 492.081263 326.791074 492.325013 
Q 326.936386 492.568763 327.198886 492.703138 
Q 327.462949 492.837513 327.809824 492.837513 
z
M 327.809824 489.629701 
Q 328.108261 489.629701 328.336386 489.501576 
Q 328.566074 489.371888 328.692636 489.132826 
Q 328.820761 488.892201 328.820761 488.579701 
L 328.820761 488.512513 
Q 328.820761 488.214076 328.692636 487.984388 
Q 328.566074 487.754701 328.336386 487.631263 
Q 328.108261 487.506263 327.809824 487.506263 
Q 327.511386 487.506263 327.281699 487.631263 
Q 327.053574 487.754701 326.925449 487.984388 
Q 326.798886 488.214076 326.798886 488.517201 
L 326.798886 488.590638 
Q 326.798886 488.896888 326.925449 489.134388 
Q 327.053574 489.371888 327.281699 489.501576 
Q 327.511386 489.629701 327.809824 489.629701 
z
M 333.337949 493.795326 
Q 332.800449 493.795326 332.381699 493.585951 
Q 331.964511 493.375013 331.703574 492.975013 
Q 331.442636 492.575013 331.355136 492.012513 
L 331.355136 492.007826 
L 332.350449 492.007826 
L 332.350449 492.012513 
Q 332.405136 492.403138 332.662949 492.620326 
Q 332.922324 492.837513 333.337949 492.837513 
Q 333.816074 492.837513 334.077011 492.518763 
Q 334.337949 492.198451 334.337949 491.617201 
L 334.337949 491.021888 
Q 334.337949 490.445326 334.077011 490.126576 
Q 333.816074 489.806263 333.337949 489.806263 
Q 333.078574 489.806263 332.839511 489.953138 
Q 332.600449 490.098451 332.419199 490.362513 
L 331.511386 490.362513 
L 331.511386 486.621888 
L 335.128574 486.621888 
L 335.128574 487.568763 
L 332.506699 487.568763 
L 332.506699 489.165638 
Q 332.692636 489.014076 332.922324 488.931263 
Q 333.152011 488.848451 333.391074 488.848451 
Q 334.006699 488.848451 334.442636 489.103138 
Q 334.880136 489.356263 335.106699 489.845326 
Q 335.334824 490.332826 335.334824 491.021888 
L 335.334824 491.617201 
Q 335.334824 492.306263 335.100449 492.795326 
Q 334.866074 493.282826 334.416074 493.539076 
Q 333.967636 493.795326 333.337949 493.795326 
z
" style="fill: #ffffff; stroke: #000000"/>
    <path d="M 324.265292 489.898451 
L 324.265292 491.139076 
Q 324.265292 491.929701 323.95748 492.532826 
Q 323.649667 493.135951 323.085605 493.465638 
Q 322.521542 493.795326 321.779355 493.795326 
Q 321.027792 493.795326 320.459042 493.485951 
Q 319.890292 493.175013 319.577792 492.609388 
Q 319.265292 492.042201 319.265292 491.295326 
L 319.265292 489.200013 
Q 319.265292 488.409388 319.573105 487.809388 
Q 319.880917 487.207826 320.443417 486.878138 
Q 321.00748 486.548451 321.749667 486.548451 
Q 322.360605 486.548451 322.874667 486.810951 
Q 323.390292 487.071888 323.737167 487.550013 
Q 324.084042 488.028138 324.205917 488.657826 
L 324.205917 488.657826 
L 323.127792 488.657826 
L 323.127792 488.657826 
Q 323.03873 488.301576 322.829355 488.045326 
Q 322.61998 487.789076 322.335605 487.654701 
Q 322.052792 487.520326 321.749667 487.520326 
Q 321.310605 487.520326 320.977792 487.731263 
Q 320.646542 487.940638 320.465292 488.318763 
Q 320.285605 488.696888 320.285605 489.200013 
L 320.285605 491.295326 
Q 320.285605 491.754701 320.46998 492.098451 
Q 320.655917 492.442201 320.99498 492.632826 
Q 321.335605 492.823451 321.779355 492.823451 
Q 322.218417 492.823451 322.549667 492.626576 
Q 322.88248 492.428138 323.06373 492.053138 
Q 323.24498 491.676576 323.24498 491.157826 
L 323.24498 490.850013 
L 321.804355 490.850013 
L 321.804355 489.898451 
L 324.265292 489.898451 
z
M 327.809824 493.795326 
Q 327.166074 493.795326 326.677011 493.551576 
Q 326.189511 493.306263 325.922324 492.859388 
Q 325.656699 492.412513 325.656699 491.821888 
L 325.656699 491.704701 
Q 325.656699 491.173451 325.922324 490.704701 
Q 326.189511 490.235951 326.633261 489.996888 
Q 326.256699 489.790638 326.030136 489.403138 
Q 325.803574 489.014076 325.803574 488.584388 
L 325.803574 488.414076 
Q 325.803574 487.857826 326.052011 487.435951 
Q 326.300449 487.012513 326.755136 486.781263 
Q 327.209824 486.548451 327.809824 486.548451 
Q 328.409824 486.548451 328.864511 486.781263 
Q 329.319199 487.012513 329.567636 487.435951 
Q 329.816074 487.857826 329.816074 488.414076 
L 329.816074 488.584388 
Q 329.816074 489.025013 329.584824 489.410951 
Q 329.353574 489.795326 328.972324 489.996888 
Q 329.420761 490.240638 329.691074 490.707826 
Q 329.962949 491.173451 329.962949 491.704701 
L 329.962949 491.821888 
Q 329.962949 492.412513 329.697324 492.859388 
Q 329.431699 493.306263 328.942636 493.551576 
Q 328.455136 493.795326 327.809824 493.795326 
z
M 327.809824 492.837513 
Q 328.156699 492.837513 328.419199 492.701576 
Q 328.683261 492.564076 328.827011 492.318763 
Q 328.972324 492.071888 328.972324 491.748451 
L 328.972324 491.681263 
Q 328.972324 491.353138 328.827011 491.107826 
Q 328.683261 490.860951 328.419199 490.725013 
Q 328.156699 490.587513 327.809824 490.587513 
Q 327.462949 490.587513 327.198886 490.725013 
Q 326.936386 490.860951 326.791074 491.109388 
Q 326.647324 491.357826 326.647324 491.685951 
L 326.647324 491.759388 
Q 326.647324 492.081263 326.791074 492.325013 
Q 326.936386 492.568763 327.198886 492.703138 
Q 327.462949 492.837513 327.809824 492.837513 
z
M 327.809824 489.629701 
Q 328.108261 489.629701 328.336386 489.501576 
Q 328.566074 489.371888 328.692636 489.132826 
Q 328.820761 488.892201 328.820761 488.579701 
L 328.820761 488.512513 
Q 328.820761 488.214076 328.692636 487.984388 
Q 328.566074 487.754701 328.336386 487.631263 
Q 328.108261 487.506263 327.809824 487.506263 
Q 327.511386 487.506263 327.281699 487.631263 
Q 327.053574 487.754701 326.925449 487.984388 
Q 326.798886 488.214076 326.798886 488.517201 
L 326.798886 488.590638 
Q 326.798886 488.896888 326.925449 489.134388 
Q 327.053574 489.371888 327.281699 489.501576 
Q 327.511386 489.629701 327.809824 489.629701 
z
M 333.337949 493.795326 
Q 332.800449 493.795326 332.381699 493.585951 
Q 331.964511 493.375013 331.703574 492.975013 
Q 331.442636 492.575013 331.355136 492.012513 
L 331.355136 492.007826 
L 332.350449 492.007826 
L 332.350449 492.012513 
Q 332.405136 492.403138 332.662949 492.620326 
Q 332.922324 492.837513 333.337949 492.837513 
Q 333.816074 492.837513 334.077011 492.518763 
Q 334.337949 492.198451 334.337949 491.617201 
L 334.337949 491.021888 
Q 334.337949 490.445326 334.077011 490.126576 
Q 333.816074 489.806263 333.337949 489.806263 
Q 333.078574 489.806263 332.839511 489.953138 
Q 332.600449 490.098451 332.419199 490.362513 
L 331.511386 490.362513 
L 331.511386 486.621888 
L 335.128574 486.621888 
L 335.128574 487.568763 
L 332.506699 487.568763 
L 332.506699 489.165638 
Q 332.692636 489.014076 332.922324 488.931263 
Q 333.152011 488.848451 333.391074 488.848451 
Q 334.006699 488.848451 334.442636 489.103138 
Q 334.880136 489.356263 335.106699 489.845326 
Q 335.334824 490.332826 335.334824 491.021888 
L 335.334824 491.617201 
Q 335.334824 492.306263 335.100449 492.795326 
Q 334.866074 493.282826 334.416074 493.539076 
Q 333.967636 493.795326 333.337949 493.795326 
z
" style="fill: #ffffff"/>
   </g>
  </g>
 </g>
 <defs>
  <clipPath id="p86ad546563">
   <rect x="144" y="77.76" width="892.8" height="498.96"/>
  </clipPath>
 </defs>
</svg>
