<?xml version="1.0" encoding="utf-8" standalone="no"?>
<!DOCTYPE svg PUBLIC "-//W3C//DTD SVG 1.1//EN"
  "http://www.w3.org/Graphics/SVG/1.1/DTD/svg11.dtd">
<svg xmlns:xlink="http://www.w3.org/1999/xlink" width="1152pt" height="648pt" viewBox="0 0 1152 648" xmlns="http://www.w3.org/2000/svg" version="1.1">
 <metadata>
  <rdf:RDF xmlns:dc="http://purl.org/dc/elements/1.1/" xmlns:cc="http://creativecommons.org/ns#" xmlns:rdf="http://www.w3.org/1999/02/22-rdf-syntax-ns#">
   <cc:Work>
    <dc:type rdf:resource="http://purl.org/dc/dcmitype/StillImage"/>
    <dc:date>2024-03-14T14:55:07.823499</dc:date>
    <dc:format>image/svg+xml</dc:format>
    <dc:creator>
     <cc:Agent>
      <dc:title>Matplotlib v3.8.3, https://matplotlib.org/</dc:title>
     </cc:Agent>
    </dc:creator>
   </cc:Work>
  </rdf:RDF>
 </metadata>
 <defs>
  <style type="text/css">*{stroke-linejoin: round; stroke-linecap: butt}</style>
 </defs>
 <g id="figure_1">
  <g id="patch_1">
   <path d="M 0 648 
L 1152 648 
L 1152 0 
L 0 0 
L 0 648 
z
" style="fill: none"/>
  </g>
  <g id="axes_1">
   <g id="line2d_1">
    <path d="M 250.64 478.81507 
L 252.879515 476.878834 
L 255.11903 474.98103 
L 257.358545 473.120896 
L 259.598061 471.297684 
L 261.837576 469.510664 
L 264.077091 467.759117 
L 266.316606 466.042339 
L 268.556121 464.359642 
L 270.795636 462.710349 
L 273.035152 461.093798 
L 275.274667 459.509339 
L 277.514182 457.956337 
L 279.753697 456.434166 
L 281.993212 454.942217 
L 284.232727 453.479888 
L 286.472242 452.046593 
L 288.711758 450.641756 
L 290.951273 449.264811 
L 293.190788 447.915206 
L 295.430303 446.592399 
L 297.669818 445.295857 
L 299.909333 444.02506 
L 302.148848 442.779496 
L 304.388364 441.558666 
L 306.627879 440.362078 
L 308.867394 439.189251 
L 311.106909 438.039713 
L 313.346424 436.913004 
L 315.585939 435.808669 
L 317.825455 434.726264 
L 320.06497 433.665355 
L 322.304485 432.625514 
L 324.544 431.606324 
L 326.783515 430.607375 
L 329.02303 429.628264 
L 331.262545 428.668599 
L 333.502061 427.727993 
L 335.741576 426.806068 
L 337.981091 425.902453 
L 340.220606 425.016785 
L 342.460121 424.148707 
L 344.699636 423.297871 
L 346.939152 422.463933 
L 349.178667 421.646559 
L 351.418182 420.84542 
L 353.657697 420.060193 
L 355.897212 419.290562 
L 358.136727 418.536219 
L 360.376242 417.796858 
L 362.615758 417.072184 
L 364.855273 416.361904 
L 367.094788 415.665732 
L 369.334303 414.983389 
L 371.573818 414.314599 
L 373.813333 413.659095 
L 376.052848 413.016611 
L 378.292364 412.386889 
L 380.531879 411.769676 
L 382.771394 411.164724 
L 385.010909 410.571789 
L 387.250424 409.990633 
L 389.489939 409.421021 
L 391.729455 408.862724 
L 393.96897 408.315518 
L 396.208485 407.779182 
L 398.448 407.253501 
L 400.687515 406.738263 
L 402.92703 406.23326 
L 405.166545 405.73829 
L 407.406061 405.253152 
L 409.645576 404.777652 
L 411.885091 404.311599 
L 414.124606 403.854804 
L 416.364121 403.407084 
L 418.603636 402.968259 
L 420.843152 402.538151 
L 423.082667 402.116589 
L 425.322182 401.703401 
L 427.561697 401.298422 
L 429.801212 400.901489 
L 432.040727 400.512442 
L 434.280242 400.131123 
L 436.519758 399.757381 
L 438.759273 399.391064 
L 440.998788 399.032025 
L 443.238303 398.680118 
L 445.477818 398.335204 
L 447.717333 397.997142 
L 449.956848 397.665796 
L 452.196364 397.341034 
L 454.435879 397.022724 
L 456.675394 396.710738 
L 458.914909 396.40495 
L 461.154424 396.105238 
L 463.393939 395.811481 
L 465.633455 395.52356 
L 467.87297 395.24136 
L 470.112485 394.964767 
L 472.352 394.693669 
" clip-path="url(#p4284db1ad5)" style="fill: none; stroke: #3091f2; stroke-width: 3; stroke-linecap: round"/>
   </g>
   <g id="text_1">
    <path d="M 481.25698 396.413674 
Q 480.74448 396.413674 480.285105 396.316799 
Q 479.827292 396.218362 479.428855 396.023049 
Q 479.030417 395.827737 478.683542 395.533987 
L 478.683542 395.533987 
L 479.303855 394.773049 
L 479.303855 394.773049 
Q 479.710105 395.124612 480.197605 395.301174 
Q 480.686667 395.476174 481.25698 395.476174 
Q 482.028855 395.476174 482.453855 395.190237 
Q 482.878855 394.904299 482.878855 394.382424 
L 482.878855 394.377737 
Q 482.878855 394.005862 482.685105 393.788674 
Q 482.492917 393.571487 482.186667 393.466799 
Q 481.88198 393.362112 481.399167 393.273049 
Q 481.383542 393.268362 481.366355 393.268362 
Q 481.35073 393.268362 481.335105 393.263674 
L 481.261667 393.249612 
Q 480.549167 393.127737 480.102292 392.974612 
Q 479.655417 392.819924 479.33823 392.412112 
Q 479.021042 392.004299 479.021042 391.252737 
L 479.021042 391.248049 
Q 479.021042 390.588674 479.316355 390.123049 
Q 479.611667 389.655862 480.177292 389.412112 
Q 480.74448 389.166799 481.539792 389.166799 
Q 481.921042 389.166799 482.289792 389.251174 
Q 482.658542 389.333987 483.016355 389.498049 
Q 483.37573 389.660549 483.722605 389.908987 
L 483.722605 389.908987 
L 483.15698 390.701174 
L 483.15698 390.701174 
Q 482.75073 390.402737 482.347605 390.254299 
Q 481.946042 390.104299 481.539792 390.104299 
Q 480.81323 390.104299 480.410105 390.394924 
Q 480.00698 390.685549 480.00698 391.218362 
L 480.00698 391.223049 
Q 480.00698 391.588674 480.214792 391.799612 
Q 480.422605 392.008987 480.73198 392.108987 
Q 481.042917 392.208987 481.59448 392.316799 
Q 481.61323 392.321487 481.630417 392.324612 
Q 481.647605 392.326174 481.667917 392.330862 
Q 481.691355 392.335549 481.721042 392.341799 
Q 481.75073 392.346487 481.774167 392.351174 
Q 482.41948 392.482424 482.85073 392.663674 
Q 483.283542 392.843362 483.574167 393.246487 
Q 483.864792 393.649612 483.864792 394.348049 
L 483.864792 394.357424 
Q 483.864792 395.007424 483.55698 395.468362 
Q 483.249167 395.929299 482.664792 396.171487 
Q 482.08198 396.413674 481.25698 396.413674 
z
M 485.954832 395.393362 
L 487.561082 395.393362 
Q 488.347019 395.393362 488.778269 394.985549 
Q 489.211082 394.577737 489.211082 393.835549 
L 489.211082 391.744924 
Q 489.211082 391.002737 488.778269 390.594924 
Q 488.347019 390.187112 487.561082 390.187112 
L 485.954832 390.187112 
L 485.954832 389.240237 
L 487.531394 389.240237 
Q 488.386082 389.240237 488.990769 389.538674 
Q 489.597019 389.835549 489.914207 390.407424 
Q 490.231394 390.979299 490.231394 391.783987 
L 490.231394 393.796487 
Q 490.231394 394.601174 489.914207 395.173049 
Q 489.597019 395.744924 488.989207 396.043362 
Q 488.381394 396.340237 487.526707 396.340237 
L 485.954832 396.340237 
L 485.954832 395.393362 
z
M 485.281394 389.240237 
L 486.276707 389.240237 
L 486.276707 396.340237 
L 485.281394 396.340237 
L 485.281394 389.240237 
z
M 493.776707 396.413674 
Q 493.132957 396.413674 492.643894 396.169924 
Q 492.156394 395.924612 491.889207 395.477737 
Q 491.623582 395.030862 491.623582 394.440237 
L 491.623582 394.323049 
Q 491.623582 393.791799 491.889207 393.323049 
Q 492.156394 392.854299 492.600144 392.615237 
Q 492.223582 392.408987 491.997019 392.021487 
Q 491.770457 391.632424 491.770457 391.202737 
L 491.770457 391.032424 
Q 491.770457 390.476174 492.018894 390.054299 
Q 492.267332 389.630862 492.722019 389.399612 
Q 493.176707 389.166799 493.776707 389.166799 
Q 494.376707 389.166799 494.831394 389.399612 
Q 495.286082 389.630862 495.534519 390.054299 
Q 495.782957 390.476174 495.782957 391.032424 
L 495.782957 391.202737 
Q 495.782957 391.643362 495.551707 392.029299 
Q 495.320457 392.413674 494.939207 392.615237 
Q 495.387644 392.858987 495.657957 393.326174 
Q 495.929832 393.791799 495.929832 394.323049 
L 495.929832 394.440237 
Q 495.929832 395.030862 495.664207 395.477737 
Q 495.398582 395.924612 494.909519 396.169924 
Q 494.422019 396.413674 493.776707 396.413674 
z
M 493.776707 395.455862 
Q 494.123582 395.455862 494.386082 395.319924 
Q 494.650144 395.182424 494.793894 394.937112 
Q 494.939207 394.690237 494.939207 394.366799 
L 494.939207 394.299612 
Q 494.939207 393.971487 494.793894 393.726174 
Q 494.650144 393.479299 494.386082 393.343362 
Q 494.123582 393.205862 493.776707 393.205862 
Q 493.429832 393.205862 493.165769 393.343362 
Q 492.903269 393.479299 492.757957 393.727737 
Q 492.614207 393.976174 492.614207 394.304299 
L 492.614207 394.377737 
Q 492.614207 394.699612 492.757957 394.943362 
Q 492.903269 395.187112 493.165769 395.321487 
Q 493.429832 395.455862 493.776707 395.455862 
z
M 493.776707 392.248049 
Q 494.075144 392.248049 494.303269 392.119924 
Q 494.532957 391.990237 494.659519 391.751174 
Q 494.787644 391.510549 494.787644 391.198049 
L 494.787644 391.130862 
Q 494.787644 390.832424 494.659519 390.602737 
Q 494.532957 390.373049 494.303269 390.249612 
Q 494.075144 390.124612 493.776707 390.124612 
Q 493.478269 390.124612 493.248582 390.249612 
Q 493.020457 390.373049 492.892332 390.602737 
Q 492.765769 390.832424 492.765769 391.135549 
L 492.765769 391.208987 
Q 492.765769 391.515237 492.892332 391.752737 
Q 493.020457 391.990237 493.248582 392.119924 
Q 493.478269 392.248049 493.776707 392.248049 
z
M 499.304832 396.413674 
Q 498.767332 396.413674 498.348582 396.204299 
Q 497.931394 395.993362 497.670457 395.593362 
Q 497.409519 395.193362 497.322019 394.630862 
L 497.322019 394.626174 
L 498.317332 394.626174 
L 498.317332 394.630862 
Q 498.372019 395.021487 498.629832 395.238674 
Q 498.889207 395.455862 499.304832 395.455862 
Q 499.782957 395.455862 500.043894 395.137112 
Q 500.304832 394.816799 500.304832 394.235549 
L 500.304832 393.640237 
Q 500.304832 393.063674 500.043894 392.744924 
Q 499.782957 392.424612 499.304832 392.424612 
Q 499.045457 392.424612 498.806394 392.571487 
Q 498.567332 392.716799 498.386082 392.980862 
L 497.478269 392.980862 
L 497.478269 389.240237 
L 501.095457 389.240237 
L 501.095457 390.187112 
L 498.473582 390.187112 
L 498.473582 391.783987 
Q 498.659519 391.632424 498.889207 391.549612 
Q 499.118894 391.466799 499.357957 391.466799 
Q 499.973582 391.466799 500.409519 391.721487 
Q 500.847019 391.974612 501.073582 392.463674 
Q 501.301707 392.951174 501.301707 393.640237 
L 501.301707 394.235549 
Q 501.301707 394.924612 501.067332 395.413674 
Q 500.832957 395.901174 500.382957 396.157424 
Q 499.934519 396.413674 499.304832 396.413674 
z
M 504.749167 396.413674 
Q 504.211667 396.413674 503.792917 396.204299 
Q 503.37573 395.993362 503.114792 395.593362 
Q 502.853855 395.193362 502.766355 394.630862 
L 502.766355 394.626174 
L 503.761667 394.626174 
L 503.761667 394.630862 
Q 503.816355 395.021487 504.074167 395.238674 
Q 504.333542 395.455862 504.749167 395.455862 
Q 505.227292 395.455862 505.48823 395.137112 
Q 505.749167 394.816799 505.749167 394.235549 
L 505.749167 393.640237 
Q 505.749167 393.063674 505.48823 392.744924 
Q 505.227292 392.424612 504.749167 392.424612 
Q 504.489792 392.424612 504.25073 392.571487 
Q 504.011667 392.716799 503.830417 392.980862 
L 502.922605 392.980862 
L 502.922605 389.240237 
L 506.539792 389.240237 
L 506.539792 390.187112 
L 503.917917 390.187112 
L 503.917917 391.783987 
Q 504.103855 391.632424 504.333542 391.549612 
Q 504.56323 391.466799 504.802292 391.466799 
Q 505.417917 391.466799 505.853855 391.721487 
Q 506.291355 391.974612 506.517917 392.463674 
Q 506.746042 392.951174 506.746042 393.640237 
L 506.746042 394.235549 
Q 506.746042 394.924612 506.511667 395.413674 
Q 506.277292 395.901174 505.827292 396.157424 
Q 505.378855 396.413674 504.749167 396.413674 
z
" style="fill: #ffffff; stroke: #000000"/>
    <path d="M 481.25698 396.413674 
Q 480.74448 396.413674 480.285105 396.316799 
Q 479.827292 396.218362 479.428855 396.023049 
Q 479.030417 395.827737 478.683542 395.533987 
L 478.683542 395.533987 
L 479.303855 394.773049 
L 479.303855 394.773049 
Q 479.710105 395.124612 480.197605 395.301174 
Q 480.686667 395.476174 481.25698 395.476174 
Q 482.028855 395.476174 482.453855 395.190237 
Q 482.878855 394.904299 482.878855 394.382424 
L 482.878855 394.377737 
Q 482.878855 394.005862 482.685105 393.788674 
Q 482.492917 393.571487 482.186667 393.466799 
Q 481.88198 393.362112 481.399167 393.273049 
Q 481.383542 393.268362 481.366355 393.268362 
Q 481.35073 393.268362 481.335105 393.263674 
L 481.261667 393.249612 
Q 480.549167 393.127737 480.102292 392.974612 
Q 479.655417 392.819924 479.33823 392.412112 
Q 479.021042 392.004299 479.021042 391.252737 
L 479.021042 391.248049 
Q 479.021042 390.588674 479.316355 390.123049 
Q 479.611667 389.655862 480.177292 389.412112 
Q 480.74448 389.166799 481.539792 389.166799 
Q 481.921042 389.166799 482.289792 389.251174 
Q 482.658542 389.333987 483.016355 389.498049 
Q 483.37573 389.660549 483.722605 389.908987 
L 483.722605 389.908987 
L 483.15698 390.701174 
L 483.15698 390.701174 
Q 482.75073 390.402737 482.347605 390.254299 
Q 481.946042 390.104299 481.539792 390.104299 
Q 480.81323 390.104299 480.410105 390.394924 
Q 480.00698 390.685549 480.00698 391.218362 
L 480.00698 391.223049 
Q 480.00698 391.588674 480.214792 391.799612 
Q 480.422605 392.008987 480.73198 392.108987 
Q 481.042917 392.208987 481.59448 392.316799 
Q 481.61323 392.321487 481.630417 392.324612 
Q 481.647605 392.326174 481.667917 392.330862 
Q 481.691355 392.335549 481.721042 392.341799 
Q 481.75073 392.346487 481.774167 392.351174 
Q 482.41948 392.482424 482.85073 392.663674 
Q 483.283542 392.843362 483.574167 393.246487 
Q 483.864792 393.649612 483.864792 394.348049 
L 483.864792 394.357424 
Q 483.864792 395.007424 483.55698 395.468362 
Q 483.249167 395.929299 482.664792 396.171487 
Q 482.08198 396.413674 481.25698 396.413674 
z
M 485.954832 395.393362 
L 487.561082 395.393362 
Q 488.347019 395.393362 488.778269 394.985549 
Q 489.211082 394.577737 489.211082 393.835549 
L 489.211082 391.744924 
Q 489.211082 391.002737 488.778269 390.594924 
Q 488.347019 390.187112 487.561082 390.187112 
L 485.954832 390.187112 
L 485.954832 389.240237 
L 487.531394 389.240237 
Q 488.386082 389.240237 488.990769 389.538674 
Q 489.597019 389.835549 489.914207 390.407424 
Q 490.231394 390.979299 490.231394 391.783987 
L 490.231394 393.796487 
Q 490.231394 394.601174 489.914207 395.173049 
Q 489.597019 395.744924 488.989207 396.043362 
Q 488.381394 396.340237 487.526707 396.340237 
L 485.954832 396.340237 
L 485.954832 395.393362 
z
M 485.281394 389.240237 
L 486.276707 389.240237 
L 486.276707 396.340237 
L 485.281394 396.340237 
L 485.281394 389.240237 
z
M 493.776707 396.413674 
Q 493.132957 396.413674 492.643894 396.169924 
Q 492.156394 395.924612 491.889207 395.477737 
Q 491.623582 395.030862 491.623582 394.440237 
L 491.623582 394.323049 
Q 491.623582 393.791799 491.889207 393.323049 
Q 492.156394 392.854299 492.600144 392.615237 
Q 492.223582 392.408987 491.997019 392.021487 
Q 491.770457 391.632424 491.770457 391.202737 
L 491.770457 391.032424 
Q 491.770457 390.476174 492.018894 390.054299 
Q 492.267332 389.630862 492.722019 389.399612 
Q 493.176707 389.166799 493.776707 389.166799 
Q 494.376707 389.166799 494.831394 389.399612 
Q 495.286082 389.630862 495.534519 390.054299 
Q 495.782957 390.476174 495.782957 391.032424 
L 495.782957 391.202737 
Q 495.782957 391.643362 495.551707 392.029299 
Q 495.320457 392.413674 494.939207 392.615237 
Q 495.387644 392.858987 495.657957 393.326174 
Q 495.929832 393.791799 495.929832 394.323049 
L 495.929832 394.440237 
Q 495.929832 395.030862 495.664207 395.477737 
Q 495.398582 395.924612 494.909519 396.169924 
Q 494.422019 396.413674 493.776707 396.413674 
z
M 493.776707 395.455862 
Q 494.123582 395.455862 494.386082 395.319924 
Q 494.650144 395.182424 494.793894 394.937112 
Q 494.939207 394.690237 494.939207 394.366799 
L 494.939207 394.299612 
Q 494.939207 393.971487 494.793894 393.726174 
Q 494.650144 393.479299 494.386082 393.343362 
Q 494.123582 393.205862 493.776707 393.205862 
Q 493.429832 393.205862 493.165769 393.343362 
Q 492.903269 393.479299 492.757957 393.727737 
Q 492.614207 393.976174 492.614207 394.304299 
L 492.614207 394.377737 
Q 492.614207 394.699612 492.757957 394.943362 
Q 492.903269 395.187112 493.165769 395.321487 
Q 493.429832 395.455862 493.776707 395.455862 
z
M 493.776707 392.248049 
Q 494.075144 392.248049 494.303269 392.119924 
Q 494.532957 391.990237 494.659519 391.751174 
Q 494.787644 391.510549 494.787644 391.198049 
L 494.787644 391.130862 
Q 494.787644 390.832424 494.659519 390.602737 
Q 494.532957 390.373049 494.303269 390.249612 
Q 494.075144 390.124612 493.776707 390.124612 
Q 493.478269 390.124612 493.248582 390.249612 
Q 493.020457 390.373049 492.892332 390.602737 
Q 492.765769 390.832424 492.765769 391.135549 
L 492.765769 391.208987 
Q 492.765769 391.515237 492.892332 391.752737 
Q 493.020457 391.990237 493.248582 392.119924 
Q 493.478269 392.248049 493.776707 392.248049 
z
M 499.304832 396.413674 
Q 498.767332 396.413674 498.348582 396.204299 
Q 497.931394 395.993362 497.670457 395.593362 
Q 497.409519 395.193362 497.322019 394.630862 
L 497.322019 394.626174 
L 498.317332 394.626174 
L 498.317332 394.630862 
Q 498.372019 395.021487 498.629832 395.238674 
Q 498.889207 395.455862 499.304832 395.455862 
Q 499.782957 395.455862 500.043894 395.137112 
Q 500.304832 394.816799 500.304832 394.235549 
L 500.304832 393.640237 
Q 500.304832 393.063674 500.043894 392.744924 
Q 499.782957 392.424612 499.304832 392.424612 
Q 499.045457 392.424612 498.806394 392.571487 
Q 498.567332 392.716799 498.386082 392.980862 
L 497.478269 392.980862 
L 497.478269 389.240237 
L 501.095457 389.240237 
L 501.095457 390.187112 
L 498.473582 390.187112 
L 498.473582 391.783987 
Q 498.659519 391.632424 498.889207 391.549612 
Q 499.118894 391.466799 499.357957 391.466799 
Q 499.973582 391.466799 500.409519 391.721487 
Q 500.847019 391.974612 501.073582 392.463674 
Q 501.301707 392.951174 501.301707 393.640237 
L 501.301707 394.235549 
Q 501.301707 394.924612 501.067332 395.413674 
Q 500.832957 395.901174 500.382957 396.157424 
Q 499.934519 396.413674 499.304832 396.413674 
z
M 504.749167 396.413674 
Q 504.211667 396.413674 503.792917 396.204299 
Q 503.37573 395.993362 503.114792 395.593362 
Q 502.853855 395.193362 502.766355 394.630862 
L 502.766355 394.626174 
L 503.761667 394.626174 
L 503.761667 394.630862 
Q 503.816355 395.021487 504.074167 395.238674 
Q 504.333542 395.455862 504.749167 395.455862 
Q 505.227292 395.455862 505.48823 395.137112 
Q 505.749167 394.816799 505.749167 394.235549 
L 505.749167 393.640237 
Q 505.749167 393.063674 505.48823 392.744924 
Q 505.227292 392.424612 504.749167 392.424612 
Q 504.489792 392.424612 504.25073 392.571487 
Q 504.011667 392.716799 503.830417 392.980862 
L 502.922605 392.980862 
L 502.922605 389.240237 
L 506.539792 389.240237 
L 506.539792 390.187112 
L 503.917917 390.187112 
L 503.917917 391.783987 
Q 504.103855 391.632424 504.333542 391.549612 
Q 504.56323 391.466799 504.802292 391.466799 
Q 505.417917 391.466799 505.853855 391.721487 
Q 506.291355 391.974612 506.517917 392.463674 
Q 506.746042 392.951174 506.746042 393.640237 
L 506.746042 394.235549 
Q 506.746042 394.924612 506.511667 395.413674 
Q 506.277292 395.901174 505.827292 396.157424 
Q 505.378855 396.413674 504.749167 396.413674 
z
" style="fill: #ffffff"/>
   </g>
  </g>
 </g>
 <defs>
  <clipPath id="p4284db1ad5">
   <rect x="144" y="77.76" width="892.8" height="498.96"/>
  </clipPath>
 </defs>
</svg>
