<?xml version="1.0" encoding="utf-8" standalone="no"?>
<!DOCTYPE svg PUBLIC "-//W3C//DTD SVG 1.1//EN"
  "http://www.w3.org/Graphics/SVG/1.1/DTD/svg11.dtd">
<svg xmlns:xlink="http://www.w3.org/1999/xlink" width="1152pt" height="648pt" viewBox="0 0 1152 648" xmlns="http://www.w3.org/2000/svg" version="1.1">
 <metadata>
  <rdf:RDF xmlns:dc="http://purl.org/dc/elements/1.1/" xmlns:cc="http://creativecommons.org/ns#" xmlns:rdf="http://www.w3.org/1999/02/22-rdf-syntax-ns#">
   <cc:Work>
    <dc:type rdf:resource="http://purl.org/dc/dcmitype/StillImage"/>
    <dc:date>2024-07-10T10:08:28.856064</dc:date>
    <dc:format>image/svg+xml</dc:format>
    <dc:creator>
     <cc:Agent>
      <dc:title>Matplotlib v3.9.1, https://matplotlib.org/</dc:title>
     </cc:Agent>
    </dc:creator>
   </cc:Work>
  </rdf:RDF>
 </metadata>
 <defs>
  <style type="text/css">*{stroke-linejoin: round; stroke-linecap: butt}</style>
 </defs>
 <g id="figure_1">
  <g id="patch_1">
   <path d="M 0 648 
L 1152 648 
L 1152 0 
L 0 0 
L 0 648 
z
" style="fill: none"/>
  </g>
  <g id="axes_1">
   <g id="line2d_1">
    <path d="M 233.28 447.809688 
L 241.015596 437.791443 
L 248.751192 428.056159 
L 256.486788 418.596983 
L 264.222384 409.407161 
L 271.95798 400.480038 
L 279.693576 391.809061 
L 287.429172 383.387786 
L 295.164768 375.209873 
L 302.900364 367.269093 
L 310.63596 359.559327 
L 318.371556 352.07457 
L 326.107152 344.808926 
L 333.842747 337.756616 
L 341.578343 330.911973 
L 349.313939 324.269444 
L 357.049535 317.823591 
L 364.785131 311.56909 
L 372.520727 305.500729 
L 380.256323 299.613412 
L 387.991919 293.902152 
L 395.727515 288.362077 
L 403.463111 282.988424 
L 411.198707 277.776541 
L 418.934303 272.721882 
L 426.669899 267.820012 
L 434.405495 263.066602 
L 442.141091 258.457424 
L 449.876687 253.988359 
L 457.612283 249.655387 
L 465.347879 245.454587 
L 473.083475 241.382141 
L 480.819071 237.434326 
L 488.554667 233.607514 
L 496.290263 229.898171 
L 504.025859 226.302858 
L 511.761455 222.818224 
L 519.497051 219.441007 
L 527.232646 216.168033 
L 534.968242 212.996212 
L 542.703838 209.92254 
L 550.439434 206.944091 
L 558.17503 204.058024 
L 565.910626 201.261571 
L 573.646222 198.552045 
L 581.381818 195.92683 
L 589.117414 193.383387 
L 596.85301 190.919246 
L 604.588606 188.532007 
L 612.324202 186.219338 
L 620.059798 183.978974 
L 627.795394 181.808715 
L 635.53099 179.706424 
L 643.266586 177.670024 
L 651.002182 175.6975 
L 658.737778 173.786896 
L 666.473374 171.936311 
L 674.20897 170.143901 
L 681.944566 168.407876 
L 689.680162 166.726497 
L 697.415758 165.09808 
L 705.151354 163.520987 
L 712.886949 161.99363 
L 720.622545 160.514469 
L 728.358141 159.08201 
L 736.093737 157.694802 
L 743.829333 156.351439 
L 751.564929 155.050557 
L 759.300525 153.790832 
L 767.036121 152.570982 
L 774.771717 151.389763 
L 782.507313 150.245967 
L 790.242909 149.138424 
L 797.978505 148.066001 
L 805.714101 147.027598 
L 813.449697 146.022147 
L 821.185293 145.048616 
L 828.920889 144.106003 
L 836.656485 143.193336 
L 844.392081 142.309673 
L 852.127677 141.454104 
L 859.863273 140.625742 
L 867.598869 139.823732 
L 875.334465 139.047242 
L 883.070061 138.295468 
L 890.805657 137.56763 
L 898.541253 136.862972 
L 906.276848 136.180761 
L 914.012444 135.520289 
L 921.74804 134.880867 
L 929.483636 134.261831 
L 937.219232 133.662533 
L 944.954828 133.08235 
L 952.690424 132.520676 
L 960.42602 131.976924 
L 968.161616 131.450526 
L 975.897212 130.94093 
L 983.632808 130.447605 
L 991.368404 129.970033 
L 999.104 129.507714 
" clip-path="url(#pc2a0cc9761)" style="fill: none; stroke: #f28d79; stroke-width: 3; stroke-linecap: round"/>
   </g>
   <g id="text_1">
    <path d="M 1006.549605 130.207407 
L 1008.155855 130.207407 
Q 1008.941792 130.207407 1009.373042 129.799595 
Q 1009.805855 129.391782 1009.805855 128.649595 
L 1009.805855 126.55897 
Q 1009.805855 125.816782 1009.373042 125.40897 
Q 1008.941792 125.001157 1008.155855 125.001157 
L 1006.549605 125.001157 
L 1006.549605 124.054282 
L 1008.126167 124.054282 
Q 1008.980855 124.054282 1009.585542 124.35272 
Q 1010.191792 124.649595 1010.50898 125.22147 
Q 1010.826167 125.793345 1010.826167 126.598032 
L 1010.826167 128.610532 
Q 1010.826167 129.41522 1010.50898 129.987095 
Q 1010.191792 130.55897 1009.58398 130.857407 
Q 1008.976167 131.154282 1008.12148 131.154282 
L 1006.549605 131.154282 
L 1006.549605 130.207407 
z
M 1005.876167 124.054282 
L 1006.87148 124.054282 
L 1006.87148 131.154282 
L 1005.876167 131.154282 
L 1005.876167 124.054282 
z
M 1014.805855 127.629282 
L 1014.801167 127.804282 
Q 1014.679292 128.029282 1014.432417 128.13397 
Q 1014.185542 128.238657 1013.849605 128.238657 
Q 1013.341792 128.238657 1012.955855 127.980845 
Q 1012.569917 127.72147 1012.357417 127.251157 
Q 1012.144917 126.779282 1012.144917 126.15897 
L 1012.144917 126.154282 
Q 1012.144917 125.46522 1012.376167 124.97772 
Q 1012.60898 124.488657 1013.055855 124.235532 
Q 1013.50273 123.980845 1014.12773 123.980845 
Q 1014.75273 123.980845 1015.19648 124.24022 
Q 1015.641792 124.499595 1015.873042 124.993345 
Q 1016.104292 125.485532 1016.104292 126.179282 
L 1016.104292 126.18397 
Q 1016.104292 126.563657 1016.005855 126.99647 
Q 1015.90898 127.429282 1015.729292 127.85272 
Q 1015.699605 127.916782 1015.669917 127.982407 
Q 1015.641792 128.048032 1015.607417 128.112095 
L 1014.093355 131.154282 
L 1013.018355 131.154282 
L 1014.805855 127.629282 
z
M 1014.12773 127.330845 
Q 1014.59648 127.330845 1014.85273 127.013657 
Q 1015.10898 126.69647 1015.10898 126.119907 
L 1015.10898 126.11522 
Q 1015.10898 125.554282 1014.85273 125.24647 
Q 1014.59648 124.938657 1014.12773 124.938657 
Q 1013.654292 124.938657 1013.398042 125.24647 
Q 1013.141792 125.554282 1013.141792 126.119907 
L 1013.141792 126.124595 
Q 1013.141792 126.701157 1013.398042 127.016782 
Q 1013.654292 127.330845 1014.12773 127.330845 
z
M 1019.259566 131.22772 
Q 1018.664253 131.22772 1018.209566 131.010532 
Q 1017.754878 130.793345 1017.478316 130.380845 
Q 1017.203316 129.968345 1017.129878 129.387095 
L 1017.129878 129.387095 
L 1018.145503 129.387095 
L 1018.145503 129.387095 
Q 1018.189253 129.688657 1018.336128 129.88397 
Q 1018.483003 130.079282 1018.714253 130.174595 
Q 1018.947066 130.269907 1019.259566 130.269907 
Q 1019.751753 130.269907 1020.025191 130.007407 
Q 1020.298628 129.743345 1020.298628 129.26522 
L 1020.298628 129.049595 
Q 1020.298628 128.516782 1020.039253 128.22772 
Q 1019.781441 127.937095 1019.308003 127.937095 
L 1018.804878 127.937095 
L 1018.804878 126.988657 
L 1019.308003 126.988657 
Q 1019.723628 126.988657 1019.951753 126.74022 
Q 1020.181441 126.491782 1020.181441 126.037095 
L 1020.181441 125.816782 
Q 1020.181441 125.398032 1019.939253 125.168345 
Q 1019.698628 124.938657 1019.254878 124.938657 
Q 1019.000191 124.938657 1018.800191 125.03397 
Q 1018.600191 125.129282 1018.461128 125.32772 
Q 1018.322066 125.524595 1018.258003 125.82147 
L 1018.258003 125.82147 
L 1017.247066 125.82147 
L 1017.247066 125.82147 
Q 1017.345503 125.241782 1017.615816 124.826157 
Q 1017.887691 124.410532 1018.301753 124.19647 
Q 1018.717378 123.980845 1019.254878 123.980845 
Q 1020.172066 123.980845 1020.675191 124.46522 
Q 1021.178316 124.948032 1021.178316 125.82772 
L 1021.178316 125.944907 
Q 1021.178316 126.476157 1020.889253 126.87147 
Q 1020.601753 127.266782 1020.075191 127.448032 
Q 1020.656441 127.574595 1020.975191 128.019907 
Q 1021.295503 128.463657 1021.295503 129.15272 
L 1021.295503 129.269907 
Q 1021.295503 129.89022 1021.056441 130.329282 
Q 1020.817378 130.768345 1020.359566 130.998032 
Q 1019.903316 131.22772 1019.259566 131.22772 
z
M 1024.738277 131.22772 
Q 1023.741402 131.22772 1023.225777 130.69647 
Q 1022.711714 130.163657 1022.711714 129.210532 
L 1022.711714 125.98397 
Q 1022.711714 125.026157 1023.228902 124.49647 
Q 1023.746089 123.966782 1024.738277 123.966782 
Q 1025.733589 123.966782 1026.249214 124.494907 
Q 1026.764839 125.02147 1026.764839 125.98397 
L 1026.764839 129.210532 
Q 1026.764839 130.168345 1026.246089 130.698032 
Q 1025.728902 131.22772 1024.738277 131.22772 
z
M 1024.738277 130.280845 
Q 1025.264839 130.280845 1025.516402 130.004282 
Q 1025.767964 129.72772 1025.767964 129.210532 
L 1025.767964 125.98397 
Q 1025.767964 125.46522 1025.517964 125.19022 
Q 1025.269527 124.913657 1024.738277 124.913657 
Q 1024.205464 124.913657 1023.955464 125.19022 
Q 1023.707027 125.46522 1023.707027 125.98397 
L 1023.707027 129.210532 
Q 1023.707027 129.72772 1023.958589 130.004282 
Q 1024.210152 130.280845 1024.738277 130.280845 
z
M 1030.255855 131.22772 
Q 1029.25898 131.22772 1028.743355 130.69647 
Q 1028.229292 130.163657 1028.229292 129.210532 
L 1028.229292 125.98397 
Q 1028.229292 125.026157 1028.74648 124.49647 
Q 1029.263667 123.966782 1030.255855 123.966782 
Q 1031.251167 123.966782 1031.766792 124.494907 
Q 1032.282417 125.02147 1032.282417 125.98397 
L 1032.282417 129.210532 
Q 1032.282417 130.168345 1031.763667 130.698032 
Q 1031.24648 131.22772 1030.255855 131.22772 
z
M 1030.255855 130.280845 
Q 1030.782417 130.280845 1031.03398 130.004282 
Q 1031.285542 129.72772 1031.285542 129.210532 
L 1031.285542 125.98397 
Q 1031.285542 125.46522 1031.035542 125.19022 
Q 1030.787105 124.913657 1030.255855 124.913657 
Q 1029.723042 124.913657 1029.473042 125.19022 
Q 1029.224605 125.46522 1029.224605 125.98397 
L 1029.224605 129.210532 
Q 1029.224605 129.72772 1029.476167 130.004282 
Q 1029.72773 130.280845 1030.255855 130.280845 
z
M 1037.662496 127.40897 
L 1037.662496 128.355845 
L 1033.698433 128.355845 
L 1033.698433 127.40897 
L 1037.662496 127.40897 
z
M 1036.178121 129.86522 
L 1035.182808 129.86522 
L 1035.182808 125.899595 
L 1036.178121 125.899595 
L 1036.178121 129.86522 
z
" style="fill: #ffffff; stroke: #000000"/>
    <path d="M 1006.549605 130.207407 
L 1008.155855 130.207407 
Q 1008.941792 130.207407 1009.373042 129.799595 
Q 1009.805855 129.391782 1009.805855 128.649595 
L 1009.805855 126.55897 
Q 1009.805855 125.816782 1009.373042 125.40897 
Q 1008.941792 125.001157 1008.155855 125.001157 
L 1006.549605 125.001157 
L 1006.549605 124.054282 
L 1008.126167 124.054282 
Q 1008.980855 124.054282 1009.585542 124.35272 
Q 1010.191792 124.649595 1010.50898 125.22147 
Q 1010.826167 125.793345 1010.826167 126.598032 
L 1010.826167 128.610532 
Q 1010.826167 129.41522 1010.50898 129.987095 
Q 1010.191792 130.55897 1009.58398 130.857407 
Q 1008.976167 131.154282 1008.12148 131.154282 
L 1006.549605 131.154282 
L 1006.549605 130.207407 
z
M 1005.876167 124.054282 
L 1006.87148 124.054282 
L 1006.87148 131.154282 
L 1005.876167 131.154282 
L 1005.876167 124.054282 
z
M 1014.805855 127.629282 
L 1014.801167 127.804282 
Q 1014.679292 128.029282 1014.432417 128.13397 
Q 1014.185542 128.238657 1013.849605 128.238657 
Q 1013.341792 128.238657 1012.955855 127.980845 
Q 1012.569917 127.72147 1012.357417 127.251157 
Q 1012.144917 126.779282 1012.144917 126.15897 
L 1012.144917 126.154282 
Q 1012.144917 125.46522 1012.376167 124.97772 
Q 1012.60898 124.488657 1013.055855 124.235532 
Q 1013.50273 123.980845 1014.12773 123.980845 
Q 1014.75273 123.980845 1015.19648 124.24022 
Q 1015.641792 124.499595 1015.873042 124.993345 
Q 1016.104292 125.485532 1016.104292 126.179282 
L 1016.104292 126.18397 
Q 1016.104292 126.563657 1016.005855 126.99647 
Q 1015.90898 127.429282 1015.729292 127.85272 
Q 1015.699605 127.916782 1015.669917 127.982407 
Q 1015.641792 128.048032 1015.607417 128.112095 
L 1014.093355 131.154282 
L 1013.018355 131.154282 
L 1014.805855 127.629282 
z
M 1014.12773 127.330845 
Q 1014.59648 127.330845 1014.85273 127.013657 
Q 1015.10898 126.69647 1015.10898 126.119907 
L 1015.10898 126.11522 
Q 1015.10898 125.554282 1014.85273 125.24647 
Q 1014.59648 124.938657 1014.12773 124.938657 
Q 1013.654292 124.938657 1013.398042 125.24647 
Q 1013.141792 125.554282 1013.141792 126.119907 
L 1013.141792 126.124595 
Q 1013.141792 126.701157 1013.398042 127.016782 
Q 1013.654292 127.330845 1014.12773 127.330845 
z
M 1019.259566 131.22772 
Q 1018.664253 131.22772 1018.209566 131.010532 
Q 1017.754878 130.793345 1017.478316 130.380845 
Q 1017.203316 129.968345 1017.129878 129.387095 
L 1017.129878 129.387095 
L 1018.145503 129.387095 
L 1018.145503 129.387095 
Q 1018.189253 129.688657 1018.336128 129.88397 
Q 1018.483003 130.079282 1018.714253 130.174595 
Q 1018.947066 130.269907 1019.259566 130.269907 
Q 1019.751753 130.269907 1020.025191 130.007407 
Q 1020.298628 129.743345 1020.298628 129.26522 
L 1020.298628 129.049595 
Q 1020.298628 128.516782 1020.039253 128.22772 
Q 1019.781441 127.937095 1019.308003 127.937095 
L 1018.804878 127.937095 
L 1018.804878 126.988657 
L 1019.308003 126.988657 
Q 1019.723628 126.988657 1019.951753 126.74022 
Q 1020.181441 126.491782 1020.181441 126.037095 
L 1020.181441 125.816782 
Q 1020.181441 125.398032 1019.939253 125.168345 
Q 1019.698628 124.938657 1019.254878 124.938657 
Q 1019.000191 124.938657 1018.800191 125.03397 
Q 1018.600191 125.129282 1018.461128 125.32772 
Q 1018.322066 125.524595 1018.258003 125.82147 
L 1018.258003 125.82147 
L 1017.247066 125.82147 
L 1017.247066 125.82147 
Q 1017.345503 125.241782 1017.615816 124.826157 
Q 1017.887691 124.410532 1018.301753 124.19647 
Q 1018.717378 123.980845 1019.254878 123.980845 
Q 1020.172066 123.980845 1020.675191 124.46522 
Q 1021.178316 124.948032 1021.178316 125.82772 
L 1021.178316 125.944907 
Q 1021.178316 126.476157 1020.889253 126.87147 
Q 1020.601753 127.266782 1020.075191 127.448032 
Q 1020.656441 127.574595 1020.975191 128.019907 
Q 1021.295503 128.463657 1021.295503 129.15272 
L 1021.295503 129.269907 
Q 1021.295503 129.89022 1021.056441 130.329282 
Q 1020.817378 130.768345 1020.359566 130.998032 
Q 1019.903316 131.22772 1019.259566 131.22772 
z
M 1024.738277 131.22772 
Q 1023.741402 131.22772 1023.225777 130.69647 
Q 1022.711714 130.163657 1022.711714 129.210532 
L 1022.711714 125.98397 
Q 1022.711714 125.026157 1023.228902 124.49647 
Q 1023.746089 123.966782 1024.738277 123.966782 
Q 1025.733589 123.966782 1026.249214 124.494907 
Q 1026.764839 125.02147 1026.764839 125.98397 
L 1026.764839 129.210532 
Q 1026.764839 130.168345 1026.246089 130.698032 
Q 1025.728902 131.22772 1024.738277 131.22772 
z
M 1024.738277 130.280845 
Q 1025.264839 130.280845 1025.516402 130.004282 
Q 1025.767964 129.72772 1025.767964 129.210532 
L 1025.767964 125.98397 
Q 1025.767964 125.46522 1025.517964 125.19022 
Q 1025.269527 124.913657 1024.738277 124.913657 
Q 1024.205464 124.913657 1023.955464 125.19022 
Q 1023.707027 125.46522 1023.707027 125.98397 
L 1023.707027 129.210532 
Q 1023.707027 129.72772 1023.958589 130.004282 
Q 1024.210152 130.280845 1024.738277 130.280845 
z
M 1030.255855 131.22772 
Q 1029.25898 131.22772 1028.743355 130.69647 
Q 1028.229292 130.163657 1028.229292 129.210532 
L 1028.229292 125.98397 
Q 1028.229292 125.026157 1028.74648 124.49647 
Q 1029.263667 123.966782 1030.255855 123.966782 
Q 1031.251167 123.966782 1031.766792 124.494907 
Q 1032.282417 125.02147 1032.282417 125.98397 
L 1032.282417 129.210532 
Q 1032.282417 130.168345 1031.763667 130.698032 
Q 1031.24648 131.22772 1030.255855 131.22772 
z
M 1030.255855 130.280845 
Q 1030.782417 130.280845 1031.03398 130.004282 
Q 1031.285542 129.72772 1031.285542 129.210532 
L 1031.285542 125.98397 
Q 1031.285542 125.46522 1031.035542 125.19022 
Q 1030.787105 124.913657 1030.255855 124.913657 
Q 1029.723042 124.913657 1029.473042 125.19022 
Q 1029.224605 125.46522 1029.224605 125.98397 
L 1029.224605 129.210532 
Q 1029.224605 129.72772 1029.476167 130.004282 
Q 1029.72773 130.280845 1030.255855 130.280845 
z
M 1037.662496 127.40897 
L 1037.662496 128.355845 
L 1033.698433 128.355845 
L 1033.698433 127.40897 
L 1037.662496 127.40897 
z
M 1036.178121 129.86522 
L 1035.182808 129.86522 
L 1035.182808 125.899595 
L 1036.178121 125.899595 
L 1036.178121 129.86522 
z
" style="fill: #ffffff"/>
   </g>
  </g>
 </g>
 <defs>
  <clipPath id="pc2a0cc9761">
   <rect x="144" y="77.76" width="892.8" height="498.96"/>
  </clipPath>
 </defs>
</svg>
