<?xml version="1.0" encoding="utf-8" standalone="no"?>
<!DOCTYPE svg PUBLIC "-//W3C//DTD SVG 1.1//EN"
  "http://www.w3.org/Graphics/SVG/1.1/DTD/svg11.dtd">
<svg xmlns:xlink="http://www.w3.org/1999/xlink" width="1152pt" height="648pt" viewBox="0 0 1152 648" xmlns="http://www.w3.org/2000/svg" version="1.1">
 <metadata>
  <rdf:RDF xmlns:dc="http://purl.org/dc/elements/1.1/" xmlns:cc="http://creativecommons.org/ns#" xmlns:rdf="http://www.w3.org/1999/02/22-rdf-syntax-ns#">
   <cc:Work>
    <dc:type rdf:resource="http://purl.org/dc/dcmitype/StillImage"/>
    <dc:date>2024-03-14T14:55:08.122993</dc:date>
    <dc:format>image/svg+xml</dc:format>
    <dc:creator>
     <cc:Agent>
      <dc:title>Matplotlib v3.8.3, https://matplotlib.org/</dc:title>
     </cc:Agent>
    </dc:creator>
   </cc:Work>
  </rdf:RDF>
 </metadata>
 <defs>
  <style type="text/css">*{stroke-linejoin: round; stroke-linecap: butt}</style>
 </defs>
 <g id="figure_1">
  <g id="patch_1">
   <path d="M 0 648 
L 1152 648 
L 1152 0 
L 0 0 
L 0 648 
z
" style="fill: none"/>
  </g>
  <g id="axes_1">
   <g id="line2d_1">
    <path d="M 217.408 490.753437 
L 218.069333 490.168851 
L 218.730667 489.587257 
L 219.392 489.008642 
L 220.053333 488.432989 
L 220.714667 487.860284 
L 221.376 487.290512 
L 222.037333 486.723658 
L 222.698667 486.159706 
L 223.36 485.598643 
L 224.021333 485.040454 
L 224.682667 484.485123 
L 225.344 483.932637 
L 226.005333 483.38298 
L 226.666667 482.836139 
L 227.328 482.292099 
L 227.989333 481.750846 
L 228.650667 481.212366 
L 229.312 480.676645 
L 229.973333 480.143668 
L 230.634667 479.613421 
L 231.296 479.085891 
L 231.957333 478.561065 
L 232.618667 478.038927 
L 233.28 477.519464 
L 233.941333 477.002664 
L 234.602667 476.488511 
L 235.264 475.976994 
L 235.925333 475.468097 
L 236.586667 474.961809 
L 237.248 474.458115 
L 237.909333 473.957003 
L 238.570667 473.458459 
L 239.232 472.96247 
L 239.893333 472.469024 
L 240.554667 471.978106 
L 241.216 471.489705 
L 241.877333 471.003808 
L 242.538667 470.520401 
L 243.2 470.039473 
L 243.861333 469.561009 
L 244.522667 469.084999 
L 245.184 468.611429 
L 245.845333 468.140287 
L 246.506667 467.671561 
L 247.168 467.205238 
L 247.829333 466.741306 
L 248.490667 466.279752 
L 249.152 465.820565 
L 249.813333 465.363733 
L 250.474667 464.909244 
L 251.136 464.457085 
L 251.797333 464.007245 
L 252.458667 463.559711 
L 253.12 463.114473 
L 253.781333 462.671519 
L 254.442667 462.230836 
L 255.104 461.792413 
L 255.765333 461.356239 
L 256.426667 460.922302 
L 257.088 460.490591 
L 257.749333 460.061095 
L 258.410667 459.633801 
L 259.072 459.2087 
L 259.733333 458.785779 
L 260.394667 458.365027 
L 261.056 457.946435 
L 261.717333 457.529989 
L 262.378667 457.11568 
L 263.04 456.703497 
L 263.701333 456.293428 
L 264.362667 455.885464 
L 265.024 455.479592 
L 265.685333 455.075803 
L 266.346667 454.674086 
L 267.008 454.274431 
L 267.669333 453.876826 
L 268.330667 453.481261 
L 268.992 453.087726 
L 269.653333 452.696211 
L 270.314667 452.306705 
L 270.976 451.919198 
L 271.637333 451.533679 
L 272.298667 451.15014 
L 272.96 450.768568 
L 273.621333 450.388955 
L 274.282667 450.011291 
L 274.944 449.635564 
L 275.605333 449.261767 
L 276.266667 448.889888 
L 276.928 448.519917 
L 277.589333 448.151846 
L 278.250667 447.785665 
L 278.912 447.421363 
L 279.573333 447.058931 
L 280.234667 446.69836 
L 280.896 446.33964 
L 281.557333 445.982761 
L 282.218667 445.627715 
L 282.88 445.274492 
" clip-path="url(#pb1ea6b0e58)" style="fill: none; stroke: #8d79f2; stroke-width: 3; stroke-linecap: round"/>
   </g>
   <g id="text_1">
    <path d="M 291.78498 446.994497 
Q 291.27248 446.994497 290.813105 446.897622 
Q 290.355292 446.799185 289.956855 446.603872 
Q 289.558417 446.40856 289.211542 446.11481 
L 289.211542 446.11481 
L 289.831855 445.353872 
L 289.831855 445.353872 
Q 290.238105 445.705435 290.725605 445.881997 
Q 291.214667 446.056997 291.78498 446.056997 
Q 292.556855 446.056997 292.981855 445.77106 
Q 293.406855 445.485122 293.406855 444.963247 
L 293.406855 444.95856 
Q 293.406855 444.586685 293.213105 444.369497 
Q 293.020917 444.15231 292.714667 444.047622 
Q 292.40998 443.942935 291.927167 443.853872 
Q 291.911542 443.849185 291.894355 443.849185 
Q 291.87873 443.849185 291.863105 443.844497 
L 291.789667 443.830435 
Q 291.077167 443.70856 290.630292 443.555435 
Q 290.183417 443.400747 289.86623 442.992935 
Q 289.549042 442.585122 289.549042 441.83356 
L 289.549042 441.828872 
Q 289.549042 441.169497 289.844355 440.703872 
Q 290.139667 440.236685 290.705292 439.992935 
Q 291.27248 439.747622 292.067792 439.747622 
Q 292.449042 439.747622 292.817792 439.831997 
Q 293.186542 439.91481 293.544355 440.078872 
Q 293.90373 440.241372 294.250605 440.48981 
L 294.250605 440.48981 
L 293.68498 441.281997 
L 293.68498 441.281997 
Q 293.27873 440.98356 292.875605 440.835122 
Q 292.474042 440.685122 292.067792 440.685122 
Q 291.34123 440.685122 290.938105 440.975747 
Q 290.53498 441.266372 290.53498 441.799185 
L 290.53498 441.803872 
Q 290.53498 442.169497 290.742792 442.380435 
Q 290.950605 442.58981 291.25998 442.68981 
Q 291.570917 442.78981 292.12248 442.897622 
Q 292.14123 442.90231 292.158417 442.905435 
Q 292.175605 442.906997 292.195917 442.911685 
Q 292.219355 442.916372 292.249042 442.922622 
Q 292.27873 442.92731 292.302167 442.931997 
Q 292.94748 443.063247 293.37873 443.244497 
Q 293.811542 443.424185 294.102167 443.82731 
Q 294.392792 444.230435 294.392792 444.928872 
L 294.392792 444.938247 
Q 294.392792 445.588247 294.08498 446.049185 
Q 293.777167 446.510122 293.192792 446.75231 
Q 292.60998 446.994497 291.78498 446.994497 
z
M 296.482832 445.974185 
L 298.089082 445.974185 
Q 298.875019 445.974185 299.306269 445.566372 
Q 299.739082 445.15856 299.739082 444.416372 
L 299.739082 442.325747 
Q 299.739082 441.58356 299.306269 441.175747 
Q 298.875019 440.767935 298.089082 440.767935 
L 296.482832 440.767935 
L 296.482832 439.82106 
L 298.059394 439.82106 
Q 298.914082 439.82106 299.518769 440.119497 
Q 300.125019 440.416372 300.442207 440.988247 
Q 300.759394 441.560122 300.759394 442.36481 
L 300.759394 444.37731 
Q 300.759394 445.181997 300.442207 445.753872 
Q 300.125019 446.325747 299.517207 446.624185 
Q 298.909394 446.92106 298.054707 446.92106 
L 296.482832 446.92106 
L 296.482832 445.974185 
z
M 295.809394 439.82106 
L 296.804707 439.82106 
L 296.804707 446.92106 
L 295.809394 446.92106 
L 295.809394 439.82106 
z
M 304.056269 446.994497 
Q 303.431269 446.994497 302.985957 446.742935 
Q 302.542207 446.491372 302.309394 446.010122 
Q 302.078144 445.528872 302.078144 444.850747 
L 302.078144 444.84606 
Q 302.078144 444.450747 302.170332 444.016372 
Q 302.264082 443.580435 302.439082 443.161685 
Q 302.468769 443.088247 302.503144 443.017935 
Q 302.537519 442.94606 302.571894 442.87731 
L 304.114082 439.82106 
L 305.189082 439.82106 
L 303.376582 443.361685 
L 303.381269 443.185122 
Q 303.504707 442.955435 303.739082 442.828872 
Q 303.973457 442.70231 304.285957 442.70231 
Q 304.837519 442.70231 305.232832 442.95231 
Q 305.628144 443.200747 305.832832 443.67731 
Q 306.037519 444.15231 306.037519 444.82106 
L 306.037519 444.825747 
Q 306.037519 445.510122 305.806269 445.999185 
Q 305.575019 446.486685 305.128144 446.741372 
Q 304.681269 446.994497 304.056269 446.994497 
z
M 304.056269 446.036685 
Q 304.529707 446.036685 304.785957 445.744497 
Q 305.042207 445.450747 305.042207 444.90856 
L 305.042207 444.903872 
Q 305.042207 444.30856 304.773457 443.98356 
Q 304.504707 443.65856 304.006269 443.65856 
Q 303.562519 443.65856 303.318769 443.986685 
Q 303.075019 444.313247 303.075019 444.90856 
L 303.075019 444.91481 
Q 303.075019 445.455435 303.331269 445.74606 
Q 303.587519 446.036685 304.056269 446.036685 
z
M 309.870917 443.39606 
L 309.86623 443.57106 
Q 309.744355 443.79606 309.49748 443.900747 
Q 309.250605 444.005435 308.914667 444.005435 
Q 308.406855 444.005435 308.020917 443.747622 
Q 307.63498 443.488247 307.42248 443.017935 
Q 307.20998 442.54606 307.20998 441.925747 
L 307.20998 441.92106 
Q 307.20998 441.231997 307.44123 440.744497 
Q 307.674042 440.255435 308.120917 440.00231 
Q 308.567792 439.747622 309.192792 439.747622 
Q 309.817792 439.747622 310.261542 440.006997 
Q 310.706855 440.266372 310.938105 440.760122 
Q 311.169355 441.25231 311.169355 441.94606 
L 311.169355 441.950747 
Q 311.169355 442.330435 311.070917 442.763247 
Q 310.974042 443.19606 310.794355 443.619497 
Q 310.764667 443.68356 310.73498 443.749185 
Q 310.706855 443.81481 310.67248 443.878872 
L 309.158417 446.92106 
L 308.083417 446.92106 
L 309.870917 443.39606 
z
M 309.192792 443.097622 
Q 309.661542 443.097622 309.917792 442.780435 
Q 310.174042 442.463247 310.174042 441.886685 
L 310.174042 441.881997 
Q 310.174042 441.32106 309.917792 441.013247 
Q 309.661542 440.705435 309.192792 440.705435 
Q 308.719355 440.705435 308.463105 441.013247 
Q 308.206855 441.32106 308.206855 441.886685 
L 308.206855 441.891372 
Q 308.206855 442.467935 308.463105 442.78356 
Q 308.719355 443.097622 309.192792 443.097622 
z
M 314.471503 446.994497 
Q 313.934003 446.994497 313.515253 446.785122 
Q 313.098066 446.574185 312.837128 446.174185 
Q 312.576191 445.774185 312.488691 445.211685 
L 312.488691 445.206997 
L 313.484003 445.206997 
L 313.484003 445.211685 
Q 313.538691 445.60231 313.796503 445.819497 
Q 314.055878 446.036685 314.471503 446.036685 
Q 314.949628 446.036685 315.210566 445.717935 
Q 315.471503 445.397622 315.471503 444.816372 
L 315.471503 444.22106 
Q 315.471503 443.644497 315.210566 443.325747 
Q 314.949628 443.005435 314.471503 443.005435 
Q 314.212128 443.005435 313.973066 443.15231 
Q 313.734003 443.297622 313.552753 443.561685 
L 312.644941 443.561685 
L 312.644941 439.82106 
L 316.262128 439.82106 
L 316.262128 440.767935 
L 313.640253 440.767935 
L 313.640253 442.36481 
Q 313.826191 442.213247 314.055878 442.130435 
Q 314.285566 442.047622 314.524628 442.047622 
Q 315.140253 442.047622 315.576191 442.30231 
Q 316.013691 442.555435 316.240253 443.044497 
Q 316.468378 443.531997 316.468378 444.22106 
L 316.468378 444.816372 
Q 316.468378 445.505435 316.234003 445.994497 
Q 315.999628 446.481997 315.549628 446.738247 
Q 315.101191 446.994497 314.471503 446.994497 
z
" style="fill: #ffffff; stroke: #000000"/>
    <path d="M 291.78498 446.994497 
Q 291.27248 446.994497 290.813105 446.897622 
Q 290.355292 446.799185 289.956855 446.603872 
Q 289.558417 446.40856 289.211542 446.11481 
L 289.211542 446.11481 
L 289.831855 445.353872 
L 289.831855 445.353872 
Q 290.238105 445.705435 290.725605 445.881997 
Q 291.214667 446.056997 291.78498 446.056997 
Q 292.556855 446.056997 292.981855 445.77106 
Q 293.406855 445.485122 293.406855 444.963247 
L 293.406855 444.95856 
Q 293.406855 444.586685 293.213105 444.369497 
Q 293.020917 444.15231 292.714667 444.047622 
Q 292.40998 443.942935 291.927167 443.853872 
Q 291.911542 443.849185 291.894355 443.849185 
Q 291.87873 443.849185 291.863105 443.844497 
L 291.789667 443.830435 
Q 291.077167 443.70856 290.630292 443.555435 
Q 290.183417 443.400747 289.86623 442.992935 
Q 289.549042 442.585122 289.549042 441.83356 
L 289.549042 441.828872 
Q 289.549042 441.169497 289.844355 440.703872 
Q 290.139667 440.236685 290.705292 439.992935 
Q 291.27248 439.747622 292.067792 439.747622 
Q 292.449042 439.747622 292.817792 439.831997 
Q 293.186542 439.91481 293.544355 440.078872 
Q 293.90373 440.241372 294.250605 440.48981 
L 294.250605 440.48981 
L 293.68498 441.281997 
L 293.68498 441.281997 
Q 293.27873 440.98356 292.875605 440.835122 
Q 292.474042 440.685122 292.067792 440.685122 
Q 291.34123 440.685122 290.938105 440.975747 
Q 290.53498 441.266372 290.53498 441.799185 
L 290.53498 441.803872 
Q 290.53498 442.169497 290.742792 442.380435 
Q 290.950605 442.58981 291.25998 442.68981 
Q 291.570917 442.78981 292.12248 442.897622 
Q 292.14123 442.90231 292.158417 442.905435 
Q 292.175605 442.906997 292.195917 442.911685 
Q 292.219355 442.916372 292.249042 442.922622 
Q 292.27873 442.92731 292.302167 442.931997 
Q 292.94748 443.063247 293.37873 443.244497 
Q 293.811542 443.424185 294.102167 443.82731 
Q 294.392792 444.230435 294.392792 444.928872 
L 294.392792 444.938247 
Q 294.392792 445.588247 294.08498 446.049185 
Q 293.777167 446.510122 293.192792 446.75231 
Q 292.60998 446.994497 291.78498 446.994497 
z
M 296.482832 445.974185 
L 298.089082 445.974185 
Q 298.875019 445.974185 299.306269 445.566372 
Q 299.739082 445.15856 299.739082 444.416372 
L 299.739082 442.325747 
Q 299.739082 441.58356 299.306269 441.175747 
Q 298.875019 440.767935 298.089082 440.767935 
L 296.482832 440.767935 
L 296.482832 439.82106 
L 298.059394 439.82106 
Q 298.914082 439.82106 299.518769 440.119497 
Q 300.125019 440.416372 300.442207 440.988247 
Q 300.759394 441.560122 300.759394 442.36481 
L 300.759394 444.37731 
Q 300.759394 445.181997 300.442207 445.753872 
Q 300.125019 446.325747 299.517207 446.624185 
Q 298.909394 446.92106 298.054707 446.92106 
L 296.482832 446.92106 
L 296.482832 445.974185 
z
M 295.809394 439.82106 
L 296.804707 439.82106 
L 296.804707 446.92106 
L 295.809394 446.92106 
L 295.809394 439.82106 
z
M 304.056269 446.994497 
Q 303.431269 446.994497 302.985957 446.742935 
Q 302.542207 446.491372 302.309394 446.010122 
Q 302.078144 445.528872 302.078144 444.850747 
L 302.078144 444.84606 
Q 302.078144 444.450747 302.170332 444.016372 
Q 302.264082 443.580435 302.439082 443.161685 
Q 302.468769 443.088247 302.503144 443.017935 
Q 302.537519 442.94606 302.571894 442.87731 
L 304.114082 439.82106 
L 305.189082 439.82106 
L 303.376582 443.361685 
L 303.381269 443.185122 
Q 303.504707 442.955435 303.739082 442.828872 
Q 303.973457 442.70231 304.285957 442.70231 
Q 304.837519 442.70231 305.232832 442.95231 
Q 305.628144 443.200747 305.832832 443.67731 
Q 306.037519 444.15231 306.037519 444.82106 
L 306.037519 444.825747 
Q 306.037519 445.510122 305.806269 445.999185 
Q 305.575019 446.486685 305.128144 446.741372 
Q 304.681269 446.994497 304.056269 446.994497 
z
M 304.056269 446.036685 
Q 304.529707 446.036685 304.785957 445.744497 
Q 305.042207 445.450747 305.042207 444.90856 
L 305.042207 444.903872 
Q 305.042207 444.30856 304.773457 443.98356 
Q 304.504707 443.65856 304.006269 443.65856 
Q 303.562519 443.65856 303.318769 443.986685 
Q 303.075019 444.313247 303.075019 444.90856 
L 303.075019 444.91481 
Q 303.075019 445.455435 303.331269 445.74606 
Q 303.587519 446.036685 304.056269 446.036685 
z
M 309.870917 443.39606 
L 309.86623 443.57106 
Q 309.744355 443.79606 309.49748 443.900747 
Q 309.250605 444.005435 308.914667 444.005435 
Q 308.406855 444.005435 308.020917 443.747622 
Q 307.63498 443.488247 307.42248 443.017935 
Q 307.20998 442.54606 307.20998 441.925747 
L 307.20998 441.92106 
Q 307.20998 441.231997 307.44123 440.744497 
Q 307.674042 440.255435 308.120917 440.00231 
Q 308.567792 439.747622 309.192792 439.747622 
Q 309.817792 439.747622 310.261542 440.006997 
Q 310.706855 440.266372 310.938105 440.760122 
Q 311.169355 441.25231 311.169355 441.94606 
L 311.169355 441.950747 
Q 311.169355 442.330435 311.070917 442.763247 
Q 310.974042 443.19606 310.794355 443.619497 
Q 310.764667 443.68356 310.73498 443.749185 
Q 310.706855 443.81481 310.67248 443.878872 
L 309.158417 446.92106 
L 308.083417 446.92106 
L 309.870917 443.39606 
z
M 309.192792 443.097622 
Q 309.661542 443.097622 309.917792 442.780435 
Q 310.174042 442.463247 310.174042 441.886685 
L 310.174042 441.881997 
Q 310.174042 441.32106 309.917792 441.013247 
Q 309.661542 440.705435 309.192792 440.705435 
Q 308.719355 440.705435 308.463105 441.013247 
Q 308.206855 441.32106 308.206855 441.886685 
L 308.206855 441.891372 
Q 308.206855 442.467935 308.463105 442.78356 
Q 308.719355 443.097622 309.192792 443.097622 
z
M 314.471503 446.994497 
Q 313.934003 446.994497 313.515253 446.785122 
Q 313.098066 446.574185 312.837128 446.174185 
Q 312.576191 445.774185 312.488691 445.211685 
L 312.488691 445.206997 
L 313.484003 445.206997 
L 313.484003 445.211685 
Q 313.538691 445.60231 313.796503 445.819497 
Q 314.055878 446.036685 314.471503 446.036685 
Q 314.949628 446.036685 315.210566 445.717935 
Q 315.471503 445.397622 315.471503 444.816372 
L 315.471503 444.22106 
Q 315.471503 443.644497 315.210566 443.325747 
Q 314.949628 443.005435 314.471503 443.005435 
Q 314.212128 443.005435 313.973066 443.15231 
Q 313.734003 443.297622 313.552753 443.561685 
L 312.644941 443.561685 
L 312.644941 439.82106 
L 316.262128 439.82106 
L 316.262128 440.767935 
L 313.640253 440.767935 
L 313.640253 442.36481 
Q 313.826191 442.213247 314.055878 442.130435 
Q 314.285566 442.047622 314.524628 442.047622 
Q 315.140253 442.047622 315.576191 442.30231 
Q 316.013691 442.555435 316.240253 443.044497 
Q 316.468378 443.531997 316.468378 444.22106 
L 316.468378 444.816372 
Q 316.468378 445.505435 316.234003 445.994497 
Q 315.999628 446.481997 315.549628 446.738247 
Q 315.101191 446.994497 314.471503 446.994497 
z
" style="fill: #ffffff"/>
   </g>
  </g>
 </g>
 <defs>
  <clipPath id="pb1ea6b0e58">
   <rect x="144" y="77.76" width="892.8" height="498.96"/>
  </clipPath>
 </defs>
</svg>
