<?xml version="1.0" encoding="utf-8" standalone="no"?>
<!DOCTYPE svg PUBLIC "-//W3C//DTD SVG 1.1//EN"
  "http://www.w3.org/Graphics/SVG/1.1/DTD/svg11.dtd">
<svg xmlns:xlink="http://www.w3.org/1999/xlink" width="1152pt" height="648pt" viewBox="0 0 1152 648" xmlns="http://www.w3.org/2000/svg" version="1.1">
 <metadata>
  <rdf:RDF xmlns:dc="http://purl.org/dc/elements/1.1/" xmlns:cc="http://creativecommons.org/ns#" xmlns:rdf="http://www.w3.org/1999/02/22-rdf-syntax-ns#">
   <cc:Work>
    <dc:type rdf:resource="http://purl.org/dc/dcmitype/StillImage"/>
    <dc:date>2024-03-14T14:55:07.724600</dc:date>
    <dc:format>image/svg+xml</dc:format>
    <dc:creator>
     <cc:Agent>
      <dc:title>Matplotlib v3.8.3, https://matplotlib.org/</dc:title>
     </cc:Agent>
    </dc:creator>
   </cc:Work>
  </rdf:RDF>
 </metadata>
 <defs>
  <style type="text/css">*{stroke-linejoin: round; stroke-linecap: butt}</style>
 </defs>
 <g id="figure_1">
  <g id="patch_1">
   <path d="M 0 648 
L 1152 648 
L 1152 0 
L 0 0 
L 0 648 
z
" style="fill: none"/>
  </g>
  <g id="axes_1">
   <g id="line2d_1">
    <path d="M 270.976 474.858511 
L 275.630384 471.8524 
L 280.284768 468.906936 
L 284.939152 466.020897 
L 289.593535 463.193084 
L 294.247919 460.422326 
L 298.902303 457.70747 
L 303.556687 455.047392 
L 308.211071 452.440986 
L 312.865455 449.887171 
L 317.519838 447.384886 
L 322.174222 444.933092 
L 326.828606 442.530773 
L 331.48299 440.17693 
L 336.137374 437.870585 
L 340.791758 435.610782 
L 345.446141 433.396581 
L 350.100525 431.227064 
L 354.754909 429.101329 
L 359.409293 427.018493 
L 364.063677 424.977692 
L 368.718061 422.978077 
L 373.372444 421.018818 
L 378.026828 419.099101 
L 382.681212 417.218128 
L 387.335596 415.375119 
L 391.98998 413.569307 
L 396.644364 411.799942 
L 401.298747 410.06629 
L 405.953131 408.367629 
L 410.607515 406.703254 
L 415.261899 405.072473 
L 419.916283 403.474608 
L 424.570667 401.908996 
L 429.225051 400.374987 
L 433.879434 398.871941 
L 438.533818 397.399235 
L 443.188202 395.956257 
L 447.842586 394.542406 
L 452.49697 393.157096 
L 457.151354 391.799749 
L 461.805737 390.469803 
L 466.460121 389.166705 
L 471.114505 387.889911 
L 475.768889 386.638893 
L 480.423273 385.413129 
L 485.077657 384.21211 
L 489.73204 383.035337 
L 494.386424 381.882321 
L 499.040808 380.752581 
L 503.695192 379.645649 
L 508.349576 378.561064 
L 513.00396 377.498375 
L 517.658343 376.457141 
L 522.312727 375.436927 
L 526.967111 374.437311 
L 531.621495 373.457876 
L 536.275879 372.498215 
L 540.930263 371.55793 
L 545.584646 370.636628 
L 550.23903 369.733927 
L 554.893414 368.849451 
L 559.547798 367.982833 
L 564.202182 367.133711 
L 568.856566 366.301734 
L 573.510949 365.486555 
L 578.165333 364.687834 
L 582.819717 363.905241 
L 587.474101 363.138448 
L 592.128485 362.387137 
L 596.782869 361.650996 
L 601.437253 360.929719 
L 606.091636 360.223005 
L 610.74602 359.53056 
L 615.400404 358.852097 
L 620.054788 358.187333 
L 624.709172 357.535991 
L 629.363556 356.897801 
L 634.017939 356.272497 
L 638.672323 355.65982 
L 643.326707 355.059513 
L 647.981091 354.471328 
L 652.635475 353.89502 
L 657.289859 353.330348 
L 661.944242 352.777078 
L 666.598626 352.234981 
L 671.25301 351.703829 
L 675.907394 351.183403 
L 680.561778 350.673486 
L 685.216162 350.173865 
L 689.870545 349.684333 
L 694.524929 349.204686 
L 699.179313 348.734724 
L 703.833697 348.274252 
L 708.488081 347.823079 
L 713.142465 347.381016 
L 717.796848 346.94788 
L 722.451232 346.52349 
L 727.105616 346.10767 
L 731.76 345.700247 
" clip-path="url(#p7b7d85168e)" style="fill: none; stroke: #79def2; stroke-width: 3; stroke-linecap: round"/>
   </g>
   <g id="text_1">
    <path d="M 740.66498 347.420252 
Q 740.15248 347.420252 739.693105 347.323377 
Q 739.235293 347.22494 738.836855 347.029627 
Q 738.438418 346.834315 738.091542 346.540565 
L 738.091542 346.540565 
L 738.711855 345.779627 
L 738.711855 345.779627 
Q 739.118105 346.13119 739.605605 346.307752 
Q 740.094668 346.482752 740.66498 346.482752 
Q 741.436855 346.482752 741.861855 346.196815 
Q 742.286855 345.910877 742.286855 345.389002 
L 742.286855 345.384315 
Q 742.286855 345.01244 742.093105 344.795252 
Q 741.900917 344.578065 741.594668 344.473377 
Q 741.28998 344.36869 740.807167 344.279627 
Q 740.791542 344.27494 740.774355 344.27494 
Q 740.75873 344.27494 740.743105 344.270252 
L 740.669667 344.25619 
Q 739.957167 344.134315 739.510292 343.98119 
Q 739.063418 343.826502 738.74623 343.41869 
Q 738.429042 343.010877 738.429042 342.259315 
L 738.429042 342.254627 
Q 738.429042 341.595252 738.724355 341.129627 
Q 739.019667 340.66244 739.585292 340.41869 
Q 740.15248 340.173377 740.947792 340.173377 
Q 741.329043 340.173377 741.697792 340.257752 
Q 742.066542 340.340565 742.424355 340.504627 
Q 742.78373 340.667127 743.130605 340.915565 
L 743.130605 340.915565 
L 742.56498 341.707752 
L 742.56498 341.707752 
Q 742.15873 341.409315 741.755605 341.260877 
Q 741.354042 341.110877 740.947792 341.110877 
Q 740.22123 341.110877 739.818105 341.401502 
Q 739.41498 341.692127 739.41498 342.22494 
L 739.41498 342.229627 
Q 739.41498 342.595252 739.622792 342.80619 
Q 739.830605 343.015565 740.13998 343.115565 
Q 740.450917 343.215565 741.00248 343.323377 
Q 741.02123 343.328065 741.038417 343.33119 
Q 741.055605 343.332752 741.075917 343.33744 
Q 741.099355 343.342127 741.129042 343.348377 
Q 741.15873 343.353065 741.182167 343.357752 
Q 741.82748 343.489002 742.25873 343.670252 
Q 742.691542 343.84994 742.982167 344.253065 
Q 743.272792 344.65619 743.272792 345.354627 
L 743.272792 345.364002 
Q 743.272792 346.014002 742.96498 346.47494 
Q 742.657168 346.935877 742.072792 347.178065 
Q 741.48998 347.420252 740.66498 347.420252 
z
M 745.362832 346.39994 
L 746.969082 346.39994 
Q 747.755019 346.39994 748.186269 345.992127 
Q 748.619082 345.584315 748.619082 344.842127 
L 748.619082 342.751502 
Q 748.619082 342.009315 748.186269 341.601502 
Q 747.755019 341.19369 746.969082 341.19369 
L 745.362832 341.19369 
L 745.362832 340.246815 
L 746.939394 340.246815 
Q 747.794082 340.246815 748.398769 340.545252 
Q 749.005019 340.842127 749.322207 341.414002 
Q 749.639394 341.985877 749.639394 342.790565 
L 749.639394 344.803065 
Q 749.639394 345.607752 749.322207 346.179627 
Q 749.005019 346.751502 748.397207 347.04994 
Q 747.789394 347.346815 746.934707 347.346815 
L 745.362832 347.346815 
L 745.362832 346.39994 
z
M 744.689394 340.246815 
L 745.684707 340.246815 
L 745.684707 347.346815 
L 744.689394 347.346815 
L 744.689394 340.246815 
z
M 753.184707 347.420252 
Q 752.540957 347.420252 752.051894 347.176502 
Q 751.564394 346.93119 751.297207 346.484315 
Q 751.031582 346.03744 751.031582 345.446815 
L 751.031582 345.329627 
Q 751.031582 344.798377 751.297207 344.329627 
Q 751.564394 343.860877 752.008144 343.621815 
Q 751.631582 343.415565 751.405019 343.028065 
Q 751.178457 342.639002 751.178457 342.209315 
L 751.178457 342.039002 
Q 751.178457 341.482752 751.426894 341.060877 
Q 751.675332 340.63744 752.130019 340.40619 
Q 752.584707 340.173377 753.184707 340.173377 
Q 753.784707 340.173377 754.239394 340.40619 
Q 754.694082 340.63744 754.942519 341.060877 
Q 755.190957 341.482752 755.190957 342.039002 
L 755.190957 342.209315 
Q 755.190957 342.64994 754.959707 343.035877 
Q 754.728457 343.420252 754.347207 343.621815 
Q 754.795644 343.865565 755.065957 344.332752 
Q 755.337832 344.798377 755.337832 345.329627 
L 755.337832 345.446815 
Q 755.337832 346.03744 755.072207 346.484315 
Q 754.806582 346.93119 754.317519 347.176502 
Q 753.830019 347.420252 753.184707 347.420252 
z
M 753.184707 346.46244 
Q 753.531582 346.46244 753.794082 346.326502 
Q 754.058144 346.189002 754.201894 345.94369 
Q 754.347207 345.696815 754.347207 345.373377 
L 754.347207 345.30619 
Q 754.347207 344.978065 754.201894 344.732752 
Q 754.058144 344.485877 753.794082 344.34994 
Q 753.531582 344.21244 753.184707 344.21244 
Q 752.837832 344.21244 752.573769 344.34994 
Q 752.311269 344.485877 752.165957 344.734315 
Q 752.022207 344.982752 752.022207 345.310877 
L 752.022207 345.384315 
Q 752.022207 345.70619 752.165957 345.94994 
Q 752.311269 346.19369 752.573769 346.328065 
Q 752.837832 346.46244 753.184707 346.46244 
z
M 753.184707 343.254627 
Q 753.483144 343.254627 753.711269 343.126502 
Q 753.940957 342.996815 754.067519 342.757752 
Q 754.195644 342.517127 754.195644 342.204627 
L 754.195644 342.13744 
Q 754.195644 341.839002 754.067519 341.609315 
Q 753.940957 341.379627 753.711269 341.25619 
Q 753.483144 341.13119 753.184707 341.13119 
Q 752.886269 341.13119 752.656582 341.25619 
Q 752.428457 341.379627 752.300332 341.609315 
Q 752.173769 341.839002 752.173769 342.142127 
L 752.173769 342.215565 
Q 752.173769 342.521815 752.300332 342.759315 
Q 752.428457 342.996815 752.656582 343.126502 
Q 752.886269 343.254627 753.184707 343.254627 
z
M 763.439003 343.523377 
L 763.439003 344.764002 
Q 763.439003 345.554627 763.131191 346.157752 
Q 762.823378 346.760877 762.259316 347.090565 
Q 761.695253 347.420252 760.953066 347.420252 
Q 760.201503 347.420252 759.632753 347.110877 
Q 759.064003 346.79994 758.751503 346.234315 
Q 758.439003 345.667127 758.439003 344.920252 
L 758.439003 342.82494 
Q 758.439003 342.034315 758.746816 341.434315 
Q 759.054628 340.832752 759.617128 340.503065 
Q 760.181191 340.173377 760.923378 340.173377 
Q 761.534316 340.173377 762.048378 340.435877 
Q 762.564003 340.696815 762.910878 341.17494 
Q 763.257753 341.653065 763.379628 342.282752 
L 763.379628 342.282752 
L 762.301503 342.282752 
L 762.301503 342.282752 
Q 762.212441 341.926502 762.003066 341.670252 
Q 761.793691 341.414002 761.509316 341.279627 
Q 761.226503 341.145252 760.923378 341.145252 
Q 760.484316 341.145252 760.151503 341.35619 
Q 759.820253 341.565565 759.639003 341.94369 
Q 759.459316 342.321815 759.459316 342.82494 
L 759.459316 344.920252 
Q 759.459316 345.379627 759.643691 345.723377 
Q 759.829628 346.067127 760.168691 346.257752 
Q 760.509316 346.448377 760.953066 346.448377 
Q 761.392128 346.448377 761.723378 346.251502 
Q 762.056191 346.053065 762.237441 345.678065 
Q 762.418691 345.301502 762.418691 344.782752 
L 762.418691 344.47494 
L 760.978066 344.47494 
L 760.978066 343.523377 
L 763.439003 343.523377 
z
M 767.027285 347.420252 
Q 766.32416 347.420252 765.825722 347.15619 
Q 765.328847 346.892127 765.066347 346.382752 
Q 764.80541 345.871815 764.80541 345.14994 
L 764.80541 344.578065 
Q 764.80541 343.826502 765.056972 343.295252 
Q 765.308535 342.76244 765.78666 342.484315 
Q 766.266347 342.204627 766.939785 342.204627 
Q 767.57416 342.204627 768.022597 342.523377 
Q 768.472597 342.840565 768.708535 343.440565 
Q 768.946035 344.040565 768.946035 344.88119 
L 768.946035 345.21244 
L 765.528847 345.21244 
L 765.528847 344.41244 
L 767.99916 344.41244 
L 767.99916 344.41244 
Q 767.95541 343.792127 767.678847 343.448377 
Q 767.403847 343.103065 766.939785 343.103065 
Q 766.372597 343.103065 766.063222 343.47494 
Q 765.753847 343.845252 765.753847 344.52494 
L 765.753847 345.16869 
Q 765.753847 345.798377 766.085097 346.135877 
Q 766.41791 346.473377 767.027285 346.473377 
Q 767.33041 346.473377 767.627285 346.351502 
Q 767.925722 346.228065 768.160097 346.009315 
L 768.160097 346.009315 
L 768.814785 346.66244 
L 768.814785 346.66244 
Q 768.438222 347.02494 767.969472 347.223377 
Q 767.500722 347.420252 767.027285 347.420252 
z
M 770.313613 342.278065 
L 771.310488 342.278065 
L 771.310488 347.346815 
L 770.313613 347.346815 
L 770.313613 342.278065 
z
M 773.390175 344.27494 
Q 773.390175 343.739002 773.11205 343.446815 
Q 772.833925 343.153065 772.3308 343.153065 
Q 771.841738 343.153065 771.576113 343.41244 
Q 771.310488 343.670252 771.310488 344.139002 
L 771.207363 343.16244 
Q 771.441738 342.703065 771.819863 342.454627 
Q 772.197988 342.204627 772.657363 342.204627 
Q 773.482363 342.204627 773.933925 342.745252 
Q 774.385488 343.284315 774.385488 344.270252 
L 774.385488 347.346815 
L 773.390175 347.346815 
L 773.390175 344.27494 
z
M 777.565175 347.346815 
L 776.5683 347.346815 
L 776.5683 341.33119 
L 775.557363 341.951502 
L 775.557363 340.920252 
L 776.5683 340.246815 
L 777.565175 340.246815 
L 777.565175 347.346815 
z
" style="fill: #ffffff; stroke: #000000"/>
    <path d="M 740.66498 347.420252 
Q 740.15248 347.420252 739.693105 347.323377 
Q 739.235293 347.22494 738.836855 347.029627 
Q 738.438418 346.834315 738.091542 346.540565 
L 738.091542 346.540565 
L 738.711855 345.779627 
L 738.711855 345.779627 
Q 739.118105 346.13119 739.605605 346.307752 
Q 740.094668 346.482752 740.66498 346.482752 
Q 741.436855 346.482752 741.861855 346.196815 
Q 742.286855 345.910877 742.286855 345.389002 
L 742.286855 345.384315 
Q 742.286855 345.01244 742.093105 344.795252 
Q 741.900917 344.578065 741.594668 344.473377 
Q 741.28998 344.36869 740.807167 344.279627 
Q 740.791542 344.27494 740.774355 344.27494 
Q 740.75873 344.27494 740.743105 344.270252 
L 740.669667 344.25619 
Q 739.957167 344.134315 739.510292 343.98119 
Q 739.063418 343.826502 738.74623 343.41869 
Q 738.429042 343.010877 738.429042 342.259315 
L 738.429042 342.254627 
Q 738.429042 341.595252 738.724355 341.129627 
Q 739.019667 340.66244 739.585292 340.41869 
Q 740.15248 340.173377 740.947792 340.173377 
Q 741.329043 340.173377 741.697792 340.257752 
Q 742.066542 340.340565 742.424355 340.504627 
Q 742.78373 340.667127 743.130605 340.915565 
L 743.130605 340.915565 
L 742.56498 341.707752 
L 742.56498 341.707752 
Q 742.15873 341.409315 741.755605 341.260877 
Q 741.354042 341.110877 740.947792 341.110877 
Q 740.22123 341.110877 739.818105 341.401502 
Q 739.41498 341.692127 739.41498 342.22494 
L 739.41498 342.229627 
Q 739.41498 342.595252 739.622792 342.80619 
Q 739.830605 343.015565 740.13998 343.115565 
Q 740.450917 343.215565 741.00248 343.323377 
Q 741.02123 343.328065 741.038417 343.33119 
Q 741.055605 343.332752 741.075917 343.33744 
Q 741.099355 343.342127 741.129042 343.348377 
Q 741.15873 343.353065 741.182167 343.357752 
Q 741.82748 343.489002 742.25873 343.670252 
Q 742.691542 343.84994 742.982167 344.253065 
Q 743.272792 344.65619 743.272792 345.354627 
L 743.272792 345.364002 
Q 743.272792 346.014002 742.96498 346.47494 
Q 742.657168 346.935877 742.072792 347.178065 
Q 741.48998 347.420252 740.66498 347.420252 
z
M 745.362832 346.39994 
L 746.969082 346.39994 
Q 747.755019 346.39994 748.186269 345.992127 
Q 748.619082 345.584315 748.619082 344.842127 
L 748.619082 342.751502 
Q 748.619082 342.009315 748.186269 341.601502 
Q 747.755019 341.19369 746.969082 341.19369 
L 745.362832 341.19369 
L 745.362832 340.246815 
L 746.939394 340.246815 
Q 747.794082 340.246815 748.398769 340.545252 
Q 749.005019 340.842127 749.322207 341.414002 
Q 749.639394 341.985877 749.639394 342.790565 
L 749.639394 344.803065 
Q 749.639394 345.607752 749.322207 346.179627 
Q 749.005019 346.751502 748.397207 347.04994 
Q 747.789394 347.346815 746.934707 347.346815 
L 745.362832 347.346815 
L 745.362832 346.39994 
z
M 744.689394 340.246815 
L 745.684707 340.246815 
L 745.684707 347.346815 
L 744.689394 347.346815 
L 744.689394 340.246815 
z
M 753.184707 347.420252 
Q 752.540957 347.420252 752.051894 347.176502 
Q 751.564394 346.93119 751.297207 346.484315 
Q 751.031582 346.03744 751.031582 345.446815 
L 751.031582 345.329627 
Q 751.031582 344.798377 751.297207 344.329627 
Q 751.564394 343.860877 752.008144 343.621815 
Q 751.631582 343.415565 751.405019 343.028065 
Q 751.178457 342.639002 751.178457 342.209315 
L 751.178457 342.039002 
Q 751.178457 341.482752 751.426894 341.060877 
Q 751.675332 340.63744 752.130019 340.40619 
Q 752.584707 340.173377 753.184707 340.173377 
Q 753.784707 340.173377 754.239394 340.40619 
Q 754.694082 340.63744 754.942519 341.060877 
Q 755.190957 341.482752 755.190957 342.039002 
L 755.190957 342.209315 
Q 755.190957 342.64994 754.959707 343.035877 
Q 754.728457 343.420252 754.347207 343.621815 
Q 754.795644 343.865565 755.065957 344.332752 
Q 755.337832 344.798377 755.337832 345.329627 
L 755.337832 345.446815 
Q 755.337832 346.03744 755.072207 346.484315 
Q 754.806582 346.93119 754.317519 347.176502 
Q 753.830019 347.420252 753.184707 347.420252 
z
M 753.184707 346.46244 
Q 753.531582 346.46244 753.794082 346.326502 
Q 754.058144 346.189002 754.201894 345.94369 
Q 754.347207 345.696815 754.347207 345.373377 
L 754.347207 345.30619 
Q 754.347207 344.978065 754.201894 344.732752 
Q 754.058144 344.485877 753.794082 344.34994 
Q 753.531582 344.21244 753.184707 344.21244 
Q 752.837832 344.21244 752.573769 344.34994 
Q 752.311269 344.485877 752.165957 344.734315 
Q 752.022207 344.982752 752.022207 345.310877 
L 752.022207 345.384315 
Q 752.022207 345.70619 752.165957 345.94994 
Q 752.311269 346.19369 752.573769 346.328065 
Q 752.837832 346.46244 753.184707 346.46244 
z
M 753.184707 343.254627 
Q 753.483144 343.254627 753.711269 343.126502 
Q 753.940957 342.996815 754.067519 342.757752 
Q 754.195644 342.517127 754.195644 342.204627 
L 754.195644 342.13744 
Q 754.195644 341.839002 754.067519 341.609315 
Q 753.940957 341.379627 753.711269 341.25619 
Q 753.483144 341.13119 753.184707 341.13119 
Q 752.886269 341.13119 752.656582 341.25619 
Q 752.428457 341.379627 752.300332 341.609315 
Q 752.173769 341.839002 752.173769 342.142127 
L 752.173769 342.215565 
Q 752.173769 342.521815 752.300332 342.759315 
Q 752.428457 342.996815 752.656582 343.126502 
Q 752.886269 343.254627 753.184707 343.254627 
z
M 763.439003 343.523377 
L 763.439003 344.764002 
Q 763.439003 345.554627 763.131191 346.157752 
Q 762.823378 346.760877 762.259316 347.090565 
Q 761.695253 347.420252 760.953066 347.420252 
Q 760.201503 347.420252 759.632753 347.110877 
Q 759.064003 346.79994 758.751503 346.234315 
Q 758.439003 345.667127 758.439003 344.920252 
L 758.439003 342.82494 
Q 758.439003 342.034315 758.746816 341.434315 
Q 759.054628 340.832752 759.617128 340.503065 
Q 760.181191 340.173377 760.923378 340.173377 
Q 761.534316 340.173377 762.048378 340.435877 
Q 762.564003 340.696815 762.910878 341.17494 
Q 763.257753 341.653065 763.379628 342.282752 
L 763.379628 342.282752 
L 762.301503 342.282752 
L 762.301503 342.282752 
Q 762.212441 341.926502 762.003066 341.670252 
Q 761.793691 341.414002 761.509316 341.279627 
Q 761.226503 341.145252 760.923378 341.145252 
Q 760.484316 341.145252 760.151503 341.35619 
Q 759.820253 341.565565 759.639003 341.94369 
Q 759.459316 342.321815 759.459316 342.82494 
L 759.459316 344.920252 
Q 759.459316 345.379627 759.643691 345.723377 
Q 759.829628 346.067127 760.168691 346.257752 
Q 760.509316 346.448377 760.953066 346.448377 
Q 761.392128 346.448377 761.723378 346.251502 
Q 762.056191 346.053065 762.237441 345.678065 
Q 762.418691 345.301502 762.418691 344.782752 
L 762.418691 344.47494 
L 760.978066 344.47494 
L 760.978066 343.523377 
L 763.439003 343.523377 
z
M 767.027285 347.420252 
Q 766.32416 347.420252 765.825722 347.15619 
Q 765.328847 346.892127 765.066347 346.382752 
Q 764.80541 345.871815 764.80541 345.14994 
L 764.80541 344.578065 
Q 764.80541 343.826502 765.056972 343.295252 
Q 765.308535 342.76244 765.78666 342.484315 
Q 766.266347 342.204627 766.939785 342.204627 
Q 767.57416 342.204627 768.022597 342.523377 
Q 768.472597 342.840565 768.708535 343.440565 
Q 768.946035 344.040565 768.946035 344.88119 
L 768.946035 345.21244 
L 765.528847 345.21244 
L 765.528847 344.41244 
L 767.99916 344.41244 
L 767.99916 344.41244 
Q 767.95541 343.792127 767.678847 343.448377 
Q 767.403847 343.103065 766.939785 343.103065 
Q 766.372597 343.103065 766.063222 343.47494 
Q 765.753847 343.845252 765.753847 344.52494 
L 765.753847 345.16869 
Q 765.753847 345.798377 766.085097 346.135877 
Q 766.41791 346.473377 767.027285 346.473377 
Q 767.33041 346.473377 767.627285 346.351502 
Q 767.925722 346.228065 768.160097 346.009315 
L 768.160097 346.009315 
L 768.814785 346.66244 
L 768.814785 346.66244 
Q 768.438222 347.02494 767.969472 347.223377 
Q 767.500722 347.420252 767.027285 347.420252 
z
M 770.313613 342.278065 
L 771.310488 342.278065 
L 771.310488 347.346815 
L 770.313613 347.346815 
L 770.313613 342.278065 
z
M 773.390175 344.27494 
Q 773.390175 343.739002 773.11205 343.446815 
Q 772.833925 343.153065 772.3308 343.153065 
Q 771.841738 343.153065 771.576113 343.41244 
Q 771.310488 343.670252 771.310488 344.139002 
L 771.207363 343.16244 
Q 771.441738 342.703065 771.819863 342.454627 
Q 772.197988 342.204627 772.657363 342.204627 
Q 773.482363 342.204627 773.933925 342.745252 
Q 774.385488 343.284315 774.385488 344.270252 
L 774.385488 347.346815 
L 773.390175 347.346815 
L 773.390175 344.27494 
z
M 777.565175 347.346815 
L 776.5683 347.346815 
L 776.5683 341.33119 
L 775.557363 341.951502 
L 775.557363 340.920252 
L 776.5683 340.246815 
L 777.565175 340.246815 
L 777.565175 347.346815 
z
" style="fill: #ffffff"/>
   </g>
  </g>
 </g>
 <defs>
  <clipPath id="p7b7d85168e">
   <rect x="144" y="77.76" width="892.8" height="498.96"/>
  </clipPath>
 </defs>
</svg>
