<?xml version="1.0" encoding="utf-8" standalone="no"?>
<!DOCTYPE svg PUBLIC "-//W3C//DTD SVG 1.1//EN"
  "http://www.w3.org/Graphics/SVG/1.1/DTD/svg11.dtd">
<svg xmlns:xlink="http://www.w3.org/1999/xlink" width="1152pt" height="648pt" viewBox="0 0 1152 648" xmlns="http://www.w3.org/2000/svg" version="1.1">
 <metadata>
  <rdf:RDF xmlns:dc="http://purl.org/dc/elements/1.1/" xmlns:cc="http://creativecommons.org/ns#" xmlns:rdf="http://www.w3.org/1999/02/22-rdf-syntax-ns#">
   <cc:Work>
    <dc:type rdf:resource="http://purl.org/dc/dcmitype/StillImage"/>
    <dc:date>2024-09-19T17:32:04.700373</dc:date>
    <dc:format>image/svg+xml</dc:format>
    <dc:creator>
     <cc:Agent>
      <dc:title>Matplotlib v3.8.1, https://matplotlib.org/</dc:title>
     </cc:Agent>
    </dc:creator>
   </cc:Work>
  </rdf:RDF>
 </metadata>
 <defs>
  <style type="text/css">*{stroke-linejoin: round; stroke-linecap: butt}</style>
 </defs>
 <g id="figure_1">
  <g id="patch_1">
   <path d="M 0 648 
L 1152 648 
L 1152 0 
L 0 0 
L 0 648 
z
" style="fill: none"/>
  </g>
  <g id="axes_1">
   <g id="line2d_1">
    <path d="M 221.872 466.991859 
L 225.980283 462.589681 
L 230.088566 458.263438 
L 234.196848 454.013935 
L 238.305131 449.841848 
L 242.413414 445.74773 
L 246.521697 441.732013 
L 250.62998 437.795013 
L 254.738263 433.936933 
L 258.846545 430.157868 
L 262.954828 426.457804 
L 267.063111 422.836632 
L 271.171394 419.294144 
L 275.279677 415.830039 
L 279.38796 412.443933 
L 283.496242 409.135357 
L 287.604525 405.903763 
L 291.712808 402.748534 
L 295.821091 399.668981 
L 299.929374 396.664353 
L 304.037657 393.733839 
L 308.145939 390.876573 
L 312.254222 388.09164 
L 316.362505 385.378075 
L 320.470788 382.734876 
L 324.579071 380.160999 
L 328.687354 377.655367 
L 332.795636 375.216874 
L 336.903919 372.844384 
L 341.012202 370.536742 
L 345.120485 368.292769 
L 349.228768 366.111272 
L 353.337051 363.991043 
L 357.445333 361.930862 
L 361.553616 359.929504 
L 365.661899 357.985736 
L 369.770182 356.098323 
L 373.878465 354.266027 
L 377.986747 352.487615 
L 382.09503 350.761854 
L 386.203313 349.087517 
L 390.311596 347.463385 
L 394.419879 345.888247 
L 398.528162 344.3609 
L 402.636444 342.880156 
L 406.744727 341.444835 
L 410.85301 340.053775 
L 414.961293 338.705826 
L 419.069576 337.399854 
L 423.177859 336.134742 
L 427.286141 334.90939 
L 431.394424 333.722715 
L 435.502707 332.573653 
L 439.61099 331.461159 
L 443.719273 330.384207 
L 447.827556 329.34179 
L 451.935838 328.332922 
L 456.044121 327.356637 
L 460.152404 326.411987 
L 464.260687 325.498048 
L 468.36897 324.613913 
L 472.477253 323.758698 
L 476.585535 322.931538 
L 480.693818 322.131588 
L 484.802101 321.358025 
L 488.910384 320.610045 
L 493.018667 319.886863 
L 497.126949 319.187717 
L 501.235232 318.51186 
L 505.343515 317.858569 
L 509.451798 317.227138 
L 513.560081 316.616878 
L 517.668364 316.027122 
L 521.776646 315.457219 
L 525.884929 314.906537 
L 529.993212 314.374462 
L 534.101495 313.860396 
L 538.209778 313.363759 
L 542.318061 312.883987 
L 546.426343 312.420534 
L 550.534626 311.972868 
L 554.642909 311.540474 
L 558.751192 311.12285 
L 562.859475 310.719513 
L 566.967758 310.329992 
L 571.07604 309.953829 
L 575.184323 309.590583 
L 579.292606 309.239825 
L 583.400889 308.901139 
L 587.509172 308.574123 
L 591.617455 308.258385 
L 595.725737 307.953549 
L 599.83402 307.659248 
L 603.942303 307.375127 
L 608.050586 307.100844 
L 612.158869 306.836066 
L 616.267152 306.580471 
L 620.375434 306.333749 
L 624.483717 306.095598 
L 628.592 305.865726 
" clip-path="url(#p1c0e0ec1ac)" style="fill: none; stroke: #80ffbf; stroke-width: 3; stroke-linecap: round"/>
   </g>
   <g id="text_1">
    <path d="M 637.29698 300.412294 
L 638.14698 300.412294 
L 640.764167 307.512294 
L 639.689167 307.512294 
L 637.72198 301.784169 
L 635.754793 307.512294 
L 634.679792 307.512294 
L 637.29698 300.412294 
z
M 635.886042 305.007607 
L 639.62198 305.007607 
L 639.62198 305.954482 
L 635.886042 305.954482 
L 635.886042 305.007607 
z
M 643.405964 307.512294 
L 642.409089 307.512294 
L 642.409089 301.496669 
L 641.398152 302.116982 
L 641.398152 301.085732 
L 642.409089 300.412294 
L 643.405964 300.412294 
L 643.405964 307.512294 
z
M 644.91866 305.559169 
L 647.301472 300.416982 
L 648.328035 300.416982 
L 646.003035 305.499794 
L 649.484285 305.499794 
L 649.484285 306.423232 
L 644.91866 306.423232 
L 644.91866 305.559169 
z
M 647.98116 303.337294 
L 648.953035 303.337294 
L 648.953035 307.516982 
L 647.98116 307.516982 
L 647.98116 303.337294 
z
" style="fill: #ffffff; stroke: #000000"/>
    <path d="M 637.29698 300.412294 
L 638.14698 300.412294 
L 640.764167 307.512294 
L 639.689167 307.512294 
L 637.72198 301.784169 
L 635.754793 307.512294 
L 634.679792 307.512294 
L 637.29698 300.412294 
z
M 635.886042 305.007607 
L 639.62198 305.007607 
L 639.62198 305.954482 
L 635.886042 305.954482 
L 635.886042 305.007607 
z
M 643.405964 307.512294 
L 642.409089 307.512294 
L 642.409089 301.496669 
L 641.398152 302.116982 
L 641.398152 301.085732 
L 642.409089 300.412294 
L 643.405964 300.412294 
L 643.405964 307.512294 
z
M 644.91866 305.559169 
L 647.301472 300.416982 
L 648.328035 300.416982 
L 646.003035 305.499794 
L 649.484285 305.499794 
L 649.484285 306.423232 
L 644.91866 306.423232 
L 644.91866 305.559169 
z
M 647.98116 303.337294 
L 648.953035 303.337294 
L 648.953035 307.516982 
L 647.98116 307.516982 
L 647.98116 303.337294 
z
" style="fill: #ffffff"/>
   </g>
  </g>
 </g>
 <defs>
  <clipPath id="p1c0e0ec1ac">
   <rect x="144" y="77.76" width="892.8" height="498.96"/>
  </clipPath>
 </defs>
</svg>
