<?xml version="1.0" encoding="utf-8" standalone="no"?>
<!DOCTYPE svg PUBLIC "-//W3C//DTD SVG 1.1//EN"
  "http://www.w3.org/Graphics/SVG/1.1/DTD/svg11.dtd">
<svg xmlns:xlink="http://www.w3.org/1999/xlink" width="1152pt" height="648pt" viewBox="0 0 1152 648" xmlns="http://www.w3.org/2000/svg" version="1.1">
 <metadata>
  <rdf:RDF xmlns:dc="http://purl.org/dc/elements/1.1/" xmlns:cc="http://creativecommons.org/ns#" xmlns:rdf="http://www.w3.org/1999/02/22-rdf-syntax-ns#">
   <cc:Work>
    <dc:type rdf:resource="http://purl.org/dc/dcmitype/StillImage"/>
    <dc:date>2024-09-19T17:32:04.765409</dc:date>
    <dc:format>image/svg+xml</dc:format>
    <dc:creator>
     <cc:Agent>
      <dc:title>Matplotlib v3.8.1, https://matplotlib.org/</dc:title>
     </cc:Agent>
    </dc:creator>
   </cc:Work>
  </rdf:RDF>
 </metadata>
 <defs>
  <style type="text/css">*{stroke-linejoin: round; stroke-linecap: butt}</style>
 </defs>
 <g id="figure_1">
  <g id="patch_1">
   <path d="M 0 648 
L 1152 648 
L 1152 0 
L 0 0 
L 0 648 
z
" style="fill: none"/>
  </g>
  <g id="axes_1">
   <g id="PathCollection_1">
    <defs>
     <path id="md8e3bdb798" d="M 0 2.738613 
C 0.726289 2.738613 1.422928 2.450055 1.936492 1.936492 
C 2.450055 1.422928 2.738613 0.726289 2.738613 0 
C 2.738613 -0.726289 2.450055 -1.422928 1.936492 -1.936492 
C 1.422928 -2.450055 0.726289 -2.738613 0 -2.738613 
C -0.726289 -2.738613 -1.422928 -2.450055 -1.936492 -1.936492 
C -2.450055 -1.422928 -2.738613 -0.726289 -2.738613 0 
C -2.738613 0.726289 -2.450055 1.422928 -1.936492 1.936492 
C -1.422928 2.450055 -0.726289 2.738613 0 2.738613 
z
" style="stroke: #33ccff"/>
    </defs>
    <g clip-path="url(#pdae8724a6c)">
     <use xlink:href="#md8e3bdb798" x="355.792" y="536.86557" style="fill: #33ccff; stroke: #33ccff"/>
     <use xlink:href="#md8e3bdb798" x="216.416" y="553.6431" style="fill: #33ccff; stroke: #33ccff"/>
    </g>
   </g>
   <g id="text_1">
    <path d="M 364.49698 531.412138 
L 365.34698 531.412138 
L 367.964168 538.512138 
L 366.889167 538.512138 
L 364.92198 532.784013 
L 362.954792 538.512138 
L 361.879793 538.512138 
L 364.49698 531.412138 
z
M 363.086043 536.007451 
L 366.82198 536.007451 
L 366.82198 536.954326 
L 363.086043 536.954326 
L 363.086043 536.007451 
z
M 370.971589 538.585576 
Q 370.327839 538.585576 369.838777 538.341826 
Q 369.351277 538.096513 369.084089 537.649638 
Q 368.818464 537.202763 368.818464 536.612138 
L 368.818464 536.494951 
Q 368.818464 535.963701 369.084089 535.494951 
Q 369.351277 535.026201 369.795027 534.787138 
Q 369.418464 534.580888 369.191902 534.193388 
Q 368.965339 533.804326 368.965339 533.374638 
L 368.965339 533.204326 
Q 368.965339 532.648076 369.213777 532.226201 
Q 369.462214 531.802763 369.916902 531.571513 
Q 370.371589 531.338701 370.971589 531.338701 
Q 371.571589 531.338701 372.026277 531.571513 
Q 372.480964 531.802763 372.729402 532.226201 
Q 372.977839 532.648076 372.977839 533.204326 
L 372.977839 533.374638 
Q 372.977839 533.815263 372.746589 534.201201 
Q 372.515339 534.585576 372.134089 534.787138 
Q 372.582527 535.030888 372.852839 535.498076 
Q 373.124714 535.963701 373.124714 536.494951 
L 373.124714 536.612138 
Q 373.124714 537.202763 372.859089 537.649638 
Q 372.593464 538.096513 372.104402 538.341826 
Q 371.616902 538.585576 370.971589 538.585576 
z
M 370.971589 537.627763 
Q 371.318464 537.627763 371.580964 537.491826 
Q 371.845027 537.354326 371.988777 537.109013 
Q 372.134089 536.862138 372.134089 536.538701 
L 372.134089 536.471513 
Q 372.134089 536.143388 371.988777 535.898076 
Q 371.845027 535.651201 371.580964 535.515263 
Q 371.318464 535.377763 370.971589 535.377763 
Q 370.624714 535.377763 370.360652 535.515263 
Q 370.098152 535.651201 369.952839 535.899638 
Q 369.809089 536.148076 369.809089 536.476201 
L 369.809089 536.549638 
Q 369.809089 536.871513 369.952839 537.115263 
Q 370.098152 537.359013 370.360652 537.493388 
Q 370.624714 537.627763 370.971589 537.627763 
z
M 370.971589 534.419951 
Q 371.270027 534.419951 371.498152 534.291826 
Q 371.727839 534.162138 371.854402 533.923076 
Q 371.982527 533.682451 371.982527 533.369951 
L 371.982527 533.302763 
Q 371.982527 533.004326 371.854402 532.774638 
Q 371.727839 532.544951 371.498152 532.421513 
Q 371.270027 532.296513 370.971589 532.296513 
Q 370.673152 532.296513 370.443464 532.421513 
Q 370.215339 532.544951 370.087214 532.774638 
Q 369.960652 533.004326 369.960652 533.307451 
L 369.960652 533.380888 
Q 369.960652 533.687138 370.087214 533.924638 
Q 370.215339 534.162138 370.443464 534.291826 
Q 370.673152 534.419951 370.971589 534.419951 
z
" style="fill: #ffffff; stroke: #000000"/>
    <path d="M 364.49698 531.412138 
L 365.34698 531.412138 
L 367.964168 538.512138 
L 366.889167 538.512138 
L 364.92198 532.784013 
L 362.954792 538.512138 
L 361.879793 538.512138 
L 364.49698 531.412138 
z
M 363.086043 536.007451 
L 366.82198 536.007451 
L 366.82198 536.954326 
L 363.086043 536.954326 
L 363.086043 536.007451 
z
M 370.971589 538.585576 
Q 370.327839 538.585576 369.838777 538.341826 
Q 369.351277 538.096513 369.084089 537.649638 
Q 368.818464 537.202763 368.818464 536.612138 
L 368.818464 536.494951 
Q 368.818464 535.963701 369.084089 535.494951 
Q 369.351277 535.026201 369.795027 534.787138 
Q 369.418464 534.580888 369.191902 534.193388 
Q 368.965339 533.804326 368.965339 533.374638 
L 368.965339 533.204326 
Q 368.965339 532.648076 369.213777 532.226201 
Q 369.462214 531.802763 369.916902 531.571513 
Q 370.371589 531.338701 370.971589 531.338701 
Q 371.571589 531.338701 372.026277 531.571513 
Q 372.480964 531.802763 372.729402 532.226201 
Q 372.977839 532.648076 372.977839 533.204326 
L 372.977839 533.374638 
Q 372.977839 533.815263 372.746589 534.201201 
Q 372.515339 534.585576 372.134089 534.787138 
Q 372.582527 535.030888 372.852839 535.498076 
Q 373.124714 535.963701 373.124714 536.494951 
L 373.124714 536.612138 
Q 373.124714 537.202763 372.859089 537.649638 
Q 372.593464 538.096513 372.104402 538.341826 
Q 371.616902 538.585576 370.971589 538.585576 
z
M 370.971589 537.627763 
Q 371.318464 537.627763 371.580964 537.491826 
Q 371.845027 537.354326 371.988777 537.109013 
Q 372.134089 536.862138 372.134089 536.538701 
L 372.134089 536.471513 
Q 372.134089 536.143388 371.988777 535.898076 
Q 371.845027 535.651201 371.580964 535.515263 
Q 371.318464 535.377763 370.971589 535.377763 
Q 370.624714 535.377763 370.360652 535.515263 
Q 370.098152 535.651201 369.952839 535.899638 
Q 369.809089 536.148076 369.809089 536.476201 
L 369.809089 536.549638 
Q 369.809089 536.871513 369.952839 537.115263 
Q 370.098152 537.359013 370.360652 537.493388 
Q 370.624714 537.627763 370.971589 537.627763 
z
M 370.971589 534.419951 
Q 371.270027 534.419951 371.498152 534.291826 
Q 371.727839 534.162138 371.854402 533.923076 
Q 371.982527 533.682451 371.982527 533.369951 
L 371.982527 533.302763 
Q 371.982527 533.004326 371.854402 532.774638 
Q 371.727839 532.544951 371.498152 532.421513 
Q 371.270027 532.296513 370.971589 532.296513 
Q 370.673152 532.296513 370.443464 532.421513 
Q 370.215339 532.544951 370.087214 532.774638 
Q 369.960652 533.004326 369.960652 533.307451 
L 369.960652 533.380888 
Q 369.960652 533.687138 370.087214 533.924638 
Q 370.215339 534.162138 370.443464 534.291826 
Q 370.673152 534.419951 370.971589 534.419951 
z
" style="fill: #ffffff"/>
   </g>
   <g id="text_2">
    <path d="M 225.12098 548.189668 
L 225.97098 548.189668 
L 228.588167 555.289668 
L 227.513167 555.289668 
L 225.54598 549.561543 
L 223.578792 555.289668 
L 222.503792 555.289668 
L 225.12098 548.189668 
z
M 223.710042 552.78498 
L 227.44598 552.78498 
L 227.44598 553.731856 
L 223.710042 553.731856 
L 223.710042 552.78498 
z
M 231.595589 555.363105 
Q 230.951839 555.363105 230.462777 555.119355 
Q 229.975277 554.874043 229.708089 554.427168 
Q 229.442464 553.980293 229.442464 553.389668 
L 229.442464 553.272481 
Q 229.442464 552.741231 229.708089 552.272481 
Q 229.975277 551.803731 230.419027 551.564668 
Q 230.042464 551.358418 229.815902 550.970918 
Q 229.589339 550.581855 229.589339 550.152168 
L 229.589339 549.981856 
Q 229.589339 549.425605 229.837777 549.00373 
Q 230.086214 548.580293 230.540902 548.349043 
Q 230.995589 548.116231 231.595589 548.116231 
Q 232.195589 548.116231 232.650277 548.349043 
Q 233.104964 548.580293 233.353402 549.00373 
Q 233.601839 549.425605 233.601839 549.981856 
L 233.601839 550.152168 
Q 233.601839 550.592793 233.370589 550.97873 
Q 233.139339 551.363105 232.758089 551.564668 
Q 233.206527 551.808418 233.476839 552.275605 
Q 233.748714 552.741231 233.748714 553.272481 
L 233.748714 553.389668 
Q 233.748714 553.980293 233.483089 554.427168 
Q 233.217464 554.874043 232.728402 555.119355 
Q 232.240902 555.363105 231.595589 555.363105 
z
M 231.595589 554.405293 
Q 231.942464 554.405293 232.204964 554.269355 
Q 232.469027 554.131856 232.612777 553.886543 
Q 232.758089 553.639668 232.758089 553.31623 
L 232.758089 553.249043 
Q 232.758089 552.920918 232.612777 552.675605 
Q 232.469027 552.428731 232.204964 552.292793 
Q 231.942464 552.155293 231.595589 552.155293 
Q 231.248714 552.155293 230.984652 552.292793 
Q 230.722152 552.428731 230.576839 552.677168 
Q 230.433089 552.925605 230.433089 553.25373 
L 230.433089 553.327168 
Q 230.433089 553.649043 230.576839 553.892793 
Q 230.722152 554.136543 230.984652 554.270918 
Q 231.248714 554.405293 231.595589 554.405293 
z
M 231.595589 551.19748 
Q 231.894027 551.19748 232.122152 551.069356 
Q 232.351839 550.939668 232.478402 550.700606 
Q 232.606527 550.459981 232.606527 550.147481 
L 232.606527 550.080293 
Q 232.606527 549.781856 232.478402 549.552168 
Q 232.351839 549.32248 232.122152 549.199043 
Q 231.894027 549.074043 231.595589 549.074043 
Q 231.297152 549.074043 231.067464 549.199043 
Q 230.839339 549.32248 230.711214 549.552168 
Q 230.584652 549.781856 230.584652 550.084981 
L 230.584652 550.158418 
Q 230.584652 550.464668 230.711214 550.702168 
Q 230.839339 550.939668 231.067464 551.069356 
Q 231.297152 551.19748 231.595589 551.19748 
z
" style="fill: #ffffff; stroke: #000000"/>
    <path d="M 225.12098 548.189668 
L 225.97098 548.189668 
L 228.588167 555.289668 
L 227.513167 555.289668 
L 225.54598 549.561543 
L 223.578792 555.289668 
L 222.503792 555.289668 
L 225.12098 548.189668 
z
M 223.710042 552.78498 
L 227.44598 552.78498 
L 227.44598 553.731856 
L 223.710042 553.731856 
L 223.710042 552.78498 
z
M 231.595589 555.363105 
Q 230.951839 555.363105 230.462777 555.119355 
Q 229.975277 554.874043 229.708089 554.427168 
Q 229.442464 553.980293 229.442464 553.389668 
L 229.442464 553.272481 
Q 229.442464 552.741231 229.708089 552.272481 
Q 229.975277 551.803731 230.419027 551.564668 
Q 230.042464 551.358418 229.815902 550.970918 
Q 229.589339 550.581855 229.589339 550.152168 
L 229.589339 549.981856 
Q 229.589339 549.425605 229.837777 549.00373 
Q 230.086214 548.580293 230.540902 548.349043 
Q 230.995589 548.116231 231.595589 548.116231 
Q 232.195589 548.116231 232.650277 548.349043 
Q 233.104964 548.580293 233.353402 549.00373 
Q 233.601839 549.425605 233.601839 549.981856 
L 233.601839 550.152168 
Q 233.601839 550.592793 233.370589 550.97873 
Q 233.139339 551.363105 232.758089 551.564668 
Q 233.206527 551.808418 233.476839 552.275605 
Q 233.748714 552.741231 233.748714 553.272481 
L 233.748714 553.389668 
Q 233.748714 553.980293 233.483089 554.427168 
Q 233.217464 554.874043 232.728402 555.119355 
Q 232.240902 555.363105 231.595589 555.363105 
z
M 231.595589 554.405293 
Q 231.942464 554.405293 232.204964 554.269355 
Q 232.469027 554.131856 232.612777 553.886543 
Q 232.758089 553.639668 232.758089 553.31623 
L 232.758089 553.249043 
Q 232.758089 552.920918 232.612777 552.675605 
Q 232.469027 552.428731 232.204964 552.292793 
Q 231.942464 552.155293 231.595589 552.155293 
Q 231.248714 552.155293 230.984652 552.292793 
Q 230.722152 552.428731 230.576839 552.677168 
Q 230.433089 552.925605 230.433089 553.25373 
L 230.433089 553.327168 
Q 230.433089 553.649043 230.576839 553.892793 
Q 230.722152 554.136543 230.984652 554.270918 
Q 231.248714 554.405293 231.595589 554.405293 
z
M 231.595589 551.19748 
Q 231.894027 551.19748 232.122152 551.069356 
Q 232.351839 550.939668 232.478402 550.700606 
Q 232.606527 550.459981 232.606527 550.147481 
L 232.606527 550.080293 
Q 232.606527 549.781856 232.478402 549.552168 
Q 232.351839 549.32248 232.122152 549.199043 
Q 231.894027 549.074043 231.595589 549.074043 
Q 231.297152 549.074043 231.067464 549.199043 
Q 230.839339 549.32248 230.711214 549.552168 
Q 230.584652 549.781856 230.584652 550.084981 
L 230.584652 550.158418 
Q 230.584652 550.464668 230.711214 550.702168 
Q 230.839339 550.939668 231.067464 551.069356 
Q 231.297152 551.19748 231.595589 551.19748 
z
" style="fill: #ffffff"/>
   </g>
  </g>
 </g>
 <defs>
  <clipPath id="pdae8724a6c">
   <rect x="144" y="77.76" width="892.8" height="498.96"/>
  </clipPath>
 </defs>
</svg>
