<?xml version="1.0" encoding="utf-8" standalone="no"?>
<!DOCTYPE svg PUBLIC "-//W3C//DTD SVG 1.1//EN"
  "http://www.w3.org/Graphics/SVG/1.1/DTD/svg11.dtd">
<svg xmlns:xlink="http://www.w3.org/1999/xlink" width="1152pt" height="648pt" viewBox="0 0 1152 648" xmlns="http://www.w3.org/2000/svg" version="1.1">
 <metadata>
  <rdf:RDF xmlns:dc="http://purl.org/dc/elements/1.1/" xmlns:cc="http://creativecommons.org/ns#" xmlns:rdf="http://www.w3.org/1999/02/22-rdf-syntax-ns#">
   <cc:Work>
    <dc:type rdf:resource="http://purl.org/dc/dcmitype/StillImage"/>
    <dc:date>2024-03-14T14:55:08.833445</dc:date>
    <dc:format>image/svg+xml</dc:format>
    <dc:creator>
     <cc:Agent>
      <dc:title>Matplotlib v3.8.3, https://matplotlib.org/</dc:title>
     </cc:Agent>
    </dc:creator>
   </cc:Work>
  </rdf:RDF>
 </metadata>
 <defs>
  <style type="text/css">*{stroke-linejoin: round; stroke-linecap: butt}</style>
 </defs>
 <g id="figure_1">
  <g id="patch_1">
   <path d="M 0 648 
L 1152 648 
L 1152 0 
L 0 0 
L 0 648 
z
" style="fill: none"/>
  </g>
  <g id="axes_1">
   <g id="line2d_1">
    <path d="M 189.136 521.602374 
L 190.14804 520.671682 
L 191.160081 519.75107 
L 192.172121 518.840429 
L 193.184162 517.939651 
L 194.196202 517.04863 
L 195.208242 516.16726 
L 196.220283 515.295436 
L 197.232323 514.433057 
L 198.244364 513.580018 
L 199.256404 512.736221 
L 200.268444 511.901563 
L 201.280485 511.075948 
L 202.292525 510.259277 
L 203.304566 509.451453 
L 204.316606 508.65238 
L 205.328646 507.861965 
L 206.340687 507.080113 
L 207.352727 506.306732 
L 208.364768 505.54173 
L 209.376808 504.785017 
L 210.388848 504.036503 
L 211.400889 503.296099 
L 212.412929 502.563717 
L 213.42497 501.839271 
L 214.43701 501.122675 
L 215.449051 500.413844 
L 216.461091 499.712694 
L 217.473131 499.019142 
L 218.485172 498.333106 
L 219.497212 497.654504 
L 220.509253 496.983256 
L 221.521293 496.319282 
L 222.533333 495.662504 
L 223.545374 495.012844 
L 224.557414 494.370225 
L 225.569455 493.73457 
L 226.581495 493.105804 
L 227.593535 492.483853 
L 228.605576 491.868643 
L 229.617616 491.260101 
L 230.629657 490.658155 
L 231.641697 490.062733 
L 232.653737 489.473765 
L 233.665778 488.891181 
L 234.677818 488.314912 
L 235.689859 487.744889 
L 236.701899 487.181045 
L 237.713939 486.623313 
L 238.72598 486.071627 
L 239.73802 485.525921 
L 240.750061 484.98613 
L 241.762101 484.452192 
L 242.774141 483.924041 
L 243.786182 483.401616 
L 244.798222 482.884855 
L 245.810263 482.373696 
L 246.822303 481.868078 
L 247.834343 481.367942 
L 248.846384 480.873228 
L 249.858424 480.383877 
L 250.870465 479.899832 
L 251.882505 479.421035 
L 252.894545 478.947429 
L 253.906586 478.478958 
L 254.918626 478.015566 
L 255.930667 477.557199 
L 256.942707 477.103801 
L 257.954747 476.655319 
L 258.966788 476.2117 
L 259.978828 475.772892 
L 260.990869 475.338841 
L 262.002909 474.909496 
L 263.014949 474.484807 
L 264.02699 474.064724 
L 265.03903 473.649195 
L 266.051071 473.238172 
L 267.063111 472.831606 
L 268.075152 472.429449 
L 269.087192 472.031653 
L 270.099232 471.63817 
L 271.111273 471.248955 
L 272.123313 470.86396 
L 273.135354 470.48314 
L 274.147394 470.106451 
L 275.159434 469.733846 
L 276.171475 469.365282 
L 277.183515 469.000714 
L 278.195556 468.640101 
L 279.207596 468.283398 
L 280.219636 467.930564 
L 281.231677 467.581557 
L 282.243717 467.236334 
L 283.255758 466.894856 
L 284.267798 466.557081 
L 285.279838 466.222969 
L 286.291879 465.892481 
L 287.303919 465.565578 
L 288.31596 465.24222 
L 289.328 464.922369 
" clip-path="url(#p776b9424ef)" style="fill: none; stroke: #f2f279; stroke-width: 3; stroke-linecap: round"/>
   </g>
   <g id="text_1">
    <path d="M 296.773605 465.622062 
L 298.379855 465.622062 
Q 299.165792 465.622062 299.597042 465.214249 
Q 300.029855 464.806437 300.029855 464.064249 
L 300.029855 461.973624 
Q 300.029855 461.231437 299.597042 460.823624 
Q 299.165792 460.415812 298.379855 460.415812 
L 296.773605 460.415812 
L 296.773605 459.468937 
L 298.350167 459.468937 
Q 299.204855 459.468937 299.809542 459.767374 
Q 300.415792 460.064249 300.73298 460.636124 
Q 301.050167 461.207999 301.050167 462.012687 
L 301.050167 464.025187 
Q 301.050167 464.829874 300.73298 465.401749 
Q 300.415792 465.973624 299.80798 466.272062 
Q 299.200167 466.568937 298.34548 466.568937 
L 296.773605 466.568937 
L 296.773605 465.622062 
z
M 296.100167 459.468937 
L 297.09548 459.468937 
L 297.09548 466.568937 
L 296.100167 466.568937 
L 296.100167 459.468937 
z
M 304.59548 466.642374 
Q 303.95173 466.642374 303.462667 466.398624 
Q 302.975167 466.153312 302.70798 465.706437 
Q 302.442355 465.259562 302.442355 464.668937 
L 302.442355 464.551749 
Q 302.442355 464.020499 302.70798 463.551749 
Q 302.975167 463.082999 303.418917 462.843937 
Q 303.042355 462.637687 302.815792 462.250187 
Q 302.58923 461.861124 302.58923 461.431437 
L 302.58923 461.261124 
Q 302.58923 460.704874 302.837667 460.282999 
Q 303.086105 459.859562 303.540792 459.628312 
Q 303.99548 459.395499 304.59548 459.395499 
Q 305.19548 459.395499 305.650167 459.628312 
Q 306.104855 459.859562 306.353292 460.282999 
Q 306.60173 460.704874 306.60173 461.261124 
L 306.60173 461.431437 
Q 306.60173 461.872062 306.37048 462.257999 
Q 306.13923 462.642374 305.75798 462.843937 
Q 306.206417 463.087687 306.47673 463.554874 
Q 306.748605 464.020499 306.748605 464.551749 
L 306.748605 464.668937 
Q 306.748605 465.259562 306.48298 465.706437 
Q 306.217355 466.153312 305.728292 466.398624 
Q 305.240792 466.642374 304.59548 466.642374 
z
M 304.59548 465.684562 
Q 304.942355 465.684562 305.204855 465.548624 
Q 305.468917 465.411124 305.612667 465.165812 
Q 305.75798 464.918937 305.75798 464.595499 
L 305.75798 464.528312 
Q 305.75798 464.200187 305.612667 463.954874 
Q 305.468917 463.707999 305.204855 463.572062 
Q 304.942355 463.434562 304.59548 463.434562 
Q 304.248605 463.434562 303.984542 463.572062 
Q 303.722042 463.707999 303.57673 463.956437 
Q 303.43298 464.204874 303.43298 464.532999 
L 303.43298 464.606437 
Q 303.43298 464.928312 303.57673 465.172062 
Q 303.722042 465.415812 303.984542 465.550187 
Q 304.248605 465.684562 304.59548 465.684562 
z
M 304.59548 462.476749 
Q 304.893917 462.476749 305.122042 462.348624 
Q 305.35173 462.218937 305.478292 461.979874 
Q 305.606417 461.739249 305.606417 461.426749 
L 305.606417 461.359562 
Q 305.606417 461.061124 305.478292 460.831437 
Q 305.35173 460.601749 305.122042 460.478312 
Q 304.893917 460.353312 304.59548 460.353312 
Q 304.297042 460.353312 304.067355 460.478312 
Q 303.83923 460.601749 303.711105 460.831437 
Q 303.584542 461.061124 303.584542 461.364249 
L 303.584542 461.437687 
Q 303.584542 461.743937 303.711105 461.981437 
Q 303.83923 462.218937 304.067355 462.348624 
Q 304.297042 462.476749 304.59548 462.476749 
z
M 310.167355 466.642374 
Q 309.17048 466.642374 308.654855 466.111124 
Q 308.140792 465.578312 308.140792 464.625187 
L 308.140792 461.398624 
Q 308.140792 460.440812 308.65798 459.911124 
Q 309.175167 459.381437 310.167355 459.381437 
Q 311.162667 459.381437 311.678292 459.909562 
Q 312.193917 460.436124 312.193917 461.398624 
L 312.193917 464.625187 
Q 312.193917 465.582999 311.675167 466.112687 
Q 311.15798 466.642374 310.167355 466.642374 
z
M 310.167355 465.695499 
Q 310.693917 465.695499 310.94548 465.418937 
Q 311.197042 465.142374 311.197042 464.625187 
L 311.197042 461.398624 
Q 311.197042 460.879874 310.947042 460.604874 
Q 310.698605 460.328312 310.167355 460.328312 
Q 309.634542 460.328312 309.384542 460.604874 
Q 309.136105 460.879874 309.136105 461.398624 
L 309.136105 464.625187 
Q 309.136105 465.142374 309.387667 465.418937 
Q 309.63923 465.695499 310.167355 465.695499 
z
M 315.684933 466.642374 
Q 314.688058 466.642374 314.172433 466.111124 
Q 313.658371 465.578312 313.658371 464.625187 
L 313.658371 461.398624 
Q 313.658371 460.440812 314.175558 459.911124 
Q 314.692746 459.381437 315.684933 459.381437 
Q 316.680246 459.381437 317.195871 459.909562 
Q 317.711496 460.436124 317.711496 461.398624 
L 317.711496 464.625187 
Q 317.711496 465.582999 317.192746 466.112687 
Q 316.675558 466.642374 315.684933 466.642374 
z
M 315.684933 465.695499 
Q 316.211496 465.695499 316.463058 465.418937 
Q 316.714621 465.142374 316.714621 464.625187 
L 316.714621 461.398624 
Q 316.714621 460.879874 316.464621 460.604874 
Q 316.216183 460.328312 315.684933 460.328312 
Q 315.152121 460.328312 314.902121 460.604874 
Q 314.653683 460.879874 314.653683 461.398624 
L 314.653683 464.625187 
Q 314.653683 465.142374 314.905246 465.418937 
Q 315.156808 465.695499 315.684933 465.695499 
z
M 321.715011 466.642374 
Q 320.929074 466.642374 320.369699 466.332999 
Q 319.810324 466.022062 319.516574 465.429874 
Q 319.224386 464.836124 319.224386 464.000187 
L 319.224386 459.468937 
L 320.221261 459.468937 
L 320.221261 464.034562 
Q 320.221261 464.811124 320.611886 465.236124 
Q 321.002511 465.661124 321.715011 465.661124 
Q 322.432199 465.661124 322.824386 465.236124 
Q 323.218136 464.811124 323.218136 464.034562 
L 323.218136 459.468937 
L 324.215011 459.468937 
L 324.215011 464.000187 
Q 324.215011 464.836124 323.921261 465.429874 
Q 323.629074 466.022062 323.066574 466.332999 
Q 322.505636 466.642374 321.715011 466.642374 
z
" style="fill: #ffffff; stroke: #000000"/>
    <path d="M 296.773605 465.622062 
L 298.379855 465.622062 
Q 299.165792 465.622062 299.597042 465.214249 
Q 300.029855 464.806437 300.029855 464.064249 
L 300.029855 461.973624 
Q 300.029855 461.231437 299.597042 460.823624 
Q 299.165792 460.415812 298.379855 460.415812 
L 296.773605 460.415812 
L 296.773605 459.468937 
L 298.350167 459.468937 
Q 299.204855 459.468937 299.809542 459.767374 
Q 300.415792 460.064249 300.73298 460.636124 
Q 301.050167 461.207999 301.050167 462.012687 
L 301.050167 464.025187 
Q 301.050167 464.829874 300.73298 465.401749 
Q 300.415792 465.973624 299.80798 466.272062 
Q 299.200167 466.568937 298.34548 466.568937 
L 296.773605 466.568937 
L 296.773605 465.622062 
z
M 296.100167 459.468937 
L 297.09548 459.468937 
L 297.09548 466.568937 
L 296.100167 466.568937 
L 296.100167 459.468937 
z
M 304.59548 466.642374 
Q 303.95173 466.642374 303.462667 466.398624 
Q 302.975167 466.153312 302.70798 465.706437 
Q 302.442355 465.259562 302.442355 464.668937 
L 302.442355 464.551749 
Q 302.442355 464.020499 302.70798 463.551749 
Q 302.975167 463.082999 303.418917 462.843937 
Q 303.042355 462.637687 302.815792 462.250187 
Q 302.58923 461.861124 302.58923 461.431437 
L 302.58923 461.261124 
Q 302.58923 460.704874 302.837667 460.282999 
Q 303.086105 459.859562 303.540792 459.628312 
Q 303.99548 459.395499 304.59548 459.395499 
Q 305.19548 459.395499 305.650167 459.628312 
Q 306.104855 459.859562 306.353292 460.282999 
Q 306.60173 460.704874 306.60173 461.261124 
L 306.60173 461.431437 
Q 306.60173 461.872062 306.37048 462.257999 
Q 306.13923 462.642374 305.75798 462.843937 
Q 306.206417 463.087687 306.47673 463.554874 
Q 306.748605 464.020499 306.748605 464.551749 
L 306.748605 464.668937 
Q 306.748605 465.259562 306.48298 465.706437 
Q 306.217355 466.153312 305.728292 466.398624 
Q 305.240792 466.642374 304.59548 466.642374 
z
M 304.59548 465.684562 
Q 304.942355 465.684562 305.204855 465.548624 
Q 305.468917 465.411124 305.612667 465.165812 
Q 305.75798 464.918937 305.75798 464.595499 
L 305.75798 464.528312 
Q 305.75798 464.200187 305.612667 463.954874 
Q 305.468917 463.707999 305.204855 463.572062 
Q 304.942355 463.434562 304.59548 463.434562 
Q 304.248605 463.434562 303.984542 463.572062 
Q 303.722042 463.707999 303.57673 463.956437 
Q 303.43298 464.204874 303.43298 464.532999 
L 303.43298 464.606437 
Q 303.43298 464.928312 303.57673 465.172062 
Q 303.722042 465.415812 303.984542 465.550187 
Q 304.248605 465.684562 304.59548 465.684562 
z
M 304.59548 462.476749 
Q 304.893917 462.476749 305.122042 462.348624 
Q 305.35173 462.218937 305.478292 461.979874 
Q 305.606417 461.739249 305.606417 461.426749 
L 305.606417 461.359562 
Q 305.606417 461.061124 305.478292 460.831437 
Q 305.35173 460.601749 305.122042 460.478312 
Q 304.893917 460.353312 304.59548 460.353312 
Q 304.297042 460.353312 304.067355 460.478312 
Q 303.83923 460.601749 303.711105 460.831437 
Q 303.584542 461.061124 303.584542 461.364249 
L 303.584542 461.437687 
Q 303.584542 461.743937 303.711105 461.981437 
Q 303.83923 462.218937 304.067355 462.348624 
Q 304.297042 462.476749 304.59548 462.476749 
z
M 310.167355 466.642374 
Q 309.17048 466.642374 308.654855 466.111124 
Q 308.140792 465.578312 308.140792 464.625187 
L 308.140792 461.398624 
Q 308.140792 460.440812 308.65798 459.911124 
Q 309.175167 459.381437 310.167355 459.381437 
Q 311.162667 459.381437 311.678292 459.909562 
Q 312.193917 460.436124 312.193917 461.398624 
L 312.193917 464.625187 
Q 312.193917 465.582999 311.675167 466.112687 
Q 311.15798 466.642374 310.167355 466.642374 
z
M 310.167355 465.695499 
Q 310.693917 465.695499 310.94548 465.418937 
Q 311.197042 465.142374 311.197042 464.625187 
L 311.197042 461.398624 
Q 311.197042 460.879874 310.947042 460.604874 
Q 310.698605 460.328312 310.167355 460.328312 
Q 309.634542 460.328312 309.384542 460.604874 
Q 309.136105 460.879874 309.136105 461.398624 
L 309.136105 464.625187 
Q 309.136105 465.142374 309.387667 465.418937 
Q 309.63923 465.695499 310.167355 465.695499 
z
M 315.684933 466.642374 
Q 314.688058 466.642374 314.172433 466.111124 
Q 313.658371 465.578312 313.658371 464.625187 
L 313.658371 461.398624 
Q 313.658371 460.440812 314.175558 459.911124 
Q 314.692746 459.381437 315.684933 459.381437 
Q 316.680246 459.381437 317.195871 459.909562 
Q 317.711496 460.436124 317.711496 461.398624 
L 317.711496 464.625187 
Q 317.711496 465.582999 317.192746 466.112687 
Q 316.675558 466.642374 315.684933 466.642374 
z
M 315.684933 465.695499 
Q 316.211496 465.695499 316.463058 465.418937 
Q 316.714621 465.142374 316.714621 464.625187 
L 316.714621 461.398624 
Q 316.714621 460.879874 316.464621 460.604874 
Q 316.216183 460.328312 315.684933 460.328312 
Q 315.152121 460.328312 314.902121 460.604874 
Q 314.653683 460.879874 314.653683 461.398624 
L 314.653683 464.625187 
Q 314.653683 465.142374 314.905246 465.418937 
Q 315.156808 465.695499 315.684933 465.695499 
z
M 321.715011 466.642374 
Q 320.929074 466.642374 320.369699 466.332999 
Q 319.810324 466.022062 319.516574 465.429874 
Q 319.224386 464.836124 319.224386 464.000187 
L 319.224386 459.468937 
L 320.221261 459.468937 
L 320.221261 464.034562 
Q 320.221261 464.811124 320.611886 465.236124 
Q 321.002511 465.661124 321.715011 465.661124 
Q 322.432199 465.661124 322.824386 465.236124 
Q 323.218136 464.811124 323.218136 464.034562 
L 323.218136 459.468937 
L 324.215011 459.468937 
L 324.215011 464.000187 
Q 324.215011 464.836124 323.921261 465.429874 
Q 323.629074 466.022062 323.066574 466.332999 
Q 322.505636 466.642374 321.715011 466.642374 
z
" style="fill: #ffffff"/>
   </g>
  </g>
 </g>
 <defs>
  <clipPath id="p776b9424ef">
   <rect x="144" y="77.76" width="892.8" height="498.96"/>
  </clipPath>
 </defs>
</svg>
