<?xml version="1.0" encoding="utf-8" standalone="no"?>
<!DOCTYPE svg PUBLIC "-//W3C//DTD SVG 1.1//EN"
  "http://www.w3.org/Graphics/SVG/1.1/DTD/svg11.dtd">
<svg xmlns:xlink="http://www.w3.org/1999/xlink" width="1152pt" height="648pt" viewBox="0 0 1152 648" xmlns="http://www.w3.org/2000/svg" version="1.1">
 <metadata>
  <rdf:RDF xmlns:dc="http://purl.org/dc/elements/1.1/" xmlns:cc="http://creativecommons.org/ns#" xmlns:rdf="http://www.w3.org/1999/02/22-rdf-syntax-ns#">
   <cc:Work>
    <dc:type rdf:resource="http://purl.org/dc/dcmitype/StillImage"/>
    <dc:date>2024-03-14T14:55:07.627450</dc:date>
    <dc:format>image/svg+xml</dc:format>
    <dc:creator>
     <cc:Agent>
      <dc:title>Matplotlib v3.8.3, https://matplotlib.org/</dc:title>
     </cc:Agent>
    </dc:creator>
   </cc:Work>
  </rdf:RDF>
 </metadata>
 <defs>
  <style type="text/css">*{stroke-linejoin: round; stroke-linecap: butt}</style>
 </defs>
 <g id="figure_1">
  <g id="patch_1">
   <path d="M 0 648 
L 1152 648 
L 1152 0 
L 0 0 
L 0 648 
z
" style="fill: none"/>
  </g>
  <g id="axes_1">
   <g id="line2d_1">
    <path d="M 232.784 440.622276 
L 239.507556 433.286802 
L 246.231111 426.125105 
L 252.954667 419.133071 
L 259.678222 412.306685 
L 266.401778 405.642027 
L 273.125333 399.135267 
L 279.848889 392.782668 
L 286.572444 386.580582 
L 293.296 380.525444 
L 300.019556 374.613776 
L 306.743111 368.842182 
L 313.466667 363.207344 
L 320.190222 357.706025 
L 326.913778 352.335064 
L 333.637333 347.091373 
L 340.360889 341.971939 
L 347.084444 336.973819 
L 353.808 332.094142 
L 360.531556 327.330101 
L 367.255111 322.678958 
L 373.978667 318.13804 
L 380.702222 313.704736 
L 387.425778 309.376496 
L 394.149333 305.150834 
L 400.872889 301.025318 
L 407.596444 296.997577 
L 414.32 293.065294 
L 421.043556 289.226209 
L 427.767111 285.478114 
L 434.490667 281.818854 
L 441.214222 278.246323 
L 447.937778 274.758468 
L 454.661333 271.353281 
L 461.384889 268.028806 
L 468.108444 264.783129 
L 474.832 261.614384 
L 481.555556 258.520747 
L 488.279111 255.50044 
L 495.002667 252.551725 
L 501.726222 249.672905 
L 508.449778 246.862325 
L 515.173333 244.118367 
L 521.896889 241.439453 
L 528.620444 238.824041 
L 535.344 236.270627 
L 542.067556 233.777742 
L 548.791111 231.343951 
L 555.514667 228.967854 
L 562.238222 226.648084 
L 568.961778 224.383306 
L 575.685333 222.172216 
L 582.408889 220.013542 
L 589.132444 217.906043 
L 595.856 215.848504 
L 602.579556 213.839743 
L 609.303111 211.878603 
L 616.026667 209.963955 
L 622.750222 208.094698 
L 629.473778 206.269755 
L 636.197333 204.488077 
L 642.920889 202.748638 
L 649.644444 201.050437 
L 656.368 199.392496 
L 663.091556 197.773862 
L 669.815111 196.193602 
L 676.538667 194.650806 
L 683.262222 193.144588 
L 689.985778 191.67408 
L 696.709333 190.238435 
L 703.432889 188.836826 
L 710.156444 187.468449 
L 716.88 186.132513 
L 723.603556 184.828251 
L 730.327111 183.554912 
L 737.050667 182.311762 
L 743.774222 181.098087 
L 750.497778 179.913186 
L 757.221333 178.756379 
L 763.944889 177.626999 
L 770.668444 176.524396 
L 777.392 175.447935 
L 784.115556 174.396997 
L 790.839111 173.370976 
L 797.562667 172.369282 
L 804.286222 171.391338 
L 811.009778 170.436581 
L 817.733333 169.504462 
L 824.456889 168.594443 
L 831.180444 167.706001 
L 837.904 166.838624 
L 844.627556 165.991812 
L 851.351111 165.165079 
L 858.074667 164.357948 
L 864.798222 163.569955 
L 871.521778 162.800645 
L 878.245333 162.049576 
L 884.968889 161.316316 
L 891.692444 160.600441 
L 898.416 159.901541 
" clip-path="url(#p805beb6f91)" style="fill: none; stroke: #30f2f2; stroke-width: 3; stroke-linecap: round"/>
   </g>
   <g id="text_1">
    <path d="M 907.32098 161.621547 
Q 906.80848 161.621547 906.349105 161.524672 
Q 905.891292 161.426234 905.492855 161.230922 
Q 905.094417 161.035609 904.747542 160.741859 
L 904.747542 160.741859 
L 905.367855 159.980922 
L 905.367855 159.980922 
Q 905.774105 160.332484 906.261605 160.509047 
Q 906.750667 160.684047 907.32098 160.684047 
Q 908.092855 160.684047 908.517855 160.398109 
Q 908.942855 160.112172 908.942855 159.590297 
L 908.942855 159.585609 
Q 908.942855 159.213734 908.749105 158.996547 
Q 908.556917 158.779359 908.250667 158.674672 
Q 907.94598 158.569984 907.463167 158.480922 
Q 907.447542 158.476234 907.430355 158.476234 
Q 907.41473 158.476234 907.399105 158.471547 
L 907.325667 158.457484 
Q 906.613167 158.335609 906.166292 158.182484 
Q 905.719417 158.027797 905.40223 157.619984 
Q 905.085042 157.212172 905.085042 156.460609 
L 905.085042 156.455922 
Q 905.085042 155.796547 905.380355 155.330922 
Q 905.675667 154.863734 906.241292 154.619984 
Q 906.80848 154.374672 907.603792 154.374672 
Q 907.985042 154.374672 908.353792 154.459047 
Q 908.722542 154.541859 909.080355 154.705922 
Q 909.43973 154.868422 909.786605 155.116859 
L 909.786605 155.116859 
L 909.22098 155.909047 
L 909.22098 155.909047 
Q 908.81473 155.610609 908.411605 155.462172 
Q 908.010042 155.312172 907.603792 155.312172 
Q 906.87723 155.312172 906.474105 155.602797 
Q 906.07098 155.893422 906.07098 156.426234 
L 906.07098 156.430922 
Q 906.07098 156.796547 906.278792 157.007484 
Q 906.486605 157.216859 906.79598 157.316859 
Q 907.106917 157.416859 907.65848 157.524672 
Q 907.67723 157.529359 907.694417 157.532484 
Q 907.711605 157.534047 907.731917 157.538734 
Q 907.755355 157.543422 907.785042 157.549672 
Q 907.81473 157.554359 907.838167 157.559047 
Q 908.48348 157.690297 908.91473 157.871547 
Q 909.347542 158.051234 909.638167 158.454359 
Q 909.928792 158.857484 909.928792 159.555922 
L 909.928792 159.565297 
Q 909.928792 160.215297 909.62098 160.676234 
Q 909.313167 161.137172 908.728792 161.379359 
Q 908.14598 161.621547 907.32098 161.621547 
z
M 912.018832 160.601234 
L 913.625082 160.601234 
Q 914.411019 160.601234 914.842269 160.193422 
Q 915.275082 159.785609 915.275082 159.043422 
L 915.275082 156.952797 
Q 915.275082 156.210609 914.842269 155.802797 
Q 914.411019 155.394984 913.625082 155.394984 
L 912.018832 155.394984 
L 912.018832 154.448109 
L 913.595394 154.448109 
Q 914.450082 154.448109 915.054769 154.746547 
Q 915.661019 155.043422 915.978207 155.615297 
Q 916.295394 156.187172 916.295394 156.991859 
L 916.295394 159.004359 
Q 916.295394 159.809047 915.978207 160.380922 
Q 915.661019 160.952797 915.053207 161.251234 
Q 914.445394 161.548109 913.590707 161.548109 
L 912.018832 161.548109 
L 912.018832 160.601234 
z
M 911.345394 154.448109 
L 912.340707 154.448109 
L 912.340707 161.548109 
L 911.345394 161.548109 
L 911.345394 154.448109 
z
M 919.840707 161.621547 
Q 919.196957 161.621547 918.707894 161.377797 
Q 918.220394 161.132484 917.953207 160.685609 
Q 917.687582 160.238734 917.687582 159.648109 
L 917.687582 159.530922 
Q 917.687582 158.999672 917.953207 158.530922 
Q 918.220394 158.062172 918.664144 157.823109 
Q 918.287582 157.616859 918.061019 157.229359 
Q 917.834457 156.840297 917.834457 156.410609 
L 917.834457 156.240297 
Q 917.834457 155.684047 918.082894 155.262172 
Q 918.331332 154.838734 918.786019 154.607484 
Q 919.240707 154.374672 919.840707 154.374672 
Q 920.440707 154.374672 920.895394 154.607484 
Q 921.350082 154.838734 921.598519 155.262172 
Q 921.846957 155.684047 921.846957 156.240297 
L 921.846957 156.410609 
Q 921.846957 156.851234 921.615707 157.237172 
Q 921.384457 157.621547 921.003207 157.823109 
Q 921.451644 158.066859 921.721957 158.534047 
Q 921.993832 158.999672 921.993832 159.530922 
L 921.993832 159.648109 
Q 921.993832 160.238734 921.728207 160.685609 
Q 921.462582 161.132484 920.973519 161.377797 
Q 920.486019 161.621547 919.840707 161.621547 
z
M 919.840707 160.663734 
Q 920.187582 160.663734 920.450082 160.527797 
Q 920.714144 160.390297 920.857894 160.144984 
Q 921.003207 159.898109 921.003207 159.574672 
L 921.003207 159.507484 
Q 921.003207 159.179359 920.857894 158.934047 
Q 920.714144 158.687172 920.450082 158.551234 
Q 920.187582 158.413734 919.840707 158.413734 
Q 919.493832 158.413734 919.229769 158.551234 
Q 918.967269 158.687172 918.821957 158.935609 
Q 918.678207 159.184047 918.678207 159.512172 
L 918.678207 159.585609 
Q 918.678207 159.907484 918.821957 160.151234 
Q 918.967269 160.394984 919.229769 160.529359 
Q 919.493832 160.663734 919.840707 160.663734 
z
M 919.840707 157.455922 
Q 920.139144 157.455922 920.367269 157.327797 
Q 920.596957 157.198109 920.723519 156.959047 
Q 920.851644 156.718422 920.851644 156.405922 
L 920.851644 156.338734 
Q 920.851644 156.040297 920.723519 155.810609 
Q 920.596957 155.580922 920.367269 155.457484 
Q 920.139144 155.332484 919.840707 155.332484 
Q 919.542269 155.332484 919.312582 155.457484 
Q 919.084457 155.580922 918.956332 155.810609 
Q 918.829769 156.040297 918.829769 156.343422 
L 918.829769 156.416859 
Q 918.829769 156.723109 918.956332 156.960609 
Q 919.084457 157.198109 919.312582 157.327797 
Q 919.542269 157.455922 919.840707 157.455922 
z
M 930.095003 157.724672 
L 930.095003 158.965297 
Q 930.095003 159.755922 929.787191 160.359047 
Q 929.479378 160.962172 928.915316 161.291859 
Q 928.351253 161.621547 927.609066 161.621547 
Q 926.857503 161.621547 926.288753 161.312172 
Q 925.720003 161.001234 925.407503 160.435609 
Q 925.095003 159.868422 925.095003 159.121547 
L 925.095003 157.026234 
Q 925.095003 156.235609 925.402816 155.635609 
Q 925.710628 155.034047 926.273128 154.704359 
Q 926.837191 154.374672 927.579378 154.374672 
Q 928.190316 154.374672 928.704378 154.637172 
Q 929.220003 154.898109 929.566878 155.376234 
Q 929.913753 155.854359 930.035628 156.484047 
L 930.035628 156.484047 
L 928.957503 156.484047 
L 928.957503 156.484047 
Q 928.868441 156.127797 928.659066 155.871547 
Q 928.449691 155.615297 928.165316 155.480922 
Q 927.882503 155.346547 927.579378 155.346547 
Q 927.140316 155.346547 926.807503 155.557484 
Q 926.476253 155.766859 926.295003 156.144984 
Q 926.115316 156.523109 926.115316 157.026234 
L 926.115316 159.121547 
Q 926.115316 159.580922 926.299691 159.924672 
Q 926.485628 160.268422 926.824691 160.459047 
Q 927.165316 160.649672 927.609066 160.649672 
Q 928.048128 160.649672 928.379378 160.452797 
Q 928.712191 160.254359 928.893441 159.879359 
Q 929.074691 159.502797 929.074691 158.984047 
L 929.074691 158.676234 
L 927.634066 158.676234 
L 927.634066 157.724672 
L 930.095003 157.724672 
z
M 933.683285 161.621547 
Q 932.98016 161.621547 932.481722 161.357484 
Q 931.984847 161.093422 931.722347 160.584047 
Q 931.46141 160.073109 931.46141 159.351234 
L 931.46141 158.779359 
Q 931.46141 158.027797 931.712972 157.496547 
Q 931.964535 156.963734 932.44266 156.685609 
Q 932.922347 156.405922 933.595785 156.405922 
Q 934.23016 156.405922 934.678597 156.724672 
Q 935.128597 157.041859 935.364535 157.641859 
Q 935.602035 158.241859 935.602035 159.082484 
L 935.602035 159.413734 
L 932.184847 159.413734 
L 932.184847 158.613734 
L 934.65516 158.613734 
L 934.65516 158.613734 
Q 934.61141 157.993422 934.334847 157.649672 
Q 934.059847 157.304359 933.595785 157.304359 
Q 933.028597 157.304359 932.719222 157.676234 
Q 932.409847 158.046547 932.409847 158.726234 
L 932.409847 159.369984 
Q 932.409847 159.999672 932.741097 160.337172 
Q 933.07391 160.674672 933.683285 160.674672 
Q 933.98641 160.674672 934.283285 160.552797 
Q 934.581722 160.429359 934.816097 160.210609 
L 934.816097 160.210609 
L 935.470785 160.863734 
L 935.470785 160.863734 
Q 935.094222 161.226234 934.625472 161.424672 
Q 934.156722 161.621547 933.683285 161.621547 
z
M 936.969613 156.479359 
L 937.966488 156.479359 
L 937.966488 161.548109 
L 936.969613 161.548109 
L 936.969613 156.479359 
z
M 940.046175 158.476234 
Q 940.046175 157.940297 939.76805 157.648109 
Q 939.489925 157.354359 938.9868 157.354359 
Q 938.497738 157.354359 938.232113 157.613734 
Q 937.966488 157.871547 937.966488 158.340297 
L 937.863363 157.363734 
Q 938.097738 156.904359 938.475863 156.655922 
Q 938.853988 156.405922 939.313363 156.405922 
Q 940.138363 156.405922 940.589925 156.946547 
Q 941.041488 157.485609 941.041488 158.471547 
L 941.041488 161.548109 
L 940.046175 161.548109 
L 940.046175 158.476234 
z
M 944.34305 161.621547 
Q 943.747738 161.621547 943.29305 161.404359 
Q 942.838363 161.187172 942.5618 160.774672 
Q 942.2868 160.362172 942.213363 159.780922 
L 942.213363 159.780922 
L 943.228988 159.780922 
L 943.228988 159.780922 
Q 943.272738 160.082484 943.419613 160.277797 
Q 943.566488 160.473109 943.797738 160.568422 
Q 944.03055 160.663734 944.34305 160.663734 
Q 944.835238 160.663734 945.108675 160.401234 
Q 945.382113 160.137172 945.382113 159.659047 
L 945.382113 159.443422 
Q 945.382113 158.910609 945.122738 158.621547 
Q 944.864925 158.330922 944.391488 158.330922 
L 943.888363 158.330922 
L 943.888363 157.382484 
L 944.391488 157.382484 
Q 944.807113 157.382484 945.035238 157.134047 
Q 945.264925 156.885609 945.264925 156.430922 
L 945.264925 156.210609 
Q 945.264925 155.791859 945.022738 155.562172 
Q 944.782113 155.332484 944.338363 155.332484 
Q 944.083675 155.332484 943.883675 155.427797 
Q 943.683675 155.523109 943.544613 155.721547 
Q 943.40555 155.918422 943.341488 156.215297 
L 943.341488 156.215297 
L 942.33055 156.215297 
L 942.33055 156.215297 
Q 942.428988 155.635609 942.6993 155.219984 
Q 942.971175 154.804359 943.385238 154.590297 
Q 943.800863 154.374672 944.338363 154.374672 
Q 945.25555 154.374672 945.758675 154.859047 
Q 946.2618 155.341859 946.2618 156.221547 
L 946.2618 156.338734 
Q 946.2618 156.869984 945.972738 157.265297 
Q 945.685238 157.660609 945.158675 157.841859 
Q 945.739925 157.968422 946.058675 158.413734 
Q 946.378988 158.857484 946.378988 159.546547 
L 946.378988 159.663734 
Q 946.378988 160.284047 946.139925 160.723109 
Q 945.900863 161.162172 945.44305 161.391859 
Q 944.9868 161.621547 944.34305 161.621547 
z
" style="fill: #ffffff; stroke: #000000"/>
    <path d="M 907.32098 161.621547 
Q 906.80848 161.621547 906.349105 161.524672 
Q 905.891292 161.426234 905.492855 161.230922 
Q 905.094417 161.035609 904.747542 160.741859 
L 904.747542 160.741859 
L 905.367855 159.980922 
L 905.367855 159.980922 
Q 905.774105 160.332484 906.261605 160.509047 
Q 906.750667 160.684047 907.32098 160.684047 
Q 908.092855 160.684047 908.517855 160.398109 
Q 908.942855 160.112172 908.942855 159.590297 
L 908.942855 159.585609 
Q 908.942855 159.213734 908.749105 158.996547 
Q 908.556917 158.779359 908.250667 158.674672 
Q 907.94598 158.569984 907.463167 158.480922 
Q 907.447542 158.476234 907.430355 158.476234 
Q 907.41473 158.476234 907.399105 158.471547 
L 907.325667 158.457484 
Q 906.613167 158.335609 906.166292 158.182484 
Q 905.719417 158.027797 905.40223 157.619984 
Q 905.085042 157.212172 905.085042 156.460609 
L 905.085042 156.455922 
Q 905.085042 155.796547 905.380355 155.330922 
Q 905.675667 154.863734 906.241292 154.619984 
Q 906.80848 154.374672 907.603792 154.374672 
Q 907.985042 154.374672 908.353792 154.459047 
Q 908.722542 154.541859 909.080355 154.705922 
Q 909.43973 154.868422 909.786605 155.116859 
L 909.786605 155.116859 
L 909.22098 155.909047 
L 909.22098 155.909047 
Q 908.81473 155.610609 908.411605 155.462172 
Q 908.010042 155.312172 907.603792 155.312172 
Q 906.87723 155.312172 906.474105 155.602797 
Q 906.07098 155.893422 906.07098 156.426234 
L 906.07098 156.430922 
Q 906.07098 156.796547 906.278792 157.007484 
Q 906.486605 157.216859 906.79598 157.316859 
Q 907.106917 157.416859 907.65848 157.524672 
Q 907.67723 157.529359 907.694417 157.532484 
Q 907.711605 157.534047 907.731917 157.538734 
Q 907.755355 157.543422 907.785042 157.549672 
Q 907.81473 157.554359 907.838167 157.559047 
Q 908.48348 157.690297 908.91473 157.871547 
Q 909.347542 158.051234 909.638167 158.454359 
Q 909.928792 158.857484 909.928792 159.555922 
L 909.928792 159.565297 
Q 909.928792 160.215297 909.62098 160.676234 
Q 909.313167 161.137172 908.728792 161.379359 
Q 908.14598 161.621547 907.32098 161.621547 
z
M 912.018832 160.601234 
L 913.625082 160.601234 
Q 914.411019 160.601234 914.842269 160.193422 
Q 915.275082 159.785609 915.275082 159.043422 
L 915.275082 156.952797 
Q 915.275082 156.210609 914.842269 155.802797 
Q 914.411019 155.394984 913.625082 155.394984 
L 912.018832 155.394984 
L 912.018832 154.448109 
L 913.595394 154.448109 
Q 914.450082 154.448109 915.054769 154.746547 
Q 915.661019 155.043422 915.978207 155.615297 
Q 916.295394 156.187172 916.295394 156.991859 
L 916.295394 159.004359 
Q 916.295394 159.809047 915.978207 160.380922 
Q 915.661019 160.952797 915.053207 161.251234 
Q 914.445394 161.548109 913.590707 161.548109 
L 912.018832 161.548109 
L 912.018832 160.601234 
z
M 911.345394 154.448109 
L 912.340707 154.448109 
L 912.340707 161.548109 
L 911.345394 161.548109 
L 911.345394 154.448109 
z
M 919.840707 161.621547 
Q 919.196957 161.621547 918.707894 161.377797 
Q 918.220394 161.132484 917.953207 160.685609 
Q 917.687582 160.238734 917.687582 159.648109 
L 917.687582 159.530922 
Q 917.687582 158.999672 917.953207 158.530922 
Q 918.220394 158.062172 918.664144 157.823109 
Q 918.287582 157.616859 918.061019 157.229359 
Q 917.834457 156.840297 917.834457 156.410609 
L 917.834457 156.240297 
Q 917.834457 155.684047 918.082894 155.262172 
Q 918.331332 154.838734 918.786019 154.607484 
Q 919.240707 154.374672 919.840707 154.374672 
Q 920.440707 154.374672 920.895394 154.607484 
Q 921.350082 154.838734 921.598519 155.262172 
Q 921.846957 155.684047 921.846957 156.240297 
L 921.846957 156.410609 
Q 921.846957 156.851234 921.615707 157.237172 
Q 921.384457 157.621547 921.003207 157.823109 
Q 921.451644 158.066859 921.721957 158.534047 
Q 921.993832 158.999672 921.993832 159.530922 
L 921.993832 159.648109 
Q 921.993832 160.238734 921.728207 160.685609 
Q 921.462582 161.132484 920.973519 161.377797 
Q 920.486019 161.621547 919.840707 161.621547 
z
M 919.840707 160.663734 
Q 920.187582 160.663734 920.450082 160.527797 
Q 920.714144 160.390297 920.857894 160.144984 
Q 921.003207 159.898109 921.003207 159.574672 
L 921.003207 159.507484 
Q 921.003207 159.179359 920.857894 158.934047 
Q 920.714144 158.687172 920.450082 158.551234 
Q 920.187582 158.413734 919.840707 158.413734 
Q 919.493832 158.413734 919.229769 158.551234 
Q 918.967269 158.687172 918.821957 158.935609 
Q 918.678207 159.184047 918.678207 159.512172 
L 918.678207 159.585609 
Q 918.678207 159.907484 918.821957 160.151234 
Q 918.967269 160.394984 919.229769 160.529359 
Q 919.493832 160.663734 919.840707 160.663734 
z
M 919.840707 157.455922 
Q 920.139144 157.455922 920.367269 157.327797 
Q 920.596957 157.198109 920.723519 156.959047 
Q 920.851644 156.718422 920.851644 156.405922 
L 920.851644 156.338734 
Q 920.851644 156.040297 920.723519 155.810609 
Q 920.596957 155.580922 920.367269 155.457484 
Q 920.139144 155.332484 919.840707 155.332484 
Q 919.542269 155.332484 919.312582 155.457484 
Q 919.084457 155.580922 918.956332 155.810609 
Q 918.829769 156.040297 918.829769 156.343422 
L 918.829769 156.416859 
Q 918.829769 156.723109 918.956332 156.960609 
Q 919.084457 157.198109 919.312582 157.327797 
Q 919.542269 157.455922 919.840707 157.455922 
z
M 930.095003 157.724672 
L 930.095003 158.965297 
Q 930.095003 159.755922 929.787191 160.359047 
Q 929.479378 160.962172 928.915316 161.291859 
Q 928.351253 161.621547 927.609066 161.621547 
Q 926.857503 161.621547 926.288753 161.312172 
Q 925.720003 161.001234 925.407503 160.435609 
Q 925.095003 159.868422 925.095003 159.121547 
L 925.095003 157.026234 
Q 925.095003 156.235609 925.402816 155.635609 
Q 925.710628 155.034047 926.273128 154.704359 
Q 926.837191 154.374672 927.579378 154.374672 
Q 928.190316 154.374672 928.704378 154.637172 
Q 929.220003 154.898109 929.566878 155.376234 
Q 929.913753 155.854359 930.035628 156.484047 
L 930.035628 156.484047 
L 928.957503 156.484047 
L 928.957503 156.484047 
Q 928.868441 156.127797 928.659066 155.871547 
Q 928.449691 155.615297 928.165316 155.480922 
Q 927.882503 155.346547 927.579378 155.346547 
Q 927.140316 155.346547 926.807503 155.557484 
Q 926.476253 155.766859 926.295003 156.144984 
Q 926.115316 156.523109 926.115316 157.026234 
L 926.115316 159.121547 
Q 926.115316 159.580922 926.299691 159.924672 
Q 926.485628 160.268422 926.824691 160.459047 
Q 927.165316 160.649672 927.609066 160.649672 
Q 928.048128 160.649672 928.379378 160.452797 
Q 928.712191 160.254359 928.893441 159.879359 
Q 929.074691 159.502797 929.074691 158.984047 
L 929.074691 158.676234 
L 927.634066 158.676234 
L 927.634066 157.724672 
L 930.095003 157.724672 
z
M 933.683285 161.621547 
Q 932.98016 161.621547 932.481722 161.357484 
Q 931.984847 161.093422 931.722347 160.584047 
Q 931.46141 160.073109 931.46141 159.351234 
L 931.46141 158.779359 
Q 931.46141 158.027797 931.712972 157.496547 
Q 931.964535 156.963734 932.44266 156.685609 
Q 932.922347 156.405922 933.595785 156.405922 
Q 934.23016 156.405922 934.678597 156.724672 
Q 935.128597 157.041859 935.364535 157.641859 
Q 935.602035 158.241859 935.602035 159.082484 
L 935.602035 159.413734 
L 932.184847 159.413734 
L 932.184847 158.613734 
L 934.65516 158.613734 
L 934.65516 158.613734 
Q 934.61141 157.993422 934.334847 157.649672 
Q 934.059847 157.304359 933.595785 157.304359 
Q 933.028597 157.304359 932.719222 157.676234 
Q 932.409847 158.046547 932.409847 158.726234 
L 932.409847 159.369984 
Q 932.409847 159.999672 932.741097 160.337172 
Q 933.07391 160.674672 933.683285 160.674672 
Q 933.98641 160.674672 934.283285 160.552797 
Q 934.581722 160.429359 934.816097 160.210609 
L 934.816097 160.210609 
L 935.470785 160.863734 
L 935.470785 160.863734 
Q 935.094222 161.226234 934.625472 161.424672 
Q 934.156722 161.621547 933.683285 161.621547 
z
M 936.969613 156.479359 
L 937.966488 156.479359 
L 937.966488 161.548109 
L 936.969613 161.548109 
L 936.969613 156.479359 
z
M 940.046175 158.476234 
Q 940.046175 157.940297 939.76805 157.648109 
Q 939.489925 157.354359 938.9868 157.354359 
Q 938.497738 157.354359 938.232113 157.613734 
Q 937.966488 157.871547 937.966488 158.340297 
L 937.863363 157.363734 
Q 938.097738 156.904359 938.475863 156.655922 
Q 938.853988 156.405922 939.313363 156.405922 
Q 940.138363 156.405922 940.589925 156.946547 
Q 941.041488 157.485609 941.041488 158.471547 
L 941.041488 161.548109 
L 940.046175 161.548109 
L 940.046175 158.476234 
z
M 944.34305 161.621547 
Q 943.747738 161.621547 943.29305 161.404359 
Q 942.838363 161.187172 942.5618 160.774672 
Q 942.2868 160.362172 942.213363 159.780922 
L 942.213363 159.780922 
L 943.228988 159.780922 
L 943.228988 159.780922 
Q 943.272738 160.082484 943.419613 160.277797 
Q 943.566488 160.473109 943.797738 160.568422 
Q 944.03055 160.663734 944.34305 160.663734 
Q 944.835238 160.663734 945.108675 160.401234 
Q 945.382113 160.137172 945.382113 159.659047 
L 945.382113 159.443422 
Q 945.382113 158.910609 945.122738 158.621547 
Q 944.864925 158.330922 944.391488 158.330922 
L 943.888363 158.330922 
L 943.888363 157.382484 
L 944.391488 157.382484 
Q 944.807113 157.382484 945.035238 157.134047 
Q 945.264925 156.885609 945.264925 156.430922 
L 945.264925 156.210609 
Q 945.264925 155.791859 945.022738 155.562172 
Q 944.782113 155.332484 944.338363 155.332484 
Q 944.083675 155.332484 943.883675 155.427797 
Q 943.683675 155.523109 943.544613 155.721547 
Q 943.40555 155.918422 943.341488 156.215297 
L 943.341488 156.215297 
L 942.33055 156.215297 
L 942.33055 156.215297 
Q 942.428988 155.635609 942.6993 155.219984 
Q 942.971175 154.804359 943.385238 154.590297 
Q 943.800863 154.374672 944.338363 154.374672 
Q 945.25555 154.374672 945.758675 154.859047 
Q 946.2618 155.341859 946.2618 156.221547 
L 946.2618 156.338734 
Q 946.2618 156.869984 945.972738 157.265297 
Q 945.685238 157.660609 945.158675 157.841859 
Q 945.739925 157.968422 946.058675 158.413734 
Q 946.378988 158.857484 946.378988 159.546547 
L 946.378988 159.663734 
Q 946.378988 160.284047 946.139925 160.723109 
Q 945.900863 161.162172 945.44305 161.391859 
Q 944.9868 161.621547 944.34305 161.621547 
z
" style="fill: #ffffff"/>
   </g>
  </g>
 </g>
 <defs>
  <clipPath id="p805beb6f91">
   <rect x="144" y="77.76" width="892.8" height="498.96"/>
  </clipPath>
 </defs>
</svg>
