<?xml version="1.0" encoding="utf-8" standalone="no"?>
<!DOCTYPE svg PUBLIC "-//W3C//DTD SVG 1.1//EN"
  "http://www.w3.org/Graphics/SVG/1.1/DTD/svg11.dtd">
<svg xmlns:xlink="http://www.w3.org/1999/xlink" width="1152pt" height="648pt" viewBox="0 0 1152 648" xmlns="http://www.w3.org/2000/svg" version="1.1">
 <metadata>
  <rdf:RDF xmlns:dc="http://purl.org/dc/elements/1.1/" xmlns:cc="http://creativecommons.org/ns#" xmlns:rdf="http://www.w3.org/1999/02/22-rdf-syntax-ns#">
   <cc:Work>
    <dc:type rdf:resource="http://purl.org/dc/dcmitype/StillImage"/>
    <dc:date>2024-03-14T14:55:08.154787</dc:date>
    <dc:format>image/svg+xml</dc:format>
    <dc:creator>
     <cc:Agent>
      <dc:title>Matplotlib v3.8.3, https://matplotlib.org/</dc:title>
     </cc:Agent>
    </dc:creator>
   </cc:Work>
  </rdf:RDF>
 </metadata>
 <defs>
  <style type="text/css">*{stroke-linejoin: round; stroke-linecap: butt}</style>
 </defs>
 <g id="figure_1">
  <g id="patch_1">
   <path d="M 0 648 
L 1152 648 
L 1152 0 
L 0 0 
L 0 648 
z
" style="fill: none"/>
  </g>
  <g id="axes_1">
   <g id="line2d_1">
    <path d="M 206.496 527.66169 
L 207.628283 526.897972 
L 208.760566 526.145242 
L 209.892848 525.403343 
L 211.025131 524.672119 
L 212.157414 523.951417 
L 213.289697 523.241086 
L 214.42198 522.540977 
L 215.554263 521.850944 
L 216.686545 521.170843 
L 217.818828 520.500529 
L 218.951111 519.839863 
L 220.083394 519.188707 
L 221.215677 518.546924 
L 222.34796 517.914379 
L 223.480242 517.29094 
L 224.612525 516.676475 
L 225.744808 516.070857 
L 226.877091 515.473957 
L 228.009374 514.885652 
L 229.141657 514.305816 
L 230.273939 513.734329 
L 231.406222 513.171071 
L 232.538505 512.615923 
L 233.670788 512.068769 
L 234.803071 511.529494 
L 235.935354 510.997985 
L 237.067636 510.47413 
L 238.199919 509.957819 
L 239.332202 509.448944 
L 240.464485 508.947398 
L 241.596768 508.453076 
L 242.729051 507.965873 
L 243.861333 507.485687 
L 244.993616 507.012419 
L 246.125899 506.545967 
L 247.258182 506.086234 
L 248.390465 505.633123 
L 249.522747 505.18654 
L 250.65503 504.74639 
L 251.787313 504.312581 
L 252.919596 503.885021 
L 254.051879 503.463621 
L 255.184162 503.048293 
L 256.316444 502.638948 
L 257.448727 502.235501 
L 258.58101 501.837866 
L 259.713293 501.445961 
L 260.845576 501.059703 
L 261.977859 500.67901 
L 263.110141 500.303803 
L 264.242424 499.934003 
L 265.374707 499.569531 
L 266.50699 499.210312 
L 267.639273 498.856269 
L 268.771556 498.507328 
L 269.903838 498.163415 
L 271.036121 497.824459 
L 272.168404 497.490388 
L 273.300687 497.161131 
L 274.43297 496.83662 
L 275.565253 496.516786 
L 276.697535 496.201561 
L 277.829818 495.89088 
L 278.962101 495.584677 
L 280.094384 495.282887 
L 281.226667 494.985447 
L 282.358949 494.692294 
L 283.491232 494.403367 
L 284.623515 494.118604 
L 285.755798 493.837947 
L 286.888081 493.561335 
L 288.020364 493.28871 
L 289.152646 493.020015 
L 290.284929 492.755194 
L 291.417212 492.494191 
L 292.549495 492.23695 
L 293.681778 491.983417 
L 294.814061 491.73354 
L 295.946343 491.487264 
L 297.078626 491.24454 
L 298.210909 491.005314 
L 299.343192 490.769538 
L 300.475475 490.537161 
L 301.607758 490.308134 
L 302.74004 490.08241 
L 303.872323 489.85994 
L 305.004606 489.640677 
L 306.136889 489.424576 
L 307.269172 489.211591 
L 308.401455 489.001676 
L 309.533737 488.794789 
L 310.66602 488.590884 
L 311.798303 488.38992 
L 312.930586 488.191853 
L 314.062869 487.996643 
L 315.195152 487.804247 
L 316.327434 487.614626 
L 317.459717 487.427739 
L 318.592 487.243546 
" clip-path="url(#pa8b1b5703b)" style="fill: none; stroke: #7130f2; stroke-width: 3; stroke-linecap: round"/>
   </g>
   <g id="text_1">
    <path d="M 327.49698 488.963552 
Q 326.98448 488.963552 326.525105 488.866677 
Q 326.067292 488.768239 325.668855 488.572927 
Q 325.270417 488.377614 324.923542 488.083864 
L 324.923542 488.083864 
L 325.543855 487.322927 
L 325.543855 487.322927 
Q 325.950105 487.674489 326.437605 487.851052 
Q 326.926667 488.026052 327.49698 488.026052 
Q 328.268855 488.026052 328.693855 487.740114 
Q 329.118855 487.454177 329.118855 486.932302 
L 329.118855 486.927614 
Q 329.118855 486.555739 328.925105 486.338552 
Q 328.732917 486.121364 328.426667 486.016677 
Q 328.12198 485.911989 327.639167 485.822927 
Q 327.623542 485.818239 327.606355 485.818239 
Q 327.59073 485.818239 327.575105 485.813552 
L 327.501667 485.799489 
Q 326.789167 485.677614 326.342292 485.524489 
Q 325.895417 485.369802 325.57823 484.961989 
Q 325.261042 484.554177 325.261042 483.802614 
L 325.261042 483.797927 
Q 325.261042 483.138552 325.556355 482.672927 
Q 325.851667 482.205739 326.417292 481.961989 
Q 326.98448 481.716677 327.779792 481.716677 
Q 328.161042 481.716677 328.529792 481.801052 
Q 328.898542 481.883864 329.256355 482.047927 
Q 329.61573 482.210427 329.962605 482.458864 
L 329.962605 482.458864 
L 329.39698 483.251052 
L 329.39698 483.251052 
Q 328.99073 482.952614 328.587605 482.804177 
Q 328.186042 482.654177 327.779792 482.654177 
Q 327.05323 482.654177 326.650105 482.944802 
Q 326.24698 483.235427 326.24698 483.768239 
L 326.24698 483.772927 
Q 326.24698 484.138552 326.454792 484.349489 
Q 326.662605 484.558864 326.97198 484.658864 
Q 327.282917 484.758864 327.83448 484.866677 
Q 327.85323 484.871364 327.870417 484.874489 
Q 327.887605 484.876052 327.907917 484.880739 
Q 327.931355 484.885427 327.961042 484.891677 
Q 327.99073 484.896364 328.014167 484.901052 
Q 328.65948 485.032302 329.09073 485.213552 
Q 329.523542 485.393239 329.814167 485.796364 
Q 330.104792 486.199489 330.104792 486.897927 
L 330.104792 486.907302 
Q 330.104792 487.557302 329.79698 488.018239 
Q 329.489167 488.479177 328.904792 488.721364 
Q 328.32198 488.963552 327.49698 488.963552 
z
M 332.194832 487.943239 
L 333.801082 487.943239 
Q 334.587019 487.943239 335.018269 487.535427 
Q 335.451082 487.127614 335.451082 486.385427 
L 335.451082 484.294802 
Q 335.451082 483.552614 335.018269 483.144802 
Q 334.587019 482.736989 333.801082 482.736989 
L 332.194832 482.736989 
L 332.194832 481.790114 
L 333.771394 481.790114 
Q 334.626082 481.790114 335.230769 482.088552 
Q 335.837019 482.385427 336.154207 482.957302 
Q 336.471394 483.529177 336.471394 484.333864 
L 336.471394 486.346364 
Q 336.471394 487.151052 336.154207 487.722927 
Q 335.837019 488.294802 335.229207 488.593239 
Q 334.621394 488.890114 333.766707 488.890114 
L 332.194832 488.890114 
L 332.194832 487.943239 
z
M 331.521394 481.790114 
L 332.516707 481.790114 
L 332.516707 488.890114 
L 331.521394 488.890114 
L 331.521394 481.790114 
z
M 339.768269 488.963552 
Q 339.143269 488.963552 338.697957 488.711989 
Q 338.254207 488.460427 338.021394 487.979177 
Q 337.790144 487.497927 337.790144 486.819802 
L 337.790144 486.815114 
Q 337.790144 486.419802 337.882332 485.985427 
Q 337.976082 485.549489 338.151082 485.130739 
Q 338.180769 485.057302 338.215144 484.986989 
Q 338.249519 484.915114 338.283894 484.846364 
L 339.826082 481.790114 
L 340.901082 481.790114 
L 339.088582 485.330739 
L 339.093269 485.154177 
Q 339.216707 484.924489 339.451082 484.797927 
Q 339.685457 484.671364 339.997957 484.671364 
Q 340.549519 484.671364 340.944832 484.921364 
Q 341.340144 485.169802 341.544832 485.646364 
Q 341.749519 486.121364 341.749519 486.790114 
L 341.749519 486.794802 
Q 341.749519 487.479177 341.518269 487.968239 
Q 341.287019 488.455739 340.840144 488.710427 
Q 340.393269 488.963552 339.768269 488.963552 
z
M 339.768269 488.005739 
Q 340.241707 488.005739 340.497957 487.713552 
Q 340.754207 487.419802 340.754207 486.877614 
L 340.754207 486.872927 
Q 340.754207 486.277614 340.485457 485.952614 
Q 340.216707 485.627614 339.718269 485.627614 
Q 339.274519 485.627614 339.030769 485.955739 
Q 338.787019 486.282302 338.787019 486.877614 
L 338.787019 486.883864 
Q 338.787019 487.424489 339.043269 487.715114 
Q 339.299519 488.005739 339.768269 488.005739 
z
M 344.900105 488.963552 
Q 344.275105 488.963552 343.829792 488.711989 
Q 343.386042 488.460427 343.15323 487.979177 
Q 342.92198 487.497927 342.92198 486.819802 
L 342.92198 486.815114 
Q 342.92198 486.419802 343.014167 485.985427 
Q 343.107917 485.549489 343.282917 485.130739 
Q 343.312605 485.057302 343.34698 484.986989 
Q 343.381355 484.915114 343.41573 484.846364 
L 344.957917 481.790114 
L 346.032917 481.790114 
L 344.220417 485.330739 
L 344.225105 485.154177 
Q 344.348542 484.924489 344.582917 484.797927 
Q 344.817292 484.671364 345.129792 484.671364 
Q 345.681355 484.671364 346.076667 484.921364 
Q 346.47198 485.169802 346.676667 485.646364 
Q 346.881355 486.121364 346.881355 486.790114 
L 346.881355 486.794802 
Q 346.881355 487.479177 346.650105 487.968239 
Q 346.418855 488.455739 345.97198 488.710427 
Q 345.525105 488.963552 344.900105 488.963552 
z
M 344.900105 488.005739 
Q 345.373542 488.005739 345.629792 487.713552 
Q 345.886042 487.419802 345.886042 486.877614 
L 345.886042 486.872927 
Q 345.886042 486.277614 345.617292 485.952614 
Q 345.348542 485.627614 344.850105 485.627614 
Q 344.406355 485.627614 344.162605 485.955739 
Q 343.918855 486.282302 343.918855 486.877614 
L 343.918855 486.883864 
Q 343.918855 487.424489 344.175105 487.715114 
Q 344.431355 488.005739 344.900105 488.005739 
z
M 348.092878 488.026052 
L 350.567878 484.724489 
Q 350.783503 484.441677 350.902253 484.136989 
Q 351.022566 483.830739 351.022566 483.568239 
L 351.022566 483.557302 
Q 351.022566 483.133864 350.772566 482.899489 
Q 350.524128 482.665114 350.066316 482.665114 
Q 349.630378 482.665114 349.361628 482.921364 
Q 349.094441 483.177614 349.035066 483.646364 
L 349.035066 483.651052 
L 348.005378 483.651052 
L 348.005378 483.646364 
Q 348.092878 483.035427 348.363191 482.604177 
Q 348.635066 482.171364 349.064753 481.944802 
Q 349.494441 481.716677 350.055378 481.716677 
Q 350.691316 481.716677 351.139753 481.933864 
Q 351.589753 482.151052 351.824128 482.566677 
Q 352.058503 482.982302 352.058503 483.568239 
L 352.058503 483.572927 
Q 352.058503 483.947927 351.902253 484.358864 
Q 351.746003 484.768239 351.466316 485.149489 
L 349.411628 487.943239 
L 352.097566 487.943239 
L 352.097566 488.890114 
L 348.092878 488.890114 
L 348.092878 488.026052 
z
" style="fill: #ffffff; stroke: #000000"/>
    <path d="M 327.49698 488.963552 
Q 326.98448 488.963552 326.525105 488.866677 
Q 326.067292 488.768239 325.668855 488.572927 
Q 325.270417 488.377614 324.923542 488.083864 
L 324.923542 488.083864 
L 325.543855 487.322927 
L 325.543855 487.322927 
Q 325.950105 487.674489 326.437605 487.851052 
Q 326.926667 488.026052 327.49698 488.026052 
Q 328.268855 488.026052 328.693855 487.740114 
Q 329.118855 487.454177 329.118855 486.932302 
L 329.118855 486.927614 
Q 329.118855 486.555739 328.925105 486.338552 
Q 328.732917 486.121364 328.426667 486.016677 
Q 328.12198 485.911989 327.639167 485.822927 
Q 327.623542 485.818239 327.606355 485.818239 
Q 327.59073 485.818239 327.575105 485.813552 
L 327.501667 485.799489 
Q 326.789167 485.677614 326.342292 485.524489 
Q 325.895417 485.369802 325.57823 484.961989 
Q 325.261042 484.554177 325.261042 483.802614 
L 325.261042 483.797927 
Q 325.261042 483.138552 325.556355 482.672927 
Q 325.851667 482.205739 326.417292 481.961989 
Q 326.98448 481.716677 327.779792 481.716677 
Q 328.161042 481.716677 328.529792 481.801052 
Q 328.898542 481.883864 329.256355 482.047927 
Q 329.61573 482.210427 329.962605 482.458864 
L 329.962605 482.458864 
L 329.39698 483.251052 
L 329.39698 483.251052 
Q 328.99073 482.952614 328.587605 482.804177 
Q 328.186042 482.654177 327.779792 482.654177 
Q 327.05323 482.654177 326.650105 482.944802 
Q 326.24698 483.235427 326.24698 483.768239 
L 326.24698 483.772927 
Q 326.24698 484.138552 326.454792 484.349489 
Q 326.662605 484.558864 326.97198 484.658864 
Q 327.282917 484.758864 327.83448 484.866677 
Q 327.85323 484.871364 327.870417 484.874489 
Q 327.887605 484.876052 327.907917 484.880739 
Q 327.931355 484.885427 327.961042 484.891677 
Q 327.99073 484.896364 328.014167 484.901052 
Q 328.65948 485.032302 329.09073 485.213552 
Q 329.523542 485.393239 329.814167 485.796364 
Q 330.104792 486.199489 330.104792 486.897927 
L 330.104792 486.907302 
Q 330.104792 487.557302 329.79698 488.018239 
Q 329.489167 488.479177 328.904792 488.721364 
Q 328.32198 488.963552 327.49698 488.963552 
z
M 332.194832 487.943239 
L 333.801082 487.943239 
Q 334.587019 487.943239 335.018269 487.535427 
Q 335.451082 487.127614 335.451082 486.385427 
L 335.451082 484.294802 
Q 335.451082 483.552614 335.018269 483.144802 
Q 334.587019 482.736989 333.801082 482.736989 
L 332.194832 482.736989 
L 332.194832 481.790114 
L 333.771394 481.790114 
Q 334.626082 481.790114 335.230769 482.088552 
Q 335.837019 482.385427 336.154207 482.957302 
Q 336.471394 483.529177 336.471394 484.333864 
L 336.471394 486.346364 
Q 336.471394 487.151052 336.154207 487.722927 
Q 335.837019 488.294802 335.229207 488.593239 
Q 334.621394 488.890114 333.766707 488.890114 
L 332.194832 488.890114 
L 332.194832 487.943239 
z
M 331.521394 481.790114 
L 332.516707 481.790114 
L 332.516707 488.890114 
L 331.521394 488.890114 
L 331.521394 481.790114 
z
M 339.768269 488.963552 
Q 339.143269 488.963552 338.697957 488.711989 
Q 338.254207 488.460427 338.021394 487.979177 
Q 337.790144 487.497927 337.790144 486.819802 
L 337.790144 486.815114 
Q 337.790144 486.419802 337.882332 485.985427 
Q 337.976082 485.549489 338.151082 485.130739 
Q 338.180769 485.057302 338.215144 484.986989 
Q 338.249519 484.915114 338.283894 484.846364 
L 339.826082 481.790114 
L 340.901082 481.790114 
L 339.088582 485.330739 
L 339.093269 485.154177 
Q 339.216707 484.924489 339.451082 484.797927 
Q 339.685457 484.671364 339.997957 484.671364 
Q 340.549519 484.671364 340.944832 484.921364 
Q 341.340144 485.169802 341.544832 485.646364 
Q 341.749519 486.121364 341.749519 486.790114 
L 341.749519 486.794802 
Q 341.749519 487.479177 341.518269 487.968239 
Q 341.287019 488.455739 340.840144 488.710427 
Q 340.393269 488.963552 339.768269 488.963552 
z
M 339.768269 488.005739 
Q 340.241707 488.005739 340.497957 487.713552 
Q 340.754207 487.419802 340.754207 486.877614 
L 340.754207 486.872927 
Q 340.754207 486.277614 340.485457 485.952614 
Q 340.216707 485.627614 339.718269 485.627614 
Q 339.274519 485.627614 339.030769 485.955739 
Q 338.787019 486.282302 338.787019 486.877614 
L 338.787019 486.883864 
Q 338.787019 487.424489 339.043269 487.715114 
Q 339.299519 488.005739 339.768269 488.005739 
z
M 344.900105 488.963552 
Q 344.275105 488.963552 343.829792 488.711989 
Q 343.386042 488.460427 343.15323 487.979177 
Q 342.92198 487.497927 342.92198 486.819802 
L 342.92198 486.815114 
Q 342.92198 486.419802 343.014167 485.985427 
Q 343.107917 485.549489 343.282917 485.130739 
Q 343.312605 485.057302 343.34698 484.986989 
Q 343.381355 484.915114 343.41573 484.846364 
L 344.957917 481.790114 
L 346.032917 481.790114 
L 344.220417 485.330739 
L 344.225105 485.154177 
Q 344.348542 484.924489 344.582917 484.797927 
Q 344.817292 484.671364 345.129792 484.671364 
Q 345.681355 484.671364 346.076667 484.921364 
Q 346.47198 485.169802 346.676667 485.646364 
Q 346.881355 486.121364 346.881355 486.790114 
L 346.881355 486.794802 
Q 346.881355 487.479177 346.650105 487.968239 
Q 346.418855 488.455739 345.97198 488.710427 
Q 345.525105 488.963552 344.900105 488.963552 
z
M 344.900105 488.005739 
Q 345.373542 488.005739 345.629792 487.713552 
Q 345.886042 487.419802 345.886042 486.877614 
L 345.886042 486.872927 
Q 345.886042 486.277614 345.617292 485.952614 
Q 345.348542 485.627614 344.850105 485.627614 
Q 344.406355 485.627614 344.162605 485.955739 
Q 343.918855 486.282302 343.918855 486.877614 
L 343.918855 486.883864 
Q 343.918855 487.424489 344.175105 487.715114 
Q 344.431355 488.005739 344.900105 488.005739 
z
M 348.092878 488.026052 
L 350.567878 484.724489 
Q 350.783503 484.441677 350.902253 484.136989 
Q 351.022566 483.830739 351.022566 483.568239 
L 351.022566 483.557302 
Q 351.022566 483.133864 350.772566 482.899489 
Q 350.524128 482.665114 350.066316 482.665114 
Q 349.630378 482.665114 349.361628 482.921364 
Q 349.094441 483.177614 349.035066 483.646364 
L 349.035066 483.651052 
L 348.005378 483.651052 
L 348.005378 483.646364 
Q 348.092878 483.035427 348.363191 482.604177 
Q 348.635066 482.171364 349.064753 481.944802 
Q 349.494441 481.716677 350.055378 481.716677 
Q 350.691316 481.716677 351.139753 481.933864 
Q 351.589753 482.151052 351.824128 482.566677 
Q 352.058503 482.982302 352.058503 483.568239 
L 352.058503 483.572927 
Q 352.058503 483.947927 351.902253 484.358864 
Q 351.746003 484.768239 351.466316 485.149489 
L 349.411628 487.943239 
L 352.097566 487.943239 
L 352.097566 488.890114 
L 348.092878 488.890114 
L 348.092878 488.026052 
z
" style="fill: #ffffff"/>
   </g>
  </g>
 </g>
 <defs>
  <clipPath id="pa8b1b5703b">
   <rect x="144" y="77.76" width="892.8" height="498.96"/>
  </clipPath>
 </defs>
</svg>
