<?xml version="1.0" encoding="utf-8" standalone="no"?>
<!DOCTYPE svg PUBLIC "-//W3C//DTD SVG 1.1//EN"
  "http://www.w3.org/Graphics/SVG/1.1/DTD/svg11.dtd">
<svg xmlns:xlink="http://www.w3.org/1999/xlink" width="1152pt" height="648pt" viewBox="0 0 1152 648" xmlns="http://www.w3.org/2000/svg" version="1.1">
 <metadata>
  <rdf:RDF xmlns:dc="http://purl.org/dc/elements/1.1/" xmlns:cc="http://creativecommons.org/ns#" xmlns:rdf="http://www.w3.org/1999/02/22-rdf-syntax-ns#">
   <cc:Work>
    <dc:type rdf:resource="http://purl.org/dc/dcmitype/StillImage"/>
    <dc:date>2024-03-14T14:55:08.423930</dc:date>
    <dc:format>image/svg+xml</dc:format>
    <dc:creator>
     <cc:Agent>
      <dc:title>Matplotlib v3.8.3, https://matplotlib.org/</dc:title>
     </cc:Agent>
    </dc:creator>
   </cc:Work>
  </rdf:RDF>
 </metadata>
 <defs>
  <style type="text/css">*{stroke-linejoin: round; stroke-linecap: butt}</style>
 </defs>
 <g id="figure_1">
  <g id="patch_1">
   <path d="M 0 648 
L 1152 648 
L 1152 0 
L 0 0 
L 0 648 
z
" style="fill: none"/>
  </g>
  <g id="axes_1">
   <g id="line2d_1">
    <path d="M 210.96 473.112487 
L 216.065293 468.022116 
L 221.170586 463.012826 
L 226.275879 458.085577 
L 231.381172 453.241201 
L 236.486465 448.480409 
L 241.591758 443.803789 
L 246.697051 439.21181 
L 251.802343 434.70483 
L 256.907636 430.283091 
L 262.012929 425.946731 
L 267.118222 421.695782 
L 272.223515 417.530177 
L 277.328808 413.449752 
L 282.434101 409.454253 
L 287.539394 405.543337 
L 292.644687 401.716579 
L 297.74998 397.973474 
L 302.855273 394.313442 
L 307.960566 390.735835 
L 313.065859 387.239937 
L 318.171152 383.82497 
L 323.276444 380.490099 
L 328.381737 377.234436 
L 333.48703 374.057044 
L 338.592323 370.956938 
L 343.697616 367.933095 
L 348.802909 364.98445 
L 353.908202 362.109907 
L 359.013495 359.308338 
L 364.118788 356.578588 
L 369.224081 353.919478 
L 374.329374 351.329809 
L 379.434667 348.808361 
L 384.53996 346.353903 
L 389.645253 343.965189 
L 394.750545 341.640964 
L 399.855838 339.379968 
L 404.961131 337.180933 
L 410.066424 335.042589 
L 415.171717 332.963669 
L 420.27701 330.942902 
L 425.382303 328.979026 
L 430.487596 327.070778 
L 435.592889 325.216908 
L 440.698182 323.416169 
L 445.803475 321.667326 
L 450.908768 319.969154 
L 456.014061 318.32044 
L 461.119354 316.719985 
L 466.224646 315.166603 
L 471.329939 313.659123 
L 476.435232 312.19639 
L 481.540525 310.777264 
L 486.645818 309.400624 
L 491.751111 308.065365 
L 496.856404 306.770402 
L 501.961697 305.514667 
L 507.06699 304.29711 
L 512.172283 303.116702 
L 517.277576 301.972433 
L 522.382869 300.863312 
L 527.488162 299.788368 
L 532.593455 298.74665 
L 537.698747 297.737228 
L 542.80404 296.759189 
L 547.909333 295.811643 
L 553.014626 294.893718 
L 558.119919 294.004563 
L 563.225212 293.143346 
L 568.330505 292.309255 
L 573.435798 291.501496 
L 578.541091 290.719296 
L 583.646384 289.9619 
L 588.751677 289.228573 
L 593.85697 288.518596 
L 598.962263 287.831272 
L 604.067556 287.165918 
L 609.172848 286.521872 
L 614.278141 285.898488 
L 619.383434 285.295138 
L 624.488727 284.711209 
L 629.59402 284.146107 
L 634.699313 283.599252 
L 639.804606 283.070083 
L 644.909899 282.558051 
L 650.015192 282.062625 
L 655.120485 281.583288 
L 660.225778 281.119538 
L 665.331071 280.670886 
L 670.436364 280.23686 
L 675.541657 279.816999 
L 680.646949 279.410856 
L 685.752242 279.017997 
L 690.857535 278.638002 
L 695.962828 278.270462 
L 701.068121 277.914981 
L 706.173414 277.571174 
L 711.278707 277.238669 
L 716.384 276.917103 
" clip-path="url(#pb53a3e1251)" style="fill: none; stroke: #f27130; stroke-width: 3; stroke-linecap: round"/>
   </g>
   <g id="text_1">
    <path d="M 723.829605 277.616796 
L 725.435855 277.616796 
Q 726.221792 277.616796 726.653042 277.208984 
Q 727.085855 276.801171 727.085855 276.058984 
L 727.085855 273.968359 
Q 727.085855 273.226171 726.653042 272.818359 
Q 726.221792 272.410546 725.435855 272.410546 
L 723.829605 272.410546 
L 723.829605 271.463671 
L 725.406167 271.463671 
Q 726.260855 271.463671 726.865542 271.762109 
Q 727.471792 272.058984 727.78898 272.630859 
Q 728.106167 273.202734 728.106167 274.007421 
L 728.106167 276.019921 
Q 728.106167 276.824609 727.78898 277.396484 
Q 727.471792 277.968359 726.86398 278.266796 
Q 726.256167 278.563671 725.40148 278.563671 
L 723.829605 278.563671 
L 723.829605 277.616796 
z
M 723.156167 271.463671 
L 724.15148 271.463671 
L 724.15148 278.563671 
L 723.156167 278.563671 
L 723.156167 271.463671 
z
M 732.085855 275.038671 
L 732.081167 275.213671 
Q 731.959292 275.438671 731.712417 275.543359 
Q 731.465542 275.648046 731.129605 275.648046 
Q 730.621792 275.648046 730.235855 275.390234 
Q 729.849917 275.130859 729.637417 274.660546 
Q 729.424917 274.188671 729.424917 273.568359 
L 729.424917 273.563671 
Q 729.424917 272.874609 729.656167 272.387109 
Q 729.88898 271.898046 730.335855 271.644921 
Q 730.78273 271.390234 731.40773 271.390234 
Q 732.03273 271.390234 732.47648 271.649609 
Q 732.921792 271.908984 733.153042 272.402734 
Q 733.384292 272.894921 733.384292 273.588671 
L 733.384292 273.593359 
Q 733.384292 273.973046 733.285855 274.405859 
Q 733.18898 274.838671 733.009292 275.262109 
Q 732.979605 275.326171 732.949917 275.391796 
Q 732.921792 275.457421 732.887417 275.521484 
L 731.373355 278.563671 
L 730.298355 278.563671 
L 732.085855 275.038671 
z
M 731.40773 274.740234 
Q 731.87648 274.740234 732.13273 274.423046 
Q 732.38898 274.105859 732.38898 273.529296 
L 732.38898 273.524609 
Q 732.38898 272.963671 732.13273 272.655859 
Q 731.87648 272.348046 731.40773 272.348046 
Q 730.934292 272.348046 730.678042 272.655859 
Q 730.421792 272.963671 730.421792 273.529296 
L 730.421792 273.533984 
Q 730.421792 274.110546 730.678042 274.426171 
Q 730.934292 274.740234 731.40773 274.740234 
z
M 734.595816 277.699609 
L 737.070816 274.398046 
Q 737.286441 274.115234 737.405191 273.810546 
Q 737.525503 273.504296 737.525503 273.241796 
L 737.525503 273.230859 
Q 737.525503 272.807421 737.275503 272.573046 
Q 737.027066 272.338671 736.569253 272.338671 
Q 736.133316 272.338671 735.864566 272.594921 
Q 735.597378 272.851171 735.538003 273.319921 
L 735.538003 273.324609 
L 734.508316 273.324609 
L 734.508316 273.319921 
Q 734.595816 272.708984 734.866128 272.277734 
Q 735.138003 271.844921 735.567691 271.618359 
Q 735.997378 271.390234 736.558316 271.390234 
Q 737.194253 271.390234 737.642691 271.607421 
Q 738.092691 271.824609 738.327066 272.240234 
Q 738.561441 272.655859 738.561441 273.241796 
L 738.561441 273.246484 
Q 738.561441 273.621484 738.405191 274.032421 
Q 738.248941 274.441796 737.969253 274.823046 
L 735.914566 277.616796 
L 738.600503 277.616796 
L 738.600503 278.563671 
L 734.595816 278.563671 
L 734.595816 277.699609 
z
M 741.896207 278.637109 
Q 740.899332 278.637109 740.383707 278.105859 
Q 739.869644 277.573046 739.869644 276.619921 
L 739.869644 273.393359 
Q 739.869644 272.435546 740.386832 271.905859 
Q 740.904019 271.376171 741.896207 271.376171 
Q 742.891519 271.376171 743.407144 271.904296 
Q 743.922769 272.430859 743.922769 273.393359 
L 743.922769 276.619921 
Q 743.922769 277.577734 743.404019 278.107421 
Q 742.886832 278.637109 741.896207 278.637109 
z
M 741.896207 277.690234 
Q 742.422769 277.690234 742.674332 277.413671 
Q 742.925894 277.137109 742.925894 276.619921 
L 742.925894 273.393359 
Q 742.925894 272.874609 742.675894 272.599609 
Q 742.427457 272.323046 741.896207 272.323046 
Q 741.363394 272.323046 741.113394 272.599609 
Q 740.864957 272.874609 740.864957 273.393359 
L 740.864957 276.619921 
Q 740.864957 277.137109 741.116519 277.413671 
Q 741.368082 277.690234 741.896207 277.690234 
z
M 747.413785 278.637109 
Q 746.41691 278.637109 745.901285 278.105859 
Q 745.387222 277.573046 745.387222 276.619921 
L 745.387222 273.393359 
Q 745.387222 272.435546 745.90441 271.905859 
Q 746.421597 271.376171 747.413785 271.376171 
Q 748.409097 271.376171 748.924722 271.904296 
Q 749.440347 272.430859 749.440347 273.393359 
L 749.440347 276.619921 
Q 749.440347 277.577734 748.921597 278.107421 
Q 748.40441 278.637109 747.413785 278.637109 
z
M 747.413785 277.690234 
Q 747.940347 277.690234 748.19191 277.413671 
Q 748.443472 277.137109 748.443472 276.619921 
L 748.443472 273.393359 
Q 748.443472 272.874609 748.193472 272.599609 
Q 747.945035 272.323046 747.413785 272.323046 
Q 746.880972 272.323046 746.630972 272.599609 
Q 746.382535 272.874609 746.382535 273.393359 
L 746.382535 276.619921 
Q 746.382535 277.137109 746.634097 277.413671 
Q 746.88566 277.690234 747.413785 277.690234 
z
M 754.820425 274.818359 
L 754.820425 275.765234 
L 750.856363 275.765234 
L 750.856363 274.818359 
L 754.820425 274.818359 
z
M 753.33605 277.274609 
L 752.340738 277.274609 
L 752.340738 273.308984 
L 753.33605 273.308984 
L 753.33605 277.274609 
z
" style="fill: #ffffff; stroke: #000000"/>
    <path d="M 723.829605 277.616796 
L 725.435855 277.616796 
Q 726.221792 277.616796 726.653042 277.208984 
Q 727.085855 276.801171 727.085855 276.058984 
L 727.085855 273.968359 
Q 727.085855 273.226171 726.653042 272.818359 
Q 726.221792 272.410546 725.435855 272.410546 
L 723.829605 272.410546 
L 723.829605 271.463671 
L 725.406167 271.463671 
Q 726.260855 271.463671 726.865542 271.762109 
Q 727.471792 272.058984 727.78898 272.630859 
Q 728.106167 273.202734 728.106167 274.007421 
L 728.106167 276.019921 
Q 728.106167 276.824609 727.78898 277.396484 
Q 727.471792 277.968359 726.86398 278.266796 
Q 726.256167 278.563671 725.40148 278.563671 
L 723.829605 278.563671 
L 723.829605 277.616796 
z
M 723.156167 271.463671 
L 724.15148 271.463671 
L 724.15148 278.563671 
L 723.156167 278.563671 
L 723.156167 271.463671 
z
M 732.085855 275.038671 
L 732.081167 275.213671 
Q 731.959292 275.438671 731.712417 275.543359 
Q 731.465542 275.648046 731.129605 275.648046 
Q 730.621792 275.648046 730.235855 275.390234 
Q 729.849917 275.130859 729.637417 274.660546 
Q 729.424917 274.188671 729.424917 273.568359 
L 729.424917 273.563671 
Q 729.424917 272.874609 729.656167 272.387109 
Q 729.88898 271.898046 730.335855 271.644921 
Q 730.78273 271.390234 731.40773 271.390234 
Q 732.03273 271.390234 732.47648 271.649609 
Q 732.921792 271.908984 733.153042 272.402734 
Q 733.384292 272.894921 733.384292 273.588671 
L 733.384292 273.593359 
Q 733.384292 273.973046 733.285855 274.405859 
Q 733.18898 274.838671 733.009292 275.262109 
Q 732.979605 275.326171 732.949917 275.391796 
Q 732.921792 275.457421 732.887417 275.521484 
L 731.373355 278.563671 
L 730.298355 278.563671 
L 732.085855 275.038671 
z
M 731.40773 274.740234 
Q 731.87648 274.740234 732.13273 274.423046 
Q 732.38898 274.105859 732.38898 273.529296 
L 732.38898 273.524609 
Q 732.38898 272.963671 732.13273 272.655859 
Q 731.87648 272.348046 731.40773 272.348046 
Q 730.934292 272.348046 730.678042 272.655859 
Q 730.421792 272.963671 730.421792 273.529296 
L 730.421792 273.533984 
Q 730.421792 274.110546 730.678042 274.426171 
Q 730.934292 274.740234 731.40773 274.740234 
z
M 734.595816 277.699609 
L 737.070816 274.398046 
Q 737.286441 274.115234 737.405191 273.810546 
Q 737.525503 273.504296 737.525503 273.241796 
L 737.525503 273.230859 
Q 737.525503 272.807421 737.275503 272.573046 
Q 737.027066 272.338671 736.569253 272.338671 
Q 736.133316 272.338671 735.864566 272.594921 
Q 735.597378 272.851171 735.538003 273.319921 
L 735.538003 273.324609 
L 734.508316 273.324609 
L 734.508316 273.319921 
Q 734.595816 272.708984 734.866128 272.277734 
Q 735.138003 271.844921 735.567691 271.618359 
Q 735.997378 271.390234 736.558316 271.390234 
Q 737.194253 271.390234 737.642691 271.607421 
Q 738.092691 271.824609 738.327066 272.240234 
Q 738.561441 272.655859 738.561441 273.241796 
L 738.561441 273.246484 
Q 738.561441 273.621484 738.405191 274.032421 
Q 738.248941 274.441796 737.969253 274.823046 
L 735.914566 277.616796 
L 738.600503 277.616796 
L 738.600503 278.563671 
L 734.595816 278.563671 
L 734.595816 277.699609 
z
M 741.896207 278.637109 
Q 740.899332 278.637109 740.383707 278.105859 
Q 739.869644 277.573046 739.869644 276.619921 
L 739.869644 273.393359 
Q 739.869644 272.435546 740.386832 271.905859 
Q 740.904019 271.376171 741.896207 271.376171 
Q 742.891519 271.376171 743.407144 271.904296 
Q 743.922769 272.430859 743.922769 273.393359 
L 743.922769 276.619921 
Q 743.922769 277.577734 743.404019 278.107421 
Q 742.886832 278.637109 741.896207 278.637109 
z
M 741.896207 277.690234 
Q 742.422769 277.690234 742.674332 277.413671 
Q 742.925894 277.137109 742.925894 276.619921 
L 742.925894 273.393359 
Q 742.925894 272.874609 742.675894 272.599609 
Q 742.427457 272.323046 741.896207 272.323046 
Q 741.363394 272.323046 741.113394 272.599609 
Q 740.864957 272.874609 740.864957 273.393359 
L 740.864957 276.619921 
Q 740.864957 277.137109 741.116519 277.413671 
Q 741.368082 277.690234 741.896207 277.690234 
z
M 747.413785 278.637109 
Q 746.41691 278.637109 745.901285 278.105859 
Q 745.387222 277.573046 745.387222 276.619921 
L 745.387222 273.393359 
Q 745.387222 272.435546 745.90441 271.905859 
Q 746.421597 271.376171 747.413785 271.376171 
Q 748.409097 271.376171 748.924722 271.904296 
Q 749.440347 272.430859 749.440347 273.393359 
L 749.440347 276.619921 
Q 749.440347 277.577734 748.921597 278.107421 
Q 748.40441 278.637109 747.413785 278.637109 
z
M 747.413785 277.690234 
Q 747.940347 277.690234 748.19191 277.413671 
Q 748.443472 277.137109 748.443472 276.619921 
L 748.443472 273.393359 
Q 748.443472 272.874609 748.193472 272.599609 
Q 747.945035 272.323046 747.413785 272.323046 
Q 746.880972 272.323046 746.630972 272.599609 
Q 746.382535 272.874609 746.382535 273.393359 
L 746.382535 276.619921 
Q 746.382535 277.137109 746.634097 277.413671 
Q 746.88566 277.690234 747.413785 277.690234 
z
M 754.820425 274.818359 
L 754.820425 275.765234 
L 750.856363 275.765234 
L 750.856363 274.818359 
L 754.820425 274.818359 
z
M 753.33605 277.274609 
L 752.340738 277.274609 
L 752.340738 273.308984 
L 753.33605 273.308984 
L 753.33605 277.274609 
z
" style="fill: #ffffff"/>
   </g>
  </g>
 </g>
 <defs>
  <clipPath id="pb53a3e1251">
   <rect x="144" y="77.76" width="892.8" height="498.96"/>
  </clipPath>
 </defs>
</svg>
