<?xml version="1.0" encoding="utf-8" standalone="no"?>
<!DOCTYPE svg PUBLIC "-//W3C//DTD SVG 1.1//EN"
  "http://www.w3.org/Graphics/SVG/1.1/DTD/svg11.dtd">
<svg xmlns:xlink="http://www.w3.org/1999/xlink" width="1152pt" height="648pt" viewBox="0 0 1152 648" xmlns="http://www.w3.org/2000/svg" version="1.1">
 <metadata>
  <rdf:RDF xmlns:dc="http://purl.org/dc/elements/1.1/" xmlns:cc="http://creativecommons.org/ns#" xmlns:rdf="http://www.w3.org/1999/02/22-rdf-syntax-ns#">
   <cc:Work>
    <dc:type rdf:resource="http://purl.org/dc/dcmitype/StillImage"/>
    <dc:date>2024-03-14T14:55:08.802294</dc:date>
    <dc:format>image/svg+xml</dc:format>
    <dc:creator>
     <cc:Agent>
      <dc:title>Matplotlib v3.8.3, https://matplotlib.org/</dc:title>
     </cc:Agent>
    </dc:creator>
   </cc:Work>
  </rdf:RDF>
 </metadata>
 <defs>
  <style type="text/css">*{stroke-linejoin: round; stroke-linecap: butt}</style>
 </defs>
 <g id="figure_1">
  <g id="patch_1">
   <path d="M 0 648 
L 1152 648 
L 1152 0 
L 0 0 
L 0 648 
z
" style="fill: none"/>
  </g>
  <g id="axes_1">
   <g id="line2d_1">
    <path d="M 184.176 522.573901 
L 185.137939 521.509194 
L 186.099879 520.458616 
L 187.061818 519.421982 
L 188.023758 518.399107 
L 188.985697 517.389807 
L 189.947636 516.393904 
L 190.909576 515.41122 
L 191.871515 514.44158 
L 192.833455 513.484811 
L 193.795394 512.540741 
L 194.757333 511.609204 
L 195.719273 510.690033 
L 196.681212 509.783064 
L 197.643152 508.888135 
L 198.605091 508.005087 
L 199.56703 507.133762 
L 200.52897 506.274005 
L 201.490909 505.425663 
L 202.452848 504.588583 
L 203.414788 503.762618 
L 204.376727 502.947619 
L 205.338667 502.143441 
L 206.300606 501.349941 
L 207.262545 500.566977 
L 208.224485 499.794409 
L 209.186424 499.0321 
L 210.148364 498.279913 
L 211.110303 497.537714 
L 212.072242 496.805372 
L 213.034182 496.082754 
L 213.996121 495.369732 
L 214.958061 494.666179 
L 215.92 493.97197 
L 216.881939 493.286979 
L 217.843879 492.611086 
L 218.805818 491.944169 
L 219.767758 491.286109 
L 220.729697 490.636789 
L 221.691636 489.996093 
L 222.653576 489.363907 
L 223.615515 488.740116 
L 224.577455 488.124611 
L 225.539394 487.517281 
L 226.501333 486.918018 
L 227.463273 486.326715 
L 228.425212 485.743265 
L 229.387152 485.167566 
L 230.349091 484.599513 
L 231.31103 484.039007 
L 232.27297 483.485945 
L 233.234909 482.94023 
L 234.196848 482.401764 
L 235.158788 481.870452 
L 236.120727 481.346197 
L 237.082667 480.828906 
L 238.044606 480.318488 
L 239.006545 479.81485 
L 239.968485 479.317902 
L 240.930424 478.827557 
L 241.892364 478.343726 
L 242.854303 477.866322 
L 243.816242 477.395261 
L 244.778182 476.930459 
L 245.740121 476.471831 
L 246.702061 476.019297 
L 247.664 475.572775 
L 248.625939 475.132185 
L 249.587879 474.69745 
L 250.549818 474.26849 
L 251.511758 473.845229 
L 252.473697 473.427593 
L 253.435636 473.015505 
L 254.397576 472.608893 
L 255.359515 472.207683 
L 256.321455 471.811804 
L 257.283394 471.421185 
L 258.245333 471.035757 
L 259.207273 470.65545 
L 260.169212 470.280196 
L 261.131152 469.909929 
L 262.093091 469.544581 
L 263.05503 469.184089 
L 264.01697 468.828386 
L 264.978909 468.47741 
L 265.940848 468.131098 
L 266.902788 467.789388 
L 267.864727 467.452219 
L 268.826667 467.11953 
L 269.788606 466.791262 
L 270.750545 466.467357 
L 271.712485 466.147756 
L 272.674424 465.832402 
L 273.636364 465.521238 
L 274.598303 465.21421 
L 275.560242 464.911262 
L 276.522182 464.61234 
L 277.484121 464.317391 
L 278.446061 464.026361 
L 279.408 463.739199 
" clip-path="url(#p6e3185b4f3)" style="fill: none; stroke: #f2f230; stroke-width: 3; stroke-linecap: round"/>
   </g>
   <g id="text_1">
    <path d="M 286.853605 464.438892 
L 288.459855 464.438892 
Q 289.245792 464.438892 289.677042 464.031079 
Q 290.109855 463.623267 290.109855 462.881079 
L 290.109855 460.790454 
Q 290.109855 460.048267 289.677042 459.640454 
Q 289.245792 459.232642 288.459855 459.232642 
L 286.853605 459.232642 
L 286.853605 458.285767 
L 288.430167 458.285767 
Q 289.284855 458.285767 289.889543 458.584204 
Q 290.495792 458.881079 290.81298 459.452954 
Q 291.130167 460.024829 291.130167 460.829517 
L 291.130167 462.842017 
Q 291.130167 463.646704 290.81298 464.218579 
Q 290.495792 464.790454 289.88798 465.088892 
Q 289.280168 465.385767 288.42548 465.385767 
L 286.853605 465.385767 
L 286.853605 464.438892 
z
M 286.180167 458.285767 
L 287.17548 458.285767 
L 287.17548 465.385767 
L 286.180167 465.385767 
L 286.180167 458.285767 
z
M 294.67548 465.459204 
Q 294.03173 465.459204 293.542667 465.215454 
Q 293.055167 464.970142 292.78798 464.523267 
Q 292.522355 464.076392 292.522355 463.485767 
L 292.522355 463.368579 
Q 292.522355 462.837329 292.78798 462.368579 
Q 293.055167 461.899829 293.498918 461.660767 
Q 293.122355 461.454517 292.895792 461.067017 
Q 292.66923 460.677954 292.66923 460.248267 
L 292.66923 460.077954 
Q 292.66923 459.521704 292.917667 459.099829 
Q 293.166105 458.676392 293.620792 458.445142 
Q 294.07548 458.212329 294.67548 458.212329 
Q 295.27548 458.212329 295.730167 458.445142 
Q 296.184855 458.676392 296.433292 459.099829 
Q 296.68173 459.521704 296.68173 460.077954 
L 296.68173 460.248267 
Q 296.68173 460.688892 296.45048 461.074829 
Q 296.21923 461.459204 295.83798 461.660767 
Q 296.286417 461.904517 296.55673 462.371704 
Q 296.828605 462.837329 296.828605 463.368579 
L 296.828605 463.485767 
Q 296.828605 464.076392 296.56298 464.523267 
Q 296.297355 464.970142 295.808292 465.215454 
Q 295.320792 465.459204 294.67548 465.459204 
z
M 294.67548 464.501392 
Q 295.022355 464.501392 295.284855 464.365454 
Q 295.548918 464.227954 295.692667 463.982642 
Q 295.83798 463.735767 295.83798 463.412329 
L 295.83798 463.345142 
Q 295.83798 463.017017 295.692667 462.771704 
Q 295.548918 462.524829 295.284855 462.388892 
Q 295.022355 462.251392 294.67548 462.251392 
Q 294.328605 462.251392 294.064543 462.388892 
Q 293.802042 462.524829 293.65673 462.773267 
Q 293.51298 463.021704 293.51298 463.349829 
L 293.51298 463.423267 
Q 293.51298 463.745142 293.65673 463.988892 
Q 293.802042 464.232642 294.064543 464.367017 
Q 294.328605 464.501392 294.67548 464.501392 
z
M 294.67548 461.293579 
Q 294.973917 461.293579 295.202043 461.165454 
Q 295.43173 461.035767 295.558292 460.796704 
Q 295.686418 460.556079 295.686418 460.243579 
L 295.686418 460.176392 
Q 295.686418 459.877954 295.558292 459.648267 
Q 295.43173 459.418579 295.202043 459.295142 
Q 294.973917 459.170142 294.67548 459.170142 
Q 294.377043 459.170142 294.147355 459.295142 
Q 293.91923 459.418579 293.791105 459.648267 
Q 293.664542 459.877954 293.664542 460.181079 
L 293.664542 460.254517 
Q 293.664542 460.560767 293.791105 460.798267 
Q 293.91923 461.035767 294.147355 461.165454 
Q 294.377043 461.293579 294.67548 461.293579 
z
M 299.934855 465.385767 
L 298.93798 465.385767 
L 298.93798 459.370142 
L 297.927042 459.990454 
L 297.927042 458.959204 
L 298.93798 458.285767 
L 299.934855 458.285767 
L 299.934855 465.385767 
z
M 303.57255 465.459204 
Q 302.575675 465.459204 302.06005 464.927954 
Q 301.545988 464.395142 301.545988 463.442017 
L 301.545988 460.215454 
Q 301.545988 459.257642 302.063175 458.727954 
Q 302.580363 458.198267 303.57255 458.198267 
Q 304.567863 458.198267 305.083488 458.726392 
Q 305.599113 459.252954 305.599113 460.215454 
L 305.599113 463.442017 
Q 305.599113 464.399829 305.080363 464.929517 
Q 304.563175 465.459204 303.57255 465.459204 
z
M 303.57255 464.512329 
Q 304.099113 464.512329 304.350675 464.235767 
Q 304.602238 463.959204 304.602238 463.442017 
L 304.602238 460.215454 
Q 304.602238 459.696704 304.352238 459.421704 
Q 304.1038 459.145142 303.57255 459.145142 
Q 303.039738 459.145142 302.789738 459.421704 
Q 302.5413 459.696704 302.5413 460.215454 
L 302.5413 463.442017 
Q 302.5413 463.959204 302.792863 464.235767 
Q 303.044425 464.512329 303.57255 464.512329 
z
" style="fill: #ffffff; stroke: #000000"/>
    <path d="M 286.853605 464.438892 
L 288.459855 464.438892 
Q 289.245792 464.438892 289.677042 464.031079 
Q 290.109855 463.623267 290.109855 462.881079 
L 290.109855 460.790454 
Q 290.109855 460.048267 289.677042 459.640454 
Q 289.245792 459.232642 288.459855 459.232642 
L 286.853605 459.232642 
L 286.853605 458.285767 
L 288.430167 458.285767 
Q 289.284855 458.285767 289.889543 458.584204 
Q 290.495792 458.881079 290.81298 459.452954 
Q 291.130167 460.024829 291.130167 460.829517 
L 291.130167 462.842017 
Q 291.130167 463.646704 290.81298 464.218579 
Q 290.495792 464.790454 289.88798 465.088892 
Q 289.280168 465.385767 288.42548 465.385767 
L 286.853605 465.385767 
L 286.853605 464.438892 
z
M 286.180167 458.285767 
L 287.17548 458.285767 
L 287.17548 465.385767 
L 286.180167 465.385767 
L 286.180167 458.285767 
z
M 294.67548 465.459204 
Q 294.03173 465.459204 293.542667 465.215454 
Q 293.055167 464.970142 292.78798 464.523267 
Q 292.522355 464.076392 292.522355 463.485767 
L 292.522355 463.368579 
Q 292.522355 462.837329 292.78798 462.368579 
Q 293.055167 461.899829 293.498918 461.660767 
Q 293.122355 461.454517 292.895792 461.067017 
Q 292.66923 460.677954 292.66923 460.248267 
L 292.66923 460.077954 
Q 292.66923 459.521704 292.917667 459.099829 
Q 293.166105 458.676392 293.620792 458.445142 
Q 294.07548 458.212329 294.67548 458.212329 
Q 295.27548 458.212329 295.730167 458.445142 
Q 296.184855 458.676392 296.433292 459.099829 
Q 296.68173 459.521704 296.68173 460.077954 
L 296.68173 460.248267 
Q 296.68173 460.688892 296.45048 461.074829 
Q 296.21923 461.459204 295.83798 461.660767 
Q 296.286417 461.904517 296.55673 462.371704 
Q 296.828605 462.837329 296.828605 463.368579 
L 296.828605 463.485767 
Q 296.828605 464.076392 296.56298 464.523267 
Q 296.297355 464.970142 295.808292 465.215454 
Q 295.320792 465.459204 294.67548 465.459204 
z
M 294.67548 464.501392 
Q 295.022355 464.501392 295.284855 464.365454 
Q 295.548918 464.227954 295.692667 463.982642 
Q 295.83798 463.735767 295.83798 463.412329 
L 295.83798 463.345142 
Q 295.83798 463.017017 295.692667 462.771704 
Q 295.548918 462.524829 295.284855 462.388892 
Q 295.022355 462.251392 294.67548 462.251392 
Q 294.328605 462.251392 294.064543 462.388892 
Q 293.802042 462.524829 293.65673 462.773267 
Q 293.51298 463.021704 293.51298 463.349829 
L 293.51298 463.423267 
Q 293.51298 463.745142 293.65673 463.988892 
Q 293.802042 464.232642 294.064543 464.367017 
Q 294.328605 464.501392 294.67548 464.501392 
z
M 294.67548 461.293579 
Q 294.973917 461.293579 295.202043 461.165454 
Q 295.43173 461.035767 295.558292 460.796704 
Q 295.686418 460.556079 295.686418 460.243579 
L 295.686418 460.176392 
Q 295.686418 459.877954 295.558292 459.648267 
Q 295.43173 459.418579 295.202043 459.295142 
Q 294.973917 459.170142 294.67548 459.170142 
Q 294.377043 459.170142 294.147355 459.295142 
Q 293.91923 459.418579 293.791105 459.648267 
Q 293.664542 459.877954 293.664542 460.181079 
L 293.664542 460.254517 
Q 293.664542 460.560767 293.791105 460.798267 
Q 293.91923 461.035767 294.147355 461.165454 
Q 294.377043 461.293579 294.67548 461.293579 
z
M 299.934855 465.385767 
L 298.93798 465.385767 
L 298.93798 459.370142 
L 297.927042 459.990454 
L 297.927042 458.959204 
L 298.93798 458.285767 
L 299.934855 458.285767 
L 299.934855 465.385767 
z
M 303.57255 465.459204 
Q 302.575675 465.459204 302.06005 464.927954 
Q 301.545988 464.395142 301.545988 463.442017 
L 301.545988 460.215454 
Q 301.545988 459.257642 302.063175 458.727954 
Q 302.580363 458.198267 303.57255 458.198267 
Q 304.567863 458.198267 305.083488 458.726392 
Q 305.599113 459.252954 305.599113 460.215454 
L 305.599113 463.442017 
Q 305.599113 464.399829 305.080363 464.929517 
Q 304.563175 465.459204 303.57255 465.459204 
z
M 303.57255 464.512329 
Q 304.099113 464.512329 304.350675 464.235767 
Q 304.602238 463.959204 304.602238 463.442017 
L 304.602238 460.215454 
Q 304.602238 459.696704 304.352238 459.421704 
Q 304.1038 459.145142 303.57255 459.145142 
Q 303.039738 459.145142 302.789738 459.421704 
Q 302.5413 459.696704 302.5413 460.215454 
L 302.5413 463.442017 
Q 302.5413 463.959204 302.792863 464.235767 
Q 303.044425 464.512329 303.57255 464.512329 
z
" style="fill: #ffffff"/>
   </g>
  </g>
 </g>
 <defs>
  <clipPath id="p6e3185b4f3">
   <rect x="144" y="77.76" width="892.8" height="498.96"/>
  </clipPath>
 </defs>
</svg>
