<?xml version="1.0" encoding="utf-8" standalone="no"?>
<!DOCTYPE svg PUBLIC "-//W3C//DTD SVG 1.1//EN"
  "http://www.w3.org/Graphics/SVG/1.1/DTD/svg11.dtd">
<svg xmlns:xlink="http://www.w3.org/1999/xlink" width="1152pt" height="648pt" viewBox="0 0 1152 648" xmlns="http://www.w3.org/2000/svg" version="1.1">
 <metadata>
  <rdf:RDF xmlns:dc="http://purl.org/dc/elements/1.1/" xmlns:cc="http://creativecommons.org/ns#" xmlns:rdf="http://www.w3.org/1999/02/22-rdf-syntax-ns#">
   <cc:Work>
    <dc:type rdf:resource="http://purl.org/dc/dcmitype/StillImage"/>
    <dc:date>2024-03-14T14:55:07.985680</dc:date>
    <dc:format>image/svg+xml</dc:format>
    <dc:creator>
     <cc:Agent>
      <dc:title>Matplotlib v3.8.3, https://matplotlib.org/</dc:title>
     </cc:Agent>
    </dc:creator>
   </cc:Work>
  </rdf:RDF>
 </metadata>
 <defs>
  <style type="text/css">*{stroke-linejoin: round; stroke-linecap: butt}</style>
 </defs>
 <g id="figure_1">
  <g id="patch_1">
   <path d="M 0 648 
L 1152 648 
L 1152 0 
L 0 0 
L 0 648 
z
" style="fill: none"/>
  </g>
  <g id="axes_1">
   <g id="line2d_1">
    <path d="M 236.256 485.384596 
L 238.410343 483.556631 
L 240.564687 481.763664 
L 242.71903 480.005025 
L 244.873374 478.280059 
L 247.027717 476.588121 
L 249.182061 474.928579 
L 251.336404 473.300815 
L 253.490747 471.70422 
L 255.645091 470.138198 
L 257.799434 468.602165 
L 259.953778 467.095547 
L 262.108121 465.617781 
L 264.262465 464.168315 
L 266.416808 462.746609 
L 268.571152 461.35213 
L 270.725495 459.984358 
L 272.879838 458.642783 
L 275.034182 457.326902 
L 277.188525 456.036224 
L 279.342869 454.770268 
L 281.497212 453.528559 
L 283.651556 452.310634 
L 285.805899 451.116038 
L 287.960242 449.944324 
L 290.114586 448.795054 
L 292.268929 447.667799 
L 294.423273 446.562138 
L 296.577616 445.477657 
L 298.73196 444.413951 
L 300.886303 443.370621 
L 303.040646 442.347279 
L 305.19499 441.343541 
L 307.349333 440.359033 
L 309.503677 439.393385 
L 311.65802 438.446238 
L 313.812364 437.517236 
L 315.966707 436.606033 
L 318.121051 435.712287 
L 320.275394 434.835665 
L 322.429737 433.975839 
L 324.584081 433.132486 
L 326.738424 432.305292 
L 328.892768 431.493947 
L 331.047111 430.698147 
L 333.201455 429.917596 
L 335.355798 429.152 
L 337.510141 428.401074 
L 339.664485 427.664537 
L 341.818828 426.942113 
L 343.973172 426.233532 
L 346.127515 425.538528 
L 348.281859 424.856842 
L 350.436202 424.188219 
L 352.590545 423.532408 
L 354.744889 422.889164 
L 356.899232 422.258246 
L 359.053576 421.639419 
L 361.207919 421.03245 
L 363.362263 420.437113 
L 365.516606 419.853184 
L 367.670949 419.280446 
L 369.825293 418.718683 
L 371.979636 418.167686 
L 374.13398 417.627248 
L 376.288323 417.097168 
L 378.442667 416.577246 
L 380.59701 416.067288 
L 382.751354 415.567103 
L 384.905697 415.076505 
L 387.06004 414.595308 
L 389.214384 414.123334 
L 391.368727 413.660405 
L 393.523071 413.206348 
L 395.677414 412.760994 
L 397.831758 412.324175 
L 399.986101 411.895728 
L 402.140444 411.475493 
L 404.294788 411.063311 
L 406.449131 410.65903 
L 408.603475 410.262497 
L 410.757818 409.873564 
L 412.912162 409.492086 
L 415.066505 409.117919 
L 417.220848 408.750924 
L 419.375192 408.390963 
L 421.529535 408.037901 
L 423.683879 407.691606 
L 425.838222 407.351949 
L 427.992566 407.018802 
L 430.146909 406.692041 
L 432.301253 406.371542 
L 434.455596 406.057187 
L 436.609939 405.748857 
L 438.764283 405.446437 
L 440.918626 405.149814 
L 443.07297 404.858876 
L 445.227313 404.573515 
L 447.381657 404.293624 
L 449.536 404.019097 
" clip-path="url(#pdea918b8e9)" style="fill: none; stroke: #798df2; stroke-width: 3; stroke-linecap: round"/>
   </g>
   <g id="text_1">
    <path d="M 458.44098 405.739103 
Q 457.92848 405.739103 457.469105 405.642228 
Q 457.011292 405.54379 456.612855 405.348478 
Q 456.214417 405.153165 455.867542 404.859415 
L 455.867542 404.859415 
L 456.487855 404.098478 
L 456.487855 404.098478 
Q 456.894105 404.45004 457.381605 404.626603 
Q 457.870667 404.801603 458.44098 404.801603 
Q 459.212855 404.801603 459.637855 404.515665 
Q 460.062855 404.229728 460.062855 403.707853 
L 460.062855 403.703165 
Q 460.062855 403.33129 459.869105 403.114103 
Q 459.676918 402.896915 459.370667 402.792228 
Q 459.06598 402.68754 458.583168 402.598478 
Q 458.567543 402.59379 458.550355 402.59379 
Q 458.53473 402.59379 458.519105 402.589103 
L 458.445667 402.57504 
Q 457.733167 402.453165 457.286293 402.30004 
Q 456.839417 402.145353 456.52223 401.73754 
Q 456.205042 401.329728 456.205042 400.578165 
L 456.205042 400.573478 
Q 456.205042 399.914103 456.500355 399.448478 
Q 456.795667 398.98129 457.361292 398.73754 
Q 457.92848 398.492228 458.723793 398.492228 
Q 459.105042 398.492228 459.473793 398.576603 
Q 459.842542 398.659415 460.200355 398.823478 
Q 460.55973 398.985978 460.906605 399.234415 
L 460.906605 399.234415 
L 460.34098 400.026603 
L 460.34098 400.026603 
Q 459.93473 399.728165 459.531605 399.579728 
Q 459.130043 399.429728 458.723793 399.429728 
Q 457.99723 399.429728 457.594105 399.720353 
Q 457.19098 400.010978 457.19098 400.54379 
L 457.19098 400.548478 
Q 457.19098 400.914103 457.398792 401.12504 
Q 457.606605 401.334415 457.91598 401.434415 
Q 458.226917 401.534415 458.77848 401.642228 
Q 458.79723 401.646915 458.814417 401.65004 
Q 458.831605 401.651603 458.851917 401.65629 
Q 458.875355 401.660978 458.905042 401.667228 
Q 458.93473 401.671915 458.958168 401.676603 
Q 459.60348 401.807853 460.03473 401.989103 
Q 460.467542 402.16879 460.758167 402.571915 
Q 461.048792 402.97504 461.048792 403.673478 
L 461.048792 403.682853 
Q 461.048792 404.332853 460.74098 404.79379 
Q 460.433167 405.254728 459.848793 405.496915 
Q 459.26598 405.739103 458.44098 405.739103 
z
M 463.138832 404.71879 
L 464.745082 404.71879 
Q 465.531019 404.71879 465.962269 404.310978 
Q 466.395082 403.903165 466.395082 403.160978 
L 466.395082 401.070353 
Q 466.395082 400.328165 465.962269 399.920353 
Q 465.531019 399.51254 464.745082 399.51254 
L 463.138832 399.51254 
L 463.138832 398.565665 
L 464.715394 398.565665 
Q 465.570082 398.565665 466.174769 398.864103 
Q 466.781019 399.160978 467.098207 399.732853 
Q 467.415394 400.304728 467.415394 401.109415 
L 467.415394 403.121915 
Q 467.415394 403.926603 467.098207 404.498478 
Q 466.781019 405.070353 466.173207 405.36879 
Q 465.565394 405.665665 464.710707 405.665665 
L 463.138832 405.665665 
L 463.138832 404.71879 
z
M 462.465394 398.565665 
L 463.460707 398.565665 
L 463.460707 405.665665 
L 462.465394 405.665665 
L 462.465394 398.565665 
z
M 472.548207 399.454728 
L 470.712269 405.665665 
L 469.652894 405.665665 
L 471.488832 399.51254 
L 469.681019 399.51254 
L 469.681019 400.534415 
L 468.685707 400.534415 
L 468.685707 398.565665 
L 472.548207 398.565665 
L 472.548207 399.454728 
z
M 475.994886 405.739103 
Q 475.351136 405.739103 474.862074 405.495353 
Q 474.374574 405.25004 474.107386 404.803165 
Q 473.841761 404.35629 473.841761 403.765665 
L 473.841761 403.648478 
Q 473.841761 403.117228 474.107386 402.648478 
Q 474.374574 402.179728 474.818324 401.940665 
Q 474.441761 401.734415 474.215199 401.346915 
Q 473.988636 400.957853 473.988636 400.528165 
L 473.988636 400.357853 
Q 473.988636 399.801603 474.237074 399.379728 
Q 474.485511 398.95629 474.940199 398.72504 
Q 475.394886 398.492228 475.994886 398.492228 
Q 476.594886 398.492228 477.049574 398.72504 
Q 477.504261 398.95629 477.752699 399.379728 
Q 478.001136 399.801603 478.001136 400.357853 
L 478.001136 400.528165 
Q 478.001136 400.96879 477.769886 401.354728 
Q 477.538636 401.739103 477.157386 401.940665 
Q 477.605824 402.184415 477.876136 402.651603 
Q 478.148011 403.117228 478.148011 403.648478 
L 478.148011 403.765665 
Q 478.148011 404.35629 477.882386 404.803165 
Q 477.616761 405.25004 477.127699 405.495353 
Q 476.640199 405.739103 475.994886 405.739103 
z
M 475.994886 404.78129 
Q 476.341761 404.78129 476.604261 404.645353 
Q 476.868324 404.507853 477.012074 404.26254 
Q 477.157386 404.015665 477.157386 403.692228 
L 477.157386 403.62504 
Q 477.157386 403.296915 477.012074 403.051603 
Q 476.868324 402.804728 476.604261 402.66879 
Q 476.341761 402.53129 475.994886 402.53129 
Q 475.648011 402.53129 475.383949 402.66879 
Q 475.121449 402.804728 474.976136 403.053165 
Q 474.832386 403.301603 474.832386 403.629728 
L 474.832386 403.703165 
Q 474.832386 404.02504 474.976136 404.26879 
Q 475.121449 404.51254 475.383949 404.646915 
Q 475.648011 404.78129 475.994886 404.78129 
z
M 475.994886 401.573478 
Q 476.293324 401.573478 476.521449 401.445353 
Q 476.751136 401.315665 476.877699 401.076603 
Q 477.005824 400.835978 477.005824 400.523478 
L 477.005824 400.45629 
Q 477.005824 400.157853 476.877699 399.928165 
Q 476.751136 399.698478 476.521449 399.57504 
Q 476.293324 399.45004 475.994886 399.45004 
Q 475.696449 399.45004 475.466761 399.57504 
Q 475.238636 399.698478 475.110511 399.928165 
Q 474.983949 400.157853 474.983949 400.460978 
L 474.983949 400.534415 
Q 474.983949 400.840665 475.110511 401.078165 
Q 475.238636 401.315665 475.466761 401.445353 
Q 475.696449 401.573478 475.994886 401.573478 
z
M 481.566761 405.739103 
Q 480.569886 405.739103 480.054261 405.207853 
Q 479.540199 404.67504 479.540199 403.721915 
L 479.540199 400.495353 
Q 479.540199 399.53754 480.057386 399.007853 
Q 480.574574 398.478165 481.566761 398.478165 
Q 482.562074 398.478165 483.077699 399.00629 
Q 483.593324 399.532853 483.593324 400.495353 
L 483.593324 403.721915 
Q 483.593324 404.679728 483.074574 405.209415 
Q 482.557386 405.739103 481.566761 405.739103 
z
M 481.566761 404.792228 
Q 482.093324 404.792228 482.344886 404.515665 
Q 482.596449 404.239103 482.596449 403.721915 
L 482.596449 400.495353 
Q 482.596449 399.976603 482.346449 399.701603 
Q 482.098011 399.42504 481.566761 399.42504 
Q 481.033949 399.42504 480.783949 399.701603 
Q 480.535511 399.976603 480.535511 400.495353 
L 480.535511 403.721915 
Q 480.535511 404.239103 480.787074 404.515665 
Q 481.038636 404.792228 481.566761 404.792228 
z
M 490.057777 401.842228 
L 490.057777 403.082853 
Q 490.057777 403.873478 489.749964 404.476603 
Q 489.442152 405.079728 488.878089 405.409415 
Q 488.314027 405.739103 487.571839 405.739103 
Q 486.820277 405.739103 486.251527 405.429728 
Q 485.682777 405.11879 485.370277 404.553165 
Q 485.057777 403.985978 485.057777 403.239103 
L 485.057777 401.14379 
Q 485.057777 400.353165 485.365589 399.753165 
Q 485.673402 399.151603 486.235902 398.821915 
Q 486.799964 398.492228 487.542152 398.492228 
Q 488.153089 398.492228 488.667152 398.754728 
Q 489.182777 399.015665 489.529652 399.49379 
Q 489.876527 399.971915 489.998402 400.601603 
L 489.998402 400.601603 
L 488.920277 400.601603 
L 488.920277 400.601603 
Q 488.831214 400.245353 488.621839 399.989103 
Q 488.412464 399.732853 488.128089 399.598478 
Q 487.845277 399.464103 487.542152 399.464103 
Q 487.103089 399.464103 486.770277 399.67504 
Q 486.439027 399.884415 486.257777 400.26254 
Q 486.078089 400.640665 486.078089 401.14379 
L 486.078089 403.239103 
Q 486.078089 403.698478 486.262464 404.042228 
Q 486.448402 404.385978 486.787464 404.576603 
Q 487.128089 404.767228 487.571839 404.767228 
Q 488.010902 404.767228 488.342152 404.570353 
Q 488.674964 404.371915 488.856214 403.996915 
Q 489.037464 403.620353 489.037464 403.101603 
L 489.037464 402.79379 
L 487.596839 402.79379 
L 487.596839 401.842228 
L 490.057777 401.842228 
z
" style="fill: #ffffff; stroke: #000000"/>
    <path d="M 458.44098 405.739103 
Q 457.92848 405.739103 457.469105 405.642228 
Q 457.011292 405.54379 456.612855 405.348478 
Q 456.214417 405.153165 455.867542 404.859415 
L 455.867542 404.859415 
L 456.487855 404.098478 
L 456.487855 404.098478 
Q 456.894105 404.45004 457.381605 404.626603 
Q 457.870667 404.801603 458.44098 404.801603 
Q 459.212855 404.801603 459.637855 404.515665 
Q 460.062855 404.229728 460.062855 403.707853 
L 460.062855 403.703165 
Q 460.062855 403.33129 459.869105 403.114103 
Q 459.676918 402.896915 459.370667 402.792228 
Q 459.06598 402.68754 458.583168 402.598478 
Q 458.567543 402.59379 458.550355 402.59379 
Q 458.53473 402.59379 458.519105 402.589103 
L 458.445667 402.57504 
Q 457.733167 402.453165 457.286293 402.30004 
Q 456.839417 402.145353 456.52223 401.73754 
Q 456.205042 401.329728 456.205042 400.578165 
L 456.205042 400.573478 
Q 456.205042 399.914103 456.500355 399.448478 
Q 456.795667 398.98129 457.361292 398.73754 
Q 457.92848 398.492228 458.723793 398.492228 
Q 459.105042 398.492228 459.473793 398.576603 
Q 459.842542 398.659415 460.200355 398.823478 
Q 460.55973 398.985978 460.906605 399.234415 
L 460.906605 399.234415 
L 460.34098 400.026603 
L 460.34098 400.026603 
Q 459.93473 399.728165 459.531605 399.579728 
Q 459.130043 399.429728 458.723793 399.429728 
Q 457.99723 399.429728 457.594105 399.720353 
Q 457.19098 400.010978 457.19098 400.54379 
L 457.19098 400.548478 
Q 457.19098 400.914103 457.398792 401.12504 
Q 457.606605 401.334415 457.91598 401.434415 
Q 458.226917 401.534415 458.77848 401.642228 
Q 458.79723 401.646915 458.814417 401.65004 
Q 458.831605 401.651603 458.851917 401.65629 
Q 458.875355 401.660978 458.905042 401.667228 
Q 458.93473 401.671915 458.958168 401.676603 
Q 459.60348 401.807853 460.03473 401.989103 
Q 460.467542 402.16879 460.758167 402.571915 
Q 461.048792 402.97504 461.048792 403.673478 
L 461.048792 403.682853 
Q 461.048792 404.332853 460.74098 404.79379 
Q 460.433167 405.254728 459.848793 405.496915 
Q 459.26598 405.739103 458.44098 405.739103 
z
M 463.138832 404.71879 
L 464.745082 404.71879 
Q 465.531019 404.71879 465.962269 404.310978 
Q 466.395082 403.903165 466.395082 403.160978 
L 466.395082 401.070353 
Q 466.395082 400.328165 465.962269 399.920353 
Q 465.531019 399.51254 464.745082 399.51254 
L 463.138832 399.51254 
L 463.138832 398.565665 
L 464.715394 398.565665 
Q 465.570082 398.565665 466.174769 398.864103 
Q 466.781019 399.160978 467.098207 399.732853 
Q 467.415394 400.304728 467.415394 401.109415 
L 467.415394 403.121915 
Q 467.415394 403.926603 467.098207 404.498478 
Q 466.781019 405.070353 466.173207 405.36879 
Q 465.565394 405.665665 464.710707 405.665665 
L 463.138832 405.665665 
L 463.138832 404.71879 
z
M 462.465394 398.565665 
L 463.460707 398.565665 
L 463.460707 405.665665 
L 462.465394 405.665665 
L 462.465394 398.565665 
z
M 472.548207 399.454728 
L 470.712269 405.665665 
L 469.652894 405.665665 
L 471.488832 399.51254 
L 469.681019 399.51254 
L 469.681019 400.534415 
L 468.685707 400.534415 
L 468.685707 398.565665 
L 472.548207 398.565665 
L 472.548207 399.454728 
z
M 475.994886 405.739103 
Q 475.351136 405.739103 474.862074 405.495353 
Q 474.374574 405.25004 474.107386 404.803165 
Q 473.841761 404.35629 473.841761 403.765665 
L 473.841761 403.648478 
Q 473.841761 403.117228 474.107386 402.648478 
Q 474.374574 402.179728 474.818324 401.940665 
Q 474.441761 401.734415 474.215199 401.346915 
Q 473.988636 400.957853 473.988636 400.528165 
L 473.988636 400.357853 
Q 473.988636 399.801603 474.237074 399.379728 
Q 474.485511 398.95629 474.940199 398.72504 
Q 475.394886 398.492228 475.994886 398.492228 
Q 476.594886 398.492228 477.049574 398.72504 
Q 477.504261 398.95629 477.752699 399.379728 
Q 478.001136 399.801603 478.001136 400.357853 
L 478.001136 400.528165 
Q 478.001136 400.96879 477.769886 401.354728 
Q 477.538636 401.739103 477.157386 401.940665 
Q 477.605824 402.184415 477.876136 402.651603 
Q 478.148011 403.117228 478.148011 403.648478 
L 478.148011 403.765665 
Q 478.148011 404.35629 477.882386 404.803165 
Q 477.616761 405.25004 477.127699 405.495353 
Q 476.640199 405.739103 475.994886 405.739103 
z
M 475.994886 404.78129 
Q 476.341761 404.78129 476.604261 404.645353 
Q 476.868324 404.507853 477.012074 404.26254 
Q 477.157386 404.015665 477.157386 403.692228 
L 477.157386 403.62504 
Q 477.157386 403.296915 477.012074 403.051603 
Q 476.868324 402.804728 476.604261 402.66879 
Q 476.341761 402.53129 475.994886 402.53129 
Q 475.648011 402.53129 475.383949 402.66879 
Q 475.121449 402.804728 474.976136 403.053165 
Q 474.832386 403.301603 474.832386 403.629728 
L 474.832386 403.703165 
Q 474.832386 404.02504 474.976136 404.26879 
Q 475.121449 404.51254 475.383949 404.646915 
Q 475.648011 404.78129 475.994886 404.78129 
z
M 475.994886 401.573478 
Q 476.293324 401.573478 476.521449 401.445353 
Q 476.751136 401.315665 476.877699 401.076603 
Q 477.005824 400.835978 477.005824 400.523478 
L 477.005824 400.45629 
Q 477.005824 400.157853 476.877699 399.928165 
Q 476.751136 399.698478 476.521449 399.57504 
Q 476.293324 399.45004 475.994886 399.45004 
Q 475.696449 399.45004 475.466761 399.57504 
Q 475.238636 399.698478 475.110511 399.928165 
Q 474.983949 400.157853 474.983949 400.460978 
L 474.983949 400.534415 
Q 474.983949 400.840665 475.110511 401.078165 
Q 475.238636 401.315665 475.466761 401.445353 
Q 475.696449 401.573478 475.994886 401.573478 
z
M 481.566761 405.739103 
Q 480.569886 405.739103 480.054261 405.207853 
Q 479.540199 404.67504 479.540199 403.721915 
L 479.540199 400.495353 
Q 479.540199 399.53754 480.057386 399.007853 
Q 480.574574 398.478165 481.566761 398.478165 
Q 482.562074 398.478165 483.077699 399.00629 
Q 483.593324 399.532853 483.593324 400.495353 
L 483.593324 403.721915 
Q 483.593324 404.679728 483.074574 405.209415 
Q 482.557386 405.739103 481.566761 405.739103 
z
M 481.566761 404.792228 
Q 482.093324 404.792228 482.344886 404.515665 
Q 482.596449 404.239103 482.596449 403.721915 
L 482.596449 400.495353 
Q 482.596449 399.976603 482.346449 399.701603 
Q 482.098011 399.42504 481.566761 399.42504 
Q 481.033949 399.42504 480.783949 399.701603 
Q 480.535511 399.976603 480.535511 400.495353 
L 480.535511 403.721915 
Q 480.535511 404.239103 480.787074 404.515665 
Q 481.038636 404.792228 481.566761 404.792228 
z
M 490.057777 401.842228 
L 490.057777 403.082853 
Q 490.057777 403.873478 489.749964 404.476603 
Q 489.442152 405.079728 488.878089 405.409415 
Q 488.314027 405.739103 487.571839 405.739103 
Q 486.820277 405.739103 486.251527 405.429728 
Q 485.682777 405.11879 485.370277 404.553165 
Q 485.057777 403.985978 485.057777 403.239103 
L 485.057777 401.14379 
Q 485.057777 400.353165 485.365589 399.753165 
Q 485.673402 399.151603 486.235902 398.821915 
Q 486.799964 398.492228 487.542152 398.492228 
Q 488.153089 398.492228 488.667152 398.754728 
Q 489.182777 399.015665 489.529652 399.49379 
Q 489.876527 399.971915 489.998402 400.601603 
L 489.998402 400.601603 
L 488.920277 400.601603 
L 488.920277 400.601603 
Q 488.831214 400.245353 488.621839 399.989103 
Q 488.412464 399.732853 488.128089 399.598478 
Q 487.845277 399.464103 487.542152 399.464103 
Q 487.103089 399.464103 486.770277 399.67504 
Q 486.439027 399.884415 486.257777 400.26254 
Q 486.078089 400.640665 486.078089 401.14379 
L 486.078089 403.239103 
Q 486.078089 403.698478 486.262464 404.042228 
Q 486.448402 404.385978 486.787464 404.576603 
Q 487.128089 404.767228 487.571839 404.767228 
Q 488.010902 404.767228 488.342152 404.570353 
Q 488.674964 404.371915 488.856214 403.996915 
Q 489.037464 403.620353 489.037464 403.101603 
L 489.037464 402.79379 
L 487.596839 402.79379 
L 487.596839 401.842228 
L 490.057777 401.842228 
z
" style="fill: #ffffff"/>
   </g>
  </g>
 </g>
 <defs>
  <clipPath id="pdea918b8e9">
   <rect x="144" y="77.76" width="892.8" height="498.96"/>
  </clipPath>
 </defs>
</svg>
