<?xml version="1.0" encoding="utf-8" standalone="no"?>
<!DOCTYPE svg PUBLIC "-//W3C//DTD SVG 1.1//EN"
  "http://www.w3.org/Graphics/SVG/1.1/DTD/svg11.dtd">
<svg xmlns:xlink="http://www.w3.org/1999/xlink" width="1152pt" height="648pt" viewBox="0 0 1152 648" xmlns="http://www.w3.org/2000/svg" version="1.1">
 <metadata>
  <rdf:RDF xmlns:dc="http://purl.org/dc/elements/1.1/" xmlns:cc="http://creativecommons.org/ns#" xmlns:rdf="http://www.w3.org/1999/02/22-rdf-syntax-ns#">
   <cc:Work>
    <dc:type rdf:resource="http://purl.org/dc/dcmitype/StillImage"/>
    <dc:date>2024-03-14T14:55:08.019785</dc:date>
    <dc:format>image/svg+xml</dc:format>
    <dc:creator>
     <cc:Agent>
      <dc:title>Matplotlib v3.8.3, https://matplotlib.org/</dc:title>
     </cc:Agent>
    </dc:creator>
   </cc:Work>
  </rdf:RDF>
 </metadata>
 <defs>
  <style type="text/css">*{stroke-linejoin: round; stroke-linecap: butt}</style>
 </defs>
 <g id="figure_1">
  <g id="patch_1">
   <path d="M 0 648 
L 1152 648 
L 1152 0 
L 0 0 
L 0 648 
z
" style="fill: none"/>
  </g>
  <g id="axes_1">
   <g id="PathCollection_1">
    <defs>
     <path id="m06169e6775" d="M 0 2.738613 
C 0.726289 2.738613 1.422928 2.450055 1.936492 1.936492 
C 2.450055 1.422928 2.738613 0.726289 2.738613 0 
C 2.738613 -0.726289 2.450055 -1.422928 1.936492 -1.936492 
C 1.422928 -2.450055 0.726289 -2.738613 0 -2.738613 
C -0.726289 -2.738613 -1.422928 -2.450055 -1.936492 -1.936492 
C -2.450055 -1.422928 -2.738613 -0.726289 -2.738613 0 
C -2.738613 0.726289 -2.450055 1.422928 -1.936492 1.936492 
C -1.422928 2.450055 -0.726289 2.738613 0 2.738613 
z
" style="stroke: #3030f2"/>
    </defs>
    <g clip-path="url(#pf8a87beb55)">
     <use xlink:href="#m06169e6775" x="390.016" y="405.07776" style="fill: #3030f2; stroke: #3030f2"/>
    </g>
   </g>
   <g id="text_1">
    <path d="M 398.92098 406.797766 
Q 398.40848 406.797766 397.949105 406.700891 
Q 397.491292 406.602453 397.092855 406.407141 
Q 396.694417 406.211828 396.347542 405.918078 
L 396.347542 405.918078 
L 396.967855 405.157141 
L 396.967855 405.157141 
Q 397.374105 405.508703 397.861605 405.685266 
Q 398.350667 405.860266 398.92098 405.860266 
Q 399.692855 405.860266 400.117855 405.574328 
Q 400.542855 405.28839 400.542855 404.766516 
L 400.542855 404.761828 
Q 400.542855 404.389953 400.349105 404.172766 
Q 400.156917 403.955578 399.850667 403.85089 
Q 399.54598 403.746203 399.063167 403.657141 
Q 399.047542 403.652453 399.030355 403.652453 
Q 399.01473 403.652453 398.999105 403.647765 
L 398.925667 403.633703 
Q 398.213167 403.511828 397.766292 403.358703 
Q 397.319417 403.204016 397.00223 402.796203 
Q 396.685042 402.388391 396.685042 401.636828 
L 396.685042 401.63214 
Q 396.685042 400.972766 396.980355 400.50714 
Q 397.275667 400.039953 397.841292 399.796203 
Q 398.40848 399.550891 399.203792 399.550891 
Q 399.585042 399.550891 399.953792 399.635266 
Q 400.322542 399.718078 400.680355 399.88214 
Q 401.03973 400.044641 401.386605 400.293078 
L 401.386605 400.293078 
L 400.82098 401.085265 
L 400.82098 401.085265 
Q 400.41473 400.786828 400.011605 400.638391 
Q 399.610042 400.488391 399.203792 400.488391 
Q 398.47723 400.488391 398.074105 400.779016 
Q 397.67098 401.06964 397.67098 401.602453 
L 397.67098 401.607141 
Q 397.67098 401.972766 397.878792 402.183703 
Q 398.086605 402.393078 398.39598 402.493078 
Q 398.706917 402.593078 399.25848 402.700891 
Q 399.27723 402.705578 399.294417 402.708703 
Q 399.311605 402.710265 399.331917 402.714953 
Q 399.355355 402.719641 399.385042 402.72589 
Q 399.41473 402.730578 399.438167 402.735266 
Q 400.08348 402.866515 400.51473 403.047766 
Q 400.947542 403.227453 401.238167 403.630578 
Q 401.528792 404.033703 401.528792 404.732141 
L 401.528792 404.741515 
Q 401.528792 405.391516 401.22098 405.852453 
Q 400.913167 406.313391 400.328792 406.555578 
Q 399.74598 406.797766 398.92098 406.797766 
z
M 403.618832 405.777453 
L 405.225082 405.777453 
Q 406.011019 405.777453 406.442269 405.369641 
Q 406.875082 404.961828 406.875082 404.219641 
L 406.875082 402.129016 
Q 406.875082 401.386828 406.442269 400.979016 
Q 406.011019 400.571203 405.225082 400.571203 
L 403.618832 400.571203 
L 403.618832 399.624328 
L 405.195394 399.624328 
Q 406.050082 399.624328 406.654769 399.922766 
Q 407.261019 400.219641 407.578207 400.791516 
Q 407.895394 401.363391 407.895394 402.168078 
L 407.895394 404.180578 
Q 407.895394 404.985266 407.578207 405.557141 
Q 407.261019 406.129016 406.653207 406.427453 
Q 406.045394 406.724328 405.190707 406.724328 
L 403.618832 406.724328 
L 403.618832 405.777453 
z
M 402.945394 399.624328 
L 403.940707 399.624328 
L 403.940707 406.724328 
L 402.945394 406.724328 
L 402.945394 399.624328 
z
M 411.192269 406.797766 
Q 410.567269 406.797766 410.121957 406.546203 
Q 409.678207 406.294641 409.445394 405.813391 
Q 409.214144 405.332141 409.214144 404.654016 
L 409.214144 404.649328 
Q 409.214144 404.254016 409.306332 403.81964 
Q 409.400082 403.383703 409.575082 402.964953 
Q 409.604769 402.891516 409.639144 402.821203 
Q 409.673519 402.749328 409.707894 402.680578 
L 411.250082 399.624328 
L 412.325082 399.624328 
L 410.512582 403.164953 
L 410.517269 402.988391 
Q 410.640707 402.758703 410.875082 402.63214 
Q 411.109457 402.505578 411.421957 402.505578 
Q 411.973519 402.505578 412.368832 402.755578 
Q 412.764144 403.004016 412.968832 403.480578 
Q 413.173519 403.955578 413.173519 404.624328 
L 413.173519 404.629016 
Q 413.173519 405.313391 412.942269 405.802453 
Q 412.711019 406.289953 412.264144 406.544641 
Q 411.817269 406.797766 411.192269 406.797766 
z
M 411.192269 405.839953 
Q 411.665707 405.839953 411.921957 405.547766 
Q 412.178207 405.254016 412.178207 404.711828 
L 412.178207 404.707141 
Q 412.178207 404.111828 411.909457 403.786828 
Q 411.640707 403.461828 411.142269 403.461828 
Q 410.698519 403.461828 410.454769 403.789953 
Q 410.211019 404.116515 410.211019 404.711828 
L 410.211019 404.718078 
Q 410.211019 405.258703 410.467269 405.549328 
Q 410.723519 405.839953 411.192269 405.839953 
z
M 421.201839 402.900891 
L 421.201839 404.141516 
Q 421.201839 404.932141 420.894027 405.535266 
Q 420.586214 406.138391 420.022152 406.468078 
Q 419.458089 406.797766 418.715902 406.797766 
Q 417.964339 406.797766 417.395589 406.488391 
Q 416.826839 406.177453 416.514339 405.611828 
Q 416.201839 405.044641 416.201839 404.297766 
L 416.201839 402.202453 
Q 416.201839 401.411828 416.509652 400.811828 
Q 416.817464 400.210265 417.379964 399.880578 
Q 417.944027 399.550891 418.686214 399.550891 
Q 419.297152 399.550891 419.811214 399.813391 
Q 420.326839 400.074328 420.673714 400.552453 
Q 421.020589 401.030578 421.142464 401.660266 
L 421.142464 401.660266 
L 420.064339 401.660266 
L 420.064339 401.660266 
Q 419.975277 401.304015 419.765902 401.047766 
Q 419.556527 400.791516 419.272152 400.657141 
Q 418.989339 400.522765 418.686214 400.522765 
Q 418.247152 400.522765 417.914339 400.733703 
Q 417.583089 400.943078 417.401839 401.321203 
Q 417.222152 401.699328 417.222152 402.202453 
L 417.222152 404.297766 
Q 417.222152 404.75714 417.406527 405.10089 
Q 417.592464 405.44464 417.931527 405.635266 
Q 418.272152 405.825891 418.715902 405.825891 
Q 419.154964 405.825891 419.486214 405.629016 
Q 419.819027 405.430578 420.000277 405.055578 
Q 420.181527 404.679015 420.181527 404.160266 
L 420.181527 403.852453 
L 418.740902 403.852453 
L 418.740902 402.900891 
L 421.201839 402.900891 
z
M 424.790121 406.797766 
Q 424.086996 406.797766 423.588558 406.533703 
Q 423.091683 406.269641 422.829183 405.760266 
Q 422.568246 405.249328 422.568246 404.527453 
L 422.568246 403.955578 
Q 422.568246 403.204016 422.819808 402.672766 
Q 423.071371 402.139953 423.549496 401.861828 
Q 424.029183 401.582141 424.702621 401.582141 
Q 425.336996 401.582141 425.785433 401.900891 
Q 426.235433 402.218078 426.471371 402.818078 
Q 426.708871 403.418078 426.708871 404.258703 
L 426.708871 404.589953 
L 423.291683 404.589953 
L 423.291683 403.789953 
L 425.761996 403.789953 
L 425.761996 403.789953 
Q 425.718246 403.169641 425.441683 402.825891 
Q 425.166683 402.480578 424.702621 402.480578 
Q 424.135433 402.480578 423.826058 402.852453 
Q 423.516683 403.222766 423.516683 403.902453 
L 423.516683 404.546203 
Q 423.516683 405.175891 423.847933 405.513391 
Q 424.180746 405.85089 424.790121 405.85089 
Q 425.093246 405.85089 425.390121 405.729016 
Q 425.688558 405.605578 425.922933 405.386828 
L 425.922933 405.386828 
L 426.577621 406.039953 
L 426.577621 406.039953 
Q 426.201058 406.402453 425.732308 406.60089 
Q 425.263558 406.797766 424.790121 406.797766 
z
M 428.076449 401.655578 
L 429.073324 401.655578 
L 429.073324 406.724328 
L 428.076449 406.724328 
L 428.076449 401.655578 
z
M 431.153011 403.652453 
Q 431.153011 403.116515 430.874886 402.824328 
Q 430.596761 402.530578 430.093636 402.530578 
Q 429.604574 402.530578 429.338949 402.789953 
Q 429.073324 403.047766 429.073324 403.516516 
L 428.970199 402.539953 
Q 429.204574 402.080578 429.582699 401.832141 
Q 429.960824 401.582141 430.420199 401.582141 
Q 431.245199 401.582141 431.696761 402.122766 
Q 432.148324 402.661828 432.148324 403.647765 
L 432.148324 406.724328 
L 431.153011 406.724328 
L 431.153011 403.652453 
z
M 435.328011 406.724328 
L 434.331136 406.724328 
L 434.331136 400.708703 
L 433.320199 401.329016 
L 433.320199 400.297766 
L 434.331136 399.624328 
L 435.328011 399.624328 
L 435.328011 406.724328 
z
" style="fill: #ffffff; stroke: #000000"/>
    <path d="M 398.92098 406.797766 
Q 398.40848 406.797766 397.949105 406.700891 
Q 397.491292 406.602453 397.092855 406.407141 
Q 396.694417 406.211828 396.347542 405.918078 
L 396.347542 405.918078 
L 396.967855 405.157141 
L 396.967855 405.157141 
Q 397.374105 405.508703 397.861605 405.685266 
Q 398.350667 405.860266 398.92098 405.860266 
Q 399.692855 405.860266 400.117855 405.574328 
Q 400.542855 405.28839 400.542855 404.766516 
L 400.542855 404.761828 
Q 400.542855 404.389953 400.349105 404.172766 
Q 400.156917 403.955578 399.850667 403.85089 
Q 399.54598 403.746203 399.063167 403.657141 
Q 399.047542 403.652453 399.030355 403.652453 
Q 399.01473 403.652453 398.999105 403.647765 
L 398.925667 403.633703 
Q 398.213167 403.511828 397.766292 403.358703 
Q 397.319417 403.204016 397.00223 402.796203 
Q 396.685042 402.388391 396.685042 401.636828 
L 396.685042 401.63214 
Q 396.685042 400.972766 396.980355 400.50714 
Q 397.275667 400.039953 397.841292 399.796203 
Q 398.40848 399.550891 399.203792 399.550891 
Q 399.585042 399.550891 399.953792 399.635266 
Q 400.322542 399.718078 400.680355 399.88214 
Q 401.03973 400.044641 401.386605 400.293078 
L 401.386605 400.293078 
L 400.82098 401.085265 
L 400.82098 401.085265 
Q 400.41473 400.786828 400.011605 400.638391 
Q 399.610042 400.488391 399.203792 400.488391 
Q 398.47723 400.488391 398.074105 400.779016 
Q 397.67098 401.06964 397.67098 401.602453 
L 397.67098 401.607141 
Q 397.67098 401.972766 397.878792 402.183703 
Q 398.086605 402.393078 398.39598 402.493078 
Q 398.706917 402.593078 399.25848 402.700891 
Q 399.27723 402.705578 399.294417 402.708703 
Q 399.311605 402.710265 399.331917 402.714953 
Q 399.355355 402.719641 399.385042 402.72589 
Q 399.41473 402.730578 399.438167 402.735266 
Q 400.08348 402.866515 400.51473 403.047766 
Q 400.947542 403.227453 401.238167 403.630578 
Q 401.528792 404.033703 401.528792 404.732141 
L 401.528792 404.741515 
Q 401.528792 405.391516 401.22098 405.852453 
Q 400.913167 406.313391 400.328792 406.555578 
Q 399.74598 406.797766 398.92098 406.797766 
z
M 403.618832 405.777453 
L 405.225082 405.777453 
Q 406.011019 405.777453 406.442269 405.369641 
Q 406.875082 404.961828 406.875082 404.219641 
L 406.875082 402.129016 
Q 406.875082 401.386828 406.442269 400.979016 
Q 406.011019 400.571203 405.225082 400.571203 
L 403.618832 400.571203 
L 403.618832 399.624328 
L 405.195394 399.624328 
Q 406.050082 399.624328 406.654769 399.922766 
Q 407.261019 400.219641 407.578207 400.791516 
Q 407.895394 401.363391 407.895394 402.168078 
L 407.895394 404.180578 
Q 407.895394 404.985266 407.578207 405.557141 
Q 407.261019 406.129016 406.653207 406.427453 
Q 406.045394 406.724328 405.190707 406.724328 
L 403.618832 406.724328 
L 403.618832 405.777453 
z
M 402.945394 399.624328 
L 403.940707 399.624328 
L 403.940707 406.724328 
L 402.945394 406.724328 
L 402.945394 399.624328 
z
M 411.192269 406.797766 
Q 410.567269 406.797766 410.121957 406.546203 
Q 409.678207 406.294641 409.445394 405.813391 
Q 409.214144 405.332141 409.214144 404.654016 
L 409.214144 404.649328 
Q 409.214144 404.254016 409.306332 403.81964 
Q 409.400082 403.383703 409.575082 402.964953 
Q 409.604769 402.891516 409.639144 402.821203 
Q 409.673519 402.749328 409.707894 402.680578 
L 411.250082 399.624328 
L 412.325082 399.624328 
L 410.512582 403.164953 
L 410.517269 402.988391 
Q 410.640707 402.758703 410.875082 402.63214 
Q 411.109457 402.505578 411.421957 402.505578 
Q 411.973519 402.505578 412.368832 402.755578 
Q 412.764144 403.004016 412.968832 403.480578 
Q 413.173519 403.955578 413.173519 404.624328 
L 413.173519 404.629016 
Q 413.173519 405.313391 412.942269 405.802453 
Q 412.711019 406.289953 412.264144 406.544641 
Q 411.817269 406.797766 411.192269 406.797766 
z
M 411.192269 405.839953 
Q 411.665707 405.839953 411.921957 405.547766 
Q 412.178207 405.254016 412.178207 404.711828 
L 412.178207 404.707141 
Q 412.178207 404.111828 411.909457 403.786828 
Q 411.640707 403.461828 411.142269 403.461828 
Q 410.698519 403.461828 410.454769 403.789953 
Q 410.211019 404.116515 410.211019 404.711828 
L 410.211019 404.718078 
Q 410.211019 405.258703 410.467269 405.549328 
Q 410.723519 405.839953 411.192269 405.839953 
z
M 421.201839 402.900891 
L 421.201839 404.141516 
Q 421.201839 404.932141 420.894027 405.535266 
Q 420.586214 406.138391 420.022152 406.468078 
Q 419.458089 406.797766 418.715902 406.797766 
Q 417.964339 406.797766 417.395589 406.488391 
Q 416.826839 406.177453 416.514339 405.611828 
Q 416.201839 405.044641 416.201839 404.297766 
L 416.201839 402.202453 
Q 416.201839 401.411828 416.509652 400.811828 
Q 416.817464 400.210265 417.379964 399.880578 
Q 417.944027 399.550891 418.686214 399.550891 
Q 419.297152 399.550891 419.811214 399.813391 
Q 420.326839 400.074328 420.673714 400.552453 
Q 421.020589 401.030578 421.142464 401.660266 
L 421.142464 401.660266 
L 420.064339 401.660266 
L 420.064339 401.660266 
Q 419.975277 401.304015 419.765902 401.047766 
Q 419.556527 400.791516 419.272152 400.657141 
Q 418.989339 400.522765 418.686214 400.522765 
Q 418.247152 400.522765 417.914339 400.733703 
Q 417.583089 400.943078 417.401839 401.321203 
Q 417.222152 401.699328 417.222152 402.202453 
L 417.222152 404.297766 
Q 417.222152 404.75714 417.406527 405.10089 
Q 417.592464 405.44464 417.931527 405.635266 
Q 418.272152 405.825891 418.715902 405.825891 
Q 419.154964 405.825891 419.486214 405.629016 
Q 419.819027 405.430578 420.000277 405.055578 
Q 420.181527 404.679015 420.181527 404.160266 
L 420.181527 403.852453 
L 418.740902 403.852453 
L 418.740902 402.900891 
L 421.201839 402.900891 
z
M 424.790121 406.797766 
Q 424.086996 406.797766 423.588558 406.533703 
Q 423.091683 406.269641 422.829183 405.760266 
Q 422.568246 405.249328 422.568246 404.527453 
L 422.568246 403.955578 
Q 422.568246 403.204016 422.819808 402.672766 
Q 423.071371 402.139953 423.549496 401.861828 
Q 424.029183 401.582141 424.702621 401.582141 
Q 425.336996 401.582141 425.785433 401.900891 
Q 426.235433 402.218078 426.471371 402.818078 
Q 426.708871 403.418078 426.708871 404.258703 
L 426.708871 404.589953 
L 423.291683 404.589953 
L 423.291683 403.789953 
L 425.761996 403.789953 
L 425.761996 403.789953 
Q 425.718246 403.169641 425.441683 402.825891 
Q 425.166683 402.480578 424.702621 402.480578 
Q 424.135433 402.480578 423.826058 402.852453 
Q 423.516683 403.222766 423.516683 403.902453 
L 423.516683 404.546203 
Q 423.516683 405.175891 423.847933 405.513391 
Q 424.180746 405.85089 424.790121 405.85089 
Q 425.093246 405.85089 425.390121 405.729016 
Q 425.688558 405.605578 425.922933 405.386828 
L 425.922933 405.386828 
L 426.577621 406.039953 
L 426.577621 406.039953 
Q 426.201058 406.402453 425.732308 406.60089 
Q 425.263558 406.797766 424.790121 406.797766 
z
M 428.076449 401.655578 
L 429.073324 401.655578 
L 429.073324 406.724328 
L 428.076449 406.724328 
L 428.076449 401.655578 
z
M 431.153011 403.652453 
Q 431.153011 403.116515 430.874886 402.824328 
Q 430.596761 402.530578 430.093636 402.530578 
Q 429.604574 402.530578 429.338949 402.789953 
Q 429.073324 403.047766 429.073324 403.516516 
L 428.970199 402.539953 
Q 429.204574 402.080578 429.582699 401.832141 
Q 429.960824 401.582141 430.420199 401.582141 
Q 431.245199 401.582141 431.696761 402.122766 
Q 432.148324 402.661828 432.148324 403.647765 
L 432.148324 406.724328 
L 431.153011 406.724328 
L 431.153011 403.652453 
z
M 435.328011 406.724328 
L 434.331136 406.724328 
L 434.331136 400.708703 
L 433.320199 401.329016 
L 433.320199 400.297766 
L 434.331136 399.624328 
L 435.328011 399.624328 
L 435.328011 406.724328 
z
" style="fill: #ffffff"/>
   </g>
  </g>
 </g>
 <defs>
  <clipPath id="pf8a87beb55">
   <rect x="144" y="77.76" width="892.8" height="498.96"/>
  </clipPath>
 </defs>
</svg>
