<?xml version="1.0" encoding="utf-8" standalone="no"?>
<!DOCTYPE svg PUBLIC "-//W3C//DTD SVG 1.1//EN"
  "http://www.w3.org/Graphics/SVG/1.1/DTD/svg11.dtd">
<svg xmlns:xlink="http://www.w3.org/1999/xlink" width="1152pt" height="648pt" viewBox="0 0 1152 648" xmlns="http://www.w3.org/2000/svg" version="1.1">
 <metadata>
  <rdf:RDF xmlns:dc="http://purl.org/dc/elements/1.1/" xmlns:cc="http://creativecommons.org/ns#" xmlns:rdf="http://www.w3.org/1999/02/22-rdf-syntax-ns#">
   <cc:Work>
    <dc:type rdf:resource="http://purl.org/dc/dcmitype/StillImage"/>
    <dc:date>2024-03-14T14:55:08.771747</dc:date>
    <dc:format>image/svg+xml</dc:format>
    <dc:creator>
     <cc:Agent>
      <dc:title>Matplotlib v3.8.3, https://matplotlib.org/</dc:title>
     </cc:Agent>
    </dc:creator>
   </cc:Work>
  </rdf:RDF>
 </metadata>
 <defs>
  <style type="text/css">*{stroke-linejoin: round; stroke-linecap: butt}</style>
 </defs>
 <g id="figure_1">
  <g id="patch_1">
   <path d="M 0 648 
L 1152 648 
L 1152 0 
L 0 0 
L 0 648 
z
" style="fill: none"/>
  </g>
  <g id="axes_1">
   <g id="line2d_1">
    <path d="M 219.392 487.761105 
L 221.681616 486.010777 
L 223.971232 484.296022 
L 226.260848 482.616115 
L 228.550465 480.970351 
L 230.840081 479.358035 
L 233.129697 477.778489 
L 235.419313 476.231048 
L 237.708929 474.715059 
L 239.998545 473.229884 
L 242.288162 471.774898 
L 244.577778 470.349486 
L 246.867394 468.95305 
L 249.15701 467.585 
L 251.446626 466.24476 
L 253.736242 464.931764 
L 256.025859 463.645461 
L 258.315475 462.385307 
L 260.605091 461.150771 
L 262.894707 459.941333 
L 265.184323 458.756484 
L 267.473939 457.595723 
L 269.763556 456.458562 
L 272.053172 455.344521 
L 274.342788 454.25313 
L 276.632404 453.183929 
L 278.92202 452.136467 
L 281.211636 451.110303 
L 283.501253 450.105003 
L 285.790869 449.120145 
L 288.080485 448.155312 
L 290.370101 447.210098 
L 292.659717 446.284103 
L 294.949333 445.376938 
L 297.238949 444.48822 
L 299.528566 443.617574 
L 301.818182 442.764632 
L 304.107798 441.929035 
L 306.397414 441.11043 
L 308.68703 440.308472 
L 310.976646 439.522823 
L 313.266263 438.753151 
L 315.555879 437.999131 
L 317.845495 437.260446 
L 320.135111 436.536783 
L 322.424727 435.827837 
L 324.714343 435.133309 
L 327.00396 434.452907 
L 329.293576 433.786342 
L 331.583192 433.133333 
L 333.872808 432.493605 
L 336.162424 431.866889 
L 338.45204 431.252918 
L 340.741657 430.651435 
L 343.031273 430.062186 
L 345.320889 429.484921 
L 347.610505 428.919397 
L 349.900121 428.365376 
L 352.189737 427.822623 
L 354.479354 427.290909 
L 356.76897 426.77001 
L 359.058586 426.259706 
L 361.348202 425.759782 
L 363.637818 425.270027 
L 365.927434 424.790233 
L 368.217051 424.320198 
L 370.506667 423.859724 
L 372.796283 423.408617 
L 375.085899 422.966686 
L 377.375515 422.533743 
L 379.665131 422.109608 
L 381.954747 421.694099 
L 384.244364 421.287043 
L 386.53398 420.888267 
L 388.823596 420.497603 
L 391.113212 420.114885 
L 393.402828 419.739952 
L 395.692444 419.372647 
L 397.982061 419.012813 
L 400.271677 418.660299 
L 402.561293 418.314956 
L 404.850909 417.976638 
L 407.140525 417.645202 
L 409.430141 417.320508 
L 411.719758 417.00242 
L 414.009374 416.690802 
L 416.29899 416.385523 
L 418.588606 416.086455 
L 420.878222 415.793471 
L 423.167838 415.506446 
L 425.457455 415.225261 
L 427.747071 414.949796 
L 430.036687 414.679935 
L 432.326303 414.415564 
L 434.615919 414.156571 
L 436.905535 413.902847 
L 439.195152 413.654284 
L 441.484768 413.410778 
L 443.774384 413.172226 
L 446.064 412.938527 
" clip-path="url(#pc3f6643ea9)" style="fill: none; stroke: #f2de79; stroke-width: 3; stroke-linecap: round"/>
   </g>
   <g id="text_1">
    <path d="M 453.509605 413.63822 
L 455.115855 413.63822 
Q 455.901792 413.63822 456.333042 413.230408 
Q 456.765855 412.822595 456.765855 412.080408 
L 456.765855 409.989783 
Q 456.765855 409.247595 456.333042 408.839783 
Q 455.901792 408.43197 455.115855 408.43197 
L 453.509605 408.43197 
L 453.509605 407.485095 
L 455.086167 407.485095 
Q 455.940855 407.485095 456.545542 407.783533 
Q 457.151792 408.080408 457.46898 408.652283 
Q 457.786167 409.224158 457.786167 410.028845 
L 457.786167 412.041345 
Q 457.786167 412.846033 457.46898 413.417908 
Q 457.151792 413.989783 456.54398 414.28822 
Q 455.936167 414.585095 455.08148 414.585095 
L 453.509605 414.585095 
L 453.509605 413.63822 
z
M 452.836167 407.485095 
L 453.83148 407.485095 
L 453.83148 414.585095 
L 452.836167 414.585095 
L 452.836167 407.485095 
z
M 461.33148 414.658533 
Q 460.68773 414.658533 460.198667 414.414783 
Q 459.711167 414.16947 459.44398 413.722595 
Q 459.178355 413.27572 459.178355 412.685095 
L 459.178355 412.567908 
Q 459.178355 412.036658 459.44398 411.567908 
Q 459.711167 411.099158 460.154917 410.860095 
Q 459.778355 410.653845 459.551792 410.266345 
Q 459.32523 409.877283 459.32523 409.447595 
L 459.32523 409.277283 
Q 459.32523 408.721033 459.573667 408.299158 
Q 459.822105 407.87572 460.276792 407.64447 
Q 460.73148 407.411658 461.33148 407.411658 
Q 461.93148 407.411658 462.386167 407.64447 
Q 462.840855 407.87572 463.089292 408.299158 
Q 463.33773 408.721033 463.33773 409.277283 
L 463.33773 409.447595 
Q 463.33773 409.88822 463.10648 410.274158 
Q 462.87523 410.658533 462.49398 410.860095 
Q 462.942417 411.103845 463.21273 411.571033 
Q 463.484605 412.036658 463.484605 412.567908 
L 463.484605 412.685095 
Q 463.484605 413.27572 463.21898 413.722595 
Q 462.953355 414.16947 462.464292 414.414783 
Q 461.976792 414.658533 461.33148 414.658533 
z
M 461.33148 413.70072 
Q 461.678355 413.70072 461.940855 413.564783 
Q 462.204917 413.427283 462.348667 413.18197 
Q 462.49398 412.935095 462.49398 412.611658 
L 462.49398 412.54447 
Q 462.49398 412.216345 462.348667 411.971033 
Q 462.204917 411.724158 461.940855 411.58822 
Q 461.678355 411.45072 461.33148 411.45072 
Q 460.984605 411.45072 460.720542 411.58822 
Q 460.458042 411.724158 460.31273 411.972595 
Q 460.16898 412.221033 460.16898 412.549158 
L 460.16898 412.622595 
Q 460.16898 412.94447 460.31273 413.18822 
Q 460.458042 413.43197 460.720542 413.566345 
Q 460.984605 413.70072 461.33148 413.70072 
z
M 461.33148 410.492908 
Q 461.629917 410.492908 461.858042 410.364783 
Q 462.08773 410.235095 462.214292 409.996033 
Q 462.342417 409.755408 462.342417 409.442908 
L 462.342417 409.37572 
Q 462.342417 409.077283 462.214292 408.847595 
Q 462.08773 408.617908 461.858042 408.49447 
Q 461.629917 408.36947 461.33148 408.36947 
Q 461.033042 408.36947 460.803355 408.49447 
Q 460.57523 408.617908 460.447105 408.847595 
Q 460.320542 409.077283 460.320542 409.380408 
L 460.320542 409.453845 
Q 460.320542 409.760095 460.447105 409.997595 
Q 460.57523 410.235095 460.803355 410.364783 
Q 461.033042 410.492908 461.33148 410.492908 
z
M 464.76898 413.721033 
L 467.24398 410.41947 
Q 467.459605 410.136658 467.578355 409.83197 
Q 467.698667 409.52572 467.698667 409.26322 
L 467.698667 409.252283 
Q 467.698667 408.828845 467.448667 408.59447 
Q 467.20023 408.360095 466.742417 408.360095 
Q 466.30648 408.360095 466.03773 408.616345 
Q 465.770542 408.872595 465.711167 409.341345 
L 465.711167 409.346033 
L 464.68148 409.346033 
L 464.68148 409.341345 
Q 464.76898 408.730408 465.039292 408.299158 
Q 465.311167 407.866345 465.740855 407.639783 
Q 466.170542 407.411658 466.73148 407.411658 
Q 467.367417 407.411658 467.815855 407.628845 
Q 468.265855 407.846033 468.50023 408.261658 
Q 468.734605 408.677283 468.734605 409.26322 
L 468.734605 409.267908 
Q 468.734605 409.642908 468.578355 410.053845 
Q 468.422105 410.46322 468.142417 410.84447 
L 466.08773 413.63822 
L 468.773667 413.63822 
L 468.773667 414.585095 
L 464.76898 414.585095 
L 464.76898 413.721033 
z
M 472.069371 414.658533 
Q 471.072496 414.658533 470.556871 414.127283 
Q 470.042808 413.59447 470.042808 412.641345 
L 470.042808 409.414783 
Q 470.042808 408.45697 470.559996 407.927283 
Q 471.077183 407.397595 472.069371 407.397595 
Q 473.064683 407.397595 473.580308 407.92572 
Q 474.095933 408.452283 474.095933 409.414783 
L 474.095933 412.641345 
Q 474.095933 413.599158 473.577183 414.128845 
Q 473.059996 414.658533 472.069371 414.658533 
z
M 472.069371 413.711658 
Q 472.595933 413.711658 472.847496 413.435095 
Q 473.099058 413.158533 473.099058 412.641345 
L 473.099058 409.414783 
Q 473.099058 408.896033 472.849058 408.621033 
Q 472.600621 408.34447 472.069371 408.34447 
Q 471.536558 408.34447 471.286558 408.621033 
Q 471.038121 408.896033 471.038121 409.414783 
L 471.038121 412.641345 
Q 471.038121 413.158533 471.289683 413.435095 
Q 471.541246 413.711658 472.069371 413.711658 
z
" style="fill: #ffffff; stroke: #000000"/>
    <path d="M 453.509605 413.63822 
L 455.115855 413.63822 
Q 455.901792 413.63822 456.333042 413.230408 
Q 456.765855 412.822595 456.765855 412.080408 
L 456.765855 409.989783 
Q 456.765855 409.247595 456.333042 408.839783 
Q 455.901792 408.43197 455.115855 408.43197 
L 453.509605 408.43197 
L 453.509605 407.485095 
L 455.086167 407.485095 
Q 455.940855 407.485095 456.545542 407.783533 
Q 457.151792 408.080408 457.46898 408.652283 
Q 457.786167 409.224158 457.786167 410.028845 
L 457.786167 412.041345 
Q 457.786167 412.846033 457.46898 413.417908 
Q 457.151792 413.989783 456.54398 414.28822 
Q 455.936167 414.585095 455.08148 414.585095 
L 453.509605 414.585095 
L 453.509605 413.63822 
z
M 452.836167 407.485095 
L 453.83148 407.485095 
L 453.83148 414.585095 
L 452.836167 414.585095 
L 452.836167 407.485095 
z
M 461.33148 414.658533 
Q 460.68773 414.658533 460.198667 414.414783 
Q 459.711167 414.16947 459.44398 413.722595 
Q 459.178355 413.27572 459.178355 412.685095 
L 459.178355 412.567908 
Q 459.178355 412.036658 459.44398 411.567908 
Q 459.711167 411.099158 460.154917 410.860095 
Q 459.778355 410.653845 459.551792 410.266345 
Q 459.32523 409.877283 459.32523 409.447595 
L 459.32523 409.277283 
Q 459.32523 408.721033 459.573667 408.299158 
Q 459.822105 407.87572 460.276792 407.64447 
Q 460.73148 407.411658 461.33148 407.411658 
Q 461.93148 407.411658 462.386167 407.64447 
Q 462.840855 407.87572 463.089292 408.299158 
Q 463.33773 408.721033 463.33773 409.277283 
L 463.33773 409.447595 
Q 463.33773 409.88822 463.10648 410.274158 
Q 462.87523 410.658533 462.49398 410.860095 
Q 462.942417 411.103845 463.21273 411.571033 
Q 463.484605 412.036658 463.484605 412.567908 
L 463.484605 412.685095 
Q 463.484605 413.27572 463.21898 413.722595 
Q 462.953355 414.16947 462.464292 414.414783 
Q 461.976792 414.658533 461.33148 414.658533 
z
M 461.33148 413.70072 
Q 461.678355 413.70072 461.940855 413.564783 
Q 462.204917 413.427283 462.348667 413.18197 
Q 462.49398 412.935095 462.49398 412.611658 
L 462.49398 412.54447 
Q 462.49398 412.216345 462.348667 411.971033 
Q 462.204917 411.724158 461.940855 411.58822 
Q 461.678355 411.45072 461.33148 411.45072 
Q 460.984605 411.45072 460.720542 411.58822 
Q 460.458042 411.724158 460.31273 411.972595 
Q 460.16898 412.221033 460.16898 412.549158 
L 460.16898 412.622595 
Q 460.16898 412.94447 460.31273 413.18822 
Q 460.458042 413.43197 460.720542 413.566345 
Q 460.984605 413.70072 461.33148 413.70072 
z
M 461.33148 410.492908 
Q 461.629917 410.492908 461.858042 410.364783 
Q 462.08773 410.235095 462.214292 409.996033 
Q 462.342417 409.755408 462.342417 409.442908 
L 462.342417 409.37572 
Q 462.342417 409.077283 462.214292 408.847595 
Q 462.08773 408.617908 461.858042 408.49447 
Q 461.629917 408.36947 461.33148 408.36947 
Q 461.033042 408.36947 460.803355 408.49447 
Q 460.57523 408.617908 460.447105 408.847595 
Q 460.320542 409.077283 460.320542 409.380408 
L 460.320542 409.453845 
Q 460.320542 409.760095 460.447105 409.997595 
Q 460.57523 410.235095 460.803355 410.364783 
Q 461.033042 410.492908 461.33148 410.492908 
z
M 464.76898 413.721033 
L 467.24398 410.41947 
Q 467.459605 410.136658 467.578355 409.83197 
Q 467.698667 409.52572 467.698667 409.26322 
L 467.698667 409.252283 
Q 467.698667 408.828845 467.448667 408.59447 
Q 467.20023 408.360095 466.742417 408.360095 
Q 466.30648 408.360095 466.03773 408.616345 
Q 465.770542 408.872595 465.711167 409.341345 
L 465.711167 409.346033 
L 464.68148 409.346033 
L 464.68148 409.341345 
Q 464.76898 408.730408 465.039292 408.299158 
Q 465.311167 407.866345 465.740855 407.639783 
Q 466.170542 407.411658 466.73148 407.411658 
Q 467.367417 407.411658 467.815855 407.628845 
Q 468.265855 407.846033 468.50023 408.261658 
Q 468.734605 408.677283 468.734605 409.26322 
L 468.734605 409.267908 
Q 468.734605 409.642908 468.578355 410.053845 
Q 468.422105 410.46322 468.142417 410.84447 
L 466.08773 413.63822 
L 468.773667 413.63822 
L 468.773667 414.585095 
L 464.76898 414.585095 
L 464.76898 413.721033 
z
M 472.069371 414.658533 
Q 471.072496 414.658533 470.556871 414.127283 
Q 470.042808 413.59447 470.042808 412.641345 
L 470.042808 409.414783 
Q 470.042808 408.45697 470.559996 407.927283 
Q 471.077183 407.397595 472.069371 407.397595 
Q 473.064683 407.397595 473.580308 407.92572 
Q 474.095933 408.452283 474.095933 409.414783 
L 474.095933 412.641345 
Q 474.095933 413.599158 473.577183 414.128845 
Q 473.059996 414.658533 472.069371 414.658533 
z
M 472.069371 413.711658 
Q 472.595933 413.711658 472.847496 413.435095 
Q 473.099058 413.158533 473.099058 412.641345 
L 473.099058 409.414783 
Q 473.099058 408.896033 472.849058 408.621033 
Q 472.600621 408.34447 472.069371 408.34447 
Q 471.536558 408.34447 471.286558 408.621033 
Q 471.038121 408.896033 471.038121 409.414783 
L 471.038121 412.641345 
Q 471.038121 413.158533 471.289683 413.435095 
Q 471.541246 413.711658 472.069371 413.711658 
z
" style="fill: #ffffff"/>
   </g>
  </g>
 </g>
 <defs>
  <clipPath id="pc3f6643ea9">
   <rect x="144" y="77.76" width="892.8" height="498.96"/>
  </clipPath>
 </defs>
</svg>
