<?xml version="1.0" encoding="utf-8" standalone="no"?>
<!DOCTYPE svg PUBLIC "-//W3C//DTD SVG 1.1//EN"
  "http://www.w3.org/Graphics/SVG/1.1/DTD/svg11.dtd">
<svg xmlns:xlink="http://www.w3.org/1999/xlink" width="1152pt" height="648pt" viewBox="0 0 1152 648" xmlns="http://www.w3.org/2000/svg" version="1.1">
 <metadata>
  <rdf:RDF xmlns:dc="http://purl.org/dc/elements/1.1/" xmlns:cc="http://creativecommons.org/ns#" xmlns:rdf="http://www.w3.org/1999/02/22-rdf-syntax-ns#">
   <cc:Work>
    <dc:type rdf:resource="http://purl.org/dc/dcmitype/StillImage"/>
    <dc:date>2024-03-14T14:55:08.707842</dc:date>
    <dc:format>image/svg+xml</dc:format>
    <dc:creator>
     <cc:Agent>
      <dc:title>Matplotlib v3.8.3, https://matplotlib.org/</dc:title>
     </cc:Agent>
    </dc:creator>
   </cc:Work>
  </rdf:RDF>
 </metadata>
 <defs>
  <style type="text/css">*{stroke-linejoin: round; stroke-linecap: butt}</style>
 </defs>
 <g id="figure_1">
  <g id="patch_1">
   <path d="M 0 648 
L 1152 648 
L 1152 0 
L 0 0 
L 0 648 
z
" style="fill: none"/>
  </g>
  <g id="axes_1">
   <g id="line2d_1">
    <path d="M 213.936 493.756656 
L 215.41899 492.291338 
L 216.90198 490.855845 
L 218.38497 489.449571 
L 219.86796 488.071922 
L 221.350949 486.722315 
L 222.833939 485.400181 
L 224.316929 484.104961 
L 225.799919 482.836107 
L 227.282909 481.593083 
L 228.765899 480.375363 
L 230.248889 479.182434 
L 231.731879 478.013791 
L 233.214869 476.868939 
L 234.697859 475.747396 
L 236.180848 474.648686 
L 237.663838 473.572345 
L 239.146828 472.517919 
L 240.629818 471.48496 
L 242.112808 470.473034 
L 243.595798 469.48171 
L 245.078788 468.510572 
L 246.561778 467.559207 
L 248.044768 466.627213 
L 249.527758 465.714197 
L 251.010747 464.819772 
L 252.493737 463.943559 
L 253.976727 463.085189 
L 255.459717 462.244297 
L 256.942707 461.420529 
L 258.425697 460.613536 
L 259.908687 459.822976 
L 261.391677 459.048516 
L 262.874667 458.289826 
L 264.357657 457.546587 
L 265.840646 456.818484 
L 267.323636 456.105208 
L 268.806626 455.406459 
L 270.289616 454.72194 
L 271.772606 454.051361 
L 273.255596 453.394439 
L 274.738586 452.750896 
L 276.221576 452.12046 
L 277.704566 451.502863 
L 279.187556 450.897845 
L 280.670545 450.305149 
L 282.153535 449.724524 
L 283.636525 449.155725 
L 285.119515 448.598511 
L 286.602505 448.052646 
L 288.085495 447.517899 
L 289.568485 446.994043 
L 291.051475 446.480857 
L 292.534465 445.978124 
L 294.017455 445.485631 
L 295.500444 445.003169 
L 296.983434 444.530534 
L 298.466424 444.067526 
L 299.949414 443.613949 
L 301.432404 443.169611 
L 302.915394 442.734323 
L 304.398384 442.307902 
L 305.881374 441.890167 
L 307.364364 441.480941 
L 308.847354 441.080051 
L 310.330343 440.687327 
L 311.813333 440.302602 
L 313.296323 439.925715 
L 314.779313 439.556504 
L 316.262303 439.194815 
L 317.745293 438.840493 
L 319.228283 438.493389 
L 320.711273 438.153355 
L 322.194263 437.820248 
L 323.677253 437.493927 
L 325.160242 437.174254 
L 326.643232 436.861092 
L 328.126222 436.55431 
L 329.609212 436.253777 
L 331.092202 435.959366 
L 332.575192 435.670953 
L 334.058182 435.388416 
L 335.541172 435.111634 
L 337.024162 434.84049 
L 338.507152 434.57487 
L 339.990141 434.314662 
L 341.473131 434.059754 
L 342.956121 433.810039 
L 344.439111 433.565411 
L 345.922101 433.325767 
L 347.405091 433.091005 
L 348.888081 432.861026 
L 350.371071 432.635731 
L 351.854061 432.415027 
L 353.337051 432.198819 
L 354.82004 431.987015 
L 356.30303 431.779527 
L 357.78602 431.576265 
L 359.26901 431.377144 
L 360.752 431.182081 
" clip-path="url(#p371dc02dce)" style="fill: none; stroke: #f2ca79; stroke-width: 3; stroke-linecap: round"/>
   </g>
   <g id="text_1">
    <path d="M 368.197605 431.881774 
L 369.803855 431.881774 
Q 370.589792 431.881774 371.021042 431.473961 
Q 371.453855 431.066149 371.453855 430.323961 
L 371.453855 428.233336 
Q 371.453855 427.491149 371.021042 427.083336 
Q 370.589792 426.675524 369.803855 426.675524 
L 368.197605 426.675524 
L 368.197605 425.728649 
L 369.774167 425.728649 
Q 370.628855 425.728649 371.233542 426.027086 
Q 371.839792 426.323961 372.15698 426.895836 
Q 372.474167 427.467711 372.474167 428.272399 
L 372.474167 430.284899 
Q 372.474167 431.089586 372.15698 431.661461 
Q 371.839792 432.233336 371.23198 432.531774 
Q 370.624167 432.828649 369.76948 432.828649 
L 368.197605 432.828649 
L 368.197605 431.881774 
z
M 367.524167 425.728649 
L 368.51948 425.728649 
L 368.51948 432.828649 
L 367.524167 432.828649 
L 367.524167 425.728649 
z
M 375.653855 432.828649 
L 374.65698 432.828649 
L 374.65698 426.813024 
L 373.646042 427.433336 
L 373.646042 426.402086 
L 374.65698 425.728649 
L 375.653855 425.728649 
L 375.653855 432.828649 
z
M 379.29155 432.902086 
Q 378.294675 432.902086 377.77905 432.370836 
Q 377.264988 431.838024 377.264988 430.884899 
L 377.264988 427.658336 
Q 377.264988 426.700524 377.782175 426.170836 
Q 378.299363 425.641149 379.29155 425.641149 
Q 380.286863 425.641149 380.802488 426.169274 
Q 381.318113 426.695836 381.318113 427.658336 
L 381.318113 430.884899 
Q 381.318113 431.842711 380.799363 432.372399 
Q 380.282175 432.902086 379.29155 432.902086 
z
M 379.29155 431.955211 
Q 379.818113 431.955211 380.069675 431.678649 
Q 380.321238 431.402086 380.321238 430.884899 
L 380.321238 427.658336 
Q 380.321238 427.139586 380.071238 426.864586 
Q 379.8228 426.588024 379.29155 426.588024 
Q 378.758738 426.588024 378.508738 426.864586 
Q 378.2603 427.139586 378.2603 427.658336 
L 378.2603 430.884899 
Q 378.2603 431.402086 378.511863 431.678649 
Q 378.763425 431.955211 379.29155 431.955211 
z
M 384.862253 432.902086 
Q 384.218503 432.902086 383.729441 432.658336 
Q 383.241941 432.413024 382.974753 431.966149 
Q 382.709128 431.519274 382.709128 430.928649 
L 382.709128 430.811461 
Q 382.709128 430.280211 382.974753 429.811461 
Q 383.241941 429.342711 383.685691 429.103649 
Q 383.309128 428.897399 383.082566 428.509899 
Q 382.856003 428.120836 382.856003 427.691149 
L 382.856003 427.520836 
Q 382.856003 426.964586 383.104441 426.542711 
Q 383.352878 426.119274 383.807566 425.888024 
Q 384.262253 425.655211 384.862253 425.655211 
Q 385.462253 425.655211 385.916941 425.888024 
Q 386.371628 426.119274 386.620066 426.542711 
Q 386.868503 426.964586 386.868503 427.520836 
L 386.868503 427.691149 
Q 386.868503 428.131774 386.637253 428.517711 
Q 386.406003 428.902086 386.024753 429.103649 
Q 386.473191 429.347399 386.743503 429.814586 
Q 387.015378 430.280211 387.015378 430.811461 
L 387.015378 430.928649 
Q 387.015378 431.519274 386.749753 431.966149 
Q 386.484128 432.413024 385.995066 432.658336 
Q 385.507566 432.902086 384.862253 432.902086 
z
M 384.862253 431.944274 
Q 385.209128 431.944274 385.471628 431.808336 
Q 385.735691 431.670836 385.879441 431.425524 
Q 386.024753 431.178649 386.024753 430.855211 
L 386.024753 430.788024 
Q 386.024753 430.459899 385.879441 430.214586 
Q 385.735691 429.967711 385.471628 429.831774 
Q 385.209128 429.694274 384.862253 429.694274 
Q 384.515378 429.694274 384.251316 429.831774 
Q 383.988816 429.967711 383.843503 430.216149 
Q 383.699753 430.464586 383.699753 430.792711 
L 383.699753 430.866149 
Q 383.699753 431.188024 383.843503 431.431774 
Q 383.988816 431.675524 384.251316 431.809899 
Q 384.515378 431.944274 384.862253 431.944274 
z
M 384.862253 428.736461 
Q 385.160691 428.736461 385.388816 428.608336 
Q 385.618503 428.478649 385.745066 428.239586 
Q 385.873191 427.998961 385.873191 427.686461 
L 385.873191 427.619274 
Q 385.873191 427.320836 385.745066 427.091149 
Q 385.618503 426.861461 385.388816 426.738024 
Q 385.160691 426.613024 384.862253 426.613024 
Q 384.563816 426.613024 384.334128 426.738024 
Q 384.106003 426.861461 383.977878 427.091149 
Q 383.851316 427.320836 383.851316 427.623961 
L 383.851316 427.697399 
Q 383.851316 428.003649 383.977878 428.241149 
Q 384.106003 428.478649 384.334128 428.608336 
Q 384.563816 428.736461 384.862253 428.736461 
z
M 390.434128 432.902086 
Q 389.437253 432.902086 388.921628 432.370836 
Q 388.407566 431.838024 388.407566 430.884899 
L 388.407566 427.658336 
Q 388.407566 426.700524 388.924753 426.170836 
Q 389.441941 425.641149 390.434128 425.641149 
Q 391.429441 425.641149 391.945066 426.169274 
Q 392.460691 426.695836 392.460691 427.658336 
L 392.460691 430.884899 
Q 392.460691 431.842711 391.941941 432.372399 
Q 391.424753 432.902086 390.434128 432.902086 
z
M 390.434128 431.955211 
Q 390.960691 431.955211 391.212253 431.678649 
Q 391.463816 431.402086 391.463816 430.884899 
L 391.463816 427.658336 
Q 391.463816 427.139586 391.213816 426.864586 
Q 390.965378 426.588024 390.434128 426.588024 
Q 389.901316 426.588024 389.651316 426.864586 
Q 389.402878 427.139586 389.402878 427.658336 
L 389.402878 430.884899 
Q 389.402878 431.402086 389.654441 431.678649 
Q 389.906003 431.955211 390.434128 431.955211 
z
" style="fill: #ffffff; stroke: #000000"/>
    <path d="M 368.197605 431.881774 
L 369.803855 431.881774 
Q 370.589792 431.881774 371.021042 431.473961 
Q 371.453855 431.066149 371.453855 430.323961 
L 371.453855 428.233336 
Q 371.453855 427.491149 371.021042 427.083336 
Q 370.589792 426.675524 369.803855 426.675524 
L 368.197605 426.675524 
L 368.197605 425.728649 
L 369.774167 425.728649 
Q 370.628855 425.728649 371.233542 426.027086 
Q 371.839792 426.323961 372.15698 426.895836 
Q 372.474167 427.467711 372.474167 428.272399 
L 372.474167 430.284899 
Q 372.474167 431.089586 372.15698 431.661461 
Q 371.839792 432.233336 371.23198 432.531774 
Q 370.624167 432.828649 369.76948 432.828649 
L 368.197605 432.828649 
L 368.197605 431.881774 
z
M 367.524167 425.728649 
L 368.51948 425.728649 
L 368.51948 432.828649 
L 367.524167 432.828649 
L 367.524167 425.728649 
z
M 375.653855 432.828649 
L 374.65698 432.828649 
L 374.65698 426.813024 
L 373.646042 427.433336 
L 373.646042 426.402086 
L 374.65698 425.728649 
L 375.653855 425.728649 
L 375.653855 432.828649 
z
M 379.29155 432.902086 
Q 378.294675 432.902086 377.77905 432.370836 
Q 377.264988 431.838024 377.264988 430.884899 
L 377.264988 427.658336 
Q 377.264988 426.700524 377.782175 426.170836 
Q 378.299363 425.641149 379.29155 425.641149 
Q 380.286863 425.641149 380.802488 426.169274 
Q 381.318113 426.695836 381.318113 427.658336 
L 381.318113 430.884899 
Q 381.318113 431.842711 380.799363 432.372399 
Q 380.282175 432.902086 379.29155 432.902086 
z
M 379.29155 431.955211 
Q 379.818113 431.955211 380.069675 431.678649 
Q 380.321238 431.402086 380.321238 430.884899 
L 380.321238 427.658336 
Q 380.321238 427.139586 380.071238 426.864586 
Q 379.8228 426.588024 379.29155 426.588024 
Q 378.758738 426.588024 378.508738 426.864586 
Q 378.2603 427.139586 378.2603 427.658336 
L 378.2603 430.884899 
Q 378.2603 431.402086 378.511863 431.678649 
Q 378.763425 431.955211 379.29155 431.955211 
z
M 384.862253 432.902086 
Q 384.218503 432.902086 383.729441 432.658336 
Q 383.241941 432.413024 382.974753 431.966149 
Q 382.709128 431.519274 382.709128 430.928649 
L 382.709128 430.811461 
Q 382.709128 430.280211 382.974753 429.811461 
Q 383.241941 429.342711 383.685691 429.103649 
Q 383.309128 428.897399 383.082566 428.509899 
Q 382.856003 428.120836 382.856003 427.691149 
L 382.856003 427.520836 
Q 382.856003 426.964586 383.104441 426.542711 
Q 383.352878 426.119274 383.807566 425.888024 
Q 384.262253 425.655211 384.862253 425.655211 
Q 385.462253 425.655211 385.916941 425.888024 
Q 386.371628 426.119274 386.620066 426.542711 
Q 386.868503 426.964586 386.868503 427.520836 
L 386.868503 427.691149 
Q 386.868503 428.131774 386.637253 428.517711 
Q 386.406003 428.902086 386.024753 429.103649 
Q 386.473191 429.347399 386.743503 429.814586 
Q 387.015378 430.280211 387.015378 430.811461 
L 387.015378 430.928649 
Q 387.015378 431.519274 386.749753 431.966149 
Q 386.484128 432.413024 385.995066 432.658336 
Q 385.507566 432.902086 384.862253 432.902086 
z
M 384.862253 431.944274 
Q 385.209128 431.944274 385.471628 431.808336 
Q 385.735691 431.670836 385.879441 431.425524 
Q 386.024753 431.178649 386.024753 430.855211 
L 386.024753 430.788024 
Q 386.024753 430.459899 385.879441 430.214586 
Q 385.735691 429.967711 385.471628 429.831774 
Q 385.209128 429.694274 384.862253 429.694274 
Q 384.515378 429.694274 384.251316 429.831774 
Q 383.988816 429.967711 383.843503 430.216149 
Q 383.699753 430.464586 383.699753 430.792711 
L 383.699753 430.866149 
Q 383.699753 431.188024 383.843503 431.431774 
Q 383.988816 431.675524 384.251316 431.809899 
Q 384.515378 431.944274 384.862253 431.944274 
z
M 384.862253 428.736461 
Q 385.160691 428.736461 385.388816 428.608336 
Q 385.618503 428.478649 385.745066 428.239586 
Q 385.873191 427.998961 385.873191 427.686461 
L 385.873191 427.619274 
Q 385.873191 427.320836 385.745066 427.091149 
Q 385.618503 426.861461 385.388816 426.738024 
Q 385.160691 426.613024 384.862253 426.613024 
Q 384.563816 426.613024 384.334128 426.738024 
Q 384.106003 426.861461 383.977878 427.091149 
Q 383.851316 427.320836 383.851316 427.623961 
L 383.851316 427.697399 
Q 383.851316 428.003649 383.977878 428.241149 
Q 384.106003 428.478649 384.334128 428.608336 
Q 384.563816 428.736461 384.862253 428.736461 
z
M 390.434128 432.902086 
Q 389.437253 432.902086 388.921628 432.370836 
Q 388.407566 431.838024 388.407566 430.884899 
L 388.407566 427.658336 
Q 388.407566 426.700524 388.924753 426.170836 
Q 389.441941 425.641149 390.434128 425.641149 
Q 391.429441 425.641149 391.945066 426.169274 
Q 392.460691 426.695836 392.460691 427.658336 
L 392.460691 430.884899 
Q 392.460691 431.842711 391.941941 432.372399 
Q 391.424753 432.902086 390.434128 432.902086 
z
M 390.434128 431.955211 
Q 390.960691 431.955211 391.212253 431.678649 
Q 391.463816 431.402086 391.463816 430.884899 
L 391.463816 427.658336 
Q 391.463816 427.139586 391.213816 426.864586 
Q 390.965378 426.588024 390.434128 426.588024 
Q 389.901316 426.588024 389.651316 426.864586 
Q 389.402878 427.139586 389.402878 427.658336 
L 389.402878 430.884899 
Q 389.402878 431.402086 389.654441 431.678649 
Q 389.906003 431.955211 390.434128 431.955211 
z
" style="fill: #ffffff"/>
   </g>
  </g>
 </g>
 <defs>
  <clipPath id="p371dc02dce">
   <rect x="144" y="77.76" width="892.8" height="498.96"/>
  </clipPath>
 </defs>
</svg>
