<?xml version="1.0" encoding="utf-8" standalone="no"?>
<!DOCTYPE svg PUBLIC "-//W3C//DTD SVG 1.1//EN"
  "http://www.w3.org/Graphics/SVG/1.1/DTD/svg11.dtd">
<svg xmlns:xlink="http://www.w3.org/1999/xlink" width="1152pt" height="648pt" viewBox="0 0 1152 648" xmlns="http://www.w3.org/2000/svg" version="1.1">
 <metadata>
  <rdf:RDF xmlns:dc="http://purl.org/dc/elements/1.1/" xmlns:cc="http://creativecommons.org/ns#" xmlns:rdf="http://www.w3.org/1999/02/22-rdf-syntax-ns#">
   <cc:Work>
    <dc:type rdf:resource="http://purl.org/dc/dcmitype/StillImage"/>
    <dc:date>2024-04-29T16:21:38.529474</dc:date>
    <dc:format>image/svg+xml</dc:format>
    <dc:creator>
     <cc:Agent>
      <dc:title>Matplotlib v3.8.4, https://matplotlib.org/</dc:title>
     </cc:Agent>
    </dc:creator>
   </cc:Work>
  </rdf:RDF>
 </metadata>
 <defs>
  <style type="text/css">*{stroke-linejoin: round; stroke-linecap: butt}</style>
 </defs>
 <g id="figure_1">
  <g id="patch_1">
   <path d="M 0 648 
L 1152 648 
L 1152 0 
L 0 0 
L 0 648 
z
" style="fill: none"/>
  </g>
  <g id="axes_1">
   <g id="line2d_1">
    <path d="M 284.368 435.406301 
L 289.187717 432.72399 
L 294.007434 430.100607 
L 298.827152 427.534857 
L 303.646869 425.025477 
L 308.466586 422.571229 
L 313.286303 420.170905 
L 318.10602 417.823319 
L 322.925737 415.527316 
L 327.745455 413.281763 
L 332.565172 411.085552 
L 337.384889 408.9376 
L 342.204606 406.836849 
L 347.024323 404.782262 
L 351.84404 402.772826 
L 356.663758 400.807549 
L 361.483475 398.885462 
L 366.303192 397.005617 
L 371.122909 395.167085 
L 375.942626 393.368961 
L 380.762343 391.610357 
L 385.582061 389.890404 
L 390.401778 388.208255 
L 395.221495 386.563078 
L 400.041212 384.954063 
L 404.860929 383.380414 
L 409.680646 381.841355 
L 414.500364 380.336127 
L 419.320081 378.863985 
L 424.139798 377.424204 
L 428.959515 376.016073 
L 433.779232 374.638896 
L 438.598949 373.291993 
L 443.418667 371.974699 
L 448.238384 370.686364 
L 453.058101 369.426352 
L 457.877818 368.19404 
L 462.697535 366.98882 
L 467.517253 365.810096 
L 472.33697 364.657286 
L 477.156687 363.529822 
L 481.976404 362.427145 
L 486.796121 361.348711 
L 491.615838 360.293989 
L 496.435556 359.262455 
L 501.255273 358.253602 
L 506.07499 357.26693 
L 510.894707 356.301952 
L 515.714424 355.358191 
L 520.534141 354.435182 
L 525.353859 353.532467 
L 530.173576 352.649602 
L 534.993293 351.786149 
L 539.81301 350.941682 
L 544.632727 350.115783 
L 549.452444 349.308045 
L 554.272162 348.518069 
L 559.091879 347.745464 
L 563.911596 346.989847 
L 568.731313 346.250847 
L 573.55103 345.528097 
L 578.370747 344.82124 
L 583.190465 344.129927 
L 588.010182 343.453816 
L 592.829899 342.792573 
L 597.649616 342.145871 
L 602.469333 341.513391 
L 607.289051 340.89482 
L 612.108768 340.289852 
L 616.928485 339.698187 
L 621.748202 339.119535 
L 626.567919 338.553607 
L 631.387636 338.000126 
L 636.207354 337.458816 
L 641.027071 336.929411 
L 645.846788 336.411649 
L 650.666505 335.905273 
L 655.486222 335.410034 
L 660.305939 334.925686 
L 665.125657 334.45199 
L 669.945374 333.988712 
L 674.765091 333.535623 
L 679.584808 333.092498 
L 684.404525 332.65912 
L 689.224242 332.235272 
L 694.04396 331.820747 
L 698.863677 331.415338 
L 703.683394 331.018845 
L 708.503111 330.631073 
L 713.322828 330.251829 
L 718.142545 329.880926 
L 722.962263 329.518181 
L 727.78198 329.163414 
L 732.601697 328.816449 
L 737.421414 328.477116 
L 742.241131 328.145246 
L 747.060848 327.820676 
L 751.880566 327.503244 
L 756.700283 327.192793 
L 761.52 326.889171 
" clip-path="url(#p750738569c)" style="fill: none; stroke: #ff0000; stroke-width: 3; stroke-linecap: round"/>
   </g>
   <g id="text_1">
    <path d="M 769.073418 325.420114 
L 772.207792 321.435739 
L 773.432793 321.435739 
L 768.926542 326.913864 
L 769.073418 325.420114 
z
M 768.292168 321.435739 
L 769.28748 321.435739 
L 769.28748 328.535739 
L 768.292168 328.535739 
L 768.292168 321.435739 
z
M 770.254667 324.746677 
L 771.040605 324.018552 
L 773.73123 328.535739 
L 772.510918 328.535739 
L 770.254667 324.746677 
z
M 777.075371 325.010739 
L 777.070683 325.185739 
Q 776.948808 325.410739 776.701933 325.515427 
Q 776.455058 325.620114 776.119121 325.620114 
Q 775.611308 325.620114 775.225371 325.362302 
Q 774.839433 325.102927 774.626933 324.632614 
Q 774.414433 324.160739 774.414433 323.540427 
L 774.414433 323.535739 
Q 774.414433 322.846677 774.645683 322.359177 
Q 774.878496 321.870114 775.325371 321.616989 
Q 775.772246 321.362302 776.397246 321.362302 
Q 777.022246 321.362302 777.465996 321.621677 
Q 777.911308 321.881052 778.142558 322.374802 
Q 778.373808 322.866989 778.373808 323.560739 
L 778.373808 323.565427 
Q 778.373808 323.945114 778.275371 324.377927 
Q 778.178496 324.810739 777.998808 325.234177 
Q 777.969121 325.298239 777.939433 325.363864 
Q 777.911308 325.429489 777.876933 325.493552 
L 776.362871 328.535739 
L 775.287871 328.535739 
L 777.075371 325.010739 
z
M 776.397246 324.712302 
Q 776.865996 324.712302 777.122246 324.395114 
Q 777.378496 324.077927 777.378496 323.501364 
L 777.378496 323.496677 
Q 777.378496 322.935739 777.122246 322.627927 
Q 776.865996 322.320114 776.397246 322.320114 
Q 775.923808 322.320114 775.667558 322.627927 
Q 775.411308 322.935739 775.411308 323.501364 
L 775.411308 323.506052 
Q 775.411308 324.082614 775.667558 324.398239 
Q 775.923808 324.712302 776.397246 324.712302 
z
M 781.719707 328.609177 
Q 780.722832 328.609177 780.207207 328.077927 
Q 779.693144 327.545114 779.693144 326.591989 
L 779.693144 323.365427 
Q 779.693144 322.407614 780.210332 321.877927 
Q 780.727519 321.348239 781.719707 321.348239 
Q 782.715019 321.348239 783.230644 321.876364 
Q 783.746269 322.402927 783.746269 323.365427 
L 783.746269 326.591989 
Q 783.746269 327.549802 783.227519 328.079489 
Q 782.710332 328.609177 781.719707 328.609177 
z
M 781.719707 327.662302 
Q 782.246269 327.662302 782.497832 327.385739 
Q 782.749394 327.109177 782.749394 326.591989 
L 782.749394 323.365427 
Q 782.749394 322.846677 782.499394 322.571677 
Q 782.250957 322.295114 781.719707 322.295114 
Q 781.186894 322.295114 780.936894 322.571677 
Q 780.688457 322.846677 780.688457 323.365427 
L 780.688457 326.591989 
Q 780.688457 327.109177 780.940019 327.385739 
Q 781.191582 327.662302 781.719707 327.662302 
z
M 787.237285 328.609177 
Q 786.24041 328.609177 785.724785 328.077927 
Q 785.210722 327.545114 785.210722 326.591989 
L 785.210722 323.365427 
Q 785.210722 322.407614 785.72791 321.877927 
Q 786.245097 321.348239 787.237285 321.348239 
Q 788.232597 321.348239 788.748222 321.876364 
Q 789.263847 322.402927 789.263847 323.365427 
L 789.263847 326.591989 
Q 789.263847 327.549802 788.745097 328.079489 
Q 788.22791 328.609177 787.237285 328.609177 
z
M 787.237285 327.662302 
Q 787.763847 327.662302 788.01541 327.385739 
Q 788.266972 327.109177 788.266972 326.591989 
L 788.266972 323.365427 
Q 788.266972 322.846677 788.016972 322.571677 
Q 787.768535 322.295114 787.237285 322.295114 
Q 786.704472 322.295114 786.454472 322.571677 
Q 786.206035 322.846677 786.206035 323.365427 
L 786.206035 326.591989 
Q 786.206035 327.109177 786.457597 327.385739 
Q 786.70916 327.662302 787.237285 327.662302 
z
M 792.754863 328.609177 
Q 791.757988 328.609177 791.242363 328.077927 
Q 790.7283 327.545114 790.7283 326.591989 
L 790.7283 323.365427 
Q 790.7283 322.407614 791.245488 321.877927 
Q 791.762675 321.348239 792.754863 321.348239 
Q 793.750175 321.348239 794.2658 321.876364 
Q 794.781425 322.402927 794.781425 323.365427 
L 794.781425 326.591989 
Q 794.781425 327.549802 794.262675 328.079489 
Q 793.745488 328.609177 792.754863 328.609177 
z
M 792.754863 327.662302 
Q 793.281425 327.662302 793.532988 327.385739 
Q 793.78455 327.109177 793.78455 326.591989 
L 793.78455 323.365427 
Q 793.78455 322.846677 793.53455 322.571677 
Q 793.286113 322.295114 792.754863 322.295114 
Q 792.22205 322.295114 791.97205 322.571677 
Q 791.723613 322.846677 791.723613 323.365427 
L 791.723613 326.591989 
Q 791.723613 327.109177 791.975175 327.385739 
Q 792.226738 327.662302 792.754863 327.662302 
z
M 798.525566 328.609177 
Q 798.013066 328.609177 797.553691 328.512302 
Q 797.095878 328.413864 796.697441 328.218552 
Q 796.299003 328.023239 795.952128 327.729489 
L 795.952128 327.729489 
L 796.572441 326.968552 
L 796.572441 326.968552 
Q 796.978691 327.320114 797.466191 327.496677 
Q 797.955253 327.671677 798.525566 327.671677 
Q 799.297441 327.671677 799.722441 327.385739 
Q 800.147441 327.099802 800.147441 326.577927 
L 800.147441 326.573239 
Q 800.147441 326.201364 799.953691 325.984177 
Q 799.761503 325.766989 799.455253 325.662302 
Q 799.150566 325.557614 798.667753 325.468552 
Q 798.652128 325.463864 798.634941 325.463864 
Q 798.619316 325.463864 798.603691 325.459177 
L 798.530253 325.445114 
Q 797.817753 325.323239 797.370878 325.170114 
Q 796.924003 325.015427 796.606816 324.607614 
Q 796.289628 324.199802 796.289628 323.448239 
L 796.289628 323.443552 
Q 796.289628 322.784177 796.584941 322.318552 
Q 796.880253 321.851364 797.445878 321.607614 
Q 798.013066 321.362302 798.808378 321.362302 
Q 799.189628 321.362302 799.558378 321.446677 
Q 799.927128 321.529489 800.284941 321.693552 
Q 800.644316 321.856052 800.991191 322.104489 
L 800.991191 322.104489 
L 800.425566 322.896677 
L 800.425566 322.896677 
Q 800.019316 322.598239 799.616191 322.449802 
Q 799.214628 322.299802 798.808378 322.299802 
Q 798.081816 322.299802 797.678691 322.590427 
Q 797.275566 322.881052 797.275566 323.413864 
L 797.275566 323.418552 
Q 797.275566 323.784177 797.483378 323.995114 
Q 797.691191 324.204489 798.000566 324.304489 
Q 798.311503 324.404489 798.863066 324.512302 
Q 798.881816 324.516989 798.899003 324.520114 
Q 798.916191 324.521677 798.936503 324.526364 
Q 798.959941 324.531052 798.989628 324.537302 
Q 799.019316 324.541989 799.042753 324.546677 
Q 799.688066 324.677927 800.119316 324.859177 
Q 800.552128 325.038864 800.842753 325.441989 
Q 801.133378 325.845114 801.133378 326.543552 
L 801.133378 326.552927 
Q 801.133378 327.202927 800.825566 327.663864 
Q 800.517753 328.124802 799.933378 328.366989 
Q 799.350566 328.609177 798.525566 328.609177 
z
" style="fill: #ffffff; stroke: #000000"/>
    <path d="M 769.073418 325.420114 
L 772.207792 321.435739 
L 773.432793 321.435739 
L 768.926542 326.913864 
L 769.073418 325.420114 
z
M 768.292168 321.435739 
L 769.28748 321.435739 
L 769.28748 328.535739 
L 768.292168 328.535739 
L 768.292168 321.435739 
z
M 770.254667 324.746677 
L 771.040605 324.018552 
L 773.73123 328.535739 
L 772.510918 328.535739 
L 770.254667 324.746677 
z
M 777.075371 325.010739 
L 777.070683 325.185739 
Q 776.948808 325.410739 776.701933 325.515427 
Q 776.455058 325.620114 776.119121 325.620114 
Q 775.611308 325.620114 775.225371 325.362302 
Q 774.839433 325.102927 774.626933 324.632614 
Q 774.414433 324.160739 774.414433 323.540427 
L 774.414433 323.535739 
Q 774.414433 322.846677 774.645683 322.359177 
Q 774.878496 321.870114 775.325371 321.616989 
Q 775.772246 321.362302 776.397246 321.362302 
Q 777.022246 321.362302 777.465996 321.621677 
Q 777.911308 321.881052 778.142558 322.374802 
Q 778.373808 322.866989 778.373808 323.560739 
L 778.373808 323.565427 
Q 778.373808 323.945114 778.275371 324.377927 
Q 778.178496 324.810739 777.998808 325.234177 
Q 777.969121 325.298239 777.939433 325.363864 
Q 777.911308 325.429489 777.876933 325.493552 
L 776.362871 328.535739 
L 775.287871 328.535739 
L 777.075371 325.010739 
z
M 776.397246 324.712302 
Q 776.865996 324.712302 777.122246 324.395114 
Q 777.378496 324.077927 777.378496 323.501364 
L 777.378496 323.496677 
Q 777.378496 322.935739 777.122246 322.627927 
Q 776.865996 322.320114 776.397246 322.320114 
Q 775.923808 322.320114 775.667558 322.627927 
Q 775.411308 322.935739 775.411308 323.501364 
L 775.411308 323.506052 
Q 775.411308 324.082614 775.667558 324.398239 
Q 775.923808 324.712302 776.397246 324.712302 
z
M 781.719707 328.609177 
Q 780.722832 328.609177 780.207207 328.077927 
Q 779.693144 327.545114 779.693144 326.591989 
L 779.693144 323.365427 
Q 779.693144 322.407614 780.210332 321.877927 
Q 780.727519 321.348239 781.719707 321.348239 
Q 782.715019 321.348239 783.230644 321.876364 
Q 783.746269 322.402927 783.746269 323.365427 
L 783.746269 326.591989 
Q 783.746269 327.549802 783.227519 328.079489 
Q 782.710332 328.609177 781.719707 328.609177 
z
M 781.719707 327.662302 
Q 782.246269 327.662302 782.497832 327.385739 
Q 782.749394 327.109177 782.749394 326.591989 
L 782.749394 323.365427 
Q 782.749394 322.846677 782.499394 322.571677 
Q 782.250957 322.295114 781.719707 322.295114 
Q 781.186894 322.295114 780.936894 322.571677 
Q 780.688457 322.846677 780.688457 323.365427 
L 780.688457 326.591989 
Q 780.688457 327.109177 780.940019 327.385739 
Q 781.191582 327.662302 781.719707 327.662302 
z
M 787.237285 328.609177 
Q 786.24041 328.609177 785.724785 328.077927 
Q 785.210722 327.545114 785.210722 326.591989 
L 785.210722 323.365427 
Q 785.210722 322.407614 785.72791 321.877927 
Q 786.245097 321.348239 787.237285 321.348239 
Q 788.232597 321.348239 788.748222 321.876364 
Q 789.263847 322.402927 789.263847 323.365427 
L 789.263847 326.591989 
Q 789.263847 327.549802 788.745097 328.079489 
Q 788.22791 328.609177 787.237285 328.609177 
z
M 787.237285 327.662302 
Q 787.763847 327.662302 788.01541 327.385739 
Q 788.266972 327.109177 788.266972 326.591989 
L 788.266972 323.365427 
Q 788.266972 322.846677 788.016972 322.571677 
Q 787.768535 322.295114 787.237285 322.295114 
Q 786.704472 322.295114 786.454472 322.571677 
Q 786.206035 322.846677 786.206035 323.365427 
L 786.206035 326.591989 
Q 786.206035 327.109177 786.457597 327.385739 
Q 786.70916 327.662302 787.237285 327.662302 
z
M 792.754863 328.609177 
Q 791.757988 328.609177 791.242363 328.077927 
Q 790.7283 327.545114 790.7283 326.591989 
L 790.7283 323.365427 
Q 790.7283 322.407614 791.245488 321.877927 
Q 791.762675 321.348239 792.754863 321.348239 
Q 793.750175 321.348239 794.2658 321.876364 
Q 794.781425 322.402927 794.781425 323.365427 
L 794.781425 326.591989 
Q 794.781425 327.549802 794.262675 328.079489 
Q 793.745488 328.609177 792.754863 328.609177 
z
M 792.754863 327.662302 
Q 793.281425 327.662302 793.532988 327.385739 
Q 793.78455 327.109177 793.78455 326.591989 
L 793.78455 323.365427 
Q 793.78455 322.846677 793.53455 322.571677 
Q 793.286113 322.295114 792.754863 322.295114 
Q 792.22205 322.295114 791.97205 322.571677 
Q 791.723613 322.846677 791.723613 323.365427 
L 791.723613 326.591989 
Q 791.723613 327.109177 791.975175 327.385739 
Q 792.226738 327.662302 792.754863 327.662302 
z
M 798.525566 328.609177 
Q 798.013066 328.609177 797.553691 328.512302 
Q 797.095878 328.413864 796.697441 328.218552 
Q 796.299003 328.023239 795.952128 327.729489 
L 795.952128 327.729489 
L 796.572441 326.968552 
L 796.572441 326.968552 
Q 796.978691 327.320114 797.466191 327.496677 
Q 797.955253 327.671677 798.525566 327.671677 
Q 799.297441 327.671677 799.722441 327.385739 
Q 800.147441 327.099802 800.147441 326.577927 
L 800.147441 326.573239 
Q 800.147441 326.201364 799.953691 325.984177 
Q 799.761503 325.766989 799.455253 325.662302 
Q 799.150566 325.557614 798.667753 325.468552 
Q 798.652128 325.463864 798.634941 325.463864 
Q 798.619316 325.463864 798.603691 325.459177 
L 798.530253 325.445114 
Q 797.817753 325.323239 797.370878 325.170114 
Q 796.924003 325.015427 796.606816 324.607614 
Q 796.289628 324.199802 796.289628 323.448239 
L 796.289628 323.443552 
Q 796.289628 322.784177 796.584941 322.318552 
Q 796.880253 321.851364 797.445878 321.607614 
Q 798.013066 321.362302 798.808378 321.362302 
Q 799.189628 321.362302 799.558378 321.446677 
Q 799.927128 321.529489 800.284941 321.693552 
Q 800.644316 321.856052 800.991191 322.104489 
L 800.991191 322.104489 
L 800.425566 322.896677 
L 800.425566 322.896677 
Q 800.019316 322.598239 799.616191 322.449802 
Q 799.214628 322.299802 798.808378 322.299802 
Q 798.081816 322.299802 797.678691 322.590427 
Q 797.275566 322.881052 797.275566 323.413864 
L 797.275566 323.418552 
Q 797.275566 323.784177 797.483378 323.995114 
Q 797.691191 324.204489 798.000566 324.304489 
Q 798.311503 324.404489 798.863066 324.512302 
Q 798.881816 324.516989 798.899003 324.520114 
Q 798.916191 324.521677 798.936503 324.526364 
Q 798.959941 324.531052 798.989628 324.537302 
Q 799.019316 324.541989 799.042753 324.546677 
Q 799.688066 324.677927 800.119316 324.859177 
Q 800.552128 325.038864 800.842753 325.441989 
Q 801.133378 325.845114 801.133378 326.543552 
L 801.133378 326.552927 
Q 801.133378 327.202927 800.825566 327.663864 
Q 800.517753 328.124802 799.933378 328.366989 
Q 799.350566 328.609177 798.525566 328.609177 
z
" style="fill: #ffffff"/>
   </g>
  </g>
 </g>
 <defs>
  <clipPath id="p750738569c">
   <rect x="144" y="77.76" width="892.8" height="498.96"/>
  </clipPath>
 </defs>
</svg>
