<?xml version="1.0" encoding="utf-8" standalone="no"?>
<!DOCTYPE svg PUBLIC "-//W3C//DTD SVG 1.1//EN"
  "http://www.w3.org/Graphics/SVG/1.1/DTD/svg11.dtd">
<svg xmlns:xlink="http://www.w3.org/1999/xlink" width="1152pt" height="648pt" viewBox="0 0 1152 648" xmlns="http://www.w3.org/2000/svg" version="1.1">
 <metadata>
  <rdf:RDF xmlns:dc="http://purl.org/dc/elements/1.1/" xmlns:cc="http://creativecommons.org/ns#" xmlns:rdf="http://www.w3.org/1999/02/22-rdf-syntax-ns#">
   <cc:Work>
    <dc:type rdf:resource="http://purl.org/dc/dcmitype/StillImage"/>
    <dc:date>2024-03-14T14:55:08.090456</dc:date>
    <dc:format>image/svg+xml</dc:format>
    <dc:creator>
     <cc:Agent>
      <dc:title>Matplotlib v3.8.3, https://matplotlib.org/</dc:title>
     </cc:Agent>
    </dc:creator>
   </cc:Work>
  </rdf:RDF>
 </metadata>
 <defs>
  <style type="text/css">*{stroke-linejoin: round; stroke-linecap: butt}</style>
 </defs>
 <g id="figure_1">
  <g id="patch_1">
   <path d="M 0 648 
L 1152 648 
L 1152 0 
L 0 0 
L 0 648 
z
" style="fill: none"/>
  </g>
  <g id="axes_1">
   <g id="line2d_1">
    <path d="M 206.496 498.006219 
L 207.252525 497.284784 
L 208.009051 496.570164 
L 208.765576 495.862294 
L 209.522101 495.16111 
L 210.278626 494.466551 
L 211.035152 493.778552 
L 211.791677 493.097053 
L 212.548202 492.421992 
L 213.304727 491.753309 
L 214.061253 491.090942 
L 214.817778 490.434834 
L 215.574303 489.784924 
L 216.330828 489.141155 
L 217.087354 488.503468 
L 217.843879 487.871806 
L 218.600404 487.246112 
L 219.356929 486.62633 
L 220.113455 486.012404 
L 220.86998 485.404279 
L 221.626505 484.801901 
L 222.38303 484.205214 
L 223.139556 483.614166 
L 223.896081 483.028703 
L 224.652606 482.448772 
L 225.409131 481.874322 
L 226.165657 481.3053 
L 226.922182 480.741656 
L 227.678707 480.183338 
L 228.435232 479.630296 
L 229.191758 479.082482 
L 229.948283 478.539844 
L 230.704808 478.002335 
L 231.461333 477.469906 
L 232.217859 476.942509 
L 232.974384 476.420096 
L 233.730909 475.902622 
L 234.487434 475.390038 
L 235.24396 474.882299 
L 236.000485 474.379359 
L 236.75701 473.881173 
L 237.513535 473.387696 
L 238.270061 472.898883 
L 239.026586 472.414691 
L 239.783111 471.935076 
L 240.539636 471.459995 
L 241.296162 470.989404 
L 242.052687 470.523262 
L 242.809212 470.061526 
L 243.565737 469.604155 
L 244.322263 469.151108 
L 245.078788 468.702344 
L 245.835313 468.257822 
L 246.591838 467.817502 
L 247.348364 467.381346 
L 248.104889 466.949312 
L 248.861414 466.521363 
L 249.617939 466.09746 
L 250.374465 465.677565 
L 251.13099 465.26164 
L 251.887515 464.849646 
L 252.64404 464.441549 
L 253.400566 464.037309 
L 254.157091 463.636892 
L 254.913616 463.24026 
L 255.670141 462.847379 
L 256.426667 462.458213 
L 257.183192 462.072726 
L 257.939717 461.690884 
L 258.696242 461.312653 
L 259.452768 460.937998 
L 260.209293 460.566885 
L 260.965818 460.199282 
L 261.722343 459.835155 
L 262.478869 459.474471 
L 263.235394 459.117197 
L 263.991919 458.763302 
L 264.748444 458.412754 
L 265.50497 458.065521 
L 266.261495 457.721571 
L 267.01802 457.380873 
L 267.774545 457.043398 
L 268.531071 456.709114 
L 269.287596 456.377991 
L 270.044121 456.05 
L 270.800646 455.72511 
L 271.557172 455.403293 
L 272.313697 455.084519 
L 273.070222 454.76876 
L 273.826747 454.455988 
L 274.583273 454.146173 
L 275.339798 453.839289 
L 276.096323 453.535307 
L 276.852848 453.234199 
L 277.609374 452.93594 
L 278.365899 452.640502 
L 279.122424 452.347857 
L 279.878949 452.057981 
L 280.635475 451.770846 
L 281.392 451.486427 
" clip-path="url(#p7bdd867428)" style="fill: none; stroke: #5130f2; stroke-width: 3; stroke-linecap: round"/>
   </g>
   <g id="text_1">
    <path d="M 290.29698 453.206433 
Q 289.78448 453.206433 289.325105 453.109558 
Q 288.867292 453.01112 288.468855 452.815808 
Q 288.070417 452.620495 287.723542 452.326745 
L 287.723542 452.326745 
L 288.343855 451.565808 
L 288.343855 451.565808 
Q 288.750105 451.91737 289.237605 452.093933 
Q 289.726667 452.268933 290.29698 452.268933 
Q 291.068855 452.268933 291.493855 451.982995 
Q 291.918855 451.697058 291.918855 451.175183 
L 291.918855 451.170495 
Q 291.918855 450.79862 291.725105 450.581433 
Q 291.532917 450.364245 291.226667 450.259558 
Q 290.92198 450.15487 290.439167 450.065808 
Q 290.423542 450.06112 290.406355 450.06112 
Q 290.39073 450.06112 290.375105 450.056433 
L 290.301667 450.04237 
Q 289.589167 449.920495 289.142292 449.76737 
Q 288.695417 449.612683 288.37823 449.20487 
Q 288.061042 448.797058 288.061042 448.045495 
L 288.061042 448.040808 
Q 288.061042 447.381433 288.356355 446.915808 
Q 288.651667 446.44862 289.217292 446.20487 
Q 289.78448 445.959558 290.579792 445.959558 
Q 290.961042 445.959558 291.329792 446.043933 
Q 291.698542 446.126745 292.056355 446.290808 
Q 292.41573 446.453308 292.762605 446.701745 
L 292.762605 446.701745 
L 292.19698 447.493933 
L 292.19698 447.493933 
Q 291.79073 447.195495 291.387605 447.047058 
Q 290.986042 446.897058 290.579792 446.897058 
Q 289.85323 446.897058 289.450105 447.187683 
Q 289.04698 447.478308 289.04698 448.01112 
L 289.04698 448.015808 
Q 289.04698 448.381433 289.254792 448.59237 
Q 289.462605 448.801745 289.77198 448.901745 
Q 290.082917 449.001745 290.63448 449.109558 
Q 290.65323 449.114245 290.670417 449.11737 
Q 290.687605 449.118933 290.707917 449.12362 
Q 290.731355 449.128308 290.761042 449.134558 
Q 290.79073 449.139245 290.814167 449.143933 
Q 291.45948 449.275183 291.89073 449.456433 
Q 292.323542 449.63612 292.614167 450.039245 
Q 292.904792 450.44237 292.904792 451.140808 
L 292.904792 451.150183 
Q 292.904792 451.800183 292.59698 452.26112 
Q 292.289167 452.722058 291.704792 452.964245 
Q 291.12198 453.206433 290.29698 453.206433 
z
M 294.994832 452.18612 
L 296.601082 452.18612 
Q 297.387019 452.18612 297.818269 451.778308 
Q 298.251082 451.370495 298.251082 450.628308 
L 298.251082 448.537683 
Q 298.251082 447.795495 297.818269 447.387683 
Q 297.387019 446.97987 296.601082 446.97987 
L 294.994832 446.97987 
L 294.994832 446.032995 
L 296.571394 446.032995 
Q 297.426082 446.032995 298.030769 446.331433 
Q 298.637019 446.628308 298.954207 447.200183 
Q 299.271394 447.772058 299.271394 448.576745 
L 299.271394 450.589245 
Q 299.271394 451.393933 298.954207 451.965808 
Q 298.637019 452.537683 298.029207 452.83612 
Q 297.421394 453.132995 296.566707 453.132995 
L 294.994832 453.132995 
L 294.994832 452.18612 
z
M 294.321394 446.032995 
L 295.316707 446.032995 
L 295.316707 453.132995 
L 294.321394 453.132995 
L 294.321394 446.032995 
z
M 300.638582 451.17987 
L 303.021394 446.037683 
L 304.047957 446.037683 
L 301.722957 451.120495 
L 305.204207 451.120495 
L 305.204207 452.043933 
L 300.638582 452.043933 
L 300.638582 451.17987 
z
M 303.701082 448.957995 
L 304.672957 448.957995 
L 304.672957 453.137683 
L 303.701082 453.137683 
L 303.701082 448.957995 
z
M 313.13448 449.309558 
L 313.13448 450.550183 
Q 313.13448 451.340808 312.826667 451.943933 
Q 312.518855 452.547058 311.954792 452.876745 
Q 311.39073 453.206433 310.648542 453.206433 
Q 309.89698 453.206433 309.32823 452.897058 
Q 308.75948 452.58612 308.44698 452.020495 
Q 308.13448 451.453308 308.13448 450.706433 
L 308.13448 448.61112 
Q 308.13448 447.820495 308.442292 447.220495 
Q 308.750105 446.618933 309.312605 446.289245 
Q 309.876667 445.959558 310.618855 445.959558 
Q 311.229792 445.959558 311.743855 446.222058 
Q 312.25948 446.482995 312.606355 446.96112 
Q 312.95323 447.439245 313.075105 448.068933 
L 313.075105 448.068933 
L 311.99698 448.068933 
L 311.99698 448.068933 
Q 311.907917 447.712683 311.698542 447.456433 
Q 311.489167 447.200183 311.204792 447.065808 
Q 310.92198 446.931433 310.618855 446.931433 
Q 310.179792 446.931433 309.84698 447.14237 
Q 309.51573 447.351745 309.33448 447.72987 
Q 309.154792 448.107995 309.154792 448.61112 
L 309.154792 450.706433 
Q 309.154792 451.165808 309.339167 451.509558 
Q 309.525105 451.853308 309.864167 452.043933 
Q 310.204792 452.234558 310.648542 452.234558 
Q 311.087605 452.234558 311.418855 452.037683 
Q 311.751667 451.839245 311.932917 451.464245 
Q 312.114167 451.087683 312.114167 450.568933 
L 312.114167 450.26112 
L 310.673542 450.26112 
L 310.673542 449.309558 
L 313.13448 449.309558 
z
M 316.722761 453.206433 
Q 316.019636 453.206433 315.521199 452.94237 
Q 315.024324 452.678308 314.761824 452.168933 
Q 314.500886 451.657995 314.500886 450.93612 
L 314.500886 450.364245 
Q 314.500886 449.612683 314.752449 449.081433 
Q 315.004011 448.54862 315.482136 448.270495 
Q 315.961824 447.990808 316.635261 447.990808 
Q 317.269636 447.990808 317.718074 448.309558 
Q 318.168074 448.626745 318.404011 449.226745 
Q 318.641511 449.826745 318.641511 450.66737 
L 318.641511 450.99862 
L 315.224324 450.99862 
L 315.224324 450.19862 
L 317.694636 450.19862 
L 317.694636 450.19862 
Q 317.650886 449.578308 317.374324 449.234558 
Q 317.099324 448.889245 316.635261 448.889245 
Q 316.068074 448.889245 315.758699 449.26112 
Q 315.449324 449.631433 315.449324 450.31112 
L 315.449324 450.95487 
Q 315.449324 451.584558 315.780574 451.922058 
Q 316.113386 452.259558 316.722761 452.259558 
Q 317.025886 452.259558 317.322761 452.137683 
Q 317.621199 452.014245 317.855574 451.795495 
L 317.855574 451.795495 
L 318.510261 452.44862 
L 318.510261 452.44862 
Q 318.133699 452.81112 317.664949 453.009558 
Q 317.196199 453.206433 316.722761 453.206433 
z
M 320.009089 448.064245 
L 321.005964 448.064245 
L 321.005964 453.132995 
L 320.009089 453.132995 
L 320.009089 448.064245 
z
M 323.085652 450.06112 
Q 323.085652 449.525183 322.807527 449.232995 
Q 322.529402 448.939245 322.026277 448.939245 
Q 321.537214 448.939245 321.271589 449.19862 
Q 321.005964 449.456433 321.005964 449.925183 
L 320.902839 448.94862 
Q 321.137214 448.489245 321.515339 448.240808 
Q 321.893464 447.990808 322.352839 447.990808 
Q 323.177839 447.990808 323.629402 448.531433 
Q 324.080964 449.070495 324.080964 450.056433 
L 324.080964 453.132995 
L 323.085652 453.132995 
L 323.085652 450.06112 
z
M 327.260652 453.132995 
L 326.263777 453.132995 
L 326.263777 447.11737 
L 325.252839 447.737683 
L 325.252839 446.706433 
L 326.263777 446.032995 
L 327.260652 446.032995 
L 327.260652 453.132995 
z
" style="fill: #ffffff; stroke: #000000"/>
    <path d="M 290.29698 453.206433 
Q 289.78448 453.206433 289.325105 453.109558 
Q 288.867292 453.01112 288.468855 452.815808 
Q 288.070417 452.620495 287.723542 452.326745 
L 287.723542 452.326745 
L 288.343855 451.565808 
L 288.343855 451.565808 
Q 288.750105 451.91737 289.237605 452.093933 
Q 289.726667 452.268933 290.29698 452.268933 
Q 291.068855 452.268933 291.493855 451.982995 
Q 291.918855 451.697058 291.918855 451.175183 
L 291.918855 451.170495 
Q 291.918855 450.79862 291.725105 450.581433 
Q 291.532917 450.364245 291.226667 450.259558 
Q 290.92198 450.15487 290.439167 450.065808 
Q 290.423542 450.06112 290.406355 450.06112 
Q 290.39073 450.06112 290.375105 450.056433 
L 290.301667 450.04237 
Q 289.589167 449.920495 289.142292 449.76737 
Q 288.695417 449.612683 288.37823 449.20487 
Q 288.061042 448.797058 288.061042 448.045495 
L 288.061042 448.040808 
Q 288.061042 447.381433 288.356355 446.915808 
Q 288.651667 446.44862 289.217292 446.20487 
Q 289.78448 445.959558 290.579792 445.959558 
Q 290.961042 445.959558 291.329792 446.043933 
Q 291.698542 446.126745 292.056355 446.290808 
Q 292.41573 446.453308 292.762605 446.701745 
L 292.762605 446.701745 
L 292.19698 447.493933 
L 292.19698 447.493933 
Q 291.79073 447.195495 291.387605 447.047058 
Q 290.986042 446.897058 290.579792 446.897058 
Q 289.85323 446.897058 289.450105 447.187683 
Q 289.04698 447.478308 289.04698 448.01112 
L 289.04698 448.015808 
Q 289.04698 448.381433 289.254792 448.59237 
Q 289.462605 448.801745 289.77198 448.901745 
Q 290.082917 449.001745 290.63448 449.109558 
Q 290.65323 449.114245 290.670417 449.11737 
Q 290.687605 449.118933 290.707917 449.12362 
Q 290.731355 449.128308 290.761042 449.134558 
Q 290.79073 449.139245 290.814167 449.143933 
Q 291.45948 449.275183 291.89073 449.456433 
Q 292.323542 449.63612 292.614167 450.039245 
Q 292.904792 450.44237 292.904792 451.140808 
L 292.904792 451.150183 
Q 292.904792 451.800183 292.59698 452.26112 
Q 292.289167 452.722058 291.704792 452.964245 
Q 291.12198 453.206433 290.29698 453.206433 
z
M 294.994832 452.18612 
L 296.601082 452.18612 
Q 297.387019 452.18612 297.818269 451.778308 
Q 298.251082 451.370495 298.251082 450.628308 
L 298.251082 448.537683 
Q 298.251082 447.795495 297.818269 447.387683 
Q 297.387019 446.97987 296.601082 446.97987 
L 294.994832 446.97987 
L 294.994832 446.032995 
L 296.571394 446.032995 
Q 297.426082 446.032995 298.030769 446.331433 
Q 298.637019 446.628308 298.954207 447.200183 
Q 299.271394 447.772058 299.271394 448.576745 
L 299.271394 450.589245 
Q 299.271394 451.393933 298.954207 451.965808 
Q 298.637019 452.537683 298.029207 452.83612 
Q 297.421394 453.132995 296.566707 453.132995 
L 294.994832 453.132995 
L 294.994832 452.18612 
z
M 294.321394 446.032995 
L 295.316707 446.032995 
L 295.316707 453.132995 
L 294.321394 453.132995 
L 294.321394 446.032995 
z
M 300.638582 451.17987 
L 303.021394 446.037683 
L 304.047957 446.037683 
L 301.722957 451.120495 
L 305.204207 451.120495 
L 305.204207 452.043933 
L 300.638582 452.043933 
L 300.638582 451.17987 
z
M 303.701082 448.957995 
L 304.672957 448.957995 
L 304.672957 453.137683 
L 303.701082 453.137683 
L 303.701082 448.957995 
z
M 313.13448 449.309558 
L 313.13448 450.550183 
Q 313.13448 451.340808 312.826667 451.943933 
Q 312.518855 452.547058 311.954792 452.876745 
Q 311.39073 453.206433 310.648542 453.206433 
Q 309.89698 453.206433 309.32823 452.897058 
Q 308.75948 452.58612 308.44698 452.020495 
Q 308.13448 451.453308 308.13448 450.706433 
L 308.13448 448.61112 
Q 308.13448 447.820495 308.442292 447.220495 
Q 308.750105 446.618933 309.312605 446.289245 
Q 309.876667 445.959558 310.618855 445.959558 
Q 311.229792 445.959558 311.743855 446.222058 
Q 312.25948 446.482995 312.606355 446.96112 
Q 312.95323 447.439245 313.075105 448.068933 
L 313.075105 448.068933 
L 311.99698 448.068933 
L 311.99698 448.068933 
Q 311.907917 447.712683 311.698542 447.456433 
Q 311.489167 447.200183 311.204792 447.065808 
Q 310.92198 446.931433 310.618855 446.931433 
Q 310.179792 446.931433 309.84698 447.14237 
Q 309.51573 447.351745 309.33448 447.72987 
Q 309.154792 448.107995 309.154792 448.61112 
L 309.154792 450.706433 
Q 309.154792 451.165808 309.339167 451.509558 
Q 309.525105 451.853308 309.864167 452.043933 
Q 310.204792 452.234558 310.648542 452.234558 
Q 311.087605 452.234558 311.418855 452.037683 
Q 311.751667 451.839245 311.932917 451.464245 
Q 312.114167 451.087683 312.114167 450.568933 
L 312.114167 450.26112 
L 310.673542 450.26112 
L 310.673542 449.309558 
L 313.13448 449.309558 
z
M 316.722761 453.206433 
Q 316.019636 453.206433 315.521199 452.94237 
Q 315.024324 452.678308 314.761824 452.168933 
Q 314.500886 451.657995 314.500886 450.93612 
L 314.500886 450.364245 
Q 314.500886 449.612683 314.752449 449.081433 
Q 315.004011 448.54862 315.482136 448.270495 
Q 315.961824 447.990808 316.635261 447.990808 
Q 317.269636 447.990808 317.718074 448.309558 
Q 318.168074 448.626745 318.404011 449.226745 
Q 318.641511 449.826745 318.641511 450.66737 
L 318.641511 450.99862 
L 315.224324 450.99862 
L 315.224324 450.19862 
L 317.694636 450.19862 
L 317.694636 450.19862 
Q 317.650886 449.578308 317.374324 449.234558 
Q 317.099324 448.889245 316.635261 448.889245 
Q 316.068074 448.889245 315.758699 449.26112 
Q 315.449324 449.631433 315.449324 450.31112 
L 315.449324 450.95487 
Q 315.449324 451.584558 315.780574 451.922058 
Q 316.113386 452.259558 316.722761 452.259558 
Q 317.025886 452.259558 317.322761 452.137683 
Q 317.621199 452.014245 317.855574 451.795495 
L 317.855574 451.795495 
L 318.510261 452.44862 
L 318.510261 452.44862 
Q 318.133699 452.81112 317.664949 453.009558 
Q 317.196199 453.206433 316.722761 453.206433 
z
M 320.009089 448.064245 
L 321.005964 448.064245 
L 321.005964 453.132995 
L 320.009089 453.132995 
L 320.009089 448.064245 
z
M 323.085652 450.06112 
Q 323.085652 449.525183 322.807527 449.232995 
Q 322.529402 448.939245 322.026277 448.939245 
Q 321.537214 448.939245 321.271589 449.19862 
Q 321.005964 449.456433 321.005964 449.925183 
L 320.902839 448.94862 
Q 321.137214 448.489245 321.515339 448.240808 
Q 321.893464 447.990808 322.352839 447.990808 
Q 323.177839 447.990808 323.629402 448.531433 
Q 324.080964 449.070495 324.080964 450.056433 
L 324.080964 453.132995 
L 323.085652 453.132995 
L 323.085652 450.06112 
z
M 327.260652 453.132995 
L 326.263777 453.132995 
L 326.263777 447.11737 
L 325.252839 447.737683 
L 325.252839 446.706433 
L 326.263777 446.032995 
L 327.260652 446.032995 
L 327.260652 453.132995 
z
" style="fill: #ffffff"/>
   </g>
  </g>
 </g>
 <defs>
  <clipPath id="p7bdd867428">
   <rect x="144" y="77.76" width="892.8" height="498.96"/>
  </clipPath>
 </defs>
</svg>
