<?xml version="1.0" encoding="utf-8" standalone="no"?>
<!DOCTYPE svg PUBLIC "-//W3C//DTD SVG 1.1//EN"
  "http://www.w3.org/Graphics/SVG/1.1/DTD/svg11.dtd">
<svg xmlns:xlink="http://www.w3.org/1999/xlink" width="1152pt" height="648pt" viewBox="0 0 1152 648" xmlns="http://www.w3.org/2000/svg" version="1.1">
 <metadata>
  <rdf:RDF xmlns:dc="http://purl.org/dc/elements/1.1/" xmlns:cc="http://creativecommons.org/ns#" xmlns:rdf="http://www.w3.org/1999/02/22-rdf-syntax-ns#">
   <cc:Work>
    <dc:type rdf:resource="http://purl.org/dc/dcmitype/StillImage"/>
    <dc:date>2024-07-10T10:08:28.892623</dc:date>
    <dc:format>image/svg+xml</dc:format>
    <dc:creator>
     <cc:Agent>
      <dc:title>Matplotlib v3.9.1, https://matplotlib.org/</dc:title>
     </cc:Agent>
    </dc:creator>
   </cc:Work>
  </rdf:RDF>
 </metadata>
 <defs>
  <style type="text/css">*{stroke-linejoin: round; stroke-linecap: butt}</style>
 </defs>
 <g id="figure_1">
  <g id="patch_1">
   <path d="M 0 648 
L 1152 648 
L 1152 0 
L 0 0 
L 0 648 
z
" style="fill: none"/>
  </g>
  <g id="axes_1">
   <g id="line2d_1">
    <path d="M 295.28 431.178004 
L 302.188929 423.371187 
L 309.097859 415.79251 
L 316.006788 408.435704 
L 322.915717 401.294649 
L 329.824646 394.363371 
L 336.733576 387.636041 
L 343.642505 381.106971 
L 350.551434 374.770613 
L 357.460364 368.621558 
L 364.369293 362.654532 
L 371.278222 356.864392 
L 378.187152 351.246126 
L 385.096081 345.794853 
L 392.00501 340.505814 
L 398.913939 335.374375 
L 405.822869 330.396022 
L 412.731798 325.56636 
L 419.640727 320.881109 
L 426.549657 316.336104 
L 433.458586 311.927289 
L 440.367515 307.650718 
L 447.276444 303.502552 
L 454.185374 299.479054 
L 461.094303 295.576589 
L 468.003232 291.791622 
L 474.912162 288.120715 
L 481.821091 284.560523 
L 488.73002 281.107796 
L 495.638949 277.759371 
L 502.547879 274.512177 
L 509.456808 271.363225 
L 516.365737 268.309611 
L 523.274667 265.348515 
L 530.183596 262.477193 
L 537.092525 259.692981 
L 544.001455 256.993289 
L 550.910384 254.375603 
L 557.819313 251.83748 
L 564.728242 249.376544 
L 571.637172 246.990491 
L 578.546101 244.677082 
L 585.45503 242.434142 
L 592.36396 240.259559 
L 599.272889 238.151283 
L 606.181818 236.107323 
L 613.090747 234.125745 
L 619.999677 232.204674 
L 626.908606 230.342286 
L 633.817535 228.536813 
L 640.726465 226.786539 
L 647.635394 225.089797 
L 654.544323 223.44497 
L 661.453253 221.850488 
L 668.362182 220.304828 
L 675.271111 218.806511 
L 682.18004 217.354103 
L 689.08897 215.946211 
L 695.997899 214.581486 
L 702.906828 213.258616 
L 709.815758 211.976329 
L 716.724687 210.733393 
L 723.633616 209.528611 
L 730.542545 208.36082 
L 737.451475 207.228896 
L 744.360404 206.131744 
L 751.269333 205.068306 
L 758.178263 204.037553 
L 765.087192 203.038487 
L 771.996121 202.070143 
L 778.905051 201.131581 
L 785.81398 200.221891 
L 792.722909 199.340192 
L 799.631838 198.485627 
L 806.540768 197.657366 
L 813.449697 196.854604 
L 820.358626 196.076562 
L 827.267556 195.322481 
L 834.176485 194.591628 
L 841.085414 193.883291 
L 847.994343 193.196779 
L 854.903273 192.531425 
L 861.812202 191.886578 
L 868.721131 191.261609 
L 875.630061 190.655909 
L 882.53899 190.068885 
L 889.447919 189.499965 
L 896.356848 188.948592 
L 903.265778 188.414227 
L 910.174707 187.896348 
L 917.083636 187.394447 
L 923.992566 186.908034 
L 930.901495 186.436632 
L 937.810424 185.97978 
L 944.719354 185.537029 
L 951.628283 185.107947 
L 958.537212 184.692112 
L 965.446141 184.289116 
L 972.355071 183.898564 
L 979.264 183.520073 
" clip-path="url(#p2098fbd23d)" style="fill: none; stroke: #30b1f2; stroke-width: 3; stroke-linecap: round"/>
   </g>
   <g id="text_1">
    <path d="M 986.036167 178.066641 
L 987.03148 178.066641 
L 987.03148 185.166641 
L 986.036167 185.166641 
L 986.036167 178.066641 
z
M 986.51898 184.219766 
L 990.595542 184.219766 
L 990.595542 185.166641 
L 986.51898 185.166641 
L 986.51898 184.219766 
z
M 986.51898 181.168204 
L 990.059605 181.168204 
L 990.059605 182.115079 
L 986.51898 182.115079 
L 986.51898 181.168204 
z
M 986.51898 178.066641 
L 990.595542 178.066641 
L 990.595542 179.013516 
L 986.51898 179.013516 
L 986.51898 178.066641 
z
M 991.758042 184.302579 
L 994.233042 181.001016 
Q 994.448667 180.718204 994.567417 180.413516 
Q 994.68773 180.107266 994.68773 179.844766 
L 994.68773 179.833829 
Q 994.68773 179.410391 994.43773 179.176016 
Q 994.189292 178.941641 993.73148 178.941641 
Q 993.295542 178.941641 993.026792 179.197891 
Q 992.759605 179.454141 992.70023 179.922891 
L 992.70023 179.927579 
L 991.670542 179.927579 
L 991.670542 179.922891 
Q 991.758042 179.311954 992.028355 178.880704 
Q 992.30023 178.447891 992.729917 178.221329 
Q 993.159605 177.993204 993.720542 177.993204 
Q 994.35648 177.993204 994.804917 178.210391 
Q 995.254917 178.427579 995.489292 178.843204 
Q 995.723667 179.258829 995.723667 179.844766 
L 995.723667 179.849454 
Q 995.723667 180.224454 995.567417 180.635391 
Q 995.411167 181.044766 995.13148 181.426016 
L 993.076792 184.219766 
L 995.76273 184.219766 
L 995.76273 185.166641 
L 991.758042 185.166641 
L 991.758042 184.302579 
z
M 996.933433 183.213516 
L 999.316246 178.071329 
L 1000.342808 178.071329 
L 998.017808 183.154141 
L 1001.499058 183.154141 
L 1001.499058 184.077579 
L 996.933433 184.077579 
L 996.933433 183.213516 
z
M 999.995933 180.991641 
L 1000.967808 180.991641 
L 1000.967808 185.171329 
L 999.995933 185.171329 
L 999.995933 180.991641 
z
M 1004.74691 185.240079 
Q 1003.750035 185.240079 1003.23441 184.708829 
Q 1002.720347 184.176016 1002.720347 183.222891 
L 1002.720347 179.996329 
Q 1002.720347 179.038516 1003.237535 178.508829 
Q 1003.754722 177.979141 1004.74691 177.979141 
Q 1005.742222 177.979141 1006.257847 178.507266 
Q 1006.773472 179.033829 1006.773472 179.996329 
L 1006.773472 183.222891 
Q 1006.773472 184.180704 1006.254722 184.710391 
Q 1005.737535 185.240079 1004.74691 185.240079 
z
M 1004.74691 184.293204 
Q 1005.273472 184.293204 1005.525035 184.016641 
Q 1005.776597 183.740079 1005.776597 183.222891 
L 1005.776597 179.996329 
Q 1005.776597 179.477579 1005.526597 179.202579 
Q 1005.27816 178.926016 1004.74691 178.926016 
Q 1004.214097 178.926016 1003.964097 179.202579 
Q 1003.71566 179.477579 1003.71566 179.996329 
L 1003.71566 183.222891 
Q 1003.71566 183.740079 1003.967222 184.016641 
Q 1004.218785 184.293204 1004.74691 184.293204 
z
M 1010.264488 185.240079 
Q 1009.267613 185.240079 1008.751988 184.708829 
Q 1008.237925 184.176016 1008.237925 183.222891 
L 1008.237925 179.996329 
Q 1008.237925 179.038516 1008.755113 178.508829 
Q 1009.2723 177.979141 1010.264488 177.979141 
Q 1011.2598 177.979141 1011.775425 178.507266 
Q 1012.29105 179.033829 1012.29105 179.996329 
L 1012.29105 183.222891 
Q 1012.29105 184.180704 1011.7723 184.710391 
Q 1011.255113 185.240079 1010.264488 185.240079 
z
M 1010.264488 184.293204 
Q 1010.79105 184.293204 1011.042613 184.016641 
Q 1011.294175 183.740079 1011.294175 183.222891 
L 1011.294175 179.996329 
Q 1011.294175 179.477579 1011.044175 179.202579 
Q 1010.795738 178.926016 1010.264488 178.926016 
Q 1009.731675 178.926016 1009.481675 179.202579 
Q 1009.233238 179.477579 1009.233238 179.996329 
L 1009.233238 183.222891 
Q 1009.233238 183.740079 1009.4848 184.016641 
Q 1009.736363 184.293204 1010.264488 184.293204 
z
" style="fill: #ffffff; stroke: #000000"/>
    <path d="M 986.036167 178.066641 
L 987.03148 178.066641 
L 987.03148 185.166641 
L 986.036167 185.166641 
L 986.036167 178.066641 
z
M 986.51898 184.219766 
L 990.595542 184.219766 
L 990.595542 185.166641 
L 986.51898 185.166641 
L 986.51898 184.219766 
z
M 986.51898 181.168204 
L 990.059605 181.168204 
L 990.059605 182.115079 
L 986.51898 182.115079 
L 986.51898 181.168204 
z
M 986.51898 178.066641 
L 990.595542 178.066641 
L 990.595542 179.013516 
L 986.51898 179.013516 
L 986.51898 178.066641 
z
M 991.758042 184.302579 
L 994.233042 181.001016 
Q 994.448667 180.718204 994.567417 180.413516 
Q 994.68773 180.107266 994.68773 179.844766 
L 994.68773 179.833829 
Q 994.68773 179.410391 994.43773 179.176016 
Q 994.189292 178.941641 993.73148 178.941641 
Q 993.295542 178.941641 993.026792 179.197891 
Q 992.759605 179.454141 992.70023 179.922891 
L 992.70023 179.927579 
L 991.670542 179.927579 
L 991.670542 179.922891 
Q 991.758042 179.311954 992.028355 178.880704 
Q 992.30023 178.447891 992.729917 178.221329 
Q 993.159605 177.993204 993.720542 177.993204 
Q 994.35648 177.993204 994.804917 178.210391 
Q 995.254917 178.427579 995.489292 178.843204 
Q 995.723667 179.258829 995.723667 179.844766 
L 995.723667 179.849454 
Q 995.723667 180.224454 995.567417 180.635391 
Q 995.411167 181.044766 995.13148 181.426016 
L 993.076792 184.219766 
L 995.76273 184.219766 
L 995.76273 185.166641 
L 991.758042 185.166641 
L 991.758042 184.302579 
z
M 996.933433 183.213516 
L 999.316246 178.071329 
L 1000.342808 178.071329 
L 998.017808 183.154141 
L 1001.499058 183.154141 
L 1001.499058 184.077579 
L 996.933433 184.077579 
L 996.933433 183.213516 
z
M 999.995933 180.991641 
L 1000.967808 180.991641 
L 1000.967808 185.171329 
L 999.995933 185.171329 
L 999.995933 180.991641 
z
M 1004.74691 185.240079 
Q 1003.750035 185.240079 1003.23441 184.708829 
Q 1002.720347 184.176016 1002.720347 183.222891 
L 1002.720347 179.996329 
Q 1002.720347 179.038516 1003.237535 178.508829 
Q 1003.754722 177.979141 1004.74691 177.979141 
Q 1005.742222 177.979141 1006.257847 178.507266 
Q 1006.773472 179.033829 1006.773472 179.996329 
L 1006.773472 183.222891 
Q 1006.773472 184.180704 1006.254722 184.710391 
Q 1005.737535 185.240079 1004.74691 185.240079 
z
M 1004.74691 184.293204 
Q 1005.273472 184.293204 1005.525035 184.016641 
Q 1005.776597 183.740079 1005.776597 183.222891 
L 1005.776597 179.996329 
Q 1005.776597 179.477579 1005.526597 179.202579 
Q 1005.27816 178.926016 1004.74691 178.926016 
Q 1004.214097 178.926016 1003.964097 179.202579 
Q 1003.71566 179.477579 1003.71566 179.996329 
L 1003.71566 183.222891 
Q 1003.71566 183.740079 1003.967222 184.016641 
Q 1004.218785 184.293204 1004.74691 184.293204 
z
M 1010.264488 185.240079 
Q 1009.267613 185.240079 1008.751988 184.708829 
Q 1008.237925 184.176016 1008.237925 183.222891 
L 1008.237925 179.996329 
Q 1008.237925 179.038516 1008.755113 178.508829 
Q 1009.2723 177.979141 1010.264488 177.979141 
Q 1011.2598 177.979141 1011.775425 178.507266 
Q 1012.29105 179.033829 1012.29105 179.996329 
L 1012.29105 183.222891 
Q 1012.29105 184.180704 1011.7723 184.710391 
Q 1011.255113 185.240079 1010.264488 185.240079 
z
M 1010.264488 184.293204 
Q 1010.79105 184.293204 1011.042613 184.016641 
Q 1011.294175 183.740079 1011.294175 183.222891 
L 1011.294175 179.996329 
Q 1011.294175 179.477579 1011.044175 179.202579 
Q 1010.795738 178.926016 1010.264488 178.926016 
Q 1009.731675 178.926016 1009.481675 179.202579 
Q 1009.233238 179.477579 1009.233238 179.996329 
L 1009.233238 183.222891 
Q 1009.233238 183.740079 1009.4848 184.016641 
Q 1009.736363 184.293204 1010.264488 184.293204 
z
" style="fill: #ffffff"/>
   </g>
  </g>
 </g>
 <defs>
  <clipPath id="p2098fbd23d">
   <rect x="144" y="77.76" width="892.8" height="498.96"/>
  </clipPath>
 </defs>
</svg>
