<?xml version="1.0" encoding="utf-8" standalone="no"?>
<!DOCTYPE svg PUBLIC "-//W3C//DTD SVG 1.1//EN"
  "http://www.w3.org/Graphics/SVG/1.1/DTD/svg11.dtd">
<svg xmlns:xlink="http://www.w3.org/1999/xlink" width="1152pt" height="648pt" viewBox="0 0 1152 648" xmlns="http://www.w3.org/2000/svg" version="1.1">
 <metadata>
  <rdf:RDF xmlns:dc="http://purl.org/dc/elements/1.1/" xmlns:cc="http://creativecommons.org/ns#" xmlns:rdf="http://www.w3.org/1999/02/22-rdf-syntax-ns#">
   <cc:Work>
    <dc:type rdf:resource="http://purl.org/dc/dcmitype/StillImage"/>
    <dc:date>2024-03-14T14:55:09.088577</dc:date>
    <dc:format>image/svg+xml</dc:format>
    <dc:creator>
     <cc:Agent>
      <dc:title>Matplotlib v3.8.3, https://matplotlib.org/</dc:title>
     </cc:Agent>
    </dc:creator>
   </cc:Work>
  </rdf:RDF>
 </metadata>
 <defs>
  <style type="text/css">*{stroke-linejoin: round; stroke-linecap: butt}</style>
 </defs>
 <g id="figure_1">
  <g id="patch_1">
   <path d="M 0 648 
L 1152 648 
L 1152 0 
L 0 0 
L 0 648 
z
" style="fill: none"/>
  </g>
  <g id="axes_1">
   <g id="PathCollection_1">
    <defs>
     <path id="m07d292ae33" d="M 0 2.738613 
C 0.726289 2.738613 1.422928 2.450055 1.936492 1.936492 
C 2.450055 1.422928 2.738613 0.726289 2.738613 0 
C 2.738613 -0.726289 2.450055 -1.422928 1.936492 -1.936492 
C 1.422928 -2.450055 0.726289 -2.738613 0 -2.738613 
C -0.726289 -2.738613 -1.422928 -2.450055 -1.936492 -1.936492 
C -2.450055 -1.422928 -2.738613 -0.726289 -2.738613 0 
C -2.738613 0.726289 -2.450055 1.422928 -1.936492 1.936492 
C -1.422928 2.450055 -0.726289 2.738613 0 2.738613 
z
" style="stroke: #ff0000"/>
    </defs>
    <g clip-path="url(#p121a12bc17)">
     <use xlink:href="#m07d292ae33" x="509.056" y="412.99875" style="fill: #ff0000; stroke: #ff0000"/>
     <use xlink:href="#m07d292ae33" x="280.896" y="445.61826" style="fill: #ff0000; stroke: #ff0000"/>
    </g>
   </g>
   <g id="text_1">
    <path d="M 516.609418 411.529693 
L 519.743793 407.545318 
L 520.968793 407.545318 
L 516.462543 413.023443 
L 516.609418 411.529693 
z
M 515.828168 407.545318 
L 516.82348 407.545318 
L 516.82348 414.645318 
L 515.828168 414.645318 
L 515.828168 407.545318 
z
M 517.790668 410.856255 
L 518.576605 410.12813 
L 521.26723 414.645318 
L 520.046918 414.645318 
L 517.790668 410.856255 
z
M 524.176996 414.718755 
Q 523.533246 414.718755 523.044183 414.475005 
Q 522.556683 414.229693 522.289496 413.782818 
Q 522.023871 413.335943 522.023871 412.745318 
L 522.023871 412.62813 
Q 522.023871 412.09688 522.289496 411.62813 
Q 522.556683 411.15938 523.000433 410.920318 
Q 522.623871 410.714068 522.397308 410.326568 
Q 522.170746 409.937505 522.170746 409.507818 
L 522.170746 409.337505 
Q 522.170746 408.781255 522.419183 408.35938 
Q 522.667621 407.935943 523.122308 407.704693 
Q 523.576996 407.47188 524.176996 407.47188 
Q 524.776996 407.47188 525.231683 407.704693 
Q 525.686371 407.935943 525.934808 408.35938 
Q 526.183246 408.781255 526.183246 409.337505 
L 526.183246 409.507818 
Q 526.183246 409.948443 525.951996 410.33438 
Q 525.720746 410.718755 525.339496 410.920318 
Q 525.787933 411.164068 526.058246 411.631255 
Q 526.330121 412.09688 526.330121 412.62813 
L 526.330121 412.745318 
Q 526.330121 413.335943 526.064496 413.782818 
Q 525.798871 414.229693 525.309808 414.475005 
Q 524.822308 414.718755 524.176996 414.718755 
z
M 524.176996 413.760943 
Q 524.523871 413.760943 524.786371 413.625005 
Q 525.050433 413.487505 525.194183 413.242193 
Q 525.339496 412.995318 525.339496 412.67188 
L 525.339496 412.604693 
Q 525.339496 412.276568 525.194183 412.031255 
Q 525.050433 411.78438 524.786371 411.648443 
Q 524.523871 411.510943 524.176996 411.510943 
Q 523.830121 411.510943 523.566058 411.648443 
Q 523.303558 411.78438 523.158246 412.032818 
Q 523.014496 412.281255 523.014496 412.60938 
L 523.014496 412.682818 
Q 523.014496 413.004693 523.158246 413.248443 
Q 523.303558 413.492193 523.566058 413.626568 
Q 523.830121 413.760943 524.176996 413.760943 
z
M 524.176996 410.55313 
Q 524.475433 410.55313 524.703558 410.425005 
Q 524.933246 410.295318 525.059808 410.056255 
Q 525.187933 409.81563 525.187933 409.50313 
L 525.187933 409.435943 
Q 525.187933 409.137505 525.059808 408.907818 
Q 524.933246 408.67813 524.703558 408.554693 
Q 524.475433 408.429693 524.176996 408.429693 
Q 523.878558 408.429693 523.648871 408.554693 
Q 523.420746 408.67813 523.292621 408.907818 
Q 523.166058 409.137505 523.166058 409.44063 
L 523.166058 409.514068 
Q 523.166058 409.820318 523.292621 410.057818 
Q 523.420746 410.295318 523.648871 410.425005 
Q 523.878558 410.55313 524.176996 410.55313 
z
M 529.748871 414.718755 
Q 528.751996 414.718755 528.236371 414.187505 
Q 527.722308 413.654693 527.722308 412.701568 
L 527.722308 409.475005 
Q 527.722308 408.517193 528.239496 407.987505 
Q 528.756683 407.457818 529.748871 407.457818 
Q 530.744183 407.457818 531.259808 407.985943 
Q 531.775433 408.512505 531.775433 409.475005 
L 531.775433 412.701568 
Q 531.775433 413.65938 531.256683 414.189068 
Q 530.739496 414.718755 529.748871 414.718755 
z
M 529.748871 413.77188 
Q 530.275433 413.77188 530.526996 413.495318 
Q 530.778558 413.218755 530.778558 412.701568 
L 530.778558 409.475005 
Q 530.778558 408.956255 530.528558 408.681255 
Q 530.280121 408.404693 529.748871 408.404693 
Q 529.216058 408.404693 528.966058 408.681255 
Q 528.717621 408.956255 528.717621 409.475005 
L 528.717621 412.701568 
Q 528.717621 413.218755 528.969183 413.495318 
Q 529.220746 413.77188 529.748871 413.77188 
z
M 535.266449 414.718755 
Q 534.269574 414.718755 533.753949 414.187505 
Q 533.239886 413.654693 533.239886 412.701568 
L 533.239886 409.475005 
Q 533.239886 408.517193 533.757074 407.987505 
Q 534.274261 407.457818 535.266449 407.457818 
Q 536.261761 407.457818 536.777386 407.985943 
Q 537.293011 408.512505 537.293011 409.475005 
L 537.293011 412.701568 
Q 537.293011 413.65938 536.774261 414.189068 
Q 536.257074 414.718755 535.266449 414.718755 
z
M 535.266449 413.77188 
Q 535.793011 413.77188 536.044574 413.495318 
Q 536.296136 413.218755 536.296136 412.701568 
L 536.296136 409.475005 
Q 536.296136 408.956255 536.046136 408.681255 
Q 535.797699 408.404693 535.266449 408.404693 
Q 534.733636 408.404693 534.483636 408.681255 
Q 534.235199 408.956255 534.235199 409.475005 
L 534.235199 412.701568 
Q 534.235199 413.218755 534.486761 413.495318 
Q 534.738324 413.77188 535.266449 413.77188 
z
M 540.784027 414.718755 
Q 539.787152 414.718755 539.271527 414.187505 
Q 538.757464 413.654693 538.757464 412.701568 
L 538.757464 409.475005 
Q 538.757464 408.517193 539.274652 407.987505 
Q 539.791839 407.457818 540.784027 407.457818 
Q 541.779339 407.457818 542.294964 407.985943 
Q 542.810589 408.512505 542.810589 409.475005 
L 542.810589 412.701568 
Q 542.810589 413.65938 542.291839 414.189068 
Q 541.774652 414.718755 540.784027 414.718755 
z
M 540.784027 413.77188 
Q 541.310589 413.77188 541.562152 413.495318 
Q 541.813714 413.218755 541.813714 412.701568 
L 541.813714 409.475005 
Q 541.813714 408.956255 541.563714 408.681255 
Q 541.315277 408.404693 540.784027 408.404693 
Q 540.251214 408.404693 540.001214 408.681255 
Q 539.752777 408.956255 539.752777 409.475005 
L 539.752777 412.701568 
Q 539.752777 413.218755 540.004339 413.495318 
Q 540.255902 413.77188 540.784027 413.77188 
z
" style="fill: #ffffff; stroke: #000000"/>
    <path d="M 516.609418 411.529693 
L 519.743793 407.545318 
L 520.968793 407.545318 
L 516.462543 413.023443 
L 516.609418 411.529693 
z
M 515.828168 407.545318 
L 516.82348 407.545318 
L 516.82348 414.645318 
L 515.828168 414.645318 
L 515.828168 407.545318 
z
M 517.790668 410.856255 
L 518.576605 410.12813 
L 521.26723 414.645318 
L 520.046918 414.645318 
L 517.790668 410.856255 
z
M 524.176996 414.718755 
Q 523.533246 414.718755 523.044183 414.475005 
Q 522.556683 414.229693 522.289496 413.782818 
Q 522.023871 413.335943 522.023871 412.745318 
L 522.023871 412.62813 
Q 522.023871 412.09688 522.289496 411.62813 
Q 522.556683 411.15938 523.000433 410.920318 
Q 522.623871 410.714068 522.397308 410.326568 
Q 522.170746 409.937505 522.170746 409.507818 
L 522.170746 409.337505 
Q 522.170746 408.781255 522.419183 408.35938 
Q 522.667621 407.935943 523.122308 407.704693 
Q 523.576996 407.47188 524.176996 407.47188 
Q 524.776996 407.47188 525.231683 407.704693 
Q 525.686371 407.935943 525.934808 408.35938 
Q 526.183246 408.781255 526.183246 409.337505 
L 526.183246 409.507818 
Q 526.183246 409.948443 525.951996 410.33438 
Q 525.720746 410.718755 525.339496 410.920318 
Q 525.787933 411.164068 526.058246 411.631255 
Q 526.330121 412.09688 526.330121 412.62813 
L 526.330121 412.745318 
Q 526.330121 413.335943 526.064496 413.782818 
Q 525.798871 414.229693 525.309808 414.475005 
Q 524.822308 414.718755 524.176996 414.718755 
z
M 524.176996 413.760943 
Q 524.523871 413.760943 524.786371 413.625005 
Q 525.050433 413.487505 525.194183 413.242193 
Q 525.339496 412.995318 525.339496 412.67188 
L 525.339496 412.604693 
Q 525.339496 412.276568 525.194183 412.031255 
Q 525.050433 411.78438 524.786371 411.648443 
Q 524.523871 411.510943 524.176996 411.510943 
Q 523.830121 411.510943 523.566058 411.648443 
Q 523.303558 411.78438 523.158246 412.032818 
Q 523.014496 412.281255 523.014496 412.60938 
L 523.014496 412.682818 
Q 523.014496 413.004693 523.158246 413.248443 
Q 523.303558 413.492193 523.566058 413.626568 
Q 523.830121 413.760943 524.176996 413.760943 
z
M 524.176996 410.55313 
Q 524.475433 410.55313 524.703558 410.425005 
Q 524.933246 410.295318 525.059808 410.056255 
Q 525.187933 409.81563 525.187933 409.50313 
L 525.187933 409.435943 
Q 525.187933 409.137505 525.059808 408.907818 
Q 524.933246 408.67813 524.703558 408.554693 
Q 524.475433 408.429693 524.176996 408.429693 
Q 523.878558 408.429693 523.648871 408.554693 
Q 523.420746 408.67813 523.292621 408.907818 
Q 523.166058 409.137505 523.166058 409.44063 
L 523.166058 409.514068 
Q 523.166058 409.820318 523.292621 410.057818 
Q 523.420746 410.295318 523.648871 410.425005 
Q 523.878558 410.55313 524.176996 410.55313 
z
M 529.748871 414.718755 
Q 528.751996 414.718755 528.236371 414.187505 
Q 527.722308 413.654693 527.722308 412.701568 
L 527.722308 409.475005 
Q 527.722308 408.517193 528.239496 407.987505 
Q 528.756683 407.457818 529.748871 407.457818 
Q 530.744183 407.457818 531.259808 407.985943 
Q 531.775433 408.512505 531.775433 409.475005 
L 531.775433 412.701568 
Q 531.775433 413.65938 531.256683 414.189068 
Q 530.739496 414.718755 529.748871 414.718755 
z
M 529.748871 413.77188 
Q 530.275433 413.77188 530.526996 413.495318 
Q 530.778558 413.218755 530.778558 412.701568 
L 530.778558 409.475005 
Q 530.778558 408.956255 530.528558 408.681255 
Q 530.280121 408.404693 529.748871 408.404693 
Q 529.216058 408.404693 528.966058 408.681255 
Q 528.717621 408.956255 528.717621 409.475005 
L 528.717621 412.701568 
Q 528.717621 413.218755 528.969183 413.495318 
Q 529.220746 413.77188 529.748871 413.77188 
z
M 535.266449 414.718755 
Q 534.269574 414.718755 533.753949 414.187505 
Q 533.239886 413.654693 533.239886 412.701568 
L 533.239886 409.475005 
Q 533.239886 408.517193 533.757074 407.987505 
Q 534.274261 407.457818 535.266449 407.457818 
Q 536.261761 407.457818 536.777386 407.985943 
Q 537.293011 408.512505 537.293011 409.475005 
L 537.293011 412.701568 
Q 537.293011 413.65938 536.774261 414.189068 
Q 536.257074 414.718755 535.266449 414.718755 
z
M 535.266449 413.77188 
Q 535.793011 413.77188 536.044574 413.495318 
Q 536.296136 413.218755 536.296136 412.701568 
L 536.296136 409.475005 
Q 536.296136 408.956255 536.046136 408.681255 
Q 535.797699 408.404693 535.266449 408.404693 
Q 534.733636 408.404693 534.483636 408.681255 
Q 534.235199 408.956255 534.235199 409.475005 
L 534.235199 412.701568 
Q 534.235199 413.218755 534.486761 413.495318 
Q 534.738324 413.77188 535.266449 413.77188 
z
M 540.784027 414.718755 
Q 539.787152 414.718755 539.271527 414.187505 
Q 538.757464 413.654693 538.757464 412.701568 
L 538.757464 409.475005 
Q 538.757464 408.517193 539.274652 407.987505 
Q 539.791839 407.457818 540.784027 407.457818 
Q 541.779339 407.457818 542.294964 407.985943 
Q 542.810589 408.512505 542.810589 409.475005 
L 542.810589 412.701568 
Q 542.810589 413.65938 542.291839 414.189068 
Q 541.774652 414.718755 540.784027 414.718755 
z
M 540.784027 413.77188 
Q 541.310589 413.77188 541.562152 413.495318 
Q 541.813714 413.218755 541.813714 412.701568 
L 541.813714 409.475005 
Q 541.813714 408.956255 541.563714 408.681255 
Q 541.315277 408.404693 540.784027 408.404693 
Q 540.251214 408.404693 540.001214 408.681255 
Q 539.752777 408.956255 539.752777 409.475005 
L 539.752777 412.701568 
Q 539.752777 413.218755 540.004339 413.495318 
Q 540.255902 413.77188 540.784027 413.77188 
z
" style="fill: #ffffff"/>
   </g>
   <g id="text_2">
    <path d="M 288.449417 444.149203 
L 291.583792 440.164828 
L 292.808792 440.164828 
L 288.302542 445.642953 
L 288.449417 444.149203 
z
M 287.668167 440.164828 
L 288.66348 440.164828 
L 288.66348 447.264828 
L 287.668167 447.264828 
L 287.668167 440.164828 
z
M 289.630667 443.475766 
L 290.416605 442.747641 
L 293.10723 447.264828 
L 291.886917 447.264828 
L 289.630667 443.475766 
z
M 296.016996 447.338266 
Q 295.373246 447.338266 294.884183 447.094515 
Q 294.396683 446.849203 294.129496 446.402328 
Q 293.863871 445.955453 293.863871 445.364828 
L 293.863871 445.247641 
Q 293.863871 444.716391 294.129496 444.247641 
Q 294.396683 443.778891 294.840433 443.539828 
Q 294.463871 443.333578 294.237308 442.946078 
Q 294.010746 442.557016 294.010746 442.127328 
L 294.010746 441.957016 
Q 294.010746 441.400766 294.259183 440.978891 
Q 294.507621 440.555453 294.962308 440.324203 
Q 295.416996 440.091391 296.016996 440.091391 
Q 296.616996 440.091391 297.071683 440.324203 
Q 297.526371 440.555453 297.774808 440.978891 
Q 298.023246 441.400766 298.023246 441.957016 
L 298.023246 442.127328 
Q 298.023246 442.567953 297.791996 442.95389 
Q 297.560746 443.338266 297.179496 443.539828 
Q 297.627933 443.783578 297.898246 444.250765 
Q 298.170121 444.716391 298.170121 445.247641 
L 298.170121 445.364828 
Q 298.170121 445.955453 297.904496 446.402328 
Q 297.638871 446.849203 297.149808 447.094515 
Q 296.662308 447.338266 296.016996 447.338266 
z
M 296.016996 446.380453 
Q 296.363871 446.380453 296.626371 446.244516 
Q 296.890433 446.107016 297.034183 445.861703 
Q 297.179496 445.614828 297.179496 445.291391 
L 297.179496 445.224203 
Q 297.179496 444.896078 297.034183 444.650766 
Q 296.890433 444.403891 296.626371 444.267953 
Q 296.363871 444.130453 296.016996 444.130453 
Q 295.670121 444.130453 295.406058 444.267953 
Q 295.143558 444.403891 294.998246 444.652328 
Q 294.854496 444.900766 294.854496 445.228891 
L 294.854496 445.302328 
Q 294.854496 445.624203 294.998246 445.867953 
Q 295.143558 446.111703 295.406058 446.246078 
Q 295.670121 446.380453 296.016996 446.380453 
z
M 296.016996 443.17264 
Q 296.315433 443.17264 296.543558 443.044516 
Q 296.773246 442.914828 296.899808 442.675766 
Q 297.027933 442.435141 297.027933 442.122641 
L 297.027933 442.055453 
Q 297.027933 441.757016 296.899808 441.527328 
Q 296.773246 441.29764 296.543558 441.174203 
Q 296.315433 441.049203 296.016996 441.049203 
Q 295.718558 441.049203 295.488871 441.174203 
Q 295.260746 441.29764 295.132621 441.527328 
Q 295.006058 441.757016 295.006058 442.060141 
L 295.006058 442.133578 
Q 295.006058 442.439828 295.132621 442.677328 
Q 295.260746 442.914828 295.488871 443.044516 
Q 295.718558 443.17264 296.016996 443.17264 
z
M 301.588871 447.338266 
Q 300.591996 447.338266 300.076371 446.807016 
Q 299.562308 446.274203 299.562308 445.321078 
L 299.562308 442.094515 
Q 299.562308 441.136703 300.079496 440.607016 
Q 300.596683 440.077328 301.588871 440.077328 
Q 302.584183 440.077328 303.099808 440.605453 
Q 303.615433 441.132016 303.615433 442.094515 
L 303.615433 445.321078 
Q 303.615433 446.278891 303.096683 446.808578 
Q 302.579496 447.338266 301.588871 447.338266 
z
M 301.588871 446.39139 
Q 302.115433 446.39139 302.366996 446.114828 
Q 302.618558 445.838266 302.618558 445.321078 
L 302.618558 442.094515 
Q 302.618558 441.575766 302.368558 441.300766 
Q 302.120121 441.024203 301.588871 441.024203 
Q 301.056058 441.024203 300.806058 441.300766 
Q 300.557621 441.575766 300.557621 442.094515 
L 300.557621 445.321078 
Q 300.557621 445.838266 300.809183 446.114828 
Q 301.060746 446.39139 301.588871 446.39139 
z
M 307.106449 447.338266 
Q 306.109574 447.338266 305.593949 446.807016 
Q 305.079886 446.274203 305.079886 445.321078 
L 305.079886 442.094515 
Q 305.079886 441.136703 305.597074 440.607016 
Q 306.114261 440.077328 307.106449 440.077328 
Q 308.101761 440.077328 308.617386 440.605453 
Q 309.133011 441.132016 309.133011 442.094515 
L 309.133011 445.321078 
Q 309.133011 446.278891 308.614261 446.808578 
Q 308.097074 447.338266 307.106449 447.338266 
z
M 307.106449 446.39139 
Q 307.633011 446.39139 307.884574 446.114828 
Q 308.136136 445.838266 308.136136 445.321078 
L 308.136136 442.094515 
Q 308.136136 441.575766 307.886136 441.300766 
Q 307.637699 441.024203 307.106449 441.024203 
Q 306.573636 441.024203 306.323636 441.300766 
Q 306.075199 441.575766 306.075199 442.094515 
L 306.075199 445.321078 
Q 306.075199 445.838266 306.326761 446.114828 
Q 306.578324 446.39139 307.106449 446.39139 
z
M 312.624027 447.338266 
Q 311.627152 447.338266 311.111527 446.807016 
Q 310.597464 446.274203 310.597464 445.321078 
L 310.597464 442.094515 
Q 310.597464 441.136703 311.114652 440.607016 
Q 311.631839 440.077328 312.624027 440.077328 
Q 313.619339 440.077328 314.134964 440.605453 
Q 314.650589 441.132016 314.650589 442.094515 
L 314.650589 445.321078 
Q 314.650589 446.278891 314.131839 446.808578 
Q 313.614652 447.338266 312.624027 447.338266 
z
M 312.624027 446.39139 
Q 313.150589 446.39139 313.402152 446.114828 
Q 313.653714 445.838266 313.653714 445.321078 
L 313.653714 442.094515 
Q 313.653714 441.575766 313.403714 441.300766 
Q 313.155277 441.024203 312.624027 441.024203 
Q 312.091214 441.024203 311.841214 441.300766 
Q 311.592777 441.575766 311.592777 442.094515 
L 311.592777 445.321078 
Q 311.592777 445.838266 311.844339 446.114828 
Q 312.095902 446.39139 312.624027 446.39139 
z
" style="fill: #ffffff; stroke: #000000"/>
    <path d="M 288.449417 444.149203 
L 291.583792 440.164828 
L 292.808792 440.164828 
L 288.302542 445.642953 
L 288.449417 444.149203 
z
M 287.668167 440.164828 
L 288.66348 440.164828 
L 288.66348 447.264828 
L 287.668167 447.264828 
L 287.668167 440.164828 
z
M 289.630667 443.475766 
L 290.416605 442.747641 
L 293.10723 447.264828 
L 291.886917 447.264828 
L 289.630667 443.475766 
z
M 296.016996 447.338266 
Q 295.373246 447.338266 294.884183 447.094515 
Q 294.396683 446.849203 294.129496 446.402328 
Q 293.863871 445.955453 293.863871 445.364828 
L 293.863871 445.247641 
Q 293.863871 444.716391 294.129496 444.247641 
Q 294.396683 443.778891 294.840433 443.539828 
Q 294.463871 443.333578 294.237308 442.946078 
Q 294.010746 442.557016 294.010746 442.127328 
L 294.010746 441.957016 
Q 294.010746 441.400766 294.259183 440.978891 
Q 294.507621 440.555453 294.962308 440.324203 
Q 295.416996 440.091391 296.016996 440.091391 
Q 296.616996 440.091391 297.071683 440.324203 
Q 297.526371 440.555453 297.774808 440.978891 
Q 298.023246 441.400766 298.023246 441.957016 
L 298.023246 442.127328 
Q 298.023246 442.567953 297.791996 442.95389 
Q 297.560746 443.338266 297.179496 443.539828 
Q 297.627933 443.783578 297.898246 444.250765 
Q 298.170121 444.716391 298.170121 445.247641 
L 298.170121 445.364828 
Q 298.170121 445.955453 297.904496 446.402328 
Q 297.638871 446.849203 297.149808 447.094515 
Q 296.662308 447.338266 296.016996 447.338266 
z
M 296.016996 446.380453 
Q 296.363871 446.380453 296.626371 446.244516 
Q 296.890433 446.107016 297.034183 445.861703 
Q 297.179496 445.614828 297.179496 445.291391 
L 297.179496 445.224203 
Q 297.179496 444.896078 297.034183 444.650766 
Q 296.890433 444.403891 296.626371 444.267953 
Q 296.363871 444.130453 296.016996 444.130453 
Q 295.670121 444.130453 295.406058 444.267953 
Q 295.143558 444.403891 294.998246 444.652328 
Q 294.854496 444.900766 294.854496 445.228891 
L 294.854496 445.302328 
Q 294.854496 445.624203 294.998246 445.867953 
Q 295.143558 446.111703 295.406058 446.246078 
Q 295.670121 446.380453 296.016996 446.380453 
z
M 296.016996 443.17264 
Q 296.315433 443.17264 296.543558 443.044516 
Q 296.773246 442.914828 296.899808 442.675766 
Q 297.027933 442.435141 297.027933 442.122641 
L 297.027933 442.055453 
Q 297.027933 441.757016 296.899808 441.527328 
Q 296.773246 441.29764 296.543558 441.174203 
Q 296.315433 441.049203 296.016996 441.049203 
Q 295.718558 441.049203 295.488871 441.174203 
Q 295.260746 441.29764 295.132621 441.527328 
Q 295.006058 441.757016 295.006058 442.060141 
L 295.006058 442.133578 
Q 295.006058 442.439828 295.132621 442.677328 
Q 295.260746 442.914828 295.488871 443.044516 
Q 295.718558 443.17264 296.016996 443.17264 
z
M 301.588871 447.338266 
Q 300.591996 447.338266 300.076371 446.807016 
Q 299.562308 446.274203 299.562308 445.321078 
L 299.562308 442.094515 
Q 299.562308 441.136703 300.079496 440.607016 
Q 300.596683 440.077328 301.588871 440.077328 
Q 302.584183 440.077328 303.099808 440.605453 
Q 303.615433 441.132016 303.615433 442.094515 
L 303.615433 445.321078 
Q 303.615433 446.278891 303.096683 446.808578 
Q 302.579496 447.338266 301.588871 447.338266 
z
M 301.588871 446.39139 
Q 302.115433 446.39139 302.366996 446.114828 
Q 302.618558 445.838266 302.618558 445.321078 
L 302.618558 442.094515 
Q 302.618558 441.575766 302.368558 441.300766 
Q 302.120121 441.024203 301.588871 441.024203 
Q 301.056058 441.024203 300.806058 441.300766 
Q 300.557621 441.575766 300.557621 442.094515 
L 300.557621 445.321078 
Q 300.557621 445.838266 300.809183 446.114828 
Q 301.060746 446.39139 301.588871 446.39139 
z
M 307.106449 447.338266 
Q 306.109574 447.338266 305.593949 446.807016 
Q 305.079886 446.274203 305.079886 445.321078 
L 305.079886 442.094515 
Q 305.079886 441.136703 305.597074 440.607016 
Q 306.114261 440.077328 307.106449 440.077328 
Q 308.101761 440.077328 308.617386 440.605453 
Q 309.133011 441.132016 309.133011 442.094515 
L 309.133011 445.321078 
Q 309.133011 446.278891 308.614261 446.808578 
Q 308.097074 447.338266 307.106449 447.338266 
z
M 307.106449 446.39139 
Q 307.633011 446.39139 307.884574 446.114828 
Q 308.136136 445.838266 308.136136 445.321078 
L 308.136136 442.094515 
Q 308.136136 441.575766 307.886136 441.300766 
Q 307.637699 441.024203 307.106449 441.024203 
Q 306.573636 441.024203 306.323636 441.300766 
Q 306.075199 441.575766 306.075199 442.094515 
L 306.075199 445.321078 
Q 306.075199 445.838266 306.326761 446.114828 
Q 306.578324 446.39139 307.106449 446.39139 
z
M 312.624027 447.338266 
Q 311.627152 447.338266 311.111527 446.807016 
Q 310.597464 446.274203 310.597464 445.321078 
L 310.597464 442.094515 
Q 310.597464 441.136703 311.114652 440.607016 
Q 311.631839 440.077328 312.624027 440.077328 
Q 313.619339 440.077328 314.134964 440.605453 
Q 314.650589 441.132016 314.650589 442.094515 
L 314.650589 445.321078 
Q 314.650589 446.278891 314.131839 446.808578 
Q 313.614652 447.338266 312.624027 447.338266 
z
M 312.624027 446.39139 
Q 313.150589 446.39139 313.402152 446.114828 
Q 313.653714 445.838266 313.653714 445.321078 
L 313.653714 442.094515 
Q 313.653714 441.575766 313.403714 441.300766 
Q 313.155277 441.024203 312.624027 441.024203 
Q 312.091214 441.024203 311.841214 441.300766 
Q 311.592777 441.575766 311.592777 442.094515 
L 311.592777 445.321078 
Q 311.592777 445.838266 311.844339 446.114828 
Q 312.095902 446.39139 312.624027 446.39139 
z
" style="fill: #ffffff"/>
   </g>
  </g>
 </g>
 <defs>
  <clipPath id="p121a12bc17">
   <rect x="144" y="77.76" width="892.8" height="498.96"/>
  </clipPath>
 </defs>
</svg>
