<?xml version="1.0" encoding="utf-8" standalone="no"?>
<!DOCTYPE svg PUBLIC "-//W3C//DTD SVG 1.1//EN"
  "http://www.w3.org/Graphics/SVG/1.1/DTD/svg11.dtd">
<svg xmlns:xlink="http://www.w3.org/1999/xlink" width="1152pt" height="648pt" viewBox="0 0 1152 648" xmlns="http://www.w3.org/2000/svg" version="1.1">
 <metadata>
  <rdf:RDF xmlns:dc="http://purl.org/dc/elements/1.1/" xmlns:cc="http://creativecommons.org/ns#" xmlns:rdf="http://www.w3.org/1999/02/22-rdf-syntax-ns#">
   <cc:Work>
    <dc:type rdf:resource="http://purl.org/dc/dcmitype/StillImage"/>
    <dc:date>2024-09-27T18:41:41.290413</dc:date>
    <dc:format>image/svg+xml</dc:format>
    <dc:creator>
     <cc:Agent>
      <dc:title>Matplotlib v3.8.1, https://matplotlib.org/</dc:title>
     </cc:Agent>
    </dc:creator>
   </cc:Work>
  </rdf:RDF>
 </metadata>
 <defs>
  <style type="text/css">*{stroke-linejoin: round; stroke-linecap: butt}</style>
 </defs>
 <g id="figure_1">
  <g id="patch_1">
   <path d="M 0 648 
L 1152 648 
L 1152 0 
L 0 0 
L 0 648 
z
" style="fill: none"/>
  </g>
  <g id="axes_1">
   <g id="PathCollection_1">
    <defs>
     <path id="mc3e8554035" d="M 0 2.738613 
C 0.726289 2.738613 1.422928 2.450055 1.936492 1.936492 
C 2.450055 1.422928 2.738613 0.726289 2.738613 0 
C 2.738613 -0.726289 2.450055 -1.422928 1.936492 -1.936492 
C 1.422928 -2.450055 0.726289 -2.738613 0 -2.738613 
C -0.726289 -2.738613 -1.422928 -2.450055 -1.936492 -1.936492 
C -2.450055 -1.422928 -2.738613 -0.726289 -2.738613 0 
C -2.738613 0.726289 -2.450055 1.422928 -1.936492 1.936492 
C -1.422928 2.450055 -0.726289 2.738613 0 2.738613 
z
" style="stroke: #ccff33"/>
    </defs>
    <g clip-path="url(#p7678cbd11b)">
     <use xlink:href="#mc3e8554035" x="777.392" y="129.21525" style="fill: #ccff33; stroke: #ccff33"/>
     <use xlink:href="#mc3e8554035" x="296.768" y="344.57886" style="fill: #ccff33; stroke: #ccff33"/>
    </g>
   </g>
   <g id="text_1">
    <path d="M 786.09698 123.761818 
L 786.94698 123.761818 
L 789.564167 130.861818 
L 788.489167 130.861818 
L 786.52198 125.133693 
L 784.554792 130.861818 
L 783.479792 130.861818 
L 786.09698 123.761818 
z
M 784.686042 128.35713 
L 788.42198 128.35713 
L 788.42198 129.304005 
L 784.686042 129.304005 
L 784.686042 128.35713 
z
M 792.205964 130.861818 
L 791.209089 130.861818 
L 791.209089 124.846193 
L 790.198152 125.466505 
L 790.198152 124.435255 
L 791.209089 123.761818 
L 792.205964 123.761818 
L 792.205964 130.861818 
z
M 795.896785 130.935255 
Q 795.253035 130.935255 794.763972 130.691505 
Q 794.276472 130.446193 794.009285 129.999318 
Q 793.74366 129.552443 793.74366 128.961818 
L 793.74366 128.84463 
Q 793.74366 128.31338 794.009285 127.84463 
Q 794.276472 127.37588 794.720222 127.136818 
Q 794.34366 126.930568 794.117097 126.543068 
Q 793.890535 126.154005 793.890535 125.724318 
L 793.890535 125.554005 
Q 793.890535 124.997755 794.138972 124.57588 
Q 794.38741 124.152443 794.842097 123.921193 
Q 795.296785 123.68838 795.896785 123.68838 
Q 796.496785 123.68838 796.951472 123.921193 
Q 797.40616 124.152443 797.654597 124.57588 
Q 797.903035 124.997755 797.903035 125.554005 
L 797.903035 125.724318 
Q 797.903035 126.164943 797.671785 126.55088 
Q 797.440535 126.935255 797.059285 127.136818 
Q 797.507722 127.380568 797.778035 127.847755 
Q 798.04991 128.31338 798.04991 128.84463 
L 798.04991 128.961818 
Q 798.04991 129.552443 797.784285 129.999318 
Q 797.51866 130.446193 797.029597 130.691505 
Q 796.542097 130.935255 795.896785 130.935255 
z
M 795.896785 129.977443 
Q 796.24366 129.977443 796.50616 129.841505 
Q 796.770222 129.704005 796.913972 129.458693 
Q 797.059285 129.211818 797.059285 128.88838 
L 797.059285 128.821193 
Q 797.059285 128.493068 796.913972 128.247755 
Q 796.770222 128.00088 796.50616 127.864943 
Q 796.24366 127.727443 795.896785 127.727443 
Q 795.54991 127.727443 795.285847 127.864943 
Q 795.023347 128.00088 794.878035 128.249318 
Q 794.734285 128.497755 794.734285 128.82588 
L 794.734285 128.899318 
Q 794.734285 129.221193 794.878035 129.464943 
Q 795.023347 129.708693 795.285847 129.843068 
Q 795.54991 129.977443 795.896785 129.977443 
z
M 795.896785 126.76963 
Q 796.195222 126.76963 796.423347 126.641505 
Q 796.653035 126.511818 796.779597 126.272755 
Q 796.907722 126.03213 796.907722 125.71963 
L 796.907722 125.652443 
Q 796.907722 125.354005 796.779597 125.124318 
Q 796.653035 124.89463 796.423347 124.771193 
Q 796.195222 124.646193 795.896785 124.646193 
Q 795.598347 124.646193 795.36866 124.771193 
Q 795.140535 124.89463 795.01241 125.124318 
Q 794.885847 125.354005 794.885847 125.65713 
L 794.885847 125.730568 
Q 794.885847 126.036818 795.01241 126.274318 
Q 795.140535 126.511818 795.36866 126.641505 
Q 795.598347 126.76963 795.896785 126.76963 
z
M 801.810457 127.160255 
L 804.080769 127.160255 
Q 804.402644 127.160255 804.646394 127.008693 
Q 804.891707 126.85713 805.024519 126.579005 
Q 805.158894 126.30088 805.158894 125.939943 
L 805.158894 125.939943 
Q 805.158894 125.574318 805.024519 125.296193 
Q 804.891707 125.016505 804.646394 124.86338 
Q 804.402644 124.708693 804.080769 124.708693 
L 801.810457 124.708693 
L 801.810457 123.761818 
L 804.046394 123.761818 
Q 804.680769 123.761818 805.163582 124.033693 
Q 805.647957 124.304005 805.913582 124.797755 
Q 806.180769 125.289943 806.180769 125.939943 
L 806.180769 125.939943 
Q 806.180769 126.589943 805.913582 127.080568 
Q 805.647957 127.571193 805.163582 127.839943 
Q 804.680769 128.10713 804.046394 128.10713 
L 801.810457 128.10713 
L 801.810457 127.160255 
z
M 801.297957 123.761818 
L 802.293269 123.761818 
L 802.293269 130.861818 
L 801.297957 130.861818 
L 801.297957 123.761818 
z
M 807.425105 125.793068 
L 808.42198 125.793068 
L 808.42198 130.861818 
L 807.425105 130.861818 
L 807.425105 125.793068 
z
M 810.212605 126.99463 
Q 810.081355 126.833693 809.881355 126.75088 
Q 809.681355 126.668068 809.417292 126.668068 
Q 808.943855 126.668068 808.682917 126.929005 
Q 808.42198 127.189943 808.42198 127.654005 
L 808.318855 126.677443 
Q 808.55323 126.222755 808.923542 125.971193 
Q 809.295417 125.71963 809.743855 125.71963 
Q 810.09073 125.71963 810.37198 125.81963 
Q 810.65323 125.91963 810.862605 126.114943 
L 810.212605 126.99463 
z
M 813.636433 130.935255 
Q 812.977058 130.935255 812.508308 130.677443 
Q 812.039558 130.418068 811.792683 129.922755 
Q 811.545808 129.42588 811.545808 128.727443 
L 811.545808 127.902443 
Q 811.545808 127.214943 811.792683 126.724318 
Q 812.039558 126.23213 812.508308 125.97588 
Q 812.977058 125.71963 813.636433 125.71963 
Q 814.295808 125.71963 814.764558 125.97588 
Q 815.233308 126.23213 815.478621 126.724318 
Q 815.725496 127.214943 815.725496 127.902443 
L 815.725496 128.743068 
Q 815.725496 129.435255 815.478621 129.927443 
Q 815.233308 130.418068 814.764558 130.677443 
Q 814.295808 130.935255 813.636433 130.935255 
z
M 813.636433 129.98838 
Q 814.158308 129.98838 814.444246 129.661818 
Q 814.730183 129.333693 814.730183 128.743068 
L 814.730183 127.902443 
Q 814.730183 127.311818 814.444246 126.989943 
Q 814.158308 126.668068 813.636433 126.668068 
Q 813.112996 126.668068 812.827058 126.989943 
Q 812.542683 127.311818 812.542683 127.902443 
L 812.542683 128.743068 
Q 812.542683 129.333693 812.827058 129.661818 
Q 813.112996 129.98838 813.636433 129.98838 
z
" style="fill: #ffffff; stroke: #000000"/>
    <path d="M 786.09698 123.761818 
L 786.94698 123.761818 
L 789.564167 130.861818 
L 788.489167 130.861818 
L 786.52198 125.133693 
L 784.554792 130.861818 
L 783.479792 130.861818 
L 786.09698 123.761818 
z
M 784.686042 128.35713 
L 788.42198 128.35713 
L 788.42198 129.304005 
L 784.686042 129.304005 
L 784.686042 128.35713 
z
M 792.205964 130.861818 
L 791.209089 130.861818 
L 791.209089 124.846193 
L 790.198152 125.466505 
L 790.198152 124.435255 
L 791.209089 123.761818 
L 792.205964 123.761818 
L 792.205964 130.861818 
z
M 795.896785 130.935255 
Q 795.253035 130.935255 794.763972 130.691505 
Q 794.276472 130.446193 794.009285 129.999318 
Q 793.74366 129.552443 793.74366 128.961818 
L 793.74366 128.84463 
Q 793.74366 128.31338 794.009285 127.84463 
Q 794.276472 127.37588 794.720222 127.136818 
Q 794.34366 126.930568 794.117097 126.543068 
Q 793.890535 126.154005 793.890535 125.724318 
L 793.890535 125.554005 
Q 793.890535 124.997755 794.138972 124.57588 
Q 794.38741 124.152443 794.842097 123.921193 
Q 795.296785 123.68838 795.896785 123.68838 
Q 796.496785 123.68838 796.951472 123.921193 
Q 797.40616 124.152443 797.654597 124.57588 
Q 797.903035 124.997755 797.903035 125.554005 
L 797.903035 125.724318 
Q 797.903035 126.164943 797.671785 126.55088 
Q 797.440535 126.935255 797.059285 127.136818 
Q 797.507722 127.380568 797.778035 127.847755 
Q 798.04991 128.31338 798.04991 128.84463 
L 798.04991 128.961818 
Q 798.04991 129.552443 797.784285 129.999318 
Q 797.51866 130.446193 797.029597 130.691505 
Q 796.542097 130.935255 795.896785 130.935255 
z
M 795.896785 129.977443 
Q 796.24366 129.977443 796.50616 129.841505 
Q 796.770222 129.704005 796.913972 129.458693 
Q 797.059285 129.211818 797.059285 128.88838 
L 797.059285 128.821193 
Q 797.059285 128.493068 796.913972 128.247755 
Q 796.770222 128.00088 796.50616 127.864943 
Q 796.24366 127.727443 795.896785 127.727443 
Q 795.54991 127.727443 795.285847 127.864943 
Q 795.023347 128.00088 794.878035 128.249318 
Q 794.734285 128.497755 794.734285 128.82588 
L 794.734285 128.899318 
Q 794.734285 129.221193 794.878035 129.464943 
Q 795.023347 129.708693 795.285847 129.843068 
Q 795.54991 129.977443 795.896785 129.977443 
z
M 795.896785 126.76963 
Q 796.195222 126.76963 796.423347 126.641505 
Q 796.653035 126.511818 796.779597 126.272755 
Q 796.907722 126.03213 796.907722 125.71963 
L 796.907722 125.652443 
Q 796.907722 125.354005 796.779597 125.124318 
Q 796.653035 124.89463 796.423347 124.771193 
Q 796.195222 124.646193 795.896785 124.646193 
Q 795.598347 124.646193 795.36866 124.771193 
Q 795.140535 124.89463 795.01241 125.124318 
Q 794.885847 125.354005 794.885847 125.65713 
L 794.885847 125.730568 
Q 794.885847 126.036818 795.01241 126.274318 
Q 795.140535 126.511818 795.36866 126.641505 
Q 795.598347 126.76963 795.896785 126.76963 
z
M 801.810457 127.160255 
L 804.080769 127.160255 
Q 804.402644 127.160255 804.646394 127.008693 
Q 804.891707 126.85713 805.024519 126.579005 
Q 805.158894 126.30088 805.158894 125.939943 
L 805.158894 125.939943 
Q 805.158894 125.574318 805.024519 125.296193 
Q 804.891707 125.016505 804.646394 124.86338 
Q 804.402644 124.708693 804.080769 124.708693 
L 801.810457 124.708693 
L 801.810457 123.761818 
L 804.046394 123.761818 
Q 804.680769 123.761818 805.163582 124.033693 
Q 805.647957 124.304005 805.913582 124.797755 
Q 806.180769 125.289943 806.180769 125.939943 
L 806.180769 125.939943 
Q 806.180769 126.589943 805.913582 127.080568 
Q 805.647957 127.571193 805.163582 127.839943 
Q 804.680769 128.10713 804.046394 128.10713 
L 801.810457 128.10713 
L 801.810457 127.160255 
z
M 801.297957 123.761818 
L 802.293269 123.761818 
L 802.293269 130.861818 
L 801.297957 130.861818 
L 801.297957 123.761818 
z
M 807.425105 125.793068 
L 808.42198 125.793068 
L 808.42198 130.861818 
L 807.425105 130.861818 
L 807.425105 125.793068 
z
M 810.212605 126.99463 
Q 810.081355 126.833693 809.881355 126.75088 
Q 809.681355 126.668068 809.417292 126.668068 
Q 808.943855 126.668068 808.682917 126.929005 
Q 808.42198 127.189943 808.42198 127.654005 
L 808.318855 126.677443 
Q 808.55323 126.222755 808.923542 125.971193 
Q 809.295417 125.71963 809.743855 125.71963 
Q 810.09073 125.71963 810.37198 125.81963 
Q 810.65323 125.91963 810.862605 126.114943 
L 810.212605 126.99463 
z
M 813.636433 130.935255 
Q 812.977058 130.935255 812.508308 130.677443 
Q 812.039558 130.418068 811.792683 129.922755 
Q 811.545808 129.42588 811.545808 128.727443 
L 811.545808 127.902443 
Q 811.545808 127.214943 811.792683 126.724318 
Q 812.039558 126.23213 812.508308 125.97588 
Q 812.977058 125.71963 813.636433 125.71963 
Q 814.295808 125.71963 814.764558 125.97588 
Q 815.233308 126.23213 815.478621 126.724318 
Q 815.725496 127.214943 815.725496 127.902443 
L 815.725496 128.743068 
Q 815.725496 129.435255 815.478621 129.927443 
Q 815.233308 130.418068 814.764558 130.677443 
Q 814.295808 130.935255 813.636433 130.935255 
z
M 813.636433 129.98838 
Q 814.158308 129.98838 814.444246 129.661818 
Q 814.730183 129.333693 814.730183 128.743068 
L 814.730183 127.902443 
Q 814.730183 127.311818 814.444246 126.989943 
Q 814.158308 126.668068 813.636433 126.668068 
Q 813.112996 126.668068 812.827058 126.989943 
Q 812.542683 127.311818 812.542683 127.902443 
L 812.542683 128.743068 
Q 812.542683 129.333693 812.827058 129.661818 
Q 813.112996 129.98838 813.636433 129.98838 
z
" style="fill: #ffffff"/>
   </g>
   <g id="text_2">
    <path d="M 305.47298 339.125428 
L 306.32298 339.125428 
L 308.940168 346.225428 
L 307.865167 346.225428 
L 305.89798 340.497303 
L 303.930792 346.225428 
L 302.855793 346.225428 
L 305.47298 339.125428 
z
M 304.062043 343.72074 
L 307.79798 343.72074 
L 307.79798 344.667615 
L 304.062043 344.667615 
L 304.062043 343.72074 
z
M 311.581964 346.225428 
L 310.585089 346.225428 
L 310.585089 340.209803 
L 309.574152 340.830115 
L 309.574152 339.798865 
L 310.585089 339.125428 
L 311.581964 339.125428 
L 311.581964 346.225428 
z
M 315.272785 346.298865 
Q 314.629035 346.298865 314.139972 346.055115 
Q 313.652472 345.809803 313.385285 345.362928 
Q 313.11966 344.916053 313.11966 344.325428 
L 313.11966 344.20824 
Q 313.11966 343.67699 313.385285 343.20824 
Q 313.652472 342.73949 314.096222 342.500428 
Q 313.71966 342.294178 313.493097 341.906678 
Q 313.266535 341.517615 313.266535 341.087928 
L 313.266535 340.917615 
Q 313.266535 340.361365 313.514972 339.93949 
Q 313.76341 339.516053 314.218097 339.284803 
Q 314.672785 339.05199 315.272785 339.05199 
Q 315.872785 339.05199 316.327472 339.284803 
Q 316.78216 339.516053 317.030597 339.93949 
Q 317.279035 340.361365 317.279035 340.917615 
L 317.279035 341.087928 
Q 317.279035 341.528553 317.047785 341.91449 
Q 316.816535 342.298865 316.435285 342.500428 
Q 316.883722 342.744178 317.154035 343.211365 
Q 317.42591 343.67699 317.42591 344.20824 
L 317.42591 344.325428 
Q 317.42591 344.916053 317.160285 345.362928 
Q 316.89466 345.809803 316.405597 346.055115 
Q 315.918097 346.298865 315.272785 346.298865 
z
M 315.272785 345.341053 
Q 315.61966 345.341053 315.88216 345.205115 
Q 316.146222 345.067615 316.289972 344.822303 
Q 316.435285 344.575428 316.435285 344.25199 
L 316.435285 344.184803 
Q 316.435285 343.856678 316.289972 343.611365 
Q 316.146222 343.36449 315.88216 343.228553 
Q 315.61966 343.091053 315.272785 343.091053 
Q 314.92591 343.091053 314.661847 343.228553 
Q 314.399347 343.36449 314.254035 343.612928 
Q 314.110285 343.861365 314.110285 344.18949 
L 314.110285 344.262928 
Q 314.110285 344.584803 314.254035 344.828553 
Q 314.399347 345.072303 314.661847 345.206678 
Q 314.92591 345.341053 315.272785 345.341053 
z
M 315.272785 342.13324 
Q 315.571222 342.13324 315.799347 342.005115 
Q 316.029035 341.875428 316.155597 341.636365 
Q 316.283722 341.39574 316.283722 341.08324 
L 316.283722 341.016053 
Q 316.283722 340.717615 316.155597 340.487928 
Q 316.029035 340.25824 315.799347 340.134803 
Q 315.571222 340.009803 315.272785 340.009803 
Q 314.974347 340.009803 314.74466 340.134803 
Q 314.516535 340.25824 314.38841 340.487928 
Q 314.261847 340.717615 314.261847 341.02074 
L 314.261847 341.094178 
Q 314.261847 341.400428 314.38841 341.637928 
Q 314.516535 341.875428 314.74466 342.005115 
Q 314.974347 342.13324 315.272785 342.13324 
z
M 321.186457 342.523865 
L 323.456769 342.523865 
Q 323.778644 342.523865 324.022394 342.372303 
Q 324.267707 342.22074 324.400519 341.942615 
Q 324.534894 341.66449 324.534894 341.303553 
L 324.534894 341.303553 
Q 324.534894 340.937928 324.400519 340.659803 
Q 324.267707 340.380115 324.022394 340.22699 
Q 323.778644 340.072303 323.456769 340.072303 
L 321.186457 340.072303 
L 321.186457 339.125428 
L 323.422394 339.125428 
Q 324.056769 339.125428 324.539582 339.397303 
Q 325.023957 339.667615 325.289582 340.161365 
Q 325.556769 340.653553 325.556769 341.303553 
L 325.556769 341.303553 
Q 325.556769 341.953553 325.289582 342.444178 
Q 325.023957 342.934803 324.539582 343.203553 
Q 324.056769 343.47074 323.422394 343.47074 
L 321.186457 343.47074 
L 321.186457 342.523865 
z
M 320.673957 339.125428 
L 321.669269 339.125428 
L 321.669269 346.225428 
L 320.673957 346.225428 
L 320.673957 339.125428 
z
M 326.801105 341.156678 
L 327.79798 341.156678 
L 327.79798 346.225428 
L 326.801105 346.225428 
L 326.801105 341.156678 
z
M 329.588605 342.35824 
Q 329.457355 342.197303 329.257355 342.11449 
Q 329.057355 342.031678 328.793293 342.031678 
Q 328.319855 342.031678 328.058918 342.292615 
Q 327.79798 342.553553 327.79798 343.017615 
L 327.694855 342.041053 
Q 327.92923 341.586365 328.299543 341.334803 
Q 328.671418 341.08324 329.119855 341.08324 
Q 329.46673 341.08324 329.74798 341.18324 
Q 330.02923 341.28324 330.238605 341.478553 
L 329.588605 342.35824 
z
M 333.012433 346.298865 
Q 332.353058 346.298865 331.884308 346.041053 
Q 331.415558 345.781678 331.168683 345.286365 
Q 330.921808 344.78949 330.921808 344.091053 
L 330.921808 343.266053 
Q 330.921808 342.578553 331.168683 342.087928 
Q 331.415558 341.59574 331.884308 341.33949 
Q 332.353058 341.08324 333.012433 341.08324 
Q 333.671808 341.08324 334.140558 341.33949 
Q 334.609308 341.59574 334.854621 342.087928 
Q 335.101496 342.578553 335.101496 343.266053 
L 335.101496 344.106678 
Q 335.101496 344.798865 334.854621 345.291053 
Q 334.609308 345.781678 334.140558 346.041053 
Q 333.671808 346.298865 333.012433 346.298865 
z
M 333.012433 345.35199 
Q 333.534308 345.35199 333.820246 345.025428 
Q 334.106183 344.697303 334.106183 344.106678 
L 334.106183 343.266053 
Q 334.106183 342.675428 333.820246 342.353553 
Q 333.534308 342.031678 333.012433 342.031678 
Q 332.488996 342.031678 332.203058 342.353553 
Q 331.918683 342.675428 331.918683 343.266053 
L 331.918683 344.106678 
Q 331.918683 344.697303 332.203058 345.025428 
Q 332.488996 345.35199 333.012433 345.35199 
z
" style="fill: #ffffff; stroke: #000000"/>
    <path d="M 305.47298 339.125428 
L 306.32298 339.125428 
L 308.940168 346.225428 
L 307.865167 346.225428 
L 305.89798 340.497303 
L 303.930792 346.225428 
L 302.855793 346.225428 
L 305.47298 339.125428 
z
M 304.062043 343.72074 
L 307.79798 343.72074 
L 307.79798 344.667615 
L 304.062043 344.667615 
L 304.062043 343.72074 
z
M 311.581964 346.225428 
L 310.585089 346.225428 
L 310.585089 340.209803 
L 309.574152 340.830115 
L 309.574152 339.798865 
L 310.585089 339.125428 
L 311.581964 339.125428 
L 311.581964 346.225428 
z
M 315.272785 346.298865 
Q 314.629035 346.298865 314.139972 346.055115 
Q 313.652472 345.809803 313.385285 345.362928 
Q 313.11966 344.916053 313.11966 344.325428 
L 313.11966 344.20824 
Q 313.11966 343.67699 313.385285 343.20824 
Q 313.652472 342.73949 314.096222 342.500428 
Q 313.71966 342.294178 313.493097 341.906678 
Q 313.266535 341.517615 313.266535 341.087928 
L 313.266535 340.917615 
Q 313.266535 340.361365 313.514972 339.93949 
Q 313.76341 339.516053 314.218097 339.284803 
Q 314.672785 339.05199 315.272785 339.05199 
Q 315.872785 339.05199 316.327472 339.284803 
Q 316.78216 339.516053 317.030597 339.93949 
Q 317.279035 340.361365 317.279035 340.917615 
L 317.279035 341.087928 
Q 317.279035 341.528553 317.047785 341.91449 
Q 316.816535 342.298865 316.435285 342.500428 
Q 316.883722 342.744178 317.154035 343.211365 
Q 317.42591 343.67699 317.42591 344.20824 
L 317.42591 344.325428 
Q 317.42591 344.916053 317.160285 345.362928 
Q 316.89466 345.809803 316.405597 346.055115 
Q 315.918097 346.298865 315.272785 346.298865 
z
M 315.272785 345.341053 
Q 315.61966 345.341053 315.88216 345.205115 
Q 316.146222 345.067615 316.289972 344.822303 
Q 316.435285 344.575428 316.435285 344.25199 
L 316.435285 344.184803 
Q 316.435285 343.856678 316.289972 343.611365 
Q 316.146222 343.36449 315.88216 343.228553 
Q 315.61966 343.091053 315.272785 343.091053 
Q 314.92591 343.091053 314.661847 343.228553 
Q 314.399347 343.36449 314.254035 343.612928 
Q 314.110285 343.861365 314.110285 344.18949 
L 314.110285 344.262928 
Q 314.110285 344.584803 314.254035 344.828553 
Q 314.399347 345.072303 314.661847 345.206678 
Q 314.92591 345.341053 315.272785 345.341053 
z
M 315.272785 342.13324 
Q 315.571222 342.13324 315.799347 342.005115 
Q 316.029035 341.875428 316.155597 341.636365 
Q 316.283722 341.39574 316.283722 341.08324 
L 316.283722 341.016053 
Q 316.283722 340.717615 316.155597 340.487928 
Q 316.029035 340.25824 315.799347 340.134803 
Q 315.571222 340.009803 315.272785 340.009803 
Q 314.974347 340.009803 314.74466 340.134803 
Q 314.516535 340.25824 314.38841 340.487928 
Q 314.261847 340.717615 314.261847 341.02074 
L 314.261847 341.094178 
Q 314.261847 341.400428 314.38841 341.637928 
Q 314.516535 341.875428 314.74466 342.005115 
Q 314.974347 342.13324 315.272785 342.13324 
z
M 321.186457 342.523865 
L 323.456769 342.523865 
Q 323.778644 342.523865 324.022394 342.372303 
Q 324.267707 342.22074 324.400519 341.942615 
Q 324.534894 341.66449 324.534894 341.303553 
L 324.534894 341.303553 
Q 324.534894 340.937928 324.400519 340.659803 
Q 324.267707 340.380115 324.022394 340.22699 
Q 323.778644 340.072303 323.456769 340.072303 
L 321.186457 340.072303 
L 321.186457 339.125428 
L 323.422394 339.125428 
Q 324.056769 339.125428 324.539582 339.397303 
Q 325.023957 339.667615 325.289582 340.161365 
Q 325.556769 340.653553 325.556769 341.303553 
L 325.556769 341.303553 
Q 325.556769 341.953553 325.289582 342.444178 
Q 325.023957 342.934803 324.539582 343.203553 
Q 324.056769 343.47074 323.422394 343.47074 
L 321.186457 343.47074 
L 321.186457 342.523865 
z
M 320.673957 339.125428 
L 321.669269 339.125428 
L 321.669269 346.225428 
L 320.673957 346.225428 
L 320.673957 339.125428 
z
M 326.801105 341.156678 
L 327.79798 341.156678 
L 327.79798 346.225428 
L 326.801105 346.225428 
L 326.801105 341.156678 
z
M 329.588605 342.35824 
Q 329.457355 342.197303 329.257355 342.11449 
Q 329.057355 342.031678 328.793293 342.031678 
Q 328.319855 342.031678 328.058918 342.292615 
Q 327.79798 342.553553 327.79798 343.017615 
L 327.694855 342.041053 
Q 327.92923 341.586365 328.299543 341.334803 
Q 328.671418 341.08324 329.119855 341.08324 
Q 329.46673 341.08324 329.74798 341.18324 
Q 330.02923 341.28324 330.238605 341.478553 
L 329.588605 342.35824 
z
M 333.012433 346.298865 
Q 332.353058 346.298865 331.884308 346.041053 
Q 331.415558 345.781678 331.168683 345.286365 
Q 330.921808 344.78949 330.921808 344.091053 
L 330.921808 343.266053 
Q 330.921808 342.578553 331.168683 342.087928 
Q 331.415558 341.59574 331.884308 341.33949 
Q 332.353058 341.08324 333.012433 341.08324 
Q 333.671808 341.08324 334.140558 341.33949 
Q 334.609308 341.59574 334.854621 342.087928 
Q 335.101496 342.578553 335.101496 343.266053 
L 335.101496 344.106678 
Q 335.101496 344.798865 334.854621 345.291053 
Q 334.609308 345.781678 334.140558 346.041053 
Q 333.671808 346.298865 333.012433 346.298865 
z
M 333.012433 345.35199 
Q 333.534308 345.35199 333.820246 345.025428 
Q 334.106183 344.697303 334.106183 344.106678 
L 334.106183 343.266053 
Q 334.106183 342.675428 333.820246 342.353553 
Q 333.534308 342.031678 333.012433 342.031678 
Q 332.488996 342.031678 332.203058 342.353553 
Q 331.918683 342.675428 331.918683 343.266053 
L 331.918683 344.106678 
Q 331.918683 344.697303 332.203058 345.025428 
Q 332.488996 345.35199 333.012433 345.35199 
z
" style="fill: #ffffff"/>
   </g>
  </g>
 </g>
 <defs>
  <clipPath id="p7678cbd11b">
   <rect x="144" y="77.76" width="892.8" height="498.96"/>
  </clipPath>
 </defs>
</svg>
