<?xml version="1.0" encoding="utf-8" standalone="no"?>
<!DOCTYPE svg PUBLIC "-//W3C//DTD SVG 1.1//EN"
  "http://www.w3.org/Graphics/SVG/1.1/DTD/svg11.dtd">
<svg xmlns:xlink="http://www.w3.org/1999/xlink" width="1152pt" height="648pt" viewBox="0 0 1152 648" xmlns="http://www.w3.org/2000/svg" version="1.1">
 <metadata>
  <rdf:RDF xmlns:dc="http://purl.org/dc/elements/1.1/" xmlns:cc="http://creativecommons.org/ns#" xmlns:rdf="http://www.w3.org/1999/02/22-rdf-syntax-ns#">
   <cc:Work>
    <dc:type rdf:resource="http://purl.org/dc/dcmitype/StillImage"/>
    <dc:date>2024-09-19T17:32:04.677370</dc:date>
    <dc:format>image/svg+xml</dc:format>
    <dc:creator>
     <cc:Agent>
      <dc:title>Matplotlib v3.8.1, https://matplotlib.org/</dc:title>
     </cc:Agent>
    </dc:creator>
   </cc:Work>
  </rdf:RDF>
 </metadata>
 <defs>
  <style type="text/css">*{stroke-linejoin: round; stroke-linecap: butt}</style>
 </defs>
 <g id="figure_1">
  <g id="patch_1">
   <path d="M 0 648 
L 1152 648 
L 1152 0 
L 0 0 
L 0 648 
z
" style="fill: none"/>
  </g>
  <g id="axes_1">
   <g id="PathCollection_1">
    <defs>
     <path id="m4e537b29db" d="M 0 2.738613 
C 0.726289 2.738613 1.422928 2.450055 1.936492 1.936492 
C 2.450055 1.422928 2.738613 0.726289 2.738613 0 
C 2.738613 -0.726289 2.450055 -1.422928 1.936492 -1.936492 
C 1.422928 -2.450055 0.726289 -2.738613 0 -2.738613 
C -0.726289 -2.738613 -1.422928 -2.450055 -1.936492 -1.936492 
C -2.450055 -1.422928 -2.738613 -0.726289 -2.738613 0 
C -2.738613 0.726289 -2.450055 1.422928 -1.936492 1.936492 
C -1.422928 2.450055 -0.726289 2.738613 0 2.738613 
z
" style="stroke: #33ff66"/>
    </defs>
    <g clip-path="url(#p4a6d86c35f)">
     <use xlink:href="#m4e537b29db" x="656.864" y="258.94485" style="fill: #33ff66; stroke: #33ff66"/>
     <use xlink:href="#m4e537b29db" x="315.12" y="355.11939" style="fill: #33ff66; stroke: #33ff66"/>
    </g>
   </g>
   <g id="text_1">
    <path d="M 665.56898 253.491418 
L 666.41898 253.491418 
L 669.036167 260.591418 
L 667.961167 260.591418 
L 665.99398 254.863293 
L 664.026792 260.591418 
L 662.951792 260.591418 
L 665.56898 253.491418 
z
M 664.158042 258.08673 
L 667.89398 258.08673 
L 667.89398 259.033605 
L 664.158042 259.033605 
L 664.158042 258.08673 
z
M 671.677964 260.591418 
L 670.681089 260.591418 
L 670.681089 254.575793 
L 669.670152 255.196105 
L 669.670152 254.164855 
L 670.681089 253.491418 
L 671.677964 253.491418 
L 671.677964 260.591418 
z
M 675.27191 260.664855 
Q 674.73441 260.664855 674.31566 260.45548 
Q 673.898472 260.244543 673.637535 259.844543 
Q 673.376597 259.444543 673.289097 258.882043 
L 673.289097 258.877355 
L 674.28441 258.877355 
L 674.28441 258.882043 
Q 674.339097 259.272668 674.59691 259.489855 
Q 674.856285 259.707043 675.27191 259.707043 
Q 675.750035 259.707043 676.010972 259.388293 
Q 676.27191 259.06798 676.27191 258.48673 
L 676.27191 257.891418 
Q 676.27191 257.314855 676.010972 256.996105 
Q 675.750035 256.675793 675.27191 256.675793 
Q 675.012535 256.675793 674.773472 256.822668 
Q 674.53441 256.96798 674.35316 257.232043 
L 673.445347 257.232043 
L 673.445347 253.491418 
L 677.062535 253.491418 
L 677.062535 254.438293 
L 674.44066 254.438293 
L 674.44066 256.035168 
Q 674.626597 255.883605 674.856285 255.800793 
Q 675.085972 255.71798 675.325035 255.71798 
Q 675.94066 255.71798 676.376597 255.972668 
Q 676.814097 256.225793 677.04066 256.714855 
Q 677.268785 257.202355 677.268785 257.891418 
L 677.268785 258.48673 
Q 677.268785 259.175793 677.03441 259.664855 
Q 676.800035 260.152355 676.350035 260.408605 
Q 675.901597 260.664855 675.27191 260.664855 
z
" style="fill: #ffffff; stroke: #000000"/>
    <path d="M 665.56898 253.491418 
L 666.41898 253.491418 
L 669.036167 260.591418 
L 667.961167 260.591418 
L 665.99398 254.863293 
L 664.026792 260.591418 
L 662.951792 260.591418 
L 665.56898 253.491418 
z
M 664.158042 258.08673 
L 667.89398 258.08673 
L 667.89398 259.033605 
L 664.158042 259.033605 
L 664.158042 258.08673 
z
M 671.677964 260.591418 
L 670.681089 260.591418 
L 670.681089 254.575793 
L 669.670152 255.196105 
L 669.670152 254.164855 
L 670.681089 253.491418 
L 671.677964 253.491418 
L 671.677964 260.591418 
z
M 675.27191 260.664855 
Q 674.73441 260.664855 674.31566 260.45548 
Q 673.898472 260.244543 673.637535 259.844543 
Q 673.376597 259.444543 673.289097 258.882043 
L 673.289097 258.877355 
L 674.28441 258.877355 
L 674.28441 258.882043 
Q 674.339097 259.272668 674.59691 259.489855 
Q 674.856285 259.707043 675.27191 259.707043 
Q 675.750035 259.707043 676.010972 259.388293 
Q 676.27191 259.06798 676.27191 258.48673 
L 676.27191 257.891418 
Q 676.27191 257.314855 676.010972 256.996105 
Q 675.750035 256.675793 675.27191 256.675793 
Q 675.012535 256.675793 674.773472 256.822668 
Q 674.53441 256.96798 674.35316 257.232043 
L 673.445347 257.232043 
L 673.445347 253.491418 
L 677.062535 253.491418 
L 677.062535 254.438293 
L 674.44066 254.438293 
L 674.44066 256.035168 
Q 674.626597 255.883605 674.856285 255.800793 
Q 675.085972 255.71798 675.325035 255.71798 
Q 675.94066 255.71798 676.376597 255.972668 
Q 676.814097 256.225793 677.04066 256.714855 
Q 677.268785 257.202355 677.268785 257.891418 
L 677.268785 258.48673 
Q 677.268785 259.175793 677.03441 259.664855 
Q 676.800035 260.152355 676.350035 260.408605 
Q 675.901597 260.664855 675.27191 260.664855 
z
" style="fill: #ffffff"/>
   </g>
   <g id="text_2">
    <path d="M 323.82498 349.665958 
L 324.67498 349.665958 
L 327.292168 356.765958 
L 326.217167 356.765958 
L 324.24998 351.037833 
L 322.282792 356.765958 
L 321.207792 356.765958 
L 323.82498 349.665958 
z
M 322.414042 354.261271 
L 326.14998 354.261271 
L 326.14998 355.208146 
L 322.414042 355.208146 
L 322.414042 354.261271 
z
M 329.933964 356.765958 
L 328.937089 356.765958 
L 328.937089 350.750333 
L 327.926152 351.370646 
L 327.926152 350.339396 
L 328.937089 349.665958 
L 329.933964 349.665958 
L 329.933964 356.765958 
z
M 333.52791 356.839396 
Q 332.99041 356.839396 332.57166 356.630021 
Q 332.154472 356.419083 331.893535 356.019083 
Q 331.632597 355.619083 331.545097 355.056583 
L 331.545097 355.051896 
L 332.54041 355.051896 
L 332.54041 355.056583 
Q 332.595097 355.447208 332.85291 355.664396 
Q 333.112285 355.881583 333.52791 355.881583 
Q 334.006035 355.881583 334.266972 355.562833 
Q 334.52791 355.242521 334.52791 354.661271 
L 334.52791 354.065958 
Q 334.52791 353.489396 334.266972 353.170646 
Q 334.006035 352.850333 333.52791 352.850333 
Q 333.268535 352.850333 333.029472 352.997208 
Q 332.79041 353.14252 332.60916 353.406583 
L 331.701347 353.406583 
L 331.701347 349.665958 
L 335.318535 349.665958 
L 335.318535 350.612833 
L 332.69666 350.612833 
L 332.69666 352.209708 
Q 332.882597 352.058146 333.112285 351.975333 
Q 333.341972 351.89252 333.581035 351.89252 
Q 334.19666 351.89252 334.632597 352.147208 
Q 335.070097 352.400333 335.29666 352.889396 
Q 335.524785 353.376895 335.524785 354.065958 
L 335.524785 354.661271 
Q 335.524785 355.350333 335.29041 355.839396 
Q 335.056035 356.326896 334.606035 356.583146 
Q 334.157597 356.839396 333.52791 356.839396 
z
" style="fill: #ffffff; stroke: #000000"/>
    <path d="M 323.82498 349.665958 
L 324.67498 349.665958 
L 327.292168 356.765958 
L 326.217167 356.765958 
L 324.24998 351.037833 
L 322.282792 356.765958 
L 321.207792 356.765958 
L 323.82498 349.665958 
z
M 322.414042 354.261271 
L 326.14998 354.261271 
L 326.14998 355.208146 
L 322.414042 355.208146 
L 322.414042 354.261271 
z
M 329.933964 356.765958 
L 328.937089 356.765958 
L 328.937089 350.750333 
L 327.926152 351.370646 
L 327.926152 350.339396 
L 328.937089 349.665958 
L 329.933964 349.665958 
L 329.933964 356.765958 
z
M 333.52791 356.839396 
Q 332.99041 356.839396 332.57166 356.630021 
Q 332.154472 356.419083 331.893535 356.019083 
Q 331.632597 355.619083 331.545097 355.056583 
L 331.545097 355.051896 
L 332.54041 355.051896 
L 332.54041 355.056583 
Q 332.595097 355.447208 332.85291 355.664396 
Q 333.112285 355.881583 333.52791 355.881583 
Q 334.006035 355.881583 334.266972 355.562833 
Q 334.52791 355.242521 334.52791 354.661271 
L 334.52791 354.065958 
Q 334.52791 353.489396 334.266972 353.170646 
Q 334.006035 352.850333 333.52791 352.850333 
Q 333.268535 352.850333 333.029472 352.997208 
Q 332.79041 353.14252 332.60916 353.406583 
L 331.701347 353.406583 
L 331.701347 349.665958 
L 335.318535 349.665958 
L 335.318535 350.612833 
L 332.69666 350.612833 
L 332.69666 352.209708 
Q 332.882597 352.058146 333.112285 351.975333 
Q 333.341972 351.89252 333.581035 351.89252 
Q 334.19666 351.89252 334.632597 352.147208 
Q 335.070097 352.400333 335.29666 352.889396 
Q 335.524785 353.376895 335.524785 354.065958 
L 335.524785 354.661271 
Q 335.524785 355.350333 335.29041 355.839396 
Q 335.056035 356.326896 334.606035 356.583146 
Q 334.157597 356.839396 333.52791 356.839396 
z
" style="fill: #ffffff"/>
   </g>
  </g>
 </g>
 <defs>
  <clipPath id="p4a6d86c35f">
   <rect x="144" y="77.76" width="892.8" height="498.96"/>
  </clipPath>
 </defs>
</svg>
