<?xml version="1.0" encoding="utf-8" standalone="no"?>
<!DOCTYPE svg PUBLIC "-//W3C//DTD SVG 1.1//EN"
  "http://www.w3.org/Graphics/SVG/1.1/DTD/svg11.dtd">
<svg xmlns:xlink="http://www.w3.org/1999/xlink" width="1152pt" height="648pt" viewBox="0 0 1152 648" xmlns="http://www.w3.org/2000/svg" version="1.1">
 <metadata>
  <rdf:RDF xmlns:dc="http://purl.org/dc/elements/1.1/" xmlns:cc="http://creativecommons.org/ns#" xmlns:rdf="http://www.w3.org/1999/02/22-rdf-syntax-ns#">
   <cc:Work>
    <dc:type rdf:resource="http://purl.org/dc/dcmitype/StillImage"/>
    <dc:date>2024-04-29T10:35:42.081877</dc:date>
    <dc:format>image/svg+xml</dc:format>
    <dc:creator>
     <cc:Agent>
      <dc:title>Matplotlib v3.8.4, https://matplotlib.org/</dc:title>
     </cc:Agent>
    </dc:creator>
   </cc:Work>
  </rdf:RDF>
 </metadata>
 <defs>
  <style type="text/css">*{stroke-linejoin: round; stroke-linecap: butt}</style>
 </defs>
 <g id="figure_1">
  <g id="patch_1">
   <path d="M 0 648 
L 1152 648 
L 1152 0 
L 0 0 
L 0 648 
z
" style="fill: none"/>
  </g>
  <g id="axes_1">
   <g id="PathCollection_1">
    <defs>
     <path id="mc84779b027" d="M 0 2.738613 
C 0.726289 2.738613 1.422928 2.450055 1.936492 1.936492 
C 2.450055 1.422928 2.738613 0.726289 2.738613 0 
C 2.738613 -0.726289 2.450055 -1.422928 1.936492 -1.936492 
C 1.422928 -2.450055 0.726289 -2.738613 0 -2.738613 
C -0.726289 -2.738613 -1.422928 -2.450055 -1.936492 -1.936492 
C -2.450055 -1.422928 -2.738613 -0.726289 -2.738613 0 
C -2.738613 0.726289 -2.450055 1.422928 -1.936492 1.936492 
C -1.422928 2.450055 -0.726289 2.738613 0 2.738613 
z
" style="stroke: #79f2a1"/>
    </defs>
    <g clip-path="url(#pf464a26355)">
     <use xlink:href="#mc84779b027" x="420.768" y="511.73046" style="fill: #79f2a1; stroke: #79f2a1"/>
     <use xlink:href="#mc84779b027" x="210.96" y="541.29384" style="fill: #79f2a1; stroke: #79f2a1"/>
    </g>
   </g>
   <g id="text_1">
    <path d="M 429.47298 506.277028 
L 430.32298 506.277028 
L 432.940168 513.377028 
L 431.865167 513.377028 
L 429.89798 507.648903 
L 427.930792 513.377028 
L 426.855793 513.377028 
L 429.47298 506.277028 
z
M 428.062043 510.872341 
L 431.79798 510.872341 
L 431.79798 511.819215 
L 428.062043 511.819215 
L 428.062043 510.872341 
z
M 436.381964 509.852028 
L 436.377277 510.027028 
Q 436.255402 510.252028 436.008527 510.356716 
Q 435.761652 510.461403 435.425714 510.461403 
Q 434.917902 510.461403 434.531964 510.203591 
Q 434.146027 509.944215 433.933527 509.473903 
Q 433.721027 509.002028 433.721027 508.381715 
L 433.721027 508.377028 
Q 433.721027 507.687966 433.952277 507.200466 
Q 434.185089 506.711403 434.631964 506.458278 
Q 435.078839 506.203591 435.703839 506.203591 
Q 436.328839 506.203591 436.772589 506.462965 
Q 437.217902 506.72234 437.449152 507.216091 
Q 437.680402 507.708278 437.680402 508.402028 
L 437.680402 508.406716 
Q 437.680402 508.786403 437.581964 509.219216 
Q 437.485089 509.652028 437.305402 510.075466 
Q 437.275714 510.139528 437.246027 510.205153 
Q 437.217902 510.270778 437.183527 510.33484 
L 435.669464 513.377028 
L 434.594464 513.377028 
L 436.381964 509.852028 
z
M 435.703839 509.55359 
Q 436.172589 509.55359 436.428839 509.236403 
Q 436.685089 508.919216 436.685089 508.342653 
L 436.685089 508.337965 
Q 436.685089 507.777028 436.428839 507.469216 
Q 436.172589 507.161403 435.703839 507.161403 
Q 435.230402 507.161403 434.974152 507.469216 
Q 434.717902 507.777028 434.717902 508.342653 
L 434.717902 508.34734 
Q 434.717902 508.923903 434.974152 509.239528 
Q 435.230402 509.55359 435.703839 509.55359 
z
M 442.473175 513.359841 
L 442.473175 514.306715 
L 438.410675 514.306715 
L 438.410675 513.359841 
L 442.473175 513.359841 
z
M 445.634894 513.450465 
Q 445.122394 513.450465 444.663019 513.35359 
Q 444.205207 513.255153 443.806769 513.05984 
Q 443.408332 512.864528 443.061457 512.570778 
L 443.061457 512.570778 
L 443.681769 511.809841 
L 443.681769 511.809841 
Q 444.088019 512.161403 444.575519 512.337965 
Q 445.064582 512.512965 445.634894 512.512965 
Q 446.406769 512.512965 446.831769 512.227028 
Q 447.256769 511.94109 447.256769 511.419216 
L 447.256769 511.414528 
Q 447.256769 511.042653 447.063019 510.825466 
Q 446.870832 510.608278 446.564582 510.50359 
Q 446.259894 510.398903 445.777082 510.309841 
Q 445.761457 510.305153 445.744269 510.305153 
Q 445.728644 510.305153 445.713019 510.300465 
L 445.639582 510.286403 
Q 444.927082 510.164528 444.480207 510.011403 
Q 444.033332 509.856716 443.716144 509.448903 
Q 443.398957 509.04109 443.398957 508.289528 
L 443.398957 508.28484 
Q 443.398957 507.625466 443.694269 507.15984 
Q 443.989582 506.692653 444.555207 506.448903 
Q 445.122394 506.203591 445.917707 506.203591 
Q 446.298957 506.203591 446.667707 506.287965 
Q 447.036457 506.370778 447.394269 506.53484 
Q 447.753644 506.69734 448.100519 506.945778 
L 448.100519 506.945778 
L 447.534894 507.737965 
L 447.534894 507.737965 
Q 447.128644 507.439528 446.725519 507.29109 
Q 446.323957 507.141091 445.917707 507.141091 
Q 445.191144 507.141091 444.788019 507.431715 
Q 444.384894 507.72234 444.384894 508.255153 
L 444.384894 508.25984 
Q 444.384894 508.625466 444.592707 508.836403 
Q 444.800519 509.045778 445.109894 509.145778 
Q 445.420832 509.245778 445.972394 509.35359 
Q 445.991144 509.358278 446.008332 509.361403 
Q 446.025519 509.362965 446.045832 509.367653 
Q 446.069269 509.372341 446.098957 509.37859 
Q 446.128644 509.383278 446.152082 509.387966 
Q 446.797394 509.519215 447.228644 509.700466 
Q 447.661457 509.880153 447.952082 510.283278 
Q 448.242707 510.686403 448.242707 511.38484 
L 448.242707 511.394215 
Q 448.242707 512.044215 447.934894 512.505153 
Q 447.627082 512.96609 447.042707 513.208278 
Q 446.459894 513.450465 445.634894 513.450465 
z
M 452.421808 510.164528 
Q 452.421808 509.66609 452.156183 509.391091 
Q 451.890558 509.114528 451.401496 509.114528 
Q 451.098371 509.114528 450.807746 509.208278 
Q 450.518683 509.300465 450.293683 509.466091 
L 449.565558 508.967653 
Q 449.854621 508.620778 450.324933 508.42859 
Q 450.796808 508.234841 451.371808 508.234841 
Q 452.003058 508.234841 452.451496 508.458278 
Q 452.901496 508.680153 453.135871 509.102028 
Q 453.370246 509.523903 453.370246 510.120778 
L 453.370246 513.377028 
L 452.421808 513.377028 
L 452.421808 510.164528 
z
M 451.182746 513.450465 
Q 450.245246 513.450465 449.781183 513.062966 
Q 449.317121 512.673903 449.317121 511.883278 
Q 449.317121 511.130153 449.742121 510.755153 
Q 450.167121 510.37859 451.026496 510.37859 
L 452.465558 510.37859 
L 452.534308 511.180153 
L 451.031183 511.180153 
Q 450.640558 511.180153 450.446808 511.35359 
Q 450.254621 511.527028 450.254621 511.883278 
Q 450.254621 512.269215 450.510871 512.455153 
Q 450.767121 512.639528 451.288996 512.639528 
Q 451.860871 512.639528 452.140558 512.517653 
Q 452.421808 512.395778 452.421808 512.136403 
L 452.524933 512.848903 
Q 452.393683 513.055153 452.199933 513.186403 
Q 452.007746 513.317653 451.753058 513.383278 
Q 451.499933 513.450465 451.182746 513.450465 
z
M 460.937824 510.305153 
Q 460.937824 509.769215 460.659699 509.477028 
Q 460.381574 509.183278 459.878449 509.183278 
Q 459.414386 509.183278 459.159699 509.466091 
Q 458.906574 509.748903 458.906574 510.266091 
L 458.706574 509.289528 
Q 458.945636 508.786403 459.337824 508.511403 
Q 459.731574 508.234841 460.205011 508.234841 
Q 460.751886 508.234841 461.139386 508.477028 
Q 461.528449 508.719216 461.731574 509.183278 
Q 461.934699 509.645778 461.934699 510.300465 
L 461.934699 513.377028 
L 460.937824 513.377028 
L 460.937824 510.305153 
z
M 454.883136 508.308278 
L 455.880011 508.308278 
L 455.880011 513.377028 
L 454.883136 513.377028 
L 454.883136 508.308278 
z
M 457.911261 510.305153 
Q 457.911261 509.769215 457.647199 509.477028 
Q 457.383136 509.183278 456.900324 509.183278 
Q 456.411261 509.183278 456.145636 509.442653 
Q 455.880011 509.700466 455.880011 510.169216 
L 455.776886 509.192653 
Q 456.011261 508.733278 456.389386 508.484841 
Q 456.767511 508.234841 457.226886 508.234841 
Q 457.759699 508.234841 458.134699 508.477028 
Q 458.511261 508.719216 458.708136 509.183278 
Q 458.906574 509.645778 458.906574 510.300465 
L 458.906574 513.377028 
L 457.911261 513.377028 
L 457.911261 510.305153 
z
M 465.239777 513.450465 
Q 464.789777 513.450465 464.396027 513.362965 
Q 464.003839 513.273903 463.661652 513.098903 
Q 463.321027 512.922341 463.031964 512.65984 
L 463.031964 512.65984 
L 463.624152 511.931715 
L 463.624152 511.931715 
Q 464.033527 512.244215 464.438214 512.400465 
Q 464.844464 512.556715 465.239777 512.556715 
Q 465.830402 512.556715 466.125714 512.373903 
Q 466.421027 512.19109 466.421027 511.823903 
Q 466.421027 511.580153 466.260089 511.458278 
Q 466.099152 511.336403 465.860089 511.295778 
Q 465.621027 511.25359 465.186652 511.219216 
Q 465.147589 511.219216 465.102277 511.217653 
Q 465.058527 511.214528 465.019464 511.208278 
Q 465.000714 511.208278 464.980402 511.206715 
Q 464.961652 511.203591 464.941339 511.203591 
Q 464.449152 511.164528 464.106964 511.059841 
Q 463.764777 510.955153 463.538214 510.667653 
Q 463.311652 510.37859 463.311652 509.841091 
Q 463.311652 509.305153 463.530402 508.948903 
Q 463.750714 508.591091 464.185089 508.412965 
Q 464.619464 508.234841 465.274152 508.234841 
Q 465.669464 508.234841 466.027277 508.308278 
Q 466.386652 508.381715 466.713214 508.525465 
Q 467.041339 508.669216 467.344464 508.889528 
L 467.344464 508.889528 
L 466.742902 509.617653 
L 466.742902 509.617653 
Q 466.363214 509.372341 465.994464 509.250466 
Q 465.625714 509.12859 465.274152 509.12859 
Q 464.766339 509.12859 464.511652 509.302028 
Q 464.258527 509.475465 464.258527 509.82234 
Q 464.258527 510.027028 464.402277 510.130153 
Q 464.546027 510.231716 464.764777 510.266091 
Q 464.985089 510.300465 465.391339 510.325466 
Q 465.421027 510.330153 465.452277 510.330153 
Q 465.483527 510.330153 465.517902 510.33484 
Q 465.531964 510.33484 465.546027 510.33484 
Q 465.561652 510.33484 465.577277 510.339528 
Q 466.108527 510.373903 466.481964 510.481716 
Q 466.855402 510.589528 467.108527 510.906716 
Q 467.363214 511.223903 467.363214 511.823903 
Q 467.363214 512.370778 467.128839 512.730153 
Q 466.894464 513.089528 466.422589 513.270778 
Q 465.952277 513.450465 465.239777 513.450465 
z
M 471.689386 508.308278 
L 472.681574 508.308278 
L 472.681574 513.377028 
L 471.689386 513.377028 
L 471.689386 508.308278 
z
M 469.630011 511.389528 
Q 469.630011 511.922341 469.900324 512.212965 
Q 470.170636 512.50359 470.664386 512.50359 
Q 471.153449 512.50359 471.420636 512.244215 
Q 471.689386 511.984841 471.689386 511.506715 
L 471.758136 512.56609 
Q 471.601886 512.942653 471.250324 513.19734 
Q 470.898761 513.450465 470.386261 513.450465 
Q 469.545636 513.450465 469.089386 512.911403 
Q 468.633136 512.370778 468.633136 511.389528 
L 468.633136 508.308278 
L 469.630011 508.308278 
L 469.630011 511.389528 
z
M 474.19466 508.308278 
L 475.191535 508.308278 
L 475.191535 513.377028 
L 474.19466 513.377028 
L 474.19466 508.308278 
z
M 477.271222 510.305153 
Q 477.271222 509.769215 476.993097 509.477028 
Q 476.714972 509.183278 476.211847 509.183278 
Q 475.722785 509.183278 475.45716 509.442653 
Q 475.191535 509.700466 475.191535 510.169216 
L 475.08841 509.192653 
Q 475.322785 508.733278 475.70091 508.484841 
Q 476.079035 508.234841 476.53841 508.234841 
Q 477.36341 508.234841 477.814972 508.775465 
Q 478.266535 509.314528 478.266535 510.300465 
L 478.266535 513.377028 
L 477.271222 513.377028 
L 477.271222 510.305153 
z
M 481.480597 515.437966 
Q 480.908722 515.437966 480.45716 515.225466 
Q 480.005597 515.012965 479.755597 514.627028 
L 479.755597 514.627028 
L 480.430597 514.016091 
L 480.430597 514.016091 
Q 480.62591 514.28484 480.896222 514.431715 
Q 481.168097 514.578591 481.464972 514.578591 
Q 482.036847 514.578591 482.349347 514.262965 
Q 482.661847 513.948903 482.661847 513.37234 
L 482.661847 508.308278 
L 483.65716 508.308278 
L 483.65716 513.225466 
Q 483.65716 513.923903 483.40091 514.422341 
Q 483.14466 514.920778 482.655597 515.178591 
Q 482.168097 515.437966 481.480597 515.437966 
z
M 481.386847 513.464528 
Q 480.830597 513.464528 480.436847 513.223903 
Q 480.04466 512.981715 479.83841 512.517653 
Q 479.633722 512.053591 479.633722 511.403591 
L 479.633722 510.286403 
Q 479.633722 509.631715 479.833722 509.167653 
Q 480.035285 508.703591 480.418097 508.462965 
Q 480.80091 508.220778 481.33841 508.220778 
Q 481.786847 508.220778 482.160285 508.455153 
Q 482.535285 508.689528 482.76341 509.114528 
L 482.661847 510.148903 
Q 482.661847 509.827028 482.54466 509.59734 
Q 482.427472 509.367653 482.204035 509.248903 
Q 481.98216 509.12859 481.664972 509.12859 
Q 481.172785 509.12859 480.90091 509.436403 
Q 480.630597 509.744215 480.630597 510.300465 
L 480.630597 511.403591 
Q 480.630597 511.956715 480.90091 512.256716 
Q 481.172785 512.556715 481.664972 512.556715 
Q 481.98216 512.556715 482.204035 512.433278 
Q 482.427472 512.308278 482.54466 512.073903 
Q 482.661847 511.839528 482.661847 511.511403 
L 482.730597 512.581715 
Q 482.579035 512.956715 482.233722 513.211403 
Q 481.889972 513.464528 481.386847 513.464528 
z
" style="fill: #ffffff; stroke: #000000"/>
    <path d="M 429.47298 506.277028 
L 430.32298 506.277028 
L 432.940168 513.377028 
L 431.865167 513.377028 
L 429.89798 507.648903 
L 427.930792 513.377028 
L 426.855793 513.377028 
L 429.47298 506.277028 
z
M 428.062043 510.872341 
L 431.79798 510.872341 
L 431.79798 511.819215 
L 428.062043 511.819215 
L 428.062043 510.872341 
z
M 436.381964 509.852028 
L 436.377277 510.027028 
Q 436.255402 510.252028 436.008527 510.356716 
Q 435.761652 510.461403 435.425714 510.461403 
Q 434.917902 510.461403 434.531964 510.203591 
Q 434.146027 509.944215 433.933527 509.473903 
Q 433.721027 509.002028 433.721027 508.381715 
L 433.721027 508.377028 
Q 433.721027 507.687966 433.952277 507.200466 
Q 434.185089 506.711403 434.631964 506.458278 
Q 435.078839 506.203591 435.703839 506.203591 
Q 436.328839 506.203591 436.772589 506.462965 
Q 437.217902 506.72234 437.449152 507.216091 
Q 437.680402 507.708278 437.680402 508.402028 
L 437.680402 508.406716 
Q 437.680402 508.786403 437.581964 509.219216 
Q 437.485089 509.652028 437.305402 510.075466 
Q 437.275714 510.139528 437.246027 510.205153 
Q 437.217902 510.270778 437.183527 510.33484 
L 435.669464 513.377028 
L 434.594464 513.377028 
L 436.381964 509.852028 
z
M 435.703839 509.55359 
Q 436.172589 509.55359 436.428839 509.236403 
Q 436.685089 508.919216 436.685089 508.342653 
L 436.685089 508.337965 
Q 436.685089 507.777028 436.428839 507.469216 
Q 436.172589 507.161403 435.703839 507.161403 
Q 435.230402 507.161403 434.974152 507.469216 
Q 434.717902 507.777028 434.717902 508.342653 
L 434.717902 508.34734 
Q 434.717902 508.923903 434.974152 509.239528 
Q 435.230402 509.55359 435.703839 509.55359 
z
M 442.473175 513.359841 
L 442.473175 514.306715 
L 438.410675 514.306715 
L 438.410675 513.359841 
L 442.473175 513.359841 
z
M 445.634894 513.450465 
Q 445.122394 513.450465 444.663019 513.35359 
Q 444.205207 513.255153 443.806769 513.05984 
Q 443.408332 512.864528 443.061457 512.570778 
L 443.061457 512.570778 
L 443.681769 511.809841 
L 443.681769 511.809841 
Q 444.088019 512.161403 444.575519 512.337965 
Q 445.064582 512.512965 445.634894 512.512965 
Q 446.406769 512.512965 446.831769 512.227028 
Q 447.256769 511.94109 447.256769 511.419216 
L 447.256769 511.414528 
Q 447.256769 511.042653 447.063019 510.825466 
Q 446.870832 510.608278 446.564582 510.50359 
Q 446.259894 510.398903 445.777082 510.309841 
Q 445.761457 510.305153 445.744269 510.305153 
Q 445.728644 510.305153 445.713019 510.300465 
L 445.639582 510.286403 
Q 444.927082 510.164528 444.480207 510.011403 
Q 444.033332 509.856716 443.716144 509.448903 
Q 443.398957 509.04109 443.398957 508.289528 
L 443.398957 508.28484 
Q 443.398957 507.625466 443.694269 507.15984 
Q 443.989582 506.692653 444.555207 506.448903 
Q 445.122394 506.203591 445.917707 506.203591 
Q 446.298957 506.203591 446.667707 506.287965 
Q 447.036457 506.370778 447.394269 506.53484 
Q 447.753644 506.69734 448.100519 506.945778 
L 448.100519 506.945778 
L 447.534894 507.737965 
L 447.534894 507.737965 
Q 447.128644 507.439528 446.725519 507.29109 
Q 446.323957 507.141091 445.917707 507.141091 
Q 445.191144 507.141091 444.788019 507.431715 
Q 444.384894 507.72234 444.384894 508.255153 
L 444.384894 508.25984 
Q 444.384894 508.625466 444.592707 508.836403 
Q 444.800519 509.045778 445.109894 509.145778 
Q 445.420832 509.245778 445.972394 509.35359 
Q 445.991144 509.358278 446.008332 509.361403 
Q 446.025519 509.362965 446.045832 509.367653 
Q 446.069269 509.372341 446.098957 509.37859 
Q 446.128644 509.383278 446.152082 509.387966 
Q 446.797394 509.519215 447.228644 509.700466 
Q 447.661457 509.880153 447.952082 510.283278 
Q 448.242707 510.686403 448.242707 511.38484 
L 448.242707 511.394215 
Q 448.242707 512.044215 447.934894 512.505153 
Q 447.627082 512.96609 447.042707 513.208278 
Q 446.459894 513.450465 445.634894 513.450465 
z
M 452.421808 510.164528 
Q 452.421808 509.66609 452.156183 509.391091 
Q 451.890558 509.114528 451.401496 509.114528 
Q 451.098371 509.114528 450.807746 509.208278 
Q 450.518683 509.300465 450.293683 509.466091 
L 449.565558 508.967653 
Q 449.854621 508.620778 450.324933 508.42859 
Q 450.796808 508.234841 451.371808 508.234841 
Q 452.003058 508.234841 452.451496 508.458278 
Q 452.901496 508.680153 453.135871 509.102028 
Q 453.370246 509.523903 453.370246 510.120778 
L 453.370246 513.377028 
L 452.421808 513.377028 
L 452.421808 510.164528 
z
M 451.182746 513.450465 
Q 450.245246 513.450465 449.781183 513.062966 
Q 449.317121 512.673903 449.317121 511.883278 
Q 449.317121 511.130153 449.742121 510.755153 
Q 450.167121 510.37859 451.026496 510.37859 
L 452.465558 510.37859 
L 452.534308 511.180153 
L 451.031183 511.180153 
Q 450.640558 511.180153 450.446808 511.35359 
Q 450.254621 511.527028 450.254621 511.883278 
Q 450.254621 512.269215 450.510871 512.455153 
Q 450.767121 512.639528 451.288996 512.639528 
Q 451.860871 512.639528 452.140558 512.517653 
Q 452.421808 512.395778 452.421808 512.136403 
L 452.524933 512.848903 
Q 452.393683 513.055153 452.199933 513.186403 
Q 452.007746 513.317653 451.753058 513.383278 
Q 451.499933 513.450465 451.182746 513.450465 
z
M 460.937824 510.305153 
Q 460.937824 509.769215 460.659699 509.477028 
Q 460.381574 509.183278 459.878449 509.183278 
Q 459.414386 509.183278 459.159699 509.466091 
Q 458.906574 509.748903 458.906574 510.266091 
L 458.706574 509.289528 
Q 458.945636 508.786403 459.337824 508.511403 
Q 459.731574 508.234841 460.205011 508.234841 
Q 460.751886 508.234841 461.139386 508.477028 
Q 461.528449 508.719216 461.731574 509.183278 
Q 461.934699 509.645778 461.934699 510.300465 
L 461.934699 513.377028 
L 460.937824 513.377028 
L 460.937824 510.305153 
z
M 454.883136 508.308278 
L 455.880011 508.308278 
L 455.880011 513.377028 
L 454.883136 513.377028 
L 454.883136 508.308278 
z
M 457.911261 510.305153 
Q 457.911261 509.769215 457.647199 509.477028 
Q 457.383136 509.183278 456.900324 509.183278 
Q 456.411261 509.183278 456.145636 509.442653 
Q 455.880011 509.700466 455.880011 510.169216 
L 455.776886 509.192653 
Q 456.011261 508.733278 456.389386 508.484841 
Q 456.767511 508.234841 457.226886 508.234841 
Q 457.759699 508.234841 458.134699 508.477028 
Q 458.511261 508.719216 458.708136 509.183278 
Q 458.906574 509.645778 458.906574 510.300465 
L 458.906574 513.377028 
L 457.911261 513.377028 
L 457.911261 510.305153 
z
M 465.239777 513.450465 
Q 464.789777 513.450465 464.396027 513.362965 
Q 464.003839 513.273903 463.661652 513.098903 
Q 463.321027 512.922341 463.031964 512.65984 
L 463.031964 512.65984 
L 463.624152 511.931715 
L 463.624152 511.931715 
Q 464.033527 512.244215 464.438214 512.400465 
Q 464.844464 512.556715 465.239777 512.556715 
Q 465.830402 512.556715 466.125714 512.373903 
Q 466.421027 512.19109 466.421027 511.823903 
Q 466.421027 511.580153 466.260089 511.458278 
Q 466.099152 511.336403 465.860089 511.295778 
Q 465.621027 511.25359 465.186652 511.219216 
Q 465.147589 511.219216 465.102277 511.217653 
Q 465.058527 511.214528 465.019464 511.208278 
Q 465.000714 511.208278 464.980402 511.206715 
Q 464.961652 511.203591 464.941339 511.203591 
Q 464.449152 511.164528 464.106964 511.059841 
Q 463.764777 510.955153 463.538214 510.667653 
Q 463.311652 510.37859 463.311652 509.841091 
Q 463.311652 509.305153 463.530402 508.948903 
Q 463.750714 508.591091 464.185089 508.412965 
Q 464.619464 508.234841 465.274152 508.234841 
Q 465.669464 508.234841 466.027277 508.308278 
Q 466.386652 508.381715 466.713214 508.525465 
Q 467.041339 508.669216 467.344464 508.889528 
L 467.344464 508.889528 
L 466.742902 509.617653 
L 466.742902 509.617653 
Q 466.363214 509.372341 465.994464 509.250466 
Q 465.625714 509.12859 465.274152 509.12859 
Q 464.766339 509.12859 464.511652 509.302028 
Q 464.258527 509.475465 464.258527 509.82234 
Q 464.258527 510.027028 464.402277 510.130153 
Q 464.546027 510.231716 464.764777 510.266091 
Q 464.985089 510.300465 465.391339 510.325466 
Q 465.421027 510.330153 465.452277 510.330153 
Q 465.483527 510.330153 465.517902 510.33484 
Q 465.531964 510.33484 465.546027 510.33484 
Q 465.561652 510.33484 465.577277 510.339528 
Q 466.108527 510.373903 466.481964 510.481716 
Q 466.855402 510.589528 467.108527 510.906716 
Q 467.363214 511.223903 467.363214 511.823903 
Q 467.363214 512.370778 467.128839 512.730153 
Q 466.894464 513.089528 466.422589 513.270778 
Q 465.952277 513.450465 465.239777 513.450465 
z
M 471.689386 508.308278 
L 472.681574 508.308278 
L 472.681574 513.377028 
L 471.689386 513.377028 
L 471.689386 508.308278 
z
M 469.630011 511.389528 
Q 469.630011 511.922341 469.900324 512.212965 
Q 470.170636 512.50359 470.664386 512.50359 
Q 471.153449 512.50359 471.420636 512.244215 
Q 471.689386 511.984841 471.689386 511.506715 
L 471.758136 512.56609 
Q 471.601886 512.942653 471.250324 513.19734 
Q 470.898761 513.450465 470.386261 513.450465 
Q 469.545636 513.450465 469.089386 512.911403 
Q 468.633136 512.370778 468.633136 511.389528 
L 468.633136 508.308278 
L 469.630011 508.308278 
L 469.630011 511.389528 
z
M 474.19466 508.308278 
L 475.191535 508.308278 
L 475.191535 513.377028 
L 474.19466 513.377028 
L 474.19466 508.308278 
z
M 477.271222 510.305153 
Q 477.271222 509.769215 476.993097 509.477028 
Q 476.714972 509.183278 476.211847 509.183278 
Q 475.722785 509.183278 475.45716 509.442653 
Q 475.191535 509.700466 475.191535 510.169216 
L 475.08841 509.192653 
Q 475.322785 508.733278 475.70091 508.484841 
Q 476.079035 508.234841 476.53841 508.234841 
Q 477.36341 508.234841 477.814972 508.775465 
Q 478.266535 509.314528 478.266535 510.300465 
L 478.266535 513.377028 
L 477.271222 513.377028 
L 477.271222 510.305153 
z
M 481.480597 515.437966 
Q 480.908722 515.437966 480.45716 515.225466 
Q 480.005597 515.012965 479.755597 514.627028 
L 479.755597 514.627028 
L 480.430597 514.016091 
L 480.430597 514.016091 
Q 480.62591 514.28484 480.896222 514.431715 
Q 481.168097 514.578591 481.464972 514.578591 
Q 482.036847 514.578591 482.349347 514.262965 
Q 482.661847 513.948903 482.661847 513.37234 
L 482.661847 508.308278 
L 483.65716 508.308278 
L 483.65716 513.225466 
Q 483.65716 513.923903 483.40091 514.422341 
Q 483.14466 514.920778 482.655597 515.178591 
Q 482.168097 515.437966 481.480597 515.437966 
z
M 481.386847 513.464528 
Q 480.830597 513.464528 480.436847 513.223903 
Q 480.04466 512.981715 479.83841 512.517653 
Q 479.633722 512.053591 479.633722 511.403591 
L 479.633722 510.286403 
Q 479.633722 509.631715 479.833722 509.167653 
Q 480.035285 508.703591 480.418097 508.462965 
Q 480.80091 508.220778 481.33841 508.220778 
Q 481.786847 508.220778 482.160285 508.455153 
Q 482.535285 508.689528 482.76341 509.114528 
L 482.661847 510.148903 
Q 482.661847 509.827028 482.54466 509.59734 
Q 482.427472 509.367653 482.204035 509.248903 
Q 481.98216 509.12859 481.664972 509.12859 
Q 481.172785 509.12859 480.90091 509.436403 
Q 480.630597 509.744215 480.630597 510.300465 
L 480.630597 511.403591 
Q 480.630597 511.956715 480.90091 512.256716 
Q 481.172785 512.556715 481.664972 512.556715 
Q 481.98216 512.556715 482.204035 512.433278 
Q 482.427472 512.308278 482.54466 512.073903 
Q 482.661847 511.839528 482.661847 511.511403 
L 482.730597 512.581715 
Q 482.579035 512.956715 482.233722 513.211403 
Q 481.889972 513.464528 481.386847 513.464528 
z
" style="fill: #ffffff"/>
   </g>
   <g id="text_2">
    <path d="M 219.66498 535.840408 
L 220.51498 535.840408 
L 223.132168 542.940408 
L 222.057168 542.940408 
L 220.08998 537.212283 
L 218.122793 542.940408 
L 217.047793 542.940408 
L 219.66498 535.840408 
z
M 218.254043 540.435721 
L 221.98998 540.435721 
L 221.98998 541.382596 
L 218.254043 541.382596 
L 218.254043 540.435721 
z
M 226.573964 539.415408 
L 226.569277 539.590408 
Q 226.447402 539.815408 226.200527 539.920096 
Q 225.953652 540.024783 225.617714 540.024783 
Q 225.109902 540.024783 224.723964 539.766971 
Q 224.338027 539.507596 224.125527 539.037283 
Q 223.913027 538.565408 223.913027 537.945096 
L 223.913027 537.940408 
Q 223.913027 537.251346 224.144277 536.763846 
Q 224.377089 536.274783 224.823964 536.021658 
Q 225.270839 535.766971 225.895839 535.766971 
Q 226.520839 535.766971 226.964589 536.026346 
Q 227.409902 536.285721 227.641152 536.779471 
Q 227.872402 537.271658 227.872402 537.965408 
L 227.872402 537.970096 
Q 227.872402 538.349783 227.773964 538.782596 
Q 227.677089 539.215408 227.497402 539.638846 
Q 227.467714 539.702908 227.438027 539.768533 
Q 227.409902 539.834158 227.375527 539.898221 
L 225.861464 542.940408 
L 224.786464 542.940408 
L 226.573964 539.415408 
z
M 225.895839 539.116971 
Q 226.364589 539.116971 226.620839 538.799783 
Q 226.877089 538.482596 226.877089 537.906033 
L 226.877089 537.901346 
Q 226.877089 537.340408 226.620839 537.032596 
Q 226.364589 536.724783 225.895839 536.724783 
Q 225.422402 536.724783 225.166152 537.032596 
Q 224.909902 537.340408 224.909902 537.906033 
L 224.909902 537.910721 
Q 224.909902 538.487283 225.166152 538.802908 
Q 225.422402 539.116971 225.895839 539.116971 
z
M 232.665175 542.923221 
L 232.665175 543.870096 
L 228.602675 543.870096 
L 228.602675 542.923221 
L 232.665175 542.923221 
z
M 235.826894 543.013846 
Q 235.314394 543.013846 234.855019 542.916971 
Q 234.397207 542.818533 233.998769 542.623221 
Q 233.600332 542.427908 233.253457 542.134158 
L 233.253457 542.134158 
L 233.873769 541.373221 
L 233.873769 541.373221 
Q 234.280019 541.724783 234.767519 541.901346 
Q 235.256582 542.076346 235.826894 542.076346 
Q 236.598769 542.076346 237.023769 541.790408 
Q 237.448769 541.504471 237.448769 540.982596 
L 237.448769 540.977908 
Q 237.448769 540.606033 237.255019 540.388846 
Q 237.062832 540.171658 236.756582 540.066971 
Q 236.451894 539.962283 235.969082 539.873221 
Q 235.953457 539.868533 235.936269 539.868533 
Q 235.920644 539.868533 235.905019 539.863846 
L 235.831582 539.849783 
Q 235.119082 539.727908 234.672207 539.574783 
Q 234.225332 539.420096 233.908144 539.012283 
Q 233.590957 538.604471 233.590957 537.852908 
L 233.590957 537.848221 
Q 233.590957 537.188846 233.886269 536.723221 
Q 234.181582 536.256033 234.747207 536.012283 
Q 235.314394 535.766971 236.109707 535.766971 
Q 236.490957 535.766971 236.859707 535.851346 
Q 237.228457 535.934158 237.586269 536.098221 
Q 237.945644 536.260721 238.292519 536.509158 
L 238.292519 536.509158 
L 237.726894 537.301346 
L 237.726894 537.301346 
Q 237.320644 537.002908 236.917519 536.854471 
Q 236.515957 536.704471 236.109707 536.704471 
Q 235.383144 536.704471 234.980019 536.995096 
Q 234.576894 537.285721 234.576894 537.818533 
L 234.576894 537.823221 
Q 234.576894 538.188846 234.784707 538.399783 
Q 234.992519 538.609158 235.301894 538.709158 
Q 235.612832 538.809158 236.164394 538.916971 
Q 236.183144 538.921658 236.200332 538.924783 
Q 236.217519 538.926346 236.237832 538.931033 
Q 236.261269 538.935721 236.290957 538.941971 
Q 236.320644 538.946658 236.344082 538.951346 
Q 236.989394 539.082596 237.420644 539.263846 
Q 237.853457 539.443533 238.144082 539.846658 
Q 238.434707 540.249783 238.434707 540.948221 
L 238.434707 540.957596 
Q 238.434707 541.607596 238.126894 542.068533 
Q 237.819082 542.529471 237.234707 542.771658 
Q 236.651894 543.013846 235.826894 543.013846 
z
M 242.613808 539.727908 
Q 242.613808 539.229471 242.348183 538.954471 
Q 242.082558 538.677908 241.593496 538.677908 
Q 241.290371 538.677908 240.999746 538.771658 
Q 240.710683 538.863846 240.485683 539.029471 
L 239.757558 538.531033 
Q 240.046621 538.184158 240.516933 537.991971 
Q 240.988808 537.798221 241.563808 537.798221 
Q 242.195058 537.798221 242.643496 538.021658 
Q 243.093496 538.243533 243.327871 538.665408 
Q 243.562246 539.087283 243.562246 539.684158 
L 243.562246 542.940408 
L 242.613808 542.940408 
L 242.613808 539.727908 
z
M 241.374746 543.013846 
Q 240.437246 543.013846 239.973183 542.626346 
Q 239.509121 542.237283 239.509121 541.446658 
Q 239.509121 540.693533 239.934121 540.318533 
Q 240.359121 539.941971 241.218496 539.941971 
L 242.657558 539.941971 
L 242.726308 540.743533 
L 241.223183 540.743533 
Q 240.832558 540.743533 240.638808 540.916971 
Q 240.446621 541.090408 240.446621 541.446658 
Q 240.446621 541.832596 240.702871 542.018533 
Q 240.959121 542.202908 241.480996 542.202908 
Q 242.052871 542.202908 242.332558 542.081033 
Q 242.613808 541.959158 242.613808 541.699783 
L 242.716933 542.412283 
Q 242.585683 542.618533 242.391933 542.749783 
Q 242.199746 542.881033 241.945058 542.946658 
Q 241.691933 543.013846 241.374746 543.013846 
z
M 251.129824 539.868533 
Q 251.129824 539.332596 250.851699 539.040408 
Q 250.573574 538.746658 250.070449 538.746658 
Q 249.606386 538.746658 249.351699 539.029471 
Q 249.098574 539.312283 249.098574 539.829471 
L 248.898574 538.852908 
Q 249.137636 538.349783 249.529824 538.074783 
Q 249.923574 537.798221 250.397011 537.798221 
Q 250.943886 537.798221 251.331386 538.040408 
Q 251.720449 538.282596 251.923574 538.746658 
Q 252.126699 539.209158 252.126699 539.863846 
L 252.126699 542.940408 
L 251.129824 542.940408 
L 251.129824 539.868533 
z
M 245.075136 537.871658 
L 246.072011 537.871658 
L 246.072011 542.940408 
L 245.075136 542.940408 
L 245.075136 537.871658 
z
M 248.103261 539.868533 
Q 248.103261 539.332596 247.839199 539.040408 
Q 247.575136 538.746658 247.092324 538.746658 
Q 246.603261 538.746658 246.337636 539.006033 
Q 246.072011 539.263846 246.072011 539.732596 
L 245.968886 538.756033 
Q 246.203261 538.296658 246.581386 538.048221 
Q 246.959511 537.798221 247.418886 537.798221 
Q 247.951699 537.798221 248.326699 538.040408 
Q 248.703261 538.282596 248.900136 538.746658 
Q 249.098574 539.209158 249.098574 539.863846 
L 249.098574 542.940408 
L 248.103261 542.940408 
L 248.103261 539.868533 
z
M 255.431777 543.013846 
Q 254.981777 543.013846 254.588027 542.926346 
Q 254.195839 542.837283 253.853652 542.662283 
Q 253.513027 542.485721 253.223964 542.223221 
L 253.223964 542.223221 
L 253.816152 541.495096 
L 253.816152 541.495096 
Q 254.225527 541.807596 254.630214 541.963846 
Q 255.036464 542.120096 255.431777 542.120096 
Q 256.022402 542.120096 256.317714 541.937283 
Q 256.613027 541.754471 256.613027 541.387283 
Q 256.613027 541.143533 256.452089 541.021658 
Q 256.291152 540.899783 256.052089 540.859158 
Q 255.813027 540.816971 255.378652 540.782596 
Q 255.339589 540.782596 255.294277 540.781033 
Q 255.250527 540.777908 255.211464 540.771658 
Q 255.192714 540.771658 255.172402 540.770096 
Q 255.153652 540.766971 255.133339 540.766971 
Q 254.641152 540.727908 254.298964 540.623221 
Q 253.956777 540.518533 253.730214 540.231033 
Q 253.503652 539.941971 253.503652 539.404471 
Q 253.503652 538.868533 253.722402 538.512283 
Q 253.942714 538.154471 254.377089 537.976346 
Q 254.811464 537.798221 255.466152 537.798221 
Q 255.861464 537.798221 256.219277 537.871658 
Q 256.578652 537.945096 256.905214 538.088846 
Q 257.233339 538.232596 257.536464 538.452908 
L 257.536464 538.452908 
L 256.934902 539.181033 
L 256.934902 539.181033 
Q 256.555214 538.935721 256.186464 538.813846 
Q 255.817714 538.691971 255.466152 538.691971 
Q 254.958339 538.691971 254.703652 538.865408 
Q 254.450527 539.038846 254.450527 539.385721 
Q 254.450527 539.590408 254.594277 539.693533 
Q 254.738027 539.795096 254.956777 539.829471 
Q 255.177089 539.863846 255.583339 539.888846 
Q 255.613027 539.893533 255.644277 539.893533 
Q 255.675527 539.893533 255.709902 539.898221 
Q 255.723964 539.898221 255.738027 539.898221 
Q 255.753652 539.898221 255.769277 539.902908 
Q 256.300527 539.937283 256.673964 540.045096 
Q 257.047402 540.152908 257.300527 540.470096 
Q 257.555214 540.787283 257.555214 541.387283 
Q 257.555214 541.934158 257.320839 542.293533 
Q 257.086464 542.652908 256.614589 542.834158 
Q 256.144277 543.013846 255.431777 543.013846 
z
M 261.881386 537.871658 
L 262.873574 537.871658 
L 262.873574 542.940408 
L 261.881386 542.940408 
L 261.881386 537.871658 
z
M 259.822011 540.952908 
Q 259.822011 541.485721 260.092324 541.776346 
Q 260.362636 542.066971 260.856386 542.066971 
Q 261.345449 542.066971 261.612636 541.807596 
Q 261.881386 541.548221 261.881386 541.070096 
L 261.950136 542.129471 
Q 261.793886 542.506033 261.442324 542.760721 
Q 261.090761 543.013846 260.578261 543.013846 
Q 259.737636 543.013846 259.281386 542.474783 
Q 258.825136 541.934158 258.825136 540.952908 
L 258.825136 537.871658 
L 259.822011 537.871658 
L 259.822011 540.952908 
z
M 264.38666 537.871658 
L 265.383535 537.871658 
L 265.383535 542.940408 
L 264.38666 542.940408 
L 264.38666 537.871658 
z
M 267.463222 539.868533 
Q 267.463222 539.332596 267.185097 539.040408 
Q 266.906972 538.746658 266.403847 538.746658 
Q 265.914785 538.746658 265.64916 539.006033 
Q 265.383535 539.263846 265.383535 539.732596 
L 265.28041 538.756033 
Q 265.514785 538.296658 265.89291 538.048221 
Q 266.271035 537.798221 266.73041 537.798221 
Q 267.55541 537.798221 268.006972 538.338846 
Q 268.458535 538.877908 268.458535 539.863846 
L 268.458535 542.940408 
L 267.463222 542.940408 
L 267.463222 539.868533 
z
M 271.672597 545.001346 
Q 271.100722 545.001346 270.64916 544.788846 
Q 270.197597 544.576346 269.947597 544.190408 
L 269.947597 544.190408 
L 270.622597 543.579471 
L 270.622597 543.579471 
Q 270.81791 543.848221 271.088222 543.995096 
Q 271.360097 544.141971 271.656972 544.141971 
Q 272.228847 544.141971 272.541347 543.826346 
Q 272.853847 543.512283 272.853847 542.935721 
L 272.853847 537.871658 
L 273.84916 537.871658 
L 273.84916 542.788846 
Q 273.84916 543.487283 273.59291 543.985721 
Q 273.33666 544.484158 272.847597 544.741971 
Q 272.360097 545.001346 271.672597 545.001346 
z
M 271.578847 543.027908 
Q 271.022597 543.027908 270.628847 542.787283 
Q 270.23666 542.545096 270.03041 542.081033 
Q 269.825722 541.616971 269.825722 540.966971 
L 269.825722 539.849783 
Q 269.825722 539.195096 270.025722 538.731033 
Q 270.227285 538.266971 270.610097 538.026346 
Q 270.99291 537.784158 271.53041 537.784158 
Q 271.978847 537.784158 272.352285 538.018533 
Q 272.727285 538.252908 272.95541 538.677908 
L 272.853847 539.712283 
Q 272.853847 539.390408 272.73666 539.160721 
Q 272.619472 538.931033 272.396035 538.812283 
Q 272.17416 538.691971 271.856972 538.691971 
Q 271.364785 538.691971 271.09291 538.999783 
Q 270.822597 539.307596 270.822597 539.863846 
L 270.822597 540.966971 
Q 270.822597 541.520096 271.09291 541.820096 
Q 271.364785 542.120096 271.856972 542.120096 
Q 272.17416 542.120096 272.396035 541.996658 
Q 272.619472 541.871658 272.73666 541.637283 
Q 272.853847 541.402908 272.853847 541.074783 
L 272.922597 542.145096 
Q 272.771035 542.520096 272.425722 542.774783 
Q 272.081972 543.027908 271.578847 543.027908 
z
" style="fill: #ffffff; stroke: #000000"/>
    <path d="M 219.66498 535.840408 
L 220.51498 535.840408 
L 223.132168 542.940408 
L 222.057168 542.940408 
L 220.08998 537.212283 
L 218.122793 542.940408 
L 217.047793 542.940408 
L 219.66498 535.840408 
z
M 218.254043 540.435721 
L 221.98998 540.435721 
L 221.98998 541.382596 
L 218.254043 541.382596 
L 218.254043 540.435721 
z
M 226.573964 539.415408 
L 226.569277 539.590408 
Q 226.447402 539.815408 226.200527 539.920096 
Q 225.953652 540.024783 225.617714 540.024783 
Q 225.109902 540.024783 224.723964 539.766971 
Q 224.338027 539.507596 224.125527 539.037283 
Q 223.913027 538.565408 223.913027 537.945096 
L 223.913027 537.940408 
Q 223.913027 537.251346 224.144277 536.763846 
Q 224.377089 536.274783 224.823964 536.021658 
Q 225.270839 535.766971 225.895839 535.766971 
Q 226.520839 535.766971 226.964589 536.026346 
Q 227.409902 536.285721 227.641152 536.779471 
Q 227.872402 537.271658 227.872402 537.965408 
L 227.872402 537.970096 
Q 227.872402 538.349783 227.773964 538.782596 
Q 227.677089 539.215408 227.497402 539.638846 
Q 227.467714 539.702908 227.438027 539.768533 
Q 227.409902 539.834158 227.375527 539.898221 
L 225.861464 542.940408 
L 224.786464 542.940408 
L 226.573964 539.415408 
z
M 225.895839 539.116971 
Q 226.364589 539.116971 226.620839 538.799783 
Q 226.877089 538.482596 226.877089 537.906033 
L 226.877089 537.901346 
Q 226.877089 537.340408 226.620839 537.032596 
Q 226.364589 536.724783 225.895839 536.724783 
Q 225.422402 536.724783 225.166152 537.032596 
Q 224.909902 537.340408 224.909902 537.906033 
L 224.909902 537.910721 
Q 224.909902 538.487283 225.166152 538.802908 
Q 225.422402 539.116971 225.895839 539.116971 
z
M 232.665175 542.923221 
L 232.665175 543.870096 
L 228.602675 543.870096 
L 228.602675 542.923221 
L 232.665175 542.923221 
z
M 235.826894 543.013846 
Q 235.314394 543.013846 234.855019 542.916971 
Q 234.397207 542.818533 233.998769 542.623221 
Q 233.600332 542.427908 233.253457 542.134158 
L 233.253457 542.134158 
L 233.873769 541.373221 
L 233.873769 541.373221 
Q 234.280019 541.724783 234.767519 541.901346 
Q 235.256582 542.076346 235.826894 542.076346 
Q 236.598769 542.076346 237.023769 541.790408 
Q 237.448769 541.504471 237.448769 540.982596 
L 237.448769 540.977908 
Q 237.448769 540.606033 237.255019 540.388846 
Q 237.062832 540.171658 236.756582 540.066971 
Q 236.451894 539.962283 235.969082 539.873221 
Q 235.953457 539.868533 235.936269 539.868533 
Q 235.920644 539.868533 235.905019 539.863846 
L 235.831582 539.849783 
Q 235.119082 539.727908 234.672207 539.574783 
Q 234.225332 539.420096 233.908144 539.012283 
Q 233.590957 538.604471 233.590957 537.852908 
L 233.590957 537.848221 
Q 233.590957 537.188846 233.886269 536.723221 
Q 234.181582 536.256033 234.747207 536.012283 
Q 235.314394 535.766971 236.109707 535.766971 
Q 236.490957 535.766971 236.859707 535.851346 
Q 237.228457 535.934158 237.586269 536.098221 
Q 237.945644 536.260721 238.292519 536.509158 
L 238.292519 536.509158 
L 237.726894 537.301346 
L 237.726894 537.301346 
Q 237.320644 537.002908 236.917519 536.854471 
Q 236.515957 536.704471 236.109707 536.704471 
Q 235.383144 536.704471 234.980019 536.995096 
Q 234.576894 537.285721 234.576894 537.818533 
L 234.576894 537.823221 
Q 234.576894 538.188846 234.784707 538.399783 
Q 234.992519 538.609158 235.301894 538.709158 
Q 235.612832 538.809158 236.164394 538.916971 
Q 236.183144 538.921658 236.200332 538.924783 
Q 236.217519 538.926346 236.237832 538.931033 
Q 236.261269 538.935721 236.290957 538.941971 
Q 236.320644 538.946658 236.344082 538.951346 
Q 236.989394 539.082596 237.420644 539.263846 
Q 237.853457 539.443533 238.144082 539.846658 
Q 238.434707 540.249783 238.434707 540.948221 
L 238.434707 540.957596 
Q 238.434707 541.607596 238.126894 542.068533 
Q 237.819082 542.529471 237.234707 542.771658 
Q 236.651894 543.013846 235.826894 543.013846 
z
M 242.613808 539.727908 
Q 242.613808 539.229471 242.348183 538.954471 
Q 242.082558 538.677908 241.593496 538.677908 
Q 241.290371 538.677908 240.999746 538.771658 
Q 240.710683 538.863846 240.485683 539.029471 
L 239.757558 538.531033 
Q 240.046621 538.184158 240.516933 537.991971 
Q 240.988808 537.798221 241.563808 537.798221 
Q 242.195058 537.798221 242.643496 538.021658 
Q 243.093496 538.243533 243.327871 538.665408 
Q 243.562246 539.087283 243.562246 539.684158 
L 243.562246 542.940408 
L 242.613808 542.940408 
L 242.613808 539.727908 
z
M 241.374746 543.013846 
Q 240.437246 543.013846 239.973183 542.626346 
Q 239.509121 542.237283 239.509121 541.446658 
Q 239.509121 540.693533 239.934121 540.318533 
Q 240.359121 539.941971 241.218496 539.941971 
L 242.657558 539.941971 
L 242.726308 540.743533 
L 241.223183 540.743533 
Q 240.832558 540.743533 240.638808 540.916971 
Q 240.446621 541.090408 240.446621 541.446658 
Q 240.446621 541.832596 240.702871 542.018533 
Q 240.959121 542.202908 241.480996 542.202908 
Q 242.052871 542.202908 242.332558 542.081033 
Q 242.613808 541.959158 242.613808 541.699783 
L 242.716933 542.412283 
Q 242.585683 542.618533 242.391933 542.749783 
Q 242.199746 542.881033 241.945058 542.946658 
Q 241.691933 543.013846 241.374746 543.013846 
z
M 251.129824 539.868533 
Q 251.129824 539.332596 250.851699 539.040408 
Q 250.573574 538.746658 250.070449 538.746658 
Q 249.606386 538.746658 249.351699 539.029471 
Q 249.098574 539.312283 249.098574 539.829471 
L 248.898574 538.852908 
Q 249.137636 538.349783 249.529824 538.074783 
Q 249.923574 537.798221 250.397011 537.798221 
Q 250.943886 537.798221 251.331386 538.040408 
Q 251.720449 538.282596 251.923574 538.746658 
Q 252.126699 539.209158 252.126699 539.863846 
L 252.126699 542.940408 
L 251.129824 542.940408 
L 251.129824 539.868533 
z
M 245.075136 537.871658 
L 246.072011 537.871658 
L 246.072011 542.940408 
L 245.075136 542.940408 
L 245.075136 537.871658 
z
M 248.103261 539.868533 
Q 248.103261 539.332596 247.839199 539.040408 
Q 247.575136 538.746658 247.092324 538.746658 
Q 246.603261 538.746658 246.337636 539.006033 
Q 246.072011 539.263846 246.072011 539.732596 
L 245.968886 538.756033 
Q 246.203261 538.296658 246.581386 538.048221 
Q 246.959511 537.798221 247.418886 537.798221 
Q 247.951699 537.798221 248.326699 538.040408 
Q 248.703261 538.282596 248.900136 538.746658 
Q 249.098574 539.209158 249.098574 539.863846 
L 249.098574 542.940408 
L 248.103261 542.940408 
L 248.103261 539.868533 
z
M 255.431777 543.013846 
Q 254.981777 543.013846 254.588027 542.926346 
Q 254.195839 542.837283 253.853652 542.662283 
Q 253.513027 542.485721 253.223964 542.223221 
L 253.223964 542.223221 
L 253.816152 541.495096 
L 253.816152 541.495096 
Q 254.225527 541.807596 254.630214 541.963846 
Q 255.036464 542.120096 255.431777 542.120096 
Q 256.022402 542.120096 256.317714 541.937283 
Q 256.613027 541.754471 256.613027 541.387283 
Q 256.613027 541.143533 256.452089 541.021658 
Q 256.291152 540.899783 256.052089 540.859158 
Q 255.813027 540.816971 255.378652 540.782596 
Q 255.339589 540.782596 255.294277 540.781033 
Q 255.250527 540.777908 255.211464 540.771658 
Q 255.192714 540.771658 255.172402 540.770096 
Q 255.153652 540.766971 255.133339 540.766971 
Q 254.641152 540.727908 254.298964 540.623221 
Q 253.956777 540.518533 253.730214 540.231033 
Q 253.503652 539.941971 253.503652 539.404471 
Q 253.503652 538.868533 253.722402 538.512283 
Q 253.942714 538.154471 254.377089 537.976346 
Q 254.811464 537.798221 255.466152 537.798221 
Q 255.861464 537.798221 256.219277 537.871658 
Q 256.578652 537.945096 256.905214 538.088846 
Q 257.233339 538.232596 257.536464 538.452908 
L 257.536464 538.452908 
L 256.934902 539.181033 
L 256.934902 539.181033 
Q 256.555214 538.935721 256.186464 538.813846 
Q 255.817714 538.691971 255.466152 538.691971 
Q 254.958339 538.691971 254.703652 538.865408 
Q 254.450527 539.038846 254.450527 539.385721 
Q 254.450527 539.590408 254.594277 539.693533 
Q 254.738027 539.795096 254.956777 539.829471 
Q 255.177089 539.863846 255.583339 539.888846 
Q 255.613027 539.893533 255.644277 539.893533 
Q 255.675527 539.893533 255.709902 539.898221 
Q 255.723964 539.898221 255.738027 539.898221 
Q 255.753652 539.898221 255.769277 539.902908 
Q 256.300527 539.937283 256.673964 540.045096 
Q 257.047402 540.152908 257.300527 540.470096 
Q 257.555214 540.787283 257.555214 541.387283 
Q 257.555214 541.934158 257.320839 542.293533 
Q 257.086464 542.652908 256.614589 542.834158 
Q 256.144277 543.013846 255.431777 543.013846 
z
M 261.881386 537.871658 
L 262.873574 537.871658 
L 262.873574 542.940408 
L 261.881386 542.940408 
L 261.881386 537.871658 
z
M 259.822011 540.952908 
Q 259.822011 541.485721 260.092324 541.776346 
Q 260.362636 542.066971 260.856386 542.066971 
Q 261.345449 542.066971 261.612636 541.807596 
Q 261.881386 541.548221 261.881386 541.070096 
L 261.950136 542.129471 
Q 261.793886 542.506033 261.442324 542.760721 
Q 261.090761 543.013846 260.578261 543.013846 
Q 259.737636 543.013846 259.281386 542.474783 
Q 258.825136 541.934158 258.825136 540.952908 
L 258.825136 537.871658 
L 259.822011 537.871658 
L 259.822011 540.952908 
z
M 264.38666 537.871658 
L 265.383535 537.871658 
L 265.383535 542.940408 
L 264.38666 542.940408 
L 264.38666 537.871658 
z
M 267.463222 539.868533 
Q 267.463222 539.332596 267.185097 539.040408 
Q 266.906972 538.746658 266.403847 538.746658 
Q 265.914785 538.746658 265.64916 539.006033 
Q 265.383535 539.263846 265.383535 539.732596 
L 265.28041 538.756033 
Q 265.514785 538.296658 265.89291 538.048221 
Q 266.271035 537.798221 266.73041 537.798221 
Q 267.55541 537.798221 268.006972 538.338846 
Q 268.458535 538.877908 268.458535 539.863846 
L 268.458535 542.940408 
L 267.463222 542.940408 
L 267.463222 539.868533 
z
M 271.672597 545.001346 
Q 271.100722 545.001346 270.64916 544.788846 
Q 270.197597 544.576346 269.947597 544.190408 
L 269.947597 544.190408 
L 270.622597 543.579471 
L 270.622597 543.579471 
Q 270.81791 543.848221 271.088222 543.995096 
Q 271.360097 544.141971 271.656972 544.141971 
Q 272.228847 544.141971 272.541347 543.826346 
Q 272.853847 543.512283 272.853847 542.935721 
L 272.853847 537.871658 
L 273.84916 537.871658 
L 273.84916 542.788846 
Q 273.84916 543.487283 273.59291 543.985721 
Q 273.33666 544.484158 272.847597 544.741971 
Q 272.360097 545.001346 271.672597 545.001346 
z
M 271.578847 543.027908 
Q 271.022597 543.027908 270.628847 542.787283 
Q 270.23666 542.545096 270.03041 542.081033 
Q 269.825722 541.616971 269.825722 540.966971 
L 269.825722 539.849783 
Q 269.825722 539.195096 270.025722 538.731033 
Q 270.227285 538.266971 270.610097 538.026346 
Q 270.99291 537.784158 271.53041 537.784158 
Q 271.978847 537.784158 272.352285 538.018533 
Q 272.727285 538.252908 272.95541 538.677908 
L 272.853847 539.712283 
Q 272.853847 539.390408 272.73666 539.160721 
Q 272.619472 538.931033 272.396035 538.812283 
Q 272.17416 538.691971 271.856972 538.691971 
Q 271.364785 538.691971 271.09291 538.999783 
Q 270.822597 539.307596 270.822597 539.863846 
L 270.822597 540.966971 
Q 270.822597 541.520096 271.09291 541.820096 
Q 271.364785 542.120096 271.856972 542.120096 
Q 272.17416 542.120096 272.396035 541.996658 
Q 272.619472 541.871658 272.73666 541.637283 
Q 272.853847 541.402908 272.853847 541.074783 
L 272.922597 542.145096 
Q 272.771035 542.520096 272.425722 542.774783 
Q 272.081972 543.027908 271.578847 543.027908 
z
" style="fill: #ffffff"/>
   </g>
  </g>
 </g>
 <defs>
  <clipPath id="pf464a26355">
   <rect x="144" y="77.76" width="892.8" height="498.96"/>
  </clipPath>
 </defs>
</svg>
