<?xml version="1.0" encoding="utf-8" standalone="no"?>
<!DOCTYPE svg PUBLIC "-//W3C//DTD SVG 1.1//EN"
  "http://www.w3.org/Graphics/SVG/1.1/DTD/svg11.dtd">
<svg xmlns:xlink="http://www.w3.org/1999/xlink" width="1152pt" height="648pt" viewBox="0 0 1152 648" xmlns="http://www.w3.org/2000/svg" version="1.1">
 <metadata>
  <rdf:RDF xmlns:dc="http://purl.org/dc/elements/1.1/" xmlns:cc="http://creativecommons.org/ns#" xmlns:rdf="http://www.w3.org/1999/02/22-rdf-syntax-ns#">
   <cc:Work>
    <dc:type rdf:resource="http://purl.org/dc/dcmitype/StillImage"/>
    <dc:date>2024-03-14T14:55:08.614577</dc:date>
    <dc:format>image/svg+xml</dc:format>
    <dc:creator>
     <cc:Agent>
      <dc:title>Matplotlib v3.8.3, https://matplotlib.org/</dc:title>
     </cc:Agent>
    </dc:creator>
   </cc:Work>
  </rdf:RDF>
 </metadata>
 <defs>
  <style type="text/css">*{stroke-linejoin: round; stroke-linecap: butt}</style>
 </defs>
 <g id="figure_1">
  <g id="patch_1">
   <path d="M 0 648 
L 1152 648 
L 1152 0 
L 0 0 
L 0 648 
z
" style="fill: none"/>
  </g>
  <g id="axes_1">
   <g id="line2d_1">
    <path d="M 212.944 481.887222 
L 215.674505 478.575902 
L 218.40501 475.327641 
L 221.135515 472.14124 
L 223.86602 469.015524 
L 226.596525 465.94934 
L 229.32703 462.941556 
L 232.057535 459.991061 
L 234.78804 457.096767 
L 237.518545 454.257605 
L 240.249051 451.472527 
L 242.979556 448.740505 
L 245.710061 446.06053 
L 248.440566 443.431611 
L 251.171071 440.852778 
L 253.901576 438.323079 
L 256.632081 435.841578 
L 259.362586 433.407359 
L 262.093091 431.019522 
L 264.823596 428.677185 
L 267.554101 426.379483 
L 270.284606 424.125566 
L 273.015111 421.9146 
L 275.745616 419.745769 
L 278.476121 417.618271 
L 281.206626 415.531319 
L 283.937131 413.484141 
L 286.667636 411.475981 
L 289.398141 409.506095 
L 292.128646 407.573756 
L 294.859152 405.678248 
L 297.589657 403.81887 
L 300.320162 401.994935 
L 303.050667 400.205767 
L 305.781172 398.450705 
L 308.511677 396.7291 
L 311.242182 395.040314 
L 313.972687 393.383722 
L 316.703192 391.758711 
L 319.433697 390.16468 
L 322.164202 388.601039 
L 324.894707 387.067209 
L 327.625212 385.562622 
L 330.355717 384.086721 
L 333.086222 382.63896 
L 335.816727 381.218803 
L 338.547232 379.825724 
L 341.277737 378.459207 
L 344.008242 377.118747 
L 346.738747 375.803846 
L 349.469253 374.514018 
L 352.199758 373.248785 
L 354.930263 372.007679 
L 357.660768 370.790239 
L 360.391273 369.596015 
L 363.121778 368.424565 
L 365.852283 367.275455 
L 368.582788 366.148258 
L 371.313293 365.042557 
L 374.043798 363.957944 
L 376.774303 362.894014 
L 379.504808 361.850376 
L 382.235313 360.826641 
L 384.965818 359.822431 
L 387.696323 358.837373 
L 390.426828 357.871103 
L 393.157333 356.923261 
L 395.887838 355.993498 
L 398.618343 355.081468 
L 401.348848 354.186834 
L 404.079354 353.309263 
L 406.809859 352.448431 
L 409.540364 351.604018 
L 412.270869 350.775711 
L 415.001374 349.963204 
L 417.731879 349.166195 
L 420.462384 348.384388 
L 423.192889 347.617495 
L 425.923394 346.86523 
L 428.653899 346.127314 
L 431.384404 345.403475 
L 434.114909 344.693443 
L 436.845414 343.996956 
L 439.575919 343.313755 
L 442.306424 342.643586 
L 445.036929 341.986202 
L 447.767434 341.341358 
L 450.497939 340.708816 
L 453.228444 340.088341 
L 455.958949 339.479702 
L 458.689455 338.882674 
L 461.41996 338.297036 
L 464.150465 337.72257 
L 466.88097 337.159064 
L 469.611475 336.606308 
L 472.34198 336.064097 
L 475.072485 335.53223 
L 477.80299 335.010511 
L 480.533495 334.498744 
L 483.264 333.996742 
" clip-path="url(#p990672d302)" style="fill: none; stroke: #f29130; stroke-width: 3; stroke-linecap: round"/>
   </g>
   <g id="text_1">
    <path d="M 490.709605 334.696435 
L 492.315855 334.696435 
Q 493.101792 334.696435 493.533042 334.288622 
Q 493.965855 333.88081 493.965855 333.138622 
L 493.965855 331.047997 
Q 493.965855 330.30581 493.533042 329.897997 
Q 493.101792 329.490185 492.315855 329.490185 
L 490.709605 329.490185 
L 490.709605 328.54331 
L 492.286167 328.54331 
Q 493.140855 328.54331 493.745542 328.841747 
Q 494.351792 329.138622 494.66898 329.710497 
Q 494.986167 330.282372 494.986167 331.08706 
L 494.986167 333.09956 
Q 494.986167 333.904247 494.66898 334.476122 
Q 494.351792 335.047997 493.74398 335.346435 
Q 493.136167 335.64331 492.28148 335.64331 
L 490.709605 335.64331 
L 490.709605 334.696435 
z
M 490.036167 328.54331 
L 491.03148 328.54331 
L 491.03148 335.64331 
L 490.036167 335.64331 
L 490.036167 328.54331 
z
M 498.53148 335.716747 
Q 497.88773 335.716747 497.398667 335.472997 
Q 496.911167 335.227685 496.64398 334.78081 
Q 496.378355 334.333935 496.378355 333.74331 
L 496.378355 333.626122 
Q 496.378355 333.094872 496.64398 332.626122 
Q 496.911167 332.157372 497.354917 331.91831 
Q 496.978355 331.71206 496.751792 331.32456 
Q 496.52523 330.935497 496.52523 330.50581 
L 496.52523 330.335497 
Q 496.52523 329.779247 496.773667 329.357372 
Q 497.022105 328.933935 497.476792 328.702685 
Q 497.93148 328.469872 498.53148 328.469872 
Q 499.13148 328.469872 499.586167 328.702685 
Q 500.040855 328.933935 500.289292 329.357372 
Q 500.53773 329.779247 500.53773 330.335497 
L 500.53773 330.50581 
Q 500.53773 330.946435 500.30648 331.332372 
Q 500.07523 331.716747 499.69398 331.91831 
Q 500.142417 332.16206 500.41273 332.629247 
Q 500.684605 333.094872 500.684605 333.626122 
L 500.684605 333.74331 
Q 500.684605 334.333935 500.41898 334.78081 
Q 500.153355 335.227685 499.664292 335.472997 
Q 499.176792 335.716747 498.53148 335.716747 
z
M 498.53148 334.758935 
Q 498.878355 334.758935 499.140855 334.622997 
Q 499.404918 334.485497 499.548667 334.240185 
Q 499.69398 333.99331 499.69398 333.669872 
L 499.69398 333.602685 
Q 499.69398 333.27456 499.548667 333.029247 
Q 499.404918 332.782372 499.140855 332.646435 
Q 498.878355 332.508935 498.53148 332.508935 
Q 498.184605 332.508935 497.920543 332.646435 
Q 497.658042 332.782372 497.51273 333.03081 
Q 497.36898 333.279247 497.36898 333.607372 
L 497.36898 333.68081 
Q 497.36898 334.002685 497.51273 334.246435 
Q 497.658042 334.490185 497.920543 334.62456 
Q 498.184605 334.758935 498.53148 334.758935 
z
M 498.53148 331.551122 
Q 498.829917 331.551122 499.058042 331.422997 
Q 499.28773 331.29331 499.414292 331.054247 
Q 499.542417 330.813622 499.542417 330.501122 
L 499.542417 330.433935 
Q 499.542417 330.135497 499.414292 329.90581 
Q 499.28773 329.676122 499.058042 329.552685 
Q 498.829917 329.427685 498.53148 329.427685 
Q 498.233043 329.427685 498.003355 329.552685 
Q 497.77523 329.676122 497.647105 329.90581 
Q 497.520542 330.135497 497.520542 330.438622 
L 497.520542 330.51206 
Q 497.520542 330.81831 497.647105 331.05581 
Q 497.77523 331.29331 498.003355 331.422997 
Q 498.233043 331.551122 498.53148 331.551122 
z
M 501.96898 334.779247 
L 504.44398 331.477685 
Q 504.659605 331.194872 504.778355 330.890185 
Q 504.898667 330.583935 504.898667 330.321435 
L 504.898667 330.310497 
Q 504.898667 329.88706 504.648667 329.652685 
Q 504.40023 329.41831 503.942417 329.41831 
Q 503.50648 329.41831 503.23773 329.67456 
Q 502.970542 329.93081 502.911167 330.39956 
L 502.911167 330.404247 
L 501.88148 330.404247 
L 501.88148 330.39956 
Q 501.96898 329.788622 502.239292 329.357372 
Q 502.511167 328.92456 502.940855 328.697997 
Q 503.370542 328.469872 503.93148 328.469872 
Q 504.567417 328.469872 505.015855 328.68706 
Q 505.465855 328.904247 505.70023 329.319872 
Q 505.934605 329.735497 505.934605 330.321435 
L 505.934605 330.326122 
Q 505.934605 330.701122 505.778355 331.11206 
Q 505.622105 331.521435 505.342418 331.902685 
L 503.28773 334.696435 
L 505.973667 334.696435 
L 505.973667 335.64331 
L 501.96898 335.64331 
L 501.96898 334.779247 
z
M 509.269371 335.716747 
Q 508.272496 335.716747 507.756871 335.185497 
Q 507.242808 334.652685 507.242808 333.69956 
L 507.242808 330.472997 
Q 507.242808 329.515185 507.759996 328.985497 
Q 508.277183 328.45581 509.269371 328.45581 
Q 510.264683 328.45581 510.780308 328.983935 
Q 511.295933 329.510497 511.295933 330.472997 
L 511.295933 333.69956 
Q 511.295933 334.657372 510.777183 335.18706 
Q 510.259996 335.716747 509.269371 335.716747 
z
M 509.269371 334.769872 
Q 509.795933 334.769872 510.047496 334.49331 
Q 510.299058 334.216747 510.299058 333.69956 
L 510.299058 330.472997 
Q 510.299058 329.954247 510.049058 329.679247 
Q 509.800621 329.402685 509.269371 329.402685 
Q 508.736558 329.402685 508.486558 329.679247 
Q 508.238121 329.954247 508.238121 330.472997 
L 508.238121 333.69956 
Q 508.238121 334.216747 508.489683 334.49331 
Q 508.741246 334.769872 509.269371 334.769872 
z
M 514.786949 335.716747 
Q 513.790074 335.716747 513.274449 335.185497 
Q 512.760386 334.652685 512.760386 333.69956 
L 512.760386 330.472997 
Q 512.760386 329.515185 513.277574 328.985497 
Q 513.794761 328.45581 514.786949 328.45581 
Q 515.782261 328.45581 516.297886 328.983935 
Q 516.813511 329.510497 516.813511 330.472997 
L 516.813511 333.69956 
Q 516.813511 334.657372 516.294761 335.18706 
Q 515.777574 335.716747 514.786949 335.716747 
z
M 514.786949 334.769872 
Q 515.313511 334.769872 515.565074 334.49331 
Q 515.816636 334.216747 515.816636 333.69956 
L 515.816636 330.472997 
Q 515.816636 329.954247 515.566636 329.679247 
Q 515.318199 329.402685 514.786949 329.402685 
Q 514.254136 329.402685 514.004136 329.679247 
Q 513.755699 329.954247 513.755699 330.472997 
L 513.755699 333.69956 
Q 513.755699 334.216747 514.007261 334.49331 
Q 514.258824 334.769872 514.786949 334.769872 
z
" style="fill: #ffffff; stroke: #000000"/>
    <path d="M 490.709605 334.696435 
L 492.315855 334.696435 
Q 493.101792 334.696435 493.533042 334.288622 
Q 493.965855 333.88081 493.965855 333.138622 
L 493.965855 331.047997 
Q 493.965855 330.30581 493.533042 329.897997 
Q 493.101792 329.490185 492.315855 329.490185 
L 490.709605 329.490185 
L 490.709605 328.54331 
L 492.286167 328.54331 
Q 493.140855 328.54331 493.745542 328.841747 
Q 494.351792 329.138622 494.66898 329.710497 
Q 494.986167 330.282372 494.986167 331.08706 
L 494.986167 333.09956 
Q 494.986167 333.904247 494.66898 334.476122 
Q 494.351792 335.047997 493.74398 335.346435 
Q 493.136167 335.64331 492.28148 335.64331 
L 490.709605 335.64331 
L 490.709605 334.696435 
z
M 490.036167 328.54331 
L 491.03148 328.54331 
L 491.03148 335.64331 
L 490.036167 335.64331 
L 490.036167 328.54331 
z
M 498.53148 335.716747 
Q 497.88773 335.716747 497.398667 335.472997 
Q 496.911167 335.227685 496.64398 334.78081 
Q 496.378355 334.333935 496.378355 333.74331 
L 496.378355 333.626122 
Q 496.378355 333.094872 496.64398 332.626122 
Q 496.911167 332.157372 497.354917 331.91831 
Q 496.978355 331.71206 496.751792 331.32456 
Q 496.52523 330.935497 496.52523 330.50581 
L 496.52523 330.335497 
Q 496.52523 329.779247 496.773667 329.357372 
Q 497.022105 328.933935 497.476792 328.702685 
Q 497.93148 328.469872 498.53148 328.469872 
Q 499.13148 328.469872 499.586167 328.702685 
Q 500.040855 328.933935 500.289292 329.357372 
Q 500.53773 329.779247 500.53773 330.335497 
L 500.53773 330.50581 
Q 500.53773 330.946435 500.30648 331.332372 
Q 500.07523 331.716747 499.69398 331.91831 
Q 500.142417 332.16206 500.41273 332.629247 
Q 500.684605 333.094872 500.684605 333.626122 
L 500.684605 333.74331 
Q 500.684605 334.333935 500.41898 334.78081 
Q 500.153355 335.227685 499.664292 335.472997 
Q 499.176792 335.716747 498.53148 335.716747 
z
M 498.53148 334.758935 
Q 498.878355 334.758935 499.140855 334.622997 
Q 499.404918 334.485497 499.548667 334.240185 
Q 499.69398 333.99331 499.69398 333.669872 
L 499.69398 333.602685 
Q 499.69398 333.27456 499.548667 333.029247 
Q 499.404918 332.782372 499.140855 332.646435 
Q 498.878355 332.508935 498.53148 332.508935 
Q 498.184605 332.508935 497.920543 332.646435 
Q 497.658042 332.782372 497.51273 333.03081 
Q 497.36898 333.279247 497.36898 333.607372 
L 497.36898 333.68081 
Q 497.36898 334.002685 497.51273 334.246435 
Q 497.658042 334.490185 497.920543 334.62456 
Q 498.184605 334.758935 498.53148 334.758935 
z
M 498.53148 331.551122 
Q 498.829917 331.551122 499.058042 331.422997 
Q 499.28773 331.29331 499.414292 331.054247 
Q 499.542417 330.813622 499.542417 330.501122 
L 499.542417 330.433935 
Q 499.542417 330.135497 499.414292 329.90581 
Q 499.28773 329.676122 499.058042 329.552685 
Q 498.829917 329.427685 498.53148 329.427685 
Q 498.233043 329.427685 498.003355 329.552685 
Q 497.77523 329.676122 497.647105 329.90581 
Q 497.520542 330.135497 497.520542 330.438622 
L 497.520542 330.51206 
Q 497.520542 330.81831 497.647105 331.05581 
Q 497.77523 331.29331 498.003355 331.422997 
Q 498.233043 331.551122 498.53148 331.551122 
z
M 501.96898 334.779247 
L 504.44398 331.477685 
Q 504.659605 331.194872 504.778355 330.890185 
Q 504.898667 330.583935 504.898667 330.321435 
L 504.898667 330.310497 
Q 504.898667 329.88706 504.648667 329.652685 
Q 504.40023 329.41831 503.942417 329.41831 
Q 503.50648 329.41831 503.23773 329.67456 
Q 502.970542 329.93081 502.911167 330.39956 
L 502.911167 330.404247 
L 501.88148 330.404247 
L 501.88148 330.39956 
Q 501.96898 329.788622 502.239292 329.357372 
Q 502.511167 328.92456 502.940855 328.697997 
Q 503.370542 328.469872 503.93148 328.469872 
Q 504.567417 328.469872 505.015855 328.68706 
Q 505.465855 328.904247 505.70023 329.319872 
Q 505.934605 329.735497 505.934605 330.321435 
L 505.934605 330.326122 
Q 505.934605 330.701122 505.778355 331.11206 
Q 505.622105 331.521435 505.342418 331.902685 
L 503.28773 334.696435 
L 505.973667 334.696435 
L 505.973667 335.64331 
L 501.96898 335.64331 
L 501.96898 334.779247 
z
M 509.269371 335.716747 
Q 508.272496 335.716747 507.756871 335.185497 
Q 507.242808 334.652685 507.242808 333.69956 
L 507.242808 330.472997 
Q 507.242808 329.515185 507.759996 328.985497 
Q 508.277183 328.45581 509.269371 328.45581 
Q 510.264683 328.45581 510.780308 328.983935 
Q 511.295933 329.510497 511.295933 330.472997 
L 511.295933 333.69956 
Q 511.295933 334.657372 510.777183 335.18706 
Q 510.259996 335.716747 509.269371 335.716747 
z
M 509.269371 334.769872 
Q 509.795933 334.769872 510.047496 334.49331 
Q 510.299058 334.216747 510.299058 333.69956 
L 510.299058 330.472997 
Q 510.299058 329.954247 510.049058 329.679247 
Q 509.800621 329.402685 509.269371 329.402685 
Q 508.736558 329.402685 508.486558 329.679247 
Q 508.238121 329.954247 508.238121 330.472997 
L 508.238121 333.69956 
Q 508.238121 334.216747 508.489683 334.49331 
Q 508.741246 334.769872 509.269371 334.769872 
z
M 514.786949 335.716747 
Q 513.790074 335.716747 513.274449 335.185497 
Q 512.760386 334.652685 512.760386 333.69956 
L 512.760386 330.472997 
Q 512.760386 329.515185 513.277574 328.985497 
Q 513.794761 328.45581 514.786949 328.45581 
Q 515.782261 328.45581 516.297886 328.983935 
Q 516.813511 329.510497 516.813511 330.472997 
L 516.813511 333.69956 
Q 516.813511 334.657372 516.294761 335.18706 
Q 515.777574 335.716747 514.786949 335.716747 
z
M 514.786949 334.769872 
Q 515.313511 334.769872 515.565074 334.49331 
Q 515.816636 334.216747 515.816636 333.69956 
L 515.816636 330.472997 
Q 515.816636 329.954247 515.566636 329.679247 
Q 515.318199 329.402685 514.786949 329.402685 
Q 514.254136 329.402685 514.004136 329.679247 
Q 513.755699 329.954247 513.755699 330.472997 
L 513.755699 333.69956 
Q 513.755699 334.216747 514.007261 334.49331 
Q 514.258824 334.769872 514.786949 334.769872 
z
" style="fill: #ffffff"/>
   </g>
  </g>
 </g>
 <defs>
  <clipPath id="p990672d302">
   <rect x="144" y="77.76" width="892.8" height="498.96"/>
  </clipPath>
 </defs>
</svg>
