<?xml version="1.0" encoding="utf-8" standalone="no"?>
<!DOCTYPE svg PUBLIC "-//W3C//DTD SVG 1.1//EN"
  "http://www.w3.org/Graphics/SVG/1.1/DTD/svg11.dtd">
<svg xmlns:xlink="http://www.w3.org/1999/xlink" width="1152pt" height="648pt" viewBox="0 0 1152 648" xmlns="http://www.w3.org/2000/svg" version="1.1">
 <metadata>
  <rdf:RDF xmlns:dc="http://purl.org/dc/elements/1.1/" xmlns:cc="http://creativecommons.org/ns#" xmlns:rdf="http://www.w3.org/1999/02/22-rdf-syntax-ns#">
   <cc:Work>
    <dc:type rdf:resource="http://purl.org/dc/dcmitype/StillImage"/>
    <dc:date>2024-04-29T10:35:42.245224</dc:date>
    <dc:format>image/svg+xml</dc:format>
    <dc:creator>
     <cc:Agent>
      <dc:title>Matplotlib v3.8.4, https://matplotlib.org/</dc:title>
     </cc:Agent>
    </dc:creator>
   </cc:Work>
  </rdf:RDF>
 </metadata>
 <defs>
  <style type="text/css">*{stroke-linejoin: round; stroke-linecap: butt}</style>
 </defs>
 <g id="figure_1">
  <g id="patch_1">
   <path d="M 0 648 
L 1152 648 
L 1152 0 
L 0 0 
L 0 648 
z
" style="fill: none"/>
  </g>
  <g id="axes_1">
   <g id="line2d_1">
    <path d="M 221.872 554.082809 
L 224.296889 553.631087 
L 226.721778 553.179652 
L 229.146667 552.728695 
L 231.571556 552.278407 
L 233.996444 551.828978 
L 236.421333 551.380595 
L 238.846222 550.933444 
L 241.271111 550.48771 
L 243.696 550.043574 
L 246.120889 549.601215 
L 248.545778 549.16081 
L 250.970667 548.72253 
L 253.395556 548.286547 
L 255.820444 547.853025 
L 258.245333 547.422126 
L 260.670222 546.994008 
L 263.095111 546.568825 
L 265.52 546.146724 
L 267.944889 545.72785 
L 270.369778 545.312342 
L 272.794667 544.900334 
L 275.219556 544.491954 
L 277.644444 544.087327 
L 280.069333 543.68657 
L 282.494222 543.289795 
L 284.919111 542.89711 
L 287.344 542.508616 
L 289.768889 542.124408 
L 292.193778 541.744577 
L 294.618667 541.369207 
L 297.043556 540.998377 
L 299.468444 540.632158 
L 301.893333 540.270619 
L 304.318222 539.913821 
L 306.743111 539.56182 
L 309.168 539.214666 
L 311.592889 538.872404 
L 314.017778 538.535075 
L 316.442667 538.202712 
L 318.867556 537.875344 
L 321.292444 537.552996 
L 323.717333 537.235687 
L 326.142222 536.923432 
L 328.567111 536.616239 
L 330.992 536.314115 
L 333.416889 536.017061 
L 335.841778 535.725071 
L 338.266667 535.43814 
L 340.691556 535.156256 
L 343.116444 534.879402 
L 345.541333 534.607561 
L 347.966222 534.34071 
L 350.391111 534.078822 
L 352.816 533.821869 
L 355.240889 533.569819 
L 357.665778 533.322636 
L 360.090667 533.080284 
L 362.515556 532.842721 
L 364.940444 532.609906 
L 367.365333 532.381793 
L 369.790222 532.158335 
L 372.215111 531.939483 
L 374.64 531.725187 
L 377.064889 531.515394 
L 379.489778 531.31005 
L 381.914667 531.109098 
L 384.339556 530.912484 
L 386.764444 530.720147 
L 389.189333 530.53203 
L 391.614222 530.348073 
L 394.039111 530.168214 
L 396.464 529.992391 
L 398.888889 529.820544 
L 401.313778 529.652609 
L 403.738667 529.488522 
L 406.163556 529.328221 
L 408.588444 529.171641 
L 411.013333 529.01872 
L 413.438222 528.869392 
L 415.863111 528.723594 
L 418.288 528.581262 
L 420.712889 528.442332 
L 423.137778 528.306741 
L 425.562667 528.174425 
L 427.987556 528.045321 
L 430.412444 527.919366 
L 432.837333 527.796499 
L 435.262222 527.676657 
L 437.687111 527.559779 
L 440.112 527.445804 
L 442.536889 527.334673 
L 444.961778 527.226325 
L 447.386667 527.120701 
L 449.811556 527.017744 
L 452.236444 526.917395 
L 454.661333 526.819598 
L 457.086222 526.724297 
L 459.511111 526.631436 
L 461.936 526.540961 
" clip-path="url(#p582bcda745)" style="fill: none; stroke: #9130f2; stroke-width: 3; stroke-linecap: round"/>
   </g>
   <g id="text_1">
    <path d="M 470.84098 528.260966 
Q 470.32848 528.260966 469.869105 528.164091 
Q 469.411292 528.065654 469.012855 527.870341 
Q 468.614417 527.675029 468.267542 527.381279 
L 468.267542 527.381279 
L 468.887855 526.620341 
L 468.887855 526.620341 
Q 469.294105 526.971904 469.781605 527.148466 
Q 470.270667 527.323466 470.84098 527.323466 
Q 471.612855 527.323466 472.037855 527.037529 
Q 472.462855 526.751591 472.462855 526.229716 
L 472.462855 526.225029 
Q 472.462855 525.853154 472.269105 525.635966 
Q 472.076917 525.418779 471.770667 525.314091 
Q 471.46598 525.209404 470.983167 525.120341 
Q 470.967542 525.115654 470.950355 525.115654 
Q 470.93473 525.115654 470.919105 525.110966 
L 470.845667 525.096904 
Q 470.133167 524.975029 469.686292 524.821904 
Q 469.239417 524.667216 468.92223 524.259404 
Q 468.605042 523.851591 468.605042 523.100029 
L 468.605042 523.095341 
Q 468.605042 522.435966 468.900355 521.970341 
Q 469.195667 521.503154 469.761292 521.259404 
Q 470.32848 521.014091 471.123792 521.014091 
Q 471.505042 521.014091 471.873792 521.098466 
Q 472.242542 521.181279 472.600355 521.345341 
Q 472.95973 521.507841 473.306605 521.756279 
L 473.306605 521.756279 
L 472.74098 522.548466 
L 472.74098 522.548466 
Q 472.33473 522.250029 471.931605 522.101591 
Q 471.530042 521.951591 471.123792 521.951591 
Q 470.39723 521.951591 469.994105 522.242216 
Q 469.59098 522.532841 469.59098 523.065654 
L 469.59098 523.070341 
Q 469.59098 523.435966 469.798792 523.646904 
Q 470.006605 523.856279 470.31598 523.956279 
Q 470.626917 524.056279 471.17848 524.164091 
Q 471.19723 524.168779 471.214417 524.171904 
Q 471.231605 524.173466 471.251917 524.178154 
Q 471.275355 524.182841 471.305042 524.189091 
Q 471.33473 524.193779 471.358167 524.198466 
Q 472.00348 524.329716 472.43473 524.510966 
Q 472.867542 524.690654 473.158167 525.093779 
Q 473.448792 525.496904 473.448792 526.195341 
L 473.448792 526.204716 
Q 473.448792 526.854716 473.14098 527.315654 
Q 472.833167 527.776591 472.248792 528.018779 
Q 471.66598 528.260966 470.84098 528.260966 
z
M 475.538832 527.240654 
L 477.145082 527.240654 
Q 477.931019 527.240654 478.362269 526.832841 
Q 478.795082 526.425029 478.795082 525.682841 
L 478.795082 523.592216 
Q 478.795082 522.850029 478.362269 522.442216 
Q 477.931019 522.034404 477.145082 522.034404 
L 475.538832 522.034404 
L 475.538832 521.087529 
L 477.115394 521.087529 
Q 477.970082 521.087529 478.574769 521.385966 
Q 479.181019 521.682841 479.498207 522.254716 
Q 479.815394 522.826591 479.815394 523.631279 
L 479.815394 525.643779 
Q 479.815394 526.448466 479.498207 527.020341 
Q 479.181019 527.592216 478.573207 527.890654 
Q 477.965394 528.187529 477.110707 528.187529 
L 475.538832 528.187529 
L 475.538832 527.240654 
z
M 474.865394 521.087529 
L 475.860707 521.087529 
L 475.860707 528.187529 
L 474.865394 528.187529 
L 474.865394 521.087529 
z
M 483.360707 528.260966 
Q 482.716957 528.260966 482.227894 528.017216 
Q 481.740394 527.771904 481.473207 527.325029 
Q 481.207582 526.878154 481.207582 526.287529 
L 481.207582 526.170341 
Q 481.207582 525.639091 481.473207 525.170341 
Q 481.740394 524.701591 482.184144 524.462529 
Q 481.807582 524.256279 481.581019 523.868779 
Q 481.354457 523.479716 481.354457 523.050029 
L 481.354457 522.879716 
Q 481.354457 522.323466 481.602894 521.901591 
Q 481.851332 521.478154 482.306019 521.246904 
Q 482.760707 521.014091 483.360707 521.014091 
Q 483.960707 521.014091 484.415394 521.246904 
Q 484.870082 521.478154 485.118519 521.901591 
Q 485.366957 522.323466 485.366957 522.879716 
L 485.366957 523.050029 
Q 485.366957 523.490654 485.135707 523.876591 
Q 484.904457 524.260966 484.523207 524.462529 
Q 484.971644 524.706279 485.241957 525.173466 
Q 485.513832 525.639091 485.513832 526.170341 
L 485.513832 526.287529 
Q 485.513832 526.878154 485.248207 527.325029 
Q 484.982582 527.771904 484.493519 528.017216 
Q 484.006019 528.260966 483.360707 528.260966 
z
M 483.360707 527.303154 
Q 483.707582 527.303154 483.970082 527.167216 
Q 484.234144 527.029716 484.377894 526.784404 
Q 484.523207 526.537529 484.523207 526.214091 
L 484.523207 526.146904 
Q 484.523207 525.818779 484.377894 525.573466 
Q 484.234144 525.326591 483.970082 525.190654 
Q 483.707582 525.053154 483.360707 525.053154 
Q 483.013832 525.053154 482.749769 525.190654 
Q 482.487269 525.326591 482.341957 525.575029 
Q 482.198207 525.823466 482.198207 526.151591 
L 482.198207 526.225029 
Q 482.198207 526.546904 482.341957 526.790654 
Q 482.487269 527.034404 482.749769 527.168779 
Q 483.013832 527.303154 483.360707 527.303154 
z
M 483.360707 524.095341 
Q 483.659144 524.095341 483.887269 523.967216 
Q 484.116957 523.837529 484.243519 523.598466 
Q 484.371644 523.357841 484.371644 523.045341 
L 484.371644 522.978154 
Q 484.371644 522.679716 484.243519 522.450029 
Q 484.116957 522.220341 483.887269 522.096904 
Q 483.659144 521.971904 483.360707 521.971904 
Q 483.062269 521.971904 482.832582 522.096904 
Q 482.604457 522.220341 482.476332 522.450029 
Q 482.349769 522.679716 482.349769 522.982841 
L 482.349769 523.056279 
Q 482.349769 523.362529 482.476332 523.600029 
Q 482.604457 523.837529 482.832582 523.967216 
Q 483.062269 524.095341 483.360707 524.095341 
z
M 488.932582 528.260966 
Q 487.935707 528.260966 487.420082 527.729716 
Q 486.906019 527.196904 486.906019 526.243779 
L 486.906019 523.017216 
Q 486.906019 522.059404 487.423207 521.529716 
Q 487.940394 521.000029 488.932582 521.000029 
Q 489.927894 521.000029 490.443519 521.528154 
Q 490.959144 522.054716 490.959144 523.017216 
L 490.959144 526.243779 
Q 490.959144 527.201591 490.440394 527.731279 
Q 489.923207 528.260966 488.932582 528.260966 
z
M 488.932582 527.314091 
Q 489.459144 527.314091 489.710707 527.037529 
Q 489.962269 526.760966 489.962269 526.243779 
L 489.962269 523.017216 
Q 489.962269 522.498466 489.712269 522.223466 
Q 489.463832 521.946904 488.932582 521.946904 
Q 488.399769 521.946904 488.149769 522.223466 
Q 487.901332 522.498466 487.901332 523.017216 
L 487.901332 526.243779 
Q 487.901332 526.760966 488.152894 527.037529 
Q 488.404457 527.314091 488.932582 527.314091 
z
M 494.503285 528.260966 
Q 493.859535 528.260966 493.370472 528.017216 
Q 492.882972 527.771904 492.615785 527.325029 
Q 492.35016 526.878154 492.35016 526.287529 
L 492.35016 526.170341 
Q 492.35016 525.639091 492.615785 525.170341 
Q 492.882972 524.701591 493.326722 524.462529 
Q 492.95016 524.256279 492.723597 523.868779 
Q 492.497035 523.479716 492.497035 523.050029 
L 492.497035 522.879716 
Q 492.497035 522.323466 492.745472 521.901591 
Q 492.99391 521.478154 493.448597 521.246904 
Q 493.903285 521.014091 494.503285 521.014091 
Q 495.103285 521.014091 495.557972 521.246904 
Q 496.01266 521.478154 496.261097 521.901591 
Q 496.509535 522.323466 496.509535 522.879716 
L 496.509535 523.050029 
Q 496.509535 523.490654 496.278285 523.876591 
Q 496.047035 524.260966 495.665785 524.462529 
Q 496.114222 524.706279 496.384535 525.173466 
Q 496.65641 525.639091 496.65641 526.170341 
L 496.65641 526.287529 
Q 496.65641 526.878154 496.390785 527.325029 
Q 496.12516 527.771904 495.636097 528.017216 
Q 495.148597 528.260966 494.503285 528.260966 
z
M 494.503285 527.303154 
Q 494.85016 527.303154 495.11266 527.167216 
Q 495.376722 527.029716 495.520472 526.784404 
Q 495.665785 526.537529 495.665785 526.214091 
L 495.665785 526.146904 
Q 495.665785 525.818779 495.520472 525.573466 
Q 495.376722 525.326591 495.11266 525.190654 
Q 494.85016 525.053154 494.503285 525.053154 
Q 494.15641 525.053154 493.892347 525.190654 
Q 493.629847 525.326591 493.484535 525.575029 
Q 493.340785 525.823466 493.340785 526.151591 
L 493.340785 526.225029 
Q 493.340785 526.546904 493.484535 526.790654 
Q 493.629847 527.034404 493.892347 527.168779 
Q 494.15641 527.303154 494.503285 527.303154 
z
M 494.503285 524.095341 
Q 494.801722 524.095341 495.029847 523.967216 
Q 495.259535 523.837529 495.386097 523.598466 
Q 495.514222 523.357841 495.514222 523.045341 
L 495.514222 522.978154 
Q 495.514222 522.679716 495.386097 522.450029 
Q 495.259535 522.220341 495.029847 522.096904 
Q 494.801722 521.971904 494.503285 521.971904 
Q 494.204847 521.971904 493.97516 522.096904 
Q 493.747035 522.220341 493.61891 522.450029 
Q 493.492347 522.679716 493.492347 522.982841 
L 493.492347 523.056279 
Q 493.492347 523.362529 493.61891 523.600029 
Q 493.747035 523.837529 493.97516 523.967216 
Q 494.204847 524.095341 494.503285 524.095341 
z
" style="fill: #ffffff; stroke: #000000"/>
    <path d="M 470.84098 528.260966 
Q 470.32848 528.260966 469.869105 528.164091 
Q 469.411292 528.065654 469.012855 527.870341 
Q 468.614417 527.675029 468.267542 527.381279 
L 468.267542 527.381279 
L 468.887855 526.620341 
L 468.887855 526.620341 
Q 469.294105 526.971904 469.781605 527.148466 
Q 470.270667 527.323466 470.84098 527.323466 
Q 471.612855 527.323466 472.037855 527.037529 
Q 472.462855 526.751591 472.462855 526.229716 
L 472.462855 526.225029 
Q 472.462855 525.853154 472.269105 525.635966 
Q 472.076917 525.418779 471.770667 525.314091 
Q 471.46598 525.209404 470.983167 525.120341 
Q 470.967542 525.115654 470.950355 525.115654 
Q 470.93473 525.115654 470.919105 525.110966 
L 470.845667 525.096904 
Q 470.133167 524.975029 469.686292 524.821904 
Q 469.239417 524.667216 468.92223 524.259404 
Q 468.605042 523.851591 468.605042 523.100029 
L 468.605042 523.095341 
Q 468.605042 522.435966 468.900355 521.970341 
Q 469.195667 521.503154 469.761292 521.259404 
Q 470.32848 521.014091 471.123792 521.014091 
Q 471.505042 521.014091 471.873792 521.098466 
Q 472.242542 521.181279 472.600355 521.345341 
Q 472.95973 521.507841 473.306605 521.756279 
L 473.306605 521.756279 
L 472.74098 522.548466 
L 472.74098 522.548466 
Q 472.33473 522.250029 471.931605 522.101591 
Q 471.530042 521.951591 471.123792 521.951591 
Q 470.39723 521.951591 469.994105 522.242216 
Q 469.59098 522.532841 469.59098 523.065654 
L 469.59098 523.070341 
Q 469.59098 523.435966 469.798792 523.646904 
Q 470.006605 523.856279 470.31598 523.956279 
Q 470.626917 524.056279 471.17848 524.164091 
Q 471.19723 524.168779 471.214417 524.171904 
Q 471.231605 524.173466 471.251917 524.178154 
Q 471.275355 524.182841 471.305042 524.189091 
Q 471.33473 524.193779 471.358167 524.198466 
Q 472.00348 524.329716 472.43473 524.510966 
Q 472.867542 524.690654 473.158167 525.093779 
Q 473.448792 525.496904 473.448792 526.195341 
L 473.448792 526.204716 
Q 473.448792 526.854716 473.14098 527.315654 
Q 472.833167 527.776591 472.248792 528.018779 
Q 471.66598 528.260966 470.84098 528.260966 
z
M 475.538832 527.240654 
L 477.145082 527.240654 
Q 477.931019 527.240654 478.362269 526.832841 
Q 478.795082 526.425029 478.795082 525.682841 
L 478.795082 523.592216 
Q 478.795082 522.850029 478.362269 522.442216 
Q 477.931019 522.034404 477.145082 522.034404 
L 475.538832 522.034404 
L 475.538832 521.087529 
L 477.115394 521.087529 
Q 477.970082 521.087529 478.574769 521.385966 
Q 479.181019 521.682841 479.498207 522.254716 
Q 479.815394 522.826591 479.815394 523.631279 
L 479.815394 525.643779 
Q 479.815394 526.448466 479.498207 527.020341 
Q 479.181019 527.592216 478.573207 527.890654 
Q 477.965394 528.187529 477.110707 528.187529 
L 475.538832 528.187529 
L 475.538832 527.240654 
z
M 474.865394 521.087529 
L 475.860707 521.087529 
L 475.860707 528.187529 
L 474.865394 528.187529 
L 474.865394 521.087529 
z
M 483.360707 528.260966 
Q 482.716957 528.260966 482.227894 528.017216 
Q 481.740394 527.771904 481.473207 527.325029 
Q 481.207582 526.878154 481.207582 526.287529 
L 481.207582 526.170341 
Q 481.207582 525.639091 481.473207 525.170341 
Q 481.740394 524.701591 482.184144 524.462529 
Q 481.807582 524.256279 481.581019 523.868779 
Q 481.354457 523.479716 481.354457 523.050029 
L 481.354457 522.879716 
Q 481.354457 522.323466 481.602894 521.901591 
Q 481.851332 521.478154 482.306019 521.246904 
Q 482.760707 521.014091 483.360707 521.014091 
Q 483.960707 521.014091 484.415394 521.246904 
Q 484.870082 521.478154 485.118519 521.901591 
Q 485.366957 522.323466 485.366957 522.879716 
L 485.366957 523.050029 
Q 485.366957 523.490654 485.135707 523.876591 
Q 484.904457 524.260966 484.523207 524.462529 
Q 484.971644 524.706279 485.241957 525.173466 
Q 485.513832 525.639091 485.513832 526.170341 
L 485.513832 526.287529 
Q 485.513832 526.878154 485.248207 527.325029 
Q 484.982582 527.771904 484.493519 528.017216 
Q 484.006019 528.260966 483.360707 528.260966 
z
M 483.360707 527.303154 
Q 483.707582 527.303154 483.970082 527.167216 
Q 484.234144 527.029716 484.377894 526.784404 
Q 484.523207 526.537529 484.523207 526.214091 
L 484.523207 526.146904 
Q 484.523207 525.818779 484.377894 525.573466 
Q 484.234144 525.326591 483.970082 525.190654 
Q 483.707582 525.053154 483.360707 525.053154 
Q 483.013832 525.053154 482.749769 525.190654 
Q 482.487269 525.326591 482.341957 525.575029 
Q 482.198207 525.823466 482.198207 526.151591 
L 482.198207 526.225029 
Q 482.198207 526.546904 482.341957 526.790654 
Q 482.487269 527.034404 482.749769 527.168779 
Q 483.013832 527.303154 483.360707 527.303154 
z
M 483.360707 524.095341 
Q 483.659144 524.095341 483.887269 523.967216 
Q 484.116957 523.837529 484.243519 523.598466 
Q 484.371644 523.357841 484.371644 523.045341 
L 484.371644 522.978154 
Q 484.371644 522.679716 484.243519 522.450029 
Q 484.116957 522.220341 483.887269 522.096904 
Q 483.659144 521.971904 483.360707 521.971904 
Q 483.062269 521.971904 482.832582 522.096904 
Q 482.604457 522.220341 482.476332 522.450029 
Q 482.349769 522.679716 482.349769 522.982841 
L 482.349769 523.056279 
Q 482.349769 523.362529 482.476332 523.600029 
Q 482.604457 523.837529 482.832582 523.967216 
Q 483.062269 524.095341 483.360707 524.095341 
z
M 488.932582 528.260966 
Q 487.935707 528.260966 487.420082 527.729716 
Q 486.906019 527.196904 486.906019 526.243779 
L 486.906019 523.017216 
Q 486.906019 522.059404 487.423207 521.529716 
Q 487.940394 521.000029 488.932582 521.000029 
Q 489.927894 521.000029 490.443519 521.528154 
Q 490.959144 522.054716 490.959144 523.017216 
L 490.959144 526.243779 
Q 490.959144 527.201591 490.440394 527.731279 
Q 489.923207 528.260966 488.932582 528.260966 
z
M 488.932582 527.314091 
Q 489.459144 527.314091 489.710707 527.037529 
Q 489.962269 526.760966 489.962269 526.243779 
L 489.962269 523.017216 
Q 489.962269 522.498466 489.712269 522.223466 
Q 489.463832 521.946904 488.932582 521.946904 
Q 488.399769 521.946904 488.149769 522.223466 
Q 487.901332 522.498466 487.901332 523.017216 
L 487.901332 526.243779 
Q 487.901332 526.760966 488.152894 527.037529 
Q 488.404457 527.314091 488.932582 527.314091 
z
M 494.503285 528.260966 
Q 493.859535 528.260966 493.370472 528.017216 
Q 492.882972 527.771904 492.615785 527.325029 
Q 492.35016 526.878154 492.35016 526.287529 
L 492.35016 526.170341 
Q 492.35016 525.639091 492.615785 525.170341 
Q 492.882972 524.701591 493.326722 524.462529 
Q 492.95016 524.256279 492.723597 523.868779 
Q 492.497035 523.479716 492.497035 523.050029 
L 492.497035 522.879716 
Q 492.497035 522.323466 492.745472 521.901591 
Q 492.99391 521.478154 493.448597 521.246904 
Q 493.903285 521.014091 494.503285 521.014091 
Q 495.103285 521.014091 495.557972 521.246904 
Q 496.01266 521.478154 496.261097 521.901591 
Q 496.509535 522.323466 496.509535 522.879716 
L 496.509535 523.050029 
Q 496.509535 523.490654 496.278285 523.876591 
Q 496.047035 524.260966 495.665785 524.462529 
Q 496.114222 524.706279 496.384535 525.173466 
Q 496.65641 525.639091 496.65641 526.170341 
L 496.65641 526.287529 
Q 496.65641 526.878154 496.390785 527.325029 
Q 496.12516 527.771904 495.636097 528.017216 
Q 495.148597 528.260966 494.503285 528.260966 
z
M 494.503285 527.303154 
Q 494.85016 527.303154 495.11266 527.167216 
Q 495.376722 527.029716 495.520472 526.784404 
Q 495.665785 526.537529 495.665785 526.214091 
L 495.665785 526.146904 
Q 495.665785 525.818779 495.520472 525.573466 
Q 495.376722 525.326591 495.11266 525.190654 
Q 494.85016 525.053154 494.503285 525.053154 
Q 494.15641 525.053154 493.892347 525.190654 
Q 493.629847 525.326591 493.484535 525.575029 
Q 493.340785 525.823466 493.340785 526.151591 
L 493.340785 526.225029 
Q 493.340785 526.546904 493.484535 526.790654 
Q 493.629847 527.034404 493.892347 527.168779 
Q 494.15641 527.303154 494.503285 527.303154 
z
M 494.503285 524.095341 
Q 494.801722 524.095341 495.029847 523.967216 
Q 495.259535 523.837529 495.386097 523.598466 
Q 495.514222 523.357841 495.514222 523.045341 
L 495.514222 522.978154 
Q 495.514222 522.679716 495.386097 522.450029 
Q 495.259535 522.220341 495.029847 522.096904 
Q 494.801722 521.971904 494.503285 521.971904 
Q 494.204847 521.971904 493.97516 522.096904 
Q 493.747035 522.220341 493.61891 522.450029 
Q 493.492347 522.679716 493.492347 522.982841 
L 493.492347 523.056279 
Q 493.492347 523.362529 493.61891 523.600029 
Q 493.747035 523.837529 493.97516 523.967216 
Q 494.204847 524.095341 494.503285 524.095341 
z
" style="fill: #ffffff"/>
   </g>
  </g>
 </g>
 <defs>
  <clipPath id="p582bcda745">
   <rect x="144" y="77.76" width="892.8" height="498.96"/>
  </clipPath>
 </defs>
</svg>
