<?xml version="1.0" encoding="utf-8" standalone="no"?>
<!DOCTYPE svg PUBLIC "-//W3C//DTD SVG 1.1//EN"
  "http://www.w3.org/Graphics/SVG/1.1/DTD/svg11.dtd">
<svg xmlns:xlink="http://www.w3.org/1999/xlink" width="1152pt" height="648pt" viewBox="0 0 1152 648" xmlns="http://www.w3.org/2000/svg" version="1.1">
 <metadata>
  <rdf:RDF xmlns:dc="http://purl.org/dc/elements/1.1/" xmlns:cc="http://creativecommons.org/ns#" xmlns:rdf="http://www.w3.org/1999/02/22-rdf-syntax-ns#">
   <cc:Work>
    <dc:type rdf:resource="http://purl.org/dc/dcmitype/StillImage"/>
    <dc:date>2024-03-14T14:55:09.008531</dc:date>
    <dc:format>image/svg+xml</dc:format>
    <dc:creator>
     <cc:Agent>
      <dc:title>Matplotlib v3.8.3, https://matplotlib.org/</dc:title>
     </cc:Agent>
    </dc:creator>
   </cc:Work>
  </rdf:RDF>
 </metadata>
 <defs>
  <style type="text/css">*{stroke-linejoin: round; stroke-linecap: butt}</style>
 </defs>
 <g id="figure_1">
  <g id="patch_1">
   <path d="M 0 648 
L 1152 648 
L 1152 0 
L 0 0 
L 0 648 
z
" style="fill: none"/>
  </g>
  <g id="axes_1">
   <g id="line2d_1">
    <path d="M 240.72 447.283489 
L 243.375354 444.985315 
L 246.030707 442.730721 
L 248.686061 440.51888 
L 251.341414 438.348984 
L 253.996768 436.220237 
L 256.652121 434.13186 
L 259.307475 432.083089 
L 261.962828 430.073172 
L 264.618182 428.101375 
L 267.273535 426.166974 
L 269.928889 424.269262 
L 272.584242 422.407542 
L 275.239596 420.581134 
L 277.894949 418.789367 
L 280.550303 417.031586 
L 283.205657 415.307146 
L 285.86101 413.615416 
L 288.516364 411.955775 
L 291.171717 410.327616 
L 293.827071 408.730342 
L 296.482424 407.163367 
L 299.137778 405.626118 
L 301.793131 404.11803 
L 304.448485 402.638551 
L 307.103838 401.187139 
L 309.759192 399.763262 
L 312.414545 398.366397 
L 315.069899 396.996032 
L 317.725253 395.651666 
L 320.380606 394.332805 
L 323.03596 393.038966 
L 325.691313 391.769674 
L 328.346667 390.524464 
L 331.00202 389.30288 
L 333.657374 388.104472 
L 336.312727 386.928803 
L 338.968081 385.77544 
L 341.623434 384.643961 
L 344.278788 383.533951 
L 346.934141 382.445002 
L 349.589495 381.376716 
L 352.244848 380.3287 
L 354.900202 379.30057 
L 357.555556 378.291949 
L 360.210909 377.302467 
L 362.866263 376.33176 
L 365.521616 375.379474 
L 368.17697 374.445258 
L 370.832323 373.528769 
L 373.487677 372.629672 
L 376.14303 371.747637 
L 378.798384 370.882339 
L 381.453737 370.033462 
L 384.109091 369.200694 
L 386.764444 368.38373 
L 389.419798 367.582269 
L 392.075152 366.796017 
L 394.730505 366.024687 
L 397.385859 365.267995 
L 400.041212 364.525663 
L 402.696566 363.797419 
L 405.351919 363.082996 
L 408.007273 362.382131 
L 410.662626 361.694567 
L 413.31798 361.020052 
L 415.973333 360.358339 
L 418.628687 359.709183 
L 421.28404 359.072349 
L 423.939394 358.4476 
L 426.594747 357.834709 
L 429.250101 357.23345 
L 431.905455 356.643602 
L 434.560808 356.064949 
L 437.216162 355.497279 
L 439.871515 354.940383 
L 442.526869 354.394057 
L 445.182222 353.8581 
L 447.837576 353.332315 
L 450.492929 352.81651 
L 453.148283 352.310495 
L 455.803636 351.814084 
L 458.45899 351.327095 
L 461.114343 350.849349 
L 463.769697 350.380671 
L 466.425051 349.920889 
L 469.080404 349.469834 
L 471.735758 349.02734 
L 474.391111 348.593246 
L 477.046465 348.16739 
L 479.701818 347.749618 
L 482.357172 347.339776 
L 485.012525 346.937713 
L 487.667879 346.543281 
L 490.323232 346.156337 
L 492.978586 345.776737 
L 495.633939 345.404343 
L 498.289293 345.039017 
L 500.944646 344.680625 
L 503.6 344.329037 
" clip-path="url(#p8dbdf6232c)" style="fill: none; stroke: #ff0000; stroke-width: 3; stroke-linecap: round"/>
   </g>
   <g id="text_1">
    <path d="M 511.153417 342.85998 
L 514.287792 338.875605 
L 515.512792 338.875605 
L 511.006542 344.35373 
L 511.153417 342.85998 
z
M 510.372167 338.875605 
L 511.36748 338.875605 
L 511.36748 345.975605 
L 510.372167 345.975605 
L 510.372167 338.875605 
z
M 512.334667 342.186542 
L 513.120605 341.458417 
L 515.81123 345.975605 
L 514.590917 345.975605 
L 512.334667 342.186542 
z
M 519.155371 342.450605 
L 519.150683 342.625605 
Q 519.028808 342.850605 518.781933 342.955292 
Q 518.535058 343.05998 518.199121 343.05998 
Q 517.691308 343.05998 517.305371 342.802167 
Q 516.919433 342.542792 516.706933 342.07248 
Q 516.494433 341.600605 516.494433 340.980292 
L 516.494433 340.975605 
Q 516.494433 340.286542 516.725683 339.799042 
Q 516.958496 339.30998 517.405371 339.056855 
Q 517.852246 338.802167 518.477246 338.802167 
Q 519.102246 338.802167 519.545996 339.061542 
Q 519.991308 339.320917 520.222558 339.814667 
Q 520.453808 340.306855 520.453808 341.000605 
L 520.453808 341.005292 
Q 520.453808 341.38498 520.355371 341.817792 
Q 520.258496 342.250605 520.078808 342.674042 
Q 520.049121 342.738105 520.019433 342.80373 
Q 519.991308 342.869355 519.956933 342.933417 
L 518.442871 345.975605 
L 517.367871 345.975605 
L 519.155371 342.450605 
z
M 518.477246 342.152167 
Q 518.945996 342.152167 519.202246 341.83498 
Q 519.458496 341.517792 519.458496 340.94123 
L 519.458496 340.936542 
Q 519.458496 340.375605 519.202246 340.067792 
Q 518.945996 339.75998 518.477246 339.75998 
Q 518.003808 339.75998 517.747558 340.067792 
Q 517.491308 340.375605 517.491308 340.94123 
L 517.491308 340.945917 
Q 517.491308 341.52248 517.747558 341.838105 
Q 518.003808 342.152167 518.477246 342.152167 
z
M 523.799707 346.049042 
Q 522.802832 346.049042 522.287207 345.517792 
Q 521.773144 344.98498 521.773144 344.031855 
L 521.773144 340.805292 
Q 521.773144 339.84748 522.290332 339.317792 
Q 522.807519 338.788105 523.799707 338.788105 
Q 524.795019 338.788105 525.310644 339.31623 
Q 525.826269 339.842792 525.826269 340.805292 
L 525.826269 344.031855 
Q 525.826269 344.989667 525.307519 345.519355 
Q 524.790332 346.049042 523.799707 346.049042 
z
M 523.799707 345.102167 
Q 524.326269 345.102167 524.577832 344.825605 
Q 524.829394 344.549042 524.829394 344.031855 
L 524.829394 340.805292 
Q 524.829394 340.286542 524.579394 340.011542 
Q 524.330957 339.73498 523.799707 339.73498 
Q 523.266894 339.73498 523.016894 340.011542 
Q 522.768457 340.286542 522.768457 340.805292 
L 522.768457 344.031855 
Q 522.768457 344.549042 523.020019 344.825605 
Q 523.271582 345.102167 523.799707 345.102167 
z
M 529.317285 346.049042 
Q 528.32041 346.049042 527.804785 345.517792 
Q 527.290722 344.98498 527.290722 344.031855 
L 527.290722 340.805292 
Q 527.290722 339.84748 527.80791 339.317792 
Q 528.325097 338.788105 529.317285 338.788105 
Q 530.312597 338.788105 530.828222 339.31623 
Q 531.343847 339.842792 531.343847 340.805292 
L 531.343847 344.031855 
Q 531.343847 344.989667 530.825097 345.519355 
Q 530.30791 346.049042 529.317285 346.049042 
z
M 529.317285 345.102167 
Q 529.843847 345.102167 530.09541 344.825605 
Q 530.346972 344.549042 530.346972 344.031855 
L 530.346972 340.805292 
Q 530.346972 340.286542 530.096972 340.011542 
Q 529.848535 339.73498 529.317285 339.73498 
Q 528.784472 339.73498 528.534472 340.011542 
Q 528.286035 340.286542 528.286035 340.805292 
L 528.286035 344.031855 
Q 528.286035 344.549042 528.537597 344.825605 
Q 528.78916 345.102167 529.317285 345.102167 
z
M 534.834863 346.049042 
Q 533.837988 346.049042 533.322363 345.517792 
Q 532.8083 344.98498 532.8083 344.031855 
L 532.8083 340.805292 
Q 532.8083 339.84748 533.325488 339.317792 
Q 533.842675 338.788105 534.834863 338.788105 
Q 535.830175 338.788105 536.3458 339.31623 
Q 536.861425 339.842792 536.861425 340.805292 
L 536.861425 344.031855 
Q 536.861425 344.989667 536.342675 345.519355 
Q 535.825488 346.049042 534.834863 346.049042 
z
M 534.834863 345.102167 
Q 535.361425 345.102167 535.612988 344.825605 
Q 535.86455 344.549042 535.86455 344.031855 
L 535.86455 340.805292 
Q 535.86455 340.286542 535.61455 340.011542 
Q 535.366113 339.73498 534.834863 339.73498 
Q 534.30205 339.73498 534.05205 340.011542 
Q 533.803613 340.286542 533.803613 340.805292 
L 533.803613 344.031855 
Q 533.803613 344.549042 534.055175 344.825605 
Q 534.306738 345.102167 534.834863 345.102167 
z
" style="fill: #ffffff; stroke: #000000"/>
    <path d="M 511.153417 342.85998 
L 514.287792 338.875605 
L 515.512792 338.875605 
L 511.006542 344.35373 
L 511.153417 342.85998 
z
M 510.372167 338.875605 
L 511.36748 338.875605 
L 511.36748 345.975605 
L 510.372167 345.975605 
L 510.372167 338.875605 
z
M 512.334667 342.186542 
L 513.120605 341.458417 
L 515.81123 345.975605 
L 514.590917 345.975605 
L 512.334667 342.186542 
z
M 519.155371 342.450605 
L 519.150683 342.625605 
Q 519.028808 342.850605 518.781933 342.955292 
Q 518.535058 343.05998 518.199121 343.05998 
Q 517.691308 343.05998 517.305371 342.802167 
Q 516.919433 342.542792 516.706933 342.07248 
Q 516.494433 341.600605 516.494433 340.980292 
L 516.494433 340.975605 
Q 516.494433 340.286542 516.725683 339.799042 
Q 516.958496 339.30998 517.405371 339.056855 
Q 517.852246 338.802167 518.477246 338.802167 
Q 519.102246 338.802167 519.545996 339.061542 
Q 519.991308 339.320917 520.222558 339.814667 
Q 520.453808 340.306855 520.453808 341.000605 
L 520.453808 341.005292 
Q 520.453808 341.38498 520.355371 341.817792 
Q 520.258496 342.250605 520.078808 342.674042 
Q 520.049121 342.738105 520.019433 342.80373 
Q 519.991308 342.869355 519.956933 342.933417 
L 518.442871 345.975605 
L 517.367871 345.975605 
L 519.155371 342.450605 
z
M 518.477246 342.152167 
Q 518.945996 342.152167 519.202246 341.83498 
Q 519.458496 341.517792 519.458496 340.94123 
L 519.458496 340.936542 
Q 519.458496 340.375605 519.202246 340.067792 
Q 518.945996 339.75998 518.477246 339.75998 
Q 518.003808 339.75998 517.747558 340.067792 
Q 517.491308 340.375605 517.491308 340.94123 
L 517.491308 340.945917 
Q 517.491308 341.52248 517.747558 341.838105 
Q 518.003808 342.152167 518.477246 342.152167 
z
M 523.799707 346.049042 
Q 522.802832 346.049042 522.287207 345.517792 
Q 521.773144 344.98498 521.773144 344.031855 
L 521.773144 340.805292 
Q 521.773144 339.84748 522.290332 339.317792 
Q 522.807519 338.788105 523.799707 338.788105 
Q 524.795019 338.788105 525.310644 339.31623 
Q 525.826269 339.842792 525.826269 340.805292 
L 525.826269 344.031855 
Q 525.826269 344.989667 525.307519 345.519355 
Q 524.790332 346.049042 523.799707 346.049042 
z
M 523.799707 345.102167 
Q 524.326269 345.102167 524.577832 344.825605 
Q 524.829394 344.549042 524.829394 344.031855 
L 524.829394 340.805292 
Q 524.829394 340.286542 524.579394 340.011542 
Q 524.330957 339.73498 523.799707 339.73498 
Q 523.266894 339.73498 523.016894 340.011542 
Q 522.768457 340.286542 522.768457 340.805292 
L 522.768457 344.031855 
Q 522.768457 344.549042 523.020019 344.825605 
Q 523.271582 345.102167 523.799707 345.102167 
z
M 529.317285 346.049042 
Q 528.32041 346.049042 527.804785 345.517792 
Q 527.290722 344.98498 527.290722 344.031855 
L 527.290722 340.805292 
Q 527.290722 339.84748 527.80791 339.317792 
Q 528.325097 338.788105 529.317285 338.788105 
Q 530.312597 338.788105 530.828222 339.31623 
Q 531.343847 339.842792 531.343847 340.805292 
L 531.343847 344.031855 
Q 531.343847 344.989667 530.825097 345.519355 
Q 530.30791 346.049042 529.317285 346.049042 
z
M 529.317285 345.102167 
Q 529.843847 345.102167 530.09541 344.825605 
Q 530.346972 344.549042 530.346972 344.031855 
L 530.346972 340.805292 
Q 530.346972 340.286542 530.096972 340.011542 
Q 529.848535 339.73498 529.317285 339.73498 
Q 528.784472 339.73498 528.534472 340.011542 
Q 528.286035 340.286542 528.286035 340.805292 
L 528.286035 344.031855 
Q 528.286035 344.549042 528.537597 344.825605 
Q 528.78916 345.102167 529.317285 345.102167 
z
M 534.834863 346.049042 
Q 533.837988 346.049042 533.322363 345.517792 
Q 532.8083 344.98498 532.8083 344.031855 
L 532.8083 340.805292 
Q 532.8083 339.84748 533.325488 339.317792 
Q 533.842675 338.788105 534.834863 338.788105 
Q 535.830175 338.788105 536.3458 339.31623 
Q 536.861425 339.842792 536.861425 340.805292 
L 536.861425 344.031855 
Q 536.861425 344.989667 536.342675 345.519355 
Q 535.825488 346.049042 534.834863 346.049042 
z
M 534.834863 345.102167 
Q 535.361425 345.102167 535.612988 344.825605 
Q 535.86455 344.549042 535.86455 344.031855 
L 535.86455 340.805292 
Q 535.86455 340.286542 535.61455 340.011542 
Q 535.366113 339.73498 534.834863 339.73498 
Q 534.30205 339.73498 534.05205 340.011542 
Q 533.803613 340.286542 533.803613 340.805292 
L 533.803613 344.031855 
Q 533.803613 344.549042 534.055175 344.825605 
Q 534.306738 345.102167 534.834863 345.102167 
z
" style="fill: #ffffff"/>
   </g>
  </g>
 </g>
 <defs>
  <clipPath id="p8dbdf6232c">
   <rect x="144" y="77.76" width="892.8" height="498.96"/>
  </clipPath>
 </defs>
</svg>
