<?xml version="1.0" encoding="utf-8" standalone="no"?>
<!DOCTYPE svg PUBLIC "-//W3C//DTD SVG 1.1//EN"
  "http://www.w3.org/Graphics/SVG/1.1/DTD/svg11.dtd">
<svg xmlns:xlink="http://www.w3.org/1999/xlink" width="1152pt" height="648pt" viewBox="0 0 1152 648" xmlns="http://www.w3.org/2000/svg" version="1.1">
 <metadata>
  <rdf:RDF xmlns:dc="http://purl.org/dc/elements/1.1/" xmlns:cc="http://creativecommons.org/ns#" xmlns:rdf="http://www.w3.org/1999/02/22-rdf-syntax-ns#">
   <cc:Work>
    <dc:type rdf:resource="http://purl.org/dc/dcmitype/StillImage"/>
    <dc:date>2024-03-14T14:55:07.658355</dc:date>
    <dc:format>image/svg+xml</dc:format>
    <dc:creator>
     <cc:Agent>
      <dc:title>Matplotlib v3.8.3, https://matplotlib.org/</dc:title>
     </cc:Agent>
    </dc:creator>
   </cc:Work>
  </rdf:RDF>
 </metadata>
 <defs>
  <style type="text/css">*{stroke-linejoin: round; stroke-linecap: butt}</style>
 </defs>
 <g id="figure_1">
  <g id="patch_1">
   <path d="M 0 648 
L 1152 648 
L 1152 0 
L 0 0 
L 0 648 
z
" style="fill: none"/>
  </g>
  <g id="axes_1">
   <g id="line2d_1">
    <path d="M 238.736 453.603334 
L 243.460525 448.539924 
L 248.185051 443.591124 
L 252.909576 438.754343 
L 257.634101 434.027049 
L 262.358626 429.406765 
L 267.083152 424.891071 
L 271.807677 420.477602 
L 276.532202 416.164047 
L 281.256727 411.948144 
L 285.981253 407.827687 
L 290.705778 403.800516 
L 295.430303 399.86452 
L 300.154828 396.017638 
L 304.879354 392.257853 
L 309.603879 388.583195 
L 314.328404 384.991738 
L 319.052929 381.481601 
L 323.777455 378.050942 
L 328.50198 374.697964 
L 333.226505 371.420909 
L 337.95103 368.218059 
L 342.675556 365.087735 
L 347.400081 362.028296 
L 352.124606 359.038138 
L 356.849131 356.115693 
L 361.573657 353.259429 
L 366.298182 350.467847 
L 371.022707 347.739484 
L 375.747232 345.072909 
L 380.471758 342.466723 
L 385.196283 339.919561 
L 389.920808 337.430085 
L 394.645333 334.99699 
L 399.369859 332.619 
L 404.094384 330.294867 
L 408.818909 328.023373 
L 413.543434 325.803325 
L 418.26796 323.63356 
L 422.992485 321.512938 
L 427.71701 319.440347 
L 432.441535 317.4147 
L 437.166061 315.434934 
L 441.890586 313.50001 
L 446.615111 311.608913 
L 451.339636 309.760651 
L 456.064162 307.954254 
L 460.788687 306.188773 
L 465.513212 304.463283 
L 470.237737 302.776878 
L 474.962263 301.128673 
L 479.686788 299.517803 
L 484.411313 297.943422 
L 489.135838 296.404705 
L 493.860364 294.900843 
L 498.584889 293.431048 
L 503.309414 291.994548 
L 508.033939 290.590588 
L 512.758465 289.218433 
L 517.48299 287.877362 
L 522.207515 286.56667 
L 526.93204 285.28567 
L 531.656566 284.03369 
L 536.381091 282.810072 
L 541.105616 281.614173 
L 545.830141 280.445367 
L 550.554667 279.303039 
L 555.279192 278.18659 
L 560.003717 277.095433 
L 564.728242 276.028996 
L 569.452768 274.98672 
L 574.177293 273.968055 
L 578.901818 272.972469 
L 583.626343 271.999438 
L 588.350869 271.048451 
L 593.075394 270.119009 
L 597.799919 269.210623 
L 602.524444 268.322818 
L 607.24897 267.455127 
L 611.973495 266.607094 
L 616.69802 265.778273 
L 621.422545 264.968231 
L 626.147071 264.17654 
L 630.871596 263.402787 
L 635.596121 262.646564 
L 640.320646 261.907473 
L 645.045172 261.185129 
L 649.769697 260.479149 
L 654.494222 259.789165 
L 659.218747 259.114814 
L 663.943273 258.455741 
L 668.667798 257.811601 
L 673.392323 257.182054 
L 678.116848 256.566772 
L 682.841374 255.96543 
L 687.565899 255.377712 
L 692.290424 254.803311 
L 697.014949 254.241924 
L 701.739475 253.693256 
L 706.464 253.15702 
" clip-path="url(#pd51e2503f7)" style="fill: none; stroke: #79f2f2; stroke-width: 3; stroke-linecap: round"/>
   </g>
   <g id="text_1">
    <path d="M 715.36898 254.877025 
Q 714.85648 254.877025 714.397105 254.78015 
Q 713.939292 254.681713 713.540855 254.4864 
Q 713.142417 254.291088 712.795542 253.997338 
L 712.795542 253.997338 
L 713.415855 253.2364 
L 713.415855 253.2364 
Q 713.822105 253.587963 714.309605 253.764525 
Q 714.798667 253.939525 715.36898 253.939525 
Q 716.140855 253.939525 716.565855 253.653588 
Q 716.990855 253.36765 716.990855 252.845775 
L 716.990855 252.841088 
Q 716.990855 252.469213 716.797105 252.252025 
Q 716.604917 252.034838 716.298667 251.93015 
Q 715.99398 251.825463 715.511167 251.7364 
Q 715.495542 251.731713 715.478355 251.731713 
Q 715.46273 251.731713 715.447105 251.727025 
L 715.373667 251.712963 
Q 714.661167 251.591088 714.214292 251.437963 
Q 713.767417 251.283275 713.45023 250.875463 
Q 713.133042 250.46765 713.133042 249.716088 
L 713.133042 249.7114 
Q 713.133042 249.052025 713.428355 248.5864 
Q 713.723667 248.119213 714.289292 247.875463 
Q 714.85648 247.63015 715.651792 247.63015 
Q 716.033042 247.63015 716.401792 247.714525 
Q 716.770542 247.797338 717.128355 247.9614 
Q 717.48773 248.1239 717.834605 248.372338 
L 717.834605 248.372338 
L 717.26898 249.164525 
L 717.26898 249.164525 
Q 716.86273 248.866088 716.459605 248.71765 
Q 716.058042 248.56765 715.651792 248.56765 
Q 714.92523 248.56765 714.522105 248.858275 
Q 714.11898 249.1489 714.11898 249.681713 
L 714.11898 249.6864 
Q 714.11898 250.052025 714.326792 250.262963 
Q 714.534605 250.472338 714.84398 250.572338 
Q 715.154917 250.672338 715.70648 250.78015 
Q 715.72523 250.784838 715.742417 250.787963 
Q 715.759605 250.789525 715.779917 250.794213 
Q 715.803355 250.7989 715.833042 250.80515 
Q 715.86273 250.809838 715.886167 250.814525 
Q 716.53148 250.945775 716.96273 251.127025 
Q 717.395542 251.306713 717.686167 251.709838 
Q 717.976792 252.112963 717.976792 252.8114 
L 717.976792 252.820775 
Q 717.976792 253.470775 717.66898 253.931713 
Q 717.361167 254.39265 716.776792 254.634838 
Q 716.19398 254.877025 715.36898 254.877025 
z
M 720.066832 253.856713 
L 721.673082 253.856713 
Q 722.459019 253.856713 722.890269 253.4489 
Q 723.323082 253.041088 723.323082 252.2989 
L 723.323082 250.208275 
Q 723.323082 249.466088 722.890269 249.058275 
Q 722.459019 248.650463 721.673082 248.650463 
L 720.066832 248.650463 
L 720.066832 247.703588 
L 721.643394 247.703588 
Q 722.498082 247.703588 723.102769 248.002025 
Q 723.709019 248.2989 724.026207 248.870775 
Q 724.343394 249.44265 724.343394 250.247338 
L 724.343394 252.259838 
Q 724.343394 253.064525 724.026207 253.6364 
Q 723.709019 254.208275 723.101207 254.506713 
Q 722.493394 254.803588 721.638707 254.803588 
L 720.066832 254.803588 
L 720.066832 253.856713 
z
M 719.393394 247.703588 
L 720.388707 247.703588 
L 720.388707 254.803588 
L 719.393394 254.803588 
L 719.393394 247.703588 
z
M 727.888707 254.877025 
Q 727.244957 254.877025 726.755894 254.633275 
Q 726.268394 254.387963 726.001207 253.941088 
Q 725.735582 253.494213 725.735582 252.903588 
L 725.735582 252.7864 
Q 725.735582 252.25515 726.001207 251.7864 
Q 726.268394 251.31765 726.712144 251.078588 
Q 726.335582 250.872338 726.109019 250.484838 
Q 725.882457 250.095775 725.882457 249.666088 
L 725.882457 249.495775 
Q 725.882457 248.939525 726.130894 248.51765 
Q 726.379332 248.094213 726.834019 247.862963 
Q 727.288707 247.63015 727.888707 247.63015 
Q 728.488707 247.63015 728.943394 247.862963 
Q 729.398082 248.094213 729.646519 248.51765 
Q 729.894957 248.939525 729.894957 249.495775 
L 729.894957 249.666088 
Q 729.894957 250.106713 729.663707 250.49265 
Q 729.432457 250.877025 729.051207 251.078588 
Q 729.499644 251.322338 729.769957 251.789525 
Q 730.041832 252.25515 730.041832 252.7864 
L 730.041832 252.903588 
Q 730.041832 253.494213 729.776207 253.941088 
Q 729.510582 254.387963 729.021519 254.633275 
Q 728.534019 254.877025 727.888707 254.877025 
z
M 727.888707 253.919213 
Q 728.235582 253.919213 728.498082 253.783275 
Q 728.762144 253.645775 728.905894 253.400463 
Q 729.051207 253.153588 729.051207 252.83015 
L 729.051207 252.762963 
Q 729.051207 252.434838 728.905894 252.189525 
Q 728.762144 251.94265 728.498082 251.806713 
Q 728.235582 251.669213 727.888707 251.669213 
Q 727.541832 251.669213 727.277769 251.806713 
Q 727.015269 251.94265 726.869957 252.191088 
Q 726.726207 252.439525 726.726207 252.76765 
L 726.726207 252.841088 
Q 726.726207 253.162963 726.869957 253.406713 
Q 727.015269 253.650463 727.277769 253.784838 
Q 727.541832 253.919213 727.888707 253.919213 
z
M 727.888707 250.7114 
Q 728.187144 250.7114 728.415269 250.583275 
Q 728.644957 250.453588 728.771519 250.214525 
Q 728.899644 249.9739 728.899644 249.6614 
L 728.899644 249.594213 
Q 728.899644 249.295775 728.771519 249.066088 
Q 728.644957 248.8364 728.415269 248.712963 
Q 728.187144 248.587963 727.888707 248.587963 
Q 727.590269 248.587963 727.360582 248.712963 
Q 727.132457 248.8364 727.004332 249.066088 
Q 726.877769 249.295775 726.877769 249.5989 
L 726.877769 249.672338 
Q 726.877769 249.978588 727.004332 250.216088 
Q 727.132457 250.453588 727.360582 250.583275 
Q 727.590269 250.7114 727.888707 250.7114 
z
M 738.143003 250.98015 
L 738.143003 252.220775 
Q 738.143003 253.0114 737.835191 253.614525 
Q 737.527378 254.21765 736.963316 254.547338 
Q 736.399253 254.877025 735.657066 254.877025 
Q 734.905503 254.877025 734.336753 254.56765 
Q 733.768003 254.256713 733.455503 253.691088 
Q 733.143003 253.1239 733.143003 252.377025 
L 733.143003 250.281713 
Q 733.143003 249.491088 733.450816 248.891088 
Q 733.758628 248.289525 734.321128 247.959838 
Q 734.885191 247.63015 735.627378 247.63015 
Q 736.238316 247.63015 736.752378 247.89265 
Q 737.268003 248.153588 737.614878 248.631713 
Q 737.961753 249.109838 738.083628 249.739525 
L 738.083628 249.739525 
L 737.005503 249.739525 
L 737.005503 249.739525 
Q 736.916441 249.383275 736.707066 249.127025 
Q 736.497691 248.870775 736.213316 248.7364 
Q 735.930503 248.602025 735.627378 248.602025 
Q 735.188316 248.602025 734.855503 248.812963 
Q 734.524253 249.022338 734.343003 249.400463 
Q 734.163316 249.778588 734.163316 250.281713 
L 734.163316 252.377025 
Q 734.163316 252.8364 734.347691 253.18015 
Q 734.533628 253.5239 734.872691 253.714525 
Q 735.213316 253.90515 735.657066 253.90515 
Q 736.096128 253.90515 736.427378 253.708275 
Q 736.760191 253.509838 736.941441 253.134838 
Q 737.122691 252.758275 737.122691 252.239525 
L 737.122691 251.931713 
L 735.682066 251.931713 
L 735.682066 250.98015 
L 738.143003 250.98015 
z
M 741.731285 254.877025 
Q 741.02816 254.877025 740.529722 254.612963 
Q 740.032847 254.3489 739.770347 253.839525 
Q 739.50941 253.328588 739.50941 252.606713 
L 739.50941 252.034838 
Q 739.50941 251.283275 739.760972 250.752025 
Q 740.012535 250.219213 740.49066 249.941088 
Q 740.970347 249.6614 741.643785 249.6614 
Q 742.27816 249.6614 742.726597 249.98015 
Q 743.176597 250.297338 743.412535 250.897338 
Q 743.650035 251.497338 743.650035 252.337963 
L 743.650035 252.669213 
L 740.232847 252.669213 
L 740.232847 251.869213 
L 742.70316 251.869213 
L 742.70316 251.869213 
Q 742.65941 251.2489 742.382847 250.90515 
Q 742.107847 250.559838 741.643785 250.559838 
Q 741.076597 250.559838 740.767222 250.931713 
Q 740.457847 251.302025 740.457847 251.981713 
L 740.457847 252.625463 
Q 740.457847 253.25515 740.789097 253.59265 
Q 741.12191 253.93015 741.731285 253.93015 
Q 742.03441 253.93015 742.331285 253.808275 
Q 742.629722 253.684838 742.864097 253.466088 
L 742.864097 253.466088 
L 743.518785 254.119213 
L 743.518785 254.119213 
Q 743.142222 254.481713 742.673472 254.68015 
Q 742.204722 254.877025 741.731285 254.877025 
z
M 745.017613 249.734838 
L 746.014488 249.734838 
L 746.014488 254.803588 
L 745.017613 254.803588 
L 745.017613 249.734838 
z
M 748.094175 251.731713 
Q 748.094175 251.195775 747.81605 250.903588 
Q 747.537925 250.609838 747.0348 250.609838 
Q 746.545738 250.609838 746.280113 250.869213 
Q 746.014488 251.127025 746.014488 251.595775 
L 745.911363 250.619213 
Q 746.145738 250.159838 746.523863 249.9114 
Q 746.901988 249.6614 747.361363 249.6614 
Q 748.186363 249.6614 748.637925 250.202025 
Q 749.089488 250.741088 749.089488 251.727025 
L 749.089488 254.803588 
L 748.094175 254.803588 
L 748.094175 251.731713 
z
M 750.4473 253.939525 
L 752.9223 250.637963 
Q 753.137925 250.35515 753.256675 250.050463 
Q 753.376988 249.744213 753.376988 249.481713 
L 753.376988 249.470775 
Q 753.376988 249.047338 753.126988 248.812963 
Q 752.87855 248.578588 752.420738 248.578588 
Q 751.9848 248.578588 751.71605 248.834838 
Q 751.448863 249.091088 751.389488 249.559838 
L 751.389488 249.564525 
L 750.3598 249.564525 
L 750.3598 249.559838 
Q 750.4473 248.9489 750.717613 248.51765 
Q 750.989488 248.084838 751.419175 247.858275 
Q 751.848863 247.63015 752.4098 247.63015 
Q 753.045738 247.63015 753.494175 247.847338 
Q 753.944175 248.064525 754.17855 248.48015 
Q 754.412925 248.895775 754.412925 249.481713 
L 754.412925 249.4864 
Q 754.412925 249.8614 754.256675 250.272338 
Q 754.100425 250.681713 753.820738 251.062963 
L 751.76605 253.856713 
L 754.451988 253.856713 
L 754.451988 254.803588 
L 750.4473 254.803588 
L 750.4473 253.939525 
z
" style="fill: #ffffff; stroke: #000000"/>
    <path d="M 715.36898 254.877025 
Q 714.85648 254.877025 714.397105 254.78015 
Q 713.939292 254.681713 713.540855 254.4864 
Q 713.142417 254.291088 712.795542 253.997338 
L 712.795542 253.997338 
L 713.415855 253.2364 
L 713.415855 253.2364 
Q 713.822105 253.587963 714.309605 253.764525 
Q 714.798667 253.939525 715.36898 253.939525 
Q 716.140855 253.939525 716.565855 253.653588 
Q 716.990855 253.36765 716.990855 252.845775 
L 716.990855 252.841088 
Q 716.990855 252.469213 716.797105 252.252025 
Q 716.604917 252.034838 716.298667 251.93015 
Q 715.99398 251.825463 715.511167 251.7364 
Q 715.495542 251.731713 715.478355 251.731713 
Q 715.46273 251.731713 715.447105 251.727025 
L 715.373667 251.712963 
Q 714.661167 251.591088 714.214292 251.437963 
Q 713.767417 251.283275 713.45023 250.875463 
Q 713.133042 250.46765 713.133042 249.716088 
L 713.133042 249.7114 
Q 713.133042 249.052025 713.428355 248.5864 
Q 713.723667 248.119213 714.289292 247.875463 
Q 714.85648 247.63015 715.651792 247.63015 
Q 716.033042 247.63015 716.401792 247.714525 
Q 716.770542 247.797338 717.128355 247.9614 
Q 717.48773 248.1239 717.834605 248.372338 
L 717.834605 248.372338 
L 717.26898 249.164525 
L 717.26898 249.164525 
Q 716.86273 248.866088 716.459605 248.71765 
Q 716.058042 248.56765 715.651792 248.56765 
Q 714.92523 248.56765 714.522105 248.858275 
Q 714.11898 249.1489 714.11898 249.681713 
L 714.11898 249.6864 
Q 714.11898 250.052025 714.326792 250.262963 
Q 714.534605 250.472338 714.84398 250.572338 
Q 715.154917 250.672338 715.70648 250.78015 
Q 715.72523 250.784838 715.742417 250.787963 
Q 715.759605 250.789525 715.779917 250.794213 
Q 715.803355 250.7989 715.833042 250.80515 
Q 715.86273 250.809838 715.886167 250.814525 
Q 716.53148 250.945775 716.96273 251.127025 
Q 717.395542 251.306713 717.686167 251.709838 
Q 717.976792 252.112963 717.976792 252.8114 
L 717.976792 252.820775 
Q 717.976792 253.470775 717.66898 253.931713 
Q 717.361167 254.39265 716.776792 254.634838 
Q 716.19398 254.877025 715.36898 254.877025 
z
M 720.066832 253.856713 
L 721.673082 253.856713 
Q 722.459019 253.856713 722.890269 253.4489 
Q 723.323082 253.041088 723.323082 252.2989 
L 723.323082 250.208275 
Q 723.323082 249.466088 722.890269 249.058275 
Q 722.459019 248.650463 721.673082 248.650463 
L 720.066832 248.650463 
L 720.066832 247.703588 
L 721.643394 247.703588 
Q 722.498082 247.703588 723.102769 248.002025 
Q 723.709019 248.2989 724.026207 248.870775 
Q 724.343394 249.44265 724.343394 250.247338 
L 724.343394 252.259838 
Q 724.343394 253.064525 724.026207 253.6364 
Q 723.709019 254.208275 723.101207 254.506713 
Q 722.493394 254.803588 721.638707 254.803588 
L 720.066832 254.803588 
L 720.066832 253.856713 
z
M 719.393394 247.703588 
L 720.388707 247.703588 
L 720.388707 254.803588 
L 719.393394 254.803588 
L 719.393394 247.703588 
z
M 727.888707 254.877025 
Q 727.244957 254.877025 726.755894 254.633275 
Q 726.268394 254.387963 726.001207 253.941088 
Q 725.735582 253.494213 725.735582 252.903588 
L 725.735582 252.7864 
Q 725.735582 252.25515 726.001207 251.7864 
Q 726.268394 251.31765 726.712144 251.078588 
Q 726.335582 250.872338 726.109019 250.484838 
Q 725.882457 250.095775 725.882457 249.666088 
L 725.882457 249.495775 
Q 725.882457 248.939525 726.130894 248.51765 
Q 726.379332 248.094213 726.834019 247.862963 
Q 727.288707 247.63015 727.888707 247.63015 
Q 728.488707 247.63015 728.943394 247.862963 
Q 729.398082 248.094213 729.646519 248.51765 
Q 729.894957 248.939525 729.894957 249.495775 
L 729.894957 249.666088 
Q 729.894957 250.106713 729.663707 250.49265 
Q 729.432457 250.877025 729.051207 251.078588 
Q 729.499644 251.322338 729.769957 251.789525 
Q 730.041832 252.25515 730.041832 252.7864 
L 730.041832 252.903588 
Q 730.041832 253.494213 729.776207 253.941088 
Q 729.510582 254.387963 729.021519 254.633275 
Q 728.534019 254.877025 727.888707 254.877025 
z
M 727.888707 253.919213 
Q 728.235582 253.919213 728.498082 253.783275 
Q 728.762144 253.645775 728.905894 253.400463 
Q 729.051207 253.153588 729.051207 252.83015 
L 729.051207 252.762963 
Q 729.051207 252.434838 728.905894 252.189525 
Q 728.762144 251.94265 728.498082 251.806713 
Q 728.235582 251.669213 727.888707 251.669213 
Q 727.541832 251.669213 727.277769 251.806713 
Q 727.015269 251.94265 726.869957 252.191088 
Q 726.726207 252.439525 726.726207 252.76765 
L 726.726207 252.841088 
Q 726.726207 253.162963 726.869957 253.406713 
Q 727.015269 253.650463 727.277769 253.784838 
Q 727.541832 253.919213 727.888707 253.919213 
z
M 727.888707 250.7114 
Q 728.187144 250.7114 728.415269 250.583275 
Q 728.644957 250.453588 728.771519 250.214525 
Q 728.899644 249.9739 728.899644 249.6614 
L 728.899644 249.594213 
Q 728.899644 249.295775 728.771519 249.066088 
Q 728.644957 248.8364 728.415269 248.712963 
Q 728.187144 248.587963 727.888707 248.587963 
Q 727.590269 248.587963 727.360582 248.712963 
Q 727.132457 248.8364 727.004332 249.066088 
Q 726.877769 249.295775 726.877769 249.5989 
L 726.877769 249.672338 
Q 726.877769 249.978588 727.004332 250.216088 
Q 727.132457 250.453588 727.360582 250.583275 
Q 727.590269 250.7114 727.888707 250.7114 
z
M 738.143003 250.98015 
L 738.143003 252.220775 
Q 738.143003 253.0114 737.835191 253.614525 
Q 737.527378 254.21765 736.963316 254.547338 
Q 736.399253 254.877025 735.657066 254.877025 
Q 734.905503 254.877025 734.336753 254.56765 
Q 733.768003 254.256713 733.455503 253.691088 
Q 733.143003 253.1239 733.143003 252.377025 
L 733.143003 250.281713 
Q 733.143003 249.491088 733.450816 248.891088 
Q 733.758628 248.289525 734.321128 247.959838 
Q 734.885191 247.63015 735.627378 247.63015 
Q 736.238316 247.63015 736.752378 247.89265 
Q 737.268003 248.153588 737.614878 248.631713 
Q 737.961753 249.109838 738.083628 249.739525 
L 738.083628 249.739525 
L 737.005503 249.739525 
L 737.005503 249.739525 
Q 736.916441 249.383275 736.707066 249.127025 
Q 736.497691 248.870775 736.213316 248.7364 
Q 735.930503 248.602025 735.627378 248.602025 
Q 735.188316 248.602025 734.855503 248.812963 
Q 734.524253 249.022338 734.343003 249.400463 
Q 734.163316 249.778588 734.163316 250.281713 
L 734.163316 252.377025 
Q 734.163316 252.8364 734.347691 253.18015 
Q 734.533628 253.5239 734.872691 253.714525 
Q 735.213316 253.90515 735.657066 253.90515 
Q 736.096128 253.90515 736.427378 253.708275 
Q 736.760191 253.509838 736.941441 253.134838 
Q 737.122691 252.758275 737.122691 252.239525 
L 737.122691 251.931713 
L 735.682066 251.931713 
L 735.682066 250.98015 
L 738.143003 250.98015 
z
M 741.731285 254.877025 
Q 741.02816 254.877025 740.529722 254.612963 
Q 740.032847 254.3489 739.770347 253.839525 
Q 739.50941 253.328588 739.50941 252.606713 
L 739.50941 252.034838 
Q 739.50941 251.283275 739.760972 250.752025 
Q 740.012535 250.219213 740.49066 249.941088 
Q 740.970347 249.6614 741.643785 249.6614 
Q 742.27816 249.6614 742.726597 249.98015 
Q 743.176597 250.297338 743.412535 250.897338 
Q 743.650035 251.497338 743.650035 252.337963 
L 743.650035 252.669213 
L 740.232847 252.669213 
L 740.232847 251.869213 
L 742.70316 251.869213 
L 742.70316 251.869213 
Q 742.65941 251.2489 742.382847 250.90515 
Q 742.107847 250.559838 741.643785 250.559838 
Q 741.076597 250.559838 740.767222 250.931713 
Q 740.457847 251.302025 740.457847 251.981713 
L 740.457847 252.625463 
Q 740.457847 253.25515 740.789097 253.59265 
Q 741.12191 253.93015 741.731285 253.93015 
Q 742.03441 253.93015 742.331285 253.808275 
Q 742.629722 253.684838 742.864097 253.466088 
L 742.864097 253.466088 
L 743.518785 254.119213 
L 743.518785 254.119213 
Q 743.142222 254.481713 742.673472 254.68015 
Q 742.204722 254.877025 741.731285 254.877025 
z
M 745.017613 249.734838 
L 746.014488 249.734838 
L 746.014488 254.803588 
L 745.017613 254.803588 
L 745.017613 249.734838 
z
M 748.094175 251.731713 
Q 748.094175 251.195775 747.81605 250.903588 
Q 747.537925 250.609838 747.0348 250.609838 
Q 746.545738 250.609838 746.280113 250.869213 
Q 746.014488 251.127025 746.014488 251.595775 
L 745.911363 250.619213 
Q 746.145738 250.159838 746.523863 249.9114 
Q 746.901988 249.6614 747.361363 249.6614 
Q 748.186363 249.6614 748.637925 250.202025 
Q 749.089488 250.741088 749.089488 251.727025 
L 749.089488 254.803588 
L 748.094175 254.803588 
L 748.094175 251.731713 
z
M 750.4473 253.939525 
L 752.9223 250.637963 
Q 753.137925 250.35515 753.256675 250.050463 
Q 753.376988 249.744213 753.376988 249.481713 
L 753.376988 249.470775 
Q 753.376988 249.047338 753.126988 248.812963 
Q 752.87855 248.578588 752.420738 248.578588 
Q 751.9848 248.578588 751.71605 248.834838 
Q 751.448863 249.091088 751.389488 249.559838 
L 751.389488 249.564525 
L 750.3598 249.564525 
L 750.3598 249.559838 
Q 750.4473 248.9489 750.717613 248.51765 
Q 750.989488 248.084838 751.419175 247.858275 
Q 751.848863 247.63015 752.4098 247.63015 
Q 753.045738 247.63015 753.494175 247.847338 
Q 753.944175 248.064525 754.17855 248.48015 
Q 754.412925 248.895775 754.412925 249.481713 
L 754.412925 249.4864 
Q 754.412925 249.8614 754.256675 250.272338 
Q 754.100425 250.681713 753.820738 251.062963 
L 751.76605 253.856713 
L 754.451988 253.856713 
L 754.451988 254.803588 
L 750.4473 254.803588 
L 750.4473 253.939525 
z
" style="fill: #ffffff"/>
   </g>
  </g>
 </g>
 <defs>
  <clipPath id="pd51e2503f7">
   <rect x="144" y="77.76" width="892.8" height="498.96"/>
  </clipPath>
 </defs>
</svg>
