<?xml version="1.0" encoding="utf-8" standalone="no"?>
<!DOCTYPE svg PUBLIC "-//W3C//DTD SVG 1.1//EN"
  "http://www.w3.org/Graphics/SVG/1.1/DTD/svg11.dtd">
<svg xmlns:xlink="http://www.w3.org/1999/xlink" width="1152pt" height="648pt" viewBox="0 0 1152 648" xmlns="http://www.w3.org/2000/svg" version="1.1">
 <metadata>
  <rdf:RDF xmlns:dc="http://purl.org/dc/elements/1.1/" xmlns:cc="http://creativecommons.org/ns#" xmlns:rdf="http://www.w3.org/1999/02/22-rdf-syntax-ns#">
   <cc:Work>
    <dc:type rdf:resource="http://purl.org/dc/dcmitype/StillImage"/>
    <dc:date>2024-03-14T14:55:08.645735</dc:date>
    <dc:format>image/svg+xml</dc:format>
    <dc:creator>
     <cc:Agent>
      <dc:title>Matplotlib v3.8.3, https://matplotlib.org/</dc:title>
     </cc:Agent>
    </dc:creator>
   </cc:Work>
  </rdf:RDF>
 </metadata>
 <defs>
  <style type="text/css">*{stroke-linejoin: round; stroke-linecap: butt}</style>
 </defs>
 <g id="figure_1">
  <g id="patch_1">
   <path d="M 0 648 
L 1152 648 
L 1152 0 
L 0 0 
L 0 648 
z
" style="fill: none"/>
  </g>
  <g id="axes_1">
   <g id="line2d_1">
    <path d="M 219.888 464.185868 
L 222.032323 462.050185 
L 224.176646 459.937617 
L 226.32097 457.847915 
L 228.465293 455.780832 
L 230.609616 453.736123 
L 232.753939 451.713548 
L 234.898263 449.712866 
L 237.042586 447.733843 
L 239.186909 445.776243 
L 241.331232 443.839836 
L 243.475556 441.924393 
L 245.619879 440.029687 
L 247.764202 438.155495 
L 249.908525 436.301594 
L 252.052848 434.467766 
L 254.197172 432.653795 
L 256.341495 430.859464 
L 258.485818 429.084563 
L 260.630141 427.328881 
L 262.774465 425.592212 
L 264.918788 423.874348 
L 267.063111 422.175087 
L 269.207434 420.494229 
L 271.351758 418.831574 
L 273.496081 417.186926 
L 275.640404 415.560089 
L 277.784727 413.950872 
L 279.929051 412.359084 
L 282.073374 410.784537 
L 284.217697 409.227045 
L 286.36202 407.686422 
L 288.506343 406.162487 
L 290.650667 404.655059 
L 292.79499 403.16396 
L 294.939313 401.689013 
L 297.083636 400.230044 
L 299.22796 398.78688 
L 301.372283 397.35935 
L 303.516606 395.947285 
L 305.660929 394.550518 
L 307.805253 393.168882 
L 309.949576 391.802216 
L 312.093899 390.450356 
L 314.238222 389.113143 
L 316.382545 387.790419 
L 318.526869 386.482026 
L 320.671192 385.187809 
L 322.815515 383.907616 
L 324.959838 382.641294 
L 327.104162 381.388693 
L 329.248485 380.149666 
L 331.392808 378.924064 
L 333.537131 377.711744 
L 335.681455 376.512561 
L 337.825778 375.326373 
L 339.970101 374.15304 
L 342.114424 372.992421 
L 344.258747 371.844381 
L 346.403071 370.708783 
L 348.547394 369.585491 
L 350.691717 368.474374 
L 352.83604 367.375298 
L 354.980364 366.288135 
L 357.124687 365.212754 
L 359.26901 364.149029 
L 361.413333 363.096833 
L 363.557657 362.056041 
L 365.70198 361.026531 
L 367.846303 360.008179 
L 369.990626 359.000866 
L 372.134949 358.004471 
L 374.279273 357.018877 
L 376.423596 356.043966 
L 378.567919 355.079623 
L 380.712242 354.125733 
L 382.856566 353.182184 
L 385.000889 352.248863 
L 387.145212 351.32566 
L 389.289535 350.412464 
L 391.433859 349.509169 
L 393.578182 348.615666 
L 395.722505 347.731849 
L 397.866828 346.857614 
L 400.011152 345.992856 
L 402.155475 345.137474 
L 404.299798 344.291366 
L 406.444121 343.45443 
L 408.588444 342.626569 
L 410.732768 341.807683 
L 412.877091 340.997676 
L 415.021414 340.196451 
L 417.165737 339.403913 
L 419.310061 338.619968 
L 421.454384 337.844523 
L 423.598707 337.077485 
L 425.74303 336.318765 
L 427.887354 335.568271 
L 430.031677 334.825915 
L 432.176 334.091609 
" clip-path="url(#p719c221bbc)" style="fill: none; stroke: #f2b679; stroke-width: 3; stroke-linecap: round"/>
   </g>
   <g id="text_1">
    <path d="M 439.621605 334.791302 
L 441.227855 334.791302 
Q 442.013792 334.791302 442.445042 334.383489 
Q 442.877855 333.975677 442.877855 333.233489 
L 442.877855 331.142864 
Q 442.877855 330.400677 442.445042 329.992864 
Q 442.013792 329.585052 441.227855 329.585052 
L 439.621605 329.585052 
L 439.621605 328.638177 
L 441.198167 328.638177 
Q 442.052855 328.638177 442.657542 328.936614 
Q 443.263792 329.233489 443.58098 329.805364 
Q 443.898167 330.377239 443.898167 331.181927 
L 443.898167 333.194427 
Q 443.898167 333.999114 443.58098 334.570989 
Q 443.263792 335.142864 442.65598 335.441302 
Q 442.048167 335.738177 441.19348 335.738177 
L 439.621605 335.738177 
L 439.621605 334.791302 
z
M 438.948167 328.638177 
L 439.94348 328.638177 
L 439.94348 335.738177 
L 438.948167 335.738177 
L 438.948167 328.638177 
z
M 447.44348 335.811614 
Q 446.79973 335.811614 446.310667 335.567864 
Q 445.823167 335.322552 445.55598 334.875677 
Q 445.290355 334.428802 445.290355 333.838177 
L 445.290355 333.720989 
Q 445.290355 333.189739 445.55598 332.720989 
Q 445.823167 332.252239 446.266917 332.013177 
Q 445.890355 331.806927 445.663792 331.419427 
Q 445.43723 331.030364 445.43723 330.600677 
L 445.43723 330.430364 
Q 445.43723 329.874114 445.685667 329.452239 
Q 445.934105 329.028802 446.388792 328.797552 
Q 446.84348 328.564739 447.44348 328.564739 
Q 448.04348 328.564739 448.498167 328.797552 
Q 448.952855 329.028802 449.201292 329.452239 
Q 449.44973 329.874114 449.44973 330.430364 
L 449.44973 330.600677 
Q 449.44973 331.041302 449.21848 331.427239 
Q 448.98723 331.811614 448.60598 332.013177 
Q 449.054417 332.256927 449.32473 332.724114 
Q 449.596605 333.189739 449.596605 333.720989 
L 449.596605 333.838177 
Q 449.596605 334.428802 449.33098 334.875677 
Q 449.065355 335.322552 448.576292 335.567864 
Q 448.088792 335.811614 447.44348 335.811614 
z
M 447.44348 334.853802 
Q 447.790355 334.853802 448.052855 334.717864 
Q 448.316917 334.580364 448.460667 334.335052 
Q 448.60598 334.088177 448.60598 333.764739 
L 448.60598 333.697552 
Q 448.60598 333.369427 448.460667 333.124114 
Q 448.316917 332.877239 448.052855 332.741302 
Q 447.790355 332.603802 447.44348 332.603802 
Q 447.096605 332.603802 446.832542 332.741302 
Q 446.570042 332.877239 446.42473 333.125677 
Q 446.28098 333.374114 446.28098 333.702239 
L 446.28098 333.775677 
Q 446.28098 334.097552 446.42473 334.341302 
Q 446.570042 334.585052 446.832542 334.719427 
Q 447.096605 334.853802 447.44348 334.853802 
z
M 447.44348 331.645989 
Q 447.741917 331.645989 447.970042 331.517864 
Q 448.19973 331.388177 448.326292 331.149114 
Q 448.454417 330.908489 448.454417 330.595989 
L 448.454417 330.528802 
Q 448.454417 330.230364 448.326292 330.000677 
Q 448.19973 329.770989 447.970042 329.647552 
Q 447.741917 329.522552 447.44348 329.522552 
Q 447.145042 329.522552 446.915355 329.647552 
Q 446.68723 329.770989 446.559105 330.000677 
Q 446.432542 330.230364 446.432542 330.533489 
L 446.432542 330.606927 
Q 446.432542 330.913177 446.559105 331.150677 
Q 446.68723 331.388177 446.915355 331.517864 
Q 447.145042 331.645989 447.44348 331.645989 
z
M 452.702855 335.738177 
L 451.70598 335.738177 
L 451.70598 329.722552 
L 450.695042 330.342864 
L 450.695042 329.311614 
L 451.70598 328.638177 
L 452.702855 328.638177 
L 452.702855 335.738177 
z
M 456.34055 335.811614 
Q 455.343675 335.811614 454.82805 335.280364 
Q 454.313988 334.747552 454.313988 333.794427 
L 454.313988 330.567864 
Q 454.313988 329.610052 454.831175 329.080364 
Q 455.348363 328.550677 456.34055 328.550677 
Q 457.335863 328.550677 457.851488 329.078802 
Q 458.367113 329.605364 458.367113 330.567864 
L 458.367113 333.794427 
Q 458.367113 334.752239 457.848363 335.281927 
Q 457.331175 335.811614 456.34055 335.811614 
z
M 456.34055 334.864739 
Q 456.867113 334.864739 457.118675 334.588177 
Q 457.370238 334.311614 457.370238 333.794427 
L 457.370238 330.567864 
Q 457.370238 330.049114 457.120238 329.774114 
Q 456.8718 329.497552 456.34055 329.497552 
Q 455.807738 329.497552 455.557738 329.774114 
Q 455.3093 330.049114 455.3093 330.567864 
L 455.3093 333.794427 
Q 455.3093 334.311614 455.560863 334.588177 
Q 455.812425 334.864739 456.34055 334.864739 
z
M 461.858128 335.811614 
Q 460.861253 335.811614 460.345628 335.280364 
Q 459.831566 334.747552 459.831566 333.794427 
L 459.831566 330.567864 
Q 459.831566 329.610052 460.348753 329.080364 
Q 460.865941 328.550677 461.858128 328.550677 
Q 462.853441 328.550677 463.369066 329.078802 
Q 463.884691 329.605364 463.884691 330.567864 
L 463.884691 333.794427 
Q 463.884691 334.752239 463.365941 335.281927 
Q 462.848753 335.811614 461.858128 335.811614 
z
M 461.858128 334.864739 
Q 462.384691 334.864739 462.636253 334.588177 
Q 462.887816 334.311614 462.887816 333.794427 
L 462.887816 330.567864 
Q 462.887816 330.049114 462.637816 329.774114 
Q 462.389378 329.497552 461.858128 329.497552 
Q 461.325316 329.497552 461.075316 329.774114 
Q 460.826878 330.049114 460.826878 330.567864 
L 460.826878 333.794427 
Q 460.826878 334.311614 461.078441 334.588177 
Q 461.330003 334.864739 461.858128 334.864739 
z
" style="fill: #ffffff; stroke: #000000"/>
    <path d="M 439.621605 334.791302 
L 441.227855 334.791302 
Q 442.013792 334.791302 442.445042 334.383489 
Q 442.877855 333.975677 442.877855 333.233489 
L 442.877855 331.142864 
Q 442.877855 330.400677 442.445042 329.992864 
Q 442.013792 329.585052 441.227855 329.585052 
L 439.621605 329.585052 
L 439.621605 328.638177 
L 441.198167 328.638177 
Q 442.052855 328.638177 442.657542 328.936614 
Q 443.263792 329.233489 443.58098 329.805364 
Q 443.898167 330.377239 443.898167 331.181927 
L 443.898167 333.194427 
Q 443.898167 333.999114 443.58098 334.570989 
Q 443.263792 335.142864 442.65598 335.441302 
Q 442.048167 335.738177 441.19348 335.738177 
L 439.621605 335.738177 
L 439.621605 334.791302 
z
M 438.948167 328.638177 
L 439.94348 328.638177 
L 439.94348 335.738177 
L 438.948167 335.738177 
L 438.948167 328.638177 
z
M 447.44348 335.811614 
Q 446.79973 335.811614 446.310667 335.567864 
Q 445.823167 335.322552 445.55598 334.875677 
Q 445.290355 334.428802 445.290355 333.838177 
L 445.290355 333.720989 
Q 445.290355 333.189739 445.55598 332.720989 
Q 445.823167 332.252239 446.266917 332.013177 
Q 445.890355 331.806927 445.663792 331.419427 
Q 445.43723 331.030364 445.43723 330.600677 
L 445.43723 330.430364 
Q 445.43723 329.874114 445.685667 329.452239 
Q 445.934105 329.028802 446.388792 328.797552 
Q 446.84348 328.564739 447.44348 328.564739 
Q 448.04348 328.564739 448.498167 328.797552 
Q 448.952855 329.028802 449.201292 329.452239 
Q 449.44973 329.874114 449.44973 330.430364 
L 449.44973 330.600677 
Q 449.44973 331.041302 449.21848 331.427239 
Q 448.98723 331.811614 448.60598 332.013177 
Q 449.054417 332.256927 449.32473 332.724114 
Q 449.596605 333.189739 449.596605 333.720989 
L 449.596605 333.838177 
Q 449.596605 334.428802 449.33098 334.875677 
Q 449.065355 335.322552 448.576292 335.567864 
Q 448.088792 335.811614 447.44348 335.811614 
z
M 447.44348 334.853802 
Q 447.790355 334.853802 448.052855 334.717864 
Q 448.316917 334.580364 448.460667 334.335052 
Q 448.60598 334.088177 448.60598 333.764739 
L 448.60598 333.697552 
Q 448.60598 333.369427 448.460667 333.124114 
Q 448.316917 332.877239 448.052855 332.741302 
Q 447.790355 332.603802 447.44348 332.603802 
Q 447.096605 332.603802 446.832542 332.741302 
Q 446.570042 332.877239 446.42473 333.125677 
Q 446.28098 333.374114 446.28098 333.702239 
L 446.28098 333.775677 
Q 446.28098 334.097552 446.42473 334.341302 
Q 446.570042 334.585052 446.832542 334.719427 
Q 447.096605 334.853802 447.44348 334.853802 
z
M 447.44348 331.645989 
Q 447.741917 331.645989 447.970042 331.517864 
Q 448.19973 331.388177 448.326292 331.149114 
Q 448.454417 330.908489 448.454417 330.595989 
L 448.454417 330.528802 
Q 448.454417 330.230364 448.326292 330.000677 
Q 448.19973 329.770989 447.970042 329.647552 
Q 447.741917 329.522552 447.44348 329.522552 
Q 447.145042 329.522552 446.915355 329.647552 
Q 446.68723 329.770989 446.559105 330.000677 
Q 446.432542 330.230364 446.432542 330.533489 
L 446.432542 330.606927 
Q 446.432542 330.913177 446.559105 331.150677 
Q 446.68723 331.388177 446.915355 331.517864 
Q 447.145042 331.645989 447.44348 331.645989 
z
M 452.702855 335.738177 
L 451.70598 335.738177 
L 451.70598 329.722552 
L 450.695042 330.342864 
L 450.695042 329.311614 
L 451.70598 328.638177 
L 452.702855 328.638177 
L 452.702855 335.738177 
z
M 456.34055 335.811614 
Q 455.343675 335.811614 454.82805 335.280364 
Q 454.313988 334.747552 454.313988 333.794427 
L 454.313988 330.567864 
Q 454.313988 329.610052 454.831175 329.080364 
Q 455.348363 328.550677 456.34055 328.550677 
Q 457.335863 328.550677 457.851488 329.078802 
Q 458.367113 329.605364 458.367113 330.567864 
L 458.367113 333.794427 
Q 458.367113 334.752239 457.848363 335.281927 
Q 457.331175 335.811614 456.34055 335.811614 
z
M 456.34055 334.864739 
Q 456.867113 334.864739 457.118675 334.588177 
Q 457.370238 334.311614 457.370238 333.794427 
L 457.370238 330.567864 
Q 457.370238 330.049114 457.120238 329.774114 
Q 456.8718 329.497552 456.34055 329.497552 
Q 455.807738 329.497552 455.557738 329.774114 
Q 455.3093 330.049114 455.3093 330.567864 
L 455.3093 333.794427 
Q 455.3093 334.311614 455.560863 334.588177 
Q 455.812425 334.864739 456.34055 334.864739 
z
M 461.858128 335.811614 
Q 460.861253 335.811614 460.345628 335.280364 
Q 459.831566 334.747552 459.831566 333.794427 
L 459.831566 330.567864 
Q 459.831566 329.610052 460.348753 329.080364 
Q 460.865941 328.550677 461.858128 328.550677 
Q 462.853441 328.550677 463.369066 329.078802 
Q 463.884691 329.605364 463.884691 330.567864 
L 463.884691 333.794427 
Q 463.884691 334.752239 463.365941 335.281927 
Q 462.848753 335.811614 461.858128 335.811614 
z
M 461.858128 334.864739 
Q 462.384691 334.864739 462.636253 334.588177 
Q 462.887816 334.311614 462.887816 333.794427 
L 462.887816 330.567864 
Q 462.887816 330.049114 462.637816 329.774114 
Q 462.389378 329.497552 461.858128 329.497552 
Q 461.325316 329.497552 461.075316 329.774114 
Q 460.826878 330.049114 460.826878 330.567864 
L 460.826878 333.794427 
Q 460.826878 334.311614 461.078441 334.588177 
Q 461.330003 334.864739 461.858128 334.864739 
z
" style="fill: #ffffff"/>
   </g>
  </g>
 </g>
 <defs>
  <clipPath id="p719c221bbc">
   <rect x="144" y="77.76" width="892.8" height="498.96"/>
  </clipPath>
 </defs>
</svg>
