<?xml version="1.0" encoding="utf-8" standalone="no"?>
<!DOCTYPE svg PUBLIC "-//W3C//DTD SVG 1.1//EN"
  "http://www.w3.org/Graphics/SVG/1.1/DTD/svg11.dtd">
<svg xmlns:xlink="http://www.w3.org/1999/xlink" width="1152pt" height="648pt" viewBox="0 0 1152 648" xmlns="http://www.w3.org/2000/svg" version="1.1">
 <metadata>
  <rdf:RDF xmlns:dc="http://purl.org/dc/elements/1.1/" xmlns:cc="http://creativecommons.org/ns#" xmlns:rdf="http://www.w3.org/1999/02/22-rdf-syntax-ns#">
   <cc:Work>
    <dc:type rdf:resource="http://purl.org/dc/dcmitype/StillImage"/>
    <dc:date>2024-09-19T17:32:04.654235</dc:date>
    <dc:format>image/svg+xml</dc:format>
    <dc:creator>
     <cc:Agent>
      <dc:title>Matplotlib v3.8.1, https://matplotlib.org/</dc:title>
     </cc:Agent>
    </dc:creator>
   </cc:Work>
  </rdf:RDF>
 </metadata>
 <defs>
  <style type="text/css">*{stroke-linejoin: round; stroke-linecap: butt}</style>
 </defs>
 <g id="figure_1">
  <g id="patch_1">
   <path d="M 0 648 
L 1152 648 
L 1152 0 
L 0 0 
L 0 648 
z
" style="fill: none"/>
  </g>
  <g id="axes_1">
   <g id="PathCollection_1">
    <defs>
     <path id="m104fb7557f" d="M 0 2.738613 
C 0.726289 2.738613 1.422928 2.450055 1.936492 1.936492 
C 2.450055 1.422928 2.738613 0.726289 2.738613 0 
C 2.738613 -0.726289 2.450055 -1.422928 1.936492 -1.936492 
C 1.422928 -2.450055 0.726289 -2.738613 0 -2.738613 
C -0.726289 -2.738613 -1.422928 -2.450055 -1.936492 -1.936492 
C -2.450055 -1.422928 -2.738613 -0.726289 -2.738613 0 
C -2.738613 0.726289 -2.450055 1.422928 -1.936492 1.936492 
C -1.422928 2.450055 -0.726289 2.738613 0 2.738613 
z
" style="stroke: #80ff80"/>
    </defs>
    <g clip-path="url(#p6684bbb384)">
     <use xlink:href="#m104fb7557f" x="702.992" y="226.07586" style="fill: #80ff80; stroke: #80ff80"/>
     <use xlink:href="#m104fb7557f" x="316.112" y="351.25245" style="fill: #80ff80; stroke: #80ff80"/>
    </g>
   </g>
   <g id="text_1">
    <path d="M 711.69698 220.622428 
L 712.54698 220.622428 
L 715.164167 227.722428 
L 714.089167 227.722428 
L 712.12198 221.994303 
L 710.154792 227.722428 
L 709.079792 227.722428 
L 711.69698 220.622428 
z
M 710.286042 225.21774 
L 714.02198 225.21774 
L 714.02198 226.164615 
L 710.286042 226.164615 
L 710.286042 225.21774 
z
M 717.805964 227.722428 
L 716.809089 227.722428 
L 716.809089 221.706803 
L 715.798152 222.327115 
L 715.798152 221.295865 
L 716.809089 220.622428 
L 717.805964 220.622428 
L 717.805964 227.722428 
z
M 721.248347 227.795865 
Q 720.623347 227.795865 720.178035 227.544303 
Q 719.734285 227.29274 719.501472 226.81149 
Q 719.270222 226.33024 719.270222 225.652115 
L 719.270222 225.647428 
Q 719.270222 225.252115 719.36241 224.81774 
Q 719.45616 224.381803 719.63116 223.963053 
Q 719.660847 223.889615 719.695222 223.819303 
Q 719.729597 223.747428 719.763972 223.678678 
L 721.30616 220.622428 
L 722.38116 220.622428 
L 720.56866 224.163053 
L 720.573347 223.98649 
Q 720.696785 223.756803 720.93116 223.63024 
Q 721.165535 223.503678 721.478035 223.503678 
Q 722.029597 223.503678 722.42491 223.753678 
Q 722.820222 224.002115 723.02491 224.478678 
Q 723.229597 224.953678 723.229597 225.622428 
L 723.229597 225.627115 
Q 723.229597 226.31149 722.998347 226.800553 
Q 722.767097 227.288053 722.320222 227.54274 
Q 721.873347 227.795865 721.248347 227.795865 
z
M 721.248347 226.838053 
Q 721.721785 226.838053 721.978035 226.545865 
Q 722.234285 226.252115 722.234285 225.709928 
L 722.234285 225.70524 
Q 722.234285 225.109928 721.965535 224.784928 
Q 721.696785 224.459928 721.198347 224.459928 
Q 720.754597 224.459928 720.510847 224.788053 
Q 720.267097 225.114615 720.267097 225.709928 
L 720.267097 225.716178 
Q 720.267097 226.256803 720.523347 226.547428 
Q 720.779597 226.838053 721.248347 226.838053 
z
" style="fill: #ffffff; stroke: #000000"/>
    <path d="M 711.69698 220.622428 
L 712.54698 220.622428 
L 715.164167 227.722428 
L 714.089167 227.722428 
L 712.12198 221.994303 
L 710.154792 227.722428 
L 709.079792 227.722428 
L 711.69698 220.622428 
z
M 710.286042 225.21774 
L 714.02198 225.21774 
L 714.02198 226.164615 
L 710.286042 226.164615 
L 710.286042 225.21774 
z
M 717.805964 227.722428 
L 716.809089 227.722428 
L 716.809089 221.706803 
L 715.798152 222.327115 
L 715.798152 221.295865 
L 716.809089 220.622428 
L 717.805964 220.622428 
L 717.805964 227.722428 
z
M 721.248347 227.795865 
Q 720.623347 227.795865 720.178035 227.544303 
Q 719.734285 227.29274 719.501472 226.81149 
Q 719.270222 226.33024 719.270222 225.652115 
L 719.270222 225.647428 
Q 719.270222 225.252115 719.36241 224.81774 
Q 719.45616 224.381803 719.63116 223.963053 
Q 719.660847 223.889615 719.695222 223.819303 
Q 719.729597 223.747428 719.763972 223.678678 
L 721.30616 220.622428 
L 722.38116 220.622428 
L 720.56866 224.163053 
L 720.573347 223.98649 
Q 720.696785 223.756803 720.93116 223.63024 
Q 721.165535 223.503678 721.478035 223.503678 
Q 722.029597 223.503678 722.42491 223.753678 
Q 722.820222 224.002115 723.02491 224.478678 
Q 723.229597 224.953678 723.229597 225.622428 
L 723.229597 225.627115 
Q 723.229597 226.31149 722.998347 226.800553 
Q 722.767097 227.288053 722.320222 227.54274 
Q 721.873347 227.795865 721.248347 227.795865 
z
M 721.248347 226.838053 
Q 721.721785 226.838053 721.978035 226.545865 
Q 722.234285 226.252115 722.234285 225.709928 
L 722.234285 225.70524 
Q 722.234285 225.109928 721.965535 224.784928 
Q 721.696785 224.459928 721.198347 224.459928 
Q 720.754597 224.459928 720.510847 224.788053 
Q 720.267097 225.114615 720.267097 225.709928 
L 720.267097 225.716178 
Q 720.267097 226.256803 720.523347 226.547428 
Q 720.779597 226.838053 721.248347 226.838053 
z
" style="fill: #ffffff"/>
   </g>
   <g id="text_2">
    <path d="M 324.81698 345.799018 
L 325.66698 345.799018 
L 328.284167 352.899018 
L 327.209167 352.899018 
L 325.24198 347.170893 
L 323.274792 352.899018 
L 322.199792 352.899018 
L 324.81698 345.799018 
z
M 323.406042 350.394331 
L 327.14198 350.394331 
L 327.14198 351.341206 
L 323.406042 351.341206 
L 323.406042 350.394331 
z
M 330.925964 352.899018 
L 329.929089 352.899018 
L 329.929089 346.883393 
L 328.918152 347.503706 
L 328.918152 346.472456 
L 329.929089 345.799018 
L 330.925964 345.799018 
L 330.925964 352.899018 
z
M 334.368347 352.972456 
Q 333.743347 352.972456 333.298035 352.720893 
Q 332.854285 352.469331 332.621472 351.988081 
Q 332.390222 351.506831 332.390222 350.828706 
L 332.390222 350.824018 
Q 332.390222 350.428706 332.48241 349.99433 
Q 332.57616 349.558393 332.75116 349.139643 
Q 332.780847 349.066206 332.815222 348.995893 
Q 332.849597 348.924018 332.883972 348.855268 
L 334.42616 345.799018 
L 335.50116 345.799018 
L 333.68866 349.339643 
L 333.693347 349.163081 
Q 333.816785 348.933393 334.05116 348.80683 
Q 334.285535 348.680268 334.598035 348.680268 
Q 335.149597 348.680268 335.54491 348.930268 
Q 335.940222 349.178706 336.14491 349.655268 
Q 336.349597 350.130268 336.349597 350.799018 
L 336.349597 350.803706 
Q 336.349597 351.488081 336.118347 351.977143 
Q 335.887097 352.464643 335.440222 352.719331 
Q 334.993347 352.972456 334.368347 352.972456 
z
M 334.368347 352.014643 
Q 334.841785 352.014643 335.098035 351.722456 
Q 335.354285 351.428706 335.354285 350.886518 
L 335.354285 350.881831 
Q 335.354285 350.286518 335.085535 349.961518 
Q 334.816785 349.636518 334.318347 349.636518 
Q 333.874597 349.636518 333.630847 349.964643 
Q 333.387097 350.291205 333.387097 350.886518 
L 333.387097 350.892768 
Q 333.387097 351.433393 333.643347 351.724018 
Q 333.899597 352.014643 334.368347 352.014643 
z
" style="fill: #ffffff; stroke: #000000"/>
    <path d="M 324.81698 345.799018 
L 325.66698 345.799018 
L 328.284167 352.899018 
L 327.209167 352.899018 
L 325.24198 347.170893 
L 323.274792 352.899018 
L 322.199792 352.899018 
L 324.81698 345.799018 
z
M 323.406042 350.394331 
L 327.14198 350.394331 
L 327.14198 351.341206 
L 323.406042 351.341206 
L 323.406042 350.394331 
z
M 330.925964 352.899018 
L 329.929089 352.899018 
L 329.929089 346.883393 
L 328.918152 347.503706 
L 328.918152 346.472456 
L 329.929089 345.799018 
L 330.925964 345.799018 
L 330.925964 352.899018 
z
M 334.368347 352.972456 
Q 333.743347 352.972456 333.298035 352.720893 
Q 332.854285 352.469331 332.621472 351.988081 
Q 332.390222 351.506831 332.390222 350.828706 
L 332.390222 350.824018 
Q 332.390222 350.428706 332.48241 349.99433 
Q 332.57616 349.558393 332.75116 349.139643 
Q 332.780847 349.066206 332.815222 348.995893 
Q 332.849597 348.924018 332.883972 348.855268 
L 334.42616 345.799018 
L 335.50116 345.799018 
L 333.68866 349.339643 
L 333.693347 349.163081 
Q 333.816785 348.933393 334.05116 348.80683 
Q 334.285535 348.680268 334.598035 348.680268 
Q 335.149597 348.680268 335.54491 348.930268 
Q 335.940222 349.178706 336.14491 349.655268 
Q 336.349597 350.130268 336.349597 350.799018 
L 336.349597 350.803706 
Q 336.349597 351.488081 336.118347 351.977143 
Q 335.887097 352.464643 335.440222 352.719331 
Q 334.993347 352.972456 334.368347 352.972456 
z
M 334.368347 352.014643 
Q 334.841785 352.014643 335.098035 351.722456 
Q 335.354285 351.428706 335.354285 350.886518 
L 335.354285 350.881831 
Q 335.354285 350.286518 335.085535 349.961518 
Q 334.816785 349.636518 334.318347 349.636518 
Q 333.874597 349.636518 333.630847 349.964643 
Q 333.387097 350.291205 333.387097 350.886518 
L 333.387097 350.892768 
Q 333.387097 351.433393 333.643347 351.724018 
Q 333.899597 352.014643 334.368347 352.014643 
z
" style="fill: #ffffff"/>
   </g>
  </g>
 </g>
 <defs>
  <clipPath id="p6684bbb384">
   <rect x="144" y="77.76" width="892.8" height="498.96"/>
  </clipPath>
 </defs>
</svg>
