<?xml version="1.0" encoding="utf-8" standalone="no"?>
<!DOCTYPE svg PUBLIC "-//W3C//DTD SVG 1.1//EN"
  "http://www.w3.org/Graphics/SVG/1.1/DTD/svg11.dtd">
<svg xmlns:xlink="http://www.w3.org/1999/xlink" width="1152pt" height="648pt" viewBox="0 0 1152 648" xmlns="http://www.w3.org/2000/svg" version="1.1">
 <metadata>
  <rdf:RDF xmlns:dc="http://purl.org/dc/elements/1.1/" xmlns:cc="http://creativecommons.org/ns#" xmlns:rdf="http://www.w3.org/1999/02/22-rdf-syntax-ns#">
   <cc:Work>
    <dc:type rdf:resource="http://purl.org/dc/dcmitype/StillImage"/>
    <dc:date>2024-03-14T14:55:08.313904</dc:date>
    <dc:format>image/svg+xml</dc:format>
    <dc:creator>
     <cc:Agent>
      <dc:title>Matplotlib v3.8.3, https://matplotlib.org/</dc:title>
     </cc:Agent>
    </dc:creator>
   </cc:Work>
  </rdf:RDF>
 </metadata>
 <defs>
  <style type="text/css">*{stroke-linejoin: round; stroke-linecap: butt}</style>
 </defs>
 <g id="figure_1">
  <g id="patch_1">
   <path d="M 0 648 
L 1152 648 
L 1152 0 
L 0 0 
L 0 648 
z
" style="fill: none"/>
  </g>
  <g id="axes_1">
   <g id="line2d_1">
    <path d="M 201.536 487.407651 
L 206.290586 482.580085 
L 211.045172 477.853975 
L 215.799758 473.227193 
L 220.554343 468.697653 
L 225.308929 464.263311 
L 230.063515 459.92217 
L 234.818101 455.67227 
L 239.572687 451.511698 
L 244.327273 447.438575 
L 249.081859 443.451065 
L 253.836444 439.547371 
L 258.59103 435.725731 
L 263.345616 431.984421 
L 268.100202 428.321756 
L 272.854788 424.736081 
L 277.609374 421.225781 
L 282.36396 417.789271 
L 287.118545 414.425001 
L 291.873131 411.131454 
L 296.627717 407.907144 
L 301.382303 404.750616 
L 306.136889 401.660446 
L 310.891475 398.635239 
L 315.646061 395.673631 
L 320.400646 392.774286 
L 325.155232 389.935894 
L 329.909818 387.157176 
L 334.664404 384.436877 
L 339.41899 381.77377 
L 344.173576 379.166652 
L 348.928162 376.614348 
L 353.682747 374.115705 
L 358.437333 371.669595 
L 363.191919 369.274916 
L 367.946505 366.930585 
L 372.701091 364.635544 
L 377.455677 362.388758 
L 382.210263 360.189212 
L 386.964848 358.035914 
L 391.719434 355.927892 
L 396.47402 353.864193 
L 401.228606 351.843887 
L 405.983192 349.866061 
L 410.737778 347.929822 
L 415.492364 346.034296 
L 420.246949 344.178628 
L 425.001535 342.361979 
L 429.756121 340.583529 
L 434.510707 338.842476 
L 439.265293 337.138033 
L 444.019879 335.46943 
L 448.774465 333.835915 
L 453.529051 332.23675 
L 458.283636 330.671211 
L 463.038222 329.138594 
L 467.792808 327.638205 
L 472.547394 326.169367 
L 477.30198 324.731416 
L 482.056566 323.323704 
L 486.811152 321.945594 
L 491.565737 320.596465 
L 496.320323 319.275706 
L 501.074909 317.982722 
L 505.829495 316.716929 
L 510.584081 315.477754 
L 515.338667 314.264639 
L 520.093253 313.077035 
L 524.847838 311.914405 
L 529.602424 310.776226 
L 534.35701 309.661982 
L 539.111596 308.571171 
L 543.866182 307.503299 
L 548.620768 306.457885 
L 553.375354 305.434457 
L 558.129939 304.432551 
L 562.884525 303.451715 
L 567.639111 302.491507 
L 572.393697 301.551493 
L 577.148283 300.631248 
L 581.902869 299.730356 
L 586.657455 298.84841 
L 591.41204 297.985012 
L 596.166626 297.139773 
L 600.921212 296.312309 
L 605.675798 295.502248 
L 610.430384 294.709224 
L 615.18497 293.932877 
L 619.939556 293.172858 
L 624.694141 292.428823 
L 629.448727 291.700436 
L 634.203313 290.987368 
L 638.957899 290.289297 
L 643.712485 289.605908 
L 648.467071 288.936891 
L 653.221657 288.281944 
L 657.976242 287.640772 
L 662.730828 287.013085 
L 667.485414 286.3986 
L 672.24 285.797038 
" clip-path="url(#p0e8c4856e4)" style="fill: none; stroke: #f27979; stroke-width: 3; stroke-linecap: round"/>
   </g>
   <g id="text_1">
    <path d="M 679.685605 286.496731 
L 681.291855 286.496731 
Q 682.077792 286.496731 682.509042 286.088918 
Q 682.941855 285.681106 682.941855 284.938918 
L 682.941855 282.848293 
Q 682.941855 282.106106 682.509042 281.698293 
Q 682.077792 281.290481 681.291855 281.290481 
L 679.685605 281.290481 
L 679.685605 280.343606 
L 681.262168 280.343606 
Q 682.116855 280.343606 682.721542 280.642043 
Q 683.327792 280.938918 683.64498 281.510793 
Q 683.962167 282.082668 683.962167 282.887356 
L 683.962167 284.899856 
Q 683.962167 285.704543 683.64498 286.276418 
Q 683.327792 286.848293 682.71998 287.146731 
Q 682.112167 287.443606 681.25748 287.443606 
L 679.685605 287.443606 
L 679.685605 286.496731 
z
M 679.012168 280.343606 
L 680.00748 280.343606 
L 680.00748 287.443606 
L 679.012168 287.443606 
L 679.012168 280.343606 
z
M 687.50748 287.517043 
Q 686.86373 287.517043 686.374667 287.273293 
Q 685.887168 287.027981 685.61998 286.581106 
Q 685.354355 286.134231 685.354355 285.543606 
L 685.354355 285.426418 
Q 685.354355 284.895168 685.61998 284.426418 
Q 685.887168 283.957668 686.330917 283.718606 
Q 685.954355 283.512356 685.727792 283.124856 
Q 685.50123 282.735793 685.50123 282.306106 
L 685.50123 282.135793 
Q 685.50123 281.579543 685.749667 281.157668 
Q 685.998105 280.734231 686.452792 280.502981 
Q 686.90748 280.270168 687.50748 280.270168 
Q 688.10748 280.270168 688.562167 280.502981 
Q 689.016855 280.734231 689.265292 281.157668 
Q 689.51373 281.579543 689.51373 282.135793 
L 689.51373 282.306106 
Q 689.51373 282.746731 689.28248 283.132668 
Q 689.05123 283.517043 688.66998 283.718606 
Q 689.118417 283.962356 689.38873 284.429543 
Q 689.660605 284.895168 689.660605 285.426418 
L 689.660605 285.543606 
Q 689.660605 286.134231 689.39498 286.581106 
Q 689.129355 287.027981 688.640292 287.273293 
Q 688.152793 287.517043 687.50748 287.517043 
z
M 687.50748 286.559231 
Q 687.854355 286.559231 688.116855 286.423293 
Q 688.380918 286.285793 688.524667 286.040481 
Q 688.66998 285.793606 688.66998 285.470168 
L 688.66998 285.402981 
Q 688.66998 285.074856 688.524667 284.829543 
Q 688.380918 284.582668 688.116855 284.446731 
Q 687.854355 284.309231 687.50748 284.309231 
Q 687.160605 284.309231 686.896543 284.446731 
Q 686.634042 284.582668 686.48873 284.831106 
Q 686.34498 285.079543 686.34498 285.407668 
L 686.34498 285.481106 
Q 686.34498 285.802981 686.48873 286.046731 
Q 686.634042 286.290481 686.896543 286.424856 
Q 687.160605 286.559231 687.50748 286.559231 
z
M 687.50748 283.351418 
Q 687.805917 283.351418 688.034042 283.223293 
Q 688.26373 283.093606 688.390292 282.854543 
Q 688.518417 282.613918 688.518417 282.301418 
L 688.518417 282.234231 
Q 688.518417 281.935793 688.390292 281.706106 
Q 688.26373 281.476418 688.034042 281.352981 
Q 687.805917 281.227981 687.50748 281.227981 
Q 687.209043 281.227981 686.979355 281.352981 
Q 686.75123 281.476418 686.623105 281.706106 
Q 686.496543 281.935793 686.496543 282.238918 
L 686.496543 282.312356 
Q 686.496543 282.618606 686.623105 282.856106 
Q 686.75123 283.093606 686.979355 283.223293 
Q 687.209043 283.351418 687.50748 283.351418 
z
M 692.88873 287.517043 
Q 692.293418 287.517043 691.83873 287.299856 
Q 691.384042 287.082668 691.10748 286.670168 
Q 690.83248 286.257668 690.759042 285.676418 
L 690.759042 285.676418 
L 691.774667 285.676418 
L 691.774667 285.676418 
Q 691.818418 285.977981 691.965293 286.173293 
Q 692.112167 286.368606 692.343417 286.463918 
Q 692.57623 286.559231 692.88873 286.559231 
Q 693.380918 286.559231 693.654355 286.296731 
Q 693.927793 286.032668 693.927793 285.554543 
L 693.927793 285.338918 
Q 693.927793 284.806106 693.668418 284.517043 
Q 693.410605 284.226418 692.937167 284.226418 
L 692.434043 284.226418 
L 692.434043 283.277981 
L 692.937167 283.277981 
Q 693.352792 283.277981 693.580917 283.029543 
Q 693.810605 282.781106 693.810605 282.326418 
L 693.810605 282.106106 
Q 693.810605 281.687356 693.568418 281.457668 
Q 693.327792 281.227981 692.884042 281.227981 
Q 692.629355 281.227981 692.429355 281.323293 
Q 692.229355 281.418606 692.090293 281.617043 
Q 691.95123 281.813918 691.887168 282.110793 
L 691.887168 282.110793 
L 690.87623 282.110793 
L 690.87623 282.110793 
Q 690.974668 281.531106 691.24498 281.115481 
Q 691.516855 280.699856 691.930917 280.485793 
Q 692.346542 280.270168 692.884042 280.270168 
Q 693.80123 280.270168 694.304355 280.754543 
Q 694.80748 281.237356 694.80748 282.117043 
L 694.80748 282.234231 
Q 694.80748 282.765481 694.518417 283.160793 
Q 694.230918 283.556106 693.704355 283.737356 
Q 694.285605 283.863918 694.604355 284.309231 
Q 694.924667 284.752981 694.924667 285.442043 
L 694.924667 285.559231 
Q 694.924667 286.179543 694.685605 286.618606 
Q 694.446542 287.057668 693.98873 287.287356 
Q 693.53248 287.517043 692.88873 287.517043 
z
M 698.367441 287.517043 
Q 697.370566 287.517043 696.854941 286.985793 
Q 696.340878 286.452981 696.340878 285.499856 
L 696.340878 282.273293 
Q 696.340878 281.315481 696.858066 280.785793 
Q 697.375253 280.256106 698.367441 280.256106 
Q 699.362753 280.256106 699.878378 280.784231 
Q 700.394003 281.310793 700.394003 282.273293 
L 700.394003 285.499856 
Q 700.394003 286.457668 699.875253 286.987356 
Q 699.358066 287.517043 698.367441 287.517043 
z
M 698.367441 286.570168 
Q 698.894003 286.570168 699.145566 286.293606 
Q 699.397128 286.017043 699.397128 285.499856 
L 699.397128 282.273293 
Q 699.397128 281.754543 699.147128 281.479543 
Q 698.898691 281.202981 698.367441 281.202981 
Q 697.834628 281.202981 697.584628 281.479543 
Q 697.336191 281.754543 697.336191 282.273293 
L 697.336191 285.499856 
Q 697.336191 286.017043 697.587753 286.293606 
Q 697.839316 286.570168 698.367441 286.570168 
z
M 703.885019 287.517043 
Q 702.888144 287.517043 702.372519 286.985793 
Q 701.858457 286.452981 701.858457 285.499856 
L 701.858457 282.273293 
Q 701.858457 281.315481 702.375644 280.785793 
Q 702.892832 280.256106 703.885019 280.256106 
Q 704.880332 280.256106 705.395957 280.784231 
Q 705.911582 281.310793 705.911582 282.273293 
L 705.911582 285.499856 
Q 705.911582 286.457668 705.392832 286.987356 
Q 704.875644 287.517043 703.885019 287.517043 
z
M 703.885019 286.570168 
Q 704.411582 286.570168 704.663144 286.293606 
Q 704.914707 286.017043 704.914707 285.499856 
L 704.914707 282.273293 
Q 704.914707 281.754543 704.664707 281.479543 
Q 704.416269 281.202981 703.885019 281.202981 
Q 703.352207 281.202981 703.102207 281.479543 
Q 702.853769 281.754543 702.853769 282.273293 
L 702.853769 285.499856 
Q 702.853769 286.017043 703.105332 286.293606 
Q 703.356894 286.570168 703.885019 286.570168 
z
M 711.624082 287.517043 
Q 710.838144 287.517043 710.278769 287.207668 
Q 709.719394 286.896731 709.425644 286.304543 
Q 709.133457 285.710793 709.133457 284.874856 
L 709.133457 280.343606 
L 710.130332 280.343606 
L 710.130332 284.909231 
Q 710.130332 285.685793 710.520957 286.110793 
Q 710.911582 286.535793 711.624082 286.535793 
Q 712.341269 286.535793 712.733457 286.110793 
Q 713.127207 285.685793 713.127207 284.909231 
L 713.127207 280.343606 
L 714.124082 280.343606 
L 714.124082 284.874856 
Q 714.124082 285.710793 713.830332 286.304543 
Q 713.538144 286.896731 712.975644 287.207668 
Q 712.414707 287.517043 711.624082 287.517043 
z
M 716.683066 286.134231 
Q 716.683066 286.320168 716.762753 286.420168 
Q 716.844003 286.520168 716.989316 286.520168 
L 717.458066 286.520168 
L 717.458066 287.468606 
L 716.872128 287.468606 
Q 716.306503 287.468606 715.995566 287.117043 
Q 715.686191 286.765481 715.686191 286.124856 
L 715.686191 280.343606 
L 716.683066 280.343606 
L 716.683066 286.134231 
z
M 719.900449 287.468606 
Q 719.284824 287.468606 718.998886 287.129543 
Q 718.712949 286.788918 718.712949 286.124856 
L 718.712949 280.899856 
L 719.709824 280.899856 
L 719.709824 286.134231 
Q 719.709824 286.320168 719.783261 286.420168 
Q 719.856699 286.520168 719.997324 286.520168 
L 720.477011 286.520168 
L 720.477011 287.468606 
L 719.900449 287.468606 
z
M 718.191074 282.374856 
L 720.477011 282.374856 
L 720.477011 283.273293 
L 718.191074 283.273293 
L 718.191074 282.374856 
z
M 721.843417 282.374856 
L 722.840293 282.374856 
L 722.840293 287.443606 
L 721.843417 287.443606 
L 721.843417 282.374856 
z
M 724.630918 283.576418 
Q 724.499667 283.415481 724.299667 283.332668 
Q 724.099668 283.249856 723.835605 283.249856 
Q 723.362167 283.249856 723.10123 283.510793 
Q 722.840293 283.771731 722.840293 284.235793 
L 722.737167 283.259231 
Q 722.971542 282.804543 723.341855 282.552981 
Q 723.71373 282.301418 724.162168 282.301418 
Q 724.509042 282.301418 724.790292 282.401418 
Q 725.071542 282.501418 725.280917 282.696731 
L 724.630918 283.576418 
z
M 728.971933 284.231106 
Q 728.971933 283.732668 728.706308 283.457668 
Q 728.440683 283.181106 727.951621 283.181106 
Q 727.648496 283.181106 727.357871 283.274856 
Q 727.068808 283.367043 726.843808 283.532668 
L 726.115683 283.034231 
Q 726.404746 282.687356 726.875058 282.495168 
Q 727.346933 282.301418 727.921933 282.301418 
Q 728.553183 282.301418 729.001621 282.524856 
Q 729.451621 282.746731 729.685996 283.168606 
Q 729.920371 283.590481 729.920371 284.187356 
L 729.920371 287.443606 
L 728.971933 287.443606 
L 728.971933 284.231106 
z
M 727.732871 287.517043 
Q 726.795371 287.517043 726.331308 287.129543 
Q 725.867246 286.740481 725.867246 285.949856 
Q 725.867246 285.196731 726.292246 284.821731 
Q 726.717246 284.445168 727.576621 284.445168 
L 729.015683 284.445168 
L 729.084433 285.246731 
L 727.581308 285.246731 
Q 727.190683 285.246731 726.996933 285.420168 
Q 726.804746 285.593606 726.804746 285.949856 
Q 726.804746 286.335793 727.060996 286.521731 
Q 727.317246 286.706106 727.839121 286.706106 
Q 728.410996 286.706106 728.690683 286.584231 
Q 728.971933 286.462356 728.971933 286.202981 
L 729.075058 286.915481 
Q 728.943808 287.121731 728.750058 287.252981 
Q 728.557871 287.384231 728.303183 287.449856 
Q 728.050058 287.517043 727.732871 287.517043 
z
" style="fill: #ffffff; stroke: #000000"/>
    <path d="M 679.685605 286.496731 
L 681.291855 286.496731 
Q 682.077792 286.496731 682.509042 286.088918 
Q 682.941855 285.681106 682.941855 284.938918 
L 682.941855 282.848293 
Q 682.941855 282.106106 682.509042 281.698293 
Q 682.077792 281.290481 681.291855 281.290481 
L 679.685605 281.290481 
L 679.685605 280.343606 
L 681.262168 280.343606 
Q 682.116855 280.343606 682.721542 280.642043 
Q 683.327792 280.938918 683.64498 281.510793 
Q 683.962167 282.082668 683.962167 282.887356 
L 683.962167 284.899856 
Q 683.962167 285.704543 683.64498 286.276418 
Q 683.327792 286.848293 682.71998 287.146731 
Q 682.112167 287.443606 681.25748 287.443606 
L 679.685605 287.443606 
L 679.685605 286.496731 
z
M 679.012168 280.343606 
L 680.00748 280.343606 
L 680.00748 287.443606 
L 679.012168 287.443606 
L 679.012168 280.343606 
z
M 687.50748 287.517043 
Q 686.86373 287.517043 686.374667 287.273293 
Q 685.887168 287.027981 685.61998 286.581106 
Q 685.354355 286.134231 685.354355 285.543606 
L 685.354355 285.426418 
Q 685.354355 284.895168 685.61998 284.426418 
Q 685.887168 283.957668 686.330917 283.718606 
Q 685.954355 283.512356 685.727792 283.124856 
Q 685.50123 282.735793 685.50123 282.306106 
L 685.50123 282.135793 
Q 685.50123 281.579543 685.749667 281.157668 
Q 685.998105 280.734231 686.452792 280.502981 
Q 686.90748 280.270168 687.50748 280.270168 
Q 688.10748 280.270168 688.562167 280.502981 
Q 689.016855 280.734231 689.265292 281.157668 
Q 689.51373 281.579543 689.51373 282.135793 
L 689.51373 282.306106 
Q 689.51373 282.746731 689.28248 283.132668 
Q 689.05123 283.517043 688.66998 283.718606 
Q 689.118417 283.962356 689.38873 284.429543 
Q 689.660605 284.895168 689.660605 285.426418 
L 689.660605 285.543606 
Q 689.660605 286.134231 689.39498 286.581106 
Q 689.129355 287.027981 688.640292 287.273293 
Q 688.152793 287.517043 687.50748 287.517043 
z
M 687.50748 286.559231 
Q 687.854355 286.559231 688.116855 286.423293 
Q 688.380918 286.285793 688.524667 286.040481 
Q 688.66998 285.793606 688.66998 285.470168 
L 688.66998 285.402981 
Q 688.66998 285.074856 688.524667 284.829543 
Q 688.380918 284.582668 688.116855 284.446731 
Q 687.854355 284.309231 687.50748 284.309231 
Q 687.160605 284.309231 686.896543 284.446731 
Q 686.634042 284.582668 686.48873 284.831106 
Q 686.34498 285.079543 686.34498 285.407668 
L 686.34498 285.481106 
Q 686.34498 285.802981 686.48873 286.046731 
Q 686.634042 286.290481 686.896543 286.424856 
Q 687.160605 286.559231 687.50748 286.559231 
z
M 687.50748 283.351418 
Q 687.805917 283.351418 688.034042 283.223293 
Q 688.26373 283.093606 688.390292 282.854543 
Q 688.518417 282.613918 688.518417 282.301418 
L 688.518417 282.234231 
Q 688.518417 281.935793 688.390292 281.706106 
Q 688.26373 281.476418 688.034042 281.352981 
Q 687.805917 281.227981 687.50748 281.227981 
Q 687.209043 281.227981 686.979355 281.352981 
Q 686.75123 281.476418 686.623105 281.706106 
Q 686.496543 281.935793 686.496543 282.238918 
L 686.496543 282.312356 
Q 686.496543 282.618606 686.623105 282.856106 
Q 686.75123 283.093606 686.979355 283.223293 
Q 687.209043 283.351418 687.50748 283.351418 
z
M 692.88873 287.517043 
Q 692.293418 287.517043 691.83873 287.299856 
Q 691.384042 287.082668 691.10748 286.670168 
Q 690.83248 286.257668 690.759042 285.676418 
L 690.759042 285.676418 
L 691.774667 285.676418 
L 691.774667 285.676418 
Q 691.818418 285.977981 691.965293 286.173293 
Q 692.112167 286.368606 692.343417 286.463918 
Q 692.57623 286.559231 692.88873 286.559231 
Q 693.380918 286.559231 693.654355 286.296731 
Q 693.927793 286.032668 693.927793 285.554543 
L 693.927793 285.338918 
Q 693.927793 284.806106 693.668418 284.517043 
Q 693.410605 284.226418 692.937167 284.226418 
L 692.434043 284.226418 
L 692.434043 283.277981 
L 692.937167 283.277981 
Q 693.352792 283.277981 693.580917 283.029543 
Q 693.810605 282.781106 693.810605 282.326418 
L 693.810605 282.106106 
Q 693.810605 281.687356 693.568418 281.457668 
Q 693.327792 281.227981 692.884042 281.227981 
Q 692.629355 281.227981 692.429355 281.323293 
Q 692.229355 281.418606 692.090293 281.617043 
Q 691.95123 281.813918 691.887168 282.110793 
L 691.887168 282.110793 
L 690.87623 282.110793 
L 690.87623 282.110793 
Q 690.974668 281.531106 691.24498 281.115481 
Q 691.516855 280.699856 691.930917 280.485793 
Q 692.346542 280.270168 692.884042 280.270168 
Q 693.80123 280.270168 694.304355 280.754543 
Q 694.80748 281.237356 694.80748 282.117043 
L 694.80748 282.234231 
Q 694.80748 282.765481 694.518417 283.160793 
Q 694.230918 283.556106 693.704355 283.737356 
Q 694.285605 283.863918 694.604355 284.309231 
Q 694.924667 284.752981 694.924667 285.442043 
L 694.924667 285.559231 
Q 694.924667 286.179543 694.685605 286.618606 
Q 694.446542 287.057668 693.98873 287.287356 
Q 693.53248 287.517043 692.88873 287.517043 
z
M 698.367441 287.517043 
Q 697.370566 287.517043 696.854941 286.985793 
Q 696.340878 286.452981 696.340878 285.499856 
L 696.340878 282.273293 
Q 696.340878 281.315481 696.858066 280.785793 
Q 697.375253 280.256106 698.367441 280.256106 
Q 699.362753 280.256106 699.878378 280.784231 
Q 700.394003 281.310793 700.394003 282.273293 
L 700.394003 285.499856 
Q 700.394003 286.457668 699.875253 286.987356 
Q 699.358066 287.517043 698.367441 287.517043 
z
M 698.367441 286.570168 
Q 698.894003 286.570168 699.145566 286.293606 
Q 699.397128 286.017043 699.397128 285.499856 
L 699.397128 282.273293 
Q 699.397128 281.754543 699.147128 281.479543 
Q 698.898691 281.202981 698.367441 281.202981 
Q 697.834628 281.202981 697.584628 281.479543 
Q 697.336191 281.754543 697.336191 282.273293 
L 697.336191 285.499856 
Q 697.336191 286.017043 697.587753 286.293606 
Q 697.839316 286.570168 698.367441 286.570168 
z
M 703.885019 287.517043 
Q 702.888144 287.517043 702.372519 286.985793 
Q 701.858457 286.452981 701.858457 285.499856 
L 701.858457 282.273293 
Q 701.858457 281.315481 702.375644 280.785793 
Q 702.892832 280.256106 703.885019 280.256106 
Q 704.880332 280.256106 705.395957 280.784231 
Q 705.911582 281.310793 705.911582 282.273293 
L 705.911582 285.499856 
Q 705.911582 286.457668 705.392832 286.987356 
Q 704.875644 287.517043 703.885019 287.517043 
z
M 703.885019 286.570168 
Q 704.411582 286.570168 704.663144 286.293606 
Q 704.914707 286.017043 704.914707 285.499856 
L 704.914707 282.273293 
Q 704.914707 281.754543 704.664707 281.479543 
Q 704.416269 281.202981 703.885019 281.202981 
Q 703.352207 281.202981 703.102207 281.479543 
Q 702.853769 281.754543 702.853769 282.273293 
L 702.853769 285.499856 
Q 702.853769 286.017043 703.105332 286.293606 
Q 703.356894 286.570168 703.885019 286.570168 
z
M 711.624082 287.517043 
Q 710.838144 287.517043 710.278769 287.207668 
Q 709.719394 286.896731 709.425644 286.304543 
Q 709.133457 285.710793 709.133457 284.874856 
L 709.133457 280.343606 
L 710.130332 280.343606 
L 710.130332 284.909231 
Q 710.130332 285.685793 710.520957 286.110793 
Q 710.911582 286.535793 711.624082 286.535793 
Q 712.341269 286.535793 712.733457 286.110793 
Q 713.127207 285.685793 713.127207 284.909231 
L 713.127207 280.343606 
L 714.124082 280.343606 
L 714.124082 284.874856 
Q 714.124082 285.710793 713.830332 286.304543 
Q 713.538144 286.896731 712.975644 287.207668 
Q 712.414707 287.517043 711.624082 287.517043 
z
M 716.683066 286.134231 
Q 716.683066 286.320168 716.762753 286.420168 
Q 716.844003 286.520168 716.989316 286.520168 
L 717.458066 286.520168 
L 717.458066 287.468606 
L 716.872128 287.468606 
Q 716.306503 287.468606 715.995566 287.117043 
Q 715.686191 286.765481 715.686191 286.124856 
L 715.686191 280.343606 
L 716.683066 280.343606 
L 716.683066 286.134231 
z
M 719.900449 287.468606 
Q 719.284824 287.468606 718.998886 287.129543 
Q 718.712949 286.788918 718.712949 286.124856 
L 718.712949 280.899856 
L 719.709824 280.899856 
L 719.709824 286.134231 
Q 719.709824 286.320168 719.783261 286.420168 
Q 719.856699 286.520168 719.997324 286.520168 
L 720.477011 286.520168 
L 720.477011 287.468606 
L 719.900449 287.468606 
z
M 718.191074 282.374856 
L 720.477011 282.374856 
L 720.477011 283.273293 
L 718.191074 283.273293 
L 718.191074 282.374856 
z
M 721.843417 282.374856 
L 722.840293 282.374856 
L 722.840293 287.443606 
L 721.843417 287.443606 
L 721.843417 282.374856 
z
M 724.630918 283.576418 
Q 724.499667 283.415481 724.299667 283.332668 
Q 724.099668 283.249856 723.835605 283.249856 
Q 723.362167 283.249856 723.10123 283.510793 
Q 722.840293 283.771731 722.840293 284.235793 
L 722.737167 283.259231 
Q 722.971542 282.804543 723.341855 282.552981 
Q 723.71373 282.301418 724.162168 282.301418 
Q 724.509042 282.301418 724.790292 282.401418 
Q 725.071542 282.501418 725.280917 282.696731 
L 724.630918 283.576418 
z
M 728.971933 284.231106 
Q 728.971933 283.732668 728.706308 283.457668 
Q 728.440683 283.181106 727.951621 283.181106 
Q 727.648496 283.181106 727.357871 283.274856 
Q 727.068808 283.367043 726.843808 283.532668 
L 726.115683 283.034231 
Q 726.404746 282.687356 726.875058 282.495168 
Q 727.346933 282.301418 727.921933 282.301418 
Q 728.553183 282.301418 729.001621 282.524856 
Q 729.451621 282.746731 729.685996 283.168606 
Q 729.920371 283.590481 729.920371 284.187356 
L 729.920371 287.443606 
L 728.971933 287.443606 
L 728.971933 284.231106 
z
M 727.732871 287.517043 
Q 726.795371 287.517043 726.331308 287.129543 
Q 725.867246 286.740481 725.867246 285.949856 
Q 725.867246 285.196731 726.292246 284.821731 
Q 726.717246 284.445168 727.576621 284.445168 
L 729.015683 284.445168 
L 729.084433 285.246731 
L 727.581308 285.246731 
Q 727.190683 285.246731 726.996933 285.420168 
Q 726.804746 285.593606 726.804746 285.949856 
Q 726.804746 286.335793 727.060996 286.521731 
Q 727.317246 286.706106 727.839121 286.706106 
Q 728.410996 286.706106 728.690683 286.584231 
Q 728.971933 286.462356 728.971933 286.202981 
L 729.075058 286.915481 
Q 728.943808 287.121731 728.750058 287.252981 
Q 728.557871 287.384231 728.303183 287.449856 
Q 728.050058 287.517043 727.732871 287.517043 
z
" style="fill: #ffffff"/>
   </g>
  </g>
 </g>
 <defs>
  <clipPath id="p0e8c4856e4">
   <rect x="144" y="77.76" width="892.8" height="498.96"/>
  </clipPath>
 </defs>
</svg>
