<?xml version="1.0" encoding="utf-8" standalone="no"?>
<!DOCTYPE svg PUBLIC "-//W3C//DTD SVG 1.1//EN"
  "http://www.w3.org/Graphics/SVG/1.1/DTD/svg11.dtd">
<svg xmlns:xlink="http://www.w3.org/1999/xlink" width="1152pt" height="648pt" viewBox="0 0 1152 648" xmlns="http://www.w3.org/2000/svg" version="1.1">
 <metadata>
  <rdf:RDF xmlns:dc="http://purl.org/dc/elements/1.1/" xmlns:cc="http://creativecommons.org/ns#" xmlns:rdf="http://www.w3.org/1999/02/22-rdf-syntax-ns#">
   <cc:Work>
    <dc:type rdf:resource="http://purl.org/dc/dcmitype/StillImage"/>
    <dc:date>2024-11-15T16:34:25.478007</dc:date>
    <dc:format>image/svg+xml</dc:format>
    <dc:creator>
     <cc:Agent>
      <dc:title>Matplotlib v3.9.2, https://matplotlib.org/</dc:title>
     </cc:Agent>
    </dc:creator>
   </cc:Work>
  </rdf:RDF>
 </metadata>
 <defs>
  <style type="text/css">*{stroke-linejoin: round; stroke-linecap: butt}</style>
 </defs>
 <g id="figure_1">
  <g id="patch_1">
   <path d="M 0 648 
L 1152 648 
L 1152 0 
L 0 0 
L 0 648 
z
" style="fill: none"/>
  </g>
  <g id="axes_1">
   <g id="line2d_1">
    <path d="M 226.786909 477.217761 
L 231.09514 470.507224 
L 235.403372 463.979058 
L 239.711603 457.628318 
L 244.019835 451.450195 
L 248.328066 445.440005 
L 252.636298 439.593196 
L 256.944529 433.905335 
L 261.25276 428.372111 
L 265.560992 422.989328 
L 269.869223 417.752903 
L 274.177455 412.658866 
L 278.485686 407.703351 
L 282.793917 402.882598 
L 287.102149 398.19295 
L 291.41038 393.630847 
L 295.718612 389.192827 
L 300.026843 384.875519 
L 304.335074 380.675645 
L 308.643306 376.590017 
L 312.951537 372.615532 
L 317.259769 368.749169 
L 321.568 364.987993 
L 325.876231 361.329146 
L 330.184463 357.769846 
L 334.492694 354.30739 
L 338.800926 350.939146 
L 343.109157 347.662553 
L 347.417388 344.475121 
L 351.72562 341.374426 
L 356.033851 338.358111 
L 360.342083 335.423882 
L 364.650314 332.569508 
L 368.958545 329.792817 
L 373.266777 327.091698 
L 377.575008 324.464095 
L 381.88324 321.908011 
L 386.191471 319.4215 
L 390.499702 317.002669 
L 394.807934 314.64968 
L 399.116165 312.36074 
L 403.424397 310.134109 
L 407.732628 307.968091 
L 412.04086 305.861037 
L 416.349091 303.811344 
L 420.657322 301.817452 
L 424.965554 299.877841 
L 429.273785 297.991037 
L 433.582017 296.155601 
L 437.890248 294.370137 
L 442.198479 292.633284 
L 446.506711 290.943721 
L 450.814942 289.30016 
L 455.123174 287.701349 
L 459.431405 286.146072 
L 463.739636 284.633142 
L 468.047868 283.161409 
L 472.356099 281.72975 
L 476.664331 280.337075 
L 480.972562 278.982323 
L 485.280793 277.664462 
L 489.589025 276.382488 
L 493.897256 275.135424 
L 498.205488 273.92232 
L 502.513719 272.742251 
L 506.82195 271.594318 
L 511.130182 270.477647 
L 515.438413 269.391386 
L 519.746645 268.334708 
L 524.054876 267.306807 
L 528.363107 266.3069 
L 532.671339 265.334225 
L 536.97957 264.388041 
L 541.287802 263.467625 
L 545.596033 262.572277 
L 549.904264 261.701314 
L 554.212496 260.854073 
L 558.520727 260.029906 
L 562.828959 259.228187 
L 567.13719 258.448304 
L 571.445421 257.689662 
L 575.753653 256.951683 
L 580.061884 256.233804 
L 584.370116 255.535478 
L 588.678347 254.856173 
L 592.986579 254.19537 
L 597.29481 253.552566 
L 601.603041 252.927271 
L 605.911273 252.319008 
L 610.219504 251.727312 
L 614.527736 251.151734 
L 618.835967 250.591833 
L 623.144198 250.047183 
L 627.45243 249.517369 
L 631.760661 249.001987 
L 636.068893 248.500643 
L 640.377124 248.012956 
L 644.685355 247.538553 
L 648.993587 247.077072 
L 653.301818 246.628162 
" clip-path="url(#p2f0cb74064)" style="fill: none; stroke: #f2a179; stroke-width: 3; stroke-linecap: round"/>
   </g>
   <g id="text_1">
    <path d="M 660.747423 247.327855 
L 662.353673 247.327855 
Q 663.139611 247.327855 663.570861 246.920043 
Q 664.003673 246.51223 664.003673 245.770043 
L 664.003673 243.679418 
Q 664.003673 242.93723 663.570861 242.529418 
Q 663.139611 242.121605 662.353673 242.121605 
L 660.747423 242.121605 
L 660.747423 241.17473 
L 662.323986 241.17473 
Q 663.178673 241.17473 663.783361 241.473168 
Q 664.389611 241.770043 664.706798 242.341918 
Q 665.023986 242.913793 665.023986 243.71848 
L 665.023986 245.73098 
Q 665.023986 246.535668 664.706798 247.107543 
Q 664.389611 247.679418 663.781798 247.977855 
Q 663.173986 248.27473 662.319298 248.27473 
L 660.747423 248.27473 
L 660.747423 247.327855 
z
M 660.073986 241.17473 
L 661.069298 241.17473 
L 661.069298 248.27473 
L 660.073986 248.27473 
L 660.073986 241.17473 
z
M 669.003673 244.74973 
L 668.998986 244.92473 
Q 668.877111 245.14973 668.630236 245.254418 
Q 668.383361 245.359105 668.047423 245.359105 
Q 667.539611 245.359105 667.153673 245.101293 
Q 666.767736 244.841918 666.555236 244.371605 
Q 666.342736 243.89973 666.342736 243.279418 
L 666.342736 243.27473 
Q 666.342736 242.585668 666.573986 242.098168 
Q 666.806798 241.609105 667.253673 241.35598 
Q 667.700548 241.101293 668.325548 241.101293 
Q 668.950548 241.101293 669.394298 241.360668 
Q 669.839611 241.620043 670.070861 242.113793 
Q 670.302111 242.60598 670.302111 243.29973 
L 670.302111 243.304418 
Q 670.302111 243.684105 670.203673 244.116918 
Q 670.106798 244.54973 669.927111 244.973168 
Q 669.897423 245.03723 669.867736 245.102855 
Q 669.839611 245.16848 669.805236 245.232543 
L 668.291173 248.27473 
L 667.216173 248.27473 
L 669.003673 244.74973 
z
M 668.325548 244.451293 
Q 668.794298 244.451293 669.050548 244.134105 
Q 669.306798 243.816918 669.306798 243.240355 
L 669.306798 243.235668 
Q 669.306798 242.67473 669.050548 242.366918 
Q 668.794298 242.059105 668.325548 242.059105 
Q 667.852111 242.059105 667.595861 242.366918 
Q 667.339611 242.67473 667.339611 243.240355 
L 667.339611 243.245043 
Q 667.339611 243.821605 667.595861 244.13723 
Q 667.852111 244.451293 668.325548 244.451293 
z
M 673.457384 248.348168 
Q 672.862072 248.348168 672.407384 248.13098 
Q 671.952697 247.913793 671.676134 247.501293 
Q 671.401134 247.088793 671.327697 246.507543 
L 671.327697 246.507543 
L 672.343322 246.507543 
L 672.343322 246.507543 
Q 672.387072 246.809105 672.533947 247.004418 
Q 672.680822 247.19973 672.912072 247.295043 
Q 673.144884 247.390355 673.457384 247.390355 
Q 673.949572 247.390355 674.223009 247.127855 
Q 674.496447 246.863793 674.496447 246.385668 
L 674.496447 246.170043 
Q 674.496447 245.63723 674.237072 245.348168 
Q 673.979259 245.057543 673.505822 245.057543 
L 673.002697 245.057543 
L 673.002697 244.109105 
L 673.505822 244.109105 
Q 673.921447 244.109105 674.149572 243.860668 
Q 674.379259 243.61223 674.379259 243.157543 
L 674.379259 242.93723 
Q 674.379259 242.51848 674.137072 242.288793 
Q 673.896447 242.059105 673.452697 242.059105 
Q 673.198009 242.059105 672.998009 242.154418 
Q 672.798009 242.24973 672.658947 242.448168 
Q 672.519884 242.645043 672.455822 242.941918 
L 672.455822 242.941918 
L 671.444884 242.941918 
L 671.444884 242.941918 
Q 671.543322 242.36223 671.813634 241.946605 
Q 672.085509 241.53098 672.499572 241.316918 
Q 672.915197 241.101293 673.452697 241.101293 
Q 674.369884 241.101293 674.873009 241.585668 
Q 675.376134 242.06848 675.376134 242.948168 
L 675.376134 243.065355 
Q 675.376134 243.596605 675.087072 243.991918 
Q 674.799572 244.38723 674.273009 244.56848 
Q 674.854259 244.695043 675.173009 245.140355 
Q 675.493322 245.584105 675.493322 246.273168 
L 675.493322 246.390355 
Q 675.493322 247.010668 675.254259 247.44973 
Q 675.015197 247.888793 674.557384 248.11848 
Q 674.101134 248.348168 673.457384 248.348168 
z
M 678.936095 248.348168 
Q 677.93922 248.348168 677.423595 247.816918 
Q 676.909533 247.284105 676.909533 246.33098 
L 676.909533 243.104418 
Q 676.909533 242.146605 677.42672 241.616918 
Q 677.943908 241.08723 678.936095 241.08723 
Q 679.931408 241.08723 680.447033 241.615355 
Q 680.962658 242.141918 680.962658 243.104418 
L 680.962658 246.33098 
Q 680.962658 247.288793 680.443908 247.81848 
Q 679.92672 248.348168 678.936095 248.348168 
z
M 678.936095 247.401293 
Q 679.462658 247.401293 679.71422 247.12473 
Q 679.965783 246.848168 679.965783 246.33098 
L 679.965783 243.104418 
Q 679.965783 242.585668 679.715783 242.310668 
Q 679.467345 242.034105 678.936095 242.034105 
Q 678.403283 242.034105 678.153283 242.310668 
Q 677.904845 242.585668 677.904845 243.104418 
L 677.904845 246.33098 
Q 677.904845 246.848168 678.156408 247.12473 
Q 678.40797 247.401293 678.936095 247.401293 
z
M 684.453673 248.348168 
Q 683.456798 248.348168 682.941173 247.816918 
Q 682.427111 247.284105 682.427111 246.33098 
L 682.427111 243.104418 
Q 682.427111 242.146605 682.944298 241.616918 
Q 683.461486 241.08723 684.453673 241.08723 
Q 685.448986 241.08723 685.964611 241.615355 
Q 686.480236 242.141918 686.480236 243.104418 
L 686.480236 246.33098 
Q 686.480236 247.288793 685.961486 247.81848 
Q 685.444298 248.348168 684.453673 248.348168 
z
M 684.453673 247.401293 
Q 684.980236 247.401293 685.231798 247.12473 
Q 685.483361 246.848168 685.483361 246.33098 
L 685.483361 243.104418 
Q 685.483361 242.585668 685.233361 242.310668 
Q 684.984923 242.034105 684.453673 242.034105 
Q 683.920861 242.034105 683.670861 242.310668 
Q 683.422423 242.585668 683.422423 243.104418 
L 683.422423 246.33098 
Q 683.422423 246.848168 683.673986 247.12473 
Q 683.925548 247.401293 684.453673 247.401293 
z
M 691.860314 244.529418 
L 691.860314 245.476293 
L 687.896251 245.476293 
L 687.896251 244.529418 
L 691.860314 244.529418 
z
M 690.375939 246.985668 
L 689.380626 246.985668 
L 689.380626 243.020043 
L 690.375939 243.020043 
L 690.375939 246.985668 
z
" style="fill: #ffffff; stroke: #000000"/>
    <path d="M 660.747423 247.327855 
L 662.353673 247.327855 
Q 663.139611 247.327855 663.570861 246.920043 
Q 664.003673 246.51223 664.003673 245.770043 
L 664.003673 243.679418 
Q 664.003673 242.93723 663.570861 242.529418 
Q 663.139611 242.121605 662.353673 242.121605 
L 660.747423 242.121605 
L 660.747423 241.17473 
L 662.323986 241.17473 
Q 663.178673 241.17473 663.783361 241.473168 
Q 664.389611 241.770043 664.706798 242.341918 
Q 665.023986 242.913793 665.023986 243.71848 
L 665.023986 245.73098 
Q 665.023986 246.535668 664.706798 247.107543 
Q 664.389611 247.679418 663.781798 247.977855 
Q 663.173986 248.27473 662.319298 248.27473 
L 660.747423 248.27473 
L 660.747423 247.327855 
z
M 660.073986 241.17473 
L 661.069298 241.17473 
L 661.069298 248.27473 
L 660.073986 248.27473 
L 660.073986 241.17473 
z
M 669.003673 244.74973 
L 668.998986 244.92473 
Q 668.877111 245.14973 668.630236 245.254418 
Q 668.383361 245.359105 668.047423 245.359105 
Q 667.539611 245.359105 667.153673 245.101293 
Q 666.767736 244.841918 666.555236 244.371605 
Q 666.342736 243.89973 666.342736 243.279418 
L 666.342736 243.27473 
Q 666.342736 242.585668 666.573986 242.098168 
Q 666.806798 241.609105 667.253673 241.35598 
Q 667.700548 241.101293 668.325548 241.101293 
Q 668.950548 241.101293 669.394298 241.360668 
Q 669.839611 241.620043 670.070861 242.113793 
Q 670.302111 242.60598 670.302111 243.29973 
L 670.302111 243.304418 
Q 670.302111 243.684105 670.203673 244.116918 
Q 670.106798 244.54973 669.927111 244.973168 
Q 669.897423 245.03723 669.867736 245.102855 
Q 669.839611 245.16848 669.805236 245.232543 
L 668.291173 248.27473 
L 667.216173 248.27473 
L 669.003673 244.74973 
z
M 668.325548 244.451293 
Q 668.794298 244.451293 669.050548 244.134105 
Q 669.306798 243.816918 669.306798 243.240355 
L 669.306798 243.235668 
Q 669.306798 242.67473 669.050548 242.366918 
Q 668.794298 242.059105 668.325548 242.059105 
Q 667.852111 242.059105 667.595861 242.366918 
Q 667.339611 242.67473 667.339611 243.240355 
L 667.339611 243.245043 
Q 667.339611 243.821605 667.595861 244.13723 
Q 667.852111 244.451293 668.325548 244.451293 
z
M 673.457384 248.348168 
Q 672.862072 248.348168 672.407384 248.13098 
Q 671.952697 247.913793 671.676134 247.501293 
Q 671.401134 247.088793 671.327697 246.507543 
L 671.327697 246.507543 
L 672.343322 246.507543 
L 672.343322 246.507543 
Q 672.387072 246.809105 672.533947 247.004418 
Q 672.680822 247.19973 672.912072 247.295043 
Q 673.144884 247.390355 673.457384 247.390355 
Q 673.949572 247.390355 674.223009 247.127855 
Q 674.496447 246.863793 674.496447 246.385668 
L 674.496447 246.170043 
Q 674.496447 245.63723 674.237072 245.348168 
Q 673.979259 245.057543 673.505822 245.057543 
L 673.002697 245.057543 
L 673.002697 244.109105 
L 673.505822 244.109105 
Q 673.921447 244.109105 674.149572 243.860668 
Q 674.379259 243.61223 674.379259 243.157543 
L 674.379259 242.93723 
Q 674.379259 242.51848 674.137072 242.288793 
Q 673.896447 242.059105 673.452697 242.059105 
Q 673.198009 242.059105 672.998009 242.154418 
Q 672.798009 242.24973 672.658947 242.448168 
Q 672.519884 242.645043 672.455822 242.941918 
L 672.455822 242.941918 
L 671.444884 242.941918 
L 671.444884 242.941918 
Q 671.543322 242.36223 671.813634 241.946605 
Q 672.085509 241.53098 672.499572 241.316918 
Q 672.915197 241.101293 673.452697 241.101293 
Q 674.369884 241.101293 674.873009 241.585668 
Q 675.376134 242.06848 675.376134 242.948168 
L 675.376134 243.065355 
Q 675.376134 243.596605 675.087072 243.991918 
Q 674.799572 244.38723 674.273009 244.56848 
Q 674.854259 244.695043 675.173009 245.140355 
Q 675.493322 245.584105 675.493322 246.273168 
L 675.493322 246.390355 
Q 675.493322 247.010668 675.254259 247.44973 
Q 675.015197 247.888793 674.557384 248.11848 
Q 674.101134 248.348168 673.457384 248.348168 
z
M 678.936095 248.348168 
Q 677.93922 248.348168 677.423595 247.816918 
Q 676.909533 247.284105 676.909533 246.33098 
L 676.909533 243.104418 
Q 676.909533 242.146605 677.42672 241.616918 
Q 677.943908 241.08723 678.936095 241.08723 
Q 679.931408 241.08723 680.447033 241.615355 
Q 680.962658 242.141918 680.962658 243.104418 
L 680.962658 246.33098 
Q 680.962658 247.288793 680.443908 247.81848 
Q 679.92672 248.348168 678.936095 248.348168 
z
M 678.936095 247.401293 
Q 679.462658 247.401293 679.71422 247.12473 
Q 679.965783 246.848168 679.965783 246.33098 
L 679.965783 243.104418 
Q 679.965783 242.585668 679.715783 242.310668 
Q 679.467345 242.034105 678.936095 242.034105 
Q 678.403283 242.034105 678.153283 242.310668 
Q 677.904845 242.585668 677.904845 243.104418 
L 677.904845 246.33098 
Q 677.904845 246.848168 678.156408 247.12473 
Q 678.40797 247.401293 678.936095 247.401293 
z
M 684.453673 248.348168 
Q 683.456798 248.348168 682.941173 247.816918 
Q 682.427111 247.284105 682.427111 246.33098 
L 682.427111 243.104418 
Q 682.427111 242.146605 682.944298 241.616918 
Q 683.461486 241.08723 684.453673 241.08723 
Q 685.448986 241.08723 685.964611 241.615355 
Q 686.480236 242.141918 686.480236 243.104418 
L 686.480236 246.33098 
Q 686.480236 247.288793 685.961486 247.81848 
Q 685.444298 248.348168 684.453673 248.348168 
z
M 684.453673 247.401293 
Q 684.980236 247.401293 685.231798 247.12473 
Q 685.483361 246.848168 685.483361 246.33098 
L 685.483361 243.104418 
Q 685.483361 242.585668 685.233361 242.310668 
Q 684.984923 242.034105 684.453673 242.034105 
Q 683.920861 242.034105 683.670861 242.310668 
Q 683.422423 242.585668 683.422423 243.104418 
L 683.422423 246.33098 
Q 683.422423 246.848168 683.673986 247.12473 
Q 683.925548 247.401293 684.453673 247.401293 
z
M 691.860314 244.529418 
L 691.860314 245.476293 
L 687.896251 245.476293 
L 687.896251 244.529418 
L 691.860314 244.529418 
z
M 690.375939 246.985668 
L 689.380626 246.985668 
L 689.380626 243.020043 
L 690.375939 243.020043 
L 690.375939 246.985668 
z
" style="fill: #ffffff"/>
   </g>
  </g>
 </g>
 <defs>
  <clipPath id="p2f0cb74064">
   <rect x="144" y="77.76" width="892.8" height="498.96"/>
  </clipPath>
 </defs>
</svg>
