<?xml version="1.0" encoding="utf-8" standalone="no"?>
<!DOCTYPE svg PUBLIC "-//W3C//DTD SVG 1.1//EN"
  "http://www.w3.org/Graphics/SVG/1.1/DTD/svg11.dtd">
<svg xmlns:xlink="http://www.w3.org/1999/xlink" width="1152pt" height="648pt" viewBox="0 0 1152 648" xmlns="http://www.w3.org/2000/svg" version="1.1">
 <metadata>
  <rdf:RDF xmlns:dc="http://purl.org/dc/elements/1.1/" xmlns:cc="http://creativecommons.org/ns#" xmlns:rdf="http://www.w3.org/1999/02/22-rdf-syntax-ns#">
   <cc:Work>
    <dc:type rdf:resource="http://purl.org/dc/dcmitype/StillImage"/>
    <dc:date>2024-11-15T16:34:25.976322</dc:date>
    <dc:format>image/svg+xml</dc:format>
    <dc:creator>
     <cc:Agent>
      <dc:title>Matplotlib v3.9.2, https://matplotlib.org/</dc:title>
     </cc:Agent>
    </dc:creator>
   </cc:Work>
  </rdf:RDF>
 </metadata>
 <defs>
  <style type="text/css">*{stroke-linejoin: round; stroke-linecap: butt}</style>
 </defs>
 <g id="figure_1">
  <g id="patch_1">
   <path d="M 0 648 
L 1152 648 
L 1152 0 
L 0 0 
L 0 648 
z
" style="fill: none"/>
  </g>
  <g id="axes_1">
   <g id="line2d_1">
    <path d="M 244.237091 485.666075 
L 248.438744 480.533071 
L 252.640397 475.419794 
L 256.84205 470.331465 
L 261.043702 465.273201 
L 265.245355 460.249998 
L 269.447008 455.266708 
L 273.648661 450.328024 
L 277.850314 445.438462 
L 282.051967 440.602348 
L 286.25362 435.823802 
L 290.455273 431.106727 
L 294.656926 426.4548 
L 298.858579 421.871461 
L 303.060231 417.359908 
L 307.261884 412.923092 
L 311.463537 408.563712 
L 315.66519 404.284214 
L 319.866843 400.086792 
L 324.068496 395.973386 
L 328.270149 391.945687 
L 332.471802 388.00514 
L 336.673455 384.15295 
L 340.875107 380.390085 
L 345.07676 376.717289 
L 349.278413 373.135084 
L 353.480066 369.643781 
L 357.681719 366.24349 
L 361.883372 362.934129 
L 366.085025 359.715435 
L 370.286678 356.586974 
L 374.488331 353.548152 
L 378.689983 350.598225 
L 382.891636 347.736311 
L 387.093289 344.961401 
L 391.294942 342.272369 
L 395.496595 339.667983 
L 399.698248 337.146915 
L 403.899901 334.707751 
L 408.101554 332.349003 
L 412.303207 330.069112 
L 416.50486 327.866466 
L 420.706512 325.7394 
L 424.908165 323.686211 
L 429.109818 321.705161 
L 433.311471 319.794485 
L 437.513124 317.9524 
L 441.714777 316.17711 
L 445.91643 314.46681 
L 450.118083 312.819695 
L 454.319736 311.233962 
L 458.521388 309.707817 
L 462.723041 308.239476 
L 466.924694 306.827173 
L 471.126347 305.469158 
L 475.328 304.163707 
L 479.529653 302.909117 
L 483.731306 301.703716 
L 487.932959 300.545859 
L 492.134612 299.433932 
L 496.336264 298.366356 
L 500.537917 297.341583 
L 504.73957 296.358104 
L 508.941223 295.414443 
L 513.142876 294.509161 
L 517.344529 293.640859 
L 521.546182 292.808172 
L 525.747835 292.009775 
L 529.949488 291.244381 
L 534.15114 290.510739 
L 538.352793 289.807637 
L 542.554446 289.1339 
L 546.756099 288.488392 
L 550.957752 287.870009 
L 555.159405 287.277687 
L 559.361058 286.710395 
L 563.562711 286.16714 
L 567.764364 285.646959 
L 571.966017 285.148926 
L 576.167669 284.672146 
L 580.369322 284.215756 
L 584.570975 283.778925 
L 588.772628 283.360852 
L 592.974281 282.960765 
L 597.175934 282.577922 
L 601.377587 282.211608 
L 605.57924 281.861136 
L 609.780893 281.525844 
L 613.982545 281.205097 
L 618.184198 280.898284 
L 622.385851 280.604818 
L 626.587504 280.324135 
L 630.789157 280.055693 
L 634.99081 279.798973 
L 639.192463 279.553476 
L 643.394116 279.318722 
L 647.595769 279.094253 
L 651.797421 278.879628 
L 655.999074 278.674423 
L 660.200727 278.478235 
" clip-path="url(#p2a16cdfbc9)" style="fill: none; stroke: #30b1f2; stroke-width: 3; stroke-linecap: round"/>
   </g>
   <g id="text_1">
    <path d="M 666.972895 273.024803 
L 667.968207 273.024803 
L 667.968207 280.124803 
L 666.972895 280.124803 
L 666.972895 273.024803 
z
M 667.455707 279.177928 
L 671.53227 279.177928 
L 671.53227 280.124803 
L 667.455707 280.124803 
L 667.455707 279.177928 
z
M 667.455707 276.126365 
L 670.996332 276.126365 
L 670.996332 277.07324 
L 667.455707 277.07324 
L 667.455707 276.126365 
z
M 667.455707 273.024803 
L 671.53227 273.024803 
L 671.53227 273.971678 
L 667.455707 273.971678 
L 667.455707 273.024803 
z
M 672.69477 279.26074 
L 675.16977 275.959178 
Q 675.385395 275.676365 675.504145 275.371678 
Q 675.624457 275.065428 675.624457 274.802928 
L 675.624457 274.79199 
Q 675.624457 274.368553 675.374457 274.134178 
Q 675.12602 273.899803 674.668207 273.899803 
Q 674.23227 273.899803 673.96352 274.156053 
Q 673.696332 274.412303 673.636957 274.881053 
L 673.636957 274.88574 
L 672.60727 274.88574 
L 672.60727 274.881053 
Q 672.69477 274.270115 672.965082 273.838865 
Q 673.236957 273.406053 673.666645 273.17949 
Q 674.096332 272.951365 674.65727 272.951365 
Q 675.293207 272.951365 675.741645 273.168553 
Q 676.191645 273.38574 676.42602 273.801365 
Q 676.660395 274.21699 676.660395 274.802928 
L 676.660395 274.807615 
Q 676.660395 275.182615 676.504145 275.593553 
Q 676.347895 276.002928 676.068207 276.384178 
L 674.01352 279.177928 
L 676.699457 279.177928 
L 676.699457 280.124803 
L 672.69477 280.124803 
L 672.69477 279.26074 
z
M 677.87016 278.171678 
L 680.252973 273.02949 
L 681.279535 273.02949 
L 678.954535 278.112303 
L 682.435785 278.112303 
L 682.435785 279.03574 
L 677.87016 279.03574 
L 677.87016 278.171678 
z
M 680.93266 275.949803 
L 681.904535 275.949803 
L 681.904535 280.12949 
L 680.93266 280.12949 
L 680.93266 275.949803 
z
M 685.683637 280.19824 
Q 684.686762 280.19824 684.171137 279.66699 
Q 683.657074 279.134178 683.657074 278.181053 
L 683.657074 274.95449 
Q 683.657074 273.996678 684.174262 273.46699 
Q 684.691449 272.937303 685.683637 272.937303 
Q 686.678949 272.937303 687.194574 273.465428 
Q 687.710199 273.99199 687.710199 274.95449 
L 687.710199 278.181053 
Q 687.710199 279.138865 687.191449 279.668553 
Q 686.674262 280.19824 685.683637 280.19824 
z
M 685.683637 279.251365 
Q 686.210199 279.251365 686.461762 278.974803 
Q 686.713324 278.69824 686.713324 278.181053 
L 686.713324 274.95449 
Q 686.713324 274.43574 686.463324 274.16074 
Q 686.214887 273.884178 685.683637 273.884178 
Q 685.150824 273.884178 684.900824 274.16074 
Q 684.652387 274.43574 684.652387 274.95449 
L 684.652387 278.181053 
Q 684.652387 278.69824 684.903949 278.974803 
Q 685.155512 279.251365 685.683637 279.251365 
z
M 691.201215 280.19824 
Q 690.20434 280.19824 689.688715 279.66699 
Q 689.174653 279.134178 689.174653 278.181053 
L 689.174653 274.95449 
Q 689.174653 273.996678 689.69184 273.46699 
Q 690.209028 272.937303 691.201215 272.937303 
Q 692.196528 272.937303 692.712153 273.465428 
Q 693.227778 273.99199 693.227778 274.95449 
L 693.227778 278.181053 
Q 693.227778 279.138865 692.709028 279.668553 
Q 692.19184 280.19824 691.201215 280.19824 
z
M 691.201215 279.251365 
Q 691.727778 279.251365 691.97934 278.974803 
Q 692.230903 278.69824 692.230903 278.181053 
L 692.230903 274.95449 
Q 692.230903 274.43574 691.980903 274.16074 
Q 691.732465 273.884178 691.201215 273.884178 
Q 690.668403 273.884178 690.418403 274.16074 
Q 690.169965 274.43574 690.169965 274.95449 
L 690.169965 278.181053 
Q 690.169965 278.69824 690.421528 278.974803 
Q 690.67309 279.251365 691.201215 279.251365 
z
" style="fill: #ffffff; stroke: #000000"/>
    <path d="M 666.972895 273.024803 
L 667.968207 273.024803 
L 667.968207 280.124803 
L 666.972895 280.124803 
L 666.972895 273.024803 
z
M 667.455707 279.177928 
L 671.53227 279.177928 
L 671.53227 280.124803 
L 667.455707 280.124803 
L 667.455707 279.177928 
z
M 667.455707 276.126365 
L 670.996332 276.126365 
L 670.996332 277.07324 
L 667.455707 277.07324 
L 667.455707 276.126365 
z
M 667.455707 273.024803 
L 671.53227 273.024803 
L 671.53227 273.971678 
L 667.455707 273.971678 
L 667.455707 273.024803 
z
M 672.69477 279.26074 
L 675.16977 275.959178 
Q 675.385395 275.676365 675.504145 275.371678 
Q 675.624457 275.065428 675.624457 274.802928 
L 675.624457 274.79199 
Q 675.624457 274.368553 675.374457 274.134178 
Q 675.12602 273.899803 674.668207 273.899803 
Q 674.23227 273.899803 673.96352 274.156053 
Q 673.696332 274.412303 673.636957 274.881053 
L 673.636957 274.88574 
L 672.60727 274.88574 
L 672.60727 274.881053 
Q 672.69477 274.270115 672.965082 273.838865 
Q 673.236957 273.406053 673.666645 273.17949 
Q 674.096332 272.951365 674.65727 272.951365 
Q 675.293207 272.951365 675.741645 273.168553 
Q 676.191645 273.38574 676.42602 273.801365 
Q 676.660395 274.21699 676.660395 274.802928 
L 676.660395 274.807615 
Q 676.660395 275.182615 676.504145 275.593553 
Q 676.347895 276.002928 676.068207 276.384178 
L 674.01352 279.177928 
L 676.699457 279.177928 
L 676.699457 280.124803 
L 672.69477 280.124803 
L 672.69477 279.26074 
z
M 677.87016 278.171678 
L 680.252973 273.02949 
L 681.279535 273.02949 
L 678.954535 278.112303 
L 682.435785 278.112303 
L 682.435785 279.03574 
L 677.87016 279.03574 
L 677.87016 278.171678 
z
M 680.93266 275.949803 
L 681.904535 275.949803 
L 681.904535 280.12949 
L 680.93266 280.12949 
L 680.93266 275.949803 
z
M 685.683637 280.19824 
Q 684.686762 280.19824 684.171137 279.66699 
Q 683.657074 279.134178 683.657074 278.181053 
L 683.657074 274.95449 
Q 683.657074 273.996678 684.174262 273.46699 
Q 684.691449 272.937303 685.683637 272.937303 
Q 686.678949 272.937303 687.194574 273.465428 
Q 687.710199 273.99199 687.710199 274.95449 
L 687.710199 278.181053 
Q 687.710199 279.138865 687.191449 279.668553 
Q 686.674262 280.19824 685.683637 280.19824 
z
M 685.683637 279.251365 
Q 686.210199 279.251365 686.461762 278.974803 
Q 686.713324 278.69824 686.713324 278.181053 
L 686.713324 274.95449 
Q 686.713324 274.43574 686.463324 274.16074 
Q 686.214887 273.884178 685.683637 273.884178 
Q 685.150824 273.884178 684.900824 274.16074 
Q 684.652387 274.43574 684.652387 274.95449 
L 684.652387 278.181053 
Q 684.652387 278.69824 684.903949 278.974803 
Q 685.155512 279.251365 685.683637 279.251365 
z
M 691.201215 280.19824 
Q 690.20434 280.19824 689.688715 279.66699 
Q 689.174653 279.134178 689.174653 278.181053 
L 689.174653 274.95449 
Q 689.174653 273.996678 689.69184 273.46699 
Q 690.209028 272.937303 691.201215 272.937303 
Q 692.196528 272.937303 692.712153 273.465428 
Q 693.227778 273.99199 693.227778 274.95449 
L 693.227778 278.181053 
Q 693.227778 279.138865 692.709028 279.668553 
Q 692.19184 280.19824 691.201215 280.19824 
z
M 691.201215 279.251365 
Q 691.727778 279.251365 691.97934 278.974803 
Q 692.230903 278.69824 692.230903 278.181053 
L 692.230903 274.95449 
Q 692.230903 274.43574 691.980903 274.16074 
Q 691.732465 273.884178 691.201215 273.884178 
Q 690.668403 273.884178 690.418403 274.16074 
Q 690.169965 274.43574 690.169965 274.95449 
L 690.169965 278.181053 
Q 690.169965 278.69824 690.421528 278.974803 
Q 690.67309 279.251365 691.201215 279.251365 
z
" style="fill: #ffffff"/>
   </g>
  </g>
 </g>
 <defs>
  <clipPath id="p2a16cdfbc9">
   <rect x="144" y="77.76" width="892.8" height="498.96"/>
  </clipPath>
 </defs>
</svg>
