<?xml version="1.0" encoding="utf-8" standalone="no"?>
<!DOCTYPE svg PUBLIC "-//W3C//DTD SVG 1.1//EN"
  "http://www.w3.org/Graphics/SVG/1.1/DTD/svg11.dtd">
<svg xmlns:xlink="http://www.w3.org/1999/xlink" width="1152pt" height="648pt" viewBox="0 0 1152 648" xmlns="http://www.w3.org/2000/svg" version="1.1">
 <metadata>
  <rdf:RDF xmlns:dc="http://purl.org/dc/elements/1.1/" xmlns:cc="http://creativecommons.org/ns#" xmlns:rdf="http://www.w3.org/1999/02/22-rdf-syntax-ns#">
   <cc:Work>
    <dc:type rdf:resource="http://purl.org/dc/dcmitype/StillImage"/>
    <dc:date>2024-10-09T18:10:10.525144</dc:date>
    <dc:format>image/svg+xml</dc:format>
    <dc:creator>
     <cc:Agent>
      <dc:title>Matplotlib v3.8.1, https://matplotlib.org/</dc:title>
     </cc:Agent>
    </dc:creator>
   </cc:Work>
  </rdf:RDF>
 </metadata>
 <defs>
  <style type="text/css">*{stroke-linejoin: round; stroke-linecap: butt}</style>
 </defs>
 <g id="figure_1">
  <g id="patch_1">
   <path d="M 0 648 
L 1152 648 
L 1152 0 
L 0 0 
L 0 648 
z
" style="fill: none"/>
  </g>
  <g id="axes_1">
   <g id="line2d_1">
    <path d="M 244.237091 467.455291 
L 248.438744 461.295686 
L 252.640397 455.159753 
L 256.84205 449.053758 
L 261.043702 442.983841 
L 265.245355 436.955997 
L 269.447008 430.976049 
L 273.648661 425.049627 
L 277.850314 419.182153 
L 282.051967 413.378817 
L 286.25362 407.644561 
L 290.455273 401.984071 
L 294.656926 396.401758 
L 298.858579 390.901751 
L 303.060231 385.487888 
L 307.261884 380.163709 
L 311.463537 374.932453 
L 315.66519 369.797056 
L 319.866843 364.760149 
L 324.068496 359.824062 
L 328.270149 354.990823 
L 332.471802 350.262167 
L 336.673455 345.639539 
L 340.875107 341.124102 
L 345.07676 336.716747 
L 349.278413 332.4181 
L 353.480066 328.228537 
L 357.681719 324.148187 
L 361.883372 320.176955 
L 366.085025 316.314522 
L 370.286678 312.560369 
L 374.488331 308.913783 
L 378.689983 305.37387 
L 382.891636 301.939574 
L 387.093289 298.609682 
L 391.294942 295.382844 
L 395.496595 292.25758 
L 399.698248 289.232299 
L 403.899901 286.305303 
L 408.101554 283.474804 
L 412.303207 280.738936 
L 416.50486 278.09576 
L 420.706512 275.543281 
L 424.908165 273.079455 
L 429.109818 270.702194 
L 433.311471 268.409383 
L 437.513124 266.198881 
L 441.714777 264.068533 
L 445.91643 262.016173 
L 450.118083 260.039635 
L 454.319736 258.136756 
L 458.521388 256.305382 
L 462.723041 254.543373 
L 466.924694 252.848609 
L 471.126347 251.218991 
L 475.328 249.65245 
L 479.529653 248.146942 
L 483.731306 246.700461 
L 487.932959 245.311032 
L 492.134612 243.97672 
L 496.336264 242.695628 
L 500.537917 241.465901 
L 504.73957 240.285726 
L 508.941223 239.153332 
L 513.142876 238.066995 
L 517.344529 237.025031 
L 521.546182 236.025807 
L 525.747835 235.067731 
L 529.949488 234.149257 
L 534.15114 233.268887 
L 538.352793 232.425165 
L 542.554446 231.616681 
L 546.756099 230.84207 
L 550.957752 230.100011 
L 555.159405 229.389224 
L 559.361058 228.708474 
L 563.562711 228.056568 
L 567.764364 227.432351 
L 571.966017 226.834711 
L 576.167669 226.262575 
L 580.369322 225.714907 
L 584.570975 225.19071 
L 588.772628 224.689022 
L 592.974281 224.208918 
L 597.175934 223.749506 
L 601.377587 223.30993 
L 605.57924 222.889363 
L 609.780893 222.487012 
L 613.982545 222.102116 
L 618.184198 221.73394 
L 622.385851 221.38178 
L 626.587504 221.044961 
L 630.789157 220.722831 
L 634.99081 220.414767 
L 639.192463 220.12017 
L 643.394116 219.838466 
L 647.595769 219.569103 
L 651.797421 219.311552 
L 655.999074 219.065307 
L 660.200727 218.82988 
" clip-path="url(#p997e48b8f0)" style="fill: none; stroke: #30b1f2; stroke-width: 3; stroke-linecap: round"/>
   </g>
   <g id="text_1">
    <path d="M 666.972895 213.376448 
L 667.968207 213.376448 
L 667.968207 220.476448 
L 666.972895 220.476448 
L 666.972895 213.376448 
z
M 667.455707 219.529573 
L 671.53227 219.529573 
L 671.53227 220.476448 
L 667.455707 220.476448 
L 667.455707 219.529573 
z
M 667.455707 216.478011 
L 670.996332 216.478011 
L 670.996332 217.424886 
L 667.455707 217.424886 
L 667.455707 216.478011 
z
M 667.455707 213.376448 
L 671.53227 213.376448 
L 671.53227 214.323323 
L 667.455707 214.323323 
L 667.455707 213.376448 
z
M 672.69477 219.612386 
L 675.16977 216.310823 
Q 675.385395 216.028011 675.504145 215.723323 
Q 675.624457 215.417073 675.624457 215.154573 
L 675.624457 215.143636 
Q 675.624457 214.720198 675.374457 214.485823 
Q 675.12602 214.251448 674.668207 214.251448 
Q 674.23227 214.251448 673.96352 214.507698 
Q 673.696332 214.763948 673.636957 215.232698 
L 673.636957 215.237386 
L 672.60727 215.237386 
L 672.60727 215.232698 
Q 672.69477 214.621761 672.965082 214.190511 
Q 673.236957 213.757698 673.666645 213.531136 
Q 674.096332 213.303011 674.65727 213.303011 
Q 675.293207 213.303011 675.741645 213.520198 
Q 676.191645 213.737386 676.42602 214.153011 
Q 676.660395 214.568636 676.660395 215.154573 
L 676.660395 215.159261 
Q 676.660395 215.534261 676.504145 215.945198 
Q 676.347895 216.354573 676.068207 216.735823 
L 674.01352 219.529573 
L 676.699457 219.529573 
L 676.699457 220.476448 
L 672.69477 220.476448 
L 672.69477 219.612386 
z
M 677.87016 218.523323 
L 680.252973 213.381136 
L 681.279535 213.381136 
L 678.954535 218.463948 
L 682.435785 218.463948 
L 682.435785 219.387386 
L 677.87016 219.387386 
L 677.87016 218.523323 
z
M 680.93266 216.301448 
L 681.904535 216.301448 
L 681.904535 220.481136 
L 680.93266 220.481136 
L 680.93266 216.301448 
z
M 685.683637 220.549886 
Q 684.686762 220.549886 684.171137 220.018636 
Q 683.657074 219.485823 683.657074 218.532698 
L 683.657074 215.306136 
Q 683.657074 214.348323 684.174262 213.818636 
Q 684.691449 213.288948 685.683637 213.288948 
Q 686.678949 213.288948 687.194574 213.817073 
Q 687.710199 214.343636 687.710199 215.306136 
L 687.710199 218.532698 
Q 687.710199 219.490511 687.191449 220.020198 
Q 686.674262 220.549886 685.683637 220.549886 
z
M 685.683637 219.603011 
Q 686.210199 219.603011 686.461762 219.326448 
Q 686.713324 219.049886 686.713324 218.532698 
L 686.713324 215.306136 
Q 686.713324 214.787386 686.463324 214.512386 
Q 686.214887 214.235823 685.683637 214.235823 
Q 685.150824 214.235823 684.900824 214.512386 
Q 684.652387 214.787386 684.652387 215.306136 
L 684.652387 218.532698 
Q 684.652387 219.049886 684.903949 219.326448 
Q 685.155512 219.603011 685.683637 219.603011 
z
M 691.201215 220.549886 
Q 690.20434 220.549886 689.688715 220.018636 
Q 689.174653 219.485823 689.174653 218.532698 
L 689.174653 215.306136 
Q 689.174653 214.348323 689.69184 213.818636 
Q 690.209028 213.288948 691.201215 213.288948 
Q 692.196528 213.288948 692.712153 213.817073 
Q 693.227778 214.343636 693.227778 215.306136 
L 693.227778 218.532698 
Q 693.227778 219.490511 692.709028 220.020198 
Q 692.19184 220.549886 691.201215 220.549886 
z
M 691.201215 219.603011 
Q 691.727778 219.603011 691.97934 219.326448 
Q 692.230903 219.049886 692.230903 218.532698 
L 692.230903 215.306136 
Q 692.230903 214.787386 691.980903 214.512386 
Q 691.732465 214.235823 691.201215 214.235823 
Q 690.668403 214.235823 690.418403 214.512386 
Q 690.169965 214.787386 690.169965 215.306136 
L 690.169965 218.532698 
Q 690.169965 219.049886 690.421528 219.326448 
Q 690.67309 219.603011 691.201215 219.603011 
z
" style="fill: #ffffff; stroke: #000000"/>
    <path d="M 666.972895 213.376448 
L 667.968207 213.376448 
L 667.968207 220.476448 
L 666.972895 220.476448 
L 666.972895 213.376448 
z
M 667.455707 219.529573 
L 671.53227 219.529573 
L 671.53227 220.476448 
L 667.455707 220.476448 
L 667.455707 219.529573 
z
M 667.455707 216.478011 
L 670.996332 216.478011 
L 670.996332 217.424886 
L 667.455707 217.424886 
L 667.455707 216.478011 
z
M 667.455707 213.376448 
L 671.53227 213.376448 
L 671.53227 214.323323 
L 667.455707 214.323323 
L 667.455707 213.376448 
z
M 672.69477 219.612386 
L 675.16977 216.310823 
Q 675.385395 216.028011 675.504145 215.723323 
Q 675.624457 215.417073 675.624457 215.154573 
L 675.624457 215.143636 
Q 675.624457 214.720198 675.374457 214.485823 
Q 675.12602 214.251448 674.668207 214.251448 
Q 674.23227 214.251448 673.96352 214.507698 
Q 673.696332 214.763948 673.636957 215.232698 
L 673.636957 215.237386 
L 672.60727 215.237386 
L 672.60727 215.232698 
Q 672.69477 214.621761 672.965082 214.190511 
Q 673.236957 213.757698 673.666645 213.531136 
Q 674.096332 213.303011 674.65727 213.303011 
Q 675.293207 213.303011 675.741645 213.520198 
Q 676.191645 213.737386 676.42602 214.153011 
Q 676.660395 214.568636 676.660395 215.154573 
L 676.660395 215.159261 
Q 676.660395 215.534261 676.504145 215.945198 
Q 676.347895 216.354573 676.068207 216.735823 
L 674.01352 219.529573 
L 676.699457 219.529573 
L 676.699457 220.476448 
L 672.69477 220.476448 
L 672.69477 219.612386 
z
M 677.87016 218.523323 
L 680.252973 213.381136 
L 681.279535 213.381136 
L 678.954535 218.463948 
L 682.435785 218.463948 
L 682.435785 219.387386 
L 677.87016 219.387386 
L 677.87016 218.523323 
z
M 680.93266 216.301448 
L 681.904535 216.301448 
L 681.904535 220.481136 
L 680.93266 220.481136 
L 680.93266 216.301448 
z
M 685.683637 220.549886 
Q 684.686762 220.549886 684.171137 220.018636 
Q 683.657074 219.485823 683.657074 218.532698 
L 683.657074 215.306136 
Q 683.657074 214.348323 684.174262 213.818636 
Q 684.691449 213.288948 685.683637 213.288948 
Q 686.678949 213.288948 687.194574 213.817073 
Q 687.710199 214.343636 687.710199 215.306136 
L 687.710199 218.532698 
Q 687.710199 219.490511 687.191449 220.020198 
Q 686.674262 220.549886 685.683637 220.549886 
z
M 685.683637 219.603011 
Q 686.210199 219.603011 686.461762 219.326448 
Q 686.713324 219.049886 686.713324 218.532698 
L 686.713324 215.306136 
Q 686.713324 214.787386 686.463324 214.512386 
Q 686.214887 214.235823 685.683637 214.235823 
Q 685.150824 214.235823 684.900824 214.512386 
Q 684.652387 214.787386 684.652387 215.306136 
L 684.652387 218.532698 
Q 684.652387 219.049886 684.903949 219.326448 
Q 685.155512 219.603011 685.683637 219.603011 
z
M 691.201215 220.549886 
Q 690.20434 220.549886 689.688715 220.018636 
Q 689.174653 219.485823 689.174653 218.532698 
L 689.174653 215.306136 
Q 689.174653 214.348323 689.69184 213.818636 
Q 690.209028 213.288948 691.201215 213.288948 
Q 692.196528 213.288948 692.712153 213.817073 
Q 693.227778 214.343636 693.227778 215.306136 
L 693.227778 218.532698 
Q 693.227778 219.490511 692.709028 220.020198 
Q 692.19184 220.549886 691.201215 220.549886 
z
M 691.201215 219.603011 
Q 691.727778 219.603011 691.97934 219.326448 
Q 692.230903 219.049886 692.230903 218.532698 
L 692.230903 215.306136 
Q 692.230903 214.787386 691.980903 214.512386 
Q 691.732465 214.235823 691.201215 214.235823 
Q 690.668403 214.235823 690.418403 214.512386 
Q 690.169965 214.787386 690.169965 215.306136 
L 690.169965 218.532698 
Q 690.169965 219.049886 690.421528 219.326448 
Q 690.67309 219.603011 691.201215 219.603011 
z
" style="fill: #ffffff"/>
   </g>
  </g>
 </g>
 <defs>
  <clipPath id="p997e48b8f0">
   <rect x="144" y="77.76" width="892.8" height="498.96"/>
  </clipPath>
 </defs>
</svg>
