<?xml version="1.0" encoding="utf-8" standalone="no"?>
<!DOCTYPE svg PUBLIC "-//W3C//DTD SVG 1.1//EN"
  "http://www.w3.org/Graphics/SVG/1.1/DTD/svg11.dtd">
<svg xmlns:xlink="http://www.w3.org/1999/xlink" width="1152pt" height="648pt" viewBox="0 0 1152 648" xmlns="http://www.w3.org/2000/svg" version="1.1">
 <metadata>
  <rdf:RDF xmlns:dc="http://purl.org/dc/elements/1.1/" xmlns:cc="http://creativecommons.org/ns#" xmlns:rdf="http://www.w3.org/1999/02/22-rdf-syntax-ns#">
   <cc:Work>
    <dc:type rdf:resource="http://purl.org/dc/dcmitype/StillImage"/>
    <dc:date>2024-11-15T16:34:25.252325</dc:date>
    <dc:format>image/svg+xml</dc:format>
    <dc:creator>
     <cc:Agent>
      <dc:title>Matplotlib v3.9.2, https://matplotlib.org/</dc:title>
     </cc:Agent>
    </dc:creator>
   </cc:Work>
  </rdf:RDF>
 </metadata>
 <defs>
  <style type="text/css">*{stroke-linejoin: round; stroke-linecap: butt}</style>
 </defs>
 <g id="figure_1">
  <g id="patch_1">
   <path d="M 0 648 
L 1152 648 
L 1152 0 
L 0 0 
L 0 648 
z
" style="fill: none"/>
  </g>
  <g id="axes_1">
   <g id="line2d_1">
    <path d="M 205.278545 478.448215 
L 209.127669 473.366121 
L 212.976793 468.391165 
L 216.825917 463.521096 
L 220.675041 458.753709 
L 224.524165 454.086844 
L 228.373289 449.518389 
L 232.222413 445.046273 
L 236.071537 440.66847 
L 239.920661 436.382998 
L 243.769785 432.187912 
L 247.618909 428.081312 
L 251.468033 424.061336 
L 255.317157 420.12616 
L 259.166281 416.274001 
L 263.015405 412.50311 
L 266.864529 408.811778 
L 270.713653 405.198329 
L 274.562777 401.661124 
L 278.411901 398.198556 
L 282.261025 394.809056 
L 286.110149 391.491083 
L 289.959273 388.243131 
L 293.808397 385.063726 
L 297.657521 381.951423 
L 301.506645 378.904809 
L 305.355769 375.922501 
L 309.204893 373.003142 
L 313.054017 370.145407 
L 316.90314 367.347996 
L 320.752264 364.60964 
L 324.601388 361.929093 
L 328.450512 359.305136 
L 332.299636 356.736577 
L 336.14876 354.222248 
L 339.997884 351.761006 
L 343.847008 349.351731 
L 347.696132 346.993328 
L 351.545256 344.684724 
L 355.39438 342.42487 
L 359.243504 340.212736 
L 363.092628 338.047317 
L 366.941752 335.927627 
L 370.790876 333.852702 
L 374.64 331.821598 
L 378.489124 329.83339 
L 382.338248 327.887174 
L 386.187372 325.982063 
L 390.036496 324.11719 
L 393.88562 322.291707 
L 397.734744 320.504783 
L 401.583868 318.755603 
L 405.432992 317.043371 
L 409.282116 315.367308 
L 413.13124 313.726651 
L 416.980364 312.120651 
L 420.829488 310.548579 
L 424.678612 309.009717 
L 428.527736 307.503365 
L 432.37686 306.028836 
L 436.225983 304.58546 
L 440.075107 303.172577 
L 443.924231 301.789545 
L 447.773355 300.435734 
L 451.622479 299.110526 
L 455.471603 297.813318 
L 459.320727 296.543518 
L 463.169851 295.300548 
L 467.018975 294.083842 
L 470.868099 292.892844 
L 474.717223 291.727013 
L 478.566347 290.585816 
L 482.415471 289.468733 
L 486.264595 288.375256 
L 490.113719 287.304885 
L 493.962843 286.257133 
L 497.811967 285.231523 
L 501.661091 284.227585 
L 505.510215 283.244864 
L 509.359339 282.28291 
L 513.208463 281.341285 
L 517.057587 280.419559 
L 520.906711 279.517313 
L 524.755835 278.634135 
L 528.604959 277.769622 
L 532.454083 276.92338 
L 536.303207 276.095023 
L 540.152331 275.284173 
L 544.001455 274.49046 
L 547.850579 273.713522 
L 551.699702 272.953006 
L 555.548826 272.208563 
L 559.39795 271.479854 
L 563.247074 270.766548 
L 567.096198 270.068318 
L 570.945322 269.384846 
L 574.794446 268.71582 
L 578.64357 268.060935 
L 582.492694 267.419893 
L 586.341818 266.7924 
" clip-path="url(#p099cbea277)" style="fill: none; stroke: #30d2f2; stroke-width: 3; stroke-linecap: round"/>
   </g>
   <g id="text_1">
    <path d="M 595.246798 268.512406 
Q 594.734298 268.512406 594.274923 268.415531 
Q 593.817111 268.317093 593.418673 268.121781 
Q 593.020236 267.926468 592.673361 267.632718 
L 592.673361 267.632718 
L 593.293673 266.871781 
L 593.293673 266.871781 
Q 593.699923 267.223343 594.187423 267.399906 
Q 594.676486 267.574906 595.246798 267.574906 
Q 596.018673 267.574906 596.443673 267.288968 
Q 596.868673 267.003031 596.868673 266.481156 
L 596.868673 266.476468 
Q 596.868673 266.104593 596.674923 265.887406 
Q 596.482736 265.670218 596.176486 265.565531 
Q 595.871798 265.460843 595.388986 265.371781 
Q 595.373361 265.367093 595.356173 265.367093 
Q 595.340548 265.367093 595.324923 265.362406 
L 595.251486 265.348343 
Q 594.538986 265.226468 594.092111 265.073343 
Q 593.645236 264.918656 593.328048 264.510843 
Q 593.010861 264.103031 593.010861 263.351468 
L 593.010861 263.346781 
Q 593.010861 262.687406 593.306173 262.221781 
Q 593.601486 261.754593 594.167111 261.510843 
Q 594.734298 261.265531 595.529611 261.265531 
Q 595.910861 261.265531 596.279611 261.349906 
Q 596.648361 261.432718 597.006173 261.596781 
Q 597.365548 261.759281 597.712423 262.007718 
L 597.712423 262.007718 
L 597.146798 262.799906 
L 597.146798 262.799906 
Q 596.740548 262.501468 596.337423 262.353031 
Q 595.935861 262.203031 595.529611 262.203031 
Q 594.803048 262.203031 594.399923 262.493656 
Q 593.996798 262.784281 593.996798 263.317093 
L 593.996798 263.321781 
Q 593.996798 263.687406 594.204611 263.898343 
Q 594.412423 264.107718 594.721798 264.207718 
Q 595.032736 264.307718 595.584298 264.415531 
Q 595.603048 264.420218 595.620236 264.423343 
Q 595.637423 264.424906 595.657736 264.429593 
Q 595.681173 264.434281 595.710861 264.440531 
Q 595.740548 264.445218 595.763986 264.449906 
Q 596.409298 264.581156 596.840548 264.762406 
Q 597.273361 264.942093 597.563986 265.345218 
Q 597.854611 265.748343 597.854611 266.446781 
L 597.854611 266.456156 
Q 597.854611 267.106156 597.546798 267.567093 
Q 597.238986 268.028031 596.654611 268.270218 
Q 596.071798 268.512406 595.246798 268.512406 
z
M 599.94465 267.492093 
L 601.5509 267.492093 
Q 602.336837 267.492093 602.768087 267.084281 
Q 603.2009 266.676468 603.2009 265.934281 
L 603.2009 263.843656 
Q 603.2009 263.101468 602.768087 262.693656 
Q 602.336837 262.285843 601.5509 262.285843 
L 599.94465 262.285843 
L 599.94465 261.338968 
L 601.521212 261.338968 
Q 602.3759 261.338968 602.980587 261.637406 
Q 603.586837 261.934281 603.904025 262.506156 
Q 604.221212 263.078031 604.221212 263.882718 
L 604.221212 265.895218 
Q 604.221212 266.699906 603.904025 267.271781 
Q 603.586837 267.843656 602.979025 268.142093 
Q 602.371212 268.438968 601.516525 268.438968 
L 599.94465 268.438968 
L 599.94465 267.492093 
z
M 599.271212 261.338968 
L 600.266525 261.338968 
L 600.266525 268.438968 
L 599.271212 268.438968 
L 599.271212 261.338968 
z
M 607.766525 268.512406 
Q 607.122775 268.512406 606.633712 268.268656 
Q 606.146212 268.023343 605.879025 267.576468 
Q 605.6134 267.129593 605.6134 266.538968 
L 605.6134 266.421781 
Q 605.6134 265.890531 605.879025 265.421781 
Q 606.146212 264.953031 606.589962 264.713968 
Q 606.2134 264.507718 605.986837 264.120218 
Q 605.760275 263.731156 605.760275 263.301468 
L 605.760275 263.131156 
Q 605.760275 262.574906 606.008712 262.153031 
Q 606.25715 261.729593 606.711837 261.498343 
Q 607.166525 261.265531 607.766525 261.265531 
Q 608.366525 261.265531 608.821212 261.498343 
Q 609.2759 261.729593 609.524337 262.153031 
Q 609.772775 262.574906 609.772775 263.131156 
L 609.772775 263.301468 
Q 609.772775 263.742093 609.541525 264.128031 
Q 609.310275 264.512406 608.929025 264.713968 
Q 609.377462 264.957718 609.647775 265.424906 
Q 609.91965 265.890531 609.91965 266.421781 
L 609.91965 266.538968 
Q 609.91965 267.129593 609.654025 267.576468 
Q 609.3884 268.023343 608.899337 268.268656 
Q 608.411837 268.512406 607.766525 268.512406 
z
M 607.766525 267.554593 
Q 608.1134 267.554593 608.3759 267.418656 
Q 608.639962 267.281156 608.783712 267.035843 
Q 608.929025 266.788968 608.929025 266.465531 
L 608.929025 266.398343 
Q 608.929025 266.070218 608.783712 265.824906 
Q 608.639962 265.578031 608.3759 265.442093 
Q 608.1134 265.304593 607.766525 265.304593 
Q 607.41965 265.304593 607.155587 265.442093 
Q 606.893087 265.578031 606.747775 265.826468 
Q 606.604025 266.074906 606.604025 266.403031 
L 606.604025 266.476468 
Q 606.604025 266.798343 606.747775 267.042093 
Q 606.893087 267.285843 607.155587 267.420218 
Q 607.41965 267.554593 607.766525 267.554593 
z
M 607.766525 264.346781 
Q 608.064962 264.346781 608.293087 264.218656 
Q 608.522775 264.088968 608.649337 263.849906 
Q 608.777462 263.609281 608.777462 263.296781 
L 608.777462 263.229593 
Q 608.777462 262.931156 608.649337 262.701468 
Q 608.522775 262.471781 608.293087 262.348343 
Q 608.064962 262.223343 607.766525 262.223343 
Q 607.468087 262.223343 607.2384 262.348343 
Q 607.010275 262.471781 606.88215 262.701468 
Q 606.755587 262.931156 606.755587 263.234281 
L 606.755587 263.307718 
Q 606.755587 263.613968 606.88215 263.851468 
Q 607.010275 264.088968 607.2384 264.218656 
Q 607.468087 264.346781 607.766525 264.346781 
z
M 618.020822 264.615531 
L 618.020822 265.856156 
Q 618.020822 266.646781 617.713009 267.249906 
Q 617.405197 267.853031 616.841134 268.182718 
Q 616.277072 268.512406 615.534884 268.512406 
Q 614.783322 268.512406 614.214572 268.203031 
Q 613.645822 267.892093 613.333322 267.326468 
Q 613.020822 266.759281 613.020822 266.012406 
L 613.020822 263.917093 
Q 613.020822 263.126468 613.328634 262.526468 
Q 613.636447 261.924906 614.198947 261.595218 
Q 614.763009 261.265531 615.505197 261.265531 
Q 616.116134 261.265531 616.630197 261.528031 
Q 617.145822 261.788968 617.492697 262.267093 
Q 617.839572 262.745218 617.961447 263.374906 
L 617.961447 263.374906 
L 616.883322 263.374906 
L 616.883322 263.374906 
Q 616.794259 263.018656 616.584884 262.762406 
Q 616.375509 262.506156 616.091134 262.371781 
Q 615.808322 262.237406 615.505197 262.237406 
Q 615.066134 262.237406 614.733322 262.448343 
Q 614.402072 262.657718 614.220822 263.035843 
Q 614.041134 263.413968 614.041134 263.917093 
L 614.041134 266.012406 
Q 614.041134 266.471781 614.225509 266.815531 
Q 614.411447 267.159281 614.750509 267.349906 
Q 615.091134 267.540531 615.534884 267.540531 
Q 615.973947 267.540531 616.305197 267.343656 
Q 616.638009 267.145218 616.819259 266.770218 
Q 617.000509 266.393656 617.000509 265.874906 
L 617.000509 265.567093 
L 615.559884 265.567093 
L 615.559884 264.615531 
L 618.020822 264.615531 
z
M 621.609103 268.512406 
Q 620.905978 268.512406 620.40754 268.248343 
Q 619.910665 267.984281 619.648165 267.474906 
Q 619.387228 266.963968 619.387228 266.242093 
L 619.387228 265.670218 
Q 619.387228 264.918656 619.63879 264.387406 
Q 619.890353 263.854593 620.368478 263.576468 
Q 620.848165 263.296781 621.521603 263.296781 
Q 622.155978 263.296781 622.604415 263.615531 
Q 623.054415 263.932718 623.290353 264.532718 
Q 623.527853 265.132718 623.527853 265.973343 
L 623.527853 266.304593 
L 620.110665 266.304593 
L 620.110665 265.504593 
L 622.580978 265.504593 
L 622.580978 265.504593 
Q 622.537228 264.884281 622.260665 264.540531 
Q 621.985665 264.195218 621.521603 264.195218 
Q 620.954415 264.195218 620.64504 264.567093 
Q 620.335665 264.937406 620.335665 265.617093 
L 620.335665 266.260843 
Q 620.335665 266.890531 620.666915 267.228031 
Q 620.999728 267.565531 621.609103 267.565531 
Q 621.912228 267.565531 622.209103 267.443656 
Q 622.50754 267.320218 622.741915 267.101468 
L 622.741915 267.101468 
L 623.396603 267.754593 
L 623.396603 267.754593 
Q 623.02004 268.117093 622.55129 268.315531 
Q 622.08254 268.512406 621.609103 268.512406 
z
M 624.895431 263.370218 
L 625.892306 263.370218 
L 625.892306 268.438968 
L 624.895431 268.438968 
L 624.895431 263.370218 
z
M 627.971993 265.367093 
Q 627.971993 264.831156 627.693868 264.538968 
Q 627.415743 264.245218 626.912618 264.245218 
Q 626.423556 264.245218 626.157931 264.504593 
Q 625.892306 264.762406 625.892306 265.231156 
L 625.789181 264.254593 
Q 626.023556 263.795218 626.401681 263.546781 
Q 626.779806 263.296781 627.239181 263.296781 
Q 628.064181 263.296781 628.515743 263.837406 
Q 628.967306 264.376468 628.967306 265.362406 
L 628.967306 268.438968 
L 627.971993 268.438968 
L 627.971993 265.367093 
z
M 632.268868 268.512406 
Q 631.673556 268.512406 631.218868 268.295218 
Q 630.764181 268.078031 630.487618 267.665531 
Q 630.212618 267.253031 630.139181 266.671781 
L 630.139181 266.671781 
L 631.154806 266.671781 
L 631.154806 266.671781 
Q 631.198556 266.973343 631.345431 267.168656 
Q 631.492306 267.363968 631.723556 267.459281 
Q 631.956368 267.554593 632.268868 267.554593 
Q 632.761056 267.554593 633.034493 267.292093 
Q 633.307931 267.028031 633.307931 266.549906 
L 633.307931 266.334281 
Q 633.307931 265.801468 633.048556 265.512406 
Q 632.790743 265.221781 632.317306 265.221781 
L 631.814181 265.221781 
L 631.814181 264.273343 
L 632.317306 264.273343 
Q 632.732931 264.273343 632.961056 264.024906 
Q 633.190743 263.776468 633.190743 263.321781 
L 633.190743 263.101468 
Q 633.190743 262.682718 632.948556 262.453031 
Q 632.707931 262.223343 632.264181 262.223343 
Q 632.009493 262.223343 631.809493 262.318656 
Q 631.609493 262.413968 631.470431 262.612406 
Q 631.331368 262.809281 631.267306 263.106156 
L 631.267306 263.106156 
L 630.256368 263.106156 
L 630.256368 263.106156 
Q 630.354806 262.526468 630.625118 262.110843 
Q 630.896993 261.695218 631.311056 261.481156 
Q 631.726681 261.265531 632.264181 261.265531 
Q 633.181368 261.265531 633.684493 261.749906 
Q 634.187618 262.232718 634.187618 263.112406 
L 634.187618 263.229593 
Q 634.187618 263.760843 633.898556 264.156156 
Q 633.611056 264.551468 633.084493 264.732718 
Q 633.665743 264.859281 633.984493 265.304593 
Q 634.304806 265.748343 634.304806 266.437406 
L 634.304806 266.554593 
Q 634.304806 267.174906 634.065743 267.613968 
Q 633.826681 268.053031 633.368868 268.282718 
Q 632.912618 268.512406 632.268868 268.512406 
z
" style="fill: #ffffff; stroke: #000000"/>
    <path d="M 595.246798 268.512406 
Q 594.734298 268.512406 594.274923 268.415531 
Q 593.817111 268.317093 593.418673 268.121781 
Q 593.020236 267.926468 592.673361 267.632718 
L 592.673361 267.632718 
L 593.293673 266.871781 
L 593.293673 266.871781 
Q 593.699923 267.223343 594.187423 267.399906 
Q 594.676486 267.574906 595.246798 267.574906 
Q 596.018673 267.574906 596.443673 267.288968 
Q 596.868673 267.003031 596.868673 266.481156 
L 596.868673 266.476468 
Q 596.868673 266.104593 596.674923 265.887406 
Q 596.482736 265.670218 596.176486 265.565531 
Q 595.871798 265.460843 595.388986 265.371781 
Q 595.373361 265.367093 595.356173 265.367093 
Q 595.340548 265.367093 595.324923 265.362406 
L 595.251486 265.348343 
Q 594.538986 265.226468 594.092111 265.073343 
Q 593.645236 264.918656 593.328048 264.510843 
Q 593.010861 264.103031 593.010861 263.351468 
L 593.010861 263.346781 
Q 593.010861 262.687406 593.306173 262.221781 
Q 593.601486 261.754593 594.167111 261.510843 
Q 594.734298 261.265531 595.529611 261.265531 
Q 595.910861 261.265531 596.279611 261.349906 
Q 596.648361 261.432718 597.006173 261.596781 
Q 597.365548 261.759281 597.712423 262.007718 
L 597.712423 262.007718 
L 597.146798 262.799906 
L 597.146798 262.799906 
Q 596.740548 262.501468 596.337423 262.353031 
Q 595.935861 262.203031 595.529611 262.203031 
Q 594.803048 262.203031 594.399923 262.493656 
Q 593.996798 262.784281 593.996798 263.317093 
L 593.996798 263.321781 
Q 593.996798 263.687406 594.204611 263.898343 
Q 594.412423 264.107718 594.721798 264.207718 
Q 595.032736 264.307718 595.584298 264.415531 
Q 595.603048 264.420218 595.620236 264.423343 
Q 595.637423 264.424906 595.657736 264.429593 
Q 595.681173 264.434281 595.710861 264.440531 
Q 595.740548 264.445218 595.763986 264.449906 
Q 596.409298 264.581156 596.840548 264.762406 
Q 597.273361 264.942093 597.563986 265.345218 
Q 597.854611 265.748343 597.854611 266.446781 
L 597.854611 266.456156 
Q 597.854611 267.106156 597.546798 267.567093 
Q 597.238986 268.028031 596.654611 268.270218 
Q 596.071798 268.512406 595.246798 268.512406 
z
M 599.94465 267.492093 
L 601.5509 267.492093 
Q 602.336837 267.492093 602.768087 267.084281 
Q 603.2009 266.676468 603.2009 265.934281 
L 603.2009 263.843656 
Q 603.2009 263.101468 602.768087 262.693656 
Q 602.336837 262.285843 601.5509 262.285843 
L 599.94465 262.285843 
L 599.94465 261.338968 
L 601.521212 261.338968 
Q 602.3759 261.338968 602.980587 261.637406 
Q 603.586837 261.934281 603.904025 262.506156 
Q 604.221212 263.078031 604.221212 263.882718 
L 604.221212 265.895218 
Q 604.221212 266.699906 603.904025 267.271781 
Q 603.586837 267.843656 602.979025 268.142093 
Q 602.371212 268.438968 601.516525 268.438968 
L 599.94465 268.438968 
L 599.94465 267.492093 
z
M 599.271212 261.338968 
L 600.266525 261.338968 
L 600.266525 268.438968 
L 599.271212 268.438968 
L 599.271212 261.338968 
z
M 607.766525 268.512406 
Q 607.122775 268.512406 606.633712 268.268656 
Q 606.146212 268.023343 605.879025 267.576468 
Q 605.6134 267.129593 605.6134 266.538968 
L 605.6134 266.421781 
Q 605.6134 265.890531 605.879025 265.421781 
Q 606.146212 264.953031 606.589962 264.713968 
Q 606.2134 264.507718 605.986837 264.120218 
Q 605.760275 263.731156 605.760275 263.301468 
L 605.760275 263.131156 
Q 605.760275 262.574906 606.008712 262.153031 
Q 606.25715 261.729593 606.711837 261.498343 
Q 607.166525 261.265531 607.766525 261.265531 
Q 608.366525 261.265531 608.821212 261.498343 
Q 609.2759 261.729593 609.524337 262.153031 
Q 609.772775 262.574906 609.772775 263.131156 
L 609.772775 263.301468 
Q 609.772775 263.742093 609.541525 264.128031 
Q 609.310275 264.512406 608.929025 264.713968 
Q 609.377462 264.957718 609.647775 265.424906 
Q 609.91965 265.890531 609.91965 266.421781 
L 609.91965 266.538968 
Q 609.91965 267.129593 609.654025 267.576468 
Q 609.3884 268.023343 608.899337 268.268656 
Q 608.411837 268.512406 607.766525 268.512406 
z
M 607.766525 267.554593 
Q 608.1134 267.554593 608.3759 267.418656 
Q 608.639962 267.281156 608.783712 267.035843 
Q 608.929025 266.788968 608.929025 266.465531 
L 608.929025 266.398343 
Q 608.929025 266.070218 608.783712 265.824906 
Q 608.639962 265.578031 608.3759 265.442093 
Q 608.1134 265.304593 607.766525 265.304593 
Q 607.41965 265.304593 607.155587 265.442093 
Q 606.893087 265.578031 606.747775 265.826468 
Q 606.604025 266.074906 606.604025 266.403031 
L 606.604025 266.476468 
Q 606.604025 266.798343 606.747775 267.042093 
Q 606.893087 267.285843 607.155587 267.420218 
Q 607.41965 267.554593 607.766525 267.554593 
z
M 607.766525 264.346781 
Q 608.064962 264.346781 608.293087 264.218656 
Q 608.522775 264.088968 608.649337 263.849906 
Q 608.777462 263.609281 608.777462 263.296781 
L 608.777462 263.229593 
Q 608.777462 262.931156 608.649337 262.701468 
Q 608.522775 262.471781 608.293087 262.348343 
Q 608.064962 262.223343 607.766525 262.223343 
Q 607.468087 262.223343 607.2384 262.348343 
Q 607.010275 262.471781 606.88215 262.701468 
Q 606.755587 262.931156 606.755587 263.234281 
L 606.755587 263.307718 
Q 606.755587 263.613968 606.88215 263.851468 
Q 607.010275 264.088968 607.2384 264.218656 
Q 607.468087 264.346781 607.766525 264.346781 
z
M 618.020822 264.615531 
L 618.020822 265.856156 
Q 618.020822 266.646781 617.713009 267.249906 
Q 617.405197 267.853031 616.841134 268.182718 
Q 616.277072 268.512406 615.534884 268.512406 
Q 614.783322 268.512406 614.214572 268.203031 
Q 613.645822 267.892093 613.333322 267.326468 
Q 613.020822 266.759281 613.020822 266.012406 
L 613.020822 263.917093 
Q 613.020822 263.126468 613.328634 262.526468 
Q 613.636447 261.924906 614.198947 261.595218 
Q 614.763009 261.265531 615.505197 261.265531 
Q 616.116134 261.265531 616.630197 261.528031 
Q 617.145822 261.788968 617.492697 262.267093 
Q 617.839572 262.745218 617.961447 263.374906 
L 617.961447 263.374906 
L 616.883322 263.374906 
L 616.883322 263.374906 
Q 616.794259 263.018656 616.584884 262.762406 
Q 616.375509 262.506156 616.091134 262.371781 
Q 615.808322 262.237406 615.505197 262.237406 
Q 615.066134 262.237406 614.733322 262.448343 
Q 614.402072 262.657718 614.220822 263.035843 
Q 614.041134 263.413968 614.041134 263.917093 
L 614.041134 266.012406 
Q 614.041134 266.471781 614.225509 266.815531 
Q 614.411447 267.159281 614.750509 267.349906 
Q 615.091134 267.540531 615.534884 267.540531 
Q 615.973947 267.540531 616.305197 267.343656 
Q 616.638009 267.145218 616.819259 266.770218 
Q 617.000509 266.393656 617.000509 265.874906 
L 617.000509 265.567093 
L 615.559884 265.567093 
L 615.559884 264.615531 
L 618.020822 264.615531 
z
M 621.609103 268.512406 
Q 620.905978 268.512406 620.40754 268.248343 
Q 619.910665 267.984281 619.648165 267.474906 
Q 619.387228 266.963968 619.387228 266.242093 
L 619.387228 265.670218 
Q 619.387228 264.918656 619.63879 264.387406 
Q 619.890353 263.854593 620.368478 263.576468 
Q 620.848165 263.296781 621.521603 263.296781 
Q 622.155978 263.296781 622.604415 263.615531 
Q 623.054415 263.932718 623.290353 264.532718 
Q 623.527853 265.132718 623.527853 265.973343 
L 623.527853 266.304593 
L 620.110665 266.304593 
L 620.110665 265.504593 
L 622.580978 265.504593 
L 622.580978 265.504593 
Q 622.537228 264.884281 622.260665 264.540531 
Q 621.985665 264.195218 621.521603 264.195218 
Q 620.954415 264.195218 620.64504 264.567093 
Q 620.335665 264.937406 620.335665 265.617093 
L 620.335665 266.260843 
Q 620.335665 266.890531 620.666915 267.228031 
Q 620.999728 267.565531 621.609103 267.565531 
Q 621.912228 267.565531 622.209103 267.443656 
Q 622.50754 267.320218 622.741915 267.101468 
L 622.741915 267.101468 
L 623.396603 267.754593 
L 623.396603 267.754593 
Q 623.02004 268.117093 622.55129 268.315531 
Q 622.08254 268.512406 621.609103 268.512406 
z
M 624.895431 263.370218 
L 625.892306 263.370218 
L 625.892306 268.438968 
L 624.895431 268.438968 
L 624.895431 263.370218 
z
M 627.971993 265.367093 
Q 627.971993 264.831156 627.693868 264.538968 
Q 627.415743 264.245218 626.912618 264.245218 
Q 626.423556 264.245218 626.157931 264.504593 
Q 625.892306 264.762406 625.892306 265.231156 
L 625.789181 264.254593 
Q 626.023556 263.795218 626.401681 263.546781 
Q 626.779806 263.296781 627.239181 263.296781 
Q 628.064181 263.296781 628.515743 263.837406 
Q 628.967306 264.376468 628.967306 265.362406 
L 628.967306 268.438968 
L 627.971993 268.438968 
L 627.971993 265.367093 
z
M 632.268868 268.512406 
Q 631.673556 268.512406 631.218868 268.295218 
Q 630.764181 268.078031 630.487618 267.665531 
Q 630.212618 267.253031 630.139181 266.671781 
L 630.139181 266.671781 
L 631.154806 266.671781 
L 631.154806 266.671781 
Q 631.198556 266.973343 631.345431 267.168656 
Q 631.492306 267.363968 631.723556 267.459281 
Q 631.956368 267.554593 632.268868 267.554593 
Q 632.761056 267.554593 633.034493 267.292093 
Q 633.307931 267.028031 633.307931 266.549906 
L 633.307931 266.334281 
Q 633.307931 265.801468 633.048556 265.512406 
Q 632.790743 265.221781 632.317306 265.221781 
L 631.814181 265.221781 
L 631.814181 264.273343 
L 632.317306 264.273343 
Q 632.732931 264.273343 632.961056 264.024906 
Q 633.190743 263.776468 633.190743 263.321781 
L 633.190743 263.101468 
Q 633.190743 262.682718 632.948556 262.453031 
Q 632.707931 262.223343 632.264181 262.223343 
Q 632.009493 262.223343 631.809493 262.318656 
Q 631.609493 262.413968 631.470431 262.612406 
Q 631.331368 262.809281 631.267306 263.106156 
L 631.267306 263.106156 
L 630.256368 263.106156 
L 630.256368 263.106156 
Q 630.354806 262.526468 630.625118 262.110843 
Q 630.896993 261.695218 631.311056 261.481156 
Q 631.726681 261.265531 632.264181 261.265531 
Q 633.181368 261.265531 633.684493 261.749906 
Q 634.187618 262.232718 634.187618 263.112406 
L 634.187618 263.229593 
Q 634.187618 263.760843 633.898556 264.156156 
Q 633.611056 264.551468 633.084493 264.732718 
Q 633.665743 264.859281 633.984493 265.304593 
Q 634.304806 265.748343 634.304806 266.437406 
L 634.304806 266.554593 
Q 634.304806 267.174906 634.065743 267.613968 
Q 633.826681 268.053031 633.368868 268.282718 
Q 632.912618 268.512406 632.268868 268.512406 
z
" style="fill: #ffffff"/>
   </g>
  </g>
 </g>
 <defs>
  <clipPath id="p099cbea277">
   <rect x="144" y="77.76" width="892.8" height="498.96"/>
  </clipPath>
 </defs>
</svg>
