<?xml version="1.0" encoding="utf-8" standalone="no"?>
<!DOCTYPE svg PUBLIC "-//W3C//DTD SVG 1.1//EN"
  "http://www.w3.org/Graphics/SVG/1.1/DTD/svg11.dtd">
<svg xmlns:xlink="http://www.w3.org/1999/xlink" width="1152pt" height="648pt" viewBox="0 0 1152 648" xmlns="http://www.w3.org/2000/svg" version="1.1">
 <metadata>
  <rdf:RDF xmlns:dc="http://purl.org/dc/elements/1.1/" xmlns:cc="http://creativecommons.org/ns#" xmlns:rdf="http://www.w3.org/1999/02/22-rdf-syntax-ns#">
   <cc:Work>
    <dc:type rdf:resource="http://purl.org/dc/dcmitype/StillImage"/>
    <dc:date>2024-10-09T18:10:09.985681</dc:date>
    <dc:format>image/svg+xml</dc:format>
    <dc:creator>
     <cc:Agent>
      <dc:title>Matplotlib v3.8.1, https://matplotlib.org/</dc:title>
     </cc:Agent>
    </dc:creator>
   </cc:Work>
  </rdf:RDF>
 </metadata>
 <defs>
  <style type="text/css">*{stroke-linejoin: round; stroke-linecap: butt}</style>
 </defs>
 <g id="figure_1">
  <g id="patch_1">
   <path d="M 0 648 
L 1152 648 
L 1152 0 
L 0 0 
L 0 648 
z
" style="fill: none"/>
  </g>
  <g id="axes_1">
   <g id="line2d_1">
    <path d="M 204.466909 428.736458 
L 209.484298 423.031067 
L 214.501686 417.441708 
L 219.519074 411.966025 
L 224.536463 406.601714 
L 229.553851 401.346514 
L 234.57124 396.19821 
L 239.588628 391.154633 
L 244.606017 386.213658 
L 249.623405 381.373202 
L 254.640793 376.631223 
L 259.658182 371.985723 
L 264.67557 367.434743 
L 269.692959 362.976364 
L 274.710347 358.608704 
L 279.727736 354.329922 
L 284.745124 350.138211 
L 289.762512 346.031805 
L 294.779901 342.008969 
L 299.797289 338.068005 
L 304.814678 334.207252 
L 309.832066 330.425078 
L 314.849455 326.719886 
L 319.866843 323.090114 
L 324.884231 319.534227 
L 329.90162 316.050724 
L 334.919008 312.638134 
L 339.936397 309.295016 
L 344.953785 306.019957 
L 349.971174 302.811574 
L 354.988562 299.668511 
L 360.00595 296.58944 
L 365.023339 293.57306 
L 370.040727 290.618096 
L 375.058116 287.7233 
L 380.075504 284.887447 
L 385.092893 282.10934 
L 390.110281 279.387803 
L 395.127669 276.721686 
L 400.145058 274.109862 
L 405.162446 271.551227 
L 410.179835 269.044698 
L 415.197223 266.589215 
L 420.214612 264.183741 
L 425.232 261.827257 
L 430.249388 259.518767 
L 435.266777 257.257295 
L 440.284165 255.041883 
L 445.301554 252.871595 
L 450.318942 250.745512 
L 455.336331 248.662735 
L 460.353719 246.622382 
L 465.371107 244.62359 
L 470.388496 242.665514 
L 475.405884 240.747324 
L 480.423273 238.868208 
L 485.440661 237.027373 
L 490.45805 235.224037 
L 495.475438 233.457438 
L 500.492826 231.726828 
L 505.510215 230.031475 
L 510.527603 228.370661 
L 515.544992 226.743682 
L 520.56238 225.149849 
L 525.579769 223.588489 
L 530.597157 222.05894 
L 535.614545 220.560553 
L 540.631934 219.092696 
L 545.649322 217.654745 
L 550.666711 216.246092 
L 555.684099 214.866141 
L 560.701488 213.514307 
L 565.718876 212.190017 
L 570.736264 210.892711 
L 575.753653 209.621838 
L 580.771041 208.376862 
L 585.78843 207.157254 
L 590.805818 205.962497 
L 595.823207 204.792087 
L 600.840595 203.645525 
L 605.857983 202.522328 
L 610.875372 201.422019 
L 615.89276 200.344132 
L 620.910149 199.28821 
L 625.927537 198.253806 
L 630.944926 197.240481 
L 635.962314 196.247807 
L 640.979702 195.275362 
L 645.997091 194.322734 
L 651.014479 193.389521 
L 656.031868 192.475325 
L 661.049256 191.57976 
L 666.066645 190.702447 
L 671.084033 189.843013 
L 676.101421 189.001094 
L 681.11881 188.176334 
L 686.136198 187.368383 
L 691.153587 186.576898 
L 696.170975 185.801544 
L 701.188364 185.041992 
" clip-path="url(#pc2ff4e8839)" style="fill: none; stroke: #66ff33; stroke-width: 3; stroke-linecap: round"/>
   </g>
   <g id="text_1">
    <path d="M 709.893344 179.58856 
L 710.743344 179.58856 
L 713.360531 186.68856 
L 712.285531 186.68856 
L 710.318344 180.960435 
L 708.351156 186.68856 
L 707.276156 186.68856 
L 709.893344 179.58856 
z
M 708.482406 184.183872 
L 712.218344 184.183872 
L 712.218344 185.130747 
L 708.482406 185.130747 
L 708.482406 184.183872 
z
M 716.002328 186.68856 
L 715.005453 186.68856 
L 715.005453 180.672935 
L 713.994516 181.293247 
L 713.994516 180.261997 
L 715.005453 179.58856 
L 716.002328 179.58856 
L 716.002328 186.68856 
z
M 721.280648 180.477622 
L 719.444711 186.68856 
L 718.385336 186.68856 
L 720.221273 180.535435 
L 718.413461 180.535435 
L 718.413461 181.55731 
L 717.418148 181.55731 
L 717.418148 179.58856 
L 721.280648 179.58856 
L 721.280648 180.477622 
z
M 725.016 182.986997 
L 727.286312 182.986997 
Q 727.608187 182.986997 727.851937 182.835435 
Q 728.09725 182.683872 728.230062 182.405747 
Q 728.364437 182.127622 728.364437 181.766685 
L 728.364437 181.766685 
Q 728.364437 181.40106 728.230062 181.122935 
Q 728.09725 180.843247 727.851937 180.690122 
Q 727.608187 180.535435 727.286312 180.535435 
L 725.016 180.535435 
L 725.016 179.58856 
L 727.251937 179.58856 
Q 727.886312 179.58856 728.369125 179.860435 
Q 728.8535 180.130747 729.119125 180.624497 
Q 729.386312 181.116685 729.386312 181.766685 
L 729.386312 181.766685 
Q 729.386312 182.416685 729.119125 182.90731 
Q 728.8535 183.397935 728.369125 183.666685 
Q 727.886312 183.933872 727.251937 183.933872 
L 725.016 183.933872 
L 725.016 182.986997 
z
M 724.5035 179.58856 
L 725.498812 179.58856 
L 725.498812 186.68856 
L 724.5035 186.68856 
L 724.5035 179.58856 
z
M 730.630648 181.61981 
L 731.627523 181.61981 
L 731.627523 186.68856 
L 730.630648 186.68856 
L 730.630648 181.61981 
z
M 733.418148 182.821372 
Q 733.286898 182.660435 733.086898 182.577622 
Q 732.886898 182.49481 732.622836 182.49481 
Q 732.149398 182.49481 731.888461 182.755747 
Q 731.627523 183.016685 731.627523 183.480747 
L 731.524398 182.504185 
Q 731.758773 182.049497 732.129086 181.797935 
Q 732.500961 181.546372 732.949398 181.546372 
Q 733.296273 181.546372 733.577523 181.646372 
Q 733.858773 181.746372 734.068148 181.941685 
L 733.418148 182.821372 
z
M 736.841976 186.761997 
Q 736.182601 186.761997 735.713851 186.504185 
Q 735.245101 186.24481 734.998226 185.749497 
Q 734.751351 185.252622 734.751351 184.554185 
L 734.751351 183.729185 
Q 734.751351 183.041685 734.998226 182.55106 
Q 735.245101 182.058872 735.713851 181.802622 
Q 736.182601 181.546372 736.841976 181.546372 
Q 737.501351 181.546372 737.970101 181.802622 
Q 738.438851 182.058872 738.684164 182.55106 
Q 738.931039 183.041685 738.931039 183.729185 
L 738.931039 184.56981 
Q 738.931039 185.261997 738.684164 185.754185 
Q 738.438851 186.24481 737.970101 186.504185 
Q 737.501351 186.761997 736.841976 186.761997 
z
M 736.841976 185.815122 
Q 737.363851 185.815122 737.649789 185.48856 
Q 737.935726 185.160435 737.935726 184.56981 
L 737.935726 183.729185 
Q 737.935726 183.13856 737.649789 182.816685 
Q 737.363851 182.49481 736.841976 182.49481 
Q 736.318539 182.49481 736.032601 182.816685 
Q 735.748226 183.13856 735.748226 183.729185 
L 735.748226 184.56981 
Q 735.748226 185.160435 736.032601 185.48856 
Q 736.318539 185.815122 736.841976 185.815122 
z
" style="fill: #ffffff; stroke: #000000"/>
    <path d="M 709.893344 179.58856 
L 710.743344 179.58856 
L 713.360531 186.68856 
L 712.285531 186.68856 
L 710.318344 180.960435 
L 708.351156 186.68856 
L 707.276156 186.68856 
L 709.893344 179.58856 
z
M 708.482406 184.183872 
L 712.218344 184.183872 
L 712.218344 185.130747 
L 708.482406 185.130747 
L 708.482406 184.183872 
z
M 716.002328 186.68856 
L 715.005453 186.68856 
L 715.005453 180.672935 
L 713.994516 181.293247 
L 713.994516 180.261997 
L 715.005453 179.58856 
L 716.002328 179.58856 
L 716.002328 186.68856 
z
M 721.280648 180.477622 
L 719.444711 186.68856 
L 718.385336 186.68856 
L 720.221273 180.535435 
L 718.413461 180.535435 
L 718.413461 181.55731 
L 717.418148 181.55731 
L 717.418148 179.58856 
L 721.280648 179.58856 
L 721.280648 180.477622 
z
M 725.016 182.986997 
L 727.286312 182.986997 
Q 727.608187 182.986997 727.851937 182.835435 
Q 728.09725 182.683872 728.230062 182.405747 
Q 728.364437 182.127622 728.364437 181.766685 
L 728.364437 181.766685 
Q 728.364437 181.40106 728.230062 181.122935 
Q 728.09725 180.843247 727.851937 180.690122 
Q 727.608187 180.535435 727.286312 180.535435 
L 725.016 180.535435 
L 725.016 179.58856 
L 727.251937 179.58856 
Q 727.886312 179.58856 728.369125 179.860435 
Q 728.8535 180.130747 729.119125 180.624497 
Q 729.386312 181.116685 729.386312 181.766685 
L 729.386312 181.766685 
Q 729.386312 182.416685 729.119125 182.90731 
Q 728.8535 183.397935 728.369125 183.666685 
Q 727.886312 183.933872 727.251937 183.933872 
L 725.016 183.933872 
L 725.016 182.986997 
z
M 724.5035 179.58856 
L 725.498812 179.58856 
L 725.498812 186.68856 
L 724.5035 186.68856 
L 724.5035 179.58856 
z
M 730.630648 181.61981 
L 731.627523 181.61981 
L 731.627523 186.68856 
L 730.630648 186.68856 
L 730.630648 181.61981 
z
M 733.418148 182.821372 
Q 733.286898 182.660435 733.086898 182.577622 
Q 732.886898 182.49481 732.622836 182.49481 
Q 732.149398 182.49481 731.888461 182.755747 
Q 731.627523 183.016685 731.627523 183.480747 
L 731.524398 182.504185 
Q 731.758773 182.049497 732.129086 181.797935 
Q 732.500961 181.546372 732.949398 181.546372 
Q 733.296273 181.546372 733.577523 181.646372 
Q 733.858773 181.746372 734.068148 181.941685 
L 733.418148 182.821372 
z
M 736.841976 186.761997 
Q 736.182601 186.761997 735.713851 186.504185 
Q 735.245101 186.24481 734.998226 185.749497 
Q 734.751351 185.252622 734.751351 184.554185 
L 734.751351 183.729185 
Q 734.751351 183.041685 734.998226 182.55106 
Q 735.245101 182.058872 735.713851 181.802622 
Q 736.182601 181.546372 736.841976 181.546372 
Q 737.501351 181.546372 737.970101 181.802622 
Q 738.438851 182.058872 738.684164 182.55106 
Q 738.931039 183.041685 738.931039 183.729185 
L 738.931039 184.56981 
Q 738.931039 185.261997 738.684164 185.754185 
Q 738.438851 186.24481 737.970101 186.504185 
Q 737.501351 186.761997 736.841976 186.761997 
z
M 736.841976 185.815122 
Q 737.363851 185.815122 737.649789 185.48856 
Q 737.935726 185.160435 737.935726 184.56981 
L 737.935726 183.729185 
Q 737.935726 183.13856 737.649789 182.816685 
Q 737.363851 182.49481 736.841976 182.49481 
Q 736.318539 182.49481 736.032601 182.816685 
Q 735.748226 183.13856 735.748226 183.729185 
L 735.748226 184.56981 
Q 735.748226 185.160435 736.032601 185.48856 
Q 736.318539 185.815122 736.841976 185.815122 
z
" style="fill: #ffffff"/>
   </g>
  </g>
 </g>
 <defs>
  <clipPath id="pc2ff4e8839">
   <rect x="144" y="77.76" width="892.8" height="498.96"/>
  </clipPath>
 </defs>
</svg>
