<?xml version="1.0" encoding="utf-8" standalone="no"?>
<!DOCTYPE svg PUBLIC "-//W3C//DTD SVG 1.1//EN"
  "http://www.w3.org/Graphics/SVG/1.1/DTD/svg11.dtd">
<svg xmlns:xlink="http://www.w3.org/1999/xlink" width="1152pt" height="648pt" viewBox="0 0 1152 648" xmlns="http://www.w3.org/2000/svg" version="1.1">
 <metadata>
  <rdf:RDF xmlns:dc="http://purl.org/dc/elements/1.1/" xmlns:cc="http://creativecommons.org/ns#" xmlns:rdf="http://www.w3.org/1999/02/22-rdf-syntax-ns#">
   <cc:Work>
    <dc:type rdf:resource="http://purl.org/dc/dcmitype/StillImage"/>
    <dc:date>2024-10-09T18:10:09.962681</dc:date>
    <dc:format>image/svg+xml</dc:format>
    <dc:creator>
     <cc:Agent>
      <dc:title>Matplotlib v3.8.1, https://matplotlib.org/</dc:title>
     </cc:Agent>
    </dc:creator>
   </cc:Work>
  </rdf:RDF>
 </metadata>
 <defs>
  <style type="text/css">*{stroke-linejoin: round; stroke-linecap: butt}</style>
 </defs>
 <g id="figure_1">
  <g id="patch_1">
   <path d="M 0 648 
L 1152 648 
L 1152 0 
L 0 0 
L 0 648 
z
" style="fill: none"/>
  </g>
  <g id="axes_1">
   <g id="PathCollection_1">
    <defs>
     <path id="me1e2001cce" d="M 0 2.738613 
C 0.726289 2.738613 1.422928 2.450055 1.936492 1.936492 
C 2.450055 1.422928 2.738613 0.726289 2.738613 0 
C 2.738613 -0.726289 2.450055 -1.422928 1.936492 -1.936492 
C 1.422928 -2.450055 0.726289 -2.738613 0 -2.738613 
C -0.726289 -2.738613 -1.422928 -2.450055 -1.936492 -1.936492 
C -2.450055 -1.422928 -2.738613 -0.726289 -2.738613 0 
C -2.738613 0.726289 -2.450055 1.422928 -1.936492 1.936492 
C -1.422928 2.450055 -0.726289 2.738613 0 2.738613 
z
" style="stroke: #bfff80"/>
    </defs>
    <g clip-path="url(#p128a367e8c)">
     <use xlink:href="#me1e2001cce" x="620.836364" y="126.757872" style="fill: #bfff80; stroke: #bfff80"/>
     <use xlink:href="#me1e2001cce" x="244.642909" y="381.12768" style="fill: #bfff80; stroke: #bfff80"/>
    </g>
   </g>
   <g id="text_1">
    <path d="M 629.541344 121.30444 
L 630.391344 121.30444 
L 633.008531 128.40444 
L 631.933531 128.40444 
L 629.966344 122.676315 
L 627.999156 128.40444 
L 626.924156 128.40444 
L 629.541344 121.30444 
z
M 628.130406 125.899753 
L 631.866344 125.899753 
L 631.866344 126.846628 
L 628.130406 126.846628 
L 628.130406 125.899753 
z
M 635.650328 128.40444 
L 634.653453 128.40444 
L 634.653453 122.388815 
L 633.642516 123.009128 
L 633.642516 121.977878 
L 634.653453 121.30444 
L 635.650328 121.30444 
L 635.650328 128.40444 
z
M 639.341148 128.477878 
Q 638.697398 128.477878 638.208336 128.234128 
Q 637.720836 127.988815 637.453648 127.54194 
Q 637.188023 127.095065 637.188023 126.50444 
L 637.188023 126.387253 
Q 637.188023 125.856003 637.453648 125.387253 
Q 637.720836 124.918503 638.164586 124.67944 
Q 637.788023 124.47319 637.561461 124.08569 
Q 637.334898 123.696628 637.334898 123.26694 
L 637.334898 123.096628 
Q 637.334898 122.540378 637.583336 122.118503 
Q 637.831773 121.695065 638.286461 121.463815 
Q 638.741148 121.231003 639.341148 121.231003 
Q 639.941148 121.231003 640.395836 121.463815 
Q 640.850523 121.695065 641.098961 122.118503 
Q 641.347398 122.540378 641.347398 123.096628 
L 641.347398 123.26694 
Q 641.347398 123.707565 641.116148 124.093503 
Q 640.884898 124.477878 640.503648 124.67944 
Q 640.952086 124.92319 641.222398 125.390378 
Q 641.494273 125.856003 641.494273 126.387253 
L 641.494273 126.50444 
Q 641.494273 127.095065 641.228648 127.54194 
Q 640.963023 127.988815 640.473961 128.234128 
Q 639.986461 128.477878 639.341148 128.477878 
z
M 639.341148 127.520065 
Q 639.688023 127.520065 639.950523 127.384128 
Q 640.214586 127.246628 640.358336 127.001315 
Q 640.503648 126.75444 640.503648 126.431003 
L 640.503648 126.363815 
Q 640.503648 126.03569 640.358336 125.790378 
Q 640.214586 125.543503 639.950523 125.407565 
Q 639.688023 125.270065 639.341148 125.270065 
Q 638.994273 125.270065 638.730211 125.407565 
Q 638.467711 125.543503 638.322398 125.79194 
Q 638.178648 126.040378 638.178648 126.368503 
L 638.178648 126.44194 
Q 638.178648 126.763815 638.322398 127.007565 
Q 638.467711 127.251315 638.730211 127.38569 
Q 638.994273 127.520065 639.341148 127.520065 
z
M 639.341148 124.312253 
Q 639.639586 124.312253 639.867711 124.184128 
Q 640.097398 124.05444 640.223961 123.815378 
Q 640.352086 123.574753 640.352086 123.262253 
L 640.352086 123.195065 
Q 640.352086 122.896628 640.223961 122.66694 
Q 640.097398 122.437253 639.867711 122.313815 
Q 639.639586 122.188815 639.341148 122.188815 
Q 639.042711 122.188815 638.813023 122.313815 
Q 638.584898 122.437253 638.456773 122.66694 
Q 638.330211 122.896628 638.330211 123.199753 
L 638.330211 123.27319 
Q 638.330211 123.57944 638.456773 123.81694 
Q 638.584898 124.05444 638.813023 124.184128 
Q 639.042711 124.312253 639.341148 124.312253 
z
" style="fill: #ffffff; stroke: #000000"/>
    <path d="M 629.541344 121.30444 
L 630.391344 121.30444 
L 633.008531 128.40444 
L 631.933531 128.40444 
L 629.966344 122.676315 
L 627.999156 128.40444 
L 626.924156 128.40444 
L 629.541344 121.30444 
z
M 628.130406 125.899753 
L 631.866344 125.899753 
L 631.866344 126.846628 
L 628.130406 126.846628 
L 628.130406 125.899753 
z
M 635.650328 128.40444 
L 634.653453 128.40444 
L 634.653453 122.388815 
L 633.642516 123.009128 
L 633.642516 121.977878 
L 634.653453 121.30444 
L 635.650328 121.30444 
L 635.650328 128.40444 
z
M 639.341148 128.477878 
Q 638.697398 128.477878 638.208336 128.234128 
Q 637.720836 127.988815 637.453648 127.54194 
Q 637.188023 127.095065 637.188023 126.50444 
L 637.188023 126.387253 
Q 637.188023 125.856003 637.453648 125.387253 
Q 637.720836 124.918503 638.164586 124.67944 
Q 637.788023 124.47319 637.561461 124.08569 
Q 637.334898 123.696628 637.334898 123.26694 
L 637.334898 123.096628 
Q 637.334898 122.540378 637.583336 122.118503 
Q 637.831773 121.695065 638.286461 121.463815 
Q 638.741148 121.231003 639.341148 121.231003 
Q 639.941148 121.231003 640.395836 121.463815 
Q 640.850523 121.695065 641.098961 122.118503 
Q 641.347398 122.540378 641.347398 123.096628 
L 641.347398 123.26694 
Q 641.347398 123.707565 641.116148 124.093503 
Q 640.884898 124.477878 640.503648 124.67944 
Q 640.952086 124.92319 641.222398 125.390378 
Q 641.494273 125.856003 641.494273 126.387253 
L 641.494273 126.50444 
Q 641.494273 127.095065 641.228648 127.54194 
Q 640.963023 127.988815 640.473961 128.234128 
Q 639.986461 128.477878 639.341148 128.477878 
z
M 639.341148 127.520065 
Q 639.688023 127.520065 639.950523 127.384128 
Q 640.214586 127.246628 640.358336 127.001315 
Q 640.503648 126.75444 640.503648 126.431003 
L 640.503648 126.363815 
Q 640.503648 126.03569 640.358336 125.790378 
Q 640.214586 125.543503 639.950523 125.407565 
Q 639.688023 125.270065 639.341148 125.270065 
Q 638.994273 125.270065 638.730211 125.407565 
Q 638.467711 125.543503 638.322398 125.79194 
Q 638.178648 126.040378 638.178648 126.368503 
L 638.178648 126.44194 
Q 638.178648 126.763815 638.322398 127.007565 
Q 638.467711 127.251315 638.730211 127.38569 
Q 638.994273 127.520065 639.341148 127.520065 
z
M 639.341148 124.312253 
Q 639.639586 124.312253 639.867711 124.184128 
Q 640.097398 124.05444 640.223961 123.815378 
Q 640.352086 123.574753 640.352086 123.262253 
L 640.352086 123.195065 
Q 640.352086 122.896628 640.223961 122.66694 
Q 640.097398 122.437253 639.867711 122.313815 
Q 639.639586 122.188815 639.341148 122.188815 
Q 639.042711 122.188815 638.813023 122.313815 
Q 638.584898 122.437253 638.456773 122.66694 
Q 638.330211 122.896628 638.330211 123.199753 
L 638.330211 123.27319 
Q 638.330211 123.57944 638.456773 123.81694 
Q 638.584898 124.05444 638.813023 124.184128 
Q 639.042711 124.312253 639.341148 124.312253 
z
" style="fill: #ffffff"/>
   </g>
   <g id="text_2">
    <path d="M 253.347889 375.674248 
L 254.197889 375.674248 
L 256.815077 382.774248 
L 255.740077 382.774248 
L 253.772889 377.046123 
L 251.805702 382.774248 
L 250.730702 382.774248 
L 253.347889 375.674248 
z
M 251.936952 380.269561 
L 255.672889 380.269561 
L 255.672889 381.216435 
L 251.936952 381.216435 
L 251.936952 380.269561 
z
M 259.456873 382.774248 
L 258.459998 382.774248 
L 258.459998 376.758623 
L 257.449061 377.378936 
L 257.449061 376.347686 
L 258.459998 375.674248 
L 259.456873 375.674248 
L 259.456873 382.774248 
z
M 263.147694 382.847686 
Q 262.503944 382.847686 262.014881 382.603935 
Q 261.527381 382.358623 261.260194 381.911748 
Q 260.994569 381.464873 260.994569 380.874248 
L 260.994569 380.757061 
Q 260.994569 380.225811 261.260194 379.757061 
Q 261.527381 379.288311 261.971131 379.049248 
Q 261.594569 378.842998 261.368006 378.455498 
Q 261.141444 378.066436 261.141444 377.636748 
L 261.141444 377.466435 
Q 261.141444 376.910186 261.389881 376.488311 
Q 261.638319 376.064873 262.093006 375.833623 
Q 262.547694 375.600811 263.147694 375.600811 
Q 263.747694 375.600811 264.202381 375.833623 
Q 264.657069 376.064873 264.905506 376.488311 
Q 265.153944 376.910186 265.153944 377.466435 
L 265.153944 377.636748 
Q 265.153944 378.077373 264.922694 378.46331 
Q 264.691444 378.847686 264.310194 379.049248 
Q 264.758631 379.292998 265.028944 379.760185 
Q 265.300819 380.225811 265.300819 380.757061 
L 265.300819 380.874248 
Q 265.300819 381.464873 265.035194 381.911748 
Q 264.769569 382.358623 264.280506 382.603935 
Q 263.793006 382.847686 263.147694 382.847686 
z
M 263.147694 381.889873 
Q 263.494569 381.889873 263.757069 381.753936 
Q 264.021131 381.616436 264.164881 381.371123 
Q 264.310194 381.124248 264.310194 380.800811 
L 264.310194 380.733623 
Q 264.310194 380.405498 264.164881 380.160186 
Q 264.021131 379.913311 263.757069 379.777373 
Q 263.494569 379.639873 263.147694 379.639873 
Q 262.800819 379.639873 262.536756 379.777373 
Q 262.274256 379.913311 262.128944 380.161748 
Q 261.985194 380.410186 261.985194 380.738311 
L 261.985194 380.811748 
Q 261.985194 381.133623 262.128944 381.377373 
Q 262.274256 381.621123 262.536756 381.755498 
Q 262.800819 381.889873 263.147694 381.889873 
z
M 263.147694 378.68206 
Q 263.446131 378.68206 263.674256 378.553936 
Q 263.903944 378.424248 264.030506 378.185185 
Q 264.158631 377.944561 264.158631 377.632061 
L 264.158631 377.564873 
Q 264.158631 377.266436 264.030506 377.036748 
Q 263.903944 376.80706 263.674256 376.683623 
Q 263.446131 376.558623 263.147694 376.558623 
Q 262.849256 376.558623 262.619569 376.683623 
Q 262.391444 376.80706 262.263319 377.036748 
Q 262.136756 377.266436 262.136756 377.569561 
L 262.136756 377.642998 
Q 262.136756 377.949248 262.263319 378.186748 
Q 262.391444 378.424248 262.619569 378.553936 
Q 262.849256 378.68206 263.147694 378.68206 
z
" style="fill: #ffffff; stroke: #000000"/>
    <path d="M 253.347889 375.674248 
L 254.197889 375.674248 
L 256.815077 382.774248 
L 255.740077 382.774248 
L 253.772889 377.046123 
L 251.805702 382.774248 
L 250.730702 382.774248 
L 253.347889 375.674248 
z
M 251.936952 380.269561 
L 255.672889 380.269561 
L 255.672889 381.216435 
L 251.936952 381.216435 
L 251.936952 380.269561 
z
M 259.456873 382.774248 
L 258.459998 382.774248 
L 258.459998 376.758623 
L 257.449061 377.378936 
L 257.449061 376.347686 
L 258.459998 375.674248 
L 259.456873 375.674248 
L 259.456873 382.774248 
z
M 263.147694 382.847686 
Q 262.503944 382.847686 262.014881 382.603935 
Q 261.527381 382.358623 261.260194 381.911748 
Q 260.994569 381.464873 260.994569 380.874248 
L 260.994569 380.757061 
Q 260.994569 380.225811 261.260194 379.757061 
Q 261.527381 379.288311 261.971131 379.049248 
Q 261.594569 378.842998 261.368006 378.455498 
Q 261.141444 378.066436 261.141444 377.636748 
L 261.141444 377.466435 
Q 261.141444 376.910186 261.389881 376.488311 
Q 261.638319 376.064873 262.093006 375.833623 
Q 262.547694 375.600811 263.147694 375.600811 
Q 263.747694 375.600811 264.202381 375.833623 
Q 264.657069 376.064873 264.905506 376.488311 
Q 265.153944 376.910186 265.153944 377.466435 
L 265.153944 377.636748 
Q 265.153944 378.077373 264.922694 378.46331 
Q 264.691444 378.847686 264.310194 379.049248 
Q 264.758631 379.292998 265.028944 379.760185 
Q 265.300819 380.225811 265.300819 380.757061 
L 265.300819 380.874248 
Q 265.300819 381.464873 265.035194 381.911748 
Q 264.769569 382.358623 264.280506 382.603935 
Q 263.793006 382.847686 263.147694 382.847686 
z
M 263.147694 381.889873 
Q 263.494569 381.889873 263.757069 381.753936 
Q 264.021131 381.616436 264.164881 381.371123 
Q 264.310194 381.124248 264.310194 380.800811 
L 264.310194 380.733623 
Q 264.310194 380.405498 264.164881 380.160186 
Q 264.021131 379.913311 263.757069 379.777373 
Q 263.494569 379.639873 263.147694 379.639873 
Q 262.800819 379.639873 262.536756 379.777373 
Q 262.274256 379.913311 262.128944 380.161748 
Q 261.985194 380.410186 261.985194 380.738311 
L 261.985194 380.811748 
Q 261.985194 381.133623 262.128944 381.377373 
Q 262.274256 381.621123 262.536756 381.755498 
Q 262.800819 381.889873 263.147694 381.889873 
z
M 263.147694 378.68206 
Q 263.446131 378.68206 263.674256 378.553936 
Q 263.903944 378.424248 264.030506 378.185185 
Q 264.158631 377.944561 264.158631 377.632061 
L 264.158631 377.564873 
Q 264.158631 377.266436 264.030506 377.036748 
Q 263.903944 376.80706 263.674256 376.683623 
Q 263.446131 376.558623 263.147694 376.558623 
Q 262.849256 376.558623 262.619569 376.683623 
Q 262.391444 376.80706 262.263319 377.036748 
Q 262.136756 377.266436 262.136756 377.569561 
L 262.136756 377.642998 
Q 262.136756 377.949248 262.263319 378.186748 
Q 262.391444 378.424248 262.619569 378.553936 
Q 262.849256 378.68206 263.147694 378.68206 
z
" style="fill: #ffffff"/>
   </g>
  </g>
 </g>
 <defs>
  <clipPath id="p128a367e8c">
   <rect x="144" y="77.76" width="892.8" height="498.96"/>
  </clipPath>
 </defs>
</svg>
