<?xml version="1.0" encoding="utf-8" standalone="no"?>
<!DOCTYPE svg PUBLIC "-//W3C//DTD SVG 1.1//EN"
  "http://www.w3.org/Graphics/SVG/1.1/DTD/svg11.dtd">
<svg xmlns:xlink="http://www.w3.org/1999/xlink" width="1152pt" height="648pt" viewBox="0 0 1152 648" xmlns="http://www.w3.org/2000/svg" version="1.1">
 <metadata>
  <rdf:RDF xmlns:dc="http://purl.org/dc/elements/1.1/" xmlns:cc="http://creativecommons.org/ns#" xmlns:rdf="http://www.w3.org/1999/02/22-rdf-syntax-ns#">
   <cc:Work>
    <dc:type rdf:resource="http://purl.org/dc/dcmitype/StillImage"/>
    <dc:date>2024-10-09T18:10:09.937736</dc:date>
    <dc:format>image/svg+xml</dc:format>
    <dc:creator>
     <cc:Agent>
      <dc:title>Matplotlib v3.8.1, https://matplotlib.org/</dc:title>
     </cc:Agent>
    </dc:creator>
   </cc:Work>
  </rdf:RDF>
 </metadata>
 <defs>
  <style type="text/css">*{stroke-linejoin: round; stroke-linecap: butt}</style>
 </defs>
 <g id="figure_1">
  <g id="patch_1">
   <path d="M 0 648 
L 1152 648 
L 1152 0 
L 0 0 
L 0 648 
z
" style="fill: none"/>
  </g>
  <g id="axes_1">
   <g id="PathCollection_1">
    <defs>
     <path id="md24a20398c" d="M 0 2.738613 
C 0.726289 2.738613 1.422928 2.450055 1.936492 1.936492 
C 2.450055 1.422928 2.738613 0.726289 2.738613 0 
C 2.738613 -0.726289 2.450055 -1.422928 1.936492 -1.936492 
C 1.422928 -2.450055 0.726289 -2.738613 0 -2.738613 
C -0.726289 -2.738613 -1.422928 -2.450055 -1.936492 -1.936492 
C -2.450055 -1.422928 -2.738613 -0.726289 -2.738613 0 
C -2.738613 0.726289 -2.450055 1.422928 -1.936492 1.936492 
C -1.422928 2.450055 -0.726289 2.738613 0 2.738613 
z
" style="stroke: #ccff33"/>
    </defs>
    <g clip-path="url(#p7a280604d9)">
     <use xlink:href="#md24a20398c" x="625.300364" y="108.895104" style="fill: #ccff33; stroke: #ccff33"/>
     <use xlink:href="#md24a20398c" x="249.918545" y="368.553888" style="fill: #ccff33; stroke: #ccff33"/>
    </g>
   </g>
   <g id="text_1">
    <path d="M 634.005344 103.441672 
L 634.855344 103.441672 
L 637.472531 110.541672 
L 636.397531 110.541672 
L 634.430344 104.813547 
L 632.463156 110.541672 
L 631.388156 110.541672 
L 634.005344 103.441672 
z
M 632.594406 108.036984 
L 636.330344 108.036984 
L 636.330344 108.983859 
L 632.594406 108.983859 
L 632.594406 108.036984 
z
M 640.114328 110.541672 
L 639.117453 110.541672 
L 639.117453 104.526047 
L 638.106516 105.146359 
L 638.106516 104.115109 
L 639.117453 103.441672 
L 640.114328 103.441672 
L 640.114328 110.541672 
z
M 643.805148 110.615109 
Q 643.161398 110.615109 642.672336 110.371359 
Q 642.184836 110.126047 641.917648 109.679172 
Q 641.652023 109.232297 641.652023 108.641672 
L 641.652023 108.524484 
Q 641.652023 107.993234 641.917648 107.524484 
Q 642.184836 107.055734 642.628586 106.816672 
Q 642.252023 106.610422 642.025461 106.222922 
Q 641.798898 105.833859 641.798898 105.404172 
L 641.798898 105.233859 
Q 641.798898 104.677609 642.047336 104.255734 
Q 642.295773 103.832297 642.750461 103.601047 
Q 643.205148 103.368234 643.805148 103.368234 
Q 644.405148 103.368234 644.859836 103.601047 
Q 645.314523 103.832297 645.562961 104.255734 
Q 645.811398 104.677609 645.811398 105.233859 
L 645.811398 105.404172 
Q 645.811398 105.844797 645.580148 106.230734 
Q 645.348898 106.615109 644.967648 106.816672 
Q 645.416086 107.060422 645.686398 107.527609 
Q 645.958273 107.993234 645.958273 108.524484 
L 645.958273 108.641672 
Q 645.958273 109.232297 645.692648 109.679172 
Q 645.427023 110.126047 644.937961 110.371359 
Q 644.450461 110.615109 643.805148 110.615109 
z
M 643.805148 109.657297 
Q 644.152023 109.657297 644.414523 109.521359 
Q 644.678586 109.383859 644.822336 109.138547 
Q 644.967648 108.891672 644.967648 108.568234 
L 644.967648 108.501047 
Q 644.967648 108.172922 644.822336 107.927609 
Q 644.678586 107.680734 644.414523 107.544797 
Q 644.152023 107.407297 643.805148 107.407297 
Q 643.458273 107.407297 643.194211 107.544797 
Q 642.931711 107.680734 642.786398 107.929172 
Q 642.642648 108.177609 642.642648 108.505734 
L 642.642648 108.579172 
Q 642.642648 108.901047 642.786398 109.144797 
Q 642.931711 109.388547 643.194211 109.522922 
Q 643.458273 109.657297 643.805148 109.657297 
z
M 643.805148 106.449484 
Q 644.103586 106.449484 644.331711 106.321359 
Q 644.561398 106.191672 644.687961 105.952609 
Q 644.816086 105.711984 644.816086 105.399484 
L 644.816086 105.332297 
Q 644.816086 105.033859 644.687961 104.804172 
Q 644.561398 104.574484 644.331711 104.451047 
Q 644.103586 104.326047 643.805148 104.326047 
Q 643.506711 104.326047 643.277023 104.451047 
Q 643.048898 104.574484 642.920773 104.804172 
Q 642.794211 105.033859 642.794211 105.336984 
L 642.794211 105.410422 
Q 642.794211 105.716672 642.920773 105.954172 
Q 643.048898 106.191672 643.277023 106.321359 
Q 643.506711 106.449484 643.805148 106.449484 
z
M 649.71882 106.840109 
L 651.989133 106.840109 
Q 652.311008 106.840109 652.554758 106.688547 
Q 652.80007 106.536984 652.932883 106.258859 
Q 653.067258 105.980734 653.067258 105.619797 
L 653.067258 105.619797 
Q 653.067258 105.254172 652.932883 104.976047 
Q 652.80007 104.696359 652.554758 104.543234 
Q 652.311008 104.388547 651.989133 104.388547 
L 649.71882 104.388547 
L 649.71882 103.441672 
L 651.954758 103.441672 
Q 652.589133 103.441672 653.071945 103.713547 
Q 653.55632 103.983859 653.821945 104.477609 
Q 654.089133 104.969797 654.089133 105.619797 
L 654.089133 105.619797 
Q 654.089133 106.269797 653.821945 106.760422 
Q 653.55632 107.251047 653.071945 107.519797 
Q 652.589133 107.786984 651.954758 107.786984 
L 649.71882 107.786984 
L 649.71882 106.840109 
z
M 649.20632 103.441672 
L 650.201633 103.441672 
L 650.201633 110.541672 
L 649.20632 110.541672 
L 649.20632 103.441672 
z
M 655.333469 105.472922 
L 656.330344 105.472922 
L 656.330344 110.541672 
L 655.333469 110.541672 
L 655.333469 105.472922 
z
M 658.120969 106.674484 
Q 657.989719 106.513547 657.789719 106.430734 
Q 657.589719 106.347922 657.325656 106.347922 
Q 656.852219 106.347922 656.591281 106.608859 
Q 656.330344 106.869797 656.330344 107.333859 
L 656.227219 106.357297 
Q 656.461594 105.902609 656.831906 105.651047 
Q 657.203781 105.399484 657.652219 105.399484 
Q 657.999094 105.399484 658.280344 105.499484 
Q 658.561594 105.599484 658.770969 105.794797 
L 658.120969 106.674484 
z
M 661.544797 110.615109 
Q 660.885422 110.615109 660.416672 110.357297 
Q 659.947922 110.097922 659.701047 109.602609 
Q 659.454172 109.105734 659.454172 108.407297 
L 659.454172 107.582297 
Q 659.454172 106.894797 659.701047 106.404172 
Q 659.947922 105.911984 660.416672 105.655734 
Q 660.885422 105.399484 661.544797 105.399484 
Q 662.204172 105.399484 662.672922 105.655734 
Q 663.141672 105.911984 663.386984 106.404172 
Q 663.633859 106.894797 663.633859 107.582297 
L 663.633859 108.422922 
Q 663.633859 109.115109 663.386984 109.607297 
Q 663.141672 110.097922 662.672922 110.357297 
Q 662.204172 110.615109 661.544797 110.615109 
z
M 661.544797 109.668234 
Q 662.066672 109.668234 662.352609 109.341672 
Q 662.638547 109.013547 662.638547 108.422922 
L 662.638547 107.582297 
Q 662.638547 106.991672 662.352609 106.669797 
Q 662.066672 106.347922 661.544797 106.347922 
Q 661.021359 106.347922 660.735422 106.669797 
Q 660.451047 106.991672 660.451047 107.582297 
L 660.451047 108.422922 
Q 660.451047 109.013547 660.735422 109.341672 
Q 661.021359 109.668234 661.544797 109.668234 
z
" style="fill: #ffffff; stroke: #000000"/>
    <path d="M 634.005344 103.441672 
L 634.855344 103.441672 
L 637.472531 110.541672 
L 636.397531 110.541672 
L 634.430344 104.813547 
L 632.463156 110.541672 
L 631.388156 110.541672 
L 634.005344 103.441672 
z
M 632.594406 108.036984 
L 636.330344 108.036984 
L 636.330344 108.983859 
L 632.594406 108.983859 
L 632.594406 108.036984 
z
M 640.114328 110.541672 
L 639.117453 110.541672 
L 639.117453 104.526047 
L 638.106516 105.146359 
L 638.106516 104.115109 
L 639.117453 103.441672 
L 640.114328 103.441672 
L 640.114328 110.541672 
z
M 643.805148 110.615109 
Q 643.161398 110.615109 642.672336 110.371359 
Q 642.184836 110.126047 641.917648 109.679172 
Q 641.652023 109.232297 641.652023 108.641672 
L 641.652023 108.524484 
Q 641.652023 107.993234 641.917648 107.524484 
Q 642.184836 107.055734 642.628586 106.816672 
Q 642.252023 106.610422 642.025461 106.222922 
Q 641.798898 105.833859 641.798898 105.404172 
L 641.798898 105.233859 
Q 641.798898 104.677609 642.047336 104.255734 
Q 642.295773 103.832297 642.750461 103.601047 
Q 643.205148 103.368234 643.805148 103.368234 
Q 644.405148 103.368234 644.859836 103.601047 
Q 645.314523 103.832297 645.562961 104.255734 
Q 645.811398 104.677609 645.811398 105.233859 
L 645.811398 105.404172 
Q 645.811398 105.844797 645.580148 106.230734 
Q 645.348898 106.615109 644.967648 106.816672 
Q 645.416086 107.060422 645.686398 107.527609 
Q 645.958273 107.993234 645.958273 108.524484 
L 645.958273 108.641672 
Q 645.958273 109.232297 645.692648 109.679172 
Q 645.427023 110.126047 644.937961 110.371359 
Q 644.450461 110.615109 643.805148 110.615109 
z
M 643.805148 109.657297 
Q 644.152023 109.657297 644.414523 109.521359 
Q 644.678586 109.383859 644.822336 109.138547 
Q 644.967648 108.891672 644.967648 108.568234 
L 644.967648 108.501047 
Q 644.967648 108.172922 644.822336 107.927609 
Q 644.678586 107.680734 644.414523 107.544797 
Q 644.152023 107.407297 643.805148 107.407297 
Q 643.458273 107.407297 643.194211 107.544797 
Q 642.931711 107.680734 642.786398 107.929172 
Q 642.642648 108.177609 642.642648 108.505734 
L 642.642648 108.579172 
Q 642.642648 108.901047 642.786398 109.144797 
Q 642.931711 109.388547 643.194211 109.522922 
Q 643.458273 109.657297 643.805148 109.657297 
z
M 643.805148 106.449484 
Q 644.103586 106.449484 644.331711 106.321359 
Q 644.561398 106.191672 644.687961 105.952609 
Q 644.816086 105.711984 644.816086 105.399484 
L 644.816086 105.332297 
Q 644.816086 105.033859 644.687961 104.804172 
Q 644.561398 104.574484 644.331711 104.451047 
Q 644.103586 104.326047 643.805148 104.326047 
Q 643.506711 104.326047 643.277023 104.451047 
Q 643.048898 104.574484 642.920773 104.804172 
Q 642.794211 105.033859 642.794211 105.336984 
L 642.794211 105.410422 
Q 642.794211 105.716672 642.920773 105.954172 
Q 643.048898 106.191672 643.277023 106.321359 
Q 643.506711 106.449484 643.805148 106.449484 
z
M 649.71882 106.840109 
L 651.989133 106.840109 
Q 652.311008 106.840109 652.554758 106.688547 
Q 652.80007 106.536984 652.932883 106.258859 
Q 653.067258 105.980734 653.067258 105.619797 
L 653.067258 105.619797 
Q 653.067258 105.254172 652.932883 104.976047 
Q 652.80007 104.696359 652.554758 104.543234 
Q 652.311008 104.388547 651.989133 104.388547 
L 649.71882 104.388547 
L 649.71882 103.441672 
L 651.954758 103.441672 
Q 652.589133 103.441672 653.071945 103.713547 
Q 653.55632 103.983859 653.821945 104.477609 
Q 654.089133 104.969797 654.089133 105.619797 
L 654.089133 105.619797 
Q 654.089133 106.269797 653.821945 106.760422 
Q 653.55632 107.251047 653.071945 107.519797 
Q 652.589133 107.786984 651.954758 107.786984 
L 649.71882 107.786984 
L 649.71882 106.840109 
z
M 649.20632 103.441672 
L 650.201633 103.441672 
L 650.201633 110.541672 
L 649.20632 110.541672 
L 649.20632 103.441672 
z
M 655.333469 105.472922 
L 656.330344 105.472922 
L 656.330344 110.541672 
L 655.333469 110.541672 
L 655.333469 105.472922 
z
M 658.120969 106.674484 
Q 657.989719 106.513547 657.789719 106.430734 
Q 657.589719 106.347922 657.325656 106.347922 
Q 656.852219 106.347922 656.591281 106.608859 
Q 656.330344 106.869797 656.330344 107.333859 
L 656.227219 106.357297 
Q 656.461594 105.902609 656.831906 105.651047 
Q 657.203781 105.399484 657.652219 105.399484 
Q 657.999094 105.399484 658.280344 105.499484 
Q 658.561594 105.599484 658.770969 105.794797 
L 658.120969 106.674484 
z
M 661.544797 110.615109 
Q 660.885422 110.615109 660.416672 110.357297 
Q 659.947922 110.097922 659.701047 109.602609 
Q 659.454172 109.105734 659.454172 108.407297 
L 659.454172 107.582297 
Q 659.454172 106.894797 659.701047 106.404172 
Q 659.947922 105.911984 660.416672 105.655734 
Q 660.885422 105.399484 661.544797 105.399484 
Q 662.204172 105.399484 662.672922 105.655734 
Q 663.141672 105.911984 663.386984 106.404172 
Q 663.633859 106.894797 663.633859 107.582297 
L 663.633859 108.422922 
Q 663.633859 109.115109 663.386984 109.607297 
Q 663.141672 110.097922 662.672922 110.357297 
Q 662.204172 110.615109 661.544797 110.615109 
z
M 661.544797 109.668234 
Q 662.066672 109.668234 662.352609 109.341672 
Q 662.638547 109.013547 662.638547 108.422922 
L 662.638547 107.582297 
Q 662.638547 106.991672 662.352609 106.669797 
Q 662.066672 106.347922 661.544797 106.347922 
Q 661.021359 106.347922 660.735422 106.669797 
Q 660.451047 106.991672 660.451047 107.582297 
L 660.451047 108.422922 
Q 660.451047 109.013547 660.735422 109.341672 
Q 661.021359 109.668234 661.544797 109.668234 
z
" style="fill: #ffffff"/>
   </g>
   <g id="text_2">
    <path d="M 258.623525 363.100456 
L 259.473525 363.100456 
L 262.090713 370.200456 
L 261.015713 370.200456 
L 259.048525 364.472331 
L 257.081338 370.200456 
L 256.006338 370.200456 
L 258.623525 363.100456 
z
M 257.212588 367.695768 
L 260.948525 367.695768 
L 260.948525 368.642643 
L 257.212588 368.642643 
L 257.212588 367.695768 
z
M 264.73251 370.200456 
L 263.735635 370.200456 
L 263.735635 364.184831 
L 262.724697 364.805143 
L 262.724697 363.773893 
L 263.735635 363.100456 
L 264.73251 363.100456 
L 264.73251 370.200456 
z
M 268.42333 370.273893 
Q 267.77958 370.273893 267.290518 370.030143 
Q 266.803018 369.784831 266.53583 369.337956 
Q 266.270205 368.891081 266.270205 368.300456 
L 266.270205 368.183268 
Q 266.270205 367.652018 266.53583 367.183268 
Q 266.803018 366.714518 267.246768 366.475456 
Q 266.870205 366.269206 266.643643 365.881706 
Q 266.41708 365.492643 266.41708 365.062956 
L 266.41708 364.892643 
Q 266.41708 364.336393 266.665518 363.914518 
Q 266.913955 363.491081 267.368643 363.259831 
Q 267.82333 363.027018 268.42333 363.027018 
Q 269.02333 363.027018 269.478018 363.259831 
Q 269.932705 363.491081 270.181143 363.914518 
Q 270.42958 364.336393 270.42958 364.892643 
L 270.42958 365.062956 
Q 270.42958 365.503581 270.19833 365.889518 
Q 269.96708 366.273893 269.58583 366.475456 
Q 270.034268 366.719206 270.30458 367.186393 
Q 270.576455 367.652018 270.576455 368.183268 
L 270.576455 368.300456 
Q 270.576455 368.891081 270.31083 369.337956 
Q 270.045205 369.784831 269.556143 370.030143 
Q 269.068643 370.273893 268.42333 370.273893 
z
M 268.42333 369.316081 
Q 268.770205 369.316081 269.032705 369.180143 
Q 269.296768 369.042643 269.440518 368.797331 
Q 269.58583 368.550456 269.58583 368.227018 
L 269.58583 368.159831 
Q 269.58583 367.831706 269.440518 367.586393 
Q 269.296768 367.339518 269.032705 367.203581 
Q 268.770205 367.066081 268.42333 367.066081 
Q 268.076455 367.066081 267.812393 367.203581 
Q 267.549893 367.339518 267.40458 367.587956 
Q 267.26083 367.836393 267.26083 368.164518 
L 267.26083 368.237956 
Q 267.26083 368.559831 267.40458 368.803581 
Q 267.549893 369.047331 267.812393 369.181706 
Q 268.076455 369.316081 268.42333 369.316081 
z
M 268.42333 366.108268 
Q 268.721768 366.108268 268.949893 365.980143 
Q 269.17958 365.850456 269.306143 365.611393 
Q 269.434268 365.370768 269.434268 365.058268 
L 269.434268 364.991081 
Q 269.434268 364.692643 269.306143 364.462956 
Q 269.17958 364.233268 268.949893 364.109831 
Q 268.721768 363.984831 268.42333 363.984831 
Q 268.124893 363.984831 267.895205 364.109831 
Q 267.66708 364.233268 267.538955 364.462956 
Q 267.412393 364.692643 267.412393 364.995768 
L 267.412393 365.069206 
Q 267.412393 365.375456 267.538955 365.612956 
Q 267.66708 365.850456 267.895205 365.980143 
Q 268.124893 366.108268 268.42333 366.108268 
z
M 274.337002 366.498893 
L 276.607315 366.498893 
Q 276.92919 366.498893 277.17294 366.347331 
Q 277.418252 366.195768 277.551065 365.917643 
Q 277.68544 365.639518 277.68544 365.278581 
L 277.68544 365.278581 
Q 277.68544 364.912956 277.551065 364.634831 
Q 277.418252 364.355143 277.17294 364.202018 
Q 276.92919 364.047331 276.607315 364.047331 
L 274.337002 364.047331 
L 274.337002 363.100456 
L 276.57294 363.100456 
Q 277.207315 363.100456 277.690127 363.372331 
Q 278.174502 363.642643 278.440127 364.136393 
Q 278.707315 364.628581 278.707315 365.278581 
L 278.707315 365.278581 
Q 278.707315 365.928581 278.440127 366.419206 
Q 278.174502 366.909831 277.690127 367.178581 
Q 277.207315 367.445768 276.57294 367.445768 
L 274.337002 367.445768 
L 274.337002 366.498893 
z
M 273.824502 363.100456 
L 274.819815 363.100456 
L 274.819815 370.200456 
L 273.824502 370.200456 
L 273.824502 363.100456 
z
M 279.95165 365.131706 
L 280.948525 365.131706 
L 280.948525 370.200456 
L 279.95165 370.200456 
L 279.95165 365.131706 
z
M 282.73915 366.333268 
Q 282.6079 366.172331 282.4079 366.089518 
Q 282.2079 366.006706 281.943838 366.006706 
Q 281.4704 366.006706 281.209463 366.267643 
Q 280.948525 366.528581 280.948525 366.992643 
L 280.8454 366.016081 
Q 281.079775 365.561393 281.450088 365.309831 
Q 281.821963 365.058268 282.2704 365.058268 
Q 282.617275 365.058268 282.898525 365.158268 
Q 283.179775 365.258268 283.38915 365.453581 
L 282.73915 366.333268 
z
M 286.162979 370.273893 
Q 285.503604 370.273893 285.034854 370.016081 
Q 284.566104 369.756706 284.319229 369.261393 
Q 284.072354 368.764518 284.072354 368.066081 
L 284.072354 367.241081 
Q 284.072354 366.553581 284.319229 366.062956 
Q 284.566104 365.570768 285.034854 365.314518 
Q 285.503604 365.058268 286.162979 365.058268 
Q 286.822354 365.058268 287.291104 365.314518 
Q 287.759854 365.570768 288.005166 366.062956 
Q 288.252041 366.553581 288.252041 367.241081 
L 288.252041 368.081706 
Q 288.252041 368.773893 288.005166 369.266081 
Q 287.759854 369.756706 287.291104 370.016081 
Q 286.822354 370.273893 286.162979 370.273893 
z
M 286.162979 369.327018 
Q 286.684854 369.327018 286.970791 369.000456 
Q 287.256729 368.672331 287.256729 368.081706 
L 287.256729 367.241081 
Q 287.256729 366.650456 286.970791 366.328581 
Q 286.684854 366.006706 286.162979 366.006706 
Q 285.639541 366.006706 285.353604 366.328581 
Q 285.069229 366.650456 285.069229 367.241081 
L 285.069229 368.081706 
Q 285.069229 368.672331 285.353604 369.000456 
Q 285.639541 369.327018 286.162979 369.327018 
z
" style="fill: #ffffff; stroke: #000000"/>
    <path d="M 258.623525 363.100456 
L 259.473525 363.100456 
L 262.090713 370.200456 
L 261.015713 370.200456 
L 259.048525 364.472331 
L 257.081338 370.200456 
L 256.006338 370.200456 
L 258.623525 363.100456 
z
M 257.212588 367.695768 
L 260.948525 367.695768 
L 260.948525 368.642643 
L 257.212588 368.642643 
L 257.212588 367.695768 
z
M 264.73251 370.200456 
L 263.735635 370.200456 
L 263.735635 364.184831 
L 262.724697 364.805143 
L 262.724697 363.773893 
L 263.735635 363.100456 
L 264.73251 363.100456 
L 264.73251 370.200456 
z
M 268.42333 370.273893 
Q 267.77958 370.273893 267.290518 370.030143 
Q 266.803018 369.784831 266.53583 369.337956 
Q 266.270205 368.891081 266.270205 368.300456 
L 266.270205 368.183268 
Q 266.270205 367.652018 266.53583 367.183268 
Q 266.803018 366.714518 267.246768 366.475456 
Q 266.870205 366.269206 266.643643 365.881706 
Q 266.41708 365.492643 266.41708 365.062956 
L 266.41708 364.892643 
Q 266.41708 364.336393 266.665518 363.914518 
Q 266.913955 363.491081 267.368643 363.259831 
Q 267.82333 363.027018 268.42333 363.027018 
Q 269.02333 363.027018 269.478018 363.259831 
Q 269.932705 363.491081 270.181143 363.914518 
Q 270.42958 364.336393 270.42958 364.892643 
L 270.42958 365.062956 
Q 270.42958 365.503581 270.19833 365.889518 
Q 269.96708 366.273893 269.58583 366.475456 
Q 270.034268 366.719206 270.30458 367.186393 
Q 270.576455 367.652018 270.576455 368.183268 
L 270.576455 368.300456 
Q 270.576455 368.891081 270.31083 369.337956 
Q 270.045205 369.784831 269.556143 370.030143 
Q 269.068643 370.273893 268.42333 370.273893 
z
M 268.42333 369.316081 
Q 268.770205 369.316081 269.032705 369.180143 
Q 269.296768 369.042643 269.440518 368.797331 
Q 269.58583 368.550456 269.58583 368.227018 
L 269.58583 368.159831 
Q 269.58583 367.831706 269.440518 367.586393 
Q 269.296768 367.339518 269.032705 367.203581 
Q 268.770205 367.066081 268.42333 367.066081 
Q 268.076455 367.066081 267.812393 367.203581 
Q 267.549893 367.339518 267.40458 367.587956 
Q 267.26083 367.836393 267.26083 368.164518 
L 267.26083 368.237956 
Q 267.26083 368.559831 267.40458 368.803581 
Q 267.549893 369.047331 267.812393 369.181706 
Q 268.076455 369.316081 268.42333 369.316081 
z
M 268.42333 366.108268 
Q 268.721768 366.108268 268.949893 365.980143 
Q 269.17958 365.850456 269.306143 365.611393 
Q 269.434268 365.370768 269.434268 365.058268 
L 269.434268 364.991081 
Q 269.434268 364.692643 269.306143 364.462956 
Q 269.17958 364.233268 268.949893 364.109831 
Q 268.721768 363.984831 268.42333 363.984831 
Q 268.124893 363.984831 267.895205 364.109831 
Q 267.66708 364.233268 267.538955 364.462956 
Q 267.412393 364.692643 267.412393 364.995768 
L 267.412393 365.069206 
Q 267.412393 365.375456 267.538955 365.612956 
Q 267.66708 365.850456 267.895205 365.980143 
Q 268.124893 366.108268 268.42333 366.108268 
z
M 274.337002 366.498893 
L 276.607315 366.498893 
Q 276.92919 366.498893 277.17294 366.347331 
Q 277.418252 366.195768 277.551065 365.917643 
Q 277.68544 365.639518 277.68544 365.278581 
L 277.68544 365.278581 
Q 277.68544 364.912956 277.551065 364.634831 
Q 277.418252 364.355143 277.17294 364.202018 
Q 276.92919 364.047331 276.607315 364.047331 
L 274.337002 364.047331 
L 274.337002 363.100456 
L 276.57294 363.100456 
Q 277.207315 363.100456 277.690127 363.372331 
Q 278.174502 363.642643 278.440127 364.136393 
Q 278.707315 364.628581 278.707315 365.278581 
L 278.707315 365.278581 
Q 278.707315 365.928581 278.440127 366.419206 
Q 278.174502 366.909831 277.690127 367.178581 
Q 277.207315 367.445768 276.57294 367.445768 
L 274.337002 367.445768 
L 274.337002 366.498893 
z
M 273.824502 363.100456 
L 274.819815 363.100456 
L 274.819815 370.200456 
L 273.824502 370.200456 
L 273.824502 363.100456 
z
M 279.95165 365.131706 
L 280.948525 365.131706 
L 280.948525 370.200456 
L 279.95165 370.200456 
L 279.95165 365.131706 
z
M 282.73915 366.333268 
Q 282.6079 366.172331 282.4079 366.089518 
Q 282.2079 366.006706 281.943838 366.006706 
Q 281.4704 366.006706 281.209463 366.267643 
Q 280.948525 366.528581 280.948525 366.992643 
L 280.8454 366.016081 
Q 281.079775 365.561393 281.450088 365.309831 
Q 281.821963 365.058268 282.2704 365.058268 
Q 282.617275 365.058268 282.898525 365.158268 
Q 283.179775 365.258268 283.38915 365.453581 
L 282.73915 366.333268 
z
M 286.162979 370.273893 
Q 285.503604 370.273893 285.034854 370.016081 
Q 284.566104 369.756706 284.319229 369.261393 
Q 284.072354 368.764518 284.072354 368.066081 
L 284.072354 367.241081 
Q 284.072354 366.553581 284.319229 366.062956 
Q 284.566104 365.570768 285.034854 365.314518 
Q 285.503604 365.058268 286.162979 365.058268 
Q 286.822354 365.058268 287.291104 365.314518 
Q 287.759854 365.570768 288.005166 366.062956 
Q 288.252041 366.553581 288.252041 367.241081 
L 288.252041 368.081706 
Q 288.252041 368.773893 288.005166 369.266081 
Q 287.759854 369.756706 287.291104 370.016081 
Q 286.822354 370.273893 286.162979 370.273893 
z
M 286.162979 369.327018 
Q 286.684854 369.327018 286.970791 369.000456 
Q 287.256729 368.672331 287.256729 368.081706 
L 287.256729 367.241081 
Q 287.256729 366.650456 286.970791 366.328581 
Q 286.684854 366.006706 286.162979 366.006706 
Q 285.639541 366.006706 285.353604 366.328581 
Q 285.069229 366.650456 285.069229 367.241081 
L 285.069229 368.081706 
Q 285.069229 368.672331 285.353604 369.000456 
Q 285.639541 369.327018 286.162979 369.327018 
z
" style="fill: #ffffff"/>
   </g>
  </g>
 </g>
 <defs>
  <clipPath id="p7a280604d9">
   <rect x="144" y="77.76" width="892.8" height="498.96"/>
  </clipPath>
 </defs>
</svg>
