<?xml version="1.0" encoding="utf-8" standalone="no"?>
<!DOCTYPE svg PUBLIC "-//W3C//DTD SVG 1.1//EN"
  "http://www.w3.org/Graphics/SVG/1.1/DTD/svg11.dtd">
<svg xmlns:xlink="http://www.w3.org/1999/xlink" width="1152pt" height="648pt" viewBox="0 0 1152 648" xmlns="http://www.w3.org/2000/svg" version="1.1">
 <metadata>
  <rdf:RDF xmlns:dc="http://purl.org/dc/elements/1.1/" xmlns:cc="http://creativecommons.org/ns#" xmlns:rdf="http://www.w3.org/1999/02/22-rdf-syntax-ns#">
   <cc:Work>
    <dc:type rdf:resource="http://purl.org/dc/dcmitype/StillImage"/>
    <dc:date>2024-11-15T16:34:25.334473</dc:date>
    <dc:format>image/svg+xml</dc:format>
    <dc:creator>
     <cc:Agent>
      <dc:title>Matplotlib v3.9.2, https://matplotlib.org/</dc:title>
     </cc:Agent>
    </dc:creator>
   </cc:Work>
  </rdf:RDF>
 </metadata>
 <defs>
  <style type="text/css">*{stroke-linejoin: round; stroke-linecap: butt}</style>
 </defs>
 <g id="figure_1">
  <g id="patch_1">
   <path d="M 0 648 
L 1152 648 
L 1152 0 
L 0 0 
L 0 648 
z
" style="fill: none"/>
  </g>
  <g id="axes_1">
   <g id="line2d_1">
    <path d="M 222.322909 469.302018 
L 224.520066 467.341657 
L 226.717223 465.383402 
L 228.91438 463.428121 
L 231.111537 461.476677 
L 233.308694 459.529926 
L 235.505851 457.588715 
L 237.703008 455.653882 
L 239.900165 453.726255 
L 242.097322 451.806647 
L 244.294479 449.895859 
L 246.491636 447.994676 
L 248.688793 446.103867 
L 250.88595 444.224183 
L 253.083107 442.356357 
L 255.280264 440.501101 
L 257.477421 438.659108 
L 259.674579 436.831048 
L 261.871736 435.017569 
L 264.068893 433.219297 
L 266.26605 431.436832 
L 268.463207 429.670752 
L 270.660364 427.921606 
L 272.857521 426.189923 
L 275.054678 424.476201 
L 277.251835 422.780915 
L 279.448992 421.104513 
L 281.646149 419.447415 
L 283.843306 417.810017 
L 286.040463 416.192685 
L 288.23762 414.595761 
L 290.434777 413.01956 
L 292.631934 411.46437 
L 294.829091 409.930453 
L 297.026248 408.418045 
L 299.223405 406.927357 
L 301.420562 405.458575 
L 303.617719 404.011861 
L 305.814876 402.58735 
L 308.012033 401.185156 
L 310.20919 399.80537 
L 312.406347 398.448058 
L 314.603504 397.113267 
L 316.800661 395.801021 
L 318.997818 394.511325 
L 321.194975 393.244161 
L 323.392132 391.999495 
L 325.589289 390.777273 
L 327.786446 389.577423 
L 329.983603 388.399858 
L 332.18076 387.244473 
L 334.377917 386.111148 
L 336.575074 384.999747 
L 338.772231 383.910122 
L 340.969388 382.84211 
L 343.166545 381.795538 
L 345.363702 380.770218 
L 347.56086 379.765954 
L 349.758017 378.782536 
L 351.955174 377.819749 
L 354.152331 376.877364 
L 356.349488 375.955147 
L 358.546645 375.052857 
L 360.743802 374.170242 
L 362.940959 373.307048 
L 365.138116 372.463013 
L 367.335273 371.637869 
L 369.53243 370.831345 
L 371.729587 370.043166 
L 373.926744 369.273053 
L 376.123901 368.520721 
L 378.321058 367.785888 
L 380.518215 367.068266 
L 382.715372 366.367565 
L 384.912529 365.683497 
L 387.109686 365.015769 
L 389.306843 364.364091 
L 391.504 363.72817 
L 393.701157 363.107716 
L 395.898314 362.502438 
L 398.095471 361.912046 
L 400.292628 361.336251 
L 402.489785 360.774765 
L 404.686942 360.227303 
L 406.884099 359.693581 
L 409.081256 359.173317 
L 411.278413 358.666232 
L 413.47557 358.17205 
L 415.672727 357.690494 
L 417.869884 357.221296 
L 420.067041 356.764185 
L 422.264198 356.318898 
L 424.461355 355.885171 
L 426.658512 355.462747 
L 428.855669 355.051371 
L 431.052826 354.650791 
L 433.249983 354.260759 
L 435.44714 353.881031 
L 437.644298 353.511367 
L 439.841455 353.15153 
" clip-path="url(#p6ce155b16f)" style="fill: none; stroke: #79caf2; stroke-width: 3; stroke-linecap: round"/>
   </g>
   <g id="text_1">
    <path d="M 448.746435 354.871536 
Q 448.233935 354.871536 447.77456 354.774661 
Q 447.316747 354.676223 446.91831 354.480911 
Q 446.519872 354.285598 446.172997 353.991848 
L 446.172997 353.991848 
L 446.79331 353.230911 
L 446.79331 353.230911 
Q 447.19956 353.582473 447.68706 353.759036 
Q 448.176122 353.934036 448.746435 353.934036 
Q 449.51831 353.934036 449.94331 353.648098 
Q 450.36831 353.362161 450.36831 352.840286 
L 450.36831 352.835598 
Q 450.36831 352.463723 450.17456 352.246536 
Q 449.982372 352.029348 449.676122 351.924661 
Q 449.371435 351.819973 448.888622 351.730911 
Q 448.872997 351.726223 448.85581 351.726223 
Q 448.840185 351.726223 448.82456 351.721536 
L 448.751122 351.707473 
Q 448.038622 351.585598 447.591747 351.432473 
Q 447.144872 351.277786 446.827685 350.869973 
Q 446.510497 350.462161 446.510497 349.710598 
L 446.510497 349.705911 
Q 446.510497 349.046536 446.80581 348.580911 
Q 447.101122 348.113723 447.666747 347.869973 
Q 448.233935 347.624661 449.029247 347.624661 
Q 449.410497 347.624661 449.779247 347.709036 
Q 450.147997 347.791848 450.50581 347.955911 
Q 450.865185 348.118411 451.21206 348.366848 
L 451.21206 348.366848 
L 450.646435 349.159036 
L 450.646435 349.159036 
Q 450.240185 348.860598 449.83706 348.712161 
Q 449.435497 348.562161 449.029247 348.562161 
Q 448.302685 348.562161 447.89956 348.852786 
Q 447.496435 349.143411 447.496435 349.676223 
L 447.496435 349.680911 
Q 447.496435 350.046536 447.704247 350.257473 
Q 447.91206 350.466848 448.221435 350.566848 
Q 448.532372 350.666848 449.083935 350.774661 
Q 449.102685 350.779348 449.119872 350.782473 
Q 449.13706 350.784036 449.157372 350.788723 
Q 449.18081 350.793411 449.210497 350.799661 
Q 449.240185 350.804348 449.263622 350.809036 
Q 449.908935 350.940286 450.340185 351.121536 
Q 450.772997 351.301223 451.063622 351.704348 
Q 451.354247 352.107473 451.354247 352.805911 
L 451.354247 352.815286 
Q 451.354247 353.465286 451.046435 353.926223 
Q 450.738622 354.387161 450.154247 354.629348 
Q 449.571435 354.871536 448.746435 354.871536 
z
M 453.444286 353.851223 
L 455.050536 353.851223 
Q 455.836474 353.851223 456.267724 353.443411 
Q 456.700536 353.035598 456.700536 352.293411 
L 456.700536 350.202786 
Q 456.700536 349.460598 456.267724 349.052786 
Q 455.836474 348.644973 455.050536 348.644973 
L 453.444286 348.644973 
L 453.444286 347.698098 
L 455.020849 347.698098 
Q 455.875536 347.698098 456.480224 347.996536 
Q 457.086474 348.293411 457.403661 348.865286 
Q 457.720849 349.437161 457.720849 350.241848 
L 457.720849 352.254348 
Q 457.720849 353.059036 457.403661 353.630911 
Q 457.086474 354.202786 456.478661 354.501223 
Q 455.870849 354.798098 455.016161 354.798098 
L 453.444286 354.798098 
L 453.444286 353.851223 
z
M 452.770849 347.698098 
L 453.766161 347.698098 
L 453.766161 354.798098 
L 452.770849 354.798098 
L 452.770849 347.698098 
z
M 462.853661 348.587161 
L 461.017724 354.798098 
L 459.958349 354.798098 
L 461.794286 348.644973 
L 459.986474 348.644973 
L 459.986474 349.666848 
L 458.991161 349.666848 
L 458.991161 347.698098 
L 462.853661 347.698098 
L 462.853661 348.587161 
z
M 468.136278 351.052786 
L 468.136278 351.999661 
L 464.172216 351.999661 
L 464.172216 351.052786 
L 468.136278 351.052786 
z
M 466.651903 353.509036 
L 465.656591 353.509036 
L 465.656591 349.543411 
L 466.651903 349.543411 
L 466.651903 353.509036 
z
M 476.212841 350.974661 
L 476.212841 352.215286 
Q 476.212841 353.005911 475.905028 353.609036 
Q 475.597216 354.212161 475.033153 354.541848 
Q 474.469091 354.871536 473.726903 354.871536 
Q 472.975341 354.871536 472.406591 354.562161 
Q 471.837841 354.251223 471.525341 353.685598 
Q 471.212841 353.118411 471.212841 352.371536 
L 471.212841 350.276223 
Q 471.212841 349.485598 471.520653 348.885598 
Q 471.828466 348.284036 472.390966 347.954348 
Q 472.955028 347.624661 473.697216 347.624661 
Q 474.308153 347.624661 474.822216 347.887161 
Q 475.337841 348.148098 475.684716 348.626223 
Q 476.031591 349.104348 476.153466 349.734036 
L 476.153466 349.734036 
L 475.075341 349.734036 
L 475.075341 349.734036 
Q 474.986278 349.377786 474.776903 349.121536 
Q 474.567528 348.865286 474.283153 348.730911 
Q 474.000341 348.596536 473.697216 348.596536 
Q 473.258153 348.596536 472.925341 348.807473 
Q 472.594091 349.016848 472.412841 349.394973 
Q 472.233153 349.773098 472.233153 350.276223 
L 472.233153 352.371536 
Q 472.233153 352.830911 472.417528 353.174661 
Q 472.603466 353.518411 472.942528 353.709036 
Q 473.283153 353.899661 473.726903 353.899661 
Q 474.165966 353.899661 474.497216 353.702786 
Q 474.830028 353.504348 475.011278 353.129348 
Q 475.192528 352.752786 475.192528 352.234036 
L 475.192528 351.926223 
L 473.751903 351.926223 
L 473.751903 350.974661 
L 476.212841 350.974661 
z
M 479.801122 354.871536 
Q 479.097997 354.871536 478.59956 354.607473 
Q 478.102685 354.343411 477.840185 353.834036 
Q 477.579247 353.323098 477.579247 352.601223 
L 477.579247 352.029348 
Q 477.579247 351.277786 477.83081 350.746536 
Q 478.082372 350.213723 478.560497 349.935598 
Q 479.040185 349.655911 479.713622 349.655911 
Q 480.347997 349.655911 480.796435 349.974661 
Q 481.246435 350.291848 481.482372 350.891848 
Q 481.719872 351.491848 481.719872 352.332473 
L 481.719872 352.663723 
L 478.302685 352.663723 
L 478.302685 351.863723 
L 480.772997 351.863723 
L 480.772997 351.863723 
Q 480.729247 351.243411 480.452685 350.899661 
Q 480.177685 350.554348 479.713622 350.554348 
Q 479.146435 350.554348 478.83706 350.926223 
Q 478.527685 351.296536 478.527685 351.976223 
L 478.527685 352.619973 
Q 478.527685 353.249661 478.858935 353.587161 
Q 479.191747 353.924661 479.801122 353.924661 
Q 480.104247 353.924661 480.401122 353.802786 
Q 480.69956 353.679348 480.933935 353.460598 
L 480.933935 353.460598 
L 481.588622 354.113723 
L 481.588622 354.113723 
Q 481.21206 354.476223 480.74331 354.674661 
Q 480.27456 354.871536 479.801122 354.871536 
z
M 483.08745 349.729348 
L 484.084325 349.729348 
L 484.084325 354.798098 
L 483.08745 354.798098 
L 483.08745 349.729348 
z
M 486.164013 351.726223 
Q 486.164013 351.190286 485.885888 350.898098 
Q 485.607763 350.604348 485.104638 350.604348 
Q 484.615575 350.604348 484.34995 350.863723 
Q 484.084325 351.121536 484.084325 351.590286 
L 483.9812 350.613723 
Q 484.215575 350.154348 484.5937 349.905911 
Q 484.971825 349.655911 485.4312 349.655911 
Q 486.2562 349.655911 486.707763 350.196536 
Q 487.159325 350.735598 487.159325 351.721536 
L 487.159325 354.798098 
L 486.164013 354.798098 
L 486.164013 351.726223 
z
M 490.460888 354.871536 
Q 489.865575 354.871536 489.410888 354.654348 
Q 488.9562 354.437161 488.679638 354.024661 
Q 488.404638 353.612161 488.3312 353.030911 
L 488.3312 353.030911 
L 489.346825 353.030911 
L 489.346825 353.030911 
Q 489.390575 353.332473 489.53745 353.527786 
Q 489.684325 353.723098 489.915575 353.818411 
Q 490.148388 353.913723 490.460888 353.913723 
Q 490.953075 353.913723 491.226513 353.651223 
Q 491.49995 353.387161 491.49995 352.909036 
L 491.49995 352.693411 
Q 491.49995 352.160598 491.240575 351.871536 
Q 490.982763 351.580911 490.509325 351.580911 
L 490.0062 351.580911 
L 490.0062 350.632473 
L 490.509325 350.632473 
Q 490.92495 350.632473 491.153075 350.384036 
Q 491.382763 350.135598 491.382763 349.680911 
L 491.382763 349.460598 
Q 491.382763 349.041848 491.140575 348.812161 
Q 490.89995 348.582473 490.4562 348.582473 
Q 490.201513 348.582473 490.001513 348.677786 
Q 489.801513 348.773098 489.66245 348.971536 
Q 489.523388 349.168411 489.459325 349.465286 
L 489.459325 349.465286 
L 488.448388 349.465286 
L 488.448388 349.465286 
Q 488.546825 348.885598 488.817138 348.469973 
Q 489.089013 348.054348 489.503075 347.840286 
Q 489.9187 347.624661 490.4562 347.624661 
Q 491.373388 347.624661 491.876513 348.109036 
Q 492.379638 348.591848 492.379638 349.471536 
L 492.379638 349.588723 
Q 492.379638 350.119973 492.090575 350.515286 
Q 491.803075 350.910598 491.276513 351.091848 
Q 491.857763 351.218411 492.176513 351.663723 
Q 492.496825 352.107473 492.496825 352.796536 
L 492.496825 352.913723 
Q 492.496825 353.534036 492.257763 353.973098 
Q 492.0187 354.412161 491.560888 354.641848 
Q 491.104638 354.871536 490.460888 354.871536 
z
" style="fill: #ffffff; stroke: #000000"/>
    <path d="M 448.746435 354.871536 
Q 448.233935 354.871536 447.77456 354.774661 
Q 447.316747 354.676223 446.91831 354.480911 
Q 446.519872 354.285598 446.172997 353.991848 
L 446.172997 353.991848 
L 446.79331 353.230911 
L 446.79331 353.230911 
Q 447.19956 353.582473 447.68706 353.759036 
Q 448.176122 353.934036 448.746435 353.934036 
Q 449.51831 353.934036 449.94331 353.648098 
Q 450.36831 353.362161 450.36831 352.840286 
L 450.36831 352.835598 
Q 450.36831 352.463723 450.17456 352.246536 
Q 449.982372 352.029348 449.676122 351.924661 
Q 449.371435 351.819973 448.888622 351.730911 
Q 448.872997 351.726223 448.85581 351.726223 
Q 448.840185 351.726223 448.82456 351.721536 
L 448.751122 351.707473 
Q 448.038622 351.585598 447.591747 351.432473 
Q 447.144872 351.277786 446.827685 350.869973 
Q 446.510497 350.462161 446.510497 349.710598 
L 446.510497 349.705911 
Q 446.510497 349.046536 446.80581 348.580911 
Q 447.101122 348.113723 447.666747 347.869973 
Q 448.233935 347.624661 449.029247 347.624661 
Q 449.410497 347.624661 449.779247 347.709036 
Q 450.147997 347.791848 450.50581 347.955911 
Q 450.865185 348.118411 451.21206 348.366848 
L 451.21206 348.366848 
L 450.646435 349.159036 
L 450.646435 349.159036 
Q 450.240185 348.860598 449.83706 348.712161 
Q 449.435497 348.562161 449.029247 348.562161 
Q 448.302685 348.562161 447.89956 348.852786 
Q 447.496435 349.143411 447.496435 349.676223 
L 447.496435 349.680911 
Q 447.496435 350.046536 447.704247 350.257473 
Q 447.91206 350.466848 448.221435 350.566848 
Q 448.532372 350.666848 449.083935 350.774661 
Q 449.102685 350.779348 449.119872 350.782473 
Q 449.13706 350.784036 449.157372 350.788723 
Q 449.18081 350.793411 449.210497 350.799661 
Q 449.240185 350.804348 449.263622 350.809036 
Q 449.908935 350.940286 450.340185 351.121536 
Q 450.772997 351.301223 451.063622 351.704348 
Q 451.354247 352.107473 451.354247 352.805911 
L 451.354247 352.815286 
Q 451.354247 353.465286 451.046435 353.926223 
Q 450.738622 354.387161 450.154247 354.629348 
Q 449.571435 354.871536 448.746435 354.871536 
z
M 453.444286 353.851223 
L 455.050536 353.851223 
Q 455.836474 353.851223 456.267724 353.443411 
Q 456.700536 353.035598 456.700536 352.293411 
L 456.700536 350.202786 
Q 456.700536 349.460598 456.267724 349.052786 
Q 455.836474 348.644973 455.050536 348.644973 
L 453.444286 348.644973 
L 453.444286 347.698098 
L 455.020849 347.698098 
Q 455.875536 347.698098 456.480224 347.996536 
Q 457.086474 348.293411 457.403661 348.865286 
Q 457.720849 349.437161 457.720849 350.241848 
L 457.720849 352.254348 
Q 457.720849 353.059036 457.403661 353.630911 
Q 457.086474 354.202786 456.478661 354.501223 
Q 455.870849 354.798098 455.016161 354.798098 
L 453.444286 354.798098 
L 453.444286 353.851223 
z
M 452.770849 347.698098 
L 453.766161 347.698098 
L 453.766161 354.798098 
L 452.770849 354.798098 
L 452.770849 347.698098 
z
M 462.853661 348.587161 
L 461.017724 354.798098 
L 459.958349 354.798098 
L 461.794286 348.644973 
L 459.986474 348.644973 
L 459.986474 349.666848 
L 458.991161 349.666848 
L 458.991161 347.698098 
L 462.853661 347.698098 
L 462.853661 348.587161 
z
M 468.136278 351.052786 
L 468.136278 351.999661 
L 464.172216 351.999661 
L 464.172216 351.052786 
L 468.136278 351.052786 
z
M 466.651903 353.509036 
L 465.656591 353.509036 
L 465.656591 349.543411 
L 466.651903 349.543411 
L 466.651903 353.509036 
z
M 476.212841 350.974661 
L 476.212841 352.215286 
Q 476.212841 353.005911 475.905028 353.609036 
Q 475.597216 354.212161 475.033153 354.541848 
Q 474.469091 354.871536 473.726903 354.871536 
Q 472.975341 354.871536 472.406591 354.562161 
Q 471.837841 354.251223 471.525341 353.685598 
Q 471.212841 353.118411 471.212841 352.371536 
L 471.212841 350.276223 
Q 471.212841 349.485598 471.520653 348.885598 
Q 471.828466 348.284036 472.390966 347.954348 
Q 472.955028 347.624661 473.697216 347.624661 
Q 474.308153 347.624661 474.822216 347.887161 
Q 475.337841 348.148098 475.684716 348.626223 
Q 476.031591 349.104348 476.153466 349.734036 
L 476.153466 349.734036 
L 475.075341 349.734036 
L 475.075341 349.734036 
Q 474.986278 349.377786 474.776903 349.121536 
Q 474.567528 348.865286 474.283153 348.730911 
Q 474.000341 348.596536 473.697216 348.596536 
Q 473.258153 348.596536 472.925341 348.807473 
Q 472.594091 349.016848 472.412841 349.394973 
Q 472.233153 349.773098 472.233153 350.276223 
L 472.233153 352.371536 
Q 472.233153 352.830911 472.417528 353.174661 
Q 472.603466 353.518411 472.942528 353.709036 
Q 473.283153 353.899661 473.726903 353.899661 
Q 474.165966 353.899661 474.497216 353.702786 
Q 474.830028 353.504348 475.011278 353.129348 
Q 475.192528 352.752786 475.192528 352.234036 
L 475.192528 351.926223 
L 473.751903 351.926223 
L 473.751903 350.974661 
L 476.212841 350.974661 
z
M 479.801122 354.871536 
Q 479.097997 354.871536 478.59956 354.607473 
Q 478.102685 354.343411 477.840185 353.834036 
Q 477.579247 353.323098 477.579247 352.601223 
L 477.579247 352.029348 
Q 477.579247 351.277786 477.83081 350.746536 
Q 478.082372 350.213723 478.560497 349.935598 
Q 479.040185 349.655911 479.713622 349.655911 
Q 480.347997 349.655911 480.796435 349.974661 
Q 481.246435 350.291848 481.482372 350.891848 
Q 481.719872 351.491848 481.719872 352.332473 
L 481.719872 352.663723 
L 478.302685 352.663723 
L 478.302685 351.863723 
L 480.772997 351.863723 
L 480.772997 351.863723 
Q 480.729247 351.243411 480.452685 350.899661 
Q 480.177685 350.554348 479.713622 350.554348 
Q 479.146435 350.554348 478.83706 350.926223 
Q 478.527685 351.296536 478.527685 351.976223 
L 478.527685 352.619973 
Q 478.527685 353.249661 478.858935 353.587161 
Q 479.191747 353.924661 479.801122 353.924661 
Q 480.104247 353.924661 480.401122 353.802786 
Q 480.69956 353.679348 480.933935 353.460598 
L 480.933935 353.460598 
L 481.588622 354.113723 
L 481.588622 354.113723 
Q 481.21206 354.476223 480.74331 354.674661 
Q 480.27456 354.871536 479.801122 354.871536 
z
M 483.08745 349.729348 
L 484.084325 349.729348 
L 484.084325 354.798098 
L 483.08745 354.798098 
L 483.08745 349.729348 
z
M 486.164013 351.726223 
Q 486.164013 351.190286 485.885888 350.898098 
Q 485.607763 350.604348 485.104638 350.604348 
Q 484.615575 350.604348 484.34995 350.863723 
Q 484.084325 351.121536 484.084325 351.590286 
L 483.9812 350.613723 
Q 484.215575 350.154348 484.5937 349.905911 
Q 484.971825 349.655911 485.4312 349.655911 
Q 486.2562 349.655911 486.707763 350.196536 
Q 487.159325 350.735598 487.159325 351.721536 
L 487.159325 354.798098 
L 486.164013 354.798098 
L 486.164013 351.726223 
z
M 490.460888 354.871536 
Q 489.865575 354.871536 489.410888 354.654348 
Q 488.9562 354.437161 488.679638 354.024661 
Q 488.404638 353.612161 488.3312 353.030911 
L 488.3312 353.030911 
L 489.346825 353.030911 
L 489.346825 353.030911 
Q 489.390575 353.332473 489.53745 353.527786 
Q 489.684325 353.723098 489.915575 353.818411 
Q 490.148388 353.913723 490.460888 353.913723 
Q 490.953075 353.913723 491.226513 353.651223 
Q 491.49995 353.387161 491.49995 352.909036 
L 491.49995 352.693411 
Q 491.49995 352.160598 491.240575 351.871536 
Q 490.982763 351.580911 490.509325 351.580911 
L 490.0062 351.580911 
L 490.0062 350.632473 
L 490.509325 350.632473 
Q 490.92495 350.632473 491.153075 350.384036 
Q 491.382763 350.135598 491.382763 349.680911 
L 491.382763 349.460598 
Q 491.382763 349.041848 491.140575 348.812161 
Q 490.89995 348.582473 490.4562 348.582473 
Q 490.201513 348.582473 490.001513 348.677786 
Q 489.801513 348.773098 489.66245 348.971536 
Q 489.523388 349.168411 489.459325 349.465286 
L 489.459325 349.465286 
L 488.448388 349.465286 
L 488.448388 349.465286 
Q 488.546825 348.885598 488.817138 348.469973 
Q 489.089013 348.054348 489.503075 347.840286 
Q 489.9187 347.624661 490.4562 347.624661 
Q 491.373388 347.624661 491.876513 348.109036 
Q 492.379638 348.591848 492.379638 349.471536 
L 492.379638 349.588723 
Q 492.379638 350.119973 492.090575 350.515286 
Q 491.803075 350.910598 491.276513 351.091848 
Q 491.857763 351.218411 492.176513 351.663723 
Q 492.496825 352.107473 492.496825 352.796536 
L 492.496825 352.913723 
Q 492.496825 353.534036 492.257763 353.973098 
Q 492.0187 354.412161 491.560888 354.641848 
Q 491.104638 354.871536 490.460888 354.871536 
z
" style="fill: #ffffff"/>
   </g>
  </g>
 </g>
 <defs>
  <clipPath id="p6ce155b16f">
   <rect x="144" y="77.76" width="892.8" height="498.96"/>
  </clipPath>
 </defs>
</svg>
