<?xml version="1.0" encoding="utf-8" standalone="no"?>
<!DOCTYPE svg PUBLIC "-//W3C//DTD SVG 1.1//EN"
  "http://www.w3.org/Graphics/SVG/1.1/DTD/svg11.dtd">
<svg xmlns:xlink="http://www.w3.org/1999/xlink" width="1152pt" height="648pt" viewBox="0 0 1152 648" xmlns="http://www.w3.org/2000/svg" version="1.1">
 <metadata>
  <rdf:RDF xmlns:dc="http://purl.org/dc/elements/1.1/" xmlns:cc="http://creativecommons.org/ns#" xmlns:rdf="http://www.w3.org/1999/02/22-rdf-syntax-ns#">
   <cc:Work>
    <dc:type rdf:resource="http://purl.org/dc/dcmitype/StillImage"/>
    <dc:date>2024-11-15T16:34:25.279575</dc:date>
    <dc:format>image/svg+xml</dc:format>
    <dc:creator>
     <cc:Agent>
      <dc:title>Matplotlib v3.9.2, https://matplotlib.org/</dc:title>
     </cc:Agent>
    </dc:creator>
   </cc:Work>
  </rdf:RDF>
 </metadata>
 <defs>
  <style type="text/css">*{stroke-linejoin: round; stroke-linecap: butt}</style>
 </defs>
 <g id="figure_1">
  <g id="patch_1">
   <path d="M 0 648 
L 1152 648 
L 1152 0 
L 0 0 
L 0 648 
z
" style="fill: none"/>
  </g>
  <g id="axes_1">
   <g id="line2d_1">
    <path d="M 217.858909 481.357585 
L 220.576661 478.431504 
L 223.294413 475.558146 
L 226.012165 472.736566 
L 228.729917 469.965836 
L 231.447669 467.245044 
L 234.165421 464.573295 
L 236.883174 461.949709 
L 239.600926 459.373423 
L 242.318678 456.843587 
L 245.03643 454.359367 
L 247.754182 451.919946 
L 250.471934 449.524519 
L 253.189686 447.172296 
L 255.907438 444.8625 
L 258.62519 442.594371 
L 261.342942 440.36716 
L 264.060694 438.180132 
L 266.778446 436.032563 
L 269.496198 433.923746 
L 272.21395 431.852984 
L 274.931702 429.819593 
L 277.649455 427.822901 
L 280.367207 425.862247 
L 283.084959 423.936985 
L 285.802711 422.046477 
L 288.520463 420.190097 
L 291.238215 418.367233 
L 293.955967 416.577281 
L 296.673719 414.819649 
L 299.391471 413.093754 
L 302.109223 411.399027 
L 304.826975 409.734905 
L 307.544727 408.100838 
L 310.262479 406.496285 
L 312.980231 404.920713 
L 315.697983 403.373602 
L 318.415736 401.854438 
L 321.133488 400.362718 
L 323.85124 398.897948 
L 326.568992 397.459642 
L 329.286744 396.047323 
L 332.004496 394.660523 
L 334.722248 393.298782 
L 337.44 391.961648 
L 340.157752 390.648678 
L 342.875504 389.359436 
L 345.593256 388.093495 
L 348.311008 386.850433 
L 351.02876 385.629839 
L 353.746512 384.431308 
L 356.464264 383.254441 
L 359.182017 382.098848 
L 361.899769 380.964145 
L 364.617521 379.849955 
L 367.335273 378.755909 
L 370.053025 377.681642 
L 372.770777 376.626797 
L 375.488529 375.591025 
L 378.206281 374.573982 
L 380.924033 373.575328 
L 383.641785 372.594732 
L 386.359537 371.631869 
L 389.077289 370.686418 
L 391.795041 369.758065 
L 394.512793 368.846501 
L 397.230545 367.951423 
L 399.948298 367.072533 
L 402.66605 366.20954 
L 405.383802 365.362155 
L 408.101554 364.530097 
L 410.819306 363.71309 
L 413.537058 362.910862 
L 416.25481 362.123145 
L 418.972562 361.349677 
L 421.690314 360.590202 
L 424.408066 359.844465 
L 427.125818 359.11222 
L 429.84357 358.393222 
L 432.561322 357.687233 
L 435.279074 356.994016 
L 437.996826 356.313341 
L 440.714579 355.644982 
L 443.432331 354.988716 
L 446.150083 354.344324 
L 448.867835 353.711592 
L 451.585587 353.090309 
L 454.303339 352.480269 
L 457.021091 351.881267 
L 459.738843 351.293105 
L 462.456595 350.715586 
L 465.174347 350.148519 
L 467.892099 349.591713 
L 470.609851 349.044984 
L 473.327603 348.50815 
L 476.045355 347.981031 
L 478.763107 347.463452 
L 481.48086 346.955241 
L 484.198612 346.456227 
L 486.916364 345.966246 
" clip-path="url(#p9605aa6950)" style="fill: none; stroke: #79def2; stroke-width: 3; stroke-linecap: round"/>
   </g>
   <g id="text_1">
    <path d="M 495.821344 347.686251 
Q 495.308844 347.686251 494.849469 347.589376 
Q 494.391656 347.490939 493.993219 347.295626 
Q 493.594781 347.100314 493.247906 346.806564 
L 493.247906 346.806564 
L 493.868219 346.045626 
L 493.868219 346.045626 
Q 494.274469 346.397189 494.761969 346.573751 
Q 495.251031 346.748751 495.821344 346.748751 
Q 496.593219 346.748751 497.018219 346.462814 
Q 497.443219 346.176876 497.443219 345.655001 
L 497.443219 345.650314 
Q 497.443219 345.278439 497.249469 345.061251 
Q 497.057281 344.844064 496.751031 344.739376 
Q 496.446344 344.634689 495.963531 344.545626 
Q 495.947906 344.540939 495.930719 344.540939 
Q 495.915094 344.540939 495.899469 344.536251 
L 495.826031 344.522189 
Q 495.113531 344.400314 494.666656 344.247189 
Q 494.219781 344.092501 493.902594 343.684689 
Q 493.585406 343.276876 493.585406 342.525314 
L 493.585406 342.520626 
Q 493.585406 341.861251 493.880719 341.395626 
Q 494.176031 340.928439 494.741656 340.684689 
Q 495.308844 340.439376 496.104156 340.439376 
Q 496.485406 340.439376 496.854156 340.523751 
Q 497.222906 340.606564 497.580719 340.770626 
Q 497.940094 340.933126 498.286969 341.181564 
L 498.286969 341.181564 
L 497.721344 341.973751 
L 497.721344 341.973751 
Q 497.315094 341.675314 496.911969 341.526876 
Q 496.510406 341.376876 496.104156 341.376876 
Q 495.377594 341.376876 494.974469 341.667501 
Q 494.571344 341.958126 494.571344 342.490939 
L 494.571344 342.495626 
Q 494.571344 342.861251 494.779156 343.072189 
Q 494.986969 343.281564 495.296344 343.381564 
Q 495.607281 343.481564 496.158844 343.589376 
Q 496.177594 343.594064 496.194781 343.597189 
Q 496.211969 343.598751 496.232281 343.603439 
Q 496.255719 343.608126 496.285406 343.614376 
Q 496.315094 343.619064 496.338531 343.623751 
Q 496.983844 343.755001 497.415094 343.936251 
Q 497.847906 344.115939 498.138531 344.519064 
Q 498.429156 344.922189 498.429156 345.620626 
L 498.429156 345.630001 
Q 498.429156 346.280001 498.121344 346.740939 
Q 497.813531 347.201876 497.229156 347.444064 
Q 496.646344 347.686251 495.821344 347.686251 
z
M 500.519195 346.665939 
L 502.125445 346.665939 
Q 502.911383 346.665939 503.342633 346.258126 
Q 503.775445 345.850314 503.775445 345.108126 
L 503.775445 343.017501 
Q 503.775445 342.275314 503.342633 341.867501 
Q 502.911383 341.459689 502.125445 341.459689 
L 500.519195 341.459689 
L 500.519195 340.512814 
L 502.095758 340.512814 
Q 502.950445 340.512814 503.555133 340.811251 
Q 504.161383 341.108126 504.47857 341.680001 
Q 504.795758 342.251876 504.795758 343.056564 
L 504.795758 345.069064 
Q 504.795758 345.873751 504.47857 346.445626 
Q 504.161383 347.017501 503.55357 347.315939 
Q 502.945758 347.612814 502.09107 347.612814 
L 500.519195 347.612814 
L 500.519195 346.665939 
z
M 499.845758 340.512814 
L 500.84107 340.512814 
L 500.84107 347.612814 
L 499.845758 347.612814 
L 499.845758 340.512814 
z
M 508.34107 347.686251 
Q 507.69732 347.686251 507.208258 347.442501 
Q 506.720758 347.197189 506.45357 346.750314 
Q 506.187945 346.303439 506.187945 345.712814 
L 506.187945 345.595626 
Q 506.187945 345.064376 506.45357 344.595626 
Q 506.720758 344.126876 507.164508 343.887814 
Q 506.787945 343.681564 506.561383 343.294064 
Q 506.33482 342.905001 506.33482 342.475314 
L 506.33482 342.305001 
Q 506.33482 341.748751 506.583258 341.326876 
Q 506.831695 340.903439 507.286383 340.672189 
Q 507.74107 340.439376 508.34107 340.439376 
Q 508.94107 340.439376 509.395758 340.672189 
Q 509.850445 340.903439 510.098883 341.326876 
Q 510.34732 341.748751 510.34732 342.305001 
L 510.34732 342.475314 
Q 510.34732 342.915939 510.11607 343.301876 
Q 509.88482 343.686251 509.50357 343.887814 
Q 509.952008 344.131564 510.22232 344.598751 
Q 510.494195 345.064376 510.494195 345.595626 
L 510.494195 345.712814 
Q 510.494195 346.303439 510.22857 346.750314 
Q 509.962945 347.197189 509.473883 347.442501 
Q 508.986383 347.686251 508.34107 347.686251 
z
M 508.34107 346.728439 
Q 508.687945 346.728439 508.950445 346.592501 
Q 509.214508 346.455001 509.358258 346.209689 
Q 509.50357 345.962814 509.50357 345.639376 
L 509.50357 345.572189 
Q 509.50357 345.244064 509.358258 344.998751 
Q 509.214508 344.751876 508.950445 344.615939 
Q 508.687945 344.478439 508.34107 344.478439 
Q 507.994195 344.478439 507.730133 344.615939 
Q 507.467633 344.751876 507.32232 345.000314 
Q 507.17857 345.248751 507.17857 345.576876 
L 507.17857 345.650314 
Q 507.17857 345.972189 507.32232 346.215939 
Q 507.467633 346.459689 507.730133 346.594064 
Q 507.994195 346.728439 508.34107 346.728439 
z
M 508.34107 343.520626 
Q 508.639508 343.520626 508.867633 343.392501 
Q 509.09732 343.262814 509.223883 343.023751 
Q 509.352008 342.783126 509.352008 342.470626 
L 509.352008 342.403439 
Q 509.352008 342.105001 509.223883 341.875314 
Q 509.09732 341.645626 508.867633 341.522189 
Q 508.639508 341.397189 508.34107 341.397189 
Q 508.042633 341.397189 507.812945 341.522189 
Q 507.58482 341.645626 507.456695 341.875314 
Q 507.330133 342.105001 507.330133 342.408126 
L 507.330133 342.481564 
Q 507.330133 342.787814 507.456695 343.025314 
Q 507.58482 343.262814 507.812945 343.392501 
Q 508.042633 343.520626 508.34107 343.520626 
z
M 518.595367 343.789376 
L 518.595367 345.030001 
Q 518.595367 345.820626 518.287555 346.423751 
Q 517.979742 347.026876 517.41568 347.356564 
Q 516.851617 347.686251 516.10943 347.686251 
Q 515.357867 347.686251 514.789117 347.376876 
Q 514.220367 347.065939 513.907867 346.500314 
Q 513.595367 345.933126 513.595367 345.186251 
L 513.595367 343.090939 
Q 513.595367 342.300314 513.90318 341.700314 
Q 514.210992 341.098751 514.773492 340.769064 
Q 515.337555 340.439376 516.079742 340.439376 
Q 516.69068 340.439376 517.204742 340.701876 
Q 517.720367 340.962814 518.067242 341.440939 
Q 518.414117 341.919064 518.535992 342.548751 
L 518.535992 342.548751 
L 517.457867 342.548751 
L 517.457867 342.548751 
Q 517.368805 342.192501 517.15943 341.936251 
Q 516.950055 341.680001 516.66568 341.545626 
Q 516.382867 341.411251 516.079742 341.411251 
Q 515.64068 341.411251 515.307867 341.622189 
Q 514.976617 341.831564 514.795367 342.209689 
Q 514.61568 342.587814 514.61568 343.090939 
L 514.61568 345.186251 
Q 514.61568 345.645626 514.800055 345.989376 
Q 514.985992 346.333126 515.325055 346.523751 
Q 515.66568 346.714376 516.10943 346.714376 
Q 516.548492 346.714376 516.879742 346.517501 
Q 517.212555 346.319064 517.393805 345.944064 
Q 517.575055 345.567501 517.575055 345.048751 
L 517.575055 344.740939 
L 516.13443 344.740939 
L 516.13443 343.789376 
L 518.595367 343.789376 
z
M 522.183648 347.686251 
Q 521.480523 347.686251 520.982086 347.422189 
Q 520.485211 347.158126 520.222711 346.648751 
Q 519.961773 346.137814 519.961773 345.415939 
L 519.961773 344.844064 
Q 519.961773 344.092501 520.213336 343.561251 
Q 520.464898 343.028439 520.943023 342.750314 
Q 521.422711 342.470626 522.096148 342.470626 
Q 522.730523 342.470626 523.178961 342.789376 
Q 523.628961 343.106564 523.864898 343.706564 
Q 524.102398 344.306564 524.102398 345.147189 
L 524.102398 345.478439 
L 520.685211 345.478439 
L 520.685211 344.678439 
L 523.155523 344.678439 
L 523.155523 344.678439 
Q 523.111773 344.058126 522.835211 343.714376 
Q 522.560211 343.369064 522.096148 343.369064 
Q 521.528961 343.369064 521.219586 343.740939 
Q 520.910211 344.111251 520.910211 344.790939 
L 520.910211 345.434689 
Q 520.910211 346.064376 521.241461 346.401876 
Q 521.574273 346.739376 522.183648 346.739376 
Q 522.486773 346.739376 522.783648 346.617501 
Q 523.082086 346.494064 523.316461 346.275314 
L 523.316461 346.275314 
L 523.971148 346.928439 
L 523.971148 346.928439 
Q 523.594586 347.290939 523.125836 347.489376 
Q 522.657086 347.686251 522.183648 347.686251 
z
M 525.469976 342.544064 
L 526.466851 342.544064 
L 526.466851 347.612814 
L 525.469976 347.612814 
L 525.469976 342.544064 
z
M 528.546539 344.540939 
Q 528.546539 344.005001 528.268414 343.712814 
Q 527.990289 343.419064 527.487164 343.419064 
Q 526.998101 343.419064 526.732476 343.678439 
Q 526.466851 343.936251 526.466851 344.405001 
L 526.363726 343.428439 
Q 526.598101 342.969064 526.976226 342.720626 
Q 527.354351 342.470626 527.813726 342.470626 
Q 528.638726 342.470626 529.090289 343.011251 
Q 529.541851 343.550314 529.541851 344.536251 
L 529.541851 347.612814 
L 528.546539 347.612814 
L 528.546539 344.540939 
z
M 530.899664 346.748751 
L 533.374664 343.447189 
Q 533.590289 343.164376 533.709039 342.859689 
Q 533.829351 342.553439 533.829351 342.290939 
L 533.829351 342.280001 
Q 533.829351 341.856564 533.579351 341.622189 
Q 533.330914 341.387814 532.873101 341.387814 
Q 532.437164 341.387814 532.168414 341.644064 
Q 531.901226 341.900314 531.841851 342.369064 
L 531.841851 342.373751 
L 530.812164 342.373751 
L 530.812164 342.369064 
Q 530.899664 341.758126 531.169976 341.326876 
Q 531.441851 340.894064 531.871539 340.667501 
Q 532.301226 340.439376 532.862164 340.439376 
Q 533.498101 340.439376 533.946539 340.656564 
Q 534.396539 340.873751 534.630914 341.289376 
Q 534.865289 341.705001 534.865289 342.290939 
L 534.865289 342.295626 
Q 534.865289 342.670626 534.709039 343.081564 
Q 534.552789 343.490939 534.273101 343.872189 
L 532.218414 346.665939 
L 534.904351 346.665939 
L 534.904351 347.612814 
L 530.899664 347.612814 
L 530.899664 346.748751 
z
" style="fill: #ffffff; stroke: #000000"/>
    <path d="M 495.821344 347.686251 
Q 495.308844 347.686251 494.849469 347.589376 
Q 494.391656 347.490939 493.993219 347.295626 
Q 493.594781 347.100314 493.247906 346.806564 
L 493.247906 346.806564 
L 493.868219 346.045626 
L 493.868219 346.045626 
Q 494.274469 346.397189 494.761969 346.573751 
Q 495.251031 346.748751 495.821344 346.748751 
Q 496.593219 346.748751 497.018219 346.462814 
Q 497.443219 346.176876 497.443219 345.655001 
L 497.443219 345.650314 
Q 497.443219 345.278439 497.249469 345.061251 
Q 497.057281 344.844064 496.751031 344.739376 
Q 496.446344 344.634689 495.963531 344.545626 
Q 495.947906 344.540939 495.930719 344.540939 
Q 495.915094 344.540939 495.899469 344.536251 
L 495.826031 344.522189 
Q 495.113531 344.400314 494.666656 344.247189 
Q 494.219781 344.092501 493.902594 343.684689 
Q 493.585406 343.276876 493.585406 342.525314 
L 493.585406 342.520626 
Q 493.585406 341.861251 493.880719 341.395626 
Q 494.176031 340.928439 494.741656 340.684689 
Q 495.308844 340.439376 496.104156 340.439376 
Q 496.485406 340.439376 496.854156 340.523751 
Q 497.222906 340.606564 497.580719 340.770626 
Q 497.940094 340.933126 498.286969 341.181564 
L 498.286969 341.181564 
L 497.721344 341.973751 
L 497.721344 341.973751 
Q 497.315094 341.675314 496.911969 341.526876 
Q 496.510406 341.376876 496.104156 341.376876 
Q 495.377594 341.376876 494.974469 341.667501 
Q 494.571344 341.958126 494.571344 342.490939 
L 494.571344 342.495626 
Q 494.571344 342.861251 494.779156 343.072189 
Q 494.986969 343.281564 495.296344 343.381564 
Q 495.607281 343.481564 496.158844 343.589376 
Q 496.177594 343.594064 496.194781 343.597189 
Q 496.211969 343.598751 496.232281 343.603439 
Q 496.255719 343.608126 496.285406 343.614376 
Q 496.315094 343.619064 496.338531 343.623751 
Q 496.983844 343.755001 497.415094 343.936251 
Q 497.847906 344.115939 498.138531 344.519064 
Q 498.429156 344.922189 498.429156 345.620626 
L 498.429156 345.630001 
Q 498.429156 346.280001 498.121344 346.740939 
Q 497.813531 347.201876 497.229156 347.444064 
Q 496.646344 347.686251 495.821344 347.686251 
z
M 500.519195 346.665939 
L 502.125445 346.665939 
Q 502.911383 346.665939 503.342633 346.258126 
Q 503.775445 345.850314 503.775445 345.108126 
L 503.775445 343.017501 
Q 503.775445 342.275314 503.342633 341.867501 
Q 502.911383 341.459689 502.125445 341.459689 
L 500.519195 341.459689 
L 500.519195 340.512814 
L 502.095758 340.512814 
Q 502.950445 340.512814 503.555133 340.811251 
Q 504.161383 341.108126 504.47857 341.680001 
Q 504.795758 342.251876 504.795758 343.056564 
L 504.795758 345.069064 
Q 504.795758 345.873751 504.47857 346.445626 
Q 504.161383 347.017501 503.55357 347.315939 
Q 502.945758 347.612814 502.09107 347.612814 
L 500.519195 347.612814 
L 500.519195 346.665939 
z
M 499.845758 340.512814 
L 500.84107 340.512814 
L 500.84107 347.612814 
L 499.845758 347.612814 
L 499.845758 340.512814 
z
M 508.34107 347.686251 
Q 507.69732 347.686251 507.208258 347.442501 
Q 506.720758 347.197189 506.45357 346.750314 
Q 506.187945 346.303439 506.187945 345.712814 
L 506.187945 345.595626 
Q 506.187945 345.064376 506.45357 344.595626 
Q 506.720758 344.126876 507.164508 343.887814 
Q 506.787945 343.681564 506.561383 343.294064 
Q 506.33482 342.905001 506.33482 342.475314 
L 506.33482 342.305001 
Q 506.33482 341.748751 506.583258 341.326876 
Q 506.831695 340.903439 507.286383 340.672189 
Q 507.74107 340.439376 508.34107 340.439376 
Q 508.94107 340.439376 509.395758 340.672189 
Q 509.850445 340.903439 510.098883 341.326876 
Q 510.34732 341.748751 510.34732 342.305001 
L 510.34732 342.475314 
Q 510.34732 342.915939 510.11607 343.301876 
Q 509.88482 343.686251 509.50357 343.887814 
Q 509.952008 344.131564 510.22232 344.598751 
Q 510.494195 345.064376 510.494195 345.595626 
L 510.494195 345.712814 
Q 510.494195 346.303439 510.22857 346.750314 
Q 509.962945 347.197189 509.473883 347.442501 
Q 508.986383 347.686251 508.34107 347.686251 
z
M 508.34107 346.728439 
Q 508.687945 346.728439 508.950445 346.592501 
Q 509.214508 346.455001 509.358258 346.209689 
Q 509.50357 345.962814 509.50357 345.639376 
L 509.50357 345.572189 
Q 509.50357 345.244064 509.358258 344.998751 
Q 509.214508 344.751876 508.950445 344.615939 
Q 508.687945 344.478439 508.34107 344.478439 
Q 507.994195 344.478439 507.730133 344.615939 
Q 507.467633 344.751876 507.32232 345.000314 
Q 507.17857 345.248751 507.17857 345.576876 
L 507.17857 345.650314 
Q 507.17857 345.972189 507.32232 346.215939 
Q 507.467633 346.459689 507.730133 346.594064 
Q 507.994195 346.728439 508.34107 346.728439 
z
M 508.34107 343.520626 
Q 508.639508 343.520626 508.867633 343.392501 
Q 509.09732 343.262814 509.223883 343.023751 
Q 509.352008 342.783126 509.352008 342.470626 
L 509.352008 342.403439 
Q 509.352008 342.105001 509.223883 341.875314 
Q 509.09732 341.645626 508.867633 341.522189 
Q 508.639508 341.397189 508.34107 341.397189 
Q 508.042633 341.397189 507.812945 341.522189 
Q 507.58482 341.645626 507.456695 341.875314 
Q 507.330133 342.105001 507.330133 342.408126 
L 507.330133 342.481564 
Q 507.330133 342.787814 507.456695 343.025314 
Q 507.58482 343.262814 507.812945 343.392501 
Q 508.042633 343.520626 508.34107 343.520626 
z
M 518.595367 343.789376 
L 518.595367 345.030001 
Q 518.595367 345.820626 518.287555 346.423751 
Q 517.979742 347.026876 517.41568 347.356564 
Q 516.851617 347.686251 516.10943 347.686251 
Q 515.357867 347.686251 514.789117 347.376876 
Q 514.220367 347.065939 513.907867 346.500314 
Q 513.595367 345.933126 513.595367 345.186251 
L 513.595367 343.090939 
Q 513.595367 342.300314 513.90318 341.700314 
Q 514.210992 341.098751 514.773492 340.769064 
Q 515.337555 340.439376 516.079742 340.439376 
Q 516.69068 340.439376 517.204742 340.701876 
Q 517.720367 340.962814 518.067242 341.440939 
Q 518.414117 341.919064 518.535992 342.548751 
L 518.535992 342.548751 
L 517.457867 342.548751 
L 517.457867 342.548751 
Q 517.368805 342.192501 517.15943 341.936251 
Q 516.950055 341.680001 516.66568 341.545626 
Q 516.382867 341.411251 516.079742 341.411251 
Q 515.64068 341.411251 515.307867 341.622189 
Q 514.976617 341.831564 514.795367 342.209689 
Q 514.61568 342.587814 514.61568 343.090939 
L 514.61568 345.186251 
Q 514.61568 345.645626 514.800055 345.989376 
Q 514.985992 346.333126 515.325055 346.523751 
Q 515.66568 346.714376 516.10943 346.714376 
Q 516.548492 346.714376 516.879742 346.517501 
Q 517.212555 346.319064 517.393805 345.944064 
Q 517.575055 345.567501 517.575055 345.048751 
L 517.575055 344.740939 
L 516.13443 344.740939 
L 516.13443 343.789376 
L 518.595367 343.789376 
z
M 522.183648 347.686251 
Q 521.480523 347.686251 520.982086 347.422189 
Q 520.485211 347.158126 520.222711 346.648751 
Q 519.961773 346.137814 519.961773 345.415939 
L 519.961773 344.844064 
Q 519.961773 344.092501 520.213336 343.561251 
Q 520.464898 343.028439 520.943023 342.750314 
Q 521.422711 342.470626 522.096148 342.470626 
Q 522.730523 342.470626 523.178961 342.789376 
Q 523.628961 343.106564 523.864898 343.706564 
Q 524.102398 344.306564 524.102398 345.147189 
L 524.102398 345.478439 
L 520.685211 345.478439 
L 520.685211 344.678439 
L 523.155523 344.678439 
L 523.155523 344.678439 
Q 523.111773 344.058126 522.835211 343.714376 
Q 522.560211 343.369064 522.096148 343.369064 
Q 521.528961 343.369064 521.219586 343.740939 
Q 520.910211 344.111251 520.910211 344.790939 
L 520.910211 345.434689 
Q 520.910211 346.064376 521.241461 346.401876 
Q 521.574273 346.739376 522.183648 346.739376 
Q 522.486773 346.739376 522.783648 346.617501 
Q 523.082086 346.494064 523.316461 346.275314 
L 523.316461 346.275314 
L 523.971148 346.928439 
L 523.971148 346.928439 
Q 523.594586 347.290939 523.125836 347.489376 
Q 522.657086 347.686251 522.183648 347.686251 
z
M 525.469976 342.544064 
L 526.466851 342.544064 
L 526.466851 347.612814 
L 525.469976 347.612814 
L 525.469976 342.544064 
z
M 528.546539 344.540939 
Q 528.546539 344.005001 528.268414 343.712814 
Q 527.990289 343.419064 527.487164 343.419064 
Q 526.998101 343.419064 526.732476 343.678439 
Q 526.466851 343.936251 526.466851 344.405001 
L 526.363726 343.428439 
Q 526.598101 342.969064 526.976226 342.720626 
Q 527.354351 342.470626 527.813726 342.470626 
Q 528.638726 342.470626 529.090289 343.011251 
Q 529.541851 343.550314 529.541851 344.536251 
L 529.541851 347.612814 
L 528.546539 347.612814 
L 528.546539 344.540939 
z
M 530.899664 346.748751 
L 533.374664 343.447189 
Q 533.590289 343.164376 533.709039 342.859689 
Q 533.829351 342.553439 533.829351 342.290939 
L 533.829351 342.280001 
Q 533.829351 341.856564 533.579351 341.622189 
Q 533.330914 341.387814 532.873101 341.387814 
Q 532.437164 341.387814 532.168414 341.644064 
Q 531.901226 341.900314 531.841851 342.369064 
L 531.841851 342.373751 
L 530.812164 342.373751 
L 530.812164 342.369064 
Q 530.899664 341.758126 531.169976 341.326876 
Q 531.441851 340.894064 531.871539 340.667501 
Q 532.301226 340.439376 532.862164 340.439376 
Q 533.498101 340.439376 533.946539 340.656564 
Q 534.396539 340.873751 534.630914 341.289376 
Q 534.865289 341.705001 534.865289 342.290939 
L 534.865289 342.295626 
Q 534.865289 342.670626 534.709039 343.081564 
Q 534.552789 343.490939 534.273101 343.872189 
L 532.218414 346.665939 
L 534.904351 346.665939 
L 534.904351 347.612814 
L 530.899664 347.612814 
L 530.899664 346.748751 
z
" style="fill: #ffffff"/>
   </g>
  </g>
 </g>
 <defs>
  <clipPath id="p9605aa6950">
   <rect x="144" y="77.76" width="892.8" height="498.96"/>
  </clipPath>
 </defs>
</svg>
