<?xml version="1.0" encoding="utf-8" standalone="no"?>
<!DOCTYPE svg PUBLIC "-//W3C//DTD SVG 1.1//EN"
  "http://www.w3.org/Graphics/SVG/1.1/DTD/svg11.dtd">
<svg xmlns:xlink="http://www.w3.org/1999/xlink" width="1152pt" height="648pt" viewBox="0 0 1152 648" xmlns="http://www.w3.org/2000/svg" version="1.1">
 <metadata>
  <rdf:RDF xmlns:dc="http://purl.org/dc/elements/1.1/" xmlns:cc="http://creativecommons.org/ns#" xmlns:rdf="http://www.w3.org/1999/02/22-rdf-syntax-ns#">
   <cc:Work>
    <dc:type rdf:resource="http://purl.org/dc/dcmitype/StillImage"/>
    <dc:date>2024-11-15T16:34:25.826239</dc:date>
    <dc:format>image/svg+xml</dc:format>
    <dc:creator>
     <cc:Agent>
      <dc:title>Matplotlib v3.9.2, https://matplotlib.org/</dc:title>
     </cc:Agent>
    </dc:creator>
   </cc:Work>
  </rdf:RDF>
 </metadata>
 <defs>
  <style type="text/css">*{stroke-linejoin: round; stroke-linecap: butt}</style>
 </defs>
 <g id="figure_1">
  <g id="patch_1">
   <path d="M 0 648 
L 1152 648 
L 1152 0 
L 0 0 
L 0 648 
z
" style="fill: none"/>
  </g>
  <g id="axes_1">
   <g id="line2d_1">
    <path d="M 240.584727 457.080099 
L 243.404959 455.317051 
L 246.22519 453.574143 
L 249.045421 451.851144 
L 251.865653 450.147827 
L 254.685884 448.463969 
L 257.506116 446.799346 
L 260.326347 445.15374 
L 263.146579 443.526934 
L 265.96681 441.918713 
L 268.787041 440.328866 
L 271.607273 438.757182 
L 274.427504 437.203455 
L 277.247736 435.66748 
L 280.067967 434.149053 
L 282.888198 432.647976 
L 285.70843 431.16405 
L 288.528661 429.697078 
L 291.348893 428.246869 
L 294.169124 426.813231 
L 296.989355 425.395974 
L 299.809587 423.994911 
L 302.629818 422.609859 
L 305.45005 421.240633 
L 308.270281 419.887054 
L 311.090512 418.548943 
L 313.910744 417.226123 
L 316.730975 415.918421 
L 319.551207 414.625662 
L 322.371438 413.347677 
L 325.191669 412.084298 
L 328.011901 410.835357 
L 330.832132 409.600689 
L 333.652364 408.380132 
L 336.472595 407.173525 
L 339.292826 405.980708 
L 342.113058 404.801524 
L 344.933289 403.635817 
L 347.753521 402.483434 
L 350.573752 401.344222 
L 353.393983 400.218031 
L 356.214215 399.104712 
L 359.034446 398.004119 
L 361.854678 396.916106 
L 364.674909 395.840529 
L 367.49514 394.777246 
L 370.315372 393.726117 
L 373.135603 392.687004 
L 375.955835 391.659768 
L 378.776066 390.644275 
L 381.596298 389.64039 
L 384.416529 388.64798 
L 387.23676 387.666916 
L 390.056992 386.697066 
L 392.877223 385.738304 
L 395.697455 384.790501 
L 398.517686 383.853534 
L 401.337917 382.927278 
L 404.158149 382.011612 
L 406.97838 381.106413 
L 409.798612 380.211563 
L 412.618843 379.326943 
L 415.439074 378.452437 
L 418.259306 377.587929 
L 421.079537 376.733304 
L 423.899769 375.888451 
L 426.72 375.053256 
L 429.540231 374.227611 
L 432.360463 373.411405 
L 435.180694 372.604531 
L 438.000926 371.806882 
L 440.821157 371.018354 
L 443.641388 370.238841 
L 446.46162 369.468241 
L 449.281851 368.706452 
L 452.102083 367.953373 
L 454.922314 367.208904 
L 457.742545 366.472949 
L 460.562777 365.745408 
L 463.383008 365.026186 
L 466.20324 364.315188 
L 469.023471 363.61232 
L 471.843702 362.917488 
L 474.663934 362.230602 
L 477.484165 361.551571 
L 480.304397 360.880304 
L 483.124628 360.216712 
L 485.94486 359.560709 
L 488.765091 358.912208 
L 491.585322 358.271122 
L 494.405554 357.637367 
L 497.225785 357.01086 
L 500.046017 356.391516 
L 502.866248 355.779255 
L 505.686479 355.173996 
L 508.506711 354.575658 
L 511.326942 353.984163 
L 514.147174 353.399432 
L 516.967405 352.821388 
L 519.787636 352.249954 
" clip-path="url(#p0fd338cfa6)" style="fill: none; stroke: #f29130; stroke-width: 3; stroke-linecap: round"/>
   </g>
   <g id="text_1">
    <path d="M 527.233241 352.949647 
L 528.839491 352.949647 
Q 529.625429 352.949647 530.056679 352.541835 
Q 530.489491 352.134022 530.489491 351.391835 
L 530.489491 349.30121 
Q 530.489491 348.559022 530.056679 348.15121 
Q 529.625429 347.743397 528.839491 347.743397 
L 527.233241 347.743397 
L 527.233241 346.796522 
L 528.809804 346.796522 
Q 529.664491 346.796522 530.269179 347.09496 
Q 530.875429 347.391835 531.192616 347.96371 
Q 531.509804 348.535585 531.509804 349.340272 
L 531.509804 351.352772 
Q 531.509804 352.15746 531.192616 352.729335 
Q 530.875429 353.30121 530.267616 353.599647 
Q 529.659804 353.896522 528.805116 353.896522 
L 527.233241 353.896522 
L 527.233241 352.949647 
z
M 526.559804 346.796522 
L 527.555116 346.796522 
L 527.555116 353.896522 
L 526.559804 353.896522 
L 526.559804 346.796522 
z
M 535.489491 350.371522 
L 535.484804 350.546522 
Q 535.362929 350.771522 535.116054 350.87621 
Q 534.869179 350.980897 534.533241 350.980897 
Q 534.025429 350.980897 533.639491 350.723085 
Q 533.253554 350.46371 533.041054 349.993397 
Q 532.828554 349.521522 532.828554 348.90121 
L 532.828554 348.896522 
Q 532.828554 348.20746 533.059804 347.71996 
Q 533.292616 347.230897 533.739491 346.977772 
Q 534.186366 346.723085 534.811366 346.723085 
Q 535.436366 346.723085 535.880116 346.98246 
Q 536.325429 347.241835 536.556679 347.735585 
Q 536.787929 348.227772 536.787929 348.921522 
L 536.787929 348.92621 
Q 536.787929 349.305897 536.689491 349.73871 
Q 536.592616 350.171522 536.412929 350.59496 
Q 536.383241 350.659022 536.353554 350.724647 
Q 536.325429 350.790272 536.291054 350.854335 
L 534.776991 353.896522 
L 533.701991 353.896522 
L 535.489491 350.371522 
z
M 534.811366 350.073085 
Q 535.280116 350.073085 535.536366 349.755897 
Q 535.792616 349.43871 535.792616 348.862147 
L 535.792616 348.85746 
Q 535.792616 348.296522 535.536366 347.98871 
Q 535.280116 347.680897 534.811366 347.680897 
Q 534.337929 347.680897 534.081679 347.98871 
Q 533.825429 348.296522 533.825429 348.862147 
L 533.825429 348.866835 
Q 533.825429 349.443397 534.081679 349.759022 
Q 534.337929 350.073085 534.811366 350.073085 
z
M 537.999452 353.03246 
L 540.474452 349.730897 
Q 540.690077 349.448085 540.808827 349.143397 
Q 540.92914 348.837147 540.92914 348.574647 
L 540.92914 348.56371 
Q 540.92914 348.140272 540.67914 347.905897 
Q 540.430702 347.671522 539.97289 347.671522 
Q 539.536952 347.671522 539.268202 347.927772 
Q 539.001015 348.184022 538.94164 348.652772 
L 538.94164 348.65746 
L 537.911952 348.65746 
L 537.911952 348.652772 
Q 537.999452 348.041835 538.269765 347.610585 
Q 538.54164 347.177772 538.971327 346.95121 
Q 539.401015 346.723085 539.961952 346.723085 
Q 540.59789 346.723085 541.046327 346.940272 
Q 541.496327 347.15746 541.730702 347.573085 
Q 541.965077 347.98871 541.965077 348.574647 
L 541.965077 348.579335 
Q 541.965077 348.954335 541.808827 349.365272 
Q 541.652577 349.774647 541.37289 350.155897 
L 539.318202 352.949647 
L 542.00414 352.949647 
L 542.00414 353.896522 
L 537.999452 353.896522 
L 537.999452 353.03246 
z
M 545.299843 353.96996 
Q 544.302968 353.96996 543.787343 353.43871 
Q 543.27328 352.905897 543.27328 351.952772 
L 543.27328 348.72621 
Q 543.27328 347.768397 543.790468 347.23871 
Q 544.307655 346.709022 545.299843 346.709022 
Q 546.295155 346.709022 546.81078 347.237147 
Q 547.326405 347.76371 547.326405 348.72621 
L 547.326405 351.952772 
Q 547.326405 352.910585 546.807655 353.440272 
Q 546.290468 353.96996 545.299843 353.96996 
z
M 545.299843 353.023085 
Q 545.826405 353.023085 546.077968 352.746522 
Q 546.32953 352.46996 546.32953 351.952772 
L 546.32953 348.72621 
Q 546.32953 348.20746 546.07953 347.93246 
Q 545.831093 347.655897 545.299843 347.655897 
Q 544.76703 347.655897 544.51703 347.93246 
Q 544.268593 348.20746 544.268593 348.72621 
L 544.268593 351.952772 
Q 544.268593 352.46996 544.520155 352.746522 
Q 544.771718 353.023085 545.299843 353.023085 
z
M 550.817421 353.96996 
Q 549.820546 353.96996 549.304921 353.43871 
Q 548.790859 352.905897 548.790859 351.952772 
L 548.790859 348.72621 
Q 548.790859 347.768397 549.308046 347.23871 
Q 549.825234 346.709022 550.817421 346.709022 
Q 551.812734 346.709022 552.328359 347.237147 
Q 552.843984 347.76371 552.843984 348.72621 
L 552.843984 351.952772 
Q 552.843984 352.910585 552.325234 353.440272 
Q 551.808046 353.96996 550.817421 353.96996 
z
M 550.817421 353.023085 
Q 551.343984 353.023085 551.595546 352.746522 
Q 551.847109 352.46996 551.847109 351.952772 
L 551.847109 348.72621 
Q 551.847109 348.20746 551.597109 347.93246 
Q 551.348671 347.655897 550.817421 347.655897 
Q 550.284609 347.655897 550.034609 347.93246 
Q 549.786171 348.20746 549.786171 348.72621 
L 549.786171 351.952772 
Q 549.786171 352.46996 550.037734 352.746522 
Q 550.289296 353.023085 550.817421 353.023085 
z
M 558.224062 350.15121 
L 558.224062 351.098085 
L 554.259999 351.098085 
L 554.259999 350.15121 
L 558.224062 350.15121 
z
M 556.739687 352.60746 
L 555.744374 352.60746 
L 555.744374 348.641835 
L 556.739687 348.641835 
L 556.739687 352.60746 
z
" style="fill: #ffffff; stroke: #000000"/>
    <path d="M 527.233241 352.949647 
L 528.839491 352.949647 
Q 529.625429 352.949647 530.056679 352.541835 
Q 530.489491 352.134022 530.489491 351.391835 
L 530.489491 349.30121 
Q 530.489491 348.559022 530.056679 348.15121 
Q 529.625429 347.743397 528.839491 347.743397 
L 527.233241 347.743397 
L 527.233241 346.796522 
L 528.809804 346.796522 
Q 529.664491 346.796522 530.269179 347.09496 
Q 530.875429 347.391835 531.192616 347.96371 
Q 531.509804 348.535585 531.509804 349.340272 
L 531.509804 351.352772 
Q 531.509804 352.15746 531.192616 352.729335 
Q 530.875429 353.30121 530.267616 353.599647 
Q 529.659804 353.896522 528.805116 353.896522 
L 527.233241 353.896522 
L 527.233241 352.949647 
z
M 526.559804 346.796522 
L 527.555116 346.796522 
L 527.555116 353.896522 
L 526.559804 353.896522 
L 526.559804 346.796522 
z
M 535.489491 350.371522 
L 535.484804 350.546522 
Q 535.362929 350.771522 535.116054 350.87621 
Q 534.869179 350.980897 534.533241 350.980897 
Q 534.025429 350.980897 533.639491 350.723085 
Q 533.253554 350.46371 533.041054 349.993397 
Q 532.828554 349.521522 532.828554 348.90121 
L 532.828554 348.896522 
Q 532.828554 348.20746 533.059804 347.71996 
Q 533.292616 347.230897 533.739491 346.977772 
Q 534.186366 346.723085 534.811366 346.723085 
Q 535.436366 346.723085 535.880116 346.98246 
Q 536.325429 347.241835 536.556679 347.735585 
Q 536.787929 348.227772 536.787929 348.921522 
L 536.787929 348.92621 
Q 536.787929 349.305897 536.689491 349.73871 
Q 536.592616 350.171522 536.412929 350.59496 
Q 536.383241 350.659022 536.353554 350.724647 
Q 536.325429 350.790272 536.291054 350.854335 
L 534.776991 353.896522 
L 533.701991 353.896522 
L 535.489491 350.371522 
z
M 534.811366 350.073085 
Q 535.280116 350.073085 535.536366 349.755897 
Q 535.792616 349.43871 535.792616 348.862147 
L 535.792616 348.85746 
Q 535.792616 348.296522 535.536366 347.98871 
Q 535.280116 347.680897 534.811366 347.680897 
Q 534.337929 347.680897 534.081679 347.98871 
Q 533.825429 348.296522 533.825429 348.862147 
L 533.825429 348.866835 
Q 533.825429 349.443397 534.081679 349.759022 
Q 534.337929 350.073085 534.811366 350.073085 
z
M 537.999452 353.03246 
L 540.474452 349.730897 
Q 540.690077 349.448085 540.808827 349.143397 
Q 540.92914 348.837147 540.92914 348.574647 
L 540.92914 348.56371 
Q 540.92914 348.140272 540.67914 347.905897 
Q 540.430702 347.671522 539.97289 347.671522 
Q 539.536952 347.671522 539.268202 347.927772 
Q 539.001015 348.184022 538.94164 348.652772 
L 538.94164 348.65746 
L 537.911952 348.65746 
L 537.911952 348.652772 
Q 537.999452 348.041835 538.269765 347.610585 
Q 538.54164 347.177772 538.971327 346.95121 
Q 539.401015 346.723085 539.961952 346.723085 
Q 540.59789 346.723085 541.046327 346.940272 
Q 541.496327 347.15746 541.730702 347.573085 
Q 541.965077 347.98871 541.965077 348.574647 
L 541.965077 348.579335 
Q 541.965077 348.954335 541.808827 349.365272 
Q 541.652577 349.774647 541.37289 350.155897 
L 539.318202 352.949647 
L 542.00414 352.949647 
L 542.00414 353.896522 
L 537.999452 353.896522 
L 537.999452 353.03246 
z
M 545.299843 353.96996 
Q 544.302968 353.96996 543.787343 353.43871 
Q 543.27328 352.905897 543.27328 351.952772 
L 543.27328 348.72621 
Q 543.27328 347.768397 543.790468 347.23871 
Q 544.307655 346.709022 545.299843 346.709022 
Q 546.295155 346.709022 546.81078 347.237147 
Q 547.326405 347.76371 547.326405 348.72621 
L 547.326405 351.952772 
Q 547.326405 352.910585 546.807655 353.440272 
Q 546.290468 353.96996 545.299843 353.96996 
z
M 545.299843 353.023085 
Q 545.826405 353.023085 546.077968 352.746522 
Q 546.32953 352.46996 546.32953 351.952772 
L 546.32953 348.72621 
Q 546.32953 348.20746 546.07953 347.93246 
Q 545.831093 347.655897 545.299843 347.655897 
Q 544.76703 347.655897 544.51703 347.93246 
Q 544.268593 348.20746 544.268593 348.72621 
L 544.268593 351.952772 
Q 544.268593 352.46996 544.520155 352.746522 
Q 544.771718 353.023085 545.299843 353.023085 
z
M 550.817421 353.96996 
Q 549.820546 353.96996 549.304921 353.43871 
Q 548.790859 352.905897 548.790859 351.952772 
L 548.790859 348.72621 
Q 548.790859 347.768397 549.308046 347.23871 
Q 549.825234 346.709022 550.817421 346.709022 
Q 551.812734 346.709022 552.328359 347.237147 
Q 552.843984 347.76371 552.843984 348.72621 
L 552.843984 351.952772 
Q 552.843984 352.910585 552.325234 353.440272 
Q 551.808046 353.96996 550.817421 353.96996 
z
M 550.817421 353.023085 
Q 551.343984 353.023085 551.595546 352.746522 
Q 551.847109 352.46996 551.847109 351.952772 
L 551.847109 348.72621 
Q 551.847109 348.20746 551.597109 347.93246 
Q 551.348671 347.655897 550.817421 347.655897 
Q 550.284609 347.655897 550.034609 347.93246 
Q 549.786171 348.20746 549.786171 348.72621 
L 549.786171 351.952772 
Q 549.786171 352.46996 550.037734 352.746522 
Q 550.289296 353.023085 550.817421 353.023085 
z
M 558.224062 350.15121 
L 558.224062 351.098085 
L 554.259999 351.098085 
L 554.259999 350.15121 
L 558.224062 350.15121 
z
M 556.739687 352.60746 
L 555.744374 352.60746 
L 555.744374 348.641835 
L 556.739687 348.641835 
L 556.739687 352.60746 
z
" style="fill: #ffffff"/>
   </g>
  </g>
 </g>
 <defs>
  <clipPath id="p0fd338cfa6">
   <rect x="144" y="77.76" width="892.8" height="498.96"/>
  </clipPath>
 </defs>
</svg>
