<?xml version="1.0" encoding="utf-8" standalone="no"?>
<!DOCTYPE svg PUBLIC "-//W3C//DTD SVG 1.1//EN"
  "http://www.w3.org/Graphics/SVG/1.1/DTD/svg11.dtd">
<svg xmlns:xlink="http://www.w3.org/1999/xlink" width="1152pt" height="648pt" viewBox="0 0 1152 648" xmlns="http://www.w3.org/2000/svg" version="1.1">
 <metadata>
  <rdf:RDF xmlns:dc="http://purl.org/dc/elements/1.1/" xmlns:cc="http://creativecommons.org/ns#" xmlns:rdf="http://www.w3.org/1999/02/22-rdf-syntax-ns#">
   <cc:Work>
    <dc:type rdf:resource="http://purl.org/dc/dcmitype/StillImage"/>
    <dc:date>2024-10-09T18:10:10.480113</dc:date>
    <dc:format>image/svg+xml</dc:format>
    <dc:creator>
     <cc:Agent>
      <dc:title>Matplotlib v3.8.1, https://matplotlib.org/</dc:title>
     </cc:Agent>
    </dc:creator>
   </cc:Work>
  </rdf:RDF>
 </metadata>
 <defs>
  <style type="text/css">*{stroke-linejoin: round; stroke-linecap: butt}</style>
 </defs>
 <g id="figure_1">
  <g id="patch_1">
   <path d="M 0 648 
L 1152 648 
L 1152 0 
L 0 0 
L 0 648 
z
" style="fill: none"/>
  </g>
  <g id="axes_1">
   <g id="line2d_1">
    <path d="M 247.889455 459.613389 
L 250.894149 457.653948 
L 253.898843 455.717145 
L 256.903537 453.803142 
L 259.908231 451.91209 
L 262.912926 450.044118 
L 265.91762 448.199341 
L 268.922314 446.377859 
L 271.927008 444.579754 
L 274.931702 442.805093 
L 277.936397 441.053929 
L 280.941091 439.326297 
L 283.945785 437.62222 
L 286.950479 435.941708 
L 289.955174 434.284754 
L 292.959868 432.651339 
L 295.964562 431.041433 
L 298.969256 429.454989 
L 301.97395 427.891953 
L 304.978645 426.352254 
L 307.983339 424.835814 
L 310.988033 423.342542 
L 313.992727 421.872336 
L 316.997421 420.425085 
L 320.002116 419.000667 
L 323.00681 417.598953 
L 326.011504 416.219802 
L 329.016198 414.863067 
L 332.020893 413.528592 
L 335.025587 412.216213 
L 338.030281 410.925759 
L 341.034975 409.657053 
L 344.039669 408.409909 
L 347.044364 407.184137 
L 350.049058 405.979541 
L 353.053752 404.795919 
L 356.058446 403.633064 
L 359.06314 402.490765 
L 362.067835 401.368806 
L 365.072529 400.266967 
L 368.077223 399.185023 
L 371.081917 398.12275 
L 374.086612 397.079915 
L 377.091306 396.056286 
L 380.096 395.051629 
L 383.100694 394.065704 
L 386.105388 393.098273 
L 389.110083 392.149095 
L 392.114777 391.217926 
L 395.119471 390.304523 
L 398.124165 389.408641 
L 401.12886 388.530035 
L 404.133554 387.668458 
L 407.138248 386.823665 
L 410.142942 385.995408 
L 413.147636 385.183442 
L 416.152331 384.38752 
L 419.157025 383.607397 
L 422.161719 382.842828 
L 425.166413 382.093568 
L 428.171107 381.359375 
L 431.175802 380.640006 
L 434.180496 379.93522 
L 437.18519 379.244778 
L 440.189884 378.568442 
L 443.194579 377.905974 
L 446.199273 377.25714 
L 449.203967 376.621706 
L 452.208661 375.999442 
L 455.213355 375.390118 
L 458.21805 374.793507 
L 461.222744 374.209384 
L 464.227438 373.637526 
L 467.232132 373.077711 
L 470.236826 372.529723 
L 473.241521 371.993344 
L 476.246215 371.468361 
L 479.250909 370.954563 
L 482.255603 370.451742 
L 485.260298 369.959691 
L 488.264992 369.478207 
L 491.269686 369.00709 
L 494.27438 368.54614 
L 497.279074 368.095163 
L 500.283769 367.653966 
L 503.288463 367.222358 
L 506.293157 366.800152 
L 509.297851 366.387163 
L 512.302545 365.983209 
L 515.30724 365.588111 
L 518.311934 365.201693 
L 521.316628 364.82378 
L 524.321322 364.454202 
L 527.326017 364.092789 
L 530.330711 363.739376 
L 533.335405 363.393801 
L 536.340099 363.055902 
L 539.344793 362.725523 
L 542.349488 362.402507 
L 545.354182 362.086703 
" clip-path="url(#p237c14223a)" style="fill: none; stroke: #ff0000; stroke-width: 3; stroke-linecap: round"/>
   </g>
   <g id="text_1">
    <path d="M 552.907599 360.617646 
L 556.041974 356.633271 
L 557.266974 356.633271 
L 552.760724 362.111396 
L 552.907599 360.617646 
z
M 552.126349 356.633271 
L 553.121662 356.633271 
L 553.121662 363.733271 
L 552.126349 363.733271 
L 552.126349 356.633271 
z
M 554.088849 359.944209 
L 554.874787 359.216084 
L 557.565412 363.733271 
L 556.345099 363.733271 
L 554.088849 359.944209 
z
M 560.909552 360.208271 
L 560.904865 360.383271 
Q 560.78299 360.608271 560.536115 360.712959 
Q 560.28924 360.817646 559.953302 360.817646 
Q 559.44549 360.817646 559.059552 360.559834 
Q 558.673615 360.300459 558.461115 359.830146 
Q 558.248615 359.358271 558.248615 358.737959 
L 558.248615 358.733271 
Q 558.248615 358.044209 558.479865 357.556709 
Q 558.712677 357.067646 559.159552 356.814521 
Q 559.606427 356.559834 560.231427 356.559834 
Q 560.856427 356.559834 561.300177 356.819209 
Q 561.74549 357.078584 561.97674 357.572334 
Q 562.20799 358.064521 562.20799 358.758271 
L 562.20799 358.762959 
Q 562.20799 359.142646 562.109552 359.575459 
Q 562.012677 360.008271 561.83299 360.431709 
Q 561.803302 360.495771 561.773615 360.561396 
Q 561.74549 360.627021 561.711115 360.691084 
L 560.197052 363.733271 
L 559.122052 363.733271 
L 560.909552 360.208271 
z
M 560.231427 359.909834 
Q 560.700177 359.909834 560.956427 359.592646 
Q 561.212677 359.275459 561.212677 358.698896 
L 561.212677 358.694209 
Q 561.212677 358.133271 560.956427 357.825459 
Q 560.700177 357.517646 560.231427 357.517646 
Q 559.75799 357.517646 559.50174 357.825459 
Q 559.24549 358.133271 559.24549 358.698896 
L 559.24549 358.703584 
Q 559.24549 359.280146 559.50174 359.595771 
Q 559.75799 359.909834 560.231427 359.909834 
z
M 565.553888 363.806709 
Q 564.557013 363.806709 564.041388 363.275459 
Q 563.527326 362.742646 563.527326 361.789521 
L 563.527326 358.562959 
Q 563.527326 357.605146 564.044513 357.075459 
Q 564.561701 356.545771 565.553888 356.545771 
Q 566.549201 356.545771 567.064826 357.073896 
Q 567.580451 357.600459 567.580451 358.562959 
L 567.580451 361.789521 
Q 567.580451 362.747334 567.061701 363.277021 
Q 566.544513 363.806709 565.553888 363.806709 
z
M 565.553888 362.859834 
Q 566.080451 362.859834 566.332013 362.583271 
Q 566.583576 362.306709 566.583576 361.789521 
L 566.583576 358.562959 
Q 566.583576 358.044209 566.333576 357.769209 
Q 566.085138 357.492646 565.553888 357.492646 
Q 565.021076 357.492646 564.771076 357.769209 
Q 564.522638 358.044209 564.522638 358.562959 
L 564.522638 361.789521 
Q 564.522638 362.306709 564.774201 362.583271 
Q 565.025763 362.859834 565.553888 362.859834 
z
M 571.071467 363.806709 
Q 570.074592 363.806709 569.558967 363.275459 
Q 569.044904 362.742646 569.044904 361.789521 
L 569.044904 358.562959 
Q 569.044904 357.605146 569.562092 357.075459 
Q 570.079279 356.545771 571.071467 356.545771 
Q 572.066779 356.545771 572.582404 357.073896 
Q 573.098029 357.600459 573.098029 358.562959 
L 573.098029 361.789521 
Q 573.098029 362.747334 572.579279 363.277021 
Q 572.062092 363.806709 571.071467 363.806709 
z
M 571.071467 362.859834 
Q 571.598029 362.859834 571.849592 362.583271 
Q 572.101154 362.306709 572.101154 361.789521 
L 572.101154 358.562959 
Q 572.101154 358.044209 571.851154 357.769209 
Q 571.602717 357.492646 571.071467 357.492646 
Q 570.538654 357.492646 570.288654 357.769209 
Q 570.040217 358.044209 570.040217 358.562959 
L 570.040217 361.789521 
Q 570.040217 362.306709 570.291779 362.583271 
Q 570.543342 362.859834 571.071467 362.859834 
z
M 576.589045 363.806709 
Q 575.59217 363.806709 575.076545 363.275459 
Q 574.562482 362.742646 574.562482 361.789521 
L 574.562482 358.562959 
Q 574.562482 357.605146 575.07967 357.075459 
Q 575.596857 356.545771 576.589045 356.545771 
Q 577.584357 356.545771 578.099982 357.073896 
Q 578.615607 357.600459 578.615607 358.562959 
L 578.615607 361.789521 
Q 578.615607 362.747334 578.096857 363.277021 
Q 577.57967 363.806709 576.589045 363.806709 
z
M 576.589045 362.859834 
Q 577.115607 362.859834 577.36717 362.583271 
Q 577.618732 362.306709 577.618732 361.789521 
L 577.618732 358.562959 
Q 577.618732 358.044209 577.368732 357.769209 
Q 577.120295 357.492646 576.589045 357.492646 
Q 576.056232 357.492646 575.806232 357.769209 
Q 575.557795 358.044209 575.557795 358.562959 
L 575.557795 361.789521 
Q 575.557795 362.306709 575.809357 362.583271 
Q 576.06092 362.859834 576.589045 362.859834 
z
M 582.359748 363.806709 
Q 581.847248 363.806709 581.387873 363.709834 
Q 580.93006 363.611396 580.531623 363.416084 
Q 580.133185 363.220771 579.78631 362.927021 
L 579.78631 362.927021 
L 580.406623 362.166084 
L 580.406623 362.166084 
Q 580.812873 362.517646 581.300373 362.694209 
Q 581.789435 362.869209 582.359748 362.869209 
Q 583.131623 362.869209 583.556623 362.583271 
Q 583.981623 362.297334 583.981623 361.775459 
L 583.981623 361.770771 
Q 583.981623 361.398896 583.787873 361.181709 
Q 583.595685 360.964521 583.289435 360.859834 
Q 582.984748 360.755146 582.501935 360.666084 
Q 582.48631 360.661396 582.469123 360.661396 
Q 582.453498 360.661396 582.437873 360.656709 
L 582.364435 360.642646 
Q 581.651935 360.520771 581.20506 360.367646 
Q 580.758185 360.212959 580.440998 359.805146 
Q 580.12381 359.397334 580.12381 358.645771 
L 580.12381 358.641084 
Q 580.12381 357.981709 580.419123 357.516084 
Q 580.714435 357.048896 581.28006 356.805146 
Q 581.847248 356.559834 582.64256 356.559834 
Q 583.02381 356.559834 583.39256 356.644209 
Q 583.76131 356.727021 584.119123 356.891084 
Q 584.478498 357.053584 584.825373 357.302021 
L 584.825373 357.302021 
L 584.259748 358.094209 
L 584.259748 358.094209 
Q 583.853498 357.795771 583.450373 357.647334 
Q 583.04881 357.497334 582.64256 357.497334 
Q 581.915998 357.497334 581.512873 357.787959 
Q 581.109748 358.078584 581.109748 358.611396 
L 581.109748 358.616084 
Q 581.109748 358.981709 581.31756 359.192646 
Q 581.525373 359.402021 581.834748 359.502021 
Q 582.145685 359.602021 582.697248 359.709834 
Q 582.715998 359.714521 582.733185 359.717646 
Q 582.750373 359.719209 582.770685 359.723896 
Q 582.794123 359.728584 582.82381 359.734834 
Q 582.853498 359.739521 582.876935 359.744209 
Q 583.522248 359.875459 583.953498 360.056709 
Q 584.38631 360.236396 584.676935 360.639521 
Q 584.96756 361.042646 584.96756 361.741084 
L 584.96756 361.750459 
Q 584.96756 362.400459 584.659748 362.861396 
Q 584.351935 363.322334 583.76756 363.564521 
Q 583.184748 363.806709 582.359748 363.806709 
z
" style="fill: #ffffff; stroke: #000000"/>
    <path d="M 552.907599 360.617646 
L 556.041974 356.633271 
L 557.266974 356.633271 
L 552.760724 362.111396 
L 552.907599 360.617646 
z
M 552.126349 356.633271 
L 553.121662 356.633271 
L 553.121662 363.733271 
L 552.126349 363.733271 
L 552.126349 356.633271 
z
M 554.088849 359.944209 
L 554.874787 359.216084 
L 557.565412 363.733271 
L 556.345099 363.733271 
L 554.088849 359.944209 
z
M 560.909552 360.208271 
L 560.904865 360.383271 
Q 560.78299 360.608271 560.536115 360.712959 
Q 560.28924 360.817646 559.953302 360.817646 
Q 559.44549 360.817646 559.059552 360.559834 
Q 558.673615 360.300459 558.461115 359.830146 
Q 558.248615 359.358271 558.248615 358.737959 
L 558.248615 358.733271 
Q 558.248615 358.044209 558.479865 357.556709 
Q 558.712677 357.067646 559.159552 356.814521 
Q 559.606427 356.559834 560.231427 356.559834 
Q 560.856427 356.559834 561.300177 356.819209 
Q 561.74549 357.078584 561.97674 357.572334 
Q 562.20799 358.064521 562.20799 358.758271 
L 562.20799 358.762959 
Q 562.20799 359.142646 562.109552 359.575459 
Q 562.012677 360.008271 561.83299 360.431709 
Q 561.803302 360.495771 561.773615 360.561396 
Q 561.74549 360.627021 561.711115 360.691084 
L 560.197052 363.733271 
L 559.122052 363.733271 
L 560.909552 360.208271 
z
M 560.231427 359.909834 
Q 560.700177 359.909834 560.956427 359.592646 
Q 561.212677 359.275459 561.212677 358.698896 
L 561.212677 358.694209 
Q 561.212677 358.133271 560.956427 357.825459 
Q 560.700177 357.517646 560.231427 357.517646 
Q 559.75799 357.517646 559.50174 357.825459 
Q 559.24549 358.133271 559.24549 358.698896 
L 559.24549 358.703584 
Q 559.24549 359.280146 559.50174 359.595771 
Q 559.75799 359.909834 560.231427 359.909834 
z
M 565.553888 363.806709 
Q 564.557013 363.806709 564.041388 363.275459 
Q 563.527326 362.742646 563.527326 361.789521 
L 563.527326 358.562959 
Q 563.527326 357.605146 564.044513 357.075459 
Q 564.561701 356.545771 565.553888 356.545771 
Q 566.549201 356.545771 567.064826 357.073896 
Q 567.580451 357.600459 567.580451 358.562959 
L 567.580451 361.789521 
Q 567.580451 362.747334 567.061701 363.277021 
Q 566.544513 363.806709 565.553888 363.806709 
z
M 565.553888 362.859834 
Q 566.080451 362.859834 566.332013 362.583271 
Q 566.583576 362.306709 566.583576 361.789521 
L 566.583576 358.562959 
Q 566.583576 358.044209 566.333576 357.769209 
Q 566.085138 357.492646 565.553888 357.492646 
Q 565.021076 357.492646 564.771076 357.769209 
Q 564.522638 358.044209 564.522638 358.562959 
L 564.522638 361.789521 
Q 564.522638 362.306709 564.774201 362.583271 
Q 565.025763 362.859834 565.553888 362.859834 
z
M 571.071467 363.806709 
Q 570.074592 363.806709 569.558967 363.275459 
Q 569.044904 362.742646 569.044904 361.789521 
L 569.044904 358.562959 
Q 569.044904 357.605146 569.562092 357.075459 
Q 570.079279 356.545771 571.071467 356.545771 
Q 572.066779 356.545771 572.582404 357.073896 
Q 573.098029 357.600459 573.098029 358.562959 
L 573.098029 361.789521 
Q 573.098029 362.747334 572.579279 363.277021 
Q 572.062092 363.806709 571.071467 363.806709 
z
M 571.071467 362.859834 
Q 571.598029 362.859834 571.849592 362.583271 
Q 572.101154 362.306709 572.101154 361.789521 
L 572.101154 358.562959 
Q 572.101154 358.044209 571.851154 357.769209 
Q 571.602717 357.492646 571.071467 357.492646 
Q 570.538654 357.492646 570.288654 357.769209 
Q 570.040217 358.044209 570.040217 358.562959 
L 570.040217 361.789521 
Q 570.040217 362.306709 570.291779 362.583271 
Q 570.543342 362.859834 571.071467 362.859834 
z
M 576.589045 363.806709 
Q 575.59217 363.806709 575.076545 363.275459 
Q 574.562482 362.742646 574.562482 361.789521 
L 574.562482 358.562959 
Q 574.562482 357.605146 575.07967 357.075459 
Q 575.596857 356.545771 576.589045 356.545771 
Q 577.584357 356.545771 578.099982 357.073896 
Q 578.615607 357.600459 578.615607 358.562959 
L 578.615607 361.789521 
Q 578.615607 362.747334 578.096857 363.277021 
Q 577.57967 363.806709 576.589045 363.806709 
z
M 576.589045 362.859834 
Q 577.115607 362.859834 577.36717 362.583271 
Q 577.618732 362.306709 577.618732 361.789521 
L 577.618732 358.562959 
Q 577.618732 358.044209 577.368732 357.769209 
Q 577.120295 357.492646 576.589045 357.492646 
Q 576.056232 357.492646 575.806232 357.769209 
Q 575.557795 358.044209 575.557795 358.562959 
L 575.557795 361.789521 
Q 575.557795 362.306709 575.809357 362.583271 
Q 576.06092 362.859834 576.589045 362.859834 
z
M 582.359748 363.806709 
Q 581.847248 363.806709 581.387873 363.709834 
Q 580.93006 363.611396 580.531623 363.416084 
Q 580.133185 363.220771 579.78631 362.927021 
L 579.78631 362.927021 
L 580.406623 362.166084 
L 580.406623 362.166084 
Q 580.812873 362.517646 581.300373 362.694209 
Q 581.789435 362.869209 582.359748 362.869209 
Q 583.131623 362.869209 583.556623 362.583271 
Q 583.981623 362.297334 583.981623 361.775459 
L 583.981623 361.770771 
Q 583.981623 361.398896 583.787873 361.181709 
Q 583.595685 360.964521 583.289435 360.859834 
Q 582.984748 360.755146 582.501935 360.666084 
Q 582.48631 360.661396 582.469123 360.661396 
Q 582.453498 360.661396 582.437873 360.656709 
L 582.364435 360.642646 
Q 581.651935 360.520771 581.20506 360.367646 
Q 580.758185 360.212959 580.440998 359.805146 
Q 580.12381 359.397334 580.12381 358.645771 
L 580.12381 358.641084 
Q 580.12381 357.981709 580.419123 357.516084 
Q 580.714435 357.048896 581.28006 356.805146 
Q 581.847248 356.559834 582.64256 356.559834 
Q 583.02381 356.559834 583.39256 356.644209 
Q 583.76131 356.727021 584.119123 356.891084 
Q 584.478498 357.053584 584.825373 357.302021 
L 584.825373 357.302021 
L 584.259748 358.094209 
L 584.259748 358.094209 
Q 583.853498 357.795771 583.450373 357.647334 
Q 583.04881 357.497334 582.64256 357.497334 
Q 581.915998 357.497334 581.512873 357.787959 
Q 581.109748 358.078584 581.109748 358.611396 
L 581.109748 358.616084 
Q 581.109748 358.981709 581.31756 359.192646 
Q 581.525373 359.402021 581.834748 359.502021 
Q 582.145685 359.602021 582.697248 359.709834 
Q 582.715998 359.714521 582.733185 359.717646 
Q 582.750373 359.719209 582.770685 359.723896 
Q 582.794123 359.728584 582.82381 359.734834 
Q 582.853498 359.739521 582.876935 359.744209 
Q 583.522248 359.875459 583.953498 360.056709 
Q 584.38631 360.236396 584.676935 360.639521 
Q 584.96756 361.042646 584.96756 361.741084 
L 584.96756 361.750459 
Q 584.96756 362.400459 584.659748 362.861396 
Q 584.351935 363.322334 583.76756 363.564521 
Q 583.184748 363.806709 582.359748 363.806709 
z
" style="fill: #ffffff"/>
   </g>
  </g>
 </g>
 <defs>
  <clipPath id="p237c14223a">
   <rect x="144" y="77.76" width="892.8" height="498.96"/>
  </clipPath>
 </defs>
</svg>
