<?xml version="1.0" encoding="utf-8" standalone="no"?>
<!DOCTYPE svg PUBLIC "-//W3C//DTD SVG 1.1//EN"
  "http://www.w3.org/Graphics/SVG/1.1/DTD/svg11.dtd">
<svg xmlns:xlink="http://www.w3.org/1999/xlink" width="1152pt" height="648pt" viewBox="0 0 1152 648" xmlns="http://www.w3.org/2000/svg" version="1.1">
 <metadata>
  <rdf:RDF xmlns:dc="http://purl.org/dc/elements/1.1/" xmlns:cc="http://creativecommons.org/ns#" xmlns:rdf="http://www.w3.org/1999/02/22-rdf-syntax-ns#">
   <cc:Work>
    <dc:type rdf:resource="http://purl.org/dc/dcmitype/StillImage"/>
    <dc:date>2024-10-09T18:10:10.500118</dc:date>
    <dc:format>image/svg+xml</dc:format>
    <dc:creator>
     <cc:Agent>
      <dc:title>Matplotlib v3.8.1, https://matplotlib.org/</dc:title>
     </cc:Agent>
    </dc:creator>
   </cc:Work>
  </rdf:RDF>
 </metadata>
 <defs>
  <style type="text/css">*{stroke-linejoin: round; stroke-linecap: butt}</style>
 </defs>
 <g id="figure_1">
  <g id="patch_1">
   <path d="M 0 648 
L 1152 648 
L 1152 0 
L 0 0 
L 0 648 
z
" style="fill: none"/>
  </g>
  <g id="axes_1">
   <g id="PathCollection_1">
    <defs>
     <path id="m51d0820cde" d="M 0 2.738613 
C 0.726289 2.738613 1.422928 2.450055 1.936492 1.936492 
C 2.450055 1.422928 2.738613 0.726289 2.738613 0 
C 2.738613 -0.726289 2.450055 -1.422928 1.936492 -1.936492 
C 1.422928 -2.450055 0.726289 -2.738613 0 -2.738613 
C -0.726289 -2.738613 -1.422928 -2.450055 -1.936492 -1.936492 
C -2.450055 -1.422928 -2.738613 -0.726289 -2.738613 0 
C -2.738613 0.726289 -2.450055 1.422928 -1.936492 1.936492 
C -1.422928 2.450055 -0.726289 2.738613 0 2.738613 
z
" style="stroke: #ff0000"/>
    </defs>
    <g clip-path="url(#p0f64590e3b)">
     <use xlink:href="#m51d0820cde" x="566.862545" y="338.765976" style="fill: #ff0000; stroke: #ff0000"/>
     <use xlink:href="#m51d0820cde" x="313.632" y="406.025784" style="fill: #ff0000; stroke: #ff0000"/>
    </g>
   </g>
   <g id="text_1">
    <path d="M 574.415963 337.296919 
L 577.550338 333.312544 
L 578.775338 333.312544 
L 574.269088 338.790669 
L 574.415963 337.296919 
z
M 573.634713 333.312544 
L 574.630025 333.312544 
L 574.630025 340.412544 
L 573.634713 340.412544 
L 573.634713 333.312544 
z
M 575.597213 336.623482 
L 576.38315 335.895357 
L 579.073775 340.412544 
L 577.853463 340.412544 
L 575.597213 336.623482 
z
M 582.417916 336.887544 
L 582.413229 337.062544 
Q 582.291354 337.287544 582.044479 337.392232 
Q 581.797604 337.496919 581.461666 337.496919 
Q 580.953854 337.496919 580.567916 337.239107 
Q 580.181979 336.979732 579.969479 336.509419 
Q 579.756979 336.037544 579.756979 335.417232 
L 579.756979 335.412544 
Q 579.756979 334.723482 579.988229 334.235982 
Q 580.221041 333.746919 580.667916 333.493794 
Q 581.114791 333.239107 581.739791 333.239107 
Q 582.364791 333.239107 582.808541 333.498482 
Q 583.253854 333.757857 583.485104 334.251607 
Q 583.716354 334.743794 583.716354 335.437544 
L 583.716354 335.442232 
Q 583.716354 335.821919 583.617916 336.254732 
Q 583.521041 336.687544 583.341354 337.110982 
Q 583.311666 337.175044 583.281979 337.240669 
Q 583.253854 337.306294 583.219479 337.370357 
L 581.705416 340.412544 
L 580.630416 340.412544 
L 582.417916 336.887544 
z
M 581.739791 336.589107 
Q 582.208541 336.589107 582.464791 336.271919 
Q 582.721041 335.954732 582.721041 335.378169 
L 582.721041 335.373482 
Q 582.721041 334.812544 582.464791 334.504732 
Q 582.208541 334.196919 581.739791 334.196919 
Q 581.266354 334.196919 581.010104 334.504732 
Q 580.753854 334.812544 580.753854 335.378169 
L 580.753854 335.382857 
Q 580.753854 335.959419 581.010104 336.275044 
Q 581.266354 336.589107 581.739791 336.589107 
z
M 587.062252 340.485982 
Q 586.065377 340.485982 585.549752 339.954732 
Q 585.03569 339.421919 585.03569 338.468794 
L 585.03569 335.242232 
Q 585.03569 334.284419 585.552877 333.754732 
Q 586.070065 333.225044 587.062252 333.225044 
Q 588.057565 333.225044 588.57319 333.753169 
Q 589.088815 334.279732 589.088815 335.242232 
L 589.088815 338.468794 
Q 589.088815 339.426607 588.570065 339.956294 
Q 588.052877 340.485982 587.062252 340.485982 
z
M 587.062252 339.539107 
Q 587.588815 339.539107 587.840377 339.262544 
Q 588.09194 338.985982 588.09194 338.468794 
L 588.09194 335.242232 
Q 588.09194 334.723482 587.84194 334.448482 
Q 587.593502 334.171919 587.062252 334.171919 
Q 586.52944 334.171919 586.27944 334.448482 
Q 586.031002 334.723482 586.031002 335.242232 
L 586.031002 338.468794 
Q 586.031002 338.985982 586.282565 339.262544 
Q 586.534127 339.539107 587.062252 339.539107 
z
M 592.26733 340.412544 
L 591.270455 340.412544 
L 591.270455 334.396919 
L 590.259518 335.017232 
L 590.259518 333.985982 
L 591.270455 333.312544 
L 592.26733 333.312544 
L 592.26733 340.412544 
z
M 595.905025 340.485982 
Q 594.90815 340.485982 594.392525 339.954732 
Q 593.878463 339.421919 593.878463 338.468794 
L 593.878463 335.242232 
Q 593.878463 334.284419 594.39565 333.754732 
Q 594.912838 333.225044 595.905025 333.225044 
Q 596.900338 333.225044 597.415963 333.753169 
Q 597.931588 334.279732 597.931588 335.242232 
L 597.931588 338.468794 
Q 597.931588 339.426607 597.412838 339.956294 
Q 596.89565 340.485982 595.905025 340.485982 
z
M 595.905025 339.539107 
Q 596.431588 339.539107 596.68315 339.262544 
Q 596.934713 338.985982 596.934713 338.468794 
L 596.934713 335.242232 
Q 596.934713 334.723482 596.684713 334.448482 
Q 596.436275 334.171919 595.905025 334.171919 
Q 595.372213 334.171919 595.122213 334.448482 
Q 594.873775 334.723482 594.873775 335.242232 
L 594.873775 338.468794 
Q 594.873775 338.985982 595.125338 339.262544 
Q 595.3769 339.539107 595.905025 339.539107 
z
" style="fill: #ffffff; stroke: #000000"/>
    <path d="M 574.415963 337.296919 
L 577.550338 333.312544 
L 578.775338 333.312544 
L 574.269088 338.790669 
L 574.415963 337.296919 
z
M 573.634713 333.312544 
L 574.630025 333.312544 
L 574.630025 340.412544 
L 573.634713 340.412544 
L 573.634713 333.312544 
z
M 575.597213 336.623482 
L 576.38315 335.895357 
L 579.073775 340.412544 
L 577.853463 340.412544 
L 575.597213 336.623482 
z
M 582.417916 336.887544 
L 582.413229 337.062544 
Q 582.291354 337.287544 582.044479 337.392232 
Q 581.797604 337.496919 581.461666 337.496919 
Q 580.953854 337.496919 580.567916 337.239107 
Q 580.181979 336.979732 579.969479 336.509419 
Q 579.756979 336.037544 579.756979 335.417232 
L 579.756979 335.412544 
Q 579.756979 334.723482 579.988229 334.235982 
Q 580.221041 333.746919 580.667916 333.493794 
Q 581.114791 333.239107 581.739791 333.239107 
Q 582.364791 333.239107 582.808541 333.498482 
Q 583.253854 333.757857 583.485104 334.251607 
Q 583.716354 334.743794 583.716354 335.437544 
L 583.716354 335.442232 
Q 583.716354 335.821919 583.617916 336.254732 
Q 583.521041 336.687544 583.341354 337.110982 
Q 583.311666 337.175044 583.281979 337.240669 
Q 583.253854 337.306294 583.219479 337.370357 
L 581.705416 340.412544 
L 580.630416 340.412544 
L 582.417916 336.887544 
z
M 581.739791 336.589107 
Q 582.208541 336.589107 582.464791 336.271919 
Q 582.721041 335.954732 582.721041 335.378169 
L 582.721041 335.373482 
Q 582.721041 334.812544 582.464791 334.504732 
Q 582.208541 334.196919 581.739791 334.196919 
Q 581.266354 334.196919 581.010104 334.504732 
Q 580.753854 334.812544 580.753854 335.378169 
L 580.753854 335.382857 
Q 580.753854 335.959419 581.010104 336.275044 
Q 581.266354 336.589107 581.739791 336.589107 
z
M 587.062252 340.485982 
Q 586.065377 340.485982 585.549752 339.954732 
Q 585.03569 339.421919 585.03569 338.468794 
L 585.03569 335.242232 
Q 585.03569 334.284419 585.552877 333.754732 
Q 586.070065 333.225044 587.062252 333.225044 
Q 588.057565 333.225044 588.57319 333.753169 
Q 589.088815 334.279732 589.088815 335.242232 
L 589.088815 338.468794 
Q 589.088815 339.426607 588.570065 339.956294 
Q 588.052877 340.485982 587.062252 340.485982 
z
M 587.062252 339.539107 
Q 587.588815 339.539107 587.840377 339.262544 
Q 588.09194 338.985982 588.09194 338.468794 
L 588.09194 335.242232 
Q 588.09194 334.723482 587.84194 334.448482 
Q 587.593502 334.171919 587.062252 334.171919 
Q 586.52944 334.171919 586.27944 334.448482 
Q 586.031002 334.723482 586.031002 335.242232 
L 586.031002 338.468794 
Q 586.031002 338.985982 586.282565 339.262544 
Q 586.534127 339.539107 587.062252 339.539107 
z
M 592.26733 340.412544 
L 591.270455 340.412544 
L 591.270455 334.396919 
L 590.259518 335.017232 
L 590.259518 333.985982 
L 591.270455 333.312544 
L 592.26733 333.312544 
L 592.26733 340.412544 
z
M 595.905025 340.485982 
Q 594.90815 340.485982 594.392525 339.954732 
Q 593.878463 339.421919 593.878463 338.468794 
L 593.878463 335.242232 
Q 593.878463 334.284419 594.39565 333.754732 
Q 594.912838 333.225044 595.905025 333.225044 
Q 596.900338 333.225044 597.415963 333.753169 
Q 597.931588 334.279732 597.931588 335.242232 
L 597.931588 338.468794 
Q 597.931588 339.426607 597.412838 339.956294 
Q 596.89565 340.485982 595.905025 340.485982 
z
M 595.905025 339.539107 
Q 596.431588 339.539107 596.68315 339.262544 
Q 596.934713 338.985982 596.934713 338.468794 
L 596.934713 335.242232 
Q 596.934713 334.723482 596.684713 334.448482 
Q 596.436275 334.171919 595.905025 334.171919 
Q 595.372213 334.171919 595.122213 334.448482 
Q 594.873775 334.723482 594.873775 335.242232 
L 594.873775 338.468794 
Q 594.873775 338.985982 595.125338 339.262544 
Q 595.3769 339.539107 595.905025 339.539107 
z
" style="fill: #ffffff"/>
   </g>
   <g id="text_2">
    <path d="M 321.185417 404.556727 
L 324.319793 400.572352 
L 325.544792 400.572352 
L 321.038543 406.050477 
L 321.185417 404.556727 
z
M 320.404167 400.572352 
L 321.39948 400.572352 
L 321.39948 407.672352 
L 320.404167 407.672352 
L 320.404167 400.572352 
z
M 322.366668 403.883289 
L 323.152605 403.155165 
L 325.84323 407.672352 
L 324.622917 407.672352 
L 322.366668 403.883289 
z
M 329.187371 404.147352 
L 329.182683 404.322352 
Q 329.060808 404.547352 328.813933 404.65204 
Q 328.567058 404.756727 328.231121 404.756727 
Q 327.723308 404.756727 327.337371 404.498915 
Q 326.951433 404.239539 326.738933 403.769227 
Q 326.526433 403.297352 326.526433 402.677039 
L 326.526433 402.672352 
Q 326.526433 401.98329 326.757683 401.49579 
Q 326.990496 401.006727 327.437371 400.753602 
Q 327.884246 400.498915 328.509246 400.498915 
Q 329.134246 400.498915 329.577996 400.758289 
Q 330.023308 401.017664 330.254558 401.511415 
Q 330.485808 402.003602 330.485808 402.697352 
L 330.485808 402.70204 
Q 330.485808 403.081727 330.387371 403.51454 
Q 330.290496 403.947352 330.110808 404.37079 
Q 330.081121 404.434852 330.051433 404.500477 
Q 330.023308 404.566102 329.988933 404.630164 
L 328.474871 407.672352 
L 327.399871 407.672352 
L 329.187371 404.147352 
z
M 328.509246 403.848914 
Q 328.977996 403.848914 329.234246 403.531727 
Q 329.490496 403.21454 329.490496 402.637977 
L 329.490496 402.633289 
Q 329.490496 402.072352 329.234246 401.76454 
Q 328.977996 401.456727 328.509246 401.456727 
Q 328.035808 401.456727 327.779558 401.76454 
Q 327.523308 402.072352 327.523308 402.637977 
L 327.523308 402.642664 
Q 327.523308 403.219227 327.779558 403.534852 
Q 328.035808 403.848914 328.509246 403.848914 
z
M 333.831707 407.74579 
Q 332.834832 407.74579 332.319207 407.21454 
Q 331.805144 406.681727 331.805144 405.728602 
L 331.805144 402.502039 
Q 331.805144 401.544227 332.322332 401.01454 
Q 332.839519 400.484852 333.831707 400.484852 
Q 334.827019 400.484852 335.342644 401.012977 
Q 335.858269 401.539539 335.858269 402.502039 
L 335.858269 405.728602 
Q 335.858269 406.686415 335.339519 407.216102 
Q 334.822332 407.74579 333.831707 407.74579 
z
M 333.831707 406.798914 
Q 334.358269 406.798914 334.609832 406.522352 
Q 334.861394 406.24579 334.861394 405.728602 
L 334.861394 402.502039 
Q 334.861394 401.98329 334.611394 401.708289 
Q 334.362957 401.431727 333.831707 401.431727 
Q 333.298894 401.431727 333.048894 401.708289 
Q 332.800457 401.98329 332.800457 402.502039 
L 332.800457 405.728602 
Q 332.800457 406.24579 333.052019 406.522352 
Q 333.303582 406.798914 333.831707 406.798914 
z
M 339.036785 407.672352 
L 338.03991 407.672352 
L 338.03991 401.656727 
L 337.028972 402.27704 
L 337.028972 401.24579 
L 338.03991 400.572352 
L 339.036785 400.572352 
L 339.036785 407.672352 
z
M 342.67448 407.74579 
Q 341.677605 407.74579 341.16198 407.21454 
Q 340.647918 406.681727 340.647918 405.728602 
L 340.647918 402.502039 
Q 340.647918 401.544227 341.165105 401.01454 
Q 341.682292 400.484852 342.67448 400.484852 
Q 343.669792 400.484852 344.185417 401.012977 
Q 344.701042 401.539539 344.701042 402.502039 
L 344.701042 405.728602 
Q 344.701042 406.686415 344.182292 407.216102 
Q 343.665105 407.74579 342.67448 407.74579 
z
M 342.67448 406.798914 
Q 343.201042 406.798914 343.452605 406.522352 
Q 343.704167 406.24579 343.704167 405.728602 
L 343.704167 402.502039 
Q 343.704167 401.98329 343.454167 401.708289 
Q 343.20573 401.431727 342.67448 401.431727 
Q 342.141667 401.431727 341.891667 401.708289 
Q 341.64323 401.98329 341.64323 402.502039 
L 341.64323 405.728602 
Q 341.64323 406.24579 341.894792 406.522352 
Q 342.146355 406.798914 342.67448 406.798914 
z
" style="fill: #ffffff; stroke: #000000"/>
    <path d="M 321.185417 404.556727 
L 324.319793 400.572352 
L 325.544792 400.572352 
L 321.038543 406.050477 
L 321.185417 404.556727 
z
M 320.404167 400.572352 
L 321.39948 400.572352 
L 321.39948 407.672352 
L 320.404167 407.672352 
L 320.404167 400.572352 
z
M 322.366668 403.883289 
L 323.152605 403.155165 
L 325.84323 407.672352 
L 324.622917 407.672352 
L 322.366668 403.883289 
z
M 329.187371 404.147352 
L 329.182683 404.322352 
Q 329.060808 404.547352 328.813933 404.65204 
Q 328.567058 404.756727 328.231121 404.756727 
Q 327.723308 404.756727 327.337371 404.498915 
Q 326.951433 404.239539 326.738933 403.769227 
Q 326.526433 403.297352 326.526433 402.677039 
L 326.526433 402.672352 
Q 326.526433 401.98329 326.757683 401.49579 
Q 326.990496 401.006727 327.437371 400.753602 
Q 327.884246 400.498915 328.509246 400.498915 
Q 329.134246 400.498915 329.577996 400.758289 
Q 330.023308 401.017664 330.254558 401.511415 
Q 330.485808 402.003602 330.485808 402.697352 
L 330.485808 402.70204 
Q 330.485808 403.081727 330.387371 403.51454 
Q 330.290496 403.947352 330.110808 404.37079 
Q 330.081121 404.434852 330.051433 404.500477 
Q 330.023308 404.566102 329.988933 404.630164 
L 328.474871 407.672352 
L 327.399871 407.672352 
L 329.187371 404.147352 
z
M 328.509246 403.848914 
Q 328.977996 403.848914 329.234246 403.531727 
Q 329.490496 403.21454 329.490496 402.637977 
L 329.490496 402.633289 
Q 329.490496 402.072352 329.234246 401.76454 
Q 328.977996 401.456727 328.509246 401.456727 
Q 328.035808 401.456727 327.779558 401.76454 
Q 327.523308 402.072352 327.523308 402.637977 
L 327.523308 402.642664 
Q 327.523308 403.219227 327.779558 403.534852 
Q 328.035808 403.848914 328.509246 403.848914 
z
M 333.831707 407.74579 
Q 332.834832 407.74579 332.319207 407.21454 
Q 331.805144 406.681727 331.805144 405.728602 
L 331.805144 402.502039 
Q 331.805144 401.544227 332.322332 401.01454 
Q 332.839519 400.484852 333.831707 400.484852 
Q 334.827019 400.484852 335.342644 401.012977 
Q 335.858269 401.539539 335.858269 402.502039 
L 335.858269 405.728602 
Q 335.858269 406.686415 335.339519 407.216102 
Q 334.822332 407.74579 333.831707 407.74579 
z
M 333.831707 406.798914 
Q 334.358269 406.798914 334.609832 406.522352 
Q 334.861394 406.24579 334.861394 405.728602 
L 334.861394 402.502039 
Q 334.861394 401.98329 334.611394 401.708289 
Q 334.362957 401.431727 333.831707 401.431727 
Q 333.298894 401.431727 333.048894 401.708289 
Q 332.800457 401.98329 332.800457 402.502039 
L 332.800457 405.728602 
Q 332.800457 406.24579 333.052019 406.522352 
Q 333.303582 406.798914 333.831707 406.798914 
z
M 339.036785 407.672352 
L 338.03991 407.672352 
L 338.03991 401.656727 
L 337.028972 402.27704 
L 337.028972 401.24579 
L 338.03991 400.572352 
L 339.036785 400.572352 
L 339.036785 407.672352 
z
M 342.67448 407.74579 
Q 341.677605 407.74579 341.16198 407.21454 
Q 340.647918 406.681727 340.647918 405.728602 
L 340.647918 402.502039 
Q 340.647918 401.544227 341.165105 401.01454 
Q 341.682292 400.484852 342.67448 400.484852 
Q 343.669792 400.484852 344.185417 401.012977 
Q 344.701042 401.539539 344.701042 402.502039 
L 344.701042 405.728602 
Q 344.701042 406.686415 344.182292 407.216102 
Q 343.665105 407.74579 342.67448 407.74579 
z
M 342.67448 406.798914 
Q 343.201042 406.798914 343.452605 406.522352 
Q 343.704167 406.24579 343.704167 405.728602 
L 343.704167 402.502039 
Q 343.704167 401.98329 343.454167 401.708289 
Q 343.20573 401.431727 342.67448 401.431727 
Q 342.141667 401.431727 341.891667 401.708289 
Q 341.64323 401.98329 341.64323 402.502039 
L 341.64323 405.728602 
Q 341.64323 406.24579 341.894792 406.522352 
Q 342.146355 406.798914 342.67448 406.798914 
z
" style="fill: #ffffff"/>
   </g>
  </g>
 </g>
 <defs>
  <clipPath id="p0f64590e3b">
   <rect x="144" y="77.76" width="892.8" height="498.96"/>
  </clipPath>
 </defs>
</svg>
