<?xml version="1.0" encoding="utf-8" standalone="no"?>
<!DOCTYPE svg PUBLIC "-//W3C//DTD SVG 1.1//EN"
  "http://www.w3.org/Graphics/SVG/1.1/DTD/svg11.dtd">
<svg xmlns:xlink="http://www.w3.org/1999/xlink" width="1152pt" height="648pt" viewBox="0 0 1152 648" xmlns="http://www.w3.org/2000/svg" version="1.1">
 <metadata>
  <rdf:RDF xmlns:dc="http://purl.org/dc/elements/1.1/" xmlns:cc="http://creativecommons.org/ns#" xmlns:rdf="http://www.w3.org/1999/02/22-rdf-syntax-ns#">
   <cc:Work>
    <dc:type rdf:resource="http://purl.org/dc/dcmitype/StillImage"/>
    <dc:date>2024-11-15T16:34:25.131799</dc:date>
    <dc:format>image/svg+xml</dc:format>
    <dc:creator>
     <cc:Agent>
      <dc:title>Matplotlib v3.9.2, https://matplotlib.org/</dc:title>
     </cc:Agent>
    </dc:creator>
   </cc:Work>
  </rdf:RDF>
 </metadata>
 <defs>
  <style type="text/css">*{stroke-linejoin: round; stroke-linecap: butt}</style>
 </defs>
 <g id="figure_1">
  <g id="patch_1">
   <path d="M 0 648 
L 1152 648 
L 1152 0 
L 0 0 
L 0 648 
z
" style="fill: none"/>
  </g>
  <g id="axes_1">
   <g id="PathCollection_1">
    <defs>
     <path id="m6db55960f6" d="M 0 2.738613 
C 0.726289 2.738613 1.422928 2.450055 1.936492 1.936492 
C 2.450055 1.422928 2.738613 0.726289 2.738613 0 
C 2.738613 -0.726289 2.450055 -1.422928 1.936492 -1.936492 
C 1.422928 -2.450055 0.726289 -2.738613 0 -2.738613 
C -0.726289 -2.738613 -1.422928 -2.450055 -1.936492 -1.936492 
C -2.450055 -1.422928 -2.738613 -0.726289 -2.738613 0 
C -2.738613 0.726289 -2.450055 1.422928 -1.936492 1.936492 
C -1.422928 2.450055 -0.726289 2.738613 0 2.738613 
z
" style="stroke: #80ff80"/>
    </defs>
    <g clip-path="url(#p3700ed4cec)">
     <use xlink:href="#m6db55960f6" x="567.674182" y="274.39182" style="fill: #80ff80; stroke: #80ff80"/>
     <use xlink:href="#m6db55960f6" x="210.554182" y="456.92802" style="fill: #80ff80; stroke: #80ff80"/>
    </g>
   </g>
   <g id="text_1">
    <path d="M 576.379162 268.938388 
L 577.229162 268.938388 
L 579.846349 276.038388 
L 578.771349 276.038388 
L 576.804162 270.310263 
L 574.836974 276.038388 
L 573.761974 276.038388 
L 576.379162 268.938388 
z
M 574.968224 273.533701 
L 578.704162 273.533701 
L 578.704162 274.480576 
L 574.968224 274.480576 
L 574.968224 273.533701 
z
M 582.488146 276.038388 
L 581.491271 276.038388 
L 581.491271 270.022763 
L 580.480334 270.643076 
L 580.480334 269.611826 
L 581.491271 268.938388 
L 582.488146 268.938388 
L 582.488146 276.038388 
z
M 585.930529 276.111826 
Q 585.305529 276.111826 584.860217 275.860263 
Q 584.416467 275.608701 584.183654 275.127451 
Q 583.952404 274.646201 583.952404 273.968076 
L 583.952404 273.963388 
Q 583.952404 273.568076 584.044592 273.133701 
Q 584.138342 272.697763 584.313342 272.279013 
Q 584.343029 272.205576 584.377404 272.135263 
Q 584.411779 272.063388 584.446154 271.994638 
L 585.988342 268.938388 
L 587.063342 268.938388 
L 585.250842 272.479013 
L 585.255529 272.302451 
Q 585.378967 272.072763 585.613342 271.946201 
Q 585.847717 271.819638 586.160217 271.819638 
Q 586.711779 271.819638 587.107092 272.069638 
Q 587.502404 272.318076 587.707092 272.794638 
Q 587.911779 273.269638 587.911779 273.938388 
L 587.911779 273.943076 
Q 587.911779 274.627451 587.680529 275.116513 
Q 587.449279 275.604013 587.002404 275.858701 
Q 586.555529 276.111826 585.930529 276.111826 
z
M 585.930529 275.154013 
Q 586.403967 275.154013 586.660217 274.861826 
Q 586.916467 274.568076 586.916467 274.025888 
L 586.916467 274.021201 
Q 586.916467 273.425888 586.647717 273.100888 
Q 586.378967 272.775888 585.880529 272.775888 
Q 585.436779 272.775888 585.193029 273.104013 
Q 584.949279 273.430576 584.949279 274.025888 
L 584.949279 274.032138 
Q 584.949279 274.572763 585.205529 274.863388 
Q 585.461779 275.154013 585.930529 275.154013 
z
" style="fill: #ffffff; stroke: #000000"/>
    <path d="M 576.379162 268.938388 
L 577.229162 268.938388 
L 579.846349 276.038388 
L 578.771349 276.038388 
L 576.804162 270.310263 
L 574.836974 276.038388 
L 573.761974 276.038388 
L 576.379162 268.938388 
z
M 574.968224 273.533701 
L 578.704162 273.533701 
L 578.704162 274.480576 
L 574.968224 274.480576 
L 574.968224 273.533701 
z
M 582.488146 276.038388 
L 581.491271 276.038388 
L 581.491271 270.022763 
L 580.480334 270.643076 
L 580.480334 269.611826 
L 581.491271 268.938388 
L 582.488146 268.938388 
L 582.488146 276.038388 
z
M 585.930529 276.111826 
Q 585.305529 276.111826 584.860217 275.860263 
Q 584.416467 275.608701 584.183654 275.127451 
Q 583.952404 274.646201 583.952404 273.968076 
L 583.952404 273.963388 
Q 583.952404 273.568076 584.044592 273.133701 
Q 584.138342 272.697763 584.313342 272.279013 
Q 584.343029 272.205576 584.377404 272.135263 
Q 584.411779 272.063388 584.446154 271.994638 
L 585.988342 268.938388 
L 587.063342 268.938388 
L 585.250842 272.479013 
L 585.255529 272.302451 
Q 585.378967 272.072763 585.613342 271.946201 
Q 585.847717 271.819638 586.160217 271.819638 
Q 586.711779 271.819638 587.107092 272.069638 
Q 587.502404 272.318076 587.707092 272.794638 
Q 587.911779 273.269638 587.911779 273.938388 
L 587.911779 273.943076 
Q 587.911779 274.627451 587.680529 275.116513 
Q 587.449279 275.604013 587.002404 275.858701 
Q 586.555529 276.111826 585.930529 276.111826 
z
M 585.930529 275.154013 
Q 586.403967 275.154013 586.660217 274.861826 
Q 586.916467 274.568076 586.916467 274.025888 
L 586.916467 274.021201 
Q 586.916467 273.425888 586.647717 273.100888 
Q 586.378967 272.775888 585.880529 272.775888 
Q 585.436779 272.775888 585.193029 273.104013 
Q 584.949279 273.430576 584.949279 274.025888 
L 584.949279 274.032138 
Q 584.949279 274.572763 585.205529 274.863388 
Q 585.461779 275.154013 585.930529 275.154013 
z
" style="fill: #ffffff"/>
   </g>
   <g id="text_2">
    <path d="M 219.259162 451.474588 
L 220.109162 451.474588 
L 222.726349 458.574588 
L 221.651349 458.574588 
L 219.684162 452.846463 
L 217.716974 458.574588 
L 216.641974 458.574588 
L 219.259162 451.474588 
z
M 217.848224 456.069901 
L 221.584162 456.069901 
L 221.584162 457.016775 
L 217.848224 457.016775 
L 217.848224 456.069901 
z
M 225.368146 458.574588 
L 224.371271 458.574588 
L 224.371271 452.558963 
L 223.360334 453.179276 
L 223.360334 452.148026 
L 224.371271 451.474588 
L 225.368146 451.474588 
L 225.368146 458.574588 
z
M 228.810529 458.648026 
Q 228.185529 458.648026 227.740217 458.396463 
Q 227.296467 458.144901 227.063654 457.663651 
Q 226.832404 457.182401 226.832404 456.504276 
L 226.832404 456.499588 
Q 226.832404 456.104276 226.924592 455.6699 
Q 227.018342 455.233963 227.193342 454.815213 
Q 227.223029 454.741776 227.257404 454.671463 
Q 227.291779 454.599588 227.326154 454.530838 
L 228.868342 451.474588 
L 229.943342 451.474588 
L 228.130842 455.015213 
L 228.135529 454.838651 
Q 228.258967 454.608963 228.493342 454.4824 
Q 228.727717 454.355838 229.040217 454.355838 
Q 229.591779 454.355838 229.987092 454.605838 
Q 230.382404 454.854276 230.587092 455.330838 
Q 230.791779 455.805838 230.791779 456.474588 
L 230.791779 456.479276 
Q 230.791779 457.163651 230.560529 457.652713 
Q 230.329279 458.140213 229.882404 458.394901 
Q 229.435529 458.648026 228.810529 458.648026 
z
M 228.810529 457.690213 
Q 229.283967 457.690213 229.540217 457.398026 
Q 229.796467 457.104276 229.796467 456.562088 
L 229.796467 456.557401 
Q 229.796467 455.962088 229.527717 455.637088 
Q 229.258967 455.312088 228.760529 455.312088 
Q 228.316779 455.312088 228.073029 455.640213 
Q 227.829279 455.966775 227.829279 456.562088 
L 227.829279 456.568338 
Q 227.829279 457.108963 228.085529 457.399588 
Q 228.341779 457.690213 228.810529 457.690213 
z
" style="fill: #ffffff; stroke: #000000"/>
    <path d="M 219.259162 451.474588 
L 220.109162 451.474588 
L 222.726349 458.574588 
L 221.651349 458.574588 
L 219.684162 452.846463 
L 217.716974 458.574588 
L 216.641974 458.574588 
L 219.259162 451.474588 
z
M 217.848224 456.069901 
L 221.584162 456.069901 
L 221.584162 457.016775 
L 217.848224 457.016775 
L 217.848224 456.069901 
z
M 225.368146 458.574588 
L 224.371271 458.574588 
L 224.371271 452.558963 
L 223.360334 453.179276 
L 223.360334 452.148026 
L 224.371271 451.474588 
L 225.368146 451.474588 
L 225.368146 458.574588 
z
M 228.810529 458.648026 
Q 228.185529 458.648026 227.740217 458.396463 
Q 227.296467 458.144901 227.063654 457.663651 
Q 226.832404 457.182401 226.832404 456.504276 
L 226.832404 456.499588 
Q 226.832404 456.104276 226.924592 455.6699 
Q 227.018342 455.233963 227.193342 454.815213 
Q 227.223029 454.741776 227.257404 454.671463 
Q 227.291779 454.599588 227.326154 454.530838 
L 228.868342 451.474588 
L 229.943342 451.474588 
L 228.130842 455.015213 
L 228.135529 454.838651 
Q 228.258967 454.608963 228.493342 454.4824 
Q 228.727717 454.355838 229.040217 454.355838 
Q 229.591779 454.355838 229.987092 454.605838 
Q 230.382404 454.854276 230.587092 455.330838 
Q 230.791779 455.805838 230.791779 456.474588 
L 230.791779 456.479276 
Q 230.791779 457.163651 230.560529 457.652713 
Q 230.329279 458.140213 229.882404 458.394901 
Q 229.435529 458.648026 228.810529 458.648026 
z
M 228.810529 457.690213 
Q 229.283967 457.690213 229.540217 457.398026 
Q 229.796467 457.104276 229.796467 456.562088 
L 229.796467 456.557401 
Q 229.796467 455.962088 229.527717 455.637088 
Q 229.258967 455.312088 228.760529 455.312088 
Q 228.316779 455.312088 228.073029 455.640213 
Q 227.829279 455.966775 227.829279 456.562088 
L 227.829279 456.568338 
Q 227.829279 457.108963 228.085529 457.399588 
Q 228.341779 457.690213 228.810529 457.690213 
z
" style="fill: #ffffff"/>
   </g>
  </g>
 </g>
 <defs>
  <clipPath id="p3700ed4cec">
   <rect x="144" y="77.76" width="892.8" height="498.96"/>
  </clipPath>
 </defs>
</svg>
