<?xml version="1.0" encoding="utf-8" standalone="no"?>
<!DOCTYPE svg PUBLIC "-//W3C//DTD SVG 1.1//EN"
  "http://www.w3.org/Graphics/SVG/1.1/DTD/svg11.dtd">
<svg xmlns:xlink="http://www.w3.org/1999/xlink" width="1152pt" height="648pt" viewBox="0 0 1152 648" xmlns="http://www.w3.org/2000/svg" version="1.1">
 <metadata>
  <rdf:RDF xmlns:dc="http://purl.org/dc/elements/1.1/" xmlns:cc="http://creativecommons.org/ns#" xmlns:rdf="http://www.w3.org/1999/02/22-rdf-syntax-ns#">
   <cc:Work>
    <dc:type rdf:resource="http://purl.org/dc/dcmitype/StillImage"/>
    <dc:date>2024-11-15T16:34:25.944192</dc:date>
    <dc:format>image/svg+xml</dc:format>
    <dc:creator>
     <cc:Agent>
      <dc:title>Matplotlib v3.9.2, https://matplotlib.org/</dc:title>
     </cc:Agent>
    </dc:creator>
   </cc:Work>
  </rdf:RDF>
 </metadata>
 <defs>
  <style type="text/css">*{stroke-linejoin: round; stroke-linecap: butt}</style>
 </defs>
 <g id="figure_1">
  <g id="patch_1">
   <path d="M 0 648 
L 1152 648 
L 1152 0 
L 0 0 
L 0 648 
z
" style="fill: none"/>
  </g>
  <g id="axes_1">
   <g id="PathCollection_1">
    <defs>
     <path id="m1bc2547a18" d="M 0 2.738613 
C 0.726289 2.738613 1.422928 2.450055 1.936492 1.936492 
C 2.450055 1.422928 2.738613 0.726289 2.738613 0 
C 2.738613 -0.726289 2.450055 -1.422928 1.936492 -1.936492 
C 1.422928 -2.450055 0.726289 -2.738613 0 -2.738613 
C -0.726289 -2.738613 -1.422928 -2.450055 -1.936492 -1.936492 
C -2.450055 -1.422928 -2.738613 -0.726289 -2.738613 0 
C -2.738613 0.726289 -2.450055 1.422928 -1.936492 1.936492 
C -1.422928 2.450055 -0.726289 2.738613 0 2.738613 
z
" style="stroke: #ff0000"/>
    </defs>
    <g clip-path="url(#p06d6f09274)">
     <use xlink:href="#m1bc2547a18" x="566.862545" y="378.42498" style="fill: #ff0000; stroke: #ff0000"/>
     <use xlink:href="#m1bc2547a18" x="313.632" y="434.47482" style="fill: #ff0000; stroke: #ff0000"/>
    </g>
   </g>
   <g id="text_1">
    <path d="M 574.415963 376.955923 
L 577.550338 372.971548 
L 578.775338 372.971548 
L 574.269088 378.449673 
L 574.415963 376.955923 
z
M 573.634713 372.971548 
L 574.630025 372.971548 
L 574.630025 380.071548 
L 573.634713 380.071548 
L 573.634713 372.971548 
z
M 575.597213 376.282486 
L 576.38315 375.554361 
L 579.073775 380.071548 
L 577.853463 380.071548 
L 575.597213 376.282486 
z
M 582.417916 376.546548 
L 582.413229 376.721548 
Q 582.291354 376.946548 582.044479 377.051236 
Q 581.797604 377.155923 581.461666 377.155923 
Q 580.953854 377.155923 580.567916 376.898111 
Q 580.181979 376.638735 579.969479 376.168423 
Q 579.756979 375.696548 579.756979 375.076235 
L 579.756979 375.071548 
Q 579.756979 374.382486 579.988229 373.894986 
Q 580.221041 373.405923 580.667916 373.152798 
Q 581.114791 372.898111 581.739791 372.898111 
Q 582.364791 372.898111 582.808541 373.157486 
Q 583.253854 373.41686 583.485104 373.910611 
Q 583.716354 374.402798 583.716354 375.096548 
L 583.716354 375.101236 
Q 583.716354 375.480923 583.617916 375.913736 
Q 583.521041 376.346548 583.341354 376.769986 
Q 583.311666 376.834048 583.281979 376.899673 
Q 583.253854 376.965298 583.219479 377.02936 
L 581.705416 380.071548 
L 580.630416 380.071548 
L 582.417916 376.546548 
z
M 581.739791 376.24811 
Q 582.208541 376.24811 582.464791 375.930923 
Q 582.721041 375.613736 582.721041 375.037173 
L 582.721041 375.032486 
Q 582.721041 374.471548 582.464791 374.163736 
Q 582.208541 373.855923 581.739791 373.855923 
Q 581.266354 373.855923 581.010104 374.163736 
Q 580.753854 374.471548 580.753854 375.037173 
L 580.753854 375.04186 
Q 580.753854 375.618423 581.010104 375.934048 
Q 581.266354 376.24811 581.739791 376.24811 
z
M 587.062252 380.144986 
Q 586.065377 380.144986 585.549752 379.613736 
Q 585.03569 379.080923 585.03569 378.127798 
L 585.03569 374.901235 
Q 585.03569 373.943423 585.552877 373.413736 
Q 586.070065 372.884048 587.062252 372.884048 
Q 588.057565 372.884048 588.57319 373.412173 
Q 589.088815 373.938736 589.088815 374.901235 
L 589.088815 378.127798 
Q 589.088815 379.085611 588.570065 379.615298 
Q 588.052877 380.144986 587.062252 380.144986 
z
M 587.062252 379.19811 
Q 587.588815 379.19811 587.840377 378.921548 
Q 588.09194 378.644986 588.09194 378.127798 
L 588.09194 374.901235 
Q 588.09194 374.382486 587.84194 374.107485 
Q 587.593502 373.830923 587.062252 373.830923 
Q 586.52944 373.830923 586.27944 374.107485 
Q 586.031002 374.382486 586.031002 374.901235 
L 586.031002 378.127798 
Q 586.031002 378.644986 586.282565 378.921548 
Q 586.534127 379.19811 587.062252 379.19811 
z
M 592.26733 380.071548 
L 591.270455 380.071548 
L 591.270455 374.055923 
L 590.259518 374.676236 
L 590.259518 373.644986 
L 591.270455 372.971548 
L 592.26733 372.971548 
L 592.26733 380.071548 
z
M 595.905025 380.144986 
Q 594.90815 380.144986 594.392525 379.613736 
Q 593.878463 379.080923 593.878463 378.127798 
L 593.878463 374.901235 
Q 593.878463 373.943423 594.39565 373.413736 
Q 594.912838 372.884048 595.905025 372.884048 
Q 596.900338 372.884048 597.415963 373.412173 
Q 597.931588 373.938736 597.931588 374.901235 
L 597.931588 378.127798 
Q 597.931588 379.085611 597.412838 379.615298 
Q 596.89565 380.144986 595.905025 380.144986 
z
M 595.905025 379.19811 
Q 596.431588 379.19811 596.68315 378.921548 
Q 596.934713 378.644986 596.934713 378.127798 
L 596.934713 374.901235 
Q 596.934713 374.382486 596.684713 374.107485 
Q 596.436275 373.830923 595.905025 373.830923 
Q 595.372213 373.830923 595.122213 374.107485 
Q 594.873775 374.382486 594.873775 374.901235 
L 594.873775 378.127798 
Q 594.873775 378.644986 595.125338 378.921548 
Q 595.3769 379.19811 595.905025 379.19811 
z
" style="fill: #ffffff; stroke: #000000"/>
    <path d="M 574.415963 376.955923 
L 577.550338 372.971548 
L 578.775338 372.971548 
L 574.269088 378.449673 
L 574.415963 376.955923 
z
M 573.634713 372.971548 
L 574.630025 372.971548 
L 574.630025 380.071548 
L 573.634713 380.071548 
L 573.634713 372.971548 
z
M 575.597213 376.282486 
L 576.38315 375.554361 
L 579.073775 380.071548 
L 577.853463 380.071548 
L 575.597213 376.282486 
z
M 582.417916 376.546548 
L 582.413229 376.721548 
Q 582.291354 376.946548 582.044479 377.051236 
Q 581.797604 377.155923 581.461666 377.155923 
Q 580.953854 377.155923 580.567916 376.898111 
Q 580.181979 376.638735 579.969479 376.168423 
Q 579.756979 375.696548 579.756979 375.076235 
L 579.756979 375.071548 
Q 579.756979 374.382486 579.988229 373.894986 
Q 580.221041 373.405923 580.667916 373.152798 
Q 581.114791 372.898111 581.739791 372.898111 
Q 582.364791 372.898111 582.808541 373.157486 
Q 583.253854 373.41686 583.485104 373.910611 
Q 583.716354 374.402798 583.716354 375.096548 
L 583.716354 375.101236 
Q 583.716354 375.480923 583.617916 375.913736 
Q 583.521041 376.346548 583.341354 376.769986 
Q 583.311666 376.834048 583.281979 376.899673 
Q 583.253854 376.965298 583.219479 377.02936 
L 581.705416 380.071548 
L 580.630416 380.071548 
L 582.417916 376.546548 
z
M 581.739791 376.24811 
Q 582.208541 376.24811 582.464791 375.930923 
Q 582.721041 375.613736 582.721041 375.037173 
L 582.721041 375.032486 
Q 582.721041 374.471548 582.464791 374.163736 
Q 582.208541 373.855923 581.739791 373.855923 
Q 581.266354 373.855923 581.010104 374.163736 
Q 580.753854 374.471548 580.753854 375.037173 
L 580.753854 375.04186 
Q 580.753854 375.618423 581.010104 375.934048 
Q 581.266354 376.24811 581.739791 376.24811 
z
M 587.062252 380.144986 
Q 586.065377 380.144986 585.549752 379.613736 
Q 585.03569 379.080923 585.03569 378.127798 
L 585.03569 374.901235 
Q 585.03569 373.943423 585.552877 373.413736 
Q 586.070065 372.884048 587.062252 372.884048 
Q 588.057565 372.884048 588.57319 373.412173 
Q 589.088815 373.938736 589.088815 374.901235 
L 589.088815 378.127798 
Q 589.088815 379.085611 588.570065 379.615298 
Q 588.052877 380.144986 587.062252 380.144986 
z
M 587.062252 379.19811 
Q 587.588815 379.19811 587.840377 378.921548 
Q 588.09194 378.644986 588.09194 378.127798 
L 588.09194 374.901235 
Q 588.09194 374.382486 587.84194 374.107485 
Q 587.593502 373.830923 587.062252 373.830923 
Q 586.52944 373.830923 586.27944 374.107485 
Q 586.031002 374.382486 586.031002 374.901235 
L 586.031002 378.127798 
Q 586.031002 378.644986 586.282565 378.921548 
Q 586.534127 379.19811 587.062252 379.19811 
z
M 592.26733 380.071548 
L 591.270455 380.071548 
L 591.270455 374.055923 
L 590.259518 374.676236 
L 590.259518 373.644986 
L 591.270455 372.971548 
L 592.26733 372.971548 
L 592.26733 380.071548 
z
M 595.905025 380.144986 
Q 594.90815 380.144986 594.392525 379.613736 
Q 593.878463 379.080923 593.878463 378.127798 
L 593.878463 374.901235 
Q 593.878463 373.943423 594.39565 373.413736 
Q 594.912838 372.884048 595.905025 372.884048 
Q 596.900338 372.884048 597.415963 373.412173 
Q 597.931588 373.938736 597.931588 374.901235 
L 597.931588 378.127798 
Q 597.931588 379.085611 597.412838 379.615298 
Q 596.89565 380.144986 595.905025 380.144986 
z
M 595.905025 379.19811 
Q 596.431588 379.19811 596.68315 378.921548 
Q 596.934713 378.644986 596.934713 378.127798 
L 596.934713 374.901235 
Q 596.934713 374.382486 596.684713 374.107485 
Q 596.436275 373.830923 595.905025 373.830923 
Q 595.372213 373.830923 595.122213 374.107485 
Q 594.873775 374.382486 594.873775 374.901235 
L 594.873775 378.127798 
Q 594.873775 378.644986 595.125338 378.921548 
Q 595.3769 379.19811 595.905025 379.19811 
z
" style="fill: #ffffff"/>
   </g>
   <g id="text_2">
    <path d="M 321.185417 433.005763 
L 324.319793 429.021388 
L 325.544792 429.021388 
L 321.038543 434.499513 
L 321.185417 433.005763 
z
M 320.404167 429.021388 
L 321.39948 429.021388 
L 321.39948 436.121388 
L 320.404167 436.121388 
L 320.404167 429.021388 
z
M 322.366668 432.332326 
L 323.152605 431.604201 
L 325.84323 436.121388 
L 324.622917 436.121388 
L 322.366668 432.332326 
z
M 329.187371 432.596388 
L 329.182683 432.771388 
Q 329.060808 432.996388 328.813933 433.101076 
Q 328.567058 433.205763 328.231121 433.205763 
Q 327.723308 433.205763 327.337371 432.947951 
Q 326.951433 432.688576 326.738933 432.218263 
Q 326.526433 431.746388 326.526433 431.126076 
L 326.526433 431.121388 
Q 326.526433 430.432326 326.757683 429.944826 
Q 326.990496 429.455763 327.437371 429.202638 
Q 327.884246 428.947951 328.509246 428.947951 
Q 329.134246 428.947951 329.577996 429.207326 
Q 330.023308 429.466701 330.254558 429.960451 
Q 330.485808 430.452638 330.485808 431.146388 
L 330.485808 431.151076 
Q 330.485808 431.530763 330.387371 431.963576 
Q 330.290496 432.396388 330.110808 432.819826 
Q 330.081121 432.883888 330.051433 432.949513 
Q 330.023308 433.015138 329.988933 433.079201 
L 328.474871 436.121388 
L 327.399871 436.121388 
L 329.187371 432.596388 
z
M 328.509246 432.297951 
Q 328.977996 432.297951 329.234246 431.980763 
Q 329.490496 431.663576 329.490496 431.087013 
L 329.490496 431.082326 
Q 329.490496 430.521388 329.234246 430.213576 
Q 328.977996 429.905763 328.509246 429.905763 
Q 328.035808 429.905763 327.779558 430.213576 
Q 327.523308 430.521388 327.523308 431.087013 
L 327.523308 431.091701 
Q 327.523308 431.668263 327.779558 431.983888 
Q 328.035808 432.297951 328.509246 432.297951 
z
M 333.831707 436.194826 
Q 332.834832 436.194826 332.319207 435.663576 
Q 331.805144 435.130763 331.805144 434.177638 
L 331.805144 430.951076 
Q 331.805144 429.993263 332.322332 429.463576 
Q 332.839519 428.933888 333.831707 428.933888 
Q 334.827019 428.933888 335.342644 429.462013 
Q 335.858269 429.988576 335.858269 430.951076 
L 335.858269 434.177638 
Q 335.858269 435.135451 335.339519 435.665138 
Q 334.822332 436.194826 333.831707 436.194826 
z
M 333.831707 435.247951 
Q 334.358269 435.247951 334.609832 434.971388 
Q 334.861394 434.694826 334.861394 434.177638 
L 334.861394 430.951076 
Q 334.861394 430.432326 334.611394 430.157326 
Q 334.362957 429.880763 333.831707 429.880763 
Q 333.298894 429.880763 333.048894 430.157326 
Q 332.800457 430.432326 332.800457 430.951076 
L 332.800457 434.177638 
Q 332.800457 434.694826 333.052019 434.971388 
Q 333.303582 435.247951 333.831707 435.247951 
z
M 339.036785 436.121388 
L 338.03991 436.121388 
L 338.03991 430.105763 
L 337.028972 430.726076 
L 337.028972 429.694826 
L 338.03991 429.021388 
L 339.036785 429.021388 
L 339.036785 436.121388 
z
M 342.67448 436.194826 
Q 341.677605 436.194826 341.16198 435.663576 
Q 340.647918 435.130763 340.647918 434.177638 
L 340.647918 430.951076 
Q 340.647918 429.993263 341.165105 429.463576 
Q 341.682292 428.933888 342.67448 428.933888 
Q 343.669792 428.933888 344.185417 429.462013 
Q 344.701042 429.988576 344.701042 430.951076 
L 344.701042 434.177638 
Q 344.701042 435.135451 344.182292 435.665138 
Q 343.665105 436.194826 342.67448 436.194826 
z
M 342.67448 435.247951 
Q 343.201042 435.247951 343.452605 434.971388 
Q 343.704167 434.694826 343.704167 434.177638 
L 343.704167 430.951076 
Q 343.704167 430.432326 343.454167 430.157326 
Q 343.20573 429.880763 342.67448 429.880763 
Q 342.141667 429.880763 341.891667 430.157326 
Q 341.64323 430.432326 341.64323 430.951076 
L 341.64323 434.177638 
Q 341.64323 434.694826 341.894792 434.971388 
Q 342.146355 435.247951 342.67448 435.247951 
z
" style="fill: #ffffff; stroke: #000000"/>
    <path d="M 321.185417 433.005763 
L 324.319793 429.021388 
L 325.544792 429.021388 
L 321.038543 434.499513 
L 321.185417 433.005763 
z
M 320.404167 429.021388 
L 321.39948 429.021388 
L 321.39948 436.121388 
L 320.404167 436.121388 
L 320.404167 429.021388 
z
M 322.366668 432.332326 
L 323.152605 431.604201 
L 325.84323 436.121388 
L 324.622917 436.121388 
L 322.366668 432.332326 
z
M 329.187371 432.596388 
L 329.182683 432.771388 
Q 329.060808 432.996388 328.813933 433.101076 
Q 328.567058 433.205763 328.231121 433.205763 
Q 327.723308 433.205763 327.337371 432.947951 
Q 326.951433 432.688576 326.738933 432.218263 
Q 326.526433 431.746388 326.526433 431.126076 
L 326.526433 431.121388 
Q 326.526433 430.432326 326.757683 429.944826 
Q 326.990496 429.455763 327.437371 429.202638 
Q 327.884246 428.947951 328.509246 428.947951 
Q 329.134246 428.947951 329.577996 429.207326 
Q 330.023308 429.466701 330.254558 429.960451 
Q 330.485808 430.452638 330.485808 431.146388 
L 330.485808 431.151076 
Q 330.485808 431.530763 330.387371 431.963576 
Q 330.290496 432.396388 330.110808 432.819826 
Q 330.081121 432.883888 330.051433 432.949513 
Q 330.023308 433.015138 329.988933 433.079201 
L 328.474871 436.121388 
L 327.399871 436.121388 
L 329.187371 432.596388 
z
M 328.509246 432.297951 
Q 328.977996 432.297951 329.234246 431.980763 
Q 329.490496 431.663576 329.490496 431.087013 
L 329.490496 431.082326 
Q 329.490496 430.521388 329.234246 430.213576 
Q 328.977996 429.905763 328.509246 429.905763 
Q 328.035808 429.905763 327.779558 430.213576 
Q 327.523308 430.521388 327.523308 431.087013 
L 327.523308 431.091701 
Q 327.523308 431.668263 327.779558 431.983888 
Q 328.035808 432.297951 328.509246 432.297951 
z
M 333.831707 436.194826 
Q 332.834832 436.194826 332.319207 435.663576 
Q 331.805144 435.130763 331.805144 434.177638 
L 331.805144 430.951076 
Q 331.805144 429.993263 332.322332 429.463576 
Q 332.839519 428.933888 333.831707 428.933888 
Q 334.827019 428.933888 335.342644 429.462013 
Q 335.858269 429.988576 335.858269 430.951076 
L 335.858269 434.177638 
Q 335.858269 435.135451 335.339519 435.665138 
Q 334.822332 436.194826 333.831707 436.194826 
z
M 333.831707 435.247951 
Q 334.358269 435.247951 334.609832 434.971388 
Q 334.861394 434.694826 334.861394 434.177638 
L 334.861394 430.951076 
Q 334.861394 430.432326 334.611394 430.157326 
Q 334.362957 429.880763 333.831707 429.880763 
Q 333.298894 429.880763 333.048894 430.157326 
Q 332.800457 430.432326 332.800457 430.951076 
L 332.800457 434.177638 
Q 332.800457 434.694826 333.052019 434.971388 
Q 333.303582 435.247951 333.831707 435.247951 
z
M 339.036785 436.121388 
L 338.03991 436.121388 
L 338.03991 430.105763 
L 337.028972 430.726076 
L 337.028972 429.694826 
L 338.03991 429.021388 
L 339.036785 429.021388 
L 339.036785 436.121388 
z
M 342.67448 436.194826 
Q 341.677605 436.194826 341.16198 435.663576 
Q 340.647918 435.130763 340.647918 434.177638 
L 340.647918 430.951076 
Q 340.647918 429.993263 341.165105 429.463576 
Q 341.682292 428.933888 342.67448 428.933888 
Q 343.669792 428.933888 344.185417 429.462013 
Q 344.701042 429.988576 344.701042 430.951076 
L 344.701042 434.177638 
Q 344.701042 435.135451 344.182292 435.665138 
Q 343.665105 436.194826 342.67448 436.194826 
z
M 342.67448 435.247951 
Q 343.201042 435.247951 343.452605 434.971388 
Q 343.704167 434.694826 343.704167 434.177638 
L 343.704167 430.951076 
Q 343.704167 430.432326 343.454167 430.157326 
Q 343.20573 429.880763 342.67448 429.880763 
Q 342.141667 429.880763 341.891667 430.157326 
Q 341.64323 430.432326 341.64323 430.951076 
L 341.64323 434.177638 
Q 341.64323 434.694826 341.894792 434.971388 
Q 342.146355 435.247951 342.67448 435.247951 
z
" style="fill: #ffffff"/>
   </g>
  </g>
 </g>
 <defs>
  <clipPath id="p06d6f09274">
   <rect x="144" y="77.76" width="892.8" height="498.96"/>
  </clipPath>
 </defs>
</svg>
