<?xml version="1.0" encoding="utf-8" standalone="no"?>
<!DOCTYPE svg PUBLIC "-//W3C//DTD SVG 1.1//EN"
  "http://www.w3.org/Graphics/SVG/1.1/DTD/svg11.dtd">
<svg xmlns:xlink="http://www.w3.org/1999/xlink" width="1152pt" height="648pt" viewBox="0 0 1152 648" xmlns="http://www.w3.org/2000/svg" version="1.1">
 <metadata>
  <rdf:RDF xmlns:dc="http://purl.org/dc/elements/1.1/" xmlns:cc="http://creativecommons.org/ns#" xmlns:rdf="http://www.w3.org/1999/02/22-rdf-syntax-ns#">
   <cc:Work>
    <dc:type rdf:resource="http://purl.org/dc/dcmitype/StillImage"/>
    <dc:date>2024-10-09T18:10:10.405555</dc:date>
    <dc:format>image/svg+xml</dc:format>
    <dc:creator>
     <cc:Agent>
      <dc:title>Matplotlib v3.8.1, https://matplotlib.org/</dc:title>
     </cc:Agent>
    </dc:creator>
   </cc:Work>
  </rdf:RDF>
 </metadata>
 <defs>
  <style type="text/css">*{stroke-linejoin: round; stroke-linecap: butt}</style>
 </defs>
 <g id="figure_1">
  <g id="patch_1">
   <path d="M 0 648 
L 1152 648 
L 1152 0 
L 0 0 
L 0 648 
z
" style="fill: none"/>
  </g>
  <g id="axes_1">
   <g id="line2d_1">
    <path d="M 240.584727 433.151926 
L 243.404959 431.036323 
L 246.22519 428.944881 
L 249.045421 426.877326 
L 251.865653 424.833386 
L 254.685884 422.812792 
L 257.506116 420.815277 
L 260.326347 418.840578 
L 263.146579 416.888436 
L 265.96681 414.958593 
L 268.787041 413.050794 
L 271.607273 411.164789 
L 274.427504 409.30033 
L 277.247736 407.457169 
L 280.067967 405.635065 
L 282.888198 403.833778 
L 285.70843 402.05307 
L 288.528661 400.292706 
L 291.348893 398.552454 
L 294.169124 396.832086 
L 296.989355 395.131374 
L 299.809587 393.450093 
L 302.629818 391.788023 
L 305.45005 390.144945 
L 308.270281 388.520641 
L 311.090512 386.914897 
L 313.910744 385.327502 
L 316.730975 383.758247 
L 319.551207 382.206924 
L 322.371438 380.673329 
L 325.191669 379.157259 
L 328.011901 377.658515 
L 330.832132 376.176899 
L 333.652364 374.712215 
L 336.472595 373.264271 
L 339.292826 371.832874 
L 342.113058 370.417837 
L 344.933289 369.018973 
L 347.753521 367.636097 
L 350.573752 366.269026 
L 353.393983 364.917581 
L 356.214215 363.581583 
L 359.034446 362.260855 
L 361.854678 360.955223 
L 364.674909 359.664515 
L 367.49514 358.388561 
L 370.315372 357.127192 
L 373.135603 355.880241 
L 375.955835 354.647545 
L 378.776066 353.42894 
L 381.596298 352.224265 
L 384.416529 351.033362 
L 387.23676 349.856072 
L 390.056992 348.692242 
L 392.877223 347.541716 
L 395.697455 346.404343 
L 398.517686 345.279974 
L 401.337917 344.168458 
L 404.158149 343.069651 
L 406.97838 341.983405 
L 409.798612 340.909579 
L 412.618843 339.84803 
L 415.439074 338.798618 
L 418.259306 337.761204 
L 421.079537 336.735652 
L 423.899769 335.721825 
L 426.72 334.71959 
L 429.540231 333.728815 
L 432.360463 332.749368 
L 435.180694 331.781121 
L 438.000926 330.823945 
L 440.821157 329.877714 
L 443.641388 328.942302 
L 446.46162 328.017587 
L 449.281851 327.103445 
L 452.102083 326.199757 
L 454.922314 325.306402 
L 457.742545 324.423264 
L 460.562777 323.550224 
L 463.383008 322.687168 
L 466.20324 321.833981 
L 469.023471 320.990551 
L 471.843702 320.156767 
L 474.663934 319.332517 
L 477.484165 318.517694 
L 480.304397 317.712189 
L 483.124628 316.915896 
L 485.94486 316.128709 
L 488.765091 315.350526 
L 491.585322 314.581242 
L 494.405554 313.820756 
L 497.225785 313.068967 
L 500.046017 312.325777 
L 502.866248 311.591086 
L 505.686479 310.864799 
L 508.506711 310.146817 
L 511.326942 309.437048 
L 514.147174 308.735397 
L 516.967405 308.04177 
L 519.787636 307.356077 
" clip-path="url(#pe21edfbc20)" style="fill: none; stroke: #f2b679; stroke-width: 3; stroke-linecap: round"/>
   </g>
   <g id="text_1">
    <path d="M 527.233241 308.05577 
L 528.839491 308.05577 
Q 529.625429 308.05577 530.056679 307.647958 
Q 530.489491 307.240145 530.489491 306.497958 
L 530.489491 304.407333 
Q 530.489491 303.665145 530.056679 303.257333 
Q 529.625429 302.84952 528.839491 302.84952 
L 527.233241 302.84952 
L 527.233241 301.902645 
L 528.809804 301.902645 
Q 529.664491 301.902645 530.269179 302.201083 
Q 530.875429 302.497958 531.192616 303.069833 
Q 531.509804 303.641708 531.509804 304.446395 
L 531.509804 306.458895 
Q 531.509804 307.263583 531.192616 307.835458 
Q 530.875429 308.407333 530.267616 308.70577 
Q 529.659804 309.002645 528.805116 309.002645 
L 527.233241 309.002645 
L 527.233241 308.05577 
z
M 526.559804 301.902645 
L 527.555116 301.902645 
L 527.555116 309.002645 
L 526.559804 309.002645 
L 526.559804 301.902645 
z
M 535.489491 305.477645 
L 535.484804 305.652645 
Q 535.362929 305.877645 535.116054 305.982333 
Q 534.869179 306.08702 534.533241 306.08702 
Q 534.025429 306.08702 533.639491 305.829208 
Q 533.253554 305.569833 533.041054 305.09952 
Q 532.828554 304.627645 532.828554 304.007333 
L 532.828554 304.002645 
Q 532.828554 303.313583 533.059804 302.826083 
Q 533.292616 302.33702 533.739491 302.083895 
Q 534.186366 301.829208 534.811366 301.829208 
Q 535.436366 301.829208 535.880116 302.088583 
Q 536.325429 302.347958 536.556679 302.841708 
Q 536.787929 303.333895 536.787929 304.027645 
L 536.787929 304.032333 
Q 536.787929 304.41202 536.689491 304.844833 
Q 536.592616 305.277645 536.412929 305.701083 
Q 536.383241 305.765145 536.353554 305.83077 
Q 536.325429 305.896395 536.291054 305.960458 
L 534.776991 309.002645 
L 533.701991 309.002645 
L 535.489491 305.477645 
z
M 534.811366 305.179208 
Q 535.280116 305.179208 535.536366 304.86202 
Q 535.792616 304.544833 535.792616 303.96827 
L 535.792616 303.963583 
Q 535.792616 303.402645 535.536366 303.094833 
Q 535.280116 302.78702 534.811366 302.78702 
Q 534.337929 302.78702 534.081679 303.094833 
Q 533.825429 303.402645 533.825429 303.96827 
L 533.825429 303.972958 
Q 533.825429 304.54952 534.081679 304.865145 
Q 534.337929 305.179208 534.811366 305.179208 
z
M 537.999452 308.138583 
L 540.474452 304.83702 
Q 540.690077 304.554208 540.808827 304.24952 
Q 540.92914 303.94327 540.92914 303.68077 
L 540.92914 303.669833 
Q 540.92914 303.246395 540.67914 303.01202 
Q 540.430702 302.777645 539.97289 302.777645 
Q 539.536952 302.777645 539.268202 303.033895 
Q 539.001015 303.290145 538.94164 303.758895 
L 538.94164 303.763583 
L 537.911952 303.763583 
L 537.911952 303.758895 
Q 537.999452 303.147958 538.269765 302.716708 
Q 538.54164 302.283895 538.971327 302.057333 
Q 539.401015 301.829208 539.961952 301.829208 
Q 540.59789 301.829208 541.046327 302.046395 
Q 541.496327 302.263583 541.730702 302.679208 
Q 541.965077 303.094833 541.965077 303.68077 
L 541.965077 303.685458 
Q 541.965077 304.060458 541.808827 304.471395 
Q 541.652577 304.88077 541.37289 305.26202 
L 539.318202 308.05577 
L 542.00414 308.05577 
L 542.00414 309.002645 
L 537.999452 309.002645 
L 537.999452 308.138583 
z
M 545.299843 309.076083 
Q 544.302968 309.076083 543.787343 308.544833 
Q 543.27328 308.01202 543.27328 307.058895 
L 543.27328 303.832333 
Q 543.27328 302.87452 543.790468 302.344833 
Q 544.307655 301.815145 545.299843 301.815145 
Q 546.295155 301.815145 546.81078 302.34327 
Q 547.326405 302.869833 547.326405 303.832333 
L 547.326405 307.058895 
Q 547.326405 308.016708 546.807655 308.546395 
Q 546.290468 309.076083 545.299843 309.076083 
z
M 545.299843 308.129208 
Q 545.826405 308.129208 546.077968 307.852645 
Q 546.32953 307.576083 546.32953 307.058895 
L 546.32953 303.832333 
Q 546.32953 303.313583 546.07953 303.038583 
Q 545.831093 302.76202 545.299843 302.76202 
Q 544.76703 302.76202 544.51703 303.038583 
Q 544.268593 303.313583 544.268593 303.832333 
L 544.268593 307.058895 
Q 544.268593 307.576083 544.520155 307.852645 
Q 544.771718 308.129208 545.299843 308.129208 
z
M 550.817421 309.076083 
Q 549.820546 309.076083 549.304921 308.544833 
Q 548.790859 308.01202 548.790859 307.058895 
L 548.790859 303.832333 
Q 548.790859 302.87452 549.308046 302.344833 
Q 549.825234 301.815145 550.817421 301.815145 
Q 551.812734 301.815145 552.328359 302.34327 
Q 552.843984 302.869833 552.843984 303.832333 
L 552.843984 307.058895 
Q 552.843984 308.016708 552.325234 308.546395 
Q 551.808046 309.076083 550.817421 309.076083 
z
M 550.817421 308.129208 
Q 551.343984 308.129208 551.595546 307.852645 
Q 551.847109 307.576083 551.847109 307.058895 
L 551.847109 303.832333 
Q 551.847109 303.313583 551.597109 303.038583 
Q 551.348671 302.76202 550.817421 302.76202 
Q 550.284609 302.76202 550.034609 303.038583 
Q 549.786171 303.313583 549.786171 303.832333 
L 549.786171 307.058895 
Q 549.786171 307.576083 550.037734 307.852645 
Q 550.289296 308.129208 550.817421 308.129208 
z
M 558.224062 305.257333 
L 558.224062 306.204208 
L 554.259999 306.204208 
L 554.259999 305.257333 
L 558.224062 305.257333 
z
M 556.739687 307.713583 
L 555.744374 307.713583 
L 555.744374 303.747958 
L 556.739687 303.747958 
L 556.739687 307.713583 
z
" style="fill: #ffffff; stroke: #000000"/>
    <path d="M 527.233241 308.05577 
L 528.839491 308.05577 
Q 529.625429 308.05577 530.056679 307.647958 
Q 530.489491 307.240145 530.489491 306.497958 
L 530.489491 304.407333 
Q 530.489491 303.665145 530.056679 303.257333 
Q 529.625429 302.84952 528.839491 302.84952 
L 527.233241 302.84952 
L 527.233241 301.902645 
L 528.809804 301.902645 
Q 529.664491 301.902645 530.269179 302.201083 
Q 530.875429 302.497958 531.192616 303.069833 
Q 531.509804 303.641708 531.509804 304.446395 
L 531.509804 306.458895 
Q 531.509804 307.263583 531.192616 307.835458 
Q 530.875429 308.407333 530.267616 308.70577 
Q 529.659804 309.002645 528.805116 309.002645 
L 527.233241 309.002645 
L 527.233241 308.05577 
z
M 526.559804 301.902645 
L 527.555116 301.902645 
L 527.555116 309.002645 
L 526.559804 309.002645 
L 526.559804 301.902645 
z
M 535.489491 305.477645 
L 535.484804 305.652645 
Q 535.362929 305.877645 535.116054 305.982333 
Q 534.869179 306.08702 534.533241 306.08702 
Q 534.025429 306.08702 533.639491 305.829208 
Q 533.253554 305.569833 533.041054 305.09952 
Q 532.828554 304.627645 532.828554 304.007333 
L 532.828554 304.002645 
Q 532.828554 303.313583 533.059804 302.826083 
Q 533.292616 302.33702 533.739491 302.083895 
Q 534.186366 301.829208 534.811366 301.829208 
Q 535.436366 301.829208 535.880116 302.088583 
Q 536.325429 302.347958 536.556679 302.841708 
Q 536.787929 303.333895 536.787929 304.027645 
L 536.787929 304.032333 
Q 536.787929 304.41202 536.689491 304.844833 
Q 536.592616 305.277645 536.412929 305.701083 
Q 536.383241 305.765145 536.353554 305.83077 
Q 536.325429 305.896395 536.291054 305.960458 
L 534.776991 309.002645 
L 533.701991 309.002645 
L 535.489491 305.477645 
z
M 534.811366 305.179208 
Q 535.280116 305.179208 535.536366 304.86202 
Q 535.792616 304.544833 535.792616 303.96827 
L 535.792616 303.963583 
Q 535.792616 303.402645 535.536366 303.094833 
Q 535.280116 302.78702 534.811366 302.78702 
Q 534.337929 302.78702 534.081679 303.094833 
Q 533.825429 303.402645 533.825429 303.96827 
L 533.825429 303.972958 
Q 533.825429 304.54952 534.081679 304.865145 
Q 534.337929 305.179208 534.811366 305.179208 
z
M 537.999452 308.138583 
L 540.474452 304.83702 
Q 540.690077 304.554208 540.808827 304.24952 
Q 540.92914 303.94327 540.92914 303.68077 
L 540.92914 303.669833 
Q 540.92914 303.246395 540.67914 303.01202 
Q 540.430702 302.777645 539.97289 302.777645 
Q 539.536952 302.777645 539.268202 303.033895 
Q 539.001015 303.290145 538.94164 303.758895 
L 538.94164 303.763583 
L 537.911952 303.763583 
L 537.911952 303.758895 
Q 537.999452 303.147958 538.269765 302.716708 
Q 538.54164 302.283895 538.971327 302.057333 
Q 539.401015 301.829208 539.961952 301.829208 
Q 540.59789 301.829208 541.046327 302.046395 
Q 541.496327 302.263583 541.730702 302.679208 
Q 541.965077 303.094833 541.965077 303.68077 
L 541.965077 303.685458 
Q 541.965077 304.060458 541.808827 304.471395 
Q 541.652577 304.88077 541.37289 305.26202 
L 539.318202 308.05577 
L 542.00414 308.05577 
L 542.00414 309.002645 
L 537.999452 309.002645 
L 537.999452 308.138583 
z
M 545.299843 309.076083 
Q 544.302968 309.076083 543.787343 308.544833 
Q 543.27328 308.01202 543.27328 307.058895 
L 543.27328 303.832333 
Q 543.27328 302.87452 543.790468 302.344833 
Q 544.307655 301.815145 545.299843 301.815145 
Q 546.295155 301.815145 546.81078 302.34327 
Q 547.326405 302.869833 547.326405 303.832333 
L 547.326405 307.058895 
Q 547.326405 308.016708 546.807655 308.546395 
Q 546.290468 309.076083 545.299843 309.076083 
z
M 545.299843 308.129208 
Q 545.826405 308.129208 546.077968 307.852645 
Q 546.32953 307.576083 546.32953 307.058895 
L 546.32953 303.832333 
Q 546.32953 303.313583 546.07953 303.038583 
Q 545.831093 302.76202 545.299843 302.76202 
Q 544.76703 302.76202 544.51703 303.038583 
Q 544.268593 303.313583 544.268593 303.832333 
L 544.268593 307.058895 
Q 544.268593 307.576083 544.520155 307.852645 
Q 544.771718 308.129208 545.299843 308.129208 
z
M 550.817421 309.076083 
Q 549.820546 309.076083 549.304921 308.544833 
Q 548.790859 308.01202 548.790859 307.058895 
L 548.790859 303.832333 
Q 548.790859 302.87452 549.308046 302.344833 
Q 549.825234 301.815145 550.817421 301.815145 
Q 551.812734 301.815145 552.328359 302.34327 
Q 552.843984 302.869833 552.843984 303.832333 
L 552.843984 307.058895 
Q 552.843984 308.016708 552.325234 308.546395 
Q 551.808046 309.076083 550.817421 309.076083 
z
M 550.817421 308.129208 
Q 551.343984 308.129208 551.595546 307.852645 
Q 551.847109 307.576083 551.847109 307.058895 
L 551.847109 303.832333 
Q 551.847109 303.313583 551.597109 303.038583 
Q 551.348671 302.76202 550.817421 302.76202 
Q 550.284609 302.76202 550.034609 303.038583 
Q 549.786171 303.313583 549.786171 303.832333 
L 549.786171 307.058895 
Q 549.786171 307.576083 550.037734 307.852645 
Q 550.289296 308.129208 550.817421 308.129208 
z
M 558.224062 305.257333 
L 558.224062 306.204208 
L 554.259999 306.204208 
L 554.259999 305.257333 
L 558.224062 305.257333 
z
M 556.739687 307.713583 
L 555.744374 307.713583 
L 555.744374 303.747958 
L 556.739687 303.747958 
L 556.739687 307.713583 
z
" style="fill: #ffffff"/>
   </g>
  </g>
 </g>
 <defs>
  <clipPath id="pe21edfbc20">
   <rect x="144" y="77.76" width="892.8" height="498.96"/>
  </clipPath>
 </defs>
</svg>
