<?xml version="1.0" encoding="utf-8" standalone="no"?>
<!DOCTYPE svg PUBLIC "-//W3C//DTD SVG 1.1//EN"
  "http://www.w3.org/Graphics/SVG/1.1/DTD/svg11.dtd">
<svg xmlns:xlink="http://www.w3.org/1999/xlink" width="1152pt" height="648pt" viewBox="0 0 1152 648" xmlns="http://www.w3.org/2000/svg" version="1.1">
 <metadata>
  <rdf:RDF xmlns:dc="http://purl.org/dc/elements/1.1/" xmlns:cc="http://creativecommons.org/ns#" xmlns:rdf="http://www.w3.org/1999/02/22-rdf-syntax-ns#">
   <cc:Work>
    <dc:type rdf:resource="http://purl.org/dc/dcmitype/StillImage"/>
    <dc:date>2024-11-15T16:34:25.307657</dc:date>
    <dc:format>image/svg+xml</dc:format>
    <dc:creator>
     <cc:Agent>
      <dc:title>Matplotlib v3.9.2, https://matplotlib.org/</dc:title>
     </cc:Agent>
    </dc:creator>
   </cc:Work>
  </rdf:RDF>
 </metadata>
 <defs>
  <style type="text/css">*{stroke-linejoin: round; stroke-linecap: butt}</style>
 </defs>
 <g id="figure_1">
  <g id="patch_1">
   <path d="M 0 648 
L 1152 648 
L 1152 0 
L 0 0 
L 0 648 
z
" style="fill: none"/>
  </g>
  <g id="axes_1">
   <g id="line2d_1">
    <path d="M 209.742545 492.316692 
L 211.820826 490.456109 
L 213.899107 488.609165 
L 215.977388 486.776049 
L 218.055669 484.956944 
L 220.13395 483.152023 
L 222.212231 481.361451 
L 224.290512 479.585387 
L 226.368793 477.823981 
L 228.447074 476.077375 
L 230.525355 474.345702 
L 232.603636 472.629091 
L 234.681917 470.927658 
L 236.760198 469.241516 
L 238.838479 467.570768 
L 240.91676 465.91551 
L 242.995041 464.275831 
L 245.073322 462.651811 
L 247.151603 461.043524 
L 249.229884 459.451037 
L 251.308165 457.87441 
L 253.386446 456.313694 
L 255.464727 454.768936 
L 257.543008 453.240174 
L 259.621289 451.727441 
L 261.69957 450.230762 
L 263.777851 448.750156 
L 265.856132 447.285635 
L 267.934413 445.837208 
L 270.012694 444.404873 
L 272.090975 442.988626 
L 274.169256 441.588456 
L 276.247537 440.204346 
L 278.325818 438.836273 
L 280.404099 437.484211 
L 282.48238 436.148126 
L 284.560661 434.827979 
L 286.638942 433.52373 
L 288.717223 432.235328 
L 290.795504 430.962723 
L 292.873785 429.705857 
L 294.952066 428.464669 
L 297.030347 427.239094 
L 299.108628 426.029062 
L 301.186909 424.834499 
L 303.26519 423.655328 
L 305.343471 422.491469 
L 307.421752 421.342836 
L 309.500033 420.209343 
L 311.578314 419.090897 
L 313.656595 417.987404 
L 315.734876 416.898768 
L 317.813157 415.824888 
L 319.891438 414.765662 
L 321.969719 413.720983 
L 324.048 412.690746 
L 326.126281 411.674838 
L 328.204562 410.673149 
L 330.282843 409.685563 
L 332.361124 408.711965 
L 334.439405 407.752235 
L 336.517686 406.806255 
L 338.595967 405.873902 
L 340.674248 404.955054 
L 342.752529 404.049586 
L 344.83081 403.157373 
L 346.909091 402.278286 
L 348.987372 401.4122 
L 351.065653 400.558983 
L 353.143934 399.718507 
L 355.222215 398.89064 
L 357.300496 398.075252 
L 359.378777 397.27221 
L 361.457058 396.481381 
L 363.535339 395.702633 
L 365.61362 394.935832 
L 367.691901 394.180844 
L 369.770182 393.437534 
L 371.848463 392.70577 
L 373.926744 391.985417 
L 376.005025 391.27634 
L 378.083306 390.578406 
L 380.161587 389.89148 
L 382.239868 389.215428 
L 384.318149 388.550117 
L 386.39643 387.895413 
L 388.474711 387.251183 
L 390.552992 386.617294 
L 392.631273 385.993615 
L 394.709554 385.380014 
L 396.787835 384.776359 
L 398.866116 384.18252 
L 400.944397 383.598367 
L 403.022678 383.023771 
L 405.100959 382.458603 
L 407.17924 381.902735 
L 409.257521 381.35604 
L 411.335802 380.818392 
L 413.414083 380.289666 
L 415.492364 379.769737 
" clip-path="url(#pd70d042b10)" style="fill: none; stroke: #30b2f2; stroke-width: 3; stroke-linecap: round"/>
   </g>
   <g id="text_1">
    <path d="M 424.397344 381.489742 
Q 423.884844 381.489742 423.425469 381.392867 
Q 422.967656 381.29443 422.569219 381.099117 
Q 422.170781 380.903805 421.823906 380.610055 
L 421.823906 380.610055 
L 422.444219 379.849117 
L 422.444219 379.849117 
Q 422.850469 380.20068 423.337969 380.377242 
Q 423.827031 380.552242 424.397344 380.552242 
Q 425.169219 380.552242 425.594219 380.266305 
Q 426.019219 379.980367 426.019219 379.458492 
L 426.019219 379.453805 
Q 426.019219 379.08193 425.825469 378.864742 
Q 425.633281 378.647555 425.327031 378.542867 
Q 425.022344 378.43818 424.539531 378.349117 
Q 424.523906 378.34443 424.506719 378.34443 
Q 424.491094 378.34443 424.475469 378.339742 
L 424.402031 378.32568 
Q 423.689531 378.203805 423.242656 378.05068 
Q 422.795781 377.895992 422.478594 377.48818 
Q 422.161406 377.080367 422.161406 376.328805 
L 422.161406 376.324117 
Q 422.161406 375.664742 422.456719 375.199117 
Q 422.752031 374.73193 423.317656 374.48818 
Q 423.884844 374.242867 424.680156 374.242867 
Q 425.061406 374.242867 425.430156 374.327242 
Q 425.798906 374.410055 426.156719 374.574117 
Q 426.516094 374.736617 426.862969 374.985055 
L 426.862969 374.985055 
L 426.297344 375.777242 
L 426.297344 375.777242 
Q 425.891094 375.478805 425.487969 375.330367 
Q 425.086406 375.180367 424.680156 375.180367 
Q 423.953594 375.180367 423.550469 375.470992 
Q 423.147344 375.761617 423.147344 376.29443 
L 423.147344 376.299117 
Q 423.147344 376.664742 423.355156 376.87568 
Q 423.562969 377.085055 423.872344 377.185055 
Q 424.183281 377.285055 424.734844 377.392867 
Q 424.753594 377.397555 424.770781 377.40068 
Q 424.787969 377.402242 424.808281 377.40693 
Q 424.831719 377.411617 424.861406 377.417867 
Q 424.891094 377.422555 424.914531 377.427242 
Q 425.559844 377.558492 425.991094 377.739742 
Q 426.423906 377.91943 426.714531 378.322555 
Q 427.005156 378.72568 427.005156 379.424117 
L 427.005156 379.433492 
Q 427.005156 380.083492 426.697344 380.54443 
Q 426.389531 381.005367 425.805156 381.247555 
Q 425.222344 381.489742 424.397344 381.489742 
z
M 429.095195 380.46943 
L 430.701445 380.46943 
Q 431.487383 380.46943 431.918633 380.061617 
Q 432.351445 379.653805 432.351445 378.911617 
L 432.351445 376.820992 
Q 432.351445 376.078805 431.918633 375.670992 
Q 431.487383 375.26318 430.701445 375.26318 
L 429.095195 375.26318 
L 429.095195 374.316305 
L 430.671758 374.316305 
Q 431.526445 374.316305 432.131133 374.614742 
Q 432.737383 374.911617 433.05457 375.483492 
Q 433.371758 376.055367 433.371758 376.860055 
L 433.371758 378.872555 
Q 433.371758 379.677242 433.05457 380.249117 
Q 432.737383 380.820992 432.12957 381.11943 
Q 431.521758 381.416305 430.66707 381.416305 
L 429.095195 381.416305 
L 429.095195 380.46943 
z
M 428.421758 374.316305 
L 429.41707 374.316305 
L 429.41707 381.416305 
L 428.421758 381.416305 
L 428.421758 374.316305 
z
M 436.91707 381.489742 
Q 436.27332 381.489742 435.784258 381.245992 
Q 435.296758 381.00068 435.02957 380.553805 
Q 434.763945 380.10693 434.763945 379.516305 
L 434.763945 379.399117 
Q 434.763945 378.867867 435.02957 378.399117 
Q 435.296758 377.930367 435.740508 377.691305 
Q 435.363945 377.485055 435.137383 377.097555 
Q 434.91082 376.708492 434.91082 376.278805 
L 434.91082 376.108492 
Q 434.91082 375.552242 435.159258 375.130367 
Q 435.407695 374.70693 435.862383 374.47568 
Q 436.31707 374.242867 436.91707 374.242867 
Q 437.51707 374.242867 437.971758 374.47568 
Q 438.426445 374.70693 438.674883 375.130367 
Q 438.92332 375.552242 438.92332 376.108492 
L 438.92332 376.278805 
Q 438.92332 376.71943 438.69207 377.105367 
Q 438.46082 377.489742 438.07957 377.691305 
Q 438.528008 377.935055 438.79832 378.402242 
Q 439.070195 378.867867 439.070195 379.399117 
L 439.070195 379.516305 
Q 439.070195 380.10693 438.80457 380.553805 
Q 438.538945 381.00068 438.049883 381.245992 
Q 437.562383 381.489742 436.91707 381.489742 
z
M 436.91707 380.53193 
Q 437.263945 380.53193 437.526445 380.395992 
Q 437.790508 380.258492 437.934258 380.01318 
Q 438.07957 379.766305 438.07957 379.442867 
L 438.07957 379.37568 
Q 438.07957 379.047555 437.934258 378.802242 
Q 437.790508 378.555367 437.526445 378.41943 
Q 437.263945 378.28193 436.91707 378.28193 
Q 436.570195 378.28193 436.306133 378.41943 
Q 436.043633 378.555367 435.89832 378.803805 
Q 435.75457 379.052242 435.75457 379.380367 
L 435.75457 379.453805 
Q 435.75457 379.77568 435.89832 380.01943 
Q 436.043633 380.26318 436.306133 380.397555 
Q 436.570195 380.53193 436.91707 380.53193 
z
M 436.91707 377.324117 
Q 437.215508 377.324117 437.443633 377.195992 
Q 437.67332 377.066305 437.799883 376.827242 
Q 437.928008 376.586617 437.928008 376.274117 
L 437.928008 376.20693 
Q 437.928008 375.908492 437.799883 375.678805 
Q 437.67332 375.449117 437.443633 375.32568 
Q 437.215508 375.20068 436.91707 375.20068 
Q 436.618633 375.20068 436.388945 375.32568 
Q 436.16082 375.449117 436.032695 375.678805 
Q 435.906133 375.908492 435.906133 376.211617 
L 435.906133 376.285055 
Q 435.906133 376.591305 436.032695 376.828805 
Q 436.16082 377.066305 436.388945 377.195992 
Q 436.618633 377.324117 436.91707 377.324117 
z
M 444.378008 377.670992 
L 444.378008 378.617867 
L 440.413945 378.617867 
L 440.413945 377.670992 
L 444.378008 377.670992 
z
M 442.893633 380.127242 
L 441.89832 380.127242 
L 441.89832 376.161617 
L 442.893633 376.161617 
L 442.893633 380.127242 
z
M 452.45457 377.592867 
L 452.45457 378.833492 
Q 452.45457 379.624117 452.146758 380.227242 
Q 451.838945 380.830367 451.274883 381.160055 
Q 450.71082 381.489742 449.968633 381.489742 
Q 449.21707 381.489742 448.64832 381.180367 
Q 448.07957 380.86943 447.76707 380.303805 
Q 447.45457 379.736617 447.45457 378.989742 
L 447.45457 376.89443 
Q 447.45457 376.103805 447.762383 375.503805 
Q 448.070195 374.902242 448.632695 374.572555 
Q 449.196758 374.242867 449.938945 374.242867 
Q 450.549883 374.242867 451.063945 374.505367 
Q 451.57957 374.766305 451.926445 375.24443 
Q 452.27332 375.722555 452.395195 376.352242 
L 452.395195 376.352242 
L 451.31707 376.352242 
L 451.31707 376.352242 
Q 451.228008 375.995992 451.018633 375.739742 
Q 450.809258 375.483492 450.524883 375.349117 
Q 450.24207 375.214742 449.938945 375.214742 
Q 449.499883 375.214742 449.16707 375.42568 
Q 448.83582 375.635055 448.65457 376.01318 
Q 448.474883 376.391305 448.474883 376.89443 
L 448.474883 378.989742 
Q 448.474883 379.449117 448.659258 379.792867 
Q 448.845195 380.136617 449.184258 380.327242 
Q 449.524883 380.517867 449.968633 380.517867 
Q 450.407695 380.517867 450.738945 380.320992 
Q 451.071758 380.122555 451.253008 379.747555 
Q 451.434258 379.370992 451.434258 378.852242 
L 451.434258 378.54443 
L 449.993633 378.54443 
L 449.993633 377.592867 
L 452.45457 377.592867 
z
M 456.042851 381.489742 
Q 455.339726 381.489742 454.841289 381.22568 
Q 454.344414 380.961617 454.081914 380.452242 
Q 453.820976 379.941305 453.820976 379.21943 
L 453.820976 378.647555 
Q 453.820976 377.895992 454.072539 377.364742 
Q 454.324101 376.83193 454.802226 376.553805 
Q 455.281914 376.274117 455.955351 376.274117 
Q 456.589726 376.274117 457.038164 376.592867 
Q 457.488164 376.910055 457.724101 377.510055 
Q 457.961601 378.110055 457.961601 378.95068 
L 457.961601 379.28193 
L 454.544414 379.28193 
L 454.544414 378.48193 
L 457.014726 378.48193 
L 457.014726 378.48193 
Q 456.970976 377.861617 456.694414 377.517867 
Q 456.419414 377.172555 455.955351 377.172555 
Q 455.388164 377.172555 455.078789 377.54443 
Q 454.769414 377.914742 454.769414 378.59443 
L 454.769414 379.23818 
Q 454.769414 379.867867 455.100664 380.205367 
Q 455.433476 380.542867 456.042851 380.542867 
Q 456.345976 380.542867 456.642851 380.420992 
Q 456.941289 380.297555 457.175664 380.078805 
L 457.175664 380.078805 
L 457.830351 380.73193 
L 457.830351 380.73193 
Q 457.453789 381.09443 456.985039 381.292867 
Q 456.516289 381.489742 456.042851 381.489742 
z
M 459.32918 376.347555 
L 460.326055 376.347555 
L 460.326055 381.416305 
L 459.32918 381.416305 
L 459.32918 376.347555 
z
M 462.405742 378.34443 
Q 462.405742 377.808492 462.127617 377.516305 
Q 461.849492 377.222555 461.346367 377.222555 
Q 460.857305 377.222555 460.59168 377.48193 
Q 460.326055 377.739742 460.326055 378.208492 
L 460.22293 377.23193 
Q 460.457305 376.772555 460.83543 376.524117 
Q 461.213555 376.274117 461.67293 376.274117 
Q 462.49793 376.274117 462.949492 376.814742 
Q 463.401055 377.353805 463.401055 378.339742 
L 463.401055 381.416305 
L 462.405742 381.416305 
L 462.405742 378.34443 
z
M 466.580742 381.416305 
L 465.583867 381.416305 
L 465.583867 375.40068 
L 464.57293 376.020992 
L 464.57293 374.989742 
L 465.583867 374.316305 
L 466.580742 374.316305 
L 466.580742 381.416305 
z
" style="fill: #ffffff; stroke: #000000"/>
    <path d="M 424.397344 381.489742 
Q 423.884844 381.489742 423.425469 381.392867 
Q 422.967656 381.29443 422.569219 381.099117 
Q 422.170781 380.903805 421.823906 380.610055 
L 421.823906 380.610055 
L 422.444219 379.849117 
L 422.444219 379.849117 
Q 422.850469 380.20068 423.337969 380.377242 
Q 423.827031 380.552242 424.397344 380.552242 
Q 425.169219 380.552242 425.594219 380.266305 
Q 426.019219 379.980367 426.019219 379.458492 
L 426.019219 379.453805 
Q 426.019219 379.08193 425.825469 378.864742 
Q 425.633281 378.647555 425.327031 378.542867 
Q 425.022344 378.43818 424.539531 378.349117 
Q 424.523906 378.34443 424.506719 378.34443 
Q 424.491094 378.34443 424.475469 378.339742 
L 424.402031 378.32568 
Q 423.689531 378.203805 423.242656 378.05068 
Q 422.795781 377.895992 422.478594 377.48818 
Q 422.161406 377.080367 422.161406 376.328805 
L 422.161406 376.324117 
Q 422.161406 375.664742 422.456719 375.199117 
Q 422.752031 374.73193 423.317656 374.48818 
Q 423.884844 374.242867 424.680156 374.242867 
Q 425.061406 374.242867 425.430156 374.327242 
Q 425.798906 374.410055 426.156719 374.574117 
Q 426.516094 374.736617 426.862969 374.985055 
L 426.862969 374.985055 
L 426.297344 375.777242 
L 426.297344 375.777242 
Q 425.891094 375.478805 425.487969 375.330367 
Q 425.086406 375.180367 424.680156 375.180367 
Q 423.953594 375.180367 423.550469 375.470992 
Q 423.147344 375.761617 423.147344 376.29443 
L 423.147344 376.299117 
Q 423.147344 376.664742 423.355156 376.87568 
Q 423.562969 377.085055 423.872344 377.185055 
Q 424.183281 377.285055 424.734844 377.392867 
Q 424.753594 377.397555 424.770781 377.40068 
Q 424.787969 377.402242 424.808281 377.40693 
Q 424.831719 377.411617 424.861406 377.417867 
Q 424.891094 377.422555 424.914531 377.427242 
Q 425.559844 377.558492 425.991094 377.739742 
Q 426.423906 377.91943 426.714531 378.322555 
Q 427.005156 378.72568 427.005156 379.424117 
L 427.005156 379.433492 
Q 427.005156 380.083492 426.697344 380.54443 
Q 426.389531 381.005367 425.805156 381.247555 
Q 425.222344 381.489742 424.397344 381.489742 
z
M 429.095195 380.46943 
L 430.701445 380.46943 
Q 431.487383 380.46943 431.918633 380.061617 
Q 432.351445 379.653805 432.351445 378.911617 
L 432.351445 376.820992 
Q 432.351445 376.078805 431.918633 375.670992 
Q 431.487383 375.26318 430.701445 375.26318 
L 429.095195 375.26318 
L 429.095195 374.316305 
L 430.671758 374.316305 
Q 431.526445 374.316305 432.131133 374.614742 
Q 432.737383 374.911617 433.05457 375.483492 
Q 433.371758 376.055367 433.371758 376.860055 
L 433.371758 378.872555 
Q 433.371758 379.677242 433.05457 380.249117 
Q 432.737383 380.820992 432.12957 381.11943 
Q 431.521758 381.416305 430.66707 381.416305 
L 429.095195 381.416305 
L 429.095195 380.46943 
z
M 428.421758 374.316305 
L 429.41707 374.316305 
L 429.41707 381.416305 
L 428.421758 381.416305 
L 428.421758 374.316305 
z
M 436.91707 381.489742 
Q 436.27332 381.489742 435.784258 381.245992 
Q 435.296758 381.00068 435.02957 380.553805 
Q 434.763945 380.10693 434.763945 379.516305 
L 434.763945 379.399117 
Q 434.763945 378.867867 435.02957 378.399117 
Q 435.296758 377.930367 435.740508 377.691305 
Q 435.363945 377.485055 435.137383 377.097555 
Q 434.91082 376.708492 434.91082 376.278805 
L 434.91082 376.108492 
Q 434.91082 375.552242 435.159258 375.130367 
Q 435.407695 374.70693 435.862383 374.47568 
Q 436.31707 374.242867 436.91707 374.242867 
Q 437.51707 374.242867 437.971758 374.47568 
Q 438.426445 374.70693 438.674883 375.130367 
Q 438.92332 375.552242 438.92332 376.108492 
L 438.92332 376.278805 
Q 438.92332 376.71943 438.69207 377.105367 
Q 438.46082 377.489742 438.07957 377.691305 
Q 438.528008 377.935055 438.79832 378.402242 
Q 439.070195 378.867867 439.070195 379.399117 
L 439.070195 379.516305 
Q 439.070195 380.10693 438.80457 380.553805 
Q 438.538945 381.00068 438.049883 381.245992 
Q 437.562383 381.489742 436.91707 381.489742 
z
M 436.91707 380.53193 
Q 437.263945 380.53193 437.526445 380.395992 
Q 437.790508 380.258492 437.934258 380.01318 
Q 438.07957 379.766305 438.07957 379.442867 
L 438.07957 379.37568 
Q 438.07957 379.047555 437.934258 378.802242 
Q 437.790508 378.555367 437.526445 378.41943 
Q 437.263945 378.28193 436.91707 378.28193 
Q 436.570195 378.28193 436.306133 378.41943 
Q 436.043633 378.555367 435.89832 378.803805 
Q 435.75457 379.052242 435.75457 379.380367 
L 435.75457 379.453805 
Q 435.75457 379.77568 435.89832 380.01943 
Q 436.043633 380.26318 436.306133 380.397555 
Q 436.570195 380.53193 436.91707 380.53193 
z
M 436.91707 377.324117 
Q 437.215508 377.324117 437.443633 377.195992 
Q 437.67332 377.066305 437.799883 376.827242 
Q 437.928008 376.586617 437.928008 376.274117 
L 437.928008 376.20693 
Q 437.928008 375.908492 437.799883 375.678805 
Q 437.67332 375.449117 437.443633 375.32568 
Q 437.215508 375.20068 436.91707 375.20068 
Q 436.618633 375.20068 436.388945 375.32568 
Q 436.16082 375.449117 436.032695 375.678805 
Q 435.906133 375.908492 435.906133 376.211617 
L 435.906133 376.285055 
Q 435.906133 376.591305 436.032695 376.828805 
Q 436.16082 377.066305 436.388945 377.195992 
Q 436.618633 377.324117 436.91707 377.324117 
z
M 444.378008 377.670992 
L 444.378008 378.617867 
L 440.413945 378.617867 
L 440.413945 377.670992 
L 444.378008 377.670992 
z
M 442.893633 380.127242 
L 441.89832 380.127242 
L 441.89832 376.161617 
L 442.893633 376.161617 
L 442.893633 380.127242 
z
M 452.45457 377.592867 
L 452.45457 378.833492 
Q 452.45457 379.624117 452.146758 380.227242 
Q 451.838945 380.830367 451.274883 381.160055 
Q 450.71082 381.489742 449.968633 381.489742 
Q 449.21707 381.489742 448.64832 381.180367 
Q 448.07957 380.86943 447.76707 380.303805 
Q 447.45457 379.736617 447.45457 378.989742 
L 447.45457 376.89443 
Q 447.45457 376.103805 447.762383 375.503805 
Q 448.070195 374.902242 448.632695 374.572555 
Q 449.196758 374.242867 449.938945 374.242867 
Q 450.549883 374.242867 451.063945 374.505367 
Q 451.57957 374.766305 451.926445 375.24443 
Q 452.27332 375.722555 452.395195 376.352242 
L 452.395195 376.352242 
L 451.31707 376.352242 
L 451.31707 376.352242 
Q 451.228008 375.995992 451.018633 375.739742 
Q 450.809258 375.483492 450.524883 375.349117 
Q 450.24207 375.214742 449.938945 375.214742 
Q 449.499883 375.214742 449.16707 375.42568 
Q 448.83582 375.635055 448.65457 376.01318 
Q 448.474883 376.391305 448.474883 376.89443 
L 448.474883 378.989742 
Q 448.474883 379.449117 448.659258 379.792867 
Q 448.845195 380.136617 449.184258 380.327242 
Q 449.524883 380.517867 449.968633 380.517867 
Q 450.407695 380.517867 450.738945 380.320992 
Q 451.071758 380.122555 451.253008 379.747555 
Q 451.434258 379.370992 451.434258 378.852242 
L 451.434258 378.54443 
L 449.993633 378.54443 
L 449.993633 377.592867 
L 452.45457 377.592867 
z
M 456.042851 381.489742 
Q 455.339726 381.489742 454.841289 381.22568 
Q 454.344414 380.961617 454.081914 380.452242 
Q 453.820976 379.941305 453.820976 379.21943 
L 453.820976 378.647555 
Q 453.820976 377.895992 454.072539 377.364742 
Q 454.324101 376.83193 454.802226 376.553805 
Q 455.281914 376.274117 455.955351 376.274117 
Q 456.589726 376.274117 457.038164 376.592867 
Q 457.488164 376.910055 457.724101 377.510055 
Q 457.961601 378.110055 457.961601 378.95068 
L 457.961601 379.28193 
L 454.544414 379.28193 
L 454.544414 378.48193 
L 457.014726 378.48193 
L 457.014726 378.48193 
Q 456.970976 377.861617 456.694414 377.517867 
Q 456.419414 377.172555 455.955351 377.172555 
Q 455.388164 377.172555 455.078789 377.54443 
Q 454.769414 377.914742 454.769414 378.59443 
L 454.769414 379.23818 
Q 454.769414 379.867867 455.100664 380.205367 
Q 455.433476 380.542867 456.042851 380.542867 
Q 456.345976 380.542867 456.642851 380.420992 
Q 456.941289 380.297555 457.175664 380.078805 
L 457.175664 380.078805 
L 457.830351 380.73193 
L 457.830351 380.73193 
Q 457.453789 381.09443 456.985039 381.292867 
Q 456.516289 381.489742 456.042851 381.489742 
z
M 459.32918 376.347555 
L 460.326055 376.347555 
L 460.326055 381.416305 
L 459.32918 381.416305 
L 459.32918 376.347555 
z
M 462.405742 378.34443 
Q 462.405742 377.808492 462.127617 377.516305 
Q 461.849492 377.222555 461.346367 377.222555 
Q 460.857305 377.222555 460.59168 377.48193 
Q 460.326055 377.739742 460.326055 378.208492 
L 460.22293 377.23193 
Q 460.457305 376.772555 460.83543 376.524117 
Q 461.213555 376.274117 461.67293 376.274117 
Q 462.49793 376.274117 462.949492 376.814742 
Q 463.401055 377.353805 463.401055 378.339742 
L 463.401055 381.416305 
L 462.405742 381.416305 
L 462.405742 378.34443 
z
M 466.580742 381.416305 
L 465.583867 381.416305 
L 465.583867 375.40068 
L 464.57293 376.020992 
L 464.57293 374.989742 
L 465.583867 374.316305 
L 466.580742 374.316305 
L 466.580742 381.416305 
z
" style="fill: #ffffff"/>
   </g>
  </g>
 </g>
 <defs>
  <clipPath id="pd70d042b10">
   <rect x="144" y="77.76" width="892.8" height="498.96"/>
  </clipPath>
 </defs>
</svg>
