<?xml version="1.0" encoding="utf-8" standalone="no"?>
<!DOCTYPE svg PUBLIC "-//W3C//DTD SVG 1.1//EN"
  "http://www.w3.org/Graphics/SVG/1.1/DTD/svg11.dtd">
<svg xmlns:xlink="http://www.w3.org/1999/xlink" width="1152pt" height="648pt" viewBox="0 0 1152 648" xmlns="http://www.w3.org/2000/svg" version="1.1">
 <metadata>
  <rdf:RDF xmlns:dc="http://purl.org/dc/elements/1.1/" xmlns:cc="http://creativecommons.org/ns#" xmlns:rdf="http://www.w3.org/1999/02/22-rdf-syntax-ns#">
   <cc:Work>
    <dc:type rdf:resource="http://purl.org/dc/dcmitype/StillImage"/>
    <dc:date>2024-11-15T17:07:54.581627</dc:date>
    <dc:format>image/svg+xml</dc:format>
    <dc:creator>
     <cc:Agent>
      <dc:title>Matplotlib v3.8.1, https://matplotlib.org/</dc:title>
     </cc:Agent>
    </dc:creator>
   </cc:Work>
  </rdf:RDF>
 </metadata>
 <defs>
  <style type="text/css">*{stroke-linejoin: round; stroke-linecap: butt}</style>
 </defs>
 <g id="figure_1">
  <g id="patch_1">
   <path d="M 0 648 
L 1152 648 
L 1152 0 
L 0 0 
L 0 648 
z
" style="fill: none"/>
  </g>
  <g id="axes_1">
   <g id="line2d_1">
    <path d="M 184.987636 502.985739 
L 192.128397 491.192639 
L 199.269157 479.836418 
L 206.409917 468.900905 
L 213.550678 458.370525 
L 220.691438 448.230282 
L 227.832198 438.465732 
L 234.972959 429.062965 
L 242.113719 420.008586 
L 249.254479 411.289696 
L 256.39524 402.89387 
L 263.536 394.809147 
L 270.67676 387.024004 
L 277.817521 379.527348 
L 284.958281 372.308493 
L 292.099041 365.357151 
L 299.239802 358.663413 
L 306.380562 352.217737 
L 313.521322 346.010936 
L 320.662083 340.03416 
L 327.802843 334.278888 
L 334.943603 328.736914 
L 342.084364 323.400337 
L 349.225124 318.261547 
L 356.365884 313.313216 
L 363.506645 308.548288 
L 370.647405 303.959967 
L 377.788165 299.541711 
L 384.928926 295.287217 
L 392.069686 291.190417 
L 399.210446 287.245469 
L 406.351207 283.446745 
L 413.491967 279.788827 
L 420.632727 276.266497 
L 427.773488 272.874731 
L 434.914248 269.608689 
L 442.055008 266.463713 
L 449.195769 263.435317 
L 456.336529 260.519179 
L 463.477289 257.71114 
L 470.61805 255.007192 
L 477.75881 252.403479 
L 484.89957 249.896284 
L 492.040331 247.482032 
L 499.181091 245.157277 
L 506.321851 242.918702 
L 513.462612 240.763112 
L 520.603372 238.687432 
L 527.744132 236.688701 
L 534.884893 234.764065 
L 542.025653 232.910779 
L 549.166413 231.126197 
L 556.307174 229.407773 
L 563.447934 227.753055 
L 570.588694 226.159682 
L 577.729455 224.625379 
L 584.870215 223.147956 
L 592.010975 221.725306 
L 599.151736 220.355397 
L 606.292496 219.036276 
L 613.433256 217.766058 
L 620.574017 216.542932 
L 627.714777 215.365151 
L 634.855537 214.231035 
L 641.996298 213.138965 
L 649.137058 212.087382 
L 656.277818 211.074785 
L 663.418579 210.09973 
L 670.559339 209.160824 
L 677.700099 208.256727 
L 684.84086 207.386149 
L 691.98162 206.547847 
L 699.12238 205.740625 
L 706.26314 204.96333 
L 713.403901 204.214853 
L 720.544661 203.494126 
L 727.685421 202.80012 
L 734.826182 202.131844 
L 741.966942 201.488344 
L 749.107702 200.868702 
L 756.248463 200.272033 
L 763.389223 199.697486 
L 770.529983 199.144241 
L 777.670744 198.611507 
L 784.811504 198.098524 
L 791.952264 197.604561 
L 799.093025 197.128911 
L 806.233785 196.670896 
L 813.374545 196.229863 
L 820.515306 195.805181 
L 827.656066 195.396244 
L 834.796826 195.002469 
L 841.937587 194.623294 
L 849.078347 194.258177 
L 856.219107 193.906596 
L 863.359868 193.568051 
L 870.500628 193.242058 
L 877.641388 192.928151 
L 884.782149 192.625883 
L 891.922909 192.334821 
" clip-path="url(#p1b243674ef)" style="fill: none; stroke: #f25130; stroke-width: 3; stroke-linecap: round"/>
   </g>
   <g id="text_1">
    <path d="M 899.368514 193.034514 
L 900.974764 193.034514 
Q 901.760702 193.034514 902.191952 192.626702 
Q 902.624764 192.218889 902.624764 191.476702 
L 902.624764 189.386077 
Q 902.624764 188.643889 902.191952 188.236077 
Q 901.760702 187.828264 900.974764 187.828264 
L 899.368514 187.828264 
L 899.368514 186.881389 
L 900.945077 186.881389 
Q 901.799764 186.881389 902.404452 187.179827 
Q 903.010702 187.476702 903.327889 188.048577 
Q 903.645077 188.620452 903.645077 189.425139 
L 903.645077 191.437639 
Q 903.645077 192.242327 903.327889 192.814202 
Q 903.010702 193.386077 902.402889 193.684514 
Q 901.795077 193.981389 900.940389 193.981389 
L 899.368514 193.981389 
L 899.368514 193.034514 
z
M 898.695077 186.881389 
L 899.690389 186.881389 
L 899.690389 193.981389 
L 898.695077 193.981389 
L 898.695077 186.881389 
z
M 907.624764 190.456389 
L 907.620077 190.631389 
Q 907.498202 190.856389 907.251327 190.961077 
Q 907.004452 191.065764 906.668514 191.065764 
Q 906.160702 191.065764 905.774764 190.807952 
Q 905.388827 190.548577 905.176327 190.078264 
Q 904.963827 189.606389 904.963827 188.986077 
L 904.963827 188.981389 
Q 904.963827 188.292327 905.195077 187.804827 
Q 905.427889 187.315764 905.874764 187.062639 
Q 906.321639 186.807952 906.946639 186.807952 
Q 907.571639 186.807952 908.015389 187.067327 
Q 908.460702 187.326702 908.691952 187.820452 
Q 908.923202 188.312639 908.923202 189.006389 
L 908.923202 189.011077 
Q 908.923202 189.390764 908.824764 189.823577 
Q 908.727889 190.256389 908.548202 190.679827 
Q 908.518514 190.743889 908.488827 190.809514 
Q 908.460702 190.875139 908.426327 190.939202 
L 906.912264 193.981389 
L 905.837264 193.981389 
L 907.624764 190.456389 
z
M 906.946639 190.157952 
Q 907.415389 190.157952 907.671639 189.840764 
Q 907.927889 189.523577 907.927889 188.947014 
L 907.927889 188.942327 
Q 907.927889 188.381389 907.671639 188.073577 
Q 907.415389 187.765764 906.946639 187.765764 
Q 906.473202 187.765764 906.216952 188.073577 
Q 905.960702 188.381389 905.960702 188.947014 
L 905.960702 188.951702 
Q 905.960702 189.528264 906.216952 189.843889 
Q 906.473202 190.157952 906.946639 190.157952 
z
M 910.1441 192.028264 
L 912.526913 186.886077 
L 913.553475 186.886077 
L 911.228475 191.968889 
L 914.709725 191.968889 
L 914.709725 192.892327 
L 910.1441 192.892327 
L 910.1441 192.028264 
z
M 913.2066 189.806389 
L 914.178475 189.806389 
L 914.178475 193.986077 
L 913.2066 193.986077 
L 913.2066 189.806389 
z
M 917.957577 194.054827 
Q 916.960702 194.054827 916.445077 193.523577 
Q 915.931014 192.990764 915.931014 192.037639 
L 915.931014 188.811077 
Q 915.931014 187.853264 916.448202 187.323577 
Q 916.965389 186.793889 917.957577 186.793889 
Q 918.952889 186.793889 919.468514 187.322014 
Q 919.984139 187.848577 919.984139 188.811077 
L 919.984139 192.037639 
Q 919.984139 192.995452 919.465389 193.525139 
Q 918.948202 194.054827 917.957577 194.054827 
z
M 917.957577 193.107952 
Q 918.484139 193.107952 918.735702 192.831389 
Q 918.987264 192.554827 918.987264 192.037639 
L 918.987264 188.811077 
Q 918.987264 188.292327 918.737264 188.017327 
Q 918.488827 187.740764 917.957577 187.740764 
Q 917.424764 187.740764 917.174764 188.017327 
Q 916.926327 188.292327 916.926327 188.811077 
L 916.926327 192.037639 
Q 916.926327 192.554827 917.177889 192.831389 
Q 917.429452 193.107952 917.957577 193.107952 
z
M 923.475155 194.054827 
Q 922.47828 194.054827 921.962655 193.523577 
Q 921.448592 192.990764 921.448592 192.037639 
L 921.448592 188.811077 
Q 921.448592 187.853264 921.96578 187.323577 
Q 922.482967 186.793889 923.475155 186.793889 
Q 924.470467 186.793889 924.986092 187.322014 
Q 925.501717 187.848577 925.501717 188.811077 
L 925.501717 192.037639 
Q 925.501717 192.995452 924.982967 193.525139 
Q 924.46578 194.054827 923.475155 194.054827 
z
M 923.475155 193.107952 
Q 924.001717 193.107952 924.25328 192.831389 
Q 924.504842 192.554827 924.504842 192.037639 
L 924.504842 188.811077 
Q 924.504842 188.292327 924.254842 188.017327 
Q 924.006405 187.740764 923.475155 187.740764 
Q 922.942342 187.740764 922.692342 188.017327 
Q 922.443905 188.292327 922.443905 188.811077 
L 922.443905 192.037639 
Q 922.443905 192.554827 922.695467 192.831389 
Q 922.94703 193.107952 923.475155 193.107952 
z
M 930.554842 195.509514 
Q 929.686092 194.567327 929.25328 193.398577 
Q 928.82203 192.228264 928.82203 190.817327 
Q 928.82203 189.406389 929.25328 188.237639 
Q 929.686092 187.067327 930.554842 186.125139 
L 931.237655 186.745452 
Q 930.501717 187.565764 930.13453 188.581389 
Q 929.768905 189.597014 929.768905 190.817327 
Q 929.768905 192.037639 930.13453 193.053264 
Q 930.501717 194.068889 931.237655 194.893889 
L 930.554842 195.509514 
z
M 933.782772 193.981389 
L 932.785897 193.981389 
L 932.785897 187.965764 
L 931.774959 188.586077 
L 931.774959 187.554827 
L 932.785897 186.881389 
L 933.782772 186.881389 
L 933.782772 193.981389 
z
M 937.420467 194.054827 
Q 936.423592 194.054827 935.907967 193.523577 
Q 935.393905 192.990764 935.393905 192.037639 
L 935.393905 188.811077 
Q 935.393905 187.853264 935.911092 187.323577 
Q 936.42828 186.793889 937.420467 186.793889 
Q 938.41578 186.793889 938.931405 187.322014 
Q 939.44703 187.848577 939.44703 188.811077 
L 939.44703 192.037639 
Q 939.44703 192.995452 938.92828 193.525139 
Q 938.411092 194.054827 937.420467 194.054827 
z
M 937.420467 193.107952 
Q 937.94703 193.107952 938.198592 192.831389 
Q 938.450155 192.554827 938.450155 192.037639 
L 938.450155 188.811077 
Q 938.450155 188.292327 938.200155 188.017327 
Q 937.951717 187.740764 937.420467 187.740764 
Q 936.887655 187.740764 936.637655 188.017327 
Q 936.389217 188.292327 936.389217 188.811077 
L 936.389217 192.037639 
Q 936.389217 192.554827 936.64078 192.831389 
Q 936.892342 193.107952 937.420467 193.107952 
z
M 942.742733 194.054827 
Q 942.117733 194.054827 941.67242 193.803264 
Q 941.22867 193.551702 940.995858 193.070452 
Q 940.764608 192.589202 940.764608 191.911077 
L 940.764608 191.906389 
Q 940.764608 191.511077 940.856795 191.076702 
Q 940.950545 190.640764 941.125545 190.222014 
Q 941.155233 190.148577 941.189608 190.078264 
Q 941.223983 190.006389 941.258358 189.937639 
L 942.800545 186.881389 
L 943.875545 186.881389 
L 942.063045 190.422014 
L 942.067733 190.245452 
Q 942.19117 190.015764 942.425545 189.889202 
Q 942.65992 189.762639 942.97242 189.762639 
Q 943.523983 189.762639 943.919295 190.012639 
Q 944.314608 190.261077 944.519295 190.737639 
Q 944.723983 191.212639 944.723983 191.881389 
L 944.723983 191.886077 
Q 944.723983 192.570452 944.492733 193.059514 
Q 944.261483 193.547014 943.814608 193.801702 
Q 943.367733 194.054827 942.742733 194.054827 
z
M 942.742733 193.097014 
Q 943.21617 193.097014 943.47242 192.804827 
Q 943.72867 192.511077 943.72867 191.968889 
L 943.72867 191.964202 
Q 943.72867 191.368889 943.45992 191.043889 
Q 943.19117 190.718889 942.692733 190.718889 
Q 942.248983 190.718889 942.005233 191.047014 
Q 941.761483 191.373577 941.761483 191.968889 
L 941.761483 191.975139 
Q 941.761483 192.515764 942.017733 192.806389 
Q 942.273983 193.097014 942.742733 193.097014 
z
M 947.874569 194.054827 
Q 947.249569 194.054827 946.804256 193.803264 
Q 946.360506 193.551702 946.127694 193.070452 
Q 945.896444 192.589202 945.896444 191.911077 
L 945.896444 191.906389 
Q 945.896444 191.511077 945.988631 191.076702 
Q 946.082381 190.640764 946.257381 190.222014 
Q 946.287069 190.148577 946.321444 190.078264 
Q 946.355819 190.006389 946.390194 189.937639 
L 947.932381 186.881389 
L 949.007381 186.881389 
L 947.194881 190.422014 
L 947.199569 190.245452 
Q 947.323006 190.015764 947.557381 189.889202 
Q 947.791756 189.762639 948.104256 189.762639 
Q 948.655819 189.762639 949.051131 190.012639 
Q 949.446444 190.261077 949.651131 190.737639 
Q 949.855819 191.212639 949.855819 191.881389 
L 949.855819 191.886077 
Q 949.855819 192.570452 949.624569 193.059514 
Q 949.393319 193.547014 948.946444 193.801702 
Q 948.499569 194.054827 947.874569 194.054827 
z
M 947.874569 193.097014 
Q 948.348006 193.097014 948.604256 192.804827 
Q 948.860506 192.511077 948.860506 191.968889 
L 948.860506 191.964202 
Q 948.860506 191.368889 948.591756 191.043889 
Q 948.323006 190.718889 947.824569 190.718889 
Q 947.380819 190.718889 947.137069 191.047014 
Q 946.893319 191.373577 946.893319 191.968889 
L 946.893319 191.975139 
Q 946.893319 192.515764 947.149569 192.806389 
Q 947.405819 193.097014 947.874569 193.097014 
z
M 954.842342 187.770452 
L 953.006405 193.981389 
L 951.94703 193.981389 
L 953.782967 187.828264 
L 951.975155 187.828264 
L 951.975155 188.850139 
L 950.979842 188.850139 
L 950.979842 186.881389 
L 954.842342 186.881389 
L 954.842342 187.770452 
z
M 955.574959 194.893889 
Q 956.310897 194.068889 956.676522 193.053264 
Q 957.043709 192.037639 957.043709 190.817327 
Q 957.043709 189.597014 956.676522 188.581389 
Q 956.310897 187.565764 955.574959 186.745452 
L 956.257772 186.125139 
Q 957.126522 187.067327 957.557772 188.237639 
Q 957.990584 189.406389 957.990584 190.817327 
Q 957.990584 192.228264 957.557772 193.398577 
Q 957.126522 194.567327 956.257772 195.509514 
L 955.574959 194.893889 
z
" style="fill: #ffffff; stroke: #000000"/>
    <path d="M 899.368514 193.034514 
L 900.974764 193.034514 
Q 901.760702 193.034514 902.191952 192.626702 
Q 902.624764 192.218889 902.624764 191.476702 
L 902.624764 189.386077 
Q 902.624764 188.643889 902.191952 188.236077 
Q 901.760702 187.828264 900.974764 187.828264 
L 899.368514 187.828264 
L 899.368514 186.881389 
L 900.945077 186.881389 
Q 901.799764 186.881389 902.404452 187.179827 
Q 903.010702 187.476702 903.327889 188.048577 
Q 903.645077 188.620452 903.645077 189.425139 
L 903.645077 191.437639 
Q 903.645077 192.242327 903.327889 192.814202 
Q 903.010702 193.386077 902.402889 193.684514 
Q 901.795077 193.981389 900.940389 193.981389 
L 899.368514 193.981389 
L 899.368514 193.034514 
z
M 898.695077 186.881389 
L 899.690389 186.881389 
L 899.690389 193.981389 
L 898.695077 193.981389 
L 898.695077 186.881389 
z
M 907.624764 190.456389 
L 907.620077 190.631389 
Q 907.498202 190.856389 907.251327 190.961077 
Q 907.004452 191.065764 906.668514 191.065764 
Q 906.160702 191.065764 905.774764 190.807952 
Q 905.388827 190.548577 905.176327 190.078264 
Q 904.963827 189.606389 904.963827 188.986077 
L 904.963827 188.981389 
Q 904.963827 188.292327 905.195077 187.804827 
Q 905.427889 187.315764 905.874764 187.062639 
Q 906.321639 186.807952 906.946639 186.807952 
Q 907.571639 186.807952 908.015389 187.067327 
Q 908.460702 187.326702 908.691952 187.820452 
Q 908.923202 188.312639 908.923202 189.006389 
L 908.923202 189.011077 
Q 908.923202 189.390764 908.824764 189.823577 
Q 908.727889 190.256389 908.548202 190.679827 
Q 908.518514 190.743889 908.488827 190.809514 
Q 908.460702 190.875139 908.426327 190.939202 
L 906.912264 193.981389 
L 905.837264 193.981389 
L 907.624764 190.456389 
z
M 906.946639 190.157952 
Q 907.415389 190.157952 907.671639 189.840764 
Q 907.927889 189.523577 907.927889 188.947014 
L 907.927889 188.942327 
Q 907.927889 188.381389 907.671639 188.073577 
Q 907.415389 187.765764 906.946639 187.765764 
Q 906.473202 187.765764 906.216952 188.073577 
Q 905.960702 188.381389 905.960702 188.947014 
L 905.960702 188.951702 
Q 905.960702 189.528264 906.216952 189.843889 
Q 906.473202 190.157952 906.946639 190.157952 
z
M 910.1441 192.028264 
L 912.526913 186.886077 
L 913.553475 186.886077 
L 911.228475 191.968889 
L 914.709725 191.968889 
L 914.709725 192.892327 
L 910.1441 192.892327 
L 910.1441 192.028264 
z
M 913.2066 189.806389 
L 914.178475 189.806389 
L 914.178475 193.986077 
L 913.2066 193.986077 
L 913.2066 189.806389 
z
M 917.957577 194.054827 
Q 916.960702 194.054827 916.445077 193.523577 
Q 915.931014 192.990764 915.931014 192.037639 
L 915.931014 188.811077 
Q 915.931014 187.853264 916.448202 187.323577 
Q 916.965389 186.793889 917.957577 186.793889 
Q 918.952889 186.793889 919.468514 187.322014 
Q 919.984139 187.848577 919.984139 188.811077 
L 919.984139 192.037639 
Q 919.984139 192.995452 919.465389 193.525139 
Q 918.948202 194.054827 917.957577 194.054827 
z
M 917.957577 193.107952 
Q 918.484139 193.107952 918.735702 192.831389 
Q 918.987264 192.554827 918.987264 192.037639 
L 918.987264 188.811077 
Q 918.987264 188.292327 918.737264 188.017327 
Q 918.488827 187.740764 917.957577 187.740764 
Q 917.424764 187.740764 917.174764 188.017327 
Q 916.926327 188.292327 916.926327 188.811077 
L 916.926327 192.037639 
Q 916.926327 192.554827 917.177889 192.831389 
Q 917.429452 193.107952 917.957577 193.107952 
z
M 923.475155 194.054827 
Q 922.47828 194.054827 921.962655 193.523577 
Q 921.448592 192.990764 921.448592 192.037639 
L 921.448592 188.811077 
Q 921.448592 187.853264 921.96578 187.323577 
Q 922.482967 186.793889 923.475155 186.793889 
Q 924.470467 186.793889 924.986092 187.322014 
Q 925.501717 187.848577 925.501717 188.811077 
L 925.501717 192.037639 
Q 925.501717 192.995452 924.982967 193.525139 
Q 924.46578 194.054827 923.475155 194.054827 
z
M 923.475155 193.107952 
Q 924.001717 193.107952 924.25328 192.831389 
Q 924.504842 192.554827 924.504842 192.037639 
L 924.504842 188.811077 
Q 924.504842 188.292327 924.254842 188.017327 
Q 924.006405 187.740764 923.475155 187.740764 
Q 922.942342 187.740764 922.692342 188.017327 
Q 922.443905 188.292327 922.443905 188.811077 
L 922.443905 192.037639 
Q 922.443905 192.554827 922.695467 192.831389 
Q 922.94703 193.107952 923.475155 193.107952 
z
M 930.554842 195.509514 
Q 929.686092 194.567327 929.25328 193.398577 
Q 928.82203 192.228264 928.82203 190.817327 
Q 928.82203 189.406389 929.25328 188.237639 
Q 929.686092 187.067327 930.554842 186.125139 
L 931.237655 186.745452 
Q 930.501717 187.565764 930.13453 188.581389 
Q 929.768905 189.597014 929.768905 190.817327 
Q 929.768905 192.037639 930.13453 193.053264 
Q 930.501717 194.068889 931.237655 194.893889 
L 930.554842 195.509514 
z
M 933.782772 193.981389 
L 932.785897 193.981389 
L 932.785897 187.965764 
L 931.774959 188.586077 
L 931.774959 187.554827 
L 932.785897 186.881389 
L 933.782772 186.881389 
L 933.782772 193.981389 
z
M 937.420467 194.054827 
Q 936.423592 194.054827 935.907967 193.523577 
Q 935.393905 192.990764 935.393905 192.037639 
L 935.393905 188.811077 
Q 935.393905 187.853264 935.911092 187.323577 
Q 936.42828 186.793889 937.420467 186.793889 
Q 938.41578 186.793889 938.931405 187.322014 
Q 939.44703 187.848577 939.44703 188.811077 
L 939.44703 192.037639 
Q 939.44703 192.995452 938.92828 193.525139 
Q 938.411092 194.054827 937.420467 194.054827 
z
M 937.420467 193.107952 
Q 937.94703 193.107952 938.198592 192.831389 
Q 938.450155 192.554827 938.450155 192.037639 
L 938.450155 188.811077 
Q 938.450155 188.292327 938.200155 188.017327 
Q 937.951717 187.740764 937.420467 187.740764 
Q 936.887655 187.740764 936.637655 188.017327 
Q 936.389217 188.292327 936.389217 188.811077 
L 936.389217 192.037639 
Q 936.389217 192.554827 936.64078 192.831389 
Q 936.892342 193.107952 937.420467 193.107952 
z
M 942.742733 194.054827 
Q 942.117733 194.054827 941.67242 193.803264 
Q 941.22867 193.551702 940.995858 193.070452 
Q 940.764608 192.589202 940.764608 191.911077 
L 940.764608 191.906389 
Q 940.764608 191.511077 940.856795 191.076702 
Q 940.950545 190.640764 941.125545 190.222014 
Q 941.155233 190.148577 941.189608 190.078264 
Q 941.223983 190.006389 941.258358 189.937639 
L 942.800545 186.881389 
L 943.875545 186.881389 
L 942.063045 190.422014 
L 942.067733 190.245452 
Q 942.19117 190.015764 942.425545 189.889202 
Q 942.65992 189.762639 942.97242 189.762639 
Q 943.523983 189.762639 943.919295 190.012639 
Q 944.314608 190.261077 944.519295 190.737639 
Q 944.723983 191.212639 944.723983 191.881389 
L 944.723983 191.886077 
Q 944.723983 192.570452 944.492733 193.059514 
Q 944.261483 193.547014 943.814608 193.801702 
Q 943.367733 194.054827 942.742733 194.054827 
z
M 942.742733 193.097014 
Q 943.21617 193.097014 943.47242 192.804827 
Q 943.72867 192.511077 943.72867 191.968889 
L 943.72867 191.964202 
Q 943.72867 191.368889 943.45992 191.043889 
Q 943.19117 190.718889 942.692733 190.718889 
Q 942.248983 190.718889 942.005233 191.047014 
Q 941.761483 191.373577 941.761483 191.968889 
L 941.761483 191.975139 
Q 941.761483 192.515764 942.017733 192.806389 
Q 942.273983 193.097014 942.742733 193.097014 
z
M 947.874569 194.054827 
Q 947.249569 194.054827 946.804256 193.803264 
Q 946.360506 193.551702 946.127694 193.070452 
Q 945.896444 192.589202 945.896444 191.911077 
L 945.896444 191.906389 
Q 945.896444 191.511077 945.988631 191.076702 
Q 946.082381 190.640764 946.257381 190.222014 
Q 946.287069 190.148577 946.321444 190.078264 
Q 946.355819 190.006389 946.390194 189.937639 
L 947.932381 186.881389 
L 949.007381 186.881389 
L 947.194881 190.422014 
L 947.199569 190.245452 
Q 947.323006 190.015764 947.557381 189.889202 
Q 947.791756 189.762639 948.104256 189.762639 
Q 948.655819 189.762639 949.051131 190.012639 
Q 949.446444 190.261077 949.651131 190.737639 
Q 949.855819 191.212639 949.855819 191.881389 
L 949.855819 191.886077 
Q 949.855819 192.570452 949.624569 193.059514 
Q 949.393319 193.547014 948.946444 193.801702 
Q 948.499569 194.054827 947.874569 194.054827 
z
M 947.874569 193.097014 
Q 948.348006 193.097014 948.604256 192.804827 
Q 948.860506 192.511077 948.860506 191.968889 
L 948.860506 191.964202 
Q 948.860506 191.368889 948.591756 191.043889 
Q 948.323006 190.718889 947.824569 190.718889 
Q 947.380819 190.718889 947.137069 191.047014 
Q 946.893319 191.373577 946.893319 191.968889 
L 946.893319 191.975139 
Q 946.893319 192.515764 947.149569 192.806389 
Q 947.405819 193.097014 947.874569 193.097014 
z
M 954.842342 187.770452 
L 953.006405 193.981389 
L 951.94703 193.981389 
L 953.782967 187.828264 
L 951.975155 187.828264 
L 951.975155 188.850139 
L 950.979842 188.850139 
L 950.979842 186.881389 
L 954.842342 186.881389 
L 954.842342 187.770452 
z
M 955.574959 194.893889 
Q 956.310897 194.068889 956.676522 193.053264 
Q 957.043709 192.037639 957.043709 190.817327 
Q 957.043709 189.597014 956.676522 188.581389 
Q 956.310897 187.565764 955.574959 186.745452 
L 956.257772 186.125139 
Q 957.126522 187.067327 957.557772 188.237639 
Q 957.990584 189.406389 957.990584 190.817327 
Q 957.990584 192.228264 957.557772 193.398577 
Q 957.126522 194.567327 956.257772 195.509514 
L 955.574959 194.893889 
z
" style="fill: #ffffff"/>
   </g>
  </g>
 </g>
 <defs>
  <clipPath id="p1b243674ef">
   <rect x="144" y="77.76" width="892.8" height="498.96"/>
  </clipPath>
 </defs>
</svg>
