<?xml version="1.0" encoding="utf-8" standalone="no"?>
<!DOCTYPE svg PUBLIC "-//W3C//DTD SVG 1.1//EN"
  "http://www.w3.org/Graphics/SVG/1.1/DTD/svg11.dtd">
<svg xmlns:xlink="http://www.w3.org/1999/xlink" width="1152pt" height="648pt" viewBox="0 0 1152 648" xmlns="http://www.w3.org/2000/svg" version="1.1">
 <metadata>
  <rdf:RDF xmlns:dc="http://purl.org/dc/elements/1.1/" xmlns:cc="http://creativecommons.org/ns#" xmlns:rdf="http://www.w3.org/1999/02/22-rdf-syntax-ns#">
   <cc:Work>
    <dc:type rdf:resource="http://purl.org/dc/dcmitype/StillImage"/>
    <dc:date>2024-11-15T16:34:25.073204</dc:date>
    <dc:format>image/svg+xml</dc:format>
    <dc:creator>
     <cc:Agent>
      <dc:title>Matplotlib v3.9.2, https://matplotlib.org/</dc:title>
     </cc:Agent>
    </dc:creator>
   </cc:Work>
  </rdf:RDF>
 </metadata>
 <defs>
  <style type="text/css">*{stroke-linejoin: round; stroke-linecap: butt}</style>
 </defs>
 <g id="figure_1">
  <g id="patch_1">
   <path d="M 0 648 
L 1152 648 
L 1152 0 
L 0 0 
L 0 648 
z
" style="fill: none"/>
  </g>
  <g id="axes_1">
   <g id="PathCollection_1">
    <defs>
     <path id="mba90c3d5f6" d="M 0 2.738613 
C 0.726289 2.738613 1.422928 2.450055 1.936492 1.936492 
C 2.450055 1.422928 2.738613 0.726289 2.738613 0 
C 2.738613 -0.726289 2.450055 -1.422928 1.936492 -1.936492 
C 1.422928 -2.450055 0.726289 -2.738613 0 -2.738613 
C -0.726289 -2.738613 -1.422928 -2.450055 -1.936492 -1.936492 
C -2.450055 -1.422928 -2.738613 -0.726289 -2.738613 0 
C -2.738613 0.726289 -2.450055 1.422928 -1.936492 1.936492 
C -1.422928 2.450055 -0.726289 2.738613 0 2.738613 
z
" style="stroke: #bfff80"/>
    </defs>
    <g clip-path="url(#p44d6dd73a2)">
     <use xlink:href="#mba90c3d5f6" x="620.836364" y="201.75156" style="fill: #bfff80; stroke: #bfff80"/>
     <use xlink:href="#mba90c3d5f6" x="244.642909" y="413.7264" style="fill: #bfff80; stroke: #bfff80"/>
    </g>
   </g>
   <g id="text_1">
    <path d="M 629.541344 196.298128 
L 630.391344 196.298128 
L 633.008531 203.398128 
L 631.933531 203.398128 
L 629.966344 197.670003 
L 627.999156 203.398128 
L 626.924156 203.398128 
L 629.541344 196.298128 
z
M 628.130406 200.893441 
L 631.866344 200.893441 
L 631.866344 201.840316 
L 628.130406 201.840316 
L 628.130406 200.893441 
z
M 635.650328 203.398128 
L 634.653453 203.398128 
L 634.653453 197.382503 
L 633.642516 198.002816 
L 633.642516 196.971566 
L 634.653453 196.298128 
L 635.650328 196.298128 
L 635.650328 203.398128 
z
M 639.341148 203.471566 
Q 638.697398 203.471566 638.208336 203.227816 
Q 637.720836 202.982503 637.453648 202.535628 
Q 637.188023 202.088753 637.188023 201.498128 
L 637.188023 201.380941 
Q 637.188023 200.849691 637.453648 200.380941 
Q 637.720836 199.912191 638.164586 199.673128 
Q 637.788023 199.466878 637.561461 199.079378 
Q 637.334898 198.690316 637.334898 198.260628 
L 637.334898 198.090316 
Q 637.334898 197.534066 637.583336 197.112191 
Q 637.831773 196.688753 638.286461 196.457503 
Q 638.741148 196.224691 639.341148 196.224691 
Q 639.941148 196.224691 640.395836 196.457503 
Q 640.850523 196.688753 641.098961 197.112191 
Q 641.347398 197.534066 641.347398 198.090316 
L 641.347398 198.260628 
Q 641.347398 198.701253 641.116148 199.087191 
Q 640.884898 199.471566 640.503648 199.673128 
Q 640.952086 199.916878 641.222398 200.384066 
Q 641.494273 200.849691 641.494273 201.380941 
L 641.494273 201.498128 
Q 641.494273 202.088753 641.228648 202.535628 
Q 640.963023 202.982503 640.473961 203.227816 
Q 639.986461 203.471566 639.341148 203.471566 
z
M 639.341148 202.513753 
Q 639.688023 202.513753 639.950523 202.377816 
Q 640.214586 202.240316 640.358336 201.995003 
Q 640.503648 201.748128 640.503648 201.424691 
L 640.503648 201.357503 
Q 640.503648 201.029378 640.358336 200.784066 
Q 640.214586 200.537191 639.950523 200.401253 
Q 639.688023 200.263753 639.341148 200.263753 
Q 638.994273 200.263753 638.730211 200.401253 
Q 638.467711 200.537191 638.322398 200.785628 
Q 638.178648 201.034066 638.178648 201.362191 
L 638.178648 201.435628 
Q 638.178648 201.757503 638.322398 202.001253 
Q 638.467711 202.245003 638.730211 202.379378 
Q 638.994273 202.513753 639.341148 202.513753 
z
M 639.341148 199.305941 
Q 639.639586 199.305941 639.867711 199.177816 
Q 640.097398 199.048128 640.223961 198.809066 
Q 640.352086 198.568441 640.352086 198.255941 
L 640.352086 198.188753 
Q 640.352086 197.890316 640.223961 197.660628 
Q 640.097398 197.430941 639.867711 197.307503 
Q 639.639586 197.182503 639.341148 197.182503 
Q 639.042711 197.182503 638.813023 197.307503 
Q 638.584898 197.430941 638.456773 197.660628 
Q 638.330211 197.890316 638.330211 198.193441 
L 638.330211 198.266878 
Q 638.330211 198.573128 638.456773 198.810628 
Q 638.584898 199.048128 638.813023 199.177816 
Q 639.042711 199.305941 639.341148 199.305941 
z
" style="fill: #ffffff; stroke: #000000"/>
    <path d="M 629.541344 196.298128 
L 630.391344 196.298128 
L 633.008531 203.398128 
L 631.933531 203.398128 
L 629.966344 197.670003 
L 627.999156 203.398128 
L 626.924156 203.398128 
L 629.541344 196.298128 
z
M 628.130406 200.893441 
L 631.866344 200.893441 
L 631.866344 201.840316 
L 628.130406 201.840316 
L 628.130406 200.893441 
z
M 635.650328 203.398128 
L 634.653453 203.398128 
L 634.653453 197.382503 
L 633.642516 198.002816 
L 633.642516 196.971566 
L 634.653453 196.298128 
L 635.650328 196.298128 
L 635.650328 203.398128 
z
M 639.341148 203.471566 
Q 638.697398 203.471566 638.208336 203.227816 
Q 637.720836 202.982503 637.453648 202.535628 
Q 637.188023 202.088753 637.188023 201.498128 
L 637.188023 201.380941 
Q 637.188023 200.849691 637.453648 200.380941 
Q 637.720836 199.912191 638.164586 199.673128 
Q 637.788023 199.466878 637.561461 199.079378 
Q 637.334898 198.690316 637.334898 198.260628 
L 637.334898 198.090316 
Q 637.334898 197.534066 637.583336 197.112191 
Q 637.831773 196.688753 638.286461 196.457503 
Q 638.741148 196.224691 639.341148 196.224691 
Q 639.941148 196.224691 640.395836 196.457503 
Q 640.850523 196.688753 641.098961 197.112191 
Q 641.347398 197.534066 641.347398 198.090316 
L 641.347398 198.260628 
Q 641.347398 198.701253 641.116148 199.087191 
Q 640.884898 199.471566 640.503648 199.673128 
Q 640.952086 199.916878 641.222398 200.384066 
Q 641.494273 200.849691 641.494273 201.380941 
L 641.494273 201.498128 
Q 641.494273 202.088753 641.228648 202.535628 
Q 640.963023 202.982503 640.473961 203.227816 
Q 639.986461 203.471566 639.341148 203.471566 
z
M 639.341148 202.513753 
Q 639.688023 202.513753 639.950523 202.377816 
Q 640.214586 202.240316 640.358336 201.995003 
Q 640.503648 201.748128 640.503648 201.424691 
L 640.503648 201.357503 
Q 640.503648 201.029378 640.358336 200.784066 
Q 640.214586 200.537191 639.950523 200.401253 
Q 639.688023 200.263753 639.341148 200.263753 
Q 638.994273 200.263753 638.730211 200.401253 
Q 638.467711 200.537191 638.322398 200.785628 
Q 638.178648 201.034066 638.178648 201.362191 
L 638.178648 201.435628 
Q 638.178648 201.757503 638.322398 202.001253 
Q 638.467711 202.245003 638.730211 202.379378 
Q 638.994273 202.513753 639.341148 202.513753 
z
M 639.341148 199.305941 
Q 639.639586 199.305941 639.867711 199.177816 
Q 640.097398 199.048128 640.223961 198.809066 
Q 640.352086 198.568441 640.352086 198.255941 
L 640.352086 198.188753 
Q 640.352086 197.890316 640.223961 197.660628 
Q 640.097398 197.430941 639.867711 197.307503 
Q 639.639586 197.182503 639.341148 197.182503 
Q 639.042711 197.182503 638.813023 197.307503 
Q 638.584898 197.430941 638.456773 197.660628 
Q 638.330211 197.890316 638.330211 198.193441 
L 638.330211 198.266878 
Q 638.330211 198.573128 638.456773 198.810628 
Q 638.584898 199.048128 638.813023 199.177816 
Q 639.042711 199.305941 639.341148 199.305941 
z
" style="fill: #ffffff"/>
   </g>
   <g id="text_2">
    <path d="M 253.347889 408.272968 
L 254.197889 408.272968 
L 256.815077 415.372968 
L 255.740077 415.372968 
L 253.772889 409.644843 
L 251.805702 415.372968 
L 250.730702 415.372968 
L 253.347889 408.272968 
z
M 251.936952 412.868281 
L 255.672889 412.868281 
L 255.672889 413.815156 
L 251.936952 413.815156 
L 251.936952 412.868281 
z
M 259.456873 415.372968 
L 258.459998 415.372968 
L 258.459998 409.357343 
L 257.449061 409.977656 
L 257.449061 408.946406 
L 258.459998 408.272968 
L 259.456873 408.272968 
L 259.456873 415.372968 
z
M 263.147694 415.446406 
Q 262.503944 415.446406 262.014881 415.202655 
Q 261.527381 414.957343 261.260194 414.510468 
Q 260.994569 414.063593 260.994569 413.472968 
L 260.994569 413.355781 
Q 260.994569 412.824531 261.260194 412.355781 
Q 261.527381 411.887031 261.971131 411.647968 
Q 261.594569 411.441718 261.368006 411.054218 
Q 261.141444 410.665156 261.141444 410.235468 
L 261.141444 410.065156 
Q 261.141444 409.508906 261.389881 409.087031 
Q 261.638319 408.663593 262.093006 408.432343 
Q 262.547694 408.199531 263.147694 408.199531 
Q 263.747694 408.199531 264.202381 408.432343 
Q 264.657069 408.663593 264.905506 409.087031 
Q 265.153944 409.508906 265.153944 410.065156 
L 265.153944 410.235468 
Q 265.153944 410.676093 264.922694 411.06203 
Q 264.691444 411.446406 264.310194 411.647968 
Q 264.758631 411.891718 265.028944 412.358905 
Q 265.300819 412.824531 265.300819 413.355781 
L 265.300819 413.472968 
Q 265.300819 414.063593 265.035194 414.510468 
Q 264.769569 414.957343 264.280506 415.202655 
Q 263.793006 415.446406 263.147694 415.446406 
z
M 263.147694 414.488593 
Q 263.494569 414.488593 263.757069 414.352656 
Q 264.021131 414.215156 264.164881 413.969843 
Q 264.310194 413.722968 264.310194 413.399531 
L 264.310194 413.332343 
Q 264.310194 413.004218 264.164881 412.758906 
Q 264.021131 412.512031 263.757069 412.376093 
Q 263.494569 412.238593 263.147694 412.238593 
Q 262.800819 412.238593 262.536756 412.376093 
Q 262.274256 412.512031 262.128944 412.760468 
Q 261.985194 413.008906 261.985194 413.337031 
L 261.985194 413.410468 
Q 261.985194 413.732343 262.128944 413.976093 
Q 262.274256 414.219843 262.536756 414.354218 
Q 262.800819 414.488593 263.147694 414.488593 
z
M 263.147694 411.28078 
Q 263.446131 411.28078 263.674256 411.152656 
Q 263.903944 411.022968 264.030506 410.783906 
Q 264.158631 410.543281 264.158631 410.230781 
L 264.158631 410.163593 
Q 264.158631 409.865156 264.030506 409.635468 
Q 263.903944 409.40578 263.674256 409.282343 
Q 263.446131 409.157343 263.147694 409.157343 
Q 262.849256 409.157343 262.619569 409.282343 
Q 262.391444 409.40578 262.263319 409.635468 
Q 262.136756 409.865156 262.136756 410.168281 
L 262.136756 410.241718 
Q 262.136756 410.547968 262.263319 410.785468 
Q 262.391444 411.022968 262.619569 411.152656 
Q 262.849256 411.28078 263.147694 411.28078 
z
" style="fill: #ffffff; stroke: #000000"/>
    <path d="M 253.347889 408.272968 
L 254.197889 408.272968 
L 256.815077 415.372968 
L 255.740077 415.372968 
L 253.772889 409.644843 
L 251.805702 415.372968 
L 250.730702 415.372968 
L 253.347889 408.272968 
z
M 251.936952 412.868281 
L 255.672889 412.868281 
L 255.672889 413.815156 
L 251.936952 413.815156 
L 251.936952 412.868281 
z
M 259.456873 415.372968 
L 258.459998 415.372968 
L 258.459998 409.357343 
L 257.449061 409.977656 
L 257.449061 408.946406 
L 258.459998 408.272968 
L 259.456873 408.272968 
L 259.456873 415.372968 
z
M 263.147694 415.446406 
Q 262.503944 415.446406 262.014881 415.202655 
Q 261.527381 414.957343 261.260194 414.510468 
Q 260.994569 414.063593 260.994569 413.472968 
L 260.994569 413.355781 
Q 260.994569 412.824531 261.260194 412.355781 
Q 261.527381 411.887031 261.971131 411.647968 
Q 261.594569 411.441718 261.368006 411.054218 
Q 261.141444 410.665156 261.141444 410.235468 
L 261.141444 410.065156 
Q 261.141444 409.508906 261.389881 409.087031 
Q 261.638319 408.663593 262.093006 408.432343 
Q 262.547694 408.199531 263.147694 408.199531 
Q 263.747694 408.199531 264.202381 408.432343 
Q 264.657069 408.663593 264.905506 409.087031 
Q 265.153944 409.508906 265.153944 410.065156 
L 265.153944 410.235468 
Q 265.153944 410.676093 264.922694 411.06203 
Q 264.691444 411.446406 264.310194 411.647968 
Q 264.758631 411.891718 265.028944 412.358905 
Q 265.300819 412.824531 265.300819 413.355781 
L 265.300819 413.472968 
Q 265.300819 414.063593 265.035194 414.510468 
Q 264.769569 414.957343 264.280506 415.202655 
Q 263.793006 415.446406 263.147694 415.446406 
z
M 263.147694 414.488593 
Q 263.494569 414.488593 263.757069 414.352656 
Q 264.021131 414.215156 264.164881 413.969843 
Q 264.310194 413.722968 264.310194 413.399531 
L 264.310194 413.332343 
Q 264.310194 413.004218 264.164881 412.758906 
Q 264.021131 412.512031 263.757069 412.376093 
Q 263.494569 412.238593 263.147694 412.238593 
Q 262.800819 412.238593 262.536756 412.376093 
Q 262.274256 412.512031 262.128944 412.760468 
Q 261.985194 413.008906 261.985194 413.337031 
L 261.985194 413.410468 
Q 261.985194 413.732343 262.128944 413.976093 
Q 262.274256 414.219843 262.536756 414.354218 
Q 262.800819 414.488593 263.147694 414.488593 
z
M 263.147694 411.28078 
Q 263.446131 411.28078 263.674256 411.152656 
Q 263.903944 411.022968 264.030506 410.783906 
Q 264.158631 410.543281 264.158631 410.230781 
L 264.158631 410.163593 
Q 264.158631 409.865156 264.030506 409.635468 
Q 263.903944 409.40578 263.674256 409.282343 
Q 263.446131 409.157343 263.147694 409.157343 
Q 262.849256 409.157343 262.619569 409.282343 
Q 262.391444 409.40578 262.263319 409.635468 
Q 262.136756 409.865156 262.136756 410.168281 
L 262.136756 410.241718 
Q 262.136756 410.547968 262.263319 410.785468 
Q 262.391444 411.022968 262.619569 411.152656 
Q 262.849256 411.28078 263.147694 411.28078 
z
" style="fill: #ffffff"/>
   </g>
  </g>
 </g>
 <defs>
  <clipPath id="p44d6dd73a2">
   <rect x="144" y="77.76" width="892.8" height="498.96"/>
  </clipPath>
 </defs>
</svg>
