<?xml version="1.0" encoding="utf-8" standalone="no"?>
<!DOCTYPE svg PUBLIC "-//W3C//DTD SVG 1.1//EN"
  "http://www.w3.org/Graphics/SVG/1.1/DTD/svg11.dtd">
<svg xmlns:xlink="http://www.w3.org/1999/xlink" width="1152pt" height="648pt" viewBox="0 0 1152 648" xmlns="http://www.w3.org/2000/svg" version="1.1">
 <metadata>
  <rdf:RDF xmlns:dc="http://purl.org/dc/elements/1.1/" xmlns:cc="http://creativecommons.org/ns#" xmlns:rdf="http://www.w3.org/1999/02/22-rdf-syntax-ns#">
   <cc:Work>
    <dc:type rdf:resource="http://purl.org/dc/dcmitype/StillImage"/>
    <dc:date>2024-11-15T16:34:25.885430</dc:date>
    <dc:format>image/svg+xml</dc:format>
    <dc:creator>
     <cc:Agent>
      <dc:title>Matplotlib v3.9.2, https://matplotlib.org/</dc:title>
     </cc:Agent>
    </dc:creator>
   </cc:Work>
  </rdf:RDF>
 </metadata>
 <defs>
  <style type="text/css">*{stroke-linejoin: round; stroke-linecap: butt}</style>
 </defs>
 <g id="figure_1">
  <g id="patch_1">
   <path d="M 0 648 
L 1152 648 
L 1152 0 
L 0 0 
L 0 648 
z
" style="fill: none"/>
  </g>
  <g id="axes_1">
   <g id="PathCollection_1">
    <defs>
     <path id="m3ba7aa9512" d="M 0 2.738613 
C 0.726289 2.738613 1.422928 2.450055 1.936492 1.936492 
C 2.450055 1.422928 2.738613 0.726289 2.738613 0 
C 2.738613 -0.726289 2.450055 -1.422928 1.936492 -1.936492 
C 1.422928 -2.450055 0.726289 -2.738613 0 -2.738613 
C -0.726289 -2.738613 -1.422928 -2.450055 -1.936492 -1.936492 
C -2.450055 -1.422928 -2.738613 -0.726289 -2.738613 0 
C -2.738613 0.726289 -2.450055 1.422928 -1.936492 1.936492 
C -1.422928 2.450055 -0.726289 2.738613 0 2.738613 
z
" style="stroke: #ff0000"/>
    </defs>
    <g clip-path="url(#pea4cf8fe9d)">
     <use xlink:href="#m3ba7aa9512" x="375.722182" y="456.88644" style="fill: #ff0000; stroke: #ff0000"/>
     <use xlink:href="#m3ba7aa9512" x="231.250909" y="485.07768" style="fill: #ff0000; stroke: #ff0000"/>
    </g>
   </g>
   <g id="text_1">
    <path d="M 383.275599 455.417383 
L 386.409974 451.433008 
L 387.634974 451.433008 
L 383.128724 456.911133 
L 383.275599 455.417383 
z
M 382.494349 451.433008 
L 383.489662 451.433008 
L 383.489662 458.533008 
L 382.494349 458.533008 
L 382.494349 451.433008 
z
M 384.456849 454.743945 
L 385.242787 454.015821 
L 387.933412 458.533008 
L 386.713099 458.533008 
L 384.456849 454.743945 
z
M 390.843177 458.606446 
Q 390.199427 458.606446 389.710365 458.362695 
Q 389.222865 458.117383 388.955677 457.670508 
Q 388.690052 457.223633 388.690052 456.633008 
L 388.690052 456.515821 
Q 388.690052 455.984571 388.955677 455.515821 
Q 389.222865 455.047071 389.666615 454.808008 
Q 389.290052 454.601758 389.06349 454.214258 
Q 388.836927 453.825196 388.836927 453.395508 
L 388.836927 453.225195 
Q 388.836927 452.668946 389.085365 452.247071 
Q 389.333802 451.823633 389.78849 451.592383 
Q 390.243177 451.359571 390.843177 451.359571 
Q 391.443177 451.359571 391.897865 451.592383 
Q 392.352552 451.823633 392.60099 452.247071 
Q 392.849427 452.668946 392.849427 453.225195 
L 392.849427 453.395508 
Q 392.849427 453.836133 392.618177 454.22207 
Q 392.386927 454.606446 392.005677 454.808008 
Q 392.454115 455.051758 392.724427 455.518945 
Q 392.996302 455.984571 392.996302 456.515821 
L 392.996302 456.633008 
Q 392.996302 457.223633 392.730677 457.670508 
Q 392.465052 458.117383 391.97599 458.362695 
Q 391.48849 458.606446 390.843177 458.606446 
z
M 390.843177 457.648633 
Q 391.190052 457.648633 391.452552 457.512696 
Q 391.716615 457.375196 391.860365 457.129883 
Q 392.005677 456.883008 392.005677 456.559571 
L 392.005677 456.492383 
Q 392.005677 456.164258 391.860365 455.918946 
Q 391.716615 455.672071 391.452552 455.536133 
Q 391.190052 455.398633 390.843177 455.398633 
Q 390.496302 455.398633 390.23224 455.536133 
Q 389.96974 455.672071 389.824427 455.920508 
Q 389.680677 456.168946 389.680677 456.497071 
L 389.680677 456.570508 
Q 389.680677 456.892383 389.824427 457.136133 
Q 389.96974 457.379883 390.23224 457.514258 
Q 390.496302 457.648633 390.843177 457.648633 
z
M 390.843177 454.44082 
Q 391.141615 454.44082 391.36974 454.312696 
Q 391.599427 454.183008 391.72599 453.943945 
Q 391.854115 453.703321 391.854115 453.390821 
L 391.854115 453.323633 
Q 391.854115 453.025195 391.72599 452.795508 
Q 391.599427 452.56582 391.36974 452.442383 
Q 391.141615 452.317383 390.843177 452.317383 
Q 390.54474 452.317383 390.315052 452.442383 
Q 390.086927 452.56582 389.958802 452.795508 
Q 389.83224 453.025195 389.83224 453.328321 
L 389.83224 453.401758 
Q 389.83224 453.708008 389.958802 453.945508 
Q 390.086927 454.183008 390.315052 454.312696 
Q 390.54474 454.44082 390.843177 454.44082 
z
M 396.415052 458.606446 
Q 395.418177 458.606446 394.902552 458.075196 
Q 394.38849 457.542383 394.38849 456.589258 
L 394.38849 453.362695 
Q 394.38849 452.404883 394.905677 451.875196 
Q 395.422865 451.345508 396.415052 451.345508 
Q 397.410365 451.345508 397.92599 451.873633 
Q 398.441615 452.400195 398.441615 453.362695 
L 398.441615 456.589258 
Q 398.441615 457.547071 397.922865 458.076758 
Q 397.405677 458.606446 396.415052 458.606446 
z
M 396.415052 457.65957 
Q 396.941615 457.65957 397.193177 457.383008 
Q 397.44474 457.106446 397.44474 456.589258 
L 397.44474 453.362695 
Q 397.44474 452.843946 397.19474 452.568945 
Q 396.946302 452.292383 396.415052 452.292383 
Q 395.88224 452.292383 395.63224 452.568945 
Q 395.383802 452.843946 395.383802 453.362695 
L 395.383802 456.589258 
Q 395.383802 457.106446 395.635365 457.383008 
Q 395.886927 457.65957 396.415052 457.65957 
z
M 401.932631 458.606446 
Q 400.935756 458.606446 400.420131 458.075196 
Q 399.906068 457.542383 399.906068 456.589258 
L 399.906068 453.362695 
Q 399.906068 452.404883 400.423256 451.875196 
Q 400.940443 451.345508 401.932631 451.345508 
Q 402.927943 451.345508 403.443568 451.873633 
Q 403.959193 452.400195 403.959193 453.362695 
L 403.959193 456.589258 
Q 403.959193 457.547071 403.440443 458.076758 
Q 402.923256 458.606446 401.932631 458.606446 
z
M 401.932631 457.65957 
Q 402.459193 457.65957 402.710756 457.383008 
Q 402.962318 457.106446 402.962318 456.589258 
L 402.962318 453.362695 
Q 402.962318 452.843946 402.712318 452.568945 
Q 402.463881 452.292383 401.932631 452.292383 
Q 401.399818 452.292383 401.149818 452.568945 
Q 400.901381 452.843946 400.901381 453.362695 
L 400.901381 456.589258 
Q 400.901381 457.106446 401.152943 457.383008 
Q 401.404506 457.65957 401.932631 457.65957 
z
M 407.450209 458.606446 
Q 406.453334 458.606446 405.937709 458.075196 
Q 405.423646 457.542383 405.423646 456.589258 
L 405.423646 453.362695 
Q 405.423646 452.404883 405.940834 451.875196 
Q 406.458021 451.345508 407.450209 451.345508 
Q 408.445521 451.345508 408.961146 451.873633 
Q 409.476771 452.400195 409.476771 453.362695 
L 409.476771 456.589258 
Q 409.476771 457.547071 408.958021 458.076758 
Q 408.440834 458.606446 407.450209 458.606446 
z
M 407.450209 457.65957 
Q 407.976771 457.65957 408.228334 457.383008 
Q 408.479896 457.106446 408.479896 456.589258 
L 408.479896 453.362695 
Q 408.479896 452.843946 408.229896 452.568945 
Q 407.981459 452.292383 407.450209 452.292383 
Q 406.917396 452.292383 406.667396 452.568945 
Q 406.418959 452.843946 406.418959 453.362695 
L 406.418959 456.589258 
Q 406.418959 457.106446 406.670521 457.383008 
Q 406.922084 457.65957 407.450209 457.65957 
z
" style="fill: #ffffff; stroke: #000000"/>
    <path d="M 383.275599 455.417383 
L 386.409974 451.433008 
L 387.634974 451.433008 
L 383.128724 456.911133 
L 383.275599 455.417383 
z
M 382.494349 451.433008 
L 383.489662 451.433008 
L 383.489662 458.533008 
L 382.494349 458.533008 
L 382.494349 451.433008 
z
M 384.456849 454.743945 
L 385.242787 454.015821 
L 387.933412 458.533008 
L 386.713099 458.533008 
L 384.456849 454.743945 
z
M 390.843177 458.606446 
Q 390.199427 458.606446 389.710365 458.362695 
Q 389.222865 458.117383 388.955677 457.670508 
Q 388.690052 457.223633 388.690052 456.633008 
L 388.690052 456.515821 
Q 388.690052 455.984571 388.955677 455.515821 
Q 389.222865 455.047071 389.666615 454.808008 
Q 389.290052 454.601758 389.06349 454.214258 
Q 388.836927 453.825196 388.836927 453.395508 
L 388.836927 453.225195 
Q 388.836927 452.668946 389.085365 452.247071 
Q 389.333802 451.823633 389.78849 451.592383 
Q 390.243177 451.359571 390.843177 451.359571 
Q 391.443177 451.359571 391.897865 451.592383 
Q 392.352552 451.823633 392.60099 452.247071 
Q 392.849427 452.668946 392.849427 453.225195 
L 392.849427 453.395508 
Q 392.849427 453.836133 392.618177 454.22207 
Q 392.386927 454.606446 392.005677 454.808008 
Q 392.454115 455.051758 392.724427 455.518945 
Q 392.996302 455.984571 392.996302 456.515821 
L 392.996302 456.633008 
Q 392.996302 457.223633 392.730677 457.670508 
Q 392.465052 458.117383 391.97599 458.362695 
Q 391.48849 458.606446 390.843177 458.606446 
z
M 390.843177 457.648633 
Q 391.190052 457.648633 391.452552 457.512696 
Q 391.716615 457.375196 391.860365 457.129883 
Q 392.005677 456.883008 392.005677 456.559571 
L 392.005677 456.492383 
Q 392.005677 456.164258 391.860365 455.918946 
Q 391.716615 455.672071 391.452552 455.536133 
Q 391.190052 455.398633 390.843177 455.398633 
Q 390.496302 455.398633 390.23224 455.536133 
Q 389.96974 455.672071 389.824427 455.920508 
Q 389.680677 456.168946 389.680677 456.497071 
L 389.680677 456.570508 
Q 389.680677 456.892383 389.824427 457.136133 
Q 389.96974 457.379883 390.23224 457.514258 
Q 390.496302 457.648633 390.843177 457.648633 
z
M 390.843177 454.44082 
Q 391.141615 454.44082 391.36974 454.312696 
Q 391.599427 454.183008 391.72599 453.943945 
Q 391.854115 453.703321 391.854115 453.390821 
L 391.854115 453.323633 
Q 391.854115 453.025195 391.72599 452.795508 
Q 391.599427 452.56582 391.36974 452.442383 
Q 391.141615 452.317383 390.843177 452.317383 
Q 390.54474 452.317383 390.315052 452.442383 
Q 390.086927 452.56582 389.958802 452.795508 
Q 389.83224 453.025195 389.83224 453.328321 
L 389.83224 453.401758 
Q 389.83224 453.708008 389.958802 453.945508 
Q 390.086927 454.183008 390.315052 454.312696 
Q 390.54474 454.44082 390.843177 454.44082 
z
M 396.415052 458.606446 
Q 395.418177 458.606446 394.902552 458.075196 
Q 394.38849 457.542383 394.38849 456.589258 
L 394.38849 453.362695 
Q 394.38849 452.404883 394.905677 451.875196 
Q 395.422865 451.345508 396.415052 451.345508 
Q 397.410365 451.345508 397.92599 451.873633 
Q 398.441615 452.400195 398.441615 453.362695 
L 398.441615 456.589258 
Q 398.441615 457.547071 397.922865 458.076758 
Q 397.405677 458.606446 396.415052 458.606446 
z
M 396.415052 457.65957 
Q 396.941615 457.65957 397.193177 457.383008 
Q 397.44474 457.106446 397.44474 456.589258 
L 397.44474 453.362695 
Q 397.44474 452.843946 397.19474 452.568945 
Q 396.946302 452.292383 396.415052 452.292383 
Q 395.88224 452.292383 395.63224 452.568945 
Q 395.383802 452.843946 395.383802 453.362695 
L 395.383802 456.589258 
Q 395.383802 457.106446 395.635365 457.383008 
Q 395.886927 457.65957 396.415052 457.65957 
z
M 401.932631 458.606446 
Q 400.935756 458.606446 400.420131 458.075196 
Q 399.906068 457.542383 399.906068 456.589258 
L 399.906068 453.362695 
Q 399.906068 452.404883 400.423256 451.875196 
Q 400.940443 451.345508 401.932631 451.345508 
Q 402.927943 451.345508 403.443568 451.873633 
Q 403.959193 452.400195 403.959193 453.362695 
L 403.959193 456.589258 
Q 403.959193 457.547071 403.440443 458.076758 
Q 402.923256 458.606446 401.932631 458.606446 
z
M 401.932631 457.65957 
Q 402.459193 457.65957 402.710756 457.383008 
Q 402.962318 457.106446 402.962318 456.589258 
L 402.962318 453.362695 
Q 402.962318 452.843946 402.712318 452.568945 
Q 402.463881 452.292383 401.932631 452.292383 
Q 401.399818 452.292383 401.149818 452.568945 
Q 400.901381 452.843946 400.901381 453.362695 
L 400.901381 456.589258 
Q 400.901381 457.106446 401.152943 457.383008 
Q 401.404506 457.65957 401.932631 457.65957 
z
M 407.450209 458.606446 
Q 406.453334 458.606446 405.937709 458.075196 
Q 405.423646 457.542383 405.423646 456.589258 
L 405.423646 453.362695 
Q 405.423646 452.404883 405.940834 451.875196 
Q 406.458021 451.345508 407.450209 451.345508 
Q 408.445521 451.345508 408.961146 451.873633 
Q 409.476771 452.400195 409.476771 453.362695 
L 409.476771 456.589258 
Q 409.476771 457.547071 408.958021 458.076758 
Q 408.440834 458.606446 407.450209 458.606446 
z
M 407.450209 457.65957 
Q 407.976771 457.65957 408.228334 457.383008 
Q 408.479896 457.106446 408.479896 456.589258 
L 408.479896 453.362695 
Q 408.479896 452.843946 408.229896 452.568945 
Q 407.981459 452.292383 407.450209 452.292383 
Q 406.917396 452.292383 406.667396 452.568945 
Q 406.418959 452.843946 406.418959 453.362695 
L 406.418959 456.589258 
Q 406.418959 457.106446 406.670521 457.383008 
Q 406.922084 457.65957 407.450209 457.65957 
z
" style="fill: #ffffff"/>
   </g>
   <g id="text_2">
    <path d="M 238.804327 483.608623 
L 241.938702 479.624248 
L 243.163702 479.624248 
L 238.657452 485.102373 
L 238.804327 483.608623 
z
M 238.023077 479.624248 
L 239.018389 479.624248 
L 239.018389 486.724248 
L 238.023077 486.724248 
L 238.023077 479.624248 
z
M 239.985577 482.935185 
L 240.771514 482.207061 
L 243.462139 486.724248 
L 242.241827 486.724248 
L 239.985577 482.935185 
z
M 246.371905 486.797686 
Q 245.728155 486.797686 245.239092 486.553935 
Q 244.751592 486.308623 244.484405 485.861748 
Q 244.21878 485.414873 244.21878 484.824248 
L 244.21878 484.707061 
Q 244.21878 484.175811 244.484405 483.707061 
Q 244.751592 483.238311 245.195342 482.999248 
Q 244.81878 482.792998 244.592217 482.405498 
Q 244.365655 482.016436 244.365655 481.586748 
L 244.365655 481.416435 
Q 244.365655 480.860186 244.614092 480.438311 
Q 244.86253 480.014873 245.317217 479.783623 
Q 245.771905 479.550811 246.371905 479.550811 
Q 246.971905 479.550811 247.426592 479.783623 
Q 247.88128 480.014873 248.129717 480.438311 
Q 248.378155 480.860186 248.378155 481.416435 
L 248.378155 481.586748 
Q 248.378155 482.027373 248.146905 482.41331 
Q 247.915655 482.797686 247.534405 482.999248 
Q 247.982842 483.242998 248.253155 483.710185 
Q 248.52503 484.175811 248.52503 484.707061 
L 248.52503 484.824248 
Q 248.52503 485.414873 248.259405 485.861748 
Q 247.99378 486.308623 247.504717 486.553935 
Q 247.017217 486.797686 246.371905 486.797686 
z
M 246.371905 485.839873 
Q 246.71878 485.839873 246.98128 485.703936 
Q 247.245342 485.566436 247.389092 485.321123 
Q 247.534405 485.074248 247.534405 484.750811 
L 247.534405 484.683623 
Q 247.534405 484.355498 247.389092 484.110186 
Q 247.245342 483.863311 246.98128 483.727373 
Q 246.71878 483.589873 246.371905 483.589873 
Q 246.02503 483.589873 245.760967 483.727373 
Q 245.498467 483.863311 245.353155 484.111748 
Q 245.209405 484.360186 245.209405 484.688311 
L 245.209405 484.761748 
Q 245.209405 485.083623 245.353155 485.327373 
Q 245.498467 485.571123 245.760967 485.705498 
Q 246.02503 485.839873 246.371905 485.839873 
z
M 246.371905 482.63206 
Q 246.670342 482.63206 246.898467 482.503936 
Q 247.128155 482.374248 247.254717 482.135185 
Q 247.382842 481.894561 247.382842 481.582061 
L 247.382842 481.514873 
Q 247.382842 481.216435 247.254717 480.986748 
Q 247.128155 480.75706 246.898467 480.633623 
Q 246.670342 480.508623 246.371905 480.508623 
Q 246.073467 480.508623 245.84378 480.633623 
Q 245.615655 480.75706 245.48753 480.986748 
Q 245.360967 481.216435 245.360967 481.519561 
L 245.360967 481.592998 
Q 245.360967 481.899248 245.48753 482.136748 
Q 245.615655 482.374248 245.84378 482.503936 
Q 246.073467 482.63206 246.371905 482.63206 
z
M 251.94378 486.797686 
Q 250.946905 486.797686 250.43128 486.266436 
Q 249.917217 485.733623 249.917217 484.780498 
L 249.917217 481.553935 
Q 249.917217 480.596123 250.434405 480.066436 
Q 250.951592 479.536748 251.94378 479.536748 
Q 252.939092 479.536748 253.454717 480.064873 
Q 253.970342 480.591435 253.970342 481.553935 
L 253.970342 484.780498 
Q 253.970342 485.738311 253.451592 486.267998 
Q 252.934405 486.797686 251.94378 486.797686 
z
M 251.94378 485.85081 
Q 252.470342 485.85081 252.721905 485.574248 
Q 252.973467 485.297686 252.973467 484.780498 
L 252.973467 481.553935 
Q 252.973467 481.035186 252.723467 480.760185 
Q 252.47503 480.483623 251.94378 480.483623 
Q 251.410967 480.483623 251.160967 480.760185 
Q 250.91253 481.035186 250.91253 481.553935 
L 250.91253 484.780498 
Q 250.91253 485.297686 251.164092 485.574248 
Q 251.415655 485.85081 251.94378 485.85081 
z
M 257.461358 486.797686 
Q 256.464483 486.797686 255.948858 486.266436 
Q 255.434795 485.733623 255.434795 484.780498 
L 255.434795 481.553935 
Q 255.434795 480.596123 255.951983 480.066436 
Q 256.46917 479.536748 257.461358 479.536748 
Q 258.45667 479.536748 258.972295 480.064873 
Q 259.48792 480.591435 259.48792 481.553935 
L 259.48792 484.780498 
Q 259.48792 485.738311 258.96917 486.267998 
Q 258.451983 486.797686 257.461358 486.797686 
z
M 257.461358 485.85081 
Q 257.98792 485.85081 258.239483 485.574248 
Q 258.491045 485.297686 258.491045 484.780498 
L 258.491045 481.553935 
Q 258.491045 481.035186 258.241045 480.760185 
Q 257.992608 480.483623 257.461358 480.483623 
Q 256.928545 480.483623 256.678545 480.760185 
Q 256.430108 481.035186 256.430108 481.553935 
L 256.430108 484.780498 
Q 256.430108 485.297686 256.68167 485.574248 
Q 256.933233 485.85081 257.461358 485.85081 
z
M 262.978936 486.797686 
Q 261.982061 486.797686 261.466436 486.266436 
Q 260.952373 485.733623 260.952373 484.780498 
L 260.952373 481.553935 
Q 260.952373 480.596123 261.469561 480.066436 
Q 261.986748 479.536748 262.978936 479.536748 
Q 263.974248 479.536748 264.489873 480.064873 
Q 265.005498 480.591435 265.005498 481.553935 
L 265.005498 484.780498 
Q 265.005498 485.738311 264.486748 486.267998 
Q 263.969561 486.797686 262.978936 486.797686 
z
M 262.978936 485.85081 
Q 263.505498 485.85081 263.757061 485.574248 
Q 264.008623 485.297686 264.008623 484.780498 
L 264.008623 481.553935 
Q 264.008623 481.035186 263.758623 480.760185 
Q 263.510186 480.483623 262.978936 480.483623 
Q 262.446123 480.483623 262.196123 480.760185 
Q 261.947686 481.035186 261.947686 481.553935 
L 261.947686 484.780498 
Q 261.947686 485.297686 262.199248 485.574248 
Q 262.450811 485.85081 262.978936 485.85081 
z
" style="fill: #ffffff; stroke: #000000"/>
    <path d="M 238.804327 483.608623 
L 241.938702 479.624248 
L 243.163702 479.624248 
L 238.657452 485.102373 
L 238.804327 483.608623 
z
M 238.023077 479.624248 
L 239.018389 479.624248 
L 239.018389 486.724248 
L 238.023077 486.724248 
L 238.023077 479.624248 
z
M 239.985577 482.935185 
L 240.771514 482.207061 
L 243.462139 486.724248 
L 242.241827 486.724248 
L 239.985577 482.935185 
z
M 246.371905 486.797686 
Q 245.728155 486.797686 245.239092 486.553935 
Q 244.751592 486.308623 244.484405 485.861748 
Q 244.21878 485.414873 244.21878 484.824248 
L 244.21878 484.707061 
Q 244.21878 484.175811 244.484405 483.707061 
Q 244.751592 483.238311 245.195342 482.999248 
Q 244.81878 482.792998 244.592217 482.405498 
Q 244.365655 482.016436 244.365655 481.586748 
L 244.365655 481.416435 
Q 244.365655 480.860186 244.614092 480.438311 
Q 244.86253 480.014873 245.317217 479.783623 
Q 245.771905 479.550811 246.371905 479.550811 
Q 246.971905 479.550811 247.426592 479.783623 
Q 247.88128 480.014873 248.129717 480.438311 
Q 248.378155 480.860186 248.378155 481.416435 
L 248.378155 481.586748 
Q 248.378155 482.027373 248.146905 482.41331 
Q 247.915655 482.797686 247.534405 482.999248 
Q 247.982842 483.242998 248.253155 483.710185 
Q 248.52503 484.175811 248.52503 484.707061 
L 248.52503 484.824248 
Q 248.52503 485.414873 248.259405 485.861748 
Q 247.99378 486.308623 247.504717 486.553935 
Q 247.017217 486.797686 246.371905 486.797686 
z
M 246.371905 485.839873 
Q 246.71878 485.839873 246.98128 485.703936 
Q 247.245342 485.566436 247.389092 485.321123 
Q 247.534405 485.074248 247.534405 484.750811 
L 247.534405 484.683623 
Q 247.534405 484.355498 247.389092 484.110186 
Q 247.245342 483.863311 246.98128 483.727373 
Q 246.71878 483.589873 246.371905 483.589873 
Q 246.02503 483.589873 245.760967 483.727373 
Q 245.498467 483.863311 245.353155 484.111748 
Q 245.209405 484.360186 245.209405 484.688311 
L 245.209405 484.761748 
Q 245.209405 485.083623 245.353155 485.327373 
Q 245.498467 485.571123 245.760967 485.705498 
Q 246.02503 485.839873 246.371905 485.839873 
z
M 246.371905 482.63206 
Q 246.670342 482.63206 246.898467 482.503936 
Q 247.128155 482.374248 247.254717 482.135185 
Q 247.382842 481.894561 247.382842 481.582061 
L 247.382842 481.514873 
Q 247.382842 481.216435 247.254717 480.986748 
Q 247.128155 480.75706 246.898467 480.633623 
Q 246.670342 480.508623 246.371905 480.508623 
Q 246.073467 480.508623 245.84378 480.633623 
Q 245.615655 480.75706 245.48753 480.986748 
Q 245.360967 481.216435 245.360967 481.519561 
L 245.360967 481.592998 
Q 245.360967 481.899248 245.48753 482.136748 
Q 245.615655 482.374248 245.84378 482.503936 
Q 246.073467 482.63206 246.371905 482.63206 
z
M 251.94378 486.797686 
Q 250.946905 486.797686 250.43128 486.266436 
Q 249.917217 485.733623 249.917217 484.780498 
L 249.917217 481.553935 
Q 249.917217 480.596123 250.434405 480.066436 
Q 250.951592 479.536748 251.94378 479.536748 
Q 252.939092 479.536748 253.454717 480.064873 
Q 253.970342 480.591435 253.970342 481.553935 
L 253.970342 484.780498 
Q 253.970342 485.738311 253.451592 486.267998 
Q 252.934405 486.797686 251.94378 486.797686 
z
M 251.94378 485.85081 
Q 252.470342 485.85081 252.721905 485.574248 
Q 252.973467 485.297686 252.973467 484.780498 
L 252.973467 481.553935 
Q 252.973467 481.035186 252.723467 480.760185 
Q 252.47503 480.483623 251.94378 480.483623 
Q 251.410967 480.483623 251.160967 480.760185 
Q 250.91253 481.035186 250.91253 481.553935 
L 250.91253 484.780498 
Q 250.91253 485.297686 251.164092 485.574248 
Q 251.415655 485.85081 251.94378 485.85081 
z
M 257.461358 486.797686 
Q 256.464483 486.797686 255.948858 486.266436 
Q 255.434795 485.733623 255.434795 484.780498 
L 255.434795 481.553935 
Q 255.434795 480.596123 255.951983 480.066436 
Q 256.46917 479.536748 257.461358 479.536748 
Q 258.45667 479.536748 258.972295 480.064873 
Q 259.48792 480.591435 259.48792 481.553935 
L 259.48792 484.780498 
Q 259.48792 485.738311 258.96917 486.267998 
Q 258.451983 486.797686 257.461358 486.797686 
z
M 257.461358 485.85081 
Q 257.98792 485.85081 258.239483 485.574248 
Q 258.491045 485.297686 258.491045 484.780498 
L 258.491045 481.553935 
Q 258.491045 481.035186 258.241045 480.760185 
Q 257.992608 480.483623 257.461358 480.483623 
Q 256.928545 480.483623 256.678545 480.760185 
Q 256.430108 481.035186 256.430108 481.553935 
L 256.430108 484.780498 
Q 256.430108 485.297686 256.68167 485.574248 
Q 256.933233 485.85081 257.461358 485.85081 
z
M 262.978936 486.797686 
Q 261.982061 486.797686 261.466436 486.266436 
Q 260.952373 485.733623 260.952373 484.780498 
L 260.952373 481.553935 
Q 260.952373 480.596123 261.469561 480.066436 
Q 261.986748 479.536748 262.978936 479.536748 
Q 263.974248 479.536748 264.489873 480.064873 
Q 265.005498 480.591435 265.005498 481.553935 
L 265.005498 484.780498 
Q 265.005498 485.738311 264.486748 486.267998 
Q 263.969561 486.797686 262.978936 486.797686 
z
M 262.978936 485.85081 
Q 263.505498 485.85081 263.757061 485.574248 
Q 264.008623 485.297686 264.008623 484.780498 
L 264.008623 481.553935 
Q 264.008623 481.035186 263.758623 480.760185 
Q 263.510186 480.483623 262.978936 480.483623 
Q 262.446123 480.483623 262.196123 480.760185 
Q 261.947686 481.035186 261.947686 481.553935 
L 261.947686 484.780498 
Q 261.947686 485.297686 262.199248 485.574248 
Q 262.450811 485.85081 262.978936 485.85081 
z
" style="fill: #ffffff"/>
   </g>
  </g>
 </g>
 <defs>
  <clipPath id="pea4cf8fe9d">
   <rect x="144" y="77.76" width="892.8" height="498.96"/>
  </clipPath>
 </defs>
</svg>
