<?xml version="1.0" encoding="utf-8" standalone="no"?>
<!DOCTYPE svg PUBLIC "-//W3C//DTD SVG 1.1//EN"
  "http://www.w3.org/Graphics/SVG/1.1/DTD/svg11.dtd">
<svg xmlns:xlink="http://www.w3.org/1999/xlink" width="1152pt" height="648pt" viewBox="0 0 1152 648" xmlns="http://www.w3.org/2000/svg" version="1.1">
 <metadata>
  <rdf:RDF xmlns:dc="http://purl.org/dc/elements/1.1/" xmlns:cc="http://creativecommons.org/ns#" xmlns:rdf="http://www.w3.org/1999/02/22-rdf-syntax-ns#">
   <cc:Work>
    <dc:type rdf:resource="http://purl.org/dc/dcmitype/StillImage"/>
    <dc:date>2024-10-09T18:10:10.181011</dc:date>
    <dc:format>image/svg+xml</dc:format>
    <dc:creator>
     <cc:Agent>
      <dc:title>Matplotlib v3.8.1, https://matplotlib.org/</dc:title>
     </cc:Agent>
    </dc:creator>
   </cc:Work>
  </rdf:RDF>
 </metadata>
 <defs>
  <style type="text/css">*{stroke-linejoin: round; stroke-linecap: butt}</style>
 </defs>
 <g id="figure_1">
  <g id="patch_1">
   <path d="M 0 648 
L 1152 648 
L 1152 0 
L 0 0 
L 0 648 
z
" style="fill: none"/>
  </g>
  <g id="axes_1">
   <g id="line2d_1">
    <path d="M 209.742545 475.436034 
L 211.820826 473.203333 
L 213.899107 470.986999 
L 215.977388 468.78726 
L 218.055669 466.604333 
L 220.13395 464.438427 
L 222.212231 462.289741 
L 224.290512 460.158464 
L 226.368793 458.044777 
L 228.447074 455.948849 
L 230.525355 453.870842 
L 232.603636 451.810907 
L 234.681917 449.769188 
L 236.760198 447.745818 
L 238.838479 445.74092 
L 240.91676 443.75461 
L 242.995041 441.786995 
L 245.073322 439.838171 
L 247.151603 437.908227 
L 249.229884 435.997242 
L 251.308165 434.105289 
L 253.386446 432.232431 
L 255.464727 430.378721 
L 257.543008 428.544207 
L 259.621289 426.728927 
L 261.69957 424.932912 
L 263.777851 423.156185 
L 265.856132 421.39876 
L 267.934413 419.660647 
L 270.012694 417.941846 
L 272.090975 416.24235 
L 274.169256 414.562146 
L 276.247537 412.901214 
L 278.325818 411.259527 
L 280.404099 409.637052 
L 282.48238 408.03375 
L 284.560661 406.449574 
L 286.638942 404.884475 
L 288.717223 403.338393 
L 290.795504 401.811267 
L 292.873785 400.303028 
L 294.952066 398.813603 
L 297.030347 397.342913 
L 299.108628 395.890874 
L 301.186909 394.457399 
L 303.26519 393.042394 
L 305.343471 391.645763 
L 307.421752 390.267404 
L 309.500033 388.907212 
L 311.578314 387.565076 
L 313.656595 386.240885 
L 315.734876 384.934522 
L 317.813157 383.645866 
L 319.891438 382.374795 
L 321.969719 381.121181 
L 324.048 379.884896 
L 326.126281 378.665807 
L 328.204562 377.46378 
L 330.282843 376.278677 
L 332.361124 375.110359 
L 334.439405 373.958683 
L 336.517686 372.823507 
L 338.595967 371.704684 
L 340.674248 370.602066 
L 342.752529 369.515505 
L 344.83081 368.444849 
L 346.909091 367.389945 
L 348.987372 366.350641 
L 351.065653 365.326781 
L 353.143934 364.31821 
L 355.222215 363.32477 
L 357.300496 362.346304 
L 359.378777 361.382653 
L 361.457058 360.433659 
L 363.535339 359.499161 
L 365.61362 358.578999 
L 367.691901 357.673013 
L 369.770182 356.781043 
L 371.848463 355.902926 
L 373.926744 355.038502 
L 376.005025 354.18761 
L 378.083306 353.350088 
L 380.161587 352.525777 
L 382.239868 351.714514 
L 384.318149 350.916141 
L 386.39643 350.130496 
L 388.474711 349.35742 
L 390.552992 348.596754 
L 392.631273 347.848339 
L 394.709554 347.112017 
L 396.787835 346.387631 
L 398.866116 345.675024 
L 400.944397 344.974041 
L 403.022678 344.284525 
L 405.100959 343.606323 
L 407.17924 342.939281 
L 409.257521 342.283247 
L 411.335802 341.63807 
L 413.414083 341.003598 
L 415.492364 340.379683 
" clip-path="url(#p528fe5df38)" style="fill: none; stroke: #30d2f2; stroke-width: 3; stroke-linecap: round"/>
   </g>
   <g id="text_1">
    <path d="M 424.397344 342.099688 
Q 423.884844 342.099688 423.425469 342.002813 
Q 422.967656 341.904376 422.569219 341.709063 
Q 422.170781 341.513751 421.823906 341.220001 
L 421.823906 341.220001 
L 422.444219 340.459063 
L 422.444219 340.459063 
Q 422.850469 340.810626 423.337969 340.987188 
Q 423.827031 341.162188 424.397344 341.162188 
Q 425.169219 341.162188 425.594219 340.876251 
Q 426.019219 340.590313 426.019219 340.068438 
L 426.019219 340.063751 
Q 426.019219 339.691876 425.825469 339.474688 
Q 425.633281 339.257501 425.327031 339.152813 
Q 425.022344 339.048126 424.539531 338.959063 
Q 424.523906 338.954376 424.506719 338.954376 
Q 424.491094 338.954376 424.475469 338.949688 
L 424.402031 338.935626 
Q 423.689531 338.813751 423.242656 338.660626 
Q 422.795781 338.505938 422.478594 338.098126 
Q 422.161406 337.690313 422.161406 336.938751 
L 422.161406 336.934063 
Q 422.161406 336.274688 422.456719 335.809063 
Q 422.752031 335.341876 423.317656 335.098126 
Q 423.884844 334.852813 424.680156 334.852813 
Q 425.061406 334.852813 425.430156 334.937188 
Q 425.798906 335.020001 426.156719 335.184063 
Q 426.516094 335.346563 426.862969 335.595001 
L 426.862969 335.595001 
L 426.297344 336.387188 
L 426.297344 336.387188 
Q 425.891094 336.088751 425.487969 335.940313 
Q 425.086406 335.790313 424.680156 335.790313 
Q 423.953594 335.790313 423.550469 336.080938 
Q 423.147344 336.371563 423.147344 336.904376 
L 423.147344 336.909063 
Q 423.147344 337.274688 423.355156 337.485626 
Q 423.562969 337.695001 423.872344 337.795001 
Q 424.183281 337.895001 424.734844 338.002813 
Q 424.753594 338.007501 424.770781 338.010626 
Q 424.787969 338.012188 424.808281 338.016876 
Q 424.831719 338.021563 424.861406 338.027813 
Q 424.891094 338.032501 424.914531 338.037188 
Q 425.559844 338.168438 425.991094 338.349688 
Q 426.423906 338.529376 426.714531 338.932501 
Q 427.005156 339.335626 427.005156 340.034063 
L 427.005156 340.043438 
Q 427.005156 340.693438 426.697344 341.154376 
Q 426.389531 341.615313 425.805156 341.857501 
Q 425.222344 342.099688 424.397344 342.099688 
z
M 429.095195 341.079376 
L 430.701445 341.079376 
Q 431.487383 341.079376 431.918633 340.671563 
Q 432.351445 340.263751 432.351445 339.521563 
L 432.351445 337.430938 
Q 432.351445 336.688751 431.918633 336.280938 
Q 431.487383 335.873126 430.701445 335.873126 
L 429.095195 335.873126 
L 429.095195 334.926251 
L 430.671758 334.926251 
Q 431.526445 334.926251 432.131133 335.224688 
Q 432.737383 335.521563 433.05457 336.093438 
Q 433.371758 336.665313 433.371758 337.470001 
L 433.371758 339.482501 
Q 433.371758 340.287188 433.05457 340.859063 
Q 432.737383 341.430938 432.12957 341.729376 
Q 431.521758 342.026251 430.66707 342.026251 
L 429.095195 342.026251 
L 429.095195 341.079376 
z
M 428.421758 334.926251 
L 429.41707 334.926251 
L 429.41707 342.026251 
L 428.421758 342.026251 
L 428.421758 334.926251 
z
M 436.91707 342.099688 
Q 436.27332 342.099688 435.784258 341.855938 
Q 435.296758 341.610626 435.02957 341.163751 
Q 434.763945 340.716876 434.763945 340.126251 
L 434.763945 340.009063 
Q 434.763945 339.477813 435.02957 339.009063 
Q 435.296758 338.540313 435.740508 338.301251 
Q 435.363945 338.095001 435.137383 337.707501 
Q 434.91082 337.318438 434.91082 336.888751 
L 434.91082 336.718438 
Q 434.91082 336.162188 435.159258 335.740313 
Q 435.407695 335.316876 435.862383 335.085626 
Q 436.31707 334.852813 436.91707 334.852813 
Q 437.51707 334.852813 437.971758 335.085626 
Q 438.426445 335.316876 438.674883 335.740313 
Q 438.92332 336.162188 438.92332 336.718438 
L 438.92332 336.888751 
Q 438.92332 337.329376 438.69207 337.715313 
Q 438.46082 338.099688 438.07957 338.301251 
Q 438.528008 338.545001 438.79832 339.012188 
Q 439.070195 339.477813 439.070195 340.009063 
L 439.070195 340.126251 
Q 439.070195 340.716876 438.80457 341.163751 
Q 438.538945 341.610626 438.049883 341.855938 
Q 437.562383 342.099688 436.91707 342.099688 
z
M 436.91707 341.141876 
Q 437.263945 341.141876 437.526445 341.005938 
Q 437.790508 340.868438 437.934258 340.623126 
Q 438.07957 340.376251 438.07957 340.052813 
L 438.07957 339.985626 
Q 438.07957 339.657501 437.934258 339.412188 
Q 437.790508 339.165313 437.526445 339.029376 
Q 437.263945 338.891876 436.91707 338.891876 
Q 436.570195 338.891876 436.306133 339.029376 
Q 436.043633 339.165313 435.89832 339.413751 
Q 435.75457 339.662188 435.75457 339.990313 
L 435.75457 340.063751 
Q 435.75457 340.385626 435.89832 340.629376 
Q 436.043633 340.873126 436.306133 341.007501 
Q 436.570195 341.141876 436.91707 341.141876 
z
M 436.91707 337.934063 
Q 437.215508 337.934063 437.443633 337.805938 
Q 437.67332 337.676251 437.799883 337.437188 
Q 437.928008 337.196563 437.928008 336.884063 
L 437.928008 336.816876 
Q 437.928008 336.518438 437.799883 336.288751 
Q 437.67332 336.059063 437.443633 335.935626 
Q 437.215508 335.810626 436.91707 335.810626 
Q 436.618633 335.810626 436.388945 335.935626 
Q 436.16082 336.059063 436.032695 336.288751 
Q 435.906133 336.518438 435.906133 336.821563 
L 435.906133 336.895001 
Q 435.906133 337.201251 436.032695 337.438751 
Q 436.16082 337.676251 436.388945 337.805938 
Q 436.618633 337.934063 436.91707 337.934063 
z
M 444.378008 338.280938 
L 444.378008 339.227813 
L 440.413945 339.227813 
L 440.413945 338.280938 
L 444.378008 338.280938 
z
M 442.893633 340.737188 
L 441.89832 340.737188 
L 441.89832 336.771563 
L 442.893633 336.771563 
L 442.893633 340.737188 
z
M 452.45457 338.202813 
L 452.45457 339.443438 
Q 452.45457 340.234063 452.146758 340.837188 
Q 451.838945 341.440313 451.274883 341.770001 
Q 450.71082 342.099688 449.968633 342.099688 
Q 449.21707 342.099688 448.64832 341.790313 
Q 448.07957 341.479376 447.76707 340.913751 
Q 447.45457 340.346563 447.45457 339.599688 
L 447.45457 337.504376 
Q 447.45457 336.713751 447.762383 336.113751 
Q 448.070195 335.512188 448.632695 335.182501 
Q 449.196758 334.852813 449.938945 334.852813 
Q 450.549883 334.852813 451.063945 335.115313 
Q 451.57957 335.376251 451.926445 335.854376 
Q 452.27332 336.332501 452.395195 336.962188 
L 452.395195 336.962188 
L 451.31707 336.962188 
L 451.31707 336.962188 
Q 451.228008 336.605938 451.018633 336.349688 
Q 450.809258 336.093438 450.524883 335.959063 
Q 450.24207 335.824688 449.938945 335.824688 
Q 449.499883 335.824688 449.16707 336.035626 
Q 448.83582 336.245001 448.65457 336.623126 
Q 448.474883 337.001251 448.474883 337.504376 
L 448.474883 339.599688 
Q 448.474883 340.059063 448.659258 340.402813 
Q 448.845195 340.746563 449.184258 340.937188 
Q 449.524883 341.127813 449.968633 341.127813 
Q 450.407695 341.127813 450.738945 340.930938 
Q 451.071758 340.732501 451.253008 340.357501 
Q 451.434258 339.980938 451.434258 339.462188 
L 451.434258 339.154376 
L 449.993633 339.154376 
L 449.993633 338.202813 
L 452.45457 338.202813 
z
M 456.042851 342.099688 
Q 455.339726 342.099688 454.841289 341.835626 
Q 454.344414 341.571563 454.081914 341.062188 
Q 453.820976 340.551251 453.820976 339.829376 
L 453.820976 339.257501 
Q 453.820976 338.505938 454.072539 337.974688 
Q 454.324101 337.441876 454.802226 337.163751 
Q 455.281914 336.884063 455.955351 336.884063 
Q 456.589726 336.884063 457.038164 337.202813 
Q 457.488164 337.520001 457.724101 338.120001 
Q 457.961601 338.720001 457.961601 339.560626 
L 457.961601 339.891876 
L 454.544414 339.891876 
L 454.544414 339.091876 
L 457.014726 339.091876 
L 457.014726 339.091876 
Q 456.970976 338.471563 456.694414 338.127813 
Q 456.419414 337.782501 455.955351 337.782501 
Q 455.388164 337.782501 455.078789 338.154376 
Q 454.769414 338.524688 454.769414 339.204376 
L 454.769414 339.848126 
Q 454.769414 340.477813 455.100664 340.815313 
Q 455.433476 341.152813 456.042851 341.152813 
Q 456.345976 341.152813 456.642851 341.030938 
Q 456.941289 340.907501 457.175664 340.688751 
L 457.175664 340.688751 
L 457.830351 341.341876 
L 457.830351 341.341876 
Q 457.453789 341.704376 456.985039 341.902813 
Q 456.516289 342.099688 456.042851 342.099688 
z
M 459.32918 336.957501 
L 460.326055 336.957501 
L 460.326055 342.026251 
L 459.32918 342.026251 
L 459.32918 336.957501 
z
M 462.405742 338.954376 
Q 462.405742 338.418438 462.127617 338.126251 
Q 461.849492 337.832501 461.346367 337.832501 
Q 460.857305 337.832501 460.59168 338.091876 
Q 460.326055 338.349688 460.326055 338.818438 
L 460.22293 337.841876 
Q 460.457305 337.382501 460.83543 337.134063 
Q 461.213555 336.884063 461.67293 336.884063 
Q 462.49793 336.884063 462.949492 337.424688 
Q 463.401055 337.963751 463.401055 338.949688 
L 463.401055 342.026251 
L 462.405742 342.026251 
L 462.405742 338.954376 
z
M 466.580742 342.026251 
L 465.583867 342.026251 
L 465.583867 336.010626 
L 464.57293 336.630938 
L 464.57293 335.599688 
L 465.583867 334.926251 
L 466.580742 334.926251 
L 466.580742 342.026251 
z
" style="fill: #ffffff; stroke: #000000"/>
    <path d="M 424.397344 342.099688 
Q 423.884844 342.099688 423.425469 342.002813 
Q 422.967656 341.904376 422.569219 341.709063 
Q 422.170781 341.513751 421.823906 341.220001 
L 421.823906 341.220001 
L 422.444219 340.459063 
L 422.444219 340.459063 
Q 422.850469 340.810626 423.337969 340.987188 
Q 423.827031 341.162188 424.397344 341.162188 
Q 425.169219 341.162188 425.594219 340.876251 
Q 426.019219 340.590313 426.019219 340.068438 
L 426.019219 340.063751 
Q 426.019219 339.691876 425.825469 339.474688 
Q 425.633281 339.257501 425.327031 339.152813 
Q 425.022344 339.048126 424.539531 338.959063 
Q 424.523906 338.954376 424.506719 338.954376 
Q 424.491094 338.954376 424.475469 338.949688 
L 424.402031 338.935626 
Q 423.689531 338.813751 423.242656 338.660626 
Q 422.795781 338.505938 422.478594 338.098126 
Q 422.161406 337.690313 422.161406 336.938751 
L 422.161406 336.934063 
Q 422.161406 336.274688 422.456719 335.809063 
Q 422.752031 335.341876 423.317656 335.098126 
Q 423.884844 334.852813 424.680156 334.852813 
Q 425.061406 334.852813 425.430156 334.937188 
Q 425.798906 335.020001 426.156719 335.184063 
Q 426.516094 335.346563 426.862969 335.595001 
L 426.862969 335.595001 
L 426.297344 336.387188 
L 426.297344 336.387188 
Q 425.891094 336.088751 425.487969 335.940313 
Q 425.086406 335.790313 424.680156 335.790313 
Q 423.953594 335.790313 423.550469 336.080938 
Q 423.147344 336.371563 423.147344 336.904376 
L 423.147344 336.909063 
Q 423.147344 337.274688 423.355156 337.485626 
Q 423.562969 337.695001 423.872344 337.795001 
Q 424.183281 337.895001 424.734844 338.002813 
Q 424.753594 338.007501 424.770781 338.010626 
Q 424.787969 338.012188 424.808281 338.016876 
Q 424.831719 338.021563 424.861406 338.027813 
Q 424.891094 338.032501 424.914531 338.037188 
Q 425.559844 338.168438 425.991094 338.349688 
Q 426.423906 338.529376 426.714531 338.932501 
Q 427.005156 339.335626 427.005156 340.034063 
L 427.005156 340.043438 
Q 427.005156 340.693438 426.697344 341.154376 
Q 426.389531 341.615313 425.805156 341.857501 
Q 425.222344 342.099688 424.397344 342.099688 
z
M 429.095195 341.079376 
L 430.701445 341.079376 
Q 431.487383 341.079376 431.918633 340.671563 
Q 432.351445 340.263751 432.351445 339.521563 
L 432.351445 337.430938 
Q 432.351445 336.688751 431.918633 336.280938 
Q 431.487383 335.873126 430.701445 335.873126 
L 429.095195 335.873126 
L 429.095195 334.926251 
L 430.671758 334.926251 
Q 431.526445 334.926251 432.131133 335.224688 
Q 432.737383 335.521563 433.05457 336.093438 
Q 433.371758 336.665313 433.371758 337.470001 
L 433.371758 339.482501 
Q 433.371758 340.287188 433.05457 340.859063 
Q 432.737383 341.430938 432.12957 341.729376 
Q 431.521758 342.026251 430.66707 342.026251 
L 429.095195 342.026251 
L 429.095195 341.079376 
z
M 428.421758 334.926251 
L 429.41707 334.926251 
L 429.41707 342.026251 
L 428.421758 342.026251 
L 428.421758 334.926251 
z
M 436.91707 342.099688 
Q 436.27332 342.099688 435.784258 341.855938 
Q 435.296758 341.610626 435.02957 341.163751 
Q 434.763945 340.716876 434.763945 340.126251 
L 434.763945 340.009063 
Q 434.763945 339.477813 435.02957 339.009063 
Q 435.296758 338.540313 435.740508 338.301251 
Q 435.363945 338.095001 435.137383 337.707501 
Q 434.91082 337.318438 434.91082 336.888751 
L 434.91082 336.718438 
Q 434.91082 336.162188 435.159258 335.740313 
Q 435.407695 335.316876 435.862383 335.085626 
Q 436.31707 334.852813 436.91707 334.852813 
Q 437.51707 334.852813 437.971758 335.085626 
Q 438.426445 335.316876 438.674883 335.740313 
Q 438.92332 336.162188 438.92332 336.718438 
L 438.92332 336.888751 
Q 438.92332 337.329376 438.69207 337.715313 
Q 438.46082 338.099688 438.07957 338.301251 
Q 438.528008 338.545001 438.79832 339.012188 
Q 439.070195 339.477813 439.070195 340.009063 
L 439.070195 340.126251 
Q 439.070195 340.716876 438.80457 341.163751 
Q 438.538945 341.610626 438.049883 341.855938 
Q 437.562383 342.099688 436.91707 342.099688 
z
M 436.91707 341.141876 
Q 437.263945 341.141876 437.526445 341.005938 
Q 437.790508 340.868438 437.934258 340.623126 
Q 438.07957 340.376251 438.07957 340.052813 
L 438.07957 339.985626 
Q 438.07957 339.657501 437.934258 339.412188 
Q 437.790508 339.165313 437.526445 339.029376 
Q 437.263945 338.891876 436.91707 338.891876 
Q 436.570195 338.891876 436.306133 339.029376 
Q 436.043633 339.165313 435.89832 339.413751 
Q 435.75457 339.662188 435.75457 339.990313 
L 435.75457 340.063751 
Q 435.75457 340.385626 435.89832 340.629376 
Q 436.043633 340.873126 436.306133 341.007501 
Q 436.570195 341.141876 436.91707 341.141876 
z
M 436.91707 337.934063 
Q 437.215508 337.934063 437.443633 337.805938 
Q 437.67332 337.676251 437.799883 337.437188 
Q 437.928008 337.196563 437.928008 336.884063 
L 437.928008 336.816876 
Q 437.928008 336.518438 437.799883 336.288751 
Q 437.67332 336.059063 437.443633 335.935626 
Q 437.215508 335.810626 436.91707 335.810626 
Q 436.618633 335.810626 436.388945 335.935626 
Q 436.16082 336.059063 436.032695 336.288751 
Q 435.906133 336.518438 435.906133 336.821563 
L 435.906133 336.895001 
Q 435.906133 337.201251 436.032695 337.438751 
Q 436.16082 337.676251 436.388945 337.805938 
Q 436.618633 337.934063 436.91707 337.934063 
z
M 444.378008 338.280938 
L 444.378008 339.227813 
L 440.413945 339.227813 
L 440.413945 338.280938 
L 444.378008 338.280938 
z
M 442.893633 340.737188 
L 441.89832 340.737188 
L 441.89832 336.771563 
L 442.893633 336.771563 
L 442.893633 340.737188 
z
M 452.45457 338.202813 
L 452.45457 339.443438 
Q 452.45457 340.234063 452.146758 340.837188 
Q 451.838945 341.440313 451.274883 341.770001 
Q 450.71082 342.099688 449.968633 342.099688 
Q 449.21707 342.099688 448.64832 341.790313 
Q 448.07957 341.479376 447.76707 340.913751 
Q 447.45457 340.346563 447.45457 339.599688 
L 447.45457 337.504376 
Q 447.45457 336.713751 447.762383 336.113751 
Q 448.070195 335.512188 448.632695 335.182501 
Q 449.196758 334.852813 449.938945 334.852813 
Q 450.549883 334.852813 451.063945 335.115313 
Q 451.57957 335.376251 451.926445 335.854376 
Q 452.27332 336.332501 452.395195 336.962188 
L 452.395195 336.962188 
L 451.31707 336.962188 
L 451.31707 336.962188 
Q 451.228008 336.605938 451.018633 336.349688 
Q 450.809258 336.093438 450.524883 335.959063 
Q 450.24207 335.824688 449.938945 335.824688 
Q 449.499883 335.824688 449.16707 336.035626 
Q 448.83582 336.245001 448.65457 336.623126 
Q 448.474883 337.001251 448.474883 337.504376 
L 448.474883 339.599688 
Q 448.474883 340.059063 448.659258 340.402813 
Q 448.845195 340.746563 449.184258 340.937188 
Q 449.524883 341.127813 449.968633 341.127813 
Q 450.407695 341.127813 450.738945 340.930938 
Q 451.071758 340.732501 451.253008 340.357501 
Q 451.434258 339.980938 451.434258 339.462188 
L 451.434258 339.154376 
L 449.993633 339.154376 
L 449.993633 338.202813 
L 452.45457 338.202813 
z
M 456.042851 342.099688 
Q 455.339726 342.099688 454.841289 341.835626 
Q 454.344414 341.571563 454.081914 341.062188 
Q 453.820976 340.551251 453.820976 339.829376 
L 453.820976 339.257501 
Q 453.820976 338.505938 454.072539 337.974688 
Q 454.324101 337.441876 454.802226 337.163751 
Q 455.281914 336.884063 455.955351 336.884063 
Q 456.589726 336.884063 457.038164 337.202813 
Q 457.488164 337.520001 457.724101 338.120001 
Q 457.961601 338.720001 457.961601 339.560626 
L 457.961601 339.891876 
L 454.544414 339.891876 
L 454.544414 339.091876 
L 457.014726 339.091876 
L 457.014726 339.091876 
Q 456.970976 338.471563 456.694414 338.127813 
Q 456.419414 337.782501 455.955351 337.782501 
Q 455.388164 337.782501 455.078789 338.154376 
Q 454.769414 338.524688 454.769414 339.204376 
L 454.769414 339.848126 
Q 454.769414 340.477813 455.100664 340.815313 
Q 455.433476 341.152813 456.042851 341.152813 
Q 456.345976 341.152813 456.642851 341.030938 
Q 456.941289 340.907501 457.175664 340.688751 
L 457.175664 340.688751 
L 457.830351 341.341876 
L 457.830351 341.341876 
Q 457.453789 341.704376 456.985039 341.902813 
Q 456.516289 342.099688 456.042851 342.099688 
z
M 459.32918 336.957501 
L 460.326055 336.957501 
L 460.326055 342.026251 
L 459.32918 342.026251 
L 459.32918 336.957501 
z
M 462.405742 338.954376 
Q 462.405742 338.418438 462.127617 338.126251 
Q 461.849492 337.832501 461.346367 337.832501 
Q 460.857305 337.832501 460.59168 338.091876 
Q 460.326055 338.349688 460.326055 338.818438 
L 460.22293 337.841876 
Q 460.457305 337.382501 460.83543 337.134063 
Q 461.213555 336.884063 461.67293 336.884063 
Q 462.49793 336.884063 462.949492 337.424688 
Q 463.401055 337.963751 463.401055 338.949688 
L 463.401055 342.026251 
L 462.405742 342.026251 
L 462.405742 338.954376 
z
M 466.580742 342.026251 
L 465.583867 342.026251 
L 465.583867 336.010626 
L 464.57293 336.630938 
L 464.57293 335.599688 
L 465.583867 334.926251 
L 466.580742 334.926251 
L 466.580742 342.026251 
z
" style="fill: #ffffff"/>
   </g>
  </g>
 </g>
 <defs>
  <clipPath id="p528fe5df38">
   <rect x="144" y="77.76" width="892.8" height="498.96"/>
  </clipPath>
 </defs>
</svg>
