<?xml version="1.0" encoding="utf-8" standalone="no"?>
<!DOCTYPE svg PUBLIC "-//W3C//DTD SVG 1.1//EN"
  "http://www.w3.org/Graphics/SVG/1.1/DTD/svg11.dtd">
<svg xmlns:xlink="http://www.w3.org/1999/xlink" width="1152pt" height="648pt" viewBox="0 0 1152 648" xmlns="http://www.w3.org/2000/svg" version="1.1">
 <metadata>
  <rdf:RDF xmlns:dc="http://purl.org/dc/elements/1.1/" xmlns:cc="http://creativecommons.org/ns#" xmlns:rdf="http://www.w3.org/1999/02/22-rdf-syntax-ns#">
   <cc:Work>
    <dc:type rdf:resource="http://purl.org/dc/dcmitype/StillImage"/>
    <dc:date>2024-10-09T18:10:10.199353</dc:date>
    <dc:format>image/svg+xml</dc:format>
    <dc:creator>
     <cc:Agent>
      <dc:title>Matplotlib v3.8.1, https://matplotlib.org/</dc:title>
     </cc:Agent>
    </dc:creator>
   </cc:Work>
  </rdf:RDF>
 </metadata>
 <defs>
  <style type="text/css">*{stroke-linejoin: round; stroke-linecap: butt}</style>
 </defs>
 <g id="figure_1">
  <g id="patch_1">
   <path d="M 0 648 
L 1152 648 
L 1152 0 
L 0 0 
L 0 648 
z
" style="fill: none"/>
  </g>
  <g id="axes_1">
   <g id="line2d_1">
    <path d="M 222.322909 447.818423 
L 224.520066 445.465989 
L 226.717223 443.116083 
L 228.91438 440.769746 
L 231.111537 438.428012 
L 233.308694 436.091911 
L 235.505851 433.762457 
L 237.703008 431.440658 
L 239.900165 429.127505 
L 242.097322 426.823976 
L 244.294479 424.53103 
L 246.491636 422.24961 
L 248.688793 419.980639 
L 250.88595 417.725018 
L 253.083107 415.483627 
L 255.280264 413.25732 
L 257.477421 411.046928 
L 259.674579 408.853256 
L 261.871736 406.677082 
L 264.068893 404.519155 
L 266.26605 402.380197 
L 268.463207 400.2609 
L 270.660364 398.161926 
L 272.857521 396.083906 
L 275.054678 394.02744 
L 277.251835 391.993097 
L 279.448992 389.981414 
L 281.646149 387.992897 
L 283.843306 386.028019 
L 286.040463 384.087221 
L 288.23762 382.170913 
L 290.434777 380.279471 
L 292.631934 378.413243 
L 294.829091 376.572543 
L 297.026248 374.757653 
L 299.223405 372.968828 
L 301.420562 371.20629 
L 303.617719 369.470233 
L 305.814876 367.76082 
L 308.012033 366.078188 
L 310.20919 364.422444 
L 312.406347 362.79367 
L 314.603504 361.191921 
L 316.800661 359.617226 
L 318.997818 358.06959 
L 321.194975 356.548994 
L 323.392132 355.055394 
L 325.589289 353.588728 
L 327.786446 352.148909 
L 329.983603 350.735831 
L 332.18076 349.349369 
L 334.377917 347.989378 
L 336.575074 346.655697 
L 338.772231 345.348148 
L 340.969388 344.066534 
L 343.166545 342.810647 
L 345.363702 341.580264 
L 347.56086 340.375146 
L 349.758017 339.195045 
L 351.955174 338.0397 
L 354.152331 336.908838 
L 356.349488 335.802178 
L 358.546645 334.719429 
L 360.743802 333.660292 
L 362.940959 332.624459 
L 365.138116 331.611617 
L 367.335273 330.621444 
L 369.53243 329.653616 
L 371.729587 328.707801 
L 373.926744 327.783664 
L 376.123901 326.880867 
L 378.321058 325.999067 
L 380.518215 325.13792 
L 382.715372 324.29708 
L 384.912529 323.476197 
L 387.109686 322.674924 
L 389.306843 321.89291 
L 391.504 321.129805 
L 393.701157 320.385261 
L 395.898314 319.658927 
L 398.095471 318.950456 
L 400.292628 318.259502 
L 402.489785 317.585719 
L 404.686942 316.928764 
L 406.884099 316.288298 
L 409.081256 315.663981 
L 411.278413 315.055479 
L 413.47557 314.46246 
L 415.672727 313.884593 
L 417.869884 313.321555 
L 420.067041 312.773022 
L 422.264198 312.238677 
L 424.461355 311.718205 
L 426.658512 311.211296 
L 428.855669 310.717645 
L 431.052826 310.236948 
L 433.249983 309.76891 
L 435.44714 309.313236 
L 437.644298 308.86964 
L 439.841455 308.437835 
" clip-path="url(#p669df6b434)" style="fill: none; stroke: #79def2; stroke-width: 3; stroke-linecap: round"/>
   </g>
   <g id="text_1">
    <path d="M 448.746435 310.157841 
Q 448.233935 310.157841 447.77456 310.060966 
Q 447.316747 309.962528 446.91831 309.767216 
Q 446.519872 309.571903 446.172997 309.278153 
L 446.172997 309.278153 
L 446.79331 308.517216 
L 446.79331 308.517216 
Q 447.19956 308.868778 447.68706 309.045341 
Q 448.176122 309.220341 448.746435 309.220341 
Q 449.51831 309.220341 449.94331 308.934403 
Q 450.36831 308.648466 450.36831 308.126591 
L 450.36831 308.121903 
Q 450.36831 307.750028 450.17456 307.532841 
Q 449.982372 307.315653 449.676122 307.210966 
Q 449.371435 307.106278 448.888622 307.017216 
Q 448.872997 307.012528 448.85581 307.012528 
Q 448.840185 307.012528 448.82456 307.007841 
L 448.751122 306.993778 
Q 448.038622 306.871903 447.591747 306.718778 
Q 447.144872 306.564091 446.827685 306.156278 
Q 446.510497 305.748466 446.510497 304.996903 
L 446.510497 304.992216 
Q 446.510497 304.332841 446.80581 303.867216 
Q 447.101122 303.400028 447.666747 303.156278 
Q 448.233935 302.910966 449.029247 302.910966 
Q 449.410497 302.910966 449.779247 302.995341 
Q 450.147997 303.078153 450.50581 303.242216 
Q 450.865185 303.404716 451.21206 303.653153 
L 451.21206 303.653153 
L 450.646435 304.445341 
L 450.646435 304.445341 
Q 450.240185 304.146903 449.83706 303.998466 
Q 449.435497 303.848466 449.029247 303.848466 
Q 448.302685 303.848466 447.89956 304.139091 
Q 447.496435 304.429716 447.496435 304.962528 
L 447.496435 304.967216 
Q 447.496435 305.332841 447.704247 305.543778 
Q 447.91206 305.753153 448.221435 305.853153 
Q 448.532372 305.953153 449.083935 306.060966 
Q 449.102685 306.065653 449.119872 306.068778 
Q 449.13706 306.070341 449.157372 306.075028 
Q 449.18081 306.079716 449.210497 306.085966 
Q 449.240185 306.090653 449.263622 306.095341 
Q 449.908935 306.226591 450.340185 306.407841 
Q 450.772997 306.587528 451.063622 306.990653 
Q 451.354247 307.393778 451.354247 308.092216 
L 451.354247 308.101591 
Q 451.354247 308.751591 451.046435 309.212528 
Q 450.738622 309.673466 450.154247 309.915653 
Q 449.571435 310.157841 448.746435 310.157841 
z
M 453.444286 309.137528 
L 455.050536 309.137528 
Q 455.836474 309.137528 456.267724 308.729716 
Q 456.700536 308.321903 456.700536 307.579716 
L 456.700536 305.489091 
Q 456.700536 304.746903 456.267724 304.339091 
Q 455.836474 303.931278 455.050536 303.931278 
L 453.444286 303.931278 
L 453.444286 302.984403 
L 455.020849 302.984403 
Q 455.875536 302.984403 456.480224 303.282841 
Q 457.086474 303.579716 457.403661 304.151591 
Q 457.720849 304.723466 457.720849 305.528153 
L 457.720849 307.540653 
Q 457.720849 308.345341 457.403661 308.917216 
Q 457.086474 309.489091 456.478661 309.787528 
Q 455.870849 310.084403 455.016161 310.084403 
L 453.444286 310.084403 
L 453.444286 309.137528 
z
M 452.770849 302.984403 
L 453.766161 302.984403 
L 453.766161 310.084403 
L 452.770849 310.084403 
L 452.770849 302.984403 
z
M 462.853661 303.873466 
L 461.017724 310.084403 
L 459.958349 310.084403 
L 461.794286 303.931278 
L 459.986474 303.931278 
L 459.986474 304.953153 
L 458.991161 304.953153 
L 458.991161 302.984403 
L 462.853661 302.984403 
L 462.853661 303.873466 
z
M 468.136278 306.339091 
L 468.136278 307.285966 
L 464.172216 307.285966 
L 464.172216 306.339091 
L 468.136278 306.339091 
z
M 466.651903 308.795341 
L 465.656591 308.795341 
L 465.656591 304.829716 
L 466.651903 304.829716 
L 466.651903 308.795341 
z
M 476.212841 306.260966 
L 476.212841 307.501591 
Q 476.212841 308.292216 475.905028 308.895341 
Q 475.597216 309.498466 475.033153 309.828153 
Q 474.469091 310.157841 473.726903 310.157841 
Q 472.975341 310.157841 472.406591 309.848466 
Q 471.837841 309.537528 471.525341 308.971903 
Q 471.212841 308.404716 471.212841 307.657841 
L 471.212841 305.562528 
Q 471.212841 304.771903 471.520653 304.171903 
Q 471.828466 303.570341 472.390966 303.240653 
Q 472.955028 302.910966 473.697216 302.910966 
Q 474.308153 302.910966 474.822216 303.173466 
Q 475.337841 303.434403 475.684716 303.912528 
Q 476.031591 304.390653 476.153466 305.020341 
L 476.153466 305.020341 
L 475.075341 305.020341 
L 475.075341 305.020341 
Q 474.986278 304.664091 474.776903 304.407841 
Q 474.567528 304.151591 474.283153 304.017216 
Q 474.000341 303.882841 473.697216 303.882841 
Q 473.258153 303.882841 472.925341 304.093778 
Q 472.594091 304.303153 472.412841 304.681278 
Q 472.233153 305.059403 472.233153 305.562528 
L 472.233153 307.657841 
Q 472.233153 308.117216 472.417528 308.460966 
Q 472.603466 308.804716 472.942528 308.995341 
Q 473.283153 309.185966 473.726903 309.185966 
Q 474.165966 309.185966 474.497216 308.989091 
Q 474.830028 308.790653 475.011278 308.415653 
Q 475.192528 308.039091 475.192528 307.520341 
L 475.192528 307.212528 
L 473.751903 307.212528 
L 473.751903 306.260966 
L 476.212841 306.260966 
z
M 479.801122 310.157841 
Q 479.097997 310.157841 478.59956 309.893778 
Q 478.102685 309.629716 477.840185 309.120341 
Q 477.579247 308.609403 477.579247 307.887528 
L 477.579247 307.315653 
Q 477.579247 306.564091 477.83081 306.032841 
Q 478.082372 305.500028 478.560497 305.221903 
Q 479.040185 304.942216 479.713622 304.942216 
Q 480.347997 304.942216 480.796435 305.260966 
Q 481.246435 305.578153 481.482372 306.178153 
Q 481.719872 306.778153 481.719872 307.618778 
L 481.719872 307.950028 
L 478.302685 307.950028 
L 478.302685 307.150028 
L 480.772997 307.150028 
L 480.772997 307.150028 
Q 480.729247 306.529716 480.452685 306.185966 
Q 480.177685 305.840653 479.713622 305.840653 
Q 479.146435 305.840653 478.83706 306.212528 
Q 478.527685 306.582841 478.527685 307.262528 
L 478.527685 307.906278 
Q 478.527685 308.535966 478.858935 308.873466 
Q 479.191747 309.210966 479.801122 309.210966 
Q 480.104247 309.210966 480.401122 309.089091 
Q 480.69956 308.965653 480.933935 308.746903 
L 480.933935 308.746903 
L 481.588622 309.400028 
L 481.588622 309.400028 
Q 481.21206 309.762528 480.74331 309.960966 
Q 480.27456 310.157841 479.801122 310.157841 
z
M 483.08745 305.015653 
L 484.084325 305.015653 
L 484.084325 310.084403 
L 483.08745 310.084403 
L 483.08745 305.015653 
z
M 486.164013 307.012528 
Q 486.164013 306.476591 485.885888 306.184403 
Q 485.607763 305.890653 485.104638 305.890653 
Q 484.615575 305.890653 484.34995 306.150028 
Q 484.084325 306.407841 484.084325 306.876591 
L 483.9812 305.900028 
Q 484.215575 305.440653 484.5937 305.192216 
Q 484.971825 304.942216 485.4312 304.942216 
Q 486.2562 304.942216 486.707763 305.482841 
Q 487.159325 306.021903 487.159325 307.007841 
L 487.159325 310.084403 
L 486.164013 310.084403 
L 486.164013 307.012528 
z
M 490.460888 310.157841 
Q 489.865575 310.157841 489.410888 309.940653 
Q 488.9562 309.723466 488.679638 309.310966 
Q 488.404638 308.898466 488.3312 308.317216 
L 488.3312 308.317216 
L 489.346825 308.317216 
L 489.346825 308.317216 
Q 489.390575 308.618778 489.53745 308.814091 
Q 489.684325 309.009403 489.915575 309.104716 
Q 490.148388 309.200028 490.460888 309.200028 
Q 490.953075 309.200028 491.226513 308.937528 
Q 491.49995 308.673466 491.49995 308.195341 
L 491.49995 307.979716 
Q 491.49995 307.446903 491.240575 307.157841 
Q 490.982763 306.867216 490.509325 306.867216 
L 490.0062 306.867216 
L 490.0062 305.918778 
L 490.509325 305.918778 
Q 490.92495 305.918778 491.153075 305.670341 
Q 491.382763 305.421903 491.382763 304.967216 
L 491.382763 304.746903 
Q 491.382763 304.328153 491.140575 304.098466 
Q 490.89995 303.868778 490.4562 303.868778 
Q 490.201513 303.868778 490.001513 303.964091 
Q 489.801513 304.059403 489.66245 304.257841 
Q 489.523388 304.454716 489.459325 304.751591 
L 489.459325 304.751591 
L 488.448388 304.751591 
L 488.448388 304.751591 
Q 488.546825 304.171903 488.817138 303.756278 
Q 489.089013 303.340653 489.503075 303.126591 
Q 489.9187 302.910966 490.4562 302.910966 
Q 491.373388 302.910966 491.876513 303.395341 
Q 492.379638 303.878153 492.379638 304.757841 
L 492.379638 304.875028 
Q 492.379638 305.406278 492.090575 305.801591 
Q 491.803075 306.196903 491.276513 306.378153 
Q 491.857763 306.504716 492.176513 306.950028 
Q 492.496825 307.393778 492.496825 308.082841 
L 492.496825 308.200028 
Q 492.496825 308.820341 492.257763 309.259403 
Q 492.0187 309.698466 491.560888 309.928153 
Q 491.104638 310.157841 490.460888 310.157841 
z
" style="fill: #ffffff; stroke: #000000"/>
    <path d="M 448.746435 310.157841 
Q 448.233935 310.157841 447.77456 310.060966 
Q 447.316747 309.962528 446.91831 309.767216 
Q 446.519872 309.571903 446.172997 309.278153 
L 446.172997 309.278153 
L 446.79331 308.517216 
L 446.79331 308.517216 
Q 447.19956 308.868778 447.68706 309.045341 
Q 448.176122 309.220341 448.746435 309.220341 
Q 449.51831 309.220341 449.94331 308.934403 
Q 450.36831 308.648466 450.36831 308.126591 
L 450.36831 308.121903 
Q 450.36831 307.750028 450.17456 307.532841 
Q 449.982372 307.315653 449.676122 307.210966 
Q 449.371435 307.106278 448.888622 307.017216 
Q 448.872997 307.012528 448.85581 307.012528 
Q 448.840185 307.012528 448.82456 307.007841 
L 448.751122 306.993778 
Q 448.038622 306.871903 447.591747 306.718778 
Q 447.144872 306.564091 446.827685 306.156278 
Q 446.510497 305.748466 446.510497 304.996903 
L 446.510497 304.992216 
Q 446.510497 304.332841 446.80581 303.867216 
Q 447.101122 303.400028 447.666747 303.156278 
Q 448.233935 302.910966 449.029247 302.910966 
Q 449.410497 302.910966 449.779247 302.995341 
Q 450.147997 303.078153 450.50581 303.242216 
Q 450.865185 303.404716 451.21206 303.653153 
L 451.21206 303.653153 
L 450.646435 304.445341 
L 450.646435 304.445341 
Q 450.240185 304.146903 449.83706 303.998466 
Q 449.435497 303.848466 449.029247 303.848466 
Q 448.302685 303.848466 447.89956 304.139091 
Q 447.496435 304.429716 447.496435 304.962528 
L 447.496435 304.967216 
Q 447.496435 305.332841 447.704247 305.543778 
Q 447.91206 305.753153 448.221435 305.853153 
Q 448.532372 305.953153 449.083935 306.060966 
Q 449.102685 306.065653 449.119872 306.068778 
Q 449.13706 306.070341 449.157372 306.075028 
Q 449.18081 306.079716 449.210497 306.085966 
Q 449.240185 306.090653 449.263622 306.095341 
Q 449.908935 306.226591 450.340185 306.407841 
Q 450.772997 306.587528 451.063622 306.990653 
Q 451.354247 307.393778 451.354247 308.092216 
L 451.354247 308.101591 
Q 451.354247 308.751591 451.046435 309.212528 
Q 450.738622 309.673466 450.154247 309.915653 
Q 449.571435 310.157841 448.746435 310.157841 
z
M 453.444286 309.137528 
L 455.050536 309.137528 
Q 455.836474 309.137528 456.267724 308.729716 
Q 456.700536 308.321903 456.700536 307.579716 
L 456.700536 305.489091 
Q 456.700536 304.746903 456.267724 304.339091 
Q 455.836474 303.931278 455.050536 303.931278 
L 453.444286 303.931278 
L 453.444286 302.984403 
L 455.020849 302.984403 
Q 455.875536 302.984403 456.480224 303.282841 
Q 457.086474 303.579716 457.403661 304.151591 
Q 457.720849 304.723466 457.720849 305.528153 
L 457.720849 307.540653 
Q 457.720849 308.345341 457.403661 308.917216 
Q 457.086474 309.489091 456.478661 309.787528 
Q 455.870849 310.084403 455.016161 310.084403 
L 453.444286 310.084403 
L 453.444286 309.137528 
z
M 452.770849 302.984403 
L 453.766161 302.984403 
L 453.766161 310.084403 
L 452.770849 310.084403 
L 452.770849 302.984403 
z
M 462.853661 303.873466 
L 461.017724 310.084403 
L 459.958349 310.084403 
L 461.794286 303.931278 
L 459.986474 303.931278 
L 459.986474 304.953153 
L 458.991161 304.953153 
L 458.991161 302.984403 
L 462.853661 302.984403 
L 462.853661 303.873466 
z
M 468.136278 306.339091 
L 468.136278 307.285966 
L 464.172216 307.285966 
L 464.172216 306.339091 
L 468.136278 306.339091 
z
M 466.651903 308.795341 
L 465.656591 308.795341 
L 465.656591 304.829716 
L 466.651903 304.829716 
L 466.651903 308.795341 
z
M 476.212841 306.260966 
L 476.212841 307.501591 
Q 476.212841 308.292216 475.905028 308.895341 
Q 475.597216 309.498466 475.033153 309.828153 
Q 474.469091 310.157841 473.726903 310.157841 
Q 472.975341 310.157841 472.406591 309.848466 
Q 471.837841 309.537528 471.525341 308.971903 
Q 471.212841 308.404716 471.212841 307.657841 
L 471.212841 305.562528 
Q 471.212841 304.771903 471.520653 304.171903 
Q 471.828466 303.570341 472.390966 303.240653 
Q 472.955028 302.910966 473.697216 302.910966 
Q 474.308153 302.910966 474.822216 303.173466 
Q 475.337841 303.434403 475.684716 303.912528 
Q 476.031591 304.390653 476.153466 305.020341 
L 476.153466 305.020341 
L 475.075341 305.020341 
L 475.075341 305.020341 
Q 474.986278 304.664091 474.776903 304.407841 
Q 474.567528 304.151591 474.283153 304.017216 
Q 474.000341 303.882841 473.697216 303.882841 
Q 473.258153 303.882841 472.925341 304.093778 
Q 472.594091 304.303153 472.412841 304.681278 
Q 472.233153 305.059403 472.233153 305.562528 
L 472.233153 307.657841 
Q 472.233153 308.117216 472.417528 308.460966 
Q 472.603466 308.804716 472.942528 308.995341 
Q 473.283153 309.185966 473.726903 309.185966 
Q 474.165966 309.185966 474.497216 308.989091 
Q 474.830028 308.790653 475.011278 308.415653 
Q 475.192528 308.039091 475.192528 307.520341 
L 475.192528 307.212528 
L 473.751903 307.212528 
L 473.751903 306.260966 
L 476.212841 306.260966 
z
M 479.801122 310.157841 
Q 479.097997 310.157841 478.59956 309.893778 
Q 478.102685 309.629716 477.840185 309.120341 
Q 477.579247 308.609403 477.579247 307.887528 
L 477.579247 307.315653 
Q 477.579247 306.564091 477.83081 306.032841 
Q 478.082372 305.500028 478.560497 305.221903 
Q 479.040185 304.942216 479.713622 304.942216 
Q 480.347997 304.942216 480.796435 305.260966 
Q 481.246435 305.578153 481.482372 306.178153 
Q 481.719872 306.778153 481.719872 307.618778 
L 481.719872 307.950028 
L 478.302685 307.950028 
L 478.302685 307.150028 
L 480.772997 307.150028 
L 480.772997 307.150028 
Q 480.729247 306.529716 480.452685 306.185966 
Q 480.177685 305.840653 479.713622 305.840653 
Q 479.146435 305.840653 478.83706 306.212528 
Q 478.527685 306.582841 478.527685 307.262528 
L 478.527685 307.906278 
Q 478.527685 308.535966 478.858935 308.873466 
Q 479.191747 309.210966 479.801122 309.210966 
Q 480.104247 309.210966 480.401122 309.089091 
Q 480.69956 308.965653 480.933935 308.746903 
L 480.933935 308.746903 
L 481.588622 309.400028 
L 481.588622 309.400028 
Q 481.21206 309.762528 480.74331 309.960966 
Q 480.27456 310.157841 479.801122 310.157841 
z
M 483.08745 305.015653 
L 484.084325 305.015653 
L 484.084325 310.084403 
L 483.08745 310.084403 
L 483.08745 305.015653 
z
M 486.164013 307.012528 
Q 486.164013 306.476591 485.885888 306.184403 
Q 485.607763 305.890653 485.104638 305.890653 
Q 484.615575 305.890653 484.34995 306.150028 
Q 484.084325 306.407841 484.084325 306.876591 
L 483.9812 305.900028 
Q 484.215575 305.440653 484.5937 305.192216 
Q 484.971825 304.942216 485.4312 304.942216 
Q 486.2562 304.942216 486.707763 305.482841 
Q 487.159325 306.021903 487.159325 307.007841 
L 487.159325 310.084403 
L 486.164013 310.084403 
L 486.164013 307.012528 
z
M 490.460888 310.157841 
Q 489.865575 310.157841 489.410888 309.940653 
Q 488.9562 309.723466 488.679638 309.310966 
Q 488.404638 308.898466 488.3312 308.317216 
L 488.3312 308.317216 
L 489.346825 308.317216 
L 489.346825 308.317216 
Q 489.390575 308.618778 489.53745 308.814091 
Q 489.684325 309.009403 489.915575 309.104716 
Q 490.148388 309.200028 490.460888 309.200028 
Q 490.953075 309.200028 491.226513 308.937528 
Q 491.49995 308.673466 491.49995 308.195341 
L 491.49995 307.979716 
Q 491.49995 307.446903 491.240575 307.157841 
Q 490.982763 306.867216 490.509325 306.867216 
L 490.0062 306.867216 
L 490.0062 305.918778 
L 490.509325 305.918778 
Q 490.92495 305.918778 491.153075 305.670341 
Q 491.382763 305.421903 491.382763 304.967216 
L 491.382763 304.746903 
Q 491.382763 304.328153 491.140575 304.098466 
Q 490.89995 303.868778 490.4562 303.868778 
Q 490.201513 303.868778 490.001513 303.964091 
Q 489.801513 304.059403 489.66245 304.257841 
Q 489.523388 304.454716 489.459325 304.751591 
L 489.459325 304.751591 
L 488.448388 304.751591 
L 488.448388 304.751591 
Q 488.546825 304.171903 488.817138 303.756278 
Q 489.089013 303.340653 489.503075 303.126591 
Q 489.9187 302.910966 490.4562 302.910966 
Q 491.373388 302.910966 491.876513 303.395341 
Q 492.379638 303.878153 492.379638 304.757841 
L 492.379638 304.875028 
Q 492.379638 305.406278 492.090575 305.801591 
Q 491.803075 306.196903 491.276513 306.378153 
Q 491.857763 306.504716 492.176513 306.950028 
Q 492.496825 307.393778 492.496825 308.082841 
L 492.496825 308.200028 
Q 492.496825 308.820341 492.257763 309.259403 
Q 492.0187 309.698466 491.560888 309.928153 
Q 491.104638 310.157841 490.460888 310.157841 
z
" style="fill: #ffffff"/>
   </g>
  </g>
 </g>
 <defs>
  <clipPath id="p669df6b434">
   <rect x="144" y="77.76" width="892.8" height="498.96"/>
  </clipPath>
 </defs>
</svg>
