<?xml version="1.0" encoding="utf-8" standalone="no"?>
<!DOCTYPE svg PUBLIC "-//W3C//DTD SVG 1.1//EN"
  "http://www.w3.org/Graphics/SVG/1.1/DTD/svg11.dtd">
<svg xmlns:xlink="http://www.w3.org/1999/xlink" width="1152pt" height="648pt" viewBox="0 0 1152 648" xmlns="http://www.w3.org/2000/svg" version="1.1">
 <metadata>
  <rdf:RDF xmlns:dc="http://purl.org/dc/elements/1.1/" xmlns:cc="http://creativecommons.org/ns#" xmlns:rdf="http://www.w3.org/1999/02/22-rdf-syntax-ns#">
   <cc:Work>
    <dc:type rdf:resource="http://purl.org/dc/dcmitype/StillImage"/>
    <dc:date>2024-10-09T18:10:10.544682</dc:date>
    <dc:format>image/svg+xml</dc:format>
    <dc:creator>
     <cc:Agent>
      <dc:title>Matplotlib v3.8.1, https://matplotlib.org/</dc:title>
     </cc:Agent>
    </dc:creator>
   </cc:Work>
  </rdf:RDF>
 </metadata>
 <defs>
  <style type="text/css">*{stroke-linejoin: round; stroke-linecap: butt}</style>
 </defs>
 <g id="figure_1">
  <g id="patch_1">
   <path d="M 0 648 
L 1152 648 
L 1152 0 
L 0 0 
L 0 648 
z
" style="fill: none"/>
  </g>
  <g id="axes_1">
   <g id="line2d_1">
    <path d="M 236.526545 479.976648 
L 239.535339 476.139504 
L 242.544132 472.30895 
L 245.552926 468.491532 
L 248.561719 464.693704 
L 251.570512 460.92179 
L 254.579306 457.181936 
L 257.588099 453.480079 
L 260.596893 449.821903 
L 263.605686 446.212813 
L 266.614479 442.657903 
L 269.623273 439.161931 
L 272.632066 435.729302 
L 275.64086 432.364047 
L 278.649653 429.069813 
L 281.658446 425.849858 
L 284.66724 422.707045 
L 287.676033 419.643842 
L 290.684826 416.662328 
L 293.69362 413.764197 
L 296.702413 410.950774 
L 299.711207 408.223024 
L 302.72 405.581569 
L 305.728793 403.026704 
L 308.737587 400.558418 
L 311.74638 398.176415 
L 314.755174 395.880129 
L 317.763967 393.668753 
L 320.77276 391.541257 
L 323.781554 389.496409 
L 326.790347 387.5328 
L 329.79914 385.648861 
L 332.807934 383.842884 
L 335.816727 382.113044 
L 338.825521 380.457415 
L 341.834314 378.87399 
L 344.843107 377.360693 
L 347.851901 375.915399 
L 350.860694 374.535946 
L 353.869488 373.22015 
L 356.878281 371.965811 
L 359.887074 370.770732 
L 362.895868 369.632724 
L 365.904661 368.549612 
L 368.913455 367.51925 
L 371.922248 366.539521 
L 374.931041 365.608345 
L 377.939835 364.723687 
L 380.948628 363.883555 
L 383.957421 363.086009 
L 386.966215 362.329161 
L 389.975008 361.611178 
L 392.983802 360.930282 
L 395.992595 360.284756 
L 399.001388 359.67294 
L 402.010182 359.093231 
L 405.018975 358.544088 
L 408.027769 358.024027 
L 411.036562 357.531622 
L 414.045355 357.065507 
L 417.054149 356.624369 
L 420.062942 356.206953 
L 423.071736 355.812057 
L 426.080529 355.438532 
L 429.089322 355.08528 
L 432.098116 354.751255 
L 435.106909 354.435457 
L 438.115702 354.136934 
L 441.124496 353.854778 
L 444.133289 353.588126 
L 447.142083 353.336156 
L 450.150876 353.098087 
L 453.159669 352.873175 
L 456.168463 352.660716 
L 459.177256 352.460038 
L 462.18605 352.270506 
L 465.194843 352.091515 
L 468.203636 351.922493 
L 471.21243 351.762897 
L 474.221223 351.612211 
L 477.230017 351.469949 
L 480.23881 351.335647 
L 483.247603 351.208868 
L 486.256397 351.089198 
L 489.26519 350.976243 
L 492.273983 350.869633 
L 495.282777 350.769015 
L 498.29157 350.674058 
L 501.300364 350.584446 
L 504.309157 350.499882 
L 507.31795 350.420085 
L 510.326744 350.344789 
L 513.335537 350.273742 
L 516.344331 350.206706 
L 519.353124 350.143458 
L 522.361917 350.083784 
L 525.370711 350.027485 
L 528.379504 349.97437 
L 531.388298 349.924261 
L 534.397091 349.876989 
" clip-path="url(#p4c8a5ce84d)" style="fill: none; stroke: #30b1f2; stroke-width: 3; stroke-linecap: round"/>
   </g>
   <g id="text_1">
    <path d="M 542.198946 345.004807 
L 543.194258 345.004807 
L 543.194258 351.523557 
L 542.198946 351.523557 
L 542.198946 345.004807 
z
M 540.191133 344.423557 
L 545.202071 344.423557 
L 545.202071 345.370432 
L 540.191133 345.370432 
L 540.191133 344.423557 
z
M 547.960274 351.596994 
Q 547.257149 351.596994 546.758712 351.332932 
Q 546.261837 351.068869 545.999337 350.559494 
Q 545.738399 350.048557 545.738399 349.326682 
L 545.738399 348.754807 
Q 545.738399 348.003244 545.989962 347.471994 
Q 546.241524 346.939182 546.719649 346.661057 
Q 547.199337 346.381369 547.872774 346.381369 
Q 548.507149 346.381369 548.955587 346.700119 
Q 549.405587 347.017307 549.641524 347.617307 
Q 549.879024 348.217307 549.879024 349.057932 
L 549.879024 349.389182 
L 546.461837 349.389182 
L 546.461837 348.589182 
L 548.932149 348.589182 
L 548.932149 348.589182 
Q 548.888399 347.968869 548.611837 347.625119 
Q 548.336837 347.279807 547.872774 347.279807 
Q 547.305587 347.279807 546.996212 347.651682 
Q 546.686837 348.021994 546.686837 348.701682 
L 546.686837 349.345432 
Q 546.686837 349.975119 547.018087 350.312619 
Q 547.350899 350.650119 547.960274 350.650119 
Q 548.263399 350.650119 548.560274 350.528244 
Q 548.858712 350.404807 549.093087 350.186057 
L 549.093087 350.186057 
L 549.747774 350.839182 
L 549.747774 350.839182 
Q 549.371212 351.201682 548.902462 351.400119 
Q 548.433712 351.596994 547.960274 351.596994 
z
M 551.246602 346.454807 
L 552.243477 346.454807 
L 552.243477 351.523557 
L 551.246602 351.523557 
L 551.246602 346.454807 
z
M 554.323165 348.451682 
Q 554.323165 347.915744 554.04504 347.623557 
Q 553.766915 347.329807 553.26379 347.329807 
Q 552.774727 347.329807 552.509102 347.589182 
Q 552.243477 347.846994 552.243477 348.315744 
L 552.140352 347.339182 
Q 552.374727 346.879807 552.752852 346.631369 
Q 553.130977 346.381369 553.590352 346.381369 
Q 554.415352 346.381369 554.866915 346.921994 
Q 555.318477 347.461057 555.318477 348.446994 
L 555.318477 351.523557 
L 554.323165 351.523557 
L 554.323165 348.451682 
z
M 558.624727 351.596994 
Q 558.174727 351.596994 557.780977 351.509494 
Q 557.38879 351.420432 557.046602 351.245432 
Q 556.705977 351.068869 556.416915 350.806369 
L 556.416915 350.806369 
L 557.009102 350.078244 
L 557.009102 350.078244 
Q 557.418477 350.390744 557.823165 350.546994 
Q 558.229415 350.703244 558.624727 350.703244 
Q 559.215352 350.703244 559.510665 350.520432 
Q 559.805977 350.337619 559.805977 349.970432 
Q 559.805977 349.726682 559.64504 349.604807 
Q 559.484102 349.482932 559.24504 349.442307 
Q 559.005977 349.400119 558.571602 349.365744 
Q 558.53254 349.365744 558.487227 349.364182 
Q 558.443477 349.361057 558.404415 349.354807 
Q 558.385665 349.354807 558.365352 349.353244 
Q 558.346602 349.350119 558.32629 349.350119 
Q 557.834102 349.311057 557.491915 349.206369 
Q 557.149727 349.101682 556.923165 348.814182 
Q 556.696602 348.525119 556.696602 347.987619 
Q 556.696602 347.451682 556.915352 347.095432 
Q 557.135665 346.737619 557.57004 346.559494 
Q 558.004415 346.381369 558.659102 346.381369 
Q 559.054415 346.381369 559.412227 346.454807 
Q 559.771602 346.528244 560.098165 346.671994 
Q 560.42629 346.815744 560.729415 347.036057 
L 560.729415 347.036057 
L 560.127852 347.764182 
L 560.127852 347.764182 
Q 559.748165 347.518869 559.379415 347.396994 
Q 559.010665 347.275119 558.659102 347.275119 
Q 558.15129 347.275119 557.896602 347.448557 
Q 557.643477 347.621994 557.643477 347.968869 
Q 557.643477 348.173557 557.787227 348.276682 
Q 557.930977 348.378244 558.149727 348.412619 
Q 558.37004 348.446994 558.77629 348.471994 
Q 558.805977 348.476682 558.837227 348.476682 
Q 558.868477 348.476682 558.902852 348.481369 
Q 558.916915 348.481369 558.930977 348.481369 
Q 558.946602 348.481369 558.962227 348.486057 
Q 559.493477 348.520432 559.866915 348.628244 
Q 560.240352 348.736057 560.493477 349.053244 
Q 560.748165 349.370432 560.748165 349.970432 
Q 560.748165 350.517307 560.51379 350.876682 
Q 560.279415 351.236057 559.80754 351.417307 
Q 559.337227 351.596994 558.624727 351.596994 
z
M 563.961837 351.596994 
Q 563.302462 351.596994 562.833712 351.339182 
Q 562.364962 351.079807 562.118087 350.584494 
Q 561.871212 350.087619 561.871212 349.389182 
L 561.871212 348.564182 
Q 561.871212 347.876682 562.118087 347.386057 
Q 562.364962 346.893869 562.833712 346.637619 
Q 563.302462 346.381369 563.961837 346.381369 
Q 564.621212 346.381369 565.089962 346.637619 
Q 565.558712 346.893869 565.804024 347.386057 
Q 566.050899 347.876682 566.050899 348.564182 
L 566.050899 349.404807 
Q 566.050899 350.096994 565.804024 350.589182 
Q 565.558712 351.079807 565.089962 351.339182 
Q 564.621212 351.596994 563.961837 351.596994 
z
M 563.961837 350.650119 
Q 564.483712 350.650119 564.769649 350.323557 
Q 565.055587 349.995432 565.055587 349.404807 
L 565.055587 348.564182 
Q 565.055587 347.973557 564.769649 347.651682 
Q 564.483712 347.329807 563.961837 347.329807 
Q 563.438399 347.329807 563.152462 347.651682 
Q 562.868087 347.973557 562.868087 348.564182 
L 562.868087 349.404807 
Q 562.868087 349.995432 563.152462 350.323557 
Q 563.438399 350.650119 563.961837 350.650119 
z
M 567.467305 346.454807 
L 568.46418 346.454807 
L 568.46418 351.523557 
L 567.467305 351.523557 
L 567.467305 346.454807 
z
M 570.254805 347.656369 
Q 570.123555 347.495432 569.923555 347.412619 
Q 569.723555 347.329807 569.459493 347.329807 
Q 568.986055 347.329807 568.725118 347.590744 
Q 568.46418 347.851682 568.46418 348.315744 
L 568.361055 347.339182 
Q 568.59543 346.884494 568.965743 346.632932 
Q 569.337618 346.381369 569.786055 346.381369 
Q 570.13293 346.381369 570.41418 346.481369 
Q 570.69543 346.581369 570.904805 346.776682 
L 570.254805 347.656369 
z
M 578.39543 347.700119 
L 578.39543 348.940744 
Q 578.39543 349.731369 578.087618 350.334494 
Q 577.779805 350.937619 577.215743 351.267307 
Q 576.65168 351.596994 575.909493 351.596994 
Q 575.15793 351.596994 574.58918 351.287619 
Q 574.02043 350.976682 573.70793 350.411057 
Q 573.39543 349.843869 573.39543 349.096994 
L 573.39543 347.001682 
Q 573.39543 346.211057 573.703243 345.611057 
Q 574.011055 345.009494 574.573555 344.679807 
Q 575.137618 344.350119 575.879805 344.350119 
Q 576.490743 344.350119 577.004805 344.612619 
Q 577.52043 344.873557 577.867305 345.351682 
Q 578.21418 345.829807 578.336055 346.459494 
L 578.336055 346.459494 
L 577.25793 346.459494 
L 577.25793 346.459494 
Q 577.168868 346.103244 576.959493 345.846994 
Q 576.750118 345.590744 576.465743 345.456369 
Q 576.18293 345.321994 575.879805 345.321994 
Q 575.440743 345.321994 575.10793 345.532932 
Q 574.77668 345.742307 574.59543 346.120432 
Q 574.415743 346.498557 574.415743 347.001682 
L 574.415743 349.096994 
Q 574.415743 349.556369 574.600118 349.900119 
Q 574.786055 350.243869 575.125118 350.434494 
Q 575.465743 350.625119 575.909493 350.625119 
Q 576.348555 350.625119 576.679805 350.428244 
Q 577.012618 350.229807 577.193868 349.854807 
Q 577.375118 349.478244 577.375118 348.959494 
L 577.375118 348.651682 
L 575.934493 348.651682 
L 575.934493 347.700119 
L 578.39543 347.700119 
z
M 581.696212 351.596994 
Q 581.100899 351.596994 580.646212 351.379807 
Q 580.191524 351.162619 579.914962 350.750119 
Q 579.639962 350.337619 579.566524 349.756369 
L 579.566524 349.756369 
L 580.582149 349.756369 
L 580.582149 349.756369 
Q 580.625899 350.057932 580.772774 350.253244 
Q 580.919649 350.448557 581.150899 350.543869 
Q 581.383712 350.639182 581.696212 350.639182 
Q 582.188399 350.639182 582.461837 350.376682 
Q 582.735274 350.112619 582.735274 349.634494 
L 582.735274 349.418869 
Q 582.735274 348.886057 582.475899 348.596994 
Q 582.218087 348.306369 581.744649 348.306369 
L 581.241524 348.306369 
L 581.241524 347.357932 
L 581.744649 347.357932 
Q 582.160274 347.357932 582.388399 347.109494 
Q 582.618087 346.861057 582.618087 346.406369 
L 582.618087 346.186057 
Q 582.618087 345.767307 582.375899 345.537619 
Q 582.135274 345.307932 581.691524 345.307932 
Q 581.436837 345.307932 581.236837 345.403244 
Q 581.036837 345.498557 580.897774 345.696994 
Q 580.758712 345.893869 580.694649 346.190744 
L 580.694649 346.190744 
L 579.683712 346.190744 
L 579.683712 346.190744 
Q 579.782149 345.611057 580.052462 345.195432 
Q 580.324337 344.779807 580.738399 344.565744 
Q 581.154024 344.350119 581.691524 344.350119 
Q 582.608712 344.350119 583.111837 344.834494 
Q 583.614962 345.317307 583.614962 346.196994 
L 583.614962 346.314182 
Q 583.614962 346.845432 583.325899 347.240744 
Q 583.038399 347.636057 582.511837 347.817307 
Q 583.093087 347.943869 583.411837 348.389182 
Q 583.732149 348.832932 583.732149 349.521994 
L 583.732149 349.639182 
Q 583.732149 350.259494 583.493087 350.698557 
Q 583.254024 351.137619 582.796212 351.367307 
Q 582.339962 351.596994 581.696212 351.596994 
z
" style="fill: #ffffff; stroke: #000000"/>
    <path d="M 542.198946 345.004807 
L 543.194258 345.004807 
L 543.194258 351.523557 
L 542.198946 351.523557 
L 542.198946 345.004807 
z
M 540.191133 344.423557 
L 545.202071 344.423557 
L 545.202071 345.370432 
L 540.191133 345.370432 
L 540.191133 344.423557 
z
M 547.960274 351.596994 
Q 547.257149 351.596994 546.758712 351.332932 
Q 546.261837 351.068869 545.999337 350.559494 
Q 545.738399 350.048557 545.738399 349.326682 
L 545.738399 348.754807 
Q 545.738399 348.003244 545.989962 347.471994 
Q 546.241524 346.939182 546.719649 346.661057 
Q 547.199337 346.381369 547.872774 346.381369 
Q 548.507149 346.381369 548.955587 346.700119 
Q 549.405587 347.017307 549.641524 347.617307 
Q 549.879024 348.217307 549.879024 349.057932 
L 549.879024 349.389182 
L 546.461837 349.389182 
L 546.461837 348.589182 
L 548.932149 348.589182 
L 548.932149 348.589182 
Q 548.888399 347.968869 548.611837 347.625119 
Q 548.336837 347.279807 547.872774 347.279807 
Q 547.305587 347.279807 546.996212 347.651682 
Q 546.686837 348.021994 546.686837 348.701682 
L 546.686837 349.345432 
Q 546.686837 349.975119 547.018087 350.312619 
Q 547.350899 350.650119 547.960274 350.650119 
Q 548.263399 350.650119 548.560274 350.528244 
Q 548.858712 350.404807 549.093087 350.186057 
L 549.093087 350.186057 
L 549.747774 350.839182 
L 549.747774 350.839182 
Q 549.371212 351.201682 548.902462 351.400119 
Q 548.433712 351.596994 547.960274 351.596994 
z
M 551.246602 346.454807 
L 552.243477 346.454807 
L 552.243477 351.523557 
L 551.246602 351.523557 
L 551.246602 346.454807 
z
M 554.323165 348.451682 
Q 554.323165 347.915744 554.04504 347.623557 
Q 553.766915 347.329807 553.26379 347.329807 
Q 552.774727 347.329807 552.509102 347.589182 
Q 552.243477 347.846994 552.243477 348.315744 
L 552.140352 347.339182 
Q 552.374727 346.879807 552.752852 346.631369 
Q 553.130977 346.381369 553.590352 346.381369 
Q 554.415352 346.381369 554.866915 346.921994 
Q 555.318477 347.461057 555.318477 348.446994 
L 555.318477 351.523557 
L 554.323165 351.523557 
L 554.323165 348.451682 
z
M 558.624727 351.596994 
Q 558.174727 351.596994 557.780977 351.509494 
Q 557.38879 351.420432 557.046602 351.245432 
Q 556.705977 351.068869 556.416915 350.806369 
L 556.416915 350.806369 
L 557.009102 350.078244 
L 557.009102 350.078244 
Q 557.418477 350.390744 557.823165 350.546994 
Q 558.229415 350.703244 558.624727 350.703244 
Q 559.215352 350.703244 559.510665 350.520432 
Q 559.805977 350.337619 559.805977 349.970432 
Q 559.805977 349.726682 559.64504 349.604807 
Q 559.484102 349.482932 559.24504 349.442307 
Q 559.005977 349.400119 558.571602 349.365744 
Q 558.53254 349.365744 558.487227 349.364182 
Q 558.443477 349.361057 558.404415 349.354807 
Q 558.385665 349.354807 558.365352 349.353244 
Q 558.346602 349.350119 558.32629 349.350119 
Q 557.834102 349.311057 557.491915 349.206369 
Q 557.149727 349.101682 556.923165 348.814182 
Q 556.696602 348.525119 556.696602 347.987619 
Q 556.696602 347.451682 556.915352 347.095432 
Q 557.135665 346.737619 557.57004 346.559494 
Q 558.004415 346.381369 558.659102 346.381369 
Q 559.054415 346.381369 559.412227 346.454807 
Q 559.771602 346.528244 560.098165 346.671994 
Q 560.42629 346.815744 560.729415 347.036057 
L 560.729415 347.036057 
L 560.127852 347.764182 
L 560.127852 347.764182 
Q 559.748165 347.518869 559.379415 347.396994 
Q 559.010665 347.275119 558.659102 347.275119 
Q 558.15129 347.275119 557.896602 347.448557 
Q 557.643477 347.621994 557.643477 347.968869 
Q 557.643477 348.173557 557.787227 348.276682 
Q 557.930977 348.378244 558.149727 348.412619 
Q 558.37004 348.446994 558.77629 348.471994 
Q 558.805977 348.476682 558.837227 348.476682 
Q 558.868477 348.476682 558.902852 348.481369 
Q 558.916915 348.481369 558.930977 348.481369 
Q 558.946602 348.481369 558.962227 348.486057 
Q 559.493477 348.520432 559.866915 348.628244 
Q 560.240352 348.736057 560.493477 349.053244 
Q 560.748165 349.370432 560.748165 349.970432 
Q 560.748165 350.517307 560.51379 350.876682 
Q 560.279415 351.236057 559.80754 351.417307 
Q 559.337227 351.596994 558.624727 351.596994 
z
M 563.961837 351.596994 
Q 563.302462 351.596994 562.833712 351.339182 
Q 562.364962 351.079807 562.118087 350.584494 
Q 561.871212 350.087619 561.871212 349.389182 
L 561.871212 348.564182 
Q 561.871212 347.876682 562.118087 347.386057 
Q 562.364962 346.893869 562.833712 346.637619 
Q 563.302462 346.381369 563.961837 346.381369 
Q 564.621212 346.381369 565.089962 346.637619 
Q 565.558712 346.893869 565.804024 347.386057 
Q 566.050899 347.876682 566.050899 348.564182 
L 566.050899 349.404807 
Q 566.050899 350.096994 565.804024 350.589182 
Q 565.558712 351.079807 565.089962 351.339182 
Q 564.621212 351.596994 563.961837 351.596994 
z
M 563.961837 350.650119 
Q 564.483712 350.650119 564.769649 350.323557 
Q 565.055587 349.995432 565.055587 349.404807 
L 565.055587 348.564182 
Q 565.055587 347.973557 564.769649 347.651682 
Q 564.483712 347.329807 563.961837 347.329807 
Q 563.438399 347.329807 563.152462 347.651682 
Q 562.868087 347.973557 562.868087 348.564182 
L 562.868087 349.404807 
Q 562.868087 349.995432 563.152462 350.323557 
Q 563.438399 350.650119 563.961837 350.650119 
z
M 567.467305 346.454807 
L 568.46418 346.454807 
L 568.46418 351.523557 
L 567.467305 351.523557 
L 567.467305 346.454807 
z
M 570.254805 347.656369 
Q 570.123555 347.495432 569.923555 347.412619 
Q 569.723555 347.329807 569.459493 347.329807 
Q 568.986055 347.329807 568.725118 347.590744 
Q 568.46418 347.851682 568.46418 348.315744 
L 568.361055 347.339182 
Q 568.59543 346.884494 568.965743 346.632932 
Q 569.337618 346.381369 569.786055 346.381369 
Q 570.13293 346.381369 570.41418 346.481369 
Q 570.69543 346.581369 570.904805 346.776682 
L 570.254805 347.656369 
z
M 578.39543 347.700119 
L 578.39543 348.940744 
Q 578.39543 349.731369 578.087618 350.334494 
Q 577.779805 350.937619 577.215743 351.267307 
Q 576.65168 351.596994 575.909493 351.596994 
Q 575.15793 351.596994 574.58918 351.287619 
Q 574.02043 350.976682 573.70793 350.411057 
Q 573.39543 349.843869 573.39543 349.096994 
L 573.39543 347.001682 
Q 573.39543 346.211057 573.703243 345.611057 
Q 574.011055 345.009494 574.573555 344.679807 
Q 575.137618 344.350119 575.879805 344.350119 
Q 576.490743 344.350119 577.004805 344.612619 
Q 577.52043 344.873557 577.867305 345.351682 
Q 578.21418 345.829807 578.336055 346.459494 
L 578.336055 346.459494 
L 577.25793 346.459494 
L 577.25793 346.459494 
Q 577.168868 346.103244 576.959493 345.846994 
Q 576.750118 345.590744 576.465743 345.456369 
Q 576.18293 345.321994 575.879805 345.321994 
Q 575.440743 345.321994 575.10793 345.532932 
Q 574.77668 345.742307 574.59543 346.120432 
Q 574.415743 346.498557 574.415743 347.001682 
L 574.415743 349.096994 
Q 574.415743 349.556369 574.600118 349.900119 
Q 574.786055 350.243869 575.125118 350.434494 
Q 575.465743 350.625119 575.909493 350.625119 
Q 576.348555 350.625119 576.679805 350.428244 
Q 577.012618 350.229807 577.193868 349.854807 
Q 577.375118 349.478244 577.375118 348.959494 
L 577.375118 348.651682 
L 575.934493 348.651682 
L 575.934493 347.700119 
L 578.39543 347.700119 
z
M 581.696212 351.596994 
Q 581.100899 351.596994 580.646212 351.379807 
Q 580.191524 351.162619 579.914962 350.750119 
Q 579.639962 350.337619 579.566524 349.756369 
L 579.566524 349.756369 
L 580.582149 349.756369 
L 580.582149 349.756369 
Q 580.625899 350.057932 580.772774 350.253244 
Q 580.919649 350.448557 581.150899 350.543869 
Q 581.383712 350.639182 581.696212 350.639182 
Q 582.188399 350.639182 582.461837 350.376682 
Q 582.735274 350.112619 582.735274 349.634494 
L 582.735274 349.418869 
Q 582.735274 348.886057 582.475899 348.596994 
Q 582.218087 348.306369 581.744649 348.306369 
L 581.241524 348.306369 
L 581.241524 347.357932 
L 581.744649 347.357932 
Q 582.160274 347.357932 582.388399 347.109494 
Q 582.618087 346.861057 582.618087 346.406369 
L 582.618087 346.186057 
Q 582.618087 345.767307 582.375899 345.537619 
Q 582.135274 345.307932 581.691524 345.307932 
Q 581.436837 345.307932 581.236837 345.403244 
Q 581.036837 345.498557 580.897774 345.696994 
Q 580.758712 345.893869 580.694649 346.190744 
L 580.694649 346.190744 
L 579.683712 346.190744 
L 579.683712 346.190744 
Q 579.782149 345.611057 580.052462 345.195432 
Q 580.324337 344.779807 580.738399 344.565744 
Q 581.154024 344.350119 581.691524 344.350119 
Q 582.608712 344.350119 583.111837 344.834494 
Q 583.614962 345.317307 583.614962 346.196994 
L 583.614962 346.314182 
Q 583.614962 346.845432 583.325899 347.240744 
Q 583.038399 347.636057 582.511837 347.817307 
Q 583.093087 347.943869 583.411837 348.389182 
Q 583.732149 348.832932 583.732149 349.521994 
L 583.732149 349.639182 
Q 583.732149 350.259494 583.493087 350.698557 
Q 583.254024 351.137619 582.796212 351.367307 
Q 582.339962 351.596994 581.696212 351.596994 
z
" style="fill: #ffffff"/>
   </g>
  </g>
 </g>
 <defs>
  <clipPath id="p4c8a5ce84d">
   <rect x="144" y="77.76" width="892.8" height="498.96"/>
  </clipPath>
 </defs>
</svg>
