<?xml version="1.0" encoding="utf-8" standalone="no"?>
<!DOCTYPE svg PUBLIC "-//W3C//DTD SVG 1.1//EN"
  "http://www.w3.org/Graphics/SVG/1.1/DTD/svg11.dtd">
<svg xmlns:xlink="http://www.w3.org/1999/xlink" width="1152pt" height="648pt" viewBox="0 0 1152 648" xmlns="http://www.w3.org/2000/svg" version="1.1">
 <metadata>
  <rdf:RDF xmlns:dc="http://purl.org/dc/elements/1.1/" xmlns:cc="http://creativecommons.org/ns#" xmlns:rdf="http://www.w3.org/1999/02/22-rdf-syntax-ns#">
   <cc:Work>
    <dc:type rdf:resource="http://purl.org/dc/dcmitype/StillImage"/>
    <dc:date>2024-10-09T18:10:10.144014</dc:date>
    <dc:format>image/svg+xml</dc:format>
    <dc:creator>
     <cc:Agent>
      <dc:title>Matplotlib v3.8.1, https://matplotlib.org/</dc:title>
     </cc:Agent>
    </dc:creator>
   </cc:Work>
  </rdf:RDF>
 </metadata>
 <defs>
  <style type="text/css">*{stroke-linejoin: round; stroke-linecap: butt}</style>
 </defs>
 <g id="figure_1">
  <g id="patch_1">
   <path d="M 0 648 
L 1152 648 
L 1152 0 
L 0 0 
L 0 648 
z
" style="fill: none"/>
  </g>
  <g id="axes_1">
   <g id="line2d_1">
    <path d="M 205.278545 458.792732 
L 209.127669 452.694622 
L 212.976793 446.725035 
L 216.825917 440.881271 
L 220.675041 435.160687 
L 224.524165 429.560694 
L 228.373289 424.07876 
L 232.222413 418.712403 
L 236.071537 413.459194 
L 239.920661 408.316754 
L 243.769785 403.282755 
L 247.618909 398.354917 
L 251.468033 393.531008 
L 255.317157 388.808841 
L 259.166281 384.186276 
L 263.015405 379.661219 
L 266.864529 375.231618 
L 270.713653 370.895465 
L 274.562777 366.650792 
L 278.411901 362.495675 
L 282.261025 358.428229 
L 286.110149 354.446609 
L 289.959273 350.549007 
L 293.808397 346.733655 
L 297.657521 342.998821 
L 301.506645 339.342809 
L 305.355769 335.763959 
L 309.204893 332.260646 
L 313.054017 328.831279 
L 316.90314 325.474301 
L 320.752264 322.188186 
L 324.601388 318.971441 
L 328.450512 315.822605 
L 332.299636 312.740246 
L 336.14876 309.722964 
L 339.997884 306.769387 
L 343.847008 303.878172 
L 347.696132 301.048005 
L 351.545256 298.277598 
L 355.39438 295.565693 
L 359.243504 292.911056 
L 363.092628 290.312478 
L 366.941752 287.768779 
L 370.790876 285.2788 
L 374.64 282.84141 
L 378.489124 280.455498 
L 382.338248 278.119979 
L 386.187372 275.83379 
L 390.036496 273.595891 
L 393.88562 271.405263 
L 397.734744 269.260909 
L 401.583868 267.161852 
L 405.432992 265.107136 
L 409.282116 263.095827 
L 413.13124 261.127008 
L 416.980364 259.199783 
L 420.829488 257.313273 
L 424.678612 255.466621 
L 428.527736 253.658983 
L 432.37686 251.889538 
L 436.225983 250.157478 
L 440.075107 248.462016 
L 443.924231 246.802378 
L 447.773355 245.177807 
L 451.622479 243.587565 
L 455.471603 242.030926 
L 459.320727 240.50718 
L 463.169851 239.015634 
L 467.018975 237.555606 
L 470.868099 236.126433 
L 474.717223 234.727462 
L 478.566347 233.358056 
L 482.415471 232.01759 
L 486.264595 230.705453 
L 490.113719 229.421048 
L 493.962843 228.163787 
L 497.811967 226.933099 
L 501.661091 225.728421 
L 505.510215 224.549205 
L 509.359339 223.394913 
L 513.208463 222.265017 
L 517.057587 221.159004 
L 520.906711 220.076368 
L 524.755835 219.016616 
L 528.604959 217.979264 
L 532.454083 216.96384 
L 536.303207 215.969879 
L 540.152331 214.996928 
L 544.001455 214.044544 
L 547.850579 213.112292 
L 551.699702 212.199747 
L 555.548826 211.306492 
L 559.39795 210.43212 
L 563.247074 209.576232 
L 567.096198 208.738437 
L 570.945322 207.918352 
L 574.794446 207.115605 
L 578.64357 206.329828 
L 582.492694 205.560663 
L 586.341818 204.807759 
" clip-path="url(#pe509a4d990)" style="fill: none; stroke: #30f2f2; stroke-width: 3; stroke-linecap: round"/>
   </g>
   <g id="text_1">
    <path d="M 595.246798 206.527764 
Q 594.734298 206.527764 594.274923 206.430889 
Q 593.817111 206.332452 593.418673 206.137139 
Q 593.020236 205.941827 592.673361 205.648077 
L 592.673361 205.648077 
L 593.293673 204.887139 
L 593.293673 204.887139 
Q 593.699923 205.238702 594.187423 205.415264 
Q 594.676486 205.590264 595.246798 205.590264 
Q 596.018673 205.590264 596.443673 205.304327 
Q 596.868673 205.018389 596.868673 204.496514 
L 596.868673 204.491827 
Q 596.868673 204.119952 596.674923 203.902764 
Q 596.482736 203.685577 596.176486 203.580889 
Q 595.871798 203.476202 595.388986 203.387139 
Q 595.373361 203.382452 595.356173 203.382452 
Q 595.340548 203.382452 595.324923 203.377764 
L 595.251486 203.363702 
Q 594.538986 203.241827 594.092111 203.088702 
Q 593.645236 202.934014 593.328048 202.526202 
Q 593.010861 202.118389 593.010861 201.366827 
L 593.010861 201.362139 
Q 593.010861 200.702764 593.306173 200.237139 
Q 593.601486 199.769952 594.167111 199.526202 
Q 594.734298 199.280889 595.529611 199.280889 
Q 595.910861 199.280889 596.279611 199.365264 
Q 596.648361 199.448077 597.006173 199.612139 
Q 597.365548 199.774639 597.712423 200.023077 
L 597.712423 200.023077 
L 597.146798 200.815264 
L 597.146798 200.815264 
Q 596.740548 200.516827 596.337423 200.368389 
Q 595.935861 200.218389 595.529611 200.218389 
Q 594.803048 200.218389 594.399923 200.509014 
Q 593.996798 200.799639 593.996798 201.332452 
L 593.996798 201.337139 
Q 593.996798 201.702764 594.204611 201.913702 
Q 594.412423 202.123077 594.721798 202.223077 
Q 595.032736 202.323077 595.584298 202.430889 
Q 595.603048 202.435577 595.620236 202.438702 
Q 595.637423 202.440264 595.657736 202.444952 
Q 595.681173 202.449639 595.710861 202.455889 
Q 595.740548 202.460577 595.763986 202.465264 
Q 596.409298 202.596514 596.840548 202.777764 
Q 597.273361 202.957452 597.563986 203.360577 
Q 597.854611 203.763702 597.854611 204.462139 
L 597.854611 204.471514 
Q 597.854611 205.121514 597.546798 205.582452 
Q 597.238986 206.043389 596.654611 206.285577 
Q 596.071798 206.527764 595.246798 206.527764 
z
M 599.94465 205.507452 
L 601.5509 205.507452 
Q 602.336837 205.507452 602.768087 205.099639 
Q 603.2009 204.691827 603.2009 203.949639 
L 603.2009 201.859014 
Q 603.2009 201.116827 602.768087 200.709014 
Q 602.336837 200.301202 601.5509 200.301202 
L 599.94465 200.301202 
L 599.94465 199.354327 
L 601.521212 199.354327 
Q 602.3759 199.354327 602.980587 199.652764 
Q 603.586837 199.949639 603.904025 200.521514 
Q 604.221212 201.093389 604.221212 201.898077 
L 604.221212 203.910577 
Q 604.221212 204.715264 603.904025 205.287139 
Q 603.586837 205.859014 602.979025 206.157452 
Q 602.371212 206.454327 601.516525 206.454327 
L 599.94465 206.454327 
L 599.94465 205.507452 
z
M 599.271212 199.354327 
L 600.266525 199.354327 
L 600.266525 206.454327 
L 599.271212 206.454327 
L 599.271212 199.354327 
z
M 607.766525 206.527764 
Q 607.122775 206.527764 606.633712 206.284014 
Q 606.146212 206.038702 605.879025 205.591827 
Q 605.6134 205.144952 605.6134 204.554327 
L 605.6134 204.437139 
Q 605.6134 203.905889 605.879025 203.437139 
Q 606.146212 202.968389 606.589962 202.729327 
Q 606.2134 202.523077 605.986837 202.135577 
Q 605.760275 201.746514 605.760275 201.316827 
L 605.760275 201.146514 
Q 605.760275 200.590264 606.008712 200.168389 
Q 606.25715 199.744952 606.711837 199.513702 
Q 607.166525 199.280889 607.766525 199.280889 
Q 608.366525 199.280889 608.821212 199.513702 
Q 609.2759 199.744952 609.524337 200.168389 
Q 609.772775 200.590264 609.772775 201.146514 
L 609.772775 201.316827 
Q 609.772775 201.757452 609.541525 202.143389 
Q 609.310275 202.527764 608.929025 202.729327 
Q 609.377462 202.973077 609.647775 203.440264 
Q 609.91965 203.905889 609.91965 204.437139 
L 609.91965 204.554327 
Q 609.91965 205.144952 609.654025 205.591827 
Q 609.3884 206.038702 608.899337 206.284014 
Q 608.411837 206.527764 607.766525 206.527764 
z
M 607.766525 205.569952 
Q 608.1134 205.569952 608.3759 205.434014 
Q 608.639962 205.296514 608.783712 205.051202 
Q 608.929025 204.804327 608.929025 204.480889 
L 608.929025 204.413702 
Q 608.929025 204.085577 608.783712 203.840264 
Q 608.639962 203.593389 608.3759 203.457452 
Q 608.1134 203.319952 607.766525 203.319952 
Q 607.41965 203.319952 607.155587 203.457452 
Q 606.893087 203.593389 606.747775 203.841827 
Q 606.604025 204.090264 606.604025 204.418389 
L 606.604025 204.491827 
Q 606.604025 204.813702 606.747775 205.057452 
Q 606.893087 205.301202 607.155587 205.435577 
Q 607.41965 205.569952 607.766525 205.569952 
z
M 607.766525 202.362139 
Q 608.064962 202.362139 608.293087 202.234014 
Q 608.522775 202.104327 608.649337 201.865264 
Q 608.777462 201.624639 608.777462 201.312139 
L 608.777462 201.244952 
Q 608.777462 200.946514 608.649337 200.716827 
Q 608.522775 200.487139 608.293087 200.363702 
Q 608.064962 200.238702 607.766525 200.238702 
Q 607.468087 200.238702 607.2384 200.363702 
Q 607.010275 200.487139 606.88215 200.716827 
Q 606.755587 200.946514 606.755587 201.249639 
L 606.755587 201.323077 
Q 606.755587 201.629327 606.88215 201.866827 
Q 607.010275 202.104327 607.2384 202.234014 
Q 607.468087 202.362139 607.766525 202.362139 
z
M 618.020822 202.630889 
L 618.020822 203.871514 
Q 618.020822 204.662139 617.713009 205.265264 
Q 617.405197 205.868389 616.841134 206.198077 
Q 616.277072 206.527764 615.534884 206.527764 
Q 614.783322 206.527764 614.214572 206.218389 
Q 613.645822 205.907452 613.333322 205.341827 
Q 613.020822 204.774639 613.020822 204.027764 
L 613.020822 201.932452 
Q 613.020822 201.141827 613.328634 200.541827 
Q 613.636447 199.940264 614.198947 199.610577 
Q 614.763009 199.280889 615.505197 199.280889 
Q 616.116134 199.280889 616.630197 199.543389 
Q 617.145822 199.804327 617.492697 200.282452 
Q 617.839572 200.760577 617.961447 201.390264 
L 617.961447 201.390264 
L 616.883322 201.390264 
L 616.883322 201.390264 
Q 616.794259 201.034014 616.584884 200.777764 
Q 616.375509 200.521514 616.091134 200.387139 
Q 615.808322 200.252764 615.505197 200.252764 
Q 615.066134 200.252764 614.733322 200.463702 
Q 614.402072 200.673077 614.220822 201.051202 
Q 614.041134 201.429327 614.041134 201.932452 
L 614.041134 204.027764 
Q 614.041134 204.487139 614.225509 204.830889 
Q 614.411447 205.174639 614.750509 205.365264 
Q 615.091134 205.555889 615.534884 205.555889 
Q 615.973947 205.555889 616.305197 205.359014 
Q 616.638009 205.160577 616.819259 204.785577 
Q 617.000509 204.409014 617.000509 203.890264 
L 617.000509 203.582452 
L 615.559884 203.582452 
L 615.559884 202.630889 
L 618.020822 202.630889 
z
M 621.609103 206.527764 
Q 620.905978 206.527764 620.40754 206.263702 
Q 619.910665 205.999639 619.648165 205.490264 
Q 619.387228 204.979327 619.387228 204.257452 
L 619.387228 203.685577 
Q 619.387228 202.934014 619.63879 202.402764 
Q 619.890353 201.869952 620.368478 201.591827 
Q 620.848165 201.312139 621.521603 201.312139 
Q 622.155978 201.312139 622.604415 201.630889 
Q 623.054415 201.948077 623.290353 202.548077 
Q 623.527853 203.148077 623.527853 203.988702 
L 623.527853 204.319952 
L 620.110665 204.319952 
L 620.110665 203.519952 
L 622.580978 203.519952 
L 622.580978 203.519952 
Q 622.537228 202.899639 622.260665 202.555889 
Q 621.985665 202.210577 621.521603 202.210577 
Q 620.954415 202.210577 620.64504 202.582452 
Q 620.335665 202.952764 620.335665 203.632452 
L 620.335665 204.276202 
Q 620.335665 204.905889 620.666915 205.243389 
Q 620.999728 205.580889 621.609103 205.580889 
Q 621.912228 205.580889 622.209103 205.459014 
Q 622.50754 205.335577 622.741915 205.116827 
L 622.741915 205.116827 
L 623.396603 205.769952 
L 623.396603 205.769952 
Q 623.02004 206.132452 622.55129 206.330889 
Q 622.08254 206.527764 621.609103 206.527764 
z
M 624.895431 201.385577 
L 625.892306 201.385577 
L 625.892306 206.454327 
L 624.895431 206.454327 
L 624.895431 201.385577 
z
M 627.971993 203.382452 
Q 627.971993 202.846514 627.693868 202.554327 
Q 627.415743 202.260577 626.912618 202.260577 
Q 626.423556 202.260577 626.157931 202.519952 
Q 625.892306 202.777764 625.892306 203.246514 
L 625.789181 202.269952 
Q 626.023556 201.810577 626.401681 201.562139 
Q 626.779806 201.312139 627.239181 201.312139 
Q 628.064181 201.312139 628.515743 201.852764 
Q 628.967306 202.391827 628.967306 203.377764 
L 628.967306 206.454327 
L 627.971993 206.454327 
L 627.971993 203.382452 
z
M 632.268868 206.527764 
Q 631.673556 206.527764 631.218868 206.310577 
Q 630.764181 206.093389 630.487618 205.680889 
Q 630.212618 205.268389 630.139181 204.687139 
L 630.139181 204.687139 
L 631.154806 204.687139 
L 631.154806 204.687139 
Q 631.198556 204.988702 631.345431 205.184014 
Q 631.492306 205.379327 631.723556 205.474639 
Q 631.956368 205.569952 632.268868 205.569952 
Q 632.761056 205.569952 633.034493 205.307452 
Q 633.307931 205.043389 633.307931 204.565264 
L 633.307931 204.349639 
Q 633.307931 203.816827 633.048556 203.527764 
Q 632.790743 203.237139 632.317306 203.237139 
L 631.814181 203.237139 
L 631.814181 202.288702 
L 632.317306 202.288702 
Q 632.732931 202.288702 632.961056 202.040264 
Q 633.190743 201.791827 633.190743 201.337139 
L 633.190743 201.116827 
Q 633.190743 200.698077 632.948556 200.468389 
Q 632.707931 200.238702 632.264181 200.238702 
Q 632.009493 200.238702 631.809493 200.334014 
Q 631.609493 200.429327 631.470431 200.627764 
Q 631.331368 200.824639 631.267306 201.121514 
L 631.267306 201.121514 
L 630.256368 201.121514 
L 630.256368 201.121514 
Q 630.354806 200.541827 630.625118 200.126202 
Q 630.896993 199.710577 631.311056 199.496514 
Q 631.726681 199.280889 632.264181 199.280889 
Q 633.181368 199.280889 633.684493 199.765264 
Q 634.187618 200.248077 634.187618 201.127764 
L 634.187618 201.244952 
Q 634.187618 201.776202 633.898556 202.171514 
Q 633.611056 202.566827 633.084493 202.748077 
Q 633.665743 202.874639 633.984493 203.319952 
Q 634.304806 203.763702 634.304806 204.452764 
L 634.304806 204.569952 
Q 634.304806 205.190264 634.065743 205.629327 
Q 633.826681 206.068389 633.368868 206.298077 
Q 632.912618 206.527764 632.268868 206.527764 
z
" style="fill: #ffffff; stroke: #000000"/>
    <path d="M 595.246798 206.527764 
Q 594.734298 206.527764 594.274923 206.430889 
Q 593.817111 206.332452 593.418673 206.137139 
Q 593.020236 205.941827 592.673361 205.648077 
L 592.673361 205.648077 
L 593.293673 204.887139 
L 593.293673 204.887139 
Q 593.699923 205.238702 594.187423 205.415264 
Q 594.676486 205.590264 595.246798 205.590264 
Q 596.018673 205.590264 596.443673 205.304327 
Q 596.868673 205.018389 596.868673 204.496514 
L 596.868673 204.491827 
Q 596.868673 204.119952 596.674923 203.902764 
Q 596.482736 203.685577 596.176486 203.580889 
Q 595.871798 203.476202 595.388986 203.387139 
Q 595.373361 203.382452 595.356173 203.382452 
Q 595.340548 203.382452 595.324923 203.377764 
L 595.251486 203.363702 
Q 594.538986 203.241827 594.092111 203.088702 
Q 593.645236 202.934014 593.328048 202.526202 
Q 593.010861 202.118389 593.010861 201.366827 
L 593.010861 201.362139 
Q 593.010861 200.702764 593.306173 200.237139 
Q 593.601486 199.769952 594.167111 199.526202 
Q 594.734298 199.280889 595.529611 199.280889 
Q 595.910861 199.280889 596.279611 199.365264 
Q 596.648361 199.448077 597.006173 199.612139 
Q 597.365548 199.774639 597.712423 200.023077 
L 597.712423 200.023077 
L 597.146798 200.815264 
L 597.146798 200.815264 
Q 596.740548 200.516827 596.337423 200.368389 
Q 595.935861 200.218389 595.529611 200.218389 
Q 594.803048 200.218389 594.399923 200.509014 
Q 593.996798 200.799639 593.996798 201.332452 
L 593.996798 201.337139 
Q 593.996798 201.702764 594.204611 201.913702 
Q 594.412423 202.123077 594.721798 202.223077 
Q 595.032736 202.323077 595.584298 202.430889 
Q 595.603048 202.435577 595.620236 202.438702 
Q 595.637423 202.440264 595.657736 202.444952 
Q 595.681173 202.449639 595.710861 202.455889 
Q 595.740548 202.460577 595.763986 202.465264 
Q 596.409298 202.596514 596.840548 202.777764 
Q 597.273361 202.957452 597.563986 203.360577 
Q 597.854611 203.763702 597.854611 204.462139 
L 597.854611 204.471514 
Q 597.854611 205.121514 597.546798 205.582452 
Q 597.238986 206.043389 596.654611 206.285577 
Q 596.071798 206.527764 595.246798 206.527764 
z
M 599.94465 205.507452 
L 601.5509 205.507452 
Q 602.336837 205.507452 602.768087 205.099639 
Q 603.2009 204.691827 603.2009 203.949639 
L 603.2009 201.859014 
Q 603.2009 201.116827 602.768087 200.709014 
Q 602.336837 200.301202 601.5509 200.301202 
L 599.94465 200.301202 
L 599.94465 199.354327 
L 601.521212 199.354327 
Q 602.3759 199.354327 602.980587 199.652764 
Q 603.586837 199.949639 603.904025 200.521514 
Q 604.221212 201.093389 604.221212 201.898077 
L 604.221212 203.910577 
Q 604.221212 204.715264 603.904025 205.287139 
Q 603.586837 205.859014 602.979025 206.157452 
Q 602.371212 206.454327 601.516525 206.454327 
L 599.94465 206.454327 
L 599.94465 205.507452 
z
M 599.271212 199.354327 
L 600.266525 199.354327 
L 600.266525 206.454327 
L 599.271212 206.454327 
L 599.271212 199.354327 
z
M 607.766525 206.527764 
Q 607.122775 206.527764 606.633712 206.284014 
Q 606.146212 206.038702 605.879025 205.591827 
Q 605.6134 205.144952 605.6134 204.554327 
L 605.6134 204.437139 
Q 605.6134 203.905889 605.879025 203.437139 
Q 606.146212 202.968389 606.589962 202.729327 
Q 606.2134 202.523077 605.986837 202.135577 
Q 605.760275 201.746514 605.760275 201.316827 
L 605.760275 201.146514 
Q 605.760275 200.590264 606.008712 200.168389 
Q 606.25715 199.744952 606.711837 199.513702 
Q 607.166525 199.280889 607.766525 199.280889 
Q 608.366525 199.280889 608.821212 199.513702 
Q 609.2759 199.744952 609.524337 200.168389 
Q 609.772775 200.590264 609.772775 201.146514 
L 609.772775 201.316827 
Q 609.772775 201.757452 609.541525 202.143389 
Q 609.310275 202.527764 608.929025 202.729327 
Q 609.377462 202.973077 609.647775 203.440264 
Q 609.91965 203.905889 609.91965 204.437139 
L 609.91965 204.554327 
Q 609.91965 205.144952 609.654025 205.591827 
Q 609.3884 206.038702 608.899337 206.284014 
Q 608.411837 206.527764 607.766525 206.527764 
z
M 607.766525 205.569952 
Q 608.1134 205.569952 608.3759 205.434014 
Q 608.639962 205.296514 608.783712 205.051202 
Q 608.929025 204.804327 608.929025 204.480889 
L 608.929025 204.413702 
Q 608.929025 204.085577 608.783712 203.840264 
Q 608.639962 203.593389 608.3759 203.457452 
Q 608.1134 203.319952 607.766525 203.319952 
Q 607.41965 203.319952 607.155587 203.457452 
Q 606.893087 203.593389 606.747775 203.841827 
Q 606.604025 204.090264 606.604025 204.418389 
L 606.604025 204.491827 
Q 606.604025 204.813702 606.747775 205.057452 
Q 606.893087 205.301202 607.155587 205.435577 
Q 607.41965 205.569952 607.766525 205.569952 
z
M 607.766525 202.362139 
Q 608.064962 202.362139 608.293087 202.234014 
Q 608.522775 202.104327 608.649337 201.865264 
Q 608.777462 201.624639 608.777462 201.312139 
L 608.777462 201.244952 
Q 608.777462 200.946514 608.649337 200.716827 
Q 608.522775 200.487139 608.293087 200.363702 
Q 608.064962 200.238702 607.766525 200.238702 
Q 607.468087 200.238702 607.2384 200.363702 
Q 607.010275 200.487139 606.88215 200.716827 
Q 606.755587 200.946514 606.755587 201.249639 
L 606.755587 201.323077 
Q 606.755587 201.629327 606.88215 201.866827 
Q 607.010275 202.104327 607.2384 202.234014 
Q 607.468087 202.362139 607.766525 202.362139 
z
M 618.020822 202.630889 
L 618.020822 203.871514 
Q 618.020822 204.662139 617.713009 205.265264 
Q 617.405197 205.868389 616.841134 206.198077 
Q 616.277072 206.527764 615.534884 206.527764 
Q 614.783322 206.527764 614.214572 206.218389 
Q 613.645822 205.907452 613.333322 205.341827 
Q 613.020822 204.774639 613.020822 204.027764 
L 613.020822 201.932452 
Q 613.020822 201.141827 613.328634 200.541827 
Q 613.636447 199.940264 614.198947 199.610577 
Q 614.763009 199.280889 615.505197 199.280889 
Q 616.116134 199.280889 616.630197 199.543389 
Q 617.145822 199.804327 617.492697 200.282452 
Q 617.839572 200.760577 617.961447 201.390264 
L 617.961447 201.390264 
L 616.883322 201.390264 
L 616.883322 201.390264 
Q 616.794259 201.034014 616.584884 200.777764 
Q 616.375509 200.521514 616.091134 200.387139 
Q 615.808322 200.252764 615.505197 200.252764 
Q 615.066134 200.252764 614.733322 200.463702 
Q 614.402072 200.673077 614.220822 201.051202 
Q 614.041134 201.429327 614.041134 201.932452 
L 614.041134 204.027764 
Q 614.041134 204.487139 614.225509 204.830889 
Q 614.411447 205.174639 614.750509 205.365264 
Q 615.091134 205.555889 615.534884 205.555889 
Q 615.973947 205.555889 616.305197 205.359014 
Q 616.638009 205.160577 616.819259 204.785577 
Q 617.000509 204.409014 617.000509 203.890264 
L 617.000509 203.582452 
L 615.559884 203.582452 
L 615.559884 202.630889 
L 618.020822 202.630889 
z
M 621.609103 206.527764 
Q 620.905978 206.527764 620.40754 206.263702 
Q 619.910665 205.999639 619.648165 205.490264 
Q 619.387228 204.979327 619.387228 204.257452 
L 619.387228 203.685577 
Q 619.387228 202.934014 619.63879 202.402764 
Q 619.890353 201.869952 620.368478 201.591827 
Q 620.848165 201.312139 621.521603 201.312139 
Q 622.155978 201.312139 622.604415 201.630889 
Q 623.054415 201.948077 623.290353 202.548077 
Q 623.527853 203.148077 623.527853 203.988702 
L 623.527853 204.319952 
L 620.110665 204.319952 
L 620.110665 203.519952 
L 622.580978 203.519952 
L 622.580978 203.519952 
Q 622.537228 202.899639 622.260665 202.555889 
Q 621.985665 202.210577 621.521603 202.210577 
Q 620.954415 202.210577 620.64504 202.582452 
Q 620.335665 202.952764 620.335665 203.632452 
L 620.335665 204.276202 
Q 620.335665 204.905889 620.666915 205.243389 
Q 620.999728 205.580889 621.609103 205.580889 
Q 621.912228 205.580889 622.209103 205.459014 
Q 622.50754 205.335577 622.741915 205.116827 
L 622.741915 205.116827 
L 623.396603 205.769952 
L 623.396603 205.769952 
Q 623.02004 206.132452 622.55129 206.330889 
Q 622.08254 206.527764 621.609103 206.527764 
z
M 624.895431 201.385577 
L 625.892306 201.385577 
L 625.892306 206.454327 
L 624.895431 206.454327 
L 624.895431 201.385577 
z
M 627.971993 203.382452 
Q 627.971993 202.846514 627.693868 202.554327 
Q 627.415743 202.260577 626.912618 202.260577 
Q 626.423556 202.260577 626.157931 202.519952 
Q 625.892306 202.777764 625.892306 203.246514 
L 625.789181 202.269952 
Q 626.023556 201.810577 626.401681 201.562139 
Q 626.779806 201.312139 627.239181 201.312139 
Q 628.064181 201.312139 628.515743 201.852764 
Q 628.967306 202.391827 628.967306 203.377764 
L 628.967306 206.454327 
L 627.971993 206.454327 
L 627.971993 203.382452 
z
M 632.268868 206.527764 
Q 631.673556 206.527764 631.218868 206.310577 
Q 630.764181 206.093389 630.487618 205.680889 
Q 630.212618 205.268389 630.139181 204.687139 
L 630.139181 204.687139 
L 631.154806 204.687139 
L 631.154806 204.687139 
Q 631.198556 204.988702 631.345431 205.184014 
Q 631.492306 205.379327 631.723556 205.474639 
Q 631.956368 205.569952 632.268868 205.569952 
Q 632.761056 205.569952 633.034493 205.307452 
Q 633.307931 205.043389 633.307931 204.565264 
L 633.307931 204.349639 
Q 633.307931 203.816827 633.048556 203.527764 
Q 632.790743 203.237139 632.317306 203.237139 
L 631.814181 203.237139 
L 631.814181 202.288702 
L 632.317306 202.288702 
Q 632.732931 202.288702 632.961056 202.040264 
Q 633.190743 201.791827 633.190743 201.337139 
L 633.190743 201.116827 
Q 633.190743 200.698077 632.948556 200.468389 
Q 632.707931 200.238702 632.264181 200.238702 
Q 632.009493 200.238702 631.809493 200.334014 
Q 631.609493 200.429327 631.470431 200.627764 
Q 631.331368 200.824639 631.267306 201.121514 
L 631.267306 201.121514 
L 630.256368 201.121514 
L 630.256368 201.121514 
Q 630.354806 200.541827 630.625118 200.126202 
Q 630.896993 199.710577 631.311056 199.496514 
Q 631.726681 199.280889 632.264181 199.280889 
Q 633.181368 199.280889 633.684493 199.765264 
Q 634.187618 200.248077 634.187618 201.127764 
L 634.187618 201.244952 
Q 634.187618 201.776202 633.898556 202.171514 
Q 633.611056 202.566827 633.084493 202.748077 
Q 633.665743 202.874639 633.984493 203.319952 
Q 634.304806 203.763702 634.304806 204.452764 
L 634.304806 204.569952 
Q 634.304806 205.190264 634.065743 205.629327 
Q 633.826681 206.068389 633.368868 206.298077 
Q 632.912618 206.527764 632.268868 206.527764 
z
" style="fill: #ffffff"/>
   </g>
  </g>
 </g>
 <defs>
  <clipPath id="pe509a4d990">
   <rect x="144" y="77.76" width="892.8" height="498.96"/>
  </clipPath>
 </defs>
</svg>
