<?xml version="1.0" encoding="utf-8" standalone="no"?>
<!DOCTYPE svg PUBLIC "-//W3C//DTD SVG 1.1//EN"
  "http://www.w3.org/Graphics/SVG/1.1/DTD/svg11.dtd">
<svg xmlns:xlink="http://www.w3.org/1999/xlink" width="1152pt" height="648pt" viewBox="0 0 1152 648" xmlns="http://www.w3.org/2000/svg" version="1.1">
 <metadata>
  <rdf:RDF xmlns:dc="http://purl.org/dc/elements/1.1/" xmlns:cc="http://creativecommons.org/ns#" xmlns:rdf="http://www.w3.org/1999/02/22-rdf-syntax-ns#">
   <cc:Work>
    <dc:type rdf:resource="http://purl.org/dc/dcmitype/StillImage"/>
    <dc:date>2024-10-09T18:10:10.424559</dc:date>
    <dc:format>image/svg+xml</dc:format>
    <dc:creator>
     <cc:Agent>
      <dc:title>Matplotlib v3.8.1, https://matplotlib.org/</dc:title>
     </cc:Agent>
    </dc:creator>
   </cc:Work>
  </rdf:RDF>
 </metadata>
 <defs>
  <style type="text/css">*{stroke-linejoin: round; stroke-linecap: butt}</style>
 </defs>
 <g id="figure_1">
  <g id="patch_1">
   <path d="M 0 648 
L 1152 648 
L 1152 0 
L 0 0 
L 0 648 
z
" style="fill: none"/>
  </g>
  <g id="axes_1">
   <g id="PathCollection_1">
    <defs>
     <path id="m13dccb6c38" d="M 0 2.738613 
C 0.726289 2.738613 1.422928 2.450055 1.936492 1.936492 
C 2.450055 1.422928 2.738613 0.726289 2.738613 0 
C 2.738613 -0.726289 2.450055 -1.422928 1.936492 -1.936492 
C 1.422928 -2.450055 0.726289 -2.738613 0 -2.738613 
C -0.726289 -2.738613 -1.422928 -2.450055 -1.936492 -1.936492 
C -2.450055 -1.422928 -2.738613 -0.726289 -2.738613 0 
C -2.738613 0.726289 -2.450055 1.422928 -1.936492 1.936492 
C -1.422928 2.450055 -0.726289 2.738613 0 2.738613 
z
" style="stroke: #ff0000"/>
    </defs>
    <g clip-path="url(#pfdde64a9ac)">
     <use xlink:href="#m13dccb6c38" x="440.653091" y="419.29812" style="fill: #ff0000; stroke: #ff0000"/>
     <use xlink:href="#m13dccb6c38" x="268.586182" y="462.95712" style="fill: #ff0000; stroke: #ff0000"/>
    </g>
   </g>
   <g id="text_1">
    <path d="M 448.206508 417.829063 
L 451.340883 413.844688 
L 452.565883 413.844688 
L 448.059633 419.322813 
L 448.206508 417.829063 
z
M 447.425258 413.844688 
L 448.420571 413.844688 
L 448.420571 420.944688 
L 447.425258 420.944688 
L 447.425258 413.844688 
z
M 449.387758 417.155625 
L 450.173696 416.427501 
L 452.864321 420.944688 
L 451.644008 420.944688 
L 449.387758 417.155625 
z
M 456.208462 417.419688 
L 456.203774 417.594688 
Q 456.081899 417.819688 455.835024 417.924375 
Q 455.588149 418.029063 455.252212 418.029063 
Q 454.744399 418.029063 454.358462 417.771251 
Q 453.972524 417.511875 453.760024 417.041563 
Q 453.547524 416.569688 453.547524 415.949375 
L 453.547524 415.944688 
Q 453.547524 415.255626 453.778774 414.768125 
Q 454.011587 414.279063 454.458462 414.025938 
Q 454.905337 413.771251 455.530337 413.771251 
Q 456.155337 413.771251 456.599087 414.030625 
Q 457.044399 414.29 457.275649 414.78375 
Q 457.506899 415.275938 457.506899 415.969688 
L 457.506899 415.974376 
Q 457.506899 416.354063 457.408462 416.786876 
Q 457.311587 417.219688 457.131899 417.643125 
Q 457.102212 417.707188 457.072524 417.772813 
Q 457.044399 417.838438 457.010024 417.9025 
L 455.495962 420.944688 
L 454.420962 420.944688 
L 456.208462 417.419688 
z
M 455.530337 417.12125 
Q 455.999087 417.12125 456.255337 416.804063 
Q 456.511587 416.486875 456.511587 415.910313 
L 456.511587 415.905625 
Q 456.511587 415.344688 456.255337 415.036876 
Q 455.999087 414.729063 455.530337 414.729063 
Q 455.056899 414.729063 454.800649 415.036876 
Q 454.544399 415.344688 454.544399 415.910313 
L 454.544399 415.915 
Q 454.544399 416.491563 454.800649 416.807188 
Q 455.056899 417.12125 455.530337 417.12125 
z
M 460.852797 421.018125 
Q 459.855922 421.018125 459.340297 420.486875 
Q 458.826235 419.954063 458.826235 419.000938 
L 458.826235 415.774375 
Q 458.826235 414.816563 459.343422 414.286876 
Q 459.86061 413.757188 460.852797 413.757188 
Q 461.84811 413.757188 462.363735 414.285313 
Q 462.87936 414.811875 462.87936 415.774375 
L 462.87936 419.000938 
Q 462.87936 419.958751 462.36061 420.488438 
Q 461.843422 421.018125 460.852797 421.018125 
z
M 460.852797 420.07125 
Q 461.37936 420.07125 461.630922 419.794688 
Q 461.882485 419.518125 461.882485 419.000938 
L 461.882485 415.774375 
Q 461.882485 415.255626 461.632485 414.980625 
Q 461.384047 414.704063 460.852797 414.704063 
Q 460.319985 414.704063 460.069985 414.980625 
Q 459.821547 415.255626 459.821547 415.774375 
L 459.821547 419.000938 
Q 459.821547 419.518125 460.07311 419.794688 
Q 460.324672 420.07125 460.852797 420.07125 
z
M 466.370376 421.018125 
Q 465.373501 421.018125 464.857876 420.486875 
Q 464.343813 419.954063 464.343813 419.000938 
L 464.343813 415.774375 
Q 464.343813 414.816563 464.861001 414.286876 
Q 465.378188 413.757188 466.370376 413.757188 
Q 467.365688 413.757188 467.881313 414.285313 
Q 468.396938 414.811875 468.396938 415.774375 
L 468.396938 419.000938 
Q 468.396938 419.958751 467.878188 420.488438 
Q 467.361001 421.018125 466.370376 421.018125 
z
M 466.370376 420.07125 
Q 466.896938 420.07125 467.148501 419.794688 
Q 467.400063 419.518125 467.400063 419.000938 
L 467.400063 415.774375 
Q 467.400063 415.255626 467.150063 414.980625 
Q 466.901626 414.704063 466.370376 414.704063 
Q 465.837563 414.704063 465.587563 414.980625 
Q 465.339126 415.255626 465.339126 415.774375 
L 465.339126 419.000938 
Q 465.339126 419.518125 465.590688 419.794688 
Q 465.842251 420.07125 466.370376 420.07125 
z
M 471.887954 421.018125 
Q 470.891079 421.018125 470.375454 420.486875 
Q 469.861391 419.954063 469.861391 419.000938 
L 469.861391 415.774375 
Q 469.861391 414.816563 470.378579 414.286876 
Q 470.895766 413.757188 471.887954 413.757188 
Q 472.883266 413.757188 473.398891 414.285313 
Q 473.914516 414.811875 473.914516 415.774375 
L 473.914516 419.000938 
Q 473.914516 419.958751 473.395766 420.488438 
Q 472.878579 421.018125 471.887954 421.018125 
z
M 471.887954 420.07125 
Q 472.414516 420.07125 472.666079 419.794688 
Q 472.917641 419.518125 472.917641 419.000938 
L 472.917641 415.774375 
Q 472.917641 415.255626 472.667641 414.980625 
Q 472.419204 414.704063 471.887954 414.704063 
Q 471.355141 414.704063 471.105141 414.980625 
Q 470.856704 415.255626 470.856704 415.774375 
L 470.856704 419.000938 
Q 470.856704 419.518125 471.108266 419.794688 
Q 471.359829 420.07125 471.887954 420.07125 
z
M 477.658657 421.018125 
Q 477.146157 421.018125 476.686782 420.92125 
Q 476.228969 420.822813 475.830532 420.6275 
Q 475.432094 420.432188 475.085219 420.138438 
L 475.085219 420.138438 
L 475.705532 419.3775 
L 475.705532 419.3775 
Q 476.111782 419.729063 476.599282 419.905625 
Q 477.088344 420.080625 477.658657 420.080625 
Q 478.430532 420.080625 478.855532 419.794688 
Q 479.280532 419.50875 479.280532 418.986875 
L 479.280532 418.982188 
Q 479.280532 418.610313 479.086782 418.393125 
Q 478.894594 418.175938 478.588344 418.07125 
Q 478.283657 417.966563 477.800844 417.8775 
Q 477.785219 417.872813 477.768032 417.872813 
Q 477.752407 417.872813 477.736782 417.868125 
L 477.663344 417.854063 
Q 476.950844 417.732188 476.503969 417.579063 
Q 476.057094 417.424375 475.739907 417.016563 
Q 475.422719 416.60875 475.422719 415.857188 
L 475.422719 415.8525 
Q 475.422719 415.193126 475.718032 414.7275 
Q 476.013344 414.260313 476.578969 414.016563 
Q 477.146157 413.771251 477.941469 413.771251 
Q 478.322719 413.771251 478.691469 413.855625 
Q 479.060219 413.938438 479.418032 414.1025 
Q 479.777407 414.265 480.124282 414.513438 
L 480.124282 414.513438 
L 479.558657 415.305625 
L 479.558657 415.305625 
Q 479.152407 415.007188 478.749282 414.85875 
Q 478.347719 414.708751 477.941469 414.708751 
Q 477.214907 414.708751 476.811782 414.999375 
Q 476.408657 415.29 476.408657 415.822813 
L 476.408657 415.8275 
Q 476.408657 416.193126 476.616469 416.404063 
Q 476.824282 416.613438 477.133657 416.713438 
Q 477.444594 416.813438 477.996157 416.92125 
Q 478.014907 416.925938 478.032094 416.929063 
Q 478.049282 416.930625 478.069594 416.935313 
Q 478.093032 416.94 478.122719 416.94625 
Q 478.152407 416.950938 478.175844 416.955625 
Q 478.821157 417.086875 479.252407 417.268125 
Q 479.685219 417.447813 479.975844 417.850938 
Q 480.266469 418.254063 480.266469 418.9525 
L 480.266469 418.961875 
Q 480.266469 419.611875 479.958657 420.072813 
Q 479.650844 420.53375 479.066469 420.775938 
Q 478.483657 421.018125 477.658657 421.018125 
z
M 481.683071 413.844688 
L 482.678383 413.844688 
L 482.678383 420.944688 
L 481.683071 420.944688 
L 481.683071 413.844688 
z
M 482.179946 419.997813 
L 486.242446 419.997813 
L 486.242446 420.944688 
L 482.179946 420.944688 
L 482.179946 419.997813 
z
" style="fill: #ffffff; stroke: #000000"/>
    <path d="M 448.206508 417.829063 
L 451.340883 413.844688 
L 452.565883 413.844688 
L 448.059633 419.322813 
L 448.206508 417.829063 
z
M 447.425258 413.844688 
L 448.420571 413.844688 
L 448.420571 420.944688 
L 447.425258 420.944688 
L 447.425258 413.844688 
z
M 449.387758 417.155625 
L 450.173696 416.427501 
L 452.864321 420.944688 
L 451.644008 420.944688 
L 449.387758 417.155625 
z
M 456.208462 417.419688 
L 456.203774 417.594688 
Q 456.081899 417.819688 455.835024 417.924375 
Q 455.588149 418.029063 455.252212 418.029063 
Q 454.744399 418.029063 454.358462 417.771251 
Q 453.972524 417.511875 453.760024 417.041563 
Q 453.547524 416.569688 453.547524 415.949375 
L 453.547524 415.944688 
Q 453.547524 415.255626 453.778774 414.768125 
Q 454.011587 414.279063 454.458462 414.025938 
Q 454.905337 413.771251 455.530337 413.771251 
Q 456.155337 413.771251 456.599087 414.030625 
Q 457.044399 414.29 457.275649 414.78375 
Q 457.506899 415.275938 457.506899 415.969688 
L 457.506899 415.974376 
Q 457.506899 416.354063 457.408462 416.786876 
Q 457.311587 417.219688 457.131899 417.643125 
Q 457.102212 417.707188 457.072524 417.772813 
Q 457.044399 417.838438 457.010024 417.9025 
L 455.495962 420.944688 
L 454.420962 420.944688 
L 456.208462 417.419688 
z
M 455.530337 417.12125 
Q 455.999087 417.12125 456.255337 416.804063 
Q 456.511587 416.486875 456.511587 415.910313 
L 456.511587 415.905625 
Q 456.511587 415.344688 456.255337 415.036876 
Q 455.999087 414.729063 455.530337 414.729063 
Q 455.056899 414.729063 454.800649 415.036876 
Q 454.544399 415.344688 454.544399 415.910313 
L 454.544399 415.915 
Q 454.544399 416.491563 454.800649 416.807188 
Q 455.056899 417.12125 455.530337 417.12125 
z
M 460.852797 421.018125 
Q 459.855922 421.018125 459.340297 420.486875 
Q 458.826235 419.954063 458.826235 419.000938 
L 458.826235 415.774375 
Q 458.826235 414.816563 459.343422 414.286876 
Q 459.86061 413.757188 460.852797 413.757188 
Q 461.84811 413.757188 462.363735 414.285313 
Q 462.87936 414.811875 462.87936 415.774375 
L 462.87936 419.000938 
Q 462.87936 419.958751 462.36061 420.488438 
Q 461.843422 421.018125 460.852797 421.018125 
z
M 460.852797 420.07125 
Q 461.37936 420.07125 461.630922 419.794688 
Q 461.882485 419.518125 461.882485 419.000938 
L 461.882485 415.774375 
Q 461.882485 415.255626 461.632485 414.980625 
Q 461.384047 414.704063 460.852797 414.704063 
Q 460.319985 414.704063 460.069985 414.980625 
Q 459.821547 415.255626 459.821547 415.774375 
L 459.821547 419.000938 
Q 459.821547 419.518125 460.07311 419.794688 
Q 460.324672 420.07125 460.852797 420.07125 
z
M 466.370376 421.018125 
Q 465.373501 421.018125 464.857876 420.486875 
Q 464.343813 419.954063 464.343813 419.000938 
L 464.343813 415.774375 
Q 464.343813 414.816563 464.861001 414.286876 
Q 465.378188 413.757188 466.370376 413.757188 
Q 467.365688 413.757188 467.881313 414.285313 
Q 468.396938 414.811875 468.396938 415.774375 
L 468.396938 419.000938 
Q 468.396938 419.958751 467.878188 420.488438 
Q 467.361001 421.018125 466.370376 421.018125 
z
M 466.370376 420.07125 
Q 466.896938 420.07125 467.148501 419.794688 
Q 467.400063 419.518125 467.400063 419.000938 
L 467.400063 415.774375 
Q 467.400063 415.255626 467.150063 414.980625 
Q 466.901626 414.704063 466.370376 414.704063 
Q 465.837563 414.704063 465.587563 414.980625 
Q 465.339126 415.255626 465.339126 415.774375 
L 465.339126 419.000938 
Q 465.339126 419.518125 465.590688 419.794688 
Q 465.842251 420.07125 466.370376 420.07125 
z
M 471.887954 421.018125 
Q 470.891079 421.018125 470.375454 420.486875 
Q 469.861391 419.954063 469.861391 419.000938 
L 469.861391 415.774375 
Q 469.861391 414.816563 470.378579 414.286876 
Q 470.895766 413.757188 471.887954 413.757188 
Q 472.883266 413.757188 473.398891 414.285313 
Q 473.914516 414.811875 473.914516 415.774375 
L 473.914516 419.000938 
Q 473.914516 419.958751 473.395766 420.488438 
Q 472.878579 421.018125 471.887954 421.018125 
z
M 471.887954 420.07125 
Q 472.414516 420.07125 472.666079 419.794688 
Q 472.917641 419.518125 472.917641 419.000938 
L 472.917641 415.774375 
Q 472.917641 415.255626 472.667641 414.980625 
Q 472.419204 414.704063 471.887954 414.704063 
Q 471.355141 414.704063 471.105141 414.980625 
Q 470.856704 415.255626 470.856704 415.774375 
L 470.856704 419.000938 
Q 470.856704 419.518125 471.108266 419.794688 
Q 471.359829 420.07125 471.887954 420.07125 
z
M 477.658657 421.018125 
Q 477.146157 421.018125 476.686782 420.92125 
Q 476.228969 420.822813 475.830532 420.6275 
Q 475.432094 420.432188 475.085219 420.138438 
L 475.085219 420.138438 
L 475.705532 419.3775 
L 475.705532 419.3775 
Q 476.111782 419.729063 476.599282 419.905625 
Q 477.088344 420.080625 477.658657 420.080625 
Q 478.430532 420.080625 478.855532 419.794688 
Q 479.280532 419.50875 479.280532 418.986875 
L 479.280532 418.982188 
Q 479.280532 418.610313 479.086782 418.393125 
Q 478.894594 418.175938 478.588344 418.07125 
Q 478.283657 417.966563 477.800844 417.8775 
Q 477.785219 417.872813 477.768032 417.872813 
Q 477.752407 417.872813 477.736782 417.868125 
L 477.663344 417.854063 
Q 476.950844 417.732188 476.503969 417.579063 
Q 476.057094 417.424375 475.739907 417.016563 
Q 475.422719 416.60875 475.422719 415.857188 
L 475.422719 415.8525 
Q 475.422719 415.193126 475.718032 414.7275 
Q 476.013344 414.260313 476.578969 414.016563 
Q 477.146157 413.771251 477.941469 413.771251 
Q 478.322719 413.771251 478.691469 413.855625 
Q 479.060219 413.938438 479.418032 414.1025 
Q 479.777407 414.265 480.124282 414.513438 
L 480.124282 414.513438 
L 479.558657 415.305625 
L 479.558657 415.305625 
Q 479.152407 415.007188 478.749282 414.85875 
Q 478.347719 414.708751 477.941469 414.708751 
Q 477.214907 414.708751 476.811782 414.999375 
Q 476.408657 415.29 476.408657 415.822813 
L 476.408657 415.8275 
Q 476.408657 416.193126 476.616469 416.404063 
Q 476.824282 416.613438 477.133657 416.713438 
Q 477.444594 416.813438 477.996157 416.92125 
Q 478.014907 416.925938 478.032094 416.929063 
Q 478.049282 416.930625 478.069594 416.935313 
Q 478.093032 416.94 478.122719 416.94625 
Q 478.152407 416.950938 478.175844 416.955625 
Q 478.821157 417.086875 479.252407 417.268125 
Q 479.685219 417.447813 479.975844 417.850938 
Q 480.266469 418.254063 480.266469 418.9525 
L 480.266469 418.961875 
Q 480.266469 419.611875 479.958657 420.072813 
Q 479.650844 420.53375 479.066469 420.775938 
Q 478.483657 421.018125 477.658657 421.018125 
z
M 481.683071 413.844688 
L 482.678383 413.844688 
L 482.678383 420.944688 
L 481.683071 420.944688 
L 481.683071 413.844688 
z
M 482.179946 419.997813 
L 486.242446 419.997813 
L 486.242446 420.944688 
L 482.179946 420.944688 
L 482.179946 419.997813 
z
" style="fill: #ffffff"/>
   </g>
   <g id="text_2">
    <path d="M 276.139599 461.488063 
L 279.273974 457.503688 
L 280.498974 457.503688 
L 275.992724 462.981813 
L 276.139599 461.488063 
z
M 275.358349 457.503688 
L 276.353662 457.503688 
L 276.353662 464.603688 
L 275.358349 464.603688 
L 275.358349 457.503688 
z
M 277.320849 460.814626 
L 278.106787 460.086501 
L 280.797412 464.603688 
L 279.577099 464.603688 
L 277.320849 460.814626 
z
M 284.141552 461.078688 
L 284.136865 461.253688 
Q 284.01499 461.478688 283.768115 461.583376 
Q 283.52124 461.688063 283.185302 461.688063 
Q 282.67749 461.688063 282.291552 461.430251 
Q 281.905615 461.170876 281.693115 460.700563 
Q 281.480615 460.228688 281.480615 459.608376 
L 281.480615 459.603688 
Q 281.480615 458.914626 281.711865 458.427126 
Q 281.944677 457.938063 282.391552 457.684938 
Q 282.838427 457.430251 283.463427 457.430251 
Q 284.088427 457.430251 284.532177 457.689626 
Q 284.97749 457.949001 285.20874 458.442751 
Q 285.43999 458.934938 285.43999 459.628688 
L 285.43999 459.633376 
Q 285.43999 460.013063 285.341552 460.445876 
Q 285.244677 460.878688 285.06499 461.302126 
Q 285.035302 461.366188 285.005615 461.431813 
Q 284.97749 461.497438 284.943115 461.561501 
L 283.429052 464.603688 
L 282.354052 464.603688 
L 284.141552 461.078688 
z
M 283.463427 460.780251 
Q 283.932177 460.780251 284.188427 460.463063 
Q 284.444677 460.145876 284.444677 459.569313 
L 284.444677 459.564626 
Q 284.444677 459.003688 284.188427 458.695876 
Q 283.932177 458.388063 283.463427 458.388063 
Q 282.98999 458.388063 282.73374 458.695876 
Q 282.47749 459.003688 282.47749 459.569313 
L 282.47749 459.574001 
Q 282.47749 460.150563 282.73374 460.466188 
Q 282.98999 460.780251 283.463427 460.780251 
z
M 288.785888 464.677126 
Q 287.789013 464.677126 287.273388 464.145876 
Q 286.759326 463.613063 286.759326 462.659938 
L 286.759326 459.433376 
Q 286.759326 458.475563 287.276513 457.945876 
Q 287.793701 457.416188 288.785888 457.416188 
Q 289.781201 457.416188 290.296826 457.944313 
Q 290.812451 458.470876 290.812451 459.433376 
L 290.812451 462.659938 
Q 290.812451 463.617751 290.293701 464.147438 
Q 289.776513 464.677126 288.785888 464.677126 
z
M 288.785888 463.730251 
Q 289.312451 463.730251 289.564013 463.453688 
Q 289.815576 463.177126 289.815576 462.659938 
L 289.815576 459.433376 
Q 289.815576 458.914626 289.565576 458.639626 
Q 289.317138 458.363063 288.785888 458.363063 
Q 288.253076 458.363063 288.003076 458.639626 
Q 287.754638 458.914626 287.754638 459.433376 
L 287.754638 462.659938 
Q 287.754638 463.177126 288.006201 463.453688 
Q 288.257763 463.730251 288.785888 463.730251 
z
M 294.303467 464.677126 
Q 293.306592 464.677126 292.790967 464.145876 
Q 292.276904 463.613063 292.276904 462.659938 
L 292.276904 459.433376 
Q 292.276904 458.475563 292.794092 457.945876 
Q 293.311279 457.416188 294.303467 457.416188 
Q 295.298779 457.416188 295.814404 457.944313 
Q 296.330029 458.470876 296.330029 459.433376 
L 296.330029 462.659938 
Q 296.330029 463.617751 295.811279 464.147438 
Q 295.294092 464.677126 294.303467 464.677126 
z
M 294.303467 463.730251 
Q 294.830029 463.730251 295.081592 463.453688 
Q 295.333154 463.177126 295.333154 462.659938 
L 295.333154 459.433376 
Q 295.333154 458.914626 295.083154 458.639626 
Q 294.834717 458.363063 294.303467 458.363063 
Q 293.770654 458.363063 293.520654 458.639626 
Q 293.272217 458.914626 293.272217 459.433376 
L 293.272217 462.659938 
Q 293.272217 463.177126 293.523779 463.453688 
Q 293.775342 463.730251 294.303467 463.730251 
z
M 299.821045 464.677126 
Q 298.82417 464.677126 298.308545 464.145876 
Q 297.794482 463.613063 297.794482 462.659938 
L 297.794482 459.433376 
Q 297.794482 458.475563 298.31167 457.945876 
Q 298.828857 457.416188 299.821045 457.416188 
Q 300.816357 457.416188 301.331982 457.944313 
Q 301.847607 458.470876 301.847607 459.433376 
L 301.847607 462.659938 
Q 301.847607 463.617751 301.328857 464.147438 
Q 300.81167 464.677126 299.821045 464.677126 
z
M 299.821045 463.730251 
Q 300.347607 463.730251 300.59917 463.453688 
Q 300.850732 463.177126 300.850732 462.659938 
L 300.850732 459.433376 
Q 300.850732 458.914626 300.600732 458.639626 
Q 300.352295 458.363063 299.821045 458.363063 
Q 299.288232 458.363063 299.038232 458.639626 
Q 298.789795 458.914626 298.789795 459.433376 
L 298.789795 462.659938 
Q 298.789795 463.177126 299.041357 463.453688 
Q 299.29292 463.730251 299.821045 463.730251 
z
M 305.591748 464.677126 
Q 305.079248 464.677126 304.619873 464.580251 
Q 304.16206 464.481813 303.763623 464.286501 
Q 303.365185 464.091188 303.01831 463.797438 
L 303.01831 463.797438 
L 303.638623 463.036501 
L 303.638623 463.036501 
Q 304.044873 463.388063 304.532373 463.564626 
Q 305.021435 463.739626 305.591748 463.739626 
Q 306.363623 463.739626 306.788623 463.453688 
Q 307.213623 463.167751 307.213623 462.645876 
L 307.213623 462.641188 
Q 307.213623 462.269313 307.019873 462.052126 
Q 306.827685 461.834938 306.521435 461.730251 
Q 306.216748 461.625563 305.733935 461.536501 
Q 305.71831 461.531813 305.701123 461.531813 
Q 305.685498 461.531813 305.669873 461.527126 
L 305.596435 461.513063 
Q 304.883935 461.391188 304.43706 461.238063 
Q 303.990185 461.083376 303.672998 460.675563 
Q 303.35581 460.267751 303.35581 459.516188 
L 303.35581 459.511501 
Q 303.35581 458.852126 303.651123 458.386501 
Q 303.946435 457.919313 304.51206 457.675563 
Q 305.079248 457.430251 305.87456 457.430251 
Q 306.25581 457.430251 306.62456 457.514626 
Q 306.99331 457.597438 307.351123 457.761501 
Q 307.710498 457.924001 308.057373 458.172438 
L 308.057373 458.172438 
L 307.491748 458.964626 
L 307.491748 458.964626 
Q 307.085498 458.666188 306.682373 458.517751 
Q 306.28081 458.367751 305.87456 458.367751 
Q 305.147998 458.367751 304.744873 458.658376 
Q 304.341748 458.949001 304.341748 459.481813 
L 304.341748 459.486501 
Q 304.341748 459.852126 304.54956 460.063063 
Q 304.757373 460.272438 305.066748 460.372438 
Q 305.377685 460.472438 305.929248 460.580251 
Q 305.947998 460.584938 305.965185 460.588063 
Q 305.982373 460.589626 306.002685 460.594313 
Q 306.026123 460.599001 306.05581 460.605251 
Q 306.085498 460.609938 306.108935 460.614626 
Q 306.754248 460.745876 307.185498 460.927126 
Q 307.61831 461.106813 307.908935 461.509938 
Q 308.19956 461.913063 308.19956 462.611501 
L 308.19956 462.620876 
Q 308.19956 463.270876 307.891748 463.731813 
Q 307.583935 464.192751 306.99956 464.434938 
Q 306.416748 464.677126 305.591748 464.677126 
z
M 309.616162 457.503688 
L 310.611474 457.503688 
L 310.611474 464.603688 
L 309.616162 464.603688 
L 309.616162 457.503688 
z
M 310.113037 463.656813 
L 314.175537 463.656813 
L 314.175537 464.603688 
L 310.113037 464.603688 
L 310.113037 463.656813 
z
" style="fill: #ffffff; stroke: #000000"/>
    <path d="M 276.139599 461.488063 
L 279.273974 457.503688 
L 280.498974 457.503688 
L 275.992724 462.981813 
L 276.139599 461.488063 
z
M 275.358349 457.503688 
L 276.353662 457.503688 
L 276.353662 464.603688 
L 275.358349 464.603688 
L 275.358349 457.503688 
z
M 277.320849 460.814626 
L 278.106787 460.086501 
L 280.797412 464.603688 
L 279.577099 464.603688 
L 277.320849 460.814626 
z
M 284.141552 461.078688 
L 284.136865 461.253688 
Q 284.01499 461.478688 283.768115 461.583376 
Q 283.52124 461.688063 283.185302 461.688063 
Q 282.67749 461.688063 282.291552 461.430251 
Q 281.905615 461.170876 281.693115 460.700563 
Q 281.480615 460.228688 281.480615 459.608376 
L 281.480615 459.603688 
Q 281.480615 458.914626 281.711865 458.427126 
Q 281.944677 457.938063 282.391552 457.684938 
Q 282.838427 457.430251 283.463427 457.430251 
Q 284.088427 457.430251 284.532177 457.689626 
Q 284.97749 457.949001 285.20874 458.442751 
Q 285.43999 458.934938 285.43999 459.628688 
L 285.43999 459.633376 
Q 285.43999 460.013063 285.341552 460.445876 
Q 285.244677 460.878688 285.06499 461.302126 
Q 285.035302 461.366188 285.005615 461.431813 
Q 284.97749 461.497438 284.943115 461.561501 
L 283.429052 464.603688 
L 282.354052 464.603688 
L 284.141552 461.078688 
z
M 283.463427 460.780251 
Q 283.932177 460.780251 284.188427 460.463063 
Q 284.444677 460.145876 284.444677 459.569313 
L 284.444677 459.564626 
Q 284.444677 459.003688 284.188427 458.695876 
Q 283.932177 458.388063 283.463427 458.388063 
Q 282.98999 458.388063 282.73374 458.695876 
Q 282.47749 459.003688 282.47749 459.569313 
L 282.47749 459.574001 
Q 282.47749 460.150563 282.73374 460.466188 
Q 282.98999 460.780251 283.463427 460.780251 
z
M 288.785888 464.677126 
Q 287.789013 464.677126 287.273388 464.145876 
Q 286.759326 463.613063 286.759326 462.659938 
L 286.759326 459.433376 
Q 286.759326 458.475563 287.276513 457.945876 
Q 287.793701 457.416188 288.785888 457.416188 
Q 289.781201 457.416188 290.296826 457.944313 
Q 290.812451 458.470876 290.812451 459.433376 
L 290.812451 462.659938 
Q 290.812451 463.617751 290.293701 464.147438 
Q 289.776513 464.677126 288.785888 464.677126 
z
M 288.785888 463.730251 
Q 289.312451 463.730251 289.564013 463.453688 
Q 289.815576 463.177126 289.815576 462.659938 
L 289.815576 459.433376 
Q 289.815576 458.914626 289.565576 458.639626 
Q 289.317138 458.363063 288.785888 458.363063 
Q 288.253076 458.363063 288.003076 458.639626 
Q 287.754638 458.914626 287.754638 459.433376 
L 287.754638 462.659938 
Q 287.754638 463.177126 288.006201 463.453688 
Q 288.257763 463.730251 288.785888 463.730251 
z
M 294.303467 464.677126 
Q 293.306592 464.677126 292.790967 464.145876 
Q 292.276904 463.613063 292.276904 462.659938 
L 292.276904 459.433376 
Q 292.276904 458.475563 292.794092 457.945876 
Q 293.311279 457.416188 294.303467 457.416188 
Q 295.298779 457.416188 295.814404 457.944313 
Q 296.330029 458.470876 296.330029 459.433376 
L 296.330029 462.659938 
Q 296.330029 463.617751 295.811279 464.147438 
Q 295.294092 464.677126 294.303467 464.677126 
z
M 294.303467 463.730251 
Q 294.830029 463.730251 295.081592 463.453688 
Q 295.333154 463.177126 295.333154 462.659938 
L 295.333154 459.433376 
Q 295.333154 458.914626 295.083154 458.639626 
Q 294.834717 458.363063 294.303467 458.363063 
Q 293.770654 458.363063 293.520654 458.639626 
Q 293.272217 458.914626 293.272217 459.433376 
L 293.272217 462.659938 
Q 293.272217 463.177126 293.523779 463.453688 
Q 293.775342 463.730251 294.303467 463.730251 
z
M 299.821045 464.677126 
Q 298.82417 464.677126 298.308545 464.145876 
Q 297.794482 463.613063 297.794482 462.659938 
L 297.794482 459.433376 
Q 297.794482 458.475563 298.31167 457.945876 
Q 298.828857 457.416188 299.821045 457.416188 
Q 300.816357 457.416188 301.331982 457.944313 
Q 301.847607 458.470876 301.847607 459.433376 
L 301.847607 462.659938 
Q 301.847607 463.617751 301.328857 464.147438 
Q 300.81167 464.677126 299.821045 464.677126 
z
M 299.821045 463.730251 
Q 300.347607 463.730251 300.59917 463.453688 
Q 300.850732 463.177126 300.850732 462.659938 
L 300.850732 459.433376 
Q 300.850732 458.914626 300.600732 458.639626 
Q 300.352295 458.363063 299.821045 458.363063 
Q 299.288232 458.363063 299.038232 458.639626 
Q 298.789795 458.914626 298.789795 459.433376 
L 298.789795 462.659938 
Q 298.789795 463.177126 299.041357 463.453688 
Q 299.29292 463.730251 299.821045 463.730251 
z
M 305.591748 464.677126 
Q 305.079248 464.677126 304.619873 464.580251 
Q 304.16206 464.481813 303.763623 464.286501 
Q 303.365185 464.091188 303.01831 463.797438 
L 303.01831 463.797438 
L 303.638623 463.036501 
L 303.638623 463.036501 
Q 304.044873 463.388063 304.532373 463.564626 
Q 305.021435 463.739626 305.591748 463.739626 
Q 306.363623 463.739626 306.788623 463.453688 
Q 307.213623 463.167751 307.213623 462.645876 
L 307.213623 462.641188 
Q 307.213623 462.269313 307.019873 462.052126 
Q 306.827685 461.834938 306.521435 461.730251 
Q 306.216748 461.625563 305.733935 461.536501 
Q 305.71831 461.531813 305.701123 461.531813 
Q 305.685498 461.531813 305.669873 461.527126 
L 305.596435 461.513063 
Q 304.883935 461.391188 304.43706 461.238063 
Q 303.990185 461.083376 303.672998 460.675563 
Q 303.35581 460.267751 303.35581 459.516188 
L 303.35581 459.511501 
Q 303.35581 458.852126 303.651123 458.386501 
Q 303.946435 457.919313 304.51206 457.675563 
Q 305.079248 457.430251 305.87456 457.430251 
Q 306.25581 457.430251 306.62456 457.514626 
Q 306.99331 457.597438 307.351123 457.761501 
Q 307.710498 457.924001 308.057373 458.172438 
L 308.057373 458.172438 
L 307.491748 458.964626 
L 307.491748 458.964626 
Q 307.085498 458.666188 306.682373 458.517751 
Q 306.28081 458.367751 305.87456 458.367751 
Q 305.147998 458.367751 304.744873 458.658376 
Q 304.341748 458.949001 304.341748 459.481813 
L 304.341748 459.486501 
Q 304.341748 459.852126 304.54956 460.063063 
Q 304.757373 460.272438 305.066748 460.372438 
Q 305.377685 460.472438 305.929248 460.580251 
Q 305.947998 460.584938 305.965185 460.588063 
Q 305.982373 460.589626 306.002685 460.594313 
Q 306.026123 460.599001 306.05581 460.605251 
Q 306.085498 460.609938 306.108935 460.614626 
Q 306.754248 460.745876 307.185498 460.927126 
Q 307.61831 461.106813 307.908935 461.509938 
Q 308.19956 461.913063 308.19956 462.611501 
L 308.19956 462.620876 
Q 308.19956 463.270876 307.891748 463.731813 
Q 307.583935 464.192751 306.99956 464.434938 
Q 306.416748 464.677126 305.591748 464.677126 
z
M 309.616162 457.503688 
L 310.611474 457.503688 
L 310.611474 464.603688 
L 309.616162 464.603688 
L 309.616162 457.503688 
z
M 310.113037 463.656813 
L 314.175537 463.656813 
L 314.175537 464.603688 
L 310.113037 464.603688 
L 310.113037 463.656813 
z
" style="fill: #ffffff"/>
   </g>
  </g>
 </g>
 <defs>
  <clipPath id="pfdde64a9ac">
   <rect x="144" y="77.76" width="892.8" height="498.96"/>
  </clipPath>
 </defs>
</svg>
