<?xml version="1.0" encoding="utf-8" standalone="no"?>
<!DOCTYPE svg PUBLIC "-//W3C//DTD SVG 1.1//EN"
  "http://www.w3.org/Graphics/SVG/1.1/DTD/svg11.dtd">
<svg xmlns:xlink="http://www.w3.org/1999/xlink" width="1152pt" height="648pt" viewBox="0 0 1152 648" xmlns="http://www.w3.org/2000/svg" version="1.1">
 <metadata>
  <rdf:RDF xmlns:dc="http://purl.org/dc/elements/1.1/" xmlns:cc="http://creativecommons.org/ns#" xmlns:rdf="http://www.w3.org/1999/02/22-rdf-syntax-ns#">
   <cc:Work>
    <dc:type rdf:resource="http://purl.org/dc/dcmitype/StillImage"/>
    <dc:date>2024-11-15T17:07:54.539970</dc:date>
    <dc:format>image/svg+xml</dc:format>
    <dc:creator>
     <cc:Agent>
      <dc:title>Matplotlib v3.8.1, https://matplotlib.org/</dc:title>
     </cc:Agent>
    </dc:creator>
   </cc:Work>
  </rdf:RDF>
 </metadata>
 <defs>
  <style type="text/css">*{stroke-linejoin: round; stroke-linecap: butt}</style>
 </defs>
 <g id="figure_1">
  <g id="patch_1">
   <path d="M 0 648 
L 1152 648 
L 1152 0 
L 0 0 
L 0 648 
z
" style="fill: none"/>
  </g>
  <g id="axes_1">
   <g id="line2d_1">
    <path d="M 210.554182 476.546706 
L 216.842314 466.421657 
L 223.130446 456.596505 
L 229.418579 447.062375 
L 235.706711 437.810653 
L 241.994843 428.832982 
L 248.282975 420.121248 
L 254.571107 411.667581 
L 260.85924 403.46434 
L 267.147372 395.504114 
L 273.435504 387.779707 
L 279.723636 380.284137 
L 286.011769 373.01063 
L 292.299901 365.952612 
L 298.588033 359.1037 
L 304.876165 352.457705 
L 311.164298 346.008617 
L 317.45243 339.750606 
L 323.740562 333.678013 
L 330.028694 327.785347 
L 336.316826 322.06728 
L 342.604959 316.518641 
L 348.893091 311.134412 
L 355.181223 305.909724 
L 361.469355 300.839851 
L 367.757488 295.920208 
L 374.04562 291.146346 
L 380.333752 286.513945 
L 386.621884 282.018816 
L 392.910017 277.656893 
L 399.198149 273.42423 
L 405.486281 269.316997 
L 411.774413 265.331479 
L 418.062545 261.464071 
L 424.350678 257.711272 
L 430.63881 254.069689 
L 436.926942 250.536025 
L 443.215074 247.107084 
L 449.503207 243.779763 
L 455.791339 240.551051 
L 462.079471 237.418027 
L 468.367603 234.377856 
L 474.655736 231.427786 
L 480.943868 228.565147 
L 487.232 225.78735 
L 493.520132 223.09188 
L 499.808264 220.476297 
L 506.096397 217.938236 
L 512.384529 215.475398 
L 518.672661 213.085554 
L 524.960793 210.766542 
L 531.248926 208.516263 
L 537.537058 206.332679 
L 543.82519 204.213815 
L 550.113322 202.157752 
L 556.401455 200.16263 
L 562.689587 198.226642 
L 568.977719 196.348036 
L 575.265851 194.525112 
L 581.553983 192.756219 
L 587.842116 191.039757 
L 594.130248 189.37417 
L 600.41838 187.757953 
L 606.706512 186.189641 
L 612.994645 184.667814 
L 619.282777 183.191096 
L 625.570909 181.758148 
L 631.859041 180.367675 
L 638.147174 179.018417 
L 644.435306 177.709152 
L 650.723438 176.438696 
L 657.01157 175.205897 
L 663.299702 174.009641 
L 669.587835 172.848843 
L 675.875967 171.722453 
L 682.164099 170.629451 
L 688.452231 169.568848 
L 694.740364 168.539683 
L 701.028496 167.541025 
L 707.316628 166.571969 
L 713.60476 165.631638 
L 719.892893 164.71918 
L 726.181025 163.833769 
L 732.469157 162.974604 
L 738.757289 162.140907 
L 745.045421 161.331922 
L 751.333554 160.546918 
L 757.621686 159.785184 
L 763.909818 159.046029 
L 770.19795 158.328784 
L 776.486083 157.632801 
L 782.774215 156.957449 
L 789.062347 156.302116 
L 795.350479 155.666209 
L 801.638612 155.049152 
L 807.926744 154.450386 
L 814.214876 153.86937 
L 820.503008 153.305577 
L 826.79114 152.758496 
L 833.079273 152.227632 
" clip-path="url(#p72271ed464)" style="fill: none; stroke: #30f2f2; stroke-width: 3; stroke-linecap: round"/>
   </g>
   <g id="text_1">
    <path d="M 841.984253 153.947638 
Q 841.471753 153.947638 841.012378 153.850763 
Q 840.554565 153.752325 840.156128 153.557013 
Q 839.75769 153.3617 839.410815 153.06795 
L 839.410815 153.06795 
L 840.031128 152.307013 
L 840.031128 152.307013 
Q 840.437378 152.658575 840.924878 152.835138 
Q 841.41394 153.010138 841.984253 153.010138 
Q 842.756128 153.010138 843.181128 152.7242 
Q 843.606128 152.438263 843.606128 151.916388 
L 843.606128 151.9117 
Q 843.606128 151.539825 843.412378 151.322638 
Q 843.22019 151.10545 842.91394 151.000763 
Q 842.609253 150.896075 842.12644 150.807013 
Q 842.110815 150.802325 842.093628 150.802325 
Q 842.078003 150.802325 842.062378 150.797638 
L 841.98894 150.783575 
Q 841.27644 150.6617 840.829565 150.508575 
Q 840.38269 150.353888 840.065503 149.946075 
Q 839.748315 149.538263 839.748315 148.7867 
L 839.748315 148.782013 
Q 839.748315 148.122638 840.043628 147.657013 
Q 840.33894 147.189825 840.904565 146.946075 
Q 841.471753 146.700763 842.267065 146.700763 
Q 842.648315 146.700763 843.017065 146.785138 
Q 843.385815 146.86795 843.743628 147.032013 
Q 844.103003 147.194513 844.449878 147.44295 
L 844.449878 147.44295 
L 843.884253 148.235138 
L 843.884253 148.235138 
Q 843.478003 147.9367 843.074878 147.788263 
Q 842.673315 147.638263 842.267065 147.638263 
Q 841.540503 147.638263 841.137378 147.928888 
Q 840.734253 148.219513 840.734253 148.752325 
L 840.734253 148.757013 
Q 840.734253 149.122638 840.942065 149.333575 
Q 841.149878 149.54295 841.459253 149.64295 
Q 841.77019 149.74295 842.321753 149.850763 
Q 842.340503 149.85545 842.35769 149.858575 
Q 842.374878 149.860138 842.39519 149.864825 
Q 842.418628 149.869513 842.448315 149.875763 
Q 842.478003 149.88045 842.50144 149.885138 
Q 843.146753 150.016388 843.578003 150.197638 
Q 844.010815 150.377325 844.30144 150.78045 
Q 844.592065 151.183575 844.592065 151.882013 
L 844.592065 151.891388 
Q 844.592065 152.541388 844.284253 153.002325 
Q 843.97644 153.463263 843.392065 153.70545 
Q 842.809253 153.947638 841.984253 153.947638 
z
M 846.682104 152.927325 
L 848.288354 152.927325 
Q 849.074292 152.927325 849.505542 152.519513 
Q 849.938354 152.1117 849.938354 151.369513 
L 849.938354 149.278888 
Q 849.938354 148.5367 849.505542 148.128888 
Q 849.074292 147.721075 848.288354 147.721075 
L 846.682104 147.721075 
L 846.682104 146.7742 
L 848.258667 146.7742 
Q 849.113354 146.7742 849.718042 147.072638 
Q 850.324292 147.369513 850.641479 147.941388 
Q 850.958667 148.513263 850.958667 149.31795 
L 850.958667 151.33045 
Q 850.958667 152.135138 850.641479 152.707013 
Q 850.324292 153.278888 849.716479 153.577325 
Q 849.108667 153.8742 848.253979 153.8742 
L 846.682104 153.8742 
L 846.682104 152.927325 
z
M 846.008667 146.7742 
L 847.003979 146.7742 
L 847.003979 153.8742 
L 846.008667 153.8742 
L 846.008667 146.7742 
z
M 854.503979 153.947638 
Q 853.860229 153.947638 853.371167 153.703888 
Q 852.883667 153.458575 852.616479 153.0117 
Q 852.350854 152.564825 852.350854 151.9742 
L 852.350854 151.857013 
Q 852.350854 151.325763 852.616479 150.857013 
Q 852.883667 150.388263 853.327417 150.1492 
Q 852.950854 149.94295 852.724292 149.55545 
Q 852.497729 149.166388 852.497729 148.7367 
L 852.497729 148.566388 
Q 852.497729 148.010138 852.746167 147.588263 
Q 852.994604 147.164825 853.449292 146.933575 
Q 853.903979 146.700763 854.503979 146.700763 
Q 855.103979 146.700763 855.558667 146.933575 
Q 856.013354 147.164825 856.261792 147.588263 
Q 856.510229 148.010138 856.510229 148.566388 
L 856.510229 148.7367 
Q 856.510229 149.177325 856.278979 149.563263 
Q 856.047729 149.947638 855.666479 150.1492 
Q 856.114917 150.39295 856.385229 150.860138 
Q 856.657104 151.325763 856.657104 151.857013 
L 856.657104 151.9742 
Q 856.657104 152.564825 856.391479 153.0117 
Q 856.125854 153.458575 855.636792 153.703888 
Q 855.149292 153.947638 854.503979 153.947638 
z
M 854.503979 152.989825 
Q 854.850854 152.989825 855.113354 152.853888 
Q 855.377417 152.716388 855.521167 152.471075 
Q 855.666479 152.2242 855.666479 151.900763 
L 855.666479 151.833575 
Q 855.666479 151.50545 855.521167 151.260138 
Q 855.377417 151.013263 855.113354 150.877325 
Q 854.850854 150.739825 854.503979 150.739825 
Q 854.157104 150.739825 853.893042 150.877325 
Q 853.630542 151.013263 853.485229 151.2617 
Q 853.341479 151.510138 853.341479 151.838263 
L 853.341479 151.9117 
Q 853.341479 152.233575 853.485229 152.477325 
Q 853.630542 152.721075 853.893042 152.85545 
Q 854.157104 152.989825 854.503979 152.989825 
z
M 854.503979 149.782013 
Q 854.802417 149.782013 855.030542 149.653888 
Q 855.260229 149.5242 855.386792 149.285138 
Q 855.514917 149.044513 855.514917 148.732013 
L 855.514917 148.664825 
Q 855.514917 148.366388 855.386792 148.1367 
Q 855.260229 147.907013 855.030542 147.783575 
Q 854.802417 147.658575 854.503979 147.658575 
Q 854.205542 147.658575 853.975854 147.783575 
Q 853.747729 147.907013 853.619604 148.1367 
Q 853.493042 148.366388 853.493042 148.669513 
L 853.493042 148.74295 
Q 853.493042 149.0492 853.619604 149.2867 
Q 853.747729 149.5242 853.975854 149.653888 
Q 854.205542 149.782013 854.503979 149.782013 
z
M 859.905151 146.7742 
L 860.900464 146.7742 
L 860.900464 153.8742 
L 859.905151 153.8742 
L 859.905151 146.7742 
z
M 860.387964 152.927325 
L 864.464526 152.927325 
L 864.464526 153.8742 
L 860.387964 153.8742 
L 860.387964 152.927325 
z
M 860.387964 149.875763 
L 863.928589 149.875763 
L 863.928589 150.822638 
L 860.387964 150.822638 
L 860.387964 149.875763 
z
M 860.387964 146.7742 
L 864.464526 146.7742 
L 864.464526 147.721075 
L 860.387964 147.721075 
L 860.387964 146.7742 
z
M 866.780151 152.564825 
Q 866.780151 152.750763 866.859839 152.850763 
Q 866.941089 152.950763 867.086401 152.950763 
L 867.555151 152.950763 
L 867.555151 153.8992 
L 866.969214 153.8992 
Q 866.403589 153.8992 866.092651 153.547638 
Q 865.783276 153.196075 865.783276 152.55545 
L 865.783276 146.7742 
L 866.780151 146.7742 
L 866.780151 152.564825 
z
M 868.678784 146.7742 
L 869.675659 146.7742 
L 869.675659 147.771075 
L 868.678784 147.771075 
L 868.678784 146.7742 
z
M 868.678784 148.80545 
L 869.675659 148.80545 
L 869.675659 153.8742 
L 868.678784 153.8742 
L 868.678784 148.80545 
z
M 872.5073 153.8992 
Q 871.891675 153.8992 871.605737 153.560138 
Q 871.3198 153.219513 871.3198 152.55545 
L 871.3198 147.33045 
L 872.316675 147.33045 
L 872.316675 152.564825 
Q 872.316675 152.750763 872.390112 152.850763 
Q 872.46355 152.950763 872.604175 152.950763 
L 873.083862 152.950763 
L 873.083862 153.8992 
L 872.5073 153.8992 
z
M 870.797925 148.80545 
L 873.083862 148.80545 
L 873.083862 149.703888 
L 870.797925 149.703888 
L 870.797925 148.80545 
z
M 876.525268 153.947638 
Q 875.822143 153.947638 875.323706 153.683575 
Q 874.826831 153.419513 874.564331 152.910138 
Q 874.303393 152.3992 874.303393 151.677325 
L 874.303393 151.10545 
Q 874.303393 150.353888 874.554956 149.822638 
Q 874.806518 149.289825 875.284643 149.0117 
Q 875.764331 148.732013 876.437768 148.732013 
Q 877.072143 148.732013 877.520581 149.050763 
Q 877.970581 149.36795 878.206518 149.96795 
Q 878.444018 150.56795 878.444018 151.408575 
L 878.444018 151.739825 
L 875.026831 151.739825 
L 875.026831 150.939825 
L 877.497143 150.939825 
L 877.497143 150.939825 
Q 877.453393 150.319513 877.176831 149.975763 
Q 876.901831 149.63045 876.437768 149.63045 
Q 875.870581 149.63045 875.561206 150.002325 
Q 875.251831 150.372638 875.251831 151.052325 
L 875.251831 151.696075 
Q 875.251831 152.325763 875.583081 152.663263 
Q 875.915893 153.000763 876.525268 153.000763 
Q 876.828393 153.000763 877.125268 152.878888 
Q 877.423706 152.75545 877.658081 152.5367 
L 877.658081 152.5367 
L 878.312768 153.189825 
L 878.312768 153.189825 
Q 877.936206 153.552325 877.467456 153.750763 
Q 876.998706 153.947638 876.525268 153.947638 
z
M 883.351831 155.402325 
Q 882.483081 154.460138 882.050268 153.291388 
Q 881.619018 152.121075 881.619018 150.710138 
Q 881.619018 149.2992 882.050268 148.13045 
Q 882.483081 146.960138 883.351831 146.01795 
L 884.034643 146.638263 
Q 883.298706 147.458575 882.931518 148.4742 
Q 882.565893 149.489825 882.565893 150.710138 
Q 882.565893 151.93045 882.931518 152.946075 
Q 883.298706 153.9617 884.034643 154.7867 
L 883.351831 155.402325 
z
M 887.379761 150.3492 
L 887.375073 150.5242 
Q 887.253198 150.7492 887.006323 150.853888 
Q 886.759448 150.958575 886.423511 150.958575 
Q 885.915698 150.958575 885.529761 150.700763 
Q 885.143823 150.441388 884.931323 149.971075 
Q 884.718823 149.4992 884.718823 148.878888 
L 884.718823 148.8742 
Q 884.718823 148.185138 884.950073 147.697638 
Q 885.182886 147.208575 885.629761 146.95545 
Q 886.076636 146.700763 886.701636 146.700763 
Q 887.326636 146.700763 887.770386 146.960138 
Q 888.215698 147.219513 888.446948 147.713263 
Q 888.678198 148.20545 888.678198 148.8992 
L 888.678198 148.903888 
Q 888.678198 149.283575 888.579761 149.716388 
Q 888.482886 150.1492 888.303198 150.572638 
Q 888.273511 150.6367 888.243823 150.702325 
Q 888.215698 150.76795 888.181323 150.832013 
L 886.667261 153.8742 
L 885.592261 153.8742 
L 887.379761 150.3492 
z
M 886.701636 150.050763 
Q 887.170386 150.050763 887.426636 149.733575 
Q 887.682886 149.416388 887.682886 148.839825 
L 887.682886 148.835138 
Q 887.682886 148.2742 887.426636 147.966388 
Q 887.170386 147.658575 886.701636 147.658575 
Q 886.228198 147.658575 885.971948 147.966388 
Q 885.715698 148.2742 885.715698 148.839825 
L 885.715698 148.844513 
Q 885.715698 149.421075 885.971948 149.7367 
Q 886.228198 150.050763 886.701636 150.050763 
z
M 891.828784 153.947638 
Q 891.203784 153.947638 890.758471 153.696075 
Q 890.314721 153.444513 890.081909 152.963263 
Q 889.850659 152.482013 889.850659 151.803888 
L 889.850659 151.7992 
Q 889.850659 151.403888 889.942846 150.969513 
Q 890.036596 150.533575 890.211596 150.114825 
Q 890.241284 150.041388 890.275659 149.971075 
Q 890.310034 149.8992 890.344409 149.83045 
L 891.886596 146.7742 
L 892.961596 146.7742 
L 891.149096 150.314825 
L 891.153784 150.138263 
Q 891.277221 149.908575 891.511596 149.782013 
Q 891.745971 149.65545 892.058471 149.65545 
Q 892.610034 149.65545 893.005346 149.90545 
Q 893.400659 150.153888 893.605346 150.63045 
Q 893.810034 151.10545 893.810034 151.7742 
L 893.810034 151.778888 
Q 893.810034 152.463263 893.578784 152.952325 
Q 893.347534 153.439825 892.900659 153.694513 
Q 892.453784 153.947638 891.828784 153.947638 
z
M 891.828784 152.989825 
Q 892.302221 152.989825 892.558471 152.697638 
Q 892.814721 152.403888 892.814721 151.8617 
L 892.814721 151.857013 
Q 892.814721 151.2617 892.545971 150.9367 
Q 892.277221 150.6117 891.778784 150.6117 
Q 891.335034 150.6117 891.091284 150.939825 
Q 890.847534 151.266388 890.847534 151.8617 
L 890.847534 151.86795 
Q 890.847534 152.408575 891.103784 152.6992 
Q 891.360034 152.989825 891.828784 152.989825 
z
M 897.155932 153.947638 
Q 896.159057 153.947638 895.643432 153.416388 
Q 895.12937 152.883575 895.12937 151.93045 
L 895.12937 148.703888 
Q 895.12937 147.746075 895.646557 147.216388 
Q 896.163745 146.6867 897.155932 146.6867 
Q 898.151245 146.6867 898.66687 147.214825 
Q 899.182495 147.741388 899.182495 148.703888 
L 899.182495 151.93045 
Q 899.182495 152.888263 898.663745 153.41795 
Q 898.146557 153.947638 897.155932 153.947638 
z
M 897.155932 153.000763 
Q 897.682495 153.000763 897.934057 152.7242 
Q 898.18562 152.447638 898.18562 151.93045 
L 898.18562 148.703888 
Q 898.18562 148.185138 897.93562 147.910138 
Q 897.687182 147.633575 897.155932 147.633575 
Q 896.62312 147.633575 896.37312 147.910138 
Q 896.124682 148.185138 896.124682 148.703888 
L 896.124682 151.93045 
Q 896.124682 152.447638 896.376245 152.7242 
Q 896.627807 153.000763 897.155932 153.000763 
z
M 902.673511 153.947638 
Q 901.676636 153.947638 901.161011 153.416388 
Q 900.646948 152.883575 900.646948 151.93045 
L 900.646948 148.703888 
Q 900.646948 147.746075 901.164136 147.216388 
Q 901.681323 146.6867 902.673511 146.6867 
Q 903.668823 146.6867 904.184448 147.214825 
Q 904.700073 147.741388 904.700073 148.703888 
L 904.700073 151.93045 
Q 904.700073 152.888263 904.181323 153.41795 
Q 903.664136 153.947638 902.673511 153.947638 
z
M 902.673511 153.000763 
Q 903.200073 153.000763 903.451636 152.7242 
Q 903.703198 152.447638 903.703198 151.93045 
L 903.703198 148.703888 
Q 903.703198 148.185138 903.453198 147.910138 
Q 903.204761 147.633575 902.673511 147.633575 
Q 902.140698 147.633575 901.890698 147.910138 
Q 901.642261 148.185138 901.642261 148.703888 
L 901.642261 151.93045 
Q 901.642261 152.447638 901.893823 152.7242 
Q 902.145386 153.000763 902.673511 153.000763 
z
M 905.530151 154.7867 
Q 906.266089 153.9617 906.631714 152.946075 
Q 906.998901 151.93045 906.998901 150.710138 
Q 906.998901 149.489825 906.631714 148.4742 
Q 906.266089 147.458575 905.530151 146.638263 
L 906.212964 146.01795 
Q 907.081714 146.960138 907.512964 148.13045 
Q 907.945776 149.2992 907.945776 150.710138 
Q 907.945776 152.121075 907.512964 153.291388 
Q 907.081714 154.460138 906.212964 155.402325 
L 905.530151 154.7867 
z
" style="fill: #ffffff; stroke: #000000"/>
    <path d="M 841.984253 153.947638 
Q 841.471753 153.947638 841.012378 153.850763 
Q 840.554565 153.752325 840.156128 153.557013 
Q 839.75769 153.3617 839.410815 153.06795 
L 839.410815 153.06795 
L 840.031128 152.307013 
L 840.031128 152.307013 
Q 840.437378 152.658575 840.924878 152.835138 
Q 841.41394 153.010138 841.984253 153.010138 
Q 842.756128 153.010138 843.181128 152.7242 
Q 843.606128 152.438263 843.606128 151.916388 
L 843.606128 151.9117 
Q 843.606128 151.539825 843.412378 151.322638 
Q 843.22019 151.10545 842.91394 151.000763 
Q 842.609253 150.896075 842.12644 150.807013 
Q 842.110815 150.802325 842.093628 150.802325 
Q 842.078003 150.802325 842.062378 150.797638 
L 841.98894 150.783575 
Q 841.27644 150.6617 840.829565 150.508575 
Q 840.38269 150.353888 840.065503 149.946075 
Q 839.748315 149.538263 839.748315 148.7867 
L 839.748315 148.782013 
Q 839.748315 148.122638 840.043628 147.657013 
Q 840.33894 147.189825 840.904565 146.946075 
Q 841.471753 146.700763 842.267065 146.700763 
Q 842.648315 146.700763 843.017065 146.785138 
Q 843.385815 146.86795 843.743628 147.032013 
Q 844.103003 147.194513 844.449878 147.44295 
L 844.449878 147.44295 
L 843.884253 148.235138 
L 843.884253 148.235138 
Q 843.478003 147.9367 843.074878 147.788263 
Q 842.673315 147.638263 842.267065 147.638263 
Q 841.540503 147.638263 841.137378 147.928888 
Q 840.734253 148.219513 840.734253 148.752325 
L 840.734253 148.757013 
Q 840.734253 149.122638 840.942065 149.333575 
Q 841.149878 149.54295 841.459253 149.64295 
Q 841.77019 149.74295 842.321753 149.850763 
Q 842.340503 149.85545 842.35769 149.858575 
Q 842.374878 149.860138 842.39519 149.864825 
Q 842.418628 149.869513 842.448315 149.875763 
Q 842.478003 149.88045 842.50144 149.885138 
Q 843.146753 150.016388 843.578003 150.197638 
Q 844.010815 150.377325 844.30144 150.78045 
Q 844.592065 151.183575 844.592065 151.882013 
L 844.592065 151.891388 
Q 844.592065 152.541388 844.284253 153.002325 
Q 843.97644 153.463263 843.392065 153.70545 
Q 842.809253 153.947638 841.984253 153.947638 
z
M 846.682104 152.927325 
L 848.288354 152.927325 
Q 849.074292 152.927325 849.505542 152.519513 
Q 849.938354 152.1117 849.938354 151.369513 
L 849.938354 149.278888 
Q 849.938354 148.5367 849.505542 148.128888 
Q 849.074292 147.721075 848.288354 147.721075 
L 846.682104 147.721075 
L 846.682104 146.7742 
L 848.258667 146.7742 
Q 849.113354 146.7742 849.718042 147.072638 
Q 850.324292 147.369513 850.641479 147.941388 
Q 850.958667 148.513263 850.958667 149.31795 
L 850.958667 151.33045 
Q 850.958667 152.135138 850.641479 152.707013 
Q 850.324292 153.278888 849.716479 153.577325 
Q 849.108667 153.8742 848.253979 153.8742 
L 846.682104 153.8742 
L 846.682104 152.927325 
z
M 846.008667 146.7742 
L 847.003979 146.7742 
L 847.003979 153.8742 
L 846.008667 153.8742 
L 846.008667 146.7742 
z
M 854.503979 153.947638 
Q 853.860229 153.947638 853.371167 153.703888 
Q 852.883667 153.458575 852.616479 153.0117 
Q 852.350854 152.564825 852.350854 151.9742 
L 852.350854 151.857013 
Q 852.350854 151.325763 852.616479 150.857013 
Q 852.883667 150.388263 853.327417 150.1492 
Q 852.950854 149.94295 852.724292 149.55545 
Q 852.497729 149.166388 852.497729 148.7367 
L 852.497729 148.566388 
Q 852.497729 148.010138 852.746167 147.588263 
Q 852.994604 147.164825 853.449292 146.933575 
Q 853.903979 146.700763 854.503979 146.700763 
Q 855.103979 146.700763 855.558667 146.933575 
Q 856.013354 147.164825 856.261792 147.588263 
Q 856.510229 148.010138 856.510229 148.566388 
L 856.510229 148.7367 
Q 856.510229 149.177325 856.278979 149.563263 
Q 856.047729 149.947638 855.666479 150.1492 
Q 856.114917 150.39295 856.385229 150.860138 
Q 856.657104 151.325763 856.657104 151.857013 
L 856.657104 151.9742 
Q 856.657104 152.564825 856.391479 153.0117 
Q 856.125854 153.458575 855.636792 153.703888 
Q 855.149292 153.947638 854.503979 153.947638 
z
M 854.503979 152.989825 
Q 854.850854 152.989825 855.113354 152.853888 
Q 855.377417 152.716388 855.521167 152.471075 
Q 855.666479 152.2242 855.666479 151.900763 
L 855.666479 151.833575 
Q 855.666479 151.50545 855.521167 151.260138 
Q 855.377417 151.013263 855.113354 150.877325 
Q 854.850854 150.739825 854.503979 150.739825 
Q 854.157104 150.739825 853.893042 150.877325 
Q 853.630542 151.013263 853.485229 151.2617 
Q 853.341479 151.510138 853.341479 151.838263 
L 853.341479 151.9117 
Q 853.341479 152.233575 853.485229 152.477325 
Q 853.630542 152.721075 853.893042 152.85545 
Q 854.157104 152.989825 854.503979 152.989825 
z
M 854.503979 149.782013 
Q 854.802417 149.782013 855.030542 149.653888 
Q 855.260229 149.5242 855.386792 149.285138 
Q 855.514917 149.044513 855.514917 148.732013 
L 855.514917 148.664825 
Q 855.514917 148.366388 855.386792 148.1367 
Q 855.260229 147.907013 855.030542 147.783575 
Q 854.802417 147.658575 854.503979 147.658575 
Q 854.205542 147.658575 853.975854 147.783575 
Q 853.747729 147.907013 853.619604 148.1367 
Q 853.493042 148.366388 853.493042 148.669513 
L 853.493042 148.74295 
Q 853.493042 149.0492 853.619604 149.2867 
Q 853.747729 149.5242 853.975854 149.653888 
Q 854.205542 149.782013 854.503979 149.782013 
z
M 859.905151 146.7742 
L 860.900464 146.7742 
L 860.900464 153.8742 
L 859.905151 153.8742 
L 859.905151 146.7742 
z
M 860.387964 152.927325 
L 864.464526 152.927325 
L 864.464526 153.8742 
L 860.387964 153.8742 
L 860.387964 152.927325 
z
M 860.387964 149.875763 
L 863.928589 149.875763 
L 863.928589 150.822638 
L 860.387964 150.822638 
L 860.387964 149.875763 
z
M 860.387964 146.7742 
L 864.464526 146.7742 
L 864.464526 147.721075 
L 860.387964 147.721075 
L 860.387964 146.7742 
z
M 866.780151 152.564825 
Q 866.780151 152.750763 866.859839 152.850763 
Q 866.941089 152.950763 867.086401 152.950763 
L 867.555151 152.950763 
L 867.555151 153.8992 
L 866.969214 153.8992 
Q 866.403589 153.8992 866.092651 153.547638 
Q 865.783276 153.196075 865.783276 152.55545 
L 865.783276 146.7742 
L 866.780151 146.7742 
L 866.780151 152.564825 
z
M 868.678784 146.7742 
L 869.675659 146.7742 
L 869.675659 147.771075 
L 868.678784 147.771075 
L 868.678784 146.7742 
z
M 868.678784 148.80545 
L 869.675659 148.80545 
L 869.675659 153.8742 
L 868.678784 153.8742 
L 868.678784 148.80545 
z
M 872.5073 153.8992 
Q 871.891675 153.8992 871.605737 153.560138 
Q 871.3198 153.219513 871.3198 152.55545 
L 871.3198 147.33045 
L 872.316675 147.33045 
L 872.316675 152.564825 
Q 872.316675 152.750763 872.390112 152.850763 
Q 872.46355 152.950763 872.604175 152.950763 
L 873.083862 152.950763 
L 873.083862 153.8992 
L 872.5073 153.8992 
z
M 870.797925 148.80545 
L 873.083862 148.80545 
L 873.083862 149.703888 
L 870.797925 149.703888 
L 870.797925 148.80545 
z
M 876.525268 153.947638 
Q 875.822143 153.947638 875.323706 153.683575 
Q 874.826831 153.419513 874.564331 152.910138 
Q 874.303393 152.3992 874.303393 151.677325 
L 874.303393 151.10545 
Q 874.303393 150.353888 874.554956 149.822638 
Q 874.806518 149.289825 875.284643 149.0117 
Q 875.764331 148.732013 876.437768 148.732013 
Q 877.072143 148.732013 877.520581 149.050763 
Q 877.970581 149.36795 878.206518 149.96795 
Q 878.444018 150.56795 878.444018 151.408575 
L 878.444018 151.739825 
L 875.026831 151.739825 
L 875.026831 150.939825 
L 877.497143 150.939825 
L 877.497143 150.939825 
Q 877.453393 150.319513 877.176831 149.975763 
Q 876.901831 149.63045 876.437768 149.63045 
Q 875.870581 149.63045 875.561206 150.002325 
Q 875.251831 150.372638 875.251831 151.052325 
L 875.251831 151.696075 
Q 875.251831 152.325763 875.583081 152.663263 
Q 875.915893 153.000763 876.525268 153.000763 
Q 876.828393 153.000763 877.125268 152.878888 
Q 877.423706 152.75545 877.658081 152.5367 
L 877.658081 152.5367 
L 878.312768 153.189825 
L 878.312768 153.189825 
Q 877.936206 153.552325 877.467456 153.750763 
Q 876.998706 153.947638 876.525268 153.947638 
z
M 883.351831 155.402325 
Q 882.483081 154.460138 882.050268 153.291388 
Q 881.619018 152.121075 881.619018 150.710138 
Q 881.619018 149.2992 882.050268 148.13045 
Q 882.483081 146.960138 883.351831 146.01795 
L 884.034643 146.638263 
Q 883.298706 147.458575 882.931518 148.4742 
Q 882.565893 149.489825 882.565893 150.710138 
Q 882.565893 151.93045 882.931518 152.946075 
Q 883.298706 153.9617 884.034643 154.7867 
L 883.351831 155.402325 
z
M 887.379761 150.3492 
L 887.375073 150.5242 
Q 887.253198 150.7492 887.006323 150.853888 
Q 886.759448 150.958575 886.423511 150.958575 
Q 885.915698 150.958575 885.529761 150.700763 
Q 885.143823 150.441388 884.931323 149.971075 
Q 884.718823 149.4992 884.718823 148.878888 
L 884.718823 148.8742 
Q 884.718823 148.185138 884.950073 147.697638 
Q 885.182886 147.208575 885.629761 146.95545 
Q 886.076636 146.700763 886.701636 146.700763 
Q 887.326636 146.700763 887.770386 146.960138 
Q 888.215698 147.219513 888.446948 147.713263 
Q 888.678198 148.20545 888.678198 148.8992 
L 888.678198 148.903888 
Q 888.678198 149.283575 888.579761 149.716388 
Q 888.482886 150.1492 888.303198 150.572638 
Q 888.273511 150.6367 888.243823 150.702325 
Q 888.215698 150.76795 888.181323 150.832013 
L 886.667261 153.8742 
L 885.592261 153.8742 
L 887.379761 150.3492 
z
M 886.701636 150.050763 
Q 887.170386 150.050763 887.426636 149.733575 
Q 887.682886 149.416388 887.682886 148.839825 
L 887.682886 148.835138 
Q 887.682886 148.2742 887.426636 147.966388 
Q 887.170386 147.658575 886.701636 147.658575 
Q 886.228198 147.658575 885.971948 147.966388 
Q 885.715698 148.2742 885.715698 148.839825 
L 885.715698 148.844513 
Q 885.715698 149.421075 885.971948 149.7367 
Q 886.228198 150.050763 886.701636 150.050763 
z
M 891.828784 153.947638 
Q 891.203784 153.947638 890.758471 153.696075 
Q 890.314721 153.444513 890.081909 152.963263 
Q 889.850659 152.482013 889.850659 151.803888 
L 889.850659 151.7992 
Q 889.850659 151.403888 889.942846 150.969513 
Q 890.036596 150.533575 890.211596 150.114825 
Q 890.241284 150.041388 890.275659 149.971075 
Q 890.310034 149.8992 890.344409 149.83045 
L 891.886596 146.7742 
L 892.961596 146.7742 
L 891.149096 150.314825 
L 891.153784 150.138263 
Q 891.277221 149.908575 891.511596 149.782013 
Q 891.745971 149.65545 892.058471 149.65545 
Q 892.610034 149.65545 893.005346 149.90545 
Q 893.400659 150.153888 893.605346 150.63045 
Q 893.810034 151.10545 893.810034 151.7742 
L 893.810034 151.778888 
Q 893.810034 152.463263 893.578784 152.952325 
Q 893.347534 153.439825 892.900659 153.694513 
Q 892.453784 153.947638 891.828784 153.947638 
z
M 891.828784 152.989825 
Q 892.302221 152.989825 892.558471 152.697638 
Q 892.814721 152.403888 892.814721 151.8617 
L 892.814721 151.857013 
Q 892.814721 151.2617 892.545971 150.9367 
Q 892.277221 150.6117 891.778784 150.6117 
Q 891.335034 150.6117 891.091284 150.939825 
Q 890.847534 151.266388 890.847534 151.8617 
L 890.847534 151.86795 
Q 890.847534 152.408575 891.103784 152.6992 
Q 891.360034 152.989825 891.828784 152.989825 
z
M 897.155932 153.947638 
Q 896.159057 153.947638 895.643432 153.416388 
Q 895.12937 152.883575 895.12937 151.93045 
L 895.12937 148.703888 
Q 895.12937 147.746075 895.646557 147.216388 
Q 896.163745 146.6867 897.155932 146.6867 
Q 898.151245 146.6867 898.66687 147.214825 
Q 899.182495 147.741388 899.182495 148.703888 
L 899.182495 151.93045 
Q 899.182495 152.888263 898.663745 153.41795 
Q 898.146557 153.947638 897.155932 153.947638 
z
M 897.155932 153.000763 
Q 897.682495 153.000763 897.934057 152.7242 
Q 898.18562 152.447638 898.18562 151.93045 
L 898.18562 148.703888 
Q 898.18562 148.185138 897.93562 147.910138 
Q 897.687182 147.633575 897.155932 147.633575 
Q 896.62312 147.633575 896.37312 147.910138 
Q 896.124682 148.185138 896.124682 148.703888 
L 896.124682 151.93045 
Q 896.124682 152.447638 896.376245 152.7242 
Q 896.627807 153.000763 897.155932 153.000763 
z
M 902.673511 153.947638 
Q 901.676636 153.947638 901.161011 153.416388 
Q 900.646948 152.883575 900.646948 151.93045 
L 900.646948 148.703888 
Q 900.646948 147.746075 901.164136 147.216388 
Q 901.681323 146.6867 902.673511 146.6867 
Q 903.668823 146.6867 904.184448 147.214825 
Q 904.700073 147.741388 904.700073 148.703888 
L 904.700073 151.93045 
Q 904.700073 152.888263 904.181323 153.41795 
Q 903.664136 153.947638 902.673511 153.947638 
z
M 902.673511 153.000763 
Q 903.200073 153.000763 903.451636 152.7242 
Q 903.703198 152.447638 903.703198 151.93045 
L 903.703198 148.703888 
Q 903.703198 148.185138 903.453198 147.910138 
Q 903.204761 147.633575 902.673511 147.633575 
Q 902.140698 147.633575 901.890698 147.910138 
Q 901.642261 148.185138 901.642261 148.703888 
L 901.642261 151.93045 
Q 901.642261 152.447638 901.893823 152.7242 
Q 902.145386 153.000763 902.673511 153.000763 
z
M 905.530151 154.7867 
Q 906.266089 153.9617 906.631714 152.946075 
Q 906.998901 151.93045 906.998901 150.710138 
Q 906.998901 149.489825 906.631714 148.4742 
Q 906.266089 147.458575 905.530151 146.638263 
L 906.212964 146.01795 
Q 907.081714 146.960138 907.512964 148.13045 
Q 907.945776 149.2992 907.945776 150.710138 
Q 907.945776 152.121075 907.512964 153.291388 
Q 907.081714 154.460138 906.212964 155.402325 
L 905.530151 154.7867 
z
" style="fill: #ffffff"/>
   </g>
  </g>
 </g>
 <defs>
  <clipPath id="p72271ed464">
   <rect x="144" y="77.76" width="892.8" height="498.96"/>
  </clipPath>
 </defs>
</svg>
