<?xml version="1.0" encoding="utf-8" standalone="no"?>
<!DOCTYPE svg PUBLIC "-//W3C//DTD SVG 1.1//EN"
  "http://www.w3.org/Graphics/SVG/1.1/DTD/svg11.dtd">
<svg xmlns:xlink="http://www.w3.org/1999/xlink" width="1152pt" height="648pt" viewBox="0 0 1152 648" xmlns="http://www.w3.org/2000/svg" version="1.1">
 <metadata>
  <rdf:RDF xmlns:dc="http://purl.org/dc/elements/1.1/" xmlns:cc="http://creativecommons.org/ns#" xmlns:rdf="http://www.w3.org/1999/02/22-rdf-syntax-ns#">
   <cc:Work>
    <dc:type rdf:resource="http://purl.org/dc/dcmitype/StillImage"/>
    <dc:date>2024-11-15T16:54:07.674411</dc:date>
    <dc:format>image/svg+xml</dc:format>
    <dc:creator>
     <cc:Agent>
      <dc:title>Matplotlib v3.9.2, https://matplotlib.org/</dc:title>
     </cc:Agent>
    </dc:creator>
   </cc:Work>
  </rdf:RDF>
 </metadata>
 <defs>
  <style type="text/css">*{stroke-linejoin: round; stroke-linecap: butt}</style>
 </defs>
 <g id="figure_1">
  <g id="patch_1">
   <path d="M 0 648 
L 1152 648 
L 1152 0 
L 0 0 
L 0 648 
z
" style="fill: none"/>
  </g>
  <g id="axes_1">
   <g id="line2d_1">
    <path d="M 204.466909 453.034634 
L 209.484298 448.07832 
L 214.501686 443.230072 
L 219.519074 438.487538 
L 224.536463 433.848415 
L 229.553851 429.310451 
L 234.57124 424.871442 
L 239.588628 420.529233 
L 244.606017 416.281716 
L 249.623405 412.126828 
L 254.640793 408.062551 
L 259.658182 404.08691 
L 264.67557 400.197975 
L 269.692959 396.393856 
L 274.710347 392.672705 
L 279.727736 389.032716 
L 284.745124 385.472118 
L 289.762512 381.989181 
L 294.779901 378.582215 
L 299.797289 375.249562 
L 304.814678 371.989603 
L 309.832066 368.800754 
L 314.849455 365.681465 
L 319.866843 362.63022 
L 324.884231 359.645535 
L 329.90162 356.72596 
L 334.919008 353.870076 
L 339.936397 351.076493 
L 344.953785 348.343854 
L 349.971174 345.670831 
L 354.988562 343.056123 
L 360.00595 340.498458 
L 365.023339 337.996595 
L 370.040727 335.549314 
L 375.058116 333.155428 
L 380.075504 330.813771 
L 385.092893 328.523204 
L 390.110281 326.282614 
L 395.127669 324.09091 
L 400.145058 321.947027 
L 405.162446 319.849922 
L 410.179835 317.798574 
L 415.197223 315.791986 
L 420.214612 313.829181 
L 425.232 311.909206 
L 430.249388 310.031125 
L 435.266777 308.194024 
L 440.284165 306.397011 
L 445.301554 304.639211 
L 450.318942 302.919767 
L 455.336331 301.237845 
L 460.353719 299.592625 
L 465.371107 297.983307 
L 470.388496 296.409108 
L 475.405884 294.869261 
L 480.423273 293.363017 
L 485.440661 291.889643 
L 490.45805 290.448423 
L 495.475438 289.038654 
L 500.492826 287.659651 
L 505.510215 286.310743 
L 510.527603 284.991272 
L 515.544992 283.700597 
L 520.56238 282.438089 
L 525.579769 281.203134 
L 530.597157 279.995132 
L 535.614545 278.813492 
L 540.631934 277.657642 
L 545.649322 276.527017 
L 550.666711 275.421068 
L 555.684099 274.339256 
L 560.701488 273.281054 
L 565.718876 272.245948 
L 570.736264 271.233433 
L 575.753653 270.243016 
L 580.771041 269.274216 
L 585.78843 268.32656 
L 590.805818 267.399588 
L 595.823207 266.492847 
L 600.840595 265.605897 
L 605.857983 264.738306 
L 610.875372 263.88965 
L 615.89276 263.059518 
L 620.910149 262.247504 
L 625.927537 261.453213 
L 630.944926 260.67626 
L 635.962314 259.916264 
L 640.979702 259.172857 
L 645.997091 258.445675 
L 651.014479 257.734366 
L 656.031868 257.038583 
L 661.049256 256.357986 
L 666.066645 255.692245 
L 671.084033 255.041035 
L 676.101421 254.404039 
L 681.11881 253.780948 
L 686.136198 253.171456 
L 691.153587 252.575269 
L 696.170975 251.992094 
L 701.188364 251.421649 
" clip-path="url(#p0ebb6fc262)" style="fill: none; stroke: #66ff33; stroke-width: 3; stroke-linecap: round"/>
   </g>
   <g id="text_1">
    <path d="M 709.893344 245.968217 
L 710.743344 245.968217 
L 713.360531 253.068217 
L 712.285531 253.068217 
L 710.318344 247.340092 
L 708.351156 253.068217 
L 707.276156 253.068217 
L 709.893344 245.968217 
z
M 708.482406 250.56353 
L 712.218344 250.56353 
L 712.218344 251.510405 
L 708.482406 251.510405 
L 708.482406 250.56353 
z
M 716.002328 253.068217 
L 715.005453 253.068217 
L 715.005453 247.052592 
L 713.994516 247.672905 
L 713.994516 246.641655 
L 715.005453 245.968217 
L 716.002328 245.968217 
L 716.002328 253.068217 
z
M 721.280648 246.85728 
L 719.444711 253.068217 
L 718.385336 253.068217 
L 720.221273 246.915092 
L 718.413461 246.915092 
L 718.413461 247.936967 
L 717.418148 247.936967 
L 717.418148 245.968217 
L 721.280648 245.968217 
L 721.280648 246.85728 
z
M 725.016 249.366655 
L 727.286312 249.366655 
Q 727.608187 249.366655 727.851937 249.215092 
Q 728.09725 249.06353 728.230062 248.785405 
Q 728.364437 248.50728 728.364437 248.146342 
L 728.364437 248.146342 
Q 728.364437 247.780717 728.230062 247.502592 
Q 728.09725 247.222905 727.851937 247.06978 
Q 727.608187 246.915092 727.286312 246.915092 
L 725.016 246.915092 
L 725.016 245.968217 
L 727.251937 245.968217 
Q 727.886312 245.968217 728.369125 246.240092 
Q 728.8535 246.510405 729.119125 247.004155 
Q 729.386312 247.496342 729.386312 248.146342 
L 729.386312 248.146342 
Q 729.386312 248.796342 729.119125 249.286967 
Q 728.8535 249.777592 728.369125 250.046342 
Q 727.886312 250.31353 727.251937 250.31353 
L 725.016 250.31353 
L 725.016 249.366655 
z
M 724.5035 245.968217 
L 725.498812 245.968217 
L 725.498812 253.068217 
L 724.5035 253.068217 
L 724.5035 245.968217 
z
M 730.630648 247.999467 
L 731.627523 247.999467 
L 731.627523 253.068217 
L 730.630648 253.068217 
L 730.630648 247.999467 
z
M 733.418148 249.20103 
Q 733.286898 249.040092 733.086898 248.95728 
Q 732.886898 248.874467 732.622836 248.874467 
Q 732.149398 248.874467 731.888461 249.135405 
Q 731.627523 249.396342 731.627523 249.860405 
L 731.524398 248.883842 
Q 731.758773 248.429155 732.129086 248.177592 
Q 732.500961 247.92603 732.949398 247.92603 
Q 733.296273 247.92603 733.577523 248.02603 
Q 733.858773 248.12603 734.068148 248.321342 
L 733.418148 249.20103 
z
M 736.841976 253.141655 
Q 736.182601 253.141655 735.713851 252.883842 
Q 735.245101 252.624467 734.998226 252.129155 
Q 734.751351 251.63228 734.751351 250.933842 
L 734.751351 250.108842 
Q 734.751351 249.421342 734.998226 248.930717 
Q 735.245101 248.43853 735.713851 248.18228 
Q 736.182601 247.92603 736.841976 247.92603 
Q 737.501351 247.92603 737.970101 248.18228 
Q 738.438851 248.43853 738.684164 248.930717 
Q 738.931039 249.421342 738.931039 250.108842 
L 738.931039 250.949467 
Q 738.931039 251.641655 738.684164 252.133842 
Q 738.438851 252.624467 737.970101 252.883842 
Q 737.501351 253.141655 736.841976 253.141655 
z
M 736.841976 252.19478 
Q 737.363851 252.19478 737.649789 251.868217 
Q 737.935726 251.540092 737.935726 250.949467 
L 737.935726 250.108842 
Q 737.935726 249.518217 737.649789 249.196342 
Q 737.363851 248.874467 736.841976 248.874467 
Q 736.318539 248.874467 736.032601 249.196342 
Q 735.748226 249.518217 735.748226 250.108842 
L 735.748226 250.949467 
Q 735.748226 251.540092 736.032601 251.868217 
Q 736.318539 252.19478 736.841976 252.19478 
z
" style="fill: #ffffff; stroke: #000000"/>
    <path d="M 709.893344 245.968217 
L 710.743344 245.968217 
L 713.360531 253.068217 
L 712.285531 253.068217 
L 710.318344 247.340092 
L 708.351156 253.068217 
L 707.276156 253.068217 
L 709.893344 245.968217 
z
M 708.482406 250.56353 
L 712.218344 250.56353 
L 712.218344 251.510405 
L 708.482406 251.510405 
L 708.482406 250.56353 
z
M 716.002328 253.068217 
L 715.005453 253.068217 
L 715.005453 247.052592 
L 713.994516 247.672905 
L 713.994516 246.641655 
L 715.005453 245.968217 
L 716.002328 245.968217 
L 716.002328 253.068217 
z
M 721.280648 246.85728 
L 719.444711 253.068217 
L 718.385336 253.068217 
L 720.221273 246.915092 
L 718.413461 246.915092 
L 718.413461 247.936967 
L 717.418148 247.936967 
L 717.418148 245.968217 
L 721.280648 245.968217 
L 721.280648 246.85728 
z
M 725.016 249.366655 
L 727.286312 249.366655 
Q 727.608187 249.366655 727.851937 249.215092 
Q 728.09725 249.06353 728.230062 248.785405 
Q 728.364437 248.50728 728.364437 248.146342 
L 728.364437 248.146342 
Q 728.364437 247.780717 728.230062 247.502592 
Q 728.09725 247.222905 727.851937 247.06978 
Q 727.608187 246.915092 727.286312 246.915092 
L 725.016 246.915092 
L 725.016 245.968217 
L 727.251937 245.968217 
Q 727.886312 245.968217 728.369125 246.240092 
Q 728.8535 246.510405 729.119125 247.004155 
Q 729.386312 247.496342 729.386312 248.146342 
L 729.386312 248.146342 
Q 729.386312 248.796342 729.119125 249.286967 
Q 728.8535 249.777592 728.369125 250.046342 
Q 727.886312 250.31353 727.251937 250.31353 
L 725.016 250.31353 
L 725.016 249.366655 
z
M 724.5035 245.968217 
L 725.498812 245.968217 
L 725.498812 253.068217 
L 724.5035 253.068217 
L 724.5035 245.968217 
z
M 730.630648 247.999467 
L 731.627523 247.999467 
L 731.627523 253.068217 
L 730.630648 253.068217 
L 730.630648 247.999467 
z
M 733.418148 249.20103 
Q 733.286898 249.040092 733.086898 248.95728 
Q 732.886898 248.874467 732.622836 248.874467 
Q 732.149398 248.874467 731.888461 249.135405 
Q 731.627523 249.396342 731.627523 249.860405 
L 731.524398 248.883842 
Q 731.758773 248.429155 732.129086 248.177592 
Q 732.500961 247.92603 732.949398 247.92603 
Q 733.296273 247.92603 733.577523 248.02603 
Q 733.858773 248.12603 734.068148 248.321342 
L 733.418148 249.20103 
z
M 736.841976 253.141655 
Q 736.182601 253.141655 735.713851 252.883842 
Q 735.245101 252.624467 734.998226 252.129155 
Q 734.751351 251.63228 734.751351 250.933842 
L 734.751351 250.108842 
Q 734.751351 249.421342 734.998226 248.930717 
Q 735.245101 248.43853 735.713851 248.18228 
Q 736.182601 247.92603 736.841976 247.92603 
Q 737.501351 247.92603 737.970101 248.18228 
Q 738.438851 248.43853 738.684164 248.930717 
Q 738.931039 249.421342 738.931039 250.108842 
L 738.931039 250.949467 
Q 738.931039 251.641655 738.684164 252.133842 
Q 738.438851 252.624467 737.970101 252.883842 
Q 737.501351 253.141655 736.841976 253.141655 
z
M 736.841976 252.19478 
Q 737.363851 252.19478 737.649789 251.868217 
Q 737.935726 251.540092 737.935726 250.949467 
L 737.935726 250.108842 
Q 737.935726 249.518217 737.649789 249.196342 
Q 737.363851 248.874467 736.841976 248.874467 
Q 736.318539 248.874467 736.032601 249.196342 
Q 735.748226 249.518217 735.748226 250.108842 
L 735.748226 250.949467 
Q 735.748226 251.540092 736.032601 251.868217 
Q 736.318539 252.19478 736.841976 252.19478 
z
" style="fill: #ffffff"/>
   </g>
  </g>
 </g>
 <defs>
  <clipPath id="p0ebb6fc262">
   <rect x="144" y="77.76" width="892.8" height="498.96"/>
  </clipPath>
 </defs>
</svg>
