<?xml version="1.0" encoding="utf-8" standalone="no"?>
<!DOCTYPE svg PUBLIC "-//W3C//DTD SVG 1.1//EN"
  "http://www.w3.org/Graphics/SVG/1.1/DTD/svg11.dtd">
<svg xmlns:xlink="http://www.w3.org/1999/xlink" width="1152pt" height="648pt" viewBox="0 0 1152 648" xmlns="http://www.w3.org/2000/svg" version="1.1">
 <metadata>
  <rdf:RDF xmlns:dc="http://purl.org/dc/elements/1.1/" xmlns:cc="http://creativecommons.org/ns#" xmlns:rdf="http://www.w3.org/1999/02/22-rdf-syntax-ns#">
   <cc:Work>
    <dc:type rdf:resource="http://purl.org/dc/dcmitype/StillImage"/>
    <dc:date>2024-11-15T16:34:26.001695</dc:date>
    <dc:format>image/svg+xml</dc:format>
    <dc:creator>
     <cc:Agent>
      <dc:title>Matplotlib v3.9.2, https://matplotlib.org/</dc:title>
     </cc:Agent>
    </dc:creator>
   </cc:Work>
  </rdf:RDF>
 </metadata>
 <defs>
  <style type="text/css">*{stroke-linejoin: round; stroke-linecap: butt}</style>
 </defs>
 <g id="figure_1">
  <g id="patch_1">
   <path d="M 0 648 
L 1152 648 
L 1152 0 
L 0 0 
L 0 648 
z
" style="fill: none"/>
  </g>
  <g id="axes_1">
   <g id="line2d_1">
    <path d="M 236.526545 496.10054 
L 239.535339 492.90292 
L 242.544132 489.710792 
L 245.552926 486.52961 
L 248.561719 483.364754 
L 251.570512 480.221492 
L 254.579306 477.104947 
L 257.588099 474.020066 
L 260.596893 470.971586 
L 263.605686 467.964011 
L 266.614479 465.001586 
L 269.623273 462.088277 
L 272.632066 459.227752 
L 275.64086 456.423372 
L 278.649653 453.678178 
L 281.658446 450.994882 
L 284.66724 448.375871 
L 287.676033 445.823202 
L 290.684826 443.338606 
L 293.69362 440.923498 
L 296.702413 438.578978 
L 299.711207 436.305854 
L 302.72 434.104641 
L 305.728793 431.975587 
L 308.737587 429.918682 
L 311.74638 427.933679 
L 314.755174 426.020107 
L 317.763967 424.177294 
L 320.77276 422.404381 
L 323.781554 420.700341 
L 326.790347 419.064 
L 329.79914 417.494051 
L 332.807934 415.98907 
L 335.816727 414.547537 
L 338.825521 413.167846 
L 341.834314 411.848325 
L 344.843107 410.587244 
L 347.851901 409.382832 
L 350.860694 408.233289 
L 353.869488 407.136791 
L 356.878281 406.091509 
L 359.887074 405.09561 
L 362.895868 404.14727 
L 365.904661 403.244677 
L 368.913455 402.386041 
L 371.922248 401.5696 
L 374.931041 400.793621 
L 377.939835 400.056406 
L 380.948628 399.356296 
L 383.957421 398.691674 
L 386.966215 398.060968 
L 389.975008 397.462648 
L 392.983802 396.895235 
L 395.992595 396.357297 
L 399.001388 395.84745 
L 402.010182 395.364359 
L 405.018975 394.90674 
L 408.027769 394.473355 
L 411.036562 394.063019 
L 414.045355 393.674589 
L 417.054149 393.306974 
L 420.062942 392.959127 
L 423.071736 392.630047 
L 426.080529 392.318776 
L 429.089322 392.0244 
L 432.098116 391.746046 
L 435.106909 391.48288 
L 438.115702 391.234111 
L 441.124496 390.998981 
L 444.133289 390.776771 
L 447.142083 390.566796 
L 450.150876 390.368405 
L 453.159669 390.180979 
L 456.168463 390.00393 
L 459.177256 389.836698 
L 462.18605 389.678754 
L 465.194843 389.529595 
L 468.203636 389.388744 
L 471.21243 389.255747 
L 474.221223 389.130176 
L 477.230017 389.011624 
L 480.23881 388.899706 
L 483.247603 388.794057 
L 486.256397 388.694331 
L 489.26519 388.600202 
L 492.273983 388.51136 
L 495.282777 388.427512 
L 498.29157 388.348381 
L 501.300364 388.273704 
L 504.309157 388.203235 
L 507.31795 388.136737 
L 510.326744 388.07399 
L 513.335537 388.014784 
L 516.344331 387.958921 
L 519.353124 387.906214 
L 522.361917 387.856486 
L 525.370711 387.80957 
L 528.379504 387.765308 
L 531.388298 387.72355 
L 534.397091 387.684157 
" clip-path="url(#p408c4df545)" style="fill: none; stroke: #30b1f2; stroke-width: 3; stroke-linecap: round"/>
   </g>
   <g id="text_1">
    <path d="M 542.198946 382.811975 
L 543.194258 382.811975 
L 543.194258 389.330725 
L 542.198946 389.330725 
L 542.198946 382.811975 
z
M 540.191133 382.230725 
L 545.202071 382.230725 
L 545.202071 383.1776 
L 540.191133 383.1776 
L 540.191133 382.230725 
z
M 547.960274 389.404162 
Q 547.257149 389.404162 546.758712 389.1401 
Q 546.261837 388.876037 545.999337 388.366662 
Q 545.738399 387.855725 545.738399 387.13385 
L 545.738399 386.561975 
Q 545.738399 385.810412 545.989962 385.279162 
Q 546.241524 384.74635 546.719649 384.468225 
Q 547.199337 384.188537 547.872774 384.188537 
Q 548.507149 384.188537 548.955587 384.507287 
Q 549.405587 384.824475 549.641524 385.424475 
Q 549.879024 386.024475 549.879024 386.8651 
L 549.879024 387.19635 
L 546.461837 387.19635 
L 546.461837 386.39635 
L 548.932149 386.39635 
L 548.932149 386.39635 
Q 548.888399 385.776037 548.611837 385.432287 
Q 548.336837 385.086975 547.872774 385.086975 
Q 547.305587 385.086975 546.996212 385.45885 
Q 546.686837 385.829162 546.686837 386.50885 
L 546.686837 387.1526 
Q 546.686837 387.782287 547.018087 388.119787 
Q 547.350899 388.457287 547.960274 388.457287 
Q 548.263399 388.457287 548.560274 388.335412 
Q 548.858712 388.211975 549.093087 387.993225 
L 549.093087 387.993225 
L 549.747774 388.64635 
L 549.747774 388.64635 
Q 549.371212 389.00885 548.902462 389.207287 
Q 548.433712 389.404162 547.960274 389.404162 
z
M 551.246602 384.261975 
L 552.243477 384.261975 
L 552.243477 389.330725 
L 551.246602 389.330725 
L 551.246602 384.261975 
z
M 554.323165 386.25885 
Q 554.323165 385.722912 554.04504 385.430725 
Q 553.766915 385.136975 553.26379 385.136975 
Q 552.774727 385.136975 552.509102 385.39635 
Q 552.243477 385.654162 552.243477 386.122912 
L 552.140352 385.14635 
Q 552.374727 384.686975 552.752852 384.438537 
Q 553.130977 384.188537 553.590352 384.188537 
Q 554.415352 384.188537 554.866915 384.729162 
Q 555.318477 385.268225 555.318477 386.254162 
L 555.318477 389.330725 
L 554.323165 389.330725 
L 554.323165 386.25885 
z
M 558.624727 389.404162 
Q 558.174727 389.404162 557.780977 389.316662 
Q 557.38879 389.2276 557.046602 389.0526 
Q 556.705977 388.876037 556.416915 388.613537 
L 556.416915 388.613537 
L 557.009102 387.885412 
L 557.009102 387.885412 
Q 557.418477 388.197912 557.823165 388.354162 
Q 558.229415 388.510412 558.624727 388.510412 
Q 559.215352 388.510412 559.510665 388.3276 
Q 559.805977 388.144787 559.805977 387.7776 
Q 559.805977 387.53385 559.64504 387.411975 
Q 559.484102 387.2901 559.24504 387.249475 
Q 559.005977 387.207287 558.571602 387.172912 
Q 558.53254 387.172912 558.487227 387.17135 
Q 558.443477 387.168225 558.404415 387.161975 
Q 558.385665 387.161975 558.365352 387.160412 
Q 558.346602 387.157287 558.32629 387.157287 
Q 557.834102 387.118225 557.491915 387.013537 
Q 557.149727 386.90885 556.923165 386.62135 
Q 556.696602 386.332287 556.696602 385.794787 
Q 556.696602 385.25885 556.915352 384.9026 
Q 557.135665 384.544787 557.57004 384.366662 
Q 558.004415 384.188537 558.659102 384.188537 
Q 559.054415 384.188537 559.412227 384.261975 
Q 559.771602 384.335412 560.098165 384.479162 
Q 560.42629 384.622912 560.729415 384.843225 
L 560.729415 384.843225 
L 560.127852 385.57135 
L 560.127852 385.57135 
Q 559.748165 385.326037 559.379415 385.204162 
Q 559.010665 385.082287 558.659102 385.082287 
Q 558.15129 385.082287 557.896602 385.255725 
Q 557.643477 385.429162 557.643477 385.776037 
Q 557.643477 385.980725 557.787227 386.08385 
Q 557.930977 386.185412 558.149727 386.219787 
Q 558.37004 386.254162 558.77629 386.279162 
Q 558.805977 386.28385 558.837227 386.28385 
Q 558.868477 386.28385 558.902852 386.288537 
Q 558.916915 386.288537 558.930977 386.288537 
Q 558.946602 386.288537 558.962227 386.293225 
Q 559.493477 386.3276 559.866915 386.435412 
Q 560.240352 386.543225 560.493477 386.860412 
Q 560.748165 387.1776 560.748165 387.7776 
Q 560.748165 388.324475 560.51379 388.68385 
Q 560.279415 389.043225 559.80754 389.224475 
Q 559.337227 389.404162 558.624727 389.404162 
z
M 563.961837 389.404162 
Q 563.302462 389.404162 562.833712 389.14635 
Q 562.364962 388.886975 562.118087 388.391662 
Q 561.871212 387.894787 561.871212 387.19635 
L 561.871212 386.37135 
Q 561.871212 385.68385 562.118087 385.193225 
Q 562.364962 384.701037 562.833712 384.444787 
Q 563.302462 384.188537 563.961837 384.188537 
Q 564.621212 384.188537 565.089962 384.444787 
Q 565.558712 384.701037 565.804024 385.193225 
Q 566.050899 385.68385 566.050899 386.37135 
L 566.050899 387.211975 
Q 566.050899 387.904162 565.804024 388.39635 
Q 565.558712 388.886975 565.089962 389.14635 
Q 564.621212 389.404162 563.961837 389.404162 
z
M 563.961837 388.457287 
Q 564.483712 388.457287 564.769649 388.130725 
Q 565.055587 387.8026 565.055587 387.211975 
L 565.055587 386.37135 
Q 565.055587 385.780725 564.769649 385.45885 
Q 564.483712 385.136975 563.961837 385.136975 
Q 563.438399 385.136975 563.152462 385.45885 
Q 562.868087 385.780725 562.868087 386.37135 
L 562.868087 387.211975 
Q 562.868087 387.8026 563.152462 388.130725 
Q 563.438399 388.457287 563.961837 388.457287 
z
M 567.467305 384.261975 
L 568.46418 384.261975 
L 568.46418 389.330725 
L 567.467305 389.330725 
L 567.467305 384.261975 
z
M 570.254805 385.463537 
Q 570.123555 385.3026 569.923555 385.219787 
Q 569.723555 385.136975 569.459493 385.136975 
Q 568.986055 385.136975 568.725118 385.397912 
Q 568.46418 385.65885 568.46418 386.122912 
L 568.361055 385.14635 
Q 568.59543 384.691662 568.965743 384.4401 
Q 569.337618 384.188537 569.786055 384.188537 
Q 570.13293 384.188537 570.41418 384.288537 
Q 570.69543 384.388537 570.904805 384.58385 
L 570.254805 385.463537 
z
M 578.39543 385.507287 
L 578.39543 386.747912 
Q 578.39543 387.538537 578.087618 388.141662 
Q 577.779805 388.744787 577.215743 389.074475 
Q 576.65168 389.404162 575.909493 389.404162 
Q 575.15793 389.404162 574.58918 389.094787 
Q 574.02043 388.78385 573.70793 388.218225 
Q 573.39543 387.651037 573.39543 386.904162 
L 573.39543 384.80885 
Q 573.39543 384.018225 573.703243 383.418225 
Q 574.011055 382.816662 574.573555 382.486975 
Q 575.137618 382.157287 575.879805 382.157287 
Q 576.490743 382.157287 577.004805 382.419787 
Q 577.52043 382.680725 577.867305 383.15885 
Q 578.21418 383.636975 578.336055 384.266662 
L 578.336055 384.266662 
L 577.25793 384.266662 
L 577.25793 384.266662 
Q 577.168868 383.910412 576.959493 383.654162 
Q 576.750118 383.397912 576.465743 383.263537 
Q 576.18293 383.129162 575.879805 383.129162 
Q 575.440743 383.129162 575.10793 383.3401 
Q 574.77668 383.549475 574.59543 383.9276 
Q 574.415743 384.305725 574.415743 384.80885 
L 574.415743 386.904162 
Q 574.415743 387.363537 574.600118 387.707287 
Q 574.786055 388.051037 575.125118 388.241662 
Q 575.465743 388.432287 575.909493 388.432287 
Q 576.348555 388.432287 576.679805 388.235412 
Q 577.012618 388.036975 577.193868 387.661975 
Q 577.375118 387.285412 577.375118 386.766662 
L 577.375118 386.45885 
L 575.934493 386.45885 
L 575.934493 385.507287 
L 578.39543 385.507287 
z
M 581.696212 389.404162 
Q 581.100899 389.404162 580.646212 389.186975 
Q 580.191524 388.969787 579.914962 388.557287 
Q 579.639962 388.144787 579.566524 387.563537 
L 579.566524 387.563537 
L 580.582149 387.563537 
L 580.582149 387.563537 
Q 580.625899 387.8651 580.772774 388.060412 
Q 580.919649 388.255725 581.150899 388.351037 
Q 581.383712 388.44635 581.696212 388.44635 
Q 582.188399 388.44635 582.461837 388.18385 
Q 582.735274 387.919787 582.735274 387.441662 
L 582.735274 387.226037 
Q 582.735274 386.693225 582.475899 386.404162 
Q 582.218087 386.113537 581.744649 386.113537 
L 581.241524 386.113537 
L 581.241524 385.1651 
L 581.744649 385.1651 
Q 582.160274 385.1651 582.388399 384.916662 
Q 582.618087 384.668225 582.618087 384.213537 
L 582.618087 383.993225 
Q 582.618087 383.574475 582.375899 383.344787 
Q 582.135274 383.1151 581.691524 383.1151 
Q 581.436837 383.1151 581.236837 383.210412 
Q 581.036837 383.305725 580.897774 383.504162 
Q 580.758712 383.701037 580.694649 383.997912 
L 580.694649 383.997912 
L 579.683712 383.997912 
L 579.683712 383.997912 
Q 579.782149 383.418225 580.052462 383.0026 
Q 580.324337 382.586975 580.738399 382.372912 
Q 581.154024 382.157287 581.691524 382.157287 
Q 582.608712 382.157287 583.111837 382.641662 
Q 583.614962 383.124475 583.614962 384.004162 
L 583.614962 384.12135 
Q 583.614962 384.6526 583.325899 385.047912 
Q 583.038399 385.443225 582.511837 385.624475 
Q 583.093087 385.751037 583.411837 386.19635 
Q 583.732149 386.6401 583.732149 387.329162 
L 583.732149 387.44635 
Q 583.732149 388.066662 583.493087 388.505725 
Q 583.254024 388.944787 582.796212 389.174475 
Q 582.339962 389.404162 581.696212 389.404162 
z
" style="fill: #ffffff; stroke: #000000"/>
    <path d="M 542.198946 382.811975 
L 543.194258 382.811975 
L 543.194258 389.330725 
L 542.198946 389.330725 
L 542.198946 382.811975 
z
M 540.191133 382.230725 
L 545.202071 382.230725 
L 545.202071 383.1776 
L 540.191133 383.1776 
L 540.191133 382.230725 
z
M 547.960274 389.404162 
Q 547.257149 389.404162 546.758712 389.1401 
Q 546.261837 388.876037 545.999337 388.366662 
Q 545.738399 387.855725 545.738399 387.13385 
L 545.738399 386.561975 
Q 545.738399 385.810412 545.989962 385.279162 
Q 546.241524 384.74635 546.719649 384.468225 
Q 547.199337 384.188537 547.872774 384.188537 
Q 548.507149 384.188537 548.955587 384.507287 
Q 549.405587 384.824475 549.641524 385.424475 
Q 549.879024 386.024475 549.879024 386.8651 
L 549.879024 387.19635 
L 546.461837 387.19635 
L 546.461837 386.39635 
L 548.932149 386.39635 
L 548.932149 386.39635 
Q 548.888399 385.776037 548.611837 385.432287 
Q 548.336837 385.086975 547.872774 385.086975 
Q 547.305587 385.086975 546.996212 385.45885 
Q 546.686837 385.829162 546.686837 386.50885 
L 546.686837 387.1526 
Q 546.686837 387.782287 547.018087 388.119787 
Q 547.350899 388.457287 547.960274 388.457287 
Q 548.263399 388.457287 548.560274 388.335412 
Q 548.858712 388.211975 549.093087 387.993225 
L 549.093087 387.993225 
L 549.747774 388.64635 
L 549.747774 388.64635 
Q 549.371212 389.00885 548.902462 389.207287 
Q 548.433712 389.404162 547.960274 389.404162 
z
M 551.246602 384.261975 
L 552.243477 384.261975 
L 552.243477 389.330725 
L 551.246602 389.330725 
L 551.246602 384.261975 
z
M 554.323165 386.25885 
Q 554.323165 385.722912 554.04504 385.430725 
Q 553.766915 385.136975 553.26379 385.136975 
Q 552.774727 385.136975 552.509102 385.39635 
Q 552.243477 385.654162 552.243477 386.122912 
L 552.140352 385.14635 
Q 552.374727 384.686975 552.752852 384.438537 
Q 553.130977 384.188537 553.590352 384.188537 
Q 554.415352 384.188537 554.866915 384.729162 
Q 555.318477 385.268225 555.318477 386.254162 
L 555.318477 389.330725 
L 554.323165 389.330725 
L 554.323165 386.25885 
z
M 558.624727 389.404162 
Q 558.174727 389.404162 557.780977 389.316662 
Q 557.38879 389.2276 557.046602 389.0526 
Q 556.705977 388.876037 556.416915 388.613537 
L 556.416915 388.613537 
L 557.009102 387.885412 
L 557.009102 387.885412 
Q 557.418477 388.197912 557.823165 388.354162 
Q 558.229415 388.510412 558.624727 388.510412 
Q 559.215352 388.510412 559.510665 388.3276 
Q 559.805977 388.144787 559.805977 387.7776 
Q 559.805977 387.53385 559.64504 387.411975 
Q 559.484102 387.2901 559.24504 387.249475 
Q 559.005977 387.207287 558.571602 387.172912 
Q 558.53254 387.172912 558.487227 387.17135 
Q 558.443477 387.168225 558.404415 387.161975 
Q 558.385665 387.161975 558.365352 387.160412 
Q 558.346602 387.157287 558.32629 387.157287 
Q 557.834102 387.118225 557.491915 387.013537 
Q 557.149727 386.90885 556.923165 386.62135 
Q 556.696602 386.332287 556.696602 385.794787 
Q 556.696602 385.25885 556.915352 384.9026 
Q 557.135665 384.544787 557.57004 384.366662 
Q 558.004415 384.188537 558.659102 384.188537 
Q 559.054415 384.188537 559.412227 384.261975 
Q 559.771602 384.335412 560.098165 384.479162 
Q 560.42629 384.622912 560.729415 384.843225 
L 560.729415 384.843225 
L 560.127852 385.57135 
L 560.127852 385.57135 
Q 559.748165 385.326037 559.379415 385.204162 
Q 559.010665 385.082287 558.659102 385.082287 
Q 558.15129 385.082287 557.896602 385.255725 
Q 557.643477 385.429162 557.643477 385.776037 
Q 557.643477 385.980725 557.787227 386.08385 
Q 557.930977 386.185412 558.149727 386.219787 
Q 558.37004 386.254162 558.77629 386.279162 
Q 558.805977 386.28385 558.837227 386.28385 
Q 558.868477 386.28385 558.902852 386.288537 
Q 558.916915 386.288537 558.930977 386.288537 
Q 558.946602 386.288537 558.962227 386.293225 
Q 559.493477 386.3276 559.866915 386.435412 
Q 560.240352 386.543225 560.493477 386.860412 
Q 560.748165 387.1776 560.748165 387.7776 
Q 560.748165 388.324475 560.51379 388.68385 
Q 560.279415 389.043225 559.80754 389.224475 
Q 559.337227 389.404162 558.624727 389.404162 
z
M 563.961837 389.404162 
Q 563.302462 389.404162 562.833712 389.14635 
Q 562.364962 388.886975 562.118087 388.391662 
Q 561.871212 387.894787 561.871212 387.19635 
L 561.871212 386.37135 
Q 561.871212 385.68385 562.118087 385.193225 
Q 562.364962 384.701037 562.833712 384.444787 
Q 563.302462 384.188537 563.961837 384.188537 
Q 564.621212 384.188537 565.089962 384.444787 
Q 565.558712 384.701037 565.804024 385.193225 
Q 566.050899 385.68385 566.050899 386.37135 
L 566.050899 387.211975 
Q 566.050899 387.904162 565.804024 388.39635 
Q 565.558712 388.886975 565.089962 389.14635 
Q 564.621212 389.404162 563.961837 389.404162 
z
M 563.961837 388.457287 
Q 564.483712 388.457287 564.769649 388.130725 
Q 565.055587 387.8026 565.055587 387.211975 
L 565.055587 386.37135 
Q 565.055587 385.780725 564.769649 385.45885 
Q 564.483712 385.136975 563.961837 385.136975 
Q 563.438399 385.136975 563.152462 385.45885 
Q 562.868087 385.780725 562.868087 386.37135 
L 562.868087 387.211975 
Q 562.868087 387.8026 563.152462 388.130725 
Q 563.438399 388.457287 563.961837 388.457287 
z
M 567.467305 384.261975 
L 568.46418 384.261975 
L 568.46418 389.330725 
L 567.467305 389.330725 
L 567.467305 384.261975 
z
M 570.254805 385.463537 
Q 570.123555 385.3026 569.923555 385.219787 
Q 569.723555 385.136975 569.459493 385.136975 
Q 568.986055 385.136975 568.725118 385.397912 
Q 568.46418 385.65885 568.46418 386.122912 
L 568.361055 385.14635 
Q 568.59543 384.691662 568.965743 384.4401 
Q 569.337618 384.188537 569.786055 384.188537 
Q 570.13293 384.188537 570.41418 384.288537 
Q 570.69543 384.388537 570.904805 384.58385 
L 570.254805 385.463537 
z
M 578.39543 385.507287 
L 578.39543 386.747912 
Q 578.39543 387.538537 578.087618 388.141662 
Q 577.779805 388.744787 577.215743 389.074475 
Q 576.65168 389.404162 575.909493 389.404162 
Q 575.15793 389.404162 574.58918 389.094787 
Q 574.02043 388.78385 573.70793 388.218225 
Q 573.39543 387.651037 573.39543 386.904162 
L 573.39543 384.80885 
Q 573.39543 384.018225 573.703243 383.418225 
Q 574.011055 382.816662 574.573555 382.486975 
Q 575.137618 382.157287 575.879805 382.157287 
Q 576.490743 382.157287 577.004805 382.419787 
Q 577.52043 382.680725 577.867305 383.15885 
Q 578.21418 383.636975 578.336055 384.266662 
L 578.336055 384.266662 
L 577.25793 384.266662 
L 577.25793 384.266662 
Q 577.168868 383.910412 576.959493 383.654162 
Q 576.750118 383.397912 576.465743 383.263537 
Q 576.18293 383.129162 575.879805 383.129162 
Q 575.440743 383.129162 575.10793 383.3401 
Q 574.77668 383.549475 574.59543 383.9276 
Q 574.415743 384.305725 574.415743 384.80885 
L 574.415743 386.904162 
Q 574.415743 387.363537 574.600118 387.707287 
Q 574.786055 388.051037 575.125118 388.241662 
Q 575.465743 388.432287 575.909493 388.432287 
Q 576.348555 388.432287 576.679805 388.235412 
Q 577.012618 388.036975 577.193868 387.661975 
Q 577.375118 387.285412 577.375118 386.766662 
L 577.375118 386.45885 
L 575.934493 386.45885 
L 575.934493 385.507287 
L 578.39543 385.507287 
z
M 581.696212 389.404162 
Q 581.100899 389.404162 580.646212 389.186975 
Q 580.191524 388.969787 579.914962 388.557287 
Q 579.639962 388.144787 579.566524 387.563537 
L 579.566524 387.563537 
L 580.582149 387.563537 
L 580.582149 387.563537 
Q 580.625899 387.8651 580.772774 388.060412 
Q 580.919649 388.255725 581.150899 388.351037 
Q 581.383712 388.44635 581.696212 388.44635 
Q 582.188399 388.44635 582.461837 388.18385 
Q 582.735274 387.919787 582.735274 387.441662 
L 582.735274 387.226037 
Q 582.735274 386.693225 582.475899 386.404162 
Q 582.218087 386.113537 581.744649 386.113537 
L 581.241524 386.113537 
L 581.241524 385.1651 
L 581.744649 385.1651 
Q 582.160274 385.1651 582.388399 384.916662 
Q 582.618087 384.668225 582.618087 384.213537 
L 582.618087 383.993225 
Q 582.618087 383.574475 582.375899 383.344787 
Q 582.135274 383.1151 581.691524 383.1151 
Q 581.436837 383.1151 581.236837 383.210412 
Q 581.036837 383.305725 580.897774 383.504162 
Q 580.758712 383.701037 580.694649 383.997912 
L 580.694649 383.997912 
L 579.683712 383.997912 
L 579.683712 383.997912 
Q 579.782149 383.418225 580.052462 383.0026 
Q 580.324337 382.586975 580.738399 382.372912 
Q 581.154024 382.157287 581.691524 382.157287 
Q 582.608712 382.157287 583.111837 382.641662 
Q 583.614962 383.124475 583.614962 384.004162 
L 583.614962 384.12135 
Q 583.614962 384.6526 583.325899 385.047912 
Q 583.038399 385.443225 582.511837 385.624475 
Q 583.093087 385.751037 583.411837 386.19635 
Q 583.732149 386.6401 583.732149 387.329162 
L 583.732149 387.44635 
Q 583.732149 388.066662 583.493087 388.505725 
Q 583.254024 388.944787 582.796212 389.174475 
Q 582.339962 389.404162 581.696212 389.404162 
z
" style="fill: #ffffff"/>
   </g>
  </g>
 </g>
 <defs>
  <clipPath id="p408c4df545">
   <rect x="144" y="77.76" width="892.8" height="498.96"/>
  </clipPath>
 </defs>
</svg>
