<?xml version="1.0" encoding="utf-8" standalone="no"?>
<!DOCTYPE svg PUBLIC "-//W3C//DTD SVG 1.1//EN"
  "http://www.w3.org/Graphics/SVG/1.1/DTD/svg11.dtd">
<svg xmlns:xlink="http://www.w3.org/1999/xlink" width="1152pt" height="648pt" viewBox="0 0 1152 648" xmlns="http://www.w3.org/2000/svg" version="1.1">
 <metadata>
  <rdf:RDF xmlns:dc="http://purl.org/dc/elements/1.1/" xmlns:cc="http://creativecommons.org/ns#" xmlns:rdf="http://www.w3.org/1999/02/22-rdf-syntax-ns#">
   <cc:Work>
    <dc:type rdf:resource="http://purl.org/dc/dcmitype/StillImage"/>
    <dc:date>2024-11-15T17:07:54.560475</dc:date>
    <dc:format>image/svg+xml</dc:format>
    <dc:creator>
     <cc:Agent>
      <dc:title>Matplotlib v3.8.1, https://matplotlib.org/</dc:title>
     </cc:Agent>
    </dc:creator>
   </cc:Work>
  </rdf:RDF>
 </metadata>
 <defs>
  <style type="text/css">*{stroke-linejoin: round; stroke-linecap: butt}</style>
 </defs>
 <g id="figure_1">
  <g id="patch_1">
   <path d="M 0 648 
L 1152 648 
L 1152 0 
L 0 0 
L 0 648 
z
" style="fill: none"/>
  </g>
  <g id="axes_1">
   <g id="line2d_1">
    <path d="M 203.249455 477.519712 
L 209.488397 467.620514 
L 215.727339 458.02348 
L 221.966281 448.719392 
L 228.205223 439.699317 
L 234.444165 430.954592 
L 240.683107 422.476817 
L 246.92205 414.257849 
L 253.160992 406.289794 
L 259.399934 398.564997 
L 265.638876 391.076036 
L 271.877818 383.815716 
L 278.11676 376.777062 
L 284.355702 369.953309 
L 290.594645 363.3379 
L 296.833587 356.924479 
L 303.072529 350.70688 
L 309.311471 344.679128 
L 315.550413 338.83543 
L 321.789355 333.170169 
L 328.028298 327.677898 
L 334.26724 322.353338 
L 340.506182 317.19137 
L 346.745124 312.187031 
L 352.984066 307.33551 
L 359.223008 302.632143 
L 365.46195 298.072407 
L 371.700893 293.651917 
L 377.939835 289.366424 
L 384.178777 285.211805 
L 390.417719 281.184066 
L 396.656661 277.279333 
L 402.895603 273.49385 
L 409.134545 269.823978 
L 415.373488 266.266186 
L 421.61243 262.817053 
L 427.851372 259.473261 
L 434.090314 256.231593 
L 440.329256 253.088932 
L 446.568198 250.042255 
L 452.80714 247.08863 
L 459.046083 244.225217 
L 465.285025 241.44926 
L 471.523967 238.75809 
L 477.762909 236.149117 
L 484.001851 233.619832 
L 490.240793 231.1678 
L 496.479736 228.790663 
L 502.718678 226.486134 
L 508.95762 224.251995 
L 515.196562 222.086097 
L 521.435504 219.986356 
L 527.674446 217.950751 
L 533.913388 215.977324 
L 540.152331 214.064176 
L 546.391273 212.209466 
L 552.630215 210.411408 
L 558.869157 208.668274 
L 565.108099 206.978386 
L 571.347041 205.340117 
L 577.585983 203.75189 
L 583.824926 202.212178 
L 590.063868 200.719499 
L 596.30281 199.272416 
L 602.541752 197.869537 
L 608.780694 196.509511 
L 615.019636 195.191029 
L 621.258579 193.912824 
L 627.497521 192.673664 
L 633.736463 191.472356 
L 639.975405 190.307746 
L 646.214347 189.178711 
L 652.453289 188.084166 
L 658.692231 187.023056 
L 664.931174 185.994361 
L 671.170116 184.99709 
L 677.409058 184.030284 
L 683.648 183.093011 
L 689.886942 182.184371 
L 696.125884 181.303487 
L 702.364826 180.449514 
L 708.603769 179.621627 
L 714.842711 178.819031 
L 721.081653 178.040953 
L 727.320595 177.286645 
L 733.559537 176.555379 
L 739.798479 175.846452 
L 746.037421 175.159183 
L 752.276364 174.492908 
L 758.515306 173.846987 
L 764.754248 173.220799 
L 770.99319 172.613739 
L 777.232132 172.025225 
L 783.471074 171.454689 
L 789.710017 170.901583 
L 795.948959 170.365373 
L 802.187901 169.845545 
L 808.426843 169.341596 
L 814.665785 168.853043 
L 820.904727 168.379415 
" clip-path="url(#p49f6fe3e61)" style="fill: none; stroke: #79f2f2; stroke-width: 3; stroke-linecap: round"/>
   </g>
   <g id="text_1">
    <path d="M 829.809707 170.09942 
Q 829.297207 170.09942 828.837832 170.002545 
Q 828.38002 169.904108 827.981582 169.708795 
Q 827.583145 169.513483 827.23627 169.219733 
L 827.23627 169.219733 
L 827.856582 168.458795 
L 827.856582 168.458795 
Q 828.262832 168.810358 828.750332 168.98692 
Q 829.239395 169.16192 829.809707 169.16192 
Q 830.581582 169.16192 831.006582 168.875983 
Q 831.431582 168.590045 831.431582 168.06817 
L 831.431582 168.063483 
Q 831.431582 167.691608 831.237832 167.47442 
Q 831.045645 167.257233 830.739395 167.152545 
Q 830.434707 167.047858 829.951895 166.958795 
Q 829.93627 166.954108 829.919082 166.954108 
Q 829.903457 166.954108 829.887832 166.94942 
L 829.814395 166.935358 
Q 829.101895 166.813483 828.65502 166.660358 
Q 828.208145 166.50567 827.890957 166.097858 
Q 827.57377 165.690045 827.57377 164.938483 
L 827.57377 164.933795 
Q 827.57377 164.27442 827.869082 163.808795 
Q 828.164395 163.341608 828.73002 163.097858 
Q 829.297207 162.852545 830.09252 162.852545 
Q 830.47377 162.852545 830.84252 162.93692 
Q 831.21127 163.019733 831.569082 163.183795 
Q 831.928457 163.346295 832.275332 163.594733 
L 832.275332 163.594733 
L 831.709707 164.38692 
L 831.709707 164.38692 
Q 831.303457 164.088483 830.900332 163.940045 
Q 830.49877 163.790045 830.09252 163.790045 
Q 829.365957 163.790045 828.962832 164.08067 
Q 828.559707 164.371295 828.559707 164.904108 
L 828.559707 164.908795 
Q 828.559707 165.27442 828.76752 165.485358 
Q 828.975332 165.694733 829.284707 165.794733 
Q 829.595645 165.894733 830.147207 166.002545 
Q 830.165957 166.007233 830.183145 166.010358 
Q 830.200332 166.01192 830.220645 166.016608 
Q 830.244082 166.021295 830.27377 166.027545 
Q 830.303457 166.032233 830.326895 166.03692 
Q 830.972207 166.16817 831.403457 166.34942 
Q 831.83627 166.529108 832.126895 166.932233 
Q 832.41752 167.335358 832.41752 168.033795 
L 832.41752 168.04317 
Q 832.41752 168.69317 832.109707 169.154108 
Q 831.801895 169.615045 831.21752 169.857233 
Q 830.634707 170.09942 829.809707 170.09942 
z
M 834.507559 169.079108 
L 836.113809 169.079108 
Q 836.899746 169.079108 837.330996 168.671295 
Q 837.763809 168.263483 837.763809 167.521295 
L 837.763809 165.43067 
Q 837.763809 164.688483 837.330996 164.28067 
Q 836.899746 163.872858 836.113809 163.872858 
L 834.507559 163.872858 
L 834.507559 162.925983 
L 836.084121 162.925983 
Q 836.938809 162.925983 837.543496 163.22442 
Q 838.149746 163.521295 838.466934 164.09317 
Q 838.784121 164.665045 838.784121 165.469733 
L 838.784121 167.482233 
Q 838.784121 168.28692 838.466934 168.858795 
Q 838.149746 169.43067 837.541934 169.729108 
Q 836.934121 170.025983 836.079434 170.025983 
L 834.507559 170.025983 
L 834.507559 169.079108 
z
M 833.834121 162.925983 
L 834.829434 162.925983 
L 834.829434 170.025983 
L 833.834121 170.025983 
L 833.834121 162.925983 
z
M 842.329434 170.09942 
Q 841.685684 170.09942 841.196621 169.85567 
Q 840.709121 169.610358 840.441934 169.163483 
Q 840.176309 168.716608 840.176309 168.125983 
L 840.176309 168.008795 
Q 840.176309 167.477545 840.441934 167.008795 
Q 840.709121 166.540045 841.152871 166.300983 
Q 840.776309 166.094733 840.549746 165.707233 
Q 840.323184 165.31817 840.323184 164.888483 
L 840.323184 164.71817 
Q 840.323184 164.16192 840.571621 163.740045 
Q 840.820059 163.316608 841.274746 163.085358 
Q 841.729434 162.852545 842.329434 162.852545 
Q 842.929434 162.852545 843.384121 163.085358 
Q 843.838809 163.316608 844.087246 163.740045 
Q 844.335684 164.16192 844.335684 164.71817 
L 844.335684 164.888483 
Q 844.335684 165.329108 844.104434 165.715045 
Q 843.873184 166.09942 843.491934 166.300983 
Q 843.940371 166.544733 844.210684 167.01192 
Q 844.482559 167.477545 844.482559 168.008795 
L 844.482559 168.125983 
Q 844.482559 168.716608 844.216934 169.163483 
Q 843.951309 169.610358 843.462246 169.85567 
Q 842.974746 170.09942 842.329434 170.09942 
z
M 842.329434 169.141608 
Q 842.676309 169.141608 842.938809 169.00567 
Q 843.202871 168.86817 843.346621 168.622858 
Q 843.491934 168.375983 843.491934 168.052545 
L 843.491934 167.985358 
Q 843.491934 167.657233 843.346621 167.41192 
Q 843.202871 167.165045 842.938809 167.029108 
Q 842.676309 166.891608 842.329434 166.891608 
Q 841.982559 166.891608 841.718496 167.029108 
Q 841.455996 167.165045 841.310684 167.413483 
Q 841.166934 167.66192 841.166934 167.990045 
L 841.166934 168.063483 
Q 841.166934 168.385358 841.310684 168.629108 
Q 841.455996 168.872858 841.718496 169.007233 
Q 841.982559 169.141608 842.329434 169.141608 
z
M 842.329434 165.933795 
Q 842.627871 165.933795 842.855996 165.80567 
Q 843.085684 165.675983 843.212246 165.43692 
Q 843.340371 165.196295 843.340371 164.883795 
L 843.340371 164.816608 
Q 843.340371 164.51817 843.212246 164.288483 
Q 843.085684 164.058795 842.855996 163.935358 
Q 842.627871 163.810358 842.329434 163.810358 
Q 842.030996 163.810358 841.801309 163.935358 
Q 841.573184 164.058795 841.445059 164.288483 
Q 841.318496 164.51817 841.318496 164.821295 
L 841.318496 164.894733 
Q 841.318496 165.200983 841.445059 165.438483 
Q 841.573184 165.675983 841.801309 165.80567 
Q 842.030996 165.933795 842.329434 165.933795 
z
M 847.730606 162.925983 
L 848.725918 162.925983 
L 848.725918 170.025983 
L 847.730606 170.025983 
L 847.730606 162.925983 
z
M 848.213418 169.079108 
L 852.289981 169.079108 
L 852.289981 170.025983 
L 848.213418 170.025983 
L 848.213418 169.079108 
z
M 848.213418 166.027545 
L 851.754043 166.027545 
L 851.754043 166.97442 
L 848.213418 166.97442 
L 848.213418 166.027545 
z
M 848.213418 162.925983 
L 852.289981 162.925983 
L 852.289981 163.872858 
L 848.213418 163.872858 
L 848.213418 162.925983 
z
M 854.605606 168.716608 
Q 854.605606 168.902545 854.685293 169.002545 
Q 854.766543 169.102545 854.911856 169.102545 
L 855.380606 169.102545 
L 855.380606 170.050983 
L 854.794668 170.050983 
Q 854.229043 170.050983 853.918106 169.69942 
Q 853.608731 169.347858 853.608731 168.707233 
L 853.608731 162.925983 
L 854.605606 162.925983 
L 854.605606 168.716608 
z
M 856.504239 162.925983 
L 857.501114 162.925983 
L 857.501114 163.922858 
L 856.504239 163.922858 
L 856.504239 162.925983 
z
M 856.504239 164.957233 
L 857.501114 164.957233 
L 857.501114 170.025983 
L 856.504239 170.025983 
L 856.504239 164.957233 
z
M 860.332754 170.050983 
Q 859.717129 170.050983 859.431192 169.71192 
Q 859.145254 169.371295 859.145254 168.707233 
L 859.145254 163.482233 
L 860.142129 163.482233 
L 860.142129 168.716608 
Q 860.142129 168.902545 860.215567 169.002545 
Q 860.289004 169.102545 860.429629 169.102545 
L 860.909317 169.102545 
L 860.909317 170.050983 
L 860.332754 170.050983 
z
M 858.623379 164.957233 
L 860.909317 164.957233 
L 860.909317 165.85567 
L 858.623379 165.85567 
L 858.623379 164.957233 
z
M 864.350723 170.09942 
Q 863.647598 170.09942 863.14916 169.835358 
Q 862.652285 169.571295 862.389785 169.06192 
Q 862.128848 168.550983 862.128848 167.829108 
L 862.128848 167.257233 
Q 862.128848 166.50567 862.38041 165.97442 
Q 862.631973 165.441608 863.110098 165.163483 
Q 863.589785 164.883795 864.263223 164.883795 
Q 864.897598 164.883795 865.346035 165.202545 
Q 865.796035 165.519733 866.031973 166.119733 
Q 866.269473 166.719733 866.269473 167.560358 
L 866.269473 167.891608 
L 862.852285 167.891608 
L 862.852285 167.091608 
L 865.322598 167.091608 
L 865.322598 167.091608 
Q 865.278848 166.471295 865.002285 166.127545 
Q 864.727285 165.782233 864.263223 165.782233 
Q 863.696035 165.782233 863.38666 166.154108 
Q 863.077285 166.52442 863.077285 167.204108 
L 863.077285 167.847858 
Q 863.077285 168.477545 863.408535 168.815045 
Q 863.741348 169.152545 864.350723 169.152545 
Q 864.653848 169.152545 864.950723 169.03067 
Q 865.24916 168.907233 865.483535 168.688483 
L 865.483535 168.688483 
L 866.138223 169.341608 
L 866.138223 169.341608 
Q 865.76166 169.704108 865.29291 169.902545 
Q 864.82416 170.09942 864.350723 170.09942 
z
M 871.177285 171.554108 
Q 870.308535 170.61192 869.875723 169.44317 
Q 869.444473 168.272858 869.444473 166.86192 
Q 869.444473 165.450983 869.875723 164.282233 
Q 870.308535 163.11192 871.177285 162.169733 
L 871.860098 162.790045 
Q 871.12416 163.610358 870.756973 164.625983 
Q 870.391348 165.641608 870.391348 166.86192 
Q 870.391348 168.082233 870.756973 169.097858 
Q 871.12416 170.113483 871.860098 170.938483 
L 871.177285 171.554108 
z
M 874.77084 170.09942 
Q 874.12709 170.09942 873.638028 169.85567 
Q 873.150528 169.610358 872.88334 169.163483 
Q 872.617715 168.716608 872.617715 168.125983 
L 872.617715 168.008795 
Q 872.617715 167.477545 872.88334 167.008795 
Q 873.150528 166.540045 873.594278 166.300983 
Q 873.217715 166.094733 872.991153 165.707233 
Q 872.76459 165.31817 872.76459 164.888483 
L 872.76459 164.71817 
Q 872.76459 164.16192 873.013028 163.740045 
Q 873.261465 163.316608 873.716153 163.085358 
Q 874.17084 162.852545 874.77084 162.852545 
Q 875.37084 162.852545 875.825528 163.085358 
Q 876.280215 163.316608 876.528653 163.740045 
Q 876.77709 164.16192 876.77709 164.71817 
L 876.77709 164.888483 
Q 876.77709 165.329108 876.54584 165.715045 
Q 876.31459 166.09942 875.93334 166.300983 
Q 876.381778 166.544733 876.65209 167.01192 
Q 876.923965 167.477545 876.923965 168.008795 
L 876.923965 168.125983 
Q 876.923965 168.716608 876.65834 169.163483 
Q 876.392715 169.610358 875.903653 169.85567 
Q 875.416153 170.09942 874.77084 170.09942 
z
M 874.77084 169.141608 
Q 875.117715 169.141608 875.380215 169.00567 
Q 875.644278 168.86817 875.788028 168.622858 
Q 875.93334 168.375983 875.93334 168.052545 
L 875.93334 167.985358 
Q 875.93334 167.657233 875.788028 167.41192 
Q 875.644278 167.165045 875.380215 167.029108 
Q 875.117715 166.891608 874.77084 166.891608 
Q 874.423965 166.891608 874.159903 167.029108 
Q 873.897403 167.165045 873.75209 167.413483 
Q 873.60834 167.66192 873.60834 167.990045 
L 873.60834 168.063483 
Q 873.60834 168.385358 873.75209 168.629108 
Q 873.897403 168.872858 874.159903 169.007233 
Q 874.423965 169.141608 874.77084 169.141608 
z
M 874.77084 165.933795 
Q 875.069278 165.933795 875.297403 165.80567 
Q 875.52709 165.675983 875.653653 165.43692 
Q 875.781778 165.196295 875.781778 164.883795 
L 875.781778 164.816608 
Q 875.781778 164.51817 875.653653 164.288483 
Q 875.52709 164.058795 875.297403 163.935358 
Q 875.069278 163.810358 874.77084 163.810358 
Q 874.472403 163.810358 874.242715 163.935358 
Q 874.01459 164.058795 873.886465 164.288483 
Q 873.759903 164.51817 873.759903 164.821295 
L 873.759903 164.894733 
Q 873.759903 165.200983 873.886465 165.438483 
Q 874.01459 165.675983 874.242715 165.80567 
Q 874.472403 165.933795 874.77084 165.933795 
z
M 880.298965 170.09942 
Q 879.761465 170.09942 879.342715 169.890045 
Q 878.925528 169.679108 878.66459 169.279108 
Q 878.403653 168.879108 878.316153 168.316608 
L 878.316153 168.31192 
L 879.311465 168.31192 
L 879.311465 168.316608 
Q 879.366153 168.707233 879.623965 168.92442 
Q 879.88334 169.141608 880.298965 169.141608 
Q 880.77709 169.141608 881.038028 168.822858 
Q 881.298965 168.502545 881.298965 167.921295 
L 881.298965 167.325983 
Q 881.298965 166.74942 881.038028 166.43067 
Q 880.77709 166.110358 880.298965 166.110358 
Q 880.03959 166.110358 879.800528 166.257233 
Q 879.561465 166.402545 879.380215 166.666608 
L 878.472403 166.666608 
L 878.472403 162.925983 
L 882.08959 162.925983 
L 882.08959 163.872858 
L 879.467715 163.872858 
L 879.467715 165.469733 
Q 879.653653 165.31817 879.88334 165.235358 
Q 880.113028 165.152545 880.35209 165.152545 
Q 880.967715 165.152545 881.403653 165.407233 
Q 881.841153 165.660358 882.067715 166.14942 
Q 882.29584 166.63692 882.29584 167.325983 
L 882.29584 167.921295 
Q 882.29584 168.610358 882.061465 169.09942 
Q 881.82709 169.58692 881.37709 169.84317 
Q 880.928653 170.09942 880.298965 170.09942 
z
M 885.596426 170.09942 
Q 885.001114 170.09942 884.546426 169.882233 
Q 884.091739 169.665045 883.815176 169.252545 
Q 883.540176 168.840045 883.466739 168.258795 
L 883.466739 168.258795 
L 884.482364 168.258795 
L 884.482364 168.258795 
Q 884.526114 168.560358 884.672989 168.75567 
Q 884.819864 168.950983 885.051114 169.046295 
Q 885.283926 169.141608 885.596426 169.141608 
Q 886.088614 169.141608 886.362051 168.879108 
Q 886.635489 168.615045 886.635489 168.13692 
L 886.635489 167.921295 
Q 886.635489 167.388483 886.376114 167.09942 
Q 886.118301 166.808795 885.644864 166.808795 
L 885.141739 166.808795 
L 885.141739 165.860358 
L 885.644864 165.860358 
Q 886.060489 165.860358 886.288614 165.61192 
Q 886.518301 165.363483 886.518301 164.908795 
L 886.518301 164.688483 
Q 886.518301 164.269733 886.276114 164.040045 
Q 886.035489 163.810358 885.591739 163.810358 
Q 885.337051 163.810358 885.137051 163.90567 
Q 884.937051 164.000983 884.797989 164.19942 
Q 884.658926 164.396295 884.594864 164.69317 
L 884.594864 164.69317 
L 883.583926 164.69317 
L 883.583926 164.69317 
Q 883.682364 164.113483 883.952676 163.697858 
Q 884.224551 163.282233 884.638614 163.06817 
Q 885.054239 162.852545 885.591739 162.852545 
Q 886.508926 162.852545 887.012051 163.33692 
Q 887.515176 163.819733 887.515176 164.69942 
L 887.515176 164.816608 
Q 887.515176 165.347858 887.226114 165.74317 
Q 886.938614 166.138483 886.412051 166.319733 
Q 886.993301 166.446295 887.312051 166.891608 
Q 887.632364 167.335358 887.632364 168.02442 
L 887.632364 168.141608 
Q 887.632364 168.76192 887.393301 169.200983 
Q 887.154239 169.640045 886.696426 169.869733 
Q 886.240176 170.09942 885.596426 170.09942 
z
M 890.884512 170.09942 
Q 890.289199 170.09942 889.834512 169.882233 
Q 889.379824 169.665045 889.103262 169.252545 
Q 888.828262 168.840045 888.754824 168.258795 
L 888.754824 168.258795 
L 889.770449 168.258795 
L 889.770449 168.258795 
Q 889.814199 168.560358 889.961074 168.75567 
Q 890.107949 168.950983 890.339199 169.046295 
Q 890.572012 169.141608 890.884512 169.141608 
Q 891.376699 169.141608 891.650137 168.879108 
Q 891.923574 168.615045 891.923574 168.13692 
L 891.923574 167.921295 
Q 891.923574 167.388483 891.664199 167.09942 
Q 891.406387 166.808795 890.932949 166.808795 
L 890.429824 166.808795 
L 890.429824 165.860358 
L 890.932949 165.860358 
Q 891.348574 165.860358 891.576699 165.61192 
Q 891.806387 165.363483 891.806387 164.908795 
L 891.806387 164.688483 
Q 891.806387 164.269733 891.564199 164.040045 
Q 891.323574 163.810358 890.879824 163.810358 
Q 890.625137 163.810358 890.425137 163.90567 
Q 890.225137 164.000983 890.086074 164.19942 
Q 889.947012 164.396295 889.882949 164.69317 
L 889.882949 164.69317 
L 888.872012 164.69317 
L 888.872012 164.69317 
Q 888.970449 164.113483 889.240762 163.697858 
Q 889.512637 163.282233 889.926699 163.06817 
Q 890.342324 162.852545 890.879824 162.852545 
Q 891.797012 162.852545 892.300137 163.33692 
Q 892.803262 163.819733 892.803262 164.69942 
L 892.803262 164.816608 
Q 892.803262 165.347858 892.514199 165.74317 
Q 892.226699 166.138483 891.700137 166.319733 
Q 892.281387 166.446295 892.600137 166.891608 
Q 892.920449 167.335358 892.920449 168.02442 
L 892.920449 168.141608 
Q 892.920449 168.76192 892.681387 169.200983 
Q 892.442324 169.640045 891.984512 169.869733 
Q 891.528262 170.09942 890.884512 170.09942 
z
M 893.702285 170.938483 
Q 894.438223 170.113483 894.803848 169.097858 
Q 895.171035 168.082233 895.171035 166.86192 
Q 895.171035 165.641608 894.803848 164.625983 
Q 894.438223 163.610358 893.702285 162.790045 
L 894.385098 162.169733 
Q 895.253848 163.11192 895.685098 164.282233 
Q 896.11791 165.450983 896.11791 166.86192 
Q 896.11791 168.272858 895.685098 169.44317 
Q 895.253848 170.61192 894.385098 171.554108 
L 893.702285 170.938483 
z
" style="fill: #ffffff; stroke: #000000"/>
    <path d="M 829.809707 170.09942 
Q 829.297207 170.09942 828.837832 170.002545 
Q 828.38002 169.904108 827.981582 169.708795 
Q 827.583145 169.513483 827.23627 169.219733 
L 827.23627 169.219733 
L 827.856582 168.458795 
L 827.856582 168.458795 
Q 828.262832 168.810358 828.750332 168.98692 
Q 829.239395 169.16192 829.809707 169.16192 
Q 830.581582 169.16192 831.006582 168.875983 
Q 831.431582 168.590045 831.431582 168.06817 
L 831.431582 168.063483 
Q 831.431582 167.691608 831.237832 167.47442 
Q 831.045645 167.257233 830.739395 167.152545 
Q 830.434707 167.047858 829.951895 166.958795 
Q 829.93627 166.954108 829.919082 166.954108 
Q 829.903457 166.954108 829.887832 166.94942 
L 829.814395 166.935358 
Q 829.101895 166.813483 828.65502 166.660358 
Q 828.208145 166.50567 827.890957 166.097858 
Q 827.57377 165.690045 827.57377 164.938483 
L 827.57377 164.933795 
Q 827.57377 164.27442 827.869082 163.808795 
Q 828.164395 163.341608 828.73002 163.097858 
Q 829.297207 162.852545 830.09252 162.852545 
Q 830.47377 162.852545 830.84252 162.93692 
Q 831.21127 163.019733 831.569082 163.183795 
Q 831.928457 163.346295 832.275332 163.594733 
L 832.275332 163.594733 
L 831.709707 164.38692 
L 831.709707 164.38692 
Q 831.303457 164.088483 830.900332 163.940045 
Q 830.49877 163.790045 830.09252 163.790045 
Q 829.365957 163.790045 828.962832 164.08067 
Q 828.559707 164.371295 828.559707 164.904108 
L 828.559707 164.908795 
Q 828.559707 165.27442 828.76752 165.485358 
Q 828.975332 165.694733 829.284707 165.794733 
Q 829.595645 165.894733 830.147207 166.002545 
Q 830.165957 166.007233 830.183145 166.010358 
Q 830.200332 166.01192 830.220645 166.016608 
Q 830.244082 166.021295 830.27377 166.027545 
Q 830.303457 166.032233 830.326895 166.03692 
Q 830.972207 166.16817 831.403457 166.34942 
Q 831.83627 166.529108 832.126895 166.932233 
Q 832.41752 167.335358 832.41752 168.033795 
L 832.41752 168.04317 
Q 832.41752 168.69317 832.109707 169.154108 
Q 831.801895 169.615045 831.21752 169.857233 
Q 830.634707 170.09942 829.809707 170.09942 
z
M 834.507559 169.079108 
L 836.113809 169.079108 
Q 836.899746 169.079108 837.330996 168.671295 
Q 837.763809 168.263483 837.763809 167.521295 
L 837.763809 165.43067 
Q 837.763809 164.688483 837.330996 164.28067 
Q 836.899746 163.872858 836.113809 163.872858 
L 834.507559 163.872858 
L 834.507559 162.925983 
L 836.084121 162.925983 
Q 836.938809 162.925983 837.543496 163.22442 
Q 838.149746 163.521295 838.466934 164.09317 
Q 838.784121 164.665045 838.784121 165.469733 
L 838.784121 167.482233 
Q 838.784121 168.28692 838.466934 168.858795 
Q 838.149746 169.43067 837.541934 169.729108 
Q 836.934121 170.025983 836.079434 170.025983 
L 834.507559 170.025983 
L 834.507559 169.079108 
z
M 833.834121 162.925983 
L 834.829434 162.925983 
L 834.829434 170.025983 
L 833.834121 170.025983 
L 833.834121 162.925983 
z
M 842.329434 170.09942 
Q 841.685684 170.09942 841.196621 169.85567 
Q 840.709121 169.610358 840.441934 169.163483 
Q 840.176309 168.716608 840.176309 168.125983 
L 840.176309 168.008795 
Q 840.176309 167.477545 840.441934 167.008795 
Q 840.709121 166.540045 841.152871 166.300983 
Q 840.776309 166.094733 840.549746 165.707233 
Q 840.323184 165.31817 840.323184 164.888483 
L 840.323184 164.71817 
Q 840.323184 164.16192 840.571621 163.740045 
Q 840.820059 163.316608 841.274746 163.085358 
Q 841.729434 162.852545 842.329434 162.852545 
Q 842.929434 162.852545 843.384121 163.085358 
Q 843.838809 163.316608 844.087246 163.740045 
Q 844.335684 164.16192 844.335684 164.71817 
L 844.335684 164.888483 
Q 844.335684 165.329108 844.104434 165.715045 
Q 843.873184 166.09942 843.491934 166.300983 
Q 843.940371 166.544733 844.210684 167.01192 
Q 844.482559 167.477545 844.482559 168.008795 
L 844.482559 168.125983 
Q 844.482559 168.716608 844.216934 169.163483 
Q 843.951309 169.610358 843.462246 169.85567 
Q 842.974746 170.09942 842.329434 170.09942 
z
M 842.329434 169.141608 
Q 842.676309 169.141608 842.938809 169.00567 
Q 843.202871 168.86817 843.346621 168.622858 
Q 843.491934 168.375983 843.491934 168.052545 
L 843.491934 167.985358 
Q 843.491934 167.657233 843.346621 167.41192 
Q 843.202871 167.165045 842.938809 167.029108 
Q 842.676309 166.891608 842.329434 166.891608 
Q 841.982559 166.891608 841.718496 167.029108 
Q 841.455996 167.165045 841.310684 167.413483 
Q 841.166934 167.66192 841.166934 167.990045 
L 841.166934 168.063483 
Q 841.166934 168.385358 841.310684 168.629108 
Q 841.455996 168.872858 841.718496 169.007233 
Q 841.982559 169.141608 842.329434 169.141608 
z
M 842.329434 165.933795 
Q 842.627871 165.933795 842.855996 165.80567 
Q 843.085684 165.675983 843.212246 165.43692 
Q 843.340371 165.196295 843.340371 164.883795 
L 843.340371 164.816608 
Q 843.340371 164.51817 843.212246 164.288483 
Q 843.085684 164.058795 842.855996 163.935358 
Q 842.627871 163.810358 842.329434 163.810358 
Q 842.030996 163.810358 841.801309 163.935358 
Q 841.573184 164.058795 841.445059 164.288483 
Q 841.318496 164.51817 841.318496 164.821295 
L 841.318496 164.894733 
Q 841.318496 165.200983 841.445059 165.438483 
Q 841.573184 165.675983 841.801309 165.80567 
Q 842.030996 165.933795 842.329434 165.933795 
z
M 847.730606 162.925983 
L 848.725918 162.925983 
L 848.725918 170.025983 
L 847.730606 170.025983 
L 847.730606 162.925983 
z
M 848.213418 169.079108 
L 852.289981 169.079108 
L 852.289981 170.025983 
L 848.213418 170.025983 
L 848.213418 169.079108 
z
M 848.213418 166.027545 
L 851.754043 166.027545 
L 851.754043 166.97442 
L 848.213418 166.97442 
L 848.213418 166.027545 
z
M 848.213418 162.925983 
L 852.289981 162.925983 
L 852.289981 163.872858 
L 848.213418 163.872858 
L 848.213418 162.925983 
z
M 854.605606 168.716608 
Q 854.605606 168.902545 854.685293 169.002545 
Q 854.766543 169.102545 854.911856 169.102545 
L 855.380606 169.102545 
L 855.380606 170.050983 
L 854.794668 170.050983 
Q 854.229043 170.050983 853.918106 169.69942 
Q 853.608731 169.347858 853.608731 168.707233 
L 853.608731 162.925983 
L 854.605606 162.925983 
L 854.605606 168.716608 
z
M 856.504239 162.925983 
L 857.501114 162.925983 
L 857.501114 163.922858 
L 856.504239 163.922858 
L 856.504239 162.925983 
z
M 856.504239 164.957233 
L 857.501114 164.957233 
L 857.501114 170.025983 
L 856.504239 170.025983 
L 856.504239 164.957233 
z
M 860.332754 170.050983 
Q 859.717129 170.050983 859.431192 169.71192 
Q 859.145254 169.371295 859.145254 168.707233 
L 859.145254 163.482233 
L 860.142129 163.482233 
L 860.142129 168.716608 
Q 860.142129 168.902545 860.215567 169.002545 
Q 860.289004 169.102545 860.429629 169.102545 
L 860.909317 169.102545 
L 860.909317 170.050983 
L 860.332754 170.050983 
z
M 858.623379 164.957233 
L 860.909317 164.957233 
L 860.909317 165.85567 
L 858.623379 165.85567 
L 858.623379 164.957233 
z
M 864.350723 170.09942 
Q 863.647598 170.09942 863.14916 169.835358 
Q 862.652285 169.571295 862.389785 169.06192 
Q 862.128848 168.550983 862.128848 167.829108 
L 862.128848 167.257233 
Q 862.128848 166.50567 862.38041 165.97442 
Q 862.631973 165.441608 863.110098 165.163483 
Q 863.589785 164.883795 864.263223 164.883795 
Q 864.897598 164.883795 865.346035 165.202545 
Q 865.796035 165.519733 866.031973 166.119733 
Q 866.269473 166.719733 866.269473 167.560358 
L 866.269473 167.891608 
L 862.852285 167.891608 
L 862.852285 167.091608 
L 865.322598 167.091608 
L 865.322598 167.091608 
Q 865.278848 166.471295 865.002285 166.127545 
Q 864.727285 165.782233 864.263223 165.782233 
Q 863.696035 165.782233 863.38666 166.154108 
Q 863.077285 166.52442 863.077285 167.204108 
L 863.077285 167.847858 
Q 863.077285 168.477545 863.408535 168.815045 
Q 863.741348 169.152545 864.350723 169.152545 
Q 864.653848 169.152545 864.950723 169.03067 
Q 865.24916 168.907233 865.483535 168.688483 
L 865.483535 168.688483 
L 866.138223 169.341608 
L 866.138223 169.341608 
Q 865.76166 169.704108 865.29291 169.902545 
Q 864.82416 170.09942 864.350723 170.09942 
z
M 871.177285 171.554108 
Q 870.308535 170.61192 869.875723 169.44317 
Q 869.444473 168.272858 869.444473 166.86192 
Q 869.444473 165.450983 869.875723 164.282233 
Q 870.308535 163.11192 871.177285 162.169733 
L 871.860098 162.790045 
Q 871.12416 163.610358 870.756973 164.625983 
Q 870.391348 165.641608 870.391348 166.86192 
Q 870.391348 168.082233 870.756973 169.097858 
Q 871.12416 170.113483 871.860098 170.938483 
L 871.177285 171.554108 
z
M 874.77084 170.09942 
Q 874.12709 170.09942 873.638028 169.85567 
Q 873.150528 169.610358 872.88334 169.163483 
Q 872.617715 168.716608 872.617715 168.125983 
L 872.617715 168.008795 
Q 872.617715 167.477545 872.88334 167.008795 
Q 873.150528 166.540045 873.594278 166.300983 
Q 873.217715 166.094733 872.991153 165.707233 
Q 872.76459 165.31817 872.76459 164.888483 
L 872.76459 164.71817 
Q 872.76459 164.16192 873.013028 163.740045 
Q 873.261465 163.316608 873.716153 163.085358 
Q 874.17084 162.852545 874.77084 162.852545 
Q 875.37084 162.852545 875.825528 163.085358 
Q 876.280215 163.316608 876.528653 163.740045 
Q 876.77709 164.16192 876.77709 164.71817 
L 876.77709 164.888483 
Q 876.77709 165.329108 876.54584 165.715045 
Q 876.31459 166.09942 875.93334 166.300983 
Q 876.381778 166.544733 876.65209 167.01192 
Q 876.923965 167.477545 876.923965 168.008795 
L 876.923965 168.125983 
Q 876.923965 168.716608 876.65834 169.163483 
Q 876.392715 169.610358 875.903653 169.85567 
Q 875.416153 170.09942 874.77084 170.09942 
z
M 874.77084 169.141608 
Q 875.117715 169.141608 875.380215 169.00567 
Q 875.644278 168.86817 875.788028 168.622858 
Q 875.93334 168.375983 875.93334 168.052545 
L 875.93334 167.985358 
Q 875.93334 167.657233 875.788028 167.41192 
Q 875.644278 167.165045 875.380215 167.029108 
Q 875.117715 166.891608 874.77084 166.891608 
Q 874.423965 166.891608 874.159903 167.029108 
Q 873.897403 167.165045 873.75209 167.413483 
Q 873.60834 167.66192 873.60834 167.990045 
L 873.60834 168.063483 
Q 873.60834 168.385358 873.75209 168.629108 
Q 873.897403 168.872858 874.159903 169.007233 
Q 874.423965 169.141608 874.77084 169.141608 
z
M 874.77084 165.933795 
Q 875.069278 165.933795 875.297403 165.80567 
Q 875.52709 165.675983 875.653653 165.43692 
Q 875.781778 165.196295 875.781778 164.883795 
L 875.781778 164.816608 
Q 875.781778 164.51817 875.653653 164.288483 
Q 875.52709 164.058795 875.297403 163.935358 
Q 875.069278 163.810358 874.77084 163.810358 
Q 874.472403 163.810358 874.242715 163.935358 
Q 874.01459 164.058795 873.886465 164.288483 
Q 873.759903 164.51817 873.759903 164.821295 
L 873.759903 164.894733 
Q 873.759903 165.200983 873.886465 165.438483 
Q 874.01459 165.675983 874.242715 165.80567 
Q 874.472403 165.933795 874.77084 165.933795 
z
M 880.298965 170.09942 
Q 879.761465 170.09942 879.342715 169.890045 
Q 878.925528 169.679108 878.66459 169.279108 
Q 878.403653 168.879108 878.316153 168.316608 
L 878.316153 168.31192 
L 879.311465 168.31192 
L 879.311465 168.316608 
Q 879.366153 168.707233 879.623965 168.92442 
Q 879.88334 169.141608 880.298965 169.141608 
Q 880.77709 169.141608 881.038028 168.822858 
Q 881.298965 168.502545 881.298965 167.921295 
L 881.298965 167.325983 
Q 881.298965 166.74942 881.038028 166.43067 
Q 880.77709 166.110358 880.298965 166.110358 
Q 880.03959 166.110358 879.800528 166.257233 
Q 879.561465 166.402545 879.380215 166.666608 
L 878.472403 166.666608 
L 878.472403 162.925983 
L 882.08959 162.925983 
L 882.08959 163.872858 
L 879.467715 163.872858 
L 879.467715 165.469733 
Q 879.653653 165.31817 879.88334 165.235358 
Q 880.113028 165.152545 880.35209 165.152545 
Q 880.967715 165.152545 881.403653 165.407233 
Q 881.841153 165.660358 882.067715 166.14942 
Q 882.29584 166.63692 882.29584 167.325983 
L 882.29584 167.921295 
Q 882.29584 168.610358 882.061465 169.09942 
Q 881.82709 169.58692 881.37709 169.84317 
Q 880.928653 170.09942 880.298965 170.09942 
z
M 885.596426 170.09942 
Q 885.001114 170.09942 884.546426 169.882233 
Q 884.091739 169.665045 883.815176 169.252545 
Q 883.540176 168.840045 883.466739 168.258795 
L 883.466739 168.258795 
L 884.482364 168.258795 
L 884.482364 168.258795 
Q 884.526114 168.560358 884.672989 168.75567 
Q 884.819864 168.950983 885.051114 169.046295 
Q 885.283926 169.141608 885.596426 169.141608 
Q 886.088614 169.141608 886.362051 168.879108 
Q 886.635489 168.615045 886.635489 168.13692 
L 886.635489 167.921295 
Q 886.635489 167.388483 886.376114 167.09942 
Q 886.118301 166.808795 885.644864 166.808795 
L 885.141739 166.808795 
L 885.141739 165.860358 
L 885.644864 165.860358 
Q 886.060489 165.860358 886.288614 165.61192 
Q 886.518301 165.363483 886.518301 164.908795 
L 886.518301 164.688483 
Q 886.518301 164.269733 886.276114 164.040045 
Q 886.035489 163.810358 885.591739 163.810358 
Q 885.337051 163.810358 885.137051 163.90567 
Q 884.937051 164.000983 884.797989 164.19942 
Q 884.658926 164.396295 884.594864 164.69317 
L 884.594864 164.69317 
L 883.583926 164.69317 
L 883.583926 164.69317 
Q 883.682364 164.113483 883.952676 163.697858 
Q 884.224551 163.282233 884.638614 163.06817 
Q 885.054239 162.852545 885.591739 162.852545 
Q 886.508926 162.852545 887.012051 163.33692 
Q 887.515176 163.819733 887.515176 164.69942 
L 887.515176 164.816608 
Q 887.515176 165.347858 887.226114 165.74317 
Q 886.938614 166.138483 886.412051 166.319733 
Q 886.993301 166.446295 887.312051 166.891608 
Q 887.632364 167.335358 887.632364 168.02442 
L 887.632364 168.141608 
Q 887.632364 168.76192 887.393301 169.200983 
Q 887.154239 169.640045 886.696426 169.869733 
Q 886.240176 170.09942 885.596426 170.09942 
z
M 890.884512 170.09942 
Q 890.289199 170.09942 889.834512 169.882233 
Q 889.379824 169.665045 889.103262 169.252545 
Q 888.828262 168.840045 888.754824 168.258795 
L 888.754824 168.258795 
L 889.770449 168.258795 
L 889.770449 168.258795 
Q 889.814199 168.560358 889.961074 168.75567 
Q 890.107949 168.950983 890.339199 169.046295 
Q 890.572012 169.141608 890.884512 169.141608 
Q 891.376699 169.141608 891.650137 168.879108 
Q 891.923574 168.615045 891.923574 168.13692 
L 891.923574 167.921295 
Q 891.923574 167.388483 891.664199 167.09942 
Q 891.406387 166.808795 890.932949 166.808795 
L 890.429824 166.808795 
L 890.429824 165.860358 
L 890.932949 165.860358 
Q 891.348574 165.860358 891.576699 165.61192 
Q 891.806387 165.363483 891.806387 164.908795 
L 891.806387 164.688483 
Q 891.806387 164.269733 891.564199 164.040045 
Q 891.323574 163.810358 890.879824 163.810358 
Q 890.625137 163.810358 890.425137 163.90567 
Q 890.225137 164.000983 890.086074 164.19942 
Q 889.947012 164.396295 889.882949 164.69317 
L 889.882949 164.69317 
L 888.872012 164.69317 
L 888.872012 164.69317 
Q 888.970449 164.113483 889.240762 163.697858 
Q 889.512637 163.282233 889.926699 163.06817 
Q 890.342324 162.852545 890.879824 162.852545 
Q 891.797012 162.852545 892.300137 163.33692 
Q 892.803262 163.819733 892.803262 164.69942 
L 892.803262 164.816608 
Q 892.803262 165.347858 892.514199 165.74317 
Q 892.226699 166.138483 891.700137 166.319733 
Q 892.281387 166.446295 892.600137 166.891608 
Q 892.920449 167.335358 892.920449 168.02442 
L 892.920449 168.141608 
Q 892.920449 168.76192 892.681387 169.200983 
Q 892.442324 169.640045 891.984512 169.869733 
Q 891.528262 170.09942 890.884512 170.09942 
z
M 893.702285 170.938483 
Q 894.438223 170.113483 894.803848 169.097858 
Q 895.171035 168.082233 895.171035 166.86192 
Q 895.171035 165.641608 894.803848 164.625983 
Q 894.438223 163.610358 893.702285 162.790045 
L 894.385098 162.169733 
Q 895.253848 163.11192 895.685098 164.282233 
Q 896.11791 165.450983 896.11791 166.86192 
Q 896.11791 168.272858 895.685098 169.44317 
Q 895.253848 170.61192 894.385098 171.554108 
L 893.702285 170.938483 
z
" style="fill: #ffffff"/>
   </g>
  </g>
 </g>
 <defs>
  <clipPath id="p49f6fe3e61">
   <rect x="144" y="77.76" width="892.8" height="498.96"/>
  </clipPath>
 </defs>
</svg>
