<?xml version="1.0" encoding="utf-8" standalone="no"?>
<!DOCTYPE svg PUBLIC "-//W3C//DTD SVG 1.1//EN"
  "http://www.w3.org/Graphics/SVG/1.1/DTD/svg11.dtd">
<svg xmlns:xlink="http://www.w3.org/1999/xlink" width="1152pt" height="648pt" viewBox="0 0 1152 648" xmlns="http://www.w3.org/2000/svg" version="1.1">
 <metadata>
  <rdf:RDF xmlns:dc="http://purl.org/dc/elements/1.1/" xmlns:cc="http://creativecommons.org/ns#" xmlns:rdf="http://www.w3.org/1999/02/22-rdf-syntax-ns#">
   <cc:Work>
    <dc:type rdf:resource="http://purl.org/dc/dcmitype/StillImage"/>
    <dc:date>2024-11-15T17:07:54.602848</dc:date>
    <dc:format>image/svg+xml</dc:format>
    <dc:creator>
     <cc:Agent>
      <dc:title>Matplotlib v3.8.1, https://matplotlib.org/</dc:title>
     </cc:Agent>
    </dc:creator>
   </cc:Work>
  </rdf:RDF>
 </metadata>
 <defs>
  <style type="text/css">*{stroke-linejoin: round; stroke-linecap: butt}</style>
 </defs>
 <g id="figure_1">
  <g id="patch_1">
   <path d="M 0 648 
L 1152 648 
L 1152 0 
L 0 0 
L 0 648 
z
" style="fill: none"/>
  </g>
  <g id="axes_1">
   <g id="PathCollection_1">
    <defs>
     <path id="m7ebc3bf68f" d="M 0 2.738613 
C 0.726289 2.738613 1.422928 2.450055 1.936492 1.936492 
C 2.450055 1.422928 2.738613 0.726289 2.738613 0 
C 2.738613 -0.726289 2.450055 -1.422928 1.936492 -1.936492 
C 1.422928 -2.450055 0.726289 -2.738613 0 -2.738613 
C -0.726289 -2.738613 -1.422928 -2.450055 -1.936492 -1.936492 
C -2.450055 -1.422928 -2.738613 -0.726289 -2.738613 0 
C -2.738613 0.726289 -2.450055 1.422928 -1.936492 1.936492 
C -1.422928 2.450055 -0.726289 2.738613 0 2.738613 
z
" style="stroke: #f27979"/>
    </defs>
    <g clip-path="url(#p2db2236e2e)">
     <use xlink:href="#m7ebc3bf68f" x="867.979636" y="201.79314" style="fill: #f27979; stroke: #f27979"/>
     <use xlink:href="#m7ebc3bf68f" x="274.267636" y="370.94058" style="fill: #f27979; stroke: #f27979"/>
     <use xlink:href="#m7ebc3bf68f" x="247.889455" y="404.5788" style="fill: #f27979; stroke: #f27979"/>
    </g>
   </g>
   <g id="text_1">
    <path d="M 875.425241 202.492833 
L 877.031491 202.492833 
Q 877.817429 202.492833 878.248679 202.085021 
Q 878.681491 201.677208 878.681491 200.935021 
L 878.681491 198.844396 
Q 878.681491 198.102208 878.248679 197.694396 
Q 877.817429 197.286583 877.031491 197.286583 
L 875.425241 197.286583 
L 875.425241 196.339708 
L 877.001804 196.339708 
Q 877.856491 196.339708 878.461179 196.638146 
Q 879.067429 196.935021 879.384616 197.506896 
Q 879.701804 198.078771 879.701804 198.883458 
L 879.701804 200.895958 
Q 879.701804 201.700646 879.384616 202.272521 
Q 879.067429 202.844396 878.459616 203.142833 
Q 877.851804 203.439708 876.997116 203.439708 
L 875.425241 203.439708 
L 875.425241 202.492833 
z
M 874.751804 196.339708 
L 875.747116 196.339708 
L 875.747116 203.439708 
L 874.751804 203.439708 
L 874.751804 196.339708 
z
M 883.681491 199.914708 
L 883.676804 200.089708 
Q 883.554929 200.314708 883.308054 200.419396 
Q 883.061179 200.524083 882.725241 200.524083 
Q 882.217429 200.524083 881.831491 200.266271 
Q 881.445554 200.006896 881.233054 199.536583 
Q 881.020554 199.064708 881.020554 198.444396 
L 881.020554 198.439708 
Q 881.020554 197.750646 881.251804 197.263146 
Q 881.484616 196.774083 881.931491 196.520958 
Q 882.378366 196.266271 883.003366 196.266271 
Q 883.628366 196.266271 884.072116 196.525646 
Q 884.517429 196.785021 884.748679 197.278771 
Q 884.979929 197.770958 884.979929 198.464708 
L 884.979929 198.469396 
Q 884.979929 198.849083 884.881491 199.281896 
Q 884.784616 199.714708 884.604929 200.138146 
Q 884.575241 200.202208 884.545554 200.267833 
Q 884.517429 200.333458 884.483054 200.397521 
L 882.968991 203.439708 
L 881.893991 203.439708 
L 883.681491 199.914708 
z
M 883.003366 199.616271 
Q 883.472116 199.616271 883.728366 199.299083 
Q 883.984616 198.981896 883.984616 198.405333 
L 883.984616 198.400646 
Q 883.984616 197.839708 883.728366 197.531896 
Q 883.472116 197.224083 883.003366 197.224083 
Q 882.529929 197.224083 882.273679 197.531896 
Q 882.017429 197.839708 882.017429 198.405333 
L 882.017429 198.410021 
Q 882.017429 198.986583 882.273679 199.302208 
Q 882.529929 199.616271 883.003366 199.616271 
z
M 886.200827 201.486583 
L 888.58364 196.344396 
L 889.610202 196.344396 
L 887.285202 201.427208 
L 890.766452 201.427208 
L 890.766452 202.350646 
L 886.200827 202.350646 
L 886.200827 201.486583 
z
M 889.263327 199.264708 
L 890.235202 199.264708 
L 890.235202 203.444396 
L 889.263327 203.444396 
L 889.263327 199.264708 
z
M 894.014304 203.513146 
Q 893.017429 203.513146 892.501804 202.981896 
Q 891.987741 202.449083 891.987741 201.495958 
L 891.987741 198.269396 
Q 891.987741 197.311583 892.504929 196.781896 
Q 893.022116 196.252208 894.014304 196.252208 
Q 895.009616 196.252208 895.525241 196.780333 
Q 896.040866 197.306896 896.040866 198.269396 
L 896.040866 201.495958 
Q 896.040866 202.453771 895.522116 202.983458 
Q 895.004929 203.513146 894.014304 203.513146 
z
M 894.014304 202.566271 
Q 894.540866 202.566271 894.792429 202.289708 
Q 895.043991 202.013146 895.043991 201.495958 
L 895.043991 198.269396 
Q 895.043991 197.750646 894.793991 197.475646 
Q 894.545554 197.199083 894.014304 197.199083 
Q 893.481491 197.199083 893.231491 197.475646 
Q 892.983054 197.750646 892.983054 198.269396 
L 892.983054 201.495958 
Q 892.983054 202.013146 893.234616 202.289708 
Q 893.486179 202.566271 894.014304 202.566271 
z
M 899.531882 203.513146 
Q 898.535007 203.513146 898.019382 202.981896 
Q 897.505319 202.449083 897.505319 201.495958 
L 897.505319 198.269396 
Q 897.505319 197.311583 898.022507 196.781896 
Q 898.539694 196.252208 899.531882 196.252208 
Q 900.527194 196.252208 901.042819 196.780333 
Q 901.558444 197.306896 901.558444 198.269396 
L 901.558444 201.495958 
Q 901.558444 202.453771 901.039694 202.983458 
Q 900.522507 203.513146 899.531882 203.513146 
z
M 899.531882 202.566271 
Q 900.058444 202.566271 900.310007 202.289708 
Q 900.561569 202.013146 900.561569 201.495958 
L 900.561569 198.269396 
Q 900.561569 197.750646 900.311569 197.475646 
Q 900.063132 197.199083 899.531882 197.199083 
Q 898.999069 197.199083 898.749069 197.475646 
Q 898.500632 197.750646 898.500632 198.269396 
L 898.500632 201.495958 
Q 898.500632 202.013146 898.752194 202.289708 
Q 899.003757 202.566271 899.531882 202.566271 
z
M 906.611569 204.967833 
Q 905.742819 204.025646 905.310007 202.856896 
Q 904.878757 201.686583 904.878757 200.275646 
Q 904.878757 198.864708 905.310007 197.695958 
Q 905.742819 196.525646 906.611569 195.583458 
L 907.294382 196.203771 
Q 906.558444 197.024083 906.191257 198.039708 
Q 905.825632 199.055333 905.825632 200.275646 
Q 905.825632 201.495958 906.191257 202.511583 
Q 906.558444 203.527208 907.294382 204.352208 
L 906.611569 204.967833 
z
M 910.205124 203.513146 
Q 909.561374 203.513146 909.072312 203.269396 
Q 908.584812 203.024083 908.317624 202.577208 
Q 908.051999 202.130333 908.051999 201.539708 
L 908.051999 201.422521 
Q 908.051999 200.891271 908.317624 200.422521 
Q 908.584812 199.953771 909.028562 199.714708 
Q 908.651999 199.508458 908.425437 199.120958 
Q 908.198874 198.731896 908.198874 198.302208 
L 908.198874 198.131896 
Q 908.198874 197.575646 908.447312 197.153771 
Q 908.695749 196.730333 909.150437 196.499083 
Q 909.605124 196.266271 910.205124 196.266271 
Q 910.805124 196.266271 911.259812 196.499083 
Q 911.714499 196.730333 911.962937 197.153771 
Q 912.211374 197.575646 912.211374 198.131896 
L 912.211374 198.302208 
Q 912.211374 198.742833 911.980124 199.128771 
Q 911.748874 199.513146 911.367624 199.714708 
Q 911.816062 199.958458 912.086374 200.425646 
Q 912.358249 200.891271 912.358249 201.422521 
L 912.358249 201.539708 
Q 912.358249 202.130333 912.092624 202.577208 
Q 911.826999 203.024083 911.337937 203.269396 
Q 910.850437 203.513146 910.205124 203.513146 
z
M 910.205124 202.555333 
Q 910.551999 202.555333 910.814499 202.419396 
Q 911.078562 202.281896 911.222312 202.036583 
Q 911.367624 201.789708 911.367624 201.466271 
L 911.367624 201.399083 
Q 911.367624 201.070958 911.222312 200.825646 
Q 911.078562 200.578771 910.814499 200.442833 
Q 910.551999 200.305333 910.205124 200.305333 
Q 909.858249 200.305333 909.594187 200.442833 
Q 909.331687 200.578771 909.186374 200.827208 
Q 909.042624 201.075646 909.042624 201.403771 
L 909.042624 201.477208 
Q 909.042624 201.799083 909.186374 202.042833 
Q 909.331687 202.286583 909.594187 202.420958 
Q 909.858249 202.555333 910.205124 202.555333 
z
M 910.205124 199.347521 
Q 910.503562 199.347521 910.731687 199.219396 
Q 910.961374 199.089708 911.087937 198.850646 
Q 911.216062 198.610021 911.216062 198.297521 
L 911.216062 198.230333 
Q 911.216062 197.931896 911.087937 197.702208 
Q 910.961374 197.472521 910.731687 197.349083 
Q 910.503562 197.224083 910.205124 197.224083 
Q 909.906687 197.224083 909.676999 197.349083 
Q 909.448874 197.472521 909.320749 197.702208 
Q 909.194187 197.931896 909.194187 198.235021 
L 909.194187 198.308458 
Q 909.194187 198.614708 909.320749 198.852208 
Q 909.448874 199.089708 909.676999 199.219396 
Q 909.906687 199.347521 910.205124 199.347521 
z
M 915.733249 203.513146 
Q 915.195749 203.513146 914.776999 203.303771 
Q 914.359812 203.092833 914.098874 202.692833 
Q 913.837937 202.292833 913.750437 201.730333 
L 913.750437 201.725646 
L 914.745749 201.725646 
L 914.745749 201.730333 
Q 914.800437 202.120958 915.058249 202.338146 
Q 915.317624 202.555333 915.733249 202.555333 
Q 916.211374 202.555333 916.472312 202.236583 
Q 916.733249 201.916271 916.733249 201.335021 
L 916.733249 200.739708 
Q 916.733249 200.163146 916.472312 199.844396 
Q 916.211374 199.524083 915.733249 199.524083 
Q 915.473874 199.524083 915.234812 199.670958 
Q 914.995749 199.816271 914.814499 200.080333 
L 913.906687 200.080333 
L 913.906687 196.339708 
L 917.523874 196.339708 
L 917.523874 197.286583 
L 914.901999 197.286583 
L 914.901999 198.883458 
Q 915.087937 198.731896 915.317624 198.649083 
Q 915.547312 198.566271 915.786374 198.566271 
Q 916.401999 198.566271 916.837937 198.820958 
Q 917.275437 199.074083 917.501999 199.563146 
Q 917.730124 200.050646 917.730124 200.739708 
L 917.730124 201.335021 
Q 917.730124 202.024083 917.495749 202.513146 
Q 917.261374 203.000646 916.811374 203.256896 
Q 916.362937 203.513146 915.733249 203.513146 
z
M 921.03071 203.513146 
Q 920.435398 203.513146 919.98071 203.295958 
Q 919.526023 203.078771 919.24946 202.666271 
Q 918.97446 202.253771 918.901023 201.672521 
L 918.901023 201.672521 
L 919.916648 201.672521 
L 919.916648 201.672521 
Q 919.960398 201.974083 920.107273 202.169396 
Q 920.254148 202.364708 920.485398 202.460021 
Q 920.71821 202.555333 921.03071 202.555333 
Q 921.522898 202.555333 921.796335 202.292833 
Q 922.069773 202.028771 922.069773 201.550646 
L 922.069773 201.335021 
Q 922.069773 200.802208 921.810398 200.513146 
Q 921.552585 200.222521 921.079148 200.222521 
L 920.576023 200.222521 
L 920.576023 199.274083 
L 921.079148 199.274083 
Q 921.494773 199.274083 921.722898 199.025646 
Q 921.952585 198.777208 921.952585 198.322521 
L 921.952585 198.102208 
Q 921.952585 197.683458 921.710398 197.453771 
Q 921.469773 197.224083 921.026023 197.224083 
Q 920.771335 197.224083 920.571335 197.319396 
Q 920.371335 197.414708 920.232273 197.613146 
Q 920.09321 197.810021 920.029148 198.106896 
L 920.029148 198.106896 
L 919.01821 198.106896 
L 919.01821 198.106896 
Q 919.116648 197.527208 919.38696 197.111583 
Q 919.658835 196.695958 920.072898 196.481896 
Q 920.488523 196.266271 921.026023 196.266271 
Q 921.94321 196.266271 922.446335 196.750646 
Q 922.94946 197.233458 922.94946 198.113146 
L 922.94946 198.230333 
Q 922.94946 198.761583 922.660398 199.156896 
Q 922.372898 199.552208 921.846335 199.733458 
Q 922.427585 199.860021 922.746335 200.305333 
Q 923.066648 200.749083 923.066648 201.438146 
L 923.066648 201.555333 
Q 923.066648 202.175646 922.827585 202.614708 
Q 922.588523 203.053771 922.13071 203.283458 
Q 921.67446 203.513146 921.03071 203.513146 
z
M 926.318796 203.513146 
Q 925.723484 203.513146 925.268796 203.295958 
Q 924.814109 203.078771 924.537546 202.666271 
Q 924.262546 202.253771 924.189109 201.672521 
L 924.189109 201.672521 
L 925.204734 201.672521 
L 925.204734 201.672521 
Q 925.248484 201.974083 925.395359 202.169396 
Q 925.542234 202.364708 925.773484 202.460021 
Q 926.006296 202.555333 926.318796 202.555333 
Q 926.810984 202.555333 927.084421 202.292833 
Q 927.357859 202.028771 927.357859 201.550646 
L 927.357859 201.335021 
Q 927.357859 200.802208 927.098484 200.513146 
Q 926.840671 200.222521 926.367234 200.222521 
L 925.864109 200.222521 
L 925.864109 199.274083 
L 926.367234 199.274083 
Q 926.782859 199.274083 927.010984 199.025646 
Q 927.240671 198.777208 927.240671 198.322521 
L 927.240671 198.102208 
Q 927.240671 197.683458 926.998484 197.453771 
Q 926.757859 197.224083 926.314109 197.224083 
Q 926.059421 197.224083 925.859421 197.319396 
Q 925.659421 197.414708 925.520359 197.613146 
Q 925.381296 197.810021 925.317234 198.106896 
L 925.317234 198.106896 
L 924.306296 198.106896 
L 924.306296 198.106896 
Q 924.404734 197.527208 924.675046 197.111583 
Q 924.946921 196.695958 925.360984 196.481896 
Q 925.776609 196.266271 926.314109 196.266271 
Q 927.231296 196.266271 927.734421 196.750646 
Q 928.237546 197.233458 928.237546 198.113146 
L 928.237546 198.230333 
Q 928.237546 198.761583 927.948484 199.156896 
Q 927.660984 199.552208 927.134421 199.733458 
Q 927.715671 199.860021 928.034421 200.305333 
Q 928.354734 200.749083 928.354734 201.438146 
L 928.354734 201.555333 
Q 928.354734 202.175646 928.115671 202.614708 
Q 927.876609 203.053771 927.418796 203.283458 
Q 926.962546 203.513146 926.318796 203.513146 
z
M 929.136569 204.352208 
Q 929.872507 203.527208 930.238132 202.511583 
Q 930.605319 201.495958 930.605319 200.275646 
Q 930.605319 199.055333 930.238132 198.039708 
Q 929.872507 197.024083 929.136569 196.203771 
L 929.819382 195.583458 
Q 930.688132 196.525646 931.119382 197.695958 
Q 931.552194 198.864708 931.552194 200.275646 
Q 931.552194 201.686583 931.119382 202.856896 
Q 930.688132 204.025646 929.819382 204.967833 
L 929.136569 204.352208 
z
" style="fill: #ffffff; stroke: #000000"/>
    <path d="M 875.425241 202.492833 
L 877.031491 202.492833 
Q 877.817429 202.492833 878.248679 202.085021 
Q 878.681491 201.677208 878.681491 200.935021 
L 878.681491 198.844396 
Q 878.681491 198.102208 878.248679 197.694396 
Q 877.817429 197.286583 877.031491 197.286583 
L 875.425241 197.286583 
L 875.425241 196.339708 
L 877.001804 196.339708 
Q 877.856491 196.339708 878.461179 196.638146 
Q 879.067429 196.935021 879.384616 197.506896 
Q 879.701804 198.078771 879.701804 198.883458 
L 879.701804 200.895958 
Q 879.701804 201.700646 879.384616 202.272521 
Q 879.067429 202.844396 878.459616 203.142833 
Q 877.851804 203.439708 876.997116 203.439708 
L 875.425241 203.439708 
L 875.425241 202.492833 
z
M 874.751804 196.339708 
L 875.747116 196.339708 
L 875.747116 203.439708 
L 874.751804 203.439708 
L 874.751804 196.339708 
z
M 883.681491 199.914708 
L 883.676804 200.089708 
Q 883.554929 200.314708 883.308054 200.419396 
Q 883.061179 200.524083 882.725241 200.524083 
Q 882.217429 200.524083 881.831491 200.266271 
Q 881.445554 200.006896 881.233054 199.536583 
Q 881.020554 199.064708 881.020554 198.444396 
L 881.020554 198.439708 
Q 881.020554 197.750646 881.251804 197.263146 
Q 881.484616 196.774083 881.931491 196.520958 
Q 882.378366 196.266271 883.003366 196.266271 
Q 883.628366 196.266271 884.072116 196.525646 
Q 884.517429 196.785021 884.748679 197.278771 
Q 884.979929 197.770958 884.979929 198.464708 
L 884.979929 198.469396 
Q 884.979929 198.849083 884.881491 199.281896 
Q 884.784616 199.714708 884.604929 200.138146 
Q 884.575241 200.202208 884.545554 200.267833 
Q 884.517429 200.333458 884.483054 200.397521 
L 882.968991 203.439708 
L 881.893991 203.439708 
L 883.681491 199.914708 
z
M 883.003366 199.616271 
Q 883.472116 199.616271 883.728366 199.299083 
Q 883.984616 198.981896 883.984616 198.405333 
L 883.984616 198.400646 
Q 883.984616 197.839708 883.728366 197.531896 
Q 883.472116 197.224083 883.003366 197.224083 
Q 882.529929 197.224083 882.273679 197.531896 
Q 882.017429 197.839708 882.017429 198.405333 
L 882.017429 198.410021 
Q 882.017429 198.986583 882.273679 199.302208 
Q 882.529929 199.616271 883.003366 199.616271 
z
M 886.200827 201.486583 
L 888.58364 196.344396 
L 889.610202 196.344396 
L 887.285202 201.427208 
L 890.766452 201.427208 
L 890.766452 202.350646 
L 886.200827 202.350646 
L 886.200827 201.486583 
z
M 889.263327 199.264708 
L 890.235202 199.264708 
L 890.235202 203.444396 
L 889.263327 203.444396 
L 889.263327 199.264708 
z
M 894.014304 203.513146 
Q 893.017429 203.513146 892.501804 202.981896 
Q 891.987741 202.449083 891.987741 201.495958 
L 891.987741 198.269396 
Q 891.987741 197.311583 892.504929 196.781896 
Q 893.022116 196.252208 894.014304 196.252208 
Q 895.009616 196.252208 895.525241 196.780333 
Q 896.040866 197.306896 896.040866 198.269396 
L 896.040866 201.495958 
Q 896.040866 202.453771 895.522116 202.983458 
Q 895.004929 203.513146 894.014304 203.513146 
z
M 894.014304 202.566271 
Q 894.540866 202.566271 894.792429 202.289708 
Q 895.043991 202.013146 895.043991 201.495958 
L 895.043991 198.269396 
Q 895.043991 197.750646 894.793991 197.475646 
Q 894.545554 197.199083 894.014304 197.199083 
Q 893.481491 197.199083 893.231491 197.475646 
Q 892.983054 197.750646 892.983054 198.269396 
L 892.983054 201.495958 
Q 892.983054 202.013146 893.234616 202.289708 
Q 893.486179 202.566271 894.014304 202.566271 
z
M 899.531882 203.513146 
Q 898.535007 203.513146 898.019382 202.981896 
Q 897.505319 202.449083 897.505319 201.495958 
L 897.505319 198.269396 
Q 897.505319 197.311583 898.022507 196.781896 
Q 898.539694 196.252208 899.531882 196.252208 
Q 900.527194 196.252208 901.042819 196.780333 
Q 901.558444 197.306896 901.558444 198.269396 
L 901.558444 201.495958 
Q 901.558444 202.453771 901.039694 202.983458 
Q 900.522507 203.513146 899.531882 203.513146 
z
M 899.531882 202.566271 
Q 900.058444 202.566271 900.310007 202.289708 
Q 900.561569 202.013146 900.561569 201.495958 
L 900.561569 198.269396 
Q 900.561569 197.750646 900.311569 197.475646 
Q 900.063132 197.199083 899.531882 197.199083 
Q 898.999069 197.199083 898.749069 197.475646 
Q 898.500632 197.750646 898.500632 198.269396 
L 898.500632 201.495958 
Q 898.500632 202.013146 898.752194 202.289708 
Q 899.003757 202.566271 899.531882 202.566271 
z
M 906.611569 204.967833 
Q 905.742819 204.025646 905.310007 202.856896 
Q 904.878757 201.686583 904.878757 200.275646 
Q 904.878757 198.864708 905.310007 197.695958 
Q 905.742819 196.525646 906.611569 195.583458 
L 907.294382 196.203771 
Q 906.558444 197.024083 906.191257 198.039708 
Q 905.825632 199.055333 905.825632 200.275646 
Q 905.825632 201.495958 906.191257 202.511583 
Q 906.558444 203.527208 907.294382 204.352208 
L 906.611569 204.967833 
z
M 910.205124 203.513146 
Q 909.561374 203.513146 909.072312 203.269396 
Q 908.584812 203.024083 908.317624 202.577208 
Q 908.051999 202.130333 908.051999 201.539708 
L 908.051999 201.422521 
Q 908.051999 200.891271 908.317624 200.422521 
Q 908.584812 199.953771 909.028562 199.714708 
Q 908.651999 199.508458 908.425437 199.120958 
Q 908.198874 198.731896 908.198874 198.302208 
L 908.198874 198.131896 
Q 908.198874 197.575646 908.447312 197.153771 
Q 908.695749 196.730333 909.150437 196.499083 
Q 909.605124 196.266271 910.205124 196.266271 
Q 910.805124 196.266271 911.259812 196.499083 
Q 911.714499 196.730333 911.962937 197.153771 
Q 912.211374 197.575646 912.211374 198.131896 
L 912.211374 198.302208 
Q 912.211374 198.742833 911.980124 199.128771 
Q 911.748874 199.513146 911.367624 199.714708 
Q 911.816062 199.958458 912.086374 200.425646 
Q 912.358249 200.891271 912.358249 201.422521 
L 912.358249 201.539708 
Q 912.358249 202.130333 912.092624 202.577208 
Q 911.826999 203.024083 911.337937 203.269396 
Q 910.850437 203.513146 910.205124 203.513146 
z
M 910.205124 202.555333 
Q 910.551999 202.555333 910.814499 202.419396 
Q 911.078562 202.281896 911.222312 202.036583 
Q 911.367624 201.789708 911.367624 201.466271 
L 911.367624 201.399083 
Q 911.367624 201.070958 911.222312 200.825646 
Q 911.078562 200.578771 910.814499 200.442833 
Q 910.551999 200.305333 910.205124 200.305333 
Q 909.858249 200.305333 909.594187 200.442833 
Q 909.331687 200.578771 909.186374 200.827208 
Q 909.042624 201.075646 909.042624 201.403771 
L 909.042624 201.477208 
Q 909.042624 201.799083 909.186374 202.042833 
Q 909.331687 202.286583 909.594187 202.420958 
Q 909.858249 202.555333 910.205124 202.555333 
z
M 910.205124 199.347521 
Q 910.503562 199.347521 910.731687 199.219396 
Q 910.961374 199.089708 911.087937 198.850646 
Q 911.216062 198.610021 911.216062 198.297521 
L 911.216062 198.230333 
Q 911.216062 197.931896 911.087937 197.702208 
Q 910.961374 197.472521 910.731687 197.349083 
Q 910.503562 197.224083 910.205124 197.224083 
Q 909.906687 197.224083 909.676999 197.349083 
Q 909.448874 197.472521 909.320749 197.702208 
Q 909.194187 197.931896 909.194187 198.235021 
L 909.194187 198.308458 
Q 909.194187 198.614708 909.320749 198.852208 
Q 909.448874 199.089708 909.676999 199.219396 
Q 909.906687 199.347521 910.205124 199.347521 
z
M 915.733249 203.513146 
Q 915.195749 203.513146 914.776999 203.303771 
Q 914.359812 203.092833 914.098874 202.692833 
Q 913.837937 202.292833 913.750437 201.730333 
L 913.750437 201.725646 
L 914.745749 201.725646 
L 914.745749 201.730333 
Q 914.800437 202.120958 915.058249 202.338146 
Q 915.317624 202.555333 915.733249 202.555333 
Q 916.211374 202.555333 916.472312 202.236583 
Q 916.733249 201.916271 916.733249 201.335021 
L 916.733249 200.739708 
Q 916.733249 200.163146 916.472312 199.844396 
Q 916.211374 199.524083 915.733249 199.524083 
Q 915.473874 199.524083 915.234812 199.670958 
Q 914.995749 199.816271 914.814499 200.080333 
L 913.906687 200.080333 
L 913.906687 196.339708 
L 917.523874 196.339708 
L 917.523874 197.286583 
L 914.901999 197.286583 
L 914.901999 198.883458 
Q 915.087937 198.731896 915.317624 198.649083 
Q 915.547312 198.566271 915.786374 198.566271 
Q 916.401999 198.566271 916.837937 198.820958 
Q 917.275437 199.074083 917.501999 199.563146 
Q 917.730124 200.050646 917.730124 200.739708 
L 917.730124 201.335021 
Q 917.730124 202.024083 917.495749 202.513146 
Q 917.261374 203.000646 916.811374 203.256896 
Q 916.362937 203.513146 915.733249 203.513146 
z
M 921.03071 203.513146 
Q 920.435398 203.513146 919.98071 203.295958 
Q 919.526023 203.078771 919.24946 202.666271 
Q 918.97446 202.253771 918.901023 201.672521 
L 918.901023 201.672521 
L 919.916648 201.672521 
L 919.916648 201.672521 
Q 919.960398 201.974083 920.107273 202.169396 
Q 920.254148 202.364708 920.485398 202.460021 
Q 920.71821 202.555333 921.03071 202.555333 
Q 921.522898 202.555333 921.796335 202.292833 
Q 922.069773 202.028771 922.069773 201.550646 
L 922.069773 201.335021 
Q 922.069773 200.802208 921.810398 200.513146 
Q 921.552585 200.222521 921.079148 200.222521 
L 920.576023 200.222521 
L 920.576023 199.274083 
L 921.079148 199.274083 
Q 921.494773 199.274083 921.722898 199.025646 
Q 921.952585 198.777208 921.952585 198.322521 
L 921.952585 198.102208 
Q 921.952585 197.683458 921.710398 197.453771 
Q 921.469773 197.224083 921.026023 197.224083 
Q 920.771335 197.224083 920.571335 197.319396 
Q 920.371335 197.414708 920.232273 197.613146 
Q 920.09321 197.810021 920.029148 198.106896 
L 920.029148 198.106896 
L 919.01821 198.106896 
L 919.01821 198.106896 
Q 919.116648 197.527208 919.38696 197.111583 
Q 919.658835 196.695958 920.072898 196.481896 
Q 920.488523 196.266271 921.026023 196.266271 
Q 921.94321 196.266271 922.446335 196.750646 
Q 922.94946 197.233458 922.94946 198.113146 
L 922.94946 198.230333 
Q 922.94946 198.761583 922.660398 199.156896 
Q 922.372898 199.552208 921.846335 199.733458 
Q 922.427585 199.860021 922.746335 200.305333 
Q 923.066648 200.749083 923.066648 201.438146 
L 923.066648 201.555333 
Q 923.066648 202.175646 922.827585 202.614708 
Q 922.588523 203.053771 922.13071 203.283458 
Q 921.67446 203.513146 921.03071 203.513146 
z
M 926.318796 203.513146 
Q 925.723484 203.513146 925.268796 203.295958 
Q 924.814109 203.078771 924.537546 202.666271 
Q 924.262546 202.253771 924.189109 201.672521 
L 924.189109 201.672521 
L 925.204734 201.672521 
L 925.204734 201.672521 
Q 925.248484 201.974083 925.395359 202.169396 
Q 925.542234 202.364708 925.773484 202.460021 
Q 926.006296 202.555333 926.318796 202.555333 
Q 926.810984 202.555333 927.084421 202.292833 
Q 927.357859 202.028771 927.357859 201.550646 
L 927.357859 201.335021 
Q 927.357859 200.802208 927.098484 200.513146 
Q 926.840671 200.222521 926.367234 200.222521 
L 925.864109 200.222521 
L 925.864109 199.274083 
L 926.367234 199.274083 
Q 926.782859 199.274083 927.010984 199.025646 
Q 927.240671 198.777208 927.240671 198.322521 
L 927.240671 198.102208 
Q 927.240671 197.683458 926.998484 197.453771 
Q 926.757859 197.224083 926.314109 197.224083 
Q 926.059421 197.224083 925.859421 197.319396 
Q 925.659421 197.414708 925.520359 197.613146 
Q 925.381296 197.810021 925.317234 198.106896 
L 925.317234 198.106896 
L 924.306296 198.106896 
L 924.306296 198.106896 
Q 924.404734 197.527208 924.675046 197.111583 
Q 924.946921 196.695958 925.360984 196.481896 
Q 925.776609 196.266271 926.314109 196.266271 
Q 927.231296 196.266271 927.734421 196.750646 
Q 928.237546 197.233458 928.237546 198.113146 
L 928.237546 198.230333 
Q 928.237546 198.761583 927.948484 199.156896 
Q 927.660984 199.552208 927.134421 199.733458 
Q 927.715671 199.860021 928.034421 200.305333 
Q 928.354734 200.749083 928.354734 201.438146 
L 928.354734 201.555333 
Q 928.354734 202.175646 928.115671 202.614708 
Q 927.876609 203.053771 927.418796 203.283458 
Q 926.962546 203.513146 926.318796 203.513146 
z
M 929.136569 204.352208 
Q 929.872507 203.527208 930.238132 202.511583 
Q 930.605319 201.495958 930.605319 200.275646 
Q 930.605319 199.055333 930.238132 198.039708 
Q 929.872507 197.024083 929.136569 196.203771 
L 929.819382 195.583458 
Q 930.688132 196.525646 931.119382 197.695958 
Q 931.552194 198.864708 931.552194 200.275646 
Q 931.552194 201.686583 931.119382 202.856896 
Q 930.688132 204.025646 929.819382 204.967833 
L 929.136569 204.352208 
z
" style="fill: #ffffff"/>
   </g>
   <g id="text_2">
    <path d="M 281.713241 371.640273 
L 283.319491 371.640273 
Q 284.105429 371.640273 284.536679 371.232461 
Q 284.969491 370.824648 284.969491 370.082461 
L 284.969491 367.991836 
Q 284.969491 367.249648 284.536679 366.841836 
Q 284.105429 366.434023 283.319491 366.434023 
L 281.713241 366.434023 
L 281.713241 365.487148 
L 283.289804 365.487148 
Q 284.144491 365.487148 284.749179 365.785586 
Q 285.355429 366.082461 285.672616 366.654336 
Q 285.989804 367.226211 285.989804 368.030898 
L 285.989804 370.043398 
Q 285.989804 370.848086 285.672616 371.419961 
Q 285.355429 371.991836 284.747616 372.290273 
Q 284.139804 372.587148 283.285116 372.587148 
L 281.713241 372.587148 
L 281.713241 371.640273 
z
M 281.039804 365.487148 
L 282.035116 365.487148 
L 282.035116 372.587148 
L 281.039804 372.587148 
L 281.039804 365.487148 
z
M 289.969491 369.062148 
L 289.964804 369.237148 
Q 289.842929 369.462148 289.596054 369.566836 
Q 289.349179 369.671523 289.013241 369.671523 
Q 288.505429 369.671523 288.119491 369.413711 
Q 287.733554 369.154336 287.521054 368.684023 
Q 287.308554 368.212148 287.308554 367.591836 
L 287.308554 367.587148 
Q 287.308554 366.898086 287.539804 366.410586 
Q 287.772616 365.921523 288.219491 365.668398 
Q 288.666366 365.413711 289.291366 365.413711 
Q 289.916366 365.413711 290.360116 365.673086 
Q 290.805429 365.93246 291.036679 366.426211 
Q 291.267929 366.918398 291.267929 367.612148 
L 291.267929 367.616836 
Q 291.267929 367.996523 291.169491 368.429336 
Q 291.072616 368.862148 290.892929 369.285586 
Q 290.863241 369.349648 290.833554 369.415273 
Q 290.805429 369.480898 290.771054 369.544961 
L 289.256991 372.587148 
L 288.181991 372.587148 
L 289.969491 369.062148 
z
M 289.291366 368.763711 
Q 289.760116 368.763711 290.016366 368.446523 
Q 290.272616 368.129336 290.272616 367.552773 
L 290.272616 367.548086 
Q 290.272616 366.987148 290.016366 366.679336 
Q 289.760116 366.371523 289.291366 366.371523 
Q 288.817929 366.371523 288.561679 366.679336 
Q 288.305429 366.987148 288.305429 367.552773 
L 288.305429 367.55746 
Q 288.305429 368.134023 288.561679 368.449648 
Q 288.817929 368.763711 289.291366 368.763711 
z
M 292.488827 370.634023 
L 294.87164 365.491836 
L 295.898202 365.491836 
L 293.573202 370.574648 
L 297.054452 370.574648 
L 297.054452 371.498086 
L 292.488827 371.498086 
L 292.488827 370.634023 
z
M 295.551327 368.412148 
L 296.523202 368.412148 
L 296.523202 372.591836 
L 295.551327 372.591836 
L 295.551327 368.412148 
z
M 300.302304 372.660586 
Q 299.305429 372.660586 298.789804 372.129336 
Q 298.275741 371.596523 298.275741 370.643398 
L 298.275741 367.416835 
Q 298.275741 366.459023 298.792929 365.929336 
Q 299.310116 365.399648 300.302304 365.399648 
Q 301.297616 365.399648 301.813241 365.927773 
Q 302.328866 366.454336 302.328866 367.416835 
L 302.328866 370.643398 
Q 302.328866 371.601211 301.810116 372.130898 
Q 301.292929 372.660586 300.302304 372.660586 
z
M 300.302304 371.71371 
Q 300.828866 371.71371 301.080429 371.437148 
Q 301.331991 371.160586 301.331991 370.643398 
L 301.331991 367.416835 
Q 301.331991 366.898086 301.081991 366.623086 
Q 300.833554 366.346523 300.302304 366.346523 
Q 299.769491 366.346523 299.519491 366.623086 
Q 299.271054 366.898086 299.271054 367.416835 
L 299.271054 370.643398 
Q 299.271054 371.160586 299.522616 371.437148 
Q 299.774179 371.71371 300.302304 371.71371 
z
M 305.819882 372.660586 
Q 304.823007 372.660586 304.307382 372.129336 
Q 303.793319 371.596523 303.793319 370.643398 
L 303.793319 367.416835 
Q 303.793319 366.459023 304.310507 365.929336 
Q 304.827694 365.399648 305.819882 365.399648 
Q 306.815194 365.399648 307.330819 365.927773 
Q 307.846444 366.454336 307.846444 367.416835 
L 307.846444 370.643398 
Q 307.846444 371.601211 307.327694 372.130898 
Q 306.810507 372.660586 305.819882 372.660586 
z
M 305.819882 371.71371 
Q 306.346444 371.71371 306.598007 371.437148 
Q 306.849569 371.160586 306.849569 370.643398 
L 306.849569 367.416835 
Q 306.849569 366.898086 306.599569 366.623086 
Q 306.351132 366.346523 305.819882 366.346523 
Q 305.287069 366.346523 305.037069 366.623086 
Q 304.788632 366.898086 304.788632 367.416835 
L 304.788632 370.643398 
Q 304.788632 371.160586 305.040194 371.437148 
Q 305.291757 371.71371 305.819882 371.71371 
z
M 312.899569 374.115273 
Q 312.030819 373.173086 311.598007 372.004336 
Q 311.166757 370.834023 311.166757 369.423086 
Q 311.166757 368.012148 311.598007 366.843398 
Q 312.030819 365.673086 312.899569 364.730898 
L 313.582382 365.351211 
Q 312.846444 366.171523 312.479257 367.187148 
Q 312.113632 368.202773 312.113632 369.423086 
Q 312.113632 370.643398 312.479257 371.659023 
Q 312.846444 372.674648 313.582382 373.499648 
L 312.899569 374.115273 
z
M 316.493124 372.660586 
Q 315.849374 372.660586 315.360312 372.416835 
Q 314.872812 372.171523 314.605624 371.724648 
Q 314.339999 371.277773 314.339999 370.687148 
L 314.339999 370.569961 
Q 314.339999 370.038711 314.605624 369.569961 
Q 314.872812 369.101211 315.316562 368.862148 
Q 314.939999 368.655898 314.713437 368.268398 
Q 314.486874 367.879336 314.486874 367.449648 
L 314.486874 367.279336 
Q 314.486874 366.723086 314.735312 366.301211 
Q 314.983749 365.877773 315.438437 365.646523 
Q 315.893124 365.413711 316.493124 365.413711 
Q 317.093124 365.413711 317.547812 365.646523 
Q 318.002499 365.877773 318.250937 366.301211 
Q 318.499374 366.723086 318.499374 367.279336 
L 318.499374 367.449648 
Q 318.499374 367.890273 318.268124 368.27621 
Q 318.036874 368.660586 317.655624 368.862148 
Q 318.104062 369.105898 318.374374 369.573085 
Q 318.646249 370.038711 318.646249 370.569961 
L 318.646249 370.687148 
Q 318.646249 371.277773 318.380624 371.724648 
Q 318.114999 372.171523 317.625937 372.416835 
Q 317.138437 372.660586 316.493124 372.660586 
z
M 316.493124 371.702773 
Q 316.839999 371.702773 317.102499 371.566836 
Q 317.366562 371.429336 317.510312 371.184023 
Q 317.655624 370.937148 317.655624 370.613711 
L 317.655624 370.546523 
Q 317.655624 370.218398 317.510312 369.973086 
Q 317.366562 369.726211 317.102499 369.590273 
Q 316.839999 369.452773 316.493124 369.452773 
Q 316.146249 369.452773 315.882187 369.590273 
Q 315.619687 369.726211 315.474374 369.974648 
Q 315.330624 370.223086 315.330624 370.551211 
L 315.330624 370.624648 
Q 315.330624 370.946523 315.474374 371.190273 
Q 315.619687 371.434023 315.882187 371.568398 
Q 316.146249 371.702773 316.493124 371.702773 
z
M 316.493124 368.49496 
Q 316.791562 368.49496 317.019687 368.366836 
Q 317.249374 368.237148 317.375937 367.998086 
Q 317.504062 367.757461 317.504062 367.444961 
L 317.504062 367.377773 
Q 317.504062 367.079336 317.375937 366.849648 
Q 317.249374 366.61996 317.019687 366.496523 
Q 316.791562 366.371523 316.493124 366.371523 
Q 316.194687 366.371523 315.964999 366.496523 
Q 315.736874 366.61996 315.608749 366.849648 
Q 315.482187 367.079336 315.482187 367.382461 
L 315.482187 367.455898 
Q 315.482187 367.762148 315.608749 367.999648 
Q 315.736874 368.237148 315.964999 368.366836 
Q 316.194687 368.49496 316.493124 368.49496 
z
M 322.021249 372.660586 
Q 321.483749 372.660586 321.064999 372.451211 
Q 320.647812 372.240273 320.386874 371.840273 
Q 320.125937 371.440273 320.038437 370.877773 
L 320.038437 370.873086 
L 321.033749 370.873086 
L 321.033749 370.877773 
Q 321.088437 371.268398 321.346249 371.485586 
Q 321.605624 371.702773 322.021249 371.702773 
Q 322.499374 371.702773 322.760312 371.384023 
Q 323.021249 371.063711 323.021249 370.482461 
L 323.021249 369.887148 
Q 323.021249 369.310586 322.760312 368.991836 
Q 322.499374 368.671523 322.021249 368.671523 
Q 321.761874 368.671523 321.522812 368.818398 
Q 321.283749 368.96371 321.102499 369.227773 
L 320.194687 369.227773 
L 320.194687 365.487148 
L 323.811874 365.487148 
L 323.811874 366.434023 
L 321.189999 366.434023 
L 321.189999 368.030898 
Q 321.375937 367.879336 321.605624 367.796523 
Q 321.835312 367.71371 322.074374 367.71371 
Q 322.689999 367.71371 323.125937 367.968398 
Q 323.563437 368.221523 323.789999 368.710586 
Q 324.018124 369.198085 324.018124 369.887148 
L 324.018124 370.482461 
Q 324.018124 371.171523 323.783749 371.660586 
Q 323.549374 372.148086 323.099374 372.404336 
Q 322.650937 372.660586 322.021249 372.660586 
z
M 327.31871 372.660586 
Q 326.723398 372.660586 326.26871 372.443398 
Q 325.814023 372.226211 325.53746 371.813711 
Q 325.26246 371.40121 325.189023 370.819961 
L 325.189023 370.819961 
L 326.204648 370.819961 
L 326.204648 370.819961 
Q 326.248398 371.121523 326.395273 371.316836 
Q 326.542148 371.512148 326.773398 371.607461 
Q 327.00621 371.702773 327.31871 371.702773 
Q 327.810898 371.702773 328.084335 371.440273 
Q 328.357773 371.176211 328.357773 370.698085 
L 328.357773 370.482461 
Q 328.357773 369.949648 328.098398 369.660586 
Q 327.840585 369.36996 327.367148 369.36996 
L 326.864023 369.36996 
L 326.864023 368.421523 
L 327.367148 368.421523 
Q 327.782773 368.421523 328.010898 368.173086 
Q 328.240585 367.924648 328.240585 367.469961 
L 328.240585 367.249648 
Q 328.240585 366.830898 327.998398 366.601211 
Q 327.757773 366.371523 327.314023 366.371523 
Q 327.059335 366.371523 326.859335 366.466836 
Q 326.659335 366.562148 326.520273 366.760585 
Q 326.38121 366.957461 326.317148 367.254336 
L 326.317148 367.254336 
L 325.30621 367.254336 
L 325.30621 367.254336 
Q 325.404648 366.674648 325.67496 366.259023 
Q 325.946835 365.843398 326.360898 365.629336 
Q 326.776523 365.413711 327.314023 365.413711 
Q 328.23121 365.413711 328.734335 365.898086 
Q 329.23746 366.380898 329.23746 367.260585 
L 329.23746 367.377773 
Q 329.23746 367.909023 328.948398 368.304336 
Q 328.660898 368.699648 328.134335 368.880898 
Q 328.715585 369.007461 329.034335 369.452773 
Q 329.354648 369.896523 329.354648 370.585586 
L 329.354648 370.702773 
Q 329.354648 371.323085 329.115585 371.762148 
Q 328.876523 372.201211 328.41871 372.430898 
Q 327.96246 372.660586 327.31871 372.660586 
z
M 332.606796 372.660586 
Q 332.011484 372.660586 331.556796 372.443398 
Q 331.102109 372.226211 330.825546 371.813711 
Q 330.550546 371.40121 330.477109 370.819961 
L 330.477109 370.819961 
L 331.492734 370.819961 
L 331.492734 370.819961 
Q 331.536484 371.121523 331.683359 371.316836 
Q 331.830234 371.512148 332.061484 371.607461 
Q 332.294296 371.702773 332.606796 371.702773 
Q 333.098984 371.702773 333.372421 371.440273 
Q 333.645859 371.176211 333.645859 370.698085 
L 333.645859 370.482461 
Q 333.645859 369.949648 333.386484 369.660586 
Q 333.128671 369.36996 332.655234 369.36996 
L 332.152109 369.36996 
L 332.152109 368.421523 
L 332.655234 368.421523 
Q 333.070859 368.421523 333.298984 368.173086 
Q 333.528671 367.924648 333.528671 367.469961 
L 333.528671 367.249648 
Q 333.528671 366.830898 333.286484 366.601211 
Q 333.045859 366.371523 332.602109 366.371523 
Q 332.347421 366.371523 332.147421 366.466836 
Q 331.947421 366.562148 331.808359 366.760585 
Q 331.669296 366.957461 331.605234 367.254336 
L 331.605234 367.254336 
L 330.594296 367.254336 
L 330.594296 367.254336 
Q 330.692734 366.674648 330.963046 366.259023 
Q 331.234921 365.843398 331.648984 365.629336 
Q 332.064609 365.413711 332.602109 365.413711 
Q 333.519296 365.413711 334.022421 365.898086 
Q 334.525546 366.380898 334.525546 367.260585 
L 334.525546 367.377773 
Q 334.525546 367.909023 334.236484 368.304336 
Q 333.948984 368.699648 333.422421 368.880898 
Q 334.003671 369.007461 334.322421 369.452773 
Q 334.642734 369.896523 334.642734 370.585586 
L 334.642734 370.702773 
Q 334.642734 371.323085 334.403671 371.762148 
Q 334.164609 372.201211 333.706796 372.430898 
Q 333.250546 372.660586 332.606796 372.660586 
z
M 335.424569 373.499648 
Q 336.160507 372.674648 336.526132 371.659023 
Q 336.893319 370.643398 336.893319 369.423086 
Q 336.893319 368.202773 336.526132 367.187148 
Q 336.160507 366.171523 335.424569 365.351211 
L 336.107382 364.730898 
Q 336.976132 365.673086 337.407382 366.843398 
Q 337.840194 368.012148 337.840194 369.423086 
Q 337.840194 370.834023 337.407382 372.004336 
Q 336.976132 373.173086 336.107382 374.115273 
L 335.424569 373.499648 
z
" style="fill: #ffffff; stroke: #000000"/>
    <path d="M 281.713241 371.640273 
L 283.319491 371.640273 
Q 284.105429 371.640273 284.536679 371.232461 
Q 284.969491 370.824648 284.969491 370.082461 
L 284.969491 367.991836 
Q 284.969491 367.249648 284.536679 366.841836 
Q 284.105429 366.434023 283.319491 366.434023 
L 281.713241 366.434023 
L 281.713241 365.487148 
L 283.289804 365.487148 
Q 284.144491 365.487148 284.749179 365.785586 
Q 285.355429 366.082461 285.672616 366.654336 
Q 285.989804 367.226211 285.989804 368.030898 
L 285.989804 370.043398 
Q 285.989804 370.848086 285.672616 371.419961 
Q 285.355429 371.991836 284.747616 372.290273 
Q 284.139804 372.587148 283.285116 372.587148 
L 281.713241 372.587148 
L 281.713241 371.640273 
z
M 281.039804 365.487148 
L 282.035116 365.487148 
L 282.035116 372.587148 
L 281.039804 372.587148 
L 281.039804 365.487148 
z
M 289.969491 369.062148 
L 289.964804 369.237148 
Q 289.842929 369.462148 289.596054 369.566836 
Q 289.349179 369.671523 289.013241 369.671523 
Q 288.505429 369.671523 288.119491 369.413711 
Q 287.733554 369.154336 287.521054 368.684023 
Q 287.308554 368.212148 287.308554 367.591836 
L 287.308554 367.587148 
Q 287.308554 366.898086 287.539804 366.410586 
Q 287.772616 365.921523 288.219491 365.668398 
Q 288.666366 365.413711 289.291366 365.413711 
Q 289.916366 365.413711 290.360116 365.673086 
Q 290.805429 365.93246 291.036679 366.426211 
Q 291.267929 366.918398 291.267929 367.612148 
L 291.267929 367.616836 
Q 291.267929 367.996523 291.169491 368.429336 
Q 291.072616 368.862148 290.892929 369.285586 
Q 290.863241 369.349648 290.833554 369.415273 
Q 290.805429 369.480898 290.771054 369.544961 
L 289.256991 372.587148 
L 288.181991 372.587148 
L 289.969491 369.062148 
z
M 289.291366 368.763711 
Q 289.760116 368.763711 290.016366 368.446523 
Q 290.272616 368.129336 290.272616 367.552773 
L 290.272616 367.548086 
Q 290.272616 366.987148 290.016366 366.679336 
Q 289.760116 366.371523 289.291366 366.371523 
Q 288.817929 366.371523 288.561679 366.679336 
Q 288.305429 366.987148 288.305429 367.552773 
L 288.305429 367.55746 
Q 288.305429 368.134023 288.561679 368.449648 
Q 288.817929 368.763711 289.291366 368.763711 
z
M 292.488827 370.634023 
L 294.87164 365.491836 
L 295.898202 365.491836 
L 293.573202 370.574648 
L 297.054452 370.574648 
L 297.054452 371.498086 
L 292.488827 371.498086 
L 292.488827 370.634023 
z
M 295.551327 368.412148 
L 296.523202 368.412148 
L 296.523202 372.591836 
L 295.551327 372.591836 
L 295.551327 368.412148 
z
M 300.302304 372.660586 
Q 299.305429 372.660586 298.789804 372.129336 
Q 298.275741 371.596523 298.275741 370.643398 
L 298.275741 367.416835 
Q 298.275741 366.459023 298.792929 365.929336 
Q 299.310116 365.399648 300.302304 365.399648 
Q 301.297616 365.399648 301.813241 365.927773 
Q 302.328866 366.454336 302.328866 367.416835 
L 302.328866 370.643398 
Q 302.328866 371.601211 301.810116 372.130898 
Q 301.292929 372.660586 300.302304 372.660586 
z
M 300.302304 371.71371 
Q 300.828866 371.71371 301.080429 371.437148 
Q 301.331991 371.160586 301.331991 370.643398 
L 301.331991 367.416835 
Q 301.331991 366.898086 301.081991 366.623086 
Q 300.833554 366.346523 300.302304 366.346523 
Q 299.769491 366.346523 299.519491 366.623086 
Q 299.271054 366.898086 299.271054 367.416835 
L 299.271054 370.643398 
Q 299.271054 371.160586 299.522616 371.437148 
Q 299.774179 371.71371 300.302304 371.71371 
z
M 305.819882 372.660586 
Q 304.823007 372.660586 304.307382 372.129336 
Q 303.793319 371.596523 303.793319 370.643398 
L 303.793319 367.416835 
Q 303.793319 366.459023 304.310507 365.929336 
Q 304.827694 365.399648 305.819882 365.399648 
Q 306.815194 365.399648 307.330819 365.927773 
Q 307.846444 366.454336 307.846444 367.416835 
L 307.846444 370.643398 
Q 307.846444 371.601211 307.327694 372.130898 
Q 306.810507 372.660586 305.819882 372.660586 
z
M 305.819882 371.71371 
Q 306.346444 371.71371 306.598007 371.437148 
Q 306.849569 371.160586 306.849569 370.643398 
L 306.849569 367.416835 
Q 306.849569 366.898086 306.599569 366.623086 
Q 306.351132 366.346523 305.819882 366.346523 
Q 305.287069 366.346523 305.037069 366.623086 
Q 304.788632 366.898086 304.788632 367.416835 
L 304.788632 370.643398 
Q 304.788632 371.160586 305.040194 371.437148 
Q 305.291757 371.71371 305.819882 371.71371 
z
M 312.899569 374.115273 
Q 312.030819 373.173086 311.598007 372.004336 
Q 311.166757 370.834023 311.166757 369.423086 
Q 311.166757 368.012148 311.598007 366.843398 
Q 312.030819 365.673086 312.899569 364.730898 
L 313.582382 365.351211 
Q 312.846444 366.171523 312.479257 367.187148 
Q 312.113632 368.202773 312.113632 369.423086 
Q 312.113632 370.643398 312.479257 371.659023 
Q 312.846444 372.674648 313.582382 373.499648 
L 312.899569 374.115273 
z
M 316.493124 372.660586 
Q 315.849374 372.660586 315.360312 372.416835 
Q 314.872812 372.171523 314.605624 371.724648 
Q 314.339999 371.277773 314.339999 370.687148 
L 314.339999 370.569961 
Q 314.339999 370.038711 314.605624 369.569961 
Q 314.872812 369.101211 315.316562 368.862148 
Q 314.939999 368.655898 314.713437 368.268398 
Q 314.486874 367.879336 314.486874 367.449648 
L 314.486874 367.279336 
Q 314.486874 366.723086 314.735312 366.301211 
Q 314.983749 365.877773 315.438437 365.646523 
Q 315.893124 365.413711 316.493124 365.413711 
Q 317.093124 365.413711 317.547812 365.646523 
Q 318.002499 365.877773 318.250937 366.301211 
Q 318.499374 366.723086 318.499374 367.279336 
L 318.499374 367.449648 
Q 318.499374 367.890273 318.268124 368.27621 
Q 318.036874 368.660586 317.655624 368.862148 
Q 318.104062 369.105898 318.374374 369.573085 
Q 318.646249 370.038711 318.646249 370.569961 
L 318.646249 370.687148 
Q 318.646249 371.277773 318.380624 371.724648 
Q 318.114999 372.171523 317.625937 372.416835 
Q 317.138437 372.660586 316.493124 372.660586 
z
M 316.493124 371.702773 
Q 316.839999 371.702773 317.102499 371.566836 
Q 317.366562 371.429336 317.510312 371.184023 
Q 317.655624 370.937148 317.655624 370.613711 
L 317.655624 370.546523 
Q 317.655624 370.218398 317.510312 369.973086 
Q 317.366562 369.726211 317.102499 369.590273 
Q 316.839999 369.452773 316.493124 369.452773 
Q 316.146249 369.452773 315.882187 369.590273 
Q 315.619687 369.726211 315.474374 369.974648 
Q 315.330624 370.223086 315.330624 370.551211 
L 315.330624 370.624648 
Q 315.330624 370.946523 315.474374 371.190273 
Q 315.619687 371.434023 315.882187 371.568398 
Q 316.146249 371.702773 316.493124 371.702773 
z
M 316.493124 368.49496 
Q 316.791562 368.49496 317.019687 368.366836 
Q 317.249374 368.237148 317.375937 367.998086 
Q 317.504062 367.757461 317.504062 367.444961 
L 317.504062 367.377773 
Q 317.504062 367.079336 317.375937 366.849648 
Q 317.249374 366.61996 317.019687 366.496523 
Q 316.791562 366.371523 316.493124 366.371523 
Q 316.194687 366.371523 315.964999 366.496523 
Q 315.736874 366.61996 315.608749 366.849648 
Q 315.482187 367.079336 315.482187 367.382461 
L 315.482187 367.455898 
Q 315.482187 367.762148 315.608749 367.999648 
Q 315.736874 368.237148 315.964999 368.366836 
Q 316.194687 368.49496 316.493124 368.49496 
z
M 322.021249 372.660586 
Q 321.483749 372.660586 321.064999 372.451211 
Q 320.647812 372.240273 320.386874 371.840273 
Q 320.125937 371.440273 320.038437 370.877773 
L 320.038437 370.873086 
L 321.033749 370.873086 
L 321.033749 370.877773 
Q 321.088437 371.268398 321.346249 371.485586 
Q 321.605624 371.702773 322.021249 371.702773 
Q 322.499374 371.702773 322.760312 371.384023 
Q 323.021249 371.063711 323.021249 370.482461 
L 323.021249 369.887148 
Q 323.021249 369.310586 322.760312 368.991836 
Q 322.499374 368.671523 322.021249 368.671523 
Q 321.761874 368.671523 321.522812 368.818398 
Q 321.283749 368.96371 321.102499 369.227773 
L 320.194687 369.227773 
L 320.194687 365.487148 
L 323.811874 365.487148 
L 323.811874 366.434023 
L 321.189999 366.434023 
L 321.189999 368.030898 
Q 321.375937 367.879336 321.605624 367.796523 
Q 321.835312 367.71371 322.074374 367.71371 
Q 322.689999 367.71371 323.125937 367.968398 
Q 323.563437 368.221523 323.789999 368.710586 
Q 324.018124 369.198085 324.018124 369.887148 
L 324.018124 370.482461 
Q 324.018124 371.171523 323.783749 371.660586 
Q 323.549374 372.148086 323.099374 372.404336 
Q 322.650937 372.660586 322.021249 372.660586 
z
M 327.31871 372.660586 
Q 326.723398 372.660586 326.26871 372.443398 
Q 325.814023 372.226211 325.53746 371.813711 
Q 325.26246 371.40121 325.189023 370.819961 
L 325.189023 370.819961 
L 326.204648 370.819961 
L 326.204648 370.819961 
Q 326.248398 371.121523 326.395273 371.316836 
Q 326.542148 371.512148 326.773398 371.607461 
Q 327.00621 371.702773 327.31871 371.702773 
Q 327.810898 371.702773 328.084335 371.440273 
Q 328.357773 371.176211 328.357773 370.698085 
L 328.357773 370.482461 
Q 328.357773 369.949648 328.098398 369.660586 
Q 327.840585 369.36996 327.367148 369.36996 
L 326.864023 369.36996 
L 326.864023 368.421523 
L 327.367148 368.421523 
Q 327.782773 368.421523 328.010898 368.173086 
Q 328.240585 367.924648 328.240585 367.469961 
L 328.240585 367.249648 
Q 328.240585 366.830898 327.998398 366.601211 
Q 327.757773 366.371523 327.314023 366.371523 
Q 327.059335 366.371523 326.859335 366.466836 
Q 326.659335 366.562148 326.520273 366.760585 
Q 326.38121 366.957461 326.317148 367.254336 
L 326.317148 367.254336 
L 325.30621 367.254336 
L 325.30621 367.254336 
Q 325.404648 366.674648 325.67496 366.259023 
Q 325.946835 365.843398 326.360898 365.629336 
Q 326.776523 365.413711 327.314023 365.413711 
Q 328.23121 365.413711 328.734335 365.898086 
Q 329.23746 366.380898 329.23746 367.260585 
L 329.23746 367.377773 
Q 329.23746 367.909023 328.948398 368.304336 
Q 328.660898 368.699648 328.134335 368.880898 
Q 328.715585 369.007461 329.034335 369.452773 
Q 329.354648 369.896523 329.354648 370.585586 
L 329.354648 370.702773 
Q 329.354648 371.323085 329.115585 371.762148 
Q 328.876523 372.201211 328.41871 372.430898 
Q 327.96246 372.660586 327.31871 372.660586 
z
M 332.606796 372.660586 
Q 332.011484 372.660586 331.556796 372.443398 
Q 331.102109 372.226211 330.825546 371.813711 
Q 330.550546 371.40121 330.477109 370.819961 
L 330.477109 370.819961 
L 331.492734 370.819961 
L 331.492734 370.819961 
Q 331.536484 371.121523 331.683359 371.316836 
Q 331.830234 371.512148 332.061484 371.607461 
Q 332.294296 371.702773 332.606796 371.702773 
Q 333.098984 371.702773 333.372421 371.440273 
Q 333.645859 371.176211 333.645859 370.698085 
L 333.645859 370.482461 
Q 333.645859 369.949648 333.386484 369.660586 
Q 333.128671 369.36996 332.655234 369.36996 
L 332.152109 369.36996 
L 332.152109 368.421523 
L 332.655234 368.421523 
Q 333.070859 368.421523 333.298984 368.173086 
Q 333.528671 367.924648 333.528671 367.469961 
L 333.528671 367.249648 
Q 333.528671 366.830898 333.286484 366.601211 
Q 333.045859 366.371523 332.602109 366.371523 
Q 332.347421 366.371523 332.147421 366.466836 
Q 331.947421 366.562148 331.808359 366.760585 
Q 331.669296 366.957461 331.605234 367.254336 
L 331.605234 367.254336 
L 330.594296 367.254336 
L 330.594296 367.254336 
Q 330.692734 366.674648 330.963046 366.259023 
Q 331.234921 365.843398 331.648984 365.629336 
Q 332.064609 365.413711 332.602109 365.413711 
Q 333.519296 365.413711 334.022421 365.898086 
Q 334.525546 366.380898 334.525546 367.260585 
L 334.525546 367.377773 
Q 334.525546 367.909023 334.236484 368.304336 
Q 333.948984 368.699648 333.422421 368.880898 
Q 334.003671 369.007461 334.322421 369.452773 
Q 334.642734 369.896523 334.642734 370.585586 
L 334.642734 370.702773 
Q 334.642734 371.323085 334.403671 371.762148 
Q 334.164609 372.201211 333.706796 372.430898 
Q 333.250546 372.660586 332.606796 372.660586 
z
M 335.424569 373.499648 
Q 336.160507 372.674648 336.526132 371.659023 
Q 336.893319 370.643398 336.893319 369.423086 
Q 336.893319 368.202773 336.526132 367.187148 
Q 336.160507 366.171523 335.424569 365.351211 
L 336.107382 364.730898 
Q 336.976132 365.673086 337.407382 366.843398 
Q 337.840194 368.012148 337.840194 369.423086 
Q 337.840194 370.834023 337.407382 372.004336 
Q 336.976132 373.173086 336.107382 374.115273 
L 335.424569 373.499648 
z
" style="fill: #ffffff"/>
   </g>
   <g id="text_3">
    <path d="M 255.33506 405.278493 
L 256.94131 405.278493 
Q 257.727247 405.278493 258.158497 404.870681 
Q 258.59131 404.462868 258.59131 403.720681 
L 258.59131 401.630056 
Q 258.59131 400.887868 258.158497 400.480056 
Q 257.727247 400.072243 256.94131 400.072243 
L 255.33506 400.072243 
L 255.33506 399.125368 
L 256.911622 399.125368 
Q 257.76631 399.125368 258.370997 399.423806 
Q 258.977247 399.720681 259.294435 400.292556 
Q 259.611622 400.864431 259.611622 401.669118 
L 259.611622 403.681618 
Q 259.611622 404.486306 259.294435 405.058181 
Q 258.977247 405.630056 258.369435 405.928493 
Q 257.761622 406.225368 256.906935 406.225368 
L 255.33506 406.225368 
L 255.33506 405.278493 
z
M 254.661622 399.125368 
L 255.656935 399.125368 
L 255.656935 406.225368 
L 254.661622 406.225368 
L 254.661622 399.125368 
z
M 263.59131 402.700368 
L 263.586622 402.875368 
Q 263.464747 403.100368 263.217872 403.205056 
Q 262.970997 403.309743 262.63506 403.309743 
Q 262.127247 403.309743 261.74131 403.051931 
Q 261.355372 402.792556 261.142872 402.322243 
Q 260.930372 401.850368 260.930372 401.230056 
L 260.930372 401.225368 
Q 260.930372 400.536306 261.161622 400.048806 
Q 261.394435 399.559743 261.84131 399.306618 
Q 262.288185 399.051931 262.913185 399.051931 
Q 263.538185 399.051931 263.981935 399.311306 
Q 264.427247 399.570681 264.658497 400.064431 
Q 264.889747 400.556618 264.889747 401.250368 
L 264.889747 401.255056 
Q 264.889747 401.634743 264.79131 402.067556 
Q 264.694435 402.500368 264.514747 402.923806 
Q 264.48506 402.987868 264.455372 403.053493 
Q 264.427247 403.119118 264.392872 403.183181 
L 262.87881 406.225368 
L 261.80381 406.225368 
L 263.59131 402.700368 
z
M 262.913185 402.401931 
Q 263.381935 402.401931 263.638185 402.084743 
Q 263.894435 401.767556 263.894435 401.190993 
L 263.894435 401.186306 
Q 263.894435 400.625368 263.638185 400.317556 
Q 263.381935 400.009743 262.913185 400.009743 
Q 262.439747 400.009743 262.183497 400.317556 
Q 261.927247 400.625368 261.927247 401.190993 
L 261.927247 401.195681 
Q 261.927247 401.772243 262.183497 402.087868 
Q 262.439747 402.401931 262.913185 402.401931 
z
M 266.110645 404.272243 
L 268.493458 399.130056 
L 269.52002 399.130056 
L 267.19502 404.212868 
L 270.67627 404.212868 
L 270.67627 405.136306 
L 266.110645 405.136306 
L 266.110645 404.272243 
z
M 269.173145 402.050368 
L 270.14502 402.050368 
L 270.14502 406.230056 
L 269.173145 406.230056 
L 269.173145 402.050368 
z
M 273.924122 406.298806 
Q 272.927247 406.298806 272.411622 405.767556 
Q 271.89756 405.234743 271.89756 404.281618 
L 271.89756 401.055056 
Q 271.89756 400.097243 272.414747 399.567556 
Q 272.931935 399.037868 273.924122 399.037868 
Q 274.919435 399.037868 275.43506 399.565993 
Q 275.950685 400.092556 275.950685 401.055056 
L 275.950685 404.281618 
Q 275.950685 405.239431 275.431935 405.769118 
Q 274.914747 406.298806 273.924122 406.298806 
z
M 273.924122 405.351931 
Q 274.450685 405.351931 274.702247 405.075368 
Q 274.95381 404.798806 274.95381 404.281618 
L 274.95381 401.055056 
Q 274.95381 400.536306 274.70381 400.261306 
Q 274.455372 399.984743 273.924122 399.984743 
Q 273.39131 399.984743 273.14131 400.261306 
Q 272.892872 400.536306 272.892872 401.055056 
L 272.892872 404.281618 
Q 272.892872 404.798806 273.144435 405.075368 
Q 273.395997 405.351931 273.924122 405.351931 
z
M 279.4417 406.298806 
Q 278.444825 406.298806 277.9292 405.767556 
Q 277.415138 405.234743 277.415138 404.281618 
L 277.415138 401.055056 
Q 277.415138 400.097243 277.932325 399.567556 
Q 278.449513 399.037868 279.4417 399.037868 
Q 280.437013 399.037868 280.952638 399.565993 
Q 281.468263 400.092556 281.468263 401.055056 
L 281.468263 404.281618 
Q 281.468263 405.239431 280.949513 405.769118 
Q 280.432325 406.298806 279.4417 406.298806 
z
M 279.4417 405.351931 
Q 279.968263 405.351931 280.219825 405.075368 
Q 280.471388 404.798806 280.471388 404.281618 
L 280.471388 401.055056 
Q 280.471388 400.536306 280.221388 400.261306 
Q 279.97295 399.984743 279.4417 399.984743 
Q 278.908888 399.984743 278.658888 400.261306 
Q 278.41045 400.536306 278.41045 401.055056 
L 278.41045 404.281618 
Q 278.41045 404.798806 278.662013 405.075368 
Q 278.913575 405.351931 279.4417 405.351931 
z
M 286.521388 407.753493 
Q 285.652638 406.811306 285.219825 405.642556 
Q 284.788575 404.472243 284.788575 403.061306 
Q 284.788575 401.650368 285.219825 400.481618 
Q 285.652638 399.311306 286.521388 398.369118 
L 287.2042 398.989431 
Q 286.468263 399.809743 286.101075 400.825368 
Q 285.73545 401.840993 285.73545 403.061306 
Q 285.73545 404.281618 286.101075 405.297243 
Q 286.468263 406.312868 287.2042 407.137868 
L 286.521388 407.753493 
z
M 290.114942 406.298806 
Q 289.471192 406.298806 288.98213 406.055056 
Q 288.49463 405.809743 288.227442 405.362868 
Q 287.961817 404.915993 287.961817 404.325368 
L 287.961817 404.208181 
Q 287.961817 403.676931 288.227442 403.208181 
Q 288.49463 402.739431 288.93838 402.500368 
Q 288.561817 402.294118 288.335255 401.906618 
Q 288.108692 401.517556 288.108692 401.087868 
L 288.108692 400.917556 
Q 288.108692 400.361306 288.35713 399.939431 
Q 288.605567 399.515993 289.060255 399.284743 
Q 289.514942 399.051931 290.114942 399.051931 
Q 290.714942 399.051931 291.16963 399.284743 
Q 291.624317 399.515993 291.872755 399.939431 
Q 292.121192 400.361306 292.121192 400.917556 
L 292.121192 401.087868 
Q 292.121192 401.528493 291.889942 401.914431 
Q 291.658692 402.298806 291.277442 402.500368 
Q 291.72588 402.744118 291.996192 403.211306 
Q 292.268067 403.676931 292.268067 404.208181 
L 292.268067 404.325368 
Q 292.268067 404.915993 292.002442 405.362868 
Q 291.736817 405.809743 291.247755 406.055056 
Q 290.760255 406.298806 290.114942 406.298806 
z
M 290.114942 405.340993 
Q 290.461817 405.340993 290.724317 405.205056 
Q 290.98838 405.067556 291.13213 404.822243 
Q 291.277442 404.575368 291.277442 404.251931 
L 291.277442 404.184743 
Q 291.277442 403.856618 291.13213 403.611306 
Q 290.98838 403.364431 290.724317 403.228493 
Q 290.461817 403.090993 290.114942 403.090993 
Q 289.768067 403.090993 289.504005 403.228493 
Q 289.241505 403.364431 289.096192 403.612868 
Q 288.952442 403.861306 288.952442 404.189431 
L 288.952442 404.262868 
Q 288.952442 404.584743 289.096192 404.828493 
Q 289.241505 405.072243 289.504005 405.206618 
Q 289.768067 405.340993 290.114942 405.340993 
z
M 290.114942 402.133181 
Q 290.41338 402.133181 290.641505 402.005056 
Q 290.871192 401.875368 290.997755 401.636306 
Q 291.12588 401.395681 291.12588 401.083181 
L 291.12588 401.015993 
Q 291.12588 400.717556 290.997755 400.487868 
Q 290.871192 400.258181 290.641505 400.134743 
Q 290.41338 400.009743 290.114942 400.009743 
Q 289.816505 400.009743 289.586817 400.134743 
Q 289.358692 400.258181 289.230567 400.487868 
Q 289.104005 400.717556 289.104005 401.020681 
L 289.104005 401.094118 
Q 289.104005 401.400368 289.230567 401.637868 
Q 289.358692 401.875368 289.586817 402.005056 
Q 289.816505 402.133181 290.114942 402.133181 
z
M 295.643067 406.298806 
Q 295.105567 406.298806 294.686817 406.089431 
Q 294.26963 405.878493 294.008692 405.478493 
Q 293.747755 405.078493 293.660255 404.515993 
L 293.660255 404.511306 
L 294.655567 404.511306 
L 294.655567 404.515993 
Q 294.710255 404.906618 294.968067 405.123806 
Q 295.227442 405.340993 295.643067 405.340993 
Q 296.121192 405.340993 296.38213 405.022243 
Q 296.643067 404.701931 296.643067 404.120681 
L 296.643067 403.525368 
Q 296.643067 402.948806 296.38213 402.630056 
Q 296.121192 402.309743 295.643067 402.309743 
Q 295.383692 402.309743 295.14463 402.456618 
Q 294.905567 402.601931 294.724317 402.865993 
L 293.816505 402.865993 
L 293.816505 399.125368 
L 297.433692 399.125368 
L 297.433692 400.072243 
L 294.811817 400.072243 
L 294.811817 401.669118 
Q 294.997755 401.517556 295.227442 401.434743 
Q 295.45713 401.351931 295.696192 401.351931 
Q 296.311817 401.351931 296.747755 401.606618 
Q 297.185255 401.859743 297.411817 402.348806 
Q 297.639942 402.836306 297.639942 403.525368 
L 297.639942 404.120681 
Q 297.639942 404.809743 297.405567 405.298806 
Q 297.171192 405.786306 296.721192 406.042556 
Q 296.272755 406.298806 295.643067 406.298806 
z
M 300.940528 406.298806 
Q 300.345216 406.298806 299.890528 406.081618 
Q 299.435841 405.864431 299.159278 405.451931 
Q 298.884278 405.039431 298.810841 404.458181 
L 298.810841 404.458181 
L 299.826466 404.458181 
L 299.826466 404.458181 
Q 299.870216 404.759743 300.017091 404.955056 
Q 300.163966 405.150368 300.395216 405.245681 
Q 300.628028 405.340993 300.940528 405.340993 
Q 301.432716 405.340993 301.706153 405.078493 
Q 301.979591 404.814431 301.979591 404.336306 
L 301.979591 404.120681 
Q 301.979591 403.587868 301.720216 403.298806 
Q 301.462403 403.008181 300.988966 403.008181 
L 300.485841 403.008181 
L 300.485841 402.059743 
L 300.988966 402.059743 
Q 301.404591 402.059743 301.632716 401.811306 
Q 301.862403 401.562868 301.862403 401.108181 
L 301.862403 400.887868 
Q 301.862403 400.469118 301.620216 400.239431 
Q 301.379591 400.009743 300.935841 400.009743 
Q 300.681153 400.009743 300.481153 400.105056 
Q 300.281153 400.200368 300.142091 400.398806 
Q 300.003028 400.595681 299.938966 400.892556 
L 299.938966 400.892556 
L 298.928028 400.892556 
L 298.928028 400.892556 
Q 299.026466 400.312868 299.296778 399.897243 
Q 299.568653 399.481618 299.982716 399.267556 
Q 300.398341 399.051931 300.935841 399.051931 
Q 301.853028 399.051931 302.356153 399.536306 
Q 302.859278 400.019118 302.859278 400.898806 
L 302.859278 401.015993 
Q 302.859278 401.547243 302.570216 401.942556 
Q 302.282716 402.337868 301.756153 402.519118 
Q 302.337403 402.645681 302.656153 403.090993 
Q 302.976466 403.534743 302.976466 404.223806 
L 302.976466 404.340993 
Q 302.976466 404.961306 302.737403 405.400368 
Q 302.498341 405.839431 302.040528 406.069118 
Q 301.584278 406.298806 300.940528 406.298806 
z
M 306.228614 406.298806 
Q 305.633302 406.298806 305.178614 406.081618 
Q 304.723927 405.864431 304.447364 405.451931 
Q 304.172364 405.039431 304.098927 404.458181 
L 304.098927 404.458181 
L 305.114552 404.458181 
L 305.114552 404.458181 
Q 305.158302 404.759743 305.305177 404.955056 
Q 305.452052 405.150368 305.683302 405.245681 
Q 305.916114 405.340993 306.228614 405.340993 
Q 306.720802 405.340993 306.994239 405.078493 
Q 307.267677 404.814431 307.267677 404.336306 
L 307.267677 404.120681 
Q 307.267677 403.587868 307.008302 403.298806 
Q 306.750489 403.008181 306.277052 403.008181 
L 305.773927 403.008181 
L 305.773927 402.059743 
L 306.277052 402.059743 
Q 306.692677 402.059743 306.920802 401.811306 
Q 307.150489 401.562868 307.150489 401.108181 
L 307.150489 400.887868 
Q 307.150489 400.469118 306.908302 400.239431 
Q 306.667677 400.009743 306.223927 400.009743 
Q 305.969239 400.009743 305.769239 400.105056 
Q 305.569239 400.200368 305.430177 400.398806 
Q 305.291114 400.595681 305.227052 400.892556 
L 305.227052 400.892556 
L 304.216114 400.892556 
L 304.216114 400.892556 
Q 304.314552 400.312868 304.584864 399.897243 
Q 304.856739 399.481618 305.270802 399.267556 
Q 305.686427 399.051931 306.223927 399.051931 
Q 307.141114 399.051931 307.644239 399.536306 
Q 308.147364 400.019118 308.147364 400.898806 
L 308.147364 401.015993 
Q 308.147364 401.547243 307.858302 401.942556 
Q 307.570802 402.337868 307.044239 402.519118 
Q 307.625489 402.645681 307.944239 403.090993 
Q 308.264552 403.534743 308.264552 404.223806 
L 308.264552 404.340993 
Q 308.264552 404.961306 308.025489 405.400368 
Q 307.786427 405.839431 307.328614 406.069118 
Q 306.872364 406.298806 306.228614 406.298806 
z
M 309.046388 407.137868 
Q 309.782325 406.312868 310.14795 405.297243 
Q 310.515138 404.281618 310.515138 403.061306 
Q 310.515138 401.840993 310.14795 400.825368 
Q 309.782325 399.809743 309.046388 398.989431 
L 309.7292 398.369118 
Q 310.59795 399.311306 311.0292 400.481618 
Q 311.462013 401.650368 311.462013 403.061306 
Q 311.462013 404.472243 311.0292 405.642556 
Q 310.59795 406.811306 309.7292 407.753493 
L 309.046388 407.137868 
z
" style="fill: #ffffff; stroke: #000000"/>
    <path d="M 255.33506 405.278493 
L 256.94131 405.278493 
Q 257.727247 405.278493 258.158497 404.870681 
Q 258.59131 404.462868 258.59131 403.720681 
L 258.59131 401.630056 
Q 258.59131 400.887868 258.158497 400.480056 
Q 257.727247 400.072243 256.94131 400.072243 
L 255.33506 400.072243 
L 255.33506 399.125368 
L 256.911622 399.125368 
Q 257.76631 399.125368 258.370997 399.423806 
Q 258.977247 399.720681 259.294435 400.292556 
Q 259.611622 400.864431 259.611622 401.669118 
L 259.611622 403.681618 
Q 259.611622 404.486306 259.294435 405.058181 
Q 258.977247 405.630056 258.369435 405.928493 
Q 257.761622 406.225368 256.906935 406.225368 
L 255.33506 406.225368 
L 255.33506 405.278493 
z
M 254.661622 399.125368 
L 255.656935 399.125368 
L 255.656935 406.225368 
L 254.661622 406.225368 
L 254.661622 399.125368 
z
M 263.59131 402.700368 
L 263.586622 402.875368 
Q 263.464747 403.100368 263.217872 403.205056 
Q 262.970997 403.309743 262.63506 403.309743 
Q 262.127247 403.309743 261.74131 403.051931 
Q 261.355372 402.792556 261.142872 402.322243 
Q 260.930372 401.850368 260.930372 401.230056 
L 260.930372 401.225368 
Q 260.930372 400.536306 261.161622 400.048806 
Q 261.394435 399.559743 261.84131 399.306618 
Q 262.288185 399.051931 262.913185 399.051931 
Q 263.538185 399.051931 263.981935 399.311306 
Q 264.427247 399.570681 264.658497 400.064431 
Q 264.889747 400.556618 264.889747 401.250368 
L 264.889747 401.255056 
Q 264.889747 401.634743 264.79131 402.067556 
Q 264.694435 402.500368 264.514747 402.923806 
Q 264.48506 402.987868 264.455372 403.053493 
Q 264.427247 403.119118 264.392872 403.183181 
L 262.87881 406.225368 
L 261.80381 406.225368 
L 263.59131 402.700368 
z
M 262.913185 402.401931 
Q 263.381935 402.401931 263.638185 402.084743 
Q 263.894435 401.767556 263.894435 401.190993 
L 263.894435 401.186306 
Q 263.894435 400.625368 263.638185 400.317556 
Q 263.381935 400.009743 262.913185 400.009743 
Q 262.439747 400.009743 262.183497 400.317556 
Q 261.927247 400.625368 261.927247 401.190993 
L 261.927247 401.195681 
Q 261.927247 401.772243 262.183497 402.087868 
Q 262.439747 402.401931 262.913185 402.401931 
z
M 266.110645 404.272243 
L 268.493458 399.130056 
L 269.52002 399.130056 
L 267.19502 404.212868 
L 270.67627 404.212868 
L 270.67627 405.136306 
L 266.110645 405.136306 
L 266.110645 404.272243 
z
M 269.173145 402.050368 
L 270.14502 402.050368 
L 270.14502 406.230056 
L 269.173145 406.230056 
L 269.173145 402.050368 
z
M 273.924122 406.298806 
Q 272.927247 406.298806 272.411622 405.767556 
Q 271.89756 405.234743 271.89756 404.281618 
L 271.89756 401.055056 
Q 271.89756 400.097243 272.414747 399.567556 
Q 272.931935 399.037868 273.924122 399.037868 
Q 274.919435 399.037868 275.43506 399.565993 
Q 275.950685 400.092556 275.950685 401.055056 
L 275.950685 404.281618 
Q 275.950685 405.239431 275.431935 405.769118 
Q 274.914747 406.298806 273.924122 406.298806 
z
M 273.924122 405.351931 
Q 274.450685 405.351931 274.702247 405.075368 
Q 274.95381 404.798806 274.95381 404.281618 
L 274.95381 401.055056 
Q 274.95381 400.536306 274.70381 400.261306 
Q 274.455372 399.984743 273.924122 399.984743 
Q 273.39131 399.984743 273.14131 400.261306 
Q 272.892872 400.536306 272.892872 401.055056 
L 272.892872 404.281618 
Q 272.892872 404.798806 273.144435 405.075368 
Q 273.395997 405.351931 273.924122 405.351931 
z
M 279.4417 406.298806 
Q 278.444825 406.298806 277.9292 405.767556 
Q 277.415138 405.234743 277.415138 404.281618 
L 277.415138 401.055056 
Q 277.415138 400.097243 277.932325 399.567556 
Q 278.449513 399.037868 279.4417 399.037868 
Q 280.437013 399.037868 280.952638 399.565993 
Q 281.468263 400.092556 281.468263 401.055056 
L 281.468263 404.281618 
Q 281.468263 405.239431 280.949513 405.769118 
Q 280.432325 406.298806 279.4417 406.298806 
z
M 279.4417 405.351931 
Q 279.968263 405.351931 280.219825 405.075368 
Q 280.471388 404.798806 280.471388 404.281618 
L 280.471388 401.055056 
Q 280.471388 400.536306 280.221388 400.261306 
Q 279.97295 399.984743 279.4417 399.984743 
Q 278.908888 399.984743 278.658888 400.261306 
Q 278.41045 400.536306 278.41045 401.055056 
L 278.41045 404.281618 
Q 278.41045 404.798806 278.662013 405.075368 
Q 278.913575 405.351931 279.4417 405.351931 
z
M 286.521388 407.753493 
Q 285.652638 406.811306 285.219825 405.642556 
Q 284.788575 404.472243 284.788575 403.061306 
Q 284.788575 401.650368 285.219825 400.481618 
Q 285.652638 399.311306 286.521388 398.369118 
L 287.2042 398.989431 
Q 286.468263 399.809743 286.101075 400.825368 
Q 285.73545 401.840993 285.73545 403.061306 
Q 285.73545 404.281618 286.101075 405.297243 
Q 286.468263 406.312868 287.2042 407.137868 
L 286.521388 407.753493 
z
M 290.114942 406.298806 
Q 289.471192 406.298806 288.98213 406.055056 
Q 288.49463 405.809743 288.227442 405.362868 
Q 287.961817 404.915993 287.961817 404.325368 
L 287.961817 404.208181 
Q 287.961817 403.676931 288.227442 403.208181 
Q 288.49463 402.739431 288.93838 402.500368 
Q 288.561817 402.294118 288.335255 401.906618 
Q 288.108692 401.517556 288.108692 401.087868 
L 288.108692 400.917556 
Q 288.108692 400.361306 288.35713 399.939431 
Q 288.605567 399.515993 289.060255 399.284743 
Q 289.514942 399.051931 290.114942 399.051931 
Q 290.714942 399.051931 291.16963 399.284743 
Q 291.624317 399.515993 291.872755 399.939431 
Q 292.121192 400.361306 292.121192 400.917556 
L 292.121192 401.087868 
Q 292.121192 401.528493 291.889942 401.914431 
Q 291.658692 402.298806 291.277442 402.500368 
Q 291.72588 402.744118 291.996192 403.211306 
Q 292.268067 403.676931 292.268067 404.208181 
L 292.268067 404.325368 
Q 292.268067 404.915993 292.002442 405.362868 
Q 291.736817 405.809743 291.247755 406.055056 
Q 290.760255 406.298806 290.114942 406.298806 
z
M 290.114942 405.340993 
Q 290.461817 405.340993 290.724317 405.205056 
Q 290.98838 405.067556 291.13213 404.822243 
Q 291.277442 404.575368 291.277442 404.251931 
L 291.277442 404.184743 
Q 291.277442 403.856618 291.13213 403.611306 
Q 290.98838 403.364431 290.724317 403.228493 
Q 290.461817 403.090993 290.114942 403.090993 
Q 289.768067 403.090993 289.504005 403.228493 
Q 289.241505 403.364431 289.096192 403.612868 
Q 288.952442 403.861306 288.952442 404.189431 
L 288.952442 404.262868 
Q 288.952442 404.584743 289.096192 404.828493 
Q 289.241505 405.072243 289.504005 405.206618 
Q 289.768067 405.340993 290.114942 405.340993 
z
M 290.114942 402.133181 
Q 290.41338 402.133181 290.641505 402.005056 
Q 290.871192 401.875368 290.997755 401.636306 
Q 291.12588 401.395681 291.12588 401.083181 
L 291.12588 401.015993 
Q 291.12588 400.717556 290.997755 400.487868 
Q 290.871192 400.258181 290.641505 400.134743 
Q 290.41338 400.009743 290.114942 400.009743 
Q 289.816505 400.009743 289.586817 400.134743 
Q 289.358692 400.258181 289.230567 400.487868 
Q 289.104005 400.717556 289.104005 401.020681 
L 289.104005 401.094118 
Q 289.104005 401.400368 289.230567 401.637868 
Q 289.358692 401.875368 289.586817 402.005056 
Q 289.816505 402.133181 290.114942 402.133181 
z
M 295.643067 406.298806 
Q 295.105567 406.298806 294.686817 406.089431 
Q 294.26963 405.878493 294.008692 405.478493 
Q 293.747755 405.078493 293.660255 404.515993 
L 293.660255 404.511306 
L 294.655567 404.511306 
L 294.655567 404.515993 
Q 294.710255 404.906618 294.968067 405.123806 
Q 295.227442 405.340993 295.643067 405.340993 
Q 296.121192 405.340993 296.38213 405.022243 
Q 296.643067 404.701931 296.643067 404.120681 
L 296.643067 403.525368 
Q 296.643067 402.948806 296.38213 402.630056 
Q 296.121192 402.309743 295.643067 402.309743 
Q 295.383692 402.309743 295.14463 402.456618 
Q 294.905567 402.601931 294.724317 402.865993 
L 293.816505 402.865993 
L 293.816505 399.125368 
L 297.433692 399.125368 
L 297.433692 400.072243 
L 294.811817 400.072243 
L 294.811817 401.669118 
Q 294.997755 401.517556 295.227442 401.434743 
Q 295.45713 401.351931 295.696192 401.351931 
Q 296.311817 401.351931 296.747755 401.606618 
Q 297.185255 401.859743 297.411817 402.348806 
Q 297.639942 402.836306 297.639942 403.525368 
L 297.639942 404.120681 
Q 297.639942 404.809743 297.405567 405.298806 
Q 297.171192 405.786306 296.721192 406.042556 
Q 296.272755 406.298806 295.643067 406.298806 
z
M 300.940528 406.298806 
Q 300.345216 406.298806 299.890528 406.081618 
Q 299.435841 405.864431 299.159278 405.451931 
Q 298.884278 405.039431 298.810841 404.458181 
L 298.810841 404.458181 
L 299.826466 404.458181 
L 299.826466 404.458181 
Q 299.870216 404.759743 300.017091 404.955056 
Q 300.163966 405.150368 300.395216 405.245681 
Q 300.628028 405.340993 300.940528 405.340993 
Q 301.432716 405.340993 301.706153 405.078493 
Q 301.979591 404.814431 301.979591 404.336306 
L 301.979591 404.120681 
Q 301.979591 403.587868 301.720216 403.298806 
Q 301.462403 403.008181 300.988966 403.008181 
L 300.485841 403.008181 
L 300.485841 402.059743 
L 300.988966 402.059743 
Q 301.404591 402.059743 301.632716 401.811306 
Q 301.862403 401.562868 301.862403 401.108181 
L 301.862403 400.887868 
Q 301.862403 400.469118 301.620216 400.239431 
Q 301.379591 400.009743 300.935841 400.009743 
Q 300.681153 400.009743 300.481153 400.105056 
Q 300.281153 400.200368 300.142091 400.398806 
Q 300.003028 400.595681 299.938966 400.892556 
L 299.938966 400.892556 
L 298.928028 400.892556 
L 298.928028 400.892556 
Q 299.026466 400.312868 299.296778 399.897243 
Q 299.568653 399.481618 299.982716 399.267556 
Q 300.398341 399.051931 300.935841 399.051931 
Q 301.853028 399.051931 302.356153 399.536306 
Q 302.859278 400.019118 302.859278 400.898806 
L 302.859278 401.015993 
Q 302.859278 401.547243 302.570216 401.942556 
Q 302.282716 402.337868 301.756153 402.519118 
Q 302.337403 402.645681 302.656153 403.090993 
Q 302.976466 403.534743 302.976466 404.223806 
L 302.976466 404.340993 
Q 302.976466 404.961306 302.737403 405.400368 
Q 302.498341 405.839431 302.040528 406.069118 
Q 301.584278 406.298806 300.940528 406.298806 
z
M 306.228614 406.298806 
Q 305.633302 406.298806 305.178614 406.081618 
Q 304.723927 405.864431 304.447364 405.451931 
Q 304.172364 405.039431 304.098927 404.458181 
L 304.098927 404.458181 
L 305.114552 404.458181 
L 305.114552 404.458181 
Q 305.158302 404.759743 305.305177 404.955056 
Q 305.452052 405.150368 305.683302 405.245681 
Q 305.916114 405.340993 306.228614 405.340993 
Q 306.720802 405.340993 306.994239 405.078493 
Q 307.267677 404.814431 307.267677 404.336306 
L 307.267677 404.120681 
Q 307.267677 403.587868 307.008302 403.298806 
Q 306.750489 403.008181 306.277052 403.008181 
L 305.773927 403.008181 
L 305.773927 402.059743 
L 306.277052 402.059743 
Q 306.692677 402.059743 306.920802 401.811306 
Q 307.150489 401.562868 307.150489 401.108181 
L 307.150489 400.887868 
Q 307.150489 400.469118 306.908302 400.239431 
Q 306.667677 400.009743 306.223927 400.009743 
Q 305.969239 400.009743 305.769239 400.105056 
Q 305.569239 400.200368 305.430177 400.398806 
Q 305.291114 400.595681 305.227052 400.892556 
L 305.227052 400.892556 
L 304.216114 400.892556 
L 304.216114 400.892556 
Q 304.314552 400.312868 304.584864 399.897243 
Q 304.856739 399.481618 305.270802 399.267556 
Q 305.686427 399.051931 306.223927 399.051931 
Q 307.141114 399.051931 307.644239 399.536306 
Q 308.147364 400.019118 308.147364 400.898806 
L 308.147364 401.015993 
Q 308.147364 401.547243 307.858302 401.942556 
Q 307.570802 402.337868 307.044239 402.519118 
Q 307.625489 402.645681 307.944239 403.090993 
Q 308.264552 403.534743 308.264552 404.223806 
L 308.264552 404.340993 
Q 308.264552 404.961306 308.025489 405.400368 
Q 307.786427 405.839431 307.328614 406.069118 
Q 306.872364 406.298806 306.228614 406.298806 
z
M 309.046388 407.137868 
Q 309.782325 406.312868 310.14795 405.297243 
Q 310.515138 404.281618 310.515138 403.061306 
Q 310.515138 401.840993 310.14795 400.825368 
Q 309.782325 399.809743 309.046388 398.989431 
L 309.7292 398.369118 
Q 310.59795 399.311306 311.0292 400.481618 
Q 311.462013 401.650368 311.462013 403.061306 
Q 311.462013 404.472243 311.0292 405.642556 
Q 310.59795 406.811306 309.7292 407.753493 
L 309.046388 407.137868 
z
" style="fill: #ffffff"/>
   </g>
  </g>
 </g>
 <defs>
  <clipPath id="p2db2236e2e">
   <rect x="144" y="77.76" width="892.8" height="498.96"/>
  </clipPath>
 </defs>
</svg>
