<?xml version="1.0" encoding="utf-8" standalone="no"?>
<!DOCTYPE svg PUBLIC "-//W3C//DTD SVG 1.1//EN"
  "http://www.w3.org/Graphics/SVG/1.1/DTD/svg11.dtd">
<svg xmlns:xlink="http://www.w3.org/1999/xlink" width="1152pt" height="648pt" viewBox="0 0 1152 648" xmlns="http://www.w3.org/2000/svg" version="1.1">
 <metadata>
  <rdf:RDF xmlns:dc="http://purl.org/dc/elements/1.1/" xmlns:cc="http://creativecommons.org/ns#" xmlns:rdf="http://www.w3.org/1999/02/22-rdf-syntax-ns#">
   <cc:Work>
    <dc:type rdf:resource="http://purl.org/dc/dcmitype/StillImage"/>
    <dc:date>2024-11-15T16:34:25.917910</dc:date>
    <dc:format>image/svg+xml</dc:format>
    <dc:creator>
     <cc:Agent>
      <dc:title>Matplotlib v3.9.2, https://matplotlib.org/</dc:title>
     </cc:Agent>
    </dc:creator>
   </cc:Work>
  </rdf:RDF>
 </metadata>
 <defs>
  <style type="text/css">*{stroke-linejoin: round; stroke-linecap: butt}</style>
 </defs>
 <g id="figure_1">
  <g id="patch_1">
   <path d="M 0 648 
L 1152 648 
L 1152 0 
L 0 0 
L 0 648 
z
" style="fill: none"/>
  </g>
  <g id="axes_1">
   <g id="line2d_1">
    <path d="M 247.889455 479.131171 
L 250.894149 477.4983 
L 253.898843 475.884292 
L 256.903537 474.289286 
L 259.908231 472.713406 
L 262.912926 471.156759 
L 265.91762 469.619443 
L 268.922314 468.101539 
L 271.927008 466.603116 
L 274.931702 465.12423 
L 277.936397 463.664925 
L 280.941091 462.22523 
L 283.945785 460.805166 
L 286.950479 459.404738 
L 289.955174 458.023943 
L 292.959868 456.662764 
L 295.964562 455.321175 
L 298.969256 453.999139 
L 301.97395 452.696609 
L 304.978645 451.413527 
L 307.983339 450.149828 
L 310.988033 448.905435 
L 313.992727 447.680264 
L 316.997421 446.474222 
L 320.002116 445.287209 
L 323.00681 444.119114 
L 326.011504 442.969823 
L 329.016198 441.839212 
L 332.020893 440.727151 
L 335.025587 439.633503 
L 338.030281 438.558126 
L 341.034975 437.500872 
L 344.039669 436.461586 
L 347.044364 435.440111 
L 350.049058 434.436282 
L 353.053752 433.449932 
L 356.058446 432.480888 
L 359.06314 431.528973 
L 362.067835 430.594009 
L 365.072529 429.67581 
L 368.077223 428.774192 
L 371.081917 427.888965 
L 374.086612 427.019938 
L 377.091306 426.166915 
L 380.096 425.329701 
L 383.100694 424.508098 
L 386.105388 423.701907 
L 389.110083 422.910926 
L 392.114777 422.134952 
L 395.119471 421.373784 
L 398.124165 420.627217 
L 401.12886 419.895045 
L 404.133554 419.177065 
L 407.138248 418.473071 
L 410.142942 417.782858 
L 413.147636 417.10622 
L 416.152331 416.442952 
L 419.157025 415.79285 
L 422.161719 415.155709 
L 425.166413 414.531326 
L 428.171107 413.919499 
L 431.175802 413.320024 
L 434.180496 412.732703 
L 437.18519 412.157334 
L 440.189884 411.59372 
L 443.194579 411.041663 
L 446.199273 410.500968 
L 449.203967 409.97144 
L 452.208661 409.452886 
L 455.213355 408.945116 
L 458.21805 408.44794 
L 461.222744 407.96117 
L 464.227438 407.48462 
L 467.232132 407.018108 
L 470.236826 406.56145 
L 473.241521 406.114466 
L 476.246215 405.67698 
L 479.250909 405.248814 
L 482.255603 404.829796 
L 485.260298 404.419752 
L 488.264992 404.018515 
L 491.269686 403.625916 
L 494.27438 403.24179 
L 497.279074 402.865975 
L 500.283769 402.498309 
L 503.288463 402.138634 
L 506.293157 401.786795 
L 509.297851 401.442636 
L 512.302545 401.106007 
L 515.30724 400.776757 
L 518.311934 400.454741 
L 521.316628 400.139812 
L 524.321322 399.831828 
L 527.326017 399.53065 
L 530.330711 399.236138 
L 533.335405 398.948157 
L 536.340099 398.666573 
L 539.344793 398.391255 
L 542.349488 398.122074 
L 545.354182 397.858903 
" clip-path="url(#p6bd593bfd9)" style="fill: none; stroke: #ff0000; stroke-width: 3; stroke-linecap: round"/>
   </g>
   <g id="text_1">
    <path d="M 552.907599 396.389846 
L 556.041974 392.405471 
L 557.266974 392.405471 
L 552.760724 397.883596 
L 552.907599 396.389846 
z
M 552.126349 392.405471 
L 553.121662 392.405471 
L 553.121662 399.505471 
L 552.126349 399.505471 
L 552.126349 392.405471 
z
M 554.088849 395.716408 
L 554.874787 394.988283 
L 557.565412 399.505471 
L 556.345099 399.505471 
L 554.088849 395.716408 
z
M 560.909552 395.980471 
L 560.904865 396.155471 
Q 560.78299 396.380471 560.536115 396.485158 
Q 560.28924 396.589846 559.953302 396.589846 
Q 559.44549 396.589846 559.059552 396.332033 
Q 558.673615 396.072658 558.461115 395.602346 
Q 558.248615 395.130471 558.248615 394.510158 
L 558.248615 394.505471 
Q 558.248615 393.816408 558.479865 393.328908 
Q 558.712677 392.839846 559.159552 392.586721 
Q 559.606427 392.332033 560.231427 392.332033 
Q 560.856427 392.332033 561.300177 392.591408 
Q 561.74549 392.850783 561.97674 393.344533 
Q 562.20799 393.836721 562.20799 394.530471 
L 562.20799 394.535158 
Q 562.20799 394.914846 562.109552 395.347658 
Q 562.012677 395.780471 561.83299 396.203908 
Q 561.803302 396.267971 561.773615 396.333596 
Q 561.74549 396.399221 561.711115 396.463283 
L 560.197052 399.505471 
L 559.122052 399.505471 
L 560.909552 395.980471 
z
M 560.231427 395.682033 
Q 560.700177 395.682033 560.956427 395.364846 
Q 561.212677 395.047658 561.212677 394.471096 
L 561.212677 394.466408 
Q 561.212677 393.905471 560.956427 393.597658 
Q 560.700177 393.289846 560.231427 393.289846 
Q 559.75799 393.289846 559.50174 393.597658 
Q 559.24549 393.905471 559.24549 394.471096 
L 559.24549 394.475783 
Q 559.24549 395.052346 559.50174 395.367971 
Q 559.75799 395.682033 560.231427 395.682033 
z
M 565.553888 399.578908 
Q 564.557013 399.578908 564.041388 399.047658 
Q 563.527326 398.514846 563.527326 397.561721 
L 563.527326 394.335158 
Q 563.527326 393.377346 564.044513 392.847658 
Q 564.561701 392.317971 565.553888 392.317971 
Q 566.549201 392.317971 567.064826 392.846096 
Q 567.580451 393.372658 567.580451 394.335158 
L 567.580451 397.561721 
Q 567.580451 398.519533 567.061701 399.049221 
Q 566.544513 399.578908 565.553888 399.578908 
z
M 565.553888 398.632033 
Q 566.080451 398.632033 566.332013 398.355471 
Q 566.583576 398.078908 566.583576 397.561721 
L 566.583576 394.335158 
Q 566.583576 393.816408 566.333576 393.541408 
Q 566.085138 393.264846 565.553888 393.264846 
Q 565.021076 393.264846 564.771076 393.541408 
Q 564.522638 393.816408 564.522638 394.335158 
L 564.522638 397.561721 
Q 564.522638 398.078908 564.774201 398.355471 
Q 565.025763 398.632033 565.553888 398.632033 
z
M 571.071467 399.578908 
Q 570.074592 399.578908 569.558967 399.047658 
Q 569.044904 398.514846 569.044904 397.561721 
L 569.044904 394.335158 
Q 569.044904 393.377346 569.562092 392.847658 
Q 570.079279 392.317971 571.071467 392.317971 
Q 572.066779 392.317971 572.582404 392.846096 
Q 573.098029 393.372658 573.098029 394.335158 
L 573.098029 397.561721 
Q 573.098029 398.519533 572.579279 399.049221 
Q 572.062092 399.578908 571.071467 399.578908 
z
M 571.071467 398.632033 
Q 571.598029 398.632033 571.849592 398.355471 
Q 572.101154 398.078908 572.101154 397.561721 
L 572.101154 394.335158 
Q 572.101154 393.816408 571.851154 393.541408 
Q 571.602717 393.264846 571.071467 393.264846 
Q 570.538654 393.264846 570.288654 393.541408 
Q 570.040217 393.816408 570.040217 394.335158 
L 570.040217 397.561721 
Q 570.040217 398.078908 570.291779 398.355471 
Q 570.543342 398.632033 571.071467 398.632033 
z
M 576.589045 399.578908 
Q 575.59217 399.578908 575.076545 399.047658 
Q 574.562482 398.514846 574.562482 397.561721 
L 574.562482 394.335158 
Q 574.562482 393.377346 575.07967 392.847658 
Q 575.596857 392.317971 576.589045 392.317971 
Q 577.584357 392.317971 578.099982 392.846096 
Q 578.615607 393.372658 578.615607 394.335158 
L 578.615607 397.561721 
Q 578.615607 398.519533 578.096857 399.049221 
Q 577.57967 399.578908 576.589045 399.578908 
z
M 576.589045 398.632033 
Q 577.115607 398.632033 577.36717 398.355471 
Q 577.618732 398.078908 577.618732 397.561721 
L 577.618732 394.335158 
Q 577.618732 393.816408 577.368732 393.541408 
Q 577.120295 393.264846 576.589045 393.264846 
Q 576.056232 393.264846 575.806232 393.541408 
Q 575.557795 393.816408 575.557795 394.335158 
L 575.557795 397.561721 
Q 575.557795 398.078908 575.809357 398.355471 
Q 576.06092 398.632033 576.589045 398.632033 
z
M 582.359748 399.578908 
Q 581.847248 399.578908 581.387873 399.482033 
Q 580.93006 399.383596 580.531623 399.188283 
Q 580.133185 398.992971 579.78631 398.699221 
L 579.78631 398.699221 
L 580.406623 397.938283 
L 580.406623 397.938283 
Q 580.812873 398.289846 581.300373 398.466408 
Q 581.789435 398.641408 582.359748 398.641408 
Q 583.131623 398.641408 583.556623 398.355471 
Q 583.981623 398.069533 583.981623 397.547658 
L 583.981623 397.542971 
Q 583.981623 397.171096 583.787873 396.953908 
Q 583.595685 396.736721 583.289435 396.632033 
Q 582.984748 396.527346 582.501935 396.438283 
Q 582.48631 396.433596 582.469123 396.433596 
Q 582.453498 396.433596 582.437873 396.428908 
L 582.364435 396.414846 
Q 581.651935 396.292971 581.20506 396.139846 
Q 580.758185 395.985158 580.440998 395.577346 
Q 580.12381 395.169533 580.12381 394.417971 
L 580.12381 394.413283 
Q 580.12381 393.753908 580.419123 393.288283 
Q 580.714435 392.821096 581.28006 392.577346 
Q 581.847248 392.332033 582.64256 392.332033 
Q 583.02381 392.332033 583.39256 392.416408 
Q 583.76131 392.499221 584.119123 392.663283 
Q 584.478498 392.825783 584.825373 393.074221 
L 584.825373 393.074221 
L 584.259748 393.866408 
L 584.259748 393.866408 
Q 583.853498 393.567971 583.450373 393.419533 
Q 583.04881 393.269533 582.64256 393.269533 
Q 581.915998 393.269533 581.512873 393.560158 
Q 581.109748 393.850783 581.109748 394.383596 
L 581.109748 394.388283 
Q 581.109748 394.753908 581.31756 394.964846 
Q 581.525373 395.174221 581.834748 395.274221 
Q 582.145685 395.374221 582.697248 395.482033 
Q 582.715998 395.486721 582.733185 395.489846 
Q 582.750373 395.491408 582.770685 395.496096 
Q 582.794123 395.500783 582.82381 395.507033 
Q 582.853498 395.511721 582.876935 395.516408 
Q 583.522248 395.647658 583.953498 395.828908 
Q 584.38631 396.008596 584.676935 396.411721 
Q 584.96756 396.814846 584.96756 397.513283 
L 584.96756 397.522658 
Q 584.96756 398.172658 584.659748 398.633596 
Q 584.351935 399.094533 583.76756 399.336721 
Q 583.184748 399.578908 582.359748 399.578908 
z
" style="fill: #ffffff; stroke: #000000"/>
    <path d="M 552.907599 396.389846 
L 556.041974 392.405471 
L 557.266974 392.405471 
L 552.760724 397.883596 
L 552.907599 396.389846 
z
M 552.126349 392.405471 
L 553.121662 392.405471 
L 553.121662 399.505471 
L 552.126349 399.505471 
L 552.126349 392.405471 
z
M 554.088849 395.716408 
L 554.874787 394.988283 
L 557.565412 399.505471 
L 556.345099 399.505471 
L 554.088849 395.716408 
z
M 560.909552 395.980471 
L 560.904865 396.155471 
Q 560.78299 396.380471 560.536115 396.485158 
Q 560.28924 396.589846 559.953302 396.589846 
Q 559.44549 396.589846 559.059552 396.332033 
Q 558.673615 396.072658 558.461115 395.602346 
Q 558.248615 395.130471 558.248615 394.510158 
L 558.248615 394.505471 
Q 558.248615 393.816408 558.479865 393.328908 
Q 558.712677 392.839846 559.159552 392.586721 
Q 559.606427 392.332033 560.231427 392.332033 
Q 560.856427 392.332033 561.300177 392.591408 
Q 561.74549 392.850783 561.97674 393.344533 
Q 562.20799 393.836721 562.20799 394.530471 
L 562.20799 394.535158 
Q 562.20799 394.914846 562.109552 395.347658 
Q 562.012677 395.780471 561.83299 396.203908 
Q 561.803302 396.267971 561.773615 396.333596 
Q 561.74549 396.399221 561.711115 396.463283 
L 560.197052 399.505471 
L 559.122052 399.505471 
L 560.909552 395.980471 
z
M 560.231427 395.682033 
Q 560.700177 395.682033 560.956427 395.364846 
Q 561.212677 395.047658 561.212677 394.471096 
L 561.212677 394.466408 
Q 561.212677 393.905471 560.956427 393.597658 
Q 560.700177 393.289846 560.231427 393.289846 
Q 559.75799 393.289846 559.50174 393.597658 
Q 559.24549 393.905471 559.24549 394.471096 
L 559.24549 394.475783 
Q 559.24549 395.052346 559.50174 395.367971 
Q 559.75799 395.682033 560.231427 395.682033 
z
M 565.553888 399.578908 
Q 564.557013 399.578908 564.041388 399.047658 
Q 563.527326 398.514846 563.527326 397.561721 
L 563.527326 394.335158 
Q 563.527326 393.377346 564.044513 392.847658 
Q 564.561701 392.317971 565.553888 392.317971 
Q 566.549201 392.317971 567.064826 392.846096 
Q 567.580451 393.372658 567.580451 394.335158 
L 567.580451 397.561721 
Q 567.580451 398.519533 567.061701 399.049221 
Q 566.544513 399.578908 565.553888 399.578908 
z
M 565.553888 398.632033 
Q 566.080451 398.632033 566.332013 398.355471 
Q 566.583576 398.078908 566.583576 397.561721 
L 566.583576 394.335158 
Q 566.583576 393.816408 566.333576 393.541408 
Q 566.085138 393.264846 565.553888 393.264846 
Q 565.021076 393.264846 564.771076 393.541408 
Q 564.522638 393.816408 564.522638 394.335158 
L 564.522638 397.561721 
Q 564.522638 398.078908 564.774201 398.355471 
Q 565.025763 398.632033 565.553888 398.632033 
z
M 571.071467 399.578908 
Q 570.074592 399.578908 569.558967 399.047658 
Q 569.044904 398.514846 569.044904 397.561721 
L 569.044904 394.335158 
Q 569.044904 393.377346 569.562092 392.847658 
Q 570.079279 392.317971 571.071467 392.317971 
Q 572.066779 392.317971 572.582404 392.846096 
Q 573.098029 393.372658 573.098029 394.335158 
L 573.098029 397.561721 
Q 573.098029 398.519533 572.579279 399.049221 
Q 572.062092 399.578908 571.071467 399.578908 
z
M 571.071467 398.632033 
Q 571.598029 398.632033 571.849592 398.355471 
Q 572.101154 398.078908 572.101154 397.561721 
L 572.101154 394.335158 
Q 572.101154 393.816408 571.851154 393.541408 
Q 571.602717 393.264846 571.071467 393.264846 
Q 570.538654 393.264846 570.288654 393.541408 
Q 570.040217 393.816408 570.040217 394.335158 
L 570.040217 397.561721 
Q 570.040217 398.078908 570.291779 398.355471 
Q 570.543342 398.632033 571.071467 398.632033 
z
M 576.589045 399.578908 
Q 575.59217 399.578908 575.076545 399.047658 
Q 574.562482 398.514846 574.562482 397.561721 
L 574.562482 394.335158 
Q 574.562482 393.377346 575.07967 392.847658 
Q 575.596857 392.317971 576.589045 392.317971 
Q 577.584357 392.317971 578.099982 392.846096 
Q 578.615607 393.372658 578.615607 394.335158 
L 578.615607 397.561721 
Q 578.615607 398.519533 578.096857 399.049221 
Q 577.57967 399.578908 576.589045 399.578908 
z
M 576.589045 398.632033 
Q 577.115607 398.632033 577.36717 398.355471 
Q 577.618732 398.078908 577.618732 397.561721 
L 577.618732 394.335158 
Q 577.618732 393.816408 577.368732 393.541408 
Q 577.120295 393.264846 576.589045 393.264846 
Q 576.056232 393.264846 575.806232 393.541408 
Q 575.557795 393.816408 575.557795 394.335158 
L 575.557795 397.561721 
Q 575.557795 398.078908 575.809357 398.355471 
Q 576.06092 398.632033 576.589045 398.632033 
z
M 582.359748 399.578908 
Q 581.847248 399.578908 581.387873 399.482033 
Q 580.93006 399.383596 580.531623 399.188283 
Q 580.133185 398.992971 579.78631 398.699221 
L 579.78631 398.699221 
L 580.406623 397.938283 
L 580.406623 397.938283 
Q 580.812873 398.289846 581.300373 398.466408 
Q 581.789435 398.641408 582.359748 398.641408 
Q 583.131623 398.641408 583.556623 398.355471 
Q 583.981623 398.069533 583.981623 397.547658 
L 583.981623 397.542971 
Q 583.981623 397.171096 583.787873 396.953908 
Q 583.595685 396.736721 583.289435 396.632033 
Q 582.984748 396.527346 582.501935 396.438283 
Q 582.48631 396.433596 582.469123 396.433596 
Q 582.453498 396.433596 582.437873 396.428908 
L 582.364435 396.414846 
Q 581.651935 396.292971 581.20506 396.139846 
Q 580.758185 395.985158 580.440998 395.577346 
Q 580.12381 395.169533 580.12381 394.417971 
L 580.12381 394.413283 
Q 580.12381 393.753908 580.419123 393.288283 
Q 580.714435 392.821096 581.28006 392.577346 
Q 581.847248 392.332033 582.64256 392.332033 
Q 583.02381 392.332033 583.39256 392.416408 
Q 583.76131 392.499221 584.119123 392.663283 
Q 584.478498 392.825783 584.825373 393.074221 
L 584.825373 393.074221 
L 584.259748 393.866408 
L 584.259748 393.866408 
Q 583.853498 393.567971 583.450373 393.419533 
Q 583.04881 393.269533 582.64256 393.269533 
Q 581.915998 393.269533 581.512873 393.560158 
Q 581.109748 393.850783 581.109748 394.383596 
L 581.109748 394.388283 
Q 581.109748 394.753908 581.31756 394.964846 
Q 581.525373 395.174221 581.834748 395.274221 
Q 582.145685 395.374221 582.697248 395.482033 
Q 582.715998 395.486721 582.733185 395.489846 
Q 582.750373 395.491408 582.770685 395.496096 
Q 582.794123 395.500783 582.82381 395.507033 
Q 582.853498 395.511721 582.876935 395.516408 
Q 583.522248 395.647658 583.953498 395.828908 
Q 584.38631 396.008596 584.676935 396.411721 
Q 584.96756 396.814846 584.96756 397.513283 
L 584.96756 397.522658 
Q 584.96756 398.172658 584.659748 398.633596 
Q 584.351935 399.094533 583.76756 399.336721 
Q 583.184748 399.578908 582.359748 399.578908 
z
" style="fill: #ffffff"/>
   </g>
  </g>
 </g>
 <defs>
  <clipPath id="p6bd593bfd9">
   <rect x="144" y="77.76" width="892.8" height="498.96"/>
  </clipPath>
 </defs>
</svg>
