<?xml version="1.0" encoding="utf-8" standalone="no"?>
<!DOCTYPE svg PUBLIC "-//W3C//DTD SVG 1.1//EN"
  "http://www.w3.org/Graphics/SVG/1.1/DTD/svg11.dtd">
<svg xmlns:xlink="http://www.w3.org/1999/xlink" width="1152pt" height="648pt" viewBox="0 0 1152 648" xmlns="http://www.w3.org/2000/svg" version="1.1">
 <metadata>
  <rdf:RDF xmlns:dc="http://purl.org/dc/elements/1.1/" xmlns:cc="http://creativecommons.org/ns#" xmlns:rdf="http://www.w3.org/1999/02/22-rdf-syntax-ns#">
   <cc:Work>
    <dc:type rdf:resource="http://purl.org/dc/dcmitype/StillImage"/>
    <dc:date>2024-10-09T18:10:10.449554</dc:date>
    <dc:format>image/svg+xml</dc:format>
    <dc:creator>
     <cc:Agent>
      <dc:title>Matplotlib v3.8.1, https://matplotlib.org/</dc:title>
     </cc:Agent>
    </dc:creator>
   </cc:Work>
  </rdf:RDF>
 </metadata>
 <defs>
  <style type="text/css">*{stroke-linejoin: round; stroke-linecap: butt}</style>
 </defs>
 <g id="figure_1">
  <g id="patch_1">
   <path d="M 0 648 
L 1152 648 
L 1152 0 
L 0 0 
L 0 648 
z
" style="fill: none"/>
  </g>
  <g id="axes_1">
   <g id="PathCollection_1">
    <defs>
     <path id="m83baf2e22c" d="M 0 2.738613 
C 0.726289 2.738613 1.422928 2.450055 1.936492 1.936492 
C 2.450055 1.422928 2.738613 0.726289 2.738613 0 
C 2.738613 -0.726289 2.450055 -1.422928 1.936492 -1.936492 
C 1.422928 -2.450055 0.726289 -2.738613 0 -2.738613 
C -0.726289 -2.738613 -1.422928 -2.450055 -1.936492 -1.936492 
C -2.450055 -1.422928 -2.738613 -0.726289 -2.738613 0 
C -2.738613 0.726289 -2.450055 1.422928 -1.936492 1.936492 
C -1.422928 2.450055 -0.726289 2.738613 0 2.738613 
z
" style="stroke: #ff0000"/>
    </defs>
    <g clip-path="url(#pa7d3235c07)">
     <use xlink:href="#m83baf2e22c" x="375.722182" y="432.919728" style="fill: #ff0000; stroke: #ff0000"/>
     <use xlink:href="#m83baf2e22c" x="231.250909" y="466.749216" style="fill: #ff0000; stroke: #ff0000"/>
    </g>
   </g>
   <g id="text_1">
    <path d="M 383.275599 431.450671 
L 386.409974 427.466296 
L 387.634974 427.466296 
L 383.128724 432.944421 
L 383.275599 431.450671 
z
M 382.494349 427.466296 
L 383.489662 427.466296 
L 383.489662 434.566296 
L 382.494349 434.566296 
L 382.494349 427.466296 
z
M 384.456849 430.777234 
L 385.242787 430.049109 
L 387.933412 434.566296 
L 386.713099 434.566296 
L 384.456849 430.777234 
z
M 390.843177 434.639734 
Q 390.199427 434.639734 389.710365 434.395983 
Q 389.222865 434.150671 388.955677 433.703796 
Q 388.690052 433.256921 388.690052 432.666296 
L 388.690052 432.549109 
Q 388.690052 432.017859 388.955677 431.549109 
Q 389.222865 431.080359 389.666615 430.841296 
Q 389.290052 430.635046 389.06349 430.247546 
Q 388.836927 429.858484 388.836927 429.428796 
L 388.836927 429.258484 
Q 388.836927 428.702234 389.085365 428.280359 
Q 389.333802 427.856921 389.78849 427.625671 
Q 390.243177 427.392859 390.843177 427.392859 
Q 391.443177 427.392859 391.897865 427.625671 
Q 392.352552 427.856921 392.60099 428.280359 
Q 392.849427 428.702234 392.849427 429.258484 
L 392.849427 429.428796 
Q 392.849427 429.869421 392.618177 430.255358 
Q 392.386927 430.639734 392.005677 430.841296 
Q 392.454115 431.085046 392.724427 431.552233 
Q 392.996302 432.017859 392.996302 432.549109 
L 392.996302 432.666296 
Q 392.996302 433.256921 392.730677 433.703796 
Q 392.465052 434.150671 391.97599 434.395983 
Q 391.48849 434.639734 390.843177 434.639734 
z
M 390.843177 433.681921 
Q 391.190052 433.681921 391.452552 433.545984 
Q 391.716615 433.408484 391.860365 433.163171 
Q 392.005677 432.916296 392.005677 432.592859 
L 392.005677 432.525671 
Q 392.005677 432.197546 391.860365 431.952234 
Q 391.716615 431.705359 391.452552 431.569421 
Q 391.190052 431.431921 390.843177 431.431921 
Q 390.496302 431.431921 390.23224 431.569421 
Q 389.96974 431.705359 389.824427 431.953796 
Q 389.680677 432.202234 389.680677 432.530359 
L 389.680677 432.603796 
Q 389.680677 432.925671 389.824427 433.169421 
Q 389.96974 433.413171 390.23224 433.547546 
Q 390.496302 433.681921 390.843177 433.681921 
z
M 390.843177 430.474108 
Q 391.141615 430.474108 391.36974 430.345984 
Q 391.599427 430.216296 391.72599 429.977234 
Q 391.854115 429.736609 391.854115 429.424109 
L 391.854115 429.356921 
Q 391.854115 429.058484 391.72599 428.828796 
Q 391.599427 428.599108 391.36974 428.475671 
Q 391.141615 428.350671 390.843177 428.350671 
Q 390.54474 428.350671 390.315052 428.475671 
Q 390.086927 428.599108 389.958802 428.828796 
Q 389.83224 429.058484 389.83224 429.361609 
L 389.83224 429.435046 
Q 389.83224 429.741296 389.958802 429.978796 
Q 390.086927 430.216296 390.315052 430.345984 
Q 390.54474 430.474108 390.843177 430.474108 
z
M 396.415052 434.639734 
Q 395.418177 434.639734 394.902552 434.108484 
Q 394.38849 433.575671 394.38849 432.622546 
L 394.38849 429.395983 
Q 394.38849 428.438171 394.905677 427.908484 
Q 395.422865 427.378796 396.415052 427.378796 
Q 397.410365 427.378796 397.92599 427.906921 
Q 398.441615 428.433484 398.441615 429.395983 
L 398.441615 432.622546 
Q 398.441615 433.580359 397.922865 434.110046 
Q 397.405677 434.639734 396.415052 434.639734 
z
M 396.415052 433.692858 
Q 396.941615 433.692858 397.193177 433.416296 
Q 397.44474 433.139734 397.44474 432.622546 
L 397.44474 429.395983 
Q 397.44474 428.877234 397.19474 428.602234 
Q 396.946302 428.325671 396.415052 428.325671 
Q 395.88224 428.325671 395.63224 428.602234 
Q 395.383802 428.877234 395.383802 429.395983 
L 395.383802 432.622546 
Q 395.383802 433.139734 395.635365 433.416296 
Q 395.886927 433.692858 396.415052 433.692858 
z
M 401.932631 434.639734 
Q 400.935756 434.639734 400.420131 434.108484 
Q 399.906068 433.575671 399.906068 432.622546 
L 399.906068 429.395983 
Q 399.906068 428.438171 400.423256 427.908484 
Q 400.940443 427.378796 401.932631 427.378796 
Q 402.927943 427.378796 403.443568 427.906921 
Q 403.959193 428.433484 403.959193 429.395983 
L 403.959193 432.622546 
Q 403.959193 433.580359 403.440443 434.110046 
Q 402.923256 434.639734 401.932631 434.639734 
z
M 401.932631 433.692858 
Q 402.459193 433.692858 402.710756 433.416296 
Q 402.962318 433.139734 402.962318 432.622546 
L 402.962318 429.395983 
Q 402.962318 428.877234 402.712318 428.602234 
Q 402.463881 428.325671 401.932631 428.325671 
Q 401.399818 428.325671 401.149818 428.602234 
Q 400.901381 428.877234 400.901381 429.395983 
L 400.901381 432.622546 
Q 400.901381 433.139734 401.152943 433.416296 
Q 401.404506 433.692858 401.932631 433.692858 
z
M 407.450209 434.639734 
Q 406.453334 434.639734 405.937709 434.108484 
Q 405.423646 433.575671 405.423646 432.622546 
L 405.423646 429.395983 
Q 405.423646 428.438171 405.940834 427.908484 
Q 406.458021 427.378796 407.450209 427.378796 
Q 408.445521 427.378796 408.961146 427.906921 
Q 409.476771 428.433484 409.476771 429.395983 
L 409.476771 432.622546 
Q 409.476771 433.580359 408.958021 434.110046 
Q 408.440834 434.639734 407.450209 434.639734 
z
M 407.450209 433.692858 
Q 407.976771 433.692858 408.228334 433.416296 
Q 408.479896 433.139734 408.479896 432.622546 
L 408.479896 429.395983 
Q 408.479896 428.877234 408.229896 428.602234 
Q 407.981459 428.325671 407.450209 428.325671 
Q 406.917396 428.325671 406.667396 428.602234 
Q 406.418959 428.877234 406.418959 429.395983 
L 406.418959 432.622546 
Q 406.418959 433.139734 406.670521 433.416296 
Q 406.922084 433.692858 407.450209 433.692858 
z
" style="fill: #ffffff; stroke: #000000"/>
    <path d="M 383.275599 431.450671 
L 386.409974 427.466296 
L 387.634974 427.466296 
L 383.128724 432.944421 
L 383.275599 431.450671 
z
M 382.494349 427.466296 
L 383.489662 427.466296 
L 383.489662 434.566296 
L 382.494349 434.566296 
L 382.494349 427.466296 
z
M 384.456849 430.777234 
L 385.242787 430.049109 
L 387.933412 434.566296 
L 386.713099 434.566296 
L 384.456849 430.777234 
z
M 390.843177 434.639734 
Q 390.199427 434.639734 389.710365 434.395983 
Q 389.222865 434.150671 388.955677 433.703796 
Q 388.690052 433.256921 388.690052 432.666296 
L 388.690052 432.549109 
Q 388.690052 432.017859 388.955677 431.549109 
Q 389.222865 431.080359 389.666615 430.841296 
Q 389.290052 430.635046 389.06349 430.247546 
Q 388.836927 429.858484 388.836927 429.428796 
L 388.836927 429.258484 
Q 388.836927 428.702234 389.085365 428.280359 
Q 389.333802 427.856921 389.78849 427.625671 
Q 390.243177 427.392859 390.843177 427.392859 
Q 391.443177 427.392859 391.897865 427.625671 
Q 392.352552 427.856921 392.60099 428.280359 
Q 392.849427 428.702234 392.849427 429.258484 
L 392.849427 429.428796 
Q 392.849427 429.869421 392.618177 430.255358 
Q 392.386927 430.639734 392.005677 430.841296 
Q 392.454115 431.085046 392.724427 431.552233 
Q 392.996302 432.017859 392.996302 432.549109 
L 392.996302 432.666296 
Q 392.996302 433.256921 392.730677 433.703796 
Q 392.465052 434.150671 391.97599 434.395983 
Q 391.48849 434.639734 390.843177 434.639734 
z
M 390.843177 433.681921 
Q 391.190052 433.681921 391.452552 433.545984 
Q 391.716615 433.408484 391.860365 433.163171 
Q 392.005677 432.916296 392.005677 432.592859 
L 392.005677 432.525671 
Q 392.005677 432.197546 391.860365 431.952234 
Q 391.716615 431.705359 391.452552 431.569421 
Q 391.190052 431.431921 390.843177 431.431921 
Q 390.496302 431.431921 390.23224 431.569421 
Q 389.96974 431.705359 389.824427 431.953796 
Q 389.680677 432.202234 389.680677 432.530359 
L 389.680677 432.603796 
Q 389.680677 432.925671 389.824427 433.169421 
Q 389.96974 433.413171 390.23224 433.547546 
Q 390.496302 433.681921 390.843177 433.681921 
z
M 390.843177 430.474108 
Q 391.141615 430.474108 391.36974 430.345984 
Q 391.599427 430.216296 391.72599 429.977234 
Q 391.854115 429.736609 391.854115 429.424109 
L 391.854115 429.356921 
Q 391.854115 429.058484 391.72599 428.828796 
Q 391.599427 428.599108 391.36974 428.475671 
Q 391.141615 428.350671 390.843177 428.350671 
Q 390.54474 428.350671 390.315052 428.475671 
Q 390.086927 428.599108 389.958802 428.828796 
Q 389.83224 429.058484 389.83224 429.361609 
L 389.83224 429.435046 
Q 389.83224 429.741296 389.958802 429.978796 
Q 390.086927 430.216296 390.315052 430.345984 
Q 390.54474 430.474108 390.843177 430.474108 
z
M 396.415052 434.639734 
Q 395.418177 434.639734 394.902552 434.108484 
Q 394.38849 433.575671 394.38849 432.622546 
L 394.38849 429.395983 
Q 394.38849 428.438171 394.905677 427.908484 
Q 395.422865 427.378796 396.415052 427.378796 
Q 397.410365 427.378796 397.92599 427.906921 
Q 398.441615 428.433484 398.441615 429.395983 
L 398.441615 432.622546 
Q 398.441615 433.580359 397.922865 434.110046 
Q 397.405677 434.639734 396.415052 434.639734 
z
M 396.415052 433.692858 
Q 396.941615 433.692858 397.193177 433.416296 
Q 397.44474 433.139734 397.44474 432.622546 
L 397.44474 429.395983 
Q 397.44474 428.877234 397.19474 428.602234 
Q 396.946302 428.325671 396.415052 428.325671 
Q 395.88224 428.325671 395.63224 428.602234 
Q 395.383802 428.877234 395.383802 429.395983 
L 395.383802 432.622546 
Q 395.383802 433.139734 395.635365 433.416296 
Q 395.886927 433.692858 396.415052 433.692858 
z
M 401.932631 434.639734 
Q 400.935756 434.639734 400.420131 434.108484 
Q 399.906068 433.575671 399.906068 432.622546 
L 399.906068 429.395983 
Q 399.906068 428.438171 400.423256 427.908484 
Q 400.940443 427.378796 401.932631 427.378796 
Q 402.927943 427.378796 403.443568 427.906921 
Q 403.959193 428.433484 403.959193 429.395983 
L 403.959193 432.622546 
Q 403.959193 433.580359 403.440443 434.110046 
Q 402.923256 434.639734 401.932631 434.639734 
z
M 401.932631 433.692858 
Q 402.459193 433.692858 402.710756 433.416296 
Q 402.962318 433.139734 402.962318 432.622546 
L 402.962318 429.395983 
Q 402.962318 428.877234 402.712318 428.602234 
Q 402.463881 428.325671 401.932631 428.325671 
Q 401.399818 428.325671 401.149818 428.602234 
Q 400.901381 428.877234 400.901381 429.395983 
L 400.901381 432.622546 
Q 400.901381 433.139734 401.152943 433.416296 
Q 401.404506 433.692858 401.932631 433.692858 
z
M 407.450209 434.639734 
Q 406.453334 434.639734 405.937709 434.108484 
Q 405.423646 433.575671 405.423646 432.622546 
L 405.423646 429.395983 
Q 405.423646 428.438171 405.940834 427.908484 
Q 406.458021 427.378796 407.450209 427.378796 
Q 408.445521 427.378796 408.961146 427.906921 
Q 409.476771 428.433484 409.476771 429.395983 
L 409.476771 432.622546 
Q 409.476771 433.580359 408.958021 434.110046 
Q 408.440834 434.639734 407.450209 434.639734 
z
M 407.450209 433.692858 
Q 407.976771 433.692858 408.228334 433.416296 
Q 408.479896 433.139734 408.479896 432.622546 
L 408.479896 429.395983 
Q 408.479896 428.877234 408.229896 428.602234 
Q 407.981459 428.325671 407.450209 428.325671 
Q 406.917396 428.325671 406.667396 428.602234 
Q 406.418959 428.877234 406.418959 429.395983 
L 406.418959 432.622546 
Q 406.418959 433.139734 406.670521 433.416296 
Q 406.922084 433.692858 407.450209 433.692858 
z
" style="fill: #ffffff"/>
   </g>
   <g id="text_2">
    <path d="M 238.804327 465.280159 
L 241.938702 461.295784 
L 243.163702 461.295784 
L 238.657452 466.773909 
L 238.804327 465.280159 
z
M 238.023077 461.295784 
L 239.018389 461.295784 
L 239.018389 468.395784 
L 238.023077 468.395784 
L 238.023077 461.295784 
z
M 239.985577 464.606721 
L 240.771514 463.878597 
L 243.462139 468.395784 
L 242.241827 468.395784 
L 239.985577 464.606721 
z
M 246.371905 468.469222 
Q 245.728155 468.469222 245.239092 468.225471 
Q 244.751592 467.980159 244.484405 467.533284 
Q 244.21878 467.086409 244.21878 466.495784 
L 244.21878 466.378597 
Q 244.21878 465.847347 244.484405 465.378597 
Q 244.751592 464.909847 245.195342 464.670784 
Q 244.81878 464.464534 244.592217 464.077034 
Q 244.365655 463.687972 244.365655 463.258284 
L 244.365655 463.087971 
Q 244.365655 462.531722 244.614092 462.109847 
Q 244.86253 461.686409 245.317217 461.455159 
Q 245.771905 461.222347 246.371905 461.222347 
Q 246.971905 461.222347 247.426592 461.455159 
Q 247.88128 461.686409 248.129717 462.109847 
Q 248.378155 462.531722 248.378155 463.087971 
L 248.378155 463.258284 
Q 248.378155 463.698909 248.146905 464.084846 
Q 247.915655 464.469222 247.534405 464.670784 
Q 247.982842 464.914534 248.253155 465.381721 
Q 248.52503 465.847347 248.52503 466.378597 
L 248.52503 466.495784 
Q 248.52503 467.086409 248.259405 467.533284 
Q 247.99378 467.980159 247.504717 468.225471 
Q 247.017217 468.469222 246.371905 468.469222 
z
M 246.371905 467.511409 
Q 246.71878 467.511409 246.98128 467.375472 
Q 247.245342 467.237972 247.389092 466.992659 
Q 247.534405 466.745784 247.534405 466.422347 
L 247.534405 466.355159 
Q 247.534405 466.027034 247.389092 465.781722 
Q 247.245342 465.534847 246.98128 465.398909 
Q 246.71878 465.261409 246.371905 465.261409 
Q 246.02503 465.261409 245.760967 465.398909 
Q 245.498467 465.534847 245.353155 465.783284 
Q 245.209405 466.031722 245.209405 466.359847 
L 245.209405 466.433284 
Q 245.209405 466.755159 245.353155 466.998909 
Q 245.498467 467.242659 245.760967 467.377034 
Q 246.02503 467.511409 246.371905 467.511409 
z
M 246.371905 464.303596 
Q 246.670342 464.303596 246.898467 464.175472 
Q 247.128155 464.045784 247.254717 463.806721 
Q 247.382842 463.566097 247.382842 463.253597 
L 247.382842 463.186409 
Q 247.382842 462.887971 247.254717 462.658284 
Q 247.128155 462.428596 246.898467 462.305159 
Q 246.670342 462.180159 246.371905 462.180159 
Q 246.073467 462.180159 245.84378 462.305159 
Q 245.615655 462.428596 245.48753 462.658284 
Q 245.360967 462.887971 245.360967 463.191097 
L 245.360967 463.264534 
Q 245.360967 463.570784 245.48753 463.808284 
Q 245.615655 464.045784 245.84378 464.175472 
Q 246.073467 464.303596 246.371905 464.303596 
z
M 251.94378 468.469222 
Q 250.946905 468.469222 250.43128 467.937972 
Q 249.917217 467.405159 249.917217 466.452034 
L 249.917217 463.225471 
Q 249.917217 462.267659 250.434405 461.737972 
Q 250.951592 461.208284 251.94378 461.208284 
Q 252.939092 461.208284 253.454717 461.736409 
Q 253.970342 462.262971 253.970342 463.225471 
L 253.970342 466.452034 
Q 253.970342 467.409847 253.451592 467.939534 
Q 252.934405 468.469222 251.94378 468.469222 
z
M 251.94378 467.522346 
Q 252.470342 467.522346 252.721905 467.245784 
Q 252.973467 466.969222 252.973467 466.452034 
L 252.973467 463.225471 
Q 252.973467 462.706722 252.723467 462.431721 
Q 252.47503 462.155159 251.94378 462.155159 
Q 251.410967 462.155159 251.160967 462.431721 
Q 250.91253 462.706722 250.91253 463.225471 
L 250.91253 466.452034 
Q 250.91253 466.969222 251.164092 467.245784 
Q 251.415655 467.522346 251.94378 467.522346 
z
M 257.461358 468.469222 
Q 256.464483 468.469222 255.948858 467.937972 
Q 255.434795 467.405159 255.434795 466.452034 
L 255.434795 463.225471 
Q 255.434795 462.267659 255.951983 461.737972 
Q 256.46917 461.208284 257.461358 461.208284 
Q 258.45667 461.208284 258.972295 461.736409 
Q 259.48792 462.262971 259.48792 463.225471 
L 259.48792 466.452034 
Q 259.48792 467.409847 258.96917 467.939534 
Q 258.451983 468.469222 257.461358 468.469222 
z
M 257.461358 467.522346 
Q 257.98792 467.522346 258.239483 467.245784 
Q 258.491045 466.969222 258.491045 466.452034 
L 258.491045 463.225471 
Q 258.491045 462.706722 258.241045 462.431721 
Q 257.992608 462.155159 257.461358 462.155159 
Q 256.928545 462.155159 256.678545 462.431721 
Q 256.430108 462.706722 256.430108 463.225471 
L 256.430108 466.452034 
Q 256.430108 466.969222 256.68167 467.245784 
Q 256.933233 467.522346 257.461358 467.522346 
z
M 262.978936 468.469222 
Q 261.982061 468.469222 261.466436 467.937972 
Q 260.952373 467.405159 260.952373 466.452034 
L 260.952373 463.225471 
Q 260.952373 462.267659 261.469561 461.737972 
Q 261.986748 461.208284 262.978936 461.208284 
Q 263.974248 461.208284 264.489873 461.736409 
Q 265.005498 462.262971 265.005498 463.225471 
L 265.005498 466.452034 
Q 265.005498 467.409847 264.486748 467.939534 
Q 263.969561 468.469222 262.978936 468.469222 
z
M 262.978936 467.522346 
Q 263.505498 467.522346 263.757061 467.245784 
Q 264.008623 466.969222 264.008623 466.452034 
L 264.008623 463.225471 
Q 264.008623 462.706722 263.758623 462.431721 
Q 263.510186 462.155159 262.978936 462.155159 
Q 262.446123 462.155159 262.196123 462.431721 
Q 261.947686 462.706722 261.947686 463.225471 
L 261.947686 466.452034 
Q 261.947686 466.969222 262.199248 467.245784 
Q 262.450811 467.522346 262.978936 467.522346 
z
" style="fill: #ffffff; stroke: #000000"/>
    <path d="M 238.804327 465.280159 
L 241.938702 461.295784 
L 243.163702 461.295784 
L 238.657452 466.773909 
L 238.804327 465.280159 
z
M 238.023077 461.295784 
L 239.018389 461.295784 
L 239.018389 468.395784 
L 238.023077 468.395784 
L 238.023077 461.295784 
z
M 239.985577 464.606721 
L 240.771514 463.878597 
L 243.462139 468.395784 
L 242.241827 468.395784 
L 239.985577 464.606721 
z
M 246.371905 468.469222 
Q 245.728155 468.469222 245.239092 468.225471 
Q 244.751592 467.980159 244.484405 467.533284 
Q 244.21878 467.086409 244.21878 466.495784 
L 244.21878 466.378597 
Q 244.21878 465.847347 244.484405 465.378597 
Q 244.751592 464.909847 245.195342 464.670784 
Q 244.81878 464.464534 244.592217 464.077034 
Q 244.365655 463.687972 244.365655 463.258284 
L 244.365655 463.087971 
Q 244.365655 462.531722 244.614092 462.109847 
Q 244.86253 461.686409 245.317217 461.455159 
Q 245.771905 461.222347 246.371905 461.222347 
Q 246.971905 461.222347 247.426592 461.455159 
Q 247.88128 461.686409 248.129717 462.109847 
Q 248.378155 462.531722 248.378155 463.087971 
L 248.378155 463.258284 
Q 248.378155 463.698909 248.146905 464.084846 
Q 247.915655 464.469222 247.534405 464.670784 
Q 247.982842 464.914534 248.253155 465.381721 
Q 248.52503 465.847347 248.52503 466.378597 
L 248.52503 466.495784 
Q 248.52503 467.086409 248.259405 467.533284 
Q 247.99378 467.980159 247.504717 468.225471 
Q 247.017217 468.469222 246.371905 468.469222 
z
M 246.371905 467.511409 
Q 246.71878 467.511409 246.98128 467.375472 
Q 247.245342 467.237972 247.389092 466.992659 
Q 247.534405 466.745784 247.534405 466.422347 
L 247.534405 466.355159 
Q 247.534405 466.027034 247.389092 465.781722 
Q 247.245342 465.534847 246.98128 465.398909 
Q 246.71878 465.261409 246.371905 465.261409 
Q 246.02503 465.261409 245.760967 465.398909 
Q 245.498467 465.534847 245.353155 465.783284 
Q 245.209405 466.031722 245.209405 466.359847 
L 245.209405 466.433284 
Q 245.209405 466.755159 245.353155 466.998909 
Q 245.498467 467.242659 245.760967 467.377034 
Q 246.02503 467.511409 246.371905 467.511409 
z
M 246.371905 464.303596 
Q 246.670342 464.303596 246.898467 464.175472 
Q 247.128155 464.045784 247.254717 463.806721 
Q 247.382842 463.566097 247.382842 463.253597 
L 247.382842 463.186409 
Q 247.382842 462.887971 247.254717 462.658284 
Q 247.128155 462.428596 246.898467 462.305159 
Q 246.670342 462.180159 246.371905 462.180159 
Q 246.073467 462.180159 245.84378 462.305159 
Q 245.615655 462.428596 245.48753 462.658284 
Q 245.360967 462.887971 245.360967 463.191097 
L 245.360967 463.264534 
Q 245.360967 463.570784 245.48753 463.808284 
Q 245.615655 464.045784 245.84378 464.175472 
Q 246.073467 464.303596 246.371905 464.303596 
z
M 251.94378 468.469222 
Q 250.946905 468.469222 250.43128 467.937972 
Q 249.917217 467.405159 249.917217 466.452034 
L 249.917217 463.225471 
Q 249.917217 462.267659 250.434405 461.737972 
Q 250.951592 461.208284 251.94378 461.208284 
Q 252.939092 461.208284 253.454717 461.736409 
Q 253.970342 462.262971 253.970342 463.225471 
L 253.970342 466.452034 
Q 253.970342 467.409847 253.451592 467.939534 
Q 252.934405 468.469222 251.94378 468.469222 
z
M 251.94378 467.522346 
Q 252.470342 467.522346 252.721905 467.245784 
Q 252.973467 466.969222 252.973467 466.452034 
L 252.973467 463.225471 
Q 252.973467 462.706722 252.723467 462.431721 
Q 252.47503 462.155159 251.94378 462.155159 
Q 251.410967 462.155159 251.160967 462.431721 
Q 250.91253 462.706722 250.91253 463.225471 
L 250.91253 466.452034 
Q 250.91253 466.969222 251.164092 467.245784 
Q 251.415655 467.522346 251.94378 467.522346 
z
M 257.461358 468.469222 
Q 256.464483 468.469222 255.948858 467.937972 
Q 255.434795 467.405159 255.434795 466.452034 
L 255.434795 463.225471 
Q 255.434795 462.267659 255.951983 461.737972 
Q 256.46917 461.208284 257.461358 461.208284 
Q 258.45667 461.208284 258.972295 461.736409 
Q 259.48792 462.262971 259.48792 463.225471 
L 259.48792 466.452034 
Q 259.48792 467.409847 258.96917 467.939534 
Q 258.451983 468.469222 257.461358 468.469222 
z
M 257.461358 467.522346 
Q 257.98792 467.522346 258.239483 467.245784 
Q 258.491045 466.969222 258.491045 466.452034 
L 258.491045 463.225471 
Q 258.491045 462.706722 258.241045 462.431721 
Q 257.992608 462.155159 257.461358 462.155159 
Q 256.928545 462.155159 256.678545 462.431721 
Q 256.430108 462.706722 256.430108 463.225471 
L 256.430108 466.452034 
Q 256.430108 466.969222 256.68167 467.245784 
Q 256.933233 467.522346 257.461358 467.522346 
z
M 262.978936 468.469222 
Q 261.982061 468.469222 261.466436 467.937972 
Q 260.952373 467.405159 260.952373 466.452034 
L 260.952373 463.225471 
Q 260.952373 462.267659 261.469561 461.737972 
Q 261.986748 461.208284 262.978936 461.208284 
Q 263.974248 461.208284 264.489873 461.736409 
Q 265.005498 462.262971 265.005498 463.225471 
L 265.005498 466.452034 
Q 265.005498 467.409847 264.486748 467.939534 
Q 263.969561 468.469222 262.978936 468.469222 
z
M 262.978936 467.522346 
Q 263.505498 467.522346 263.757061 467.245784 
Q 264.008623 466.969222 264.008623 466.452034 
L 264.008623 463.225471 
Q 264.008623 462.706722 263.758623 462.431721 
Q 263.510186 462.155159 262.978936 462.155159 
Q 262.446123 462.155159 262.196123 462.431721 
Q 261.947686 462.706722 261.947686 463.225471 
L 261.947686 466.452034 
Q 261.947686 466.969222 262.199248 467.245784 
Q 262.450811 467.522346 262.978936 467.522346 
z
" style="fill: #ffffff"/>
   </g>
  </g>
 </g>
 <defs>
  <clipPath id="pa7d3235c07">
   <rect x="144" y="77.76" width="892.8" height="498.96"/>
  </clipPath>
 </defs>
</svg>
