<?xml version="1.0" encoding="utf-8" standalone="no"?>
<!DOCTYPE svg PUBLIC "-//W3C//DTD SVG 1.1//EN"
  "http://www.w3.org/Graphics/SVG/1.1/DTD/svg11.dtd">
<svg xmlns:xlink="http://www.w3.org/1999/xlink" width="1152pt" height="648pt" viewBox="0 0 1152 648" xmlns="http://www.w3.org/2000/svg" version="1.1">
 <metadata>
  <rdf:RDF xmlns:dc="http://purl.org/dc/elements/1.1/" xmlns:cc="http://creativecommons.org/ns#" xmlns:rdf="http://www.w3.org/1999/02/22-rdf-syntax-ns#">
   <cc:Work>
    <dc:type rdf:resource="http://purl.org/dc/dcmitype/StillImage"/>
    <dc:date>2024-10-09T18:10:10.271984</dc:date>
    <dc:format>image/svg+xml</dc:format>
    <dc:creator>
     <cc:Agent>
      <dc:title>Matplotlib v3.8.1, https://matplotlib.org/</dc:title>
     </cc:Agent>
    </dc:creator>
   </cc:Work>
  </rdf:RDF>
 </metadata>
 <defs>
  <style type="text/css">*{stroke-linejoin: round; stroke-linecap: butt}</style>
 </defs>
 <g id="figure_1">
  <g id="patch_1">
   <path d="M 0 648 
L 1152 648 
L 1152 0 
L 0 0 
L 0 648 
z
" style="fill: none"/>
  </g>
  <g id="axes_1">
   <g id="line2d_1">
    <path d="M 184.987636 488.238887 
L 192.128397 474.087167 
L 199.269157 460.459702 
L 206.409917 447.337086 
L 213.550678 434.70063 
L 220.691438 422.532339 
L 227.832198 410.814878 
L 234.972959 399.531558 
L 242.113719 388.666304 
L 249.254479 378.203635 
L 256.39524 368.128644 
L 263.536 358.426976 
L 270.67676 349.084805 
L 277.817521 340.088817 
L 284.958281 331.426191 
L 292.099041 323.084581 
L 299.239802 315.052095 
L 306.380562 307.317285 
L 313.521322 299.869123 
L 320.662083 292.696992 
L 327.802843 285.790665 
L 334.943603 279.140297 
L 342.084364 272.736405 
L 349.225124 266.569856 
L 356.365884 260.631859 
L 363.506645 254.913946 
L 370.647405 249.407961 
L 377.788165 244.106053 
L 384.928926 239.00066 
L 392.069686 234.0845 
L 399.210446 229.350563 
L 406.351207 224.792094 
L 413.491967 220.402592 
L 420.632727 216.175796 
L 427.773488 212.105677 
L 434.914248 208.186427 
L 442.055008 204.412456 
L 449.195769 200.77838 
L 456.336529 197.279015 
L 463.477289 193.909368 
L 470.61805 190.66463 
L 477.75881 187.540174 
L 484.89957 184.531541 
L 492.040331 181.634438 
L 499.181091 178.844732 
L 506.321851 176.158442 
L 513.462612 173.571734 
L 520.603372 171.080919 
L 527.744132 168.682441 
L 534.884893 166.372878 
L 542.025653 164.148934 
L 549.166413 162.007436 
L 556.307174 159.945328 
L 563.447934 157.959667 
L 570.588694 156.047618 
L 577.729455 154.206454 
L 584.870215 152.433547 
L 592.010975 150.726367 
L 599.151736 149.082477 
L 606.292496 147.499531 
L 613.433256 145.97527 
L 620.574017 144.507518 
L 627.714777 143.094181 
L 634.855537 141.733242 
L 641.996298 140.422758 
L 649.137058 139.160858 
L 656.277818 137.945743 
L 663.418579 136.775676 
L 670.559339 135.648989 
L 677.700099 134.564072 
L 684.84086 133.519379 
L 691.98162 132.513416 
L 699.12238 131.54475 
L 706.26314 130.611996 
L 713.403901 129.713824 
L 720.544661 128.848951 
L 727.685421 128.016144 
L 734.826182 127.214212 
L 741.966942 126.442013 
L 749.107702 125.698442 
L 756.248463 124.98244 
L 763.389223 124.292983 
L 770.529983 123.629089 
L 777.670744 122.989808 
L 784.811504 122.374229 
L 791.952264 121.781473 
L 799.093025 121.210693 
L 806.233785 120.661076 
L 813.374545 120.131835 
L 820.515306 119.622217 
L 827.656066 119.131493 
L 834.796826 118.658963 
L 841.937587 118.203953 
L 849.078347 117.765812 
L 856.219107 117.343916 
L 863.359868 116.937661 
L 870.500628 116.546469 
L 877.641388 116.169781 
L 884.782149 115.807059 
L 891.922909 115.457785 
" clip-path="url(#p7a7c8dd0c2)" style="fill: none; stroke: #f27979; stroke-width: 3; stroke-linecap: round"/>
   </g>
   <g id="text_1">
    <path d="M 899.368514 116.157478 
L 900.974764 116.157478 
Q 901.760702 116.157478 902.191952 115.749666 
Q 902.624764 115.341853 902.624764 114.599666 
L 902.624764 112.509041 
Q 902.624764 111.766853 902.191952 111.359041 
Q 901.760702 110.951228 900.974764 110.951228 
L 899.368514 110.951228 
L 899.368514 110.004353 
L 900.945077 110.004353 
Q 901.799764 110.004353 902.404452 110.302791 
Q 903.010702 110.599666 903.327889 111.171541 
Q 903.645077 111.743416 903.645077 112.548103 
L 903.645077 114.560603 
Q 903.645077 115.365291 903.327889 115.937166 
Q 903.010702 116.509041 902.402889 116.807478 
Q 901.795077 117.104353 900.940389 117.104353 
L 899.368514 117.104353 
L 899.368514 116.157478 
z
M 898.695077 110.004353 
L 899.690389 110.004353 
L 899.690389 117.104353 
L 898.695077 117.104353 
L 898.695077 110.004353 
z
M 907.624764 113.579353 
L 907.620077 113.754353 
Q 907.498202 113.979353 907.251327 114.084041 
Q 907.004452 114.188728 906.668514 114.188728 
Q 906.160702 114.188728 905.774764 113.930916 
Q 905.388827 113.671541 905.176327 113.201228 
Q 904.963827 112.729353 904.963827 112.109041 
L 904.963827 112.104353 
Q 904.963827 111.415291 905.195077 110.927791 
Q 905.427889 110.438728 905.874764 110.185603 
Q 906.321639 109.930916 906.946639 109.930916 
Q 907.571639 109.930916 908.015389 110.190291 
Q 908.460702 110.449666 908.691952 110.943416 
Q 908.923202 111.435603 908.923202 112.129353 
L 908.923202 112.134041 
Q 908.923202 112.513728 908.824764 112.946541 
Q 908.727889 113.379353 908.548202 113.802791 
Q 908.518514 113.866853 908.488827 113.932478 
Q 908.460702 113.998103 908.426327 114.062166 
L 906.912264 117.104353 
L 905.837264 117.104353 
L 907.624764 113.579353 
z
M 906.946639 113.280916 
Q 907.415389 113.280916 907.671639 112.963728 
Q 907.927889 112.646541 907.927889 112.069978 
L 907.927889 112.065291 
Q 907.927889 111.504353 907.671639 111.196541 
Q 907.415389 110.888728 906.946639 110.888728 
Q 906.473202 110.888728 906.216952 111.196541 
Q 905.960702 111.504353 905.960702 112.069978 
L 905.960702 112.074666 
Q 905.960702 112.651228 906.216952 112.966853 
Q 906.473202 113.280916 906.946639 113.280916 
z
M 910.1441 115.151228 
L 912.526913 110.009041 
L 913.553475 110.009041 
L 911.228475 115.091853 
L 914.709725 115.091853 
L 914.709725 116.015291 
L 910.1441 116.015291 
L 910.1441 115.151228 
z
M 913.2066 112.929353 
L 914.178475 112.929353 
L 914.178475 117.109041 
L 913.2066 117.109041 
L 913.2066 112.929353 
z
M 917.957577 117.177791 
Q 916.960702 117.177791 916.445077 116.646541 
Q 915.931014 116.113728 915.931014 115.160603 
L 915.931014 111.934041 
Q 915.931014 110.976228 916.448202 110.446541 
Q 916.965389 109.916853 917.957577 109.916853 
Q 918.952889 109.916853 919.468514 110.444978 
Q 919.984139 110.971541 919.984139 111.934041 
L 919.984139 115.160603 
Q 919.984139 116.118416 919.465389 116.648103 
Q 918.948202 117.177791 917.957577 117.177791 
z
M 917.957577 116.230916 
Q 918.484139 116.230916 918.735702 115.954353 
Q 918.987264 115.677791 918.987264 115.160603 
L 918.987264 111.934041 
Q 918.987264 111.415291 918.737264 111.140291 
Q 918.488827 110.863728 917.957577 110.863728 
Q 917.424764 110.863728 917.174764 111.140291 
Q 916.926327 111.415291 916.926327 111.934041 
L 916.926327 115.160603 
Q 916.926327 115.677791 917.177889 115.954353 
Q 917.429452 116.230916 917.957577 116.230916 
z
M 923.475155 117.177791 
Q 922.47828 117.177791 921.962655 116.646541 
Q 921.448592 116.113728 921.448592 115.160603 
L 921.448592 111.934041 
Q 921.448592 110.976228 921.96578 110.446541 
Q 922.482967 109.916853 923.475155 109.916853 
Q 924.470467 109.916853 924.986092 110.444978 
Q 925.501717 110.971541 925.501717 111.934041 
L 925.501717 115.160603 
Q 925.501717 116.118416 924.982967 116.648103 
Q 924.46578 117.177791 923.475155 117.177791 
z
M 923.475155 116.230916 
Q 924.001717 116.230916 924.25328 115.954353 
Q 924.504842 115.677791 924.504842 115.160603 
L 924.504842 111.934041 
Q 924.504842 111.415291 924.254842 111.140291 
Q 924.006405 110.863728 923.475155 110.863728 
Q 922.942342 110.863728 922.692342 111.140291 
Q 922.443905 111.415291 922.443905 111.934041 
L 922.443905 115.160603 
Q 922.443905 115.677791 922.695467 115.954353 
Q 922.94703 116.230916 923.475155 116.230916 
z
" style="fill: #ffffff; stroke: #000000"/>
    <path d="M 899.368514 116.157478 
L 900.974764 116.157478 
Q 901.760702 116.157478 902.191952 115.749666 
Q 902.624764 115.341853 902.624764 114.599666 
L 902.624764 112.509041 
Q 902.624764 111.766853 902.191952 111.359041 
Q 901.760702 110.951228 900.974764 110.951228 
L 899.368514 110.951228 
L 899.368514 110.004353 
L 900.945077 110.004353 
Q 901.799764 110.004353 902.404452 110.302791 
Q 903.010702 110.599666 903.327889 111.171541 
Q 903.645077 111.743416 903.645077 112.548103 
L 903.645077 114.560603 
Q 903.645077 115.365291 903.327889 115.937166 
Q 903.010702 116.509041 902.402889 116.807478 
Q 901.795077 117.104353 900.940389 117.104353 
L 899.368514 117.104353 
L 899.368514 116.157478 
z
M 898.695077 110.004353 
L 899.690389 110.004353 
L 899.690389 117.104353 
L 898.695077 117.104353 
L 898.695077 110.004353 
z
M 907.624764 113.579353 
L 907.620077 113.754353 
Q 907.498202 113.979353 907.251327 114.084041 
Q 907.004452 114.188728 906.668514 114.188728 
Q 906.160702 114.188728 905.774764 113.930916 
Q 905.388827 113.671541 905.176327 113.201228 
Q 904.963827 112.729353 904.963827 112.109041 
L 904.963827 112.104353 
Q 904.963827 111.415291 905.195077 110.927791 
Q 905.427889 110.438728 905.874764 110.185603 
Q 906.321639 109.930916 906.946639 109.930916 
Q 907.571639 109.930916 908.015389 110.190291 
Q 908.460702 110.449666 908.691952 110.943416 
Q 908.923202 111.435603 908.923202 112.129353 
L 908.923202 112.134041 
Q 908.923202 112.513728 908.824764 112.946541 
Q 908.727889 113.379353 908.548202 113.802791 
Q 908.518514 113.866853 908.488827 113.932478 
Q 908.460702 113.998103 908.426327 114.062166 
L 906.912264 117.104353 
L 905.837264 117.104353 
L 907.624764 113.579353 
z
M 906.946639 113.280916 
Q 907.415389 113.280916 907.671639 112.963728 
Q 907.927889 112.646541 907.927889 112.069978 
L 907.927889 112.065291 
Q 907.927889 111.504353 907.671639 111.196541 
Q 907.415389 110.888728 906.946639 110.888728 
Q 906.473202 110.888728 906.216952 111.196541 
Q 905.960702 111.504353 905.960702 112.069978 
L 905.960702 112.074666 
Q 905.960702 112.651228 906.216952 112.966853 
Q 906.473202 113.280916 906.946639 113.280916 
z
M 910.1441 115.151228 
L 912.526913 110.009041 
L 913.553475 110.009041 
L 911.228475 115.091853 
L 914.709725 115.091853 
L 914.709725 116.015291 
L 910.1441 116.015291 
L 910.1441 115.151228 
z
M 913.2066 112.929353 
L 914.178475 112.929353 
L 914.178475 117.109041 
L 913.2066 117.109041 
L 913.2066 112.929353 
z
M 917.957577 117.177791 
Q 916.960702 117.177791 916.445077 116.646541 
Q 915.931014 116.113728 915.931014 115.160603 
L 915.931014 111.934041 
Q 915.931014 110.976228 916.448202 110.446541 
Q 916.965389 109.916853 917.957577 109.916853 
Q 918.952889 109.916853 919.468514 110.444978 
Q 919.984139 110.971541 919.984139 111.934041 
L 919.984139 115.160603 
Q 919.984139 116.118416 919.465389 116.648103 
Q 918.948202 117.177791 917.957577 117.177791 
z
M 917.957577 116.230916 
Q 918.484139 116.230916 918.735702 115.954353 
Q 918.987264 115.677791 918.987264 115.160603 
L 918.987264 111.934041 
Q 918.987264 111.415291 918.737264 111.140291 
Q 918.488827 110.863728 917.957577 110.863728 
Q 917.424764 110.863728 917.174764 111.140291 
Q 916.926327 111.415291 916.926327 111.934041 
L 916.926327 115.160603 
Q 916.926327 115.677791 917.177889 115.954353 
Q 917.429452 116.230916 917.957577 116.230916 
z
M 923.475155 117.177791 
Q 922.47828 117.177791 921.962655 116.646541 
Q 921.448592 116.113728 921.448592 115.160603 
L 921.448592 111.934041 
Q 921.448592 110.976228 921.96578 110.446541 
Q 922.482967 109.916853 923.475155 109.916853 
Q 924.470467 109.916853 924.986092 110.444978 
Q 925.501717 110.971541 925.501717 111.934041 
L 925.501717 115.160603 
Q 925.501717 116.118416 924.982967 116.648103 
Q 924.46578 117.177791 923.475155 117.177791 
z
M 923.475155 116.230916 
Q 924.001717 116.230916 924.25328 115.954353 
Q 924.504842 115.677791 924.504842 115.160603 
L 924.504842 111.934041 
Q 924.504842 111.415291 924.254842 111.140291 
Q 924.006405 110.863728 923.475155 110.863728 
Q 922.942342 110.863728 922.692342 111.140291 
Q 922.443905 111.415291 922.443905 111.934041 
L 922.443905 115.160603 
Q 922.443905 115.677791 922.695467 115.954353 
Q 922.94703 116.230916 923.475155 116.230916 
z
" style="fill: #ffffff"/>
   </g>
  </g>
 </g>
 <defs>
  <clipPath id="p7a7c8dd0c2">
   <rect x="144" y="77.76" width="892.8" height="498.96"/>
  </clipPath>
 </defs>
</svg>
