<?xml version="1.0" encoding="utf-8" standalone="no"?>
<!DOCTYPE svg PUBLIC "-//W3C//DTD SVG 1.1//EN"
  "http://www.w3.org/Graphics/SVG/1.1/DTD/svg11.dtd">
<svg xmlns:xlink="http://www.w3.org/1999/xlink" width="1152pt" height="648pt" viewBox="0 0 1152 648" xmlns="http://www.w3.org/2000/svg" version="1.1">
 <metadata>
  <rdf:RDF xmlns:dc="http://purl.org/dc/elements/1.1/" xmlns:cc="http://creativecommons.org/ns#" xmlns:rdf="http://www.w3.org/1999/02/22-rdf-syntax-ns#">
   <cc:Work>
    <dc:type rdf:resource="http://purl.org/dc/dcmitype/StillImage"/>
    <dc:date>2024-11-15T16:34:25.851750</dc:date>
    <dc:format>image/svg+xml</dc:format>
    <dc:creator>
     <cc:Agent>
      <dc:title>Matplotlib v3.9.2, https://matplotlib.org/</dc:title>
     </cc:Agent>
    </dc:creator>
   </cc:Work>
  </rdf:RDF>
 </metadata>
 <defs>
  <style type="text/css">*{stroke-linejoin: round; stroke-linecap: butt}</style>
 </defs>
 <g id="figure_1">
  <g id="patch_1">
   <path d="M 0 648 
L 1152 648 
L 1152 0 
L 0 0 
L 0 648 
z
" style="fill: none"/>
  </g>
  <g id="axes_1">
   <g id="PathCollection_1">
    <defs>
     <path id="m6c8bd3ffd1" d="M 0 2.738613 
C 0.726289 2.738613 1.422928 2.450055 1.936492 1.936492 
C 2.450055 1.422928 2.738613 0.726289 2.738613 0 
C 2.738613 -0.726289 2.450055 -1.422928 1.936492 -1.936492 
C 1.422928 -2.450055 0.726289 -2.738613 0 -2.738613 
C -0.726289 -2.738613 -1.422928 -2.450055 -1.936492 -1.936492 
C -2.450055 -1.422928 -2.738613 -0.726289 -2.738613 0 
C -2.738613 0.726289 -2.450055 1.422928 -1.936492 1.936492 
C -1.422928 2.450055 -0.726289 2.738613 0 2.738613 
z
" style="stroke: #ff0000"/>
    </defs>
    <g clip-path="url(#p1791ccf796)">
     <use xlink:href="#m6c8bd3ffd1" x="440.653091" y="445.5351" style="fill: #ff0000; stroke: #ff0000"/>
     <use xlink:href="#m6c8bd3ffd1" x="268.586182" y="481.9176" style="fill: #ff0000; stroke: #ff0000"/>
    </g>
   </g>
   <g id="text_1">
    <path d="M 448.206508 444.066043 
L 451.340883 440.081668 
L 452.565883 440.081668 
L 448.059633 445.559793 
L 448.206508 444.066043 
z
M 447.425258 440.081668 
L 448.420571 440.081668 
L 448.420571 447.181668 
L 447.425258 447.181668 
L 447.425258 440.081668 
z
M 449.387758 443.392606 
L 450.173696 442.664481 
L 452.864321 447.181668 
L 451.644008 447.181668 
L 449.387758 443.392606 
z
M 456.208462 443.656668 
L 456.203774 443.831668 
Q 456.081899 444.056668 455.835024 444.161356 
Q 455.588149 444.266043 455.252212 444.266043 
Q 454.744399 444.266043 454.358462 444.008231 
Q 453.972524 443.748855 453.760024 443.278543 
Q 453.547524 442.806668 453.547524 442.186355 
L 453.547524 442.181668 
Q 453.547524 441.492606 453.778774 441.005106 
Q 454.011587 440.516043 454.458462 440.262918 
Q 454.905337 440.008231 455.530337 440.008231 
Q 456.155337 440.008231 456.599087 440.267606 
Q 457.044399 440.52698 457.275649 441.020731 
Q 457.506899 441.512918 457.506899 442.206668 
L 457.506899 442.211356 
Q 457.506899 442.591043 457.408462 443.023856 
Q 457.311587 443.456668 457.131899 443.880106 
Q 457.102212 443.944168 457.072524 444.009793 
Q 457.044399 444.075418 457.010024 444.13948 
L 455.495962 447.181668 
L 454.420962 447.181668 
L 456.208462 443.656668 
z
M 455.530337 443.35823 
Q 455.999087 443.35823 456.255337 443.041043 
Q 456.511587 442.723856 456.511587 442.147293 
L 456.511587 442.142606 
Q 456.511587 441.581668 456.255337 441.273856 
Q 455.999087 440.966043 455.530337 440.966043 
Q 455.056899 440.966043 454.800649 441.273856 
Q 454.544399 441.581668 454.544399 442.147293 
L 454.544399 442.15198 
Q 454.544399 442.728543 454.800649 443.044168 
Q 455.056899 443.35823 455.530337 443.35823 
z
M 460.852797 447.255106 
Q 459.855922 447.255106 459.340297 446.723856 
Q 458.826235 446.191043 458.826235 445.237918 
L 458.826235 442.011355 
Q 458.826235 441.053543 459.343422 440.523856 
Q 459.86061 439.994168 460.852797 439.994168 
Q 461.84811 439.994168 462.363735 440.522293 
Q 462.87936 441.048856 462.87936 442.011355 
L 462.87936 445.237918 
Q 462.87936 446.195731 462.36061 446.725418 
Q 461.843422 447.255106 460.852797 447.255106 
z
M 460.852797 446.30823 
Q 461.37936 446.30823 461.630922 446.031668 
Q 461.882485 445.755106 461.882485 445.237918 
L 461.882485 442.011355 
Q 461.882485 441.492606 461.632485 441.217605 
Q 461.384047 440.941043 460.852797 440.941043 
Q 460.319985 440.941043 460.069985 441.217605 
Q 459.821547 441.492606 459.821547 442.011355 
L 459.821547 445.237918 
Q 459.821547 445.755106 460.07311 446.031668 
Q 460.324672 446.30823 460.852797 446.30823 
z
M 466.370376 447.255106 
Q 465.373501 447.255106 464.857876 446.723856 
Q 464.343813 446.191043 464.343813 445.237918 
L 464.343813 442.011355 
Q 464.343813 441.053543 464.861001 440.523856 
Q 465.378188 439.994168 466.370376 439.994168 
Q 467.365688 439.994168 467.881313 440.522293 
Q 468.396938 441.048856 468.396938 442.011355 
L 468.396938 445.237918 
Q 468.396938 446.195731 467.878188 446.725418 
Q 467.361001 447.255106 466.370376 447.255106 
z
M 466.370376 446.30823 
Q 466.896938 446.30823 467.148501 446.031668 
Q 467.400063 445.755106 467.400063 445.237918 
L 467.400063 442.011355 
Q 467.400063 441.492606 467.150063 441.217605 
Q 466.901626 440.941043 466.370376 440.941043 
Q 465.837563 440.941043 465.587563 441.217605 
Q 465.339126 441.492606 465.339126 442.011355 
L 465.339126 445.237918 
Q 465.339126 445.755106 465.590688 446.031668 
Q 465.842251 446.30823 466.370376 446.30823 
z
M 471.887954 447.255106 
Q 470.891079 447.255106 470.375454 446.723856 
Q 469.861391 446.191043 469.861391 445.237918 
L 469.861391 442.011355 
Q 469.861391 441.053543 470.378579 440.523856 
Q 470.895766 439.994168 471.887954 439.994168 
Q 472.883266 439.994168 473.398891 440.522293 
Q 473.914516 441.048856 473.914516 442.011355 
L 473.914516 445.237918 
Q 473.914516 446.195731 473.395766 446.725418 
Q 472.878579 447.255106 471.887954 447.255106 
z
M 471.887954 446.30823 
Q 472.414516 446.30823 472.666079 446.031668 
Q 472.917641 445.755106 472.917641 445.237918 
L 472.917641 442.011355 
Q 472.917641 441.492606 472.667641 441.217605 
Q 472.419204 440.941043 471.887954 440.941043 
Q 471.355141 440.941043 471.105141 441.217605 
Q 470.856704 441.492606 470.856704 442.011355 
L 470.856704 445.237918 
Q 470.856704 445.755106 471.108266 446.031668 
Q 471.359829 446.30823 471.887954 446.30823 
z
M 477.658657 447.255106 
Q 477.146157 447.255106 476.686782 447.158231 
Q 476.228969 447.059793 475.830532 446.864481 
Q 475.432094 446.669168 475.085219 446.375418 
L 475.085219 446.375418 
L 475.705532 445.614481 
L 475.705532 445.614481 
Q 476.111782 445.966043 476.599282 446.142606 
Q 477.088344 446.317606 477.658657 446.317606 
Q 478.430532 446.317606 478.855532 446.031668 
Q 479.280532 445.74573 479.280532 445.223856 
L 479.280532 445.219168 
Q 479.280532 444.847293 479.086782 444.630106 
Q 478.894594 444.412918 478.588344 444.30823 
Q 478.283657 444.203543 477.800844 444.114481 
Q 477.785219 444.109793 477.768032 444.109793 
Q 477.752407 444.109793 477.736782 444.105105 
L 477.663344 444.091043 
Q 476.950844 443.969168 476.503969 443.816043 
Q 476.057094 443.661356 475.739907 443.253543 
Q 475.422719 442.845731 475.422719 442.094168 
L 475.422719 442.08948 
Q 475.422719 441.430106 475.718032 440.96448 
Q 476.013344 440.497293 476.578969 440.253543 
Q 477.146157 440.008231 477.941469 440.008231 
Q 478.322719 440.008231 478.691469 440.092605 
Q 479.060219 440.175418 479.418032 440.33948 
Q 479.777407 440.501981 480.124282 440.750418 
L 480.124282 440.750418 
L 479.558657 441.542605 
L 479.558657 441.542605 
Q 479.152407 441.244168 478.749282 441.095731 
Q 478.347719 440.945731 477.941469 440.945731 
Q 477.214907 440.945731 476.811782 441.236356 
Q 476.408657 441.52698 476.408657 442.059793 
L 476.408657 442.064481 
Q 476.408657 442.430106 476.616469 442.641043 
Q 476.824282 442.850418 477.133657 442.950418 
Q 477.444594 443.050418 477.996157 443.158231 
Q 478.014907 443.162918 478.032094 443.166043 
Q 478.049282 443.167605 478.069594 443.172293 
Q 478.093032 443.176981 478.122719 443.18323 
Q 478.152407 443.187918 478.175844 443.192606 
Q 478.821157 443.323855 479.252407 443.505106 
Q 479.685219 443.684793 479.975844 444.087918 
Q 480.266469 444.491043 480.266469 445.189481 
L 480.266469 445.198855 
Q 480.266469 445.848856 479.958657 446.309793 
Q 479.650844 446.770731 479.066469 447.012918 
Q 478.483657 447.255106 477.658657 447.255106 
z
M 481.683071 440.081668 
L 482.678383 440.081668 
L 482.678383 447.181668 
L 481.683071 447.181668 
L 481.683071 440.081668 
z
M 482.179946 446.234793 
L 486.242446 446.234793 
L 486.242446 447.181668 
L 482.179946 447.181668 
L 482.179946 446.234793 
z
" style="fill: #ffffff; stroke: #000000"/>
    <path d="M 448.206508 444.066043 
L 451.340883 440.081668 
L 452.565883 440.081668 
L 448.059633 445.559793 
L 448.206508 444.066043 
z
M 447.425258 440.081668 
L 448.420571 440.081668 
L 448.420571 447.181668 
L 447.425258 447.181668 
L 447.425258 440.081668 
z
M 449.387758 443.392606 
L 450.173696 442.664481 
L 452.864321 447.181668 
L 451.644008 447.181668 
L 449.387758 443.392606 
z
M 456.208462 443.656668 
L 456.203774 443.831668 
Q 456.081899 444.056668 455.835024 444.161356 
Q 455.588149 444.266043 455.252212 444.266043 
Q 454.744399 444.266043 454.358462 444.008231 
Q 453.972524 443.748855 453.760024 443.278543 
Q 453.547524 442.806668 453.547524 442.186355 
L 453.547524 442.181668 
Q 453.547524 441.492606 453.778774 441.005106 
Q 454.011587 440.516043 454.458462 440.262918 
Q 454.905337 440.008231 455.530337 440.008231 
Q 456.155337 440.008231 456.599087 440.267606 
Q 457.044399 440.52698 457.275649 441.020731 
Q 457.506899 441.512918 457.506899 442.206668 
L 457.506899 442.211356 
Q 457.506899 442.591043 457.408462 443.023856 
Q 457.311587 443.456668 457.131899 443.880106 
Q 457.102212 443.944168 457.072524 444.009793 
Q 457.044399 444.075418 457.010024 444.13948 
L 455.495962 447.181668 
L 454.420962 447.181668 
L 456.208462 443.656668 
z
M 455.530337 443.35823 
Q 455.999087 443.35823 456.255337 443.041043 
Q 456.511587 442.723856 456.511587 442.147293 
L 456.511587 442.142606 
Q 456.511587 441.581668 456.255337 441.273856 
Q 455.999087 440.966043 455.530337 440.966043 
Q 455.056899 440.966043 454.800649 441.273856 
Q 454.544399 441.581668 454.544399 442.147293 
L 454.544399 442.15198 
Q 454.544399 442.728543 454.800649 443.044168 
Q 455.056899 443.35823 455.530337 443.35823 
z
M 460.852797 447.255106 
Q 459.855922 447.255106 459.340297 446.723856 
Q 458.826235 446.191043 458.826235 445.237918 
L 458.826235 442.011355 
Q 458.826235 441.053543 459.343422 440.523856 
Q 459.86061 439.994168 460.852797 439.994168 
Q 461.84811 439.994168 462.363735 440.522293 
Q 462.87936 441.048856 462.87936 442.011355 
L 462.87936 445.237918 
Q 462.87936 446.195731 462.36061 446.725418 
Q 461.843422 447.255106 460.852797 447.255106 
z
M 460.852797 446.30823 
Q 461.37936 446.30823 461.630922 446.031668 
Q 461.882485 445.755106 461.882485 445.237918 
L 461.882485 442.011355 
Q 461.882485 441.492606 461.632485 441.217605 
Q 461.384047 440.941043 460.852797 440.941043 
Q 460.319985 440.941043 460.069985 441.217605 
Q 459.821547 441.492606 459.821547 442.011355 
L 459.821547 445.237918 
Q 459.821547 445.755106 460.07311 446.031668 
Q 460.324672 446.30823 460.852797 446.30823 
z
M 466.370376 447.255106 
Q 465.373501 447.255106 464.857876 446.723856 
Q 464.343813 446.191043 464.343813 445.237918 
L 464.343813 442.011355 
Q 464.343813 441.053543 464.861001 440.523856 
Q 465.378188 439.994168 466.370376 439.994168 
Q 467.365688 439.994168 467.881313 440.522293 
Q 468.396938 441.048856 468.396938 442.011355 
L 468.396938 445.237918 
Q 468.396938 446.195731 467.878188 446.725418 
Q 467.361001 447.255106 466.370376 447.255106 
z
M 466.370376 446.30823 
Q 466.896938 446.30823 467.148501 446.031668 
Q 467.400063 445.755106 467.400063 445.237918 
L 467.400063 442.011355 
Q 467.400063 441.492606 467.150063 441.217605 
Q 466.901626 440.941043 466.370376 440.941043 
Q 465.837563 440.941043 465.587563 441.217605 
Q 465.339126 441.492606 465.339126 442.011355 
L 465.339126 445.237918 
Q 465.339126 445.755106 465.590688 446.031668 
Q 465.842251 446.30823 466.370376 446.30823 
z
M 471.887954 447.255106 
Q 470.891079 447.255106 470.375454 446.723856 
Q 469.861391 446.191043 469.861391 445.237918 
L 469.861391 442.011355 
Q 469.861391 441.053543 470.378579 440.523856 
Q 470.895766 439.994168 471.887954 439.994168 
Q 472.883266 439.994168 473.398891 440.522293 
Q 473.914516 441.048856 473.914516 442.011355 
L 473.914516 445.237918 
Q 473.914516 446.195731 473.395766 446.725418 
Q 472.878579 447.255106 471.887954 447.255106 
z
M 471.887954 446.30823 
Q 472.414516 446.30823 472.666079 446.031668 
Q 472.917641 445.755106 472.917641 445.237918 
L 472.917641 442.011355 
Q 472.917641 441.492606 472.667641 441.217605 
Q 472.419204 440.941043 471.887954 440.941043 
Q 471.355141 440.941043 471.105141 441.217605 
Q 470.856704 441.492606 470.856704 442.011355 
L 470.856704 445.237918 
Q 470.856704 445.755106 471.108266 446.031668 
Q 471.359829 446.30823 471.887954 446.30823 
z
M 477.658657 447.255106 
Q 477.146157 447.255106 476.686782 447.158231 
Q 476.228969 447.059793 475.830532 446.864481 
Q 475.432094 446.669168 475.085219 446.375418 
L 475.085219 446.375418 
L 475.705532 445.614481 
L 475.705532 445.614481 
Q 476.111782 445.966043 476.599282 446.142606 
Q 477.088344 446.317606 477.658657 446.317606 
Q 478.430532 446.317606 478.855532 446.031668 
Q 479.280532 445.74573 479.280532 445.223856 
L 479.280532 445.219168 
Q 479.280532 444.847293 479.086782 444.630106 
Q 478.894594 444.412918 478.588344 444.30823 
Q 478.283657 444.203543 477.800844 444.114481 
Q 477.785219 444.109793 477.768032 444.109793 
Q 477.752407 444.109793 477.736782 444.105105 
L 477.663344 444.091043 
Q 476.950844 443.969168 476.503969 443.816043 
Q 476.057094 443.661356 475.739907 443.253543 
Q 475.422719 442.845731 475.422719 442.094168 
L 475.422719 442.08948 
Q 475.422719 441.430106 475.718032 440.96448 
Q 476.013344 440.497293 476.578969 440.253543 
Q 477.146157 440.008231 477.941469 440.008231 
Q 478.322719 440.008231 478.691469 440.092605 
Q 479.060219 440.175418 479.418032 440.33948 
Q 479.777407 440.501981 480.124282 440.750418 
L 480.124282 440.750418 
L 479.558657 441.542605 
L 479.558657 441.542605 
Q 479.152407 441.244168 478.749282 441.095731 
Q 478.347719 440.945731 477.941469 440.945731 
Q 477.214907 440.945731 476.811782 441.236356 
Q 476.408657 441.52698 476.408657 442.059793 
L 476.408657 442.064481 
Q 476.408657 442.430106 476.616469 442.641043 
Q 476.824282 442.850418 477.133657 442.950418 
Q 477.444594 443.050418 477.996157 443.158231 
Q 478.014907 443.162918 478.032094 443.166043 
Q 478.049282 443.167605 478.069594 443.172293 
Q 478.093032 443.176981 478.122719 443.18323 
Q 478.152407 443.187918 478.175844 443.192606 
Q 478.821157 443.323855 479.252407 443.505106 
Q 479.685219 443.684793 479.975844 444.087918 
Q 480.266469 444.491043 480.266469 445.189481 
L 480.266469 445.198855 
Q 480.266469 445.848856 479.958657 446.309793 
Q 479.650844 446.770731 479.066469 447.012918 
Q 478.483657 447.255106 477.658657 447.255106 
z
M 481.683071 440.081668 
L 482.678383 440.081668 
L 482.678383 447.181668 
L 481.683071 447.181668 
L 481.683071 440.081668 
z
M 482.179946 446.234793 
L 486.242446 446.234793 
L 486.242446 447.181668 
L 482.179946 447.181668 
L 482.179946 446.234793 
z
" style="fill: #ffffff"/>
   </g>
   <g id="text_2">
    <path d="M 276.139599 480.448543 
L 279.273974 476.464168 
L 280.498974 476.464168 
L 275.992724 481.942293 
L 276.139599 480.448543 
z
M 275.358349 476.464168 
L 276.353662 476.464168 
L 276.353662 483.564168 
L 275.358349 483.564168 
L 275.358349 476.464168 
z
M 277.320849 479.775105 
L 278.106787 479.046981 
L 280.797412 483.564168 
L 279.577099 483.564168 
L 277.320849 479.775105 
z
M 284.141552 480.039168 
L 284.136865 480.214168 
Q 284.01499 480.439168 283.768115 480.543856 
Q 283.52124 480.648543 283.185302 480.648543 
Q 282.67749 480.648543 282.291552 480.390731 
Q 281.905615 480.131355 281.693115 479.661043 
Q 281.480615 479.189168 281.480615 478.568855 
L 281.480615 478.564168 
Q 281.480615 477.875106 281.711865 477.387606 
Q 281.944677 476.898543 282.391552 476.645418 
Q 282.838427 476.390731 283.463427 476.390731 
Q 284.088427 476.390731 284.532177 476.650105 
Q 284.97749 476.90948 285.20874 477.403231 
Q 285.43999 477.895418 285.43999 478.589168 
L 285.43999 478.593856 
Q 285.43999 478.973543 285.341552 479.406356 
Q 285.244677 479.839168 285.06499 480.262606 
Q 285.035302 480.326668 285.005615 480.392293 
Q 284.97749 480.457918 284.943115 480.52198 
L 283.429052 483.564168 
L 282.354052 483.564168 
L 284.141552 480.039168 
z
M 283.463427 479.74073 
Q 283.932177 479.74073 284.188427 479.423543 
Q 284.444677 479.106356 284.444677 478.529793 
L 284.444677 478.525105 
Q 284.444677 477.964168 284.188427 477.656356 
Q 283.932177 477.348543 283.463427 477.348543 
Q 282.98999 477.348543 282.73374 477.656356 
Q 282.47749 477.964168 282.47749 478.529793 
L 282.47749 478.53448 
Q 282.47749 479.111043 282.73374 479.426668 
Q 282.98999 479.74073 283.463427 479.74073 
z
M 288.785888 483.637606 
Q 287.789013 483.637606 287.273388 483.106356 
Q 286.759326 482.573543 286.759326 481.620418 
L 286.759326 478.393855 
Q 286.759326 477.436043 287.276513 476.906356 
Q 287.793701 476.376668 288.785888 476.376668 
Q 289.781201 476.376668 290.296826 476.904793 
Q 290.812451 477.431355 290.812451 478.393855 
L 290.812451 481.620418 
Q 290.812451 482.578231 290.293701 483.107918 
Q 289.776513 483.637606 288.785888 483.637606 
z
M 288.785888 482.69073 
Q 289.312451 482.69073 289.564013 482.414168 
Q 289.815576 482.137606 289.815576 481.620418 
L 289.815576 478.393855 
Q 289.815576 477.875106 289.565576 477.600105 
Q 289.317138 477.323543 288.785888 477.323543 
Q 288.253076 477.323543 288.003076 477.600105 
Q 287.754638 477.875106 287.754638 478.393855 
L 287.754638 481.620418 
Q 287.754638 482.137606 288.006201 482.414168 
Q 288.257763 482.69073 288.785888 482.69073 
z
M 294.303467 483.637606 
Q 293.306592 483.637606 292.790967 483.106356 
Q 292.276904 482.573543 292.276904 481.620418 
L 292.276904 478.393855 
Q 292.276904 477.436043 292.794092 476.906356 
Q 293.311279 476.376668 294.303467 476.376668 
Q 295.298779 476.376668 295.814404 476.904793 
Q 296.330029 477.431355 296.330029 478.393855 
L 296.330029 481.620418 
Q 296.330029 482.578231 295.811279 483.107918 
Q 295.294092 483.637606 294.303467 483.637606 
z
M 294.303467 482.69073 
Q 294.830029 482.69073 295.081592 482.414168 
Q 295.333154 482.137606 295.333154 481.620418 
L 295.333154 478.393855 
Q 295.333154 477.875106 295.083154 477.600105 
Q 294.834717 477.323543 294.303467 477.323543 
Q 293.770654 477.323543 293.520654 477.600105 
Q 293.272217 477.875106 293.272217 478.393855 
L 293.272217 481.620418 
Q 293.272217 482.137606 293.523779 482.414168 
Q 293.775342 482.69073 294.303467 482.69073 
z
M 299.821045 483.637606 
Q 298.82417 483.637606 298.308545 483.106356 
Q 297.794482 482.573543 297.794482 481.620418 
L 297.794482 478.393855 
Q 297.794482 477.436043 298.31167 476.906356 
Q 298.828857 476.376668 299.821045 476.376668 
Q 300.816357 476.376668 301.331982 476.904793 
Q 301.847607 477.431355 301.847607 478.393855 
L 301.847607 481.620418 
Q 301.847607 482.578231 301.328857 483.107918 
Q 300.81167 483.637606 299.821045 483.637606 
z
M 299.821045 482.69073 
Q 300.347607 482.69073 300.59917 482.414168 
Q 300.850732 482.137606 300.850732 481.620418 
L 300.850732 478.393855 
Q 300.850732 477.875106 300.600732 477.600105 
Q 300.352295 477.323543 299.821045 477.323543 
Q 299.288232 477.323543 299.038232 477.600105 
Q 298.789795 477.875106 298.789795 478.393855 
L 298.789795 481.620418 
Q 298.789795 482.137606 299.041357 482.414168 
Q 299.29292 482.69073 299.821045 482.69073 
z
M 305.591748 483.637606 
Q 305.079248 483.637606 304.619873 483.54073 
Q 304.16206 483.442293 303.763623 483.246981 
Q 303.365185 483.051668 303.01831 482.757918 
L 303.01831 482.757918 
L 303.638623 481.996981 
L 303.638623 481.996981 
Q 304.044873 482.348543 304.532373 482.525105 
Q 305.021435 482.700106 305.591748 482.700106 
Q 306.363623 482.700106 306.788623 482.414168 
Q 307.213623 482.12823 307.213623 481.606356 
L 307.213623 481.601668 
Q 307.213623 481.229793 307.019873 481.012606 
Q 306.827685 480.795418 306.521435 480.69073 
Q 306.216748 480.586043 305.733935 480.496981 
Q 305.71831 480.492293 305.701123 480.492293 
Q 305.685498 480.492293 305.669873 480.487605 
L 305.596435 480.473543 
Q 304.883935 480.351668 304.43706 480.198543 
Q 303.990185 480.043856 303.672998 479.636043 
Q 303.35581 479.22823 303.35581 478.476668 
L 303.35581 478.47198 
Q 303.35581 477.812606 303.651123 477.34698 
Q 303.946435 476.879793 304.51206 476.636043 
Q 305.079248 476.390731 305.87456 476.390731 
Q 306.25581 476.390731 306.62456 476.475105 
Q 306.99331 476.557918 307.351123 476.72198 
Q 307.710498 476.88448 308.057373 477.132918 
L 308.057373 477.132918 
L 307.491748 477.925105 
L 307.491748 477.925105 
Q 307.085498 477.626668 306.682373 477.47823 
Q 306.28081 477.328231 305.87456 477.328231 
Q 305.147998 477.328231 304.744873 477.618855 
Q 304.341748 477.90948 304.341748 478.442293 
L 304.341748 478.44698 
Q 304.341748 478.812606 304.54956 479.023543 
Q 304.757373 479.232918 305.066748 479.332918 
Q 305.377685 479.432918 305.929248 479.54073 
Q 305.947998 479.545418 305.965185 479.548543 
Q 305.982373 479.550105 306.002685 479.554793 
Q 306.026123 479.559481 306.05581 479.56573 
Q 306.085498 479.570418 306.108935 479.575106 
Q 306.754248 479.706355 307.185498 479.887606 
Q 307.61831 480.067293 307.908935 480.470418 
Q 308.19956 480.873543 308.19956 481.57198 
L 308.19956 481.581355 
Q 308.19956 482.231356 307.891748 482.692293 
Q 307.583935 483.153231 306.99956 483.395418 
Q 306.416748 483.637606 305.591748 483.637606 
z
M 309.616162 476.464168 
L 310.611474 476.464168 
L 310.611474 483.564168 
L 309.616162 483.564168 
L 309.616162 476.464168 
z
M 310.113037 482.617293 
L 314.175537 482.617293 
L 314.175537 483.564168 
L 310.113037 483.564168 
L 310.113037 482.617293 
z
" style="fill: #ffffff; stroke: #000000"/>
    <path d="M 276.139599 480.448543 
L 279.273974 476.464168 
L 280.498974 476.464168 
L 275.992724 481.942293 
L 276.139599 480.448543 
z
M 275.358349 476.464168 
L 276.353662 476.464168 
L 276.353662 483.564168 
L 275.358349 483.564168 
L 275.358349 476.464168 
z
M 277.320849 479.775105 
L 278.106787 479.046981 
L 280.797412 483.564168 
L 279.577099 483.564168 
L 277.320849 479.775105 
z
M 284.141552 480.039168 
L 284.136865 480.214168 
Q 284.01499 480.439168 283.768115 480.543856 
Q 283.52124 480.648543 283.185302 480.648543 
Q 282.67749 480.648543 282.291552 480.390731 
Q 281.905615 480.131355 281.693115 479.661043 
Q 281.480615 479.189168 281.480615 478.568855 
L 281.480615 478.564168 
Q 281.480615 477.875106 281.711865 477.387606 
Q 281.944677 476.898543 282.391552 476.645418 
Q 282.838427 476.390731 283.463427 476.390731 
Q 284.088427 476.390731 284.532177 476.650105 
Q 284.97749 476.90948 285.20874 477.403231 
Q 285.43999 477.895418 285.43999 478.589168 
L 285.43999 478.593856 
Q 285.43999 478.973543 285.341552 479.406356 
Q 285.244677 479.839168 285.06499 480.262606 
Q 285.035302 480.326668 285.005615 480.392293 
Q 284.97749 480.457918 284.943115 480.52198 
L 283.429052 483.564168 
L 282.354052 483.564168 
L 284.141552 480.039168 
z
M 283.463427 479.74073 
Q 283.932177 479.74073 284.188427 479.423543 
Q 284.444677 479.106356 284.444677 478.529793 
L 284.444677 478.525105 
Q 284.444677 477.964168 284.188427 477.656356 
Q 283.932177 477.348543 283.463427 477.348543 
Q 282.98999 477.348543 282.73374 477.656356 
Q 282.47749 477.964168 282.47749 478.529793 
L 282.47749 478.53448 
Q 282.47749 479.111043 282.73374 479.426668 
Q 282.98999 479.74073 283.463427 479.74073 
z
M 288.785888 483.637606 
Q 287.789013 483.637606 287.273388 483.106356 
Q 286.759326 482.573543 286.759326 481.620418 
L 286.759326 478.393855 
Q 286.759326 477.436043 287.276513 476.906356 
Q 287.793701 476.376668 288.785888 476.376668 
Q 289.781201 476.376668 290.296826 476.904793 
Q 290.812451 477.431355 290.812451 478.393855 
L 290.812451 481.620418 
Q 290.812451 482.578231 290.293701 483.107918 
Q 289.776513 483.637606 288.785888 483.637606 
z
M 288.785888 482.69073 
Q 289.312451 482.69073 289.564013 482.414168 
Q 289.815576 482.137606 289.815576 481.620418 
L 289.815576 478.393855 
Q 289.815576 477.875106 289.565576 477.600105 
Q 289.317138 477.323543 288.785888 477.323543 
Q 288.253076 477.323543 288.003076 477.600105 
Q 287.754638 477.875106 287.754638 478.393855 
L 287.754638 481.620418 
Q 287.754638 482.137606 288.006201 482.414168 
Q 288.257763 482.69073 288.785888 482.69073 
z
M 294.303467 483.637606 
Q 293.306592 483.637606 292.790967 483.106356 
Q 292.276904 482.573543 292.276904 481.620418 
L 292.276904 478.393855 
Q 292.276904 477.436043 292.794092 476.906356 
Q 293.311279 476.376668 294.303467 476.376668 
Q 295.298779 476.376668 295.814404 476.904793 
Q 296.330029 477.431355 296.330029 478.393855 
L 296.330029 481.620418 
Q 296.330029 482.578231 295.811279 483.107918 
Q 295.294092 483.637606 294.303467 483.637606 
z
M 294.303467 482.69073 
Q 294.830029 482.69073 295.081592 482.414168 
Q 295.333154 482.137606 295.333154 481.620418 
L 295.333154 478.393855 
Q 295.333154 477.875106 295.083154 477.600105 
Q 294.834717 477.323543 294.303467 477.323543 
Q 293.770654 477.323543 293.520654 477.600105 
Q 293.272217 477.875106 293.272217 478.393855 
L 293.272217 481.620418 
Q 293.272217 482.137606 293.523779 482.414168 
Q 293.775342 482.69073 294.303467 482.69073 
z
M 299.821045 483.637606 
Q 298.82417 483.637606 298.308545 483.106356 
Q 297.794482 482.573543 297.794482 481.620418 
L 297.794482 478.393855 
Q 297.794482 477.436043 298.31167 476.906356 
Q 298.828857 476.376668 299.821045 476.376668 
Q 300.816357 476.376668 301.331982 476.904793 
Q 301.847607 477.431355 301.847607 478.393855 
L 301.847607 481.620418 
Q 301.847607 482.578231 301.328857 483.107918 
Q 300.81167 483.637606 299.821045 483.637606 
z
M 299.821045 482.69073 
Q 300.347607 482.69073 300.59917 482.414168 
Q 300.850732 482.137606 300.850732 481.620418 
L 300.850732 478.393855 
Q 300.850732 477.875106 300.600732 477.600105 
Q 300.352295 477.323543 299.821045 477.323543 
Q 299.288232 477.323543 299.038232 477.600105 
Q 298.789795 477.875106 298.789795 478.393855 
L 298.789795 481.620418 
Q 298.789795 482.137606 299.041357 482.414168 
Q 299.29292 482.69073 299.821045 482.69073 
z
M 305.591748 483.637606 
Q 305.079248 483.637606 304.619873 483.54073 
Q 304.16206 483.442293 303.763623 483.246981 
Q 303.365185 483.051668 303.01831 482.757918 
L 303.01831 482.757918 
L 303.638623 481.996981 
L 303.638623 481.996981 
Q 304.044873 482.348543 304.532373 482.525105 
Q 305.021435 482.700106 305.591748 482.700106 
Q 306.363623 482.700106 306.788623 482.414168 
Q 307.213623 482.12823 307.213623 481.606356 
L 307.213623 481.601668 
Q 307.213623 481.229793 307.019873 481.012606 
Q 306.827685 480.795418 306.521435 480.69073 
Q 306.216748 480.586043 305.733935 480.496981 
Q 305.71831 480.492293 305.701123 480.492293 
Q 305.685498 480.492293 305.669873 480.487605 
L 305.596435 480.473543 
Q 304.883935 480.351668 304.43706 480.198543 
Q 303.990185 480.043856 303.672998 479.636043 
Q 303.35581 479.22823 303.35581 478.476668 
L 303.35581 478.47198 
Q 303.35581 477.812606 303.651123 477.34698 
Q 303.946435 476.879793 304.51206 476.636043 
Q 305.079248 476.390731 305.87456 476.390731 
Q 306.25581 476.390731 306.62456 476.475105 
Q 306.99331 476.557918 307.351123 476.72198 
Q 307.710498 476.88448 308.057373 477.132918 
L 308.057373 477.132918 
L 307.491748 477.925105 
L 307.491748 477.925105 
Q 307.085498 477.626668 306.682373 477.47823 
Q 306.28081 477.328231 305.87456 477.328231 
Q 305.147998 477.328231 304.744873 477.618855 
Q 304.341748 477.90948 304.341748 478.442293 
L 304.341748 478.44698 
Q 304.341748 478.812606 304.54956 479.023543 
Q 304.757373 479.232918 305.066748 479.332918 
Q 305.377685 479.432918 305.929248 479.54073 
Q 305.947998 479.545418 305.965185 479.548543 
Q 305.982373 479.550105 306.002685 479.554793 
Q 306.026123 479.559481 306.05581 479.56573 
Q 306.085498 479.570418 306.108935 479.575106 
Q 306.754248 479.706355 307.185498 479.887606 
Q 307.61831 480.067293 307.908935 480.470418 
Q 308.19956 480.873543 308.19956 481.57198 
L 308.19956 481.581355 
Q 308.19956 482.231356 307.891748 482.692293 
Q 307.583935 483.153231 306.99956 483.395418 
Q 306.416748 483.637606 305.591748 483.637606 
z
M 309.616162 476.464168 
L 310.611474 476.464168 
L 310.611474 483.564168 
L 309.616162 483.564168 
L 309.616162 476.464168 
z
M 310.113037 482.617293 
L 314.175537 482.617293 
L 314.175537 483.564168 
L 310.113037 483.564168 
L 310.113037 482.617293 
z
" style="fill: #ffffff"/>
   </g>
  </g>
 </g>
 <defs>
  <clipPath id="p1791ccf796">
   <rect x="144" y="77.76" width="892.8" height="498.96"/>
  </clipPath>
 </defs>
</svg>
