<?xml version="1.0" encoding="utf-8" standalone="no"?>
<!DOCTYPE svg PUBLIC "-//W3C//DTD SVG 1.1//EN"
  "http://www.w3.org/Graphics/SVG/1.1/DTD/svg11.dtd">
<svg xmlns:xlink="http://www.w3.org/1999/xlink" width="1152pt" height="648pt" viewBox="0 0 1152 648" xmlns="http://www.w3.org/2000/svg" version="1.1">
 <metadata>
  <rdf:RDF xmlns:dc="http://purl.org/dc/elements/1.1/" xmlns:cc="http://creativecommons.org/ns#" xmlns:rdf="http://www.w3.org/1999/02/22-rdf-syntax-ns#">
   <cc:Work>
    <dc:type rdf:resource="http://purl.org/dc/dcmitype/StillImage"/>
    <dc:date>2024-11-15T16:34:25.451406</dc:date>
    <dc:format>image/svg+xml</dc:format>
    <dc:creator>
     <cc:Agent>
      <dc:title>Matplotlib v3.9.2, https://matplotlib.org/</dc:title>
     </cc:Agent>
    </dc:creator>
   </cc:Work>
  </rdf:RDF>
 </metadata>
 <defs>
  <style type="text/css">*{stroke-linejoin: round; stroke-linecap: butt}</style>
 </defs>
 <g id="figure_1">
  <g id="patch_1">
   <path d="M 0 648 
L 1152 648 
L 1152 0 
L 0 0 
L 0 648 
z
" style="fill: none"/>
  </g>
  <g id="axes_1">
   <g id="line2d_1">
    <path d="M 196.350545 507.88788 
L 199.363438 504.83367 
L 202.376331 501.834338 
L 205.389223 498.888901 
L 208.402116 495.996391 
L 211.415008 493.15586 
L 214.427901 490.366374 
L 217.440793 487.627019 
L 220.453686 484.936894 
L 223.466579 482.295116 
L 226.479471 479.700818 
L 229.492364 477.153148 
L 232.505256 474.651269 
L 235.518149 472.194359 
L 238.531041 469.781611 
L 241.543934 467.412233 
L 244.556826 465.085446 
L 247.569719 462.800485 
L 250.582612 460.5566 
L 253.595504 458.353054 
L 256.608397 456.189121 
L 259.621289 454.064091 
L 262.634182 451.977266 
L 265.647074 449.927959 
L 268.659967 447.915496 
L 271.67286 445.939217 
L 274.685752 443.99847 
L 277.698645 442.092619 
L 280.711537 440.221037 
L 283.72443 438.383107 
L 286.737322 436.578226 
L 289.750215 434.805799 
L 292.763107 433.065245 
L 295.776 431.35599 
L 298.788893 429.677472 
L 301.801785 428.029139 
L 304.814678 426.410449 
L 307.82757 424.820868 
L 310.840463 423.259875 
L 313.853355 421.726956 
L 316.866248 420.221605 
L 319.87914 418.743328 
L 322.892033 417.291639 
L 325.904926 415.866058 
L 328.917818 414.466118 
L 331.930711 413.091358 
L 334.943603 411.741324 
L 337.956496 410.415573 
L 340.969388 409.113669 
L 343.982281 407.835182 
L 346.995174 406.579691 
L 350.008066 405.346784 
L 353.020959 404.136054 
L 356.033851 402.947103 
L 359.046744 401.77954 
L 362.059636 400.632979 
L 365.072529 399.507044 
L 368.085421 398.401363 
L 371.098314 397.315572 
L 374.111207 396.249315 
L 377.124099 395.202239 
L 380.136992 394.174 
L 383.149884 393.164259 
L 386.162777 392.172683 
L 389.175669 391.198947 
L 392.188562 390.242729 
L 395.201455 389.303714 
L 398.214347 388.381593 
L 401.22724 387.476062 
L 404.240132 386.586823 
L 407.253025 385.713583 
L 410.265917 384.856053 
L 413.27881 384.013953 
L 416.291702 383.187004 
L 419.304595 382.374933 
L 422.317488 381.577474 
L 425.33038 380.794363 
L 428.343273 380.025343 
L 431.356165 379.270159 
L 434.369058 378.528564 
L 437.38195 377.800312 
L 440.394843 377.085164 
L 443.407736 376.382884 
L 446.420628 375.69324 
L 449.433521 375.016006 
L 452.446413 374.350958 
L 455.459306 373.697877 
L 458.472198 373.056547 
L 461.485091 372.426758 
L 464.497983 371.808301 
L 467.510876 371.200974 
L 470.523769 370.604575 
L 473.536661 370.018908 
L 476.549554 369.44378 
L 479.562446 368.879002 
L 482.575339 368.324387 
L 485.588231 367.779752 
L 488.601124 367.244918 
L 491.614017 366.719709 
L 494.626909 366.203951 
" clip-path="url(#p5b4b65facb)" style="fill: none; stroke: #f27130; stroke-width: 3; stroke-linecap: round"/>
   </g>
   <g id="text_1">
    <path d="M 502.072514 366.903644 
L 503.678764 366.903644 
Q 504.464702 366.903644 504.895952 366.495832 
Q 505.328764 366.088019 505.328764 365.345832 
L 505.328764 363.255207 
Q 505.328764 362.513019 504.895952 362.105207 
Q 504.464702 361.697394 503.678764 361.697394 
L 502.072514 361.697394 
L 502.072514 360.750519 
L 503.649077 360.750519 
Q 504.503764 360.750519 505.108452 361.048957 
Q 505.714702 361.345832 506.031889 361.917707 
Q 506.349077 362.489582 506.349077 363.294269 
L 506.349077 365.306769 
Q 506.349077 366.111457 506.031889 366.683332 
Q 505.714702 367.255207 505.106889 367.553644 
Q 504.499077 367.850519 503.644389 367.850519 
L 502.072514 367.850519 
L 502.072514 366.903644 
z
M 501.399077 360.750519 
L 502.394389 360.750519 
L 502.394389 367.850519 
L 501.399077 367.850519 
L 501.399077 360.750519 
z
M 509.894389 367.923957 
Q 509.250639 367.923957 508.761577 367.680207 
Q 508.274077 367.434894 508.006889 366.988019 
Q 507.741264 366.541144 507.741264 365.950519 
L 507.741264 365.833332 
Q 507.741264 365.302082 508.006889 364.833332 
Q 508.274077 364.364582 508.717827 364.125519 
Q 508.341264 363.919269 508.114702 363.531769 
Q 507.888139 363.142707 507.888139 362.713019 
L 507.888139 362.542707 
Q 507.888139 361.986457 508.136577 361.564582 
Q 508.385014 361.141144 508.839702 360.909894 
Q 509.294389 360.677082 509.894389 360.677082 
Q 510.494389 360.677082 510.949077 360.909894 
Q 511.403764 361.141144 511.652202 361.564582 
Q 511.900639 361.986457 511.900639 362.542707 
L 511.900639 362.713019 
Q 511.900639 363.153644 511.669389 363.539582 
Q 511.438139 363.923957 511.056889 364.125519 
Q 511.505327 364.369269 511.775639 364.836457 
Q 512.047514 365.302082 512.047514 365.833332 
L 512.047514 365.950519 
Q 512.047514 366.541144 511.781889 366.988019 
Q 511.516264 367.434894 511.027202 367.680207 
Q 510.539702 367.923957 509.894389 367.923957 
z
M 509.894389 366.966144 
Q 510.241264 366.966144 510.503764 366.830207 
Q 510.767827 366.692707 510.911577 366.447394 
Q 511.056889 366.200519 511.056889 365.877082 
L 511.056889 365.809894 
Q 511.056889 365.481769 510.911577 365.236457 
Q 510.767827 364.989582 510.503764 364.853644 
Q 510.241264 364.716144 509.894389 364.716144 
Q 509.547514 364.716144 509.283452 364.853644 
Q 509.020952 364.989582 508.875639 365.238019 
Q 508.731889 365.486457 508.731889 365.814582 
L 508.731889 365.888019 
Q 508.731889 366.209894 508.875639 366.453644 
Q 509.020952 366.697394 509.283452 366.831769 
Q 509.547514 366.966144 509.894389 366.966144 
z
M 509.894389 363.758332 
Q 510.192827 363.758332 510.420952 363.630207 
Q 510.650639 363.500519 510.777202 363.261457 
Q 510.905327 363.020832 510.905327 362.708332 
L 510.905327 362.641144 
Q 510.905327 362.342707 510.777202 362.113019 
Q 510.650639 361.883332 510.420952 361.759894 
Q 510.192827 361.634894 509.894389 361.634894 
Q 509.595952 361.634894 509.366264 361.759894 
Q 509.138139 361.883332 509.010014 362.113019 
Q 508.883452 362.342707 508.883452 362.645832 
L 508.883452 362.719269 
Q 508.883452 363.025519 509.010014 363.263019 
Q 509.138139 363.500519 509.366264 363.630207 
Q 509.595952 363.758332 509.894389 363.758332 
z
M 515.275639 367.923957 
Q 514.680327 367.923957 514.225639 367.706769 
Q 513.770952 367.489582 513.494389 367.077082 
Q 513.219389 366.664582 513.145952 366.083332 
L 513.145952 366.083332 
L 514.161577 366.083332 
L 514.161577 366.083332 
Q 514.205327 366.384894 514.352202 366.580207 
Q 514.499077 366.775519 514.730327 366.870832 
Q 514.963139 366.966144 515.275639 366.966144 
Q 515.767827 366.966144 516.041264 366.703644 
Q 516.314702 366.439582 516.314702 365.961457 
L 516.314702 365.745832 
Q 516.314702 365.213019 516.055327 364.923957 
Q 515.797514 364.633332 515.324077 364.633332 
L 514.820952 364.633332 
L 514.820952 363.684894 
L 515.324077 363.684894 
Q 515.739702 363.684894 515.967827 363.436457 
Q 516.197514 363.188019 516.197514 362.733332 
L 516.197514 362.513019 
Q 516.197514 362.094269 515.955327 361.864582 
Q 515.714702 361.634894 515.270952 361.634894 
Q 515.016264 361.634894 514.816264 361.730207 
Q 514.616264 361.825519 514.477202 362.023957 
Q 514.338139 362.220832 514.274077 362.517707 
L 514.274077 362.517707 
L 513.263139 362.517707 
L 513.263139 362.517707 
Q 513.361577 361.938019 513.631889 361.522394 
Q 513.903764 361.106769 514.317827 360.892707 
Q 514.733452 360.677082 515.270952 360.677082 
Q 516.188139 360.677082 516.691264 361.161457 
Q 517.194389 361.644269 517.194389 362.523957 
L 517.194389 362.641144 
Q 517.194389 363.172394 516.905327 363.567707 
Q 516.617827 363.963019 516.091264 364.144269 
Q 516.672514 364.270832 516.991264 364.716144 
Q 517.311577 365.159894 517.311577 365.848957 
L 517.311577 365.966144 
Q 517.311577 366.586457 517.072514 367.025519 
Q 516.833452 367.464582 516.375639 367.694269 
Q 515.919389 367.923957 515.275639 367.923957 
z
M 520.75435 367.923957 
Q 519.757475 367.923957 519.24185 367.392707 
Q 518.727788 366.859894 518.727788 365.906769 
L 518.727788 362.680207 
Q 518.727788 361.722394 519.244975 361.192707 
Q 519.762163 360.663019 520.75435 360.663019 
Q 521.749663 360.663019 522.265288 361.191144 
Q 522.780913 361.717707 522.780913 362.680207 
L 522.780913 365.906769 
Q 522.780913 366.864582 522.262163 367.394269 
Q 521.744975 367.923957 520.75435 367.923957 
z
M 520.75435 366.977082 
Q 521.280913 366.977082 521.532475 366.700519 
Q 521.784038 366.423957 521.784038 365.906769 
L 521.784038 362.680207 
Q 521.784038 362.161457 521.534038 361.886457 
Q 521.2856 361.609894 520.75435 361.609894 
Q 520.221538 361.609894 519.971538 361.886457 
Q 519.7231 362.161457 519.7231 362.680207 
L 519.7231 365.906769 
Q 519.7231 366.423957 519.974663 366.700519 
Q 520.226225 366.977082 520.75435 366.977082 
z
M 526.271928 367.923957 
Q 525.275053 367.923957 524.759428 367.392707 
Q 524.245366 366.859894 524.245366 365.906769 
L 524.245366 362.680207 
Q 524.245366 361.722394 524.762553 361.192707 
Q 525.279741 360.663019 526.271928 360.663019 
Q 527.267241 360.663019 527.782866 361.191144 
Q 528.298491 361.717707 528.298491 362.680207 
L 528.298491 365.906769 
Q 528.298491 366.864582 527.779741 367.394269 
Q 527.262553 367.923957 526.271928 367.923957 
z
M 526.271928 366.977082 
Q 526.798491 366.977082 527.050053 366.700519 
Q 527.301616 366.423957 527.301616 365.906769 
L 527.301616 362.680207 
Q 527.301616 362.161457 527.051616 361.886457 
Q 526.803178 361.609894 526.271928 361.609894 
Q 525.739116 361.609894 525.489116 361.886457 
Q 525.240678 362.161457 525.240678 362.680207 
L 525.240678 365.906769 
Q 525.240678 366.423957 525.492241 366.700519 
Q 525.743803 366.977082 526.271928 366.977082 
z
M 534.010991 367.923957 
Q 533.225053 367.923957 532.665678 367.614582 
Q 532.106303 367.303644 531.812553 366.711457 
Q 531.520366 366.117707 531.520366 365.281769 
L 531.520366 360.750519 
L 532.517241 360.750519 
L 532.517241 365.316144 
Q 532.517241 366.092707 532.907866 366.517707 
Q 533.298491 366.942707 534.010991 366.942707 
Q 534.728178 366.942707 535.120366 366.517707 
Q 535.514116 366.092707 535.514116 365.316144 
L 535.514116 360.750519 
L 536.510991 360.750519 
L 536.510991 365.281769 
Q 536.510991 366.117707 536.217241 366.711457 
Q 535.925053 367.303644 535.362553 367.614582 
Q 534.801616 367.923957 534.010991 367.923957 
z
M 539.069975 366.541144 
Q 539.069975 366.727082 539.149663 366.827082 
Q 539.230913 366.927082 539.376225 366.927082 
L 539.844975 366.927082 
L 539.844975 367.875519 
L 539.259038 367.875519 
Q 538.693413 367.875519 538.382475 367.523957 
Q 538.0731 367.172394 538.0731 366.531769 
L 538.0731 360.750519 
L 539.069975 360.750519 
L 539.069975 366.541144 
z
M 542.287358 367.875519 
Q 541.671733 367.875519 541.385795 367.536457 
Q 541.099858 367.195832 541.099858 366.531769 
L 541.099858 361.306769 
L 542.096733 361.306769 
L 542.096733 366.541144 
Q 542.096733 366.727082 542.17017 366.827082 
Q 542.243608 366.927082 542.384233 366.927082 
L 542.86392 366.927082 
L 542.86392 367.875519 
L 542.287358 367.875519 
z
M 540.577983 362.781769 
L 542.86392 362.781769 
L 542.86392 363.680207 
L 540.577983 363.680207 
L 540.577983 362.781769 
z
M 544.230327 362.781769 
L 545.227202 362.781769 
L 545.227202 367.850519 
L 544.230327 367.850519 
L 544.230327 362.781769 
z
M 547.017827 363.983332 
Q 546.886577 363.822394 546.686577 363.739582 
Q 546.486577 363.656769 546.222514 363.656769 
Q 545.749077 363.656769 545.488139 363.917707 
Q 545.227202 364.178644 545.227202 364.642707 
L 545.124077 363.666144 
Q 545.358452 363.211457 545.728764 362.959894 
Q 546.100639 362.708332 546.549077 362.708332 
Q 546.895952 362.708332 547.177202 362.808332 
Q 547.458452 362.908332 547.667827 363.103644 
L 547.017827 363.983332 
z
M 551.358842 364.638019 
Q 551.358842 364.139582 551.093217 363.864582 
Q 550.827592 363.588019 550.33853 363.588019 
Q 550.035405 363.588019 549.74478 363.681769 
Q 549.455717 363.773957 549.230717 363.939582 
L 548.502592 363.441144 
Q 548.791655 363.094269 549.261967 362.902082 
Q 549.733842 362.708332 550.308842 362.708332 
Q 550.940092 362.708332 551.38853 362.931769 
Q 551.83853 363.153644 552.072905 363.575519 
Q 552.30728 363.997394 552.30728 364.594269 
L 552.30728 367.850519 
L 551.358842 367.850519 
L 551.358842 364.638019 
z
M 550.11978 367.923957 
Q 549.18228 367.923957 548.718217 367.536457 
Q 548.254155 367.147394 548.254155 366.356769 
Q 548.254155 365.603644 548.679155 365.228644 
Q 549.104155 364.852082 549.96353 364.852082 
L 551.402592 364.852082 
L 551.471342 365.653644 
L 549.968217 365.653644 
Q 549.577592 365.653644 549.383842 365.827082 
Q 549.191655 366.000519 549.191655 366.356769 
Q 549.191655 366.742707 549.447905 366.928644 
Q 549.704155 367.113019 550.22603 367.113019 
Q 550.797905 367.113019 551.077592 366.991144 
Q 551.358842 366.869269 551.358842 366.609894 
L 551.461967 367.322394 
Q 551.330717 367.528644 551.136967 367.659894 
Q 550.94478 367.791144 550.690092 367.856769 
Q 550.436967 367.923957 550.11978 367.923957 
z
" style="fill: #ffffff; stroke: #000000"/>
    <path d="M 502.072514 366.903644 
L 503.678764 366.903644 
Q 504.464702 366.903644 504.895952 366.495832 
Q 505.328764 366.088019 505.328764 365.345832 
L 505.328764 363.255207 
Q 505.328764 362.513019 504.895952 362.105207 
Q 504.464702 361.697394 503.678764 361.697394 
L 502.072514 361.697394 
L 502.072514 360.750519 
L 503.649077 360.750519 
Q 504.503764 360.750519 505.108452 361.048957 
Q 505.714702 361.345832 506.031889 361.917707 
Q 506.349077 362.489582 506.349077 363.294269 
L 506.349077 365.306769 
Q 506.349077 366.111457 506.031889 366.683332 
Q 505.714702 367.255207 505.106889 367.553644 
Q 504.499077 367.850519 503.644389 367.850519 
L 502.072514 367.850519 
L 502.072514 366.903644 
z
M 501.399077 360.750519 
L 502.394389 360.750519 
L 502.394389 367.850519 
L 501.399077 367.850519 
L 501.399077 360.750519 
z
M 509.894389 367.923957 
Q 509.250639 367.923957 508.761577 367.680207 
Q 508.274077 367.434894 508.006889 366.988019 
Q 507.741264 366.541144 507.741264 365.950519 
L 507.741264 365.833332 
Q 507.741264 365.302082 508.006889 364.833332 
Q 508.274077 364.364582 508.717827 364.125519 
Q 508.341264 363.919269 508.114702 363.531769 
Q 507.888139 363.142707 507.888139 362.713019 
L 507.888139 362.542707 
Q 507.888139 361.986457 508.136577 361.564582 
Q 508.385014 361.141144 508.839702 360.909894 
Q 509.294389 360.677082 509.894389 360.677082 
Q 510.494389 360.677082 510.949077 360.909894 
Q 511.403764 361.141144 511.652202 361.564582 
Q 511.900639 361.986457 511.900639 362.542707 
L 511.900639 362.713019 
Q 511.900639 363.153644 511.669389 363.539582 
Q 511.438139 363.923957 511.056889 364.125519 
Q 511.505327 364.369269 511.775639 364.836457 
Q 512.047514 365.302082 512.047514 365.833332 
L 512.047514 365.950519 
Q 512.047514 366.541144 511.781889 366.988019 
Q 511.516264 367.434894 511.027202 367.680207 
Q 510.539702 367.923957 509.894389 367.923957 
z
M 509.894389 366.966144 
Q 510.241264 366.966144 510.503764 366.830207 
Q 510.767827 366.692707 510.911577 366.447394 
Q 511.056889 366.200519 511.056889 365.877082 
L 511.056889 365.809894 
Q 511.056889 365.481769 510.911577 365.236457 
Q 510.767827 364.989582 510.503764 364.853644 
Q 510.241264 364.716144 509.894389 364.716144 
Q 509.547514 364.716144 509.283452 364.853644 
Q 509.020952 364.989582 508.875639 365.238019 
Q 508.731889 365.486457 508.731889 365.814582 
L 508.731889 365.888019 
Q 508.731889 366.209894 508.875639 366.453644 
Q 509.020952 366.697394 509.283452 366.831769 
Q 509.547514 366.966144 509.894389 366.966144 
z
M 509.894389 363.758332 
Q 510.192827 363.758332 510.420952 363.630207 
Q 510.650639 363.500519 510.777202 363.261457 
Q 510.905327 363.020832 510.905327 362.708332 
L 510.905327 362.641144 
Q 510.905327 362.342707 510.777202 362.113019 
Q 510.650639 361.883332 510.420952 361.759894 
Q 510.192827 361.634894 509.894389 361.634894 
Q 509.595952 361.634894 509.366264 361.759894 
Q 509.138139 361.883332 509.010014 362.113019 
Q 508.883452 362.342707 508.883452 362.645832 
L 508.883452 362.719269 
Q 508.883452 363.025519 509.010014 363.263019 
Q 509.138139 363.500519 509.366264 363.630207 
Q 509.595952 363.758332 509.894389 363.758332 
z
M 515.275639 367.923957 
Q 514.680327 367.923957 514.225639 367.706769 
Q 513.770952 367.489582 513.494389 367.077082 
Q 513.219389 366.664582 513.145952 366.083332 
L 513.145952 366.083332 
L 514.161577 366.083332 
L 514.161577 366.083332 
Q 514.205327 366.384894 514.352202 366.580207 
Q 514.499077 366.775519 514.730327 366.870832 
Q 514.963139 366.966144 515.275639 366.966144 
Q 515.767827 366.966144 516.041264 366.703644 
Q 516.314702 366.439582 516.314702 365.961457 
L 516.314702 365.745832 
Q 516.314702 365.213019 516.055327 364.923957 
Q 515.797514 364.633332 515.324077 364.633332 
L 514.820952 364.633332 
L 514.820952 363.684894 
L 515.324077 363.684894 
Q 515.739702 363.684894 515.967827 363.436457 
Q 516.197514 363.188019 516.197514 362.733332 
L 516.197514 362.513019 
Q 516.197514 362.094269 515.955327 361.864582 
Q 515.714702 361.634894 515.270952 361.634894 
Q 515.016264 361.634894 514.816264 361.730207 
Q 514.616264 361.825519 514.477202 362.023957 
Q 514.338139 362.220832 514.274077 362.517707 
L 514.274077 362.517707 
L 513.263139 362.517707 
L 513.263139 362.517707 
Q 513.361577 361.938019 513.631889 361.522394 
Q 513.903764 361.106769 514.317827 360.892707 
Q 514.733452 360.677082 515.270952 360.677082 
Q 516.188139 360.677082 516.691264 361.161457 
Q 517.194389 361.644269 517.194389 362.523957 
L 517.194389 362.641144 
Q 517.194389 363.172394 516.905327 363.567707 
Q 516.617827 363.963019 516.091264 364.144269 
Q 516.672514 364.270832 516.991264 364.716144 
Q 517.311577 365.159894 517.311577 365.848957 
L 517.311577 365.966144 
Q 517.311577 366.586457 517.072514 367.025519 
Q 516.833452 367.464582 516.375639 367.694269 
Q 515.919389 367.923957 515.275639 367.923957 
z
M 520.75435 367.923957 
Q 519.757475 367.923957 519.24185 367.392707 
Q 518.727788 366.859894 518.727788 365.906769 
L 518.727788 362.680207 
Q 518.727788 361.722394 519.244975 361.192707 
Q 519.762163 360.663019 520.75435 360.663019 
Q 521.749663 360.663019 522.265288 361.191144 
Q 522.780913 361.717707 522.780913 362.680207 
L 522.780913 365.906769 
Q 522.780913 366.864582 522.262163 367.394269 
Q 521.744975 367.923957 520.75435 367.923957 
z
M 520.75435 366.977082 
Q 521.280913 366.977082 521.532475 366.700519 
Q 521.784038 366.423957 521.784038 365.906769 
L 521.784038 362.680207 
Q 521.784038 362.161457 521.534038 361.886457 
Q 521.2856 361.609894 520.75435 361.609894 
Q 520.221538 361.609894 519.971538 361.886457 
Q 519.7231 362.161457 519.7231 362.680207 
L 519.7231 365.906769 
Q 519.7231 366.423957 519.974663 366.700519 
Q 520.226225 366.977082 520.75435 366.977082 
z
M 526.271928 367.923957 
Q 525.275053 367.923957 524.759428 367.392707 
Q 524.245366 366.859894 524.245366 365.906769 
L 524.245366 362.680207 
Q 524.245366 361.722394 524.762553 361.192707 
Q 525.279741 360.663019 526.271928 360.663019 
Q 527.267241 360.663019 527.782866 361.191144 
Q 528.298491 361.717707 528.298491 362.680207 
L 528.298491 365.906769 
Q 528.298491 366.864582 527.779741 367.394269 
Q 527.262553 367.923957 526.271928 367.923957 
z
M 526.271928 366.977082 
Q 526.798491 366.977082 527.050053 366.700519 
Q 527.301616 366.423957 527.301616 365.906769 
L 527.301616 362.680207 
Q 527.301616 362.161457 527.051616 361.886457 
Q 526.803178 361.609894 526.271928 361.609894 
Q 525.739116 361.609894 525.489116 361.886457 
Q 525.240678 362.161457 525.240678 362.680207 
L 525.240678 365.906769 
Q 525.240678 366.423957 525.492241 366.700519 
Q 525.743803 366.977082 526.271928 366.977082 
z
M 534.010991 367.923957 
Q 533.225053 367.923957 532.665678 367.614582 
Q 532.106303 367.303644 531.812553 366.711457 
Q 531.520366 366.117707 531.520366 365.281769 
L 531.520366 360.750519 
L 532.517241 360.750519 
L 532.517241 365.316144 
Q 532.517241 366.092707 532.907866 366.517707 
Q 533.298491 366.942707 534.010991 366.942707 
Q 534.728178 366.942707 535.120366 366.517707 
Q 535.514116 366.092707 535.514116 365.316144 
L 535.514116 360.750519 
L 536.510991 360.750519 
L 536.510991 365.281769 
Q 536.510991 366.117707 536.217241 366.711457 
Q 535.925053 367.303644 535.362553 367.614582 
Q 534.801616 367.923957 534.010991 367.923957 
z
M 539.069975 366.541144 
Q 539.069975 366.727082 539.149663 366.827082 
Q 539.230913 366.927082 539.376225 366.927082 
L 539.844975 366.927082 
L 539.844975 367.875519 
L 539.259038 367.875519 
Q 538.693413 367.875519 538.382475 367.523957 
Q 538.0731 367.172394 538.0731 366.531769 
L 538.0731 360.750519 
L 539.069975 360.750519 
L 539.069975 366.541144 
z
M 542.287358 367.875519 
Q 541.671733 367.875519 541.385795 367.536457 
Q 541.099858 367.195832 541.099858 366.531769 
L 541.099858 361.306769 
L 542.096733 361.306769 
L 542.096733 366.541144 
Q 542.096733 366.727082 542.17017 366.827082 
Q 542.243608 366.927082 542.384233 366.927082 
L 542.86392 366.927082 
L 542.86392 367.875519 
L 542.287358 367.875519 
z
M 540.577983 362.781769 
L 542.86392 362.781769 
L 542.86392 363.680207 
L 540.577983 363.680207 
L 540.577983 362.781769 
z
M 544.230327 362.781769 
L 545.227202 362.781769 
L 545.227202 367.850519 
L 544.230327 367.850519 
L 544.230327 362.781769 
z
M 547.017827 363.983332 
Q 546.886577 363.822394 546.686577 363.739582 
Q 546.486577 363.656769 546.222514 363.656769 
Q 545.749077 363.656769 545.488139 363.917707 
Q 545.227202 364.178644 545.227202 364.642707 
L 545.124077 363.666144 
Q 545.358452 363.211457 545.728764 362.959894 
Q 546.100639 362.708332 546.549077 362.708332 
Q 546.895952 362.708332 547.177202 362.808332 
Q 547.458452 362.908332 547.667827 363.103644 
L 547.017827 363.983332 
z
M 551.358842 364.638019 
Q 551.358842 364.139582 551.093217 363.864582 
Q 550.827592 363.588019 550.33853 363.588019 
Q 550.035405 363.588019 549.74478 363.681769 
Q 549.455717 363.773957 549.230717 363.939582 
L 548.502592 363.441144 
Q 548.791655 363.094269 549.261967 362.902082 
Q 549.733842 362.708332 550.308842 362.708332 
Q 550.940092 362.708332 551.38853 362.931769 
Q 551.83853 363.153644 552.072905 363.575519 
Q 552.30728 363.997394 552.30728 364.594269 
L 552.30728 367.850519 
L 551.358842 367.850519 
L 551.358842 364.638019 
z
M 550.11978 367.923957 
Q 549.18228 367.923957 548.718217 367.536457 
Q 548.254155 367.147394 548.254155 366.356769 
Q 548.254155 365.603644 548.679155 365.228644 
Q 549.104155 364.852082 549.96353 364.852082 
L 551.402592 364.852082 
L 551.471342 365.653644 
L 549.968217 365.653644 
Q 549.577592 365.653644 549.383842 365.827082 
Q 549.191655 366.000519 549.191655 366.356769 
Q 549.191655 366.742707 549.447905 366.928644 
Q 549.704155 367.113019 550.22603 367.113019 
Q 550.797905 367.113019 551.077592 366.991144 
Q 551.358842 366.869269 551.358842 366.609894 
L 551.461967 367.322394 
Q 551.330717 367.528644 551.136967 367.659894 
Q 550.94478 367.791144 550.690092 367.856769 
Q 550.436967 367.923957 550.11978 367.923957 
z
" style="fill: #ffffff"/>
   </g>
  </g>
 </g>
 <defs>
  <clipPath id="p5b4b65facb">
   <rect x="144" y="77.76" width="892.8" height="498.96"/>
  </clipPath>
 </defs>
</svg>
