<?xml version="1.0" encoding="utf-8" standalone="no"?>
<!DOCTYPE svg PUBLIC "-//W3C//DTD SVG 1.1//EN"
  "http://www.w3.org/Graphics/SVG/1.1/DTD/svg11.dtd">
<svg xmlns:xlink="http://www.w3.org/1999/xlink" width="1152pt" height="648pt" viewBox="0 0 1152 648" xmlns="http://www.w3.org/2000/svg" version="1.1">
 <metadata>
  <rdf:RDF xmlns:dc="http://purl.org/dc/elements/1.1/" xmlns:cc="http://creativecommons.org/ns#" xmlns:rdf="http://www.w3.org/1999/02/22-rdf-syntax-ns#">
   <cc:Work>
    <dc:type rdf:resource="http://purl.org/dc/dcmitype/StillImage"/>
    <dc:date>2024-10-09T18:10:10.308983</dc:date>
    <dc:format>image/svg+xml</dc:format>
    <dc:creator>
     <cc:Agent>
      <dc:title>Matplotlib v3.8.1, https://matplotlib.org/</dc:title>
     </cc:Agent>
    </dc:creator>
   </cc:Work>
  </rdf:RDF>
 </metadata>
 <defs>
  <style type="text/css">*{stroke-linejoin: round; stroke-linecap: butt}</style>
 </defs>
 <g id="figure_1">
  <g id="patch_1">
   <path d="M 0 648 
L 1152 648 
L 1152 0 
L 0 0 
L 0 648 
z
" style="fill: none"/>
  </g>
  <g id="axes_1">
   <g id="line2d_1">
    <path d="M 196.350545 494.121162 
L 199.363438 490.45615 
L 202.376331 486.856989 
L 205.389223 483.322499 
L 208.402116 479.851521 
L 211.415008 476.442915 
L 214.427901 473.095561 
L 217.440793 469.808362 
L 220.453686 466.580238 
L 223.466579 463.410129 
L 226.479471 460.296995 
L 229.492364 457.239812 
L 232.505256 454.237576 
L 235.518149 451.289303 
L 238.531041 448.394023 
L 241.543934 445.550785 
L 244.556826 442.758655 
L 247.569719 440.016715 
L 250.582612 437.324065 
L 253.595504 434.67982 
L 256.608397 432.083111 
L 259.621289 429.533085 
L 262.634182 427.028902 
L 265.647074 424.569741 
L 268.659967 422.154793 
L 271.67286 419.783263 
L 274.685752 417.454373 
L 277.698645 415.167355 
L 280.711537 412.92146 
L 283.72443 410.715947 
L 286.737322 408.550091 
L 289.750215 406.423181 
L 292.763107 404.334517 
L 295.776 402.283411 
L 298.788893 400.26919 
L 301.801785 398.291189 
L 304.814678 396.34876 
L 307.82757 394.441262 
L 310.840463 392.568068 
L 313.853355 390.728563 
L 316.866248 388.922139 
L 319.87914 387.148204 
L 322.892033 385.406173 
L 325.904926 383.695472 
L 328.917818 382.01554 
L 331.930711 380.365823 
L 334.943603 378.745778 
L 337.956496 377.154872 
L 340.969388 375.592581 
L 343.982281 374.058391 
L 346.995174 372.551797 
L 350.008066 371.072302 
L 353.020959 369.619421 
L 356.033851 368.192673 
L 359.046744 366.791591 
L 362.059636 365.415711 
L 365.072529 364.064582 
L 368.085421 362.737758 
L 371.098314 361.434802 
L 374.111207 360.155286 
L 377.124099 358.898788 
L 380.136992 357.664894 
L 383.149884 356.453197 
L 386.162777 355.263299 
L 389.175669 354.094808 
L 392.188562 352.947339 
L 395.201455 351.820513 
L 398.214347 350.71396 
L 401.22724 349.627315 
L 404.240132 348.560221 
L 407.253025 347.512325 
L 410.265917 346.483282 
L 413.27881 345.472754 
L 416.291702 344.480407 
L 419.304595 343.505914 
L 422.317488 342.548955 
L 425.33038 341.609214 
L 428.343273 340.686382 
L 431.356165 339.780153 
L 434.369058 338.890231 
L 437.38195 338.016321 
L 440.394843 337.158135 
L 443.407736 336.315391 
L 446.420628 335.487811 
L 449.433521 334.675123 
L 452.446413 333.877057 
L 455.459306 333.093352 
L 458.472198 332.323749 
L 461.485091 331.567994 
L 464.497983 330.825839 
L 467.510876 330.097038 
L 470.523769 329.381352 
L 473.536661 328.678544 
L 476.549554 327.988383 
L 479.562446 327.310642 
L 482.575339 326.645096 
L 485.588231 325.991527 
L 488.601124 325.349719 
L 491.614017 324.719461 
L 494.626909 324.100545 
" clip-path="url(#pc9a26c66d8)" style="fill: none; stroke: #f28d79; stroke-width: 3; stroke-linecap: round"/>
   </g>
   <g id="text_1">
    <path d="M 502.072514 324.800238 
L 503.678764 324.800238 
Q 504.464702 324.800238 504.895952 324.392425 
Q 505.328764 323.984613 505.328764 323.242425 
L 505.328764 321.1518 
Q 505.328764 320.409613 504.895952 320.0018 
Q 504.464702 319.593988 503.678764 319.593988 
L 502.072514 319.593988 
L 502.072514 318.647113 
L 503.649077 318.647113 
Q 504.503764 318.647113 505.108452 318.94555 
Q 505.714702 319.242425 506.031889 319.8143 
Q 506.349077 320.386175 506.349077 321.190863 
L 506.349077 323.203363 
Q 506.349077 324.00805 506.031889 324.579925 
Q 505.714702 325.1518 505.106889 325.450238 
Q 504.499077 325.747113 503.644389 325.747113 
L 502.072514 325.747113 
L 502.072514 324.800238 
z
M 501.399077 318.647113 
L 502.394389 318.647113 
L 502.394389 325.747113 
L 501.399077 325.747113 
L 501.399077 318.647113 
z
M 509.894389 325.82055 
Q 509.250639 325.82055 508.761577 325.5768 
Q 508.274077 325.331488 508.006889 324.884613 
Q 507.741264 324.437738 507.741264 323.847113 
L 507.741264 323.729925 
Q 507.741264 323.198675 508.006889 322.729925 
Q 508.274077 322.261175 508.717827 322.022113 
Q 508.341264 321.815863 508.114702 321.428363 
Q 507.888139 321.0393 507.888139 320.609613 
L 507.888139 320.4393 
Q 507.888139 319.88305 508.136577 319.461175 
Q 508.385014 319.037738 508.839702 318.806488 
Q 509.294389 318.573675 509.894389 318.573675 
Q 510.494389 318.573675 510.949077 318.806488 
Q 511.403764 319.037738 511.652202 319.461175 
Q 511.900639 319.88305 511.900639 320.4393 
L 511.900639 320.609613 
Q 511.900639 321.050238 511.669389 321.436175 
Q 511.438139 321.82055 511.056889 322.022113 
Q 511.505327 322.265863 511.775639 322.73305 
Q 512.047514 323.198675 512.047514 323.729925 
L 512.047514 323.847113 
Q 512.047514 324.437738 511.781889 324.884613 
Q 511.516264 325.331488 511.027202 325.5768 
Q 510.539702 325.82055 509.894389 325.82055 
z
M 509.894389 324.862738 
Q 510.241264 324.862738 510.503764 324.7268 
Q 510.767827 324.5893 510.911577 324.343988 
Q 511.056889 324.097113 511.056889 323.773675 
L 511.056889 323.706488 
Q 511.056889 323.378363 510.911577 323.13305 
Q 510.767827 322.886175 510.503764 322.750238 
Q 510.241264 322.612738 509.894389 322.612738 
Q 509.547514 322.612738 509.283452 322.750238 
Q 509.020952 322.886175 508.875639 323.134613 
Q 508.731889 323.38305 508.731889 323.711175 
L 508.731889 323.784613 
Q 508.731889 324.106488 508.875639 324.350238 
Q 509.020952 324.593988 509.283452 324.728363 
Q 509.547514 324.862738 509.894389 324.862738 
z
M 509.894389 321.654925 
Q 510.192827 321.654925 510.420952 321.5268 
Q 510.650639 321.397113 510.777202 321.15805 
Q 510.905327 320.917425 510.905327 320.604925 
L 510.905327 320.537738 
Q 510.905327 320.2393 510.777202 320.009613 
Q 510.650639 319.779925 510.420952 319.656488 
Q 510.192827 319.531488 509.894389 319.531488 
Q 509.595952 319.531488 509.366264 319.656488 
Q 509.138139 319.779925 509.010014 320.009613 
Q 508.883452 320.2393 508.883452 320.542425 
L 508.883452 320.615863 
Q 508.883452 320.922113 509.010014 321.159613 
Q 509.138139 321.397113 509.366264 321.5268 
Q 509.595952 321.654925 509.894389 321.654925 
z
M 515.275639 325.82055 
Q 514.680327 325.82055 514.225639 325.603363 
Q 513.770952 325.386175 513.494389 324.973675 
Q 513.219389 324.561175 513.145952 323.979925 
L 513.145952 323.979925 
L 514.161577 323.979925 
L 514.161577 323.979925 
Q 514.205327 324.281488 514.352202 324.4768 
Q 514.499077 324.672113 514.730327 324.767425 
Q 514.963139 324.862738 515.275639 324.862738 
Q 515.767827 324.862738 516.041264 324.600238 
Q 516.314702 324.336175 516.314702 323.85805 
L 516.314702 323.642425 
Q 516.314702 323.109613 516.055327 322.82055 
Q 515.797514 322.529925 515.324077 322.529925 
L 514.820952 322.529925 
L 514.820952 321.581488 
L 515.324077 321.581488 
Q 515.739702 321.581488 515.967827 321.33305 
Q 516.197514 321.084613 516.197514 320.629925 
L 516.197514 320.409613 
Q 516.197514 319.990863 515.955327 319.761175 
Q 515.714702 319.531488 515.270952 319.531488 
Q 515.016264 319.531488 514.816264 319.6268 
Q 514.616264 319.722113 514.477202 319.92055 
Q 514.338139 320.117425 514.274077 320.4143 
L 514.274077 320.4143 
L 513.263139 320.4143 
L 513.263139 320.4143 
Q 513.361577 319.834613 513.631889 319.418988 
Q 513.903764 319.003363 514.317827 318.7893 
Q 514.733452 318.573675 515.270952 318.573675 
Q 516.188139 318.573675 516.691264 319.05805 
Q 517.194389 319.540863 517.194389 320.42055 
L 517.194389 320.537738 
Q 517.194389 321.068988 516.905327 321.4643 
Q 516.617827 321.859613 516.091264 322.040863 
Q 516.672514 322.167425 516.991264 322.612738 
Q 517.311577 323.056488 517.311577 323.74555 
L 517.311577 323.862738 
Q 517.311577 324.48305 517.072514 324.922113 
Q 516.833452 325.361175 516.375639 325.590863 
Q 515.919389 325.82055 515.275639 325.82055 
z
M 520.75435 325.82055 
Q 519.757475 325.82055 519.24185 325.2893 
Q 518.727788 324.756488 518.727788 323.803363 
L 518.727788 320.5768 
Q 518.727788 319.618988 519.244975 319.0893 
Q 519.762163 318.559613 520.75435 318.559613 
Q 521.749663 318.559613 522.265288 319.087738 
Q 522.780913 319.6143 522.780913 320.5768 
L 522.780913 323.803363 
Q 522.780913 324.761175 522.262163 325.290863 
Q 521.744975 325.82055 520.75435 325.82055 
z
M 520.75435 324.873675 
Q 521.280913 324.873675 521.532475 324.597113 
Q 521.784038 324.32055 521.784038 323.803363 
L 521.784038 320.5768 
Q 521.784038 320.05805 521.534038 319.78305 
Q 521.2856 319.506488 520.75435 319.506488 
Q 520.221538 319.506488 519.971538 319.78305 
Q 519.7231 320.05805 519.7231 320.5768 
L 519.7231 323.803363 
Q 519.7231 324.32055 519.974663 324.597113 
Q 520.226225 324.873675 520.75435 324.873675 
z
M 526.271928 325.82055 
Q 525.275053 325.82055 524.759428 325.2893 
Q 524.245366 324.756488 524.245366 323.803363 
L 524.245366 320.5768 
Q 524.245366 319.618988 524.762553 319.0893 
Q 525.279741 318.559613 526.271928 318.559613 
Q 527.267241 318.559613 527.782866 319.087738 
Q 528.298491 319.6143 528.298491 320.5768 
L 528.298491 323.803363 
Q 528.298491 324.761175 527.779741 325.290863 
Q 527.262553 325.82055 526.271928 325.82055 
z
M 526.271928 324.873675 
Q 526.798491 324.873675 527.050053 324.597113 
Q 527.301616 324.32055 527.301616 323.803363 
L 527.301616 320.5768 
Q 527.301616 320.05805 527.051616 319.78305 
Q 526.803178 319.506488 526.271928 319.506488 
Q 525.739116 319.506488 525.489116 319.78305 
Q 525.240678 320.05805 525.240678 320.5768 
L 525.240678 323.803363 
Q 525.240678 324.32055 525.492241 324.597113 
Q 525.743803 324.873675 526.271928 324.873675 
z
M 534.010991 325.82055 
Q 533.225053 325.82055 532.665678 325.511175 
Q 532.106303 325.200238 531.812553 324.60805 
Q 531.520366 324.0143 531.520366 323.178363 
L 531.520366 318.647113 
L 532.517241 318.647113 
L 532.517241 323.212738 
Q 532.517241 323.9893 532.907866 324.4143 
Q 533.298491 324.8393 534.010991 324.8393 
Q 534.728178 324.8393 535.120366 324.4143 
Q 535.514116 323.9893 535.514116 323.212738 
L 535.514116 318.647113 
L 536.510991 318.647113 
L 536.510991 323.178363 
Q 536.510991 324.0143 536.217241 324.60805 
Q 535.925053 325.200238 535.362553 325.511175 
Q 534.801616 325.82055 534.010991 325.82055 
z
M 539.069975 324.437738 
Q 539.069975 324.623675 539.149663 324.723675 
Q 539.230913 324.823675 539.376225 324.823675 
L 539.844975 324.823675 
L 539.844975 325.772113 
L 539.259038 325.772113 
Q 538.693413 325.772113 538.382475 325.42055 
Q 538.0731 325.068988 538.0731 324.428363 
L 538.0731 318.647113 
L 539.069975 318.647113 
L 539.069975 324.437738 
z
M 542.287358 325.772113 
Q 541.671733 325.772113 541.385795 325.43305 
Q 541.099858 325.092425 541.099858 324.428363 
L 541.099858 319.203363 
L 542.096733 319.203363 
L 542.096733 324.437738 
Q 542.096733 324.623675 542.17017 324.723675 
Q 542.243608 324.823675 542.384233 324.823675 
L 542.86392 324.823675 
L 542.86392 325.772113 
L 542.287358 325.772113 
z
M 540.577983 320.678363 
L 542.86392 320.678363 
L 542.86392 321.5768 
L 540.577983 321.5768 
L 540.577983 320.678363 
z
M 544.230327 320.678363 
L 545.227202 320.678363 
L 545.227202 325.747113 
L 544.230327 325.747113 
L 544.230327 320.678363 
z
M 547.017827 321.879925 
Q 546.886577 321.718988 546.686577 321.636175 
Q 546.486577 321.553363 546.222514 321.553363 
Q 545.749077 321.553363 545.488139 321.8143 
Q 545.227202 322.075238 545.227202 322.5393 
L 545.124077 321.562738 
Q 545.358452 321.10805 545.728764 320.856488 
Q 546.100639 320.604925 546.549077 320.604925 
Q 546.895952 320.604925 547.177202 320.704925 
Q 547.458452 320.804925 547.667827 321.000238 
L 547.017827 321.879925 
z
M 551.358842 322.534613 
Q 551.358842 322.036175 551.093217 321.761175 
Q 550.827592 321.484613 550.33853 321.484613 
Q 550.035405 321.484613 549.74478 321.578363 
Q 549.455717 321.67055 549.230717 321.836175 
L 548.502592 321.337738 
Q 548.791655 320.990863 549.261967 320.798675 
Q 549.733842 320.604925 550.308842 320.604925 
Q 550.940092 320.604925 551.38853 320.828363 
Q 551.83853 321.050238 552.072905 321.472113 
Q 552.30728 321.893988 552.30728 322.490863 
L 552.30728 325.747113 
L 551.358842 325.747113 
L 551.358842 322.534613 
z
M 550.11978 325.82055 
Q 549.18228 325.82055 548.718217 325.43305 
Q 548.254155 325.043988 548.254155 324.253363 
Q 548.254155 323.500238 548.679155 323.125238 
Q 549.104155 322.748675 549.96353 322.748675 
L 551.402592 322.748675 
L 551.471342 323.550238 
L 549.968217 323.550238 
Q 549.577592 323.550238 549.383842 323.723675 
Q 549.191655 323.897113 549.191655 324.253363 
Q 549.191655 324.6393 549.447905 324.825238 
Q 549.704155 325.009613 550.22603 325.009613 
Q 550.797905 325.009613 551.077592 324.887738 
Q 551.358842 324.765863 551.358842 324.506488 
L 551.461967 325.218988 
Q 551.330717 325.425238 551.136967 325.556488 
Q 550.94478 325.687738 550.690092 325.753363 
Q 550.436967 325.82055 550.11978 325.82055 
z
" style="fill: #ffffff; stroke: #000000"/>
    <path d="M 502.072514 324.800238 
L 503.678764 324.800238 
Q 504.464702 324.800238 504.895952 324.392425 
Q 505.328764 323.984613 505.328764 323.242425 
L 505.328764 321.1518 
Q 505.328764 320.409613 504.895952 320.0018 
Q 504.464702 319.593988 503.678764 319.593988 
L 502.072514 319.593988 
L 502.072514 318.647113 
L 503.649077 318.647113 
Q 504.503764 318.647113 505.108452 318.94555 
Q 505.714702 319.242425 506.031889 319.8143 
Q 506.349077 320.386175 506.349077 321.190863 
L 506.349077 323.203363 
Q 506.349077 324.00805 506.031889 324.579925 
Q 505.714702 325.1518 505.106889 325.450238 
Q 504.499077 325.747113 503.644389 325.747113 
L 502.072514 325.747113 
L 502.072514 324.800238 
z
M 501.399077 318.647113 
L 502.394389 318.647113 
L 502.394389 325.747113 
L 501.399077 325.747113 
L 501.399077 318.647113 
z
M 509.894389 325.82055 
Q 509.250639 325.82055 508.761577 325.5768 
Q 508.274077 325.331488 508.006889 324.884613 
Q 507.741264 324.437738 507.741264 323.847113 
L 507.741264 323.729925 
Q 507.741264 323.198675 508.006889 322.729925 
Q 508.274077 322.261175 508.717827 322.022113 
Q 508.341264 321.815863 508.114702 321.428363 
Q 507.888139 321.0393 507.888139 320.609613 
L 507.888139 320.4393 
Q 507.888139 319.88305 508.136577 319.461175 
Q 508.385014 319.037738 508.839702 318.806488 
Q 509.294389 318.573675 509.894389 318.573675 
Q 510.494389 318.573675 510.949077 318.806488 
Q 511.403764 319.037738 511.652202 319.461175 
Q 511.900639 319.88305 511.900639 320.4393 
L 511.900639 320.609613 
Q 511.900639 321.050238 511.669389 321.436175 
Q 511.438139 321.82055 511.056889 322.022113 
Q 511.505327 322.265863 511.775639 322.73305 
Q 512.047514 323.198675 512.047514 323.729925 
L 512.047514 323.847113 
Q 512.047514 324.437738 511.781889 324.884613 
Q 511.516264 325.331488 511.027202 325.5768 
Q 510.539702 325.82055 509.894389 325.82055 
z
M 509.894389 324.862738 
Q 510.241264 324.862738 510.503764 324.7268 
Q 510.767827 324.5893 510.911577 324.343988 
Q 511.056889 324.097113 511.056889 323.773675 
L 511.056889 323.706488 
Q 511.056889 323.378363 510.911577 323.13305 
Q 510.767827 322.886175 510.503764 322.750238 
Q 510.241264 322.612738 509.894389 322.612738 
Q 509.547514 322.612738 509.283452 322.750238 
Q 509.020952 322.886175 508.875639 323.134613 
Q 508.731889 323.38305 508.731889 323.711175 
L 508.731889 323.784613 
Q 508.731889 324.106488 508.875639 324.350238 
Q 509.020952 324.593988 509.283452 324.728363 
Q 509.547514 324.862738 509.894389 324.862738 
z
M 509.894389 321.654925 
Q 510.192827 321.654925 510.420952 321.5268 
Q 510.650639 321.397113 510.777202 321.15805 
Q 510.905327 320.917425 510.905327 320.604925 
L 510.905327 320.537738 
Q 510.905327 320.2393 510.777202 320.009613 
Q 510.650639 319.779925 510.420952 319.656488 
Q 510.192827 319.531488 509.894389 319.531488 
Q 509.595952 319.531488 509.366264 319.656488 
Q 509.138139 319.779925 509.010014 320.009613 
Q 508.883452 320.2393 508.883452 320.542425 
L 508.883452 320.615863 
Q 508.883452 320.922113 509.010014 321.159613 
Q 509.138139 321.397113 509.366264 321.5268 
Q 509.595952 321.654925 509.894389 321.654925 
z
M 515.275639 325.82055 
Q 514.680327 325.82055 514.225639 325.603363 
Q 513.770952 325.386175 513.494389 324.973675 
Q 513.219389 324.561175 513.145952 323.979925 
L 513.145952 323.979925 
L 514.161577 323.979925 
L 514.161577 323.979925 
Q 514.205327 324.281488 514.352202 324.4768 
Q 514.499077 324.672113 514.730327 324.767425 
Q 514.963139 324.862738 515.275639 324.862738 
Q 515.767827 324.862738 516.041264 324.600238 
Q 516.314702 324.336175 516.314702 323.85805 
L 516.314702 323.642425 
Q 516.314702 323.109613 516.055327 322.82055 
Q 515.797514 322.529925 515.324077 322.529925 
L 514.820952 322.529925 
L 514.820952 321.581488 
L 515.324077 321.581488 
Q 515.739702 321.581488 515.967827 321.33305 
Q 516.197514 321.084613 516.197514 320.629925 
L 516.197514 320.409613 
Q 516.197514 319.990863 515.955327 319.761175 
Q 515.714702 319.531488 515.270952 319.531488 
Q 515.016264 319.531488 514.816264 319.6268 
Q 514.616264 319.722113 514.477202 319.92055 
Q 514.338139 320.117425 514.274077 320.4143 
L 514.274077 320.4143 
L 513.263139 320.4143 
L 513.263139 320.4143 
Q 513.361577 319.834613 513.631889 319.418988 
Q 513.903764 319.003363 514.317827 318.7893 
Q 514.733452 318.573675 515.270952 318.573675 
Q 516.188139 318.573675 516.691264 319.05805 
Q 517.194389 319.540863 517.194389 320.42055 
L 517.194389 320.537738 
Q 517.194389 321.068988 516.905327 321.4643 
Q 516.617827 321.859613 516.091264 322.040863 
Q 516.672514 322.167425 516.991264 322.612738 
Q 517.311577 323.056488 517.311577 323.74555 
L 517.311577 323.862738 
Q 517.311577 324.48305 517.072514 324.922113 
Q 516.833452 325.361175 516.375639 325.590863 
Q 515.919389 325.82055 515.275639 325.82055 
z
M 520.75435 325.82055 
Q 519.757475 325.82055 519.24185 325.2893 
Q 518.727788 324.756488 518.727788 323.803363 
L 518.727788 320.5768 
Q 518.727788 319.618988 519.244975 319.0893 
Q 519.762163 318.559613 520.75435 318.559613 
Q 521.749663 318.559613 522.265288 319.087738 
Q 522.780913 319.6143 522.780913 320.5768 
L 522.780913 323.803363 
Q 522.780913 324.761175 522.262163 325.290863 
Q 521.744975 325.82055 520.75435 325.82055 
z
M 520.75435 324.873675 
Q 521.280913 324.873675 521.532475 324.597113 
Q 521.784038 324.32055 521.784038 323.803363 
L 521.784038 320.5768 
Q 521.784038 320.05805 521.534038 319.78305 
Q 521.2856 319.506488 520.75435 319.506488 
Q 520.221538 319.506488 519.971538 319.78305 
Q 519.7231 320.05805 519.7231 320.5768 
L 519.7231 323.803363 
Q 519.7231 324.32055 519.974663 324.597113 
Q 520.226225 324.873675 520.75435 324.873675 
z
M 526.271928 325.82055 
Q 525.275053 325.82055 524.759428 325.2893 
Q 524.245366 324.756488 524.245366 323.803363 
L 524.245366 320.5768 
Q 524.245366 319.618988 524.762553 319.0893 
Q 525.279741 318.559613 526.271928 318.559613 
Q 527.267241 318.559613 527.782866 319.087738 
Q 528.298491 319.6143 528.298491 320.5768 
L 528.298491 323.803363 
Q 528.298491 324.761175 527.779741 325.290863 
Q 527.262553 325.82055 526.271928 325.82055 
z
M 526.271928 324.873675 
Q 526.798491 324.873675 527.050053 324.597113 
Q 527.301616 324.32055 527.301616 323.803363 
L 527.301616 320.5768 
Q 527.301616 320.05805 527.051616 319.78305 
Q 526.803178 319.506488 526.271928 319.506488 
Q 525.739116 319.506488 525.489116 319.78305 
Q 525.240678 320.05805 525.240678 320.5768 
L 525.240678 323.803363 
Q 525.240678 324.32055 525.492241 324.597113 
Q 525.743803 324.873675 526.271928 324.873675 
z
M 534.010991 325.82055 
Q 533.225053 325.82055 532.665678 325.511175 
Q 532.106303 325.200238 531.812553 324.60805 
Q 531.520366 324.0143 531.520366 323.178363 
L 531.520366 318.647113 
L 532.517241 318.647113 
L 532.517241 323.212738 
Q 532.517241 323.9893 532.907866 324.4143 
Q 533.298491 324.8393 534.010991 324.8393 
Q 534.728178 324.8393 535.120366 324.4143 
Q 535.514116 323.9893 535.514116 323.212738 
L 535.514116 318.647113 
L 536.510991 318.647113 
L 536.510991 323.178363 
Q 536.510991 324.0143 536.217241 324.60805 
Q 535.925053 325.200238 535.362553 325.511175 
Q 534.801616 325.82055 534.010991 325.82055 
z
M 539.069975 324.437738 
Q 539.069975 324.623675 539.149663 324.723675 
Q 539.230913 324.823675 539.376225 324.823675 
L 539.844975 324.823675 
L 539.844975 325.772113 
L 539.259038 325.772113 
Q 538.693413 325.772113 538.382475 325.42055 
Q 538.0731 325.068988 538.0731 324.428363 
L 538.0731 318.647113 
L 539.069975 318.647113 
L 539.069975 324.437738 
z
M 542.287358 325.772113 
Q 541.671733 325.772113 541.385795 325.43305 
Q 541.099858 325.092425 541.099858 324.428363 
L 541.099858 319.203363 
L 542.096733 319.203363 
L 542.096733 324.437738 
Q 542.096733 324.623675 542.17017 324.723675 
Q 542.243608 324.823675 542.384233 324.823675 
L 542.86392 324.823675 
L 542.86392 325.772113 
L 542.287358 325.772113 
z
M 540.577983 320.678363 
L 542.86392 320.678363 
L 542.86392 321.5768 
L 540.577983 321.5768 
L 540.577983 320.678363 
z
M 544.230327 320.678363 
L 545.227202 320.678363 
L 545.227202 325.747113 
L 544.230327 325.747113 
L 544.230327 320.678363 
z
M 547.017827 321.879925 
Q 546.886577 321.718988 546.686577 321.636175 
Q 546.486577 321.553363 546.222514 321.553363 
Q 545.749077 321.553363 545.488139 321.8143 
Q 545.227202 322.075238 545.227202 322.5393 
L 545.124077 321.562738 
Q 545.358452 321.10805 545.728764 320.856488 
Q 546.100639 320.604925 546.549077 320.604925 
Q 546.895952 320.604925 547.177202 320.704925 
Q 547.458452 320.804925 547.667827 321.000238 
L 547.017827 321.879925 
z
M 551.358842 322.534613 
Q 551.358842 322.036175 551.093217 321.761175 
Q 550.827592 321.484613 550.33853 321.484613 
Q 550.035405 321.484613 549.74478 321.578363 
Q 549.455717 321.67055 549.230717 321.836175 
L 548.502592 321.337738 
Q 548.791655 320.990863 549.261967 320.798675 
Q 549.733842 320.604925 550.308842 320.604925 
Q 550.940092 320.604925 551.38853 320.828363 
Q 551.83853 321.050238 552.072905 321.472113 
Q 552.30728 321.893988 552.30728 322.490863 
L 552.30728 325.747113 
L 551.358842 325.747113 
L 551.358842 322.534613 
z
M 550.11978 325.82055 
Q 549.18228 325.82055 548.718217 325.43305 
Q 548.254155 325.043988 548.254155 324.253363 
Q 548.254155 323.500238 548.679155 323.125238 
Q 549.104155 322.748675 549.96353 322.748675 
L 551.402592 322.748675 
L 551.471342 323.550238 
L 549.968217 323.550238 
Q 549.577592 323.550238 549.383842 323.723675 
Q 549.191655 323.897113 549.191655 324.253363 
Q 549.191655 324.6393 549.447905 324.825238 
Q 549.704155 325.009613 550.22603 325.009613 
Q 550.797905 325.009613 551.077592 324.887738 
Q 551.358842 324.765863 551.358842 324.506488 
L 551.461967 325.218988 
Q 551.330717 325.425238 551.136967 325.556488 
Q 550.94478 325.687738 550.690092 325.753363 
Q 550.436967 325.82055 550.11978 325.82055 
z
" style="fill: #ffffff"/>
   </g>
  </g>
 </g>
 <defs>
  <clipPath id="pc9a26c66d8">
   <rect x="144" y="77.76" width="892.8" height="498.96"/>
  </clipPath>
 </defs>
</svg>
