<?xml version="1.0" encoding="utf-8" standalone="no"?>
<!DOCTYPE svg PUBLIC "-//W3C//DTD SVG 1.1//EN"
  "http://www.w3.org/Graphics/SVG/1.1/DTD/svg11.dtd">
<svg xmlns:xlink="http://www.w3.org/1999/xlink" width="1152pt" height="648pt" viewBox="0 0 1152 648" xmlns="http://www.w3.org/2000/svg" version="1.1">
 <metadata>
  <rdf:RDF xmlns:dc="http://purl.org/dc/elements/1.1/" xmlns:cc="http://creativecommons.org/ns#" xmlns:rdf="http://www.w3.org/1999/02/22-rdf-syntax-ns#">
   <cc:Work>
    <dc:type rdf:resource="http://purl.org/dc/dcmitype/StillImage"/>
    <dc:date>2024-12-06T13:18:25.506778</dc:date>
    <dc:format>image/svg+xml</dc:format>
    <dc:creator>
     <cc:Agent>
      <dc:title>Matplotlib v3.9.2, https://matplotlib.org/</dc:title>
     </cc:Agent>
    </dc:creator>
   </cc:Work>
  </rdf:RDF>
 </metadata>
 <defs>
  <style type="text/css">*{stroke-linejoin: round; stroke-linecap: butt}</style>
 </defs>
 <g id="figure_1">
  <g id="patch_1">
   <path d="M 0 648 
L 1152 648 
L 1152 0 
L 0 0 
L 0 648 
z
" style="fill: none"/>
  </g>
  <g id="axes_1">
   <g id="PathCollection_1">
    <defs>
     <path id="m84f859a045" d="M 0 2.738613 
C 0.726289 2.738613 1.422928 2.450055 1.936492 1.936492 
C 2.450055 1.422928 2.738613 0.726289 2.738613 0 
C 2.738613 -0.726289 2.450055 -1.422928 1.936492 -1.936492 
C 1.422928 -2.450055 0.726289 -2.738613 0 -2.738613 
C -0.726289 -2.738613 -1.422928 -2.450055 -1.936492 -1.936492 
C -2.450055 -1.422928 -2.738613 -0.726289 -2.738613 0 
C -2.738613 0.726289 -2.450055 1.422928 -1.936492 1.936492 
C -1.422928 2.450055 -0.726289 2.738613 0 2.738613 
z
" style="stroke: #ff0000"/>
    </defs>
    <g clip-path="url(#pa569136477)">
     <use xlink:href="#m84f859a045" x="609.473455" y="355.76388" style="fill: #ff0000; stroke: #ff0000"/>
     <use xlink:href="#m84f859a045" x="318.096" y="423.74718" style="fill: #ff0000; stroke: #ff0000"/>
    </g>
   </g>
   <g id="text_1">
    <path d="M 617.026872 354.294823 
L 620.161247 350.310448 
L 621.386247 350.310448 
L 616.879997 355.788573 
L 617.026872 354.294823 
z
M 616.245622 350.310448 
L 617.240935 350.310448 
L 617.240935 357.410448 
L 616.245622 357.410448 
L 616.245622 350.310448 
z
M 618.208122 353.621386 
L 618.99406 352.893261 
L 621.684685 357.410448 
L 620.464372 357.410448 
L 618.208122 353.621386 
z
M 625.028825 353.885448 
L 625.024138 354.060448 
Q 624.902263 354.285448 624.655388 354.390136 
Q 624.408513 354.494823 624.072575 354.494823 
Q 623.564763 354.494823 623.178825 354.237011 
Q 622.792888 353.977636 622.580388 353.507323 
Q 622.367888 353.035448 622.367888 352.415136 
L 622.367888 352.410448 
Q 622.367888 351.721386 622.599138 351.233886 
Q 622.83195 350.744823 623.278825 350.491698 
Q 623.7257 350.237011 624.3507 350.237011 
Q 624.9757 350.237011 625.41945 350.496386 
Q 625.864763 350.755761 626.096013 351.249511 
Q 626.327263 351.741698 626.327263 352.435448 
L 626.327263 352.440136 
Q 626.327263 352.819823 626.228825 353.252636 
Q 626.13195 353.685448 625.952263 354.108886 
Q 625.922575 354.172948 625.892888 354.238573 
Q 625.864763 354.304198 625.830388 354.368261 
L 624.316325 357.410448 
L 623.241325 357.410448 
L 625.028825 353.885448 
z
M 624.3507 353.587011 
Q 624.81945 353.587011 625.0757 353.269823 
Q 625.33195 352.952636 625.33195 352.376073 
L 625.33195 352.371386 
Q 625.33195 351.810448 625.0757 351.502636 
Q 624.81945 351.194823 624.3507 351.194823 
Q 623.877263 351.194823 623.621013 351.502636 
Q 623.364763 351.810448 623.364763 352.376073 
L 623.364763 352.380761 
Q 623.364763 352.957323 623.621013 353.272948 
Q 623.877263 353.587011 624.3507 353.587011 
z
M 629.673161 357.483886 
Q 628.676286 357.483886 628.160661 356.952636 
Q 627.646599 356.419823 627.646599 355.466698 
L 627.646599 352.240136 
Q 627.646599 351.282323 628.163786 350.752636 
Q 628.680974 350.222948 629.673161 350.222948 
Q 630.668474 350.222948 631.184099 350.751073 
Q 631.699724 351.277636 631.699724 352.240136 
L 631.699724 355.466698 
Q 631.699724 356.424511 631.180974 356.954198 
Q 630.663786 357.483886 629.673161 357.483886 
z
M 629.673161 356.537011 
Q 630.199724 356.537011 630.451286 356.260448 
Q 630.702849 355.983886 630.702849 355.466698 
L 630.702849 352.240136 
Q 630.702849 351.721386 630.452849 351.446386 
Q 630.204411 351.169823 629.673161 351.169823 
Q 629.140349 351.169823 628.890349 351.446386 
Q 628.641911 351.721386 628.641911 352.240136 
L 628.641911 355.466698 
Q 628.641911 355.983886 628.893474 356.260448 
Q 629.145036 356.537011 629.673161 356.537011 
z
M 633.056364 356.546386 
L 635.531364 353.244823 
Q 635.746989 352.962011 635.865739 352.657323 
Q 635.986052 352.351073 635.986052 352.088573 
L 635.986052 352.077636 
Q 635.986052 351.654198 635.736052 351.419823 
Q 635.487614 351.185448 635.029802 351.185448 
Q 634.593864 351.185448 634.325114 351.441698 
Q 634.057927 351.697948 633.998552 352.166698 
L 633.998552 352.171386 
L 632.968864 352.171386 
L 632.968864 352.166698 
Q 633.056364 351.555761 633.326677 351.124511 
Q 633.598552 350.691698 634.028239 350.465136 
Q 634.457927 350.237011 635.018864 350.237011 
Q 635.654802 350.237011 636.103239 350.454198 
Q 636.553239 350.671386 636.787614 351.087011 
Q 637.021989 351.502636 637.021989 352.088573 
L 637.021989 352.093261 
Q 637.021989 352.468261 636.865739 352.879198 
Q 636.709489 353.288573 636.429802 353.669823 
L 634.375114 356.463573 
L 637.061052 356.463573 
L 637.061052 357.410448 
L 633.056364 357.410448 
L 633.056364 356.546386 
z
M 640.356755 357.483886 
Q 639.35988 357.483886 638.844255 356.952636 
Q 638.330192 356.419823 638.330192 355.466698 
L 638.330192 352.240136 
Q 638.330192 351.282323 638.84738 350.752636 
Q 639.364567 350.222948 640.356755 350.222948 
Q 641.352067 350.222948 641.867692 350.751073 
Q 642.383317 351.277636 642.383317 352.240136 
L 642.383317 355.466698 
Q 642.383317 356.424511 641.864567 356.954198 
Q 641.34738 357.483886 640.356755 357.483886 
z
M 640.356755 356.537011 
Q 640.883317 356.537011 641.13488 356.260448 
Q 641.386442 355.983886 641.386442 355.466698 
L 641.386442 352.240136 
Q 641.386442 351.721386 641.136442 351.446386 
Q 640.888005 351.169823 640.356755 351.169823 
Q 639.823942 351.169823 639.573942 351.446386 
Q 639.325505 351.721386 639.325505 352.240136 
L 639.325505 355.466698 
Q 639.325505 355.983886 639.577067 356.260448 
Q 639.82863 356.537011 640.356755 356.537011 
z
" style="fill: #ffffff; stroke: #000000"/>
    <path d="M 617.026872 354.294823 
L 620.161247 350.310448 
L 621.386247 350.310448 
L 616.879997 355.788573 
L 617.026872 354.294823 
z
M 616.245622 350.310448 
L 617.240935 350.310448 
L 617.240935 357.410448 
L 616.245622 357.410448 
L 616.245622 350.310448 
z
M 618.208122 353.621386 
L 618.99406 352.893261 
L 621.684685 357.410448 
L 620.464372 357.410448 
L 618.208122 353.621386 
z
M 625.028825 353.885448 
L 625.024138 354.060448 
Q 624.902263 354.285448 624.655388 354.390136 
Q 624.408513 354.494823 624.072575 354.494823 
Q 623.564763 354.494823 623.178825 354.237011 
Q 622.792888 353.977636 622.580388 353.507323 
Q 622.367888 353.035448 622.367888 352.415136 
L 622.367888 352.410448 
Q 622.367888 351.721386 622.599138 351.233886 
Q 622.83195 350.744823 623.278825 350.491698 
Q 623.7257 350.237011 624.3507 350.237011 
Q 624.9757 350.237011 625.41945 350.496386 
Q 625.864763 350.755761 626.096013 351.249511 
Q 626.327263 351.741698 626.327263 352.435448 
L 626.327263 352.440136 
Q 626.327263 352.819823 626.228825 353.252636 
Q 626.13195 353.685448 625.952263 354.108886 
Q 625.922575 354.172948 625.892888 354.238573 
Q 625.864763 354.304198 625.830388 354.368261 
L 624.316325 357.410448 
L 623.241325 357.410448 
L 625.028825 353.885448 
z
M 624.3507 353.587011 
Q 624.81945 353.587011 625.0757 353.269823 
Q 625.33195 352.952636 625.33195 352.376073 
L 625.33195 352.371386 
Q 625.33195 351.810448 625.0757 351.502636 
Q 624.81945 351.194823 624.3507 351.194823 
Q 623.877263 351.194823 623.621013 351.502636 
Q 623.364763 351.810448 623.364763 352.376073 
L 623.364763 352.380761 
Q 623.364763 352.957323 623.621013 353.272948 
Q 623.877263 353.587011 624.3507 353.587011 
z
M 629.673161 357.483886 
Q 628.676286 357.483886 628.160661 356.952636 
Q 627.646599 356.419823 627.646599 355.466698 
L 627.646599 352.240136 
Q 627.646599 351.282323 628.163786 350.752636 
Q 628.680974 350.222948 629.673161 350.222948 
Q 630.668474 350.222948 631.184099 350.751073 
Q 631.699724 351.277636 631.699724 352.240136 
L 631.699724 355.466698 
Q 631.699724 356.424511 631.180974 356.954198 
Q 630.663786 357.483886 629.673161 357.483886 
z
M 629.673161 356.537011 
Q 630.199724 356.537011 630.451286 356.260448 
Q 630.702849 355.983886 630.702849 355.466698 
L 630.702849 352.240136 
Q 630.702849 351.721386 630.452849 351.446386 
Q 630.204411 351.169823 629.673161 351.169823 
Q 629.140349 351.169823 628.890349 351.446386 
Q 628.641911 351.721386 628.641911 352.240136 
L 628.641911 355.466698 
Q 628.641911 355.983886 628.893474 356.260448 
Q 629.145036 356.537011 629.673161 356.537011 
z
M 633.056364 356.546386 
L 635.531364 353.244823 
Q 635.746989 352.962011 635.865739 352.657323 
Q 635.986052 352.351073 635.986052 352.088573 
L 635.986052 352.077636 
Q 635.986052 351.654198 635.736052 351.419823 
Q 635.487614 351.185448 635.029802 351.185448 
Q 634.593864 351.185448 634.325114 351.441698 
Q 634.057927 351.697948 633.998552 352.166698 
L 633.998552 352.171386 
L 632.968864 352.171386 
L 632.968864 352.166698 
Q 633.056364 351.555761 633.326677 351.124511 
Q 633.598552 350.691698 634.028239 350.465136 
Q 634.457927 350.237011 635.018864 350.237011 
Q 635.654802 350.237011 636.103239 350.454198 
Q 636.553239 350.671386 636.787614 351.087011 
Q 637.021989 351.502636 637.021989 352.088573 
L 637.021989 352.093261 
Q 637.021989 352.468261 636.865739 352.879198 
Q 636.709489 353.288573 636.429802 353.669823 
L 634.375114 356.463573 
L 637.061052 356.463573 
L 637.061052 357.410448 
L 633.056364 357.410448 
L 633.056364 356.546386 
z
M 640.356755 357.483886 
Q 639.35988 357.483886 638.844255 356.952636 
Q 638.330192 356.419823 638.330192 355.466698 
L 638.330192 352.240136 
Q 638.330192 351.282323 638.84738 350.752636 
Q 639.364567 350.222948 640.356755 350.222948 
Q 641.352067 350.222948 641.867692 350.751073 
Q 642.383317 351.277636 642.383317 352.240136 
L 642.383317 355.466698 
Q 642.383317 356.424511 641.864567 356.954198 
Q 641.34738 357.483886 640.356755 357.483886 
z
M 640.356755 356.537011 
Q 640.883317 356.537011 641.13488 356.260448 
Q 641.386442 355.983886 641.386442 355.466698 
L 641.386442 352.240136 
Q 641.386442 351.721386 641.136442 351.446386 
Q 640.888005 351.169823 640.356755 351.169823 
Q 639.823942 351.169823 639.573942 351.446386 
Q 639.325505 351.721386 639.325505 352.240136 
L 639.325505 355.466698 
Q 639.325505 355.983886 639.577067 356.260448 
Q 639.82863 356.537011 640.356755 356.537011 
z
" style="fill: #ffffff"/>
   </g>
   <g id="text_2">
    <path d="M 325.649417 422.278123 
L 328.783793 418.293748 
L 330.008792 418.293748 
L 325.502543 423.771873 
L 325.649417 422.278123 
z
M 324.868167 418.293748 
L 325.86348 418.293748 
L 325.86348 425.393748 
L 324.868167 425.393748 
L 324.868167 418.293748 
z
M 326.830668 421.604686 
L 327.616605 420.876561 
L 330.30723 425.393748 
L 329.086917 425.393748 
L 326.830668 421.604686 
z
M 333.651371 421.868748 
L 333.646683 422.043748 
Q 333.524808 422.268748 333.277933 422.373436 
Q 333.031058 422.478123 332.695121 422.478123 
Q 332.187308 422.478123 331.801371 422.220311 
Q 331.415433 421.960936 331.202933 421.490623 
Q 330.990433 421.018748 330.990433 420.398436 
L 330.990433 420.393748 
Q 330.990433 419.704686 331.221683 419.217186 
Q 331.454496 418.728123 331.901371 418.474998 
Q 332.348246 418.220311 332.973246 418.220311 
Q 333.598246 418.220311 334.041996 418.479686 
Q 334.487308 418.73906 334.718558 419.232811 
Q 334.949808 419.724998 334.949808 420.418748 
L 334.949808 420.423436 
Q 334.949808 420.803123 334.851371 421.235936 
Q 334.754496 421.668748 334.574808 422.092186 
Q 334.545121 422.156248 334.515433 422.221873 
Q 334.487308 422.287498 334.452933 422.351561 
L 332.938871 425.393748 
L 331.863871 425.393748 
L 333.651371 421.868748 
z
M 332.973246 421.570311 
Q 333.441996 421.570311 333.698246 421.253123 
Q 333.954496 420.935936 333.954496 420.359373 
L 333.954496 420.354686 
Q 333.954496 419.793748 333.698246 419.485936 
Q 333.441996 419.178123 332.973246 419.178123 
Q 332.499808 419.178123 332.243558 419.485936 
Q 331.987308 419.793748 331.987308 420.359373 
L 331.987308 420.36406 
Q 331.987308 420.940623 332.243558 421.256248 
Q 332.499808 421.570311 332.973246 421.570311 
z
M 338.295707 425.467186 
Q 337.298832 425.467186 336.783207 424.935936 
Q 336.269144 424.403123 336.269144 423.449998 
L 336.269144 420.223435 
Q 336.269144 419.265623 336.786332 418.735936 
Q 337.303519 418.206248 338.295707 418.206248 
Q 339.291019 418.206248 339.806644 418.734373 
Q 340.322269 419.260936 340.322269 420.223435 
L 340.322269 423.449998 
Q 340.322269 424.407811 339.803519 424.937498 
Q 339.286332 425.467186 338.295707 425.467186 
z
M 338.295707 424.52031 
Q 338.822269 424.52031 339.073832 424.243748 
Q 339.325394 423.967186 339.325394 423.449998 
L 339.325394 420.223435 
Q 339.325394 419.704686 339.075394 419.429686 
Q 338.826957 419.153123 338.295707 419.153123 
Q 337.762894 419.153123 337.512894 419.429686 
Q 337.264457 419.704686 337.264457 420.223435 
L 337.264457 423.449998 
Q 337.264457 423.967186 337.516019 424.243748 
Q 337.767582 424.52031 338.295707 424.52031 
z
M 341.67891 424.529686 
L 344.15391 421.228123 
Q 344.369535 420.945311 344.488285 420.640623 
Q 344.608597 420.334373 344.608597 420.071873 
L 344.608597 420.060936 
Q 344.608597 419.637498 344.358597 419.403123 
Q 344.11016 419.168748 343.652347 419.168748 
Q 343.21641 419.168748 342.94766 419.424998 
Q 342.680472 419.681248 342.621097 420.149998 
L 342.621097 420.154686 
L 341.59141 420.154686 
L 341.59141 420.149998 
Q 341.67891 419.539061 341.949222 419.107811 
Q 342.221097 418.674998 342.650785 418.448436 
Q 343.080472 418.220311 343.64141 418.220311 
Q 344.277347 418.220311 344.725785 418.437498 
Q 345.175785 418.654686 345.41016 419.070311 
Q 345.644535 419.485936 345.644535 420.071873 
L 345.644535 420.076561 
Q 345.644535 420.451561 345.488285 420.862498 
Q 345.332035 421.271873 345.052347 421.653123 
L 342.99766 424.446873 
L 345.683597 424.446873 
L 345.683597 425.393748 
L 341.67891 425.393748 
L 341.67891 424.529686 
z
M 348.9793 425.467186 
Q 347.982425 425.467186 347.4668 424.935936 
Q 346.952738 424.403123 346.952738 423.449998 
L 346.952738 420.223435 
Q 346.952738 419.265623 347.469925 418.735936 
Q 347.987113 418.206248 348.9793 418.206248 
Q 349.974613 418.206248 350.490238 418.734373 
Q 351.005863 419.260936 351.005863 420.223435 
L 351.005863 423.449998 
Q 351.005863 424.407811 350.487113 424.937498 
Q 349.969925 425.467186 348.9793 425.467186 
z
M 348.9793 424.52031 
Q 349.505863 424.52031 349.757425 424.243748 
Q 350.008988 423.967186 350.008988 423.449998 
L 350.008988 420.223435 
Q 350.008988 419.704686 349.758988 419.429686 
Q 349.51055 419.153123 348.9793 419.153123 
Q 348.446488 419.153123 348.196488 419.429686 
Q 347.94805 419.704686 347.94805 420.223435 
L 347.94805 423.449998 
Q 347.94805 423.967186 348.199613 424.243748 
Q 348.451175 424.52031 348.9793 424.52031 
z
" style="fill: #ffffff; stroke: #000000"/>
    <path d="M 325.649417 422.278123 
L 328.783793 418.293748 
L 330.008792 418.293748 
L 325.502543 423.771873 
L 325.649417 422.278123 
z
M 324.868167 418.293748 
L 325.86348 418.293748 
L 325.86348 425.393748 
L 324.868167 425.393748 
L 324.868167 418.293748 
z
M 326.830668 421.604686 
L 327.616605 420.876561 
L 330.30723 425.393748 
L 329.086917 425.393748 
L 326.830668 421.604686 
z
M 333.651371 421.868748 
L 333.646683 422.043748 
Q 333.524808 422.268748 333.277933 422.373436 
Q 333.031058 422.478123 332.695121 422.478123 
Q 332.187308 422.478123 331.801371 422.220311 
Q 331.415433 421.960936 331.202933 421.490623 
Q 330.990433 421.018748 330.990433 420.398436 
L 330.990433 420.393748 
Q 330.990433 419.704686 331.221683 419.217186 
Q 331.454496 418.728123 331.901371 418.474998 
Q 332.348246 418.220311 332.973246 418.220311 
Q 333.598246 418.220311 334.041996 418.479686 
Q 334.487308 418.73906 334.718558 419.232811 
Q 334.949808 419.724998 334.949808 420.418748 
L 334.949808 420.423436 
Q 334.949808 420.803123 334.851371 421.235936 
Q 334.754496 421.668748 334.574808 422.092186 
Q 334.545121 422.156248 334.515433 422.221873 
Q 334.487308 422.287498 334.452933 422.351561 
L 332.938871 425.393748 
L 331.863871 425.393748 
L 333.651371 421.868748 
z
M 332.973246 421.570311 
Q 333.441996 421.570311 333.698246 421.253123 
Q 333.954496 420.935936 333.954496 420.359373 
L 333.954496 420.354686 
Q 333.954496 419.793748 333.698246 419.485936 
Q 333.441996 419.178123 332.973246 419.178123 
Q 332.499808 419.178123 332.243558 419.485936 
Q 331.987308 419.793748 331.987308 420.359373 
L 331.987308 420.36406 
Q 331.987308 420.940623 332.243558 421.256248 
Q 332.499808 421.570311 332.973246 421.570311 
z
M 338.295707 425.467186 
Q 337.298832 425.467186 336.783207 424.935936 
Q 336.269144 424.403123 336.269144 423.449998 
L 336.269144 420.223435 
Q 336.269144 419.265623 336.786332 418.735936 
Q 337.303519 418.206248 338.295707 418.206248 
Q 339.291019 418.206248 339.806644 418.734373 
Q 340.322269 419.260936 340.322269 420.223435 
L 340.322269 423.449998 
Q 340.322269 424.407811 339.803519 424.937498 
Q 339.286332 425.467186 338.295707 425.467186 
z
M 338.295707 424.52031 
Q 338.822269 424.52031 339.073832 424.243748 
Q 339.325394 423.967186 339.325394 423.449998 
L 339.325394 420.223435 
Q 339.325394 419.704686 339.075394 419.429686 
Q 338.826957 419.153123 338.295707 419.153123 
Q 337.762894 419.153123 337.512894 419.429686 
Q 337.264457 419.704686 337.264457 420.223435 
L 337.264457 423.449998 
Q 337.264457 423.967186 337.516019 424.243748 
Q 337.767582 424.52031 338.295707 424.52031 
z
M 341.67891 424.529686 
L 344.15391 421.228123 
Q 344.369535 420.945311 344.488285 420.640623 
Q 344.608597 420.334373 344.608597 420.071873 
L 344.608597 420.060936 
Q 344.608597 419.637498 344.358597 419.403123 
Q 344.11016 419.168748 343.652347 419.168748 
Q 343.21641 419.168748 342.94766 419.424998 
Q 342.680472 419.681248 342.621097 420.149998 
L 342.621097 420.154686 
L 341.59141 420.154686 
L 341.59141 420.149998 
Q 341.67891 419.539061 341.949222 419.107811 
Q 342.221097 418.674998 342.650785 418.448436 
Q 343.080472 418.220311 343.64141 418.220311 
Q 344.277347 418.220311 344.725785 418.437498 
Q 345.175785 418.654686 345.41016 419.070311 
Q 345.644535 419.485936 345.644535 420.071873 
L 345.644535 420.076561 
Q 345.644535 420.451561 345.488285 420.862498 
Q 345.332035 421.271873 345.052347 421.653123 
L 342.99766 424.446873 
L 345.683597 424.446873 
L 345.683597 425.393748 
L 341.67891 425.393748 
L 341.67891 424.529686 
z
M 348.9793 425.467186 
Q 347.982425 425.467186 347.4668 424.935936 
Q 346.952738 424.403123 346.952738 423.449998 
L 346.952738 420.223435 
Q 346.952738 419.265623 347.469925 418.735936 
Q 347.987113 418.206248 348.9793 418.206248 
Q 349.974613 418.206248 350.490238 418.734373 
Q 351.005863 419.260936 351.005863 420.223435 
L 351.005863 423.449998 
Q 351.005863 424.407811 350.487113 424.937498 
Q 349.969925 425.467186 348.9793 425.467186 
z
M 348.9793 424.52031 
Q 349.505863 424.52031 349.757425 424.243748 
Q 350.008988 423.967186 350.008988 423.449998 
L 350.008988 420.223435 
Q 350.008988 419.704686 349.758988 419.429686 
Q 349.51055 419.153123 348.9793 419.153123 
Q 348.446488 419.153123 348.196488 419.429686 
Q 347.94805 419.704686 347.94805 420.223435 
L 347.94805 423.449998 
Q 347.94805 423.967186 348.199613 424.243748 
Q 348.451175 424.52031 348.9793 424.52031 
z
" style="fill: #ffffff"/>
   </g>
  </g>
 </g>
 <defs>
  <clipPath id="pa569136477">
   <rect x="144" y="77.76" width="892.8" height="498.96"/>
  </clipPath>
 </defs>
</svg>
