<?xml version="1.0" encoding="utf-8" standalone="no"?>
<!DOCTYPE svg PUBLIC "-//W3C//DTD SVG 1.1//EN"
  "http://www.w3.org/Graphics/SVG/1.1/DTD/svg11.dtd">
<svg xmlns:xlink="http://www.w3.org/1999/xlink" width="1152pt" height="648pt" viewBox="0 0 1152 648" xmlns="http://www.w3.org/2000/svg" version="1.1">
 <metadata>
  <rdf:RDF xmlns:dc="http://purl.org/dc/elements/1.1/" xmlns:cc="http://creativecommons.org/ns#" xmlns:rdf="http://www.w3.org/1999/02/22-rdf-syntax-ns#">
   <cc:Work>
    <dc:type rdf:resource="http://purl.org/dc/dcmitype/StillImage"/>
    <dc:date>2024-12-06T13:18:25.541793</dc:date>
    <dc:format>image/svg+xml</dc:format>
    <dc:creator>
     <cc:Agent>
      <dc:title>Matplotlib v3.9.2, https://matplotlib.org/</dc:title>
     </cc:Agent>
    </dc:creator>
   </cc:Work>
  </rdf:RDF>
 </metadata>
 <defs>
  <style type="text/css">*{stroke-linejoin: round; stroke-linecap: butt}</style>
 </defs>
 <g id="figure_1">
  <g id="patch_1">
   <path d="M 0 648 
L 1152 648 
L 1152 0 
L 0 0 
L 0 648 
z
" style="fill: none"/>
  </g>
  <g id="axes_1">
   <g id="line2d_1">
    <path d="M 212.989091 489.554367 
L 215.858512 487.291507 
L 218.727934 485.073754 
L 221.597355 482.900209 
L 224.466777 480.769993 
L 227.336198 478.682244 
L 230.20562 476.636117 
L 233.075041 474.630782 
L 235.944463 472.665428 
L 238.813884 470.739258 
L 241.683306 468.851493 
L 244.552727 467.001368 
L 247.422149 465.188132 
L 250.29157 463.411053 
L 253.160992 461.669409 
L 256.030413 459.962496 
L 258.899835 458.28962 
L 261.769256 456.650105 
L 264.638678 455.043285 
L 267.508099 453.46851 
L 270.377521 451.925141 
L 273.246942 450.412553 
L 276.116364 448.930132 
L 278.985785 447.477277 
L 281.855207 446.053399 
L 284.724628 444.657921 
L 287.59405 443.290277 
L 290.463471 441.949913 
L 293.332893 440.636284 
L 296.202314 439.348858 
L 299.071736 438.087113 
L 301.941157 436.850536 
L 304.810579 435.638627 
L 307.68 434.450894 
L 310.549421 433.286855 
L 313.418843 432.146037 
L 316.288264 431.027978 
L 319.157686 429.932223 
L 322.027107 428.85833 
L 324.896529 427.80586 
L 327.76595 426.774389 
L 330.635372 425.763496 
L 333.504793 424.772772 
L 336.374215 423.801814 
L 339.243636 422.850228 
L 342.113058 421.917629 
L 344.982479 421.003638 
L 347.851901 420.107883 
L 350.721322 419.230001 
L 353.590744 418.369635 
L 356.460165 417.526437 
L 359.329587 416.700063 
L 362.199008 415.890179 
L 365.06843 415.096456 
L 367.937851 414.318571 
L 370.807273 413.556208 
L 373.676694 412.809058 
L 376.546116 412.076817 
L 379.415537 411.359189 
L 382.284959 410.655881 
L 385.15438 409.966608 
L 388.023802 409.29109 
L 390.893223 408.629052 
L 393.762645 407.980227 
L 396.632066 407.34435 
L 399.501488 406.721162 
L 402.370909 406.110412 
L 405.240331 405.51185 
L 408.109752 404.925234 
L 410.979174 404.350325 
L 413.848595 403.78689 
L 416.718017 403.2347 
L 419.587438 402.69353 
L 422.45686 402.163161 
L 425.326281 401.643377 
L 428.195702 401.133967 
L 431.065124 400.634724 
L 433.934545 400.145445 
L 436.803967 399.665932 
L 439.673388 399.195989 
L 442.54281 398.735426 
L 445.412231 398.284055 
L 448.281653 397.841693 
L 451.151074 397.40816 
L 454.020496 396.983281 
L 456.889917 396.566882 
L 459.759339 396.158794 
L 462.62876 395.758852 
L 465.498182 395.366892 
L 468.367603 394.982756 
L 471.237025 394.606287 
L 474.106446 394.237333 
L 476.975868 393.875743 
L 479.845289 393.521371 
L 482.714711 393.174072 
L 485.584132 392.833706 
L 488.453554 392.500134 
L 491.322975 392.17322 
L 494.192397 391.852831 
L 497.061818 391.538838 
" clip-path="url(#p35178cc368)" style="fill: none; stroke: #30b1f2; stroke-width: 3; stroke-linecap: round"/>
   </g>
   <g id="text_1">
    <path d="M 504.863673 386.666656 
L 505.858986 386.666656 
L 505.858986 393.185406 
L 504.863673 393.185406 
L 504.863673 386.666656 
z
M 502.855861 386.085406 
L 507.866798 386.085406 
L 507.866798 387.032281 
L 502.855861 387.032281 
L 502.855861 386.085406 
z
M 510.625001 393.258844 
Q 509.921876 393.258844 509.423439 392.994781 
Q 508.926564 392.730719 508.664064 392.221344 
Q 508.403126 391.710406 508.403126 390.988531 
L 508.403126 390.416656 
Q 508.403126 389.665094 508.654689 389.133844 
Q 508.906251 388.601031 509.384376 388.322906 
Q 509.864064 388.043219 510.537501 388.043219 
Q 511.171876 388.043219 511.620314 388.361969 
Q 512.070314 388.679156 512.306251 389.279156 
Q 512.543751 389.879156 512.543751 390.719781 
L 512.543751 391.051031 
L 509.126564 391.051031 
L 509.126564 390.251031 
L 511.596876 390.251031 
L 511.596876 390.251031 
Q 511.553126 389.630719 511.276564 389.286969 
Q 511.001564 388.941656 510.537501 388.941656 
Q 509.970314 388.941656 509.660939 389.313531 
Q 509.351564 389.683844 509.351564 390.363531 
L 509.351564 391.007281 
Q 509.351564 391.636969 509.682814 391.974469 
Q 510.015626 392.311969 510.625001 392.311969 
Q 510.928126 392.311969 511.225001 392.190094 
Q 511.523439 392.066656 511.757814 391.847906 
L 511.757814 391.847906 
L 512.412501 392.501031 
L 512.412501 392.501031 
Q 512.035939 392.863531 511.567189 393.061969 
Q 511.098439 393.258844 510.625001 393.258844 
z
M 513.911329 388.116656 
L 514.908204 388.116656 
L 514.908204 393.185406 
L 513.911329 393.185406 
L 513.911329 388.116656 
z
M 516.987892 390.113531 
Q 516.987892 389.577594 516.709767 389.285406 
Q 516.431642 388.991656 515.928517 388.991656 
Q 515.439454 388.991656 515.173829 389.251031 
Q 514.908204 389.508844 514.908204 389.977594 
L 514.805079 389.001031 
Q 515.039454 388.541656 515.417579 388.293219 
Q 515.795704 388.043219 516.255079 388.043219 
Q 517.080079 388.043219 517.531642 388.583844 
Q 517.983204 389.122906 517.983204 390.108844 
L 517.983204 393.185406 
L 516.987892 393.185406 
L 516.987892 390.113531 
z
M 521.289454 393.258844 
Q 520.839454 393.258844 520.445704 393.171344 
Q 520.053517 393.082281 519.711329 392.907281 
Q 519.370704 392.730719 519.081642 392.468219 
L 519.081642 392.468219 
L 519.673829 391.740094 
L 519.673829 391.740094 
Q 520.083204 392.052594 520.487892 392.208844 
Q 520.894142 392.365094 521.289454 392.365094 
Q 521.880079 392.365094 522.175392 392.182281 
Q 522.470704 391.999469 522.470704 391.632281 
Q 522.470704 391.388531 522.309767 391.266656 
Q 522.148829 391.144781 521.909767 391.104156 
Q 521.670704 391.061969 521.236329 391.027594 
Q 521.197267 391.027594 521.151954 391.026031 
Q 521.108204 391.022906 521.069142 391.016656 
Q 521.050392 391.016656 521.030079 391.015094 
Q 521.011329 391.011969 520.991017 391.011969 
Q 520.498829 390.972906 520.156642 390.868219 
Q 519.814454 390.763531 519.587892 390.476031 
Q 519.361329 390.186969 519.361329 389.649469 
Q 519.361329 389.113531 519.580079 388.757281 
Q 519.800392 388.399469 520.234767 388.221344 
Q 520.669142 388.043219 521.323829 388.043219 
Q 521.719142 388.043219 522.076954 388.116656 
Q 522.436329 388.190094 522.762892 388.333844 
Q 523.091017 388.477594 523.394142 388.697906 
L 523.394142 388.697906 
L 522.792579 389.426031 
L 522.792579 389.426031 
Q 522.412892 389.180719 522.044142 389.058844 
Q 521.675392 388.936969 521.323829 388.936969 
Q 520.816017 388.936969 520.561329 389.110406 
Q 520.308204 389.283844 520.308204 389.630719 
Q 520.308204 389.835406 520.451954 389.938531 
Q 520.595704 390.040094 520.814454 390.074469 
Q 521.034767 390.108844 521.441017 390.133844 
Q 521.470704 390.138531 521.501954 390.138531 
Q 521.533204 390.138531 521.567579 390.143219 
Q 521.581642 390.143219 521.595704 390.143219 
Q 521.611329 390.143219 521.626954 390.147906 
Q 522.158204 390.182281 522.531642 390.290094 
Q 522.905079 390.397906 523.158204 390.715094 
Q 523.412892 391.032281 523.412892 391.632281 
Q 523.412892 392.179156 523.178517 392.538531 
Q 522.944142 392.897906 522.472267 393.079156 
Q 522.001954 393.258844 521.289454 393.258844 
z
M 526.626564 393.258844 
Q 525.967189 393.258844 525.498439 393.001031 
Q 525.029689 392.741656 524.782814 392.246344 
Q 524.535939 391.749469 524.535939 391.051031 
L 524.535939 390.226031 
Q 524.535939 389.538531 524.782814 389.047906 
Q 525.029689 388.555719 525.498439 388.299469 
Q 525.967189 388.043219 526.626564 388.043219 
Q 527.285939 388.043219 527.754689 388.299469 
Q 528.223439 388.555719 528.468751 389.047906 
Q 528.715626 389.538531 528.715626 390.226031 
L 528.715626 391.066656 
Q 528.715626 391.758844 528.468751 392.251031 
Q 528.223439 392.741656 527.754689 393.001031 
Q 527.285939 393.258844 526.626564 393.258844 
z
M 526.626564 392.311969 
Q 527.148439 392.311969 527.434376 391.985406 
Q 527.720314 391.657281 527.720314 391.066656 
L 527.720314 390.226031 
Q 527.720314 389.635406 527.434376 389.313531 
Q 527.148439 388.991656 526.626564 388.991656 
Q 526.103126 388.991656 525.817189 389.313531 
Q 525.532814 389.635406 525.532814 390.226031 
L 525.532814 391.066656 
Q 525.532814 391.657281 525.817189 391.985406 
Q 526.103126 392.311969 526.626564 392.311969 
z
M 530.132033 388.116656 
L 531.128908 388.116656 
L 531.128908 393.185406 
L 530.132033 393.185406 
L 530.132033 388.116656 
z
M 532.919533 389.318219 
Q 532.788283 389.157281 532.588283 389.074469 
Q 532.388283 388.991656 532.12422 388.991656 
Q 531.650783 388.991656 531.389845 389.252594 
Q 531.128908 389.513531 531.128908 389.977594 
L 531.025783 389.001031 
Q 531.260158 388.546344 531.63047 388.294781 
Q 532.002345 388.043219 532.450783 388.043219 
Q 532.797658 388.043219 533.078908 388.143219 
Q 533.360158 388.243219 533.569533 388.438531 
L 532.919533 389.318219 
z
M 541.060158 389.361969 
L 541.060158 390.602594 
Q 541.060158 391.393219 540.752345 391.996344 
Q 540.444533 392.599469 539.88047 392.929156 
Q 539.316408 393.258844 538.57422 393.258844 
Q 537.822658 393.258844 537.253908 392.949469 
Q 536.685158 392.638531 536.372658 392.072906 
Q 536.060158 391.505719 536.060158 390.758844 
L 536.060158 388.663531 
Q 536.060158 387.872906 536.36797 387.272906 
Q 536.675783 386.671344 537.238283 386.341656 
Q 537.802345 386.011969 538.544533 386.011969 
Q 539.15547 386.011969 539.669533 386.274469 
Q 540.185158 386.535406 540.532033 387.013531 
Q 540.878908 387.491656 541.000783 388.121344 
L 541.000783 388.121344 
L 539.922658 388.121344 
L 539.922658 388.121344 
Q 539.833595 387.765094 539.62422 387.508844 
Q 539.414845 387.252594 539.13047 387.118219 
Q 538.847658 386.983844 538.544533 386.983844 
Q 538.10547 386.983844 537.772658 387.194781 
Q 537.441408 387.404156 537.260158 387.782281 
Q 537.08047 388.160406 537.08047 388.663531 
L 537.08047 390.758844 
Q 537.08047 391.218219 537.264845 391.561969 
Q 537.450783 391.905719 537.789845 392.096344 
Q 538.13047 392.286969 538.57422 392.286969 
Q 539.013283 392.286969 539.344533 392.090094 
Q 539.677345 391.891656 539.858595 391.516656 
Q 540.039845 391.140094 540.039845 390.621344 
L 540.039845 390.313531 
L 538.59922 390.313531 
L 538.59922 389.361969 
L 541.060158 389.361969 
z
M 542.426564 391.232281 
L 544.809376 386.090094 
L 545.835939 386.090094 
L 543.510939 391.172906 
L 546.992189 391.172906 
L 546.992189 392.096344 
L 542.426564 392.096344 
L 542.426564 391.232281 
z
M 545.489064 389.010406 
L 546.460939 389.010406 
L 546.460939 393.190094 
L 545.489064 393.190094 
L 545.489064 389.010406 
z
" style="fill: #ffffff; stroke: #000000"/>
    <path d="M 504.863673 386.666656 
L 505.858986 386.666656 
L 505.858986 393.185406 
L 504.863673 393.185406 
L 504.863673 386.666656 
z
M 502.855861 386.085406 
L 507.866798 386.085406 
L 507.866798 387.032281 
L 502.855861 387.032281 
L 502.855861 386.085406 
z
M 510.625001 393.258844 
Q 509.921876 393.258844 509.423439 392.994781 
Q 508.926564 392.730719 508.664064 392.221344 
Q 508.403126 391.710406 508.403126 390.988531 
L 508.403126 390.416656 
Q 508.403126 389.665094 508.654689 389.133844 
Q 508.906251 388.601031 509.384376 388.322906 
Q 509.864064 388.043219 510.537501 388.043219 
Q 511.171876 388.043219 511.620314 388.361969 
Q 512.070314 388.679156 512.306251 389.279156 
Q 512.543751 389.879156 512.543751 390.719781 
L 512.543751 391.051031 
L 509.126564 391.051031 
L 509.126564 390.251031 
L 511.596876 390.251031 
L 511.596876 390.251031 
Q 511.553126 389.630719 511.276564 389.286969 
Q 511.001564 388.941656 510.537501 388.941656 
Q 509.970314 388.941656 509.660939 389.313531 
Q 509.351564 389.683844 509.351564 390.363531 
L 509.351564 391.007281 
Q 509.351564 391.636969 509.682814 391.974469 
Q 510.015626 392.311969 510.625001 392.311969 
Q 510.928126 392.311969 511.225001 392.190094 
Q 511.523439 392.066656 511.757814 391.847906 
L 511.757814 391.847906 
L 512.412501 392.501031 
L 512.412501 392.501031 
Q 512.035939 392.863531 511.567189 393.061969 
Q 511.098439 393.258844 510.625001 393.258844 
z
M 513.911329 388.116656 
L 514.908204 388.116656 
L 514.908204 393.185406 
L 513.911329 393.185406 
L 513.911329 388.116656 
z
M 516.987892 390.113531 
Q 516.987892 389.577594 516.709767 389.285406 
Q 516.431642 388.991656 515.928517 388.991656 
Q 515.439454 388.991656 515.173829 389.251031 
Q 514.908204 389.508844 514.908204 389.977594 
L 514.805079 389.001031 
Q 515.039454 388.541656 515.417579 388.293219 
Q 515.795704 388.043219 516.255079 388.043219 
Q 517.080079 388.043219 517.531642 388.583844 
Q 517.983204 389.122906 517.983204 390.108844 
L 517.983204 393.185406 
L 516.987892 393.185406 
L 516.987892 390.113531 
z
M 521.289454 393.258844 
Q 520.839454 393.258844 520.445704 393.171344 
Q 520.053517 393.082281 519.711329 392.907281 
Q 519.370704 392.730719 519.081642 392.468219 
L 519.081642 392.468219 
L 519.673829 391.740094 
L 519.673829 391.740094 
Q 520.083204 392.052594 520.487892 392.208844 
Q 520.894142 392.365094 521.289454 392.365094 
Q 521.880079 392.365094 522.175392 392.182281 
Q 522.470704 391.999469 522.470704 391.632281 
Q 522.470704 391.388531 522.309767 391.266656 
Q 522.148829 391.144781 521.909767 391.104156 
Q 521.670704 391.061969 521.236329 391.027594 
Q 521.197267 391.027594 521.151954 391.026031 
Q 521.108204 391.022906 521.069142 391.016656 
Q 521.050392 391.016656 521.030079 391.015094 
Q 521.011329 391.011969 520.991017 391.011969 
Q 520.498829 390.972906 520.156642 390.868219 
Q 519.814454 390.763531 519.587892 390.476031 
Q 519.361329 390.186969 519.361329 389.649469 
Q 519.361329 389.113531 519.580079 388.757281 
Q 519.800392 388.399469 520.234767 388.221344 
Q 520.669142 388.043219 521.323829 388.043219 
Q 521.719142 388.043219 522.076954 388.116656 
Q 522.436329 388.190094 522.762892 388.333844 
Q 523.091017 388.477594 523.394142 388.697906 
L 523.394142 388.697906 
L 522.792579 389.426031 
L 522.792579 389.426031 
Q 522.412892 389.180719 522.044142 389.058844 
Q 521.675392 388.936969 521.323829 388.936969 
Q 520.816017 388.936969 520.561329 389.110406 
Q 520.308204 389.283844 520.308204 389.630719 
Q 520.308204 389.835406 520.451954 389.938531 
Q 520.595704 390.040094 520.814454 390.074469 
Q 521.034767 390.108844 521.441017 390.133844 
Q 521.470704 390.138531 521.501954 390.138531 
Q 521.533204 390.138531 521.567579 390.143219 
Q 521.581642 390.143219 521.595704 390.143219 
Q 521.611329 390.143219 521.626954 390.147906 
Q 522.158204 390.182281 522.531642 390.290094 
Q 522.905079 390.397906 523.158204 390.715094 
Q 523.412892 391.032281 523.412892 391.632281 
Q 523.412892 392.179156 523.178517 392.538531 
Q 522.944142 392.897906 522.472267 393.079156 
Q 522.001954 393.258844 521.289454 393.258844 
z
M 526.626564 393.258844 
Q 525.967189 393.258844 525.498439 393.001031 
Q 525.029689 392.741656 524.782814 392.246344 
Q 524.535939 391.749469 524.535939 391.051031 
L 524.535939 390.226031 
Q 524.535939 389.538531 524.782814 389.047906 
Q 525.029689 388.555719 525.498439 388.299469 
Q 525.967189 388.043219 526.626564 388.043219 
Q 527.285939 388.043219 527.754689 388.299469 
Q 528.223439 388.555719 528.468751 389.047906 
Q 528.715626 389.538531 528.715626 390.226031 
L 528.715626 391.066656 
Q 528.715626 391.758844 528.468751 392.251031 
Q 528.223439 392.741656 527.754689 393.001031 
Q 527.285939 393.258844 526.626564 393.258844 
z
M 526.626564 392.311969 
Q 527.148439 392.311969 527.434376 391.985406 
Q 527.720314 391.657281 527.720314 391.066656 
L 527.720314 390.226031 
Q 527.720314 389.635406 527.434376 389.313531 
Q 527.148439 388.991656 526.626564 388.991656 
Q 526.103126 388.991656 525.817189 389.313531 
Q 525.532814 389.635406 525.532814 390.226031 
L 525.532814 391.066656 
Q 525.532814 391.657281 525.817189 391.985406 
Q 526.103126 392.311969 526.626564 392.311969 
z
M 530.132033 388.116656 
L 531.128908 388.116656 
L 531.128908 393.185406 
L 530.132033 393.185406 
L 530.132033 388.116656 
z
M 532.919533 389.318219 
Q 532.788283 389.157281 532.588283 389.074469 
Q 532.388283 388.991656 532.12422 388.991656 
Q 531.650783 388.991656 531.389845 389.252594 
Q 531.128908 389.513531 531.128908 389.977594 
L 531.025783 389.001031 
Q 531.260158 388.546344 531.63047 388.294781 
Q 532.002345 388.043219 532.450783 388.043219 
Q 532.797658 388.043219 533.078908 388.143219 
Q 533.360158 388.243219 533.569533 388.438531 
L 532.919533 389.318219 
z
M 541.060158 389.361969 
L 541.060158 390.602594 
Q 541.060158 391.393219 540.752345 391.996344 
Q 540.444533 392.599469 539.88047 392.929156 
Q 539.316408 393.258844 538.57422 393.258844 
Q 537.822658 393.258844 537.253908 392.949469 
Q 536.685158 392.638531 536.372658 392.072906 
Q 536.060158 391.505719 536.060158 390.758844 
L 536.060158 388.663531 
Q 536.060158 387.872906 536.36797 387.272906 
Q 536.675783 386.671344 537.238283 386.341656 
Q 537.802345 386.011969 538.544533 386.011969 
Q 539.15547 386.011969 539.669533 386.274469 
Q 540.185158 386.535406 540.532033 387.013531 
Q 540.878908 387.491656 541.000783 388.121344 
L 541.000783 388.121344 
L 539.922658 388.121344 
L 539.922658 388.121344 
Q 539.833595 387.765094 539.62422 387.508844 
Q 539.414845 387.252594 539.13047 387.118219 
Q 538.847658 386.983844 538.544533 386.983844 
Q 538.10547 386.983844 537.772658 387.194781 
Q 537.441408 387.404156 537.260158 387.782281 
Q 537.08047 388.160406 537.08047 388.663531 
L 537.08047 390.758844 
Q 537.08047 391.218219 537.264845 391.561969 
Q 537.450783 391.905719 537.789845 392.096344 
Q 538.13047 392.286969 538.57422 392.286969 
Q 539.013283 392.286969 539.344533 392.090094 
Q 539.677345 391.891656 539.858595 391.516656 
Q 540.039845 391.140094 540.039845 390.621344 
L 540.039845 390.313531 
L 538.59922 390.313531 
L 538.59922 389.361969 
L 541.060158 389.361969 
z
M 542.426564 391.232281 
L 544.809376 386.090094 
L 545.835939 386.090094 
L 543.510939 391.172906 
L 546.992189 391.172906 
L 546.992189 392.096344 
L 542.426564 392.096344 
L 542.426564 391.232281 
z
M 545.489064 389.010406 
L 546.460939 389.010406 
L 546.460939 393.190094 
L 545.489064 393.190094 
L 545.489064 389.010406 
z
" style="fill: #ffffff"/>
   </g>
  </g>
 </g>
 <defs>
  <clipPath id="p35178cc368">
   <rect x="144" y="77.76" width="892.8" height="498.96"/>
  </clipPath>
 </defs>
</svg>
