<?xml version="1.0" encoding="utf-8" standalone="no"?>
<!DOCTYPE svg PUBLIC "-//W3C//DTD SVG 1.1//EN"
  "http://www.w3.org/Graphics/SVG/1.1/DTD/svg11.dtd">
<svg xmlns:xlink="http://www.w3.org/1999/xlink" width="1152pt" height="648pt" viewBox="0 0 1152 648" xmlns="http://www.w3.org/2000/svg" version="1.1">
 <metadata>
  <rdf:RDF xmlns:dc="http://purl.org/dc/elements/1.1/" xmlns:cc="http://creativecommons.org/ns#" xmlns:rdf="http://www.w3.org/1999/02/22-rdf-syntax-ns#">
   <cc:Work>
    <dc:type rdf:resource="http://purl.org/dc/dcmitype/StillImage"/>
    <dc:date>2024-10-09T18:10:10.163011</dc:date>
    <dc:format>image/svg+xml</dc:format>
    <dc:creator>
     <cc:Agent>
      <dc:title>Matplotlib v3.8.1, https://matplotlib.org/</dc:title>
     </cc:Agent>
    </dc:creator>
   </cc:Work>
  </rdf:RDF>
 </metadata>
 <defs>
  <style type="text/css">*{stroke-linejoin: round; stroke-linecap: butt}</style>
 </defs>
 <g id="figure_1">
  <g id="patch_1">
   <path d="M 0 648 
L 1152 648 
L 1152 0 
L 0 0 
L 0 648 
z
" style="fill: none"/>
  </g>
  <g id="axes_1">
   <g id="line2d_1">
    <path d="M 217.858909 462.284382 
L 220.576661 458.773285 
L 223.294413 455.325436 
L 226.012165 451.939701 
L 228.729917 448.614969 
L 231.447669 445.350146 
L 234.165421 442.14416 
L 236.883174 438.995954 
L 239.600926 435.904494 
L 242.318678 432.868762 
L 245.03643 429.887759 
L 247.754182 426.960503 
L 250.471934 424.086029 
L 253.189686 421.263392 
L 255.907438 418.491659 
L 258.62519 415.769918 
L 261.342942 413.097271 
L 264.060694 410.472837 
L 266.778446 407.89575 
L 269.496198 405.365158 
L 272.21395 402.880228 
L 274.931702 400.440138 
L 277.649455 398.044083 
L 280.367207 395.691271 
L 283.084959 393.380925 
L 285.802711 391.112282 
L 288.520463 388.884591 
L 291.238215 386.697116 
L 293.955967 384.549134 
L 296.673719 382.439935 
L 299.391471 380.36882 
L 302.109223 378.335105 
L 304.826975 376.338115 
L 307.544727 374.377192 
L 310.262479 372.451684 
L 312.980231 370.560955 
L 315.697983 368.704379 
L 318.415736 366.88134 
L 321.133488 365.091234 
L 323.85124 363.333469 
L 326.568992 361.607462 
L 329.286744 359.91264 
L 332.004496 358.248443 
L 334.722248 356.614317 
L 337.44 355.009722 
L 340.157752 353.434125 
L 342.875504 351.887002 
L 345.593256 350.367842 
L 348.311008 348.87614 
L 351.02876 347.411401 
L 353.746512 345.973139 
L 356.464264 344.560876 
L 359.182017 343.174144 
L 361.899769 341.812481 
L 364.617521 340.475436 
L 367.335273 339.162565 
L 370.053025 337.873432 
L 372.770777 336.607608 
L 375.488529 335.364673 
L 378.206281 334.144214 
L 380.924033 332.945825 
L 383.641785 331.769108 
L 386.359537 330.613672 
L 389.077289 329.479132 
L 391.795041 328.365112 
L 394.512793 327.271241 
L 397.230545 326.197155 
L 399.948298 325.142497 
L 402.66605 324.106917 
L 405.383802 323.090069 
L 408.101554 322.091616 
L 410.819306 321.111225 
L 413.537058 320.14857 
L 416.25481 319.203331 
L 418.972562 318.275193 
L 421.690314 317.363848 
L 424.408066 316.468991 
L 427.125818 315.590326 
L 429.84357 314.727559 
L 432.561322 313.880403 
L 435.279074 313.048576 
L 437.996826 312.231802 
L 440.714579 311.429808 
L 443.432331 310.642327 
L 446.150083 309.869097 
L 448.867835 309.10986 
L 451.585587 308.364364 
L 454.303339 307.632359 
L 457.021091 306.913603 
L 459.738843 306.207855 
L 462.456595 305.514881 
L 465.174347 304.834449 
L 467.892099 304.166333 
L 470.609851 303.51031 
L 473.327603 302.866162 
L 476.045355 302.233673 
L 478.763107 301.612634 
L 481.48086 301.002836 
L 484.198612 300.404077 
L 486.916364 299.816157 
" clip-path="url(#pb44e06526c)" style="fill: none; stroke: #79f2f2; stroke-width: 3; stroke-linecap: round"/>
   </g>
   <g id="text_1">
    <path d="M 495.821344 301.536163 
Q 495.308844 301.536163 494.849469 301.439288 
Q 494.391656 301.34085 493.993219 301.145538 
Q 493.594781 300.950225 493.247906 300.656475 
L 493.247906 300.656475 
L 493.868219 299.895538 
L 493.868219 299.895538 
Q 494.274469 300.2471 494.761969 300.423663 
Q 495.251031 300.598663 495.821344 300.598663 
Q 496.593219 300.598663 497.018219 300.312725 
Q 497.443219 300.026788 497.443219 299.504913 
L 497.443219 299.500225 
Q 497.443219 299.12835 497.249469 298.911163 
Q 497.057281 298.693975 496.751031 298.589288 
Q 496.446344 298.4846 495.963531 298.395538 
Q 495.947906 298.39085 495.930719 298.39085 
Q 495.915094 298.39085 495.899469 298.386163 
L 495.826031 298.3721 
Q 495.113531 298.250225 494.666656 298.0971 
Q 494.219781 297.942413 493.902594 297.5346 
Q 493.585406 297.126788 493.585406 296.375225 
L 493.585406 296.370538 
Q 493.585406 295.711163 493.880719 295.245538 
Q 494.176031 294.77835 494.741656 294.5346 
Q 495.308844 294.289288 496.104156 294.289288 
Q 496.485406 294.289288 496.854156 294.373663 
Q 497.222906 294.456475 497.580719 294.620538 
Q 497.940094 294.783038 498.286969 295.031475 
L 498.286969 295.031475 
L 497.721344 295.823663 
L 497.721344 295.823663 
Q 497.315094 295.525225 496.911969 295.376788 
Q 496.510406 295.226788 496.104156 295.226788 
Q 495.377594 295.226788 494.974469 295.517413 
Q 494.571344 295.808038 494.571344 296.34085 
L 494.571344 296.345538 
Q 494.571344 296.711163 494.779156 296.9221 
Q 494.986969 297.131475 495.296344 297.231475 
Q 495.607281 297.331475 496.158844 297.439288 
Q 496.177594 297.443975 496.194781 297.4471 
Q 496.211969 297.448663 496.232281 297.45335 
Q 496.255719 297.458038 496.285406 297.464288 
Q 496.315094 297.468975 496.338531 297.473663 
Q 496.983844 297.604913 497.415094 297.786163 
Q 497.847906 297.96585 498.138531 298.368975 
Q 498.429156 298.7721 498.429156 299.470538 
L 498.429156 299.479913 
Q 498.429156 300.129913 498.121344 300.59085 
Q 497.813531 301.051788 497.229156 301.293975 
Q 496.646344 301.536163 495.821344 301.536163 
z
M 500.519195 300.51585 
L 502.125445 300.51585 
Q 502.911383 300.51585 503.342633 300.108038 
Q 503.775445 299.700225 503.775445 298.958038 
L 503.775445 296.867413 
Q 503.775445 296.125225 503.342633 295.717413 
Q 502.911383 295.3096 502.125445 295.3096 
L 500.519195 295.3096 
L 500.519195 294.362725 
L 502.095758 294.362725 
Q 502.950445 294.362725 503.555133 294.661163 
Q 504.161383 294.958038 504.47857 295.529913 
Q 504.795758 296.101788 504.795758 296.906475 
L 504.795758 298.918975 
Q 504.795758 299.723663 504.47857 300.295538 
Q 504.161383 300.867413 503.55357 301.16585 
Q 502.945758 301.462725 502.09107 301.462725 
L 500.519195 301.462725 
L 500.519195 300.51585 
z
M 499.845758 294.362725 
L 500.84107 294.362725 
L 500.84107 301.462725 
L 499.845758 301.462725 
L 499.845758 294.362725 
z
M 508.34107 301.536163 
Q 507.69732 301.536163 507.208258 301.292413 
Q 506.720758 301.0471 506.45357 300.600225 
Q 506.187945 300.15335 506.187945 299.562725 
L 506.187945 299.445538 
Q 506.187945 298.914288 506.45357 298.445538 
Q 506.720758 297.976788 507.164508 297.737725 
Q 506.787945 297.531475 506.561383 297.143975 
Q 506.33482 296.754913 506.33482 296.325225 
L 506.33482 296.154913 
Q 506.33482 295.598663 506.583258 295.176788 
Q 506.831695 294.75335 507.286383 294.5221 
Q 507.74107 294.289288 508.34107 294.289288 
Q 508.94107 294.289288 509.395758 294.5221 
Q 509.850445 294.75335 510.098883 295.176788 
Q 510.34732 295.598663 510.34732 296.154913 
L 510.34732 296.325225 
Q 510.34732 296.76585 510.11607 297.151788 
Q 509.88482 297.536163 509.50357 297.737725 
Q 509.952008 297.981475 510.22232 298.448663 
Q 510.494195 298.914288 510.494195 299.445538 
L 510.494195 299.562725 
Q 510.494195 300.15335 510.22857 300.600225 
Q 509.962945 301.0471 509.473883 301.292413 
Q 508.986383 301.536163 508.34107 301.536163 
z
M 508.34107 300.57835 
Q 508.687945 300.57835 508.950445 300.442413 
Q 509.214508 300.304913 509.358258 300.0596 
Q 509.50357 299.812725 509.50357 299.489288 
L 509.50357 299.4221 
Q 509.50357 299.093975 509.358258 298.848663 
Q 509.214508 298.601788 508.950445 298.46585 
Q 508.687945 298.32835 508.34107 298.32835 
Q 507.994195 298.32835 507.730133 298.46585 
Q 507.467633 298.601788 507.32232 298.850225 
Q 507.17857 299.098663 507.17857 299.426788 
L 507.17857 299.500225 
Q 507.17857 299.8221 507.32232 300.06585 
Q 507.467633 300.3096 507.730133 300.443975 
Q 507.994195 300.57835 508.34107 300.57835 
z
M 508.34107 297.370538 
Q 508.639508 297.370538 508.867633 297.242413 
Q 509.09732 297.112725 509.223883 296.873663 
Q 509.352008 296.633038 509.352008 296.320538 
L 509.352008 296.25335 
Q 509.352008 295.954913 509.223883 295.725225 
Q 509.09732 295.495538 508.867633 295.3721 
Q 508.639508 295.2471 508.34107 295.2471 
Q 508.042633 295.2471 507.812945 295.3721 
Q 507.58482 295.495538 507.456695 295.725225 
Q 507.330133 295.954913 507.330133 296.258038 
L 507.330133 296.331475 
Q 507.330133 296.637725 507.456695 296.875225 
Q 507.58482 297.112725 507.812945 297.242413 
Q 508.042633 297.370538 508.34107 297.370538 
z
M 518.595367 297.639288 
L 518.595367 298.879913 
Q 518.595367 299.670538 518.287555 300.273663 
Q 517.979742 300.876788 517.41568 301.206475 
Q 516.851617 301.536163 516.10943 301.536163 
Q 515.357867 301.536163 514.789117 301.226788 
Q 514.220367 300.91585 513.907867 300.350225 
Q 513.595367 299.783038 513.595367 299.036163 
L 513.595367 296.94085 
Q 513.595367 296.150225 513.90318 295.550225 
Q 514.210992 294.948663 514.773492 294.618975 
Q 515.337555 294.289288 516.079742 294.289288 
Q 516.69068 294.289288 517.204742 294.551788 
Q 517.720367 294.812725 518.067242 295.29085 
Q 518.414117 295.768975 518.535992 296.398663 
L 518.535992 296.398663 
L 517.457867 296.398663 
L 517.457867 296.398663 
Q 517.368805 296.042413 517.15943 295.786163 
Q 516.950055 295.529913 516.66568 295.395538 
Q 516.382867 295.261163 516.079742 295.261163 
Q 515.64068 295.261163 515.307867 295.4721 
Q 514.976617 295.681475 514.795367 296.0596 
Q 514.61568 296.437725 514.61568 296.94085 
L 514.61568 299.036163 
Q 514.61568 299.495538 514.800055 299.839288 
Q 514.985992 300.183038 515.325055 300.373663 
Q 515.66568 300.564288 516.10943 300.564288 
Q 516.548492 300.564288 516.879742 300.367413 
Q 517.212555 300.168975 517.393805 299.793975 
Q 517.575055 299.417413 517.575055 298.898663 
L 517.575055 298.59085 
L 516.13443 298.59085 
L 516.13443 297.639288 
L 518.595367 297.639288 
z
M 522.183648 301.536163 
Q 521.480523 301.536163 520.982086 301.2721 
Q 520.485211 301.008038 520.222711 300.498663 
Q 519.961773 299.987725 519.961773 299.26585 
L 519.961773 298.693975 
Q 519.961773 297.942413 520.213336 297.411163 
Q 520.464898 296.87835 520.943023 296.600225 
Q 521.422711 296.320538 522.096148 296.320538 
Q 522.730523 296.320538 523.178961 296.639288 
Q 523.628961 296.956475 523.864898 297.556475 
Q 524.102398 298.156475 524.102398 298.9971 
L 524.102398 299.32835 
L 520.685211 299.32835 
L 520.685211 298.52835 
L 523.155523 298.52835 
L 523.155523 298.52835 
Q 523.111773 297.908038 522.835211 297.564288 
Q 522.560211 297.218975 522.096148 297.218975 
Q 521.528961 297.218975 521.219586 297.59085 
Q 520.910211 297.961163 520.910211 298.64085 
L 520.910211 299.2846 
Q 520.910211 299.914288 521.241461 300.251788 
Q 521.574273 300.589288 522.183648 300.589288 
Q 522.486773 300.589288 522.783648 300.467413 
Q 523.082086 300.343975 523.316461 300.125225 
L 523.316461 300.125225 
L 523.971148 300.77835 
L 523.971148 300.77835 
Q 523.594586 301.14085 523.125836 301.339288 
Q 522.657086 301.536163 522.183648 301.536163 
z
M 525.469976 296.393975 
L 526.466851 296.393975 
L 526.466851 301.462725 
L 525.469976 301.462725 
L 525.469976 296.393975 
z
M 528.546539 298.39085 
Q 528.546539 297.854913 528.268414 297.562725 
Q 527.990289 297.268975 527.487164 297.268975 
Q 526.998101 297.268975 526.732476 297.52835 
Q 526.466851 297.786163 526.466851 298.254913 
L 526.363726 297.27835 
Q 526.598101 296.818975 526.976226 296.570538 
Q 527.354351 296.320538 527.813726 296.320538 
Q 528.638726 296.320538 529.090289 296.861163 
Q 529.541851 297.400225 529.541851 298.386163 
L 529.541851 301.462725 
L 528.546539 301.462725 
L 528.546539 298.39085 
z
M 530.899664 300.598663 
L 533.374664 297.2971 
Q 533.590289 297.014288 533.709039 296.7096 
Q 533.829351 296.40335 533.829351 296.14085 
L 533.829351 296.129913 
Q 533.829351 295.706475 533.579351 295.4721 
Q 533.330914 295.237725 532.873101 295.237725 
Q 532.437164 295.237725 532.168414 295.493975 
Q 531.901226 295.750225 531.841851 296.218975 
L 531.841851 296.223663 
L 530.812164 296.223663 
L 530.812164 296.218975 
Q 530.899664 295.608038 531.169976 295.176788 
Q 531.441851 294.743975 531.871539 294.517413 
Q 532.301226 294.289288 532.862164 294.289288 
Q 533.498101 294.289288 533.946539 294.506475 
Q 534.396539 294.723663 534.630914 295.139288 
Q 534.865289 295.554913 534.865289 296.14085 
L 534.865289 296.145538 
Q 534.865289 296.520538 534.709039 296.931475 
Q 534.552789 297.34085 534.273101 297.7221 
L 532.218414 300.51585 
L 534.904351 300.51585 
L 534.904351 301.462725 
L 530.899664 301.462725 
L 530.899664 300.598663 
z
" style="fill: #ffffff; stroke: #000000"/>
    <path d="M 495.821344 301.536163 
Q 495.308844 301.536163 494.849469 301.439288 
Q 494.391656 301.34085 493.993219 301.145538 
Q 493.594781 300.950225 493.247906 300.656475 
L 493.247906 300.656475 
L 493.868219 299.895538 
L 493.868219 299.895538 
Q 494.274469 300.2471 494.761969 300.423663 
Q 495.251031 300.598663 495.821344 300.598663 
Q 496.593219 300.598663 497.018219 300.312725 
Q 497.443219 300.026788 497.443219 299.504913 
L 497.443219 299.500225 
Q 497.443219 299.12835 497.249469 298.911163 
Q 497.057281 298.693975 496.751031 298.589288 
Q 496.446344 298.4846 495.963531 298.395538 
Q 495.947906 298.39085 495.930719 298.39085 
Q 495.915094 298.39085 495.899469 298.386163 
L 495.826031 298.3721 
Q 495.113531 298.250225 494.666656 298.0971 
Q 494.219781 297.942413 493.902594 297.5346 
Q 493.585406 297.126788 493.585406 296.375225 
L 493.585406 296.370538 
Q 493.585406 295.711163 493.880719 295.245538 
Q 494.176031 294.77835 494.741656 294.5346 
Q 495.308844 294.289288 496.104156 294.289288 
Q 496.485406 294.289288 496.854156 294.373663 
Q 497.222906 294.456475 497.580719 294.620538 
Q 497.940094 294.783038 498.286969 295.031475 
L 498.286969 295.031475 
L 497.721344 295.823663 
L 497.721344 295.823663 
Q 497.315094 295.525225 496.911969 295.376788 
Q 496.510406 295.226788 496.104156 295.226788 
Q 495.377594 295.226788 494.974469 295.517413 
Q 494.571344 295.808038 494.571344 296.34085 
L 494.571344 296.345538 
Q 494.571344 296.711163 494.779156 296.9221 
Q 494.986969 297.131475 495.296344 297.231475 
Q 495.607281 297.331475 496.158844 297.439288 
Q 496.177594 297.443975 496.194781 297.4471 
Q 496.211969 297.448663 496.232281 297.45335 
Q 496.255719 297.458038 496.285406 297.464288 
Q 496.315094 297.468975 496.338531 297.473663 
Q 496.983844 297.604913 497.415094 297.786163 
Q 497.847906 297.96585 498.138531 298.368975 
Q 498.429156 298.7721 498.429156 299.470538 
L 498.429156 299.479913 
Q 498.429156 300.129913 498.121344 300.59085 
Q 497.813531 301.051788 497.229156 301.293975 
Q 496.646344 301.536163 495.821344 301.536163 
z
M 500.519195 300.51585 
L 502.125445 300.51585 
Q 502.911383 300.51585 503.342633 300.108038 
Q 503.775445 299.700225 503.775445 298.958038 
L 503.775445 296.867413 
Q 503.775445 296.125225 503.342633 295.717413 
Q 502.911383 295.3096 502.125445 295.3096 
L 500.519195 295.3096 
L 500.519195 294.362725 
L 502.095758 294.362725 
Q 502.950445 294.362725 503.555133 294.661163 
Q 504.161383 294.958038 504.47857 295.529913 
Q 504.795758 296.101788 504.795758 296.906475 
L 504.795758 298.918975 
Q 504.795758 299.723663 504.47857 300.295538 
Q 504.161383 300.867413 503.55357 301.16585 
Q 502.945758 301.462725 502.09107 301.462725 
L 500.519195 301.462725 
L 500.519195 300.51585 
z
M 499.845758 294.362725 
L 500.84107 294.362725 
L 500.84107 301.462725 
L 499.845758 301.462725 
L 499.845758 294.362725 
z
M 508.34107 301.536163 
Q 507.69732 301.536163 507.208258 301.292413 
Q 506.720758 301.0471 506.45357 300.600225 
Q 506.187945 300.15335 506.187945 299.562725 
L 506.187945 299.445538 
Q 506.187945 298.914288 506.45357 298.445538 
Q 506.720758 297.976788 507.164508 297.737725 
Q 506.787945 297.531475 506.561383 297.143975 
Q 506.33482 296.754913 506.33482 296.325225 
L 506.33482 296.154913 
Q 506.33482 295.598663 506.583258 295.176788 
Q 506.831695 294.75335 507.286383 294.5221 
Q 507.74107 294.289288 508.34107 294.289288 
Q 508.94107 294.289288 509.395758 294.5221 
Q 509.850445 294.75335 510.098883 295.176788 
Q 510.34732 295.598663 510.34732 296.154913 
L 510.34732 296.325225 
Q 510.34732 296.76585 510.11607 297.151788 
Q 509.88482 297.536163 509.50357 297.737725 
Q 509.952008 297.981475 510.22232 298.448663 
Q 510.494195 298.914288 510.494195 299.445538 
L 510.494195 299.562725 
Q 510.494195 300.15335 510.22857 300.600225 
Q 509.962945 301.0471 509.473883 301.292413 
Q 508.986383 301.536163 508.34107 301.536163 
z
M 508.34107 300.57835 
Q 508.687945 300.57835 508.950445 300.442413 
Q 509.214508 300.304913 509.358258 300.0596 
Q 509.50357 299.812725 509.50357 299.489288 
L 509.50357 299.4221 
Q 509.50357 299.093975 509.358258 298.848663 
Q 509.214508 298.601788 508.950445 298.46585 
Q 508.687945 298.32835 508.34107 298.32835 
Q 507.994195 298.32835 507.730133 298.46585 
Q 507.467633 298.601788 507.32232 298.850225 
Q 507.17857 299.098663 507.17857 299.426788 
L 507.17857 299.500225 
Q 507.17857 299.8221 507.32232 300.06585 
Q 507.467633 300.3096 507.730133 300.443975 
Q 507.994195 300.57835 508.34107 300.57835 
z
M 508.34107 297.370538 
Q 508.639508 297.370538 508.867633 297.242413 
Q 509.09732 297.112725 509.223883 296.873663 
Q 509.352008 296.633038 509.352008 296.320538 
L 509.352008 296.25335 
Q 509.352008 295.954913 509.223883 295.725225 
Q 509.09732 295.495538 508.867633 295.3721 
Q 508.639508 295.2471 508.34107 295.2471 
Q 508.042633 295.2471 507.812945 295.3721 
Q 507.58482 295.495538 507.456695 295.725225 
Q 507.330133 295.954913 507.330133 296.258038 
L 507.330133 296.331475 
Q 507.330133 296.637725 507.456695 296.875225 
Q 507.58482 297.112725 507.812945 297.242413 
Q 508.042633 297.370538 508.34107 297.370538 
z
M 518.595367 297.639288 
L 518.595367 298.879913 
Q 518.595367 299.670538 518.287555 300.273663 
Q 517.979742 300.876788 517.41568 301.206475 
Q 516.851617 301.536163 516.10943 301.536163 
Q 515.357867 301.536163 514.789117 301.226788 
Q 514.220367 300.91585 513.907867 300.350225 
Q 513.595367 299.783038 513.595367 299.036163 
L 513.595367 296.94085 
Q 513.595367 296.150225 513.90318 295.550225 
Q 514.210992 294.948663 514.773492 294.618975 
Q 515.337555 294.289288 516.079742 294.289288 
Q 516.69068 294.289288 517.204742 294.551788 
Q 517.720367 294.812725 518.067242 295.29085 
Q 518.414117 295.768975 518.535992 296.398663 
L 518.535992 296.398663 
L 517.457867 296.398663 
L 517.457867 296.398663 
Q 517.368805 296.042413 517.15943 295.786163 
Q 516.950055 295.529913 516.66568 295.395538 
Q 516.382867 295.261163 516.079742 295.261163 
Q 515.64068 295.261163 515.307867 295.4721 
Q 514.976617 295.681475 514.795367 296.0596 
Q 514.61568 296.437725 514.61568 296.94085 
L 514.61568 299.036163 
Q 514.61568 299.495538 514.800055 299.839288 
Q 514.985992 300.183038 515.325055 300.373663 
Q 515.66568 300.564288 516.10943 300.564288 
Q 516.548492 300.564288 516.879742 300.367413 
Q 517.212555 300.168975 517.393805 299.793975 
Q 517.575055 299.417413 517.575055 298.898663 
L 517.575055 298.59085 
L 516.13443 298.59085 
L 516.13443 297.639288 
L 518.595367 297.639288 
z
M 522.183648 301.536163 
Q 521.480523 301.536163 520.982086 301.2721 
Q 520.485211 301.008038 520.222711 300.498663 
Q 519.961773 299.987725 519.961773 299.26585 
L 519.961773 298.693975 
Q 519.961773 297.942413 520.213336 297.411163 
Q 520.464898 296.87835 520.943023 296.600225 
Q 521.422711 296.320538 522.096148 296.320538 
Q 522.730523 296.320538 523.178961 296.639288 
Q 523.628961 296.956475 523.864898 297.556475 
Q 524.102398 298.156475 524.102398 298.9971 
L 524.102398 299.32835 
L 520.685211 299.32835 
L 520.685211 298.52835 
L 523.155523 298.52835 
L 523.155523 298.52835 
Q 523.111773 297.908038 522.835211 297.564288 
Q 522.560211 297.218975 522.096148 297.218975 
Q 521.528961 297.218975 521.219586 297.59085 
Q 520.910211 297.961163 520.910211 298.64085 
L 520.910211 299.2846 
Q 520.910211 299.914288 521.241461 300.251788 
Q 521.574273 300.589288 522.183648 300.589288 
Q 522.486773 300.589288 522.783648 300.467413 
Q 523.082086 300.343975 523.316461 300.125225 
L 523.316461 300.125225 
L 523.971148 300.77835 
L 523.971148 300.77835 
Q 523.594586 301.14085 523.125836 301.339288 
Q 522.657086 301.536163 522.183648 301.536163 
z
M 525.469976 296.393975 
L 526.466851 296.393975 
L 526.466851 301.462725 
L 525.469976 301.462725 
L 525.469976 296.393975 
z
M 528.546539 298.39085 
Q 528.546539 297.854913 528.268414 297.562725 
Q 527.990289 297.268975 527.487164 297.268975 
Q 526.998101 297.268975 526.732476 297.52835 
Q 526.466851 297.786163 526.466851 298.254913 
L 526.363726 297.27835 
Q 526.598101 296.818975 526.976226 296.570538 
Q 527.354351 296.320538 527.813726 296.320538 
Q 528.638726 296.320538 529.090289 296.861163 
Q 529.541851 297.400225 529.541851 298.386163 
L 529.541851 301.462725 
L 528.546539 301.462725 
L 528.546539 298.39085 
z
M 530.899664 300.598663 
L 533.374664 297.2971 
Q 533.590289 297.014288 533.709039 296.7096 
Q 533.829351 296.40335 533.829351 296.14085 
L 533.829351 296.129913 
Q 533.829351 295.706475 533.579351 295.4721 
Q 533.330914 295.237725 532.873101 295.237725 
Q 532.437164 295.237725 532.168414 295.493975 
Q 531.901226 295.750225 531.841851 296.218975 
L 531.841851 296.223663 
L 530.812164 296.223663 
L 530.812164 296.218975 
Q 530.899664 295.608038 531.169976 295.176788 
Q 531.441851 294.743975 531.871539 294.517413 
Q 532.301226 294.289288 532.862164 294.289288 
Q 533.498101 294.289288 533.946539 294.506475 
Q 534.396539 294.723663 534.630914 295.139288 
Q 534.865289 295.554913 534.865289 296.14085 
L 534.865289 296.145538 
Q 534.865289 296.520538 534.709039 296.931475 
Q 534.552789 297.34085 534.273101 297.7221 
L 532.218414 300.51585 
L 534.904351 300.51585 
L 534.904351 301.462725 
L 530.899664 301.462725 
L 530.899664 300.598663 
z
" style="fill: #ffffff"/>
   </g>
  </g>
 </g>
 <defs>
  <clipPath id="pb44e06526c">
   <rect x="144" y="77.76" width="892.8" height="498.96"/>
  </clipPath>
 </defs>
</svg>
