<?xml version="1.0" encoding="utf-8" standalone="no"?>
<!DOCTYPE svg PUBLIC "-//W3C//DTD SVG 1.1//EN"
  "http://www.w3.org/Graphics/SVG/1.1/DTD/svg11.dtd">
<svg xmlns:xlink="http://www.w3.org/1999/xlink" width="1152pt" height="648pt" viewBox="0 0 1152 648" xmlns="http://www.w3.org/2000/svg" version="1.1">
 <metadata>
  <rdf:RDF xmlns:dc="http://purl.org/dc/elements/1.1/" xmlns:cc="http://creativecommons.org/ns#" xmlns:rdf="http://www.w3.org/1999/02/22-rdf-syntax-ns#">
   <cc:Work>
    <dc:type rdf:resource="http://purl.org/dc/dcmitype/StillImage"/>
    <dc:date>2024-10-09T18:10:10.004682</dc:date>
    <dc:format>image/svg+xml</dc:format>
    <dc:creator>
     <cc:Agent>
      <dc:title>Matplotlib v3.8.1, https://matplotlib.org/</dc:title>
     </cc:Agent>
    </dc:creator>
   </cc:Work>
  </rdf:RDF>
 </metadata>
 <defs>
  <style type="text/css">*{stroke-linejoin: round; stroke-linecap: butt}</style>
 </defs>
 <g id="figure_1">
  <g id="patch_1">
   <path d="M 0 648 
L 1152 648 
L 1152 0 
L 0 0 
L 0 648 
z
" style="fill: none"/>
  </g>
  <g id="axes_1">
   <g id="PathCollection_1">
    <defs>
     <path id="m8f10ae68a3" d="M 0 2.738613 
C 0.726289 2.738613 1.422928 2.450055 1.936492 1.936492 
C 2.450055 1.422928 2.738613 0.726289 2.738613 0 
C 2.738613 -0.726289 2.450055 -1.422928 1.936492 -1.936492 
C 1.422928 -2.450055 0.726289 -2.738613 0 -2.738613 
C -0.726289 -2.738613 -1.422928 -2.450055 -1.936492 -1.936492 
C -2.450055 -1.422928 -2.738613 -0.726289 -2.738613 0 
C -2.738613 0.726289 -2.450055 1.422928 -1.936492 1.936492 
C -1.422928 2.450055 -0.726289 2.738613 0 2.738613 
z
" style="stroke: #80ff80"/>
    </defs>
    <g clip-path="url(#p69f6871991)">
     <use xlink:href="#m8f10ae68a3" x="567.674182" y="213.926184" style="fill: #80ff80; stroke: #80ff80"/>
     <use xlink:href="#m8f10ae68a3" x="210.554182" y="432.969624" style="fill: #80ff80; stroke: #80ff80"/>
    </g>
   </g>
   <g id="text_1">
    <path d="M 576.379162 208.472752 
L 577.229162 208.472752 
L 579.846349 215.572752 
L 578.771349 215.572752 
L 576.804162 209.844627 
L 574.836974 215.572752 
L 573.761974 215.572752 
L 576.379162 208.472752 
z
M 574.968224 213.068064 
L 578.704162 213.068064 
L 578.704162 214.014939 
L 574.968224 214.014939 
L 574.968224 213.068064 
z
M 582.488146 215.572752 
L 581.491271 215.572752 
L 581.491271 209.557127 
L 580.480334 210.177439 
L 580.480334 209.146189 
L 581.491271 208.472752 
L 582.488146 208.472752 
L 582.488146 215.572752 
z
M 585.930529 215.646189 
Q 585.305529 215.646189 584.860217 215.394627 
Q 584.416467 215.143064 584.183654 214.661814 
Q 583.952404 214.180564 583.952404 213.502439 
L 583.952404 213.497752 
Q 583.952404 213.102439 584.044592 212.668064 
Q 584.138342 212.232127 584.313342 211.813377 
Q 584.343029 211.739939 584.377404 211.669627 
Q 584.411779 211.597752 584.446154 211.529002 
L 585.988342 208.472752 
L 587.063342 208.472752 
L 585.250842 212.013377 
L 585.255529 211.836814 
Q 585.378967 211.607127 585.613342 211.480564 
Q 585.847717 211.354002 586.160217 211.354002 
Q 586.711779 211.354002 587.107092 211.604002 
Q 587.502404 211.852439 587.707092 212.329002 
Q 587.911779 212.804002 587.911779 213.472752 
L 587.911779 213.477439 
Q 587.911779 214.161814 587.680529 214.650877 
Q 587.449279 215.138377 587.002404 215.393064 
Q 586.555529 215.646189 585.930529 215.646189 
z
M 585.930529 214.688377 
Q 586.403967 214.688377 586.660217 214.396189 
Q 586.916467 214.102439 586.916467 213.560252 
L 586.916467 213.555564 
Q 586.916467 212.960252 586.647717 212.635252 
Q 586.378967 212.310252 585.880529 212.310252 
Q 585.436779 212.310252 585.193029 212.638377 
Q 584.949279 212.964939 584.949279 213.560252 
L 584.949279 213.566502 
Q 584.949279 214.107127 585.205529 214.397752 
Q 585.461779 214.688377 585.930529 214.688377 
z
" style="fill: #ffffff; stroke: #000000"/>
    <path d="M 576.379162 208.472752 
L 577.229162 208.472752 
L 579.846349 215.572752 
L 578.771349 215.572752 
L 576.804162 209.844627 
L 574.836974 215.572752 
L 573.761974 215.572752 
L 576.379162 208.472752 
z
M 574.968224 213.068064 
L 578.704162 213.068064 
L 578.704162 214.014939 
L 574.968224 214.014939 
L 574.968224 213.068064 
z
M 582.488146 215.572752 
L 581.491271 215.572752 
L 581.491271 209.557127 
L 580.480334 210.177439 
L 580.480334 209.146189 
L 581.491271 208.472752 
L 582.488146 208.472752 
L 582.488146 215.572752 
z
M 585.930529 215.646189 
Q 585.305529 215.646189 584.860217 215.394627 
Q 584.416467 215.143064 584.183654 214.661814 
Q 583.952404 214.180564 583.952404 213.502439 
L 583.952404 213.497752 
Q 583.952404 213.102439 584.044592 212.668064 
Q 584.138342 212.232127 584.313342 211.813377 
Q 584.343029 211.739939 584.377404 211.669627 
Q 584.411779 211.597752 584.446154 211.529002 
L 585.988342 208.472752 
L 587.063342 208.472752 
L 585.250842 212.013377 
L 585.255529 211.836814 
Q 585.378967 211.607127 585.613342 211.480564 
Q 585.847717 211.354002 586.160217 211.354002 
Q 586.711779 211.354002 587.107092 211.604002 
Q 587.502404 211.852439 587.707092 212.329002 
Q 587.911779 212.804002 587.911779 213.472752 
L 587.911779 213.477439 
Q 587.911779 214.161814 587.680529 214.650877 
Q 587.449279 215.138377 587.002404 215.393064 
Q 586.555529 215.646189 585.930529 215.646189 
z
M 585.930529 214.688377 
Q 586.403967 214.688377 586.660217 214.396189 
Q 586.916467 214.102439 586.916467 213.560252 
L 586.916467 213.555564 
Q 586.916467 212.960252 586.647717 212.635252 
Q 586.378967 212.310252 585.880529 212.310252 
Q 585.436779 212.310252 585.193029 212.638377 
Q 584.949279 212.964939 584.949279 213.560252 
L 584.949279 213.566502 
Q 584.949279 214.107127 585.205529 214.397752 
Q 585.461779 214.688377 585.930529 214.688377 
z
" style="fill: #ffffff"/>
   </g>
   <g id="text_2">
    <path d="M 219.259162 427.516192 
L 220.109162 427.516192 
L 222.726349 434.616192 
L 221.651349 434.616192 
L 219.684162 428.888067 
L 217.716974 434.616192 
L 216.641974 434.616192 
L 219.259162 427.516192 
z
M 217.848224 432.111505 
L 221.584162 432.111505 
L 221.584162 433.05838 
L 217.848224 433.05838 
L 217.848224 432.111505 
z
M 225.368146 434.616192 
L 224.371271 434.616192 
L 224.371271 428.600567 
L 223.360334 429.22088 
L 223.360334 428.18963 
L 224.371271 427.516192 
L 225.368146 427.516192 
L 225.368146 434.616192 
z
M 228.810529 434.68963 
Q 228.185529 434.68963 227.740217 434.438067 
Q 227.296467 434.186505 227.063654 433.705255 
Q 226.832404 433.224005 226.832404 432.54588 
L 226.832404 432.541192 
Q 226.832404 432.14588 226.924592 431.711504 
Q 227.018342 431.275567 227.193342 430.856817 
Q 227.223029 430.78338 227.257404 430.713067 
Q 227.291779 430.641192 227.326154 430.572442 
L 228.868342 427.516192 
L 229.943342 427.516192 
L 228.130842 431.056817 
L 228.135529 430.880255 
Q 228.258967 430.650567 228.493342 430.524004 
Q 228.727717 430.397442 229.040217 430.397442 
Q 229.591779 430.397442 229.987092 430.647442 
Q 230.382404 430.89588 230.587092 431.372442 
Q 230.791779 431.847442 230.791779 432.516192 
L 230.791779 432.52088 
Q 230.791779 433.205255 230.560529 433.694317 
Q 230.329279 434.181817 229.882404 434.436505 
Q 229.435529 434.68963 228.810529 434.68963 
z
M 228.810529 433.731817 
Q 229.283967 433.731817 229.540217 433.43963 
Q 229.796467 433.14588 229.796467 432.603692 
L 229.796467 432.599005 
Q 229.796467 432.003692 229.527717 431.678692 
Q 229.258967 431.353692 228.760529 431.353692 
Q 228.316779 431.353692 228.073029 431.681817 
Q 227.829279 432.008379 227.829279 432.603692 
L 227.829279 432.609942 
Q 227.829279 433.150567 228.085529 433.441192 
Q 228.341779 433.731817 228.810529 433.731817 
z
" style="fill: #ffffff; stroke: #000000"/>
    <path d="M 219.259162 427.516192 
L 220.109162 427.516192 
L 222.726349 434.616192 
L 221.651349 434.616192 
L 219.684162 428.888067 
L 217.716974 434.616192 
L 216.641974 434.616192 
L 219.259162 427.516192 
z
M 217.848224 432.111505 
L 221.584162 432.111505 
L 221.584162 433.05838 
L 217.848224 433.05838 
L 217.848224 432.111505 
z
M 225.368146 434.616192 
L 224.371271 434.616192 
L 224.371271 428.600567 
L 223.360334 429.22088 
L 223.360334 428.18963 
L 224.371271 427.516192 
L 225.368146 427.516192 
L 225.368146 434.616192 
z
M 228.810529 434.68963 
Q 228.185529 434.68963 227.740217 434.438067 
Q 227.296467 434.186505 227.063654 433.705255 
Q 226.832404 433.224005 226.832404 432.54588 
L 226.832404 432.541192 
Q 226.832404 432.14588 226.924592 431.711504 
Q 227.018342 431.275567 227.193342 430.856817 
Q 227.223029 430.78338 227.257404 430.713067 
Q 227.291779 430.641192 227.326154 430.572442 
L 228.868342 427.516192 
L 229.943342 427.516192 
L 228.130842 431.056817 
L 228.135529 430.880255 
Q 228.258967 430.650567 228.493342 430.524004 
Q 228.727717 430.397442 229.040217 430.397442 
Q 229.591779 430.397442 229.987092 430.647442 
Q 230.382404 430.89588 230.587092 431.372442 
Q 230.791779 431.847442 230.791779 432.516192 
L 230.791779 432.52088 
Q 230.791779 433.205255 230.560529 433.694317 
Q 230.329279 434.181817 229.882404 434.436505 
Q 229.435529 434.68963 228.810529 434.68963 
z
M 228.810529 433.731817 
Q 229.283967 433.731817 229.540217 433.43963 
Q 229.796467 433.14588 229.796467 432.603692 
L 229.796467 432.599005 
Q 229.796467 432.003692 229.527717 431.678692 
Q 229.258967 431.353692 228.760529 431.353692 
Q 228.316779 431.353692 228.073029 431.681817 
Q 227.829279 432.008379 227.829279 432.603692 
L 227.829279 432.609942 
Q 227.829279 433.150567 228.085529 433.441192 
Q 228.341779 433.731817 228.810529 433.731817 
z
" style="fill: #ffffff"/>
   </g>
  </g>
 </g>
 <defs>
  <clipPath id="p69f6871991">
   <rect x="144" y="77.76" width="892.8" height="498.96"/>
  </clipPath>
 </defs>
</svg>
