<?xml version="1.0" encoding="utf-8" standalone="no"?>
<!DOCTYPE svg PUBLIC "-//W3C//DTD SVG 1.1//EN"
  "http://www.w3.org/Graphics/SVG/1.1/DTD/svg11.dtd">
<svg xmlns:xlink="http://www.w3.org/1999/xlink" width="1152pt" height="648pt" viewBox="0 0 1152 648" xmlns="http://www.w3.org/2000/svg" version="1.1">
 <metadata>
  <rdf:RDF xmlns:dc="http://purl.org/dc/elements/1.1/" xmlns:cc="http://creativecommons.org/ns#" xmlns:rdf="http://www.w3.org/1999/02/22-rdf-syntax-ns#">
   <cc:Work>
    <dc:type rdf:resource="http://purl.org/dc/dcmitype/StillImage"/>
    <dc:date>2024-10-09T18:10:10.353558</dc:date>
    <dc:format>image/svg+xml</dc:format>
    <dc:creator>
     <cc:Agent>
      <dc:title>Matplotlib v3.8.1, https://matplotlib.org/</dc:title>
     </cc:Agent>
    </dc:creator>
   </cc:Work>
  </rdf:RDF>
 </metadata>
 <defs>
  <style type="text/css">*{stroke-linejoin: round; stroke-linecap: butt}</style>
 </defs>
 <g id="figure_1">
  <g id="patch_1">
   <path d="M 0 648 
L 1152 648 
L 1152 0 
L 0 0 
L 0 648 
z
" style="fill: none"/>
  </g>
  <g id="axes_1">
   <g id="line2d_1">
    <path d="M 226.786909 457.318705 
L 231.09514 449.265512 
L 235.403372 441.431238 
L 239.711603 433.809946 
L 244.019835 426.395854 
L 248.328066 419.183341 
L 252.636298 412.166936 
L 256.944529 405.341316 
L 261.25276 398.701301 
L 265.560992 392.241854 
L 269.869223 385.958071 
L 274.177455 379.845183 
L 278.485686 373.89855 
L 282.793917 368.113656 
L 287.102149 362.486109 
L 291.41038 357.011634 
L 295.718612 351.686074 
L 300.026843 346.505383 
L 304.335074 341.465627 
L 308.643306 336.562974 
L 312.951537 331.793701 
L 317.259769 327.154182 
L 321.568 322.640893 
L 325.876231 318.250401 
L 330.184463 313.97937 
L 334.492694 309.824553 
L 338.800926 305.782791 
L 343.109157 301.851011 
L 347.417388 298.026222 
L 351.72562 294.305516 
L 356.033851 290.686064 
L 360.342083 287.165113 
L 364.650314 283.739983 
L 368.958545 280.40807 
L 373.266777 277.166838 
L 377.575008 274.013822 
L 381.88324 270.946623 
L 386.191471 267.962907 
L 390.499702 265.060402 
L 394.807934 262.236901 
L 399.116165 259.490254 
L 403.424397 256.818372 
L 407.732628 254.219219 
L 412.04086 251.690818 
L 416.349091 249.231244 
L 420.657322 246.838624 
L 424.965554 244.511137 
L 429.273785 242.247011 
L 433.582017 240.044522 
L 437.890248 237.901993 
L 442.198479 235.817793 
L 446.506711 233.790334 
L 450.814942 231.818072 
L 455.123174 229.899505 
L 459.431405 228.033173 
L 463.739636 226.217654 
L 468.047868 224.451564 
L 472.356099 222.733559 
L 476.664331 221.06233 
L 480.972562 219.436605 
L 485.280793 217.855144 
L 489.589025 216.316742 
L 493.897256 214.820229 
L 498.205488 213.364463 
L 502.513719 211.948336 
L 506.82195 210.570769 
L 511.130182 209.230712 
L 515.438413 207.927144 
L 519.746645 206.659072 
L 524.054876 205.42553 
L 528.363107 204.225577 
L 532.671339 203.0583 
L 536.97957 201.922808 
L 541.287802 200.818237 
L 545.596033 199.743744 
L 549.904264 198.698511 
L 554.212496 197.681742 
L 558.520727 196.692661 
L 562.828959 195.730515 
L 567.13719 194.794569 
L 571.445421 193.884112 
L 575.753653 192.998449 
L 580.061884 192.136904 
L 584.370116 191.298822 
L 588.678347 190.483563 
L 592.986579 189.690506 
L 597.29481 188.919047 
L 601.603041 188.168597 
L 605.911273 187.438584 
L 610.219504 186.728453 
L 614.527736 186.037661 
L 618.835967 185.365682 
L 623.144198 184.712003 
L 627.45243 184.076127 
L 631.760661 183.457569 
L 636.068893 182.855856 
L 640.377124 182.270531 
L 644.685355 181.701147 
L 648.993587 181.147271 
L 653.301818 180.608478 
" clip-path="url(#pfa163a995a)" style="fill: none; stroke: #f2a179; stroke-width: 3; stroke-linecap: round"/>
   </g>
   <g id="text_1">
    <path d="M 660.747423 181.308171 
L 662.353673 181.308171 
Q 663.139611 181.308171 663.570861 180.900359 
Q 664.003673 180.492546 664.003673 179.750359 
L 664.003673 177.659734 
Q 664.003673 176.917546 663.570861 176.509734 
Q 663.139611 176.101921 662.353673 176.101921 
L 660.747423 176.101921 
L 660.747423 175.155046 
L 662.323986 175.155046 
Q 663.178673 175.155046 663.783361 175.453484 
Q 664.389611 175.750359 664.706798 176.322234 
Q 665.023986 176.894109 665.023986 177.698796 
L 665.023986 179.711296 
Q 665.023986 180.515984 664.706798 181.087859 
Q 664.389611 181.659734 663.781798 181.958171 
Q 663.173986 182.255046 662.319298 182.255046 
L 660.747423 182.255046 
L 660.747423 181.308171 
z
M 660.073986 175.155046 
L 661.069298 175.155046 
L 661.069298 182.255046 
L 660.073986 182.255046 
L 660.073986 175.155046 
z
M 669.003673 178.730046 
L 668.998986 178.905046 
Q 668.877111 179.130046 668.630236 179.234734 
Q 668.383361 179.339421 668.047423 179.339421 
Q 667.539611 179.339421 667.153673 179.081609 
Q 666.767736 178.822234 666.555236 178.351921 
Q 666.342736 177.880046 666.342736 177.259734 
L 666.342736 177.255046 
Q 666.342736 176.565984 666.573986 176.078484 
Q 666.806798 175.589421 667.253673 175.336296 
Q 667.700548 175.081609 668.325548 175.081609 
Q 668.950548 175.081609 669.394298 175.340984 
Q 669.839611 175.600359 670.070861 176.094109 
Q 670.302111 176.586296 670.302111 177.280046 
L 670.302111 177.284734 
Q 670.302111 177.664421 670.203673 178.097234 
Q 670.106798 178.530046 669.927111 178.953484 
Q 669.897423 179.017546 669.867736 179.083171 
Q 669.839611 179.148796 669.805236 179.212859 
L 668.291173 182.255046 
L 667.216173 182.255046 
L 669.003673 178.730046 
z
M 668.325548 178.431609 
Q 668.794298 178.431609 669.050548 178.114421 
Q 669.306798 177.797234 669.306798 177.220671 
L 669.306798 177.215984 
Q 669.306798 176.655046 669.050548 176.347234 
Q 668.794298 176.039421 668.325548 176.039421 
Q 667.852111 176.039421 667.595861 176.347234 
Q 667.339611 176.655046 667.339611 177.220671 
L 667.339611 177.225359 
Q 667.339611 177.801921 667.595861 178.117546 
Q 667.852111 178.431609 668.325548 178.431609 
z
M 673.457384 182.328484 
Q 672.862072 182.328484 672.407384 182.111296 
Q 671.952697 181.894109 671.676134 181.481609 
Q 671.401134 181.069109 671.327697 180.487859 
L 671.327697 180.487859 
L 672.343322 180.487859 
L 672.343322 180.487859 
Q 672.387072 180.789421 672.533947 180.984734 
Q 672.680822 181.180046 672.912072 181.275359 
Q 673.144884 181.370671 673.457384 181.370671 
Q 673.949572 181.370671 674.223009 181.108171 
Q 674.496447 180.844109 674.496447 180.365984 
L 674.496447 180.150359 
Q 674.496447 179.617546 674.237072 179.328484 
Q 673.979259 179.037859 673.505822 179.037859 
L 673.002697 179.037859 
L 673.002697 178.089421 
L 673.505822 178.089421 
Q 673.921447 178.089421 674.149572 177.840984 
Q 674.379259 177.592546 674.379259 177.137859 
L 674.379259 176.917546 
Q 674.379259 176.498796 674.137072 176.269109 
Q 673.896447 176.039421 673.452697 176.039421 
Q 673.198009 176.039421 672.998009 176.134734 
Q 672.798009 176.230046 672.658947 176.428484 
Q 672.519884 176.625359 672.455822 176.922234 
L 672.455822 176.922234 
L 671.444884 176.922234 
L 671.444884 176.922234 
Q 671.543322 176.342546 671.813634 175.926921 
Q 672.085509 175.511296 672.499572 175.297234 
Q 672.915197 175.081609 673.452697 175.081609 
Q 674.369884 175.081609 674.873009 175.565984 
Q 675.376134 176.048796 675.376134 176.928484 
L 675.376134 177.045671 
Q 675.376134 177.576921 675.087072 177.972234 
Q 674.799572 178.367546 674.273009 178.548796 
Q 674.854259 178.675359 675.173009 179.120671 
Q 675.493322 179.564421 675.493322 180.253484 
L 675.493322 180.370671 
Q 675.493322 180.990984 675.254259 181.430046 
Q 675.015197 181.869109 674.557384 182.098796 
Q 674.101134 182.328484 673.457384 182.328484 
z
M 678.936095 182.328484 
Q 677.93922 182.328484 677.423595 181.797234 
Q 676.909533 181.264421 676.909533 180.311296 
L 676.909533 177.084734 
Q 676.909533 176.126921 677.42672 175.597234 
Q 677.943908 175.067546 678.936095 175.067546 
Q 679.931408 175.067546 680.447033 175.595671 
Q 680.962658 176.122234 680.962658 177.084734 
L 680.962658 180.311296 
Q 680.962658 181.269109 680.443908 181.798796 
Q 679.92672 182.328484 678.936095 182.328484 
z
M 678.936095 181.381609 
Q 679.462658 181.381609 679.71422 181.105046 
Q 679.965783 180.828484 679.965783 180.311296 
L 679.965783 177.084734 
Q 679.965783 176.565984 679.715783 176.290984 
Q 679.467345 176.014421 678.936095 176.014421 
Q 678.403283 176.014421 678.153283 176.290984 
Q 677.904845 176.565984 677.904845 177.084734 
L 677.904845 180.311296 
Q 677.904845 180.828484 678.156408 181.105046 
Q 678.40797 181.381609 678.936095 181.381609 
z
M 684.453673 182.328484 
Q 683.456798 182.328484 682.941173 181.797234 
Q 682.427111 181.264421 682.427111 180.311296 
L 682.427111 177.084734 
Q 682.427111 176.126921 682.944298 175.597234 
Q 683.461486 175.067546 684.453673 175.067546 
Q 685.448986 175.067546 685.964611 175.595671 
Q 686.480236 176.122234 686.480236 177.084734 
L 686.480236 180.311296 
Q 686.480236 181.269109 685.961486 181.798796 
Q 685.444298 182.328484 684.453673 182.328484 
z
M 684.453673 181.381609 
Q 684.980236 181.381609 685.231798 181.105046 
Q 685.483361 180.828484 685.483361 180.311296 
L 685.483361 177.084734 
Q 685.483361 176.565984 685.233361 176.290984 
Q 684.984923 176.014421 684.453673 176.014421 
Q 683.920861 176.014421 683.670861 176.290984 
Q 683.422423 176.565984 683.422423 177.084734 
L 683.422423 180.311296 
Q 683.422423 180.828484 683.673986 181.105046 
Q 683.925548 181.381609 684.453673 181.381609 
z
M 691.860314 178.509734 
L 691.860314 179.456609 
L 687.896251 179.456609 
L 687.896251 178.509734 
L 691.860314 178.509734 
z
M 690.375939 180.965984 
L 689.380626 180.965984 
L 689.380626 177.000359 
L 690.375939 177.000359 
L 690.375939 180.965984 
z
" style="fill: #ffffff; stroke: #000000"/>
    <path d="M 660.747423 181.308171 
L 662.353673 181.308171 
Q 663.139611 181.308171 663.570861 180.900359 
Q 664.003673 180.492546 664.003673 179.750359 
L 664.003673 177.659734 
Q 664.003673 176.917546 663.570861 176.509734 
Q 663.139611 176.101921 662.353673 176.101921 
L 660.747423 176.101921 
L 660.747423 175.155046 
L 662.323986 175.155046 
Q 663.178673 175.155046 663.783361 175.453484 
Q 664.389611 175.750359 664.706798 176.322234 
Q 665.023986 176.894109 665.023986 177.698796 
L 665.023986 179.711296 
Q 665.023986 180.515984 664.706798 181.087859 
Q 664.389611 181.659734 663.781798 181.958171 
Q 663.173986 182.255046 662.319298 182.255046 
L 660.747423 182.255046 
L 660.747423 181.308171 
z
M 660.073986 175.155046 
L 661.069298 175.155046 
L 661.069298 182.255046 
L 660.073986 182.255046 
L 660.073986 175.155046 
z
M 669.003673 178.730046 
L 668.998986 178.905046 
Q 668.877111 179.130046 668.630236 179.234734 
Q 668.383361 179.339421 668.047423 179.339421 
Q 667.539611 179.339421 667.153673 179.081609 
Q 666.767736 178.822234 666.555236 178.351921 
Q 666.342736 177.880046 666.342736 177.259734 
L 666.342736 177.255046 
Q 666.342736 176.565984 666.573986 176.078484 
Q 666.806798 175.589421 667.253673 175.336296 
Q 667.700548 175.081609 668.325548 175.081609 
Q 668.950548 175.081609 669.394298 175.340984 
Q 669.839611 175.600359 670.070861 176.094109 
Q 670.302111 176.586296 670.302111 177.280046 
L 670.302111 177.284734 
Q 670.302111 177.664421 670.203673 178.097234 
Q 670.106798 178.530046 669.927111 178.953484 
Q 669.897423 179.017546 669.867736 179.083171 
Q 669.839611 179.148796 669.805236 179.212859 
L 668.291173 182.255046 
L 667.216173 182.255046 
L 669.003673 178.730046 
z
M 668.325548 178.431609 
Q 668.794298 178.431609 669.050548 178.114421 
Q 669.306798 177.797234 669.306798 177.220671 
L 669.306798 177.215984 
Q 669.306798 176.655046 669.050548 176.347234 
Q 668.794298 176.039421 668.325548 176.039421 
Q 667.852111 176.039421 667.595861 176.347234 
Q 667.339611 176.655046 667.339611 177.220671 
L 667.339611 177.225359 
Q 667.339611 177.801921 667.595861 178.117546 
Q 667.852111 178.431609 668.325548 178.431609 
z
M 673.457384 182.328484 
Q 672.862072 182.328484 672.407384 182.111296 
Q 671.952697 181.894109 671.676134 181.481609 
Q 671.401134 181.069109 671.327697 180.487859 
L 671.327697 180.487859 
L 672.343322 180.487859 
L 672.343322 180.487859 
Q 672.387072 180.789421 672.533947 180.984734 
Q 672.680822 181.180046 672.912072 181.275359 
Q 673.144884 181.370671 673.457384 181.370671 
Q 673.949572 181.370671 674.223009 181.108171 
Q 674.496447 180.844109 674.496447 180.365984 
L 674.496447 180.150359 
Q 674.496447 179.617546 674.237072 179.328484 
Q 673.979259 179.037859 673.505822 179.037859 
L 673.002697 179.037859 
L 673.002697 178.089421 
L 673.505822 178.089421 
Q 673.921447 178.089421 674.149572 177.840984 
Q 674.379259 177.592546 674.379259 177.137859 
L 674.379259 176.917546 
Q 674.379259 176.498796 674.137072 176.269109 
Q 673.896447 176.039421 673.452697 176.039421 
Q 673.198009 176.039421 672.998009 176.134734 
Q 672.798009 176.230046 672.658947 176.428484 
Q 672.519884 176.625359 672.455822 176.922234 
L 672.455822 176.922234 
L 671.444884 176.922234 
L 671.444884 176.922234 
Q 671.543322 176.342546 671.813634 175.926921 
Q 672.085509 175.511296 672.499572 175.297234 
Q 672.915197 175.081609 673.452697 175.081609 
Q 674.369884 175.081609 674.873009 175.565984 
Q 675.376134 176.048796 675.376134 176.928484 
L 675.376134 177.045671 
Q 675.376134 177.576921 675.087072 177.972234 
Q 674.799572 178.367546 674.273009 178.548796 
Q 674.854259 178.675359 675.173009 179.120671 
Q 675.493322 179.564421 675.493322 180.253484 
L 675.493322 180.370671 
Q 675.493322 180.990984 675.254259 181.430046 
Q 675.015197 181.869109 674.557384 182.098796 
Q 674.101134 182.328484 673.457384 182.328484 
z
M 678.936095 182.328484 
Q 677.93922 182.328484 677.423595 181.797234 
Q 676.909533 181.264421 676.909533 180.311296 
L 676.909533 177.084734 
Q 676.909533 176.126921 677.42672 175.597234 
Q 677.943908 175.067546 678.936095 175.067546 
Q 679.931408 175.067546 680.447033 175.595671 
Q 680.962658 176.122234 680.962658 177.084734 
L 680.962658 180.311296 
Q 680.962658 181.269109 680.443908 181.798796 
Q 679.92672 182.328484 678.936095 182.328484 
z
M 678.936095 181.381609 
Q 679.462658 181.381609 679.71422 181.105046 
Q 679.965783 180.828484 679.965783 180.311296 
L 679.965783 177.084734 
Q 679.965783 176.565984 679.715783 176.290984 
Q 679.467345 176.014421 678.936095 176.014421 
Q 678.403283 176.014421 678.153283 176.290984 
Q 677.904845 176.565984 677.904845 177.084734 
L 677.904845 180.311296 
Q 677.904845 180.828484 678.156408 181.105046 
Q 678.40797 181.381609 678.936095 181.381609 
z
M 684.453673 182.328484 
Q 683.456798 182.328484 682.941173 181.797234 
Q 682.427111 181.264421 682.427111 180.311296 
L 682.427111 177.084734 
Q 682.427111 176.126921 682.944298 175.597234 
Q 683.461486 175.067546 684.453673 175.067546 
Q 685.448986 175.067546 685.964611 175.595671 
Q 686.480236 176.122234 686.480236 177.084734 
L 686.480236 180.311296 
Q 686.480236 181.269109 685.961486 181.798796 
Q 685.444298 182.328484 684.453673 182.328484 
z
M 684.453673 181.381609 
Q 684.980236 181.381609 685.231798 181.105046 
Q 685.483361 180.828484 685.483361 180.311296 
L 685.483361 177.084734 
Q 685.483361 176.565984 685.233361 176.290984 
Q 684.984923 176.014421 684.453673 176.014421 
Q 683.920861 176.014421 683.670861 176.290984 
Q 683.422423 176.565984 683.422423 177.084734 
L 683.422423 180.311296 
Q 683.422423 180.828484 683.673986 181.105046 
Q 683.925548 181.381609 684.453673 181.381609 
z
M 691.860314 178.509734 
L 691.860314 179.456609 
L 687.896251 179.456609 
L 687.896251 178.509734 
L 691.860314 178.509734 
z
M 690.375939 180.965984 
L 689.380626 180.965984 
L 689.380626 177.000359 
L 690.375939 177.000359 
L 690.375939 180.965984 
z
" style="fill: #ffffff"/>
   </g>
  </g>
 </g>
 <defs>
  <clipPath id="pfa163a995a">
   <rect x="144" y="77.76" width="892.8" height="498.96"/>
  </clipPath>
 </defs>
</svg>
