<?xml version="1.0" encoding="utf-8" standalone="no"?>
<!DOCTYPE svg PUBLIC "-//W3C//DTD SVG 1.1//EN"
  "http://www.w3.org/Graphics/SVG/1.1/DTD/svg11.dtd">
<svg xmlns:xlink="http://www.w3.org/1999/xlink" width="1152pt" height="648pt" viewBox="0 0 1152 648" xmlns="http://www.w3.org/2000/svg" version="1.1">
 <metadata>
  <rdf:RDF xmlns:dc="http://purl.org/dc/elements/1.1/" xmlns:cc="http://creativecommons.org/ns#" xmlns:rdf="http://www.w3.org/1999/02/22-rdf-syntax-ns#">
   <cc:Work>
    <dc:type rdf:resource="http://purl.org/dc/dcmitype/StillImage"/>
    <dc:date>2024-11-15T16:34:25.037087</dc:date>
    <dc:format>image/svg+xml</dc:format>
    <dc:creator>
     <cc:Agent>
      <dc:title>Matplotlib v3.9.2, https://matplotlib.org/</dc:title>
     </cc:Agent>
    </dc:creator>
   </cc:Work>
  </rdf:RDF>
 </metadata>
 <defs>
  <style type="text/css">*{stroke-linejoin: round; stroke-linecap: butt}</style>
 </defs>
 <g id="figure_1">
  <g id="patch_1">
   <path d="M 0 648 
L 1152 648 
L 1152 0 
L 0 0 
L 0 648 
z
" style="fill: none"/>
  </g>
  <g id="axes_1">
   <g id="PathCollection_1">
    <defs>
     <path id="m7a326dd6bf" d="M 0 2.738613 
C 0.726289 2.738613 1.422928 2.450055 1.936492 1.936492 
C 2.450055 1.422928 2.738613 0.726289 2.738613 0 
C 2.738613 -0.726289 2.450055 -1.422928 1.936492 -1.936492 
C 1.422928 -2.450055 0.726289 -2.738613 0 -2.738613 
C -0.726289 -2.738613 -1.422928 -2.450055 -1.936492 -1.936492 
C -2.450055 -1.422928 -2.738613 -0.726289 -2.738613 0 
C -2.738613 0.726289 -2.450055 1.422928 -1.936492 1.936492 
C -1.422928 2.450055 -0.726289 2.738613 0 2.738613 
z
" style="stroke: #ccff33"/>
    </defs>
    <g clip-path="url(#p93a9937d51)">
     <use xlink:href="#m7a326dd6bf" x="625.300364" y="186.86592" style="fill: #ccff33; stroke: #ccff33"/>
     <use xlink:href="#m7a326dd6bf" x="249.918545" y="403.24824" style="fill: #ccff33; stroke: #ccff33"/>
    </g>
   </g>
   <g id="text_1">
    <path d="M 634.005344 181.412488 
L 634.855344 181.412488 
L 637.472531 188.512488 
L 636.397531 188.512488 
L 634.430344 182.784363 
L 632.463156 188.512488 
L 631.388156 188.512488 
L 634.005344 181.412488 
z
M 632.594406 186.007801 
L 636.330344 186.007801 
L 636.330344 186.954676 
L 632.594406 186.954676 
L 632.594406 186.007801 
z
M 640.114328 188.512488 
L 639.117453 188.512488 
L 639.117453 182.496863 
L 638.106516 183.117176 
L 638.106516 182.085926 
L 639.117453 181.412488 
L 640.114328 181.412488 
L 640.114328 188.512488 
z
M 643.805148 188.585926 
Q 643.161398 188.585926 642.672336 188.342176 
Q 642.184836 188.096863 641.917648 187.649988 
Q 641.652023 187.203113 641.652023 186.612488 
L 641.652023 186.495301 
Q 641.652023 185.964051 641.917648 185.495301 
Q 642.184836 185.026551 642.628586 184.787488 
Q 642.252023 184.581238 642.025461 184.193738 
Q 641.798898 183.804676 641.798898 183.374988 
L 641.798898 183.204676 
Q 641.798898 182.648426 642.047336 182.226551 
Q 642.295773 181.803113 642.750461 181.571863 
Q 643.205148 181.339051 643.805148 181.339051 
Q 644.405148 181.339051 644.859836 181.571863 
Q 645.314523 181.803113 645.562961 182.226551 
Q 645.811398 182.648426 645.811398 183.204676 
L 645.811398 183.374988 
Q 645.811398 183.815613 645.580148 184.201551 
Q 645.348898 184.585926 644.967648 184.787488 
Q 645.416086 185.031238 645.686398 185.498426 
Q 645.958273 185.964051 645.958273 186.495301 
L 645.958273 186.612488 
Q 645.958273 187.203113 645.692648 187.649988 
Q 645.427023 188.096863 644.937961 188.342176 
Q 644.450461 188.585926 643.805148 188.585926 
z
M 643.805148 187.628113 
Q 644.152023 187.628113 644.414523 187.492176 
Q 644.678586 187.354676 644.822336 187.109363 
Q 644.967648 186.862488 644.967648 186.539051 
L 644.967648 186.471863 
Q 644.967648 186.143738 644.822336 185.898426 
Q 644.678586 185.651551 644.414523 185.515613 
Q 644.152023 185.378113 643.805148 185.378113 
Q 643.458273 185.378113 643.194211 185.515613 
Q 642.931711 185.651551 642.786398 185.899988 
Q 642.642648 186.148426 642.642648 186.476551 
L 642.642648 186.549988 
Q 642.642648 186.871863 642.786398 187.115613 
Q 642.931711 187.359363 643.194211 187.493738 
Q 643.458273 187.628113 643.805148 187.628113 
z
M 643.805148 184.420301 
Q 644.103586 184.420301 644.331711 184.292176 
Q 644.561398 184.162488 644.687961 183.923426 
Q 644.816086 183.682801 644.816086 183.370301 
L 644.816086 183.303113 
Q 644.816086 183.004676 644.687961 182.774988 
Q 644.561398 182.545301 644.331711 182.421863 
Q 644.103586 182.296863 643.805148 182.296863 
Q 643.506711 182.296863 643.277023 182.421863 
Q 643.048898 182.545301 642.920773 182.774988 
Q 642.794211 183.004676 642.794211 183.307801 
L 642.794211 183.381238 
Q 642.794211 183.687488 642.920773 183.924988 
Q 643.048898 184.162488 643.277023 184.292176 
Q 643.506711 184.420301 643.805148 184.420301 
z
M 649.71882 184.810926 
L 651.989133 184.810926 
Q 652.311008 184.810926 652.554758 184.659363 
Q 652.80007 184.507801 652.932883 184.229676 
Q 653.067258 183.951551 653.067258 183.590613 
L 653.067258 183.590613 
Q 653.067258 183.224988 652.932883 182.946863 
Q 652.80007 182.667176 652.554758 182.514051 
Q 652.311008 182.359363 651.989133 182.359363 
L 649.71882 182.359363 
L 649.71882 181.412488 
L 651.954758 181.412488 
Q 652.589133 181.412488 653.071945 181.684363 
Q 653.55632 181.954676 653.821945 182.448426 
Q 654.089133 182.940613 654.089133 183.590613 
L 654.089133 183.590613 
Q 654.089133 184.240613 653.821945 184.731238 
Q 653.55632 185.221863 653.071945 185.490613 
Q 652.589133 185.757801 651.954758 185.757801 
L 649.71882 185.757801 
L 649.71882 184.810926 
z
M 649.20632 181.412488 
L 650.201633 181.412488 
L 650.201633 188.512488 
L 649.20632 188.512488 
L 649.20632 181.412488 
z
M 655.333469 183.443738 
L 656.330344 183.443738 
L 656.330344 188.512488 
L 655.333469 188.512488 
L 655.333469 183.443738 
z
M 658.120969 184.645301 
Q 657.989719 184.484363 657.789719 184.401551 
Q 657.589719 184.318738 657.325656 184.318738 
Q 656.852219 184.318738 656.591281 184.579676 
Q 656.330344 184.840613 656.330344 185.304676 
L 656.227219 184.328113 
Q 656.461594 183.873426 656.831906 183.621863 
Q 657.203781 183.370301 657.652219 183.370301 
Q 657.999094 183.370301 658.280344 183.470301 
Q 658.561594 183.570301 658.770969 183.765613 
L 658.120969 184.645301 
z
M 661.544797 188.585926 
Q 660.885422 188.585926 660.416672 188.328113 
Q 659.947922 188.068738 659.701047 187.573426 
Q 659.454172 187.076551 659.454172 186.378113 
L 659.454172 185.553113 
Q 659.454172 184.865613 659.701047 184.374988 
Q 659.947922 183.882801 660.416672 183.626551 
Q 660.885422 183.370301 661.544797 183.370301 
Q 662.204172 183.370301 662.672922 183.626551 
Q 663.141672 183.882801 663.386984 184.374988 
Q 663.633859 184.865613 663.633859 185.553113 
L 663.633859 186.393738 
Q 663.633859 187.085926 663.386984 187.578113 
Q 663.141672 188.068738 662.672922 188.328113 
Q 662.204172 188.585926 661.544797 188.585926 
z
M 661.544797 187.639051 
Q 662.066672 187.639051 662.352609 187.312488 
Q 662.638547 186.984363 662.638547 186.393738 
L 662.638547 185.553113 
Q 662.638547 184.962488 662.352609 184.640613 
Q 662.066672 184.318738 661.544797 184.318738 
Q 661.021359 184.318738 660.735422 184.640613 
Q 660.451047 184.962488 660.451047 185.553113 
L 660.451047 186.393738 
Q 660.451047 186.984363 660.735422 187.312488 
Q 661.021359 187.639051 661.544797 187.639051 
z
" style="fill: #ffffff; stroke: #000000"/>
    <path d="M 634.005344 181.412488 
L 634.855344 181.412488 
L 637.472531 188.512488 
L 636.397531 188.512488 
L 634.430344 182.784363 
L 632.463156 188.512488 
L 631.388156 188.512488 
L 634.005344 181.412488 
z
M 632.594406 186.007801 
L 636.330344 186.007801 
L 636.330344 186.954676 
L 632.594406 186.954676 
L 632.594406 186.007801 
z
M 640.114328 188.512488 
L 639.117453 188.512488 
L 639.117453 182.496863 
L 638.106516 183.117176 
L 638.106516 182.085926 
L 639.117453 181.412488 
L 640.114328 181.412488 
L 640.114328 188.512488 
z
M 643.805148 188.585926 
Q 643.161398 188.585926 642.672336 188.342176 
Q 642.184836 188.096863 641.917648 187.649988 
Q 641.652023 187.203113 641.652023 186.612488 
L 641.652023 186.495301 
Q 641.652023 185.964051 641.917648 185.495301 
Q 642.184836 185.026551 642.628586 184.787488 
Q 642.252023 184.581238 642.025461 184.193738 
Q 641.798898 183.804676 641.798898 183.374988 
L 641.798898 183.204676 
Q 641.798898 182.648426 642.047336 182.226551 
Q 642.295773 181.803113 642.750461 181.571863 
Q 643.205148 181.339051 643.805148 181.339051 
Q 644.405148 181.339051 644.859836 181.571863 
Q 645.314523 181.803113 645.562961 182.226551 
Q 645.811398 182.648426 645.811398 183.204676 
L 645.811398 183.374988 
Q 645.811398 183.815613 645.580148 184.201551 
Q 645.348898 184.585926 644.967648 184.787488 
Q 645.416086 185.031238 645.686398 185.498426 
Q 645.958273 185.964051 645.958273 186.495301 
L 645.958273 186.612488 
Q 645.958273 187.203113 645.692648 187.649988 
Q 645.427023 188.096863 644.937961 188.342176 
Q 644.450461 188.585926 643.805148 188.585926 
z
M 643.805148 187.628113 
Q 644.152023 187.628113 644.414523 187.492176 
Q 644.678586 187.354676 644.822336 187.109363 
Q 644.967648 186.862488 644.967648 186.539051 
L 644.967648 186.471863 
Q 644.967648 186.143738 644.822336 185.898426 
Q 644.678586 185.651551 644.414523 185.515613 
Q 644.152023 185.378113 643.805148 185.378113 
Q 643.458273 185.378113 643.194211 185.515613 
Q 642.931711 185.651551 642.786398 185.899988 
Q 642.642648 186.148426 642.642648 186.476551 
L 642.642648 186.549988 
Q 642.642648 186.871863 642.786398 187.115613 
Q 642.931711 187.359363 643.194211 187.493738 
Q 643.458273 187.628113 643.805148 187.628113 
z
M 643.805148 184.420301 
Q 644.103586 184.420301 644.331711 184.292176 
Q 644.561398 184.162488 644.687961 183.923426 
Q 644.816086 183.682801 644.816086 183.370301 
L 644.816086 183.303113 
Q 644.816086 183.004676 644.687961 182.774988 
Q 644.561398 182.545301 644.331711 182.421863 
Q 644.103586 182.296863 643.805148 182.296863 
Q 643.506711 182.296863 643.277023 182.421863 
Q 643.048898 182.545301 642.920773 182.774988 
Q 642.794211 183.004676 642.794211 183.307801 
L 642.794211 183.381238 
Q 642.794211 183.687488 642.920773 183.924988 
Q 643.048898 184.162488 643.277023 184.292176 
Q 643.506711 184.420301 643.805148 184.420301 
z
M 649.71882 184.810926 
L 651.989133 184.810926 
Q 652.311008 184.810926 652.554758 184.659363 
Q 652.80007 184.507801 652.932883 184.229676 
Q 653.067258 183.951551 653.067258 183.590613 
L 653.067258 183.590613 
Q 653.067258 183.224988 652.932883 182.946863 
Q 652.80007 182.667176 652.554758 182.514051 
Q 652.311008 182.359363 651.989133 182.359363 
L 649.71882 182.359363 
L 649.71882 181.412488 
L 651.954758 181.412488 
Q 652.589133 181.412488 653.071945 181.684363 
Q 653.55632 181.954676 653.821945 182.448426 
Q 654.089133 182.940613 654.089133 183.590613 
L 654.089133 183.590613 
Q 654.089133 184.240613 653.821945 184.731238 
Q 653.55632 185.221863 653.071945 185.490613 
Q 652.589133 185.757801 651.954758 185.757801 
L 649.71882 185.757801 
L 649.71882 184.810926 
z
M 649.20632 181.412488 
L 650.201633 181.412488 
L 650.201633 188.512488 
L 649.20632 188.512488 
L 649.20632 181.412488 
z
M 655.333469 183.443738 
L 656.330344 183.443738 
L 656.330344 188.512488 
L 655.333469 188.512488 
L 655.333469 183.443738 
z
M 658.120969 184.645301 
Q 657.989719 184.484363 657.789719 184.401551 
Q 657.589719 184.318738 657.325656 184.318738 
Q 656.852219 184.318738 656.591281 184.579676 
Q 656.330344 184.840613 656.330344 185.304676 
L 656.227219 184.328113 
Q 656.461594 183.873426 656.831906 183.621863 
Q 657.203781 183.370301 657.652219 183.370301 
Q 657.999094 183.370301 658.280344 183.470301 
Q 658.561594 183.570301 658.770969 183.765613 
L 658.120969 184.645301 
z
M 661.544797 188.585926 
Q 660.885422 188.585926 660.416672 188.328113 
Q 659.947922 188.068738 659.701047 187.573426 
Q 659.454172 187.076551 659.454172 186.378113 
L 659.454172 185.553113 
Q 659.454172 184.865613 659.701047 184.374988 
Q 659.947922 183.882801 660.416672 183.626551 
Q 660.885422 183.370301 661.544797 183.370301 
Q 662.204172 183.370301 662.672922 183.626551 
Q 663.141672 183.882801 663.386984 184.374988 
Q 663.633859 184.865613 663.633859 185.553113 
L 663.633859 186.393738 
Q 663.633859 187.085926 663.386984 187.578113 
Q 663.141672 188.068738 662.672922 188.328113 
Q 662.204172 188.585926 661.544797 188.585926 
z
M 661.544797 187.639051 
Q 662.066672 187.639051 662.352609 187.312488 
Q 662.638547 186.984363 662.638547 186.393738 
L 662.638547 185.553113 
Q 662.638547 184.962488 662.352609 184.640613 
Q 662.066672 184.318738 661.544797 184.318738 
Q 661.021359 184.318738 660.735422 184.640613 
Q 660.451047 184.962488 660.451047 185.553113 
L 660.451047 186.393738 
Q 660.451047 186.984363 660.735422 187.312488 
Q 661.021359 187.639051 661.544797 187.639051 
z
" style="fill: #ffffff"/>
   </g>
   <g id="text_2">
    <path d="M 258.623525 397.794808 
L 259.473525 397.794808 
L 262.090713 404.894808 
L 261.015713 404.894808 
L 259.048525 399.166683 
L 257.081338 404.894808 
L 256.006338 404.894808 
L 258.623525 397.794808 
z
M 257.212588 402.390121 
L 260.948525 402.390121 
L 260.948525 403.336996 
L 257.212588 403.336996 
L 257.212588 402.390121 
z
M 264.73251 404.894808 
L 263.735635 404.894808 
L 263.735635 398.879183 
L 262.724697 399.499496 
L 262.724697 398.468246 
L 263.735635 397.794808 
L 264.73251 397.794808 
L 264.73251 404.894808 
z
M 268.42333 404.968246 
Q 267.77958 404.968246 267.290518 404.724495 
Q 266.803018 404.479183 266.53583 404.032308 
Q 266.270205 403.585433 266.270205 402.994808 
L 266.270205 402.877621 
Q 266.270205 402.346371 266.53583 401.877621 
Q 266.803018 401.408871 267.246768 401.169808 
Q 266.870205 400.963558 266.643643 400.576058 
Q 266.41708 400.186996 266.41708 399.757308 
L 266.41708 399.586996 
Q 266.41708 399.030746 266.665518 398.608871 
Q 266.913955 398.185433 267.368643 397.954183 
Q 267.82333 397.721371 268.42333 397.721371 
Q 269.02333 397.721371 269.478018 397.954183 
Q 269.932705 398.185433 270.181143 398.608871 
Q 270.42958 399.030746 270.42958 399.586996 
L 270.42958 399.757308 
Q 270.42958 400.197933 270.19833 400.58387 
Q 269.96708 400.968246 269.58583 401.169808 
Q 270.034268 401.413558 270.30458 401.880745 
Q 270.576455 402.346371 270.576455 402.877621 
L 270.576455 402.994808 
Q 270.576455 403.585433 270.31083 404.032308 
Q 270.045205 404.479183 269.556143 404.724495 
Q 269.068643 404.968246 268.42333 404.968246 
z
M 268.42333 404.010433 
Q 268.770205 404.010433 269.032705 403.874496 
Q 269.296768 403.736996 269.440518 403.491683 
Q 269.58583 403.244808 269.58583 402.921371 
L 269.58583 402.854183 
Q 269.58583 402.526058 269.440518 402.280746 
Q 269.296768 402.033871 269.032705 401.897933 
Q 268.770205 401.760433 268.42333 401.760433 
Q 268.076455 401.760433 267.812393 401.897933 
Q 267.549893 402.033871 267.40458 402.282308 
Q 267.26083 402.530746 267.26083 402.858871 
L 267.26083 402.932308 
Q 267.26083 403.254183 267.40458 403.497933 
Q 267.549893 403.741683 267.812393 403.876058 
Q 268.076455 404.010433 268.42333 404.010433 
z
M 268.42333 400.80262 
Q 268.721768 400.80262 268.949893 400.674496 
Q 269.17958 400.544808 269.306143 400.305746 
Q 269.434268 400.065121 269.434268 399.752621 
L 269.434268 399.685433 
Q 269.434268 399.386996 269.306143 399.157308 
Q 269.17958 398.92762 268.949893 398.804183 
Q 268.721768 398.679183 268.42333 398.679183 
Q 268.124893 398.679183 267.895205 398.804183 
Q 267.66708 398.92762 267.538955 399.157308 
Q 267.412393 399.386996 267.412393 399.690121 
L 267.412393 399.763558 
Q 267.412393 400.069808 267.538955 400.307308 
Q 267.66708 400.544808 267.895205 400.674496 
Q 268.124893 400.80262 268.42333 400.80262 
z
M 274.337002 401.193245 
L 276.607315 401.193245 
Q 276.92919 401.193245 277.17294 401.041683 
Q 277.418252 400.890121 277.551065 400.611996 
Q 277.68544 400.33387 277.68544 399.972933 
L 277.68544 399.972933 
Q 277.68544 399.607308 277.551065 399.329183 
Q 277.418252 399.049496 277.17294 398.89637 
Q 276.92919 398.741683 276.607315 398.741683 
L 274.337002 398.741683 
L 274.337002 397.794808 
L 276.57294 397.794808 
Q 277.207315 397.794808 277.690127 398.066683 
Q 278.174502 398.336996 278.440127 398.830746 
Q 278.707315 399.322933 278.707315 399.972933 
L 278.707315 399.972933 
Q 278.707315 400.622933 278.440127 401.113558 
Q 278.174502 401.604183 277.690127 401.872933 
Q 277.207315 402.140121 276.57294 402.140121 
L 274.337002 402.140121 
L 274.337002 401.193245 
z
M 273.824502 397.794808 
L 274.819815 397.794808 
L 274.819815 404.894808 
L 273.824502 404.894808 
L 273.824502 397.794808 
z
M 279.95165 399.826058 
L 280.948525 399.826058 
L 280.948525 404.894808 
L 279.95165 404.894808 
L 279.95165 399.826058 
z
M 282.73915 401.027621 
Q 282.6079 400.866683 282.4079 400.783871 
Q 282.2079 400.701058 281.943838 400.701058 
Q 281.4704 400.701058 281.209463 400.961996 
Q 280.948525 401.222933 280.948525 401.686996 
L 280.8454 400.710433 
Q 281.079775 400.255745 281.450088 400.004183 
Q 281.821963 399.752621 282.2704 399.752621 
Q 282.617275 399.752621 282.898525 399.852621 
Q 283.179775 399.952621 283.38915 400.147933 
L 282.73915 401.027621 
z
M 286.162979 404.968246 
Q 285.503604 404.968246 285.034854 404.710433 
Q 284.566104 404.451058 284.319229 403.955746 
Q 284.072354 403.45887 284.072354 402.760433 
L 284.072354 401.935433 
Q 284.072354 401.247933 284.319229 400.757308 
Q 284.566104 400.265121 285.034854 400.008871 
Q 285.503604 399.752621 286.162979 399.752621 
Q 286.822354 399.752621 287.291104 400.008871 
Q 287.759854 400.265121 288.005166 400.757308 
Q 288.252041 401.247933 288.252041 401.935433 
L 288.252041 402.776058 
Q 288.252041 403.468246 288.005166 403.960433 
Q 287.759854 404.451058 287.291104 404.710433 
Q 286.822354 404.968246 286.162979 404.968246 
z
M 286.162979 404.02137 
Q 286.684854 404.02137 286.970791 403.694808 
Q 287.256729 403.366683 287.256729 402.776058 
L 287.256729 401.935433 
Q 287.256729 401.344808 286.970791 401.022933 
Q 286.684854 400.701058 286.162979 400.701058 
Q 285.639541 400.701058 285.353604 401.022933 
Q 285.069229 401.344808 285.069229 401.935433 
L 285.069229 402.776058 
Q 285.069229 403.366683 285.353604 403.694808 
Q 285.639541 404.02137 286.162979 404.02137 
z
" style="fill: #ffffff; stroke: #000000"/>
    <path d="M 258.623525 397.794808 
L 259.473525 397.794808 
L 262.090713 404.894808 
L 261.015713 404.894808 
L 259.048525 399.166683 
L 257.081338 404.894808 
L 256.006338 404.894808 
L 258.623525 397.794808 
z
M 257.212588 402.390121 
L 260.948525 402.390121 
L 260.948525 403.336996 
L 257.212588 403.336996 
L 257.212588 402.390121 
z
M 264.73251 404.894808 
L 263.735635 404.894808 
L 263.735635 398.879183 
L 262.724697 399.499496 
L 262.724697 398.468246 
L 263.735635 397.794808 
L 264.73251 397.794808 
L 264.73251 404.894808 
z
M 268.42333 404.968246 
Q 267.77958 404.968246 267.290518 404.724495 
Q 266.803018 404.479183 266.53583 404.032308 
Q 266.270205 403.585433 266.270205 402.994808 
L 266.270205 402.877621 
Q 266.270205 402.346371 266.53583 401.877621 
Q 266.803018 401.408871 267.246768 401.169808 
Q 266.870205 400.963558 266.643643 400.576058 
Q 266.41708 400.186996 266.41708 399.757308 
L 266.41708 399.586996 
Q 266.41708 399.030746 266.665518 398.608871 
Q 266.913955 398.185433 267.368643 397.954183 
Q 267.82333 397.721371 268.42333 397.721371 
Q 269.02333 397.721371 269.478018 397.954183 
Q 269.932705 398.185433 270.181143 398.608871 
Q 270.42958 399.030746 270.42958 399.586996 
L 270.42958 399.757308 
Q 270.42958 400.197933 270.19833 400.58387 
Q 269.96708 400.968246 269.58583 401.169808 
Q 270.034268 401.413558 270.30458 401.880745 
Q 270.576455 402.346371 270.576455 402.877621 
L 270.576455 402.994808 
Q 270.576455 403.585433 270.31083 404.032308 
Q 270.045205 404.479183 269.556143 404.724495 
Q 269.068643 404.968246 268.42333 404.968246 
z
M 268.42333 404.010433 
Q 268.770205 404.010433 269.032705 403.874496 
Q 269.296768 403.736996 269.440518 403.491683 
Q 269.58583 403.244808 269.58583 402.921371 
L 269.58583 402.854183 
Q 269.58583 402.526058 269.440518 402.280746 
Q 269.296768 402.033871 269.032705 401.897933 
Q 268.770205 401.760433 268.42333 401.760433 
Q 268.076455 401.760433 267.812393 401.897933 
Q 267.549893 402.033871 267.40458 402.282308 
Q 267.26083 402.530746 267.26083 402.858871 
L 267.26083 402.932308 
Q 267.26083 403.254183 267.40458 403.497933 
Q 267.549893 403.741683 267.812393 403.876058 
Q 268.076455 404.010433 268.42333 404.010433 
z
M 268.42333 400.80262 
Q 268.721768 400.80262 268.949893 400.674496 
Q 269.17958 400.544808 269.306143 400.305746 
Q 269.434268 400.065121 269.434268 399.752621 
L 269.434268 399.685433 
Q 269.434268 399.386996 269.306143 399.157308 
Q 269.17958 398.92762 268.949893 398.804183 
Q 268.721768 398.679183 268.42333 398.679183 
Q 268.124893 398.679183 267.895205 398.804183 
Q 267.66708 398.92762 267.538955 399.157308 
Q 267.412393 399.386996 267.412393 399.690121 
L 267.412393 399.763558 
Q 267.412393 400.069808 267.538955 400.307308 
Q 267.66708 400.544808 267.895205 400.674496 
Q 268.124893 400.80262 268.42333 400.80262 
z
M 274.337002 401.193245 
L 276.607315 401.193245 
Q 276.92919 401.193245 277.17294 401.041683 
Q 277.418252 400.890121 277.551065 400.611996 
Q 277.68544 400.33387 277.68544 399.972933 
L 277.68544 399.972933 
Q 277.68544 399.607308 277.551065 399.329183 
Q 277.418252 399.049496 277.17294 398.89637 
Q 276.92919 398.741683 276.607315 398.741683 
L 274.337002 398.741683 
L 274.337002 397.794808 
L 276.57294 397.794808 
Q 277.207315 397.794808 277.690127 398.066683 
Q 278.174502 398.336996 278.440127 398.830746 
Q 278.707315 399.322933 278.707315 399.972933 
L 278.707315 399.972933 
Q 278.707315 400.622933 278.440127 401.113558 
Q 278.174502 401.604183 277.690127 401.872933 
Q 277.207315 402.140121 276.57294 402.140121 
L 274.337002 402.140121 
L 274.337002 401.193245 
z
M 273.824502 397.794808 
L 274.819815 397.794808 
L 274.819815 404.894808 
L 273.824502 404.894808 
L 273.824502 397.794808 
z
M 279.95165 399.826058 
L 280.948525 399.826058 
L 280.948525 404.894808 
L 279.95165 404.894808 
L 279.95165 399.826058 
z
M 282.73915 401.027621 
Q 282.6079 400.866683 282.4079 400.783871 
Q 282.2079 400.701058 281.943838 400.701058 
Q 281.4704 400.701058 281.209463 400.961996 
Q 280.948525 401.222933 280.948525 401.686996 
L 280.8454 400.710433 
Q 281.079775 400.255745 281.450088 400.004183 
Q 281.821963 399.752621 282.2704 399.752621 
Q 282.617275 399.752621 282.898525 399.852621 
Q 283.179775 399.952621 283.38915 400.147933 
L 282.73915 401.027621 
z
M 286.162979 404.968246 
Q 285.503604 404.968246 285.034854 404.710433 
Q 284.566104 404.451058 284.319229 403.955746 
Q 284.072354 403.45887 284.072354 402.760433 
L 284.072354 401.935433 
Q 284.072354 401.247933 284.319229 400.757308 
Q 284.566104 400.265121 285.034854 400.008871 
Q 285.503604 399.752621 286.162979 399.752621 
Q 286.822354 399.752621 287.291104 400.008871 
Q 287.759854 400.265121 288.005166 400.757308 
Q 288.252041 401.247933 288.252041 401.935433 
L 288.252041 402.776058 
Q 288.252041 403.468246 288.005166 403.960433 
Q 287.759854 404.451058 287.291104 404.710433 
Q 286.822354 404.968246 286.162979 404.968246 
z
M 286.162979 404.02137 
Q 286.684854 404.02137 286.970791 403.694808 
Q 287.256729 403.366683 287.256729 402.776058 
L 287.256729 401.935433 
Q 287.256729 401.344808 286.970791 401.022933 
Q 286.684854 400.701058 286.162979 400.701058 
Q 285.639541 400.701058 285.353604 401.022933 
Q 285.069229 401.344808 285.069229 401.935433 
L 285.069229 402.776058 
Q 285.069229 403.366683 285.353604 403.694808 
Q 285.639541 404.02137 286.162979 404.02137 
z
" style="fill: #ffffff"/>
   </g>
  </g>
 </g>
 <defs>
  <clipPath id="p93a9937d51">
   <rect x="144" y="77.76" width="892.8" height="498.96"/>
  </clipPath>
 </defs>
</svg>
