<?xml version="1.0" encoding="UTF-8"?>
<svg xmlns="http://www.w3.org/2000/svg" version="1.1" viewBox="0 0 1152 648">
  <defs>
    <style>
      .cls-1 {
        font-family: 'HarmonyOS_Sans_SC_Medium', 'HarmonyOS Sans SC';
        font-size: 20px;
      }

      .cls-1, .cls-2, .cls-3 {
        isolation: isolate;
      }

      .cls-1, .cls-4 {
        fill: #999;
      }

      .cls-2 {
        font-family: 'HarmonyOS_Sans_SC_Bold', 'HarmonyOS Sans SC';
        font-size: 12.9px;
      }

      .cls-5 {
        fill: #fff;
      }

      .cls-6 {
        stroke: #4c4c4c;
        stroke-linejoin: round;
      }

      .cls-6, .cls-7 {
        fill: none;
        stroke-width: .8px;
      }

      .cls-7 {
        stroke: #fff;
        stroke-linecap: square;
      }

      .cls-8 {
        display: none;
      }
    </style>
  </defs>
  <!-- Generator: Adobe Illustrator 28.7.1, SVG Export Plug-In . SVG Version: 1.2.0 Build 142)  -->
  <g>
    <g id="_图层_1" data-name="图层_1">
      <g id="_背景">
        <path class="cls-8" d="M0,648h1152V0H0v648Z"/>
        <path class="cls-8" d="M144,576.7h892.8V77.9H144v498.8Z"/>
      </g>
      <path id="_竖线1" class="cls-6" d="M225.2,77.9v502.4"/>
      <path id="_竖线2" class="cls-6" d="M306.3,77.8v502.5"/>
      <path id="_竖线3" class="cls-6" d="M387.5,77.8v502.5"/>
      <path id="_竖线4" class="cls-6" d="M468.7,77.8v502.5"/>
      <path id="_竖线5" class="cls-6" d="M549.8,77.8v502.5"/>
      <path id="_竖线5-2" class="cls-6" d="M631,77.8v502.5"/>
      <path id="_竖线6" class="cls-6" d="M712.1,77.8v502.5"/>
      <path id="_竖线6-2" class="cls-6" d="M793.3,77.8v502.5"/>
      <path id="_竖线6-2-2" data-name="_竖线6-2" class="cls-6" d="M874.5,77.8v502.5"/>
      <path id="_竖线6-2-3" data-name="_竖线6-2" class="cls-6" d="M955.6,77.8v502.5"/>
      <path id="_竖线7" class="cls-6" d="M1036.8,77.8v502.5"/>
      <path id="_横线2" class="cls-6" d="M1037.2,476.9H140.5"/>
      <path id="_横线4" class="cls-6" d="M1037.2,377.1H140.5"/>
      <path id="_横线6" class="cls-6" d="M1037.2,277.4H140.5"/>
      <path id="_横线6-2" class="cls-6" d="M1037.2,177.6H140.5"/>
      <path id="_横线7" class="cls-6" d="M1037.2,77.8H140.5"/>
      <path id="_横坐标" class="cls-7" d="M144,576.7h892.8"/>
      <path id="_纵坐标" class="cls-7" d="M144,576.7V77.8"/>
      <g id="_左上更好">
        <path class="cls-5" d="M204.6,97.6h-39.3c-.8,0-1.4.6-1.4,1.4v39.3c0,1.3,1.5,1.9,2.4,1l3.9-3.9c.6-.6,1.5-.6,2,0l12,12c.6.6,1.5.6,2,0l27.4-27.4c.6-.6.6-1.5,0-2l-12-12c-.6-.6-.6-1.5,0-2l3.9-3.9c1-.9.3-2.5-.9-2.5h0Z"/>
        <g class="cls-3">
          <text class="cls-2" transform="translate(174.5 126.5) rotate(-45)"><tspan x="0" y="0">左上</tspan></text>
        </g>
        <g class="cls-3">
          <text class="cls-2" transform="translate(185.5 137.5) rotate(-45)"><tspan x="0" y="0">更好</tspan></text>
        </g>
      </g>
      <g class="cls-3">
        <text class="cls-1" transform="translate(928.3 633)"><tspan x="0" y="0">主板功耗 (W)</tspan></text>
      </g>
      <g>
        <path class="cls-4" d="M789.9,585.5v14.8h-2.1v-12.6l-2.1,1.3v-2l2.1-1.4h2.1Z"/>
        <path class="cls-4" d="M797,600.5c-1.3,0-2.4-.4-3.1-1.1-.7-.8-1-1.9-1-3.3h0c0-.6,0-1.3.3-2.1.2-.7.4-1.4.7-2.1l3.2-6.4h2.3l-3.8,7.4v-.4c.3-.7,1-1,1.9-1s2.1.4,2.7,1.1c.6.7.9,1.9.9,3.3h0c0,1.4-.3,2.6-1,3.3-.8.7-1.8,1.3-3.1,1.3h0ZM797,598.5c.6,0,1.1-.2,1.5-.6.4-.4.5-1,.5-1.8h0c0-.8-.2-1.4-.5-2-.4-.4-.9-.7-1.5-.7s-1.1.2-1.4.7c-.3.4-.5,1.1-.5,2h0c0,.7.2,1.3.5,1.8s.8.6,1.4.6Z"/>
      </g>
      <g>
        <path class="cls-4" d="M707.9,585.6v14.8h-2.1v-12.6l-2.1,1.3v-2.1l2.1-1.4h2.1Z"/>
        <path class="cls-4" d="M711.1,598.1v-1.9l4.9-10.7h2.2l-4.8,10.6h7.2v2h-9.5ZM717.5,600.4v-8.7h2.1v8.7h-2.1Z"/>
      </g>
      <g>
        <path class="cls-4" d="M627.3,585.6v14.8h-2.1v-12.6l-2.1,1.3v-2.2l2.1-1.4h2.1Z"/>
        <path class="cls-4" d="M630.4,600.5v-1.8l5.2-6.9c.3-.4.5-.8.7-1.2s.2-.8.2-1.2h0c0-.6-.2-1-.5-1.3s-.8-.5-1.4-.5-1.1.2-1.4.5c-.3.3-.6.8-.7,1.5h-2.2c.2-1.2.6-2.3,1.4-3,.7-.7,1.8-1,2.9-1s2.4.3,3.1,1,1.1,1.6,1.1,2.9h0c0,.5,0,1-.3,1.6s-.5,1.1-.9,1.6l-4.3,5.8h5.6v2h-8.5,0Z"/>
      </g>
      <g>
        <path class="cls-4" d="M546,585.6v14.8h-2.1v-12.6l-2.1,1.3v-2.2l2.1-1.4h2.1Z"/>
        <path class="cls-4" d="M553.7,600.6c-1.4,0-2.5-.4-3.2-1.1-.7-.7-1-1.8-1-3.1v-6.7c0-1.3.3-2.4,1-3.1.7-.7,1.8-1.1,3.2-1.1s2.5.4,3.2,1.1c.7.7,1,1.8,1,3.1v6.7c0,1.3-.3,2.4-1,3.1-.8.8-1.9,1.1-3.2,1.1ZM553.7,598.6c.7,0,1.3-.2,1.6-.6.3-.4.5-.9.5-1.6v-6.7c0-.7-.2-1.2-.5-1.6-.3-.4-.9-.6-1.6-.6s-1.3.2-1.6.6c-.3.4-.5.9-.5,1.6v6.7c0,.7.2,1.2.5,1.6s.8.6,1.6.6Z"/>
      </g>
      <path class="cls-4" d="M468.7,600.5c-.9,0-1.6-.2-2.4-.5-.7-.3-1.2-.8-1.5-1.4-.4-.6-.5-1.3-.5-2.2v-.2c0-.7.2-1.4.5-2.1.4-.6.8-1.1,1.4-1.4-.5-.3-.9-.7-1.2-1.2s-.5-1.1-.5-1.8v-.3c0-1.1.4-2.2,1.1-2.8.7-.7,1.8-1,3-1s2.3.3,3,1,1.1,1.6,1.1,2.8v.3c0,.6-.2,1.1-.5,1.8-.3.5-.7.9-1.2,1.2.6.3,1.1.8,1.5,1.4.4.6.5,1.3.5,2.1v.2c0,.8-.2,1.5-.5,2.2-.3.6-.9,1.1-1.5,1.4-.7.4-1.5.5-2.3.5h0ZM468.7,598.5c.7,0,1.3-.2,1.8-.6.4-.4.6-.9.6-1.6h0c0-.8-.2-1.3-.6-1.7s-1-.6-1.8-.6-1.3.2-1.8.6c-.4.4-.6.9-.6,1.6h0c0,.8.2,1.3.6,1.7s.9.6,1.8.6ZM468.7,591.8c.6,0,1.1-.2,1.5-.6.4-.4.6-.9.6-1.5h0c0-.7-.2-1.2-.6-1.6s-.9-.6-1.5-.6-1.1.2-1.5.6c-.4.4-.6.9-.6,1.5h0c0,.7.2,1.2.6,1.6s.7.6,1.5.6Z"/>
      <path class="cls-4" d="M387.5,600.5c-1.3,0-2.4-.4-3.1-1.1-.7-.8-1-1.9-1-3.3h0c0-.6.1-1.3.3-2.1.2-.7.4-1.4.7-2.1l3.2-6.4h2.3l-3.8,7.4v-.4c.3-.7,1-1,1.9-1s2.1.4,2.7,1.1c.6.7.9,1.9.9,3.3h0c0,1.4-.3,2.6-1,3.3-.9.7-1.9,1.3-3.1,1.3ZM387.5,598.5c.6,0,1.1-.2,1.5-.6.4-.4.5-1,.5-1.8h0c0-.8-.2-1.4-.5-2-.4-.4-.9-.7-1.5-.7s-1.1.2-1.4.7c-.3.4-.5,1.1-.5,2h0c0,.7.2,1.3.5,1.8.2.4.6.6,1.4.6Z"/>
      <path class="cls-4" d="M301.6,598.1v-1.9l4.9-10.7h2.2l-4.8,10.6h7.2v2h-9.5ZM307.9,600.4v-8.7h2.1v8.7h-2.1Z"/>
      <path class="cls-4" d="M221,600.5v-1.8l5.2-6.9c.3-.4.5-.8.7-1.2s.2-.8.2-1.2h0c0-.6-.2-1-.5-1.3s-.8-.5-1.4-.5-1.1.2-1.4.5c-.3.3-.6.8-.7,1.5h-2.2c.2-1.2.6-2.3,1.4-3,.7-.7,1.8-1,2.9-1s2.4.3,3.1,1,1.1,1.6,1.1,2.9h0c0,.5-.1,1-.3,1.6s-.5,1.1-.9,1.6l-4.3,5.8h5.6v2h-8.5Z"/>
      <path class="cls-4" d="M144,600.6c-1.4,0-2.5-.4-3.2-1.1-.7-.7-1-1.8-1-3.1v-6.7c0-1.3.3-2.4,1-3.1.7-.7,1.8-1.1,3.2-1.1s2.5.4,3.2,1.1c.7.7,1,1.8,1,3.1v6.7c0,1.3-.3,2.4-1,3.1-.7.8-1.8,1.1-3.2,1.1ZM144,598.6c.7,0,1.3-.2,1.6-.6.3-.4.5-.9.5-1.6v-6.7c0-.7-.2-1.2-.5-1.6-.3-.4-.9-.6-1.6-.6s-1.3.2-1.6.6c-.3.4-.5.9-.5,1.6v6.7c0,.7.2,1.2.5,1.6.4.4.9.6,1.6.6Z"/>
      <g>
        <path class="cls-4" d="M97.4,185.1c-.9,0-1.7-.2-2.4-.5s-1.2-.8-1.6-1.4c-.4-.6-.6-1.4-.6-2.2v-.2c0-.7.2-1.4.6-2.1s.9-1.2,1.5-1.5c-.5-.3-.9-.7-1.3-1.2-.3-.5-.5-1.1-.5-1.7v-.4c0-1.2.4-2.1,1.2-2.8.8-.7,1.8-1.1,3.1-1.1s2.3.4,3.1,1.1c.8.7,1.2,1.7,1.2,2.8v.4c0,.6-.2,1.2-.5,1.7s-.8,1-1.3,1.2c.6.3,1.1.8,1.5,1.5s.6,1.4.6,2.1v.2c0,.8-.2,1.6-.6,2.2-.4.6-.9,1.1-1.6,1.4s-1.5.5-2.4.5h0ZM97.4,183c.7,0,1.3-.2,1.8-.6.4-.4.7-1,.7-1.7h0c0-.8-.2-1.3-.7-1.8-.4-.4-1-.6-1.8-.6s-1.4.2-1.8.6c-.4.4-.7,1-.7,1.7v.2c0,.7.2,1.2.7,1.6.4.4,1,.6,1.8.6ZM97.4,176.3c.6,0,1.1-.2,1.5-.6.4-.4.6-.9.6-1.6h0c0-.7-.2-1.2-.6-1.6-.4-.4-.9-.6-1.5-.6s-1.1.2-1.5.6c-.4.4-.6.9-.6,1.5v.2c0,.7.2,1.2.6,1.6.3.3.8.5,1.5.5h0Z"/>
        <path class="cls-4" d="M109.1,185.1c-1.4,0-2.5-.4-3.2-1.1-.7-.8-1.1-1.8-1.1-3.1v-6.8c0-1.3.4-2.4,1.1-3.1s1.8-1.1,3.2-1.1,2.5.4,3.2,1.1,1.1,1.8,1.1,3.1v6.8c0,1.3-.4,2.4-1.1,3.1-.8.7-1.8,1.1-3.2,1.1ZM109.1,183.1c.8,0,1.3-.2,1.7-.6.3-.4.5-.9.5-1.6v-6.8c0-.7-.2-1.3-.5-1.7s-.9-.6-1.7-.6-1.3.2-1.7.6c-.3.4-.5.9-.5,1.7v6.8c0,.7.2,1.2.5,1.6.3.4.9.6,1.7.6Z"/>
        <path class="cls-4" d="M120.6,185.1c-1.4,0-2.5-.4-3.2-1.1-.7-.8-1.1-1.8-1.1-3.1v-6.8c0-1.3.4-2.4,1.1-3.1s1.8-1.1,3.2-1.1,2.5.4,3.2,1.1,1.1,1.8,1.1,3.1v6.8c0,1.3-.4,2.4-1.1,3.1s-1.7,1.1-3.2,1.1ZM120.6,183.1c.8,0,1.3-.2,1.7-.6.3-.4.5-.9.5-1.6v-6.8c0-.7-.2-1.3-.5-1.7s-.9-.6-1.7-.6-1.3.2-1.7.6c-.3.4-.5.9-.5,1.7v6.8c0,.7.2,1.2.5,1.6.4.4,1,.6,1.7.6Z"/>
        <path class="cls-4" d="M132.2,185.1c-1.4,0-2.5-.4-3.2-1.1-.7-.8-1.1-1.8-1.1-3.1v-6.8c0-1.3.4-2.4,1.1-3.1s1.8-1.1,3.2-1.1,2.5.4,3.2,1.1,1.1,1.8,1.1,3.1v6.8c0,1.3-.4,2.4-1.1,3.1s-1.8,1.1-3.2,1.1ZM132.2,183.1c.8,0,1.3-.2,1.7-.6.3-.4.5-.9.5-1.6v-6.8c0-.7-.2-1.3-.5-1.7s-.9-.6-1.7-.6-1.3.2-1.7.6c-.3.4-.5.9-.5,1.7v6.8c0,.7.2,1.2.5,1.6.4.4,1,.6,1.7.6Z"/>
      </g>
      <g>
        <path class="cls-4" d="M97.9,284.9c-1.3,0-2.3-.4-3.1-1.2s-1.1-1.9-1.1-3.3h0c0-.6,0-1.3.3-2s.4-1.4.8-2.1l3.2-6.4h2.3l-3.8,7.4v-.4c.4-.7,1-1,1.9-1s2.1.4,2.7,1.2,1,1.9,1,3.3h0c0,1.4-.4,2.6-1.1,3.4-.8.7-1.8,1.1-3.1,1.1ZM97.9,282.9c.7,0,1.2-.2,1.5-.6s.5-1,.5-1.8h0c0-.8-.2-1.5-.6-1.9-.4-.5-.9-.7-1.6-.7s-1.1.2-1.4.7-.5,1.1-.5,1.9h0c0,.8.2,1.3.5,1.7.4.5.9.7,1.6.7h0Z"/>
        <path class="cls-4" d="M109.1,284.9c-1.4,0-2.5-.4-3.2-1.1-.7-.8-1.1-1.8-1.1-3.1v-6.8c0-1.3.4-2.4,1.1-3.1s1.8-1.1,3.2-1.1,2.5.4,3.2,1.1,1.1,1.8,1.1,3.1v6.8c0,1.3-.4,2.4-1.1,3.1-.8.8-1.8,1.1-3.2,1.1ZM109.1,282.9c.8,0,1.3-.2,1.7-.6.3-.4.5-.9.5-1.6v-6.8c0-.7-.2-1.3-.5-1.7s-.9-.6-1.7-.6-1.3.2-1.7.6c-.3.4-.5.9-.5,1.7v6.8c0,.7.2,1.2.5,1.6s.9.6,1.7.6Z"/>
        <path class="cls-4" d="M120.6,284.9c-1.4,0-2.5-.4-3.2-1.1-.7-.8-1.1-1.8-1.1-3.1v-6.8c0-1.3.4-2.4,1.1-3.1s1.8-1.1,3.2-1.1,2.5.4,3.2,1.1,1.1,1.8,1.1,3.1v6.8c0,1.3-.4,2.4-1.1,3.1-.7.8-1.7,1.1-3.2,1.1ZM120.6,282.9c.8,0,1.3-.2,1.7-.6.3-.4.5-.9.5-1.6v-6.8c0-.7-.2-1.3-.5-1.7s-.9-.6-1.7-.6-1.3.2-1.7.6c-.3.4-.5.9-.5,1.7v6.8c0,.7.2,1.2.5,1.6.4.4,1,.6,1.7.6Z"/>
        <path class="cls-4" d="M132.2,284.9c-1.4,0-2.5-.4-3.2-1.1-.7-.8-1.1-1.8-1.1-3.1v-6.8c0-1.3.4-2.4,1.1-3.1s1.8-1.1,3.2-1.1,2.5.4,3.2,1.1,1.1,1.8,1.1,3.1v6.8c0,1.3-.4,2.4-1.1,3.1-.7.8-1.8,1.1-3.2,1.1ZM132.2,282.9c.8,0,1.3-.2,1.7-.6.3-.4.5-.9.5-1.6v-6.8c0-.7-.2-1.3-.5-1.7s-.9-.6-1.7-.6-1.3.2-1.7.6c-.3.4-.5.9-.5,1.7v6.8c0,.7.2,1.2.5,1.6.4.4,1,.6,1.7.6Z"/>
      </g>
      <g>
        <path class="cls-4" d="M92.7,382.2v-1.9l5-10.8h2.2l-4.9,10.7h7.3v1.9h-9.6ZM99.1,384.5v-8.8h2v8.8h-2Z"/>
        <path class="cls-4" d="M109.1,384.6c-1.4,0-2.5-.4-3.2-1.1-.7-.8-1.1-1.8-1.1-3.1v-6.8c0-1.3.4-2.4,1.1-3.1s1.8-1.1,3.2-1.1,2.5.4,3.2,1.1,1.1,1.8,1.1,3.1v6.8c0,1.3-.4,2.4-1.1,3.1-.8.7-1.8,1.1-3.2,1.1ZM109.1,382.6c.8,0,1.3-.2,1.7-.6.3-.4.5-.9.5-1.6v-6.8c0-.7-.2-1.3-.5-1.7-.3-.4-.9-.6-1.7-.6s-1.3.2-1.7.6c-.3.4-.5.9-.5,1.7v6.8c0,.7.2,1.2.5,1.6s.9.6,1.7.6Z"/>
        <path class="cls-4" d="M120.6,384.6c-1.4,0-2.5-.4-3.2-1.1-.7-.8-1.1-1.8-1.1-3.1v-6.8c0-1.3.4-2.4,1.1-3.1s1.8-1.1,3.2-1.1,2.5.4,3.2,1.1,1.1,1.8,1.1,3.1v6.8c0,1.3-.4,2.4-1.1,3.1s-1.7,1.1-3.2,1.1ZM120.6,382.6c.8,0,1.3-.2,1.7-.6.3-.4.5-.9.5-1.6v-6.8c0-.7-.2-1.3-.5-1.7-.3-.4-.9-.6-1.7-.6s-1.3.2-1.7.6c-.3.4-.5.9-.5,1.7v6.8c0,.7.2,1.2.5,1.6.4.4,1,.6,1.7.6Z"/>
        <path class="cls-4" d="M132.2,384.6c-1.4,0-2.5-.4-3.2-1.1-.7-.8-1.1-1.8-1.1-3.1v-6.8c0-1.3.4-2.4,1.1-3.1s1.8-1.1,3.2-1.1,2.5.4,3.2,1.1,1.1,1.8,1.1,3.1v6.8c0,1.3-.4,2.4-1.1,3.1-.7.7-1.8,1.1-3.2,1.1ZM132.2,382.6c.8,0,1.3-.2,1.7-.6.3-.4.5-.9.5-1.6v-6.8c0-.7-.2-1.3-.5-1.7-.3-.4-.9-.6-1.7-.6s-1.3.2-1.7.6c-.3.4-.5.9-.5,1.7v6.8c0,.7.2,1.2.5,1.6.4.4,1,.6,1.7.6Z"/>
      </g>
      <g>
        <path class="cls-4" d="M93.7,484.2v-1.8l5.2-6.9c.3-.4.5-.8.7-1.2.2-.4.3-.8.3-1.2h0c0-.6-.2-1.1-.5-1.4s-.8-.5-1.5-.5-1.1.2-1.5.5c-.4.4-.6.9-.7,1.5h-2.2c.2-1.3.7-2.3,1.4-3,.8-.7,1.7-1.1,2.9-1.1s2.4.3,3.1,1,1.1,1.6,1.1,2.9h0c0,.5,0,1.1-.3,1.7-.2.6-.5,1.1-.9,1.7l-4.3,5.9h5.6v2h-8.4s0-.1,0-.1Z"/>
        <path class="cls-4" d="M109.1,484.4c-1.4,0-2.5-.4-3.2-1.1-.7-.8-1.1-1.8-1.1-3.1v-6.8c0-1.3.4-2.4,1.1-3.1s1.8-1.1,3.2-1.1,2.5.4,3.2,1.1,1.1,1.8,1.1,3.1v6.8c0,1.3-.4,2.4-1.1,3.1-.8.7-1.8,1.1-3.2,1.1ZM109.1,482.4c.8,0,1.3-.2,1.7-.6.3-.4.5-.9.5-1.6v-6.8c0-.7-.2-1.3-.5-1.7-.3-.4-.9-.6-1.7-.6s-1.3.2-1.7.6c-.3.4-.5.9-.5,1.7v6.8c0,.7.2,1.2.5,1.6s.9.6,1.7.6Z"/>
        <path class="cls-4" d="M120.6,484.4c-1.4,0-2.5-.4-3.2-1.1-.7-.8-1.1-1.8-1.1-3.1v-6.8c0-1.3.4-2.4,1.1-3.1s1.8-1.1,3.2-1.1,2.5.4,3.2,1.1,1.1,1.8,1.1,3.1v6.8c0,1.3-.4,2.4-1.1,3.1s-1.7,1.1-3.2,1.1ZM120.6,482.4c.8,0,1.3-.2,1.7-.6.3-.4.5-.9.5-1.6v-6.8c0-.7-.2-1.3-.5-1.7-.3-.4-.9-.6-1.7-.6s-1.3.2-1.7.6c-.3.4-.5.9-.5,1.7v6.8c0,.7.2,1.2.5,1.6.4.4,1,.6,1.7.6Z"/>
        <path class="cls-4" d="M132.2,484.4c-1.4,0-2.5-.4-3.2-1.1-.7-.8-1.1-1.8-1.1-3.1v-6.8c0-1.3.4-2.4,1.1-3.1s1.8-1.1,3.2-1.1,2.5.4,3.2,1.1,1.1,1.8,1.1,3.1v6.8c0,1.3-.4,2.4-1.1,3.1-.7.7-1.8,1.1-3.2,1.1ZM132.2,482.4c.8,0,1.3-.2,1.7-.6.3-.4.5-.9.5-1.6v-6.8c0-.7-.2-1.3-.5-1.7-.3-.4-.9-.6-1.7-.6s-1.3.2-1.7.6c-.3.4-.5.9-.5,1.7v6.8c0,.7.2,1.2.5,1.6.4.4,1,.6,1.7.6Z"/>
      </g>
      <path class="cls-4" d="M132.2,584.1c-1.4,0-2.5-.4-3.2-1.1-.7-.8-1.1-1.8-1.1-3.1v-6.9c0-1.3.4-2.4,1.1-3.1s1.8-1.1,3.2-1.1,2.5.4,3.2,1.1c.7.7,1.1,1.8,1.1,3.1v6.8c0,1.3-.4,2.4-1.1,3.1-.7.8-1.8,1.2-3.2,1.2ZM132.2,582.1c.8,0,1.3-.2,1.7-.6.3-.4.5-.9.5-1.6v-6.9c0-.7-.2-1.3-.5-1.7s-.9-.6-1.7-.6-1.3.2-1.7.6c-.3.4-.5.9-.5,1.7v6.8c0,.7.2,1.2.5,1.6.4.5,1,.7,1.7.7Z"/>
      <g>
        <path class="cls-4" d="M90.7,43.1h4.9v2.5c0,1.1-.2,2-.6,2.8s-1,1.4-1.7,1.9-1.6.7-2.6.7-1.9-.2-2.6-.6-1.3-1-1.8-1.7-.6-1.6-.6-2.6v-4.2c0-1.1.2-2,.6-2.8s1-1.4,1.7-1.9,1.6-.7,2.6-.7,1.6.2,2.3.5,1.3.8,1.7,1.5.8,1.4.9,2.2h-2.2c-.2-.7-.5-1.3-1.1-1.7s-1.1-.6-1.7-.6c-.9,0-1.6.3-2.1.9s-.8,1.4-.8,2.4v4.2c0,.9.3,1.7.8,2.2s1.3.8,2.2.8,1.6-.3,2.1-.9.8-1.4.8-2.5v-.5h-2.9v-1.9h0Z"/>
        <path class="cls-4" d="M102.8,50.9c-1.4,0-2.5-.4-3.3-1.2s-1.2-1.9-1.2-3.4v-1.1c0-1.5.4-2.7,1.1-3.5s1.8-1.2,3.1-1.2,2.3.5,3,1.4,1,2.3,1,3.9v.7h-6.7v-1.6h4.9c0-.8-.3-1.5-.6-1.9s-.9-.7-1.5-.7-1.3.2-1.7.7-.6,1.2-.6,2.1v1.3c0,.8.2,1.5.7,1.9s1.1.7,1.9.7.8,0,1.2-.2.8-.4,1.1-.7l1.3,1.3c-.5.5-1.1.9-1.7,1.1s-1.4.4-2,.4Z"/>
        <path class="cls-4" d="M113.5,50.9c-1.4,0-2.5-.4-3.3-1.2s-1.2-1.9-1.2-3.4v-1.1c0-1.5.4-2.7,1.1-3.5s1.8-1.2,3.1-1.2,2.3.5,3,1.4,1,2.3,1,3.9v.7h-6.8v-1.6h4.9c0-.8-.3-1.5-.6-1.9s-.9-.7-1.5-.7-1.3.2-1.7.7-.6,1.2-.6,2.1v1.3c0,.8.2,1.5.7,1.9s1.1.7,1.9.7.8,0,1.2-.2.8-.4,1.1-.7l1.3,1.3c-.5.5-1.1.9-1.7,1.1s-1.3.4-1.9.4Z"/>
        <path class="cls-4" d="M120.1,50.7v-14.2h2v14.2h-2ZM120.8,49.2v-2.4c0,0,5.3-6.3,5.3-6.3h2.3s-7.6,8.7-7.6,8.7ZM126.8,50.7l-3.5-5.8,1.3-1.3,4.4,7.2h-2.2Z"/>
        <path class="cls-4" d="M130.6,50.7v-14.2h2v14.2h-2ZM135.2,50.9c-.6,0-1.2-.2-1.7-.5s-.8-.7-1-1.3v-2.1c.1.4.2.8.3,1.1s.4.5.7.7.7.2,1.1.2c.7,0,1.2-.2,1.5-.6s.5-1,.5-1.7v-2.2c0-.7-.2-1.3-.5-1.7s-.9-.6-1.5-.6-.8,0-1.1.2-.5.4-.7.7-.2.7-.2,1.1l-.2-2c.3-.6.7-1,1.2-1.4s1-.5,1.7-.5c1.1,0,1.9.4,2.5,1.1s.9,1.7.9,3.1v2.2c0,1.3-.3,2.3-.9,3s-1.5,1.2-2.6,1.2Z"/>
        <path class="cls-4" d="M145.7,50.9c-1.4,0-2.5-.4-3.3-1.2s-1.2-1.9-1.2-3.4v-1.1c0-1.5.4-2.7,1.1-3.5s1.8-1.2,3.1-1.2,2.3.5,3,1.4,1,2.3,1,3.9v.7h-6.8v-1.6h4.9c-.1-.8-.3-1.5-.6-1.9s-.9-.7-1.5-.7-1.3.2-1.7.7-.6,1.2-.6,2.1v1.3c0,.8.2,1.5.7,1.9s1.1.7,1.9.7.8,0,1.2-.2.8-.4,1.1-.7l1.3,1.3c-.5.5-1.1.9-1.7,1.1s-1.3.4-1.9.4Z"/>
        <path class="cls-4" d="M152.2,50.7v-10.1h2v10.1s-2,0-2,0ZM158.4,50.7v-6.1c0-.7-.2-1.3-.6-1.7s-.9-.6-1.6-.6-1.2.2-1.5.5-.5.8-.5,1.5l-.2-2c.3-.6.7-1.1,1.2-1.4s1.1-.5,1.7-.5c1.1,0,2,.4,2.6,1.1s.9,1.7.9,3.1v6.2h-2,0Z"/>
        <path class="cls-4" d="M167.5,50.9c-1.4,0-2.5-.4-3.2-1.2s-1.1-1.9-1.1-3.3v-1.7c0-1.4.4-2.5,1.1-3.2s1.8-1.1,3.2-1.1,1.5,0,2.1.4,1.1.7,1.5,1.2l-1.4,1.3c-.3-.3-.6-.6-1-.8s-.8-.3-1.2-.3c-.8,0-1.4.2-1.8.6s-.6,1-.6,1.8v1.7c0,.8.2,1.4.6,1.9s1,.7,1.8.7.8,0,1.2-.3.7-.5,1-.8l1.4,1.4c-.4.5-.9.9-1.5,1.2s-1.3.5-2.1.5Z"/>
        <path class="cls-4" d="M173.4,50.7v-14.2h2v14.2h-2ZM179.5,50.7v-6.1c0-.7-.2-1.3-.6-1.7s-.9-.6-1.6-.6-1.2.2-1.5.5-.5.8-.5,1.4l-.2-2c.3-.6.7-1.1,1.2-1.4s1.1-.5,1.7-.5c1.1,0,2,.4,2.6,1.1s.9,1.7.9,3.1v6.2h-2,0Z"/>
        <path class="cls-4" d="M223.2,43v1.6c-1.2,1.5-2.5,2.8-3.8,3.8s-3,1.8-4.9,2.4c-2,.6-4.4,1.1-7.4,1.3l-.9-1.7c2.7-.2,5-.6,6.9-1.1,1.8-.5,3.3-1.1,4.5-1.9,1.2-.8,2.2-1.7,3.1-2.9h-6.2c-.2.2-.7.5-1.4,1,1.2.7,2,1.1,2.5,1.4l-1.3,1.3-2.9-1.8c-1,.6-2.2,1.1-3.5,1.7l-1-1.5c1.8-.7,3.4-1.5,4.9-2.4s2.8-1.9,3.8-2.9c-2.4,1.1-5.3,1.9-8.7,2.6l-.8-1.6c2.9-.5,5.5-1.2,7.7-2.1,2.2-.9,4-1.9,5.6-3.2h-6.7c-.4.3-.7.5-.8.6l2.4,1.3-1.2,1.2c-.9-.5-1.8-1-2.7-1.5-.8.5-1.7.9-2.6,1.3l-1-1.4c1.5-.7,2.9-1.5,4.2-2.3,1.3-.9,2.5-1.8,3.4-2.7l1.7.7c-.4.4-.8.8-1.2,1.3h7.4v1.7c-1.7,1.5-3.6,2.8-5.8,3.9l1.3.7c-.5.5-.9.9-1.3,1.3h6.7Z"/>
        <path class="cls-4" d="M231.3,45.1c-.4-.7-.9-1.4-1.4-2.1v9.4h-1.8v-9.1c-.6,1.5-1.3,3-2.1,4.4l-.9-1.8c1.3-2.2,2.2-4.3,2.9-6.3h-2.2v-1.8h2.4v-3.6h1.8v3.6h2.1v1.8h-2.1v1.1c.6.7,1.4,1.6,2.3,2.7l.3.4s-1.3,1.3-1.3,1.3ZM241.8,39.7c-1.2,1.9-2.5,3.6-3.9,5-1.5,1.4-3.2,2.7-5.3,3.8l-1-1.5c1.2-.7,2.3-1.3,3.2-2s1.7-1.4,2.4-2.1c-1.3.2-2.2.4-2.8.5-.2,0-.7,0-1.3.2l-.5-1.6c.3,0,.4-.2.6-.2s.2-.2.3-.3c.3-.3.6-.8,1-1.4s.8-1.2,1.1-1.8h-3.2v-1.7h4.7c-.4-1-.7-1.8-.9-2.2l1.9-.5c.4.9.7,1.8,1,2.7h4.6v1.7h-6c-.4.7-.8,1.3-1.2,2s-.8,1.2-1.1,1.5l3.3-.5c.5-.6,1-1.4,1.6-2.4l1.5.8h0ZM242.5,52.4c-1.3-1.2-2.6-2.3-4-3.5-1.5,1.2-3.3,2.4-5.6,3.4l-1.1-1.6c1.6-.7,3-1.4,4.1-2.2,1.1-.7,2.2-1.5,3.1-2.4.9-.9,1.8-2,2.7-3.3l1.4.9c-1.1,1.7-2.2,3-3.3,4.1,1.3,1,2.6,2,3.9,3l-1.2,1.6h0Z"/>
        <path class="cls-4" d="M252.2,38.5c.6-1.6,1.5-2.9,2.6-4h2c-1.1,1.3-1.9,2.7-2.5,4.2s-.9,3.2-.9,5,.3,3.6.9,5.1,1.4,2.9,2.5,4.2h-2c-1.1-1.1-2-2.5-2.6-4-.6-1.6-.9-3.3-.9-5.2s.3-3.8.9-5.3h0Z"/>
        <path class="cls-4" d="M275.5,43.4c-.9-.6-1.8-1.2-2.6-1.9-.1,2.4-.3,4.9-.7,7.4-.1.7-.3,1.3-.5,1.7s-.6.7-1,.9-1,.3-1.8.3h-3.1l-.4-1.8c.9,0,1.9.2,2.8.2h1.1c.3,0,.4-.3.6-.5s.2-.6.3-1.1c.1-.7.2-1.6.3-2.5.1-.9.1-1.7.2-2.3h-5.4v1c-.2,1.3-.4,2.3-.8,3.2-.3.9-.9,1.7-1.7,2.5-.8.8-1.9,1.6-3.4,2.4l-1.3-1.6c1.3-.7,2.3-1.3,3-1.9.7-.6,1.2-1.3,1.5-2s.5-1.6.6-2.6v-1c.1,0-2.4,0-2.4,0v-1.6c-.6.6-1.3,1.1-1.9,1.6l-1.1-1.7c1.4-1,2.7-2.1,3.8-3.4,1.1-1.3,2-2.7,2.6-4.2l1.8.7c-.6,1.3-1.3,2.6-2.1,3.7-.8,1.1-1.7,2.2-2.8,3.2h11.8c-1.1-.9-2-2-2.7-3.1s-1.4-2.5-1.9-4l1.8-.6c.6,1.8,1.5,3.3,2.5,4.5s2.4,2.3,4.1,3.4l-1.2,1.3v-.2Z"/>
        <path class="cls-4" d="M282,48.9c-.6,1.6-1.5,2.9-2.6,4h-2c1.1-1.3,1.9-2.7,2.5-4.2s.9-3.2.9-5.1-.3-3.5-.9-5-1.4-2.9-2.5-4.2h2c1.1,1.1,2,2.5,2.6,4,.6,1.6.9,3.3.9,5.2.1,2-.2,3.7-.9,5.3Z"/>
        <path class="cls-4" d="M193.7,50.9c-1.3,0-2.2-.4-2.9-1.1-.7-.7-1-1.8-1-3.2h0c0-.6.1-1.3.3-1.9s.4-1.3.7-2l3.1-6.1h2.1l-3.6,7.1v-.4c.3-.6.9-1,1.8-1s2,.4,2.6,1.1c.6.7.9,1.8.9,3.1h0c0,1.4-.3,2.4-1,3.2s-1.7,1.2-3,1.2h0ZM193.7,49c.6,0,1.1-.2,1.5-.6s.5-.9.5-1.7h0c0-.8-.2-1.4-.5-1.8-.4-.4-.9-.6-1.5-.6s-1,.2-1.4.7c-.3.4-.5,1-.5,1.8h0c0,.7.2,1.3.5,1.7.3.3.8.5,1.4.5Z"/>
      </g>
      <g>
        <path class="cls-4" d="M870.4,585.5v15h-2.1v-12.7l-2.1,1.3v-2.2l2.1-1.4h2.1Z"/>
        <path class="cls-4" d="M878.2,600.6c-.9,0-1.7-.2-2.4-.5-.7-.3-1.2-.8-1.6-1.5-.4-.6-.6-1.4-.6-2.2v-.2c0-.7.2-1.5.6-2.1.4-.7.9-1.2,1.5-1.5-.5-.3-.9-.7-1.3-1.3-.3-.5-.5-1.1-.5-1.7v-.4c0-1.2.4-2.1,1.2-2.9.8-.7,1.8-1.1,3.1-1.1s2.3.4,3.1,1.1c.8.7,1.2,1.7,1.2,2.9v.4c0,.6-.2,1.2-.5,1.7s-.8,1-1.3,1.2c.6.3,1.1.8,1.5,1.5s.6,1.4.6,2.1v.2c0,.8-.2,1.6-.6,2.2-.4.6-.9,1.1-1.6,1.5-.6.5-1.4.6-2.4.6h0ZM878.2,598.6c.7,0,1.3-.2,1.8-.6.4-.4.7-1,.7-1.7h0c0-.8-.2-1.4-.7-1.8s-1-.6-1.8-.6-1.3.2-1.8.6-.7,1-.7,1.7v.2c0,.7.2,1.2.7,1.7.5.3,1.1.5,1.8.5h0ZM878.2,591.8c.6,0,1.2-.2,1.5-.6.4-.4.6-.9.6-1.6h0c0-.7-.2-1.3-.6-1.6s-.9-.6-1.5-.6-1.2.2-1.5.6c-.4.4-.6.9-.6,1.6v.2c0,.7.2,1.2.6,1.6.4.2.9.4,1.5.4h0Z"/>
      </g>
      <g>
        <path class="cls-4" d="M90.8,70.3v15h-2.1v-12.7l-2.1,1.3v-2.2l2.1-1.4s2.1,0,2.1,0Z"/>
        <path class="cls-4" d="M98.5,85.4c-1.4,0-2.5-.4-3.2-1.1-.7-.8-1.1-1.8-1.1-3.1v-6.8c0-1.3.4-2.4,1.1-3.1.7-.8,1.8-1.1,3.2-1.1s2.5.4,3.2,1.1c.7.8,1.1,1.8,1.1,3.1v6.8c0,1.3-.4,2.4-1.1,3.1-.7.8-1.8,1.1-3.2,1.1ZM98.5,83.4c.8,0,1.3-.2,1.7-.6.3-.4.5-1,.5-1.7v-6.8c0-.7-.2-1.3-.5-1.7-.3-.4-.9-.6-1.7-.6s-1.3.2-1.7.6c-.3.4-.5,1-.5,1.7v6.8c0,.7.2,1.3.5,1.7.3.4.9.6,1.7.6Z"/>
        <path class="cls-4" d="M109.7,85.4c-1.4,0-2.5-.4-3.2-1.1-.7-.8-1.1-1.8-1.1-3.1v-6.8c0-1.3.4-2.4,1.1-3.1.7-.8,1.8-1.1,3.2-1.1s2.5.4,3.2,1.1c.7.8,1.1,1.8,1.1,3.1v6.8c0,1.3-.4,2.4-1.1,3.1-.7.8-1.8,1.1-3.2,1.1ZM109.7,83.4c.8,0,1.3-.2,1.7-.6.3-.4.5-1,.5-1.7v-6.8c0-.7-.2-1.3-.5-1.7-.3-.4-.9-.6-1.7-.6s-1.3.2-1.7.6c-.3.4-.5,1-.5,1.7v6.8c0,.7.2,1.3.5,1.7.3.4.9.6,1.7.6Z"/>
        <path class="cls-4" d="M121,85.4c-1.4,0-2.5-.4-3.2-1.1-.7-.8-1.1-1.8-1.1-3.1v-6.8c0-1.3.4-2.4,1.1-3.1.7-.8,1.8-1.1,3.2-1.1s2.5.4,3.2,1.1c.7.8,1.1,1.8,1.1,3.1v6.8c0,1.3-.4,2.4-1.1,3.1-.7.8-1.8,1.1-3.2,1.1ZM121,83.4c.8,0,1.3-.2,1.7-.6.3-.4.5-1,.5-1.7v-6.8c0-.7-.2-1.3-.5-1.7-.3-.4-.9-.6-1.7-.6s-1.3.2-1.7.6c-.3.4-.5,1-.5,1.7v6.8c0,.7.2,1.3.5,1.7.3.4.9.6,1.7.6Z"/>
        <path class="cls-4" d="M132.2,85.4c-1.4,0-2.5-.4-3.2-1.1-.7-.8-1.1-1.8-1.1-3.1v-6.8c0-1.3.4-2.4,1.1-3.1.7-.8,1.8-1.1,3.2-1.1s2.5.4,3.2,1.1c.7.8,1.1,1.8,1.1,3.1v6.8c0,1.3-.4,2.4-1.1,3.1-.7.8-1.8,1.1-3.2,1.1ZM132.2,83.4c.8,0,1.3-.2,1.7-.6.3-.4.5-1,.5-1.7v-6.8c0-.7-.2-1.3-.5-1.7-.3-.4-.9-.6-1.7-.6s-1.3.2-1.7.6c-.3.4-.5,1-.5,1.7v6.8c0,.7.2,1.3.5,1.7.3.4.9.6,1.7.6Z"/>
      </g>
      <g>
        <path class="cls-4" d="M945.7,600.3v-2.2l5.2-6.8c.3-.3.5-.7.6-1.1.1-.4.2-.7.2-1h0c0-.5-.2-.9-.5-1.2-.3-.3-.7-.4-1.3-.4s-1,.2-1.3.5c-.3.3-.5.8-.6,1.4h0s-2.5,0-2.5,0h0c.1-1.4.6-2.4,1.4-3.2.8-.7,1.8-1.1,3-1.1s2.4.3,3.2,1,1.1,1.6,1.1,2.9h0c0,.6-.1,1.2-.3,1.8-.2.6-.5,1.2-.9,1.7l-4,5.2h5.4v2.3h-8.6Z"/>
        <path class="cls-4" d="M961.1,600.5c-1.4,0-2.5-.4-3.3-1.1-.7-.8-1.1-1.8-1.1-3.1v-6.8c0-1.3.4-2.4,1.1-3.1.7-.8,1.8-1.1,3.3-1.1s2.5.4,3.3,1.1c.7.7,1.1,1.8,1.1,3.1v6.8c0,1.3-.4,2.4-1.1,3.1-.7.8-1.8,1.1-3.3,1.1ZM961.1,598.1c.7,0,1.2-.2,1.5-.6.3-.4.4-.9.4-1.6v-6.1c0-.7-.1-1.3-.4-1.7-.3-.4-.8-.6-1.5-.6s-1.2.2-1.5.6c-.3.4-.4.9-.4,1.7v6.1c0,.7.1,1.2.4,1.6.3.4.8.6,1.5.6Z"/>
      </g>
      <g>
        <path class="cls-4" d="M1027.2,600.3v-2.2l5.2-6.8c.3-.3.5-.7.6-1.1.1-.4.2-.7.2-1h0c0-.5-.2-.9-.5-1.2-.3-.3-.7-.4-1.3-.4s-1,.2-1.3.5c-.3.3-.5.8-.6,1.4h0s-2.5,0-2.5,0h0c.1-1.4.6-2.4,1.4-3.2.8-.7,1.8-1.1,3-1.1s2.4.3,3.2,1,1.1,1.6,1.1,2.9h0c0,.6-.1,1.2-.3,1.8-.2.6-.5,1.2-.9,1.7l-4,5.2h5.4v2.3h-8.6Z"/>
        <path class="cls-4" d="M1038.1,600.3v-2.2l5.2-6.8c.3-.3.5-.7.6-1.1.1-.4.2-.7.2-1h0c0-.5-.2-.9-.5-1.2-.3-.3-.7-.4-1.3-.4s-1,.2-1.3.5c-.3.3-.5.8-.6,1.4h0s-2.5,0-2.5,0h0c.1-1.4.6-2.4,1.4-3.2.8-.7,1.8-1.1,3-1.1s2.4.3,3.2,1,1.1,1.6,1.1,2.9h0c0,.6-.1,1.2-.3,1.8-.2.6-.5,1.2-.9,1.7l-4,5.2h5.4v2.3h-8.6Z"/>
      </g>
    </g>
  </g>
</svg>