<svg viewBox="0 0 1438 1521" xmlns="http://www.w3.org/2000/svg" xmlns:xlink="http://www.w3.org/1999/xlink" xml:space="preserve" overflow="hidden"><defs><clipPath id="clip0"><rect x="5791" y="2139" width="1438" height="1521"/></clipPath><clipPath id="clip1"><rect x="5821" y="2215" width="1405" height="1373"/></clipPath><clipPath id="clip2"><rect x="5821" y="2215" width="1405" height="1373"/></clipPath><clipPath id="clip3"><rect x="5821" y="2215" width="1405" height="1373"/></clipPath><clipPath id="clip4"><rect x="5821" y="2215" width="1405" height="1373"/></clipPath><clipPath id="clip5"><rect x="5821" y="2215" width="1405" height="1373"/></clipPath><clipPath id="clip6"><rect x="5821" y="2215" width="1405" height="1373"/></clipPath><clipPath id="clip7"><rect x="5821" y="2215" width="1405" height="1373"/></clipPath><clipPath id="clip8"><rect x="5821" y="2215" width="1405" height="1373"/></clipPath><clipPath id="clip9"><rect x="5821" y="2215" width="1405" height="1373"/></clipPath><clipPath id="clip10"><rect x="5821" y="2215" width="1405" height="1373"/></clipPath><clipPath id="clip11"><rect x="5821" y="2215" width="1405" height="1373"/></clipPath><clipPath id="clip12"><rect x="5821" y="2215" width="1405" height="1373"/></clipPath><clipPath id="clip13"><rect x="5821" y="2215" width="1405" height="1373"/></clipPath><clipPath id="clip14"><rect x="5821" y="2215" width="1405" height="1373"/></clipPath><clipPath id="clip15"><rect x="5821" y="2215" width="1405" height="1373"/></clipPath><clipPath id="clip16"><rect x="5821" y="2215" width="1405" height="1373"/></clipPath><clipPath id="clip17"><rect x="5821" y="2215" width="1405" height="1373"/></clipPath><clipPath id="clip18"><rect x="5821" y="2215" width="1405" height="1373"/></clipPath><clipPath id="clip19"><rect x="5821" y="2215" width="1405" height="1373"/></clipPath><clipPath id="clip20"><rect x="5821" y="2215" width="1405" height="1373"/></clipPath><clipPath id="clip21"><rect x="5821" y="2215" width="1405" height="1373"/></clipPath><clipPath id="clip22"><rect x="5821" y="2215" width="1405" height="1373"/></clipPath><clipPath id="clip23"><rect x="5821" y="2215" width="1405" height="1373"/></clipPath><clipPath id="clip24"><rect x="5821" y="2215" width="1405" height="1373"/></clipPath><clipPath id="clip25"><rect x="5821" y="2215" width="1405" height="1373"/></clipPath><clipPath id="clip26"><rect x="5821" y="2215" width="1405" height="1373"/></clipPath><clipPath id="clip27"><rect x="5821" y="2215" width="1405" height="1373"/></clipPath><clipPath id="clip28"><rect x="6079" y="2139" width="278" height="101"/></clipPath><clipPath id="clip29"><rect x="6079" y="2139" width="278" height="101"/></clipPath><clipPath id="clip30"><rect x="6079" y="2139" width="278" height="101"/></clipPath></defs><g clip-path="url(#clip0)" transform="translate(-5791 -2139)"><g clip-path="url(#clip1)"><path d="M5917.5 3411.61 7174.5 3411.61M5917.5 3280.61 7174.5 3280.61M5917.5 3149.6 7174.5 3149.6M5917.5 3017.6 7174.5 3017.6M5917.5 2886.59 7174.5 2886.59M5917.5 2754.59 7174.5 2754.59M5917.5 2623.59 7174.5 2623.59M5917.5 2492.58 7174.5 2492.58M5917.5 2360.58 7174.5 2360.58M5917.5 2229.5 7174.5 2229.5" stroke="#D9D9D9" stroke-width="1.14583" stroke-linejoin="round" stroke-miterlimit="10" stroke-opacity="0.4" fill="none"/></g><g clip-path="url(#clip2)"><path d="M6031.7 2229.5 6031.7 3543.5M6145.7 2229.5 6145.7 3543.5M6260.71 2229.5 6260.71 3543.5M6374.71 2229.5 6374.71 3543.5M6488.71 2229.5 6488.71 3543.5M6602.72 2229.5 6602.72 3543.5M6716.72 2229.5 6716.72 3543.5M6831.72 2229.5 6831.72 3543.5M6945.73 2229.5 6945.73 3543.5M7059.73 2229.5 7059.73 3543.5M7174.5 2229.5 7174.5 3543.5" stroke="#D9D9D9" stroke-width="1.14583" stroke-linejoin="round" stroke-miterlimit="10" stroke-opacity="0.4" fill="none"/></g><g clip-path="url(#clip3)"><path d="M0 0 0.000360892 1314" stroke="#BFBFBF" stroke-width="3.4375" stroke-linejoin="round" stroke-miterlimit="10" fill="none" fill-rule="evenodd" transform="matrix(1 0 0 -1 5917.5 3543.5)"/></g><g clip-path="url(#clip4)"><path d="M5917.5 3543.5 7174.5 3543.5" stroke="#BFBFBF" stroke-width="3.4375" stroke-linejoin="round" stroke-miterlimit="10" fill="none" fill-rule="evenodd"/></g><g clip-path="url(#clip5)"><text fill="#BFBFBF" font-family="Bahnschrift,Bahnschrift_MSFontService,sans-serif" font-weight="400" font-size="21" transform="matrix(1 0 0 1 5887.16 3551)">0</text></g><g clip-path="url(#clip6)"><text fill="#BFBFBF" font-family="Bahnschrift,Bahnschrift_MSFontService,sans-serif" font-weight="400" font-size="21" transform="matrix(1 0 0 1 5853.88 3420)">2500</text></g><g clip-path="url(#clip7)"><text fill="#BFBFBF" font-family="Bahnschrift,Bahnschrift_MSFontService,sans-serif" font-weight="400" font-size="21" transform="matrix(1 0 0 1 5853.15 3288)">5000</text></g><g clip-path="url(#clip8)"><text fill="#BFBFBF" font-family="Bahnschrift,Bahnschrift_MSFontService,sans-serif" font-weight="400" font-size="21" transform="matrix(1 0 0 1 5854.16 3157)">7500</text></g><g clip-path="url(#clip9)"><text fill="#BFBFBF" font-family="Bahnschrift,Bahnschrift_MSFontService,sans-serif" font-weight="400" font-size="21" transform="matrix(1 0 0 1 5846.14 3025)">10000</text></g><g clip-path="url(#clip10)"><text fill="#BFBFBF" font-family="Bahnschrift,Bahnschrift_MSFontService,sans-serif" font-weight="400" font-size="21" transform="matrix(1 0 0 1 5847.03 2894)">12500</text></g><g clip-path="url(#clip11)"><text fill="#BFBFBF" font-family="Bahnschrift,Bahnschrift_MSFontService,sans-serif" font-weight="400" font-size="21" transform="matrix(1 0 0 1 5846.3 2763)">15000</text></g><g clip-path="url(#clip12)"><text fill="#BFBFBF" font-family="Bahnschrift,Bahnschrift_MSFontService,sans-serif" font-weight="400" font-size="21" transform="matrix(1 0 0 1 5847.3 2631)">17500</text></g><g clip-path="url(#clip13)"><text fill="#BFBFBF" font-family="Bahnschrift,Bahnschrift_MSFontService,sans-serif" font-weight="400" font-size="21" transform="matrix(1 0 0 1 5842.33 2500)">20000</text></g><g clip-path="url(#clip14)"><text fill="#BFBFBF" font-family="Bahnschrift,Bahnschrift_MSFontService,sans-serif" font-weight="400" font-size="21" transform="matrix(1 0 0 1 5843.23 2368)">22500</text></g><g clip-path="url(#clip15)"><text fill="#BFBFBF" font-family="Bahnschrift,Bahnschrift_MSFontService,sans-serif" font-weight="400" font-size="21" transform="matrix(1 0 0 1 5842.49 2237)">25000</text></g><g clip-path="url(#clip16)"><text fill="#BFBFBF" font-family="Bahnschrift,Bahnschrift_MSFontService,sans-serif" font-weight="400" font-size="21" transform="matrix(1 0 0 1 5912.06 3578)">0</text></g><g clip-path="url(#clip17)"><text fill="#BFBFBF" font-family="Bahnschrift,Bahnschrift_MSFontService,sans-serif" font-weight="400" font-size="21" transform="matrix(1 0 0 1 6020.94 3578)">20</text></g><g clip-path="url(#clip18)"><text fill="#BFBFBF" font-family="Bahnschrift,Bahnschrift_MSFontService,sans-serif" font-weight="400" font-size="21" transform="matrix(1 0 0 1 6134.61 3578)">40</text></g><g clip-path="url(#clip19)"><text fill="#BFBFBF" font-family="Bahnschrift,Bahnschrift_MSFontService,sans-serif" font-weight="400" font-size="21" transform="matrix(1 0 0 1 6249.39 3578)">60</text></g><g clip-path="url(#clip20)"><text fill="#BFBFBF" font-family="Bahnschrift,Bahnschrift_MSFontService,sans-serif" font-weight="400" font-size="21" transform="matrix(1 0 0 1 6363.09 3578)">80</text></g><g clip-path="url(#clip21)"><text fill="#BFBFBF" font-family="Bahnschrift,Bahnschrift_MSFontService,sans-serif" font-weight="400" font-size="21" transform="matrix(1 0 0 1 6473.97 3578)">100</text></g><g clip-path="url(#clip22)"><text fill="#BFBFBF" font-family="Bahnschrift,Bahnschrift_MSFontService,sans-serif" font-weight="400" font-size="21" transform="matrix(1 0 0 1 6588.54 3578)">120</text></g><g clip-path="url(#clip23)"><text fill="#BFBFBF" font-family="Bahnschrift,Bahnschrift_MSFontService,sans-serif" font-weight="400" font-size="21" transform="matrix(1 0 0 1 6702.21 3578)">140</text></g><g clip-path="url(#clip24)"><text fill="#BFBFBF" font-family="Bahnschrift,Bahnschrift_MSFontService,sans-serif" font-weight="400" font-size="21" transform="matrix(1 0 0 1 6816.99 3578)">160</text></g><g clip-path="url(#clip25)"><text fill="#BFBFBF" font-family="Bahnschrift,Bahnschrift_MSFontService,sans-serif" font-weight="400" font-size="21" transform="matrix(1 0 0 1 6930.69 3578)">180</text></g><g clip-path="url(#clip26)"><text fill="#BFBFBF" font-family="Bahnschrift,Bahnschrift_MSFontService,sans-serif" font-weight="400" font-size="21" transform="matrix(1 0 0 1 7043.09 3578)">200</text></g><g clip-path="url(#clip27)"><text fill="#BFBFBF" font-family="Bahnschrift,Bahnschrift_MSFontService,sans-serif" font-weight="400" font-size="21" transform="matrix(1 0 0 1 7157.67 3578)">220</text></g><text fill="#BFBFBF" font-family="Bahnschrift,Bahnschrift_MSFontService,sans-serif" font-weight="700" font-size="37" transform="matrix(1 0 0 1 5823.96 2196)">3DMark Time Spy / 图形分 </text><text fill="#BFBFBF" font-family="Bahnschrift,Bahnschrift_MSFontService,sans-serif" font-weight="700" font-size="37" transform="matrix(1 0 0 1 7081.38 3627)">TGP/W</text><g clip-path="url(#clip28)"></g></g></svg>