<svg viewBox="3 0 1450 1540" xmlns="http://www.w3.org/2000/svg" xmlns:xlink="http://www.w3.org/1999/xlink" xml:space="preserve" overflow="hidden"><defs><clipPath id="clip0"><rect x="5484" y="481" width="1438" height="1539"/></clipPath><clipPath id="clip1"><rect x="5512" y="555" width="1405" height="1393"/></clipPath><clipPath id="clip2"><rect x="5512" y="555" width="1405" height="1393"/></clipPath></defs><g clip-path="url(#clip0)" transform="translate(-5484 -481)"><g clip-path="url(#clip1)"><path d="M6771.52 1534.75C6771.52 1537.24 6769.51 1539.25 6767.02 1539.25 6764.54 1539.25 6762.52 1537.24 6762.52 1534.75 6762.52 1532.27 6764.54 1530.25 6767.02 1530.25 6769.51 1530.25 6771.52 1532.27 6771.52 1534.75Z" fill="#C00000"/></g><g clip-path="url(#clip2)"><path d="M6844.63 1536.2C6844.19 1536.2 6843.84 1536.34 6843.57 1536.61 6843.3 1536.88 6843.17 1537.24 6843.17 1537.69 6843.17 1538.14 6843.31 1538.5 6843.58 1538.76 6843.85 1539.03 6844.2 1539.16 6844.63 1539.16 6845.03 1539.16 6845.36 1539.03 6845.63 1538.76 6845.89 1538.5 6846.02 1538.14 6846.02 1537.69 6846.02 1537.24 6845.89 1536.88 6845.64 1536.61 6845.39 1536.34 6845.05 1536.2 6844.63 1536.2ZM6854.59 1531.95C6854.11 1531.95 6853.76 1532.24 6853.53 1532.81 6853.3 1533.39 6853.19 1534.29 6853.19 1535.52 6853.19 1536.72 6853.3 1537.62 6853.53 1538.2 6853.76 1538.79 6854.11 1539.08 6854.59 1539.08 6855.06 1539.08 6855.41 1538.79 6855.63 1538.2 6855.86 1537.6 6855.97 1536.71 6855.97 1535.52 6855.97 1534.32 6855.86 1533.43 6855.63 1532.84 6855.41 1532.24 6855.06 1531.95 6854.59 1531.95ZM6834.59 1531.95C6834.11 1531.95 6833.76 1532.24 6833.53 1532.81 6833.3 1533.39 6833.19 1534.29 6833.19 1535.52 6833.19 1536.72 6833.3 1537.62 6833.53 1538.2 6833.76 1538.79 6834.11 1539.08 6834.59 1539.08 6835.06 1539.08 6835.41 1538.79 6835.63 1538.2 6835.86 1537.6 6835.97 1536.71 6835.97 1535.52 6835.97 1534.32 6835.86 1533.43 6835.63 1532.84 6835.41 1532.24 6835.06 1531.95 6834.59 1531.95ZM6844.63 1531.68C6844.28 1531.68 6844.01 1531.78 6843.81 1532 6843.61 1532.21 6843.51 1532.48 6843.51 1532.8 6843.51 1533.12 6843.61 1533.38 6843.81 1533.59 6844.01 1533.8 6844.28 1533.9 6844.63 1533.9 6844.96 1533.9 6845.23 1533.8 6845.44 1533.59 6845.65 1533.38 6845.76 1533.12 6845.76 1532.8 6845.76 1532.49 6845.65 1532.22 6845.44 1532 6845.23 1531.78 6844.96 1531.68 6844.63 1531.68ZM6808.91 1529.66 6812.25 1529.66 6814.67 1533.18 6817.11 1529.66 6820.27 1529.66 6816.17 1535.34 6820.47 1541.37 6817.1 1541.37 6814.49 1537.56 6811.83 1541.37 6808.7 1541.37 6813 1535.4ZM6798.78 1529.66 6808.54 1529.66 6808.54 1532.08 6805.02 1532.08 6805.02 1541.37 6802.3 1541.37 6802.3 1532.08 6798.78 1532.08ZM6825.66 1529.64 6827.8 1529.64 6827.8 1541.37 6825.03 1541.37 6825.03 1532.57 6821.99 1534.25 6821.99 1531.69ZM6854.59 1529.44C6855.96 1529.44 6857.01 1529.95 6857.75 1530.99 6858.49 1532.02 6858.87 1533.53 6858.87 1535.52 6858.87 1537.49 6858.49 1538.99 6857.75 1540.03 6857.01 1541.06 6855.96 1541.58 6854.59 1541.58 6853.23 1541.58 6852.17 1541.06 6851.42 1540.04 6850.67 1539.01 6850.29 1537.5 6850.29 1535.52 6850.29 1533.53 6850.67 1532.02 6851.42 1530.99 6852.17 1529.95 6853.23 1529.44 6854.59 1529.44ZM6834.59 1529.44C6835.96 1529.44 6837.01 1529.95 6837.75 1530.99 6838.49 1532.02 6838.87 1533.53 6838.87 1535.52 6838.87 1537.49 6838.49 1538.99 6837.75 1540.03 6837.01 1541.06 6835.96 1541.58 6834.59 1541.58 6833.23 1541.58 6832.17 1541.06 6831.42 1540.04 6830.67 1539.01 6830.29 1537.5 6830.29 1535.52 6830.29 1533.53 6830.67 1532.02 6831.42 1530.99 6832.17 1529.95 6833.23 1529.44 6834.59 1529.44ZM6793.18 1529.44C6793.96 1529.44 6794.66 1529.56 6795.3 1529.8 6795.93 1530.05 6796.46 1530.38 6796.88 1530.8 6797.3 1531.21 6797.6 1531.68 6797.77 1532.19L6795.5 1533.5C6795.27 1533 6794.96 1532.61 6794.56 1532.33 6794.16 1532.05 6793.68 1531.92 6793.13 1531.92 6792.56 1531.92 6792.05 1532.06 6791.59 1532.35 6791.13 1532.64 6790.77 1533.05 6790.51 1533.59 6790.24 1534.13 6790.11 1534.76 6790.11 1535.5 6790.11 1536.62 6790.4 1537.5 6790.99 1538.15 6791.59 1538.79 6792.38 1539.12 6793.37 1539.12 6794.12 1539.12 6794.69 1538.92 6795.08 1538.52L6795.08 1537.04 6793 1537.04 6793 1534.7 6797.74 1534.7 6797.74 1539.56C6797.36 1540.19 6796.76 1540.69 6795.94 1541.04 6795.11 1541.4 6794.2 1541.58 6793.21 1541.58 6792.05 1541.58 6791.01 1541.32 6790.11 1540.81 6789.21 1540.3 6788.51 1539.58 6788.02 1538.66 6787.52 1537.74 6787.27 1536.68 6787.27 1535.5 6787.27 1534.29 6787.53 1533.23 6788.05 1532.31 6788.57 1531.38 6789.27 1530.68 6790.17 1530.18 6791.07 1529.68 6792.07 1529.44 6793.18 1529.44ZM6844.63 1529.42C6845.46 1529.42 6846.16 1529.56 6846.73 1529.84 6847.3 1530.13 6847.73 1530.51 6848.01 1531 6848.29 1531.48 6848.43 1532.03 6848.43 1532.64 6848.43 1533.17 6848.31 1533.64 6848.07 1534.04 6847.82 1534.45 6847.47 1534.77 6847.03 1535 6847.61 1535.29 6848.07 1535.69 6848.4 1536.19 6848.73 1536.69 6848.9 1537.29 6848.9 1538 6848.9 1538.7 6848.72 1539.32 6848.38 1539.87 6848.03 1540.41 6847.53 1540.83 6846.89 1541.13 6846.24 1541.43 6845.49 1541.58 6844.63 1541.58 6843.74 1541.58 6842.97 1541.43 6842.31 1541.12 6841.66 1540.82 6841.15 1540.4 6840.8 1539.86 6840.45 1539.32 6840.27 1538.7 6840.27 1538 6840.27 1537.29 6840.44 1536.69 6840.78 1536.19 6841.11 1535.69 6841.57 1535.3 6842.16 1535.02 6841.69 1534.77 6841.33 1534.45 6841.07 1534.04 6840.8 1533.64 6840.67 1533.17 6840.67 1532.64 6840.67 1532.05 6840.83 1531.51 6841.13 1531.02 6841.43 1530.53 6841.88 1530.14 6842.48 1529.85 6843.08 1529.56 6843.79 1529.42 6844.63 1529.42Z" stroke="#000000" stroke-linejoin="round" stroke-miterlimit="10" stroke-opacity="0.54902" fill="#FFFFFF" fill-rule="evenodd"/><text fill="#000000" fill-opacity="0" font-family="Arial,Arial_MSFontService,sans-serif" font-size="12.16" x="6787.27" y="1540.06">GTX1080</text></g></g></svg>