<?xml version="1.0" encoding="utf-8" standalone="no"?>
<!DOCTYPE svg PUBLIC "-//W3C//DTD SVG 1.1//EN"
  "http://www.w3.org/Graphics/SVG/1.1/DTD/svg11.dtd">
<svg xmlns:xlink="http://www.w3.org/1999/xlink" width="1152pt" height="648pt" viewBox="0 0 1152 648" xmlns="http://www.w3.org/2000/svg" version="1.1">
 <metadata>
  <rdf:RDF xmlns:dc="http://purl.org/dc/elements/1.1/" xmlns:cc="http://creativecommons.org/ns#" xmlns:rdf="http://www.w3.org/1999/02/22-rdf-syntax-ns#">
   <cc:Work>
    <dc:type rdf:resource="http://purl.org/dc/dcmitype/StillImage"/>
    <dc:date>2024-11-15T17:08:11.519927</dc:date>
    <dc:format>image/svg+xml</dc:format>
    <dc:creator>
     <cc:Agent>
      <dc:title>Matplotlib v3.8.1, https://matplotlib.org/</dc:title>
     </cc:Agent>
    </dc:creator>
   </cc:Work>
  </rdf:RDF>
 </metadata>
 <defs>
  <style type="text/css">*{stroke-linejoin: round; stroke-linecap: butt}</style>
 </defs>
 <g id="figure_1">
  <g id="patch_1">
   <path d="M 0 648 
L 1152 648 
L 1152 0 
L 0 0 
L 0 648 
z
" style="fill: none"/>
  </g>
  <g id="axes_1">
   <g id="line2d_1">
    <path d="M 207.054 509.760794 
L 212.780545 501.745024 
L 218.507091 493.850186 
L 224.233636 486.07624 
L 229.960182 478.423064 
L 235.686727 470.890458 
L 241.413273 463.478146 
L 247.139818 456.185777 
L 252.866364 449.012931 
L 258.592909 441.95912 
L 264.319455 435.023792 
L 270.046 428.206329 
L 275.772545 421.506057 
L 281.499091 414.922243 
L 287.225636 408.454102 
L 292.952182 402.100796 
L 298.678727 395.861438 
L 304.405273 389.735096 
L 310.131818 383.720793 
L 315.858364 377.817514 
L 321.584909 372.024202 
L 327.311455 366.339766 
L 333.038 360.763082 
L 338.764545 355.292994 
L 344.491091 349.928317 
L 350.217636 344.667841 
L 355.944182 339.510331 
L 361.670727 334.454528 
L 367.397273 329.499155 
L 373.123818 324.642918 
L 378.850364 319.884504 
L 384.576909 315.222588 
L 390.303455 310.655831 
L 396.03 306.182886 
L 401.756545 301.802395 
L 407.483091 297.512992 
L 413.209636 293.313308 
L 418.936182 289.201968 
L 424.662727 285.177594 
L 430.389273 281.238807 
L 436.115818 277.384229 
L 441.842364 273.612483 
L 447.568909 269.922192 
L 453.295455 266.311984 
L 459.022 262.780493 
L 464.748545 259.326357 
L 470.475091 255.948221 
L 476.201636 252.644736 
L 481.928182 249.414564 
L 487.654727 246.256374 
L 493.381273 243.168845 
L 499.107818 240.150667 
L 504.834364 237.200541 
L 510.560909 234.31718 
L 516.287455 231.49931 
L 522.014 228.745669 
L 527.740545 226.055007 
L 533.467091 223.42609 
L 539.193636 220.857697 
L 544.920182 218.348623 
L 550.646727 215.897676 
L 556.373273 213.50368 
L 562.099818 211.165474 
L 567.826364 208.881914 
L 573.552909 206.65187 
L 579.279455 204.474229 
L 585.006 202.347895 
L 590.732545 200.271787 
L 596.459091 198.244842 
L 602.185636 196.26601 
L 607.912182 194.334262 
L 613.638727 192.448583 
L 619.365273 190.607976 
L 625.091818 188.811459 
L 630.818364 187.058067 
L 636.544909 185.346852 
L 642.271455 183.676884 
L 647.998 182.047247 
L 653.724545 180.457042 
L 659.451091 178.905387 
L 665.177636 177.391416 
L 670.904182 175.914278 
L 676.630727 174.473139 
L 682.357273 173.067181 
L 688.083818 171.695601 
L 693.810364 170.357612 
L 699.536909 169.052442 
L 705.263455 167.779334 
L 710.99 166.537546 
L 716.716545 165.326352 
L 722.443091 164.14504 
L 728.169636 162.992911 
L 733.896182 161.869284 
L 739.622727 160.773487 
L 745.349273 159.704867 
L 751.075818 158.662781 
L 756.802364 157.646601 
L 762.528909 156.655713 
L 768.255455 155.689514 
L 773.982 154.747417 
" clip-path="url(#p47c725444a)" style="fill: none; stroke: #30d2f2; stroke-width: 3; stroke-linecap: round"/>
   </g>
   <g id="text_1">
    <path d="M 782.88698 156.467423 
Q 782.37448 156.467423 781.915105 156.370548 
Q 781.457292 156.27211 781.058855 156.076798 
Q 780.660417 155.881485 780.313542 155.587735 
L 780.313542 155.587735 
L 780.933855 154.826798 
L 780.933855 154.826798 
Q 781.340105 155.17836 781.827605 155.354923 
Q 782.316667 155.529923 782.88698 155.529923 
Q 783.658855 155.529923 784.083855 155.243985 
Q 784.508855 154.958048 784.508855 154.436173 
L 784.508855 154.431485 
Q 784.508855 154.05961 784.315105 153.842423 
Q 784.122917 153.625235 783.816667 153.520548 
Q 783.51198 153.41586 783.029167 153.326798 
Q 783.013542 153.32211 782.996355 153.32211 
Q 782.98073 153.32211 782.965105 153.317423 
L 782.891667 153.30336 
Q 782.179167 153.181485 781.732292 153.02836 
Q 781.285417 152.873673 780.96823 152.46586 
Q 780.651042 152.058048 780.651042 151.306485 
L 780.651042 151.301798 
Q 780.651042 150.642423 780.946355 150.176798 
Q 781.241667 149.70961 781.807292 149.46586 
Q 782.37448 149.220548 783.169792 149.220548 
Q 783.551042 149.220548 783.919792 149.304923 
Q 784.288542 149.387735 784.646355 149.551798 
Q 785.00573 149.714298 785.352605 149.962735 
L 785.352605 149.962735 
L 784.78698 150.754923 
L 784.78698 150.754923 
Q 784.38073 150.456485 783.977605 150.308048 
Q 783.576042 150.158048 783.169792 150.158048 
Q 782.44323 150.158048 782.040105 150.448673 
Q 781.63698 150.739298 781.63698 151.27211 
L 781.63698 151.276798 
Q 781.63698 151.642423 781.844792 151.85336 
Q 782.052605 152.062735 782.36198 152.162735 
Q 782.672917 152.262735 783.22448 152.370548 
Q 783.24323 152.375235 783.260417 152.37836 
Q 783.277605 152.379923 783.297917 152.38461 
Q 783.321355 152.389298 783.351042 152.395548 
Q 783.38073 152.400235 783.404167 152.404923 
Q 784.04948 152.536173 784.48073 152.717423 
Q 784.913542 152.89711 785.204167 153.300235 
Q 785.494792 153.70336 785.494792 154.401798 
L 785.494792 154.411173 
Q 785.494792 155.061173 785.18698 155.52211 
Q 784.879167 155.983048 784.294792 156.225235 
Q 783.71198 156.467423 782.88698 156.467423 
z
M 787.584832 155.44711 
L 789.191082 155.44711 
Q 789.977019 155.44711 790.408269 155.039298 
Q 790.841082 154.631485 790.841082 153.889298 
L 790.841082 151.798673 
Q 790.841082 151.056485 790.408269 150.648673 
Q 789.977019 150.24086 789.191082 150.24086 
L 787.584832 150.24086 
L 787.584832 149.293985 
L 789.161394 149.293985 
Q 790.016082 149.293985 790.620769 149.592423 
Q 791.227019 149.889298 791.544207 150.461173 
Q 791.861394 151.033048 791.861394 151.837735 
L 791.861394 153.850235 
Q 791.861394 154.654923 791.544207 155.226798 
Q 791.227019 155.798673 790.619207 156.09711 
Q 790.011394 156.393985 789.156707 156.393985 
L 787.584832 156.393985 
L 787.584832 155.44711 
z
M 786.911394 149.293985 
L 787.906707 149.293985 
L 787.906707 156.393985 
L 786.911394 156.393985 
L 786.911394 149.293985 
z
M 795.406707 156.467423 
Q 794.762957 156.467423 794.273894 156.223673 
Q 793.786394 155.97836 793.519207 155.531485 
Q 793.253582 155.08461 793.253582 154.493985 
L 793.253582 154.376798 
Q 793.253582 153.845548 793.519207 153.376798 
Q 793.786394 152.908048 794.230144 152.668985 
Q 793.853582 152.462735 793.627019 152.075235 
Q 793.400457 151.686173 793.400457 151.256485 
L 793.400457 151.086173 
Q 793.400457 150.529923 793.648894 150.108048 
Q 793.897332 149.68461 794.352019 149.45336 
Q 794.806707 149.220548 795.406707 149.220548 
Q 796.006707 149.220548 796.461394 149.45336 
Q 796.916082 149.68461 797.164519 150.108048 
Q 797.412957 150.529923 797.412957 151.086173 
L 797.412957 151.256485 
Q 797.412957 151.69711 797.181707 152.083048 
Q 796.950457 152.467423 796.569207 152.668985 
Q 797.017644 152.912735 797.287957 153.379923 
Q 797.559832 153.845548 797.559832 154.376798 
L 797.559832 154.493985 
Q 797.559832 155.08461 797.294207 155.531485 
Q 797.028582 155.97836 796.539519 156.223673 
Q 796.052019 156.467423 795.406707 156.467423 
z
M 795.406707 155.50961 
Q 795.753582 155.50961 796.016082 155.373673 
Q 796.280144 155.236173 796.423894 154.99086 
Q 796.569207 154.743985 796.569207 154.420548 
L 796.569207 154.35336 
Q 796.569207 154.025235 796.423894 153.779923 
Q 796.280144 153.533048 796.016082 153.39711 
Q 795.753582 153.25961 795.406707 153.25961 
Q 795.059832 153.25961 794.795769 153.39711 
Q 794.533269 153.533048 794.387957 153.781485 
Q 794.244207 154.029923 794.244207 154.358048 
L 794.244207 154.431485 
Q 794.244207 154.75336 794.387957 154.99711 
Q 794.533269 155.24086 794.795769 155.375235 
Q 795.059832 155.50961 795.406707 155.50961 
z
M 795.406707 152.301798 
Q 795.705144 152.301798 795.933269 152.173673 
Q 796.162957 152.043985 796.289519 151.804923 
Q 796.417644 151.564298 796.417644 151.251798 
L 796.417644 151.18461 
Q 796.417644 150.886173 796.289519 150.656485 
Q 796.162957 150.426798 795.933269 150.30336 
Q 795.705144 150.17836 795.406707 150.17836 
Q 795.108269 150.17836 794.878582 150.30336 
Q 794.650457 150.426798 794.522332 150.656485 
Q 794.395769 150.886173 794.395769 151.189298 
L 794.395769 151.262735 
Q 794.395769 151.568985 794.522332 151.806485 
Q 794.650457 152.043985 794.878582 152.173673 
Q 795.108269 152.301798 795.406707 152.301798 
z
M 800.807878 149.293985 
L 801.803191 149.293985 
L 801.803191 156.393985 
L 800.807878 156.393985 
L 800.807878 149.293985 
z
M 801.290691 155.44711 
L 805.367253 155.44711 
L 805.367253 156.393985 
L 801.290691 156.393985 
L 801.290691 155.44711 
z
M 801.290691 152.395548 
L 804.831316 152.395548 
L 804.831316 153.342423 
L 801.290691 153.342423 
L 801.290691 152.395548 
z
M 801.290691 149.293985 
L 805.367253 149.293985 
L 805.367253 150.24086 
L 801.290691 150.24086 
L 801.290691 149.293985 
z
M 807.682878 155.08461 
Q 807.682878 155.270548 807.762566 155.370548 
Q 807.843816 155.470548 807.989128 155.470548 
L 808.457878 155.470548 
L 808.457878 156.418985 
L 807.871941 156.418985 
Q 807.306316 156.418985 806.995378 156.067423 
Q 806.686003 155.71586 806.686003 155.075235 
L 806.686003 149.293985 
L 807.682878 149.293985 
L 807.682878 155.08461 
z
M 809.581511 149.293985 
L 810.578386 149.293985 
L 810.578386 150.29086 
L 809.581511 150.29086 
L 809.581511 149.293985 
z
M 809.581511 151.325235 
L 810.578386 151.325235 
L 810.578386 156.393985 
L 809.581511 156.393985 
L 809.581511 151.325235 
z
M 813.410027 156.418985 
Q 812.794402 156.418985 812.508464 156.079923 
Q 812.222527 155.739298 812.222527 155.075235 
L 812.222527 149.850235 
L 813.219402 149.850235 
L 813.219402 155.08461 
Q 813.219402 155.270548 813.292839 155.370548 
Q 813.366277 155.470548 813.506902 155.470548 
L 813.986589 155.470548 
L 813.986589 156.418985 
L 813.410027 156.418985 
z
M 811.700652 151.325235 
L 813.986589 151.325235 
L 813.986589 152.223673 
L 811.700652 152.223673 
L 811.700652 151.325235 
z
M 817.427996 156.467423 
Q 816.724871 156.467423 816.226433 156.20336 
Q 815.729558 155.939298 815.467058 155.429923 
Q 815.206121 154.918985 815.206121 154.19711 
L 815.206121 153.625235 
Q 815.206121 152.873673 815.457683 152.342423 
Q 815.709246 151.80961 816.187371 151.531485 
Q 816.667058 151.251798 817.340496 151.251798 
Q 817.974871 151.251798 818.423308 151.570548 
Q 818.873308 151.887735 819.109246 152.487735 
Q 819.346746 153.087735 819.346746 153.92836 
L 819.346746 154.25961 
L 815.929558 154.25961 
L 815.929558 153.45961 
L 818.399871 153.45961 
L 818.399871 153.45961 
Q 818.356121 152.839298 818.079558 152.495548 
Q 817.804558 152.150235 817.340496 152.150235 
Q 816.773308 152.150235 816.463933 152.52211 
Q 816.154558 152.892423 816.154558 153.57211 
L 816.154558 154.21586 
Q 816.154558 154.845548 816.485808 155.183048 
Q 816.818621 155.520548 817.427996 155.520548 
Q 817.731121 155.520548 818.027996 155.398673 
Q 818.326433 155.275235 818.560808 155.056485 
L 818.560808 155.056485 
L 819.215496 155.70961 
L 819.215496 155.70961 
Q 818.838933 156.07211 818.370183 156.270548 
Q 817.901433 156.467423 817.427996 156.467423 
z
M 824.254558 157.92211 
Q 823.385808 156.979923 822.952996 155.811173 
Q 822.521746 154.64086 822.521746 153.229923 
Q 822.521746 151.818985 822.952996 150.650235 
Q 823.385808 149.479923 824.254558 148.537735 
L 824.937371 149.158048 
Q 824.201433 149.97836 823.834246 150.993985 
Q 823.468621 152.00961 823.468621 153.229923 
Q 823.468621 154.450235 823.834246 155.46586 
Q 824.201433 156.481485 824.937371 157.306485 
L 824.254558 157.92211 
z
M 827.848113 156.467423 
Q 827.204363 156.467423 826.7153 156.223673 
Q 826.2278 155.97836 825.960613 155.531485 
Q 825.694988 155.08461 825.694988 154.493985 
L 825.694988 154.376798 
Q 825.694988 153.845548 825.960613 153.376798 
Q 826.2278 152.908048 826.67155 152.668985 
Q 826.294988 152.462735 826.068425 152.075235 
Q 825.841863 151.686173 825.841863 151.256485 
L 825.841863 151.086173 
Q 825.841863 150.529923 826.0903 150.108048 
Q 826.338738 149.68461 826.793425 149.45336 
Q 827.248113 149.220548 827.848113 149.220548 
Q 828.448113 149.220548 828.9028 149.45336 
Q 829.357488 149.68461 829.605925 150.108048 
Q 829.854363 150.529923 829.854363 151.086173 
L 829.854363 151.256485 
Q 829.854363 151.69711 829.623113 152.083048 
Q 829.391863 152.467423 829.010613 152.668985 
Q 829.45905 152.912735 829.729363 153.379923 
Q 830.001238 153.845548 830.001238 154.376798 
L 830.001238 154.493985 
Q 830.001238 155.08461 829.735613 155.531485 
Q 829.469988 155.97836 828.980925 156.223673 
Q 828.493425 156.467423 827.848113 156.467423 
z
M 827.848113 155.50961 
Q 828.194988 155.50961 828.457488 155.373673 
Q 828.72155 155.236173 828.8653 154.99086 
Q 829.010613 154.743985 829.010613 154.420548 
L 829.010613 154.35336 
Q 829.010613 154.025235 828.8653 153.779923 
Q 828.72155 153.533048 828.457488 153.39711 
Q 828.194988 153.25961 827.848113 153.25961 
Q 827.501238 153.25961 827.237175 153.39711 
Q 826.974675 153.533048 826.829363 153.781485 
Q 826.685613 154.029923 826.685613 154.358048 
L 826.685613 154.431485 
Q 826.685613 154.75336 826.829363 154.99711 
Q 826.974675 155.24086 827.237175 155.375235 
Q 827.501238 155.50961 827.848113 155.50961 
z
M 827.848113 152.301798 
Q 828.14655 152.301798 828.374675 152.173673 
Q 828.604363 152.043985 828.730925 151.804923 
Q 828.85905 151.564298 828.85905 151.251798 
L 828.85905 151.18461 
Q 828.85905 150.886173 828.730925 150.656485 
Q 828.604363 150.426798 828.374675 150.30336 
Q 828.14655 150.17836 827.848113 150.17836 
Q 827.549675 150.17836 827.319988 150.30336 
Q 827.091863 150.426798 826.963738 150.656485 
Q 826.837175 150.886173 826.837175 151.189298 
L 826.837175 151.262735 
Q 826.837175 151.568985 826.963738 151.806485 
Q 827.091863 152.043985 827.319988 152.173673 
Q 827.549675 152.301798 827.848113 152.301798 
z
M 833.376238 156.467423 
Q 832.838738 156.467423 832.419988 156.258048 
Q 832.0028 156.04711 831.741863 155.64711 
Q 831.480925 155.24711 831.393425 154.68461 
L 831.393425 154.679923 
L 832.388738 154.679923 
L 832.388738 154.68461 
Q 832.443425 155.075235 832.701238 155.292423 
Q 832.960613 155.50961 833.376238 155.50961 
Q 833.854363 155.50961 834.1153 155.19086 
Q 834.376238 154.870548 834.376238 154.289298 
L 834.376238 153.693985 
Q 834.376238 153.117423 834.1153 152.798673 
Q 833.854363 152.47836 833.376238 152.47836 
Q 833.116863 152.47836 832.8778 152.625235 
Q 832.638738 152.770548 832.457488 153.03461 
L 831.549675 153.03461 
L 831.549675 149.293985 
L 835.166863 149.293985 
L 835.166863 150.24086 
L 832.544988 150.24086 
L 832.544988 151.837735 
Q 832.730925 151.686173 832.960613 151.60336 
Q 833.1903 151.520548 833.429363 151.520548 
Q 834.044988 151.520548 834.480925 151.775235 
Q 834.918425 152.02836 835.144988 152.517423 
Q 835.373113 153.004923 835.373113 153.693985 
L 835.373113 154.289298 
Q 835.373113 154.97836 835.138738 155.467423 
Q 834.904363 155.954923 834.454363 156.211173 
Q 834.005925 156.467423 833.376238 156.467423 
z
M 838.673699 156.467423 
Q 838.078386 156.467423 837.623699 156.250235 
Q 837.169011 156.033048 836.892449 155.620548 
Q 836.617449 155.208048 836.544011 154.626798 
L 836.544011 154.626798 
L 837.559636 154.626798 
L 837.559636 154.626798 
Q 837.603386 154.92836 837.750261 155.123673 
Q 837.897136 155.318985 838.128386 155.414298 
Q 838.361199 155.50961 838.673699 155.50961 
Q 839.165886 155.50961 839.439324 155.24711 
Q 839.712761 154.983048 839.712761 154.504923 
L 839.712761 154.289298 
Q 839.712761 153.756485 839.453386 153.467423 
Q 839.195574 153.176798 838.722136 153.176798 
L 838.219011 153.176798 
L 838.219011 152.22836 
L 838.722136 152.22836 
Q 839.137761 152.22836 839.365886 151.979923 
Q 839.595574 151.731485 839.595574 151.276798 
L 839.595574 151.056485 
Q 839.595574 150.637735 839.353386 150.408048 
Q 839.112761 150.17836 838.669011 150.17836 
Q 838.414324 150.17836 838.214324 150.273673 
Q 838.014324 150.368985 837.875261 150.567423 
Q 837.736199 150.764298 837.672136 151.061173 
L 837.672136 151.061173 
L 836.661199 151.061173 
L 836.661199 151.061173 
Q 836.759636 150.481485 837.029949 150.06586 
Q 837.301824 149.650235 837.715886 149.436173 
Q 838.131511 149.220548 838.669011 149.220548 
Q 839.586199 149.220548 840.089324 149.704923 
Q 840.592449 150.187735 840.592449 151.067423 
L 840.592449 151.18461 
Q 840.592449 151.71586 840.303386 152.111173 
Q 840.015886 152.506485 839.489324 152.687735 
Q 840.070574 152.814298 840.389324 153.25961 
Q 840.709636 153.70336 840.709636 154.392423 
L 840.709636 154.50961 
Q 840.709636 155.129923 840.470574 155.568985 
Q 840.231511 156.008048 839.773699 156.237735 
Q 839.317449 156.467423 838.673699 156.467423 
z
M 843.961785 156.467423 
Q 843.366472 156.467423 842.911785 156.250235 
Q 842.457097 156.033048 842.180535 155.620548 
Q 841.905535 155.208048 841.832097 154.626798 
L 841.832097 154.626798 
L 842.847722 154.626798 
L 842.847722 154.626798 
Q 842.891472 154.92836 843.038347 155.123673 
Q 843.185222 155.318985 843.416472 155.414298 
Q 843.649285 155.50961 843.961785 155.50961 
Q 844.453972 155.50961 844.72741 155.24711 
Q 845.000847 154.983048 845.000847 154.504923 
L 845.000847 154.289298 
Q 845.000847 153.756485 844.741472 153.467423 
Q 844.48366 153.176798 844.010222 153.176798 
L 843.507097 153.176798 
L 843.507097 152.22836 
L 844.010222 152.22836 
Q 844.425847 152.22836 844.653972 151.979923 
Q 844.88366 151.731485 844.88366 151.276798 
L 844.88366 151.056485 
Q 844.88366 150.637735 844.641472 150.408048 
Q 844.400847 150.17836 843.957097 150.17836 
Q 843.70241 150.17836 843.50241 150.273673 
Q 843.30241 150.368985 843.163347 150.567423 
Q 843.024285 150.764298 842.960222 151.061173 
L 842.960222 151.061173 
L 841.949285 151.061173 
L 841.949285 151.061173 
Q 842.047722 150.481485 842.318035 150.06586 
Q 842.58991 149.650235 843.003972 149.436173 
Q 843.419597 149.220548 843.957097 149.220548 
Q 844.874285 149.220548 845.37741 149.704923 
Q 845.880535 150.187735 845.880535 151.067423 
L 845.880535 151.18461 
Q 845.880535 151.71586 845.591472 152.111173 
Q 845.303972 152.506485 844.77741 152.687735 
Q 845.35866 152.814298 845.67741 153.25961 
Q 845.997722 153.70336 845.997722 154.392423 
L 845.997722 154.50961 
Q 845.997722 155.129923 845.75866 155.568985 
Q 845.519597 156.008048 845.061785 156.237735 
Q 844.605535 156.467423 843.961785 156.467423 
z
M 846.779558 157.306485 
Q 847.515496 156.481485 847.881121 155.46586 
Q 848.248308 154.450235 848.248308 153.229923 
Q 848.248308 152.00961 847.881121 150.993985 
Q 847.515496 149.97836 846.779558 149.158048 
L 847.462371 148.537735 
Q 848.331121 149.479923 848.762371 150.650235 
Q 849.195183 151.818985 849.195183 153.229923 
Q 849.195183 154.64086 848.762371 155.811173 
Q 848.331121 156.979923 847.462371 157.92211 
L 846.779558 157.306485 
z
" style="fill: #ffffff; stroke: #000000"/>
    <path d="M 782.88698 156.467423 
Q 782.37448 156.467423 781.915105 156.370548 
Q 781.457292 156.27211 781.058855 156.076798 
Q 780.660417 155.881485 780.313542 155.587735 
L 780.313542 155.587735 
L 780.933855 154.826798 
L 780.933855 154.826798 
Q 781.340105 155.17836 781.827605 155.354923 
Q 782.316667 155.529923 782.88698 155.529923 
Q 783.658855 155.529923 784.083855 155.243985 
Q 784.508855 154.958048 784.508855 154.436173 
L 784.508855 154.431485 
Q 784.508855 154.05961 784.315105 153.842423 
Q 784.122917 153.625235 783.816667 153.520548 
Q 783.51198 153.41586 783.029167 153.326798 
Q 783.013542 153.32211 782.996355 153.32211 
Q 782.98073 153.32211 782.965105 153.317423 
L 782.891667 153.30336 
Q 782.179167 153.181485 781.732292 153.02836 
Q 781.285417 152.873673 780.96823 152.46586 
Q 780.651042 152.058048 780.651042 151.306485 
L 780.651042 151.301798 
Q 780.651042 150.642423 780.946355 150.176798 
Q 781.241667 149.70961 781.807292 149.46586 
Q 782.37448 149.220548 783.169792 149.220548 
Q 783.551042 149.220548 783.919792 149.304923 
Q 784.288542 149.387735 784.646355 149.551798 
Q 785.00573 149.714298 785.352605 149.962735 
L 785.352605 149.962735 
L 784.78698 150.754923 
L 784.78698 150.754923 
Q 784.38073 150.456485 783.977605 150.308048 
Q 783.576042 150.158048 783.169792 150.158048 
Q 782.44323 150.158048 782.040105 150.448673 
Q 781.63698 150.739298 781.63698 151.27211 
L 781.63698 151.276798 
Q 781.63698 151.642423 781.844792 151.85336 
Q 782.052605 152.062735 782.36198 152.162735 
Q 782.672917 152.262735 783.22448 152.370548 
Q 783.24323 152.375235 783.260417 152.37836 
Q 783.277605 152.379923 783.297917 152.38461 
Q 783.321355 152.389298 783.351042 152.395548 
Q 783.38073 152.400235 783.404167 152.404923 
Q 784.04948 152.536173 784.48073 152.717423 
Q 784.913542 152.89711 785.204167 153.300235 
Q 785.494792 153.70336 785.494792 154.401798 
L 785.494792 154.411173 
Q 785.494792 155.061173 785.18698 155.52211 
Q 784.879167 155.983048 784.294792 156.225235 
Q 783.71198 156.467423 782.88698 156.467423 
z
M 787.584832 155.44711 
L 789.191082 155.44711 
Q 789.977019 155.44711 790.408269 155.039298 
Q 790.841082 154.631485 790.841082 153.889298 
L 790.841082 151.798673 
Q 790.841082 151.056485 790.408269 150.648673 
Q 789.977019 150.24086 789.191082 150.24086 
L 787.584832 150.24086 
L 787.584832 149.293985 
L 789.161394 149.293985 
Q 790.016082 149.293985 790.620769 149.592423 
Q 791.227019 149.889298 791.544207 150.461173 
Q 791.861394 151.033048 791.861394 151.837735 
L 791.861394 153.850235 
Q 791.861394 154.654923 791.544207 155.226798 
Q 791.227019 155.798673 790.619207 156.09711 
Q 790.011394 156.393985 789.156707 156.393985 
L 787.584832 156.393985 
L 787.584832 155.44711 
z
M 786.911394 149.293985 
L 787.906707 149.293985 
L 787.906707 156.393985 
L 786.911394 156.393985 
L 786.911394 149.293985 
z
M 795.406707 156.467423 
Q 794.762957 156.467423 794.273894 156.223673 
Q 793.786394 155.97836 793.519207 155.531485 
Q 793.253582 155.08461 793.253582 154.493985 
L 793.253582 154.376798 
Q 793.253582 153.845548 793.519207 153.376798 
Q 793.786394 152.908048 794.230144 152.668985 
Q 793.853582 152.462735 793.627019 152.075235 
Q 793.400457 151.686173 793.400457 151.256485 
L 793.400457 151.086173 
Q 793.400457 150.529923 793.648894 150.108048 
Q 793.897332 149.68461 794.352019 149.45336 
Q 794.806707 149.220548 795.406707 149.220548 
Q 796.006707 149.220548 796.461394 149.45336 
Q 796.916082 149.68461 797.164519 150.108048 
Q 797.412957 150.529923 797.412957 151.086173 
L 797.412957 151.256485 
Q 797.412957 151.69711 797.181707 152.083048 
Q 796.950457 152.467423 796.569207 152.668985 
Q 797.017644 152.912735 797.287957 153.379923 
Q 797.559832 153.845548 797.559832 154.376798 
L 797.559832 154.493985 
Q 797.559832 155.08461 797.294207 155.531485 
Q 797.028582 155.97836 796.539519 156.223673 
Q 796.052019 156.467423 795.406707 156.467423 
z
M 795.406707 155.50961 
Q 795.753582 155.50961 796.016082 155.373673 
Q 796.280144 155.236173 796.423894 154.99086 
Q 796.569207 154.743985 796.569207 154.420548 
L 796.569207 154.35336 
Q 796.569207 154.025235 796.423894 153.779923 
Q 796.280144 153.533048 796.016082 153.39711 
Q 795.753582 153.25961 795.406707 153.25961 
Q 795.059832 153.25961 794.795769 153.39711 
Q 794.533269 153.533048 794.387957 153.781485 
Q 794.244207 154.029923 794.244207 154.358048 
L 794.244207 154.431485 
Q 794.244207 154.75336 794.387957 154.99711 
Q 794.533269 155.24086 794.795769 155.375235 
Q 795.059832 155.50961 795.406707 155.50961 
z
M 795.406707 152.301798 
Q 795.705144 152.301798 795.933269 152.173673 
Q 796.162957 152.043985 796.289519 151.804923 
Q 796.417644 151.564298 796.417644 151.251798 
L 796.417644 151.18461 
Q 796.417644 150.886173 796.289519 150.656485 
Q 796.162957 150.426798 795.933269 150.30336 
Q 795.705144 150.17836 795.406707 150.17836 
Q 795.108269 150.17836 794.878582 150.30336 
Q 794.650457 150.426798 794.522332 150.656485 
Q 794.395769 150.886173 794.395769 151.189298 
L 794.395769 151.262735 
Q 794.395769 151.568985 794.522332 151.806485 
Q 794.650457 152.043985 794.878582 152.173673 
Q 795.108269 152.301798 795.406707 152.301798 
z
M 800.807878 149.293985 
L 801.803191 149.293985 
L 801.803191 156.393985 
L 800.807878 156.393985 
L 800.807878 149.293985 
z
M 801.290691 155.44711 
L 805.367253 155.44711 
L 805.367253 156.393985 
L 801.290691 156.393985 
L 801.290691 155.44711 
z
M 801.290691 152.395548 
L 804.831316 152.395548 
L 804.831316 153.342423 
L 801.290691 153.342423 
L 801.290691 152.395548 
z
M 801.290691 149.293985 
L 805.367253 149.293985 
L 805.367253 150.24086 
L 801.290691 150.24086 
L 801.290691 149.293985 
z
M 807.682878 155.08461 
Q 807.682878 155.270548 807.762566 155.370548 
Q 807.843816 155.470548 807.989128 155.470548 
L 808.457878 155.470548 
L 808.457878 156.418985 
L 807.871941 156.418985 
Q 807.306316 156.418985 806.995378 156.067423 
Q 806.686003 155.71586 806.686003 155.075235 
L 806.686003 149.293985 
L 807.682878 149.293985 
L 807.682878 155.08461 
z
M 809.581511 149.293985 
L 810.578386 149.293985 
L 810.578386 150.29086 
L 809.581511 150.29086 
L 809.581511 149.293985 
z
M 809.581511 151.325235 
L 810.578386 151.325235 
L 810.578386 156.393985 
L 809.581511 156.393985 
L 809.581511 151.325235 
z
M 813.410027 156.418985 
Q 812.794402 156.418985 812.508464 156.079923 
Q 812.222527 155.739298 812.222527 155.075235 
L 812.222527 149.850235 
L 813.219402 149.850235 
L 813.219402 155.08461 
Q 813.219402 155.270548 813.292839 155.370548 
Q 813.366277 155.470548 813.506902 155.470548 
L 813.986589 155.470548 
L 813.986589 156.418985 
L 813.410027 156.418985 
z
M 811.700652 151.325235 
L 813.986589 151.325235 
L 813.986589 152.223673 
L 811.700652 152.223673 
L 811.700652 151.325235 
z
M 817.427996 156.467423 
Q 816.724871 156.467423 816.226433 156.20336 
Q 815.729558 155.939298 815.467058 155.429923 
Q 815.206121 154.918985 815.206121 154.19711 
L 815.206121 153.625235 
Q 815.206121 152.873673 815.457683 152.342423 
Q 815.709246 151.80961 816.187371 151.531485 
Q 816.667058 151.251798 817.340496 151.251798 
Q 817.974871 151.251798 818.423308 151.570548 
Q 818.873308 151.887735 819.109246 152.487735 
Q 819.346746 153.087735 819.346746 153.92836 
L 819.346746 154.25961 
L 815.929558 154.25961 
L 815.929558 153.45961 
L 818.399871 153.45961 
L 818.399871 153.45961 
Q 818.356121 152.839298 818.079558 152.495548 
Q 817.804558 152.150235 817.340496 152.150235 
Q 816.773308 152.150235 816.463933 152.52211 
Q 816.154558 152.892423 816.154558 153.57211 
L 816.154558 154.21586 
Q 816.154558 154.845548 816.485808 155.183048 
Q 816.818621 155.520548 817.427996 155.520548 
Q 817.731121 155.520548 818.027996 155.398673 
Q 818.326433 155.275235 818.560808 155.056485 
L 818.560808 155.056485 
L 819.215496 155.70961 
L 819.215496 155.70961 
Q 818.838933 156.07211 818.370183 156.270548 
Q 817.901433 156.467423 817.427996 156.467423 
z
M 824.254558 157.92211 
Q 823.385808 156.979923 822.952996 155.811173 
Q 822.521746 154.64086 822.521746 153.229923 
Q 822.521746 151.818985 822.952996 150.650235 
Q 823.385808 149.479923 824.254558 148.537735 
L 824.937371 149.158048 
Q 824.201433 149.97836 823.834246 150.993985 
Q 823.468621 152.00961 823.468621 153.229923 
Q 823.468621 154.450235 823.834246 155.46586 
Q 824.201433 156.481485 824.937371 157.306485 
L 824.254558 157.92211 
z
M 827.848113 156.467423 
Q 827.204363 156.467423 826.7153 156.223673 
Q 826.2278 155.97836 825.960613 155.531485 
Q 825.694988 155.08461 825.694988 154.493985 
L 825.694988 154.376798 
Q 825.694988 153.845548 825.960613 153.376798 
Q 826.2278 152.908048 826.67155 152.668985 
Q 826.294988 152.462735 826.068425 152.075235 
Q 825.841863 151.686173 825.841863 151.256485 
L 825.841863 151.086173 
Q 825.841863 150.529923 826.0903 150.108048 
Q 826.338738 149.68461 826.793425 149.45336 
Q 827.248113 149.220548 827.848113 149.220548 
Q 828.448113 149.220548 828.9028 149.45336 
Q 829.357488 149.68461 829.605925 150.108048 
Q 829.854363 150.529923 829.854363 151.086173 
L 829.854363 151.256485 
Q 829.854363 151.69711 829.623113 152.083048 
Q 829.391863 152.467423 829.010613 152.668985 
Q 829.45905 152.912735 829.729363 153.379923 
Q 830.001238 153.845548 830.001238 154.376798 
L 830.001238 154.493985 
Q 830.001238 155.08461 829.735613 155.531485 
Q 829.469988 155.97836 828.980925 156.223673 
Q 828.493425 156.467423 827.848113 156.467423 
z
M 827.848113 155.50961 
Q 828.194988 155.50961 828.457488 155.373673 
Q 828.72155 155.236173 828.8653 154.99086 
Q 829.010613 154.743985 829.010613 154.420548 
L 829.010613 154.35336 
Q 829.010613 154.025235 828.8653 153.779923 
Q 828.72155 153.533048 828.457488 153.39711 
Q 828.194988 153.25961 827.848113 153.25961 
Q 827.501238 153.25961 827.237175 153.39711 
Q 826.974675 153.533048 826.829363 153.781485 
Q 826.685613 154.029923 826.685613 154.358048 
L 826.685613 154.431485 
Q 826.685613 154.75336 826.829363 154.99711 
Q 826.974675 155.24086 827.237175 155.375235 
Q 827.501238 155.50961 827.848113 155.50961 
z
M 827.848113 152.301798 
Q 828.14655 152.301798 828.374675 152.173673 
Q 828.604363 152.043985 828.730925 151.804923 
Q 828.85905 151.564298 828.85905 151.251798 
L 828.85905 151.18461 
Q 828.85905 150.886173 828.730925 150.656485 
Q 828.604363 150.426798 828.374675 150.30336 
Q 828.14655 150.17836 827.848113 150.17836 
Q 827.549675 150.17836 827.319988 150.30336 
Q 827.091863 150.426798 826.963738 150.656485 
Q 826.837175 150.886173 826.837175 151.189298 
L 826.837175 151.262735 
Q 826.837175 151.568985 826.963738 151.806485 
Q 827.091863 152.043985 827.319988 152.173673 
Q 827.549675 152.301798 827.848113 152.301798 
z
M 833.376238 156.467423 
Q 832.838738 156.467423 832.419988 156.258048 
Q 832.0028 156.04711 831.741863 155.64711 
Q 831.480925 155.24711 831.393425 154.68461 
L 831.393425 154.679923 
L 832.388738 154.679923 
L 832.388738 154.68461 
Q 832.443425 155.075235 832.701238 155.292423 
Q 832.960613 155.50961 833.376238 155.50961 
Q 833.854363 155.50961 834.1153 155.19086 
Q 834.376238 154.870548 834.376238 154.289298 
L 834.376238 153.693985 
Q 834.376238 153.117423 834.1153 152.798673 
Q 833.854363 152.47836 833.376238 152.47836 
Q 833.116863 152.47836 832.8778 152.625235 
Q 832.638738 152.770548 832.457488 153.03461 
L 831.549675 153.03461 
L 831.549675 149.293985 
L 835.166863 149.293985 
L 835.166863 150.24086 
L 832.544988 150.24086 
L 832.544988 151.837735 
Q 832.730925 151.686173 832.960613 151.60336 
Q 833.1903 151.520548 833.429363 151.520548 
Q 834.044988 151.520548 834.480925 151.775235 
Q 834.918425 152.02836 835.144988 152.517423 
Q 835.373113 153.004923 835.373113 153.693985 
L 835.373113 154.289298 
Q 835.373113 154.97836 835.138738 155.467423 
Q 834.904363 155.954923 834.454363 156.211173 
Q 834.005925 156.467423 833.376238 156.467423 
z
M 838.673699 156.467423 
Q 838.078386 156.467423 837.623699 156.250235 
Q 837.169011 156.033048 836.892449 155.620548 
Q 836.617449 155.208048 836.544011 154.626798 
L 836.544011 154.626798 
L 837.559636 154.626798 
L 837.559636 154.626798 
Q 837.603386 154.92836 837.750261 155.123673 
Q 837.897136 155.318985 838.128386 155.414298 
Q 838.361199 155.50961 838.673699 155.50961 
Q 839.165886 155.50961 839.439324 155.24711 
Q 839.712761 154.983048 839.712761 154.504923 
L 839.712761 154.289298 
Q 839.712761 153.756485 839.453386 153.467423 
Q 839.195574 153.176798 838.722136 153.176798 
L 838.219011 153.176798 
L 838.219011 152.22836 
L 838.722136 152.22836 
Q 839.137761 152.22836 839.365886 151.979923 
Q 839.595574 151.731485 839.595574 151.276798 
L 839.595574 151.056485 
Q 839.595574 150.637735 839.353386 150.408048 
Q 839.112761 150.17836 838.669011 150.17836 
Q 838.414324 150.17836 838.214324 150.273673 
Q 838.014324 150.368985 837.875261 150.567423 
Q 837.736199 150.764298 837.672136 151.061173 
L 837.672136 151.061173 
L 836.661199 151.061173 
L 836.661199 151.061173 
Q 836.759636 150.481485 837.029949 150.06586 
Q 837.301824 149.650235 837.715886 149.436173 
Q 838.131511 149.220548 838.669011 149.220548 
Q 839.586199 149.220548 840.089324 149.704923 
Q 840.592449 150.187735 840.592449 151.067423 
L 840.592449 151.18461 
Q 840.592449 151.71586 840.303386 152.111173 
Q 840.015886 152.506485 839.489324 152.687735 
Q 840.070574 152.814298 840.389324 153.25961 
Q 840.709636 153.70336 840.709636 154.392423 
L 840.709636 154.50961 
Q 840.709636 155.129923 840.470574 155.568985 
Q 840.231511 156.008048 839.773699 156.237735 
Q 839.317449 156.467423 838.673699 156.467423 
z
M 843.961785 156.467423 
Q 843.366472 156.467423 842.911785 156.250235 
Q 842.457097 156.033048 842.180535 155.620548 
Q 841.905535 155.208048 841.832097 154.626798 
L 841.832097 154.626798 
L 842.847722 154.626798 
L 842.847722 154.626798 
Q 842.891472 154.92836 843.038347 155.123673 
Q 843.185222 155.318985 843.416472 155.414298 
Q 843.649285 155.50961 843.961785 155.50961 
Q 844.453972 155.50961 844.72741 155.24711 
Q 845.000847 154.983048 845.000847 154.504923 
L 845.000847 154.289298 
Q 845.000847 153.756485 844.741472 153.467423 
Q 844.48366 153.176798 844.010222 153.176798 
L 843.507097 153.176798 
L 843.507097 152.22836 
L 844.010222 152.22836 
Q 844.425847 152.22836 844.653972 151.979923 
Q 844.88366 151.731485 844.88366 151.276798 
L 844.88366 151.056485 
Q 844.88366 150.637735 844.641472 150.408048 
Q 844.400847 150.17836 843.957097 150.17836 
Q 843.70241 150.17836 843.50241 150.273673 
Q 843.30241 150.368985 843.163347 150.567423 
Q 843.024285 150.764298 842.960222 151.061173 
L 842.960222 151.061173 
L 841.949285 151.061173 
L 841.949285 151.061173 
Q 842.047722 150.481485 842.318035 150.06586 
Q 842.58991 149.650235 843.003972 149.436173 
Q 843.419597 149.220548 843.957097 149.220548 
Q 844.874285 149.220548 845.37741 149.704923 
Q 845.880535 150.187735 845.880535 151.067423 
L 845.880535 151.18461 
Q 845.880535 151.71586 845.591472 152.111173 
Q 845.303972 152.506485 844.77741 152.687735 
Q 845.35866 152.814298 845.67741 153.25961 
Q 845.997722 153.70336 845.997722 154.392423 
L 845.997722 154.50961 
Q 845.997722 155.129923 845.75866 155.568985 
Q 845.519597 156.008048 845.061785 156.237735 
Q 844.605535 156.467423 843.961785 156.467423 
z
M 846.779558 157.306485 
Q 847.515496 156.481485 847.881121 155.46586 
Q 848.248308 154.450235 848.248308 153.229923 
Q 848.248308 152.00961 847.881121 150.993985 
Q 847.515496 149.97836 846.779558 149.158048 
L 847.462371 148.537735 
Q 848.331121 149.479923 848.762371 150.650235 
Q 849.195183 151.818985 849.195183 153.229923 
Q 849.195183 154.64086 848.762371 155.811173 
Q 848.331121 156.979923 847.462371 157.92211 
L 846.779558 157.306485 
z
" style="fill: #ffffff"/>
   </g>
  </g>
 </g>
 <defs>
  <clipPath id="p47c725444a">
   <rect x="144" y="77.76" width="892.8" height="498.96"/>
  </clipPath>
 </defs>
</svg>
