<?xml version="1.0" encoding="utf-8" standalone="no"?>
<!DOCTYPE svg PUBLIC "-//W3C//DTD SVG 1.1//EN"
  "http://www.w3.org/Graphics/SVG/1.1/DTD/svg11.dtd">
<svg xmlns:xlink="http://www.w3.org/1999/xlink" width="1152pt" height="648pt" viewBox="0 0 1152 648" xmlns="http://www.w3.org/2000/svg" version="1.1">
 <metadata>
  <rdf:RDF xmlns:dc="http://purl.org/dc/elements/1.1/" xmlns:cc="http://creativecommons.org/ns#" xmlns:rdf="http://www.w3.org/1999/02/22-rdf-syntax-ns#">
   <cc:Work>
    <dc:type rdf:resource="http://purl.org/dc/dcmitype/StillImage"/>
    <dc:date>2024-10-09T18:10:38.926788</dc:date>
    <dc:format>image/svg+xml</dc:format>
    <dc:creator>
     <cc:Agent>
      <dc:title>Matplotlib v3.8.1, https://matplotlib.org/</dc:title>
     </cc:Agent>
    </dc:creator>
   </cc:Work>
  </rdf:RDF>
 </metadata>
 <defs>
  <style type="text/css">*{stroke-linejoin: round; stroke-linecap: butt}</style>
 </defs>
 <g id="figure_1">
  <g id="patch_1">
   <path d="M 0 648 
L 1152 648 
L 1152 0 
L 0 0 
L 0 648 
z
" style="fill: none"/>
  </g>
  <g id="axes_1">
   <g id="line2d_1">
    <path d="M 186.966 553.016541 
L 188.251091 552.204286 
L 189.536182 551.397991 
L 190.821273 550.597613 
L 192.106364 549.803109 
L 193.391455 549.014436 
L 194.676545 548.231551 
L 195.961636 547.454413 
L 197.246727 546.682978 
L 198.531818 545.917206 
L 199.816909 545.157056 
L 201.102 544.402485 
L 202.387091 543.653454 
L 203.672182 542.909922 
L 204.957273 542.171849 
L 206.242364 541.439195 
L 207.527455 540.71192 
L 208.812545 539.989985 
L 210.097636 539.273351 
L 211.382727 538.56198 
L 212.667818 537.855832 
L 213.952909 537.15487 
L 215.238 536.459056 
L 216.523091 535.768352 
L 217.808182 535.082721 
L 219.093273 534.402125 
L 220.378364 533.726529 
L 221.663455 533.055895 
L 222.948545 532.390187 
L 224.233636 531.729369 
L 225.518727 531.073405 
L 226.803818 530.422261 
L 228.088909 529.775899 
L 229.374 529.134287 
L 230.659091 528.497388 
L 231.944182 527.865169 
L 233.229273 527.237595 
L 234.514364 526.614633 
L 235.799455 525.996247 
L 237.084545 525.382406 
L 238.369636 524.773076 
L 239.654727 524.168223 
L 240.939818 523.567815 
L 242.224909 522.971819 
L 243.51 522.380204 
L 244.795091 521.792937 
L 246.080182 521.209986 
L 247.365273 520.63132 
L 248.650364 520.056907 
L 249.935455 519.486716 
L 251.220545 518.920716 
L 252.505636 518.358877 
L 253.790727 517.801169 
L 255.075818 517.24756 
L 256.360909 516.69802 
L 257.646 516.152521 
L 258.931091 515.611032 
L 260.216182 515.073525 
L 261.501273 514.539969 
L 262.786364 514.010336 
L 264.071455 513.484598 
L 265.356545 512.962725 
L 266.641636 512.444689 
L 267.926727 511.930463 
L 269.211818 511.420018 
L 270.496909 510.913327 
L 271.782 510.410362 
L 273.067091 509.911096 
L 274.352182 509.415501 
L 275.637273 508.923552 
L 276.922364 508.43522 
L 278.207455 507.95048 
L 279.492545 507.469305 
L 280.777636 506.99167 
L 282.062727 506.517547 
L 283.347818 506.046912 
L 284.632909 505.579739 
L 285.918 505.116002 
L 287.203091 504.655677 
L 288.488182 504.198738 
L 289.773273 503.74516 
L 291.058364 503.294919 
L 292.343455 502.84799 
L 293.628545 502.40435 
L 294.913636 501.963973 
L 296.198727 501.526836 
L 297.483818 501.092916 
L 298.768909 500.662188 
L 300.054 500.234629 
L 301.339091 499.810216 
L 302.624182 499.388927 
L 303.909273 498.970737 
L 305.194364 498.555624 
L 306.479455 498.143566 
L 307.764545 497.73454 
L 309.049636 497.328524 
L 310.334727 496.925496 
L 311.619818 496.525434 
L 312.904909 496.128316 
L 314.19 495.73412 
" clip-path="url(#pd5f9c03428)" style="fill: none; stroke: #f2b230; stroke-width: 3; stroke-linecap: round"/>
   </g>
   <g id="text_1">
    <path d="M 321.635605 496.433813 
L 323.241855 496.433813 
Q 324.027792 496.433813 324.459042 496.026001 
Q 324.891855 495.618188 324.891855 494.876001 
L 324.891855 492.785376 
Q 324.891855 492.043188 324.459042 491.635376 
Q 324.027792 491.227563 323.241855 491.227563 
L 321.635605 491.227563 
L 321.635605 490.280688 
L 323.212167 490.280688 
Q 324.066855 490.280688 324.671542 490.579126 
Q 325.277792 490.876001 325.59498 491.447876 
Q 325.912167 492.019751 325.912167 492.824438 
L 325.912167 494.836938 
Q 325.912167 495.641626 325.59498 496.213501 
Q 325.277792 496.785376 324.66998 497.083813 
Q 324.062167 497.380688 323.20748 497.380688 
L 321.635605 497.380688 
L 321.635605 496.433813 
z
M 320.962167 490.280688 
L 321.95748 490.280688 
L 321.95748 497.380688 
L 320.962167 497.380688 
L 320.962167 490.280688 
z
M 329.45748 497.454126 
Q 328.81373 497.454126 328.324667 497.210376 
Q 327.837167 496.965063 327.56998 496.518188 
Q 327.304355 496.071313 327.304355 495.480688 
L 327.304355 495.363501 
Q 327.304355 494.832251 327.56998 494.363501 
Q 327.837167 493.894751 328.280917 493.655688 
Q 327.904355 493.449438 327.677792 493.061938 
Q 327.45123 492.672876 327.45123 492.243188 
L 327.45123 492.072876 
Q 327.45123 491.516626 327.699667 491.094751 
Q 327.948105 490.671313 328.402792 490.440063 
Q 328.85748 490.207251 329.45748 490.207251 
Q 330.05748 490.207251 330.512167 490.440063 
Q 330.966855 490.671313 331.215292 491.094751 
Q 331.46373 491.516626 331.46373 492.072876 
L 331.46373 492.243188 
Q 331.46373 492.683813 331.23248 493.069751 
Q 331.00123 493.454126 330.61998 493.655688 
Q 331.068417 493.899438 331.33873 494.366626 
Q 331.610605 494.832251 331.610605 495.363501 
L 331.610605 495.480688 
Q 331.610605 496.071313 331.34498 496.518188 
Q 331.079355 496.965063 330.590292 497.210376 
Q 330.102792 497.454126 329.45748 497.454126 
z
M 329.45748 496.496313 
Q 329.804355 496.496313 330.066855 496.360376 
Q 330.330917 496.222876 330.474667 495.977563 
Q 330.61998 495.730688 330.61998 495.407251 
L 330.61998 495.340063 
Q 330.61998 495.011938 330.474667 494.766626 
Q 330.330917 494.519751 330.066855 494.383813 
Q 329.804355 494.246313 329.45748 494.246313 
Q 329.110605 494.246313 328.846542 494.383813 
Q 328.584042 494.519751 328.43873 494.768188 
Q 328.29498 495.016626 328.29498 495.344751 
L 328.29498 495.418188 
Q 328.29498 495.740063 328.43873 495.983813 
Q 328.584042 496.227563 328.846542 496.361938 
Q 329.110605 496.496313 329.45748 496.496313 
z
M 329.45748 493.288501 
Q 329.755917 493.288501 329.984042 493.160376 
Q 330.21373 493.030688 330.340292 492.791626 
Q 330.468417 492.551001 330.468417 492.238501 
L 330.468417 492.171313 
Q 330.468417 491.872876 330.340292 491.643188 
Q 330.21373 491.413501 329.984042 491.290063 
Q 329.755917 491.165063 329.45748 491.165063 
Q 329.159042 491.165063 328.929355 491.290063 
Q 328.70123 491.413501 328.573105 491.643188 
Q 328.446542 491.872876 328.446542 492.176001 
L 328.446542 492.249438 
Q 328.446542 492.555688 328.573105 492.793188 
Q 328.70123 493.030688 328.929355 493.160376 
Q 329.159042 493.288501 329.45748 493.288501 
z
M 334.716855 497.380688 
L 333.71998 497.380688 
L 333.71998 491.365063 
L 332.709042 491.985376 
L 332.709042 490.954126 
L 333.71998 490.280688 
L 334.716855 490.280688 
L 334.716855 497.380688 
z
M 338.35455 497.454126 
Q 337.357675 497.454126 336.84205 496.922876 
Q 336.327988 496.390063 336.327988 495.436938 
L 336.327988 492.210376 
Q 336.327988 491.252563 336.845175 490.722876 
Q 337.362363 490.193188 338.35455 490.193188 
Q 339.349863 490.193188 339.865488 490.721313 
Q 340.381113 491.247876 340.381113 492.210376 
L 340.381113 495.436938 
Q 340.381113 496.394751 339.862363 496.924438 
Q 339.345175 497.454126 338.35455 497.454126 
z
M 338.35455 496.507251 
Q 338.881113 496.507251 339.132675 496.230688 
Q 339.384238 495.954126 339.384238 495.436938 
L 339.384238 492.210376 
Q 339.384238 491.691626 339.134238 491.416626 
Q 338.8858 491.140063 338.35455 491.140063 
Q 337.821738 491.140063 337.571738 491.416626 
Q 337.3233 491.691626 337.3233 492.210376 
L 337.3233 495.436938 
Q 337.3233 495.954126 337.574863 496.230688 
Q 337.826425 496.507251 338.35455 496.507251 
z
M 343.872128 497.454126 
Q 342.875253 497.454126 342.359628 496.922876 
Q 341.845566 496.390063 341.845566 495.436938 
L 341.845566 492.210376 
Q 341.845566 491.252563 342.362753 490.722876 
Q 342.879941 490.193188 343.872128 490.193188 
Q 344.867441 490.193188 345.383066 490.721313 
Q 345.898691 491.247876 345.898691 492.210376 
L 345.898691 495.436938 
Q 345.898691 496.394751 345.379941 496.924438 
Q 344.862753 497.454126 343.872128 497.454126 
z
M 343.872128 496.507251 
Q 344.398691 496.507251 344.650253 496.230688 
Q 344.901816 495.954126 344.901816 495.436938 
L 344.901816 492.210376 
Q 344.901816 491.691626 344.651816 491.416626 
Q 344.403378 491.140063 343.872128 491.140063 
Q 343.339316 491.140063 343.089316 491.416626 
Q 342.840878 491.691626 342.840878 492.210376 
L 342.840878 495.436938 
Q 342.840878 495.954126 343.092441 496.230688 
Q 343.344003 496.507251 343.872128 496.507251 
z
" style="fill: #ffffff; stroke: #000000"/>
    <path d="M 321.635605 496.433813 
L 323.241855 496.433813 
Q 324.027792 496.433813 324.459042 496.026001 
Q 324.891855 495.618188 324.891855 494.876001 
L 324.891855 492.785376 
Q 324.891855 492.043188 324.459042 491.635376 
Q 324.027792 491.227563 323.241855 491.227563 
L 321.635605 491.227563 
L 321.635605 490.280688 
L 323.212167 490.280688 
Q 324.066855 490.280688 324.671542 490.579126 
Q 325.277792 490.876001 325.59498 491.447876 
Q 325.912167 492.019751 325.912167 492.824438 
L 325.912167 494.836938 
Q 325.912167 495.641626 325.59498 496.213501 
Q 325.277792 496.785376 324.66998 497.083813 
Q 324.062167 497.380688 323.20748 497.380688 
L 321.635605 497.380688 
L 321.635605 496.433813 
z
M 320.962167 490.280688 
L 321.95748 490.280688 
L 321.95748 497.380688 
L 320.962167 497.380688 
L 320.962167 490.280688 
z
M 329.45748 497.454126 
Q 328.81373 497.454126 328.324667 497.210376 
Q 327.837167 496.965063 327.56998 496.518188 
Q 327.304355 496.071313 327.304355 495.480688 
L 327.304355 495.363501 
Q 327.304355 494.832251 327.56998 494.363501 
Q 327.837167 493.894751 328.280917 493.655688 
Q 327.904355 493.449438 327.677792 493.061938 
Q 327.45123 492.672876 327.45123 492.243188 
L 327.45123 492.072876 
Q 327.45123 491.516626 327.699667 491.094751 
Q 327.948105 490.671313 328.402792 490.440063 
Q 328.85748 490.207251 329.45748 490.207251 
Q 330.05748 490.207251 330.512167 490.440063 
Q 330.966855 490.671313 331.215292 491.094751 
Q 331.46373 491.516626 331.46373 492.072876 
L 331.46373 492.243188 
Q 331.46373 492.683813 331.23248 493.069751 
Q 331.00123 493.454126 330.61998 493.655688 
Q 331.068417 493.899438 331.33873 494.366626 
Q 331.610605 494.832251 331.610605 495.363501 
L 331.610605 495.480688 
Q 331.610605 496.071313 331.34498 496.518188 
Q 331.079355 496.965063 330.590292 497.210376 
Q 330.102792 497.454126 329.45748 497.454126 
z
M 329.45748 496.496313 
Q 329.804355 496.496313 330.066855 496.360376 
Q 330.330917 496.222876 330.474667 495.977563 
Q 330.61998 495.730688 330.61998 495.407251 
L 330.61998 495.340063 
Q 330.61998 495.011938 330.474667 494.766626 
Q 330.330917 494.519751 330.066855 494.383813 
Q 329.804355 494.246313 329.45748 494.246313 
Q 329.110605 494.246313 328.846542 494.383813 
Q 328.584042 494.519751 328.43873 494.768188 
Q 328.29498 495.016626 328.29498 495.344751 
L 328.29498 495.418188 
Q 328.29498 495.740063 328.43873 495.983813 
Q 328.584042 496.227563 328.846542 496.361938 
Q 329.110605 496.496313 329.45748 496.496313 
z
M 329.45748 493.288501 
Q 329.755917 493.288501 329.984042 493.160376 
Q 330.21373 493.030688 330.340292 492.791626 
Q 330.468417 492.551001 330.468417 492.238501 
L 330.468417 492.171313 
Q 330.468417 491.872876 330.340292 491.643188 
Q 330.21373 491.413501 329.984042 491.290063 
Q 329.755917 491.165063 329.45748 491.165063 
Q 329.159042 491.165063 328.929355 491.290063 
Q 328.70123 491.413501 328.573105 491.643188 
Q 328.446542 491.872876 328.446542 492.176001 
L 328.446542 492.249438 
Q 328.446542 492.555688 328.573105 492.793188 
Q 328.70123 493.030688 328.929355 493.160376 
Q 329.159042 493.288501 329.45748 493.288501 
z
M 334.716855 497.380688 
L 333.71998 497.380688 
L 333.71998 491.365063 
L 332.709042 491.985376 
L 332.709042 490.954126 
L 333.71998 490.280688 
L 334.716855 490.280688 
L 334.716855 497.380688 
z
M 338.35455 497.454126 
Q 337.357675 497.454126 336.84205 496.922876 
Q 336.327988 496.390063 336.327988 495.436938 
L 336.327988 492.210376 
Q 336.327988 491.252563 336.845175 490.722876 
Q 337.362363 490.193188 338.35455 490.193188 
Q 339.349863 490.193188 339.865488 490.721313 
Q 340.381113 491.247876 340.381113 492.210376 
L 340.381113 495.436938 
Q 340.381113 496.394751 339.862363 496.924438 
Q 339.345175 497.454126 338.35455 497.454126 
z
M 338.35455 496.507251 
Q 338.881113 496.507251 339.132675 496.230688 
Q 339.384238 495.954126 339.384238 495.436938 
L 339.384238 492.210376 
Q 339.384238 491.691626 339.134238 491.416626 
Q 338.8858 491.140063 338.35455 491.140063 
Q 337.821738 491.140063 337.571738 491.416626 
Q 337.3233 491.691626 337.3233 492.210376 
L 337.3233 495.436938 
Q 337.3233 495.954126 337.574863 496.230688 
Q 337.826425 496.507251 338.35455 496.507251 
z
M 343.872128 497.454126 
Q 342.875253 497.454126 342.359628 496.922876 
Q 341.845566 496.390063 341.845566 495.436938 
L 341.845566 492.210376 
Q 341.845566 491.252563 342.362753 490.722876 
Q 342.879941 490.193188 343.872128 490.193188 
Q 344.867441 490.193188 345.383066 490.721313 
Q 345.898691 491.247876 345.898691 492.210376 
L 345.898691 495.436938 
Q 345.898691 496.394751 345.379941 496.924438 
Q 344.862753 497.454126 343.872128 497.454126 
z
M 343.872128 496.507251 
Q 344.398691 496.507251 344.650253 496.230688 
Q 344.901816 495.954126 344.901816 495.436938 
L 344.901816 492.210376 
Q 344.901816 491.691626 344.651816 491.416626 
Q 344.403378 491.140063 343.872128 491.140063 
Q 343.339316 491.140063 343.089316 491.416626 
Q 342.840878 491.691626 342.840878 492.210376 
L 342.840878 495.436938 
Q 342.840878 495.954126 343.092441 496.230688 
Q 343.344003 496.507251 343.872128 496.507251 
z
" style="fill: #ffffff"/>
   </g>
  </g>
 </g>
 <defs>
  <clipPath id="pd5f9c03428">
   <rect x="144" y="77.76" width="892.8" height="498.96"/>
  </clipPath>
 </defs>
</svg>
