<?xml version="1.0" encoding="utf-8" standalone="no"?>
<!DOCTYPE svg PUBLIC "-//W3C//DTD SVG 1.1//EN"
  "http://www.w3.org/Graphics/SVG/1.1/DTD/svg11.dtd">
<svg xmlns:xlink="http://www.w3.org/1999/xlink" width="1152pt" height="648pt" viewBox="0 0 1152 648" xmlns="http://www.w3.org/2000/svg" version="1.1">
 <metadata>
  <rdf:RDF xmlns:dc="http://purl.org/dc/elements/1.1/" xmlns:cc="http://creativecommons.org/ns#" xmlns:rdf="http://www.w3.org/1999/02/22-rdf-syntax-ns#">
   <cc:Work>
    <dc:type rdf:resource="http://purl.org/dc/dcmitype/StillImage"/>
    <dc:date>2024-10-09T18:10:38.704227</dc:date>
    <dc:format>image/svg+xml</dc:format>
    <dc:creator>
     <cc:Agent>
      <dc:title>Matplotlib v3.8.1, https://matplotlib.org/</dc:title>
     </cc:Agent>
    </dc:creator>
   </cc:Work>
  </rdf:RDF>
 </metadata>
 <defs>
  <style type="text/css">*{stroke-linejoin: round; stroke-linecap: butt}</style>
 </defs>
 <g id="figure_1">
  <g id="patch_1">
   <path d="M 0 648 
L 1152 648 
L 1152 0 
L 0 0 
L 0 648 
z
" style="fill: none"/>
  </g>
  <g id="axes_1">
   <g id="line2d_1">
    <path d="M 234.954 547.00085 
L 235.619091 546.7527 
L 236.284182 546.504599 
L 236.949273 546.256595 
L 237.614364 546.008735 
L 238.279455 545.761069 
L 238.944545 545.513644 
L 239.609636 545.266508 
L 240.274727 545.019709 
L 240.939818 544.773294 
L 241.604909 544.52731 
L 242.27 544.281803 
L 242.935091 544.036821 
L 243.600182 543.792408 
L 244.265273 543.548611 
L 244.930364 543.305475 
L 245.595455 543.063044 
L 246.260545 542.821362 
L 246.925636 542.580473 
L 247.590727 542.340419 
L 248.255818 542.101242 
L 248.920909 541.862985 
L 249.586 541.625688 
L 250.251091 541.389392 
L 250.916182 541.154135 
L 251.581273 540.919957 
L 252.246364 540.686895 
L 252.911455 540.454987 
L 253.576545 540.224269 
L 254.241636 539.994777 
L 254.906727 539.766545 
L 255.571818 539.539607 
L 256.236909 539.313995 
L 256.902 539.089743 
L 257.567091 538.866881 
L 258.232182 538.645438 
L 258.897273 538.425446 
L 259.562364 538.206931 
L 260.227455 537.989921 
L 260.892545 537.774442 
L 261.557636 537.56052 
L 262.222727 537.34818 
L 262.887818 537.137445 
L 263.552909 536.928336 
L 264.218 536.720877 
L 264.883091 536.515087 
L 265.548182 536.310986 
L 266.213273 536.108593 
L 266.878364 535.907925 
L 267.543455 535.708999 
L 268.208545 535.51183 
L 268.873636 535.316434 
L 269.538727 535.122824 
L 270.203818 534.931013 
L 270.868909 534.741013 
L 271.534 534.552835 
L 272.199091 534.366489 
L 272.864182 534.181984 
L 273.529273 533.999329 
L 274.194364 533.818531 
L 274.859455 533.639596 
L 275.524545 533.46253 
L 276.189636 533.287339 
L 276.854727 533.114026 
L 277.519818 532.942594 
L 278.184909 532.773045 
L 278.85 532.605382 
L 279.515091 532.439606 
L 280.180182 532.275715 
L 280.845273 532.113711 
L 281.510364 531.953591 
L 282.175455 531.795354 
L 282.840545 531.638996 
L 283.505636 531.484515 
L 284.170727 531.331906 
L 284.835818 531.181165 
L 285.500909 531.032287 
L 286.166 530.885265 
L 286.831091 530.740094 
L 287.496182 530.596767 
L 288.161273 530.455275 
L 288.826364 530.315612 
L 289.491455 530.177768 
L 290.156545 530.041735 
L 290.821636 529.907503 
L 291.486727 529.775062 
L 292.151818 529.644402 
L 292.816909 529.515513 
L 293.482 529.388382 
L 294.147091 529.262999 
L 294.812182 529.139353 
L 295.477273 529.017429 
L 296.142364 528.897217 
L 296.807455 528.778704 
L 297.472545 528.661875 
L 298.137636 528.546719 
L 298.802727 528.43322 
L 299.467818 528.321366 
L 300.132909 528.211142 
L 300.798 528.102534 
" clip-path="url(#p6b04f8bea0)" style="fill: none; stroke: #3091f2; stroke-width: 3; stroke-linecap: round"/>
   </g>
   <g id="text_1">
    <path d="M 309.70298 529.82254 
Q 309.19048 529.82254 308.731105 529.725665 
Q 308.273292 529.627227 307.874855 529.431915 
Q 307.476417 529.236602 307.129542 528.942852 
L 307.129542 528.942852 
L 307.749855 528.181915 
L 307.749855 528.181915 
Q 308.156105 528.533477 308.643605 528.71004 
Q 309.132667 528.88504 309.70298 528.88504 
Q 310.474855 528.88504 310.899855 528.599102 
Q 311.324855 528.313165 311.324855 527.79129 
L 311.324855 527.786602 
Q 311.324855 527.414727 311.131105 527.19754 
Q 310.938918 526.980352 310.632667 526.875665 
Q 310.32798 526.770977 309.845168 526.681915 
Q 309.829543 526.677227 309.812355 526.677227 
Q 309.79673 526.677227 309.781105 526.67254 
L 309.707667 526.658477 
Q 308.995167 526.536602 308.548293 526.383477 
Q 308.101417 526.22879 307.78423 525.820977 
Q 307.467042 525.413165 307.467042 524.661602 
L 307.467042 524.656915 
Q 307.467042 523.99754 307.762355 523.531915 
Q 308.057667 523.064727 308.623292 522.820977 
Q 309.19048 522.575665 309.985793 522.575665 
Q 310.367042 522.575665 310.735793 522.66004 
Q 311.104542 522.742852 311.462355 522.906915 
Q 311.82173 523.069415 312.168605 523.317852 
L 312.168605 523.317852 
L 311.60298 524.11004 
L 311.60298 524.11004 
Q 311.19673 523.811602 310.793605 523.663165 
Q 310.392043 523.513165 309.985793 523.513165 
Q 309.25923 523.513165 308.856105 523.80379 
Q 308.45298 524.094415 308.45298 524.627227 
L 308.45298 524.631915 
Q 308.45298 524.99754 308.660792 525.208477 
Q 308.868605 525.417852 309.17798 525.517852 
Q 309.488917 525.617852 310.04048 525.725665 
Q 310.05923 525.730352 310.076417 525.733477 
Q 310.093605 525.73504 310.113917 525.739727 
Q 310.137355 525.744415 310.167042 525.750665 
Q 310.19673 525.755352 310.220168 525.76004 
Q 310.86548 525.89129 311.29673 526.07254 
Q 311.729542 526.252227 312.020167 526.655352 
Q 312.310792 527.058477 312.310792 527.756915 
L 312.310792 527.76629 
Q 312.310792 528.41629 312.00298 528.877227 
Q 311.695167 529.338165 311.110793 529.580352 
Q 310.52798 529.82254 309.70298 529.82254 
z
M 314.400832 528.802227 
L 316.007082 528.802227 
Q 316.793019 528.802227 317.224269 528.394415 
Q 317.657082 527.986602 317.657082 527.244415 
L 317.657082 525.15379 
Q 317.657082 524.411602 317.224269 524.00379 
Q 316.793019 523.595977 316.007082 523.595977 
L 314.400832 523.595977 
L 314.400832 522.649102 
L 315.977394 522.649102 
Q 316.832082 522.649102 317.436769 522.94754 
Q 318.043019 523.244415 318.360207 523.81629 
Q 318.677394 524.388165 318.677394 525.192852 
L 318.677394 527.205352 
Q 318.677394 528.01004 318.360207 528.581915 
Q 318.043019 529.15379 317.435207 529.452227 
Q 316.827394 529.749102 315.972707 529.749102 
L 314.400832 529.749102 
L 314.400832 528.802227 
z
M 313.727394 522.649102 
L 314.722707 522.649102 
L 314.722707 529.749102 
L 313.727394 529.749102 
L 313.727394 522.649102 
z
M 323.810207 523.538165 
L 321.974269 529.749102 
L 320.914894 529.749102 
L 322.750832 523.595977 
L 320.943019 523.595977 
L 320.943019 524.617852 
L 319.947707 524.617852 
L 319.947707 522.649102 
L 323.810207 522.649102 
L 323.810207 523.538165 
z
M 327.256886 529.82254 
Q 326.613136 529.82254 326.124074 529.57879 
Q 325.636574 529.333477 325.369386 528.886602 
Q 325.103761 528.439727 325.103761 527.849102 
L 325.103761 527.731915 
Q 325.103761 527.200665 325.369386 526.731915 
Q 325.636574 526.263165 326.080324 526.024102 
Q 325.703761 525.817852 325.477199 525.430352 
Q 325.250636 525.04129 325.250636 524.611602 
L 325.250636 524.44129 
Q 325.250636 523.88504 325.499074 523.463165 
Q 325.747511 523.039727 326.202199 522.808477 
Q 326.656886 522.575665 327.256886 522.575665 
Q 327.856886 522.575665 328.311574 522.808477 
Q 328.766261 523.039727 329.014699 523.463165 
Q 329.263136 523.88504 329.263136 524.44129 
L 329.263136 524.611602 
Q 329.263136 525.052227 329.031886 525.438165 
Q 328.800636 525.82254 328.419386 526.024102 
Q 328.867824 526.267852 329.138136 526.73504 
Q 329.410011 527.200665 329.410011 527.731915 
L 329.410011 527.849102 
Q 329.410011 528.439727 329.144386 528.886602 
Q 328.878761 529.333477 328.389699 529.57879 
Q 327.902199 529.82254 327.256886 529.82254 
z
M 327.256886 528.864727 
Q 327.603761 528.864727 327.866261 528.72879 
Q 328.130324 528.59129 328.274074 528.345977 
Q 328.419386 528.099102 328.419386 527.775665 
L 328.419386 527.708477 
Q 328.419386 527.380352 328.274074 527.13504 
Q 328.130324 526.888165 327.866261 526.752227 
Q 327.603761 526.614727 327.256886 526.614727 
Q 326.910011 526.614727 326.645949 526.752227 
Q 326.383449 526.888165 326.238136 527.136602 
Q 326.094386 527.38504 326.094386 527.713165 
L 326.094386 527.786602 
Q 326.094386 528.108477 326.238136 528.352227 
Q 326.383449 528.595977 326.645949 528.730352 
Q 326.910011 528.864727 327.256886 528.864727 
z
M 327.256886 525.656915 
Q 327.555324 525.656915 327.783449 525.52879 
Q 328.013136 525.399102 328.139699 525.16004 
Q 328.267824 524.919415 328.267824 524.606915 
L 328.267824 524.539727 
Q 328.267824 524.24129 328.139699 524.011602 
Q 328.013136 523.781915 327.783449 523.658477 
Q 327.555324 523.533477 327.256886 523.533477 
Q 326.958449 523.533477 326.728761 523.658477 
Q 326.500636 523.781915 326.372511 524.011602 
Q 326.245949 524.24129 326.245949 524.544415 
L 326.245949 524.617852 
Q 326.245949 524.924102 326.372511 525.161602 
Q 326.500636 525.399102 326.728761 525.52879 
Q 326.958449 525.656915 327.256886 525.656915 
z
M 332.828761 529.82254 
Q 331.831886 529.82254 331.316261 529.29129 
Q 330.802199 528.758477 330.802199 527.805352 
L 330.802199 524.57879 
Q 330.802199 523.620977 331.319386 523.09129 
Q 331.836574 522.561602 332.828761 522.561602 
Q 333.824074 522.561602 334.339699 523.089727 
Q 334.855324 523.61629 334.855324 524.57879 
L 334.855324 527.805352 
Q 334.855324 528.763165 334.336574 529.292852 
Q 333.819386 529.82254 332.828761 529.82254 
z
M 332.828761 528.875665 
Q 333.355324 528.875665 333.606886 528.599102 
Q 333.858449 528.32254 333.858449 527.805352 
L 333.858449 524.57879 
Q 333.858449 524.06004 333.608449 523.78504 
Q 333.360011 523.508477 332.828761 523.508477 
Q 332.295949 523.508477 332.045949 523.78504 
Q 331.797511 524.06004 331.797511 524.57879 
L 331.797511 527.805352 
Q 331.797511 528.32254 332.049074 528.599102 
Q 332.300636 528.875665 332.828761 528.875665 
z
M 341.319777 525.925665 
L 341.319777 527.16629 
Q 341.319777 527.956915 341.011964 528.56004 
Q 340.704152 529.163165 340.140089 529.492852 
Q 339.576027 529.82254 338.833839 529.82254 
Q 338.082277 529.82254 337.513527 529.513165 
Q 336.944777 529.202227 336.632277 528.636602 
Q 336.319777 528.069415 336.319777 527.32254 
L 336.319777 525.227227 
Q 336.319777 524.436602 336.627589 523.836602 
Q 336.935402 523.23504 337.497902 522.905352 
Q 338.061964 522.575665 338.804152 522.575665 
Q 339.415089 522.575665 339.929152 522.838165 
Q 340.444777 523.099102 340.791652 523.577227 
Q 341.138527 524.055352 341.260402 524.68504 
L 341.260402 524.68504 
L 340.182277 524.68504 
L 340.182277 524.68504 
Q 340.093214 524.32879 339.883839 524.07254 
Q 339.674464 523.81629 339.390089 523.681915 
Q 339.107277 523.54754 338.804152 523.54754 
Q 338.365089 523.54754 338.032277 523.758477 
Q 337.701027 523.967852 337.519777 524.345977 
Q 337.340089 524.724102 337.340089 525.227227 
L 337.340089 527.32254 
Q 337.340089 527.781915 337.524464 528.125665 
Q 337.710402 528.469415 338.049464 528.66004 
Q 338.390089 528.850665 338.833839 528.850665 
Q 339.272902 528.850665 339.604152 528.65379 
Q 339.936964 528.455352 340.118214 528.080352 
Q 340.299464 527.70379 340.299464 527.18504 
L 340.299464 526.877227 
L 338.858839 526.877227 
L 338.858839 525.925665 
L 341.319777 525.925665 
z
" style="fill: #ffffff; stroke: #000000"/>
    <path d="M 309.70298 529.82254 
Q 309.19048 529.82254 308.731105 529.725665 
Q 308.273292 529.627227 307.874855 529.431915 
Q 307.476417 529.236602 307.129542 528.942852 
L 307.129542 528.942852 
L 307.749855 528.181915 
L 307.749855 528.181915 
Q 308.156105 528.533477 308.643605 528.71004 
Q 309.132667 528.88504 309.70298 528.88504 
Q 310.474855 528.88504 310.899855 528.599102 
Q 311.324855 528.313165 311.324855 527.79129 
L 311.324855 527.786602 
Q 311.324855 527.414727 311.131105 527.19754 
Q 310.938918 526.980352 310.632667 526.875665 
Q 310.32798 526.770977 309.845168 526.681915 
Q 309.829543 526.677227 309.812355 526.677227 
Q 309.79673 526.677227 309.781105 526.67254 
L 309.707667 526.658477 
Q 308.995167 526.536602 308.548293 526.383477 
Q 308.101417 526.22879 307.78423 525.820977 
Q 307.467042 525.413165 307.467042 524.661602 
L 307.467042 524.656915 
Q 307.467042 523.99754 307.762355 523.531915 
Q 308.057667 523.064727 308.623292 522.820977 
Q 309.19048 522.575665 309.985793 522.575665 
Q 310.367042 522.575665 310.735793 522.66004 
Q 311.104542 522.742852 311.462355 522.906915 
Q 311.82173 523.069415 312.168605 523.317852 
L 312.168605 523.317852 
L 311.60298 524.11004 
L 311.60298 524.11004 
Q 311.19673 523.811602 310.793605 523.663165 
Q 310.392043 523.513165 309.985793 523.513165 
Q 309.25923 523.513165 308.856105 523.80379 
Q 308.45298 524.094415 308.45298 524.627227 
L 308.45298 524.631915 
Q 308.45298 524.99754 308.660792 525.208477 
Q 308.868605 525.417852 309.17798 525.517852 
Q 309.488917 525.617852 310.04048 525.725665 
Q 310.05923 525.730352 310.076417 525.733477 
Q 310.093605 525.73504 310.113917 525.739727 
Q 310.137355 525.744415 310.167042 525.750665 
Q 310.19673 525.755352 310.220168 525.76004 
Q 310.86548 525.89129 311.29673 526.07254 
Q 311.729542 526.252227 312.020167 526.655352 
Q 312.310792 527.058477 312.310792 527.756915 
L 312.310792 527.76629 
Q 312.310792 528.41629 312.00298 528.877227 
Q 311.695167 529.338165 311.110793 529.580352 
Q 310.52798 529.82254 309.70298 529.82254 
z
M 314.400832 528.802227 
L 316.007082 528.802227 
Q 316.793019 528.802227 317.224269 528.394415 
Q 317.657082 527.986602 317.657082 527.244415 
L 317.657082 525.15379 
Q 317.657082 524.411602 317.224269 524.00379 
Q 316.793019 523.595977 316.007082 523.595977 
L 314.400832 523.595977 
L 314.400832 522.649102 
L 315.977394 522.649102 
Q 316.832082 522.649102 317.436769 522.94754 
Q 318.043019 523.244415 318.360207 523.81629 
Q 318.677394 524.388165 318.677394 525.192852 
L 318.677394 527.205352 
Q 318.677394 528.01004 318.360207 528.581915 
Q 318.043019 529.15379 317.435207 529.452227 
Q 316.827394 529.749102 315.972707 529.749102 
L 314.400832 529.749102 
L 314.400832 528.802227 
z
M 313.727394 522.649102 
L 314.722707 522.649102 
L 314.722707 529.749102 
L 313.727394 529.749102 
L 313.727394 522.649102 
z
M 323.810207 523.538165 
L 321.974269 529.749102 
L 320.914894 529.749102 
L 322.750832 523.595977 
L 320.943019 523.595977 
L 320.943019 524.617852 
L 319.947707 524.617852 
L 319.947707 522.649102 
L 323.810207 522.649102 
L 323.810207 523.538165 
z
M 327.256886 529.82254 
Q 326.613136 529.82254 326.124074 529.57879 
Q 325.636574 529.333477 325.369386 528.886602 
Q 325.103761 528.439727 325.103761 527.849102 
L 325.103761 527.731915 
Q 325.103761 527.200665 325.369386 526.731915 
Q 325.636574 526.263165 326.080324 526.024102 
Q 325.703761 525.817852 325.477199 525.430352 
Q 325.250636 525.04129 325.250636 524.611602 
L 325.250636 524.44129 
Q 325.250636 523.88504 325.499074 523.463165 
Q 325.747511 523.039727 326.202199 522.808477 
Q 326.656886 522.575665 327.256886 522.575665 
Q 327.856886 522.575665 328.311574 522.808477 
Q 328.766261 523.039727 329.014699 523.463165 
Q 329.263136 523.88504 329.263136 524.44129 
L 329.263136 524.611602 
Q 329.263136 525.052227 329.031886 525.438165 
Q 328.800636 525.82254 328.419386 526.024102 
Q 328.867824 526.267852 329.138136 526.73504 
Q 329.410011 527.200665 329.410011 527.731915 
L 329.410011 527.849102 
Q 329.410011 528.439727 329.144386 528.886602 
Q 328.878761 529.333477 328.389699 529.57879 
Q 327.902199 529.82254 327.256886 529.82254 
z
M 327.256886 528.864727 
Q 327.603761 528.864727 327.866261 528.72879 
Q 328.130324 528.59129 328.274074 528.345977 
Q 328.419386 528.099102 328.419386 527.775665 
L 328.419386 527.708477 
Q 328.419386 527.380352 328.274074 527.13504 
Q 328.130324 526.888165 327.866261 526.752227 
Q 327.603761 526.614727 327.256886 526.614727 
Q 326.910011 526.614727 326.645949 526.752227 
Q 326.383449 526.888165 326.238136 527.136602 
Q 326.094386 527.38504 326.094386 527.713165 
L 326.094386 527.786602 
Q 326.094386 528.108477 326.238136 528.352227 
Q 326.383449 528.595977 326.645949 528.730352 
Q 326.910011 528.864727 327.256886 528.864727 
z
M 327.256886 525.656915 
Q 327.555324 525.656915 327.783449 525.52879 
Q 328.013136 525.399102 328.139699 525.16004 
Q 328.267824 524.919415 328.267824 524.606915 
L 328.267824 524.539727 
Q 328.267824 524.24129 328.139699 524.011602 
Q 328.013136 523.781915 327.783449 523.658477 
Q 327.555324 523.533477 327.256886 523.533477 
Q 326.958449 523.533477 326.728761 523.658477 
Q 326.500636 523.781915 326.372511 524.011602 
Q 326.245949 524.24129 326.245949 524.544415 
L 326.245949 524.617852 
Q 326.245949 524.924102 326.372511 525.161602 
Q 326.500636 525.399102 326.728761 525.52879 
Q 326.958449 525.656915 327.256886 525.656915 
z
M 332.828761 529.82254 
Q 331.831886 529.82254 331.316261 529.29129 
Q 330.802199 528.758477 330.802199 527.805352 
L 330.802199 524.57879 
Q 330.802199 523.620977 331.319386 523.09129 
Q 331.836574 522.561602 332.828761 522.561602 
Q 333.824074 522.561602 334.339699 523.089727 
Q 334.855324 523.61629 334.855324 524.57879 
L 334.855324 527.805352 
Q 334.855324 528.763165 334.336574 529.292852 
Q 333.819386 529.82254 332.828761 529.82254 
z
M 332.828761 528.875665 
Q 333.355324 528.875665 333.606886 528.599102 
Q 333.858449 528.32254 333.858449 527.805352 
L 333.858449 524.57879 
Q 333.858449 524.06004 333.608449 523.78504 
Q 333.360011 523.508477 332.828761 523.508477 
Q 332.295949 523.508477 332.045949 523.78504 
Q 331.797511 524.06004 331.797511 524.57879 
L 331.797511 527.805352 
Q 331.797511 528.32254 332.049074 528.599102 
Q 332.300636 528.875665 332.828761 528.875665 
z
M 341.319777 525.925665 
L 341.319777 527.16629 
Q 341.319777 527.956915 341.011964 528.56004 
Q 340.704152 529.163165 340.140089 529.492852 
Q 339.576027 529.82254 338.833839 529.82254 
Q 338.082277 529.82254 337.513527 529.513165 
Q 336.944777 529.202227 336.632277 528.636602 
Q 336.319777 528.069415 336.319777 527.32254 
L 336.319777 525.227227 
Q 336.319777 524.436602 336.627589 523.836602 
Q 336.935402 523.23504 337.497902 522.905352 
Q 338.061964 522.575665 338.804152 522.575665 
Q 339.415089 522.575665 339.929152 522.838165 
Q 340.444777 523.099102 340.791652 523.577227 
Q 341.138527 524.055352 341.260402 524.68504 
L 341.260402 524.68504 
L 340.182277 524.68504 
L 340.182277 524.68504 
Q 340.093214 524.32879 339.883839 524.07254 
Q 339.674464 523.81629 339.390089 523.681915 
Q 339.107277 523.54754 338.804152 523.54754 
Q 338.365089 523.54754 338.032277 523.758477 
Q 337.701027 523.967852 337.519777 524.345977 
Q 337.340089 524.724102 337.340089 525.227227 
L 337.340089 527.32254 
Q 337.340089 527.781915 337.524464 528.125665 
Q 337.710402 528.469415 338.049464 528.66004 
Q 338.390089 528.850665 338.833839 528.850665 
Q 339.272902 528.850665 339.604152 528.65379 
Q 339.936964 528.455352 340.118214 528.080352 
Q 340.299464 527.70379 340.299464 527.18504 
L 340.299464 526.877227 
L 338.858839 526.877227 
L 338.858839 525.925665 
L 341.319777 525.925665 
z
" style="fill: #ffffff"/>
   </g>
  </g>
 </g>
 <defs>
  <clipPath id="p6b04f8bea0">
   <rect x="144" y="77.76" width="892.8" height="498.96"/>
  </clipPath>
 </defs>
</svg>
