<?xml version="1.0" encoding="utf-8" standalone="no"?>
<!DOCTYPE svg PUBLIC "-//W3C//DTD SVG 1.1//EN"
  "http://www.w3.org/Graphics/SVG/1.1/DTD/svg11.dtd">
<svg xmlns:xlink="http://www.w3.org/1999/xlink" width="1152pt" height="648pt" viewBox="0 0 1152 648" xmlns="http://www.w3.org/2000/svg" version="1.1">
 <metadata>
  <rdf:RDF xmlns:dc="http://purl.org/dc/elements/1.1/" xmlns:cc="http://creativecommons.org/ns#" xmlns:rdf="http://www.w3.org/1999/02/22-rdf-syntax-ns#">
   <cc:Work>
    <dc:type rdf:resource="http://purl.org/dc/dcmitype/StillImage"/>
    <dc:date>2024-10-09T18:10:38.544111</dc:date>
    <dc:format>image/svg+xml</dc:format>
    <dc:creator>
     <cc:Agent>
      <dc:title>Matplotlib v3.8.1, https://matplotlib.org/</dc:title>
     </cc:Agent>
    </dc:creator>
   </cc:Work>
  </rdf:RDF>
 </metadata>
 <defs>
  <style type="text/css">*{stroke-linejoin: round; stroke-linecap: butt}</style>
 </defs>
 <g id="figure_1">
  <g id="patch_1">
   <path d="M 0 648 
L 1152 648 
L 1152 0 
L 0 0 
L 0 648 
z
" style="fill: none"/>
  </g>
  <g id="axes_1">
   <g id="PathCollection_1">
    <defs>
     <path id="m54bdd9aaf0" d="M 0 2.738613 
C 0.726289 2.738613 1.422928 2.450055 1.936492 1.936492 
C 2.450055 1.422928 2.738613 0.726289 2.738613 0 
C 2.738613 -0.726289 2.450055 -1.422928 1.936492 -1.936492 
C 1.422928 -2.450055 0.726289 -2.738613 0 -2.738613 
C -0.726289 -2.738613 -1.422928 -2.450055 -1.936492 -1.936492 
C -2.450055 -1.422928 -2.738613 -0.726289 -2.738613 0 
C -2.738613 0.726289 -2.450055 1.422928 -1.936492 1.936492 
C -1.422928 2.450055 -0.726289 2.738613 0 2.738613 
z
" style="stroke: #bfff80"/>
    </defs>
    <g clip-path="url(#p21468fb652)">
     <use xlink:href="#m54bdd9aaf0" x="663.498" y="258.05088" style="fill: #bfff80; stroke: #bfff80"/>
     <use xlink:href="#m54bdd9aaf0" x="396.216" y="363.66408" style="fill: #bfff80; stroke: #bfff80"/>
     <use xlink:href="#m54bdd9aaf0" x="300.798" y="416.05488" style="fill: #bfff80; stroke: #bfff80"/>
    </g>
   </g>
   <g id="text_1">
    <path d="M 672.20298 252.597448 
L 673.05298 252.597448 
L 675.670168 259.697448 
L 674.595168 259.697448 
L 672.62798 253.969323 
L 670.660793 259.697448 
L 669.585793 259.697448 
L 672.20298 252.597448 
z
M 670.792042 257.192761 
L 674.52798 257.192761 
L 674.52798 258.139636 
L 670.792042 258.139636 
L 670.792042 257.192761 
z
M 678.311964 259.697448 
L 677.315089 259.697448 
L 677.315089 253.681823 
L 676.304152 254.302136 
L 676.304152 253.270886 
L 677.315089 252.597448 
L 678.311964 252.597448 
L 678.311964 259.697448 
z
M 682.002785 259.770886 
Q 681.359035 259.770886 680.869972 259.527136 
Q 680.382472 259.281823 680.115285 258.834948 
Q 679.84966 258.388073 679.84966 257.797448 
L 679.84966 257.680261 
Q 679.84966 257.149011 680.115285 256.680261 
Q 680.382472 256.211511 680.826222 255.972448 
Q 680.44966 255.766198 680.223097 255.378698 
Q 679.996535 254.989636 679.996535 254.559948 
L 679.996535 254.389636 
Q 679.996535 253.833386 680.244972 253.411511 
Q 680.49341 252.988073 680.948097 252.756823 
Q 681.402785 252.524011 682.002785 252.524011 
Q 682.602785 252.524011 683.057472 252.756823 
Q 683.51216 252.988073 683.760597 253.411511 
Q 684.009035 253.833386 684.009035 254.389636 
L 684.009035 254.559948 
Q 684.009035 255.000573 683.777785 255.386511 
Q 683.546535 255.770886 683.165285 255.972448 
Q 683.613722 256.216198 683.884035 256.683386 
Q 684.15591 257.149011 684.15591 257.680261 
L 684.15591 257.797448 
Q 684.15591 258.388073 683.890285 258.834948 
Q 683.62466 259.281823 683.135597 259.527136 
Q 682.648097 259.770886 682.002785 259.770886 
z
M 682.002785 258.813073 
Q 682.34966 258.813073 682.61216 258.677136 
Q 682.876222 258.539636 683.019972 258.294323 
Q 683.165285 258.047448 683.165285 257.724011 
L 683.165285 257.656823 
Q 683.165285 257.328698 683.019972 257.083386 
Q 682.876222 256.836511 682.61216 256.700573 
Q 682.34966 256.563073 682.002785 256.563073 
Q 681.65591 256.563073 681.391847 256.700573 
Q 681.129347 256.836511 680.984035 257.084948 
Q 680.840285 257.333386 680.840285 257.661511 
L 680.840285 257.734948 
Q 680.840285 258.056823 680.984035 258.300573 
Q 681.129347 258.544323 681.391847 258.678698 
Q 681.65591 258.813073 682.002785 258.813073 
z
M 682.002785 255.605261 
Q 682.301222 255.605261 682.529347 255.477136 
Q 682.759035 255.347448 682.885597 255.108386 
Q 683.013722 254.867761 683.013722 254.555261 
L 683.013722 254.488073 
Q 683.013722 254.189636 682.885597 253.959948 
Q 682.759035 253.730261 682.529347 253.606823 
Q 682.301222 253.481823 682.002785 253.481823 
Q 681.704347 253.481823 681.47466 253.606823 
Q 681.246535 253.730261 681.11841 253.959948 
Q 680.991847 254.189636 680.991847 254.492761 
L 680.991847 254.566198 
Q 680.991847 254.872448 681.11841 255.109948 
Q 681.246535 255.347448 681.47466 255.477136 
Q 681.704347 255.605261 682.002785 255.605261 
z
" style="fill: #ffffff; stroke: #000000"/>
    <path d="M 672.20298 252.597448 
L 673.05298 252.597448 
L 675.670168 259.697448 
L 674.595168 259.697448 
L 672.62798 253.969323 
L 670.660793 259.697448 
L 669.585793 259.697448 
L 672.20298 252.597448 
z
M 670.792042 257.192761 
L 674.52798 257.192761 
L 674.52798 258.139636 
L 670.792042 258.139636 
L 670.792042 257.192761 
z
M 678.311964 259.697448 
L 677.315089 259.697448 
L 677.315089 253.681823 
L 676.304152 254.302136 
L 676.304152 253.270886 
L 677.315089 252.597448 
L 678.311964 252.597448 
L 678.311964 259.697448 
z
M 682.002785 259.770886 
Q 681.359035 259.770886 680.869972 259.527136 
Q 680.382472 259.281823 680.115285 258.834948 
Q 679.84966 258.388073 679.84966 257.797448 
L 679.84966 257.680261 
Q 679.84966 257.149011 680.115285 256.680261 
Q 680.382472 256.211511 680.826222 255.972448 
Q 680.44966 255.766198 680.223097 255.378698 
Q 679.996535 254.989636 679.996535 254.559948 
L 679.996535 254.389636 
Q 679.996535 253.833386 680.244972 253.411511 
Q 680.49341 252.988073 680.948097 252.756823 
Q 681.402785 252.524011 682.002785 252.524011 
Q 682.602785 252.524011 683.057472 252.756823 
Q 683.51216 252.988073 683.760597 253.411511 
Q 684.009035 253.833386 684.009035 254.389636 
L 684.009035 254.559948 
Q 684.009035 255.000573 683.777785 255.386511 
Q 683.546535 255.770886 683.165285 255.972448 
Q 683.613722 256.216198 683.884035 256.683386 
Q 684.15591 257.149011 684.15591 257.680261 
L 684.15591 257.797448 
Q 684.15591 258.388073 683.890285 258.834948 
Q 683.62466 259.281823 683.135597 259.527136 
Q 682.648097 259.770886 682.002785 259.770886 
z
M 682.002785 258.813073 
Q 682.34966 258.813073 682.61216 258.677136 
Q 682.876222 258.539636 683.019972 258.294323 
Q 683.165285 258.047448 683.165285 257.724011 
L 683.165285 257.656823 
Q 683.165285 257.328698 683.019972 257.083386 
Q 682.876222 256.836511 682.61216 256.700573 
Q 682.34966 256.563073 682.002785 256.563073 
Q 681.65591 256.563073 681.391847 256.700573 
Q 681.129347 256.836511 680.984035 257.084948 
Q 680.840285 257.333386 680.840285 257.661511 
L 680.840285 257.734948 
Q 680.840285 258.056823 680.984035 258.300573 
Q 681.129347 258.544323 681.391847 258.678698 
Q 681.65591 258.813073 682.002785 258.813073 
z
M 682.002785 255.605261 
Q 682.301222 255.605261 682.529347 255.477136 
Q 682.759035 255.347448 682.885597 255.108386 
Q 683.013722 254.867761 683.013722 254.555261 
L 683.013722 254.488073 
Q 683.013722 254.189636 682.885597 253.959948 
Q 682.759035 253.730261 682.529347 253.606823 
Q 682.301222 253.481823 682.002785 253.481823 
Q 681.704347 253.481823 681.47466 253.606823 
Q 681.246535 253.730261 681.11841 253.959948 
Q 680.991847 254.189636 680.991847 254.492761 
L 680.991847 254.566198 
Q 680.991847 254.872448 681.11841 255.109948 
Q 681.246535 255.347448 681.47466 255.477136 
Q 681.704347 255.605261 682.002785 255.605261 
z
" style="fill: #ffffff"/>
   </g>
   <g id="text_2">
    <path d="M 404.92098 358.210648 
L 405.77098 358.210648 
L 408.388168 365.310648 
L 407.313167 365.310648 
L 405.34598 359.582523 
L 403.378792 365.310648 
L 402.303792 365.310648 
L 404.92098 358.210648 
z
M 403.510042 362.805961 
L 407.24598 362.805961 
L 407.24598 363.752836 
L 403.510042 363.752836 
L 403.510042 362.805961 
z
M 411.029964 365.310648 
L 410.033089 365.310648 
L 410.033089 359.295023 
L 409.022152 359.915336 
L 409.022152 358.884086 
L 410.033089 358.210648 
L 411.029964 358.210648 
L 411.029964 365.310648 
z
M 414.720785 365.384086 
Q 414.077035 365.384086 413.587972 365.140335 
Q 413.100472 364.895023 412.833285 364.448148 
Q 412.56766 364.001273 412.56766 363.410648 
L 412.56766 363.293461 
Q 412.56766 362.762211 412.833285 362.293461 
Q 413.100472 361.824711 413.544222 361.585648 
Q 413.16766 361.379398 412.941097 360.991898 
Q 412.714535 360.602836 412.714535 360.173148 
L 412.714535 360.002836 
Q 412.714535 359.446586 412.962972 359.024711 
Q 413.21141 358.601273 413.666097 358.370023 
Q 414.120785 358.137211 414.720785 358.137211 
Q 415.320785 358.137211 415.775472 358.370023 
Q 416.23016 358.601273 416.478597 359.024711 
Q 416.727035 359.446586 416.727035 360.002836 
L 416.727035 360.173148 
Q 416.727035 360.613773 416.495785 360.99971 
Q 416.264535 361.384086 415.883285 361.585648 
Q 416.331722 361.829398 416.602035 362.296585 
Q 416.87391 362.762211 416.87391 363.293461 
L 416.87391 363.410648 
Q 416.87391 364.001273 416.608285 364.448148 
Q 416.34266 364.895023 415.853597 365.140335 
Q 415.366097 365.384086 414.720785 365.384086 
z
M 414.720785 364.426273 
Q 415.06766 364.426273 415.33016 364.290336 
Q 415.594222 364.152836 415.737972 363.907523 
Q 415.883285 363.660648 415.883285 363.337211 
L 415.883285 363.270023 
Q 415.883285 362.941898 415.737972 362.696586 
Q 415.594222 362.449711 415.33016 362.313773 
Q 415.06766 362.176273 414.720785 362.176273 
Q 414.37391 362.176273 414.109847 362.313773 
Q 413.847347 362.449711 413.702035 362.698148 
Q 413.558285 362.946586 413.558285 363.274711 
L 413.558285 363.348148 
Q 413.558285 363.670023 413.702035 363.913773 
Q 413.847347 364.157523 414.109847 364.291898 
Q 414.37391 364.426273 414.720785 364.426273 
z
M 414.720785 361.21846 
Q 415.019222 361.21846 415.247347 361.090336 
Q 415.477035 360.960648 415.603597 360.721586 
Q 415.731722 360.480961 415.731722 360.168461 
L 415.731722 360.101273 
Q 415.731722 359.802836 415.603597 359.573148 
Q 415.477035 359.34346 415.247347 359.220023 
Q 415.019222 359.095023 414.720785 359.095023 
Q 414.422347 359.095023 414.19266 359.220023 
Q 413.964535 359.34346 413.83641 359.573148 
Q 413.709847 359.802836 413.709847 360.105961 
L 413.709847 360.179398 
Q 413.709847 360.485648 413.83641 360.723148 
Q 413.964535 360.960648 414.19266 361.090336 
Q 414.422347 361.21846 414.720785 361.21846 
z
" style="fill: #ffffff; stroke: #000000"/>
    <path d="M 404.92098 358.210648 
L 405.77098 358.210648 
L 408.388168 365.310648 
L 407.313167 365.310648 
L 405.34598 359.582523 
L 403.378792 365.310648 
L 402.303792 365.310648 
L 404.92098 358.210648 
z
M 403.510042 362.805961 
L 407.24598 362.805961 
L 407.24598 363.752836 
L 403.510042 363.752836 
L 403.510042 362.805961 
z
M 411.029964 365.310648 
L 410.033089 365.310648 
L 410.033089 359.295023 
L 409.022152 359.915336 
L 409.022152 358.884086 
L 410.033089 358.210648 
L 411.029964 358.210648 
L 411.029964 365.310648 
z
M 414.720785 365.384086 
Q 414.077035 365.384086 413.587972 365.140335 
Q 413.100472 364.895023 412.833285 364.448148 
Q 412.56766 364.001273 412.56766 363.410648 
L 412.56766 363.293461 
Q 412.56766 362.762211 412.833285 362.293461 
Q 413.100472 361.824711 413.544222 361.585648 
Q 413.16766 361.379398 412.941097 360.991898 
Q 412.714535 360.602836 412.714535 360.173148 
L 412.714535 360.002836 
Q 412.714535 359.446586 412.962972 359.024711 
Q 413.21141 358.601273 413.666097 358.370023 
Q 414.120785 358.137211 414.720785 358.137211 
Q 415.320785 358.137211 415.775472 358.370023 
Q 416.23016 358.601273 416.478597 359.024711 
Q 416.727035 359.446586 416.727035 360.002836 
L 416.727035 360.173148 
Q 416.727035 360.613773 416.495785 360.99971 
Q 416.264535 361.384086 415.883285 361.585648 
Q 416.331722 361.829398 416.602035 362.296585 
Q 416.87391 362.762211 416.87391 363.293461 
L 416.87391 363.410648 
Q 416.87391 364.001273 416.608285 364.448148 
Q 416.34266 364.895023 415.853597 365.140335 
Q 415.366097 365.384086 414.720785 365.384086 
z
M 414.720785 364.426273 
Q 415.06766 364.426273 415.33016 364.290336 
Q 415.594222 364.152836 415.737972 363.907523 
Q 415.883285 363.660648 415.883285 363.337211 
L 415.883285 363.270023 
Q 415.883285 362.941898 415.737972 362.696586 
Q 415.594222 362.449711 415.33016 362.313773 
Q 415.06766 362.176273 414.720785 362.176273 
Q 414.37391 362.176273 414.109847 362.313773 
Q 413.847347 362.449711 413.702035 362.698148 
Q 413.558285 362.946586 413.558285 363.274711 
L 413.558285 363.348148 
Q 413.558285 363.670023 413.702035 363.913773 
Q 413.847347 364.157523 414.109847 364.291898 
Q 414.37391 364.426273 414.720785 364.426273 
z
M 414.720785 361.21846 
Q 415.019222 361.21846 415.247347 361.090336 
Q 415.477035 360.960648 415.603597 360.721586 
Q 415.731722 360.480961 415.731722 360.168461 
L 415.731722 360.101273 
Q 415.731722 359.802836 415.603597 359.573148 
Q 415.477035 359.34346 415.247347 359.220023 
Q 415.019222 359.095023 414.720785 359.095023 
Q 414.422347 359.095023 414.19266 359.220023 
Q 413.964535 359.34346 413.83641 359.573148 
Q 413.709847 359.802836 413.709847 360.105961 
L 413.709847 360.179398 
Q 413.709847 360.485648 413.83641 360.723148 
Q 413.964535 360.960648 414.19266 361.090336 
Q 414.422347 361.21846 414.720785 361.21846 
z
" style="fill: #ffffff"/>
   </g>
   <g id="text_3">
    <path d="M 309.50298 410.601448 
L 310.35298 410.601448 
L 312.970168 417.701448 
L 311.895167 417.701448 
L 309.92798 411.973323 
L 307.960792 417.701448 
L 306.885792 417.701448 
L 309.50298 410.601448 
z
M 308.092042 415.196761 
L 311.82798 415.196761 
L 311.82798 416.143636 
L 308.092042 416.143636 
L 308.092042 415.196761 
z
M 315.611964 417.701448 
L 314.615089 417.701448 
L 314.615089 411.685823 
L 313.604152 412.306136 
L 313.604152 411.274886 
L 314.615089 410.601448 
L 315.611964 410.601448 
L 315.611964 417.701448 
z
M 319.302785 417.774886 
Q 318.659035 417.774886 318.169972 417.531136 
Q 317.682472 417.285823 317.415285 416.838948 
Q 317.14966 416.392073 317.14966 415.801448 
L 317.14966 415.684261 
Q 317.14966 415.153011 317.415285 414.684261 
Q 317.682472 414.215511 318.126222 413.976448 
Q 317.74966 413.770198 317.523097 413.382698 
Q 317.296535 412.993636 317.296535 412.563948 
L 317.296535 412.393636 
Q 317.296535 411.837386 317.544972 411.415511 
Q 317.79341 410.992073 318.248097 410.760823 
Q 318.702785 410.528011 319.302785 410.528011 
Q 319.902785 410.528011 320.357472 410.760823 
Q 320.81216 410.992073 321.060597 411.415511 
Q 321.309035 411.837386 321.309035 412.393636 
L 321.309035 412.563948 
Q 321.309035 413.004573 321.077785 413.390511 
Q 320.846535 413.774886 320.465285 413.976448 
Q 320.913722 414.220198 321.184035 414.687386 
Q 321.45591 415.153011 321.45591 415.684261 
L 321.45591 415.801448 
Q 321.45591 416.392073 321.190285 416.838948 
Q 320.92466 417.285823 320.435597 417.531136 
Q 319.948097 417.774886 319.302785 417.774886 
z
M 319.302785 416.817073 
Q 319.64966 416.817073 319.91216 416.681136 
Q 320.176222 416.543636 320.319972 416.298323 
Q 320.465285 416.051448 320.465285 415.728011 
L 320.465285 415.660823 
Q 320.465285 415.332698 320.319972 415.087386 
Q 320.176222 414.840511 319.91216 414.704573 
Q 319.64966 414.567073 319.302785 414.567073 
Q 318.95591 414.567073 318.691847 414.704573 
Q 318.429347 414.840511 318.284035 415.088948 
Q 318.140285 415.337386 318.140285 415.665511 
L 318.140285 415.738948 
Q 318.140285 416.060823 318.284035 416.304573 
Q 318.429347 416.548323 318.691847 416.682698 
Q 318.95591 416.817073 319.302785 416.817073 
z
M 319.302785 413.609261 
Q 319.601222 413.609261 319.829347 413.481136 
Q 320.059035 413.351448 320.185597 413.112386 
Q 320.313722 412.871761 320.313722 412.559261 
L 320.313722 412.492073 
Q 320.313722 412.193636 320.185597 411.963948 
Q 320.059035 411.734261 319.829347 411.610823 
Q 319.601222 411.485823 319.302785 411.485823 
Q 319.004347 411.485823 318.77466 411.610823 
Q 318.546535 411.734261 318.41841 411.963948 
Q 318.291847 412.193636 318.291847 412.496761 
L 318.291847 412.570198 
Q 318.291847 412.876448 318.41841 413.113948 
Q 318.546535 413.351448 318.77466 413.481136 
Q 319.004347 413.609261 319.302785 413.609261 
z
" style="fill: #ffffff; stroke: #000000"/>
    <path d="M 309.50298 410.601448 
L 310.35298 410.601448 
L 312.970168 417.701448 
L 311.895167 417.701448 
L 309.92798 411.973323 
L 307.960792 417.701448 
L 306.885792 417.701448 
L 309.50298 410.601448 
z
M 308.092042 415.196761 
L 311.82798 415.196761 
L 311.82798 416.143636 
L 308.092042 416.143636 
L 308.092042 415.196761 
z
M 315.611964 417.701448 
L 314.615089 417.701448 
L 314.615089 411.685823 
L 313.604152 412.306136 
L 313.604152 411.274886 
L 314.615089 410.601448 
L 315.611964 410.601448 
L 315.611964 417.701448 
z
M 319.302785 417.774886 
Q 318.659035 417.774886 318.169972 417.531136 
Q 317.682472 417.285823 317.415285 416.838948 
Q 317.14966 416.392073 317.14966 415.801448 
L 317.14966 415.684261 
Q 317.14966 415.153011 317.415285 414.684261 
Q 317.682472 414.215511 318.126222 413.976448 
Q 317.74966 413.770198 317.523097 413.382698 
Q 317.296535 412.993636 317.296535 412.563948 
L 317.296535 412.393636 
Q 317.296535 411.837386 317.544972 411.415511 
Q 317.79341 410.992073 318.248097 410.760823 
Q 318.702785 410.528011 319.302785 410.528011 
Q 319.902785 410.528011 320.357472 410.760823 
Q 320.81216 410.992073 321.060597 411.415511 
Q 321.309035 411.837386 321.309035 412.393636 
L 321.309035 412.563948 
Q 321.309035 413.004573 321.077785 413.390511 
Q 320.846535 413.774886 320.465285 413.976448 
Q 320.913722 414.220198 321.184035 414.687386 
Q 321.45591 415.153011 321.45591 415.684261 
L 321.45591 415.801448 
Q 321.45591 416.392073 321.190285 416.838948 
Q 320.92466 417.285823 320.435597 417.531136 
Q 319.948097 417.774886 319.302785 417.774886 
z
M 319.302785 416.817073 
Q 319.64966 416.817073 319.91216 416.681136 
Q 320.176222 416.543636 320.319972 416.298323 
Q 320.465285 416.051448 320.465285 415.728011 
L 320.465285 415.660823 
Q 320.465285 415.332698 320.319972 415.087386 
Q 320.176222 414.840511 319.91216 414.704573 
Q 319.64966 414.567073 319.302785 414.567073 
Q 318.95591 414.567073 318.691847 414.704573 
Q 318.429347 414.840511 318.284035 415.088948 
Q 318.140285 415.337386 318.140285 415.665511 
L 318.140285 415.738948 
Q 318.140285 416.060823 318.284035 416.304573 
Q 318.429347 416.548323 318.691847 416.682698 
Q 318.95591 416.817073 319.302785 416.817073 
z
M 319.302785 413.609261 
Q 319.601222 413.609261 319.829347 413.481136 
Q 320.059035 413.351448 320.185597 413.112386 
Q 320.313722 412.871761 320.313722 412.559261 
L 320.313722 412.492073 
Q 320.313722 412.193636 320.185597 411.963948 
Q 320.059035 411.734261 319.829347 411.610823 
Q 319.601222 411.485823 319.302785 411.485823 
Q 319.004347 411.485823 318.77466 411.610823 
Q 318.546535 411.734261 318.41841 411.963948 
Q 318.291847 412.193636 318.291847 412.496761 
L 318.291847 412.570198 
Q 318.291847 412.876448 318.41841 413.113948 
Q 318.546535 413.351448 318.77466 413.481136 
Q 319.004347 413.609261 319.302785 413.609261 
z
" style="fill: #ffffff"/>
   </g>
  </g>
 </g>
 <defs>
  <clipPath id="p21468fb652">
   <rect x="144" y="77.76" width="892.8" height="498.96"/>
  </clipPath>
 </defs>
</svg>
