<?xml version="1.0" encoding="utf-8" standalone="no"?>
<!DOCTYPE svg PUBLIC "-//W3C//DTD SVG 1.1//EN"
  "http://www.w3.org/Graphics/SVG/1.1/DTD/svg11.dtd">
<svg xmlns:xlink="http://www.w3.org/1999/xlink" width="1152pt" height="648pt" viewBox="0 0 1152 648" xmlns="http://www.w3.org/2000/svg" version="1.1">
 <metadata>
  <rdf:RDF xmlns:dc="http://purl.org/dc/elements/1.1/" xmlns:cc="http://creativecommons.org/ns#" xmlns:rdf="http://www.w3.org/1999/02/22-rdf-syntax-ns#">
   <cc:Work>
    <dc:type rdf:resource="http://purl.org/dc/dcmitype/StillImage"/>
    <dc:date>2024-10-09T18:10:38.868787</dc:date>
    <dc:format>image/svg+xml</dc:format>
    <dc:creator>
     <cc:Agent>
      <dc:title>Matplotlib v3.8.1, https://matplotlib.org/</dc:title>
     </cc:Agent>
    </dc:creator>
   </cc:Work>
  </rdf:RDF>
 </metadata>
 <defs>
  <style type="text/css">*{stroke-linejoin: round; stroke-linecap: butt}</style>
 </defs>
 <g id="figure_1">
  <g id="patch_1">
   <path d="M 0 648 
L 1152 648 
L 1152 0 
L 0 0 
L 0 648 
z
" style="fill: none"/>
  </g>
  <g id="axes_1">
   <g id="line2d_1">
    <path d="M 261.18 495.702185 
L 266.934727 490.840702 
L 272.689455 486.092143 
L 278.444182 481.45459 
L 284.198909 476.926122 
L 289.953636 472.504814 
L 295.708364 468.188742 
L 301.463091 463.975984 
L 307.217818 459.864623 
L 312.972545 455.852745 
L 318.727273 451.938448 
L 324.482 448.119838 
L 330.236727 444.39503 
L 335.991455 440.762154 
L 341.746182 437.219354 
L 347.500909 433.764789 
L 353.255636 430.396634 
L 359.010364 427.113082 
L 364.765091 423.912345 
L 370.519818 420.792654 
L 376.274545 417.752261 
L 382.029273 414.78944 
L 387.784 411.902485 
L 393.538727 409.089713 
L 399.293455 406.349466 
L 405.048182 403.680109 
L 410.802909 401.080028 
L 416.557636 398.547639 
L 422.312364 396.081379 
L 428.067091 393.67971 
L 433.821818 391.341121 
L 439.576545 389.064125 
L 445.331273 386.847264 
L 451.086 384.689101 
L 456.840727 382.588228 
L 462.595455 380.543261 
L 468.350182 378.552844 
L 474.104909 376.615645 
L 479.859636 374.730357 
L 485.614364 372.895702 
L 491.369091 371.110423 
L 497.123818 369.373292 
L 502.878545 367.683104 
L 508.633273 366.03868 
L 514.388 364.438864 
L 520.142727 362.882527 
L 525.897455 361.368563 
L 531.652182 359.895888 
L 537.406909 358.463446 
L 543.161636 357.0702 
L 548.916364 355.715139 
L 554.671091 354.397272 
L 560.425818 353.115635 
L 566.180545 351.869281 
L 571.935273 350.657288 
L 577.69 349.478754 
L 583.444727 348.332799 
L 589.199455 347.218563 
L 594.954182 346.135207 
L 600.708909 345.081912 
L 606.463636 344.057878 
L 612.218364 343.062324 
L 617.973091 342.094491 
L 623.727818 341.153634 
L 629.482545 340.23903 
L 635.237273 339.349973 
L 640.992 338.485772 
L 646.746727 337.645757 
L 652.501455 336.829273 
L 658.256182 336.035681 
L 664.010909 335.26436 
L 669.765636 334.514702 
L 675.520364 333.786116 
L 681.275091 333.078028 
L 687.029818 332.389875 
L 692.784545 331.721112 
L 698.539273 331.071206 
L 704.294 330.439638 
L 710.048727 329.825904 
L 715.803455 329.229511 
L 721.558182 328.649981 
L 727.312909 328.086847 
L 733.067636 327.539655 
L 738.822364 327.007964 
L 744.577091 326.491343 
L 750.331818 325.989373 
L 756.086545 325.501646 
L 761.841273 325.027766 
L 767.596 324.567347 
L 773.350727 324.120013 
L 779.105455 323.685398 
L 784.860182 323.263147 
L 790.614909 322.852913 
L 796.369636 322.45436 
L 802.124364 322.067159 
L 807.879091 321.690993 
L 813.633818 321.325551 
L 819.388545 320.970532 
L 825.143273 320.625641 
L 830.898 320.290595 
" clip-path="url(#p9303cd0c3c)" style="fill: none; stroke: #f2a179; stroke-width: 3; stroke-linecap: round"/>
   </g>
   <g id="text_1">
    <path d="M 838.343605 320.990288 
L 839.949855 320.990288 
Q 840.735793 320.990288 841.167042 320.582476 
Q 841.599855 320.174663 841.599855 319.432476 
L 841.599855 317.341851 
Q 841.599855 316.599663 841.167042 316.191851 
Q 840.735793 315.784038 839.949855 315.784038 
L 838.343605 315.784038 
L 838.343605 314.837163 
L 839.920168 314.837163 
Q 840.774855 314.837163 841.379542 315.135601 
Q 841.985793 315.432476 842.30298 316.004351 
Q 842.620167 316.576226 842.620167 317.380913 
L 842.620167 319.393413 
Q 842.620167 320.198101 842.30298 320.769976 
Q 841.985793 321.341851 841.37798 321.640288 
Q 840.770167 321.937163 839.91548 321.937163 
L 838.343605 321.937163 
L 838.343605 320.990288 
z
M 837.670168 314.837163 
L 838.66548 314.837163 
L 838.66548 321.937163 
L 837.670168 321.937163 
L 837.670168 314.837163 
z
M 846.599855 318.412163 
L 846.595168 318.587163 
Q 846.473292 318.812163 846.226418 318.916851 
Q 845.979542 319.021538 845.643605 319.021538 
Q 845.135792 319.021538 844.749855 318.763726 
Q 844.363917 318.504351 844.151417 318.034038 
Q 843.938918 317.562163 843.938918 316.941851 
L 843.938918 316.937163 
Q 843.938918 316.248101 844.170168 315.760601 
Q 844.40298 315.271538 844.849855 315.018413 
Q 845.29673 314.763726 845.92173 314.763726 
Q 846.54673 314.763726 846.99048 315.023101 
Q 847.435793 315.282476 847.667042 315.776226 
Q 847.898293 316.268413 847.898293 316.962163 
L 847.898293 316.966851 
Q 847.898293 317.346538 847.799855 317.779351 
Q 847.70298 318.212163 847.523293 318.635601 
Q 847.493605 318.699663 847.463917 318.765288 
Q 847.435793 318.830913 847.401417 318.894976 
L 845.887355 321.937163 
L 844.812355 321.937163 
L 846.599855 318.412163 
z
M 845.92173 318.113726 
Q 846.39048 318.113726 846.64673 317.796538 
Q 846.90298 317.479351 846.90298 316.902788 
L 846.90298 316.898101 
Q 846.90298 316.337163 846.64673 316.029351 
Q 846.39048 315.721538 845.92173 315.721538 
Q 845.448292 315.721538 845.192042 316.029351 
Q 844.935793 316.337163 844.935793 316.902788 
L 844.935793 316.907476 
Q 844.935793 317.484038 845.192042 317.799663 
Q 845.448292 318.113726 845.92173 318.113726 
z
M 849.109816 321.073101 
L 851.584816 317.771538 
Q 851.800441 317.488726 851.919191 317.184038 
Q 852.039503 316.877788 852.039503 316.615288 
L 852.039503 316.604351 
Q 852.039503 316.180913 851.789503 315.946538 
Q 851.541066 315.712163 851.083253 315.712163 
Q 850.647316 315.712163 850.378566 315.968413 
Q 850.111378 316.224663 850.052003 316.693413 
L 850.052003 316.698101 
L 849.022316 316.698101 
L 849.022316 316.693413 
Q 849.109816 316.082476 849.380128 315.651226 
Q 849.652003 315.218413 850.081691 314.991851 
Q 850.511378 314.763726 851.072316 314.763726 
Q 851.708253 314.763726 852.156691 314.980913 
Q 852.606691 315.198101 852.841066 315.613726 
Q 853.075441 316.029351 853.075441 316.615288 
L 853.075441 316.619976 
Q 853.075441 316.994976 852.919191 317.405913 
Q 852.762941 317.815288 852.483253 318.196538 
L 850.428566 320.990288 
L 853.114503 320.990288 
L 853.114503 321.937163 
L 849.109816 321.937163 
L 849.109816 321.073101 
z
M 856.410207 322.010601 
Q 855.413332 322.010601 854.897707 321.479351 
Q 854.383644 320.946538 854.383644 319.993413 
L 854.383644 316.766851 
Q 854.383644 315.809038 854.900832 315.279351 
Q 855.418019 314.749663 856.410207 314.749663 
Q 857.405519 314.749663 857.921144 315.277788 
Q 858.436769 315.804351 858.436769 316.766851 
L 858.436769 319.993413 
Q 858.436769 320.951226 857.918019 321.480913 
Q 857.400832 322.010601 856.410207 322.010601 
z
M 856.410207 321.063726 
Q 856.936769 321.063726 857.188332 320.787163 
Q 857.439894 320.510601 857.439894 319.993413 
L 857.439894 316.766851 
Q 857.439894 316.248101 857.189894 315.973101 
Q 856.941457 315.696538 856.410207 315.696538 
Q 855.877394 315.696538 855.627394 315.973101 
Q 855.378957 316.248101 855.378957 316.766851 
L 855.378957 319.993413 
Q 855.378957 320.510601 855.630519 320.787163 
Q 855.882082 321.063726 856.410207 321.063726 
z
M 861.927785 322.010601 
Q 860.93091 322.010601 860.415285 321.479351 
Q 859.901222 320.946538 859.901222 319.993413 
L 859.901222 316.766851 
Q 859.901222 315.809038 860.41841 315.279351 
Q 860.935597 314.749663 861.927785 314.749663 
Q 862.923097 314.749663 863.438722 315.277788 
Q 863.954347 315.804351 863.954347 316.766851 
L 863.954347 319.993413 
Q 863.954347 320.951226 863.435597 321.480913 
Q 862.91841 322.010601 861.927785 322.010601 
z
M 861.927785 321.063726 
Q 862.454347 321.063726 862.70591 320.787163 
Q 862.957472 320.510601 862.957472 319.993413 
L 862.957472 316.766851 
Q 862.957472 316.248101 862.707472 315.973101 
Q 862.459035 315.696538 861.927785 315.696538 
Q 861.394972 315.696538 861.144972 315.973101 
Q 860.896535 316.248101 860.896535 316.766851 
L 860.896535 319.993413 
Q 860.896535 320.510601 861.148097 320.787163 
Q 861.39966 321.063726 861.927785 321.063726 
z
M 869.334425 318.191851 
L 869.334425 319.138726 
L 865.370363 319.138726 
L 865.370363 318.191851 
L 869.334425 318.191851 
z
M 867.85005 320.648101 
L 866.854738 320.648101 
L 866.854738 316.682476 
L 867.85005 316.682476 
L 867.85005 320.648101 
z
" style="fill: #ffffff; stroke: #000000"/>
    <path d="M 838.343605 320.990288 
L 839.949855 320.990288 
Q 840.735793 320.990288 841.167042 320.582476 
Q 841.599855 320.174663 841.599855 319.432476 
L 841.599855 317.341851 
Q 841.599855 316.599663 841.167042 316.191851 
Q 840.735793 315.784038 839.949855 315.784038 
L 838.343605 315.784038 
L 838.343605 314.837163 
L 839.920168 314.837163 
Q 840.774855 314.837163 841.379542 315.135601 
Q 841.985793 315.432476 842.30298 316.004351 
Q 842.620167 316.576226 842.620167 317.380913 
L 842.620167 319.393413 
Q 842.620167 320.198101 842.30298 320.769976 
Q 841.985793 321.341851 841.37798 321.640288 
Q 840.770167 321.937163 839.91548 321.937163 
L 838.343605 321.937163 
L 838.343605 320.990288 
z
M 837.670168 314.837163 
L 838.66548 314.837163 
L 838.66548 321.937163 
L 837.670168 321.937163 
L 837.670168 314.837163 
z
M 846.599855 318.412163 
L 846.595168 318.587163 
Q 846.473292 318.812163 846.226418 318.916851 
Q 845.979542 319.021538 845.643605 319.021538 
Q 845.135792 319.021538 844.749855 318.763726 
Q 844.363917 318.504351 844.151417 318.034038 
Q 843.938918 317.562163 843.938918 316.941851 
L 843.938918 316.937163 
Q 843.938918 316.248101 844.170168 315.760601 
Q 844.40298 315.271538 844.849855 315.018413 
Q 845.29673 314.763726 845.92173 314.763726 
Q 846.54673 314.763726 846.99048 315.023101 
Q 847.435793 315.282476 847.667042 315.776226 
Q 847.898293 316.268413 847.898293 316.962163 
L 847.898293 316.966851 
Q 847.898293 317.346538 847.799855 317.779351 
Q 847.70298 318.212163 847.523293 318.635601 
Q 847.493605 318.699663 847.463917 318.765288 
Q 847.435793 318.830913 847.401417 318.894976 
L 845.887355 321.937163 
L 844.812355 321.937163 
L 846.599855 318.412163 
z
M 845.92173 318.113726 
Q 846.39048 318.113726 846.64673 317.796538 
Q 846.90298 317.479351 846.90298 316.902788 
L 846.90298 316.898101 
Q 846.90298 316.337163 846.64673 316.029351 
Q 846.39048 315.721538 845.92173 315.721538 
Q 845.448292 315.721538 845.192042 316.029351 
Q 844.935793 316.337163 844.935793 316.902788 
L 844.935793 316.907476 
Q 844.935793 317.484038 845.192042 317.799663 
Q 845.448292 318.113726 845.92173 318.113726 
z
M 849.109816 321.073101 
L 851.584816 317.771538 
Q 851.800441 317.488726 851.919191 317.184038 
Q 852.039503 316.877788 852.039503 316.615288 
L 852.039503 316.604351 
Q 852.039503 316.180913 851.789503 315.946538 
Q 851.541066 315.712163 851.083253 315.712163 
Q 850.647316 315.712163 850.378566 315.968413 
Q 850.111378 316.224663 850.052003 316.693413 
L 850.052003 316.698101 
L 849.022316 316.698101 
L 849.022316 316.693413 
Q 849.109816 316.082476 849.380128 315.651226 
Q 849.652003 315.218413 850.081691 314.991851 
Q 850.511378 314.763726 851.072316 314.763726 
Q 851.708253 314.763726 852.156691 314.980913 
Q 852.606691 315.198101 852.841066 315.613726 
Q 853.075441 316.029351 853.075441 316.615288 
L 853.075441 316.619976 
Q 853.075441 316.994976 852.919191 317.405913 
Q 852.762941 317.815288 852.483253 318.196538 
L 850.428566 320.990288 
L 853.114503 320.990288 
L 853.114503 321.937163 
L 849.109816 321.937163 
L 849.109816 321.073101 
z
M 856.410207 322.010601 
Q 855.413332 322.010601 854.897707 321.479351 
Q 854.383644 320.946538 854.383644 319.993413 
L 854.383644 316.766851 
Q 854.383644 315.809038 854.900832 315.279351 
Q 855.418019 314.749663 856.410207 314.749663 
Q 857.405519 314.749663 857.921144 315.277788 
Q 858.436769 315.804351 858.436769 316.766851 
L 858.436769 319.993413 
Q 858.436769 320.951226 857.918019 321.480913 
Q 857.400832 322.010601 856.410207 322.010601 
z
M 856.410207 321.063726 
Q 856.936769 321.063726 857.188332 320.787163 
Q 857.439894 320.510601 857.439894 319.993413 
L 857.439894 316.766851 
Q 857.439894 316.248101 857.189894 315.973101 
Q 856.941457 315.696538 856.410207 315.696538 
Q 855.877394 315.696538 855.627394 315.973101 
Q 855.378957 316.248101 855.378957 316.766851 
L 855.378957 319.993413 
Q 855.378957 320.510601 855.630519 320.787163 
Q 855.882082 321.063726 856.410207 321.063726 
z
M 861.927785 322.010601 
Q 860.93091 322.010601 860.415285 321.479351 
Q 859.901222 320.946538 859.901222 319.993413 
L 859.901222 316.766851 
Q 859.901222 315.809038 860.41841 315.279351 
Q 860.935597 314.749663 861.927785 314.749663 
Q 862.923097 314.749663 863.438722 315.277788 
Q 863.954347 315.804351 863.954347 316.766851 
L 863.954347 319.993413 
Q 863.954347 320.951226 863.435597 321.480913 
Q 862.91841 322.010601 861.927785 322.010601 
z
M 861.927785 321.063726 
Q 862.454347 321.063726 862.70591 320.787163 
Q 862.957472 320.510601 862.957472 319.993413 
L 862.957472 316.766851 
Q 862.957472 316.248101 862.707472 315.973101 
Q 862.459035 315.696538 861.927785 315.696538 
Q 861.394972 315.696538 861.144972 315.973101 
Q 860.896535 316.248101 860.896535 316.766851 
L 860.896535 319.993413 
Q 860.896535 320.510601 861.148097 320.787163 
Q 861.39966 321.063726 861.927785 321.063726 
z
M 869.334425 318.191851 
L 869.334425 319.138726 
L 865.370363 319.138726 
L 865.370363 318.191851 
L 869.334425 318.191851 
z
M 867.85005 320.648101 
L 866.854738 320.648101 
L 866.854738 316.682476 
L 867.85005 316.682476 
L 867.85005 320.648101 
z
" style="fill: #ffffff"/>
   </g>
  </g>
 </g>
 <defs>
  <clipPath id="p9303cd0c3c">
   <rect x="144" y="77.76" width="892.8" height="498.96"/>
  </clipPath>
 </defs>
</svg>
