<?xml version="1.0" encoding="utf-8" standalone="no"?>
<!DOCTYPE svg PUBLIC "-//W3C//DTD SVG 1.1//EN"
  "http://www.w3.org/Graphics/SVG/1.1/DTD/svg11.dtd">
<svg xmlns:xlink="http://www.w3.org/1999/xlink" width="1152pt" height="648pt" viewBox="0 0 1152 648" xmlns="http://www.w3.org/2000/svg" version="1.1">
 <metadata>
  <rdf:RDF xmlns:dc="http://purl.org/dc/elements/1.1/" xmlns:cc="http://creativecommons.org/ns#" xmlns:rdf="http://www.w3.org/1999/02/22-rdf-syntax-ns#">
   <cc:Work>
    <dc:type rdf:resource="http://purl.org/dc/dcmitype/StillImage"/>
    <dc:date>2024-10-09T18:10:38.850155</dc:date>
    <dc:format>image/svg+xml</dc:format>
    <dc:creator>
     <cc:Agent>
      <dc:title>Matplotlib v3.8.1, https://matplotlib.org/</dc:title>
     </cc:Agent>
    </dc:creator>
   </cc:Work>
  </rdf:RDF>
 </metadata>
 <defs>
  <style type="text/css">*{stroke-linejoin: round; stroke-linecap: butt}</style>
 </defs>
 <g id="figure_1">
  <g id="patch_1">
   <path d="M 0 648 
L 1152 648 
L 1152 0 
L 0 0 
L 0 648 
z
" style="fill: none"/>
  </g>
  <g id="axes_1">
   <g id="line2d_1">
    <path d="M 248.904 492.419069 
L 253.971091 487.56906 
L 259.038182 482.776987 
L 264.105273 478.043094 
L 269.172364 473.367585 
L 274.239455 468.75063 
L 279.306545 464.192364 
L 284.373636 459.692886 
L 289.440727 455.25226 
L 294.507818 450.870519 
L 299.574909 446.547663 
L 304.642 442.28366 
L 309.709091 438.078448 
L 314.776182 433.931934 
L 319.843273 429.843998 
L 324.910364 425.814491 
L 329.977455 421.843238 
L 335.044545 417.930036 
L 340.111636 414.07466 
L 345.178727 410.276857 
L 350.245818 406.536354 
L 355.312909 402.852854 
L 360.38 399.226038 
L 365.447091 395.655568 
L 370.514182 392.141087 
L 375.581273 388.682215 
L 380.648364 385.27856 
L 385.715455 381.92971 
L 390.782545 378.635236 
L 395.849636 375.394695 
L 400.916727 372.207631 
L 405.983818 369.073572 
L 411.050909 365.992035 
L 416.118 362.962524 
L 421.185091 359.984533 
L 426.252182 357.057545 
L 431.319273 354.181034 
L 436.386364 351.354463 
L 441.453455 348.57729 
L 446.520545 345.848963 
L 451.587636 343.168924 
L 456.654727 340.536611 
L 461.721818 337.951452 
L 466.788909 335.412875 
L 471.856 332.9203 
L 476.923091 330.473145 
L 481.990182 328.070825 
L 487.057273 325.712751 
L 492.124364 323.398335 
L 497.191455 321.126983 
L 502.258545 318.898104 
L 507.325636 316.711104 
L 512.392727 314.56539 
L 517.459818 312.460368 
L 522.526909 310.395446 
L 527.594 308.370032 
L 532.661091 306.383536 
L 537.728182 304.435371 
L 542.795273 302.524949 
L 547.862364 300.651686 
L 552.929455 298.815003 
L 557.996545 297.014321 
L 563.063636 295.249064 
L 568.130727 293.518663 
L 573.197818 291.82255 
L 578.264909 290.160162 
L 583.332 288.530939 
L 588.399091 286.934328 
L 593.466182 285.369778 
L 598.533273 283.836744 
L 603.600364 282.334687 
L 608.667455 280.863072 
L 613.734545 279.421368 
L 618.801636 278.009053 
L 623.868727 276.625607 
L 628.935818 275.270518 
L 634.002909 273.943279 
L 639.07 272.643388 
L 644.137091 271.370349 
L 649.204182 270.123675 
L 654.271273 268.902881 
L 659.338364 267.70749 
L 664.405455 266.537031 
L 669.472545 265.39104 
L 674.539636 264.269058 
L 679.606727 263.170633 
L 684.673818 262.095319 
L 689.740909 261.042676 
L 694.808 260.012271 
L 699.875091 259.003678 
L 704.942182 258.016475 
L 710.009273 257.050248 
L 715.076364 256.104588 
L 720.143455 255.179096 
L 725.210545 254.273374 
L 730.277636 253.387033 
L 735.344727 252.519691 
L 740.411818 251.670971 
L 745.478909 250.840501 
L 750.546 250.027917 
" clip-path="url(#pdf9825fa6e)" style="fill: none; stroke: #f27130; stroke-width: 3; stroke-linecap: round"/>
   </g>
   <g id="text_1">
    <path d="M 757.991605 250.72761 
L 759.597855 250.72761 
Q 760.383793 250.72761 760.815043 250.319798 
Q 761.247855 249.911985 761.247855 249.169798 
L 761.247855 247.079173 
Q 761.247855 246.336985 760.815043 245.929173 
Q 760.383793 245.52136 759.597855 245.52136 
L 757.991605 245.52136 
L 757.991605 244.574485 
L 759.568168 244.574485 
Q 760.422855 244.574485 761.027542 244.872923 
Q 761.633793 245.169798 761.95098 245.741673 
Q 762.268168 246.313548 762.268168 247.118235 
L 762.268168 249.130735 
Q 762.268168 249.935423 761.95098 250.507298 
Q 761.633793 251.079173 761.02598 251.37761 
Q 760.418167 251.674485 759.56348 251.674485 
L 757.991605 251.674485 
L 757.991605 250.72761 
z
M 757.318168 244.574485 
L 758.31348 244.574485 
L 758.31348 251.674485 
L 757.318168 251.674485 
L 757.318168 244.574485 
z
M 766.247855 248.149485 
L 766.243168 248.324485 
Q 766.121292 248.549485 765.874418 248.654173 
Q 765.627543 248.75886 765.291605 248.75886 
Q 764.783793 248.75886 764.397855 248.501048 
Q 764.011917 248.241673 763.799418 247.77136 
Q 763.586918 247.299485 763.586918 246.679173 
L 763.586918 246.674485 
Q 763.586918 245.985423 763.818168 245.497923 
Q 764.05098 245.00886 764.497855 244.755735 
Q 764.94473 244.501048 765.56973 244.501048 
Q 766.19473 244.501048 766.63848 244.760423 
Q 767.083793 245.019798 767.315043 245.513548 
Q 767.546293 246.005735 767.546293 246.699485 
L 767.546293 246.704173 
Q 767.546293 247.08386 767.447855 247.516673 
Q 767.35098 247.949485 767.171293 248.372923 
Q 767.141605 248.436985 767.111918 248.50261 
Q 767.083793 248.568235 767.049418 248.632298 
L 765.535355 251.674485 
L 764.460355 251.674485 
L 766.247855 248.149485 
z
M 765.56973 247.851048 
Q 766.03848 247.851048 766.29473 247.53386 
Q 766.55098 247.216673 766.55098 246.64011 
L 766.55098 246.635423 
Q 766.55098 246.074485 766.29473 245.766673 
Q 766.03848 245.45886 765.56973 245.45886 
Q 765.096293 245.45886 764.840042 245.766673 
Q 764.583793 246.074485 764.583793 246.64011 
L 764.583793 246.644798 
Q 764.583793 247.22136 764.840042 247.536985 
Q 765.096293 247.851048 765.56973 247.851048 
z
M 770.701566 251.747923 
Q 770.106253 251.747923 769.651566 251.530735 
Q 769.196878 251.313548 768.920316 250.901048 
Q 768.645316 250.488548 768.571878 249.907298 
L 768.571878 249.907298 
L 769.587503 249.907298 
L 769.587503 249.907298 
Q 769.631253 250.20886 769.778128 250.404173 
Q 769.925003 250.599485 770.156253 250.694798 
Q 770.389066 250.79011 770.701566 250.79011 
Q 771.193753 250.79011 771.467191 250.52761 
Q 771.740628 250.263548 771.740628 249.785423 
L 771.740628 249.569798 
Q 771.740628 249.036985 771.481253 248.747923 
Q 771.223441 248.457298 770.750003 248.457298 
L 770.246878 248.457298 
L 770.246878 247.50886 
L 770.750003 247.50886 
Q 771.165628 247.50886 771.393753 247.260423 
Q 771.623441 247.011985 771.623441 246.557298 
L 771.623441 246.336985 
Q 771.623441 245.918235 771.381253 245.688548 
Q 771.140628 245.45886 770.696878 245.45886 
Q 770.442191 245.45886 770.242191 245.554173 
Q 770.042191 245.649485 769.903128 245.847923 
Q 769.764066 246.044798 769.700003 246.341673 
L 769.700003 246.341673 
L 768.689066 246.341673 
L 768.689066 246.341673 
Q 768.787503 245.761985 769.057816 245.34636 
Q 769.329691 244.930735 769.743753 244.716673 
Q 770.159378 244.501048 770.696878 244.501048 
Q 771.614066 244.501048 772.117191 244.985423 
Q 772.620316 245.468235 772.620316 246.347923 
L 772.620316 246.46511 
Q 772.620316 246.99636 772.331253 247.391673 
Q 772.043753 247.786985 771.517191 247.968235 
Q 772.098441 248.094798 772.417191 248.54011 
Q 772.737503 248.98386 772.737503 249.672923 
L 772.737503 249.79011 
Q 772.737503 250.410423 772.498441 250.849485 
Q 772.259378 251.288548 771.801566 251.518235 
Q 771.345316 251.747923 770.701566 251.747923 
z
M 776.180277 251.747923 
Q 775.183402 251.747923 774.667777 251.216673 
Q 774.153714 250.68386 774.153714 249.730735 
L 774.153714 246.504173 
Q 774.153714 245.54636 774.670902 245.016673 
Q 775.188089 244.486985 776.180277 244.486985 
Q 777.175589 244.486985 777.691214 245.01511 
Q 778.206839 245.541673 778.206839 246.504173 
L 778.206839 249.730735 
Q 778.206839 250.688548 777.688089 251.218235 
Q 777.170902 251.747923 776.180277 251.747923 
z
M 776.180277 250.801048 
Q 776.706839 250.801048 776.958402 250.524485 
Q 777.209964 250.247923 777.209964 249.730735 
L 777.209964 246.504173 
Q 777.209964 245.985423 776.959964 245.710423 
Q 776.711527 245.43386 776.180277 245.43386 
Q 775.647464 245.43386 775.397464 245.710423 
Q 775.149027 245.985423 775.149027 246.504173 
L 775.149027 249.730735 
Q 775.149027 250.247923 775.400589 250.524485 
Q 775.652152 250.801048 776.180277 250.801048 
z
M 781.697855 251.747923 
Q 780.70098 251.747923 780.185355 251.216673 
Q 779.671293 250.68386 779.671293 249.730735 
L 779.671293 246.504173 
Q 779.671293 245.54636 780.18848 245.016673 
Q 780.705668 244.486985 781.697855 244.486985 
Q 782.693168 244.486985 783.208793 245.01511 
Q 783.724418 245.541673 783.724418 246.504173 
L 783.724418 249.730735 
Q 783.724418 250.688548 783.205668 251.218235 
Q 782.68848 251.747923 781.697855 251.747923 
z
M 781.697855 250.801048 
Q 782.224418 250.801048 782.47598 250.524485 
Q 782.727543 250.247923 782.727543 249.730735 
L 782.727543 246.504173 
Q 782.727543 245.985423 782.477543 245.710423 
Q 782.229105 245.43386 781.697855 245.43386 
Q 781.165043 245.43386 780.915043 245.710423 
Q 780.666605 245.985423 780.666605 246.504173 
L 780.666605 249.730735 
Q 780.666605 250.247923 780.918167 250.524485 
Q 781.16973 250.801048 781.697855 250.801048 
z
M 789.104496 247.929173 
L 789.104496 248.876048 
L 785.140433 248.876048 
L 785.140433 247.929173 
L 789.104496 247.929173 
z
M 787.620121 250.385423 
L 786.624808 250.385423 
L 786.624808 246.419798 
L 787.620121 246.419798 
L 787.620121 250.385423 
z
" style="fill: #ffffff; stroke: #000000"/>
    <path d="M 757.991605 250.72761 
L 759.597855 250.72761 
Q 760.383793 250.72761 760.815043 250.319798 
Q 761.247855 249.911985 761.247855 249.169798 
L 761.247855 247.079173 
Q 761.247855 246.336985 760.815043 245.929173 
Q 760.383793 245.52136 759.597855 245.52136 
L 757.991605 245.52136 
L 757.991605 244.574485 
L 759.568168 244.574485 
Q 760.422855 244.574485 761.027542 244.872923 
Q 761.633793 245.169798 761.95098 245.741673 
Q 762.268168 246.313548 762.268168 247.118235 
L 762.268168 249.130735 
Q 762.268168 249.935423 761.95098 250.507298 
Q 761.633793 251.079173 761.02598 251.37761 
Q 760.418167 251.674485 759.56348 251.674485 
L 757.991605 251.674485 
L 757.991605 250.72761 
z
M 757.318168 244.574485 
L 758.31348 244.574485 
L 758.31348 251.674485 
L 757.318168 251.674485 
L 757.318168 244.574485 
z
M 766.247855 248.149485 
L 766.243168 248.324485 
Q 766.121292 248.549485 765.874418 248.654173 
Q 765.627543 248.75886 765.291605 248.75886 
Q 764.783793 248.75886 764.397855 248.501048 
Q 764.011917 248.241673 763.799418 247.77136 
Q 763.586918 247.299485 763.586918 246.679173 
L 763.586918 246.674485 
Q 763.586918 245.985423 763.818168 245.497923 
Q 764.05098 245.00886 764.497855 244.755735 
Q 764.94473 244.501048 765.56973 244.501048 
Q 766.19473 244.501048 766.63848 244.760423 
Q 767.083793 245.019798 767.315043 245.513548 
Q 767.546293 246.005735 767.546293 246.699485 
L 767.546293 246.704173 
Q 767.546293 247.08386 767.447855 247.516673 
Q 767.35098 247.949485 767.171293 248.372923 
Q 767.141605 248.436985 767.111918 248.50261 
Q 767.083793 248.568235 767.049418 248.632298 
L 765.535355 251.674485 
L 764.460355 251.674485 
L 766.247855 248.149485 
z
M 765.56973 247.851048 
Q 766.03848 247.851048 766.29473 247.53386 
Q 766.55098 247.216673 766.55098 246.64011 
L 766.55098 246.635423 
Q 766.55098 246.074485 766.29473 245.766673 
Q 766.03848 245.45886 765.56973 245.45886 
Q 765.096293 245.45886 764.840042 245.766673 
Q 764.583793 246.074485 764.583793 246.64011 
L 764.583793 246.644798 
Q 764.583793 247.22136 764.840042 247.536985 
Q 765.096293 247.851048 765.56973 247.851048 
z
M 770.701566 251.747923 
Q 770.106253 251.747923 769.651566 251.530735 
Q 769.196878 251.313548 768.920316 250.901048 
Q 768.645316 250.488548 768.571878 249.907298 
L 768.571878 249.907298 
L 769.587503 249.907298 
L 769.587503 249.907298 
Q 769.631253 250.20886 769.778128 250.404173 
Q 769.925003 250.599485 770.156253 250.694798 
Q 770.389066 250.79011 770.701566 250.79011 
Q 771.193753 250.79011 771.467191 250.52761 
Q 771.740628 250.263548 771.740628 249.785423 
L 771.740628 249.569798 
Q 771.740628 249.036985 771.481253 248.747923 
Q 771.223441 248.457298 770.750003 248.457298 
L 770.246878 248.457298 
L 770.246878 247.50886 
L 770.750003 247.50886 
Q 771.165628 247.50886 771.393753 247.260423 
Q 771.623441 247.011985 771.623441 246.557298 
L 771.623441 246.336985 
Q 771.623441 245.918235 771.381253 245.688548 
Q 771.140628 245.45886 770.696878 245.45886 
Q 770.442191 245.45886 770.242191 245.554173 
Q 770.042191 245.649485 769.903128 245.847923 
Q 769.764066 246.044798 769.700003 246.341673 
L 769.700003 246.341673 
L 768.689066 246.341673 
L 768.689066 246.341673 
Q 768.787503 245.761985 769.057816 245.34636 
Q 769.329691 244.930735 769.743753 244.716673 
Q 770.159378 244.501048 770.696878 244.501048 
Q 771.614066 244.501048 772.117191 244.985423 
Q 772.620316 245.468235 772.620316 246.347923 
L 772.620316 246.46511 
Q 772.620316 246.99636 772.331253 247.391673 
Q 772.043753 247.786985 771.517191 247.968235 
Q 772.098441 248.094798 772.417191 248.54011 
Q 772.737503 248.98386 772.737503 249.672923 
L 772.737503 249.79011 
Q 772.737503 250.410423 772.498441 250.849485 
Q 772.259378 251.288548 771.801566 251.518235 
Q 771.345316 251.747923 770.701566 251.747923 
z
M 776.180277 251.747923 
Q 775.183402 251.747923 774.667777 251.216673 
Q 774.153714 250.68386 774.153714 249.730735 
L 774.153714 246.504173 
Q 774.153714 245.54636 774.670902 245.016673 
Q 775.188089 244.486985 776.180277 244.486985 
Q 777.175589 244.486985 777.691214 245.01511 
Q 778.206839 245.541673 778.206839 246.504173 
L 778.206839 249.730735 
Q 778.206839 250.688548 777.688089 251.218235 
Q 777.170902 251.747923 776.180277 251.747923 
z
M 776.180277 250.801048 
Q 776.706839 250.801048 776.958402 250.524485 
Q 777.209964 250.247923 777.209964 249.730735 
L 777.209964 246.504173 
Q 777.209964 245.985423 776.959964 245.710423 
Q 776.711527 245.43386 776.180277 245.43386 
Q 775.647464 245.43386 775.397464 245.710423 
Q 775.149027 245.985423 775.149027 246.504173 
L 775.149027 249.730735 
Q 775.149027 250.247923 775.400589 250.524485 
Q 775.652152 250.801048 776.180277 250.801048 
z
M 781.697855 251.747923 
Q 780.70098 251.747923 780.185355 251.216673 
Q 779.671293 250.68386 779.671293 249.730735 
L 779.671293 246.504173 
Q 779.671293 245.54636 780.18848 245.016673 
Q 780.705668 244.486985 781.697855 244.486985 
Q 782.693168 244.486985 783.208793 245.01511 
Q 783.724418 245.541673 783.724418 246.504173 
L 783.724418 249.730735 
Q 783.724418 250.688548 783.205668 251.218235 
Q 782.68848 251.747923 781.697855 251.747923 
z
M 781.697855 250.801048 
Q 782.224418 250.801048 782.47598 250.524485 
Q 782.727543 250.247923 782.727543 249.730735 
L 782.727543 246.504173 
Q 782.727543 245.985423 782.477543 245.710423 
Q 782.229105 245.43386 781.697855 245.43386 
Q 781.165043 245.43386 780.915043 245.710423 
Q 780.666605 245.985423 780.666605 246.504173 
L 780.666605 249.730735 
Q 780.666605 250.247923 780.918167 250.524485 
Q 781.16973 250.801048 781.697855 250.801048 
z
M 789.104496 247.929173 
L 789.104496 248.876048 
L 785.140433 248.876048 
L 785.140433 247.929173 
L 789.104496 247.929173 
z
M 787.620121 250.385423 
L 786.624808 250.385423 
L 786.624808 246.419798 
L 787.620121 246.419798 
L 787.620121 250.385423 
z
" style="fill: #ffffff"/>
   </g>
  </g>
 </g>
 <defs>
  <clipPath id="pdf9825fa6e">
   <rect x="144" y="77.76" width="892.8" height="498.96"/>
  </clipPath>
 </defs>
</svg>
