<?xml version="1.0" encoding="utf-8" standalone="no"?>
<!DOCTYPE svg PUBLIC "-//W3C//DTD SVG 1.1//EN"
  "http://www.w3.org/Graphics/SVG/1.1/DTD/svg11.dtd">
<svg xmlns:xlink="http://www.w3.org/1999/xlink" width="1152pt" height="648pt" viewBox="0 0 1152 648" xmlns="http://www.w3.org/2000/svg" version="1.1">
 <metadata>
  <rdf:RDF xmlns:dc="http://purl.org/dc/elements/1.1/" xmlns:cc="http://creativecommons.org/ns#" xmlns:rdf="http://www.w3.org/1999/02/22-rdf-syntax-ns#">
   <cc:Work>
    <dc:type rdf:resource="http://purl.org/dc/dcmitype/StillImage"/>
    <dc:date>2024-10-09T18:10:38.965787</dc:date>
    <dc:format>image/svg+xml</dc:format>
    <dc:creator>
     <cc:Agent>
      <dc:title>Matplotlib v3.8.1, https://matplotlib.org/</dc:title>
     </cc:Agent>
    </dc:creator>
   </cc:Work>
  </rdf:RDF>
 </metadata>
 <defs>
  <style type="text/css">*{stroke-linejoin: round; stroke-linecap: butt}</style>
 </defs>
 <g id="figure_1">
  <g id="patch_1">
   <path d="M 0 648 
L 1152 648 
L 1152 0 
L 0 0 
L 0 648 
z
" style="fill: none"/>
  </g>
  <g id="axes_1">
   <g id="line2d_1">
    <path d="M 257.274 476.460104 
L 262.160727 472.246627 
L 267.047455 468.07059 
L 271.934182 463.932702 
L 276.820909 459.833637 
L 281.707636 455.774034 
L 286.594364 451.754498 
L 291.481091 447.775597 
L 296.367818 443.837866 
L 301.254545 439.941803 
L 306.141273 436.087872 
L 311.028 432.276504 
L 315.914727 428.508096 
L 320.801455 424.783008 
L 325.688182 421.10157 
L 330.574909 417.464079 
L 335.461636 413.870796 
L 340.348364 410.321955 
L 345.235091 406.817756 
L 350.121818 403.358366 
L 355.008545 399.943927 
L 359.895273 396.574548 
L 364.782 393.250308 
L 369.668727 389.971262 
L 374.555455 386.737433 
L 379.442182 383.54882 
L 384.328909 380.405396 
L 389.215636 377.307106 
L 394.102364 374.253874 
L 398.989091 371.245598 
L 403.875818 368.282153 
L 408.762545 365.363394 
L 413.649273 362.489151 
L 418.536 359.659237 
L 423.422727 356.873443 
L 428.309455 354.131542 
L 433.196182 351.433289 
L 438.082909 348.77842 
L 442.969636 346.166656 
L 447.856364 343.597702 
L 452.743091 341.071248 
L 457.629818 338.586968 
L 462.516545 336.144526 
L 467.403273 333.743568 
L 472.29 331.383734 
L 477.176727 329.064648 
L 482.063455 326.785925 
L 486.950182 324.547171 
L 491.836909 322.347981 
L 496.723636 320.187943 
L 501.610364 318.066636 
L 506.497091 315.983631 
L 511.383818 313.938494 
L 516.270545 311.930785 
L 521.157273 309.960057 
L 526.044 308.025858 
L 530.930727 306.127733 
L 535.817455 304.265222 
L 540.704182 302.437862 
L 545.590909 300.645188 
L 550.477636 298.88673 
L 555.364364 297.16202 
L 560.251091 295.470584 
L 565.137818 293.811951 
L 570.024545 292.185646 
L 574.911273 290.591196 
L 579.798 289.028128 
L 584.684727 287.495968 
L 589.571455 285.994243 
L 594.458182 284.522483 
L 599.344909 283.080217 
L 604.231636 281.666978 
L 609.118364 280.282298 
L 614.005091 278.925715 
L 618.891818 277.596766 
L 623.778545 276.294994 
L 628.665273 275.019942 
L 633.552 273.771158 
L 638.438727 272.548193 
L 643.325455 271.350602 
L 648.212182 270.177942 
L 653.098909 269.029776 
L 657.985636 267.90567 
L 662.872364 266.805195 
L 667.759091 265.727925 
L 672.645818 264.673439 
L 677.532545 263.641322 
L 682.419273 262.631161 
L 687.306 261.642549 
L 692.192727 260.675086 
L 697.079455 259.728372 
L 701.966182 258.802017 
L 706.852909 257.895633 
L 711.739636 257.008838 
L 716.626364 256.141255 
L 721.513091 255.292513 
L 726.399818 254.462244 
L 731.286545 253.650087 
L 736.173273 252.855686 
L 741.06 252.07869 
" clip-path="url(#p79cb490b6f)" style="fill: none; stroke: #30b1f2; stroke-width: 3; stroke-linecap: round"/>
   </g>
   <g id="text_1">
    <path d="M 747.832167 246.625258 
L 748.82748 246.625258 
L 748.82748 253.725258 
L 747.832167 253.725258 
L 747.832167 246.625258 
z
M 748.31498 252.778383 
L 752.391542 252.778383 
L 752.391542 253.725258 
L 748.31498 253.725258 
L 748.31498 252.778383 
z
M 748.31498 249.72682 
L 751.855605 249.72682 
L 751.855605 250.673695 
L 748.31498 250.673695 
L 748.31498 249.72682 
z
M 748.31498 246.625258 
L 752.391542 246.625258 
L 752.391542 247.572133 
L 748.31498 247.572133 
L 748.31498 246.625258 
z
M 753.554042 252.861195 
L 756.029042 249.559633 
Q 756.244667 249.27682 756.363417 248.972133 
Q 756.48373 248.665883 756.48373 248.403383 
L 756.48373 248.392445 
Q 756.48373 247.969008 756.23373 247.734633 
Q 755.985292 247.500258 755.52748 247.500258 
Q 755.091542 247.500258 754.822792 247.756508 
Q 754.555605 248.012758 754.49623 248.481508 
L 754.49623 248.486195 
L 753.466542 248.486195 
L 753.466542 248.481508 
Q 753.554042 247.87057 753.824355 247.43932 
Q 754.09623 247.006508 754.525917 246.779945 
Q 754.955605 246.55182 755.516542 246.55182 
Q 756.15248 246.55182 756.600917 246.769008 
Q 757.050917 246.986195 757.285292 247.40182 
Q 757.519667 247.817445 757.519667 248.403383 
L 757.519667 248.40807 
Q 757.519667 248.78307 757.363417 249.194008 
Q 757.207167 249.603383 756.92748 249.984633 
L 754.872792 252.778383 
L 757.55873 252.778383 
L 757.55873 253.725258 
L 753.554042 253.725258 
L 753.554042 252.861195 
z
M 758.729433 251.772133 
L 761.112246 246.629945 
L 762.138808 246.629945 
L 759.813808 251.712758 
L 763.295058 251.712758 
L 763.295058 252.636195 
L 758.729433 252.636195 
L 758.729433 251.772133 
z
M 761.791933 249.550258 
L 762.763808 249.550258 
L 762.763808 253.729945 
L 761.791933 253.729945 
L 761.791933 249.550258 
z
M 766.54291 253.798695 
Q 765.546035 253.798695 765.03041 253.267445 
Q 764.516347 252.734633 764.516347 251.781508 
L 764.516347 248.554945 
Q 764.516347 247.597133 765.033535 247.067445 
Q 765.550722 246.537758 766.54291 246.537758 
Q 767.538222 246.537758 768.053847 247.065883 
Q 768.569472 247.592445 768.569472 248.554945 
L 768.569472 251.781508 
Q 768.569472 252.73932 768.050722 253.269008 
Q 767.533535 253.798695 766.54291 253.798695 
z
M 766.54291 252.85182 
Q 767.069472 252.85182 767.321035 252.575258 
Q 767.572597 252.298695 767.572597 251.781508 
L 767.572597 248.554945 
Q 767.572597 248.036195 767.322597 247.761195 
Q 767.07416 247.484633 766.54291 247.484633 
Q 766.010097 247.484633 765.760097 247.761195 
Q 765.51166 248.036195 765.51166 248.554945 
L 765.51166 251.781508 
Q 765.51166 252.298695 765.763222 252.575258 
Q 766.014785 252.85182 766.54291 252.85182 
z
M 772.060488 253.798695 
Q 771.063613 253.798695 770.547988 253.267445 
Q 770.033925 252.734633 770.033925 251.781508 
L 770.033925 248.554945 
Q 770.033925 247.597133 770.551113 247.067445 
Q 771.0683 246.537758 772.060488 246.537758 
Q 773.0558 246.537758 773.571425 247.065883 
Q 774.08705 247.592445 774.08705 248.554945 
L 774.08705 251.781508 
Q 774.08705 252.73932 773.5683 253.269008 
Q 773.051113 253.798695 772.060488 253.798695 
z
M 772.060488 252.85182 
Q 772.58705 252.85182 772.838613 252.575258 
Q 773.090175 252.298695 773.090175 251.781508 
L 773.090175 248.554945 
Q 773.090175 248.036195 772.840175 247.761195 
Q 772.591738 247.484633 772.060488 247.484633 
Q 771.527675 247.484633 771.277675 247.761195 
Q 771.029238 248.036195 771.029238 248.554945 
L 771.029238 251.781508 
Q 771.029238 252.298695 771.2808 252.575258 
Q 771.532363 252.85182 772.060488 252.85182 
z
" style="fill: #ffffff; stroke: #000000"/>
    <path d="M 747.832167 246.625258 
L 748.82748 246.625258 
L 748.82748 253.725258 
L 747.832167 253.725258 
L 747.832167 246.625258 
z
M 748.31498 252.778383 
L 752.391542 252.778383 
L 752.391542 253.725258 
L 748.31498 253.725258 
L 748.31498 252.778383 
z
M 748.31498 249.72682 
L 751.855605 249.72682 
L 751.855605 250.673695 
L 748.31498 250.673695 
L 748.31498 249.72682 
z
M 748.31498 246.625258 
L 752.391542 246.625258 
L 752.391542 247.572133 
L 748.31498 247.572133 
L 748.31498 246.625258 
z
M 753.554042 252.861195 
L 756.029042 249.559633 
Q 756.244667 249.27682 756.363417 248.972133 
Q 756.48373 248.665883 756.48373 248.403383 
L 756.48373 248.392445 
Q 756.48373 247.969008 756.23373 247.734633 
Q 755.985292 247.500258 755.52748 247.500258 
Q 755.091542 247.500258 754.822792 247.756508 
Q 754.555605 248.012758 754.49623 248.481508 
L 754.49623 248.486195 
L 753.466542 248.486195 
L 753.466542 248.481508 
Q 753.554042 247.87057 753.824355 247.43932 
Q 754.09623 247.006508 754.525917 246.779945 
Q 754.955605 246.55182 755.516542 246.55182 
Q 756.15248 246.55182 756.600917 246.769008 
Q 757.050917 246.986195 757.285292 247.40182 
Q 757.519667 247.817445 757.519667 248.403383 
L 757.519667 248.40807 
Q 757.519667 248.78307 757.363417 249.194008 
Q 757.207167 249.603383 756.92748 249.984633 
L 754.872792 252.778383 
L 757.55873 252.778383 
L 757.55873 253.725258 
L 753.554042 253.725258 
L 753.554042 252.861195 
z
M 758.729433 251.772133 
L 761.112246 246.629945 
L 762.138808 246.629945 
L 759.813808 251.712758 
L 763.295058 251.712758 
L 763.295058 252.636195 
L 758.729433 252.636195 
L 758.729433 251.772133 
z
M 761.791933 249.550258 
L 762.763808 249.550258 
L 762.763808 253.729945 
L 761.791933 253.729945 
L 761.791933 249.550258 
z
M 766.54291 253.798695 
Q 765.546035 253.798695 765.03041 253.267445 
Q 764.516347 252.734633 764.516347 251.781508 
L 764.516347 248.554945 
Q 764.516347 247.597133 765.033535 247.067445 
Q 765.550722 246.537758 766.54291 246.537758 
Q 767.538222 246.537758 768.053847 247.065883 
Q 768.569472 247.592445 768.569472 248.554945 
L 768.569472 251.781508 
Q 768.569472 252.73932 768.050722 253.269008 
Q 767.533535 253.798695 766.54291 253.798695 
z
M 766.54291 252.85182 
Q 767.069472 252.85182 767.321035 252.575258 
Q 767.572597 252.298695 767.572597 251.781508 
L 767.572597 248.554945 
Q 767.572597 248.036195 767.322597 247.761195 
Q 767.07416 247.484633 766.54291 247.484633 
Q 766.010097 247.484633 765.760097 247.761195 
Q 765.51166 248.036195 765.51166 248.554945 
L 765.51166 251.781508 
Q 765.51166 252.298695 765.763222 252.575258 
Q 766.014785 252.85182 766.54291 252.85182 
z
M 772.060488 253.798695 
Q 771.063613 253.798695 770.547988 253.267445 
Q 770.033925 252.734633 770.033925 251.781508 
L 770.033925 248.554945 
Q 770.033925 247.597133 770.551113 247.067445 
Q 771.0683 246.537758 772.060488 246.537758 
Q 773.0558 246.537758 773.571425 247.065883 
Q 774.08705 247.592445 774.08705 248.554945 
L 774.08705 251.781508 
Q 774.08705 252.73932 773.5683 253.269008 
Q 773.051113 253.798695 772.060488 253.798695 
z
M 772.060488 252.85182 
Q 772.58705 252.85182 772.838613 252.575258 
Q 773.090175 252.298695 773.090175 251.781508 
L 773.090175 248.554945 
Q 773.090175 248.036195 772.840175 247.761195 
Q 772.591738 247.484633 772.060488 247.484633 
Q 771.527675 247.484633 771.277675 247.761195 
Q 771.029238 248.036195 771.029238 248.554945 
L 771.029238 251.781508 
Q 771.029238 252.298695 771.2808 252.575258 
Q 771.532363 252.85182 772.060488 252.85182 
z
" style="fill: #ffffff"/>
   </g>
  </g>
 </g>
 <defs>
  <clipPath id="p79cb490b6f">
   <rect x="144" y="77.76" width="892.8" height="498.96"/>
  </clipPath>
 </defs>
</svg>
