<?xml version="1.0" encoding="utf-8" standalone="no"?>
<!DOCTYPE svg PUBLIC "-//W3C//DTD SVG 1.1//EN"
  "http://www.w3.org/Graphics/SVG/1.1/DTD/svg11.dtd">
<svg xmlns:xlink="http://www.w3.org/1999/xlink" width="1152pt" height="648pt" viewBox="0 0 1152 648" xmlns="http://www.w3.org/2000/svg" version="1.1">
 <metadata>
  <rdf:RDF xmlns:dc="http://purl.org/dc/elements/1.1/" xmlns:cc="http://creativecommons.org/ns#" xmlns:rdf="http://www.w3.org/1999/02/22-rdf-syntax-ns#">
   <cc:Work>
    <dc:type rdf:resource="http://purl.org/dc/dcmitype/StillImage"/>
    <dc:date>2024-10-09T18:10:38.887787</dc:date>
    <dc:format>image/svg+xml</dc:format>
    <dc:creator>
     <cc:Agent>
      <dc:title>Matplotlib v3.8.1, https://matplotlib.org/</dc:title>
     </cc:Agent>
    </dc:creator>
   </cc:Work>
  </rdf:RDF>
 </metadata>
 <defs>
  <style type="text/css">*{stroke-linejoin: round; stroke-linecap: butt}</style>
 </defs>
 <g id="figure_1">
  <g id="patch_1">
   <path d="M 0 648 
L 1152 648 
L 1152 0 
L 0 0 
L 0 648 
z
" style="fill: none"/>
  </g>
  <g id="axes_1">
   <g id="line2d_1">
    <path d="M 200.916 548.174104 
L 203.384727 546.955258 
L 205.853455 545.736551 
L 208.322182 544.518121 
L 210.790909 543.300108 
L 213.259636 542.08265 
L 215.728364 540.865885 
L 218.197091 539.649952 
L 220.665818 538.434987 
L 223.134545 537.221128 
L 225.603273 536.008511 
L 228.072 534.797273 
L 230.540727 533.587549 
L 233.009455 532.379474 
L 235.478182 531.173181 
L 237.946909 529.968804 
L 240.415636 528.766476 
L 242.884364 527.566328 
L 245.353091 526.36849 
L 247.821818 525.173091 
L 250.290545 523.980261 
L 252.759273 522.790126 
L 255.228 521.602812 
L 257.696727 520.418444 
L 260.165455 519.237146 
L 262.634182 518.05904 
L 265.102909 516.884247 
L 267.571636 515.712885 
L 270.040364 514.545073 
L 272.509091 513.380928 
L 274.977818 512.220563 
L 277.446545 511.064093 
L 279.915273 509.911628 
L 282.384 508.76328 
L 284.852727 507.619154 
L 287.321455 506.47936 
L 289.790182 505.343999 
L 292.258909 504.213177 
L 294.727636 503.086993 
L 297.196364 501.965547 
L 299.665091 500.848935 
L 302.133818 499.737254 
L 304.602545 498.630596 
L 307.071273 497.529052 
L 309.54 496.432712 
L 312.008727 495.341663 
L 314.477455 494.255991 
L 316.946182 493.175778 
L 319.414909 492.101106 
L 321.883636 491.032053 
L 324.352364 489.968697 
L 326.821091 488.911112 
L 329.289818 487.859372 
L 331.758545 486.813545 
L 334.227273 485.773702 
L 336.696 484.739908 
L 339.164727 483.712227 
L 341.633455 482.690722 
L 344.102182 481.675452 
L 346.570909 480.666476 
L 349.039636 479.663847 
L 351.508364 478.667621 
L 353.977091 477.677848 
L 356.445818 476.694578 
L 358.914545 475.717858 
L 361.383273 474.747732 
L 363.852 473.784243 
L 366.320727 472.827433 
L 368.789455 471.87734 
L 371.258182 470.934001 
L 373.726909 469.99745 
L 376.195636 469.067719 
L 378.664364 468.14484 
L 381.133091 467.228841 
L 383.601818 466.319749 
L 386.070545 465.417588 
L 388.539273 464.52238 
L 391.008 463.634147 
L 393.476727 462.752907 
L 395.945455 461.878678 
L 398.414182 461.011474 
L 400.882909 460.15131 
L 403.351636 459.298195 
L 405.820364 458.45214 
L 408.289091 457.613154 
L 410.757818 456.781241 
L 413.226545 455.956407 
L 415.695273 455.138655 
L 418.164 454.327985 
L 420.632727 453.524398 
L 423.101455 452.727891 
L 425.570182 451.93846 
L 428.038909 451.156101 
L 430.507636 450.380807 
L 432.976364 449.61257 
L 435.445091 448.85138 
L 437.913818 448.097226 
L 440.382545 447.350096 
L 442.851273 446.609976 
L 445.32 445.876852 
" clip-path="url(#p26133195b6)" style="fill: none; stroke: #f29130; stroke-width: 3; stroke-linecap: round"/>
   </g>
   <g id="text_1">
    <path d="M 452.765605 446.576545 
L 454.371855 446.576545 
Q 455.157793 446.576545 455.589043 446.168732 
Q 456.021855 445.76092 456.021855 445.018732 
L 456.021855 442.928107 
Q 456.021855 442.18592 455.589043 441.778107 
Q 455.157793 441.370295 454.371855 441.370295 
L 452.765605 441.370295 
L 452.765605 440.42342 
L 454.342168 440.42342 
Q 455.196855 440.42342 455.801543 440.721857 
Q 456.407793 441.018732 456.72498 441.590607 
Q 457.042168 442.162482 457.042168 442.96717 
L 457.042168 444.97967 
Q 457.042168 445.784357 456.72498 446.356232 
Q 456.407793 446.928107 455.79998 447.226545 
Q 455.192168 447.52342 454.33748 447.52342 
L 452.765605 447.52342 
L 452.765605 446.576545 
z
M 452.092168 440.42342 
L 453.08748 440.42342 
L 453.08748 447.52342 
L 452.092168 447.52342 
L 452.092168 440.42342 
z
M 461.021855 443.99842 
L 461.017168 444.17342 
Q 460.895293 444.39842 460.648418 444.503107 
Q 460.401543 444.607795 460.065605 444.607795 
Q 459.557793 444.607795 459.171855 444.349982 
Q 458.785918 444.090607 458.573418 443.620295 
Q 458.360918 443.14842 458.360918 442.528107 
L 458.360918 442.52342 
Q 458.360918 441.834357 458.592168 441.346857 
Q 458.82498 440.857795 459.271855 440.60467 
Q 459.71873 440.349982 460.34373 440.349982 
Q 460.96873 440.349982 461.41248 440.609357 
Q 461.857793 440.868732 462.089043 441.362482 
Q 462.320293 441.85467 462.320293 442.54842 
L 462.320293 442.553107 
Q 462.320293 442.932795 462.221855 443.365607 
Q 462.12498 443.79842 461.945293 444.221857 
Q 461.915605 444.28592 461.885918 444.351545 
Q 461.857793 444.41717 461.823418 444.481232 
L 460.309355 447.52342 
L 459.234355 447.52342 
L 461.021855 443.99842 
z
M 460.34373 443.699982 
Q 460.81248 443.699982 461.06873 443.382795 
Q 461.32498 443.065607 461.32498 442.489045 
L 461.32498 442.484357 
Q 461.32498 441.92342 461.06873 441.615607 
Q 460.81248 441.307795 460.34373 441.307795 
Q 459.870293 441.307795 459.614043 441.615607 
Q 459.357793 441.92342 459.357793 442.489045 
L 459.357793 442.493732 
Q 459.357793 443.070295 459.614043 443.38592 
Q 459.870293 443.699982 460.34373 443.699982 
z
M 465.666191 447.596857 
Q 464.669316 447.596857 464.153691 447.065607 
Q 463.639628 446.532795 463.639628 445.57967 
L 463.639628 442.353107 
Q 463.639628 441.395295 464.156816 440.865607 
Q 464.674003 440.33592 465.666191 440.33592 
Q 466.661503 440.33592 467.177128 440.864045 
Q 467.692753 441.390607 467.692753 442.353107 
L 467.692753 445.57967 
Q 467.692753 446.537482 467.174003 447.06717 
Q 466.656816 447.596857 465.666191 447.596857 
z
M 465.666191 446.649982 
Q 466.192753 446.649982 466.444316 446.37342 
Q 466.695878 446.096857 466.695878 445.57967 
L 466.695878 442.353107 
Q 466.695878 441.834357 466.445878 441.559357 
Q 466.197441 441.282795 465.666191 441.282795 
Q 465.133378 441.282795 464.883378 441.559357 
Q 464.634941 441.834357 464.634941 442.353107 
L 464.634941 445.57967 
Q 464.634941 446.096857 464.886503 446.37342 
Q 465.138066 446.649982 465.666191 446.649982 
z
M 471.183769 447.596857 
Q 470.186894 447.596857 469.671269 447.065607 
Q 469.157207 446.532795 469.157207 445.57967 
L 469.157207 442.353107 
Q 469.157207 441.395295 469.674394 440.865607 
Q 470.191582 440.33592 471.183769 440.33592 
Q 472.179082 440.33592 472.694707 440.864045 
Q 473.210332 441.390607 473.210332 442.353107 
L 473.210332 445.57967 
Q 473.210332 446.537482 472.691582 447.06717 
Q 472.174394 447.596857 471.183769 447.596857 
z
M 471.183769 446.649982 
Q 471.710332 446.649982 471.961894 446.37342 
Q 472.213457 446.096857 472.213457 445.57967 
L 472.213457 442.353107 
Q 472.213457 441.834357 471.963457 441.559357 
Q 471.715019 441.282795 471.183769 441.282795 
Q 470.650957 441.282795 470.400957 441.559357 
Q 470.152519 441.834357 470.152519 442.353107 
L 470.152519 445.57967 
Q 470.152519 446.096857 470.404082 446.37342 
Q 470.655644 446.649982 471.183769 446.649982 
z
M 476.701347 447.596857 
Q 475.704472 447.596857 475.188847 447.065607 
Q 474.674785 446.532795 474.674785 445.57967 
L 474.674785 442.353107 
Q 474.674785 441.395295 475.191972 440.865607 
Q 475.70916 440.33592 476.701347 440.33592 
Q 477.69666 440.33592 478.212285 440.864045 
Q 478.72791 441.390607 478.72791 442.353107 
L 478.72791 445.57967 
Q 478.72791 446.537482 478.20916 447.06717 
Q 477.691972 447.596857 476.701347 447.596857 
z
M 476.701347 446.649982 
Q 477.22791 446.649982 477.479472 446.37342 
Q 477.731035 446.096857 477.731035 445.57967 
L 477.731035 442.353107 
Q 477.731035 441.834357 477.481035 441.559357 
Q 477.232597 441.282795 476.701347 441.282795 
Q 476.168535 441.282795 475.918535 441.559357 
Q 475.670097 441.834357 475.670097 442.353107 
L 475.670097 445.57967 
Q 475.670097 446.096857 475.92166 446.37342 
Q 476.173222 446.649982 476.701347 446.649982 
z
" style="fill: #ffffff; stroke: #000000"/>
    <path d="M 452.765605 446.576545 
L 454.371855 446.576545 
Q 455.157793 446.576545 455.589043 446.168732 
Q 456.021855 445.76092 456.021855 445.018732 
L 456.021855 442.928107 
Q 456.021855 442.18592 455.589043 441.778107 
Q 455.157793 441.370295 454.371855 441.370295 
L 452.765605 441.370295 
L 452.765605 440.42342 
L 454.342168 440.42342 
Q 455.196855 440.42342 455.801543 440.721857 
Q 456.407793 441.018732 456.72498 441.590607 
Q 457.042168 442.162482 457.042168 442.96717 
L 457.042168 444.97967 
Q 457.042168 445.784357 456.72498 446.356232 
Q 456.407793 446.928107 455.79998 447.226545 
Q 455.192168 447.52342 454.33748 447.52342 
L 452.765605 447.52342 
L 452.765605 446.576545 
z
M 452.092168 440.42342 
L 453.08748 440.42342 
L 453.08748 447.52342 
L 452.092168 447.52342 
L 452.092168 440.42342 
z
M 461.021855 443.99842 
L 461.017168 444.17342 
Q 460.895293 444.39842 460.648418 444.503107 
Q 460.401543 444.607795 460.065605 444.607795 
Q 459.557793 444.607795 459.171855 444.349982 
Q 458.785918 444.090607 458.573418 443.620295 
Q 458.360918 443.14842 458.360918 442.528107 
L 458.360918 442.52342 
Q 458.360918 441.834357 458.592168 441.346857 
Q 458.82498 440.857795 459.271855 440.60467 
Q 459.71873 440.349982 460.34373 440.349982 
Q 460.96873 440.349982 461.41248 440.609357 
Q 461.857793 440.868732 462.089043 441.362482 
Q 462.320293 441.85467 462.320293 442.54842 
L 462.320293 442.553107 
Q 462.320293 442.932795 462.221855 443.365607 
Q 462.12498 443.79842 461.945293 444.221857 
Q 461.915605 444.28592 461.885918 444.351545 
Q 461.857793 444.41717 461.823418 444.481232 
L 460.309355 447.52342 
L 459.234355 447.52342 
L 461.021855 443.99842 
z
M 460.34373 443.699982 
Q 460.81248 443.699982 461.06873 443.382795 
Q 461.32498 443.065607 461.32498 442.489045 
L 461.32498 442.484357 
Q 461.32498 441.92342 461.06873 441.615607 
Q 460.81248 441.307795 460.34373 441.307795 
Q 459.870293 441.307795 459.614043 441.615607 
Q 459.357793 441.92342 459.357793 442.489045 
L 459.357793 442.493732 
Q 459.357793 443.070295 459.614043 443.38592 
Q 459.870293 443.699982 460.34373 443.699982 
z
M 465.666191 447.596857 
Q 464.669316 447.596857 464.153691 447.065607 
Q 463.639628 446.532795 463.639628 445.57967 
L 463.639628 442.353107 
Q 463.639628 441.395295 464.156816 440.865607 
Q 464.674003 440.33592 465.666191 440.33592 
Q 466.661503 440.33592 467.177128 440.864045 
Q 467.692753 441.390607 467.692753 442.353107 
L 467.692753 445.57967 
Q 467.692753 446.537482 467.174003 447.06717 
Q 466.656816 447.596857 465.666191 447.596857 
z
M 465.666191 446.649982 
Q 466.192753 446.649982 466.444316 446.37342 
Q 466.695878 446.096857 466.695878 445.57967 
L 466.695878 442.353107 
Q 466.695878 441.834357 466.445878 441.559357 
Q 466.197441 441.282795 465.666191 441.282795 
Q 465.133378 441.282795 464.883378 441.559357 
Q 464.634941 441.834357 464.634941 442.353107 
L 464.634941 445.57967 
Q 464.634941 446.096857 464.886503 446.37342 
Q 465.138066 446.649982 465.666191 446.649982 
z
M 471.183769 447.596857 
Q 470.186894 447.596857 469.671269 447.065607 
Q 469.157207 446.532795 469.157207 445.57967 
L 469.157207 442.353107 
Q 469.157207 441.395295 469.674394 440.865607 
Q 470.191582 440.33592 471.183769 440.33592 
Q 472.179082 440.33592 472.694707 440.864045 
Q 473.210332 441.390607 473.210332 442.353107 
L 473.210332 445.57967 
Q 473.210332 446.537482 472.691582 447.06717 
Q 472.174394 447.596857 471.183769 447.596857 
z
M 471.183769 446.649982 
Q 471.710332 446.649982 471.961894 446.37342 
Q 472.213457 446.096857 472.213457 445.57967 
L 472.213457 442.353107 
Q 472.213457 441.834357 471.963457 441.559357 
Q 471.715019 441.282795 471.183769 441.282795 
Q 470.650957 441.282795 470.400957 441.559357 
Q 470.152519 441.834357 470.152519 442.353107 
L 470.152519 445.57967 
Q 470.152519 446.096857 470.404082 446.37342 
Q 470.655644 446.649982 471.183769 446.649982 
z
M 476.701347 447.596857 
Q 475.704472 447.596857 475.188847 447.065607 
Q 474.674785 446.532795 474.674785 445.57967 
L 474.674785 442.353107 
Q 474.674785 441.395295 475.191972 440.865607 
Q 475.70916 440.33592 476.701347 440.33592 
Q 477.69666 440.33592 478.212285 440.864045 
Q 478.72791 441.390607 478.72791 442.353107 
L 478.72791 445.57967 
Q 478.72791 446.537482 478.20916 447.06717 
Q 477.691972 447.596857 476.701347 447.596857 
z
M 476.701347 446.649982 
Q 477.22791 446.649982 477.479472 446.37342 
Q 477.731035 446.096857 477.731035 445.57967 
L 477.731035 442.353107 
Q 477.731035 441.834357 477.481035 441.559357 
Q 477.232597 441.282795 476.701347 441.282795 
Q 476.168535 441.282795 475.918535 441.559357 
Q 475.670097 441.834357 475.670097 442.353107 
L 475.670097 445.57967 
Q 475.670097 446.096857 475.92166 446.37342 
Q 476.173222 446.649982 476.701347 446.649982 
z
" style="fill: #ffffff"/>
   </g>
  </g>
 </g>
 <defs>
  <clipPath id="p26133195b6">
   <rect x="144" y="77.76" width="892.8" height="498.96"/>
  </clipPath>
 </defs>
</svg>
