<?xml version="1.0" encoding="utf-8" standalone="no"?>
<!DOCTYPE svg PUBLIC "-//W3C//DTD SVG 1.1//EN"
  "http://www.w3.org/Graphics/SVG/1.1/DTD/svg11.dtd">
<svg xmlns:xlink="http://www.w3.org/1999/xlink" width="1152pt" height="648pt" viewBox="0 0 1152 648" xmlns="http://www.w3.org/2000/svg" version="1.1">
 <metadata>
  <rdf:RDF xmlns:dc="http://purl.org/dc/elements/1.1/" xmlns:cc="http://creativecommons.org/ns#" xmlns:rdf="http://www.w3.org/1999/02/22-rdf-syntax-ns#">
   <cc:Work>
    <dc:type rdf:resource="http://purl.org/dc/dcmitype/StillImage"/>
    <dc:date>2024-10-09T18:10:38.568110</dc:date>
    <dc:format>image/svg+xml</dc:format>
    <dc:creator>
     <cc:Agent>
      <dc:title>Matplotlib v3.8.1, https://matplotlib.org/</dc:title>
     </cc:Agent>
    </dc:creator>
   </cc:Work>
  </rdf:RDF>
 </metadata>
 <defs>
  <style type="text/css">*{stroke-linejoin: round; stroke-linecap: butt}</style>
 </defs>
 <g id="figure_1">
  <g id="patch_1">
   <path d="M 0 648 
L 1152 648 
L 1152 0 
L 0 0 
L 0 648 
z
" style="fill: none"/>
  </g>
  <g id="axes_1">
   <g id="line2d_1">
    <path d="M 194.778 544.841729 
L 199.602727 540.248903 
L 204.427455 535.658294 
L 209.252182 531.072117 
L 214.076909 526.492577 
L 218.901636 521.921867 
L 223.726364 517.362161 
L 228.551091 512.815614 
L 233.375818 508.284355 
L 238.200545 503.770485 
L 243.025273 499.276071 
L 247.85 494.803144 
L 252.674727 490.353695 
L 257.499455 485.929672 
L 262.324182 481.532975 
L 267.148909 477.165456 
L 271.973636 472.828913 
L 276.798364 468.525091 
L 281.623091 464.255675 
L 286.447818 460.022291 
L 291.272545 455.826505 
L 296.097273 451.669817 
L 300.922 447.553663 
L 305.746727 443.479411 
L 310.571455 439.448363 
L 315.396182 435.46175 
L 320.220909 431.520737 
L 325.045636 427.626416 
L 329.870364 423.77981 
L 334.695091 419.981871 
L 339.519818 416.23348 
L 344.344545 412.53545 
L 349.169273 408.888523 
L 353.994 405.293372 
L 358.818727 401.750602 
L 363.643455 398.26075 
L 368.468182 394.824287 
L 373.292909 391.44162 
L 378.117636 388.113091 
L 382.942364 384.838979 
L 387.767091 381.619504 
L 392.591818 378.454827 
L 397.416545 375.345049 
L 402.241273 372.290218 
L 407.066 369.290327 
L 411.890727 366.345317 
L 416.715455 363.45508 
L 421.540182 360.619459 
L 426.364909 357.838252 
L 431.189636 355.111212 
L 436.014364 352.438051 
L 440.839091 349.818442 
L 445.663818 347.252019 
L 450.488545 344.738381 
L 455.313273 342.277092 
L 460.138 339.867688 
L 464.962727 337.50967 
L 469.787455 335.202517 
L 474.612182 332.945678 
L 479.436909 330.73858 
L 484.261636 328.580628 
L 489.086364 326.471206 
L 493.911091 324.409681 
L 498.735818 322.395402 
L 503.560545 320.427702 
L 508.385273 318.505904 
L 513.21 316.629314 
L 518.034727 314.797232 
L 522.859455 313.008947 
L 527.684182 311.263739 
L 532.508909 309.560884 
L 537.333636 307.899652 
L 542.158364 306.279308 
L 546.983091 304.699116 
L 551.807818 303.158336 
L 556.632545 301.656229 
L 561.457273 300.192056 
L 566.282 298.765078 
L 571.106727 297.374559 
L 575.931455 296.019767 
L 580.756182 294.699971 
L 585.580909 293.414445 
L 590.405636 292.16247 
L 595.230364 290.943329 
L 600.055091 289.756315 
L 604.879818 288.600725 
L 609.704545 287.475863 
L 614.529273 286.381042 
L 619.354 285.315584 
L 624.178727 284.278815 
L 629.003455 283.270074 
L 633.828182 282.288708 
L 638.652909 281.334071 
L 643.477636 280.40553 
L 648.302364 279.502458 
L 653.127091 278.624242 
L 657.951818 277.770275 
L 662.776545 276.939963 
L 667.601273 276.132721 
L 672.426 275.347974 
" clip-path="url(#p57aeb9e4f6)" style="fill: none; stroke: #66ff33; stroke-width: 3; stroke-linecap: round"/>
   </g>
   <g id="text_1">
    <path d="M 681.13098 269.894542 
L 681.98098 269.894542 
L 684.598168 276.994542 
L 683.523167 276.994542 
L 681.55598 271.266417 
L 679.588793 276.994542 
L 678.513793 276.994542 
L 681.13098 269.894542 
z
M 679.720042 274.489854 
L 683.45598 274.489854 
L 683.45598 275.436729 
L 679.720042 275.436729 
L 679.720042 274.489854 
z
M 687.239964 276.994542 
L 686.243089 276.994542 
L 686.243089 270.978917 
L 685.232152 271.599229 
L 685.232152 270.567979 
L 686.243089 269.894542 
L 687.239964 269.894542 
L 687.239964 276.994542 
z
M 692.518285 270.783604 
L 690.682347 276.994542 
L 689.622972 276.994542 
L 691.45891 270.841417 
L 689.651097 270.841417 
L 689.651097 271.863292 
L 688.655785 271.863292 
L 688.655785 269.894542 
L 692.518285 269.894542 
L 692.518285 270.783604 
z
M 696.253636 273.292979 
L 698.523949 273.292979 
Q 698.845824 273.292979 699.089574 273.141417 
Q 699.334886 272.989854 699.467699 272.711729 
Q 699.602074 272.433604 699.602074 272.072667 
L 699.602074 272.072667 
Q 699.602074 271.707042 699.467699 271.428917 
Q 699.334886 271.149229 699.089574 270.996104 
Q 698.845824 270.841417 698.523949 270.841417 
L 696.253636 270.841417 
L 696.253636 269.894542 
L 698.489574 269.894542 
Q 699.123949 269.894542 699.606761 270.166417 
Q 700.091136 270.436729 700.356761 270.930479 
Q 700.623949 271.422667 700.623949 272.072667 
L 700.623949 272.072667 
Q 700.623949 272.722667 700.356761 273.213292 
Q 700.091136 273.703917 699.606761 273.972667 
Q 699.123949 274.239854 698.489574 274.239854 
L 696.253636 274.239854 
L 696.253636 273.292979 
z
M 695.741136 269.894542 
L 696.736449 269.894542 
L 696.736449 276.994542 
L 695.741136 276.994542 
L 695.741136 269.894542 
z
M 701.868285 271.925792 
L 702.86516 271.925792 
L 702.86516 276.994542 
L 701.868285 276.994542 
L 701.868285 271.925792 
z
M 704.655785 273.127354 
Q 704.524535 272.966417 704.324535 272.883604 
Q 704.124535 272.800792 703.860472 272.800792 
Q 703.387035 272.800792 703.126097 273.061729 
Q 702.86516 273.322667 702.86516 273.786729 
L 702.762035 272.810167 
Q 702.99641 272.355479 703.366722 272.103917 
Q 703.738597 271.852354 704.187035 271.852354 
Q 704.53391 271.852354 704.81516 271.952354 
Q 705.09641 272.052354 705.305785 272.247667 
L 704.655785 273.127354 
z
M 708.079613 277.067979 
Q 707.420238 277.067979 706.951488 276.810167 
Q 706.482738 276.550792 706.235863 276.055479 
Q 705.988988 275.558604 705.988988 274.860167 
L 705.988988 274.035167 
Q 705.988988 273.347667 706.235863 272.857042 
Q 706.482738 272.364854 706.951488 272.108604 
Q 707.420238 271.852354 708.079613 271.852354 
Q 708.738988 271.852354 709.207738 272.108604 
Q 709.676488 272.364854 709.9218 272.857042 
Q 710.168675 273.347667 710.168675 274.035167 
L 710.168675 274.875792 
Q 710.168675 275.567979 709.9218 276.060167 
Q 709.676488 276.550792 709.207738 276.810167 
Q 708.738988 277.067979 708.079613 277.067979 
z
M 708.079613 276.121104 
Q 708.601488 276.121104 708.887425 275.794542 
Q 709.173363 275.466417 709.173363 274.875792 
L 709.173363 274.035167 
Q 709.173363 273.444542 708.887425 273.122667 
Q 708.601488 272.800792 708.079613 272.800792 
Q 707.556175 272.800792 707.270238 273.122667 
Q 706.985863 273.444542 706.985863 274.035167 
L 706.985863 274.875792 
Q 706.985863 275.466417 707.270238 275.794542 
Q 707.556175 276.121104 708.079613 276.121104 
z
" style="fill: #ffffff; stroke: #000000"/>
    <path d="M 681.13098 269.894542 
L 681.98098 269.894542 
L 684.598168 276.994542 
L 683.523167 276.994542 
L 681.55598 271.266417 
L 679.588793 276.994542 
L 678.513793 276.994542 
L 681.13098 269.894542 
z
M 679.720042 274.489854 
L 683.45598 274.489854 
L 683.45598 275.436729 
L 679.720042 275.436729 
L 679.720042 274.489854 
z
M 687.239964 276.994542 
L 686.243089 276.994542 
L 686.243089 270.978917 
L 685.232152 271.599229 
L 685.232152 270.567979 
L 686.243089 269.894542 
L 687.239964 269.894542 
L 687.239964 276.994542 
z
M 692.518285 270.783604 
L 690.682347 276.994542 
L 689.622972 276.994542 
L 691.45891 270.841417 
L 689.651097 270.841417 
L 689.651097 271.863292 
L 688.655785 271.863292 
L 688.655785 269.894542 
L 692.518285 269.894542 
L 692.518285 270.783604 
z
M 696.253636 273.292979 
L 698.523949 273.292979 
Q 698.845824 273.292979 699.089574 273.141417 
Q 699.334886 272.989854 699.467699 272.711729 
Q 699.602074 272.433604 699.602074 272.072667 
L 699.602074 272.072667 
Q 699.602074 271.707042 699.467699 271.428917 
Q 699.334886 271.149229 699.089574 270.996104 
Q 698.845824 270.841417 698.523949 270.841417 
L 696.253636 270.841417 
L 696.253636 269.894542 
L 698.489574 269.894542 
Q 699.123949 269.894542 699.606761 270.166417 
Q 700.091136 270.436729 700.356761 270.930479 
Q 700.623949 271.422667 700.623949 272.072667 
L 700.623949 272.072667 
Q 700.623949 272.722667 700.356761 273.213292 
Q 700.091136 273.703917 699.606761 273.972667 
Q 699.123949 274.239854 698.489574 274.239854 
L 696.253636 274.239854 
L 696.253636 273.292979 
z
M 695.741136 269.894542 
L 696.736449 269.894542 
L 696.736449 276.994542 
L 695.741136 276.994542 
L 695.741136 269.894542 
z
M 701.868285 271.925792 
L 702.86516 271.925792 
L 702.86516 276.994542 
L 701.868285 276.994542 
L 701.868285 271.925792 
z
M 704.655785 273.127354 
Q 704.524535 272.966417 704.324535 272.883604 
Q 704.124535 272.800792 703.860472 272.800792 
Q 703.387035 272.800792 703.126097 273.061729 
Q 702.86516 273.322667 702.86516 273.786729 
L 702.762035 272.810167 
Q 702.99641 272.355479 703.366722 272.103917 
Q 703.738597 271.852354 704.187035 271.852354 
Q 704.53391 271.852354 704.81516 271.952354 
Q 705.09641 272.052354 705.305785 272.247667 
L 704.655785 273.127354 
z
M 708.079613 277.067979 
Q 707.420238 277.067979 706.951488 276.810167 
Q 706.482738 276.550792 706.235863 276.055479 
Q 705.988988 275.558604 705.988988 274.860167 
L 705.988988 274.035167 
Q 705.988988 273.347667 706.235863 272.857042 
Q 706.482738 272.364854 706.951488 272.108604 
Q 707.420238 271.852354 708.079613 271.852354 
Q 708.738988 271.852354 709.207738 272.108604 
Q 709.676488 272.364854 709.9218 272.857042 
Q 710.168675 273.347667 710.168675 274.035167 
L 710.168675 274.875792 
Q 710.168675 275.567979 709.9218 276.060167 
Q 709.676488 276.550792 709.207738 276.810167 
Q 708.738988 277.067979 708.079613 277.067979 
z
M 708.079613 276.121104 
Q 708.601488 276.121104 708.887425 275.794542 
Q 709.173363 275.466417 709.173363 274.875792 
L 709.173363 274.035167 
Q 709.173363 273.444542 708.887425 273.122667 
Q 708.601488 272.800792 708.079613 272.800792 
Q 707.556175 272.800792 707.270238 273.122667 
Q 706.985863 273.444542 706.985863 274.035167 
L 706.985863 274.875792 
Q 706.985863 275.466417 707.270238 275.794542 
Q 707.556175 276.121104 708.079613 276.121104 
z
" style="fill: #ffffff"/>
   </g>
  </g>
 </g>
 <defs>
  <clipPath id="p57aeb9e4f6">
   <rect x="144" y="77.76" width="892.8" height="498.96"/>
  </clipPath>
 </defs>
</svg>
