<?xml version="1.0" encoding="utf-8" standalone="no"?>
<!DOCTYPE svg PUBLIC "-//W3C//DTD SVG 1.1//EN"
  "http://www.w3.org/Graphics/SVG/1.1/DTD/svg11.dtd">
<svg xmlns:xlink="http://www.w3.org/1999/xlink" width="1152pt" height="648pt" viewBox="0 0 1152 648" xmlns="http://www.w3.org/2000/svg" version="1.1">
 <metadata>
  <rdf:RDF xmlns:dc="http://purl.org/dc/elements/1.1/" xmlns:cc="http://creativecommons.org/ns#" xmlns:rdf="http://www.w3.org/1999/02/22-rdf-syntax-ns#">
   <cc:Work>
    <dc:type rdf:resource="http://purl.org/dc/dcmitype/StillImage"/>
    <dc:date>2024-11-15T17:08:11.499788</dc:date>
    <dc:format>image/svg+xml</dc:format>
    <dc:creator>
     <cc:Agent>
      <dc:title>Matplotlib v3.8.1, https://matplotlib.org/</dc:title>
     </cc:Agent>
    </dc:creator>
   </cc:Work>
  </rdf:RDF>
 </metadata>
 <defs>
  <style type="text/css">*{stroke-linejoin: round; stroke-linecap: butt}</style>
 </defs>
 <g id="figure_1">
  <g id="patch_1">
   <path d="M 0 648 
L 1152 648 
L 1152 0 
L 0 0 
L 0 648 
z
" style="fill: none"/>
  </g>
  <g id="axes_1">
   <g id="line2d_1">
    <path d="M 207.054 509.415244 
L 212.932727 501.441978 
L 218.811455 493.55831 
L 224.690182 485.766241 
L 230.568909 478.067645 
L 236.447636 470.464266 
L 242.326364 462.957722 
L 248.205091 455.549503 
L 254.083818 448.240972 
L 259.962545 441.033368 
L 265.841273 433.927804 
L 271.72 426.925273 
L 277.598727 420.026645 
L 283.477455 413.232676 
L 289.356182 406.544001 
L 295.234909 399.961146 
L 301.113636 393.484524 
L 306.992364 387.114441 
L 312.871091 380.851098 
L 318.749818 374.694595 
L 324.628545 368.644933 
L 330.507273 362.702019 
L 336.386 356.865667 
L 342.264727 351.135605 
L 348.143455 345.511475 
L 354.022182 339.992839 
L 359.900909 334.57918 
L 365.779636 329.269909 
L 371.658364 324.064367 
L 377.537091 318.961828 
L 383.415818 313.961504 
L 389.294545 309.062545 
L 395.173273 304.264049 
L 401.052 299.565059 
L 406.930727 294.964572 
L 412.809455 290.461535 
L 418.688182 286.054857 
L 424.566909 281.743406 
L 430.445636 277.526015 
L 436.324364 273.401483 
L 442.203091 269.368581 
L 448.081818 265.426051 
L 453.960545 261.572613 
L 459.839273 257.806963 
L 465.718 254.12778 
L 471.596727 250.533726 
L 477.475455 247.02345 
L 483.354182 243.595587 
L 489.232909 240.248764 
L 495.111636 236.981602 
L 500.990364 233.792713 
L 506.869091 230.68071 
L 512.747818 227.644201 
L 518.626545 224.681794 
L 524.505273 221.792101 
L 530.384 218.973736 
L 536.262727 216.225318 
L 542.141455 213.545471 
L 548.020182 210.932827 
L 553.898909 208.386027 
L 559.777636 205.903721 
L 565.656364 203.48457 
L 571.535091 201.127246 
L 577.413818 198.830434 
L 583.292545 196.592834 
L 589.171273 194.413156 
L 595.05 192.290128 
L 600.928727 190.222494 
L 606.807455 188.209011 
L 612.686182 186.248454 
L 618.564909 184.339616 
L 624.443636 182.481306 
L 630.322364 180.672351 
L 636.201091 178.911596 
L 642.079818 177.197905 
L 647.958545 175.53016 
L 653.837273 173.907261 
L 659.716 172.328128 
L 665.594727 170.791699 
L 671.473455 169.296933 
L 677.352182 167.842805 
L 683.230909 166.428312 
L 689.109636 165.052468 
L 694.988364 163.714308 
L 700.867091 162.412885 
L 706.745818 161.147271 
L 712.624545 159.916557 
L 718.503273 158.719853 
L 724.382 157.556287 
L 730.260727 156.425005 
L 736.139455 155.325174 
L 742.018182 154.255976 
L 747.896909 153.216612 
L 753.775636 152.206302 
L 759.654364 151.224282 
L 765.533091 150.269805 
L 771.411818 149.342143 
L 777.290545 148.440583 
L 783.169273 147.564429 
L 789.048 146.713002 
" clip-path="url(#peb0080d9c1)" style="fill: none; stroke: #79f2f2; stroke-width: 3; stroke-linecap: round"/>
   </g>
   <g id="text_1">
    <path d="M 797.95298 148.433008 
Q 797.44048 148.433008 796.981105 148.336133 
Q 796.523293 148.237695 796.124855 148.042383 
Q 795.726418 147.84707 795.379543 147.55332 
L 795.379543 147.55332 
L 795.999855 146.792383 
L 795.999855 146.792383 
Q 796.406105 147.143945 796.893605 147.320508 
Q 797.382668 147.495508 797.95298 147.495508 
Q 798.724855 147.495508 799.149855 147.20957 
Q 799.574855 146.923633 799.574855 146.401758 
L 799.574855 146.39707 
Q 799.574855 146.025195 799.381105 145.808008 
Q 799.188918 145.59082 798.882668 145.486133 
Q 798.57798 145.381445 798.095168 145.292383 
Q 798.079543 145.287695 798.062355 145.287695 
Q 798.04673 145.287695 798.031105 145.283008 
L 797.957668 145.268945 
Q 797.245168 145.14707 796.798293 144.993945 
Q 796.351418 144.839258 796.03423 144.431445 
Q 795.717043 144.023633 795.717043 143.27207 
L 795.717043 143.267383 
Q 795.717043 142.608008 796.012355 142.142383 
Q 796.307668 141.675195 796.873293 141.431445 
Q 797.44048 141.186133 798.235793 141.186133 
Q 798.617043 141.186133 798.985793 141.270508 
Q 799.354543 141.35332 799.712355 141.517383 
Q 800.07173 141.679883 800.418605 141.92832 
L 800.418605 141.92832 
L 799.85298 142.720508 
L 799.85298 142.720508 
Q 799.44673 142.42207 799.043605 142.273633 
Q 798.642043 142.123633 798.235793 142.123633 
Q 797.50923 142.123633 797.106105 142.414258 
Q 796.70298 142.704883 796.70298 143.237695 
L 796.70298 143.242383 
Q 796.70298 143.608008 796.910793 143.818945 
Q 797.118605 144.02832 797.42798 144.12832 
Q 797.738918 144.22832 798.29048 144.336133 
Q 798.30923 144.34082 798.326418 144.343945 
Q 798.343605 144.345508 798.363918 144.350195 
Q 798.387355 144.354883 798.417043 144.361133 
Q 798.44673 144.36582 798.470168 144.370508 
Q 799.11548 144.501758 799.54673 144.683008 
Q 799.979543 144.862695 800.270168 145.26582 
Q 800.560793 145.668945 800.560793 146.367383 
L 800.560793 146.376758 
Q 800.560793 147.026758 800.25298 147.487695 
Q 799.945168 147.948633 799.360793 148.19082 
Q 798.77798 148.433008 797.95298 148.433008 
z
M 802.650832 147.412695 
L 804.257082 147.412695 
Q 805.043019 147.412695 805.474269 147.004883 
Q 805.907082 146.59707 805.907082 145.854883 
L 805.907082 143.764258 
Q 805.907082 143.02207 805.474269 142.614258 
Q 805.043019 142.206445 804.257082 142.206445 
L 802.650832 142.206445 
L 802.650832 141.25957 
L 804.227394 141.25957 
Q 805.082082 141.25957 805.686769 141.558008 
Q 806.293019 141.854883 806.610207 142.426758 
Q 806.927394 142.998633 806.927394 143.80332 
L 806.927394 145.81582 
Q 806.927394 146.620508 806.610207 147.192383 
Q 806.293019 147.764258 805.685207 148.062695 
Q 805.077394 148.35957 804.222707 148.35957 
L 802.650832 148.35957 
L 802.650832 147.412695 
z
M 801.977394 141.25957 
L 802.972707 141.25957 
L 802.972707 148.35957 
L 801.977394 148.35957 
L 801.977394 141.25957 
z
M 810.472707 148.433008 
Q 809.828957 148.433008 809.339894 148.189258 
Q 808.852394 147.943945 808.585207 147.49707 
Q 808.319582 147.050195 808.319582 146.45957 
L 808.319582 146.342383 
Q 808.319582 145.811133 808.585207 145.342383 
Q 808.852394 144.873633 809.296144 144.63457 
Q 808.919582 144.42832 808.693019 144.04082 
Q 808.466457 143.651758 808.466457 143.22207 
L 808.466457 143.051758 
Q 808.466457 142.495508 808.714894 142.073633 
Q 808.963332 141.650195 809.418019 141.418945 
Q 809.872707 141.186133 810.472707 141.186133 
Q 811.072707 141.186133 811.527394 141.418945 
Q 811.982082 141.650195 812.230519 142.073633 
Q 812.478957 142.495508 812.478957 143.051758 
L 812.478957 143.22207 
Q 812.478957 143.662695 812.247707 144.048633 
Q 812.016457 144.433008 811.635207 144.63457 
Q 812.083644 144.87832 812.353957 145.345508 
Q 812.625832 145.811133 812.625832 146.342383 
L 812.625832 146.45957 
Q 812.625832 147.050195 812.360207 147.49707 
Q 812.094582 147.943945 811.605519 148.189258 
Q 811.118019 148.433008 810.472707 148.433008 
z
M 810.472707 147.475195 
Q 810.819582 147.475195 811.082082 147.339258 
Q 811.346144 147.201758 811.489894 146.956445 
Q 811.635207 146.70957 811.635207 146.386133 
L 811.635207 146.318945 
Q 811.635207 145.99082 811.489894 145.745508 
Q 811.346144 145.498633 811.082082 145.362695 
Q 810.819582 145.225195 810.472707 145.225195 
Q 810.125832 145.225195 809.861769 145.362695 
Q 809.599269 145.498633 809.453957 145.74707 
Q 809.310207 145.995508 809.310207 146.323633 
L 809.310207 146.39707 
Q 809.310207 146.718945 809.453957 146.962695 
Q 809.599269 147.206445 809.861769 147.34082 
Q 810.125832 147.475195 810.472707 147.475195 
z
M 810.472707 144.267383 
Q 810.771144 144.267383 810.999269 144.139258 
Q 811.228957 144.00957 811.355519 143.770508 
Q 811.483644 143.529883 811.483644 143.217383 
L 811.483644 143.150195 
Q 811.483644 142.851758 811.355519 142.62207 
Q 811.228957 142.392383 810.999269 142.268945 
Q 810.771144 142.143945 810.472707 142.143945 
Q 810.174269 142.143945 809.944582 142.268945 
Q 809.716457 142.392383 809.588332 142.62207 
Q 809.461769 142.851758 809.461769 143.154883 
L 809.461769 143.22832 
Q 809.461769 143.53457 809.588332 143.77207 
Q 809.716457 144.00957 809.944582 144.139258 
Q 810.174269 144.267383 810.472707 144.267383 
z
M 815.873878 141.25957 
L 816.869191 141.25957 
L 816.869191 148.35957 
L 815.873878 148.35957 
L 815.873878 141.25957 
z
M 816.356691 147.412695 
L 820.433253 147.412695 
L 820.433253 148.35957 
L 816.356691 148.35957 
L 816.356691 147.412695 
z
M 816.356691 144.361133 
L 819.897316 144.361133 
L 819.897316 145.308008 
L 816.356691 145.308008 
L 816.356691 144.361133 
z
M 816.356691 141.25957 
L 820.433253 141.25957 
L 820.433253 142.206445 
L 816.356691 142.206445 
L 816.356691 141.25957 
z
M 822.748878 147.050195 
Q 822.748878 147.236133 822.828566 147.336133 
Q 822.909816 147.436133 823.055128 147.436133 
L 823.523878 147.436133 
L 823.523878 148.38457 
L 822.937941 148.38457 
Q 822.372316 148.38457 822.061378 148.033008 
Q 821.752003 147.681445 821.752003 147.04082 
L 821.752003 141.25957 
L 822.748878 141.25957 
L 822.748878 147.050195 
z
M 824.647511 141.25957 
L 825.644386 141.25957 
L 825.644386 142.256445 
L 824.647511 142.256445 
L 824.647511 141.25957 
z
M 824.647511 143.29082 
L 825.644386 143.29082 
L 825.644386 148.35957 
L 824.647511 148.35957 
L 824.647511 143.29082 
z
M 828.476027 148.38457 
Q 827.860402 148.38457 827.574464 148.045508 
Q 827.288527 147.704883 827.288527 147.04082 
L 827.288527 141.81582 
L 828.285402 141.81582 
L 828.285402 147.050195 
Q 828.285402 147.236133 828.358839 147.336133 
Q 828.432277 147.436133 828.572902 147.436133 
L 829.052589 147.436133 
L 829.052589 148.38457 
L 828.476027 148.38457 
z
M 826.766652 143.29082 
L 829.052589 143.29082 
L 829.052589 144.189258 
L 826.766652 144.189258 
L 826.766652 143.29082 
z
M 832.493996 148.433008 
Q 831.790871 148.433008 831.292433 148.168945 
Q 830.795558 147.904883 830.533058 147.395508 
Q 830.272121 146.88457 830.272121 146.162695 
L 830.272121 145.59082 
Q 830.272121 144.839258 830.523683 144.308008 
Q 830.775246 143.775195 831.253371 143.49707 
Q 831.733058 143.217383 832.406496 143.217383 
Q 833.040871 143.217383 833.489308 143.536133 
Q 833.939308 143.85332 834.175246 144.45332 
Q 834.412746 145.05332 834.412746 145.893945 
L 834.412746 146.225195 
L 830.995558 146.225195 
L 830.995558 145.425195 
L 833.465871 145.425195 
L 833.465871 145.425195 
Q 833.422121 144.804883 833.145558 144.461133 
Q 832.870558 144.11582 832.406496 144.11582 
Q 831.839308 144.11582 831.529933 144.487695 
Q 831.220558 144.858008 831.220558 145.537695 
L 831.220558 146.181445 
Q 831.220558 146.811133 831.551808 147.148633 
Q 831.884621 147.486133 832.493996 147.486133 
Q 832.797121 147.486133 833.093996 147.364258 
Q 833.392433 147.24082 833.626808 147.02207 
L 833.626808 147.02207 
L 834.281496 147.675195 
L 834.281496 147.675195 
Q 833.904933 148.037695 833.436183 148.236133 
Q 832.967433 148.433008 832.493996 148.433008 
z
M 839.320558 149.887695 
Q 838.451808 148.945508 838.018996 147.776758 
Q 837.587746 146.606445 837.587746 145.195508 
Q 837.587746 143.78457 838.018996 142.61582 
Q 838.451808 141.445508 839.320558 140.50332 
L 840.003371 141.123633 
Q 839.267433 141.943945 838.900246 142.95957 
Q 838.534621 143.975195 838.534621 145.195508 
Q 838.534621 146.41582 838.900246 147.431445 
Q 839.267433 148.44707 840.003371 149.27207 
L 839.320558 149.887695 
z
M 843.348488 144.83457 
L 843.3438 145.00957 
Q 843.221925 145.23457 842.97505 145.339258 
Q 842.728175 145.443945 842.392238 145.443945 
Q 841.884425 145.443945 841.498488 145.186133 
Q 841.11255 144.926758 840.90005 144.456445 
Q 840.68755 143.98457 840.68755 143.364258 
L 840.68755 143.35957 
Q 840.68755 142.670508 840.9188 142.183008 
Q 841.151613 141.693945 841.598488 141.44082 
Q 842.045363 141.186133 842.670363 141.186133 
Q 843.295363 141.186133 843.739113 141.445508 
Q 844.184425 141.704883 844.415675 142.198633 
Q 844.646925 142.69082 844.646925 143.38457 
L 844.646925 143.389258 
Q 844.646925 143.768945 844.548488 144.201758 
Q 844.451613 144.63457 844.271925 145.058008 
Q 844.242238 145.12207 844.21255 145.187695 
Q 844.184425 145.25332 844.15005 145.317383 
L 842.635988 148.35957 
L 841.560988 148.35957 
L 843.348488 144.83457 
z
M 842.670363 144.536133 
Q 843.139113 144.536133 843.395363 144.218945 
Q 843.651613 143.901758 843.651613 143.325195 
L 843.651613 143.320508 
Q 843.651613 142.75957 843.395363 142.451758 
Q 843.139113 142.143945 842.670363 142.143945 
Q 842.196925 142.143945 841.940675 142.451758 
Q 841.684425 142.75957 841.684425 143.325195 
L 841.684425 143.329883 
Q 841.684425 143.906445 841.940675 144.22207 
Q 842.196925 144.536133 842.670363 144.536133 
z
M 847.797511 148.433008 
Q 847.172511 148.433008 846.727199 148.181445 
Q 846.283449 147.929883 846.050636 147.448633 
Q 845.819386 146.967383 845.819386 146.289258 
L 845.819386 146.28457 
Q 845.819386 145.889258 845.911574 145.454883 
Q 846.005324 145.018945 846.180324 144.600195 
Q 846.210011 144.526758 846.244386 144.456445 
Q 846.278761 144.38457 846.313136 144.31582 
L 847.855324 141.25957 
L 848.930324 141.25957 
L 847.117824 144.800195 
L 847.122511 144.623633 
Q 847.245949 144.393945 847.480324 144.267383 
Q 847.714699 144.14082 848.027199 144.14082 
Q 848.578761 144.14082 848.974074 144.39082 
Q 849.369386 144.639258 849.574074 145.11582 
Q 849.778761 145.59082 849.778761 146.25957 
L 849.778761 146.264258 
Q 849.778761 146.948633 849.547511 147.437695 
Q 849.316261 147.925195 848.869386 148.179883 
Q 848.422511 148.433008 847.797511 148.433008 
z
M 847.797511 147.475195 
Q 848.270949 147.475195 848.527199 147.183008 
Q 848.783449 146.889258 848.783449 146.34707 
L 848.783449 146.342383 
Q 848.783449 145.74707 848.514699 145.42207 
Q 848.245949 145.09707 847.747511 145.09707 
Q 847.303761 145.09707 847.060011 145.425195 
Q 846.816261 145.751758 846.816261 146.34707 
L 846.816261 146.35332 
Q 846.816261 146.893945 847.072511 147.18457 
Q 847.328761 147.475195 847.797511 147.475195 
z
M 853.12466 148.433008 
Q 852.127785 148.433008 851.61216 147.901758 
Q 851.098097 147.368945 851.098097 146.41582 
L 851.098097 143.189258 
Q 851.098097 142.231445 851.615285 141.701758 
Q 852.132472 141.17207 853.12466 141.17207 
Q 854.119972 141.17207 854.635597 141.700195 
Q 855.151222 142.226758 855.151222 143.189258 
L 855.151222 146.41582 
Q 855.151222 147.373633 854.632472 147.90332 
Q 854.115285 148.433008 853.12466 148.433008 
z
M 853.12466 147.486133 
Q 853.651222 147.486133 853.902785 147.20957 
Q 854.154347 146.933008 854.154347 146.41582 
L 854.154347 143.189258 
Q 854.154347 142.670508 853.904347 142.395508 
Q 853.65591 142.118945 853.12466 142.118945 
Q 852.591847 142.118945 852.341847 142.395508 
Q 852.09341 142.670508 852.09341 143.189258 
L 852.09341 146.41582 
Q 852.09341 146.933008 852.344972 147.20957 
Q 852.596535 147.486133 853.12466 147.486133 
z
M 858.642238 148.433008 
Q 857.645363 148.433008 857.129738 147.901758 
Q 856.615675 147.368945 856.615675 146.41582 
L 856.615675 143.189258 
Q 856.615675 142.231445 857.132863 141.701758 
Q 857.65005 141.17207 858.642238 141.17207 
Q 859.63755 141.17207 860.153175 141.700195 
Q 860.6688 142.226758 860.6688 143.189258 
L 860.6688 146.41582 
Q 860.6688 147.373633 860.15005 147.90332 
Q 859.632863 148.433008 858.642238 148.433008 
z
M 858.642238 147.486133 
Q 859.1688 147.486133 859.420363 147.20957 
Q 859.671925 146.933008 859.671925 146.41582 
L 859.671925 143.189258 
Q 859.671925 142.670508 859.421925 142.395508 
Q 859.173488 142.118945 858.642238 142.118945 
Q 858.109425 142.118945 857.859425 142.395508 
Q 857.610988 142.670508 857.610988 143.189258 
L 857.610988 146.41582 
Q 857.610988 146.933008 857.86255 147.20957 
Q 858.114113 147.486133 858.642238 147.486133 
z
M 861.498878 149.27207 
Q 862.234816 148.44707 862.600441 147.431445 
Q 862.967628 146.41582 862.967628 145.195508 
Q 862.967628 143.975195 862.600441 142.95957 
Q 862.234816 141.943945 861.498878 141.123633 
L 862.181691 140.50332 
Q 863.050441 141.445508 863.481691 142.61582 
Q 863.914503 143.78457 863.914503 145.195508 
Q 863.914503 146.606445 863.481691 147.776758 
Q 863.050441 148.945508 862.181691 149.887695 
L 861.498878 149.27207 
z
" style="fill: #ffffff; stroke: #000000"/>
    <path d="M 797.95298 148.433008 
Q 797.44048 148.433008 796.981105 148.336133 
Q 796.523293 148.237695 796.124855 148.042383 
Q 795.726418 147.84707 795.379543 147.55332 
L 795.379543 147.55332 
L 795.999855 146.792383 
L 795.999855 146.792383 
Q 796.406105 147.143945 796.893605 147.320508 
Q 797.382668 147.495508 797.95298 147.495508 
Q 798.724855 147.495508 799.149855 147.20957 
Q 799.574855 146.923633 799.574855 146.401758 
L 799.574855 146.39707 
Q 799.574855 146.025195 799.381105 145.808008 
Q 799.188918 145.59082 798.882668 145.486133 
Q 798.57798 145.381445 798.095168 145.292383 
Q 798.079543 145.287695 798.062355 145.287695 
Q 798.04673 145.287695 798.031105 145.283008 
L 797.957668 145.268945 
Q 797.245168 145.14707 796.798293 144.993945 
Q 796.351418 144.839258 796.03423 144.431445 
Q 795.717043 144.023633 795.717043 143.27207 
L 795.717043 143.267383 
Q 795.717043 142.608008 796.012355 142.142383 
Q 796.307668 141.675195 796.873293 141.431445 
Q 797.44048 141.186133 798.235793 141.186133 
Q 798.617043 141.186133 798.985793 141.270508 
Q 799.354543 141.35332 799.712355 141.517383 
Q 800.07173 141.679883 800.418605 141.92832 
L 800.418605 141.92832 
L 799.85298 142.720508 
L 799.85298 142.720508 
Q 799.44673 142.42207 799.043605 142.273633 
Q 798.642043 142.123633 798.235793 142.123633 
Q 797.50923 142.123633 797.106105 142.414258 
Q 796.70298 142.704883 796.70298 143.237695 
L 796.70298 143.242383 
Q 796.70298 143.608008 796.910793 143.818945 
Q 797.118605 144.02832 797.42798 144.12832 
Q 797.738918 144.22832 798.29048 144.336133 
Q 798.30923 144.34082 798.326418 144.343945 
Q 798.343605 144.345508 798.363918 144.350195 
Q 798.387355 144.354883 798.417043 144.361133 
Q 798.44673 144.36582 798.470168 144.370508 
Q 799.11548 144.501758 799.54673 144.683008 
Q 799.979543 144.862695 800.270168 145.26582 
Q 800.560793 145.668945 800.560793 146.367383 
L 800.560793 146.376758 
Q 800.560793 147.026758 800.25298 147.487695 
Q 799.945168 147.948633 799.360793 148.19082 
Q 798.77798 148.433008 797.95298 148.433008 
z
M 802.650832 147.412695 
L 804.257082 147.412695 
Q 805.043019 147.412695 805.474269 147.004883 
Q 805.907082 146.59707 805.907082 145.854883 
L 805.907082 143.764258 
Q 805.907082 143.02207 805.474269 142.614258 
Q 805.043019 142.206445 804.257082 142.206445 
L 802.650832 142.206445 
L 802.650832 141.25957 
L 804.227394 141.25957 
Q 805.082082 141.25957 805.686769 141.558008 
Q 806.293019 141.854883 806.610207 142.426758 
Q 806.927394 142.998633 806.927394 143.80332 
L 806.927394 145.81582 
Q 806.927394 146.620508 806.610207 147.192383 
Q 806.293019 147.764258 805.685207 148.062695 
Q 805.077394 148.35957 804.222707 148.35957 
L 802.650832 148.35957 
L 802.650832 147.412695 
z
M 801.977394 141.25957 
L 802.972707 141.25957 
L 802.972707 148.35957 
L 801.977394 148.35957 
L 801.977394 141.25957 
z
M 810.472707 148.433008 
Q 809.828957 148.433008 809.339894 148.189258 
Q 808.852394 147.943945 808.585207 147.49707 
Q 808.319582 147.050195 808.319582 146.45957 
L 808.319582 146.342383 
Q 808.319582 145.811133 808.585207 145.342383 
Q 808.852394 144.873633 809.296144 144.63457 
Q 808.919582 144.42832 808.693019 144.04082 
Q 808.466457 143.651758 808.466457 143.22207 
L 808.466457 143.051758 
Q 808.466457 142.495508 808.714894 142.073633 
Q 808.963332 141.650195 809.418019 141.418945 
Q 809.872707 141.186133 810.472707 141.186133 
Q 811.072707 141.186133 811.527394 141.418945 
Q 811.982082 141.650195 812.230519 142.073633 
Q 812.478957 142.495508 812.478957 143.051758 
L 812.478957 143.22207 
Q 812.478957 143.662695 812.247707 144.048633 
Q 812.016457 144.433008 811.635207 144.63457 
Q 812.083644 144.87832 812.353957 145.345508 
Q 812.625832 145.811133 812.625832 146.342383 
L 812.625832 146.45957 
Q 812.625832 147.050195 812.360207 147.49707 
Q 812.094582 147.943945 811.605519 148.189258 
Q 811.118019 148.433008 810.472707 148.433008 
z
M 810.472707 147.475195 
Q 810.819582 147.475195 811.082082 147.339258 
Q 811.346144 147.201758 811.489894 146.956445 
Q 811.635207 146.70957 811.635207 146.386133 
L 811.635207 146.318945 
Q 811.635207 145.99082 811.489894 145.745508 
Q 811.346144 145.498633 811.082082 145.362695 
Q 810.819582 145.225195 810.472707 145.225195 
Q 810.125832 145.225195 809.861769 145.362695 
Q 809.599269 145.498633 809.453957 145.74707 
Q 809.310207 145.995508 809.310207 146.323633 
L 809.310207 146.39707 
Q 809.310207 146.718945 809.453957 146.962695 
Q 809.599269 147.206445 809.861769 147.34082 
Q 810.125832 147.475195 810.472707 147.475195 
z
M 810.472707 144.267383 
Q 810.771144 144.267383 810.999269 144.139258 
Q 811.228957 144.00957 811.355519 143.770508 
Q 811.483644 143.529883 811.483644 143.217383 
L 811.483644 143.150195 
Q 811.483644 142.851758 811.355519 142.62207 
Q 811.228957 142.392383 810.999269 142.268945 
Q 810.771144 142.143945 810.472707 142.143945 
Q 810.174269 142.143945 809.944582 142.268945 
Q 809.716457 142.392383 809.588332 142.62207 
Q 809.461769 142.851758 809.461769 143.154883 
L 809.461769 143.22832 
Q 809.461769 143.53457 809.588332 143.77207 
Q 809.716457 144.00957 809.944582 144.139258 
Q 810.174269 144.267383 810.472707 144.267383 
z
M 815.873878 141.25957 
L 816.869191 141.25957 
L 816.869191 148.35957 
L 815.873878 148.35957 
L 815.873878 141.25957 
z
M 816.356691 147.412695 
L 820.433253 147.412695 
L 820.433253 148.35957 
L 816.356691 148.35957 
L 816.356691 147.412695 
z
M 816.356691 144.361133 
L 819.897316 144.361133 
L 819.897316 145.308008 
L 816.356691 145.308008 
L 816.356691 144.361133 
z
M 816.356691 141.25957 
L 820.433253 141.25957 
L 820.433253 142.206445 
L 816.356691 142.206445 
L 816.356691 141.25957 
z
M 822.748878 147.050195 
Q 822.748878 147.236133 822.828566 147.336133 
Q 822.909816 147.436133 823.055128 147.436133 
L 823.523878 147.436133 
L 823.523878 148.38457 
L 822.937941 148.38457 
Q 822.372316 148.38457 822.061378 148.033008 
Q 821.752003 147.681445 821.752003 147.04082 
L 821.752003 141.25957 
L 822.748878 141.25957 
L 822.748878 147.050195 
z
M 824.647511 141.25957 
L 825.644386 141.25957 
L 825.644386 142.256445 
L 824.647511 142.256445 
L 824.647511 141.25957 
z
M 824.647511 143.29082 
L 825.644386 143.29082 
L 825.644386 148.35957 
L 824.647511 148.35957 
L 824.647511 143.29082 
z
M 828.476027 148.38457 
Q 827.860402 148.38457 827.574464 148.045508 
Q 827.288527 147.704883 827.288527 147.04082 
L 827.288527 141.81582 
L 828.285402 141.81582 
L 828.285402 147.050195 
Q 828.285402 147.236133 828.358839 147.336133 
Q 828.432277 147.436133 828.572902 147.436133 
L 829.052589 147.436133 
L 829.052589 148.38457 
L 828.476027 148.38457 
z
M 826.766652 143.29082 
L 829.052589 143.29082 
L 829.052589 144.189258 
L 826.766652 144.189258 
L 826.766652 143.29082 
z
M 832.493996 148.433008 
Q 831.790871 148.433008 831.292433 148.168945 
Q 830.795558 147.904883 830.533058 147.395508 
Q 830.272121 146.88457 830.272121 146.162695 
L 830.272121 145.59082 
Q 830.272121 144.839258 830.523683 144.308008 
Q 830.775246 143.775195 831.253371 143.49707 
Q 831.733058 143.217383 832.406496 143.217383 
Q 833.040871 143.217383 833.489308 143.536133 
Q 833.939308 143.85332 834.175246 144.45332 
Q 834.412746 145.05332 834.412746 145.893945 
L 834.412746 146.225195 
L 830.995558 146.225195 
L 830.995558 145.425195 
L 833.465871 145.425195 
L 833.465871 145.425195 
Q 833.422121 144.804883 833.145558 144.461133 
Q 832.870558 144.11582 832.406496 144.11582 
Q 831.839308 144.11582 831.529933 144.487695 
Q 831.220558 144.858008 831.220558 145.537695 
L 831.220558 146.181445 
Q 831.220558 146.811133 831.551808 147.148633 
Q 831.884621 147.486133 832.493996 147.486133 
Q 832.797121 147.486133 833.093996 147.364258 
Q 833.392433 147.24082 833.626808 147.02207 
L 833.626808 147.02207 
L 834.281496 147.675195 
L 834.281496 147.675195 
Q 833.904933 148.037695 833.436183 148.236133 
Q 832.967433 148.433008 832.493996 148.433008 
z
M 839.320558 149.887695 
Q 838.451808 148.945508 838.018996 147.776758 
Q 837.587746 146.606445 837.587746 145.195508 
Q 837.587746 143.78457 838.018996 142.61582 
Q 838.451808 141.445508 839.320558 140.50332 
L 840.003371 141.123633 
Q 839.267433 141.943945 838.900246 142.95957 
Q 838.534621 143.975195 838.534621 145.195508 
Q 838.534621 146.41582 838.900246 147.431445 
Q 839.267433 148.44707 840.003371 149.27207 
L 839.320558 149.887695 
z
M 843.348488 144.83457 
L 843.3438 145.00957 
Q 843.221925 145.23457 842.97505 145.339258 
Q 842.728175 145.443945 842.392238 145.443945 
Q 841.884425 145.443945 841.498488 145.186133 
Q 841.11255 144.926758 840.90005 144.456445 
Q 840.68755 143.98457 840.68755 143.364258 
L 840.68755 143.35957 
Q 840.68755 142.670508 840.9188 142.183008 
Q 841.151613 141.693945 841.598488 141.44082 
Q 842.045363 141.186133 842.670363 141.186133 
Q 843.295363 141.186133 843.739113 141.445508 
Q 844.184425 141.704883 844.415675 142.198633 
Q 844.646925 142.69082 844.646925 143.38457 
L 844.646925 143.389258 
Q 844.646925 143.768945 844.548488 144.201758 
Q 844.451613 144.63457 844.271925 145.058008 
Q 844.242238 145.12207 844.21255 145.187695 
Q 844.184425 145.25332 844.15005 145.317383 
L 842.635988 148.35957 
L 841.560988 148.35957 
L 843.348488 144.83457 
z
M 842.670363 144.536133 
Q 843.139113 144.536133 843.395363 144.218945 
Q 843.651613 143.901758 843.651613 143.325195 
L 843.651613 143.320508 
Q 843.651613 142.75957 843.395363 142.451758 
Q 843.139113 142.143945 842.670363 142.143945 
Q 842.196925 142.143945 841.940675 142.451758 
Q 841.684425 142.75957 841.684425 143.325195 
L 841.684425 143.329883 
Q 841.684425 143.906445 841.940675 144.22207 
Q 842.196925 144.536133 842.670363 144.536133 
z
M 847.797511 148.433008 
Q 847.172511 148.433008 846.727199 148.181445 
Q 846.283449 147.929883 846.050636 147.448633 
Q 845.819386 146.967383 845.819386 146.289258 
L 845.819386 146.28457 
Q 845.819386 145.889258 845.911574 145.454883 
Q 846.005324 145.018945 846.180324 144.600195 
Q 846.210011 144.526758 846.244386 144.456445 
Q 846.278761 144.38457 846.313136 144.31582 
L 847.855324 141.25957 
L 848.930324 141.25957 
L 847.117824 144.800195 
L 847.122511 144.623633 
Q 847.245949 144.393945 847.480324 144.267383 
Q 847.714699 144.14082 848.027199 144.14082 
Q 848.578761 144.14082 848.974074 144.39082 
Q 849.369386 144.639258 849.574074 145.11582 
Q 849.778761 145.59082 849.778761 146.25957 
L 849.778761 146.264258 
Q 849.778761 146.948633 849.547511 147.437695 
Q 849.316261 147.925195 848.869386 148.179883 
Q 848.422511 148.433008 847.797511 148.433008 
z
M 847.797511 147.475195 
Q 848.270949 147.475195 848.527199 147.183008 
Q 848.783449 146.889258 848.783449 146.34707 
L 848.783449 146.342383 
Q 848.783449 145.74707 848.514699 145.42207 
Q 848.245949 145.09707 847.747511 145.09707 
Q 847.303761 145.09707 847.060011 145.425195 
Q 846.816261 145.751758 846.816261 146.34707 
L 846.816261 146.35332 
Q 846.816261 146.893945 847.072511 147.18457 
Q 847.328761 147.475195 847.797511 147.475195 
z
M 853.12466 148.433008 
Q 852.127785 148.433008 851.61216 147.901758 
Q 851.098097 147.368945 851.098097 146.41582 
L 851.098097 143.189258 
Q 851.098097 142.231445 851.615285 141.701758 
Q 852.132472 141.17207 853.12466 141.17207 
Q 854.119972 141.17207 854.635597 141.700195 
Q 855.151222 142.226758 855.151222 143.189258 
L 855.151222 146.41582 
Q 855.151222 147.373633 854.632472 147.90332 
Q 854.115285 148.433008 853.12466 148.433008 
z
M 853.12466 147.486133 
Q 853.651222 147.486133 853.902785 147.20957 
Q 854.154347 146.933008 854.154347 146.41582 
L 854.154347 143.189258 
Q 854.154347 142.670508 853.904347 142.395508 
Q 853.65591 142.118945 853.12466 142.118945 
Q 852.591847 142.118945 852.341847 142.395508 
Q 852.09341 142.670508 852.09341 143.189258 
L 852.09341 146.41582 
Q 852.09341 146.933008 852.344972 147.20957 
Q 852.596535 147.486133 853.12466 147.486133 
z
M 858.642238 148.433008 
Q 857.645363 148.433008 857.129738 147.901758 
Q 856.615675 147.368945 856.615675 146.41582 
L 856.615675 143.189258 
Q 856.615675 142.231445 857.132863 141.701758 
Q 857.65005 141.17207 858.642238 141.17207 
Q 859.63755 141.17207 860.153175 141.700195 
Q 860.6688 142.226758 860.6688 143.189258 
L 860.6688 146.41582 
Q 860.6688 147.373633 860.15005 147.90332 
Q 859.632863 148.433008 858.642238 148.433008 
z
M 858.642238 147.486133 
Q 859.1688 147.486133 859.420363 147.20957 
Q 859.671925 146.933008 859.671925 146.41582 
L 859.671925 143.189258 
Q 859.671925 142.670508 859.421925 142.395508 
Q 859.173488 142.118945 858.642238 142.118945 
Q 858.109425 142.118945 857.859425 142.395508 
Q 857.610988 142.670508 857.610988 143.189258 
L 857.610988 146.41582 
Q 857.610988 146.933008 857.86255 147.20957 
Q 858.114113 147.486133 858.642238 147.486133 
z
M 861.498878 149.27207 
Q 862.234816 148.44707 862.600441 147.431445 
Q 862.967628 146.41582 862.967628 145.195508 
Q 862.967628 143.975195 862.600441 142.95957 
Q 862.234816 141.943945 861.498878 141.123633 
L 862.181691 140.50332 
Q 863.050441 141.445508 863.481691 142.61582 
Q 863.914503 143.78457 863.914503 145.195508 
Q 863.914503 146.606445 863.481691 147.776758 
Q 863.050441 148.945508 862.181691 149.887695 
L 861.498878 149.27207 
z
" style="fill: #ffffff"/>
   </g>
  </g>
 </g>
 <defs>
  <clipPath id="peb0080d9c1">
   <rect x="144" y="77.76" width="892.8" height="498.96"/>
  </clipPath>
 </defs>
</svg>
