<?xml version="1.0" encoding="utf-8" standalone="no"?>
<!DOCTYPE svg PUBLIC "-//W3C//DTD SVG 1.1//EN"
  "http://www.w3.org/Graphics/SVG/1.1/DTD/svg11.dtd">
<svg xmlns:xlink="http://www.w3.org/1999/xlink" width="1152pt" height="648pt" viewBox="0 0 1152 648" xmlns="http://www.w3.org/2000/svg" version="1.1">
 <metadata>
  <rdf:RDF xmlns:dc="http://purl.org/dc/elements/1.1/" xmlns:cc="http://creativecommons.org/ns#" xmlns:rdf="http://www.w3.org/1999/02/22-rdf-syntax-ns#">
   <cc:Work>
    <dc:type rdf:resource="http://purl.org/dc/dcmitype/StillImage"/>
    <dc:date>2024-10-09T18:10:38.625653</dc:date>
    <dc:format>image/svg+xml</dc:format>
    <dc:creator>
     <cc:Agent>
      <dc:title>Matplotlib v3.8.1, https://matplotlib.org/</dc:title>
     </cc:Agent>
    </dc:creator>
   </cc:Work>
  </rdf:RDF>
 </metadata>
 <defs>
  <style type="text/css">*{stroke-linejoin: round; stroke-linecap: butt}</style>
 </defs>
 <g id="figure_1">
  <g id="patch_1">
   <path d="M 0 648 
L 1152 648 
L 1152 0 
L 0 0 
L 0 648 
z
" style="fill: none"/>
  </g>
  <g id="axes_1">
   <g id="line2d_1">
    <path d="M 217.098 534.19145 
L 219.583636 532.576762 
L 222.069273 530.964762 
L 224.554909 529.355868 
L 227.040545 527.750493 
L 229.526182 526.149049 
L 232.011818 524.551942 
L 234.497455 522.959573 
L 236.983091 521.372341 
L 239.468727 519.790637 
L 241.954364 518.214847 
L 244.44 516.645352 
L 246.925636 515.082524 
L 249.411273 513.526733 
L 251.896909 511.978337 
L 254.382545 510.43769 
L 256.868182 508.905138 
L 259.353818 507.381017 
L 261.839455 505.865657 
L 264.325091 504.359379 
L 266.810727 502.862495 
L 269.296364 501.37531 
L 271.782 499.898117 
L 274.267636 498.431202 
L 276.753273 496.974841 
L 279.238909 495.529301 
L 281.724545 494.094838 
L 284.210182 492.6717 
L 286.695818 491.260125 
L 289.181455 489.860339 
L 291.667091 488.47256 
L 294.152727 487.096996 
L 296.638364 485.733845 
L 299.124 484.383294 
L 301.609636 483.04552 
L 304.095273 481.720691 
L 306.580909 480.408965 
L 309.066545 479.110488 
L 311.552182 477.825399 
L 314.037818 476.553825 
L 316.523455 475.295885 
L 319.009091 474.051686 
L 321.494727 472.821329 
L 323.980364 471.604902 
L 326.466 470.402485 
L 328.951636 469.21415 
L 331.437273 468.039959 
L 333.922909 466.879965 
L 336.408545 465.734213 
L 338.894182 464.602738 
L 341.379818 463.485569 
L 343.865455 462.382725 
L 346.351091 461.294217 
L 348.836727 460.22005 
L 351.322364 459.160219 
L 353.808 458.114715 
L 356.293636 457.083517 
L 358.779273 456.066602 
L 361.264909 455.063937 
L 363.750545 454.075485 
L 366.236182 453.101199 
L 368.721818 452.141029 
L 371.207455 451.19492 
L 373.693091 450.262807 
L 376.178727 449.344623 
L 378.664364 448.440296 
L 381.15 447.549747 
L 383.635636 446.672893 
L 386.121273 445.809647 
L 388.606909 444.959917 
L 391.092545 444.123607 
L 393.578182 443.300616 
L 396.063818 442.490843 
L 398.549455 441.694178 
L 401.035091 440.910511 
L 403.520727 440.139729 
L 406.006364 439.381715 
L 408.492 438.636349 
L 410.977636 437.903509 
L 413.463273 437.18307 
L 415.948909 436.474906 
L 418.434545 435.778887 
L 420.920182 435.094883 
L 423.405818 434.422762 
L 425.891455 433.762388 
L 428.377091 433.113627 
L 430.862727 432.47634 
L 433.348364 431.850392 
L 435.834 431.235641 
L 438.319636 430.631949 
L 440.805273 430.039174 
L 443.290909 429.457175 
L 445.776545 428.885811 
L 448.262182 428.32494 
L 450.747818 427.774418 
L 453.233455 427.234103 
L 455.719091 426.703853 
L 458.204727 426.183524 
L 460.690364 425.672976 
L 463.176 425.172064 
" clip-path="url(#p1df28a8b94)" style="fill: none; stroke: #30d2f2; stroke-width: 3; stroke-linecap: round"/>
   </g>
   <g id="text_1">
    <path d="M 472.08098 426.89207 
Q 471.56848 426.89207 471.109105 426.795195 
Q 470.651292 426.696757 470.252855 426.501445 
Q 469.854417 426.306132 469.507542 426.012382 
L 469.507542 426.012382 
L 470.127855 425.251445 
L 470.127855 425.251445 
Q 470.534105 425.603007 471.021605 425.77957 
Q 471.510667 425.95457 472.08098 425.95457 
Q 472.852855 425.95457 473.277855 425.668632 
Q 473.702855 425.382695 473.702855 424.86082 
L 473.702855 424.856132 
Q 473.702855 424.484257 473.509105 424.26707 
Q 473.316917 424.049882 473.010667 423.945195 
Q 472.70598 423.840507 472.223167 423.751445 
Q 472.207542 423.746757 472.190355 423.746757 
Q 472.17473 423.746757 472.159105 423.74207 
L 472.085667 423.728007 
Q 471.373167 423.606132 470.926292 423.453007 
Q 470.479417 423.29832 470.16223 422.890507 
Q 469.845042 422.482695 469.845042 421.731132 
L 469.845042 421.726445 
Q 469.845042 421.06707 470.140355 420.601445 
Q 470.435667 420.134257 471.001292 419.890507 
Q 471.56848 419.645195 472.363792 419.645195 
Q 472.745042 419.645195 473.113792 419.72957 
Q 473.482542 419.812382 473.840355 419.976445 
Q 474.19973 420.138945 474.546605 420.387382 
L 474.546605 420.387382 
L 473.98098 421.17957 
L 473.98098 421.17957 
Q 473.57473 420.881132 473.171605 420.732695 
Q 472.770042 420.582695 472.363792 420.582695 
Q 471.63723 420.582695 471.234105 420.87332 
Q 470.83098 421.163945 470.83098 421.696757 
L 470.83098 421.701445 
Q 470.83098 422.06707 471.038792 422.278007 
Q 471.246605 422.487382 471.55598 422.587382 
Q 471.866917 422.687382 472.41848 422.795195 
Q 472.43723 422.799882 472.454417 422.803007 
Q 472.471605 422.80457 472.491917 422.809257 
Q 472.515355 422.813945 472.545042 422.820195 
Q 472.57473 422.824882 472.598167 422.82957 
Q 473.24348 422.96082 473.67473 423.14207 
Q 474.107542 423.321757 474.398167 423.724882 
Q 474.688792 424.128007 474.688792 424.826445 
L 474.688792 424.83582 
Q 474.688792 425.48582 474.38098 425.946757 
Q 474.073167 426.407695 473.488792 426.649882 
Q 472.90598 426.89207 472.08098 426.89207 
z
M 476.778832 425.871757 
L 478.385082 425.871757 
Q 479.171019 425.871757 479.602269 425.463945 
Q 480.035082 425.056132 480.035082 424.313945 
L 480.035082 422.22332 
Q 480.035082 421.481132 479.602269 421.07332 
Q 479.171019 420.665507 478.385082 420.665507 
L 476.778832 420.665507 
L 476.778832 419.718632 
L 478.355394 419.718632 
Q 479.210082 419.718632 479.814769 420.01707 
Q 480.421019 420.313945 480.738207 420.88582 
Q 481.055394 421.457695 481.055394 422.262382 
L 481.055394 424.274882 
Q 481.055394 425.07957 480.738207 425.651445 
Q 480.421019 426.22332 479.813207 426.521757 
Q 479.205394 426.818632 478.350707 426.818632 
L 476.778832 426.818632 
L 476.778832 425.871757 
z
M 476.105394 419.718632 
L 477.100707 419.718632 
L 477.100707 426.818632 
L 476.105394 426.818632 
L 476.105394 419.718632 
z
M 484.600707 426.89207 
Q 483.956957 426.89207 483.467894 426.64832 
Q 482.980394 426.403007 482.713207 425.956132 
Q 482.447582 425.509257 482.447582 424.918632 
L 482.447582 424.801445 
Q 482.447582 424.270195 482.713207 423.801445 
Q 482.980394 423.332695 483.424144 423.093632 
Q 483.047582 422.887382 482.821019 422.499882 
Q 482.594457 422.11082 482.594457 421.681132 
L 482.594457 421.51082 
Q 482.594457 420.95457 482.842894 420.532695 
Q 483.091332 420.109257 483.546019 419.878007 
Q 484.000707 419.645195 484.600707 419.645195 
Q 485.200707 419.645195 485.655394 419.878007 
Q 486.110082 420.109257 486.358519 420.532695 
Q 486.606957 420.95457 486.606957 421.51082 
L 486.606957 421.681132 
Q 486.606957 422.121757 486.375707 422.507695 
Q 486.144457 422.89207 485.763207 423.093632 
Q 486.211644 423.337382 486.481957 423.80457 
Q 486.753832 424.270195 486.753832 424.801445 
L 486.753832 424.918632 
Q 486.753832 425.509257 486.488207 425.956132 
Q 486.222582 426.403007 485.733519 426.64832 
Q 485.246019 426.89207 484.600707 426.89207 
z
M 484.600707 425.934257 
Q 484.947582 425.934257 485.210082 425.79832 
Q 485.474144 425.66082 485.617894 425.415507 
Q 485.763207 425.168632 485.763207 424.845195 
L 485.763207 424.778007 
Q 485.763207 424.449882 485.617894 424.20457 
Q 485.474144 423.957695 485.210082 423.821757 
Q 484.947582 423.684257 484.600707 423.684257 
Q 484.253832 423.684257 483.989769 423.821757 
Q 483.727269 423.957695 483.581957 424.206132 
Q 483.438207 424.45457 483.438207 424.782695 
L 483.438207 424.856132 
Q 483.438207 425.178007 483.581957 425.421757 
Q 483.727269 425.665507 483.989769 425.799882 
Q 484.253832 425.934257 484.600707 425.934257 
z
M 484.600707 422.726445 
Q 484.899144 422.726445 485.127269 422.59832 
Q 485.356957 422.468632 485.483519 422.22957 
Q 485.611644 421.988945 485.611644 421.676445 
L 485.611644 421.609257 
Q 485.611644 421.31082 485.483519 421.081132 
Q 485.356957 420.851445 485.127269 420.728007 
Q 484.899144 420.603007 484.600707 420.603007 
Q 484.302269 420.603007 484.072582 420.728007 
Q 483.844457 420.851445 483.716332 421.081132 
Q 483.589769 421.31082 483.589769 421.613945 
L 483.589769 421.687382 
Q 483.589769 421.993632 483.716332 422.231132 
Q 483.844457 422.468632 484.072582 422.59832 
Q 484.302269 422.726445 484.600707 422.726445 
z
M 492.061644 423.07332 
L 492.061644 424.020195 
L 488.097582 424.020195 
L 488.097582 423.07332 
L 492.061644 423.07332 
z
M 490.577269 425.52957 
L 489.581957 425.52957 
L 489.581957 421.563945 
L 490.577269 421.563945 
L 490.577269 425.52957 
z
M 500.138207 422.995195 
L 500.138207 424.23582 
Q 500.138207 425.026445 499.830394 425.62957 
Q 499.522582 426.232695 498.958519 426.562382 
Q 498.394457 426.89207 497.652269 426.89207 
Q 496.900707 426.89207 496.331957 426.582695 
Q 495.763207 426.271757 495.450707 425.706132 
Q 495.138207 425.138945 495.138207 424.39207 
L 495.138207 422.296757 
Q 495.138207 421.506132 495.446019 420.906132 
Q 495.753832 420.30457 496.316332 419.974882 
Q 496.880394 419.645195 497.622582 419.645195 
Q 498.233519 419.645195 498.747582 419.907695 
Q 499.263207 420.168632 499.610082 420.646757 
Q 499.956957 421.124882 500.078832 421.75457 
L 500.078832 421.75457 
L 499.000707 421.75457 
L 499.000707 421.75457 
Q 498.911644 421.39832 498.702269 421.14207 
Q 498.492894 420.88582 498.208519 420.751445 
Q 497.925707 420.61707 497.622582 420.61707 
Q 497.183519 420.61707 496.850707 420.828007 
Q 496.519457 421.037382 496.338207 421.415507 
Q 496.158519 421.793632 496.158519 422.296757 
L 496.158519 424.39207 
Q 496.158519 424.851445 496.342894 425.195195 
Q 496.528832 425.538945 496.867894 425.72957 
Q 497.208519 425.920195 497.652269 425.920195 
Q 498.091332 425.920195 498.422582 425.72332 
Q 498.755394 425.524882 498.936644 425.149882 
Q 499.117894 424.77332 499.117894 424.25457 
L 499.117894 423.946757 
L 497.677269 423.946757 
L 497.677269 422.995195 
L 500.138207 422.995195 
z
M 503.726488 426.89207 
Q 503.023363 426.89207 502.524925 426.628007 
Q 502.02805 426.363945 501.76555 425.85457 
Q 501.504613 425.343632 501.504613 424.621757 
L 501.504613 424.049882 
Q 501.504613 423.29832 501.756175 422.76707 
Q 502.007738 422.234257 502.485863 421.956132 
Q 502.96555 421.676445 503.638988 421.676445 
Q 504.273363 421.676445 504.7218 421.995195 
Q 505.1718 422.312382 505.407738 422.912382 
Q 505.645238 423.512382 505.645238 424.353007 
L 505.645238 424.684257 
L 502.22805 424.684257 
L 502.22805 423.884257 
L 504.698363 423.884257 
L 504.698363 423.884257 
Q 504.654613 423.263945 504.37805 422.920195 
Q 504.10305 422.574882 503.638988 422.574882 
Q 503.0718 422.574882 502.762425 422.946757 
Q 502.45305 423.31707 502.45305 423.996757 
L 502.45305 424.640507 
Q 502.45305 425.270195 502.7843 425.607695 
Q 503.117113 425.945195 503.726488 425.945195 
Q 504.029613 425.945195 504.326488 425.82332 
Q 504.624925 425.699882 504.8593 425.481132 
L 504.8593 425.481132 
L 505.513988 426.134257 
L 505.513988 426.134257 
Q 505.137425 426.496757 504.668675 426.695195 
Q 504.199925 426.89207 503.726488 426.89207 
z
M 507.012816 421.749882 
L 508.009691 421.749882 
L 508.009691 426.818632 
L 507.012816 426.818632 
L 507.012816 421.749882 
z
M 510.089378 423.746757 
Q 510.089378 423.21082 509.811253 422.918632 
Q 509.533128 422.624882 509.030003 422.624882 
Q 508.540941 422.624882 508.275316 422.884257 
Q 508.009691 423.14207 508.009691 423.61082 
L 507.906566 422.634257 
Q 508.140941 422.174882 508.519066 421.926445 
Q 508.897191 421.676445 509.356566 421.676445 
Q 510.181566 421.676445 510.633128 422.21707 
Q 511.084691 422.756132 511.084691 423.74207 
L 511.084691 426.818632 
L 510.089378 426.818632 
L 510.089378 423.746757 
z
M 514.264378 426.818632 
L 513.267503 426.818632 
L 513.267503 420.803007 
L 512.256566 421.42332 
L 512.256566 420.39207 
L 513.267503 419.718632 
L 514.264378 419.718632 
L 514.264378 426.818632 
z
" style="fill: #ffffff; stroke: #000000"/>
    <path d="M 472.08098 426.89207 
Q 471.56848 426.89207 471.109105 426.795195 
Q 470.651292 426.696757 470.252855 426.501445 
Q 469.854417 426.306132 469.507542 426.012382 
L 469.507542 426.012382 
L 470.127855 425.251445 
L 470.127855 425.251445 
Q 470.534105 425.603007 471.021605 425.77957 
Q 471.510667 425.95457 472.08098 425.95457 
Q 472.852855 425.95457 473.277855 425.668632 
Q 473.702855 425.382695 473.702855 424.86082 
L 473.702855 424.856132 
Q 473.702855 424.484257 473.509105 424.26707 
Q 473.316917 424.049882 473.010667 423.945195 
Q 472.70598 423.840507 472.223167 423.751445 
Q 472.207542 423.746757 472.190355 423.746757 
Q 472.17473 423.746757 472.159105 423.74207 
L 472.085667 423.728007 
Q 471.373167 423.606132 470.926292 423.453007 
Q 470.479417 423.29832 470.16223 422.890507 
Q 469.845042 422.482695 469.845042 421.731132 
L 469.845042 421.726445 
Q 469.845042 421.06707 470.140355 420.601445 
Q 470.435667 420.134257 471.001292 419.890507 
Q 471.56848 419.645195 472.363792 419.645195 
Q 472.745042 419.645195 473.113792 419.72957 
Q 473.482542 419.812382 473.840355 419.976445 
Q 474.19973 420.138945 474.546605 420.387382 
L 474.546605 420.387382 
L 473.98098 421.17957 
L 473.98098 421.17957 
Q 473.57473 420.881132 473.171605 420.732695 
Q 472.770042 420.582695 472.363792 420.582695 
Q 471.63723 420.582695 471.234105 420.87332 
Q 470.83098 421.163945 470.83098 421.696757 
L 470.83098 421.701445 
Q 470.83098 422.06707 471.038792 422.278007 
Q 471.246605 422.487382 471.55598 422.587382 
Q 471.866917 422.687382 472.41848 422.795195 
Q 472.43723 422.799882 472.454417 422.803007 
Q 472.471605 422.80457 472.491917 422.809257 
Q 472.515355 422.813945 472.545042 422.820195 
Q 472.57473 422.824882 472.598167 422.82957 
Q 473.24348 422.96082 473.67473 423.14207 
Q 474.107542 423.321757 474.398167 423.724882 
Q 474.688792 424.128007 474.688792 424.826445 
L 474.688792 424.83582 
Q 474.688792 425.48582 474.38098 425.946757 
Q 474.073167 426.407695 473.488792 426.649882 
Q 472.90598 426.89207 472.08098 426.89207 
z
M 476.778832 425.871757 
L 478.385082 425.871757 
Q 479.171019 425.871757 479.602269 425.463945 
Q 480.035082 425.056132 480.035082 424.313945 
L 480.035082 422.22332 
Q 480.035082 421.481132 479.602269 421.07332 
Q 479.171019 420.665507 478.385082 420.665507 
L 476.778832 420.665507 
L 476.778832 419.718632 
L 478.355394 419.718632 
Q 479.210082 419.718632 479.814769 420.01707 
Q 480.421019 420.313945 480.738207 420.88582 
Q 481.055394 421.457695 481.055394 422.262382 
L 481.055394 424.274882 
Q 481.055394 425.07957 480.738207 425.651445 
Q 480.421019 426.22332 479.813207 426.521757 
Q 479.205394 426.818632 478.350707 426.818632 
L 476.778832 426.818632 
L 476.778832 425.871757 
z
M 476.105394 419.718632 
L 477.100707 419.718632 
L 477.100707 426.818632 
L 476.105394 426.818632 
L 476.105394 419.718632 
z
M 484.600707 426.89207 
Q 483.956957 426.89207 483.467894 426.64832 
Q 482.980394 426.403007 482.713207 425.956132 
Q 482.447582 425.509257 482.447582 424.918632 
L 482.447582 424.801445 
Q 482.447582 424.270195 482.713207 423.801445 
Q 482.980394 423.332695 483.424144 423.093632 
Q 483.047582 422.887382 482.821019 422.499882 
Q 482.594457 422.11082 482.594457 421.681132 
L 482.594457 421.51082 
Q 482.594457 420.95457 482.842894 420.532695 
Q 483.091332 420.109257 483.546019 419.878007 
Q 484.000707 419.645195 484.600707 419.645195 
Q 485.200707 419.645195 485.655394 419.878007 
Q 486.110082 420.109257 486.358519 420.532695 
Q 486.606957 420.95457 486.606957 421.51082 
L 486.606957 421.681132 
Q 486.606957 422.121757 486.375707 422.507695 
Q 486.144457 422.89207 485.763207 423.093632 
Q 486.211644 423.337382 486.481957 423.80457 
Q 486.753832 424.270195 486.753832 424.801445 
L 486.753832 424.918632 
Q 486.753832 425.509257 486.488207 425.956132 
Q 486.222582 426.403007 485.733519 426.64832 
Q 485.246019 426.89207 484.600707 426.89207 
z
M 484.600707 425.934257 
Q 484.947582 425.934257 485.210082 425.79832 
Q 485.474144 425.66082 485.617894 425.415507 
Q 485.763207 425.168632 485.763207 424.845195 
L 485.763207 424.778007 
Q 485.763207 424.449882 485.617894 424.20457 
Q 485.474144 423.957695 485.210082 423.821757 
Q 484.947582 423.684257 484.600707 423.684257 
Q 484.253832 423.684257 483.989769 423.821757 
Q 483.727269 423.957695 483.581957 424.206132 
Q 483.438207 424.45457 483.438207 424.782695 
L 483.438207 424.856132 
Q 483.438207 425.178007 483.581957 425.421757 
Q 483.727269 425.665507 483.989769 425.799882 
Q 484.253832 425.934257 484.600707 425.934257 
z
M 484.600707 422.726445 
Q 484.899144 422.726445 485.127269 422.59832 
Q 485.356957 422.468632 485.483519 422.22957 
Q 485.611644 421.988945 485.611644 421.676445 
L 485.611644 421.609257 
Q 485.611644 421.31082 485.483519 421.081132 
Q 485.356957 420.851445 485.127269 420.728007 
Q 484.899144 420.603007 484.600707 420.603007 
Q 484.302269 420.603007 484.072582 420.728007 
Q 483.844457 420.851445 483.716332 421.081132 
Q 483.589769 421.31082 483.589769 421.613945 
L 483.589769 421.687382 
Q 483.589769 421.993632 483.716332 422.231132 
Q 483.844457 422.468632 484.072582 422.59832 
Q 484.302269 422.726445 484.600707 422.726445 
z
M 492.061644 423.07332 
L 492.061644 424.020195 
L 488.097582 424.020195 
L 488.097582 423.07332 
L 492.061644 423.07332 
z
M 490.577269 425.52957 
L 489.581957 425.52957 
L 489.581957 421.563945 
L 490.577269 421.563945 
L 490.577269 425.52957 
z
M 500.138207 422.995195 
L 500.138207 424.23582 
Q 500.138207 425.026445 499.830394 425.62957 
Q 499.522582 426.232695 498.958519 426.562382 
Q 498.394457 426.89207 497.652269 426.89207 
Q 496.900707 426.89207 496.331957 426.582695 
Q 495.763207 426.271757 495.450707 425.706132 
Q 495.138207 425.138945 495.138207 424.39207 
L 495.138207 422.296757 
Q 495.138207 421.506132 495.446019 420.906132 
Q 495.753832 420.30457 496.316332 419.974882 
Q 496.880394 419.645195 497.622582 419.645195 
Q 498.233519 419.645195 498.747582 419.907695 
Q 499.263207 420.168632 499.610082 420.646757 
Q 499.956957 421.124882 500.078832 421.75457 
L 500.078832 421.75457 
L 499.000707 421.75457 
L 499.000707 421.75457 
Q 498.911644 421.39832 498.702269 421.14207 
Q 498.492894 420.88582 498.208519 420.751445 
Q 497.925707 420.61707 497.622582 420.61707 
Q 497.183519 420.61707 496.850707 420.828007 
Q 496.519457 421.037382 496.338207 421.415507 
Q 496.158519 421.793632 496.158519 422.296757 
L 496.158519 424.39207 
Q 496.158519 424.851445 496.342894 425.195195 
Q 496.528832 425.538945 496.867894 425.72957 
Q 497.208519 425.920195 497.652269 425.920195 
Q 498.091332 425.920195 498.422582 425.72332 
Q 498.755394 425.524882 498.936644 425.149882 
Q 499.117894 424.77332 499.117894 424.25457 
L 499.117894 423.946757 
L 497.677269 423.946757 
L 497.677269 422.995195 
L 500.138207 422.995195 
z
M 503.726488 426.89207 
Q 503.023363 426.89207 502.524925 426.628007 
Q 502.02805 426.363945 501.76555 425.85457 
Q 501.504613 425.343632 501.504613 424.621757 
L 501.504613 424.049882 
Q 501.504613 423.29832 501.756175 422.76707 
Q 502.007738 422.234257 502.485863 421.956132 
Q 502.96555 421.676445 503.638988 421.676445 
Q 504.273363 421.676445 504.7218 421.995195 
Q 505.1718 422.312382 505.407738 422.912382 
Q 505.645238 423.512382 505.645238 424.353007 
L 505.645238 424.684257 
L 502.22805 424.684257 
L 502.22805 423.884257 
L 504.698363 423.884257 
L 504.698363 423.884257 
Q 504.654613 423.263945 504.37805 422.920195 
Q 504.10305 422.574882 503.638988 422.574882 
Q 503.0718 422.574882 502.762425 422.946757 
Q 502.45305 423.31707 502.45305 423.996757 
L 502.45305 424.640507 
Q 502.45305 425.270195 502.7843 425.607695 
Q 503.117113 425.945195 503.726488 425.945195 
Q 504.029613 425.945195 504.326488 425.82332 
Q 504.624925 425.699882 504.8593 425.481132 
L 504.8593 425.481132 
L 505.513988 426.134257 
L 505.513988 426.134257 
Q 505.137425 426.496757 504.668675 426.695195 
Q 504.199925 426.89207 503.726488 426.89207 
z
M 507.012816 421.749882 
L 508.009691 421.749882 
L 508.009691 426.818632 
L 507.012816 426.818632 
L 507.012816 421.749882 
z
M 510.089378 423.746757 
Q 510.089378 423.21082 509.811253 422.918632 
Q 509.533128 422.624882 509.030003 422.624882 
Q 508.540941 422.624882 508.275316 422.884257 
Q 508.009691 423.14207 508.009691 423.61082 
L 507.906566 422.634257 
Q 508.140941 422.174882 508.519066 421.926445 
Q 508.897191 421.676445 509.356566 421.676445 
Q 510.181566 421.676445 510.633128 422.21707 
Q 511.084691 422.756132 511.084691 423.74207 
L 511.084691 426.818632 
L 510.089378 426.818632 
L 510.089378 423.746757 
z
M 514.264378 426.818632 
L 513.267503 426.818632 
L 513.267503 420.803007 
L 512.256566 421.42332 
L 512.256566 420.39207 
L 513.267503 419.718632 
L 514.264378 419.718632 
L 514.264378 426.818632 
z
" style="fill: #ffffff"/>
   </g>
  </g>
 </g>
 <defs>
  <clipPath id="p1df28a8b94">
   <rect x="144" y="77.76" width="892.8" height="498.96"/>
  </clipPath>
 </defs>
</svg>
