<?xml version="1.0" encoding="utf-8" standalone="no"?>
<!DOCTYPE svg PUBLIC "-//W3C//DTD SVG 1.1//EN"
  "http://www.w3.org/Graphics/SVG/1.1/DTD/svg11.dtd">
<svg xmlns:xlink="http://www.w3.org/1999/xlink" width="1152pt" height="648pt" viewBox="0 0 1152 648" xmlns="http://www.w3.org/2000/svg" version="1.1">
 <metadata>
  <rdf:RDF xmlns:dc="http://purl.org/dc/elements/1.1/" xmlns:cc="http://creativecommons.org/ns#" xmlns:rdf="http://www.w3.org/1999/02/22-rdf-syntax-ns#">
   <cc:Work>
    <dc:type rdf:resource="http://purl.org/dc/dcmitype/StillImage"/>
    <dc:date>2024-10-09T18:10:38.515109</dc:date>
    <dc:format>image/svg+xml</dc:format>
    <dc:creator>
     <cc:Agent>
      <dc:title>Matplotlib v3.8.1, https://matplotlib.org/</dc:title>
     </cc:Agent>
    </dc:creator>
   </cc:Work>
  </rdf:RDF>
 </metadata>
 <defs>
  <style type="text/css">*{stroke-linejoin: round; stroke-linecap: butt}</style>
 </defs>
 <g id="figure_1">
  <g id="patch_1">
   <path d="M 0 648 
L 1152 648 
L 1152 0 
L 0 0 
L 0 648 
z
" style="fill: none"/>
  </g>
  <g id="axes_1">
   <g id="PathCollection_1">
    <defs>
     <path id="mc09e0aab4d" d="M 0 2.738613 
C 0.726289 2.738613 1.422928 2.450055 1.936492 1.936492 
C 2.450055 1.422928 2.738613 0.726289 2.738613 0 
C 2.738613 -0.726289 2.450055 -1.422928 1.936492 -1.936492 
C 1.422928 -2.450055 0.726289 -2.738613 0 -2.738613 
C -0.726289 -2.738613 -1.422928 -2.450055 -1.936492 -1.936492 
C -2.450055 -1.422928 -2.738613 -0.726289 -2.738613 0 
C -2.738613 0.726289 -2.450055 1.422928 -1.936492 1.936492 
C -1.422928 2.450055 -0.726289 2.738613 0 2.738613 
z
" style="stroke: #ccff33"/>
    </defs>
    <g clip-path="url(#p11ce89bb35)">
     <use xlink:href="#mc09e0aab4d" x="792.954" y="222.12576" style="fill: #ccff33; stroke: #ccff33"/>
     <use xlink:href="#mc09e0aab4d" x="416.862" y="340.5456" style="fill: #ccff33; stroke: #ccff33"/>
     <use xlink:href="#mc09e0aab4d" x="289.638" y="422.20872" style="fill: #ccff33; stroke: #ccff33"/>
    </g>
   </g>
   <g id="text_1">
    <path d="M 801.65898 216.672328 
L 802.50898 216.672328 
L 805.126167 223.772328 
L 804.051167 223.772328 
L 802.08398 218.044203 
L 800.116792 223.772328 
L 799.041792 223.772328 
L 801.65898 216.672328 
z
M 800.248042 221.267641 
L 803.98398 221.267641 
L 803.98398 222.214516 
L 800.248042 222.214516 
L 800.248042 221.267641 
z
M 807.767964 223.772328 
L 806.771089 223.772328 
L 806.771089 217.756703 
L 805.760152 218.377016 
L 805.760152 217.345766 
L 806.771089 216.672328 
L 807.767964 216.672328 
L 807.767964 223.772328 
z
M 811.458785 223.845766 
Q 810.815035 223.845766 810.325972 223.602016 
Q 809.838472 223.356703 809.571285 222.909828 
Q 809.30566 222.462953 809.30566 221.872328 
L 809.30566 221.755141 
Q 809.30566 221.223891 809.571285 220.755141 
Q 809.838472 220.286391 810.282222 220.047328 
Q 809.90566 219.841078 809.679097 219.453578 
Q 809.452535 219.064516 809.452535 218.634828 
L 809.452535 218.464516 
Q 809.452535 217.908266 809.700972 217.486391 
Q 809.94941 217.062953 810.404097 216.831703 
Q 810.858785 216.598891 811.458785 216.598891 
Q 812.058785 216.598891 812.513472 216.831703 
Q 812.96816 217.062953 813.216597 217.486391 
Q 813.465035 217.908266 813.465035 218.464516 
L 813.465035 218.634828 
Q 813.465035 219.075453 813.233785 219.461391 
Q 813.002535 219.845766 812.621285 220.047328 
Q 813.069722 220.291078 813.340035 220.758266 
Q 813.61191 221.223891 813.61191 221.755141 
L 813.61191 221.872328 
Q 813.61191 222.462953 813.346285 222.909828 
Q 813.08066 223.356703 812.591597 223.602016 
Q 812.104097 223.845766 811.458785 223.845766 
z
M 811.458785 222.887953 
Q 811.80566 222.887953 812.06816 222.752016 
Q 812.332222 222.614516 812.475972 222.369203 
Q 812.621285 222.122328 812.621285 221.798891 
L 812.621285 221.731703 
Q 812.621285 221.403578 812.475972 221.158266 
Q 812.332222 220.911391 812.06816 220.775453 
Q 811.80566 220.637953 811.458785 220.637953 
Q 811.11191 220.637953 810.847847 220.775453 
Q 810.585347 220.911391 810.440035 221.159828 
Q 810.296285 221.408266 810.296285 221.736391 
L 810.296285 221.809828 
Q 810.296285 222.131703 810.440035 222.375453 
Q 810.585347 222.619203 810.847847 222.753578 
Q 811.11191 222.887953 811.458785 222.887953 
z
M 811.458785 219.680141 
Q 811.757222 219.680141 811.985347 219.552016 
Q 812.215035 219.422328 812.341597 219.183266 
Q 812.469722 218.942641 812.469722 218.630141 
L 812.469722 218.562953 
Q 812.469722 218.264516 812.341597 218.034828 
Q 812.215035 217.805141 811.985347 217.681703 
Q 811.757222 217.556703 811.458785 217.556703 
Q 811.160347 217.556703 810.93066 217.681703 
Q 810.702535 217.805141 810.57441 218.034828 
Q 810.447847 218.264516 810.447847 218.567641 
L 810.447847 218.641078 
Q 810.447847 218.947328 810.57441 219.184828 
Q 810.702535 219.422328 810.93066 219.552016 
Q 811.160347 219.680141 811.458785 219.680141 
z
M 817.372457 220.070766 
L 819.642769 220.070766 
Q 819.964644 220.070766 820.208394 219.919203 
Q 820.453707 219.767641 820.586519 219.489516 
Q 820.720894 219.211391 820.720894 218.850453 
L 820.720894 218.850453 
Q 820.720894 218.484828 820.586519 218.206703 
Q 820.453707 217.927016 820.208394 217.773891 
Q 819.964644 217.619203 819.642769 217.619203 
L 817.372457 217.619203 
L 817.372457 216.672328 
L 819.608394 216.672328 
Q 820.242769 216.672328 820.725582 216.944203 
Q 821.209957 217.214516 821.475582 217.708266 
Q 821.742769 218.200453 821.742769 218.850453 
L 821.742769 218.850453 
Q 821.742769 219.500453 821.475582 219.991078 
Q 821.209957 220.481703 820.725582 220.750453 
Q 820.242769 221.017641 819.608394 221.017641 
L 817.372457 221.017641 
L 817.372457 220.070766 
z
M 816.859957 216.672328 
L 817.855269 216.672328 
L 817.855269 223.772328 
L 816.859957 223.772328 
L 816.859957 216.672328 
z
M 822.987105 218.703578 
L 823.98398 218.703578 
L 823.98398 223.772328 
L 822.987105 223.772328 
L 822.987105 218.703578 
z
M 825.774605 219.905141 
Q 825.643355 219.744203 825.443355 219.661391 
Q 825.243355 219.578578 824.979292 219.578578 
Q 824.505855 219.578578 824.244917 219.839516 
Q 823.98398 220.100453 823.98398 220.564516 
L 823.880855 219.587953 
Q 824.11523 219.133266 824.485542 218.881703 
Q 824.857417 218.630141 825.305855 218.630141 
Q 825.65273 218.630141 825.93398 218.730141 
Q 826.21523 218.830141 826.424605 219.025453 
L 825.774605 219.905141 
z
M 829.198433 223.845766 
Q 828.539058 223.845766 828.070308 223.587953 
Q 827.601558 223.328578 827.354683 222.833266 
Q 827.107808 222.336391 827.107808 221.637953 
L 827.107808 220.812953 
Q 827.107808 220.125453 827.354683 219.634828 
Q 827.601558 219.142641 828.070308 218.886391 
Q 828.539058 218.630141 829.198433 218.630141 
Q 829.857808 218.630141 830.326558 218.886391 
Q 830.795308 219.142641 831.040621 219.634828 
Q 831.287496 220.125453 831.287496 220.812953 
L 831.287496 221.653578 
Q 831.287496 222.345766 831.040621 222.837953 
Q 830.795308 223.328578 830.326558 223.587953 
Q 829.857808 223.845766 829.198433 223.845766 
z
M 829.198433 222.898891 
Q 829.720308 222.898891 830.006246 222.572328 
Q 830.292183 222.244203 830.292183 221.653578 
L 830.292183 220.812953 
Q 830.292183 220.222328 830.006246 219.900453 
Q 829.720308 219.578578 829.198433 219.578578 
Q 828.674996 219.578578 828.389058 219.900453 
Q 828.104683 220.222328 828.104683 220.812953 
L 828.104683 221.653578 
Q 828.104683 222.244203 828.389058 222.572328 
Q 828.674996 222.898891 829.198433 222.898891 
z
" style="fill: #ffffff; stroke: #000000"/>
    <path d="M 801.65898 216.672328 
L 802.50898 216.672328 
L 805.126167 223.772328 
L 804.051167 223.772328 
L 802.08398 218.044203 
L 800.116792 223.772328 
L 799.041792 223.772328 
L 801.65898 216.672328 
z
M 800.248042 221.267641 
L 803.98398 221.267641 
L 803.98398 222.214516 
L 800.248042 222.214516 
L 800.248042 221.267641 
z
M 807.767964 223.772328 
L 806.771089 223.772328 
L 806.771089 217.756703 
L 805.760152 218.377016 
L 805.760152 217.345766 
L 806.771089 216.672328 
L 807.767964 216.672328 
L 807.767964 223.772328 
z
M 811.458785 223.845766 
Q 810.815035 223.845766 810.325972 223.602016 
Q 809.838472 223.356703 809.571285 222.909828 
Q 809.30566 222.462953 809.30566 221.872328 
L 809.30566 221.755141 
Q 809.30566 221.223891 809.571285 220.755141 
Q 809.838472 220.286391 810.282222 220.047328 
Q 809.90566 219.841078 809.679097 219.453578 
Q 809.452535 219.064516 809.452535 218.634828 
L 809.452535 218.464516 
Q 809.452535 217.908266 809.700972 217.486391 
Q 809.94941 217.062953 810.404097 216.831703 
Q 810.858785 216.598891 811.458785 216.598891 
Q 812.058785 216.598891 812.513472 216.831703 
Q 812.96816 217.062953 813.216597 217.486391 
Q 813.465035 217.908266 813.465035 218.464516 
L 813.465035 218.634828 
Q 813.465035 219.075453 813.233785 219.461391 
Q 813.002535 219.845766 812.621285 220.047328 
Q 813.069722 220.291078 813.340035 220.758266 
Q 813.61191 221.223891 813.61191 221.755141 
L 813.61191 221.872328 
Q 813.61191 222.462953 813.346285 222.909828 
Q 813.08066 223.356703 812.591597 223.602016 
Q 812.104097 223.845766 811.458785 223.845766 
z
M 811.458785 222.887953 
Q 811.80566 222.887953 812.06816 222.752016 
Q 812.332222 222.614516 812.475972 222.369203 
Q 812.621285 222.122328 812.621285 221.798891 
L 812.621285 221.731703 
Q 812.621285 221.403578 812.475972 221.158266 
Q 812.332222 220.911391 812.06816 220.775453 
Q 811.80566 220.637953 811.458785 220.637953 
Q 811.11191 220.637953 810.847847 220.775453 
Q 810.585347 220.911391 810.440035 221.159828 
Q 810.296285 221.408266 810.296285 221.736391 
L 810.296285 221.809828 
Q 810.296285 222.131703 810.440035 222.375453 
Q 810.585347 222.619203 810.847847 222.753578 
Q 811.11191 222.887953 811.458785 222.887953 
z
M 811.458785 219.680141 
Q 811.757222 219.680141 811.985347 219.552016 
Q 812.215035 219.422328 812.341597 219.183266 
Q 812.469722 218.942641 812.469722 218.630141 
L 812.469722 218.562953 
Q 812.469722 218.264516 812.341597 218.034828 
Q 812.215035 217.805141 811.985347 217.681703 
Q 811.757222 217.556703 811.458785 217.556703 
Q 811.160347 217.556703 810.93066 217.681703 
Q 810.702535 217.805141 810.57441 218.034828 
Q 810.447847 218.264516 810.447847 218.567641 
L 810.447847 218.641078 
Q 810.447847 218.947328 810.57441 219.184828 
Q 810.702535 219.422328 810.93066 219.552016 
Q 811.160347 219.680141 811.458785 219.680141 
z
M 817.372457 220.070766 
L 819.642769 220.070766 
Q 819.964644 220.070766 820.208394 219.919203 
Q 820.453707 219.767641 820.586519 219.489516 
Q 820.720894 219.211391 820.720894 218.850453 
L 820.720894 218.850453 
Q 820.720894 218.484828 820.586519 218.206703 
Q 820.453707 217.927016 820.208394 217.773891 
Q 819.964644 217.619203 819.642769 217.619203 
L 817.372457 217.619203 
L 817.372457 216.672328 
L 819.608394 216.672328 
Q 820.242769 216.672328 820.725582 216.944203 
Q 821.209957 217.214516 821.475582 217.708266 
Q 821.742769 218.200453 821.742769 218.850453 
L 821.742769 218.850453 
Q 821.742769 219.500453 821.475582 219.991078 
Q 821.209957 220.481703 820.725582 220.750453 
Q 820.242769 221.017641 819.608394 221.017641 
L 817.372457 221.017641 
L 817.372457 220.070766 
z
M 816.859957 216.672328 
L 817.855269 216.672328 
L 817.855269 223.772328 
L 816.859957 223.772328 
L 816.859957 216.672328 
z
M 822.987105 218.703578 
L 823.98398 218.703578 
L 823.98398 223.772328 
L 822.987105 223.772328 
L 822.987105 218.703578 
z
M 825.774605 219.905141 
Q 825.643355 219.744203 825.443355 219.661391 
Q 825.243355 219.578578 824.979292 219.578578 
Q 824.505855 219.578578 824.244917 219.839516 
Q 823.98398 220.100453 823.98398 220.564516 
L 823.880855 219.587953 
Q 824.11523 219.133266 824.485542 218.881703 
Q 824.857417 218.630141 825.305855 218.630141 
Q 825.65273 218.630141 825.93398 218.730141 
Q 826.21523 218.830141 826.424605 219.025453 
L 825.774605 219.905141 
z
M 829.198433 223.845766 
Q 828.539058 223.845766 828.070308 223.587953 
Q 827.601558 223.328578 827.354683 222.833266 
Q 827.107808 222.336391 827.107808 221.637953 
L 827.107808 220.812953 
Q 827.107808 220.125453 827.354683 219.634828 
Q 827.601558 219.142641 828.070308 218.886391 
Q 828.539058 218.630141 829.198433 218.630141 
Q 829.857808 218.630141 830.326558 218.886391 
Q 830.795308 219.142641 831.040621 219.634828 
Q 831.287496 220.125453 831.287496 220.812953 
L 831.287496 221.653578 
Q 831.287496 222.345766 831.040621 222.837953 
Q 830.795308 223.328578 830.326558 223.587953 
Q 829.857808 223.845766 829.198433 223.845766 
z
M 829.198433 222.898891 
Q 829.720308 222.898891 830.006246 222.572328 
Q 830.292183 222.244203 830.292183 221.653578 
L 830.292183 220.812953 
Q 830.292183 220.222328 830.006246 219.900453 
Q 829.720308 219.578578 829.198433 219.578578 
Q 828.674996 219.578578 828.389058 219.900453 
Q 828.104683 220.222328 828.104683 220.812953 
L 828.104683 221.653578 
Q 828.104683 222.244203 828.389058 222.572328 
Q 828.674996 222.898891 829.198433 222.898891 
z
" style="fill: #ffffff"/>
   </g>
   <g id="text_2">
    <path d="M 425.56698 335.092168 
L 426.41698 335.092168 
L 429.034167 342.192168 
L 427.959167 342.192168 
L 425.99198 336.464043 
L 424.024792 342.192168 
L 422.949792 342.192168 
L 425.56698 335.092168 
z
M 424.156042 339.687481 
L 427.89198 339.687481 
L 427.89198 340.634356 
L 424.156042 340.634356 
L 424.156042 339.687481 
z
M 431.675964 342.192168 
L 430.679089 342.192168 
L 430.679089 336.176543 
L 429.668152 336.796856 
L 429.668152 335.765606 
L 430.679089 335.092168 
L 431.675964 335.092168 
L 431.675964 342.192168 
z
M 435.366785 342.265606 
Q 434.723035 342.265606 434.233972 342.021856 
Q 433.746472 341.776543 433.479285 341.329668 
Q 433.21366 340.882793 433.21366 340.292168 
L 433.21366 340.174981 
Q 433.21366 339.643731 433.479285 339.174981 
Q 433.746472 338.706231 434.190222 338.467168 
Q 433.81366 338.260918 433.587097 337.873418 
Q 433.360535 337.484356 433.360535 337.054668 
L 433.360535 336.884356 
Q 433.360535 336.328106 433.608972 335.906231 
Q 433.85741 335.482793 434.312097 335.251543 
Q 434.766785 335.018731 435.366785 335.018731 
Q 435.966785 335.018731 436.421472 335.251543 
Q 436.87616 335.482793 437.124597 335.906231 
Q 437.373035 336.328106 437.373035 336.884356 
L 437.373035 337.054668 
Q 437.373035 337.495293 437.141785 337.881231 
Q 436.910535 338.265606 436.529285 338.467168 
Q 436.977722 338.710918 437.248035 339.178106 
Q 437.51991 339.643731 437.51991 340.174981 
L 437.51991 340.292168 
Q 437.51991 340.882793 437.254285 341.329668 
Q 436.98866 341.776543 436.499597 342.021856 
Q 436.012097 342.265606 435.366785 342.265606 
z
M 435.366785 341.307793 
Q 435.71366 341.307793 435.97616 341.171856 
Q 436.240222 341.034356 436.383972 340.789043 
Q 436.529285 340.542168 436.529285 340.218731 
L 436.529285 340.151543 
Q 436.529285 339.823418 436.383972 339.578106 
Q 436.240222 339.331231 435.97616 339.195293 
Q 435.71366 339.057793 435.366785 339.057793 
Q 435.01991 339.057793 434.755847 339.195293 
Q 434.493347 339.331231 434.348035 339.579668 
Q 434.204285 339.828106 434.204285 340.156231 
L 434.204285 340.229668 
Q 434.204285 340.551543 434.348035 340.795293 
Q 434.493347 341.039043 434.755847 341.173418 
Q 435.01991 341.307793 435.366785 341.307793 
z
M 435.366785 338.099981 
Q 435.665222 338.099981 435.893347 337.971856 
Q 436.123035 337.842168 436.249597 337.603106 
Q 436.377722 337.362481 436.377722 337.049981 
L 436.377722 336.982793 
Q 436.377722 336.684356 436.249597 336.454668 
Q 436.123035 336.224981 435.893347 336.101543 
Q 435.665222 335.976543 435.366785 335.976543 
Q 435.068347 335.976543 434.83866 336.101543 
Q 434.610535 336.224981 434.48241 336.454668 
Q 434.355847 336.684356 434.355847 336.987481 
L 434.355847 337.060918 
Q 434.355847 337.367168 434.48241 337.604668 
Q 434.610535 337.842168 434.83866 337.971856 
Q 435.068347 338.099981 435.366785 338.099981 
z
M 441.280457 338.490606 
L 443.550769 338.490606 
Q 443.872644 338.490606 444.116394 338.339043 
Q 444.361707 338.187481 444.494519 337.909356 
Q 444.628894 337.631231 444.628894 337.270293 
L 444.628894 337.270293 
Q 444.628894 336.904668 444.494519 336.626543 
Q 444.361707 336.346856 444.116394 336.193731 
Q 443.872644 336.039043 443.550769 336.039043 
L 441.280457 336.039043 
L 441.280457 335.092168 
L 443.516394 335.092168 
Q 444.150769 335.092168 444.633582 335.364043 
Q 445.117957 335.634356 445.383582 336.128106 
Q 445.650769 336.620293 445.650769 337.270293 
L 445.650769 337.270293 
Q 445.650769 337.920293 445.383582 338.410918 
Q 445.117957 338.901543 444.633582 339.170293 
Q 444.150769 339.437481 443.516394 339.437481 
L 441.280457 339.437481 
L 441.280457 338.490606 
z
M 440.767957 335.092168 
L 441.763269 335.092168 
L 441.763269 342.192168 
L 440.767957 342.192168 
L 440.767957 335.092168 
z
M 446.895105 337.123418 
L 447.89198 337.123418 
L 447.89198 342.192168 
L 446.895105 342.192168 
L 446.895105 337.123418 
z
M 449.682605 338.324981 
Q 449.551355 338.164043 449.351355 338.081231 
Q 449.151355 337.998418 448.887292 337.998418 
Q 448.413855 337.998418 448.152917 338.259356 
Q 447.89198 338.520293 447.89198 338.984356 
L 447.788855 338.007793 
Q 448.02323 337.553106 448.393542 337.301543 
Q 448.765417 337.049981 449.213855 337.049981 
Q 449.56073 337.049981 449.84198 337.149981 
Q 450.12323 337.249981 450.332605 337.445293 
L 449.682605 338.324981 
z
M 453.106433 342.265606 
Q 452.447058 342.265606 451.978308 342.007793 
Q 451.509558 341.748418 451.262683 341.253106 
Q 451.015808 340.756231 451.015808 340.057793 
L 451.015808 339.232793 
Q 451.015808 338.545293 451.262683 338.054668 
Q 451.509558 337.562481 451.978308 337.306231 
Q 452.447058 337.049981 453.106433 337.049981 
Q 453.765808 337.049981 454.234558 337.306231 
Q 454.703308 337.562481 454.948621 338.054668 
Q 455.195496 338.545293 455.195496 339.232793 
L 455.195496 340.073418 
Q 455.195496 340.765606 454.948621 341.257793 
Q 454.703308 341.748418 454.234558 342.007793 
Q 453.765808 342.265606 453.106433 342.265606 
z
M 453.106433 341.318731 
Q 453.628308 341.318731 453.914246 340.992168 
Q 454.200183 340.664043 454.200183 340.073418 
L 454.200183 339.232793 
Q 454.200183 338.642168 453.914246 338.320293 
Q 453.628308 337.998418 453.106433 337.998418 
Q 452.582996 337.998418 452.297058 338.320293 
Q 452.012683 338.642168 452.012683 339.232793 
L 452.012683 340.073418 
Q 452.012683 340.664043 452.297058 340.992168 
Q 452.582996 341.318731 453.106433 341.318731 
z
" style="fill: #ffffff; stroke: #000000"/>
    <path d="M 425.56698 335.092168 
L 426.41698 335.092168 
L 429.034167 342.192168 
L 427.959167 342.192168 
L 425.99198 336.464043 
L 424.024792 342.192168 
L 422.949792 342.192168 
L 425.56698 335.092168 
z
M 424.156042 339.687481 
L 427.89198 339.687481 
L 427.89198 340.634356 
L 424.156042 340.634356 
L 424.156042 339.687481 
z
M 431.675964 342.192168 
L 430.679089 342.192168 
L 430.679089 336.176543 
L 429.668152 336.796856 
L 429.668152 335.765606 
L 430.679089 335.092168 
L 431.675964 335.092168 
L 431.675964 342.192168 
z
M 435.366785 342.265606 
Q 434.723035 342.265606 434.233972 342.021856 
Q 433.746472 341.776543 433.479285 341.329668 
Q 433.21366 340.882793 433.21366 340.292168 
L 433.21366 340.174981 
Q 433.21366 339.643731 433.479285 339.174981 
Q 433.746472 338.706231 434.190222 338.467168 
Q 433.81366 338.260918 433.587097 337.873418 
Q 433.360535 337.484356 433.360535 337.054668 
L 433.360535 336.884356 
Q 433.360535 336.328106 433.608972 335.906231 
Q 433.85741 335.482793 434.312097 335.251543 
Q 434.766785 335.018731 435.366785 335.018731 
Q 435.966785 335.018731 436.421472 335.251543 
Q 436.87616 335.482793 437.124597 335.906231 
Q 437.373035 336.328106 437.373035 336.884356 
L 437.373035 337.054668 
Q 437.373035 337.495293 437.141785 337.881231 
Q 436.910535 338.265606 436.529285 338.467168 
Q 436.977722 338.710918 437.248035 339.178106 
Q 437.51991 339.643731 437.51991 340.174981 
L 437.51991 340.292168 
Q 437.51991 340.882793 437.254285 341.329668 
Q 436.98866 341.776543 436.499597 342.021856 
Q 436.012097 342.265606 435.366785 342.265606 
z
M 435.366785 341.307793 
Q 435.71366 341.307793 435.97616 341.171856 
Q 436.240222 341.034356 436.383972 340.789043 
Q 436.529285 340.542168 436.529285 340.218731 
L 436.529285 340.151543 
Q 436.529285 339.823418 436.383972 339.578106 
Q 436.240222 339.331231 435.97616 339.195293 
Q 435.71366 339.057793 435.366785 339.057793 
Q 435.01991 339.057793 434.755847 339.195293 
Q 434.493347 339.331231 434.348035 339.579668 
Q 434.204285 339.828106 434.204285 340.156231 
L 434.204285 340.229668 
Q 434.204285 340.551543 434.348035 340.795293 
Q 434.493347 341.039043 434.755847 341.173418 
Q 435.01991 341.307793 435.366785 341.307793 
z
M 435.366785 338.099981 
Q 435.665222 338.099981 435.893347 337.971856 
Q 436.123035 337.842168 436.249597 337.603106 
Q 436.377722 337.362481 436.377722 337.049981 
L 436.377722 336.982793 
Q 436.377722 336.684356 436.249597 336.454668 
Q 436.123035 336.224981 435.893347 336.101543 
Q 435.665222 335.976543 435.366785 335.976543 
Q 435.068347 335.976543 434.83866 336.101543 
Q 434.610535 336.224981 434.48241 336.454668 
Q 434.355847 336.684356 434.355847 336.987481 
L 434.355847 337.060918 
Q 434.355847 337.367168 434.48241 337.604668 
Q 434.610535 337.842168 434.83866 337.971856 
Q 435.068347 338.099981 435.366785 338.099981 
z
M 441.280457 338.490606 
L 443.550769 338.490606 
Q 443.872644 338.490606 444.116394 338.339043 
Q 444.361707 338.187481 444.494519 337.909356 
Q 444.628894 337.631231 444.628894 337.270293 
L 444.628894 337.270293 
Q 444.628894 336.904668 444.494519 336.626543 
Q 444.361707 336.346856 444.116394 336.193731 
Q 443.872644 336.039043 443.550769 336.039043 
L 441.280457 336.039043 
L 441.280457 335.092168 
L 443.516394 335.092168 
Q 444.150769 335.092168 444.633582 335.364043 
Q 445.117957 335.634356 445.383582 336.128106 
Q 445.650769 336.620293 445.650769 337.270293 
L 445.650769 337.270293 
Q 445.650769 337.920293 445.383582 338.410918 
Q 445.117957 338.901543 444.633582 339.170293 
Q 444.150769 339.437481 443.516394 339.437481 
L 441.280457 339.437481 
L 441.280457 338.490606 
z
M 440.767957 335.092168 
L 441.763269 335.092168 
L 441.763269 342.192168 
L 440.767957 342.192168 
L 440.767957 335.092168 
z
M 446.895105 337.123418 
L 447.89198 337.123418 
L 447.89198 342.192168 
L 446.895105 342.192168 
L 446.895105 337.123418 
z
M 449.682605 338.324981 
Q 449.551355 338.164043 449.351355 338.081231 
Q 449.151355 337.998418 448.887292 337.998418 
Q 448.413855 337.998418 448.152917 338.259356 
Q 447.89198 338.520293 447.89198 338.984356 
L 447.788855 338.007793 
Q 448.02323 337.553106 448.393542 337.301543 
Q 448.765417 337.049981 449.213855 337.049981 
Q 449.56073 337.049981 449.84198 337.149981 
Q 450.12323 337.249981 450.332605 337.445293 
L 449.682605 338.324981 
z
M 453.106433 342.265606 
Q 452.447058 342.265606 451.978308 342.007793 
Q 451.509558 341.748418 451.262683 341.253106 
Q 451.015808 340.756231 451.015808 340.057793 
L 451.015808 339.232793 
Q 451.015808 338.545293 451.262683 338.054668 
Q 451.509558 337.562481 451.978308 337.306231 
Q 452.447058 337.049981 453.106433 337.049981 
Q 453.765808 337.049981 454.234558 337.306231 
Q 454.703308 337.562481 454.948621 338.054668 
Q 455.195496 338.545293 455.195496 339.232793 
L 455.195496 340.073418 
Q 455.195496 340.765606 454.948621 341.257793 
Q 454.703308 341.748418 454.234558 342.007793 
Q 453.765808 342.265606 453.106433 342.265606 
z
M 453.106433 341.318731 
Q 453.628308 341.318731 453.914246 340.992168 
Q 454.200183 340.664043 454.200183 340.073418 
L 454.200183 339.232793 
Q 454.200183 338.642168 453.914246 338.320293 
Q 453.628308 337.998418 453.106433 337.998418 
Q 452.582996 337.998418 452.297058 338.320293 
Q 452.012683 338.642168 452.012683 339.232793 
L 452.012683 340.073418 
Q 452.012683 340.664043 452.297058 340.992168 
Q 452.582996 341.318731 453.106433 341.318731 
z
" style="fill: #ffffff"/>
   </g>
   <g id="text_3">
    <path d="M 298.34298 416.755288 
L 299.19298 416.755288 
L 301.810168 423.855288 
L 300.735167 423.855288 
L 298.76798 418.127163 
L 296.800793 423.855288 
L 295.725793 423.855288 
L 298.34298 416.755288 
z
M 296.932043 421.350601 
L 300.66798 421.350601 
L 300.66798 422.297476 
L 296.932043 422.297476 
L 296.932043 421.350601 
z
M 304.451964 423.855288 
L 303.455089 423.855288 
L 303.455089 417.839663 
L 302.444152 418.459976 
L 302.444152 417.428726 
L 303.455089 416.755288 
L 304.451964 416.755288 
L 304.451964 423.855288 
z
M 308.142785 423.928726 
Q 307.499035 423.928726 307.009972 423.684976 
Q 306.522472 423.439663 306.255285 422.992788 
Q 305.98966 422.545913 305.98966 421.955288 
L 305.98966 421.838101 
Q 305.98966 421.306851 306.255285 420.838101 
Q 306.522472 420.369351 306.966222 420.130288 
Q 306.58966 419.924038 306.363097 419.536538 
Q 306.136535 419.147476 306.136535 418.717788 
L 306.136535 418.547476 
Q 306.136535 417.991226 306.384972 417.569351 
Q 306.63341 417.145913 307.088097 416.914663 
Q 307.542785 416.681851 308.142785 416.681851 
Q 308.742785 416.681851 309.197472 416.914663 
Q 309.65216 417.145913 309.900597 417.569351 
Q 310.149035 417.991226 310.149035 418.547476 
L 310.149035 418.717788 
Q 310.149035 419.158413 309.917785 419.544351 
Q 309.686535 419.928726 309.305285 420.130288 
Q 309.753722 420.374038 310.024035 420.841226 
Q 310.29591 421.306851 310.29591 421.838101 
L 310.29591 421.955288 
Q 310.29591 422.545913 310.030285 422.992788 
Q 309.76466 423.439663 309.275597 423.684976 
Q 308.788097 423.928726 308.142785 423.928726 
z
M 308.142785 422.970913 
Q 308.48966 422.970913 308.75216 422.834976 
Q 309.016222 422.697476 309.159972 422.452163 
Q 309.305285 422.205288 309.305285 421.881851 
L 309.305285 421.814663 
Q 309.305285 421.486538 309.159972 421.241226 
Q 309.016222 420.994351 308.75216 420.858413 
Q 308.48966 420.720913 308.142785 420.720913 
Q 307.79591 420.720913 307.531847 420.858413 
Q 307.269347 420.994351 307.124035 421.242788 
Q 306.980285 421.491226 306.980285 421.819351 
L 306.980285 421.892788 
Q 306.980285 422.214663 307.124035 422.458413 
Q 307.269347 422.702163 307.531847 422.836538 
Q 307.79591 422.970913 308.142785 422.970913 
z
M 308.142785 419.763101 
Q 308.441222 419.763101 308.669347 419.634976 
Q 308.899035 419.505288 309.025597 419.266226 
Q 309.153722 419.025601 309.153722 418.713101 
L 309.153722 418.645913 
Q 309.153722 418.347476 309.025597 418.117788 
Q 308.899035 417.888101 308.669347 417.764663 
Q 308.441222 417.639663 308.142785 417.639663 
Q 307.844347 417.639663 307.61466 417.764663 
Q 307.386535 417.888101 307.25841 418.117788 
Q 307.131847 418.347476 307.131847 418.650601 
L 307.131847 418.724038 
Q 307.131847 419.030288 307.25841 419.267788 
Q 307.386535 419.505288 307.61466 419.634976 
Q 307.844347 419.763101 308.142785 419.763101 
z
M 314.056457 420.153726 
L 316.326769 420.153726 
Q 316.648644 420.153726 316.892394 420.002163 
Q 317.137707 419.850601 317.270519 419.572476 
Q 317.404894 419.294351 317.404894 418.933413 
L 317.404894 418.933413 
Q 317.404894 418.567788 317.270519 418.289663 
Q 317.137707 418.009976 316.892394 417.856851 
Q 316.648644 417.702163 316.326769 417.702163 
L 314.056457 417.702163 
L 314.056457 416.755288 
L 316.292394 416.755288 
Q 316.926769 416.755288 317.409582 417.027163 
Q 317.893957 417.297476 318.159582 417.791226 
Q 318.426769 418.283413 318.426769 418.933413 
L 318.426769 418.933413 
Q 318.426769 419.583413 318.159582 420.074038 
Q 317.893957 420.564663 317.409582 420.833413 
Q 316.926769 421.100601 316.292394 421.100601 
L 314.056457 421.100601 
L 314.056457 420.153726 
z
M 313.543957 416.755288 
L 314.539269 416.755288 
L 314.539269 423.855288 
L 313.543957 423.855288 
L 313.543957 416.755288 
z
M 319.671105 418.786538 
L 320.66798 418.786538 
L 320.66798 423.855288 
L 319.671105 423.855288 
L 319.671105 418.786538 
z
M 322.458605 419.988101 
Q 322.327355 419.827163 322.127355 419.744351 
Q 321.927355 419.661538 321.663293 419.661538 
Q 321.189855 419.661538 320.928918 419.922476 
Q 320.66798 420.183413 320.66798 420.647476 
L 320.564855 419.670913 
Q 320.79923 419.216226 321.169543 418.964663 
Q 321.541418 418.713101 321.989855 418.713101 
Q 322.33673 418.713101 322.61798 418.813101 
Q 322.89923 418.913101 323.108605 419.108413 
L 322.458605 419.988101 
z
M 325.882433 423.928726 
Q 325.223058 423.928726 324.754308 423.670913 
Q 324.285558 423.411538 324.038683 422.916226 
Q 323.791808 422.419351 323.791808 421.720913 
L 323.791808 420.895913 
Q 323.791808 420.208413 324.038683 419.717788 
Q 324.285558 419.225601 324.754308 418.969351 
Q 325.223058 418.713101 325.882433 418.713101 
Q 326.541808 418.713101 327.010558 418.969351 
Q 327.479308 419.225601 327.724621 419.717788 
Q 327.971496 420.208413 327.971496 420.895913 
L 327.971496 421.736538 
Q 327.971496 422.428726 327.724621 422.920913 
Q 327.479308 423.411538 327.010558 423.670913 
Q 326.541808 423.928726 325.882433 423.928726 
z
M 325.882433 422.981851 
Q 326.404308 422.981851 326.690246 422.655288 
Q 326.976183 422.327163 326.976183 421.736538 
L 326.976183 420.895913 
Q 326.976183 420.305288 326.690246 419.983413 
Q 326.404308 419.661538 325.882433 419.661538 
Q 325.358996 419.661538 325.073058 419.983413 
Q 324.788683 420.305288 324.788683 420.895913 
L 324.788683 421.736538 
Q 324.788683 422.327163 325.073058 422.655288 
Q 325.358996 422.981851 325.882433 422.981851 
z
" style="fill: #ffffff; stroke: #000000"/>
    <path d="M 298.34298 416.755288 
L 299.19298 416.755288 
L 301.810168 423.855288 
L 300.735167 423.855288 
L 298.76798 418.127163 
L 296.800793 423.855288 
L 295.725793 423.855288 
L 298.34298 416.755288 
z
M 296.932043 421.350601 
L 300.66798 421.350601 
L 300.66798 422.297476 
L 296.932043 422.297476 
L 296.932043 421.350601 
z
M 304.451964 423.855288 
L 303.455089 423.855288 
L 303.455089 417.839663 
L 302.444152 418.459976 
L 302.444152 417.428726 
L 303.455089 416.755288 
L 304.451964 416.755288 
L 304.451964 423.855288 
z
M 308.142785 423.928726 
Q 307.499035 423.928726 307.009972 423.684976 
Q 306.522472 423.439663 306.255285 422.992788 
Q 305.98966 422.545913 305.98966 421.955288 
L 305.98966 421.838101 
Q 305.98966 421.306851 306.255285 420.838101 
Q 306.522472 420.369351 306.966222 420.130288 
Q 306.58966 419.924038 306.363097 419.536538 
Q 306.136535 419.147476 306.136535 418.717788 
L 306.136535 418.547476 
Q 306.136535 417.991226 306.384972 417.569351 
Q 306.63341 417.145913 307.088097 416.914663 
Q 307.542785 416.681851 308.142785 416.681851 
Q 308.742785 416.681851 309.197472 416.914663 
Q 309.65216 417.145913 309.900597 417.569351 
Q 310.149035 417.991226 310.149035 418.547476 
L 310.149035 418.717788 
Q 310.149035 419.158413 309.917785 419.544351 
Q 309.686535 419.928726 309.305285 420.130288 
Q 309.753722 420.374038 310.024035 420.841226 
Q 310.29591 421.306851 310.29591 421.838101 
L 310.29591 421.955288 
Q 310.29591 422.545913 310.030285 422.992788 
Q 309.76466 423.439663 309.275597 423.684976 
Q 308.788097 423.928726 308.142785 423.928726 
z
M 308.142785 422.970913 
Q 308.48966 422.970913 308.75216 422.834976 
Q 309.016222 422.697476 309.159972 422.452163 
Q 309.305285 422.205288 309.305285 421.881851 
L 309.305285 421.814663 
Q 309.305285 421.486538 309.159972 421.241226 
Q 309.016222 420.994351 308.75216 420.858413 
Q 308.48966 420.720913 308.142785 420.720913 
Q 307.79591 420.720913 307.531847 420.858413 
Q 307.269347 420.994351 307.124035 421.242788 
Q 306.980285 421.491226 306.980285 421.819351 
L 306.980285 421.892788 
Q 306.980285 422.214663 307.124035 422.458413 
Q 307.269347 422.702163 307.531847 422.836538 
Q 307.79591 422.970913 308.142785 422.970913 
z
M 308.142785 419.763101 
Q 308.441222 419.763101 308.669347 419.634976 
Q 308.899035 419.505288 309.025597 419.266226 
Q 309.153722 419.025601 309.153722 418.713101 
L 309.153722 418.645913 
Q 309.153722 418.347476 309.025597 418.117788 
Q 308.899035 417.888101 308.669347 417.764663 
Q 308.441222 417.639663 308.142785 417.639663 
Q 307.844347 417.639663 307.61466 417.764663 
Q 307.386535 417.888101 307.25841 418.117788 
Q 307.131847 418.347476 307.131847 418.650601 
L 307.131847 418.724038 
Q 307.131847 419.030288 307.25841 419.267788 
Q 307.386535 419.505288 307.61466 419.634976 
Q 307.844347 419.763101 308.142785 419.763101 
z
M 314.056457 420.153726 
L 316.326769 420.153726 
Q 316.648644 420.153726 316.892394 420.002163 
Q 317.137707 419.850601 317.270519 419.572476 
Q 317.404894 419.294351 317.404894 418.933413 
L 317.404894 418.933413 
Q 317.404894 418.567788 317.270519 418.289663 
Q 317.137707 418.009976 316.892394 417.856851 
Q 316.648644 417.702163 316.326769 417.702163 
L 314.056457 417.702163 
L 314.056457 416.755288 
L 316.292394 416.755288 
Q 316.926769 416.755288 317.409582 417.027163 
Q 317.893957 417.297476 318.159582 417.791226 
Q 318.426769 418.283413 318.426769 418.933413 
L 318.426769 418.933413 
Q 318.426769 419.583413 318.159582 420.074038 
Q 317.893957 420.564663 317.409582 420.833413 
Q 316.926769 421.100601 316.292394 421.100601 
L 314.056457 421.100601 
L 314.056457 420.153726 
z
M 313.543957 416.755288 
L 314.539269 416.755288 
L 314.539269 423.855288 
L 313.543957 423.855288 
L 313.543957 416.755288 
z
M 319.671105 418.786538 
L 320.66798 418.786538 
L 320.66798 423.855288 
L 319.671105 423.855288 
L 319.671105 418.786538 
z
M 322.458605 419.988101 
Q 322.327355 419.827163 322.127355 419.744351 
Q 321.927355 419.661538 321.663293 419.661538 
Q 321.189855 419.661538 320.928918 419.922476 
Q 320.66798 420.183413 320.66798 420.647476 
L 320.564855 419.670913 
Q 320.79923 419.216226 321.169543 418.964663 
Q 321.541418 418.713101 321.989855 418.713101 
Q 322.33673 418.713101 322.61798 418.813101 
Q 322.89923 418.913101 323.108605 419.108413 
L 322.458605 419.988101 
z
M 325.882433 423.928726 
Q 325.223058 423.928726 324.754308 423.670913 
Q 324.285558 423.411538 324.038683 422.916226 
Q 323.791808 422.419351 323.791808 421.720913 
L 323.791808 420.895913 
Q 323.791808 420.208413 324.038683 419.717788 
Q 324.285558 419.225601 324.754308 418.969351 
Q 325.223058 418.713101 325.882433 418.713101 
Q 326.541808 418.713101 327.010558 418.969351 
Q 327.479308 419.225601 327.724621 419.717788 
Q 327.971496 420.208413 327.971496 420.895913 
L 327.971496 421.736538 
Q 327.971496 422.428726 327.724621 422.920913 
Q 327.479308 423.411538 327.010558 423.670913 
Q 326.541808 423.928726 325.882433 423.928726 
z
M 325.882433 422.981851 
Q 326.404308 422.981851 326.690246 422.655288 
Q 326.976183 422.327163 326.976183 421.736538 
L 326.976183 420.895913 
Q 326.976183 420.305288 326.690246 419.983413 
Q 326.404308 419.661538 325.882433 419.661538 
Q 325.358996 419.661538 325.073058 419.983413 
Q 324.788683 420.305288 324.788683 420.895913 
L 324.788683 421.736538 
Q 324.788683 422.327163 325.073058 422.655288 
Q 325.358996 422.981851 325.882433 422.981851 
z
" style="fill: #ffffff"/>
   </g>
  </g>
 </g>
 <defs>
  <clipPath id="p11ce89bb35">
   <rect x="144" y="77.76" width="892.8" height="498.96"/>
  </clipPath>
 </defs>
</svg>
