<?xml version="1.0" encoding="utf-8" standalone="no"?>
<!DOCTYPE svg PUBLIC "-//W3C//DTD SVG 1.1//EN"
  "http://www.w3.org/Graphics/SVG/1.1/DTD/svg11.dtd">
<svg xmlns:xlink="http://www.w3.org/1999/xlink" width="1152pt" height="648pt" viewBox="0 0 1152 648" xmlns="http://www.w3.org/2000/svg" version="1.1">
 <metadata>
  <rdf:RDF xmlns:dc="http://purl.org/dc/elements/1.1/" xmlns:cc="http://creativecommons.org/ns#" xmlns:rdf="http://www.w3.org/1999/02/22-rdf-syntax-ns#">
   <cc:Work>
    <dc:type rdf:resource="http://purl.org/dc/dcmitype/StillImage"/>
    <dc:date>2024-10-09T18:10:38.606652</dc:date>
    <dc:format>image/svg+xml</dc:format>
    <dc:creator>
     <cc:Agent>
      <dc:title>Matplotlib v3.8.1, https://matplotlib.org/</dc:title>
     </cc:Agent>
    </dc:creator>
   </cc:Work>
  </rdf:RDF>
 </metadata>
 <defs>
  <style type="text/css">*{stroke-linejoin: round; stroke-linecap: butt}</style>
 </defs>
 <g id="figure_1">
  <g id="patch_1">
   <path d="M 0 648 
L 1152 648 
L 1152 0 
L 0 0 
L 0 648 
z
" style="fill: none"/>
  </g>
  <g id="axes_1">
   <g id="line2d_1">
    <path d="M 198.684 541.469848 
L 201.304909 538.9747 
L 203.925818 536.502691 
L 206.546727 534.053728 
L 209.167636 531.627715 
L 211.788545 529.224557 
L 214.409455 526.844151 
L 217.030364 524.486397 
L 219.651273 522.151189 
L 222.272182 519.838422 
L 224.893091 517.547985 
L 227.514 515.279769 
L 230.134909 513.03366 
L 232.755818 510.809543 
L 235.376727 508.607303 
L 237.997636 506.42682 
L 240.618545 504.267975 
L 243.239455 502.130646 
L 245.860364 500.014709 
L 248.481273 497.92004 
L 251.102182 495.846513 
L 253.723091 493.794001 
L 256.344 491.762373 
L 258.964909 489.7515 
L 261.585818 487.761252 
L 264.206727 485.791494 
L 266.827636 483.842094 
L 269.448545 481.912917 
L 272.069455 480.003828 
L 274.690364 478.11469 
L 277.311273 476.245366 
L 279.932182 474.395718 
L 282.553091 472.565606 
L 285.174 470.754892 
L 287.794909 468.963435 
L 290.415818 467.191094 
L 293.036727 465.437728 
L 295.657636 463.703195 
L 298.278545 461.987354 
L 300.899455 460.29006 
L 303.520364 458.611172 
L 306.141273 456.950545 
L 308.762182 455.308037 
L 311.383091 453.683503 
L 314.004 452.076799 
L 316.624909 450.48778 
L 319.245818 448.916304 
L 321.866727 447.362225 
L 324.487636 445.825398 
L 327.108545 444.30568 
L 329.729455 442.802926 
L 332.350364 441.316991 
L 334.971273 439.847732 
L 337.592182 438.395004 
L 340.213091 436.958663 
L 342.834 435.538566 
L 345.454909 434.134569 
L 348.075818 432.746529 
L 350.696727 431.374302 
L 353.317636 430.017747 
L 355.938545 428.676721 
L 358.559455 427.351082 
L 361.180364 426.040688 
L 363.801273 424.745399 
L 366.422182 423.465073 
L 369.043091 422.199571 
L 371.664 420.948753 
L 374.284909 419.71248 
L 376.905818 418.490612 
L 379.526727 417.283012 
L 382.147636 416.089543 
L 384.768545 414.910066 
L 387.389455 413.744447 
L 390.010364 412.592549 
L 392.631273 411.454237 
L 395.252182 410.329377 
L 397.873091 409.217835 
L 400.494 408.119478 
L 403.114909 407.034173 
L 405.735818 405.961789 
L 408.356727 404.902195 
L 410.977636 403.855261 
L 413.598545 402.820857 
L 416.219455 401.798855 
L 418.840364 400.789127 
L 421.461273 399.791546 
L 424.082182 398.805985 
L 426.703091 397.832319 
L 429.324 396.870423 
L 431.944909 395.920174 
L 434.565818 394.981448 
L 437.186727 394.054123 
L 439.807636 393.138078 
L 442.428545 392.233193 
L 445.049455 391.339347 
L 447.670364 390.456422 
L 450.291273 389.5843 
L 452.912182 388.722864 
L 455.533091 387.871998 
L 458.154 387.031587 
" clip-path="url(#p689c412e01)" style="fill: none; stroke: #79f2f2; stroke-width: 3; stroke-linecap: round"/>
   </g>
   <g id="text_1">
    <path d="M 467.05898 388.751592 
Q 466.54648 388.751592 466.087105 388.654717 
Q 465.629293 388.55628 465.230855 388.360967 
Q 464.832418 388.165655 464.485543 387.871905 
L 464.485543 387.871905 
L 465.105855 387.110967 
L 465.105855 387.110967 
Q 465.512105 387.46253 465.999605 387.639092 
Q 466.488668 387.814092 467.05898 387.814092 
Q 467.830855 387.814092 468.255855 387.528155 
Q 468.680855 387.242217 468.680855 386.720342 
L 468.680855 386.715655 
Q 468.680855 386.34378 468.487105 386.126592 
Q 468.294918 385.909405 467.988668 385.804717 
Q 467.68398 385.70003 467.201168 385.610967 
Q 467.185543 385.60628 467.168355 385.60628 
Q 467.15273 385.60628 467.137105 385.601592 
L 467.063668 385.58753 
Q 466.351168 385.465655 465.904293 385.31253 
Q 465.457418 385.157842 465.14023 384.75003 
Q 464.823043 384.342217 464.823043 383.590655 
L 464.823043 383.585967 
Q 464.823043 382.926592 465.118355 382.460967 
Q 465.413668 381.99378 465.979293 381.75003 
Q 466.54648 381.504717 467.341793 381.504717 
Q 467.723043 381.504717 468.091793 381.589092 
Q 468.460543 381.671905 468.818355 381.835967 
Q 469.17773 381.998467 469.524605 382.246905 
L 469.524605 382.246905 
L 468.95898 383.039092 
L 468.95898 383.039092 
Q 468.55273 382.740655 468.149605 382.592217 
Q 467.748043 382.442217 467.341793 382.442217 
Q 466.61523 382.442217 466.212105 382.732842 
Q 465.80898 383.023467 465.80898 383.55628 
L 465.80898 383.560967 
Q 465.80898 383.926592 466.016793 384.13753 
Q 466.224605 384.346905 466.53398 384.446905 
Q 466.844918 384.546905 467.39648 384.654717 
Q 467.41523 384.659405 467.432418 384.66253 
Q 467.449605 384.664092 467.469918 384.66878 
Q 467.493355 384.673467 467.523043 384.679717 
Q 467.55273 384.684405 467.576168 384.689092 
Q 468.22148 384.820342 468.65273 385.001592 
Q 469.085543 385.18128 469.376168 385.584405 
Q 469.666793 385.98753 469.666793 386.685967 
L 469.666793 386.695342 
Q 469.666793 387.345342 469.35898 387.80628 
Q 469.051168 388.267217 468.466793 388.509405 
Q 467.88398 388.751592 467.05898 388.751592 
z
M 471.756832 387.73128 
L 473.363082 387.73128 
Q 474.149019 387.73128 474.580269 387.323467 
Q 475.013082 386.915655 475.013082 386.173467 
L 475.013082 384.082842 
Q 475.013082 383.340655 474.580269 382.932842 
Q 474.149019 382.52503 473.363082 382.52503 
L 471.756832 382.52503 
L 471.756832 381.578155 
L 473.333394 381.578155 
Q 474.188082 381.578155 474.792769 381.876592 
Q 475.399019 382.173467 475.716207 382.745342 
Q 476.033394 383.317217 476.033394 384.121905 
L 476.033394 386.134405 
Q 476.033394 386.939092 475.716207 387.510967 
Q 475.399019 388.082842 474.791207 388.38128 
Q 474.183394 388.678155 473.328707 388.678155 
L 471.756832 388.678155 
L 471.756832 387.73128 
z
M 471.083394 381.578155 
L 472.078707 381.578155 
L 472.078707 388.678155 
L 471.083394 388.678155 
L 471.083394 381.578155 
z
M 479.578707 388.751592 
Q 478.934957 388.751592 478.445894 388.507842 
Q 477.958394 388.26253 477.691207 387.815655 
Q 477.425582 387.36878 477.425582 386.778155 
L 477.425582 386.660967 
Q 477.425582 386.129717 477.691207 385.660967 
Q 477.958394 385.192217 478.402144 384.953155 
Q 478.025582 384.746905 477.799019 384.359405 
Q 477.572457 383.970342 477.572457 383.540655 
L 477.572457 383.370342 
Q 477.572457 382.814092 477.820894 382.392217 
Q 478.069332 381.96878 478.524019 381.73753 
Q 478.978707 381.504717 479.578707 381.504717 
Q 480.178707 381.504717 480.633394 381.73753 
Q 481.088082 381.96878 481.336519 382.392217 
Q 481.584957 382.814092 481.584957 383.370342 
L 481.584957 383.540655 
Q 481.584957 383.98128 481.353707 384.367217 
Q 481.122457 384.751592 480.741207 384.953155 
Q 481.189644 385.196905 481.459957 385.664092 
Q 481.731832 386.129717 481.731832 386.660967 
L 481.731832 386.778155 
Q 481.731832 387.36878 481.466207 387.815655 
Q 481.200582 388.26253 480.711519 388.507842 
Q 480.224019 388.751592 479.578707 388.751592 
z
M 479.578707 387.79378 
Q 479.925582 387.79378 480.188082 387.657842 
Q 480.452144 387.520342 480.595894 387.27503 
Q 480.741207 387.028155 480.741207 386.704717 
L 480.741207 386.63753 
Q 480.741207 386.309405 480.595894 386.064092 
Q 480.452144 385.817217 480.188082 385.68128 
Q 479.925582 385.54378 479.578707 385.54378 
Q 479.231832 385.54378 478.967769 385.68128 
Q 478.705269 385.817217 478.559957 386.065655 
Q 478.416207 386.314092 478.416207 386.642217 
L 478.416207 386.715655 
Q 478.416207 387.03753 478.559957 387.28128 
Q 478.705269 387.52503 478.967769 387.659405 
Q 479.231832 387.79378 479.578707 387.79378 
z
M 479.578707 384.585967 
Q 479.877144 384.585967 480.105269 384.457842 
Q 480.334957 384.328155 480.461519 384.089092 
Q 480.589644 383.848467 480.589644 383.535967 
L 480.589644 383.46878 
Q 480.589644 383.170342 480.461519 382.940655 
Q 480.334957 382.710967 480.105269 382.58753 
Q 479.877144 382.46253 479.578707 382.46253 
Q 479.280269 382.46253 479.050582 382.58753 
Q 478.822457 382.710967 478.694332 382.940655 
Q 478.567769 383.170342 478.567769 383.473467 
L 478.567769 383.546905 
Q 478.567769 383.853155 478.694332 384.090655 
Q 478.822457 384.328155 479.050582 384.457842 
Q 479.280269 384.585967 479.578707 384.585967 
z
M 489.833003 384.854717 
L 489.833003 386.095342 
Q 489.833003 386.885967 489.525191 387.489092 
Q 489.217378 388.092217 488.653316 388.421905 
Q 488.089253 388.751592 487.347066 388.751592 
Q 486.595503 388.751592 486.026753 388.442217 
Q 485.458003 388.13128 485.145503 387.565655 
Q 484.833003 386.998467 484.833003 386.251592 
L 484.833003 384.15628 
Q 484.833003 383.365655 485.140816 382.765655 
Q 485.448628 382.164092 486.011128 381.834405 
Q 486.575191 381.504717 487.317378 381.504717 
Q 487.928316 381.504717 488.442378 381.767217 
Q 488.958003 382.028155 489.304878 382.50628 
Q 489.651753 382.984405 489.773628 383.614092 
L 489.773628 383.614092 
L 488.695503 383.614092 
L 488.695503 383.614092 
Q 488.606441 383.257842 488.397066 383.001592 
Q 488.187691 382.745342 487.903316 382.610967 
Q 487.620503 382.476592 487.317378 382.476592 
Q 486.878316 382.476592 486.545503 382.68753 
Q 486.214253 382.896905 486.033003 383.27503 
Q 485.853316 383.653155 485.853316 384.15628 
L 485.853316 386.251592 
Q 485.853316 386.710967 486.037691 387.054717 
Q 486.223628 387.398467 486.562691 387.589092 
Q 486.903316 387.779717 487.347066 387.779717 
Q 487.786128 387.779717 488.117378 387.582842 
Q 488.450191 387.384405 488.631441 387.009405 
Q 488.812691 386.632842 488.812691 386.114092 
L 488.812691 385.80628 
L 487.372066 385.80628 
L 487.372066 384.854717 
L 489.833003 384.854717 
z
M 493.421285 388.751592 
Q 492.71816 388.751592 492.219722 388.48753 
Q 491.722847 388.223467 491.460347 387.714092 
Q 491.19941 387.203155 491.19941 386.48128 
L 491.19941 385.909405 
Q 491.19941 385.157842 491.450972 384.626592 
Q 491.702535 384.09378 492.18066 383.815655 
Q 492.660347 383.535967 493.333785 383.535967 
Q 493.96816 383.535967 494.416597 383.854717 
Q 494.866597 384.171905 495.102535 384.771905 
Q 495.340035 385.371905 495.340035 386.21253 
L 495.340035 386.54378 
L 491.922847 386.54378 
L 491.922847 385.74378 
L 494.39316 385.74378 
L 494.39316 385.74378 
Q 494.34941 385.123467 494.072847 384.779717 
Q 493.797847 384.434405 493.333785 384.434405 
Q 492.766597 384.434405 492.457222 384.80628 
Q 492.147847 385.176592 492.147847 385.85628 
L 492.147847 386.50003 
Q 492.147847 387.129717 492.479097 387.467217 
Q 492.81191 387.804717 493.421285 387.804717 
Q 493.72441 387.804717 494.021285 387.682842 
Q 494.319722 387.559405 494.554097 387.340655 
L 494.554097 387.340655 
L 495.208785 387.99378 
L 495.208785 387.99378 
Q 494.832222 388.35628 494.363472 388.554717 
Q 493.894722 388.751592 493.421285 388.751592 
z
M 496.707613 383.609405 
L 497.704488 383.609405 
L 497.704488 388.678155 
L 496.707613 388.678155 
L 496.707613 383.609405 
z
M 499.784175 385.60628 
Q 499.784175 385.070342 499.50605 384.778155 
Q 499.227925 384.484405 498.7248 384.484405 
Q 498.235738 384.484405 497.970113 384.74378 
Q 497.704488 385.001592 497.704488 385.470342 
L 497.601363 384.49378 
Q 497.835738 384.034405 498.213863 383.785967 
Q 498.591988 383.535967 499.051363 383.535967 
Q 499.876363 383.535967 500.327925 384.076592 
Q 500.779488 384.615655 500.779488 385.601592 
L 500.779488 388.678155 
L 499.784175 388.678155 
L 499.784175 385.60628 
z
M 502.1373 387.814092 
L 504.6123 384.51253 
Q 504.827925 384.229717 504.946675 383.92503 
Q 505.066988 383.61878 505.066988 383.35628 
L 505.066988 383.345342 
Q 505.066988 382.921905 504.816988 382.68753 
Q 504.56855 382.453155 504.110738 382.453155 
Q 503.6748 382.453155 503.40605 382.709405 
Q 503.138863 382.965655 503.079488 383.434405 
L 503.079488 383.439092 
L 502.0498 383.439092 
L 502.0498 383.434405 
Q 502.1373 382.823467 502.407613 382.392217 
Q 502.679488 381.959405 503.109175 381.732842 
Q 503.538863 381.504717 504.0998 381.504717 
Q 504.735738 381.504717 505.184175 381.721905 
Q 505.634175 381.939092 505.86855 382.354717 
Q 506.102925 382.770342 506.102925 383.35628 
L 506.102925 383.360967 
Q 506.102925 383.735967 505.946675 384.146905 
Q 505.790425 384.55628 505.510738 384.93753 
L 503.45605 387.73128 
L 506.141988 387.73128 
L 506.141988 388.678155 
L 502.1373 388.678155 
L 502.1373 387.814092 
z
" style="fill: #ffffff; stroke: #000000"/>
    <path d="M 467.05898 388.751592 
Q 466.54648 388.751592 466.087105 388.654717 
Q 465.629293 388.55628 465.230855 388.360967 
Q 464.832418 388.165655 464.485543 387.871905 
L 464.485543 387.871905 
L 465.105855 387.110967 
L 465.105855 387.110967 
Q 465.512105 387.46253 465.999605 387.639092 
Q 466.488668 387.814092 467.05898 387.814092 
Q 467.830855 387.814092 468.255855 387.528155 
Q 468.680855 387.242217 468.680855 386.720342 
L 468.680855 386.715655 
Q 468.680855 386.34378 468.487105 386.126592 
Q 468.294918 385.909405 467.988668 385.804717 
Q 467.68398 385.70003 467.201168 385.610967 
Q 467.185543 385.60628 467.168355 385.60628 
Q 467.15273 385.60628 467.137105 385.601592 
L 467.063668 385.58753 
Q 466.351168 385.465655 465.904293 385.31253 
Q 465.457418 385.157842 465.14023 384.75003 
Q 464.823043 384.342217 464.823043 383.590655 
L 464.823043 383.585967 
Q 464.823043 382.926592 465.118355 382.460967 
Q 465.413668 381.99378 465.979293 381.75003 
Q 466.54648 381.504717 467.341793 381.504717 
Q 467.723043 381.504717 468.091793 381.589092 
Q 468.460543 381.671905 468.818355 381.835967 
Q 469.17773 381.998467 469.524605 382.246905 
L 469.524605 382.246905 
L 468.95898 383.039092 
L 468.95898 383.039092 
Q 468.55273 382.740655 468.149605 382.592217 
Q 467.748043 382.442217 467.341793 382.442217 
Q 466.61523 382.442217 466.212105 382.732842 
Q 465.80898 383.023467 465.80898 383.55628 
L 465.80898 383.560967 
Q 465.80898 383.926592 466.016793 384.13753 
Q 466.224605 384.346905 466.53398 384.446905 
Q 466.844918 384.546905 467.39648 384.654717 
Q 467.41523 384.659405 467.432418 384.66253 
Q 467.449605 384.664092 467.469918 384.66878 
Q 467.493355 384.673467 467.523043 384.679717 
Q 467.55273 384.684405 467.576168 384.689092 
Q 468.22148 384.820342 468.65273 385.001592 
Q 469.085543 385.18128 469.376168 385.584405 
Q 469.666793 385.98753 469.666793 386.685967 
L 469.666793 386.695342 
Q 469.666793 387.345342 469.35898 387.80628 
Q 469.051168 388.267217 468.466793 388.509405 
Q 467.88398 388.751592 467.05898 388.751592 
z
M 471.756832 387.73128 
L 473.363082 387.73128 
Q 474.149019 387.73128 474.580269 387.323467 
Q 475.013082 386.915655 475.013082 386.173467 
L 475.013082 384.082842 
Q 475.013082 383.340655 474.580269 382.932842 
Q 474.149019 382.52503 473.363082 382.52503 
L 471.756832 382.52503 
L 471.756832 381.578155 
L 473.333394 381.578155 
Q 474.188082 381.578155 474.792769 381.876592 
Q 475.399019 382.173467 475.716207 382.745342 
Q 476.033394 383.317217 476.033394 384.121905 
L 476.033394 386.134405 
Q 476.033394 386.939092 475.716207 387.510967 
Q 475.399019 388.082842 474.791207 388.38128 
Q 474.183394 388.678155 473.328707 388.678155 
L 471.756832 388.678155 
L 471.756832 387.73128 
z
M 471.083394 381.578155 
L 472.078707 381.578155 
L 472.078707 388.678155 
L 471.083394 388.678155 
L 471.083394 381.578155 
z
M 479.578707 388.751592 
Q 478.934957 388.751592 478.445894 388.507842 
Q 477.958394 388.26253 477.691207 387.815655 
Q 477.425582 387.36878 477.425582 386.778155 
L 477.425582 386.660967 
Q 477.425582 386.129717 477.691207 385.660967 
Q 477.958394 385.192217 478.402144 384.953155 
Q 478.025582 384.746905 477.799019 384.359405 
Q 477.572457 383.970342 477.572457 383.540655 
L 477.572457 383.370342 
Q 477.572457 382.814092 477.820894 382.392217 
Q 478.069332 381.96878 478.524019 381.73753 
Q 478.978707 381.504717 479.578707 381.504717 
Q 480.178707 381.504717 480.633394 381.73753 
Q 481.088082 381.96878 481.336519 382.392217 
Q 481.584957 382.814092 481.584957 383.370342 
L 481.584957 383.540655 
Q 481.584957 383.98128 481.353707 384.367217 
Q 481.122457 384.751592 480.741207 384.953155 
Q 481.189644 385.196905 481.459957 385.664092 
Q 481.731832 386.129717 481.731832 386.660967 
L 481.731832 386.778155 
Q 481.731832 387.36878 481.466207 387.815655 
Q 481.200582 388.26253 480.711519 388.507842 
Q 480.224019 388.751592 479.578707 388.751592 
z
M 479.578707 387.79378 
Q 479.925582 387.79378 480.188082 387.657842 
Q 480.452144 387.520342 480.595894 387.27503 
Q 480.741207 387.028155 480.741207 386.704717 
L 480.741207 386.63753 
Q 480.741207 386.309405 480.595894 386.064092 
Q 480.452144 385.817217 480.188082 385.68128 
Q 479.925582 385.54378 479.578707 385.54378 
Q 479.231832 385.54378 478.967769 385.68128 
Q 478.705269 385.817217 478.559957 386.065655 
Q 478.416207 386.314092 478.416207 386.642217 
L 478.416207 386.715655 
Q 478.416207 387.03753 478.559957 387.28128 
Q 478.705269 387.52503 478.967769 387.659405 
Q 479.231832 387.79378 479.578707 387.79378 
z
M 479.578707 384.585967 
Q 479.877144 384.585967 480.105269 384.457842 
Q 480.334957 384.328155 480.461519 384.089092 
Q 480.589644 383.848467 480.589644 383.535967 
L 480.589644 383.46878 
Q 480.589644 383.170342 480.461519 382.940655 
Q 480.334957 382.710967 480.105269 382.58753 
Q 479.877144 382.46253 479.578707 382.46253 
Q 479.280269 382.46253 479.050582 382.58753 
Q 478.822457 382.710967 478.694332 382.940655 
Q 478.567769 383.170342 478.567769 383.473467 
L 478.567769 383.546905 
Q 478.567769 383.853155 478.694332 384.090655 
Q 478.822457 384.328155 479.050582 384.457842 
Q 479.280269 384.585967 479.578707 384.585967 
z
M 489.833003 384.854717 
L 489.833003 386.095342 
Q 489.833003 386.885967 489.525191 387.489092 
Q 489.217378 388.092217 488.653316 388.421905 
Q 488.089253 388.751592 487.347066 388.751592 
Q 486.595503 388.751592 486.026753 388.442217 
Q 485.458003 388.13128 485.145503 387.565655 
Q 484.833003 386.998467 484.833003 386.251592 
L 484.833003 384.15628 
Q 484.833003 383.365655 485.140816 382.765655 
Q 485.448628 382.164092 486.011128 381.834405 
Q 486.575191 381.504717 487.317378 381.504717 
Q 487.928316 381.504717 488.442378 381.767217 
Q 488.958003 382.028155 489.304878 382.50628 
Q 489.651753 382.984405 489.773628 383.614092 
L 489.773628 383.614092 
L 488.695503 383.614092 
L 488.695503 383.614092 
Q 488.606441 383.257842 488.397066 383.001592 
Q 488.187691 382.745342 487.903316 382.610967 
Q 487.620503 382.476592 487.317378 382.476592 
Q 486.878316 382.476592 486.545503 382.68753 
Q 486.214253 382.896905 486.033003 383.27503 
Q 485.853316 383.653155 485.853316 384.15628 
L 485.853316 386.251592 
Q 485.853316 386.710967 486.037691 387.054717 
Q 486.223628 387.398467 486.562691 387.589092 
Q 486.903316 387.779717 487.347066 387.779717 
Q 487.786128 387.779717 488.117378 387.582842 
Q 488.450191 387.384405 488.631441 387.009405 
Q 488.812691 386.632842 488.812691 386.114092 
L 488.812691 385.80628 
L 487.372066 385.80628 
L 487.372066 384.854717 
L 489.833003 384.854717 
z
M 493.421285 388.751592 
Q 492.71816 388.751592 492.219722 388.48753 
Q 491.722847 388.223467 491.460347 387.714092 
Q 491.19941 387.203155 491.19941 386.48128 
L 491.19941 385.909405 
Q 491.19941 385.157842 491.450972 384.626592 
Q 491.702535 384.09378 492.18066 383.815655 
Q 492.660347 383.535967 493.333785 383.535967 
Q 493.96816 383.535967 494.416597 383.854717 
Q 494.866597 384.171905 495.102535 384.771905 
Q 495.340035 385.371905 495.340035 386.21253 
L 495.340035 386.54378 
L 491.922847 386.54378 
L 491.922847 385.74378 
L 494.39316 385.74378 
L 494.39316 385.74378 
Q 494.34941 385.123467 494.072847 384.779717 
Q 493.797847 384.434405 493.333785 384.434405 
Q 492.766597 384.434405 492.457222 384.80628 
Q 492.147847 385.176592 492.147847 385.85628 
L 492.147847 386.50003 
Q 492.147847 387.129717 492.479097 387.467217 
Q 492.81191 387.804717 493.421285 387.804717 
Q 493.72441 387.804717 494.021285 387.682842 
Q 494.319722 387.559405 494.554097 387.340655 
L 494.554097 387.340655 
L 495.208785 387.99378 
L 495.208785 387.99378 
Q 494.832222 388.35628 494.363472 388.554717 
Q 493.894722 388.751592 493.421285 388.751592 
z
M 496.707613 383.609405 
L 497.704488 383.609405 
L 497.704488 388.678155 
L 496.707613 388.678155 
L 496.707613 383.609405 
z
M 499.784175 385.60628 
Q 499.784175 385.070342 499.50605 384.778155 
Q 499.227925 384.484405 498.7248 384.484405 
Q 498.235738 384.484405 497.970113 384.74378 
Q 497.704488 385.001592 497.704488 385.470342 
L 497.601363 384.49378 
Q 497.835738 384.034405 498.213863 383.785967 
Q 498.591988 383.535967 499.051363 383.535967 
Q 499.876363 383.535967 500.327925 384.076592 
Q 500.779488 384.615655 500.779488 385.601592 
L 500.779488 388.678155 
L 499.784175 388.678155 
L 499.784175 385.60628 
z
M 502.1373 387.814092 
L 504.6123 384.51253 
Q 504.827925 384.229717 504.946675 383.92503 
Q 505.066988 383.61878 505.066988 383.35628 
L 505.066988 383.345342 
Q 505.066988 382.921905 504.816988 382.68753 
Q 504.56855 382.453155 504.110738 382.453155 
Q 503.6748 382.453155 503.40605 382.709405 
Q 503.138863 382.965655 503.079488 383.434405 
L 503.079488 383.439092 
L 502.0498 383.439092 
L 502.0498 383.434405 
Q 502.1373 382.823467 502.407613 382.392217 
Q 502.679488 381.959405 503.109175 381.732842 
Q 503.538863 381.504717 504.0998 381.504717 
Q 504.735738 381.504717 505.184175 381.721905 
Q 505.634175 381.939092 505.86855 382.354717 
Q 506.102925 382.770342 506.102925 383.35628 
L 506.102925 383.360967 
Q 506.102925 383.735967 505.946675 384.146905 
Q 505.790425 384.55628 505.510738 384.93753 
L 503.45605 387.73128 
L 506.141988 387.73128 
L 506.141988 388.678155 
L 502.1373 388.678155 
L 502.1373 387.814092 
z
" style="fill: #ffffff"/>
   </g>
  </g>
 </g>
 <defs>
  <clipPath id="p689c412e01">
   <rect x="144" y="77.76" width="892.8" height="498.96"/>
  </clipPath>
 </defs>
</svg>
