<?xml version="1.0" encoding="utf-8" standalone="no"?>
<!DOCTYPE svg PUBLIC "-//W3C//DTD SVG 1.1//EN"
  "http://www.w3.org/Graphics/SVG/1.1/DTD/svg11.dtd">
<svg xmlns:xlink="http://www.w3.org/1999/xlink" width="1152pt" height="648pt" viewBox="0 0 1152 648" xmlns="http://www.w3.org/2000/svg" version="1.1">
 <metadata>
  <rdf:RDF xmlns:dc="http://purl.org/dc/elements/1.1/" xmlns:cc="http://creativecommons.org/ns#" xmlns:rdf="http://www.w3.org/1999/02/22-rdf-syntax-ns#">
   <cc:Work>
    <dc:type rdf:resource="http://purl.org/dc/dcmitype/StillImage"/>
    <dc:date>2024-10-09T18:10:38.907788</dc:date>
    <dc:format>image/svg+xml</dc:format>
    <dc:creator>
     <cc:Agent>
      <dc:title>Matplotlib v3.8.1, https://matplotlib.org/</dc:title>
     </cc:Agent>
    </dc:creator>
   </cc:Work>
  </rdf:RDF>
 </metadata>
 <defs>
  <style type="text/css">*{stroke-linejoin: round; stroke-linecap: butt}</style>
 </defs>
 <g id="figure_1">
  <g id="patch_1">
   <path d="M 0 648 
L 1152 648 
L 1152 0 
L 0 0 
L 0 648 
z
" style="fill: none"/>
  </g>
  <g id="axes_1">
   <g id="line2d_1">
    <path d="M 197.01 553.989976 
L 199.084182 552.793487 
L 201.158364 551.608334 
L 203.232545 550.434409 
L 205.306727 549.271607 
L 207.380909 548.119823 
L 209.455091 546.978953 
L 211.529273 545.848893 
L 213.603455 544.729544 
L 215.677636 543.620802 
L 217.751818 542.522569 
L 219.826 541.434745 
L 221.900182 540.357233 
L 223.974364 539.289934 
L 226.048545 538.232753 
L 228.122727 537.185593 
L 230.196909 536.148362 
L 232.271091 535.120964 
L 234.345273 534.103307 
L 236.419455 533.0953 
L 238.493636 532.096851 
L 240.567818 531.10787 
L 242.642 530.128267 
L 244.716182 529.157955 
L 246.790364 528.196844 
L 248.864545 527.24485 
L 250.938727 526.301885 
L 253.012909 525.367864 
L 255.087091 524.442702 
L 257.161273 523.526317 
L 259.235455 522.618625 
L 261.309636 521.719544 
L 263.383818 520.828993 
L 265.458 519.94689 
L 267.532182 519.073158 
L 269.606364 518.207715 
L 271.680545 517.350484 
L 273.754727 516.501388 
L 275.828909 515.660348 
L 277.903091 514.827291 
L 279.977273 514.002139 
L 282.051455 513.184818 
L 284.125636 512.375254 
L 286.199818 511.573373 
L 288.274 510.779104 
L 290.348182 509.992374 
L 292.422364 509.213112 
L 294.496545 508.441247 
L 296.570727 507.676709 
L 298.644909 506.919429 
L 300.719091 506.169338 
L 302.793273 505.426368 
L 304.867455 504.690453 
L 306.941636 503.961524 
L 309.015818 503.239517 
L 311.09 502.524365 
L 313.164182 501.816003 
L 315.238364 501.114368 
L 317.312545 500.419396 
L 319.386727 499.731024 
L 321.460909 499.049188 
L 323.535091 498.373828 
L 325.609273 497.704882 
L 327.683455 497.042289 
L 329.757636 496.38599 
L 331.831818 495.735924 
L 333.906 495.092033 
L 335.980182 494.454257 
L 338.054364 493.82254 
L 340.128545 493.196823 
L 342.202727 492.577051 
L 344.276909 491.963166 
L 346.351091 491.355113 
L 348.425273 490.752837 
L 350.499455 490.156282 
L 352.573636 489.565396 
L 354.647818 488.980123 
L 356.722 488.400411 
L 358.796182 487.826207 
L 360.870364 487.257459 
L 362.944545 486.694116 
L 365.018727 486.136125 
L 367.092909 485.583437 
L 369.167091 485.036 
L 371.241273 484.493766 
L 373.315455 483.956685 
L 375.389636 483.424708 
L 377.463818 482.897787 
L 379.538 482.375873 
L 381.612182 481.85892 
L 383.686364 481.34688 
L 385.760545 480.839707 
L 387.834727 480.337354 
L 389.908909 479.839776 
L 391.983091 479.346928 
L 394.057273 478.858765 
L 396.131455 478.375241 
L 398.205636 477.896314 
L 400.279818 477.42194 
L 402.354 476.952075 
" clip-path="url(#p56e6f4eb25)" style="fill: none; stroke: #f2b679; stroke-width: 3; stroke-linecap: round"/>
   </g>
   <g id="text_1">
    <path d="M 409.799605 477.651768 
L 411.405855 477.651768 
Q 412.191792 477.651768 412.623042 477.243956 
Q 413.055855 476.836143 413.055855 476.093956 
L 413.055855 474.003331 
Q 413.055855 473.261143 412.623042 472.853331 
Q 412.191792 472.445518 411.405855 472.445518 
L 409.799605 472.445518 
L 409.799605 471.498643 
L 411.376167 471.498643 
Q 412.230855 471.498643 412.835542 471.797081 
Q 413.441792 472.093956 413.75898 472.665831 
Q 414.076167 473.237706 414.076167 474.042393 
L 414.076167 476.054893 
Q 414.076167 476.859581 413.75898 477.431456 
Q 413.441792 478.003331 412.83398 478.301768 
Q 412.226167 478.598643 411.37148 478.598643 
L 409.799605 478.598643 
L 409.799605 477.651768 
z
M 409.126167 471.498643 
L 410.12148 471.498643 
L 410.12148 478.598643 
L 409.126167 478.598643 
L 409.126167 471.498643 
z
M 417.62148 478.672081 
Q 416.97773 478.672081 416.488667 478.428331 
Q 416.001167 478.183018 415.73398 477.736143 
Q 415.468355 477.289268 415.468355 476.698643 
L 415.468355 476.581456 
Q 415.468355 476.050206 415.73398 475.581456 
Q 416.001167 475.112706 416.444917 474.873643 
Q 416.068355 474.667393 415.841792 474.279893 
Q 415.61523 473.890831 415.61523 473.461143 
L 415.61523 473.290831 
Q 415.61523 472.734581 415.863667 472.312706 
Q 416.112105 471.889268 416.566792 471.658018 
Q 417.02148 471.425206 417.62148 471.425206 
Q 418.22148 471.425206 418.676167 471.658018 
Q 419.130855 471.889268 419.379292 472.312706 
Q 419.62773 472.734581 419.62773 473.290831 
L 419.62773 473.461143 
Q 419.62773 473.901768 419.39648 474.287706 
Q 419.16523 474.672081 418.78398 474.873643 
Q 419.232417 475.117393 419.50273 475.584581 
Q 419.774605 476.050206 419.774605 476.581456 
L 419.774605 476.698643 
Q 419.774605 477.289268 419.50898 477.736143 
Q 419.243355 478.183018 418.754292 478.428331 
Q 418.266792 478.672081 417.62148 478.672081 
z
M 417.62148 477.714268 
Q 417.968355 477.714268 418.230855 477.578331 
Q 418.494917 477.440831 418.638667 477.195518 
Q 418.78398 476.948643 418.78398 476.625206 
L 418.78398 476.558018 
Q 418.78398 476.229893 418.638667 475.984581 
Q 418.494917 475.737706 418.230855 475.601768 
Q 417.968355 475.464268 417.62148 475.464268 
Q 417.274605 475.464268 417.010542 475.601768 
Q 416.748042 475.737706 416.60273 475.986143 
Q 416.45898 476.234581 416.45898 476.562706 
L 416.45898 476.636143 
Q 416.45898 476.958018 416.60273 477.201768 
Q 416.748042 477.445518 417.010542 477.579893 
Q 417.274605 477.714268 417.62148 477.714268 
z
M 417.62148 474.506456 
Q 417.919917 474.506456 418.148042 474.378331 
Q 418.37773 474.248643 418.504292 474.009581 
Q 418.632417 473.768956 418.632417 473.456456 
L 418.632417 473.389268 
Q 418.632417 473.090831 418.504292 472.861143 
Q 418.37773 472.631456 418.148042 472.508018 
Q 417.919917 472.383018 417.62148 472.383018 
Q 417.323042 472.383018 417.093355 472.508018 
Q 416.86523 472.631456 416.737105 472.861143 
Q 416.610542 473.090831 416.610542 473.393956 
L 416.610542 473.467393 
Q 416.610542 473.773643 416.737105 474.011143 
Q 416.86523 474.248643 417.093355 474.378331 
Q 417.323042 474.506456 417.62148 474.506456 
z
M 421.05898 477.734581 
L 423.53398 474.433018 
Q 423.749605 474.150206 423.868355 473.845518 
Q 423.988667 473.539268 423.988667 473.276768 
L 423.988667 473.265831 
Q 423.988667 472.842393 423.738667 472.608018 
Q 423.49023 472.373643 423.032417 472.373643 
Q 422.59648 472.373643 422.32773 472.629893 
Q 422.060542 472.886143 422.001167 473.354893 
L 422.001167 473.359581 
L 420.97148 473.359581 
L 420.97148 473.354893 
Q 421.05898 472.743956 421.329292 472.312706 
Q 421.601167 471.879893 422.030855 471.653331 
Q 422.460542 471.425206 423.02148 471.425206 
Q 423.657417 471.425206 424.105855 471.642393 
Q 424.555855 471.859581 424.79023 472.275206 
Q 425.024605 472.690831 425.024605 473.276768 
L 425.024605 473.281456 
Q 425.024605 473.656456 424.868355 474.067393 
Q 424.712105 474.476768 424.432417 474.858018 
L 422.37773 477.651768 
L 425.063667 477.651768 
L 425.063667 478.598643 
L 421.05898 478.598643 
L 421.05898 477.734581 
z
M 428.359371 478.672081 
Q 427.362496 478.672081 426.846871 478.140831 
Q 426.332808 477.608018 426.332808 476.654893 
L 426.332808 473.428331 
Q 426.332808 472.470518 426.849996 471.940831 
Q 427.367183 471.411143 428.359371 471.411143 
Q 429.354683 471.411143 429.870308 471.939268 
Q 430.385933 472.465831 430.385933 473.428331 
L 430.385933 476.654893 
Q 430.385933 477.612706 429.867183 478.142393 
Q 429.349996 478.672081 428.359371 478.672081 
z
M 428.359371 477.725206 
Q 428.885933 477.725206 429.137496 477.448643 
Q 429.389058 477.172081 429.389058 476.654893 
L 429.389058 473.428331 
Q 429.389058 472.909581 429.139058 472.634581 
Q 428.890621 472.358018 428.359371 472.358018 
Q 427.826558 472.358018 427.576558 472.634581 
Q 427.328121 472.909581 427.328121 473.428331 
L 427.328121 476.654893 
Q 427.328121 477.172081 427.579683 477.448643 
Q 427.831246 477.725206 428.359371 477.725206 
z
M 433.876949 478.672081 
Q 432.880074 478.672081 432.364449 478.140831 
Q 431.850386 477.608018 431.850386 476.654893 
L 431.850386 473.428331 
Q 431.850386 472.470518 432.367574 471.940831 
Q 432.884761 471.411143 433.876949 471.411143 
Q 434.872261 471.411143 435.387886 471.939268 
Q 435.903511 472.465831 435.903511 473.428331 
L 435.903511 476.654893 
Q 435.903511 477.612706 435.384761 478.142393 
Q 434.867574 478.672081 433.876949 478.672081 
z
M 433.876949 477.725206 
Q 434.403511 477.725206 434.655074 477.448643 
Q 434.906636 477.172081 434.906636 476.654893 
L 434.906636 473.428331 
Q 434.906636 472.909581 434.656636 472.634581 
Q 434.408199 472.358018 433.876949 472.358018 
Q 433.344136 472.358018 433.094136 472.634581 
Q 432.845699 472.909581 432.845699 473.428331 
L 432.845699 476.654893 
Q 432.845699 477.172081 433.097261 477.448643 
Q 433.348824 477.725206 433.876949 477.725206 
z
" style="fill: #ffffff; stroke: #000000"/>
    <path d="M 409.799605 477.651768 
L 411.405855 477.651768 
Q 412.191792 477.651768 412.623042 477.243956 
Q 413.055855 476.836143 413.055855 476.093956 
L 413.055855 474.003331 
Q 413.055855 473.261143 412.623042 472.853331 
Q 412.191792 472.445518 411.405855 472.445518 
L 409.799605 472.445518 
L 409.799605 471.498643 
L 411.376167 471.498643 
Q 412.230855 471.498643 412.835542 471.797081 
Q 413.441792 472.093956 413.75898 472.665831 
Q 414.076167 473.237706 414.076167 474.042393 
L 414.076167 476.054893 
Q 414.076167 476.859581 413.75898 477.431456 
Q 413.441792 478.003331 412.83398 478.301768 
Q 412.226167 478.598643 411.37148 478.598643 
L 409.799605 478.598643 
L 409.799605 477.651768 
z
M 409.126167 471.498643 
L 410.12148 471.498643 
L 410.12148 478.598643 
L 409.126167 478.598643 
L 409.126167 471.498643 
z
M 417.62148 478.672081 
Q 416.97773 478.672081 416.488667 478.428331 
Q 416.001167 478.183018 415.73398 477.736143 
Q 415.468355 477.289268 415.468355 476.698643 
L 415.468355 476.581456 
Q 415.468355 476.050206 415.73398 475.581456 
Q 416.001167 475.112706 416.444917 474.873643 
Q 416.068355 474.667393 415.841792 474.279893 
Q 415.61523 473.890831 415.61523 473.461143 
L 415.61523 473.290831 
Q 415.61523 472.734581 415.863667 472.312706 
Q 416.112105 471.889268 416.566792 471.658018 
Q 417.02148 471.425206 417.62148 471.425206 
Q 418.22148 471.425206 418.676167 471.658018 
Q 419.130855 471.889268 419.379292 472.312706 
Q 419.62773 472.734581 419.62773 473.290831 
L 419.62773 473.461143 
Q 419.62773 473.901768 419.39648 474.287706 
Q 419.16523 474.672081 418.78398 474.873643 
Q 419.232417 475.117393 419.50273 475.584581 
Q 419.774605 476.050206 419.774605 476.581456 
L 419.774605 476.698643 
Q 419.774605 477.289268 419.50898 477.736143 
Q 419.243355 478.183018 418.754292 478.428331 
Q 418.266792 478.672081 417.62148 478.672081 
z
M 417.62148 477.714268 
Q 417.968355 477.714268 418.230855 477.578331 
Q 418.494917 477.440831 418.638667 477.195518 
Q 418.78398 476.948643 418.78398 476.625206 
L 418.78398 476.558018 
Q 418.78398 476.229893 418.638667 475.984581 
Q 418.494917 475.737706 418.230855 475.601768 
Q 417.968355 475.464268 417.62148 475.464268 
Q 417.274605 475.464268 417.010542 475.601768 
Q 416.748042 475.737706 416.60273 475.986143 
Q 416.45898 476.234581 416.45898 476.562706 
L 416.45898 476.636143 
Q 416.45898 476.958018 416.60273 477.201768 
Q 416.748042 477.445518 417.010542 477.579893 
Q 417.274605 477.714268 417.62148 477.714268 
z
M 417.62148 474.506456 
Q 417.919917 474.506456 418.148042 474.378331 
Q 418.37773 474.248643 418.504292 474.009581 
Q 418.632417 473.768956 418.632417 473.456456 
L 418.632417 473.389268 
Q 418.632417 473.090831 418.504292 472.861143 
Q 418.37773 472.631456 418.148042 472.508018 
Q 417.919917 472.383018 417.62148 472.383018 
Q 417.323042 472.383018 417.093355 472.508018 
Q 416.86523 472.631456 416.737105 472.861143 
Q 416.610542 473.090831 416.610542 473.393956 
L 416.610542 473.467393 
Q 416.610542 473.773643 416.737105 474.011143 
Q 416.86523 474.248643 417.093355 474.378331 
Q 417.323042 474.506456 417.62148 474.506456 
z
M 421.05898 477.734581 
L 423.53398 474.433018 
Q 423.749605 474.150206 423.868355 473.845518 
Q 423.988667 473.539268 423.988667 473.276768 
L 423.988667 473.265831 
Q 423.988667 472.842393 423.738667 472.608018 
Q 423.49023 472.373643 423.032417 472.373643 
Q 422.59648 472.373643 422.32773 472.629893 
Q 422.060542 472.886143 422.001167 473.354893 
L 422.001167 473.359581 
L 420.97148 473.359581 
L 420.97148 473.354893 
Q 421.05898 472.743956 421.329292 472.312706 
Q 421.601167 471.879893 422.030855 471.653331 
Q 422.460542 471.425206 423.02148 471.425206 
Q 423.657417 471.425206 424.105855 471.642393 
Q 424.555855 471.859581 424.79023 472.275206 
Q 425.024605 472.690831 425.024605 473.276768 
L 425.024605 473.281456 
Q 425.024605 473.656456 424.868355 474.067393 
Q 424.712105 474.476768 424.432417 474.858018 
L 422.37773 477.651768 
L 425.063667 477.651768 
L 425.063667 478.598643 
L 421.05898 478.598643 
L 421.05898 477.734581 
z
M 428.359371 478.672081 
Q 427.362496 478.672081 426.846871 478.140831 
Q 426.332808 477.608018 426.332808 476.654893 
L 426.332808 473.428331 
Q 426.332808 472.470518 426.849996 471.940831 
Q 427.367183 471.411143 428.359371 471.411143 
Q 429.354683 471.411143 429.870308 471.939268 
Q 430.385933 472.465831 430.385933 473.428331 
L 430.385933 476.654893 
Q 430.385933 477.612706 429.867183 478.142393 
Q 429.349996 478.672081 428.359371 478.672081 
z
M 428.359371 477.725206 
Q 428.885933 477.725206 429.137496 477.448643 
Q 429.389058 477.172081 429.389058 476.654893 
L 429.389058 473.428331 
Q 429.389058 472.909581 429.139058 472.634581 
Q 428.890621 472.358018 428.359371 472.358018 
Q 427.826558 472.358018 427.576558 472.634581 
Q 427.328121 472.909581 427.328121 473.428331 
L 427.328121 476.654893 
Q 427.328121 477.172081 427.579683 477.448643 
Q 427.831246 477.725206 428.359371 477.725206 
z
M 433.876949 478.672081 
Q 432.880074 478.672081 432.364449 478.140831 
Q 431.850386 477.608018 431.850386 476.654893 
L 431.850386 473.428331 
Q 431.850386 472.470518 432.367574 471.940831 
Q 432.884761 471.411143 433.876949 471.411143 
Q 434.872261 471.411143 435.387886 471.939268 
Q 435.903511 472.465831 435.903511 473.428331 
L 435.903511 476.654893 
Q 435.903511 477.612706 435.384761 478.142393 
Q 434.867574 478.672081 433.876949 478.672081 
z
M 433.876949 477.725206 
Q 434.403511 477.725206 434.655074 477.448643 
Q 434.906636 477.172081 434.906636 476.654893 
L 434.906636 473.428331 
Q 434.906636 472.909581 434.656636 472.634581 
Q 434.408199 472.358018 433.876949 472.358018 
Q 433.344136 472.358018 433.094136 472.634581 
Q 432.845699 472.909581 432.845699 473.428331 
L 432.845699 476.654893 
Q 432.845699 477.172081 433.097261 477.448643 
Q 433.348824 477.725206 433.876949 477.725206 
z
" style="fill: #ffffff"/>
   </g>
  </g>
 </g>
 <defs>
  <clipPath id="p56e6f4eb25">
   <rect x="144" y="77.76" width="892.8" height="498.96"/>
  </clipPath>
 </defs>
</svg>
