<?xml version="1.0" encoding="utf-8" standalone="no"?>
<!DOCTYPE svg PUBLIC "-//W3C//DTD SVG 1.1//EN"
  "http://www.w3.org/Graphics/SVG/1.1/DTD/svg11.dtd">
<svg xmlns:xlink="http://www.w3.org/1999/xlink" width="1152pt" height="648pt" viewBox="0 0 1152 648" xmlns="http://www.w3.org/2000/svg" version="1.1">
 <metadata>
  <rdf:RDF xmlns:dc="http://purl.org/dc/elements/1.1/" xmlns:cc="http://creativecommons.org/ns#" xmlns:rdf="http://www.w3.org/1999/02/22-rdf-syntax-ns#">
   <cc:Work>
    <dc:type rdf:resource="http://purl.org/dc/dcmitype/StillImage"/>
    <dc:date>2024-11-15T17:08:11.613846</dc:date>
    <dc:format>image/svg+xml</dc:format>
    <dc:creator>
     <cc:Agent>
      <dc:title>Matplotlib v3.8.1, https://matplotlib.org/</dc:title>
     </cc:Agent>
    </dc:creator>
   </cc:Work>
  </rdf:RDF>
 </metadata>
 <defs>
  <style type="text/css">*{stroke-linejoin: round; stroke-linecap: butt}</style>
 </defs>
 <g id="figure_1">
  <g id="patch_1">
   <path d="M 0 648 
L 1152 648 
L 1152 0 
L 0 0 
L 0 648 
z
" style="fill: none"/>
  </g>
  <g id="axes_1">
   <g id="PathCollection_1">
    <defs>
     <path id="m55b3360d6e" d="M 0 2.738613 
C 0.726289 2.738613 1.422928 2.450055 1.936492 1.936492 
C 2.450055 1.422928 2.738613 0.726289 2.738613 0 
C 2.738613 -0.726289 2.450055 -1.422928 1.936492 -1.936492 
C 1.422928 -2.450055 0.726289 -2.738613 0 -2.738613 
C -0.726289 -2.738613 -1.422928 -2.450055 -1.936492 -1.936492 
C -2.450055 -1.422928 -2.738613 -0.726289 -2.738613 0 
C -2.738613 0.726289 -2.450055 1.422928 -1.936492 1.936492 
C -1.422928 2.450055 -0.726289 2.738613 0 2.738613 
z
" style="stroke: #f27979"/>
    </defs>
    <g clip-path="url(#pdafe8cdfc5)">
     <use xlink:href="#m55b3360d6e" x="748.872" y="156.92832" style="fill: #f27979; stroke: #f27979"/>
    </g>
   </g>
   <g id="text_1">
    <path d="M 756.317605 157.628013 
L 757.923855 157.628013 
Q 758.709793 157.628013 759.141043 157.220201 
Q 759.573855 156.812388 759.573855 156.070201 
L 759.573855 153.979576 
Q 759.573855 153.237388 759.141043 152.829576 
Q 758.709793 152.421763 757.923855 152.421763 
L 756.317605 152.421763 
L 756.317605 151.474888 
L 757.894168 151.474888 
Q 758.748855 151.474888 759.353543 151.773326 
Q 759.959793 152.070201 760.27698 152.642076 
Q 760.594168 153.213951 760.594168 154.018638 
L 760.594168 156.031138 
Q 760.594168 156.835826 760.27698 157.407701 
Q 759.959793 157.979576 759.35198 158.278013 
Q 758.744168 158.574888 757.88948 158.574888 
L 756.317605 158.574888 
L 756.317605 157.628013 
z
M 755.644168 151.474888 
L 756.63948 151.474888 
L 756.63948 158.574888 
L 755.644168 158.574888 
L 755.644168 151.474888 
z
M 764.573855 155.049888 
L 764.569168 155.224888 
Q 764.447293 155.449888 764.200418 155.554576 
Q 763.953543 155.659263 763.617605 155.659263 
Q 763.109793 155.659263 762.723855 155.401451 
Q 762.337918 155.142076 762.125418 154.671763 
Q 761.912918 154.199888 761.912918 153.579576 
L 761.912918 153.574888 
Q 761.912918 152.885826 762.144168 152.398326 
Q 762.37698 151.909263 762.823855 151.656138 
Q 763.27073 151.401451 763.89573 151.401451 
Q 764.52073 151.401451 764.96448 151.660826 
Q 765.409793 151.920201 765.641043 152.413951 
Q 765.872293 152.906138 765.872293 153.599888 
L 765.872293 153.604576 
Q 765.872293 153.984263 765.773855 154.417076 
Q 765.67698 154.849888 765.497293 155.273326 
Q 765.467605 155.337388 765.437918 155.403013 
Q 765.409793 155.468638 765.375418 155.532701 
L 763.861355 158.574888 
L 762.786355 158.574888 
L 764.573855 155.049888 
z
M 763.89573 154.751451 
Q 764.36448 154.751451 764.62073 154.434263 
Q 764.87698 154.117076 764.87698 153.540513 
L 764.87698 153.535826 
Q 764.87698 152.974888 764.62073 152.667076 
Q 764.36448 152.359263 763.89573 152.359263 
Q 763.422293 152.359263 763.166043 152.667076 
Q 762.909793 152.974888 762.909793 153.540513 
L 762.909793 153.545201 
Q 762.909793 154.121763 763.166043 154.437388 
Q 763.422293 154.751451 763.89573 154.751451 
z
M 767.093191 156.621763 
L 769.476003 151.479576 
L 770.502566 151.479576 
L 768.177566 156.562388 
L 771.658816 156.562388 
L 771.658816 157.485826 
L 767.093191 157.485826 
L 767.093191 156.621763 
z
M 770.155691 154.399888 
L 771.127566 154.399888 
L 771.127566 158.579576 
L 770.155691 158.579576 
L 770.155691 154.399888 
z
M 774.906668 158.648326 
Q 773.909793 158.648326 773.394168 158.117076 
Q 772.880105 157.584263 772.880105 156.631138 
L 772.880105 153.404576 
Q 772.880105 152.446763 773.397293 151.917076 
Q 773.91448 151.387388 774.906668 151.387388 
Q 775.90198 151.387388 776.417605 151.915513 
Q 776.93323 152.442076 776.93323 153.404576 
L 776.93323 156.631138 
Q 776.93323 157.588951 776.41448 158.118638 
Q 775.897293 158.648326 774.906668 158.648326 
z
M 774.906668 157.701451 
Q 775.43323 157.701451 775.684793 157.424888 
Q 775.936355 157.148326 775.936355 156.631138 
L 775.936355 153.404576 
Q 775.936355 152.885826 775.686355 152.610826 
Q 775.437918 152.334263 774.906668 152.334263 
Q 774.373855 152.334263 774.123855 152.610826 
Q 773.875418 152.885826 773.875418 153.404576 
L 773.875418 156.631138 
Q 773.875418 157.148326 774.12698 157.424888 
Q 774.378543 157.701451 774.906668 157.701451 
z
M 780.424246 158.648326 
Q 779.427371 158.648326 778.911746 158.117076 
Q 778.397683 157.584263 778.397683 156.631138 
L 778.397683 153.404576 
Q 778.397683 152.446763 778.914871 151.917076 
Q 779.432058 151.387388 780.424246 151.387388 
Q 781.419558 151.387388 781.935183 151.915513 
Q 782.450808 152.442076 782.450808 153.404576 
L 782.450808 156.631138 
Q 782.450808 157.588951 781.932058 158.118638 
Q 781.414871 158.648326 780.424246 158.648326 
z
M 780.424246 157.701451 
Q 780.950808 157.701451 781.202371 157.424888 
Q 781.453933 157.148326 781.453933 156.631138 
L 781.453933 153.404576 
Q 781.453933 152.885826 781.203933 152.610826 
Q 780.955496 152.334263 780.424246 152.334263 
Q 779.891433 152.334263 779.641433 152.610826 
Q 779.392996 152.885826 779.392996 153.404576 
L 779.392996 156.631138 
Q 779.392996 157.148326 779.644558 157.424888 
Q 779.896121 157.701451 780.424246 157.701451 
z
M 787.503933 160.103013 
Q 786.635183 159.160826 786.202371 157.992076 
Q 785.771121 156.821763 785.771121 155.410826 
Q 785.771121 153.999888 786.202371 152.831138 
Q 786.635183 151.660826 787.503933 150.718638 
L 788.186746 151.338951 
Q 787.450808 152.159263 787.083621 153.174888 
Q 786.717996 154.190513 786.717996 155.410826 
Q 786.717996 156.631138 787.083621 157.646763 
Q 787.450808 158.662388 788.186746 159.487388 
L 787.503933 160.103013 
z
M 791.097488 158.648326 
Q 790.453738 158.648326 789.964675 158.404576 
Q 789.477175 158.159263 789.209988 157.712388 
Q 788.944363 157.265513 788.944363 156.674888 
L 788.944363 156.557701 
Q 788.944363 156.026451 789.209988 155.557701 
Q 789.477175 155.088951 789.920925 154.849888 
Q 789.544363 154.643638 789.3178 154.256138 
Q 789.091238 153.867076 789.091238 153.437388 
L 789.091238 153.267076 
Q 789.091238 152.710826 789.339675 152.288951 
Q 789.588113 151.865513 790.0428 151.634263 
Q 790.497488 151.401451 791.097488 151.401451 
Q 791.697488 151.401451 792.152175 151.634263 
Q 792.606863 151.865513 792.8553 152.288951 
Q 793.103738 152.710826 793.103738 153.267076 
L 793.103738 153.437388 
Q 793.103738 153.878013 792.872488 154.263951 
Q 792.641238 154.648326 792.259988 154.849888 
Q 792.708425 155.093638 792.978738 155.560826 
Q 793.250613 156.026451 793.250613 156.557701 
L 793.250613 156.674888 
Q 793.250613 157.265513 792.984988 157.712388 
Q 792.719363 158.159263 792.2303 158.404576 
Q 791.7428 158.648326 791.097488 158.648326 
z
M 791.097488 157.690513 
Q 791.444363 157.690513 791.706863 157.554576 
Q 791.970925 157.417076 792.114675 157.171763 
Q 792.259988 156.924888 792.259988 156.601451 
L 792.259988 156.534263 
Q 792.259988 156.206138 792.114675 155.960826 
Q 791.970925 155.713951 791.706863 155.578013 
Q 791.444363 155.440513 791.097488 155.440513 
Q 790.750613 155.440513 790.48655 155.578013 
Q 790.22405 155.713951 790.078738 155.962388 
Q 789.934988 156.210826 789.934988 156.538951 
L 789.934988 156.612388 
Q 789.934988 156.934263 790.078738 157.178013 
Q 790.22405 157.421763 790.48655 157.556138 
Q 790.750613 157.690513 791.097488 157.690513 
z
M 791.097488 154.482701 
Q 791.395925 154.482701 791.62405 154.354576 
Q 791.853738 154.224888 791.9803 153.985826 
Q 792.108425 153.745201 792.108425 153.432701 
L 792.108425 153.365513 
Q 792.108425 153.067076 791.9803 152.837388 
Q 791.853738 152.607701 791.62405 152.484263 
Q 791.395925 152.359263 791.097488 152.359263 
Q 790.79905 152.359263 790.569363 152.484263 
Q 790.341238 152.607701 790.213113 152.837388 
Q 790.08655 153.067076 790.08655 153.370201 
L 790.08655 153.443638 
Q 790.08655 153.749888 790.213113 153.987388 
Q 790.341238 154.224888 790.569363 154.354576 
Q 790.79905 154.482701 791.097488 154.482701 
z
M 796.625613 158.648326 
Q 796.088113 158.648326 795.669363 158.438951 
Q 795.252175 158.228013 794.991238 157.828013 
Q 794.7303 157.428013 794.6428 156.865513 
L 794.6428 156.860826 
L 795.638113 156.860826 
L 795.638113 156.865513 
Q 795.6928 157.256138 795.950613 157.473326 
Q 796.209988 157.690513 796.625613 157.690513 
Q 797.103738 157.690513 797.364675 157.371763 
Q 797.625613 157.051451 797.625613 156.470201 
L 797.625613 155.874888 
Q 797.625613 155.298326 797.364675 154.979576 
Q 797.103738 154.659263 796.625613 154.659263 
Q 796.366238 154.659263 796.127175 154.806138 
Q 795.888113 154.951451 795.706863 155.215513 
L 794.79905 155.215513 
L 794.79905 151.474888 
L 798.416238 151.474888 
L 798.416238 152.421763 
L 795.794363 152.421763 
L 795.794363 154.018638 
Q 795.9803 153.867076 796.209988 153.784263 
Q 796.439675 153.701451 796.678738 153.701451 
Q 797.294363 153.701451 797.7303 153.956138 
Q 798.1678 154.209263 798.394363 154.698326 
Q 798.622488 155.185826 798.622488 155.874888 
L 798.622488 156.470201 
Q 798.622488 157.159263 798.388113 157.648326 
Q 798.153738 158.135826 797.703738 158.392076 
Q 797.2553 158.648326 796.625613 158.648326 
z
M 801.923074 158.648326 
Q 801.327761 158.648326 800.873074 158.431138 
Q 800.418386 158.213951 800.141824 157.801451 
Q 799.866824 157.388951 799.793386 156.807701 
L 799.793386 156.807701 
L 800.809011 156.807701 
L 800.809011 156.807701 
Q 800.852761 157.109263 800.999636 157.304576 
Q 801.146511 157.499888 801.377761 157.595201 
Q 801.610574 157.690513 801.923074 157.690513 
Q 802.415261 157.690513 802.688699 157.428013 
Q 802.962136 157.163951 802.962136 156.685826 
L 802.962136 156.470201 
Q 802.962136 155.937388 802.702761 155.648326 
Q 802.444949 155.357701 801.971511 155.357701 
L 801.468386 155.357701 
L 801.468386 154.409263 
L 801.971511 154.409263 
Q 802.387136 154.409263 802.615261 154.160826 
Q 802.844949 153.912388 802.844949 153.457701 
L 802.844949 153.237388 
Q 802.844949 152.818638 802.602761 152.588951 
Q 802.362136 152.359263 801.918386 152.359263 
Q 801.663699 152.359263 801.463699 152.454576 
Q 801.263699 152.549888 801.124636 152.748326 
Q 800.985574 152.945201 800.921511 153.242076 
L 800.921511 153.242076 
L 799.910574 153.242076 
L 799.910574 153.242076 
Q 800.009011 152.662388 800.279324 152.246763 
Q 800.551199 151.831138 800.965261 151.617076 
Q 801.380886 151.401451 801.918386 151.401451 
Q 802.835574 151.401451 803.338699 151.885826 
Q 803.841824 152.368638 803.841824 153.248326 
L 803.841824 153.365513 
Q 803.841824 153.896763 803.552761 154.292076 
Q 803.265261 154.687388 802.738699 154.868638 
Q 803.319949 154.995201 803.638699 155.440513 
Q 803.959011 155.884263 803.959011 156.573326 
L 803.959011 156.690513 
Q 803.959011 157.310826 803.719949 157.749888 
Q 803.480886 158.188951 803.023074 158.418638 
Q 802.566824 158.648326 801.923074 158.648326 
z
M 807.21116 158.648326 
Q 806.615847 158.648326 806.16116 158.431138 
Q 805.706472 158.213951 805.42991 157.801451 
Q 805.15491 157.388951 805.081472 156.807701 
L 805.081472 156.807701 
L 806.097097 156.807701 
L 806.097097 156.807701 
Q 806.140847 157.109263 806.287722 157.304576 
Q 806.434597 157.499888 806.665847 157.595201 
Q 806.89866 157.690513 807.21116 157.690513 
Q 807.703347 157.690513 807.976785 157.428013 
Q 808.250222 157.163951 808.250222 156.685826 
L 808.250222 156.470201 
Q 808.250222 155.937388 807.990847 155.648326 
Q 807.733035 155.357701 807.259597 155.357701 
L 806.756472 155.357701 
L 806.756472 154.409263 
L 807.259597 154.409263 
Q 807.675222 154.409263 807.903347 154.160826 
Q 808.133035 153.912388 808.133035 153.457701 
L 808.133035 153.237388 
Q 808.133035 152.818638 807.890847 152.588951 
Q 807.650222 152.359263 807.206472 152.359263 
Q 806.951785 152.359263 806.751785 152.454576 
Q 806.551785 152.549888 806.412722 152.748326 
Q 806.27366 152.945201 806.209597 153.242076 
L 806.209597 153.242076 
L 805.19866 153.242076 
L 805.19866 153.242076 
Q 805.297097 152.662388 805.56741 152.246763 
Q 805.839285 151.831138 806.253347 151.617076 
Q 806.668972 151.401451 807.206472 151.401451 
Q 808.12366 151.401451 808.626785 151.885826 
Q 809.12991 152.368638 809.12991 153.248326 
L 809.12991 153.365513 
Q 809.12991 153.896763 808.840847 154.292076 
Q 808.553347 154.687388 808.026785 154.868638 
Q 808.608035 154.995201 808.926785 155.440513 
Q 809.247097 155.884263 809.247097 156.573326 
L 809.247097 156.690513 
Q 809.247097 157.310826 809.008035 157.749888 
Q 808.768972 158.188951 808.31116 158.418638 
Q 807.85491 158.648326 807.21116 158.648326 
z
M 810.028933 159.487388 
Q 810.764871 158.662388 811.130496 157.646763 
Q 811.497683 156.631138 811.497683 155.410826 
Q 811.497683 154.190513 811.130496 153.174888 
Q 810.764871 152.159263 810.028933 151.338951 
L 810.711746 150.718638 
Q 811.580496 151.660826 812.011746 152.831138 
Q 812.444558 153.999888 812.444558 155.410826 
Q 812.444558 156.821763 812.011746 157.992076 
Q 811.580496 159.160826 810.711746 160.103013 
L 810.028933 159.487388 
z
" style="fill: #ffffff; stroke: #000000"/>
    <path d="M 756.317605 157.628013 
L 757.923855 157.628013 
Q 758.709793 157.628013 759.141043 157.220201 
Q 759.573855 156.812388 759.573855 156.070201 
L 759.573855 153.979576 
Q 759.573855 153.237388 759.141043 152.829576 
Q 758.709793 152.421763 757.923855 152.421763 
L 756.317605 152.421763 
L 756.317605 151.474888 
L 757.894168 151.474888 
Q 758.748855 151.474888 759.353543 151.773326 
Q 759.959793 152.070201 760.27698 152.642076 
Q 760.594168 153.213951 760.594168 154.018638 
L 760.594168 156.031138 
Q 760.594168 156.835826 760.27698 157.407701 
Q 759.959793 157.979576 759.35198 158.278013 
Q 758.744168 158.574888 757.88948 158.574888 
L 756.317605 158.574888 
L 756.317605 157.628013 
z
M 755.644168 151.474888 
L 756.63948 151.474888 
L 756.63948 158.574888 
L 755.644168 158.574888 
L 755.644168 151.474888 
z
M 764.573855 155.049888 
L 764.569168 155.224888 
Q 764.447293 155.449888 764.200418 155.554576 
Q 763.953543 155.659263 763.617605 155.659263 
Q 763.109793 155.659263 762.723855 155.401451 
Q 762.337918 155.142076 762.125418 154.671763 
Q 761.912918 154.199888 761.912918 153.579576 
L 761.912918 153.574888 
Q 761.912918 152.885826 762.144168 152.398326 
Q 762.37698 151.909263 762.823855 151.656138 
Q 763.27073 151.401451 763.89573 151.401451 
Q 764.52073 151.401451 764.96448 151.660826 
Q 765.409793 151.920201 765.641043 152.413951 
Q 765.872293 152.906138 765.872293 153.599888 
L 765.872293 153.604576 
Q 765.872293 153.984263 765.773855 154.417076 
Q 765.67698 154.849888 765.497293 155.273326 
Q 765.467605 155.337388 765.437918 155.403013 
Q 765.409793 155.468638 765.375418 155.532701 
L 763.861355 158.574888 
L 762.786355 158.574888 
L 764.573855 155.049888 
z
M 763.89573 154.751451 
Q 764.36448 154.751451 764.62073 154.434263 
Q 764.87698 154.117076 764.87698 153.540513 
L 764.87698 153.535826 
Q 764.87698 152.974888 764.62073 152.667076 
Q 764.36448 152.359263 763.89573 152.359263 
Q 763.422293 152.359263 763.166043 152.667076 
Q 762.909793 152.974888 762.909793 153.540513 
L 762.909793 153.545201 
Q 762.909793 154.121763 763.166043 154.437388 
Q 763.422293 154.751451 763.89573 154.751451 
z
M 767.093191 156.621763 
L 769.476003 151.479576 
L 770.502566 151.479576 
L 768.177566 156.562388 
L 771.658816 156.562388 
L 771.658816 157.485826 
L 767.093191 157.485826 
L 767.093191 156.621763 
z
M 770.155691 154.399888 
L 771.127566 154.399888 
L 771.127566 158.579576 
L 770.155691 158.579576 
L 770.155691 154.399888 
z
M 774.906668 158.648326 
Q 773.909793 158.648326 773.394168 158.117076 
Q 772.880105 157.584263 772.880105 156.631138 
L 772.880105 153.404576 
Q 772.880105 152.446763 773.397293 151.917076 
Q 773.91448 151.387388 774.906668 151.387388 
Q 775.90198 151.387388 776.417605 151.915513 
Q 776.93323 152.442076 776.93323 153.404576 
L 776.93323 156.631138 
Q 776.93323 157.588951 776.41448 158.118638 
Q 775.897293 158.648326 774.906668 158.648326 
z
M 774.906668 157.701451 
Q 775.43323 157.701451 775.684793 157.424888 
Q 775.936355 157.148326 775.936355 156.631138 
L 775.936355 153.404576 
Q 775.936355 152.885826 775.686355 152.610826 
Q 775.437918 152.334263 774.906668 152.334263 
Q 774.373855 152.334263 774.123855 152.610826 
Q 773.875418 152.885826 773.875418 153.404576 
L 773.875418 156.631138 
Q 773.875418 157.148326 774.12698 157.424888 
Q 774.378543 157.701451 774.906668 157.701451 
z
M 780.424246 158.648326 
Q 779.427371 158.648326 778.911746 158.117076 
Q 778.397683 157.584263 778.397683 156.631138 
L 778.397683 153.404576 
Q 778.397683 152.446763 778.914871 151.917076 
Q 779.432058 151.387388 780.424246 151.387388 
Q 781.419558 151.387388 781.935183 151.915513 
Q 782.450808 152.442076 782.450808 153.404576 
L 782.450808 156.631138 
Q 782.450808 157.588951 781.932058 158.118638 
Q 781.414871 158.648326 780.424246 158.648326 
z
M 780.424246 157.701451 
Q 780.950808 157.701451 781.202371 157.424888 
Q 781.453933 157.148326 781.453933 156.631138 
L 781.453933 153.404576 
Q 781.453933 152.885826 781.203933 152.610826 
Q 780.955496 152.334263 780.424246 152.334263 
Q 779.891433 152.334263 779.641433 152.610826 
Q 779.392996 152.885826 779.392996 153.404576 
L 779.392996 156.631138 
Q 779.392996 157.148326 779.644558 157.424888 
Q 779.896121 157.701451 780.424246 157.701451 
z
M 787.503933 160.103013 
Q 786.635183 159.160826 786.202371 157.992076 
Q 785.771121 156.821763 785.771121 155.410826 
Q 785.771121 153.999888 786.202371 152.831138 
Q 786.635183 151.660826 787.503933 150.718638 
L 788.186746 151.338951 
Q 787.450808 152.159263 787.083621 153.174888 
Q 786.717996 154.190513 786.717996 155.410826 
Q 786.717996 156.631138 787.083621 157.646763 
Q 787.450808 158.662388 788.186746 159.487388 
L 787.503933 160.103013 
z
M 791.097488 158.648326 
Q 790.453738 158.648326 789.964675 158.404576 
Q 789.477175 158.159263 789.209988 157.712388 
Q 788.944363 157.265513 788.944363 156.674888 
L 788.944363 156.557701 
Q 788.944363 156.026451 789.209988 155.557701 
Q 789.477175 155.088951 789.920925 154.849888 
Q 789.544363 154.643638 789.3178 154.256138 
Q 789.091238 153.867076 789.091238 153.437388 
L 789.091238 153.267076 
Q 789.091238 152.710826 789.339675 152.288951 
Q 789.588113 151.865513 790.0428 151.634263 
Q 790.497488 151.401451 791.097488 151.401451 
Q 791.697488 151.401451 792.152175 151.634263 
Q 792.606863 151.865513 792.8553 152.288951 
Q 793.103738 152.710826 793.103738 153.267076 
L 793.103738 153.437388 
Q 793.103738 153.878013 792.872488 154.263951 
Q 792.641238 154.648326 792.259988 154.849888 
Q 792.708425 155.093638 792.978738 155.560826 
Q 793.250613 156.026451 793.250613 156.557701 
L 793.250613 156.674888 
Q 793.250613 157.265513 792.984988 157.712388 
Q 792.719363 158.159263 792.2303 158.404576 
Q 791.7428 158.648326 791.097488 158.648326 
z
M 791.097488 157.690513 
Q 791.444363 157.690513 791.706863 157.554576 
Q 791.970925 157.417076 792.114675 157.171763 
Q 792.259988 156.924888 792.259988 156.601451 
L 792.259988 156.534263 
Q 792.259988 156.206138 792.114675 155.960826 
Q 791.970925 155.713951 791.706863 155.578013 
Q 791.444363 155.440513 791.097488 155.440513 
Q 790.750613 155.440513 790.48655 155.578013 
Q 790.22405 155.713951 790.078738 155.962388 
Q 789.934988 156.210826 789.934988 156.538951 
L 789.934988 156.612388 
Q 789.934988 156.934263 790.078738 157.178013 
Q 790.22405 157.421763 790.48655 157.556138 
Q 790.750613 157.690513 791.097488 157.690513 
z
M 791.097488 154.482701 
Q 791.395925 154.482701 791.62405 154.354576 
Q 791.853738 154.224888 791.9803 153.985826 
Q 792.108425 153.745201 792.108425 153.432701 
L 792.108425 153.365513 
Q 792.108425 153.067076 791.9803 152.837388 
Q 791.853738 152.607701 791.62405 152.484263 
Q 791.395925 152.359263 791.097488 152.359263 
Q 790.79905 152.359263 790.569363 152.484263 
Q 790.341238 152.607701 790.213113 152.837388 
Q 790.08655 153.067076 790.08655 153.370201 
L 790.08655 153.443638 
Q 790.08655 153.749888 790.213113 153.987388 
Q 790.341238 154.224888 790.569363 154.354576 
Q 790.79905 154.482701 791.097488 154.482701 
z
M 796.625613 158.648326 
Q 796.088113 158.648326 795.669363 158.438951 
Q 795.252175 158.228013 794.991238 157.828013 
Q 794.7303 157.428013 794.6428 156.865513 
L 794.6428 156.860826 
L 795.638113 156.860826 
L 795.638113 156.865513 
Q 795.6928 157.256138 795.950613 157.473326 
Q 796.209988 157.690513 796.625613 157.690513 
Q 797.103738 157.690513 797.364675 157.371763 
Q 797.625613 157.051451 797.625613 156.470201 
L 797.625613 155.874888 
Q 797.625613 155.298326 797.364675 154.979576 
Q 797.103738 154.659263 796.625613 154.659263 
Q 796.366238 154.659263 796.127175 154.806138 
Q 795.888113 154.951451 795.706863 155.215513 
L 794.79905 155.215513 
L 794.79905 151.474888 
L 798.416238 151.474888 
L 798.416238 152.421763 
L 795.794363 152.421763 
L 795.794363 154.018638 
Q 795.9803 153.867076 796.209988 153.784263 
Q 796.439675 153.701451 796.678738 153.701451 
Q 797.294363 153.701451 797.7303 153.956138 
Q 798.1678 154.209263 798.394363 154.698326 
Q 798.622488 155.185826 798.622488 155.874888 
L 798.622488 156.470201 
Q 798.622488 157.159263 798.388113 157.648326 
Q 798.153738 158.135826 797.703738 158.392076 
Q 797.2553 158.648326 796.625613 158.648326 
z
M 801.923074 158.648326 
Q 801.327761 158.648326 800.873074 158.431138 
Q 800.418386 158.213951 800.141824 157.801451 
Q 799.866824 157.388951 799.793386 156.807701 
L 799.793386 156.807701 
L 800.809011 156.807701 
L 800.809011 156.807701 
Q 800.852761 157.109263 800.999636 157.304576 
Q 801.146511 157.499888 801.377761 157.595201 
Q 801.610574 157.690513 801.923074 157.690513 
Q 802.415261 157.690513 802.688699 157.428013 
Q 802.962136 157.163951 802.962136 156.685826 
L 802.962136 156.470201 
Q 802.962136 155.937388 802.702761 155.648326 
Q 802.444949 155.357701 801.971511 155.357701 
L 801.468386 155.357701 
L 801.468386 154.409263 
L 801.971511 154.409263 
Q 802.387136 154.409263 802.615261 154.160826 
Q 802.844949 153.912388 802.844949 153.457701 
L 802.844949 153.237388 
Q 802.844949 152.818638 802.602761 152.588951 
Q 802.362136 152.359263 801.918386 152.359263 
Q 801.663699 152.359263 801.463699 152.454576 
Q 801.263699 152.549888 801.124636 152.748326 
Q 800.985574 152.945201 800.921511 153.242076 
L 800.921511 153.242076 
L 799.910574 153.242076 
L 799.910574 153.242076 
Q 800.009011 152.662388 800.279324 152.246763 
Q 800.551199 151.831138 800.965261 151.617076 
Q 801.380886 151.401451 801.918386 151.401451 
Q 802.835574 151.401451 803.338699 151.885826 
Q 803.841824 152.368638 803.841824 153.248326 
L 803.841824 153.365513 
Q 803.841824 153.896763 803.552761 154.292076 
Q 803.265261 154.687388 802.738699 154.868638 
Q 803.319949 154.995201 803.638699 155.440513 
Q 803.959011 155.884263 803.959011 156.573326 
L 803.959011 156.690513 
Q 803.959011 157.310826 803.719949 157.749888 
Q 803.480886 158.188951 803.023074 158.418638 
Q 802.566824 158.648326 801.923074 158.648326 
z
M 807.21116 158.648326 
Q 806.615847 158.648326 806.16116 158.431138 
Q 805.706472 158.213951 805.42991 157.801451 
Q 805.15491 157.388951 805.081472 156.807701 
L 805.081472 156.807701 
L 806.097097 156.807701 
L 806.097097 156.807701 
Q 806.140847 157.109263 806.287722 157.304576 
Q 806.434597 157.499888 806.665847 157.595201 
Q 806.89866 157.690513 807.21116 157.690513 
Q 807.703347 157.690513 807.976785 157.428013 
Q 808.250222 157.163951 808.250222 156.685826 
L 808.250222 156.470201 
Q 808.250222 155.937388 807.990847 155.648326 
Q 807.733035 155.357701 807.259597 155.357701 
L 806.756472 155.357701 
L 806.756472 154.409263 
L 807.259597 154.409263 
Q 807.675222 154.409263 807.903347 154.160826 
Q 808.133035 153.912388 808.133035 153.457701 
L 808.133035 153.237388 
Q 808.133035 152.818638 807.890847 152.588951 
Q 807.650222 152.359263 807.206472 152.359263 
Q 806.951785 152.359263 806.751785 152.454576 
Q 806.551785 152.549888 806.412722 152.748326 
Q 806.27366 152.945201 806.209597 153.242076 
L 806.209597 153.242076 
L 805.19866 153.242076 
L 805.19866 153.242076 
Q 805.297097 152.662388 805.56741 152.246763 
Q 805.839285 151.831138 806.253347 151.617076 
Q 806.668972 151.401451 807.206472 151.401451 
Q 808.12366 151.401451 808.626785 151.885826 
Q 809.12991 152.368638 809.12991 153.248326 
L 809.12991 153.365513 
Q 809.12991 153.896763 808.840847 154.292076 
Q 808.553347 154.687388 808.026785 154.868638 
Q 808.608035 154.995201 808.926785 155.440513 
Q 809.247097 155.884263 809.247097 156.573326 
L 809.247097 156.690513 
Q 809.247097 157.310826 809.008035 157.749888 
Q 808.768972 158.188951 808.31116 158.418638 
Q 807.85491 158.648326 807.21116 158.648326 
z
M 810.028933 159.487388 
Q 810.764871 158.662388 811.130496 157.646763 
Q 811.497683 156.631138 811.497683 155.410826 
Q 811.497683 154.190513 811.130496 153.174888 
Q 810.764871 152.159263 810.028933 151.338951 
L 810.711746 150.718638 
Q 811.580496 151.660826 812.011746 152.831138 
Q 812.444558 153.999888 812.444558 155.410826 
Q 812.444558 156.821763 812.011746 157.992076 
Q 811.580496 159.160826 810.711746 160.103013 
L 810.028933 159.487388 
z
" style="fill: #ffffff"/>
   </g>
  </g>
 </g>
 <defs>
  <clipPath id="pdafe8cdfc5">
   <rect x="144" y="77.76" width="892.8" height="498.96"/>
  </clipPath>
 </defs>
</svg>
