<?xml version="1.0" encoding="utf-8" standalone="no"?>
<!DOCTYPE svg PUBLIC "-//W3C//DTD SVG 1.1//EN"
  "http://www.w3.org/Graphics/SVG/1.1/DTD/svg11.dtd">
<svg xmlns:xlink="http://www.w3.org/1999/xlink" width="1152pt" height="648pt" viewBox="0 0 1152 648" xmlns="http://www.w3.org/2000/svg" version="1.1">
 <metadata>
  <rdf:RDF xmlns:dc="http://purl.org/dc/elements/1.1/" xmlns:cc="http://creativecommons.org/ns#" xmlns:rdf="http://www.w3.org/1999/02/22-rdf-syntax-ns#">
   <cc:Work>
    <dc:type rdf:resource="http://purl.org/dc/dcmitype/StillImage"/>
    <dc:date>2024-11-15T17:08:11.594342</dc:date>
    <dc:format>image/svg+xml</dc:format>
    <dc:creator>
     <cc:Agent>
      <dc:title>Matplotlib v3.8.1, https://matplotlib.org/</dc:title>
     </cc:Agent>
    </dc:creator>
   </cc:Work>
  </rdf:RDF>
 </metadata>
 <defs>
  <style type="text/css">*{stroke-linejoin: round; stroke-linecap: butt}</style>
 </defs>
 <g id="figure_1">
  <g id="patch_1">
   <path d="M 0 648 
L 1152 648 
L 1152 0 
L 0 0 
L 0 648 
z
" style="fill: none"/>
  </g>
  <g id="axes_1">
   <g id="line2d_1">
    <path d="M 239.418 435.883478 
L 244.688 429.60605 
L 249.958 423.435336 
L 255.228 417.369523 
L 260.498 411.40683 
L 265.768 405.545507 
L 271.038 399.783833 
L 276.308 394.120114 
L 281.578 388.552689 
L 286.848 383.079921 
L 292.118 377.700203 
L 297.388 372.411955 
L 302.658 367.213623 
L 307.928 362.103681 
L 313.198 357.080626 
L 318.468 352.142982 
L 323.738 347.2893 
L 329.008 342.518153 
L 334.278 337.828139 
L 339.548 333.217878 
L 344.818 328.686018 
L 350.088 324.231225 
L 355.358 319.85219 
L 360.628 315.547626 
L 365.898 311.316267 
L 371.168 307.156871 
L 376.438 303.068213 
L 381.708 299.049093 
L 386.978 295.098327 
L 392.248 291.214756 
L 397.518 287.397236 
L 402.788 283.644646 
L 408.058 279.955881 
L 413.328 276.329858 
L 418.598 272.765509 
L 423.868 269.261787 
L 429.138 265.817661 
L 434.408 262.432119 
L 439.678 259.104163 
L 444.948 255.832816 
L 450.218 252.617115 
L 455.488 249.456115 
L 460.758 246.348884 
L 466.028 243.294511 
L 471.298 240.292095 
L 476.568 237.340753 
L 481.838 234.439618 
L 487.108 231.587836 
L 492.378 228.784567 
L 497.648 226.028987 
L 502.918 223.320285 
L 508.188 220.657663 
L 513.458 218.04034 
L 518.728 215.467543 
L 523.998 212.938517 
L 529.268 210.452516 
L 534.538 208.00881 
L 539.808 205.606679 
L 545.078 203.245415 
L 550.348 200.924325 
L 555.618 198.642725 
L 560.888 196.399944 
L 566.158 194.195321 
L 571.428 192.028207 
L 576.698 189.897965 
L 581.968 187.803967 
L 587.238 185.745597 
L 592.508 183.722249 
L 597.778 181.733328 
L 603.048 179.778248 
L 608.318 177.856433 
L 613.588 175.967317 
L 618.858 174.110346 
L 624.128 172.284971 
L 629.398 170.490655 
L 634.668 168.72687 
L 639.938 166.993097 
L 645.208 165.288826 
L 650.478 163.613553 
L 655.748 161.966787 
L 661.018 160.348043 
L 666.288 158.756842 
L 671.558 157.192718 
L 676.828 155.65521 
L 682.098 154.143864 
L 687.368 152.658236 
L 692.638 151.197888 
L 697.908 149.762391 
L 703.178 148.35132 
L 708.448 146.964262 
L 713.718 145.600807 
L 718.988 144.260554 
L 724.258 142.943108 
L 729.528 141.648081 
L 734.798 140.375092 
L 740.068 139.123765 
L 745.338 137.893733 
L 750.608 136.684633 
L 755.878 135.496109 
L 761.148 134.327811 
" clip-path="url(#peefedbc961)" style="fill: none; stroke: #f25130; stroke-width: 3; stroke-linecap: round"/>
   </g>
   <g id="text_1">
    <path d="M 768.593605 135.027504 
L 770.199855 135.027504 
Q 770.985793 135.027504 771.417042 134.619691 
Q 771.849855 134.211879 771.849855 133.469691 
L 771.849855 131.379066 
Q 771.849855 130.636879 771.417042 130.229066 
Q 770.985793 129.821254 770.199855 129.821254 
L 768.593605 129.821254 
L 768.593605 128.874379 
L 770.170168 128.874379 
Q 771.024855 128.874379 771.629542 129.172816 
Q 772.235793 129.469691 772.55298 130.041566 
Q 772.870167 130.613441 772.870167 131.418129 
L 772.870167 133.430629 
Q 772.870167 134.235316 772.55298 134.807191 
Q 772.235793 135.379066 771.62798 135.677504 
Q 771.020167 135.974379 770.16548 135.974379 
L 768.593605 135.974379 
L 768.593605 135.027504 
z
M 767.920168 128.874379 
L 768.91548 128.874379 
L 768.91548 135.974379 
L 767.920168 135.974379 
L 767.920168 128.874379 
z
M 776.849855 132.449379 
L 776.845168 132.624379 
Q 776.723292 132.849379 776.476418 132.954066 
Q 776.229542 133.058754 775.893605 133.058754 
Q 775.385792 133.058754 774.999855 132.800941 
Q 774.613917 132.541566 774.401417 132.071254 
Q 774.188918 131.599379 774.188918 130.979066 
L 774.188918 130.974379 
Q 774.188918 130.285316 774.420168 129.797816 
Q 774.65298 129.308754 775.099855 129.055629 
Q 775.54673 128.800941 776.17173 128.800941 
Q 776.79673 128.800941 777.24048 129.060316 
Q 777.685793 129.319691 777.917042 129.813441 
Q 778.148293 130.305629 778.148293 130.999379 
L 778.148293 131.004066 
Q 778.148293 131.383754 778.049855 131.816566 
Q 777.95298 132.249379 777.773293 132.672816 
Q 777.743605 132.736879 777.713917 132.802504 
Q 777.685793 132.868129 777.651417 132.932191 
L 776.137355 135.974379 
L 775.062355 135.974379 
L 776.849855 132.449379 
z
M 776.17173 132.150941 
Q 776.64048 132.150941 776.89673 131.833754 
Q 777.15298 131.516566 777.15298 130.940004 
L 777.15298 130.935316 
Q 777.15298 130.374379 776.89673 130.066566 
Q 776.64048 129.758754 776.17173 129.758754 
Q 775.698292 129.758754 775.442042 130.066566 
Q 775.185793 130.374379 775.185793 130.940004 
L 775.185793 130.944691 
Q 775.185793 131.521254 775.442042 131.836879 
Q 775.698292 132.150941 776.17173 132.150941 
z
M 779.369191 134.021254 
L 781.752003 128.879066 
L 782.778566 128.879066 
L 780.453566 133.961879 
L 783.934816 133.961879 
L 783.934816 134.885316 
L 779.369191 134.885316 
L 779.369191 134.021254 
z
M 782.431691 131.799379 
L 783.403566 131.799379 
L 783.403566 135.979066 
L 782.431691 135.979066 
L 782.431691 131.799379 
z
M 787.182667 136.047816 
Q 786.185793 136.047816 785.670168 135.516566 
Q 785.156105 134.983754 785.156105 134.030629 
L 785.156105 130.804066 
Q 785.156105 129.846254 785.673293 129.316566 
Q 786.19048 128.786879 787.182667 128.786879 
Q 788.17798 128.786879 788.693605 129.315004 
Q 789.20923 129.841566 789.20923 130.804066 
L 789.20923 134.030629 
Q 789.20923 134.988441 788.69048 135.518129 
Q 788.173293 136.047816 787.182667 136.047816 
z
M 787.182667 135.100941 
Q 787.70923 135.100941 787.960793 134.824379 
Q 788.212355 134.547816 788.212355 134.030629 
L 788.212355 130.804066 
Q 788.212355 130.285316 787.962355 130.010316 
Q 787.713917 129.733754 787.182667 129.733754 
Q 786.649855 129.733754 786.399855 130.010316 
Q 786.151417 130.285316 786.151417 130.804066 
L 786.151417 134.030629 
Q 786.151417 134.547816 786.40298 134.824379 
Q 786.654543 135.100941 787.182667 135.100941 
z
M 792.700246 136.047816 
Q 791.703371 136.047816 791.187746 135.516566 
Q 790.673683 134.983754 790.673683 134.030629 
L 790.673683 130.804066 
Q 790.673683 129.846254 791.190871 129.316566 
Q 791.708058 128.786879 792.700246 128.786879 
Q 793.695558 128.786879 794.211183 129.315004 
Q 794.726808 129.841566 794.726808 130.804066 
L 794.726808 134.030629 
Q 794.726808 134.988441 794.208058 135.518129 
Q 793.690871 136.047816 792.700246 136.047816 
z
M 792.700246 135.100941 
Q 793.226808 135.100941 793.478371 134.824379 
Q 793.729933 134.547816 793.729933 134.030629 
L 793.729933 130.804066 
Q 793.729933 130.285316 793.479933 130.010316 
Q 793.231496 129.733754 792.700246 129.733754 
Q 792.167433 129.733754 791.917433 130.010316 
Q 791.668996 130.285316 791.668996 130.804066 
L 791.668996 134.030629 
Q 791.668996 134.547816 791.920558 134.824379 
Q 792.172121 135.100941 792.700246 135.100941 
z
M 799.779933 137.502504 
Q 798.911183 136.560316 798.478371 135.391566 
Q 798.047121 134.221254 798.047121 132.810316 
Q 798.047121 131.399379 798.478371 130.230629 
Q 798.911183 129.060316 799.779933 128.118129 
L 800.462746 128.738441 
Q 799.726808 129.558754 799.359621 130.574379 
Q 798.993996 131.590004 798.993996 132.810316 
Q 798.993996 134.030629 799.359621 135.046254 
Q 799.726808 136.061879 800.462746 136.886879 
L 799.779933 137.502504 
z
M 803.007863 135.974379 
L 802.010988 135.974379 
L 802.010988 129.958754 
L 801.00005 130.579066 
L 801.00005 129.547816 
L 802.010988 128.874379 
L 803.007863 128.874379 
L 803.007863 135.974379 
z
M 806.645558 136.047816 
Q 805.648683 136.047816 805.133058 135.516566 
Q 804.618996 134.983754 804.618996 134.030629 
L 804.618996 130.804066 
Q 804.618996 129.846254 805.136183 129.316566 
Q 805.653371 128.786879 806.645558 128.786879 
Q 807.640871 128.786879 808.156496 129.315004 
Q 808.672121 129.841566 808.672121 130.804066 
L 808.672121 134.030629 
Q 808.672121 134.988441 808.153371 135.518129 
Q 807.636183 136.047816 806.645558 136.047816 
z
M 806.645558 135.100941 
Q 807.172121 135.100941 807.423683 134.824379 
Q 807.675246 134.547816 807.675246 134.030629 
L 807.675246 130.804066 
Q 807.675246 130.285316 807.425246 130.010316 
Q 807.176808 129.733754 806.645558 129.733754 
Q 806.112746 129.733754 805.862746 130.010316 
Q 805.614308 130.285316 805.614308 130.804066 
L 805.614308 134.030629 
Q 805.614308 134.547816 805.865871 134.824379 
Q 806.117433 135.100941 806.645558 135.100941 
z
M 811.967824 136.047816 
Q 811.342824 136.047816 810.897511 135.796254 
Q 810.453761 135.544691 810.220949 135.063441 
Q 809.989699 134.582191 809.989699 133.904066 
L 809.989699 133.899379 
Q 809.989699 133.504066 810.081886 133.069691 
Q 810.175636 132.633754 810.350636 132.215004 
Q 810.380324 132.141566 810.414699 132.071254 
Q 810.449074 131.999379 810.483449 131.930629 
L 812.025636 128.874379 
L 813.100636 128.874379 
L 811.288136 132.415004 
L 811.292824 132.238441 
Q 811.416261 132.008754 811.650636 131.882191 
Q 811.885011 131.755629 812.197511 131.755629 
Q 812.749074 131.755629 813.144386 132.005629 
Q 813.539699 132.254066 813.744386 132.730629 
Q 813.949074 133.205629 813.949074 133.874379 
L 813.949074 133.879066 
Q 813.949074 134.563441 813.717824 135.052504 
Q 813.486574 135.540004 813.039699 135.794691 
Q 812.592824 136.047816 811.967824 136.047816 
z
M 811.967824 135.090004 
Q 812.441261 135.090004 812.697511 134.797816 
Q 812.953761 134.504066 812.953761 133.961879 
L 812.953761 133.957191 
Q 812.953761 133.361879 812.685011 133.036879 
Q 812.416261 132.711879 811.917824 132.711879 
Q 811.474074 132.711879 811.230324 133.040004 
Q 810.986574 133.366566 810.986574 133.961879 
L 810.986574 133.968129 
Q 810.986574 134.508754 811.242824 134.799379 
Q 811.499074 135.090004 811.967824 135.090004 
z
M 817.09966 136.047816 
Q 816.47466 136.047816 816.029347 135.796254 
Q 815.585597 135.544691 815.352785 135.063441 
Q 815.121535 134.582191 815.121535 133.904066 
L 815.121535 133.899379 
Q 815.121535 133.504066 815.213722 133.069691 
Q 815.307472 132.633754 815.482472 132.215004 
Q 815.51216 132.141566 815.546535 132.071254 
Q 815.58091 131.999379 815.615285 131.930629 
L 817.157472 128.874379 
L 818.232472 128.874379 
L 816.419972 132.415004 
L 816.42466 132.238441 
Q 816.548097 132.008754 816.782472 131.882191 
Q 817.016847 131.755629 817.329347 131.755629 
Q 817.88091 131.755629 818.276222 132.005629 
Q 818.671535 132.254066 818.876222 132.730629 
Q 819.08091 133.205629 819.08091 133.874379 
L 819.08091 133.879066 
Q 819.08091 134.563441 818.84966 135.052504 
Q 818.61841 135.540004 818.171535 135.794691 
Q 817.72466 136.047816 817.09966 136.047816 
z
M 817.09966 135.090004 
Q 817.573097 135.090004 817.829347 134.797816 
Q 818.085597 134.504066 818.085597 133.961879 
L 818.085597 133.957191 
Q 818.085597 133.361879 817.816847 133.036879 
Q 817.548097 132.711879 817.04966 132.711879 
Q 816.60591 132.711879 816.36216 133.040004 
Q 816.11841 133.366566 816.11841 133.961879 
L 816.11841 133.968129 
Q 816.11841 134.508754 816.37466 134.799379 
Q 816.63091 135.090004 817.09966 135.090004 
z
M 824.067433 129.763441 
L 822.231496 135.974379 
L 821.172121 135.974379 
L 823.008058 129.821254 
L 821.200246 129.821254 
L 821.200246 130.843129 
L 820.204933 130.843129 
L 820.204933 128.874379 
L 824.067433 128.874379 
L 824.067433 129.763441 
z
M 824.80005 136.886879 
Q 825.535988 136.061879 825.901613 135.046254 
Q 826.2688 134.030629 826.2688 132.810316 
Q 826.2688 131.590004 825.901613 130.574379 
Q 825.535988 129.558754 824.80005 128.738441 
L 825.482863 128.118129 
Q 826.351613 129.060316 826.782863 130.230629 
Q 827.215675 131.399379 827.215675 132.810316 
Q 827.215675 134.221254 826.782863 135.391566 
Q 826.351613 136.560316 825.482863 137.502504 
L 824.80005 136.886879 
z
" style="fill: #ffffff; stroke: #000000"/>
    <path d="M 768.593605 135.027504 
L 770.199855 135.027504 
Q 770.985793 135.027504 771.417042 134.619691 
Q 771.849855 134.211879 771.849855 133.469691 
L 771.849855 131.379066 
Q 771.849855 130.636879 771.417042 130.229066 
Q 770.985793 129.821254 770.199855 129.821254 
L 768.593605 129.821254 
L 768.593605 128.874379 
L 770.170168 128.874379 
Q 771.024855 128.874379 771.629542 129.172816 
Q 772.235793 129.469691 772.55298 130.041566 
Q 772.870167 130.613441 772.870167 131.418129 
L 772.870167 133.430629 
Q 772.870167 134.235316 772.55298 134.807191 
Q 772.235793 135.379066 771.62798 135.677504 
Q 771.020167 135.974379 770.16548 135.974379 
L 768.593605 135.974379 
L 768.593605 135.027504 
z
M 767.920168 128.874379 
L 768.91548 128.874379 
L 768.91548 135.974379 
L 767.920168 135.974379 
L 767.920168 128.874379 
z
M 776.849855 132.449379 
L 776.845168 132.624379 
Q 776.723292 132.849379 776.476418 132.954066 
Q 776.229542 133.058754 775.893605 133.058754 
Q 775.385792 133.058754 774.999855 132.800941 
Q 774.613917 132.541566 774.401417 132.071254 
Q 774.188918 131.599379 774.188918 130.979066 
L 774.188918 130.974379 
Q 774.188918 130.285316 774.420168 129.797816 
Q 774.65298 129.308754 775.099855 129.055629 
Q 775.54673 128.800941 776.17173 128.800941 
Q 776.79673 128.800941 777.24048 129.060316 
Q 777.685793 129.319691 777.917042 129.813441 
Q 778.148293 130.305629 778.148293 130.999379 
L 778.148293 131.004066 
Q 778.148293 131.383754 778.049855 131.816566 
Q 777.95298 132.249379 777.773293 132.672816 
Q 777.743605 132.736879 777.713917 132.802504 
Q 777.685793 132.868129 777.651417 132.932191 
L 776.137355 135.974379 
L 775.062355 135.974379 
L 776.849855 132.449379 
z
M 776.17173 132.150941 
Q 776.64048 132.150941 776.89673 131.833754 
Q 777.15298 131.516566 777.15298 130.940004 
L 777.15298 130.935316 
Q 777.15298 130.374379 776.89673 130.066566 
Q 776.64048 129.758754 776.17173 129.758754 
Q 775.698292 129.758754 775.442042 130.066566 
Q 775.185793 130.374379 775.185793 130.940004 
L 775.185793 130.944691 
Q 775.185793 131.521254 775.442042 131.836879 
Q 775.698292 132.150941 776.17173 132.150941 
z
M 779.369191 134.021254 
L 781.752003 128.879066 
L 782.778566 128.879066 
L 780.453566 133.961879 
L 783.934816 133.961879 
L 783.934816 134.885316 
L 779.369191 134.885316 
L 779.369191 134.021254 
z
M 782.431691 131.799379 
L 783.403566 131.799379 
L 783.403566 135.979066 
L 782.431691 135.979066 
L 782.431691 131.799379 
z
M 787.182667 136.047816 
Q 786.185793 136.047816 785.670168 135.516566 
Q 785.156105 134.983754 785.156105 134.030629 
L 785.156105 130.804066 
Q 785.156105 129.846254 785.673293 129.316566 
Q 786.19048 128.786879 787.182667 128.786879 
Q 788.17798 128.786879 788.693605 129.315004 
Q 789.20923 129.841566 789.20923 130.804066 
L 789.20923 134.030629 
Q 789.20923 134.988441 788.69048 135.518129 
Q 788.173293 136.047816 787.182667 136.047816 
z
M 787.182667 135.100941 
Q 787.70923 135.100941 787.960793 134.824379 
Q 788.212355 134.547816 788.212355 134.030629 
L 788.212355 130.804066 
Q 788.212355 130.285316 787.962355 130.010316 
Q 787.713917 129.733754 787.182667 129.733754 
Q 786.649855 129.733754 786.399855 130.010316 
Q 786.151417 130.285316 786.151417 130.804066 
L 786.151417 134.030629 
Q 786.151417 134.547816 786.40298 134.824379 
Q 786.654543 135.100941 787.182667 135.100941 
z
M 792.700246 136.047816 
Q 791.703371 136.047816 791.187746 135.516566 
Q 790.673683 134.983754 790.673683 134.030629 
L 790.673683 130.804066 
Q 790.673683 129.846254 791.190871 129.316566 
Q 791.708058 128.786879 792.700246 128.786879 
Q 793.695558 128.786879 794.211183 129.315004 
Q 794.726808 129.841566 794.726808 130.804066 
L 794.726808 134.030629 
Q 794.726808 134.988441 794.208058 135.518129 
Q 793.690871 136.047816 792.700246 136.047816 
z
M 792.700246 135.100941 
Q 793.226808 135.100941 793.478371 134.824379 
Q 793.729933 134.547816 793.729933 134.030629 
L 793.729933 130.804066 
Q 793.729933 130.285316 793.479933 130.010316 
Q 793.231496 129.733754 792.700246 129.733754 
Q 792.167433 129.733754 791.917433 130.010316 
Q 791.668996 130.285316 791.668996 130.804066 
L 791.668996 134.030629 
Q 791.668996 134.547816 791.920558 134.824379 
Q 792.172121 135.100941 792.700246 135.100941 
z
M 799.779933 137.502504 
Q 798.911183 136.560316 798.478371 135.391566 
Q 798.047121 134.221254 798.047121 132.810316 
Q 798.047121 131.399379 798.478371 130.230629 
Q 798.911183 129.060316 799.779933 128.118129 
L 800.462746 128.738441 
Q 799.726808 129.558754 799.359621 130.574379 
Q 798.993996 131.590004 798.993996 132.810316 
Q 798.993996 134.030629 799.359621 135.046254 
Q 799.726808 136.061879 800.462746 136.886879 
L 799.779933 137.502504 
z
M 803.007863 135.974379 
L 802.010988 135.974379 
L 802.010988 129.958754 
L 801.00005 130.579066 
L 801.00005 129.547816 
L 802.010988 128.874379 
L 803.007863 128.874379 
L 803.007863 135.974379 
z
M 806.645558 136.047816 
Q 805.648683 136.047816 805.133058 135.516566 
Q 804.618996 134.983754 804.618996 134.030629 
L 804.618996 130.804066 
Q 804.618996 129.846254 805.136183 129.316566 
Q 805.653371 128.786879 806.645558 128.786879 
Q 807.640871 128.786879 808.156496 129.315004 
Q 808.672121 129.841566 808.672121 130.804066 
L 808.672121 134.030629 
Q 808.672121 134.988441 808.153371 135.518129 
Q 807.636183 136.047816 806.645558 136.047816 
z
M 806.645558 135.100941 
Q 807.172121 135.100941 807.423683 134.824379 
Q 807.675246 134.547816 807.675246 134.030629 
L 807.675246 130.804066 
Q 807.675246 130.285316 807.425246 130.010316 
Q 807.176808 129.733754 806.645558 129.733754 
Q 806.112746 129.733754 805.862746 130.010316 
Q 805.614308 130.285316 805.614308 130.804066 
L 805.614308 134.030629 
Q 805.614308 134.547816 805.865871 134.824379 
Q 806.117433 135.100941 806.645558 135.100941 
z
M 811.967824 136.047816 
Q 811.342824 136.047816 810.897511 135.796254 
Q 810.453761 135.544691 810.220949 135.063441 
Q 809.989699 134.582191 809.989699 133.904066 
L 809.989699 133.899379 
Q 809.989699 133.504066 810.081886 133.069691 
Q 810.175636 132.633754 810.350636 132.215004 
Q 810.380324 132.141566 810.414699 132.071254 
Q 810.449074 131.999379 810.483449 131.930629 
L 812.025636 128.874379 
L 813.100636 128.874379 
L 811.288136 132.415004 
L 811.292824 132.238441 
Q 811.416261 132.008754 811.650636 131.882191 
Q 811.885011 131.755629 812.197511 131.755629 
Q 812.749074 131.755629 813.144386 132.005629 
Q 813.539699 132.254066 813.744386 132.730629 
Q 813.949074 133.205629 813.949074 133.874379 
L 813.949074 133.879066 
Q 813.949074 134.563441 813.717824 135.052504 
Q 813.486574 135.540004 813.039699 135.794691 
Q 812.592824 136.047816 811.967824 136.047816 
z
M 811.967824 135.090004 
Q 812.441261 135.090004 812.697511 134.797816 
Q 812.953761 134.504066 812.953761 133.961879 
L 812.953761 133.957191 
Q 812.953761 133.361879 812.685011 133.036879 
Q 812.416261 132.711879 811.917824 132.711879 
Q 811.474074 132.711879 811.230324 133.040004 
Q 810.986574 133.366566 810.986574 133.961879 
L 810.986574 133.968129 
Q 810.986574 134.508754 811.242824 134.799379 
Q 811.499074 135.090004 811.967824 135.090004 
z
M 817.09966 136.047816 
Q 816.47466 136.047816 816.029347 135.796254 
Q 815.585597 135.544691 815.352785 135.063441 
Q 815.121535 134.582191 815.121535 133.904066 
L 815.121535 133.899379 
Q 815.121535 133.504066 815.213722 133.069691 
Q 815.307472 132.633754 815.482472 132.215004 
Q 815.51216 132.141566 815.546535 132.071254 
Q 815.58091 131.999379 815.615285 131.930629 
L 817.157472 128.874379 
L 818.232472 128.874379 
L 816.419972 132.415004 
L 816.42466 132.238441 
Q 816.548097 132.008754 816.782472 131.882191 
Q 817.016847 131.755629 817.329347 131.755629 
Q 817.88091 131.755629 818.276222 132.005629 
Q 818.671535 132.254066 818.876222 132.730629 
Q 819.08091 133.205629 819.08091 133.874379 
L 819.08091 133.879066 
Q 819.08091 134.563441 818.84966 135.052504 
Q 818.61841 135.540004 818.171535 135.794691 
Q 817.72466 136.047816 817.09966 136.047816 
z
M 817.09966 135.090004 
Q 817.573097 135.090004 817.829347 134.797816 
Q 818.085597 134.504066 818.085597 133.961879 
L 818.085597 133.957191 
Q 818.085597 133.361879 817.816847 133.036879 
Q 817.548097 132.711879 817.04966 132.711879 
Q 816.60591 132.711879 816.36216 133.040004 
Q 816.11841 133.366566 816.11841 133.961879 
L 816.11841 133.968129 
Q 816.11841 134.508754 816.37466 134.799379 
Q 816.63091 135.090004 817.09966 135.090004 
z
M 824.067433 129.763441 
L 822.231496 135.974379 
L 821.172121 135.974379 
L 823.008058 129.821254 
L 821.200246 129.821254 
L 821.200246 130.843129 
L 820.204933 130.843129 
L 820.204933 128.874379 
L 824.067433 128.874379 
L 824.067433 129.763441 
z
M 824.80005 136.886879 
Q 825.535988 136.061879 825.901613 135.046254 
Q 826.2688 134.030629 826.2688 132.810316 
Q 826.2688 131.590004 825.901613 130.574379 
Q 825.535988 129.558754 824.80005 128.738441 
L 825.482863 128.118129 
Q 826.351613 129.060316 826.782863 130.230629 
Q 827.215675 131.399379 827.215675 132.810316 
Q 827.215675 134.221254 826.782863 135.391566 
Q 826.351613 136.560316 825.482863 137.502504 
L 824.80005 136.886879 
z
" style="fill: #ffffff"/>
   </g>
  </g>
 </g>
 <defs>
  <clipPath id="peefedbc961">
   <rect x="144" y="77.76" width="892.8" height="498.96"/>
  </clipPath>
 </defs>
</svg>
