<?xml version="1.0" encoding="utf-8" standalone="no"?>
<!DOCTYPE svg PUBLIC "-//W3C//DTD SVG 1.1//EN"
  "http://www.w3.org/Graphics/SVG/1.1/DTD/svg11.dtd">
<svg xmlns:xlink="http://www.w3.org/1999/xlink" width="1152pt" height="648pt" viewBox="0 0 1152 648" xmlns="http://www.w3.org/2000/svg" version="1.1">
 <metadata>
  <rdf:RDF xmlns:dc="http://purl.org/dc/elements/1.1/" xmlns:cc="http://creativecommons.org/ns#" xmlns:rdf="http://www.w3.org/1999/02/22-rdf-syntax-ns#">
   <cc:Work>
    <dc:type rdf:resource="http://purl.org/dc/dcmitype/StillImage"/>
    <dc:date>2024-12-06T13:19:42.726137</dc:date>
    <dc:format>image/svg+xml</dc:format>
    <dc:creator>
     <cc:Agent>
      <dc:title>Matplotlib v3.9.2, https://matplotlib.org/</dc:title>
     </cc:Agent>
    </dc:creator>
   </cc:Work>
  </rdf:RDF>
 </metadata>
 <defs>
  <style type="text/css">*{stroke-linejoin: round; stroke-linecap: butt}</style>
 </defs>
 <g id="figure_1">
  <g id="patch_1">
   <path d="M 0 648 
L 1152 648 
L 1152 0 
L 0 0 
L 0 648 
z
" style="fill: none"/>
  </g>
  <g id="axes_1">
   <g id="PathCollection_1">
    <defs>
     <path id="m60f9ce619b" d="M 0 2.738613 
C 0.726289 2.738613 1.422928 2.450055 1.936492 1.936492 
C 2.450055 1.422928 2.738613 0.726289 2.738613 0 
C 2.738613 -0.726289 2.450055 -1.422928 1.936492 -1.936492 
C 1.422928 -2.450055 0.726289 -2.738613 0 -2.738613 
C -0.726289 -2.738613 -1.422928 -2.450055 -1.936492 -1.936492 
C -2.450055 -1.422928 -2.738613 -0.726289 -2.738613 0 
C -2.738613 0.726289 -2.450055 1.422928 -1.936492 1.936492 
C -1.422928 2.450055 -0.726289 2.738613 0 2.738613 
z
" style="stroke: #ff0000"/>
    </defs>
    <g clip-path="url(#p190eb4bf42)">
     <use xlink:href="#m60f9ce619b" x="445.32" y="485.07768" style="fill: #ff0000; stroke: #ff0000"/>
     <use xlink:href="#m60f9ce619b" x="199.8" y="546.94872" style="fill: #ff0000; stroke: #ff0000"/>
    </g>
   </g>
   <g id="text_1">
    <path d="M 452.873418 483.608623 
L 456.007793 479.624248 
L 457.232793 479.624248 
L 452.726543 485.102373 
L 452.873418 483.608623 
z
M 452.092168 479.624248 
L 453.08748 479.624248 
L 453.08748 486.724248 
L 452.092168 486.724248 
L 452.092168 479.624248 
z
M 454.054668 482.935185 
L 454.840605 482.207061 
L 457.53123 486.724248 
L 456.310918 486.724248 
L 454.054668 482.935185 
z
M 460.875371 483.199248 
L 460.870683 483.374248 
Q 460.748808 483.599248 460.501933 483.703936 
Q 460.255058 483.808623 459.919121 483.808623 
Q 459.411308 483.808623 459.025371 483.550811 
Q 458.639433 483.291435 458.426933 482.821123 
Q 458.214433 482.349248 458.214433 481.728935 
L 458.214433 481.724248 
Q 458.214433 481.035186 458.445683 480.547686 
Q 458.678496 480.058623 459.125371 479.805498 
Q 459.572246 479.550811 460.197246 479.550811 
Q 460.822246 479.550811 461.265996 479.810185 
Q 461.711308 480.06956 461.942558 480.563311 
Q 462.173808 481.055498 462.173808 481.749248 
L 462.173808 481.753936 
Q 462.173808 482.133623 462.075371 482.566436 
Q 461.978496 482.999248 461.798808 483.422686 
Q 461.769121 483.486748 461.739433 483.552373 
Q 461.711308 483.617998 461.676933 483.68206 
L 460.162871 486.724248 
L 459.087871 486.724248 
L 460.875371 483.199248 
z
M 460.197246 482.90081 
Q 460.665996 482.90081 460.922246 482.583623 
Q 461.178496 482.266436 461.178496 481.689873 
L 461.178496 481.685185 
Q 461.178496 481.124248 460.922246 480.816436 
Q 460.665996 480.508623 460.197246 480.508623 
Q 459.723808 480.508623 459.467558 480.816436 
Q 459.211308 481.124248 459.211308 481.689873 
L 459.211308 481.69456 
Q 459.211308 482.271123 459.467558 482.586748 
Q 459.723808 482.90081 460.197246 482.90081 
z
M 465.519707 486.797686 
Q 464.522832 486.797686 464.007207 486.266436 
Q 463.493144 485.733623 463.493144 484.780498 
L 463.493144 481.553935 
Q 463.493144 480.596123 464.010332 480.066436 
Q 464.527519 479.536748 465.519707 479.536748 
Q 466.515019 479.536748 467.030644 480.064873 
Q 467.546269 480.591435 467.546269 481.553935 
L 467.546269 484.780498 
Q 467.546269 485.738311 467.027519 486.267998 
Q 466.510332 486.797686 465.519707 486.797686 
z
M 465.519707 485.85081 
Q 466.046269 485.85081 466.297832 485.574248 
Q 466.549394 485.297686 466.549394 484.780498 
L 466.549394 481.553935 
Q 466.549394 481.035186 466.299394 480.760185 
Q 466.050957 480.483623 465.519707 480.483623 
Q 464.986894 480.483623 464.736894 480.760185 
Q 464.488457 481.035186 464.488457 481.553935 
L 464.488457 484.780498 
Q 464.488457 485.297686 464.740019 485.574248 
Q 464.991582 485.85081 465.519707 485.85081 
z
M 468.90291 485.860186 
L 471.37791 482.558623 
Q 471.593535 482.27581 471.712285 481.971123 
Q 471.832597 481.664873 471.832597 481.402373 
L 471.832597 481.391436 
Q 471.832597 480.967998 471.582597 480.733623 
Q 471.33416 480.499248 470.876347 480.499248 
Q 470.44041 480.499248 470.17166 480.755498 
Q 469.904472 481.011748 469.845097 481.480498 
L 469.845097 481.485186 
L 468.81541 481.485186 
L 468.81541 481.480498 
Q 468.90291 480.86956 469.173222 480.438311 
Q 469.445097 480.005498 469.874785 479.778935 
Q 470.304472 479.550811 470.86541 479.550811 
Q 471.501347 479.550811 471.949785 479.767998 
Q 472.399785 479.985186 472.63416 480.40081 
Q 472.868535 480.816436 472.868535 481.402373 
L 472.868535 481.407061 
Q 472.868535 481.782061 472.712285 482.192998 
Q 472.556035 482.602373 472.276347 482.983623 
L 470.22166 485.777373 
L 472.907597 485.777373 
L 472.907597 486.724248 
L 468.90291 486.724248 
L 468.90291 485.860186 
z
M 476.2033 486.797686 
Q 475.206425 486.797686 474.6908 486.266436 
Q 474.176738 485.733623 474.176738 484.780498 
L 474.176738 481.553935 
Q 474.176738 480.596123 474.693925 480.066436 
Q 475.211113 479.536748 476.2033 479.536748 
Q 477.198613 479.536748 477.714238 480.064873 
Q 478.229863 480.591435 478.229863 481.553935 
L 478.229863 484.780498 
Q 478.229863 485.738311 477.711113 486.267998 
Q 477.193925 486.797686 476.2033 486.797686 
z
M 476.2033 485.85081 
Q 476.729863 485.85081 476.981425 485.574248 
Q 477.232988 485.297686 477.232988 484.780498 
L 477.232988 481.553935 
Q 477.232988 481.035186 476.982988 480.760185 
Q 476.73455 480.483623 476.2033 480.483623 
Q 475.670488 480.483623 475.420488 480.760185 
Q 475.17205 481.035186 475.17205 481.553935 
L 475.17205 484.780498 
Q 475.17205 485.297686 475.423613 485.574248 
Q 475.675175 485.85081 476.2033 485.85081 
z
" style="fill: #ffffff; stroke: #000000"/>
    <path d="M 452.873418 483.608623 
L 456.007793 479.624248 
L 457.232793 479.624248 
L 452.726543 485.102373 
L 452.873418 483.608623 
z
M 452.092168 479.624248 
L 453.08748 479.624248 
L 453.08748 486.724248 
L 452.092168 486.724248 
L 452.092168 479.624248 
z
M 454.054668 482.935185 
L 454.840605 482.207061 
L 457.53123 486.724248 
L 456.310918 486.724248 
L 454.054668 482.935185 
z
M 460.875371 483.199248 
L 460.870683 483.374248 
Q 460.748808 483.599248 460.501933 483.703936 
Q 460.255058 483.808623 459.919121 483.808623 
Q 459.411308 483.808623 459.025371 483.550811 
Q 458.639433 483.291435 458.426933 482.821123 
Q 458.214433 482.349248 458.214433 481.728935 
L 458.214433 481.724248 
Q 458.214433 481.035186 458.445683 480.547686 
Q 458.678496 480.058623 459.125371 479.805498 
Q 459.572246 479.550811 460.197246 479.550811 
Q 460.822246 479.550811 461.265996 479.810185 
Q 461.711308 480.06956 461.942558 480.563311 
Q 462.173808 481.055498 462.173808 481.749248 
L 462.173808 481.753936 
Q 462.173808 482.133623 462.075371 482.566436 
Q 461.978496 482.999248 461.798808 483.422686 
Q 461.769121 483.486748 461.739433 483.552373 
Q 461.711308 483.617998 461.676933 483.68206 
L 460.162871 486.724248 
L 459.087871 486.724248 
L 460.875371 483.199248 
z
M 460.197246 482.90081 
Q 460.665996 482.90081 460.922246 482.583623 
Q 461.178496 482.266436 461.178496 481.689873 
L 461.178496 481.685185 
Q 461.178496 481.124248 460.922246 480.816436 
Q 460.665996 480.508623 460.197246 480.508623 
Q 459.723808 480.508623 459.467558 480.816436 
Q 459.211308 481.124248 459.211308 481.689873 
L 459.211308 481.69456 
Q 459.211308 482.271123 459.467558 482.586748 
Q 459.723808 482.90081 460.197246 482.90081 
z
M 465.519707 486.797686 
Q 464.522832 486.797686 464.007207 486.266436 
Q 463.493144 485.733623 463.493144 484.780498 
L 463.493144 481.553935 
Q 463.493144 480.596123 464.010332 480.066436 
Q 464.527519 479.536748 465.519707 479.536748 
Q 466.515019 479.536748 467.030644 480.064873 
Q 467.546269 480.591435 467.546269 481.553935 
L 467.546269 484.780498 
Q 467.546269 485.738311 467.027519 486.267998 
Q 466.510332 486.797686 465.519707 486.797686 
z
M 465.519707 485.85081 
Q 466.046269 485.85081 466.297832 485.574248 
Q 466.549394 485.297686 466.549394 484.780498 
L 466.549394 481.553935 
Q 466.549394 481.035186 466.299394 480.760185 
Q 466.050957 480.483623 465.519707 480.483623 
Q 464.986894 480.483623 464.736894 480.760185 
Q 464.488457 481.035186 464.488457 481.553935 
L 464.488457 484.780498 
Q 464.488457 485.297686 464.740019 485.574248 
Q 464.991582 485.85081 465.519707 485.85081 
z
M 468.90291 485.860186 
L 471.37791 482.558623 
Q 471.593535 482.27581 471.712285 481.971123 
Q 471.832597 481.664873 471.832597 481.402373 
L 471.832597 481.391436 
Q 471.832597 480.967998 471.582597 480.733623 
Q 471.33416 480.499248 470.876347 480.499248 
Q 470.44041 480.499248 470.17166 480.755498 
Q 469.904472 481.011748 469.845097 481.480498 
L 469.845097 481.485186 
L 468.81541 481.485186 
L 468.81541 481.480498 
Q 468.90291 480.86956 469.173222 480.438311 
Q 469.445097 480.005498 469.874785 479.778935 
Q 470.304472 479.550811 470.86541 479.550811 
Q 471.501347 479.550811 471.949785 479.767998 
Q 472.399785 479.985186 472.63416 480.40081 
Q 472.868535 480.816436 472.868535 481.402373 
L 472.868535 481.407061 
Q 472.868535 481.782061 472.712285 482.192998 
Q 472.556035 482.602373 472.276347 482.983623 
L 470.22166 485.777373 
L 472.907597 485.777373 
L 472.907597 486.724248 
L 468.90291 486.724248 
L 468.90291 485.860186 
z
M 476.2033 486.797686 
Q 475.206425 486.797686 474.6908 486.266436 
Q 474.176738 485.733623 474.176738 484.780498 
L 474.176738 481.553935 
Q 474.176738 480.596123 474.693925 480.066436 
Q 475.211113 479.536748 476.2033 479.536748 
Q 477.198613 479.536748 477.714238 480.064873 
Q 478.229863 480.591435 478.229863 481.553935 
L 478.229863 484.780498 
Q 478.229863 485.738311 477.711113 486.267998 
Q 477.193925 486.797686 476.2033 486.797686 
z
M 476.2033 485.85081 
Q 476.729863 485.85081 476.981425 485.574248 
Q 477.232988 485.297686 477.232988 484.780498 
L 477.232988 481.553935 
Q 477.232988 481.035186 476.982988 480.760185 
Q 476.73455 480.483623 476.2033 480.483623 
Q 475.670488 480.483623 475.420488 480.760185 
Q 475.17205 481.035186 475.17205 481.553935 
L 475.17205 484.780498 
Q 475.17205 485.297686 475.423613 485.574248 
Q 475.675175 485.85081 476.2033 485.85081 
z
" style="fill: #ffffff"/>
   </g>
   <g id="text_2">
    <path d="M 207.353417 545.479663 
L 210.487792 541.495288 
L 211.712792 541.495288 
L 207.206542 546.973413 
L 207.353417 545.479663 
z
M 206.572167 541.495288 
L 207.56748 541.495288 
L 207.56748 548.595288 
L 206.572167 548.595288 
L 206.572167 541.495288 
z
M 208.534667 544.806225 
L 209.320605 544.078101 
L 212.01123 548.595288 
L 210.790917 548.595288 
L 208.534667 544.806225 
z
M 215.355371 545.070288 
L 215.350683 545.245288 
Q 215.228808 545.470288 214.981933 545.574975 
Q 214.735058 545.679663 214.399121 545.679663 
Q 213.891308 545.679663 213.505371 545.421851 
Q 213.119433 545.162476 212.906933 544.692163 
Q 212.694433 544.220288 212.694433 543.599976 
L 212.694433 543.595288 
Q 212.694433 542.906226 212.925683 542.418725 
Q 213.158496 541.929663 213.605371 541.676538 
Q 214.052246 541.421851 214.677246 541.421851 
Q 215.302246 541.421851 215.745996 541.681225 
Q 216.191308 541.9406 216.422558 542.43435 
Q 216.653808 542.926538 216.653808 543.620288 
L 216.653808 543.624976 
Q 216.653808 544.004663 216.555371 544.437476 
Q 216.458496 544.870288 216.278808 545.293725 
Q 216.249121 545.357788 216.219433 545.423413 
Q 216.191308 545.489038 216.156933 545.553101 
L 214.642871 548.595288 
L 213.567871 548.595288 
L 215.355371 545.070288 
z
M 214.677246 544.771851 
Q 215.145996 544.771851 215.402246 544.454663 
Q 215.658496 544.137475 215.658496 543.560913 
L 215.658496 543.556225 
Q 215.658496 542.995288 215.402246 542.687476 
Q 215.145996 542.379663 214.677246 542.379663 
Q 214.203808 542.379663 213.947558 542.687476 
Q 213.691308 542.995288 213.691308 543.560913 
L 213.691308 543.5656 
Q 213.691308 544.142163 213.947558 544.457788 
Q 214.203808 544.771851 214.677246 544.771851 
z
M 219.999707 548.668725 
Q 219.002832 548.668725 218.487207 548.137475 
Q 217.973144 547.604663 217.973144 546.651538 
L 217.973144 543.424975 
Q 217.973144 542.467163 218.490332 541.937476 
Q 219.007519 541.407788 219.999707 541.407788 
Q 220.995019 541.407788 221.510644 541.935913 
Q 222.026269 542.462475 222.026269 543.424975 
L 222.026269 546.651538 
Q 222.026269 547.609351 221.507519 548.139038 
Q 220.990332 548.668725 219.999707 548.668725 
z
M 219.999707 547.72185 
Q 220.526269 547.72185 220.777832 547.445288 
Q 221.029394 547.168725 221.029394 546.651538 
L 221.029394 543.424975 
Q 221.029394 542.906226 220.779394 542.631226 
Q 220.530957 542.354663 219.999707 542.354663 
Q 219.466894 542.354663 219.216894 542.631226 
Q 218.968457 542.906226 218.968457 543.424975 
L 218.968457 546.651538 
Q 218.968457 547.168725 219.220019 547.445288 
Q 219.471582 547.72185 219.999707 547.72185 
z
M 223.38291 547.731225 
L 225.85791 544.429663 
Q 226.073535 544.146851 226.192285 543.842163 
Q 226.312597 543.535913 226.312597 543.273413 
L 226.312597 543.262475 
Q 226.312597 542.839038 226.062597 542.604663 
Q 225.81416 542.370288 225.356347 542.370288 
Q 224.92041 542.370288 224.65166 542.626538 
Q 224.384472 542.882788 224.325097 543.351538 
L 224.325097 543.356225 
L 223.29541 543.356225 
L 223.29541 543.351538 
Q 223.38291 542.740601 223.653222 542.30935 
Q 223.925097 541.876538 224.354785 541.649975 
Q 224.784472 541.421851 225.34541 541.421851 
Q 225.981347 541.421851 226.429785 541.639038 
Q 226.879785 541.856225 227.11416 542.271851 
Q 227.348535 542.687476 227.348535 543.273413 
L 227.348535 543.2781 
Q 227.348535 543.6531 227.192285 544.064038 
Q 227.036035 544.473413 226.756347 544.854663 
L 224.70166 547.648413 
L 227.387597 547.648413 
L 227.387597 548.595288 
L 223.38291 548.595288 
L 223.38291 547.731225 
z
M 230.6833 548.668725 
Q 229.686425 548.668725 229.1708 548.137475 
Q 228.656738 547.604663 228.656738 546.651538 
L 228.656738 543.424975 
Q 228.656738 542.467163 229.173925 541.937476 
Q 229.691113 541.407788 230.6833 541.407788 
Q 231.678613 541.407788 232.194238 541.935913 
Q 232.709863 542.462475 232.709863 543.424975 
L 232.709863 546.651538 
Q 232.709863 547.609351 232.191113 548.139038 
Q 231.673925 548.668725 230.6833 548.668725 
z
M 230.6833 547.72185 
Q 231.209863 547.72185 231.461425 547.445288 
Q 231.712988 547.168725 231.712988 546.651538 
L 231.712988 543.424975 
Q 231.712988 542.906226 231.462988 542.631226 
Q 231.21455 542.354663 230.6833 542.354663 
Q 230.150488 542.354663 229.900488 542.631226 
Q 229.65205 542.906226 229.65205 543.424975 
L 229.65205 546.651538 
Q 229.65205 547.168725 229.903613 547.445288 
Q 230.155175 547.72185 230.6833 547.72185 
z
" style="fill: #ffffff; stroke: #000000"/>
    <path d="M 207.353417 545.479663 
L 210.487792 541.495288 
L 211.712792 541.495288 
L 207.206542 546.973413 
L 207.353417 545.479663 
z
M 206.572167 541.495288 
L 207.56748 541.495288 
L 207.56748 548.595288 
L 206.572167 548.595288 
L 206.572167 541.495288 
z
M 208.534667 544.806225 
L 209.320605 544.078101 
L 212.01123 548.595288 
L 210.790917 548.595288 
L 208.534667 544.806225 
z
M 215.355371 545.070288 
L 215.350683 545.245288 
Q 215.228808 545.470288 214.981933 545.574975 
Q 214.735058 545.679663 214.399121 545.679663 
Q 213.891308 545.679663 213.505371 545.421851 
Q 213.119433 545.162476 212.906933 544.692163 
Q 212.694433 544.220288 212.694433 543.599976 
L 212.694433 543.595288 
Q 212.694433 542.906226 212.925683 542.418725 
Q 213.158496 541.929663 213.605371 541.676538 
Q 214.052246 541.421851 214.677246 541.421851 
Q 215.302246 541.421851 215.745996 541.681225 
Q 216.191308 541.9406 216.422558 542.43435 
Q 216.653808 542.926538 216.653808 543.620288 
L 216.653808 543.624976 
Q 216.653808 544.004663 216.555371 544.437476 
Q 216.458496 544.870288 216.278808 545.293725 
Q 216.249121 545.357788 216.219433 545.423413 
Q 216.191308 545.489038 216.156933 545.553101 
L 214.642871 548.595288 
L 213.567871 548.595288 
L 215.355371 545.070288 
z
M 214.677246 544.771851 
Q 215.145996 544.771851 215.402246 544.454663 
Q 215.658496 544.137475 215.658496 543.560913 
L 215.658496 543.556225 
Q 215.658496 542.995288 215.402246 542.687476 
Q 215.145996 542.379663 214.677246 542.379663 
Q 214.203808 542.379663 213.947558 542.687476 
Q 213.691308 542.995288 213.691308 543.560913 
L 213.691308 543.5656 
Q 213.691308 544.142163 213.947558 544.457788 
Q 214.203808 544.771851 214.677246 544.771851 
z
M 219.999707 548.668725 
Q 219.002832 548.668725 218.487207 548.137475 
Q 217.973144 547.604663 217.973144 546.651538 
L 217.973144 543.424975 
Q 217.973144 542.467163 218.490332 541.937476 
Q 219.007519 541.407788 219.999707 541.407788 
Q 220.995019 541.407788 221.510644 541.935913 
Q 222.026269 542.462475 222.026269 543.424975 
L 222.026269 546.651538 
Q 222.026269 547.609351 221.507519 548.139038 
Q 220.990332 548.668725 219.999707 548.668725 
z
M 219.999707 547.72185 
Q 220.526269 547.72185 220.777832 547.445288 
Q 221.029394 547.168725 221.029394 546.651538 
L 221.029394 543.424975 
Q 221.029394 542.906226 220.779394 542.631226 
Q 220.530957 542.354663 219.999707 542.354663 
Q 219.466894 542.354663 219.216894 542.631226 
Q 218.968457 542.906226 218.968457 543.424975 
L 218.968457 546.651538 
Q 218.968457 547.168725 219.220019 547.445288 
Q 219.471582 547.72185 219.999707 547.72185 
z
M 223.38291 547.731225 
L 225.85791 544.429663 
Q 226.073535 544.146851 226.192285 543.842163 
Q 226.312597 543.535913 226.312597 543.273413 
L 226.312597 543.262475 
Q 226.312597 542.839038 226.062597 542.604663 
Q 225.81416 542.370288 225.356347 542.370288 
Q 224.92041 542.370288 224.65166 542.626538 
Q 224.384472 542.882788 224.325097 543.351538 
L 224.325097 543.356225 
L 223.29541 543.356225 
L 223.29541 543.351538 
Q 223.38291 542.740601 223.653222 542.30935 
Q 223.925097 541.876538 224.354785 541.649975 
Q 224.784472 541.421851 225.34541 541.421851 
Q 225.981347 541.421851 226.429785 541.639038 
Q 226.879785 541.856225 227.11416 542.271851 
Q 227.348535 542.687476 227.348535 543.273413 
L 227.348535 543.2781 
Q 227.348535 543.6531 227.192285 544.064038 
Q 227.036035 544.473413 226.756347 544.854663 
L 224.70166 547.648413 
L 227.387597 547.648413 
L 227.387597 548.595288 
L 223.38291 548.595288 
L 223.38291 547.731225 
z
M 230.6833 548.668725 
Q 229.686425 548.668725 229.1708 548.137475 
Q 228.656738 547.604663 228.656738 546.651538 
L 228.656738 543.424975 
Q 228.656738 542.467163 229.173925 541.937476 
Q 229.691113 541.407788 230.6833 541.407788 
Q 231.678613 541.407788 232.194238 541.935913 
Q 232.709863 542.462475 232.709863 543.424975 
L 232.709863 546.651538 
Q 232.709863 547.609351 232.191113 548.139038 
Q 231.673925 548.668725 230.6833 548.668725 
z
M 230.6833 547.72185 
Q 231.209863 547.72185 231.461425 547.445288 
Q 231.712988 547.168725 231.712988 546.651538 
L 231.712988 543.424975 
Q 231.712988 542.906226 231.462988 542.631226 
Q 231.21455 542.354663 230.6833 542.354663 
Q 230.150488 542.354663 229.900488 542.631226 
Q 229.65205 542.906226 229.65205 543.424975 
L 229.65205 546.651538 
Q 229.65205 547.168725 229.903613 547.445288 
Q 230.155175 547.72185 230.6833 547.72185 
z
" style="fill: #ffffff"/>
   </g>
  </g>
 </g>
 <defs>
  <clipPath id="p190eb4bf42">
   <rect x="144" y="77.76" width="892.8" height="498.96"/>
  </clipPath>
 </defs>
</svg>
