<?xml version="1.0" encoding="utf-8" standalone="no"?>
<!DOCTYPE svg PUBLIC "-//W3C//DTD SVG 1.1//EN"
  "http://www.w3.org/Graphics/SVG/1.1/DTD/svg11.dtd">
<svg xmlns:xlink="http://www.w3.org/1999/xlink" width="1152pt" height="648pt" viewBox="0 0 1152 648" xmlns="http://www.w3.org/2000/svg" version="1.1">
 <metadata>
  <rdf:RDF xmlns:dc="http://purl.org/dc/elements/1.1/" xmlns:cc="http://creativecommons.org/ns#" xmlns:rdf="http://www.w3.org/1999/02/22-rdf-syntax-ns#">
   <cc:Work>
    <dc:type rdf:resource="http://purl.org/dc/dcmitype/StillImage"/>
    <dc:date>2024-12-06T13:19:42.763065</dc:date>
    <dc:format>image/svg+xml</dc:format>
    <dc:creator>
     <cc:Agent>
      <dc:title>Matplotlib v3.9.2, https://matplotlib.org/</dc:title>
     </cc:Agent>
    </dc:creator>
   </cc:Work>
  </rdf:RDF>
 </metadata>
 <defs>
  <style type="text/css">*{stroke-linejoin: round; stroke-linecap: butt}</style>
 </defs>
 <g id="figure_1">
  <g id="patch_1">
   <path d="M 0 648 
L 1152 648 
L 1152 0 
L 0 0 
L 0 648 
z
" style="fill: none"/>
  </g>
  <g id="axes_1">
   <g id="line2d_1">
    <path d="M 202.032 550.472519 
L 205.419455 548.232974 
L 208.806909 546.006879 
L 212.194364 543.794593 
L 215.581818 541.596464 
L 218.969273 539.412829 
L 222.356727 537.244014 
L 225.744182 535.090336 
L 229.131636 532.952099 
L 232.519091 530.829597 
L 235.906545 528.723114 
L 239.294 526.63292 
L 242.681455 524.559276 
L 246.068909 522.502431 
L 249.456364 520.462624 
L 252.843818 518.44008 
L 256.231273 516.435016 
L 259.618727 514.447635 
L 263.006182 512.478131 
L 266.393636 510.526686 
L 269.781091 508.593469 
L 273.168545 506.678641 
L 276.556 504.782351 
L 279.943455 502.904737 
L 283.330909 501.045925 
L 286.718364 499.206033 
L 290.105818 497.385166 
L 293.493273 495.583421 
L 296.880727 493.800883 
L 300.268182 492.037626 
L 303.655636 490.293718 
L 307.043091 488.569213 
L 310.430545 486.864158 
L 313.818 485.17859 
L 317.205455 483.512536 
L 320.592909 481.866015 
L 323.980364 480.239037 
L 327.367818 478.631603 
L 330.755273 477.043706 
L 334.142727 475.47533 
L 337.530182 473.926452 
L 340.917636 472.397041 
L 344.305091 470.887058 
L 347.692545 469.396457 
L 351.08 467.925184 
L 354.467455 466.47318 
L 357.854909 465.040377 
L 361.242364 463.626702 
L 364.629818 462.232076 
L 368.017273 460.856413 
L 371.404727 459.499621 
L 374.792182 458.161604 
L 378.179636 456.842259 
L 381.567091 455.541478 
L 384.954545 454.259149 
L 388.342 452.995155 
L 391.729455 451.749374 
L 395.116909 450.52168 
L 398.504364 449.311942 
L 401.891818 448.120028 
L 405.279273 446.945797 
L 408.666727 445.789111 
L 412.054182 444.649823 
L 415.441636 443.527786 
L 418.829091 442.42285 
L 422.216545 441.33486 
L 425.604 440.263662 
L 428.991455 439.209096 
L 432.378909 438.171002 
L 435.766364 437.149217 
L 439.153818 436.143577 
L 442.541273 435.153915 
L 445.928727 434.180063 
L 449.316182 433.221852 
L 452.703636 432.279111 
L 456.091091 431.351668 
L 459.478545 430.439351 
L 462.866 429.541986 
L 466.253455 428.659398 
L 469.640909 427.791413 
L 473.028364 426.937854 
L 476.415818 426.098546 
L 479.803273 425.273313 
L 483.190727 424.461978 
L 486.578182 423.664365 
L 489.965636 422.880298 
L 493.353091 422.109601 
L 496.740545 421.352097 
L 500.128 420.607611 
L 503.515455 419.875967 
L 506.902909 419.156992 
L 510.290364 418.450511 
L 513.677818 417.756351 
L 517.065273 417.074339 
L 520.452727 416.404303 
L 523.840182 415.746072 
L 527.227636 415.099477 
L 530.615091 414.464347 
L 534.002545 413.840516 
L 537.39 413.227815 
" clip-path="url(#p217bc836a8)" style="fill: none; stroke: #30b1f2; stroke-width: 3; stroke-linecap: round"/>
   </g>
   <g id="text_1">
    <path d="M 545.191855 408.355633 
L 546.187167 408.355633 
L 546.187167 414.874383 
L 545.191855 414.874383 
L 545.191855 408.355633 
z
M 543.184042 407.774383 
L 548.19498 407.774383 
L 548.19498 408.721258 
L 543.184042 408.721258 
L 543.184042 407.774383 
z
M 550.953183 414.947821 
Q 550.250058 414.947821 549.751621 414.683758 
Q 549.254746 414.419696 548.992246 413.910321 
Q 548.731308 413.399383 548.731308 412.677508 
L 548.731308 412.105633 
Q 548.731308 411.354071 548.982871 410.822821 
Q 549.234433 410.290008 549.712558 410.011883 
Q 550.192246 409.732196 550.865683 409.732196 
Q 551.500058 409.732196 551.948496 410.050946 
Q 552.398496 410.368133 552.634433 410.968133 
Q 552.871933 411.568133 552.871933 412.408758 
L 552.871933 412.740008 
L 549.454746 412.740008 
L 549.454746 411.940008 
L 551.925058 411.940008 
L 551.925058 411.940008 
Q 551.881308 411.319696 551.604746 410.975946 
Q 551.329746 410.630633 550.865683 410.630633 
Q 550.298496 410.630633 549.989121 411.002508 
Q 549.679746 411.372821 549.679746 412.052508 
L 549.679746 412.696258 
Q 549.679746 413.325946 550.010996 413.663446 
Q 550.343808 414.000946 550.953183 414.000946 
Q 551.256308 414.000946 551.553183 413.879071 
Q 551.851621 413.755633 552.085996 413.536883 
L 552.085996 413.536883 
L 552.740683 414.190008 
L 552.740683 414.190008 
Q 552.364121 414.552508 551.895371 414.750946 
Q 551.426621 414.947821 550.953183 414.947821 
z
M 554.239511 409.805633 
L 555.236386 409.805633 
L 555.236386 414.874383 
L 554.239511 414.874383 
L 554.239511 409.805633 
z
M 557.316074 411.802508 
Q 557.316074 411.266571 557.037949 410.974383 
Q 556.759824 410.680633 556.256699 410.680633 
Q 555.767636 410.680633 555.502011 410.940008 
Q 555.236386 411.197821 555.236386 411.666571 
L 555.133261 410.690008 
Q 555.367636 410.230633 555.745761 409.982196 
Q 556.123886 409.732196 556.583261 409.732196 
Q 557.408261 409.732196 557.859824 410.272821 
Q 558.311386 410.811883 558.311386 411.797821 
L 558.311386 414.874383 
L 557.316074 414.874383 
L 557.316074 411.802508 
z
M 561.617636 414.947821 
Q 561.167636 414.947821 560.773886 414.860321 
Q 560.381699 414.771258 560.039511 414.596258 
Q 559.698886 414.419696 559.409824 414.157196 
L 559.409824 414.157196 
L 560.002011 413.429071 
L 560.002011 413.429071 
Q 560.411386 413.741571 560.816074 413.897821 
Q 561.222324 414.054071 561.617636 414.054071 
Q 562.208261 414.054071 562.503574 413.871258 
Q 562.798886 413.688446 562.798886 413.321258 
Q 562.798886 413.077508 562.637949 412.955633 
Q 562.477011 412.833758 562.237949 412.793133 
Q 561.998886 412.750946 561.564511 412.716571 
Q 561.525449 412.716571 561.480136 412.715008 
Q 561.436386 412.711883 561.397324 412.705633 
Q 561.378574 412.705633 561.358261 412.704071 
Q 561.339511 412.700946 561.319199 412.700946 
Q 560.827011 412.661883 560.484824 412.557196 
Q 560.142636 412.452508 559.916074 412.165008 
Q 559.689511 411.875946 559.689511 411.338446 
Q 559.689511 410.802508 559.908261 410.446258 
Q 560.128574 410.088446 560.562949 409.910321 
Q 560.997324 409.732196 561.652011 409.732196 
Q 562.047324 409.732196 562.405136 409.805633 
Q 562.764511 409.879071 563.091074 410.022821 
Q 563.419199 410.166571 563.722324 410.386883 
L 563.722324 410.386883 
L 563.120761 411.115008 
L 563.120761 411.115008 
Q 562.741074 410.869696 562.372324 410.747821 
Q 562.003574 410.625946 561.652011 410.625946 
Q 561.144199 410.625946 560.889511 410.799383 
Q 560.636386 410.972821 560.636386 411.319696 
Q 560.636386 411.524383 560.780136 411.627508 
Q 560.923886 411.729071 561.142636 411.763446 
Q 561.362949 411.797821 561.769199 411.822821 
Q 561.798886 411.827508 561.830136 411.827508 
Q 561.861386 411.827508 561.895761 411.832196 
Q 561.909824 411.832196 561.923886 411.832196 
Q 561.939511 411.832196 561.955136 411.836883 
Q 562.486386 411.871258 562.859824 411.979071 
Q 563.233261 412.086883 563.486386 412.404071 
Q 563.741074 412.721258 563.741074 413.321258 
Q 563.741074 413.868133 563.506699 414.227508 
Q 563.272324 414.586883 562.800449 414.768133 
Q 562.330136 414.947821 561.617636 414.947821 
z
M 566.954746 414.947821 
Q 566.295371 414.947821 565.826621 414.690008 
Q 565.357871 414.430633 565.110996 413.935321 
Q 564.864121 413.438446 564.864121 412.740008 
L 564.864121 411.915008 
Q 564.864121 411.227508 565.110996 410.736883 
Q 565.357871 410.244696 565.826621 409.988446 
Q 566.295371 409.732196 566.954746 409.732196 
Q 567.614121 409.732196 568.082871 409.988446 
Q 568.551621 410.244696 568.796933 410.736883 
Q 569.043808 411.227508 569.043808 411.915008 
L 569.043808 412.755633 
Q 569.043808 413.447821 568.796933 413.940008 
Q 568.551621 414.430633 568.082871 414.690008 
Q 567.614121 414.947821 566.954746 414.947821 
z
M 566.954746 414.000946 
Q 567.476621 414.000946 567.762558 413.674383 
Q 568.048496 413.346258 568.048496 412.755633 
L 568.048496 411.915008 
Q 568.048496 411.324383 567.762558 411.002508 
Q 567.476621 410.680633 566.954746 410.680633 
Q 566.431308 410.680633 566.145371 411.002508 
Q 565.860996 411.324383 565.860996 411.915008 
L 565.860996 412.755633 
Q 565.860996 413.346258 566.145371 413.674383 
Q 566.431308 414.000946 566.954746 414.000946 
z
M 570.460214 409.805633 
L 571.457089 409.805633 
L 571.457089 414.874383 
L 570.460214 414.874383 
L 570.460214 409.805633 
z
M 573.247714 411.007196 
Q 573.116464 410.846258 572.916464 410.763446 
Q 572.716464 410.680633 572.452402 410.680633 
Q 571.978964 410.680633 571.718027 410.941571 
Q 571.457089 411.202508 571.457089 411.666571 
L 571.353964 410.690008 
Q 571.588339 410.235321 571.958652 409.983758 
Q 572.330527 409.732196 572.778964 409.732196 
Q 573.125839 409.732196 573.407089 409.832196 
Q 573.688339 409.932196 573.897714 410.127508 
L 573.247714 411.007196 
z
M 581.388339 411.050946 
L 581.388339 412.291571 
Q 581.388339 413.082196 581.080527 413.685321 
Q 580.772714 414.288446 580.208652 414.618133 
Q 579.644589 414.947821 578.902402 414.947821 
Q 578.150839 414.947821 577.582089 414.638446 
Q 577.013339 414.327508 576.700839 413.761883 
Q 576.388339 413.194696 576.388339 412.447821 
L 576.388339 410.352508 
Q 576.388339 409.561883 576.696152 408.961883 
Q 577.003964 408.360321 577.566464 408.030633 
Q 578.130527 407.700946 578.872714 407.700946 
Q 579.483652 407.700946 579.997714 407.963446 
Q 580.513339 408.224383 580.860214 408.702508 
Q 581.207089 409.180633 581.328964 409.810321 
L 581.328964 409.810321 
L 580.250839 409.810321 
L 580.250839 409.810321 
Q 580.161777 409.454071 579.952402 409.197821 
Q 579.743027 408.941571 579.458652 408.807196 
Q 579.175839 408.672821 578.872714 408.672821 
Q 578.433652 408.672821 578.100839 408.883758 
Q 577.769589 409.093133 577.588339 409.471258 
Q 577.408652 409.849383 577.408652 410.352508 
L 577.408652 412.447821 
Q 577.408652 412.907196 577.593027 413.250946 
Q 577.778964 413.594696 578.118027 413.785321 
Q 578.458652 413.975946 578.902402 413.975946 
Q 579.341464 413.975946 579.672714 413.779071 
Q 580.005527 413.580633 580.186777 413.205633 
Q 580.368027 412.829071 580.368027 412.310321 
L 580.368027 412.002508 
L 578.927402 412.002508 
L 578.927402 411.050946 
L 581.388339 411.050946 
z
M 582.754746 412.921258 
L 585.137558 407.779071 
L 586.164121 407.779071 
L 583.839121 412.861883 
L 587.320371 412.861883 
L 587.320371 413.785321 
L 582.754746 413.785321 
L 582.754746 412.921258 
z
M 585.817246 410.699383 
L 586.789121 410.699383 
L 586.789121 414.879071 
L 585.817246 414.879071 
L 585.817246 410.699383 
z
" style="fill: #ffffff; stroke: #000000"/>
    <path d="M 545.191855 408.355633 
L 546.187167 408.355633 
L 546.187167 414.874383 
L 545.191855 414.874383 
L 545.191855 408.355633 
z
M 543.184042 407.774383 
L 548.19498 407.774383 
L 548.19498 408.721258 
L 543.184042 408.721258 
L 543.184042 407.774383 
z
M 550.953183 414.947821 
Q 550.250058 414.947821 549.751621 414.683758 
Q 549.254746 414.419696 548.992246 413.910321 
Q 548.731308 413.399383 548.731308 412.677508 
L 548.731308 412.105633 
Q 548.731308 411.354071 548.982871 410.822821 
Q 549.234433 410.290008 549.712558 410.011883 
Q 550.192246 409.732196 550.865683 409.732196 
Q 551.500058 409.732196 551.948496 410.050946 
Q 552.398496 410.368133 552.634433 410.968133 
Q 552.871933 411.568133 552.871933 412.408758 
L 552.871933 412.740008 
L 549.454746 412.740008 
L 549.454746 411.940008 
L 551.925058 411.940008 
L 551.925058 411.940008 
Q 551.881308 411.319696 551.604746 410.975946 
Q 551.329746 410.630633 550.865683 410.630633 
Q 550.298496 410.630633 549.989121 411.002508 
Q 549.679746 411.372821 549.679746 412.052508 
L 549.679746 412.696258 
Q 549.679746 413.325946 550.010996 413.663446 
Q 550.343808 414.000946 550.953183 414.000946 
Q 551.256308 414.000946 551.553183 413.879071 
Q 551.851621 413.755633 552.085996 413.536883 
L 552.085996 413.536883 
L 552.740683 414.190008 
L 552.740683 414.190008 
Q 552.364121 414.552508 551.895371 414.750946 
Q 551.426621 414.947821 550.953183 414.947821 
z
M 554.239511 409.805633 
L 555.236386 409.805633 
L 555.236386 414.874383 
L 554.239511 414.874383 
L 554.239511 409.805633 
z
M 557.316074 411.802508 
Q 557.316074 411.266571 557.037949 410.974383 
Q 556.759824 410.680633 556.256699 410.680633 
Q 555.767636 410.680633 555.502011 410.940008 
Q 555.236386 411.197821 555.236386 411.666571 
L 555.133261 410.690008 
Q 555.367636 410.230633 555.745761 409.982196 
Q 556.123886 409.732196 556.583261 409.732196 
Q 557.408261 409.732196 557.859824 410.272821 
Q 558.311386 410.811883 558.311386 411.797821 
L 558.311386 414.874383 
L 557.316074 414.874383 
L 557.316074 411.802508 
z
M 561.617636 414.947821 
Q 561.167636 414.947821 560.773886 414.860321 
Q 560.381699 414.771258 560.039511 414.596258 
Q 559.698886 414.419696 559.409824 414.157196 
L 559.409824 414.157196 
L 560.002011 413.429071 
L 560.002011 413.429071 
Q 560.411386 413.741571 560.816074 413.897821 
Q 561.222324 414.054071 561.617636 414.054071 
Q 562.208261 414.054071 562.503574 413.871258 
Q 562.798886 413.688446 562.798886 413.321258 
Q 562.798886 413.077508 562.637949 412.955633 
Q 562.477011 412.833758 562.237949 412.793133 
Q 561.998886 412.750946 561.564511 412.716571 
Q 561.525449 412.716571 561.480136 412.715008 
Q 561.436386 412.711883 561.397324 412.705633 
Q 561.378574 412.705633 561.358261 412.704071 
Q 561.339511 412.700946 561.319199 412.700946 
Q 560.827011 412.661883 560.484824 412.557196 
Q 560.142636 412.452508 559.916074 412.165008 
Q 559.689511 411.875946 559.689511 411.338446 
Q 559.689511 410.802508 559.908261 410.446258 
Q 560.128574 410.088446 560.562949 409.910321 
Q 560.997324 409.732196 561.652011 409.732196 
Q 562.047324 409.732196 562.405136 409.805633 
Q 562.764511 409.879071 563.091074 410.022821 
Q 563.419199 410.166571 563.722324 410.386883 
L 563.722324 410.386883 
L 563.120761 411.115008 
L 563.120761 411.115008 
Q 562.741074 410.869696 562.372324 410.747821 
Q 562.003574 410.625946 561.652011 410.625946 
Q 561.144199 410.625946 560.889511 410.799383 
Q 560.636386 410.972821 560.636386 411.319696 
Q 560.636386 411.524383 560.780136 411.627508 
Q 560.923886 411.729071 561.142636 411.763446 
Q 561.362949 411.797821 561.769199 411.822821 
Q 561.798886 411.827508 561.830136 411.827508 
Q 561.861386 411.827508 561.895761 411.832196 
Q 561.909824 411.832196 561.923886 411.832196 
Q 561.939511 411.832196 561.955136 411.836883 
Q 562.486386 411.871258 562.859824 411.979071 
Q 563.233261 412.086883 563.486386 412.404071 
Q 563.741074 412.721258 563.741074 413.321258 
Q 563.741074 413.868133 563.506699 414.227508 
Q 563.272324 414.586883 562.800449 414.768133 
Q 562.330136 414.947821 561.617636 414.947821 
z
M 566.954746 414.947821 
Q 566.295371 414.947821 565.826621 414.690008 
Q 565.357871 414.430633 565.110996 413.935321 
Q 564.864121 413.438446 564.864121 412.740008 
L 564.864121 411.915008 
Q 564.864121 411.227508 565.110996 410.736883 
Q 565.357871 410.244696 565.826621 409.988446 
Q 566.295371 409.732196 566.954746 409.732196 
Q 567.614121 409.732196 568.082871 409.988446 
Q 568.551621 410.244696 568.796933 410.736883 
Q 569.043808 411.227508 569.043808 411.915008 
L 569.043808 412.755633 
Q 569.043808 413.447821 568.796933 413.940008 
Q 568.551621 414.430633 568.082871 414.690008 
Q 567.614121 414.947821 566.954746 414.947821 
z
M 566.954746 414.000946 
Q 567.476621 414.000946 567.762558 413.674383 
Q 568.048496 413.346258 568.048496 412.755633 
L 568.048496 411.915008 
Q 568.048496 411.324383 567.762558 411.002508 
Q 567.476621 410.680633 566.954746 410.680633 
Q 566.431308 410.680633 566.145371 411.002508 
Q 565.860996 411.324383 565.860996 411.915008 
L 565.860996 412.755633 
Q 565.860996 413.346258 566.145371 413.674383 
Q 566.431308 414.000946 566.954746 414.000946 
z
M 570.460214 409.805633 
L 571.457089 409.805633 
L 571.457089 414.874383 
L 570.460214 414.874383 
L 570.460214 409.805633 
z
M 573.247714 411.007196 
Q 573.116464 410.846258 572.916464 410.763446 
Q 572.716464 410.680633 572.452402 410.680633 
Q 571.978964 410.680633 571.718027 410.941571 
Q 571.457089 411.202508 571.457089 411.666571 
L 571.353964 410.690008 
Q 571.588339 410.235321 571.958652 409.983758 
Q 572.330527 409.732196 572.778964 409.732196 
Q 573.125839 409.732196 573.407089 409.832196 
Q 573.688339 409.932196 573.897714 410.127508 
L 573.247714 411.007196 
z
M 581.388339 411.050946 
L 581.388339 412.291571 
Q 581.388339 413.082196 581.080527 413.685321 
Q 580.772714 414.288446 580.208652 414.618133 
Q 579.644589 414.947821 578.902402 414.947821 
Q 578.150839 414.947821 577.582089 414.638446 
Q 577.013339 414.327508 576.700839 413.761883 
Q 576.388339 413.194696 576.388339 412.447821 
L 576.388339 410.352508 
Q 576.388339 409.561883 576.696152 408.961883 
Q 577.003964 408.360321 577.566464 408.030633 
Q 578.130527 407.700946 578.872714 407.700946 
Q 579.483652 407.700946 579.997714 407.963446 
Q 580.513339 408.224383 580.860214 408.702508 
Q 581.207089 409.180633 581.328964 409.810321 
L 581.328964 409.810321 
L 580.250839 409.810321 
L 580.250839 409.810321 
Q 580.161777 409.454071 579.952402 409.197821 
Q 579.743027 408.941571 579.458652 408.807196 
Q 579.175839 408.672821 578.872714 408.672821 
Q 578.433652 408.672821 578.100839 408.883758 
Q 577.769589 409.093133 577.588339 409.471258 
Q 577.408652 409.849383 577.408652 410.352508 
L 577.408652 412.447821 
Q 577.408652 412.907196 577.593027 413.250946 
Q 577.778964 413.594696 578.118027 413.785321 
Q 578.458652 413.975946 578.902402 413.975946 
Q 579.341464 413.975946 579.672714 413.779071 
Q 580.005527 413.580633 580.186777 413.205633 
Q 580.368027 412.829071 580.368027 412.310321 
L 580.368027 412.002508 
L 578.927402 412.002508 
L 578.927402 411.050946 
L 581.388339 411.050946 
z
M 582.754746 412.921258 
L 585.137558 407.779071 
L 586.164121 407.779071 
L 583.839121 412.861883 
L 587.320371 412.861883 
L 587.320371 413.785321 
L 582.754746 413.785321 
L 582.754746 412.921258 
z
M 585.817246 410.699383 
L 586.789121 410.699383 
L 586.789121 414.879071 
L 585.817246 414.879071 
L 585.817246 410.699383 
z
" style="fill: #ffffff"/>
   </g>
  </g>
 </g>
 <defs>
  <clipPath id="p217bc836a8">
   <rect x="144" y="77.76" width="892.8" height="498.96"/>
  </clipPath>
 </defs>
</svg>
