<?xml version="1.0" encoding="utf-8" standalone="no"?>
<!DOCTYPE svg PUBLIC "-//W3C//DTD SVG 1.1//EN"
  "http://www.w3.org/Graphics/SVG/1.1/DTD/svg11.dtd">
<svg xmlns:xlink="http://www.w3.org/1999/xlink" width="1152pt" height="648pt" viewBox="0 0 1152 648" xmlns="http://www.w3.org/2000/svg" version="1.1">
 <metadata>
  <rdf:RDF xmlns:dc="http://purl.org/dc/elements/1.1/" xmlns:cc="http://creativecommons.org/ns#" xmlns:rdf="http://www.w3.org/1999/02/22-rdf-syntax-ns#">
   <cc:Work>
    <dc:type rdf:resource="http://purl.org/dc/dcmitype/StillImage"/>
    <dc:date>2024-10-09T18:10:38.830154</dc:date>
    <dc:format>image/svg+xml</dc:format>
    <dc:creator>
     <cc:Agent>
      <dc:title>Matplotlib v3.8.1, https://matplotlib.org/</dc:title>
     </cc:Agent>
    </dc:creator>
   </cc:Work>
  </rdf:RDF>
 </metadata>
 <defs>
  <style type="text/css">*{stroke-linejoin: round; stroke-linecap: butt}</style>
 </defs>
 <g id="figure_1">
  <g id="patch_1">
   <path d="M 0 648 
L 1152 648 
L 1152 0 
L 0 0 
L 0 648 
z
" style="fill: none"/>
  </g>
  <g id="axes_1">
   <g id="line2d_1">
    <path d="M 208.728 531.488727 
L 211.551818 529.095936 
L 214.375636 526.703985 
L 217.199455 524.313709 
L 220.023273 521.925944 
L 222.847091 519.541522 
L 225.670909 517.16127 
L 228.494727 514.786007 
L 231.318545 512.41655 
L 234.142364 510.053703 
L 236.966182 507.698264 
L 239.79 505.35102 
L 242.613818 503.012746 
L 245.437636 500.684206 
L 248.261455 498.366149 
L 251.085273 496.059313 
L 253.909091 493.764419 
L 256.732909 491.482172 
L 259.556727 489.213261 
L 262.380545 486.958358 
L 265.204364 484.718116 
L 268.028182 482.493171 
L 270.852 480.284138 
L 273.675818 478.091614 
L 276.499636 475.916172 
L 279.323455 473.758369 
L 282.147273 471.618737 
L 284.971091 469.497789 
L 287.794909 467.396014 
L 290.618727 465.313881 
L 293.442545 463.251834 
L 296.266364 461.210297 
L 299.090182 459.189671 
L 301.914 457.190332 
L 304.737818 455.212637 
L 307.561636 453.256916 
L 310.385455 451.323481 
L 313.209273 449.412619 
L 316.033091 447.524595 
L 318.856909 445.659651 
L 321.680727 443.818008 
L 324.504545 441.999867 
L 327.328364 440.205406 
L 330.152182 438.43478 
L 332.976 436.688128 
L 335.799818 434.965564 
L 338.623636 433.267187 
L 341.447455 431.593072 
L 344.271273 429.943277 
L 347.095091 428.317843 
L 349.918909 426.71679 
L 352.742727 425.140124 
L 355.566545 423.58783 
L 358.390364 422.059881 
L 361.214182 420.55623 
L 364.038 419.076818 
L 366.861818 417.621568 
L 369.685636 416.190392 
L 372.509455 414.783186 
L 375.333273 413.399834 
L 378.157091 412.040207 
L 380.980909 410.704165 
L 383.804727 409.391555 
L 386.628545 408.102214 
L 389.452364 406.83597 
L 392.276182 405.592638 
L 395.1 404.372028 
L 397.923818 403.173937 
L 400.747636 401.998156 
L 403.571455 400.84447 
L 406.395273 399.712654 
L 409.219091 398.602477 
L 412.042909 397.513704 
L 414.866727 396.446091 
L 417.690545 395.399391 
L 420.514364 394.373352 
L 423.338182 393.367717 
L 426.162 392.382226 
L 428.985818 391.416615 
L 431.809636 390.470616 
L 434.633455 389.543959 
L 437.457273 388.636372 
L 440.281091 387.747582 
L 443.104909 386.877311 
L 445.928727 386.025284 
L 448.752545 385.19122 
L 451.576364 384.374843 
L 454.400182 383.575871 
L 457.224 382.794025 
L 460.047818 382.029027 
L 462.871636 381.280596 
L 465.695455 380.548455 
L 468.519273 379.832325 
L 471.343091 379.13193 
L 474.166909 378.446995 
L 476.990727 377.777245 
L 479.814545 377.122408 
L 482.638364 376.482214 
L 485.462182 375.856393 
L 488.286 375.244679 
" clip-path="url(#p04ca78d5bf)" style="fill: none; stroke: #f28d79; stroke-width: 3; stroke-linecap: round"/>
   </g>
   <g id="text_1">
    <path d="M 495.731605 375.944372 
L 497.337855 375.944372 
Q 498.123792 375.944372 498.555042 375.53656 
Q 498.987855 375.128747 498.987855 374.38656 
L 498.987855 372.295935 
Q 498.987855 371.553747 498.555042 371.145935 
Q 498.123792 370.738122 497.337855 370.738122 
L 495.731605 370.738122 
L 495.731605 369.791247 
L 497.308167 369.791247 
Q 498.162855 369.791247 498.767542 370.089685 
Q 499.373792 370.38656 499.69098 370.958435 
Q 500.008167 371.53031 500.008167 372.334997 
L 500.008167 374.347497 
Q 500.008167 375.152185 499.69098 375.72406 
Q 499.373792 376.295935 498.76598 376.594372 
Q 498.158167 376.891247 497.30348 376.891247 
L 495.731605 376.891247 
L 495.731605 375.944372 
z
M 495.058167 369.791247 
L 496.05348 369.791247 
L 496.05348 376.891247 
L 495.058167 376.891247 
L 495.058167 369.791247 
z
M 503.55348 376.964685 
Q 502.90973 376.964685 502.420667 376.720935 
Q 501.933167 376.475622 501.66598 376.028747 
Q 501.400355 375.581872 501.400355 374.991247 
L 501.400355 374.87406 
Q 501.400355 374.34281 501.66598 373.87406 
Q 501.933167 373.40531 502.376917 373.166247 
Q 502.000355 372.959997 501.773792 372.572497 
Q 501.54723 372.183435 501.54723 371.753747 
L 501.54723 371.583435 
Q 501.54723 371.027185 501.795667 370.60531 
Q 502.044105 370.181872 502.498792 369.950622 
Q 502.95348 369.71781 503.55348 369.71781 
Q 504.15348 369.71781 504.608167 369.950622 
Q 505.062855 370.181872 505.311292 370.60531 
Q 505.55973 371.027185 505.55973 371.583435 
L 505.55973 371.753747 
Q 505.55973 372.194372 505.32848 372.58031 
Q 505.09723 372.964685 504.71598 373.166247 
Q 505.164417 373.409997 505.43473 373.877185 
Q 505.706605 374.34281 505.706605 374.87406 
L 505.706605 374.991247 
Q 505.706605 375.581872 505.44098 376.028747 
Q 505.175355 376.475622 504.686292 376.720935 
Q 504.198792 376.964685 503.55348 376.964685 
z
M 503.55348 376.006872 
Q 503.900355 376.006872 504.162855 375.870935 
Q 504.426918 375.733435 504.570667 375.488122 
Q 504.71598 375.241247 504.71598 374.91781 
L 504.71598 374.850622 
Q 504.71598 374.522497 504.570667 374.277185 
Q 504.426918 374.03031 504.162855 373.894372 
Q 503.900355 373.756872 503.55348 373.756872 
Q 503.206605 373.756872 502.942543 373.894372 
Q 502.680042 374.03031 502.53473 374.278747 
Q 502.39098 374.527185 502.39098 374.85531 
L 502.39098 374.928747 
Q 502.39098 375.250622 502.53473 375.494372 
Q 502.680042 375.738122 502.942543 375.872497 
Q 503.206605 376.006872 503.55348 376.006872 
z
M 503.55348 372.79906 
Q 503.851917 372.79906 504.080042 372.670935 
Q 504.30973 372.541247 504.436292 372.302185 
Q 504.564417 372.06156 504.564417 371.74906 
L 504.564417 371.681872 
Q 504.564417 371.383435 504.436292 371.153747 
Q 504.30973 370.92406 504.080042 370.800622 
Q 503.851917 370.675622 503.55348 370.675622 
Q 503.255043 370.675622 503.025355 370.800622 
Q 502.79723 370.92406 502.669105 371.153747 
Q 502.542542 371.383435 502.542542 371.68656 
L 502.542542 371.759997 
Q 502.542542 372.066247 502.669105 372.303747 
Q 502.79723 372.541247 503.025355 372.670935 
Q 503.255043 372.79906 503.55348 372.79906 
z
M 508.93473 376.964685 
Q 508.339417 376.964685 507.88473 376.747497 
Q 507.430042 376.53031 507.15348 376.11781 
Q 506.87848 375.70531 506.805042 375.12406 
L 506.805042 375.12406 
L 507.820667 375.12406 
L 507.820667 375.12406 
Q 507.864418 375.425622 508.011292 375.620935 
Q 508.158167 375.816247 508.389417 375.91156 
Q 508.62223 376.006872 508.93473 376.006872 
Q 509.426918 376.006872 509.700355 375.744372 
Q 509.973793 375.48031 509.973793 375.002185 
L 509.973793 374.78656 
Q 509.973793 374.253747 509.714417 373.964685 
Q 509.456605 373.67406 508.983167 373.67406 
L 508.480042 373.67406 
L 508.480042 372.725622 
L 508.983167 372.725622 
Q 509.398792 372.725622 509.626917 372.477185 
Q 509.856605 372.228747 509.856605 371.77406 
L 509.856605 371.553747 
Q 509.856605 371.134997 509.614418 370.90531 
Q 509.373792 370.675622 508.930042 370.675622 
Q 508.675355 370.675622 508.475355 370.770935 
Q 508.275355 370.866247 508.136292 371.064685 
Q 507.99723 371.26156 507.933167 371.558435 
L 507.933167 371.558435 
L 506.92223 371.558435 
L 506.92223 371.558435 
Q 507.020668 370.978747 507.29098 370.563122 
Q 507.562855 370.147497 507.976917 369.933435 
Q 508.392542 369.71781 508.930042 369.71781 
Q 509.84723 369.71781 510.350355 370.202185 
Q 510.85348 370.684997 510.85348 371.564685 
L 510.85348 371.681872 
Q 510.85348 372.213122 510.564417 372.608435 
Q 510.276917 373.003747 509.750355 373.184997 
Q 510.331605 373.31156 510.650355 373.756872 
Q 510.970667 374.200622 510.970667 374.889685 
L 510.970667 375.006872 
Q 510.970667 375.627185 510.731605 376.066247 
Q 510.492542 376.50531 510.03473 376.734997 
Q 509.57848 376.964685 508.93473 376.964685 
z
M 514.413441 376.964685 
Q 513.416566 376.964685 512.900941 376.433435 
Q 512.386878 375.900622 512.386878 374.947497 
L 512.386878 371.720935 
Q 512.386878 370.763122 512.904066 370.233435 
Q 513.421253 369.703747 514.413441 369.703747 
Q 515.408753 369.703747 515.924378 370.231872 
Q 516.440003 370.758435 516.440003 371.720935 
L 516.440003 374.947497 
Q 516.440003 375.90531 515.921253 376.434997 
Q 515.404066 376.964685 514.413441 376.964685 
z
M 514.413441 376.01781 
Q 514.940003 376.01781 515.191566 375.741247 
Q 515.443128 375.464685 515.443128 374.947497 
L 515.443128 371.720935 
Q 515.443128 371.202185 515.193128 370.927185 
Q 514.944691 370.650622 514.413441 370.650622 
Q 513.880628 370.650622 513.630628 370.927185 
Q 513.382191 371.202185 513.382191 371.720935 
L 513.382191 374.947497 
Q 513.382191 375.464685 513.633753 375.741247 
Q 513.885316 376.01781 514.413441 376.01781 
z
M 519.931019 376.964685 
Q 518.934144 376.964685 518.418519 376.433435 
Q 517.904457 375.900622 517.904457 374.947497 
L 517.904457 371.720935 
Q 517.904457 370.763122 518.421644 370.233435 
Q 518.938832 369.703747 519.931019 369.703747 
Q 520.926332 369.703747 521.441957 370.231872 
Q 521.957582 370.758435 521.957582 371.720935 
L 521.957582 374.947497 
Q 521.957582 375.90531 521.438832 376.434997 
Q 520.921644 376.964685 519.931019 376.964685 
z
M 519.931019 376.01781 
Q 520.457582 376.01781 520.709144 375.741247 
Q 520.960707 375.464685 520.960707 374.947497 
L 520.960707 371.720935 
Q 520.960707 371.202185 520.710707 370.927185 
Q 520.462269 370.650622 519.931019 370.650622 
Q 519.398207 370.650622 519.148207 370.927185 
Q 518.899769 371.202185 518.899769 371.720935 
L 518.899769 374.947497 
Q 518.899769 375.464685 519.151332 375.741247 
Q 519.402894 376.01781 519.931019 376.01781 
z
M 527.670082 376.964685 
Q 526.884144 376.964685 526.324769 376.65531 
Q 525.765394 376.344372 525.471644 375.752185 
Q 525.179457 375.158435 525.179457 374.322497 
L 525.179457 369.791247 
L 526.176332 369.791247 
L 526.176332 374.356872 
Q 526.176332 375.133435 526.566957 375.558435 
Q 526.957582 375.983435 527.670082 375.983435 
Q 528.387269 375.983435 528.779457 375.558435 
Q 529.173207 375.133435 529.173207 374.356872 
L 529.173207 369.791247 
L 530.170082 369.791247 
L 530.170082 374.322497 
Q 530.170082 375.158435 529.876332 375.752185 
Q 529.584144 376.344372 529.021644 376.65531 
Q 528.460707 376.964685 527.670082 376.964685 
z
M 532.729066 375.581872 
Q 532.729066 375.76781 532.808753 375.86781 
Q 532.890003 375.96781 533.035316 375.96781 
L 533.504066 375.96781 
L 533.504066 376.916247 
L 532.918128 376.916247 
Q 532.352503 376.916247 532.041566 376.564685 
Q 531.732191 376.213122 531.732191 375.572497 
L 531.732191 369.791247 
L 532.729066 369.791247 
L 532.729066 375.581872 
z
M 535.946449 376.916247 
Q 535.330824 376.916247 535.044886 376.577185 
Q 534.758949 376.23656 534.758949 375.572497 
L 534.758949 370.347497 
L 535.755824 370.347497 
L 535.755824 375.581872 
Q 535.755824 375.76781 535.829261 375.86781 
Q 535.902699 375.96781 536.043324 375.96781 
L 536.523011 375.96781 
L 536.523011 376.916247 
L 535.946449 376.916247 
z
M 534.237074 371.822497 
L 536.523011 371.822497 
L 536.523011 372.720935 
L 534.237074 372.720935 
L 534.237074 371.822497 
z
M 537.889418 371.822497 
L 538.886292 371.822497 
L 538.886292 376.891247 
L 537.889418 376.891247 
L 537.889418 371.822497 
z
M 540.676917 373.02406 
Q 540.545668 372.863122 540.345667 372.78031 
Q 540.145667 372.697497 539.881605 372.697497 
Q 539.408167 372.697497 539.14723 372.958435 
Q 538.886292 373.219372 538.886292 373.683435 
L 538.783167 372.706872 
Q 539.017542 372.252185 539.387855 372.000622 
Q 539.75973 371.74906 540.208167 371.74906 
Q 540.555043 371.74906 540.836293 371.84906 
Q 541.117543 371.94906 541.326918 372.144372 
L 540.676917 373.02406 
z
M 545.017933 373.678747 
Q 545.017933 373.18031 544.752308 372.90531 
Q 544.486683 372.628747 543.997621 372.628747 
Q 543.694496 372.628747 543.403871 372.722497 
Q 543.114808 372.814685 542.889808 372.98031 
L 542.161683 372.481872 
Q 542.450746 372.134997 542.921058 371.94281 
Q 543.392933 371.74906 543.967933 371.74906 
Q 544.599183 371.74906 545.047621 371.972497 
Q 545.497621 372.194372 545.731996 372.616247 
Q 545.966371 373.038122 545.966371 373.634997 
L 545.966371 376.891247 
L 545.017933 376.891247 
L 545.017933 373.678747 
z
M 543.778871 376.964685 
Q 542.841371 376.964685 542.377308 376.577185 
Q 541.913246 376.188122 541.913246 375.397497 
Q 541.913246 374.644372 542.338246 374.269372 
Q 542.763246 373.89281 543.622621 373.89281 
L 545.061683 373.89281 
L 545.130433 374.694372 
L 543.627308 374.694372 
Q 543.236683 374.694372 543.042933 374.86781 
Q 542.850746 375.041247 542.850746 375.397497 
Q 542.850746 375.783435 543.106996 375.969372 
Q 543.363246 376.153747 543.885121 376.153747 
Q 544.456996 376.153747 544.736683 376.031872 
Q 545.017933 375.909997 545.017933 375.650622 
L 545.121058 376.363122 
Q 544.989808 376.569372 544.796058 376.700622 
Q 544.603871 376.831872 544.349183 376.897497 
Q 544.096058 376.964685 543.778871 376.964685 
z
" style="fill: #ffffff; stroke: #000000"/>
    <path d="M 495.731605 375.944372 
L 497.337855 375.944372 
Q 498.123792 375.944372 498.555042 375.53656 
Q 498.987855 375.128747 498.987855 374.38656 
L 498.987855 372.295935 
Q 498.987855 371.553747 498.555042 371.145935 
Q 498.123792 370.738122 497.337855 370.738122 
L 495.731605 370.738122 
L 495.731605 369.791247 
L 497.308167 369.791247 
Q 498.162855 369.791247 498.767542 370.089685 
Q 499.373792 370.38656 499.69098 370.958435 
Q 500.008167 371.53031 500.008167 372.334997 
L 500.008167 374.347497 
Q 500.008167 375.152185 499.69098 375.72406 
Q 499.373792 376.295935 498.76598 376.594372 
Q 498.158167 376.891247 497.30348 376.891247 
L 495.731605 376.891247 
L 495.731605 375.944372 
z
M 495.058167 369.791247 
L 496.05348 369.791247 
L 496.05348 376.891247 
L 495.058167 376.891247 
L 495.058167 369.791247 
z
M 503.55348 376.964685 
Q 502.90973 376.964685 502.420667 376.720935 
Q 501.933167 376.475622 501.66598 376.028747 
Q 501.400355 375.581872 501.400355 374.991247 
L 501.400355 374.87406 
Q 501.400355 374.34281 501.66598 373.87406 
Q 501.933167 373.40531 502.376917 373.166247 
Q 502.000355 372.959997 501.773792 372.572497 
Q 501.54723 372.183435 501.54723 371.753747 
L 501.54723 371.583435 
Q 501.54723 371.027185 501.795667 370.60531 
Q 502.044105 370.181872 502.498792 369.950622 
Q 502.95348 369.71781 503.55348 369.71781 
Q 504.15348 369.71781 504.608167 369.950622 
Q 505.062855 370.181872 505.311292 370.60531 
Q 505.55973 371.027185 505.55973 371.583435 
L 505.55973 371.753747 
Q 505.55973 372.194372 505.32848 372.58031 
Q 505.09723 372.964685 504.71598 373.166247 
Q 505.164417 373.409997 505.43473 373.877185 
Q 505.706605 374.34281 505.706605 374.87406 
L 505.706605 374.991247 
Q 505.706605 375.581872 505.44098 376.028747 
Q 505.175355 376.475622 504.686292 376.720935 
Q 504.198792 376.964685 503.55348 376.964685 
z
M 503.55348 376.006872 
Q 503.900355 376.006872 504.162855 375.870935 
Q 504.426918 375.733435 504.570667 375.488122 
Q 504.71598 375.241247 504.71598 374.91781 
L 504.71598 374.850622 
Q 504.71598 374.522497 504.570667 374.277185 
Q 504.426918 374.03031 504.162855 373.894372 
Q 503.900355 373.756872 503.55348 373.756872 
Q 503.206605 373.756872 502.942543 373.894372 
Q 502.680042 374.03031 502.53473 374.278747 
Q 502.39098 374.527185 502.39098 374.85531 
L 502.39098 374.928747 
Q 502.39098 375.250622 502.53473 375.494372 
Q 502.680042 375.738122 502.942543 375.872497 
Q 503.206605 376.006872 503.55348 376.006872 
z
M 503.55348 372.79906 
Q 503.851917 372.79906 504.080042 372.670935 
Q 504.30973 372.541247 504.436292 372.302185 
Q 504.564417 372.06156 504.564417 371.74906 
L 504.564417 371.681872 
Q 504.564417 371.383435 504.436292 371.153747 
Q 504.30973 370.92406 504.080042 370.800622 
Q 503.851917 370.675622 503.55348 370.675622 
Q 503.255043 370.675622 503.025355 370.800622 
Q 502.79723 370.92406 502.669105 371.153747 
Q 502.542542 371.383435 502.542542 371.68656 
L 502.542542 371.759997 
Q 502.542542 372.066247 502.669105 372.303747 
Q 502.79723 372.541247 503.025355 372.670935 
Q 503.255043 372.79906 503.55348 372.79906 
z
M 508.93473 376.964685 
Q 508.339417 376.964685 507.88473 376.747497 
Q 507.430042 376.53031 507.15348 376.11781 
Q 506.87848 375.70531 506.805042 375.12406 
L 506.805042 375.12406 
L 507.820667 375.12406 
L 507.820667 375.12406 
Q 507.864418 375.425622 508.011292 375.620935 
Q 508.158167 375.816247 508.389417 375.91156 
Q 508.62223 376.006872 508.93473 376.006872 
Q 509.426918 376.006872 509.700355 375.744372 
Q 509.973793 375.48031 509.973793 375.002185 
L 509.973793 374.78656 
Q 509.973793 374.253747 509.714417 373.964685 
Q 509.456605 373.67406 508.983167 373.67406 
L 508.480042 373.67406 
L 508.480042 372.725622 
L 508.983167 372.725622 
Q 509.398792 372.725622 509.626917 372.477185 
Q 509.856605 372.228747 509.856605 371.77406 
L 509.856605 371.553747 
Q 509.856605 371.134997 509.614418 370.90531 
Q 509.373792 370.675622 508.930042 370.675622 
Q 508.675355 370.675622 508.475355 370.770935 
Q 508.275355 370.866247 508.136292 371.064685 
Q 507.99723 371.26156 507.933167 371.558435 
L 507.933167 371.558435 
L 506.92223 371.558435 
L 506.92223 371.558435 
Q 507.020668 370.978747 507.29098 370.563122 
Q 507.562855 370.147497 507.976917 369.933435 
Q 508.392542 369.71781 508.930042 369.71781 
Q 509.84723 369.71781 510.350355 370.202185 
Q 510.85348 370.684997 510.85348 371.564685 
L 510.85348 371.681872 
Q 510.85348 372.213122 510.564417 372.608435 
Q 510.276917 373.003747 509.750355 373.184997 
Q 510.331605 373.31156 510.650355 373.756872 
Q 510.970667 374.200622 510.970667 374.889685 
L 510.970667 375.006872 
Q 510.970667 375.627185 510.731605 376.066247 
Q 510.492542 376.50531 510.03473 376.734997 
Q 509.57848 376.964685 508.93473 376.964685 
z
M 514.413441 376.964685 
Q 513.416566 376.964685 512.900941 376.433435 
Q 512.386878 375.900622 512.386878 374.947497 
L 512.386878 371.720935 
Q 512.386878 370.763122 512.904066 370.233435 
Q 513.421253 369.703747 514.413441 369.703747 
Q 515.408753 369.703747 515.924378 370.231872 
Q 516.440003 370.758435 516.440003 371.720935 
L 516.440003 374.947497 
Q 516.440003 375.90531 515.921253 376.434997 
Q 515.404066 376.964685 514.413441 376.964685 
z
M 514.413441 376.01781 
Q 514.940003 376.01781 515.191566 375.741247 
Q 515.443128 375.464685 515.443128 374.947497 
L 515.443128 371.720935 
Q 515.443128 371.202185 515.193128 370.927185 
Q 514.944691 370.650622 514.413441 370.650622 
Q 513.880628 370.650622 513.630628 370.927185 
Q 513.382191 371.202185 513.382191 371.720935 
L 513.382191 374.947497 
Q 513.382191 375.464685 513.633753 375.741247 
Q 513.885316 376.01781 514.413441 376.01781 
z
M 519.931019 376.964685 
Q 518.934144 376.964685 518.418519 376.433435 
Q 517.904457 375.900622 517.904457 374.947497 
L 517.904457 371.720935 
Q 517.904457 370.763122 518.421644 370.233435 
Q 518.938832 369.703747 519.931019 369.703747 
Q 520.926332 369.703747 521.441957 370.231872 
Q 521.957582 370.758435 521.957582 371.720935 
L 521.957582 374.947497 
Q 521.957582 375.90531 521.438832 376.434997 
Q 520.921644 376.964685 519.931019 376.964685 
z
M 519.931019 376.01781 
Q 520.457582 376.01781 520.709144 375.741247 
Q 520.960707 375.464685 520.960707 374.947497 
L 520.960707 371.720935 
Q 520.960707 371.202185 520.710707 370.927185 
Q 520.462269 370.650622 519.931019 370.650622 
Q 519.398207 370.650622 519.148207 370.927185 
Q 518.899769 371.202185 518.899769 371.720935 
L 518.899769 374.947497 
Q 518.899769 375.464685 519.151332 375.741247 
Q 519.402894 376.01781 519.931019 376.01781 
z
M 527.670082 376.964685 
Q 526.884144 376.964685 526.324769 376.65531 
Q 525.765394 376.344372 525.471644 375.752185 
Q 525.179457 375.158435 525.179457 374.322497 
L 525.179457 369.791247 
L 526.176332 369.791247 
L 526.176332 374.356872 
Q 526.176332 375.133435 526.566957 375.558435 
Q 526.957582 375.983435 527.670082 375.983435 
Q 528.387269 375.983435 528.779457 375.558435 
Q 529.173207 375.133435 529.173207 374.356872 
L 529.173207 369.791247 
L 530.170082 369.791247 
L 530.170082 374.322497 
Q 530.170082 375.158435 529.876332 375.752185 
Q 529.584144 376.344372 529.021644 376.65531 
Q 528.460707 376.964685 527.670082 376.964685 
z
M 532.729066 375.581872 
Q 532.729066 375.76781 532.808753 375.86781 
Q 532.890003 375.96781 533.035316 375.96781 
L 533.504066 375.96781 
L 533.504066 376.916247 
L 532.918128 376.916247 
Q 532.352503 376.916247 532.041566 376.564685 
Q 531.732191 376.213122 531.732191 375.572497 
L 531.732191 369.791247 
L 532.729066 369.791247 
L 532.729066 375.581872 
z
M 535.946449 376.916247 
Q 535.330824 376.916247 535.044886 376.577185 
Q 534.758949 376.23656 534.758949 375.572497 
L 534.758949 370.347497 
L 535.755824 370.347497 
L 535.755824 375.581872 
Q 535.755824 375.76781 535.829261 375.86781 
Q 535.902699 375.96781 536.043324 375.96781 
L 536.523011 375.96781 
L 536.523011 376.916247 
L 535.946449 376.916247 
z
M 534.237074 371.822497 
L 536.523011 371.822497 
L 536.523011 372.720935 
L 534.237074 372.720935 
L 534.237074 371.822497 
z
M 537.889418 371.822497 
L 538.886292 371.822497 
L 538.886292 376.891247 
L 537.889418 376.891247 
L 537.889418 371.822497 
z
M 540.676917 373.02406 
Q 540.545668 372.863122 540.345667 372.78031 
Q 540.145667 372.697497 539.881605 372.697497 
Q 539.408167 372.697497 539.14723 372.958435 
Q 538.886292 373.219372 538.886292 373.683435 
L 538.783167 372.706872 
Q 539.017542 372.252185 539.387855 372.000622 
Q 539.75973 371.74906 540.208167 371.74906 
Q 540.555043 371.74906 540.836293 371.84906 
Q 541.117543 371.94906 541.326918 372.144372 
L 540.676917 373.02406 
z
M 545.017933 373.678747 
Q 545.017933 373.18031 544.752308 372.90531 
Q 544.486683 372.628747 543.997621 372.628747 
Q 543.694496 372.628747 543.403871 372.722497 
Q 543.114808 372.814685 542.889808 372.98031 
L 542.161683 372.481872 
Q 542.450746 372.134997 542.921058 371.94281 
Q 543.392933 371.74906 543.967933 371.74906 
Q 544.599183 371.74906 545.047621 371.972497 
Q 545.497621 372.194372 545.731996 372.616247 
Q 545.966371 373.038122 545.966371 373.634997 
L 545.966371 376.891247 
L 545.017933 376.891247 
L 545.017933 373.678747 
z
M 543.778871 376.964685 
Q 542.841371 376.964685 542.377308 376.577185 
Q 541.913246 376.188122 541.913246 375.397497 
Q 541.913246 374.644372 542.338246 374.269372 
Q 542.763246 373.89281 543.622621 373.89281 
L 545.061683 373.89281 
L 545.130433 374.694372 
L 543.627308 374.694372 
Q 543.236683 374.694372 543.042933 374.86781 
Q 542.850746 375.041247 542.850746 375.397497 
Q 542.850746 375.783435 543.106996 375.969372 
Q 543.363246 376.153747 543.885121 376.153747 
Q 544.456996 376.153747 544.736683 376.031872 
Q 545.017933 375.909997 545.017933 375.650622 
L 545.121058 376.363122 
Q 544.989808 376.569372 544.796058 376.700622 
Q 544.603871 376.831872 544.349183 376.897497 
Q 544.096058 376.964685 543.778871 376.964685 
z
" style="fill: #ffffff"/>
   </g>
  </g>
 </g>
 <defs>
  <clipPath id="p04ca78d5bf">
   <rect x="144" y="77.76" width="892.8" height="498.96"/>
  </clipPath>
 </defs>
</svg>
