<?xml version="1.0" encoding="utf-8" standalone="no"?>
<!DOCTYPE svg PUBLIC "-//W3C//DTD SVG 1.1//EN"
  "http://www.w3.org/Graphics/SVG/1.1/DTD/svg11.dtd">
<svg xmlns:xlink="http://www.w3.org/1999/xlink" width="1152pt" height="648pt" viewBox="0 0 1152 648" xmlns="http://www.w3.org/2000/svg" version="1.1">
 <metadata>
  <rdf:RDF xmlns:dc="http://purl.org/dc/elements/1.1/" xmlns:cc="http://creativecommons.org/ns#" xmlns:rdf="http://www.w3.org/1999/02/22-rdf-syntax-ns#">
   <cc:Work>
    <dc:type rdf:resource="http://purl.org/dc/dcmitype/StillImage"/>
    <dc:date>2024-10-09T18:10:38.644654</dc:date>
    <dc:format>image/svg+xml</dc:format>
    <dc:creator>
     <cc:Agent>
      <dc:title>Matplotlib v3.8.1, https://matplotlib.org/</dc:title>
     </cc:Agent>
    </dc:creator>
   </cc:Work>
  </rdf:RDF>
 </metadata>
 <defs>
  <style type="text/css">*{stroke-linejoin: round; stroke-linecap: butt}</style>
 </defs>
 <g id="figure_1">
  <g id="patch_1">
   <path d="M 0 648 
L 1152 648 
L 1152 0 
L 0 0 
L 0 648 
z
" style="fill: none"/>
  </g>
  <g id="axes_1">
   <g id="line2d_1">
    <path d="M 226.584 535.324949 
L 229.712182 533.714547 
L 232.840364 532.120059 
L 235.968545 530.541474 
L 239.096727 528.978778 
L 242.224909 527.43195 
L 245.353091 525.900966 
L 248.481273 524.385799 
L 251.609455 522.886417 
L 254.737636 521.402784 
L 257.865818 519.934863 
L 260.994 518.482608 
L 264.122182 517.045976 
L 267.250364 515.624915 
L 270.378545 514.219373 
L 273.506727 512.829294 
L 276.634909 511.454618 
L 279.763091 510.095283 
L 282.891273 508.751225 
L 286.019455 507.422374 
L 289.147636 506.10866 
L 292.275818 504.810009 
L 295.404 503.526346 
L 298.532182 502.257592 
L 301.660364 501.003666 
L 304.788545 499.764485 
L 307.916727 498.539963 
L 311.044909 497.330013 
L 314.173091 496.134546 
L 317.301273 494.953469 
L 320.429455 493.786691 
L 323.557636 492.634114 
L 326.685818 491.495644 
L 329.814 490.371181 
L 332.942182 489.260625 
L 336.070364 488.163875 
L 339.198545 487.080829 
L 342.326727 486.011382 
L 345.454909 484.955429 
L 348.583091 483.912864 
L 351.711273 482.883579 
L 354.839455 481.867465 
L 357.967636 480.864414 
L 361.095818 479.874314 
L 364.224 478.897055 
L 367.352182 477.932525 
L 370.480364 476.980612 
L 373.608545 476.041201 
L 376.736727 475.11418 
L 379.864909 474.199434 
L 382.993091 473.296848 
L 386.121273 472.406308 
L 389.249455 471.527698 
L 392.377636 470.660902 
L 395.505818 469.805805 
L 398.634 468.962291 
L 401.762182 468.130243 
L 404.890364 467.309545 
L 408.018545 466.50008 
L 411.146727 465.701734 
L 414.274909 464.914388 
L 417.403091 464.137927 
L 420.531273 463.372236 
L 423.659455 462.617198 
L 426.787636 461.872697 
L 429.915818 461.138619 
L 433.044 460.414847 
L 436.172182 459.701269 
L 439.300364 458.997768 
L 442.428545 458.304231 
L 445.556727 457.620544 
L 448.684909 456.946595 
L 451.813091 456.282269 
L 454.941273 455.627456 
L 458.069455 454.982044 
L 461.197636 454.345921 
L 464.325818 453.718977 
L 467.454 453.101101 
L 470.582182 452.492185 
L 473.710364 451.89212 
L 476.838545 451.300797 
L 479.966727 450.71811 
L 483.094909 450.143951 
L 486.223091 449.578215 
L 489.351273 449.020796 
L 492.479455 448.47159 
L 495.607636 447.930492 
L 498.735818 447.397401 
L 501.864 446.872214 
L 504.992182 446.354829 
L 508.120364 445.845145 
L 511.248545 445.343064 
L 514.376727 444.848486 
L 517.504909 444.361312 
L 520.633091 443.881446 
L 523.761273 443.408791 
L 526.889455 442.943251 
L 530.017636 442.484732 
L 533.145818 442.03314 
L 536.274 441.588382 
" clip-path="url(#p6bb9a61776)" style="fill: none; stroke: #79def2; stroke-width: 3; stroke-linecap: round"/>
   </g>
   <g id="text_1">
    <path d="M 507.79298 449.091675 
Q 507.28048 449.091675 506.821105 448.9948 
Q 506.363293 448.896362 505.964855 448.70105 
Q 505.566418 448.505737 505.219542 448.211987 
L 505.219542 448.211987 
L 505.839855 447.45105 
L 505.839855 447.45105 
Q 506.246105 447.802612 506.733605 447.979175 
Q 507.222668 448.154175 507.79298 448.154175 
Q 508.564855 448.154175 508.989855 447.868237 
Q 509.414855 447.5823 509.414855 447.060425 
L 509.414855 447.055737 
Q 509.414855 446.683862 509.221105 446.466675 
Q 509.028918 446.249487 508.722668 446.1448 
Q 508.41798 446.040112 507.935168 445.95105 
Q 507.919543 445.946362 507.902355 445.946362 
Q 507.88673 445.946362 507.871105 445.941675 
L 507.797667 445.927612 
Q 507.085168 445.805737 506.638293 445.652612 
Q 506.191418 445.497925 505.87423 445.090112 
Q 505.557043 444.6823 505.557043 443.930737 
L 505.557043 443.92605 
Q 505.557043 443.266675 505.852355 442.80105 
Q 506.147668 442.333862 506.713293 442.090112 
Q 507.28048 441.8448 508.075793 441.8448 
Q 508.457043 441.8448 508.825793 441.929175 
Q 509.194543 442.011987 509.552355 442.17605 
Q 509.91173 442.33855 510.258605 442.586987 
L 510.258605 442.586987 
L 509.69298 443.379175 
L 509.69298 443.379175 
Q 509.28673 443.080737 508.883605 442.9323 
Q 508.482043 442.7823 508.075793 442.7823 
Q 507.34923 442.7823 506.946105 443.072925 
Q 506.54298 443.36355 506.54298 443.896362 
L 506.54298 443.90105 
Q 506.54298 444.266675 506.750792 444.477612 
Q 506.958605 444.686987 507.26798 444.786987 
Q 507.578917 444.886987 508.13048 444.9948 
Q 508.14923 444.999487 508.166418 445.002612 
Q 508.183605 445.004175 508.203917 445.008862 
Q 508.227355 445.01355 508.257043 445.0198 
Q 508.28673 445.024487 508.310168 445.029175 
Q 508.95548 445.160425 509.38673 445.341675 
Q 509.819543 445.521362 510.110167 445.924487 
Q 510.400793 446.327612 510.400793 447.02605 
L 510.400793 447.035425 
Q 510.400793 447.685425 510.09298 448.146362 
Q 509.785168 448.6073 509.200793 448.849487 
Q 508.61798 449.091675 507.79298 449.091675 
z
M 512.490832 448.071362 
L 514.097082 448.071362 
Q 514.883019 448.071362 515.314269 447.66355 
Q 515.747082 447.255737 515.747082 446.51355 
L 515.747082 444.422925 
Q 515.747082 443.680737 515.314269 443.272925 
Q 514.883019 442.865112 514.097082 442.865112 
L 512.490832 442.865112 
L 512.490832 441.918237 
L 514.067394 441.918237 
Q 514.922082 441.918237 515.526769 442.216675 
Q 516.133019 442.51355 516.450207 443.085425 
Q 516.767394 443.6573 516.767394 444.461987 
L 516.767394 446.474487 
Q 516.767394 447.279175 516.450207 447.85105 
Q 516.133019 448.422925 515.525207 448.721362 
Q 514.917394 449.018237 514.062707 449.018237 
L 512.490832 449.018237 
L 512.490832 448.071362 
z
M 511.817394 441.918237 
L 512.812707 441.918237 
L 512.812707 449.018237 
L 511.817394 449.018237 
L 511.817394 441.918237 
z
M 520.312707 449.091675 
Q 519.668957 449.091675 519.179894 448.847925 
Q 518.692394 448.602612 518.425207 448.155737 
Q 518.159582 447.708862 518.159582 447.118237 
L 518.159582 447.00105 
Q 518.159582 446.4698 518.425207 446.00105 
Q 518.692394 445.5323 519.136144 445.293237 
Q 518.759582 445.086987 518.533019 444.699487 
Q 518.306457 444.310425 518.306457 443.880737 
L 518.306457 443.710425 
Q 518.306457 443.154175 518.554894 442.7323 
Q 518.803332 442.308862 519.258019 442.077612 
Q 519.712707 441.8448 520.312707 441.8448 
Q 520.912707 441.8448 521.367394 442.077612 
Q 521.822082 442.308862 522.070519 442.7323 
Q 522.318957 443.154175 522.318957 443.710425 
L 522.318957 443.880737 
Q 522.318957 444.321362 522.087707 444.7073 
Q 521.856457 445.091675 521.475207 445.293237 
Q 521.923644 445.536987 522.193957 446.004175 
Q 522.465832 446.4698 522.465832 447.00105 
L 522.465832 447.118237 
Q 522.465832 447.708862 522.200207 448.155737 
Q 521.934582 448.602612 521.445519 448.847925 
Q 520.958019 449.091675 520.312707 449.091675 
z
M 520.312707 448.133862 
Q 520.659582 448.133862 520.922082 447.997925 
Q 521.186144 447.860425 521.329894 447.615112 
Q 521.475207 447.368237 521.475207 447.0448 
L 521.475207 446.977612 
Q 521.475207 446.649487 521.329894 446.404175 
Q 521.186144 446.1573 520.922082 446.021362 
Q 520.659582 445.883862 520.312707 445.883862 
Q 519.965832 445.883862 519.701769 446.021362 
Q 519.439269 446.1573 519.293957 446.405737 
Q 519.150207 446.654175 519.150207 446.9823 
L 519.150207 447.055737 
Q 519.150207 447.377612 519.293957 447.621362 
Q 519.439269 447.865112 519.701769 447.999487 
Q 519.965832 448.133862 520.312707 448.133862 
z
M 520.312707 444.92605 
Q 520.611144 444.92605 520.839269 444.797925 
Q 521.068957 444.668237 521.195519 444.429175 
Q 521.323644 444.18855 521.323644 443.87605 
L 521.323644 443.808862 
Q 521.323644 443.510425 521.195519 443.280737 
Q 521.068957 443.05105 520.839269 442.927612 
Q 520.611144 442.802612 520.312707 442.802612 
Q 520.014269 442.802612 519.784582 442.927612 
Q 519.556457 443.05105 519.428332 443.280737 
Q 519.301769 443.510425 519.301769 443.81355 
L 519.301769 443.886987 
Q 519.301769 444.193237 519.428332 444.430737 
Q 519.556457 444.668237 519.784582 444.797925 
Q 520.014269 444.92605 520.312707 444.92605 
z
M 530.567003 445.1948 
L 530.567003 446.435425 
Q 530.567003 447.22605 530.259191 447.829175 
Q 529.951378 448.4323 529.387316 448.761987 
Q 528.823253 449.091675 528.081066 449.091675 
Q 527.329503 449.091675 526.760753 448.7823 
Q 526.192003 448.471362 525.879503 447.905737 
Q 525.567003 447.33855 525.567003 446.591675 
L 525.567003 444.496362 
Q 525.567003 443.705737 525.874816 443.105737 
Q 526.182628 442.504175 526.745128 442.174487 
Q 527.309191 441.8448 528.051378 441.8448 
Q 528.662316 441.8448 529.176378 442.1073 
Q 529.692003 442.368237 530.038878 442.846362 
Q 530.385753 443.324487 530.507628 443.954175 
L 530.507628 443.954175 
L 529.429503 443.954175 
L 529.429503 443.954175 
Q 529.340441 443.597925 529.131066 443.341675 
Q 528.921691 443.085425 528.637316 442.95105 
Q 528.354503 442.816675 528.051378 442.816675 
Q 527.612316 442.816675 527.279503 443.027612 
Q 526.948253 443.236987 526.767003 443.615112 
Q 526.587316 443.993237 526.587316 444.496362 
L 526.587316 446.591675 
Q 526.587316 447.05105 526.771691 447.3948 
Q 526.957628 447.73855 527.296691 447.929175 
Q 527.637316 448.1198 528.081066 448.1198 
Q 528.520128 448.1198 528.851378 447.922925 
Q 529.184191 447.724487 529.365441 447.349487 
Q 529.546691 446.972925 529.546691 446.454175 
L 529.546691 446.146362 
L 528.106066 446.146362 
L 528.106066 445.1948 
L 530.567003 445.1948 
z
M 534.155285 449.091675 
Q 533.45216 449.091675 532.953722 448.827612 
Q 532.456847 448.56355 532.194347 448.054175 
Q 531.93341 447.543237 531.93341 446.821362 
L 531.93341 446.249487 
Q 531.93341 445.497925 532.184972 444.966675 
Q 532.436535 444.433862 532.91466 444.155737 
Q 533.394347 443.87605 534.067785 443.87605 
Q 534.70216 443.87605 535.150597 444.1948 
Q 535.600597 444.511987 535.836535 445.111987 
Q 536.074035 445.711987 536.074035 446.552612 
L 536.074035 446.883862 
L 532.656847 446.883862 
L 532.656847 446.083862 
L 535.12716 446.083862 
L 535.12716 446.083862 
Q 535.08341 445.46355 534.806847 445.1198 
Q 534.531847 444.774487 534.067785 444.774487 
Q 533.500597 444.774487 533.191222 445.146362 
Q 532.881847 445.516675 532.881847 446.196362 
L 532.881847 446.840112 
Q 532.881847 447.4698 533.213097 447.8073 
Q 533.54591 448.1448 534.155285 448.1448 
Q 534.45841 448.1448 534.755285 448.022925 
Q 535.053722 447.899487 535.288097 447.680737 
L 535.288097 447.680737 
L 535.942785 448.333862 
L 535.942785 448.333862 
Q 535.566222 448.696362 535.097472 448.8948 
Q 534.628722 449.091675 534.155285 449.091675 
z
M 537.441613 443.949487 
L 538.438488 443.949487 
L 538.438488 449.018237 
L 537.441613 449.018237 
L 537.441613 443.949487 
z
M 540.518175 445.946362 
Q 540.518175 445.410425 540.24005 445.118237 
Q 539.961925 444.824487 539.4588 444.824487 
Q 538.969738 444.824487 538.704113 445.083862 
Q 538.438488 445.341675 538.438488 445.810425 
L 538.335363 444.833862 
Q 538.569738 444.374487 538.947863 444.12605 
Q 539.325988 443.87605 539.785363 443.87605 
Q 540.610363 443.87605 541.061925 444.416675 
Q 541.513488 444.955737 541.513488 445.941675 
L 541.513488 449.018237 
L 540.518175 449.018237 
L 540.518175 445.946362 
z
M 544.693175 449.018237 
L 543.6963 449.018237 
L 543.6963 443.002612 
L 542.685363 443.622925 
L 542.685363 442.591675 
L 543.6963 441.918237 
L 544.693175 441.918237 
L 544.693175 449.018237 
z
" style="fill: #ffffff; stroke: #000000"/>
    <path d="M 507.79298 449.091675 
Q 507.28048 449.091675 506.821105 448.9948 
Q 506.363293 448.896362 505.964855 448.70105 
Q 505.566418 448.505737 505.219542 448.211987 
L 505.219542 448.211987 
L 505.839855 447.45105 
L 505.839855 447.45105 
Q 506.246105 447.802612 506.733605 447.979175 
Q 507.222668 448.154175 507.79298 448.154175 
Q 508.564855 448.154175 508.989855 447.868237 
Q 509.414855 447.5823 509.414855 447.060425 
L 509.414855 447.055737 
Q 509.414855 446.683862 509.221105 446.466675 
Q 509.028918 446.249487 508.722668 446.1448 
Q 508.41798 446.040112 507.935168 445.95105 
Q 507.919543 445.946362 507.902355 445.946362 
Q 507.88673 445.946362 507.871105 445.941675 
L 507.797667 445.927612 
Q 507.085168 445.805737 506.638293 445.652612 
Q 506.191418 445.497925 505.87423 445.090112 
Q 505.557043 444.6823 505.557043 443.930737 
L 505.557043 443.92605 
Q 505.557043 443.266675 505.852355 442.80105 
Q 506.147668 442.333862 506.713293 442.090112 
Q 507.28048 441.8448 508.075793 441.8448 
Q 508.457043 441.8448 508.825793 441.929175 
Q 509.194543 442.011987 509.552355 442.17605 
Q 509.91173 442.33855 510.258605 442.586987 
L 510.258605 442.586987 
L 509.69298 443.379175 
L 509.69298 443.379175 
Q 509.28673 443.080737 508.883605 442.9323 
Q 508.482043 442.7823 508.075793 442.7823 
Q 507.34923 442.7823 506.946105 443.072925 
Q 506.54298 443.36355 506.54298 443.896362 
L 506.54298 443.90105 
Q 506.54298 444.266675 506.750792 444.477612 
Q 506.958605 444.686987 507.26798 444.786987 
Q 507.578917 444.886987 508.13048 444.9948 
Q 508.14923 444.999487 508.166418 445.002612 
Q 508.183605 445.004175 508.203917 445.008862 
Q 508.227355 445.01355 508.257043 445.0198 
Q 508.28673 445.024487 508.310168 445.029175 
Q 508.95548 445.160425 509.38673 445.341675 
Q 509.819543 445.521362 510.110167 445.924487 
Q 510.400793 446.327612 510.400793 447.02605 
L 510.400793 447.035425 
Q 510.400793 447.685425 510.09298 448.146362 
Q 509.785168 448.6073 509.200793 448.849487 
Q 508.61798 449.091675 507.79298 449.091675 
z
M 512.490832 448.071362 
L 514.097082 448.071362 
Q 514.883019 448.071362 515.314269 447.66355 
Q 515.747082 447.255737 515.747082 446.51355 
L 515.747082 444.422925 
Q 515.747082 443.680737 515.314269 443.272925 
Q 514.883019 442.865112 514.097082 442.865112 
L 512.490832 442.865112 
L 512.490832 441.918237 
L 514.067394 441.918237 
Q 514.922082 441.918237 515.526769 442.216675 
Q 516.133019 442.51355 516.450207 443.085425 
Q 516.767394 443.6573 516.767394 444.461987 
L 516.767394 446.474487 
Q 516.767394 447.279175 516.450207 447.85105 
Q 516.133019 448.422925 515.525207 448.721362 
Q 514.917394 449.018237 514.062707 449.018237 
L 512.490832 449.018237 
L 512.490832 448.071362 
z
M 511.817394 441.918237 
L 512.812707 441.918237 
L 512.812707 449.018237 
L 511.817394 449.018237 
L 511.817394 441.918237 
z
M 520.312707 449.091675 
Q 519.668957 449.091675 519.179894 448.847925 
Q 518.692394 448.602612 518.425207 448.155737 
Q 518.159582 447.708862 518.159582 447.118237 
L 518.159582 447.00105 
Q 518.159582 446.4698 518.425207 446.00105 
Q 518.692394 445.5323 519.136144 445.293237 
Q 518.759582 445.086987 518.533019 444.699487 
Q 518.306457 444.310425 518.306457 443.880737 
L 518.306457 443.710425 
Q 518.306457 443.154175 518.554894 442.7323 
Q 518.803332 442.308862 519.258019 442.077612 
Q 519.712707 441.8448 520.312707 441.8448 
Q 520.912707 441.8448 521.367394 442.077612 
Q 521.822082 442.308862 522.070519 442.7323 
Q 522.318957 443.154175 522.318957 443.710425 
L 522.318957 443.880737 
Q 522.318957 444.321362 522.087707 444.7073 
Q 521.856457 445.091675 521.475207 445.293237 
Q 521.923644 445.536987 522.193957 446.004175 
Q 522.465832 446.4698 522.465832 447.00105 
L 522.465832 447.118237 
Q 522.465832 447.708862 522.200207 448.155737 
Q 521.934582 448.602612 521.445519 448.847925 
Q 520.958019 449.091675 520.312707 449.091675 
z
M 520.312707 448.133862 
Q 520.659582 448.133862 520.922082 447.997925 
Q 521.186144 447.860425 521.329894 447.615112 
Q 521.475207 447.368237 521.475207 447.0448 
L 521.475207 446.977612 
Q 521.475207 446.649487 521.329894 446.404175 
Q 521.186144 446.1573 520.922082 446.021362 
Q 520.659582 445.883862 520.312707 445.883862 
Q 519.965832 445.883862 519.701769 446.021362 
Q 519.439269 446.1573 519.293957 446.405737 
Q 519.150207 446.654175 519.150207 446.9823 
L 519.150207 447.055737 
Q 519.150207 447.377612 519.293957 447.621362 
Q 519.439269 447.865112 519.701769 447.999487 
Q 519.965832 448.133862 520.312707 448.133862 
z
M 520.312707 444.92605 
Q 520.611144 444.92605 520.839269 444.797925 
Q 521.068957 444.668237 521.195519 444.429175 
Q 521.323644 444.18855 521.323644 443.87605 
L 521.323644 443.808862 
Q 521.323644 443.510425 521.195519 443.280737 
Q 521.068957 443.05105 520.839269 442.927612 
Q 520.611144 442.802612 520.312707 442.802612 
Q 520.014269 442.802612 519.784582 442.927612 
Q 519.556457 443.05105 519.428332 443.280737 
Q 519.301769 443.510425 519.301769 443.81355 
L 519.301769 443.886987 
Q 519.301769 444.193237 519.428332 444.430737 
Q 519.556457 444.668237 519.784582 444.797925 
Q 520.014269 444.92605 520.312707 444.92605 
z
M 530.567003 445.1948 
L 530.567003 446.435425 
Q 530.567003 447.22605 530.259191 447.829175 
Q 529.951378 448.4323 529.387316 448.761987 
Q 528.823253 449.091675 528.081066 449.091675 
Q 527.329503 449.091675 526.760753 448.7823 
Q 526.192003 448.471362 525.879503 447.905737 
Q 525.567003 447.33855 525.567003 446.591675 
L 525.567003 444.496362 
Q 525.567003 443.705737 525.874816 443.105737 
Q 526.182628 442.504175 526.745128 442.174487 
Q 527.309191 441.8448 528.051378 441.8448 
Q 528.662316 441.8448 529.176378 442.1073 
Q 529.692003 442.368237 530.038878 442.846362 
Q 530.385753 443.324487 530.507628 443.954175 
L 530.507628 443.954175 
L 529.429503 443.954175 
L 529.429503 443.954175 
Q 529.340441 443.597925 529.131066 443.341675 
Q 528.921691 443.085425 528.637316 442.95105 
Q 528.354503 442.816675 528.051378 442.816675 
Q 527.612316 442.816675 527.279503 443.027612 
Q 526.948253 443.236987 526.767003 443.615112 
Q 526.587316 443.993237 526.587316 444.496362 
L 526.587316 446.591675 
Q 526.587316 447.05105 526.771691 447.3948 
Q 526.957628 447.73855 527.296691 447.929175 
Q 527.637316 448.1198 528.081066 448.1198 
Q 528.520128 448.1198 528.851378 447.922925 
Q 529.184191 447.724487 529.365441 447.349487 
Q 529.546691 446.972925 529.546691 446.454175 
L 529.546691 446.146362 
L 528.106066 446.146362 
L 528.106066 445.1948 
L 530.567003 445.1948 
z
M 534.155285 449.091675 
Q 533.45216 449.091675 532.953722 448.827612 
Q 532.456847 448.56355 532.194347 448.054175 
Q 531.93341 447.543237 531.93341 446.821362 
L 531.93341 446.249487 
Q 531.93341 445.497925 532.184972 444.966675 
Q 532.436535 444.433862 532.91466 444.155737 
Q 533.394347 443.87605 534.067785 443.87605 
Q 534.70216 443.87605 535.150597 444.1948 
Q 535.600597 444.511987 535.836535 445.111987 
Q 536.074035 445.711987 536.074035 446.552612 
L 536.074035 446.883862 
L 532.656847 446.883862 
L 532.656847 446.083862 
L 535.12716 446.083862 
L 535.12716 446.083862 
Q 535.08341 445.46355 534.806847 445.1198 
Q 534.531847 444.774487 534.067785 444.774487 
Q 533.500597 444.774487 533.191222 445.146362 
Q 532.881847 445.516675 532.881847 446.196362 
L 532.881847 446.840112 
Q 532.881847 447.4698 533.213097 447.8073 
Q 533.54591 448.1448 534.155285 448.1448 
Q 534.45841 448.1448 534.755285 448.022925 
Q 535.053722 447.899487 535.288097 447.680737 
L 535.288097 447.680737 
L 535.942785 448.333862 
L 535.942785 448.333862 
Q 535.566222 448.696362 535.097472 448.8948 
Q 534.628722 449.091675 534.155285 449.091675 
z
M 537.441613 443.949487 
L 538.438488 443.949487 
L 538.438488 449.018237 
L 537.441613 449.018237 
L 537.441613 443.949487 
z
M 540.518175 445.946362 
Q 540.518175 445.410425 540.24005 445.118237 
Q 539.961925 444.824487 539.4588 444.824487 
Q 538.969738 444.824487 538.704113 445.083862 
Q 538.438488 445.341675 538.438488 445.810425 
L 538.335363 444.833862 
Q 538.569738 444.374487 538.947863 444.12605 
Q 539.325988 443.87605 539.785363 443.87605 
Q 540.610363 443.87605 541.061925 444.416675 
Q 541.513488 444.955737 541.513488 445.941675 
L 541.513488 449.018237 
L 540.518175 449.018237 
L 540.518175 445.946362 
z
M 544.693175 449.018237 
L 543.6963 449.018237 
L 543.6963 443.002612 
L 542.685363 443.622925 
L 542.685363 442.591675 
L 543.6963 441.918237 
L 544.693175 441.918237 
L 544.693175 449.018237 
z
" style="fill: #ffffff"/>
   </g>
  </g>
 </g>
 <defs>
  <clipPath id="p6bb9a61776">
   <rect x="144" y="77.76" width="892.8" height="498.96"/>
  </clipPath>
 </defs>
</svg>
