<?xml version="1.0" encoding="utf-8" standalone="no"?>
<!DOCTYPE svg PUBLIC "-//W3C//DTD SVG 1.1//EN"
  "http://www.w3.org/Graphics/SVG/1.1/DTD/svg11.dtd">
<svg xmlns:xlink="http://www.w3.org/1999/xlink" width="1152pt" height="648pt" viewBox="0 0 1152 648" xmlns="http://www.w3.org/2000/svg" version="1.1">
 <metadata>
  <rdf:RDF xmlns:dc="http://purl.org/dc/elements/1.1/" xmlns:cc="http://creativecommons.org/ns#" xmlns:rdf="http://www.w3.org/1999/02/22-rdf-syntax-ns#">
   <cc:Work>
    <dc:type rdf:resource="http://purl.org/dc/dcmitype/StillImage"/>
    <dc:date>2024-10-09T18:10:38.946787</dc:date>
    <dc:format>image/svg+xml</dc:format>
    <dc:creator>
     <cc:Agent>
      <dc:title>Matplotlib v3.8.1, https://matplotlib.org/</dc:title>
     </cc:Agent>
    </dc:creator>
   </cc:Work>
  </rdf:RDF>
 </metadata>
 <defs>
  <style type="text/css">*{stroke-linejoin: round; stroke-linecap: butt}</style>
 </defs>
 <g id="figure_1">
  <g id="patch_1">
   <path d="M 0 648 
L 1152 648 
L 1152 0 
L 0 0 
L 0 648 
z
" style="fill: none"/>
  </g>
  <g id="axes_1">
   <g id="line2d_1">
    <path d="M 223.794 544.801284 
L 225.282 544.122501 
L 226.77 543.443966 
L 228.258 542.765923 
L 229.746 542.088619 
L 231.234 541.412297 
L 232.722 540.737202 
L 234.21 540.063573 
L 235.698 539.391651 
L 237.186 538.721672 
L 238.674 538.05387 
L 240.162 537.388476 
L 241.65 536.725717 
L 243.138 536.065817 
L 244.626 535.408996 
L 246.114 534.755469 
L 247.602 534.105447 
L 249.09 533.459137 
L 250.578 532.816738 
L 252.066 532.178448 
L 253.554 531.544457 
L 255.042 530.914949 
L 256.53 530.290104 
L 258.018 529.670093 
L 259.506 529.055085 
L 260.994 528.445239 
L 262.482 527.84071 
L 263.97 527.241644 
L 265.458 526.648184 
L 266.946 526.060463 
L 268.434 525.478608 
L 269.922 524.902742 
L 271.41 524.332977 
L 272.898 523.769422 
L 274.386 523.212176 
L 275.874 522.661333 
L 277.362 522.116981 
L 278.85 521.579199 
L 280.338 521.048061 
L 281.826 520.523635 
L 283.314 520.00598 
L 284.802 519.495151 
L 286.29 518.991196 
L 287.778 518.494156 
L 289.266 518.004067 
L 290.754 517.520959 
L 292.242 517.044854 
L 293.73 516.575772 
L 295.218 516.113725 
L 296.706 515.658719 
L 298.194 515.210757 
L 299.682 514.769835 
L 301.17 514.335946 
L 302.658 513.909075 
L 304.146 513.489206 
L 305.634 513.076317 
L 307.122 512.67038 
L 308.61 512.271367 
L 310.098 511.879242 
L 311.586 511.493968 
L 313.074 511.115502 
L 314.562 510.743801 
L 316.05 510.378815 
L 317.538 510.020493 
L 319.026 509.668782 
L 320.514 509.323624 
L 322.002 508.984959 
L 323.49 508.652726 
L 324.978 508.326861 
L 326.466 508.007298 
L 327.954 507.693967 
L 329.442 507.386799 
L 330.93 507.085723 
L 332.418 506.790664 
L 333.906 506.501549 
L 335.394 506.218302 
L 336.882 505.940845 
L 338.37 505.669101 
L 339.858 505.402991 
L 341.346 505.142434 
L 342.834 504.887352 
L 344.322 504.637662 
L 345.81 504.393283 
L 347.298 504.154134 
L 348.786 503.920133 
L 350.274 503.691198 
L 351.762 503.467246 
L 353.25 503.248196 
L 354.738 503.033964 
L 356.226 502.82447 
L 357.714 502.619631 
L 359.202 502.419366 
L 360.69 502.223593 
L 362.178 502.032233 
L 363.666 501.845204 
L 365.154 501.662428 
L 366.642 501.483824 
L 368.13 501.309314 
L 369.618 501.138821 
L 371.106 500.972266 
" clip-path="url(#p2afd5bbf2d)" style="fill: none; stroke: #f2ca79; stroke-width: 3; stroke-linecap: round"/>
   </g>
   <g id="text_1">
    <path d="M 378.551605 501.671959 
L 380.157855 501.671959 
Q 380.943792 501.671959 381.375042 501.264147 
Q 381.807855 500.856334 381.807855 500.114147 
L 381.807855 498.023522 
Q 381.807855 497.281334 381.375042 496.873522 
Q 380.943792 496.465709 380.157855 496.465709 
L 378.551605 496.465709 
L 378.551605 495.518834 
L 380.128167 495.518834 
Q 380.982855 495.518834 381.587542 495.817272 
Q 382.193792 496.114147 382.51098 496.686022 
Q 382.828167 497.257897 382.828167 498.062584 
L 382.828167 500.075084 
Q 382.828167 500.879772 382.51098 501.451647 
Q 382.193792 502.023522 381.58598 502.321959 
Q 380.978167 502.618834 380.12348 502.618834 
L 378.551605 502.618834 
L 378.551605 501.671959 
z
M 377.878167 495.518834 
L 378.87348 495.518834 
L 378.87348 502.618834 
L 377.878167 502.618834 
L 377.878167 495.518834 
z
M 386.007855 502.618834 
L 385.01098 502.618834 
L 385.01098 496.603209 
L 384.000042 497.223522 
L 384.000042 496.192272 
L 385.01098 495.518834 
L 386.007855 495.518834 
L 386.007855 502.618834 
z
M 387.511175 501.754772 
L 389.986175 498.453209 
Q 390.2018 498.170397 390.32055 497.865709 
Q 390.440863 497.559459 390.440863 497.296959 
L 390.440863 497.286022 
Q 390.440863 496.862584 390.190863 496.628209 
Q 389.942425 496.393834 389.484613 496.393834 
Q 389.048675 496.393834 388.779925 496.650084 
Q 388.512738 496.906334 388.453363 497.375084 
L 388.453363 497.379772 
L 387.423675 497.379772 
L 387.423675 497.375084 
Q 387.511175 496.764147 387.781488 496.332897 
Q 388.053363 495.900084 388.48305 495.673522 
Q 388.912738 495.445397 389.473675 495.445397 
Q 390.109613 495.445397 390.55805 495.662584 
Q 391.00805 495.879772 391.242425 496.295397 
Q 391.4768 496.711022 391.4768 497.296959 
L 391.4768 497.301647 
Q 391.4768 497.676647 391.32055 498.087584 
Q 391.1643 498.496959 390.884613 498.878209 
L 388.829925 501.671959 
L 391.515863 501.671959 
L 391.515863 502.618834 
L 387.511175 502.618834 
L 387.511175 501.754772 
z
M 394.811566 502.692272 
Q 393.814691 502.692272 393.299066 502.161022 
Q 392.785003 501.628209 392.785003 500.675084 
L 392.785003 497.448522 
Q 392.785003 496.490709 393.302191 495.961022 
Q 393.819378 495.431334 394.811566 495.431334 
Q 395.806878 495.431334 396.322503 495.959459 
Q 396.838128 496.486022 396.838128 497.448522 
L 396.838128 500.675084 
Q 396.838128 501.632897 396.319378 502.162584 
Q 395.802191 502.692272 394.811566 502.692272 
z
M 394.811566 501.745397 
Q 395.338128 501.745397 395.589691 501.468834 
Q 395.841253 501.192272 395.841253 500.675084 
L 395.841253 497.448522 
Q 395.841253 496.929772 395.591253 496.654772 
Q 395.342816 496.378209 394.811566 496.378209 
Q 394.278753 496.378209 394.028753 496.654772 
Q 393.780316 496.929772 393.780316 497.448522 
L 393.780316 500.675084 
Q 393.780316 501.192272 394.031878 501.468834 
Q 394.283441 501.745397 394.811566 501.745397 
z
M 400.329144 502.692272 
Q 399.332269 502.692272 398.816644 502.161022 
Q 398.302582 501.628209 398.302582 500.675084 
L 398.302582 497.448522 
Q 398.302582 496.490709 398.819769 495.961022 
Q 399.336957 495.431334 400.329144 495.431334 
Q 401.324457 495.431334 401.840082 495.959459 
Q 402.355707 496.486022 402.355707 497.448522 
L 402.355707 500.675084 
Q 402.355707 501.632897 401.836957 502.162584 
Q 401.319769 502.692272 400.329144 502.692272 
z
M 400.329144 501.745397 
Q 400.855707 501.745397 401.107269 501.468834 
Q 401.358832 501.192272 401.358832 500.675084 
L 401.358832 497.448522 
Q 401.358832 496.929772 401.108832 496.654772 
Q 400.860394 496.378209 400.329144 496.378209 
Q 399.796332 496.378209 399.546332 496.654772 
Q 399.297894 496.929772 399.297894 497.448522 
L 399.297894 500.675084 
Q 399.297894 501.192272 399.549457 501.468834 
Q 399.801019 501.745397 400.329144 501.745397 
z
" style="fill: #ffffff; stroke: #000000"/>
    <path d="M 378.551605 501.671959 
L 380.157855 501.671959 
Q 380.943792 501.671959 381.375042 501.264147 
Q 381.807855 500.856334 381.807855 500.114147 
L 381.807855 498.023522 
Q 381.807855 497.281334 381.375042 496.873522 
Q 380.943792 496.465709 380.157855 496.465709 
L 378.551605 496.465709 
L 378.551605 495.518834 
L 380.128167 495.518834 
Q 380.982855 495.518834 381.587542 495.817272 
Q 382.193792 496.114147 382.51098 496.686022 
Q 382.828167 497.257897 382.828167 498.062584 
L 382.828167 500.075084 
Q 382.828167 500.879772 382.51098 501.451647 
Q 382.193792 502.023522 381.58598 502.321959 
Q 380.978167 502.618834 380.12348 502.618834 
L 378.551605 502.618834 
L 378.551605 501.671959 
z
M 377.878167 495.518834 
L 378.87348 495.518834 
L 378.87348 502.618834 
L 377.878167 502.618834 
L 377.878167 495.518834 
z
M 386.007855 502.618834 
L 385.01098 502.618834 
L 385.01098 496.603209 
L 384.000042 497.223522 
L 384.000042 496.192272 
L 385.01098 495.518834 
L 386.007855 495.518834 
L 386.007855 502.618834 
z
M 387.511175 501.754772 
L 389.986175 498.453209 
Q 390.2018 498.170397 390.32055 497.865709 
Q 390.440863 497.559459 390.440863 497.296959 
L 390.440863 497.286022 
Q 390.440863 496.862584 390.190863 496.628209 
Q 389.942425 496.393834 389.484613 496.393834 
Q 389.048675 496.393834 388.779925 496.650084 
Q 388.512738 496.906334 388.453363 497.375084 
L 388.453363 497.379772 
L 387.423675 497.379772 
L 387.423675 497.375084 
Q 387.511175 496.764147 387.781488 496.332897 
Q 388.053363 495.900084 388.48305 495.673522 
Q 388.912738 495.445397 389.473675 495.445397 
Q 390.109613 495.445397 390.55805 495.662584 
Q 391.00805 495.879772 391.242425 496.295397 
Q 391.4768 496.711022 391.4768 497.296959 
L 391.4768 497.301647 
Q 391.4768 497.676647 391.32055 498.087584 
Q 391.1643 498.496959 390.884613 498.878209 
L 388.829925 501.671959 
L 391.515863 501.671959 
L 391.515863 502.618834 
L 387.511175 502.618834 
L 387.511175 501.754772 
z
M 394.811566 502.692272 
Q 393.814691 502.692272 393.299066 502.161022 
Q 392.785003 501.628209 392.785003 500.675084 
L 392.785003 497.448522 
Q 392.785003 496.490709 393.302191 495.961022 
Q 393.819378 495.431334 394.811566 495.431334 
Q 395.806878 495.431334 396.322503 495.959459 
Q 396.838128 496.486022 396.838128 497.448522 
L 396.838128 500.675084 
Q 396.838128 501.632897 396.319378 502.162584 
Q 395.802191 502.692272 394.811566 502.692272 
z
M 394.811566 501.745397 
Q 395.338128 501.745397 395.589691 501.468834 
Q 395.841253 501.192272 395.841253 500.675084 
L 395.841253 497.448522 
Q 395.841253 496.929772 395.591253 496.654772 
Q 395.342816 496.378209 394.811566 496.378209 
Q 394.278753 496.378209 394.028753 496.654772 
Q 393.780316 496.929772 393.780316 497.448522 
L 393.780316 500.675084 
Q 393.780316 501.192272 394.031878 501.468834 
Q 394.283441 501.745397 394.811566 501.745397 
z
M 400.329144 502.692272 
Q 399.332269 502.692272 398.816644 502.161022 
Q 398.302582 501.628209 398.302582 500.675084 
L 398.302582 497.448522 
Q 398.302582 496.490709 398.819769 495.961022 
Q 399.336957 495.431334 400.329144 495.431334 
Q 401.324457 495.431334 401.840082 495.959459 
Q 402.355707 496.486022 402.355707 497.448522 
L 402.355707 500.675084 
Q 402.355707 501.632897 401.836957 502.162584 
Q 401.319769 502.692272 400.329144 502.692272 
z
M 400.329144 501.745397 
Q 400.855707 501.745397 401.107269 501.468834 
Q 401.358832 501.192272 401.358832 500.675084 
L 401.358832 497.448522 
Q 401.358832 496.929772 401.108832 496.654772 
Q 400.860394 496.378209 400.329144 496.378209 
Q 399.796332 496.378209 399.546332 496.654772 
Q 399.297894 496.929772 399.297894 497.448522 
L 399.297894 500.675084 
Q 399.297894 501.192272 399.549457 501.468834 
Q 399.801019 501.745397 400.329144 501.745397 
z
" style="fill: #ffffff"/>
   </g>
  </g>
 </g>
 <defs>
  <clipPath id="p2afd5bbf2d">
   <rect x="144" y="77.76" width="892.8" height="498.96"/>
  </clipPath>
 </defs>
</svg>
