<?xml version="1.0" encoding="utf-8" standalone="no"?>
<!DOCTYPE svg PUBLIC "-//W3C//DTD SVG 1.1//EN"
  "http://www.w3.org/Graphics/SVG/1.1/DTD/svg11.dtd">
<svg xmlns:xlink="http://www.w3.org/1999/xlink" width="1152pt" height="648pt" viewBox="0 0 1152 648" xmlns="http://www.w3.org/2000/svg" version="1.1">
 <metadata>
  <rdf:RDF xmlns:dc="http://purl.org/dc/elements/1.1/" xmlns:cc="http://creativecommons.org/ns#" xmlns:rdf="http://www.w3.org/1999/02/22-rdf-syntax-ns#">
   <cc:Work>
    <dc:type rdf:resource="http://purl.org/dc/dcmitype/StillImage"/>
    <dc:date>2024-10-09T18:10:38.665226</dc:date>
    <dc:format>image/svg+xml</dc:format>
    <dc:creator>
     <cc:Agent>
      <dc:title>Matplotlib v3.8.1, https://matplotlib.org/</dc:title>
     </cc:Agent>
    </dc:creator>
   </cc:Work>
  </rdf:RDF>
 </metadata>
 <defs>
  <style type="text/css">*{stroke-linejoin: round; stroke-linecap: butt}</style>
 </defs>
 <g id="figure_1">
  <g id="patch_1">
   <path d="M 0 648 
L 1152 648 
L 1152 0 
L 0 0 
L 0 648 
z
" style="fill: none"/>
  </g>
  <g id="axes_1">
   <g id="line2d_1">
    <path d="M 223.236 540.259527 
L 225.563818 539.24288 
L 227.891636 538.242594 
L 230.219455 537.258408 
L 232.547273 536.290062 
L 234.875091 535.337302 
L 237.202909 534.399877 
L 239.530727 533.477541 
L 241.858545 532.570052 
L 244.186364 531.677169 
L 246.514182 530.79866 
L 248.842 529.934292 
L 251.169818 529.083838 
L 253.497636 528.247075 
L 255.825455 527.423782 
L 258.153273 526.613743 
L 260.481091 525.816745 
L 262.808909 525.032577 
L 265.136727 524.261034 
L 267.464545 523.501913 
L 269.792364 522.755014 
L 272.120182 522.020139 
L 274.448 521.297097 
L 276.775818 520.585696 
L 279.103636 519.885749 
L 281.431455 519.197073 
L 283.759273 518.519485 
L 286.087091 517.852807 
L 288.414909 517.196864 
L 290.742727 516.551483 
L 293.070545 515.916495 
L 295.398364 515.291731 
L 297.726182 514.677028 
L 300.054 514.072224 
L 302.381818 513.477159 
L 304.709636 512.891677 
L 307.037455 512.315623 
L 309.365273 511.748846 
L 311.693091 511.191196 
L 314.020909 510.642528 
L 316.348727 510.102695 
L 318.676545 509.571556 
L 321.004364 509.048971 
L 323.332182 508.534802 
L 325.66 508.028914 
L 327.987818 507.531174 
L 330.315636 507.04145 
L 332.643455 506.559614 
L 334.971273 506.085538 
L 337.299091 505.619098 
L 339.626909 505.16017 
L 341.954727 504.708634 
L 344.282545 504.264371 
L 346.610364 503.827264 
L 348.938182 503.397197 
L 351.266 502.974057 
L 353.593818 502.557733 
L 355.921636 502.148115 
L 358.249455 501.745095 
L 360.577273 501.348567 
L 362.905091 500.958426 
L 365.232909 500.574569 
L 367.560727 500.196896 
L 369.888545 499.825306 
L 372.216364 499.459702 
L 374.544182 499.099988 
L 376.872 498.746068 
L 379.199818 498.397849 
L 381.527636 498.05524 
L 383.855455 497.71815 
L 386.183273 497.38649 
L 388.511091 497.060173 
L 390.838909 496.739113 
L 393.166727 496.423225 
L 395.494545 496.112426 
L 397.822364 495.806634 
L 400.150182 495.505768 
L 402.478 495.209749 
L 404.805818 494.918499 
L 407.133636 494.631941 
L 409.461455 494.35 
L 411.789273 494.072601 
L 414.117091 493.799671 
L 416.444909 493.531138 
L 418.772727 493.266931 
L 421.100545 493.006981 
L 423.428364 492.751219 
L 425.756182 492.499578 
L 428.084 492.25199 
L 430.411818 492.008392 
L 432.739636 491.768719 
L 435.067455 491.532907 
L 437.395273 491.300894 
L 439.723091 491.072619 
L 442.050909 490.848022 
L 444.378727 490.627044 
L 446.706545 490.409627 
L 449.034364 490.195712 
L 451.362182 489.985244 
L 453.69 489.778167 
" clip-path="url(#p62695691e0)" style="fill: none; stroke: #30b2f2; stroke-width: 3; stroke-linecap: round"/>
   </g>
   <g id="text_1">
    <path d="M 462.59498 491.498172 
Q 462.08248 491.498172 461.623105 491.401297 
Q 461.165292 491.30286 460.766855 491.107547 
Q 460.368417 490.912235 460.021542 490.618485 
L 460.021542 490.618485 
L 460.641855 489.857547 
L 460.641855 489.857547 
Q 461.048105 490.20911 461.535605 490.385672 
Q 462.024667 490.560672 462.59498 490.560672 
Q 463.366855 490.560672 463.791855 490.274735 
Q 464.216855 489.988797 464.216855 489.466922 
L 464.216855 489.462235 
Q 464.216855 489.09036 464.023105 488.873172 
Q 463.830917 488.655985 463.524667 488.551297 
Q 463.21998 488.44661 462.737167 488.357547 
Q 462.721542 488.35286 462.704355 488.35286 
Q 462.68873 488.35286 462.673105 488.348172 
L 462.599667 488.33411 
Q 461.887167 488.212235 461.440292 488.05911 
Q 460.993417 487.904422 460.67623 487.49661 
Q 460.359042 487.088797 460.359042 486.337235 
L 460.359042 486.332547 
Q 460.359042 485.673172 460.654355 485.207547 
Q 460.949667 484.74036 461.515292 484.49661 
Q 462.08248 484.251297 462.877792 484.251297 
Q 463.259042 484.251297 463.627792 484.335672 
Q 463.996542 484.418485 464.354355 484.582547 
Q 464.71373 484.745047 465.060605 484.993485 
L 465.060605 484.993485 
L 464.49498 485.785672 
L 464.49498 485.785672 
Q 464.08873 485.487235 463.685605 485.338797 
Q 463.284042 485.188797 462.877792 485.188797 
Q 462.15123 485.188797 461.748105 485.479422 
Q 461.34498 485.770047 461.34498 486.30286 
L 461.34498 486.307547 
Q 461.34498 486.673172 461.552792 486.88411 
Q 461.760605 487.093485 462.06998 487.193485 
Q 462.380917 487.293485 462.93248 487.401297 
Q 462.95123 487.405985 462.968417 487.40911 
Q 462.985605 487.410672 463.005917 487.41536 
Q 463.029355 487.420047 463.059042 487.426297 
Q 463.08873 487.430985 463.112167 487.435672 
Q 463.75748 487.566922 464.18873 487.748172 
Q 464.621542 487.92786 464.912167 488.330985 
Q 465.202792 488.73411 465.202792 489.432547 
L 465.202792 489.441922 
Q 465.202792 490.091922 464.89498 490.55286 
Q 464.587167 491.013797 464.002792 491.255985 
Q 463.41998 491.498172 462.59498 491.498172 
z
M 467.292832 490.47786 
L 468.899082 490.47786 
Q 469.685019 490.47786 470.116269 490.070047 
Q 470.549082 489.662235 470.549082 488.920047 
L 470.549082 486.829422 
Q 470.549082 486.087235 470.116269 485.679422 
Q 469.685019 485.27161 468.899082 485.27161 
L 467.292832 485.27161 
L 467.292832 484.324735 
L 468.869394 484.324735 
Q 469.724082 484.324735 470.328769 484.623172 
Q 470.935019 484.920047 471.252207 485.491922 
Q 471.569394 486.063797 471.569394 486.868485 
L 471.569394 488.880985 
Q 471.569394 489.685672 471.252207 490.257547 
Q 470.935019 490.829422 470.327207 491.12786 
Q 469.719394 491.424735 468.864707 491.424735 
L 467.292832 491.424735 
L 467.292832 490.47786 
z
M 466.619394 484.324735 
L 467.614707 484.324735 
L 467.614707 491.424735 
L 466.619394 491.424735 
L 466.619394 484.324735 
z
M 475.114707 491.498172 
Q 474.470957 491.498172 473.981894 491.254422 
Q 473.494394 491.00911 473.227207 490.562235 
Q 472.961582 490.11536 472.961582 489.524735 
L 472.961582 489.407547 
Q 472.961582 488.876297 473.227207 488.407547 
Q 473.494394 487.938797 473.938144 487.699735 
Q 473.561582 487.493485 473.335019 487.105985 
Q 473.108457 486.716922 473.108457 486.287235 
L 473.108457 486.116922 
Q 473.108457 485.560672 473.356894 485.138797 
Q 473.605332 484.71536 474.060019 484.48411 
Q 474.514707 484.251297 475.114707 484.251297 
Q 475.714707 484.251297 476.169394 484.48411 
Q 476.624082 484.71536 476.872519 485.138797 
Q 477.120957 485.560672 477.120957 486.116922 
L 477.120957 486.287235 
Q 477.120957 486.72786 476.889707 487.113797 
Q 476.658457 487.498172 476.277207 487.699735 
Q 476.725644 487.943485 476.995957 488.410672 
Q 477.267832 488.876297 477.267832 489.407547 
L 477.267832 489.524735 
Q 477.267832 490.11536 477.002207 490.562235 
Q 476.736582 491.00911 476.247519 491.254422 
Q 475.760019 491.498172 475.114707 491.498172 
z
M 475.114707 490.54036 
Q 475.461582 490.54036 475.724082 490.404422 
Q 475.988144 490.266922 476.131894 490.02161 
Q 476.277207 489.774735 476.277207 489.451297 
L 476.277207 489.38411 
Q 476.277207 489.055985 476.131894 488.810672 
Q 475.988144 488.563797 475.724082 488.42786 
Q 475.461582 488.29036 475.114707 488.29036 
Q 474.767832 488.29036 474.503769 488.42786 
Q 474.241269 488.563797 474.095957 488.812235 
Q 473.952207 489.060672 473.952207 489.388797 
L 473.952207 489.462235 
Q 473.952207 489.78411 474.095957 490.02786 
Q 474.241269 490.27161 474.503769 490.405985 
Q 474.767832 490.54036 475.114707 490.54036 
z
M 475.114707 487.332547 
Q 475.413144 487.332547 475.641269 487.204422 
Q 475.870957 487.074735 475.997519 486.835672 
Q 476.125644 486.595047 476.125644 486.282547 
L 476.125644 486.21536 
Q 476.125644 485.916922 475.997519 485.687235 
Q 475.870957 485.457547 475.641269 485.33411 
Q 475.413144 485.20911 475.114707 485.20911 
Q 474.816269 485.20911 474.586582 485.33411 
Q 474.358457 485.457547 474.230332 485.687235 
Q 474.103769 485.916922 474.103769 486.220047 
L 474.103769 486.293485 
Q 474.103769 486.599735 474.230332 486.837235 
Q 474.358457 487.074735 474.586582 487.204422 
Q 474.816269 487.332547 475.114707 487.332547 
z
M 480.739707 491.498172 
Q 480.095957 491.498172 479.606894 491.254422 
Q 479.119394 491.00911 478.852207 490.562235 
Q 478.586582 490.11536 478.586582 489.524735 
L 478.586582 489.407547 
Q 478.586582 488.876297 478.852207 488.407547 
Q 479.119394 487.938797 479.563144 487.699735 
Q 479.186582 487.493485 478.960019 487.105985 
Q 478.733457 486.716922 478.733457 486.287235 
L 478.733457 486.116922 
Q 478.733457 485.560672 478.981894 485.138797 
Q 479.230332 484.71536 479.685019 484.48411 
Q 480.139707 484.251297 480.739707 484.251297 
Q 481.339707 484.251297 481.794394 484.48411 
Q 482.249082 484.71536 482.497519 485.138797 
Q 482.745957 485.560672 482.745957 486.116922 
L 482.745957 486.287235 
Q 482.745957 486.72786 482.514707 487.113797 
Q 482.283457 487.498172 481.902207 487.699735 
Q 482.350644 487.943485 482.620957 488.410672 
Q 482.892832 488.876297 482.892832 489.407547 
L 482.892832 489.524735 
Q 482.892832 490.11536 482.627207 490.562235 
Q 482.361582 491.00911 481.872519 491.254422 
Q 481.385019 491.498172 480.739707 491.498172 
z
M 480.739707 490.54036 
Q 481.086582 490.54036 481.349082 490.404422 
Q 481.613144 490.266922 481.756894 490.02161 
Q 481.902207 489.774735 481.902207 489.451297 
L 481.902207 489.38411 
Q 481.902207 489.055985 481.756894 488.810672 
Q 481.613144 488.563797 481.349082 488.42786 
Q 481.086582 488.29036 480.739707 488.29036 
Q 480.392832 488.29036 480.128769 488.42786 
Q 479.866269 488.563797 479.720957 488.812235 
Q 479.577207 489.060672 479.577207 489.388797 
L 479.577207 489.462235 
Q 479.577207 489.78411 479.720957 490.02786 
Q 479.866269 490.27161 480.128769 490.405985 
Q 480.392832 490.54036 480.739707 490.54036 
z
M 480.739707 487.332547 
Q 481.038144 487.332547 481.266269 487.204422 
Q 481.495957 487.074735 481.622519 486.835672 
Q 481.750644 486.595047 481.750644 486.282547 
L 481.750644 486.21536 
Q 481.750644 485.916922 481.622519 485.687235 
Q 481.495957 485.457547 481.266269 485.33411 
Q 481.038144 485.20911 480.739707 485.20911 
Q 480.441269 485.20911 480.211582 485.33411 
Q 479.983457 485.457547 479.855332 485.687235 
Q 479.728769 485.916922 479.728769 486.220047 
L 479.728769 486.293485 
Q 479.728769 486.599735 479.855332 486.837235 
Q 479.983457 487.074735 480.211582 487.204422 
Q 480.441269 487.332547 480.739707 487.332547 
z
M 486.364707 491.498172 
Q 485.720957 491.498172 485.231894 491.254422 
Q 484.744394 491.00911 484.477207 490.562235 
Q 484.211582 490.11536 484.211582 489.524735 
L 484.211582 489.407547 
Q 484.211582 488.876297 484.477207 488.407547 
Q 484.744394 487.938797 485.188144 487.699735 
Q 484.811582 487.493485 484.585019 487.105985 
Q 484.358457 486.716922 484.358457 486.287235 
L 484.358457 486.116922 
Q 484.358457 485.560672 484.606894 485.138797 
Q 484.855332 484.71536 485.310019 484.48411 
Q 485.764707 484.251297 486.364707 484.251297 
Q 486.964707 484.251297 487.419394 484.48411 
Q 487.874082 484.71536 488.122519 485.138797 
Q 488.370957 485.560672 488.370957 486.116922 
L 488.370957 486.287235 
Q 488.370957 486.72786 488.139707 487.113797 
Q 487.908457 487.498172 487.527207 487.699735 
Q 487.975644 487.943485 488.245957 488.410672 
Q 488.517832 488.876297 488.517832 489.407547 
L 488.517832 489.524735 
Q 488.517832 490.11536 488.252207 490.562235 
Q 487.986582 491.00911 487.497519 491.254422 
Q 487.010019 491.498172 486.364707 491.498172 
z
M 486.364707 490.54036 
Q 486.711582 490.54036 486.974082 490.404422 
Q 487.238144 490.266922 487.381894 490.02161 
Q 487.527207 489.774735 487.527207 489.451297 
L 487.527207 489.38411 
Q 487.527207 489.055985 487.381894 488.810672 
Q 487.238144 488.563797 486.974082 488.42786 
Q 486.711582 488.29036 486.364707 488.29036 
Q 486.017832 488.29036 485.753769 488.42786 
Q 485.491269 488.563797 485.345957 488.812235 
Q 485.202207 489.060672 485.202207 489.388797 
L 485.202207 489.462235 
Q 485.202207 489.78411 485.345957 490.02786 
Q 485.491269 490.27161 485.753769 490.405985 
Q 486.017832 490.54036 486.364707 490.54036 
z
M 486.364707 487.332547 
Q 486.663144 487.332547 486.891269 487.204422 
Q 487.120957 487.074735 487.247519 486.835672 
Q 487.375644 486.595047 487.375644 486.282547 
L 487.375644 486.21536 
Q 487.375644 485.916922 487.247519 485.687235 
Q 487.120957 485.457547 486.891269 485.33411 
Q 486.663144 485.20911 486.364707 485.20911 
Q 486.066269 485.20911 485.836582 485.33411 
Q 485.608457 485.457547 485.480332 485.687235 
Q 485.353769 485.916922 485.353769 486.220047 
L 485.353769 486.293485 
Q 485.353769 486.599735 485.480332 486.837235 
Q 485.608457 487.074735 485.836582 487.204422 
Q 486.066269 487.332547 486.364707 487.332547 
z
" style="fill: #ffffff; stroke: #000000"/>
    <path d="M 462.59498 491.498172 
Q 462.08248 491.498172 461.623105 491.401297 
Q 461.165292 491.30286 460.766855 491.107547 
Q 460.368417 490.912235 460.021542 490.618485 
L 460.021542 490.618485 
L 460.641855 489.857547 
L 460.641855 489.857547 
Q 461.048105 490.20911 461.535605 490.385672 
Q 462.024667 490.560672 462.59498 490.560672 
Q 463.366855 490.560672 463.791855 490.274735 
Q 464.216855 489.988797 464.216855 489.466922 
L 464.216855 489.462235 
Q 464.216855 489.09036 464.023105 488.873172 
Q 463.830917 488.655985 463.524667 488.551297 
Q 463.21998 488.44661 462.737167 488.357547 
Q 462.721542 488.35286 462.704355 488.35286 
Q 462.68873 488.35286 462.673105 488.348172 
L 462.599667 488.33411 
Q 461.887167 488.212235 461.440292 488.05911 
Q 460.993417 487.904422 460.67623 487.49661 
Q 460.359042 487.088797 460.359042 486.337235 
L 460.359042 486.332547 
Q 460.359042 485.673172 460.654355 485.207547 
Q 460.949667 484.74036 461.515292 484.49661 
Q 462.08248 484.251297 462.877792 484.251297 
Q 463.259042 484.251297 463.627792 484.335672 
Q 463.996542 484.418485 464.354355 484.582547 
Q 464.71373 484.745047 465.060605 484.993485 
L 465.060605 484.993485 
L 464.49498 485.785672 
L 464.49498 485.785672 
Q 464.08873 485.487235 463.685605 485.338797 
Q 463.284042 485.188797 462.877792 485.188797 
Q 462.15123 485.188797 461.748105 485.479422 
Q 461.34498 485.770047 461.34498 486.30286 
L 461.34498 486.307547 
Q 461.34498 486.673172 461.552792 486.88411 
Q 461.760605 487.093485 462.06998 487.193485 
Q 462.380917 487.293485 462.93248 487.401297 
Q 462.95123 487.405985 462.968417 487.40911 
Q 462.985605 487.410672 463.005917 487.41536 
Q 463.029355 487.420047 463.059042 487.426297 
Q 463.08873 487.430985 463.112167 487.435672 
Q 463.75748 487.566922 464.18873 487.748172 
Q 464.621542 487.92786 464.912167 488.330985 
Q 465.202792 488.73411 465.202792 489.432547 
L 465.202792 489.441922 
Q 465.202792 490.091922 464.89498 490.55286 
Q 464.587167 491.013797 464.002792 491.255985 
Q 463.41998 491.498172 462.59498 491.498172 
z
M 467.292832 490.47786 
L 468.899082 490.47786 
Q 469.685019 490.47786 470.116269 490.070047 
Q 470.549082 489.662235 470.549082 488.920047 
L 470.549082 486.829422 
Q 470.549082 486.087235 470.116269 485.679422 
Q 469.685019 485.27161 468.899082 485.27161 
L 467.292832 485.27161 
L 467.292832 484.324735 
L 468.869394 484.324735 
Q 469.724082 484.324735 470.328769 484.623172 
Q 470.935019 484.920047 471.252207 485.491922 
Q 471.569394 486.063797 471.569394 486.868485 
L 471.569394 488.880985 
Q 471.569394 489.685672 471.252207 490.257547 
Q 470.935019 490.829422 470.327207 491.12786 
Q 469.719394 491.424735 468.864707 491.424735 
L 467.292832 491.424735 
L 467.292832 490.47786 
z
M 466.619394 484.324735 
L 467.614707 484.324735 
L 467.614707 491.424735 
L 466.619394 491.424735 
L 466.619394 484.324735 
z
M 475.114707 491.498172 
Q 474.470957 491.498172 473.981894 491.254422 
Q 473.494394 491.00911 473.227207 490.562235 
Q 472.961582 490.11536 472.961582 489.524735 
L 472.961582 489.407547 
Q 472.961582 488.876297 473.227207 488.407547 
Q 473.494394 487.938797 473.938144 487.699735 
Q 473.561582 487.493485 473.335019 487.105985 
Q 473.108457 486.716922 473.108457 486.287235 
L 473.108457 486.116922 
Q 473.108457 485.560672 473.356894 485.138797 
Q 473.605332 484.71536 474.060019 484.48411 
Q 474.514707 484.251297 475.114707 484.251297 
Q 475.714707 484.251297 476.169394 484.48411 
Q 476.624082 484.71536 476.872519 485.138797 
Q 477.120957 485.560672 477.120957 486.116922 
L 477.120957 486.287235 
Q 477.120957 486.72786 476.889707 487.113797 
Q 476.658457 487.498172 476.277207 487.699735 
Q 476.725644 487.943485 476.995957 488.410672 
Q 477.267832 488.876297 477.267832 489.407547 
L 477.267832 489.524735 
Q 477.267832 490.11536 477.002207 490.562235 
Q 476.736582 491.00911 476.247519 491.254422 
Q 475.760019 491.498172 475.114707 491.498172 
z
M 475.114707 490.54036 
Q 475.461582 490.54036 475.724082 490.404422 
Q 475.988144 490.266922 476.131894 490.02161 
Q 476.277207 489.774735 476.277207 489.451297 
L 476.277207 489.38411 
Q 476.277207 489.055985 476.131894 488.810672 
Q 475.988144 488.563797 475.724082 488.42786 
Q 475.461582 488.29036 475.114707 488.29036 
Q 474.767832 488.29036 474.503769 488.42786 
Q 474.241269 488.563797 474.095957 488.812235 
Q 473.952207 489.060672 473.952207 489.388797 
L 473.952207 489.462235 
Q 473.952207 489.78411 474.095957 490.02786 
Q 474.241269 490.27161 474.503769 490.405985 
Q 474.767832 490.54036 475.114707 490.54036 
z
M 475.114707 487.332547 
Q 475.413144 487.332547 475.641269 487.204422 
Q 475.870957 487.074735 475.997519 486.835672 
Q 476.125644 486.595047 476.125644 486.282547 
L 476.125644 486.21536 
Q 476.125644 485.916922 475.997519 485.687235 
Q 475.870957 485.457547 475.641269 485.33411 
Q 475.413144 485.20911 475.114707 485.20911 
Q 474.816269 485.20911 474.586582 485.33411 
Q 474.358457 485.457547 474.230332 485.687235 
Q 474.103769 485.916922 474.103769 486.220047 
L 474.103769 486.293485 
Q 474.103769 486.599735 474.230332 486.837235 
Q 474.358457 487.074735 474.586582 487.204422 
Q 474.816269 487.332547 475.114707 487.332547 
z
M 480.739707 491.498172 
Q 480.095957 491.498172 479.606894 491.254422 
Q 479.119394 491.00911 478.852207 490.562235 
Q 478.586582 490.11536 478.586582 489.524735 
L 478.586582 489.407547 
Q 478.586582 488.876297 478.852207 488.407547 
Q 479.119394 487.938797 479.563144 487.699735 
Q 479.186582 487.493485 478.960019 487.105985 
Q 478.733457 486.716922 478.733457 486.287235 
L 478.733457 486.116922 
Q 478.733457 485.560672 478.981894 485.138797 
Q 479.230332 484.71536 479.685019 484.48411 
Q 480.139707 484.251297 480.739707 484.251297 
Q 481.339707 484.251297 481.794394 484.48411 
Q 482.249082 484.71536 482.497519 485.138797 
Q 482.745957 485.560672 482.745957 486.116922 
L 482.745957 486.287235 
Q 482.745957 486.72786 482.514707 487.113797 
Q 482.283457 487.498172 481.902207 487.699735 
Q 482.350644 487.943485 482.620957 488.410672 
Q 482.892832 488.876297 482.892832 489.407547 
L 482.892832 489.524735 
Q 482.892832 490.11536 482.627207 490.562235 
Q 482.361582 491.00911 481.872519 491.254422 
Q 481.385019 491.498172 480.739707 491.498172 
z
M 480.739707 490.54036 
Q 481.086582 490.54036 481.349082 490.404422 
Q 481.613144 490.266922 481.756894 490.02161 
Q 481.902207 489.774735 481.902207 489.451297 
L 481.902207 489.38411 
Q 481.902207 489.055985 481.756894 488.810672 
Q 481.613144 488.563797 481.349082 488.42786 
Q 481.086582 488.29036 480.739707 488.29036 
Q 480.392832 488.29036 480.128769 488.42786 
Q 479.866269 488.563797 479.720957 488.812235 
Q 479.577207 489.060672 479.577207 489.388797 
L 479.577207 489.462235 
Q 479.577207 489.78411 479.720957 490.02786 
Q 479.866269 490.27161 480.128769 490.405985 
Q 480.392832 490.54036 480.739707 490.54036 
z
M 480.739707 487.332547 
Q 481.038144 487.332547 481.266269 487.204422 
Q 481.495957 487.074735 481.622519 486.835672 
Q 481.750644 486.595047 481.750644 486.282547 
L 481.750644 486.21536 
Q 481.750644 485.916922 481.622519 485.687235 
Q 481.495957 485.457547 481.266269 485.33411 
Q 481.038144 485.20911 480.739707 485.20911 
Q 480.441269 485.20911 480.211582 485.33411 
Q 479.983457 485.457547 479.855332 485.687235 
Q 479.728769 485.916922 479.728769 486.220047 
L 479.728769 486.293485 
Q 479.728769 486.599735 479.855332 486.837235 
Q 479.983457 487.074735 480.211582 487.204422 
Q 480.441269 487.332547 480.739707 487.332547 
z
M 486.364707 491.498172 
Q 485.720957 491.498172 485.231894 491.254422 
Q 484.744394 491.00911 484.477207 490.562235 
Q 484.211582 490.11536 484.211582 489.524735 
L 484.211582 489.407547 
Q 484.211582 488.876297 484.477207 488.407547 
Q 484.744394 487.938797 485.188144 487.699735 
Q 484.811582 487.493485 484.585019 487.105985 
Q 484.358457 486.716922 484.358457 486.287235 
L 484.358457 486.116922 
Q 484.358457 485.560672 484.606894 485.138797 
Q 484.855332 484.71536 485.310019 484.48411 
Q 485.764707 484.251297 486.364707 484.251297 
Q 486.964707 484.251297 487.419394 484.48411 
Q 487.874082 484.71536 488.122519 485.138797 
Q 488.370957 485.560672 488.370957 486.116922 
L 488.370957 486.287235 
Q 488.370957 486.72786 488.139707 487.113797 
Q 487.908457 487.498172 487.527207 487.699735 
Q 487.975644 487.943485 488.245957 488.410672 
Q 488.517832 488.876297 488.517832 489.407547 
L 488.517832 489.524735 
Q 488.517832 490.11536 488.252207 490.562235 
Q 487.986582 491.00911 487.497519 491.254422 
Q 487.010019 491.498172 486.364707 491.498172 
z
M 486.364707 490.54036 
Q 486.711582 490.54036 486.974082 490.404422 
Q 487.238144 490.266922 487.381894 490.02161 
Q 487.527207 489.774735 487.527207 489.451297 
L 487.527207 489.38411 
Q 487.527207 489.055985 487.381894 488.810672 
Q 487.238144 488.563797 486.974082 488.42786 
Q 486.711582 488.29036 486.364707 488.29036 
Q 486.017832 488.29036 485.753769 488.42786 
Q 485.491269 488.563797 485.345957 488.812235 
Q 485.202207 489.060672 485.202207 489.388797 
L 485.202207 489.462235 
Q 485.202207 489.78411 485.345957 490.02786 
Q 485.491269 490.27161 485.753769 490.405985 
Q 486.017832 490.54036 486.364707 490.54036 
z
M 486.364707 487.332547 
Q 486.663144 487.332547 486.891269 487.204422 
Q 487.120957 487.074735 487.247519 486.835672 
Q 487.375644 486.595047 487.375644 486.282547 
L 487.375644 486.21536 
Q 487.375644 485.916922 487.247519 485.687235 
Q 487.120957 485.457547 486.891269 485.33411 
Q 486.663144 485.20911 486.364707 485.20911 
Q 486.066269 485.20911 485.836582 485.33411 
Q 485.608457 485.457547 485.480332 485.687235 
Q 485.353769 485.916922 485.353769 486.220047 
L 485.353769 486.293485 
Q 485.353769 486.599735 485.480332 486.837235 
Q 485.608457 487.074735 485.836582 487.204422 
Q 486.066269 487.332547 486.364707 487.332547 
z
" style="fill: #ffffff"/>
   </g>
  </g>
 </g>
 <defs>
  <clipPath id="p62695691e0">
   <rect x="144" y="77.76" width="892.8" height="498.96"/>
  </clipPath>
 </defs>
</svg>
