<?xml version="1.0" encoding="utf-8" standalone="no"?>
<!DOCTYPE svg PUBLIC "-//W3C//DTD SVG 1.1//EN"
  "http://www.w3.org/Graphics/SVG/1.1/DTD/svg11.dtd">
<svg xmlns:xlink="http://www.w3.org/1999/xlink" width="1152pt" height="648pt" viewBox="0 0 1152 648" xmlns="http://www.w3.org/2000/svg" version="1.1">
 <metadata>
  <rdf:RDF xmlns:dc="http://purl.org/dc/elements/1.1/" xmlns:cc="http://creativecommons.org/ns#" xmlns:rdf="http://www.w3.org/1999/02/22-rdf-syntax-ns#">
   <cc:Work>
    <dc:type rdf:resource="http://purl.org/dc/dcmitype/StillImage"/>
    <dc:date>2024-10-09T18:10:38.685227</dc:date>
    <dc:format>image/svg+xml</dc:format>
    <dc:creator>
     <cc:Agent>
      <dc:title>Matplotlib v3.8.1, https://matplotlib.org/</dc:title>
     </cc:Agent>
    </dc:creator>
   </cc:Work>
  </rdf:RDF>
 </metadata>
 <defs>
  <style type="text/css">*{stroke-linejoin: round; stroke-linecap: butt}</style>
 </defs>
 <g id="figure_1">
  <g id="patch_1">
   <path d="M 0 648 
L 1152 648 
L 1152 0 
L 0 0 
L 0 648 
z
" style="fill: none"/>
  </g>
  <g id="axes_1">
   <g id="line2d_1">
    <path d="M 205.938 537.917813 
L 207.020182 537.099923 
L 208.102364 536.284351 
L 209.184545 535.471166 
L 210.266727 534.66044 
L 211.348909 533.852239 
L 212.431091 533.046634 
L 213.513273 532.24369 
L 214.595455 531.443473 
L 215.677636 530.646049 
L 216.759818 529.851482 
L 217.842 529.059835 
L 218.924182 528.271169 
L 220.006364 527.485546 
L 221.088545 526.703025 
L 222.170727 525.923666 
L 223.252909 525.147526 
L 224.335091 524.374661 
L 225.417273 523.605127 
L 226.499455 522.838978 
L 227.581636 522.076268 
L 228.663818 521.317048 
L 229.746 520.56137 
L 230.828182 519.809282 
L 231.910364 519.060834 
L 232.992545 518.316073 
L 234.074727 517.575045 
L 235.156909 516.837794 
L 236.239091 516.104365 
L 237.321273 515.3748 
L 238.403455 514.64914 
L 239.485636 513.927426 
L 240.567818 513.209696 
L 241.65 512.495988 
L 242.732182 511.786338 
L 243.814364 511.080782 
L 244.896545 510.379354 
L 245.978727 509.682086 
L 247.060909 508.98901 
L 248.143091 508.300157 
L 249.225273 507.615556 
L 250.307455 506.935234 
L 251.389636 506.259218 
L 252.471818 505.587535 
L 253.554 504.920209 
L 254.636182 504.257262 
L 255.718364 503.598717 
L 256.800545 502.944595 
L 257.882727 502.294916 
L 258.964909 501.649698 
L 260.047091 501.008958 
L 261.129273 500.372714 
L 262.211455 499.740981 
L 263.293636 499.113772 
L 264.375818 498.491101 
L 265.458 497.87298 
L 266.540182 497.259419 
L 267.622364 496.650429 
L 268.704545 496.046018 
L 269.786727 495.446194 
L 270.868909 494.850965 
L 271.951091 494.260335 
L 273.033273 493.674309 
L 274.115455 493.092892 
L 275.197636 492.516085 
L 276.279818 491.943892 
L 277.362 491.376312 
L 278.444182 490.813347 
L 279.526364 490.254994 
L 280.608545 489.701252 
L 281.690727 489.152119 
L 282.772909 488.607591 
L 283.855091 488.067664 
L 284.937273 487.532332 
L 286.019455 487.001589 
L 287.101636 486.475429 
L 288.183818 485.953844 
L 289.266 485.436825 
L 290.348182 484.924364 
L 291.430364 484.41645 
L 292.512545 483.913074 
L 293.594727 483.414223 
L 294.676909 482.919886 
L 295.759091 482.43005 
L 296.841273 481.944702 
L 297.923455 481.463828 
L 299.005636 480.987413 
L 300.087818 480.515442 
L 301.17 480.0479 
L 302.252182 479.58477 
L 303.334364 479.126035 
L 304.416545 478.671678 
L 305.498727 478.22168 
L 306.580909 477.776024 
L 307.663091 477.33469 
L 308.745273 476.897659 
L 309.827455 476.464911 
L 310.909636 476.036426 
L 311.991818 475.612182 
L 313.074 475.192159 
" clip-path="url(#p4ec6aaa432)" style="fill: none; stroke: #79caf2; stroke-width: 3; stroke-linecap: round"/>
   </g>
   <g id="text_1">
    <path d="M 321.97898 476.912165 
Q 321.46648 476.912165 321.007105 476.81529 
Q 320.549292 476.716852 320.150855 476.52154 
Q 319.752417 476.326227 319.405542 476.032477 
L 319.405542 476.032477 
L 320.025855 475.27154 
L 320.025855 475.27154 
Q 320.432105 475.623102 320.919605 475.799665 
Q 321.408667 475.974665 321.97898 475.974665 
Q 322.750855 475.974665 323.175855 475.688727 
Q 323.600855 475.40279 323.600855 474.880915 
L 323.600855 474.876227 
Q 323.600855 474.504352 323.407105 474.287165 
Q 323.214917 474.069977 322.908667 473.96529 
Q 322.60398 473.860602 322.121167 473.77154 
Q 322.105542 473.766852 322.088355 473.766852 
Q 322.07273 473.766852 322.057105 473.762165 
L 321.983667 473.748102 
Q 321.271167 473.626227 320.824292 473.473102 
Q 320.377417 473.318415 320.06023 472.910602 
Q 319.743042 472.50279 319.743042 471.751227 
L 319.743042 471.74654 
Q 319.743042 471.087165 320.038355 470.62154 
Q 320.333667 470.154352 320.899292 469.910602 
Q 321.46648 469.66529 322.261792 469.66529 
Q 322.643042 469.66529 323.011792 469.749665 
Q 323.380542 469.832477 323.738355 469.99654 
Q 324.09773 470.15904 324.444605 470.407477 
L 324.444605 470.407477 
L 323.87898 471.199665 
L 323.87898 471.199665 
Q 323.47273 470.901227 323.069605 470.75279 
Q 322.668042 470.60279 322.261792 470.60279 
Q 321.53523 470.60279 321.132105 470.893415 
Q 320.72898 471.18404 320.72898 471.716852 
L 320.72898 471.72154 
Q 320.72898 472.087165 320.936792 472.298102 
Q 321.144605 472.507477 321.45398 472.607477 
Q 321.764917 472.707477 322.31648 472.81529 
Q 322.33523 472.819977 322.352417 472.823102 
Q 322.369605 472.824665 322.389917 472.829352 
Q 322.413355 472.83404 322.443042 472.84029 
Q 322.47273 472.844977 322.496167 472.849665 
Q 323.14148 472.980915 323.57273 473.162165 
Q 324.005542 473.341852 324.296167 473.744977 
Q 324.586792 474.148102 324.586792 474.84654 
L 324.586792 474.855915 
Q 324.586792 475.505915 324.27898 475.966852 
Q 323.971167 476.42779 323.386792 476.669977 
Q 322.80398 476.912165 321.97898 476.912165 
z
M 326.676832 475.891852 
L 328.283082 475.891852 
Q 329.069019 475.891852 329.500269 475.48404 
Q 329.933082 475.076227 329.933082 474.33404 
L 329.933082 472.243415 
Q 329.933082 471.501227 329.500269 471.093415 
Q 329.069019 470.685602 328.283082 470.685602 
L 326.676832 470.685602 
L 326.676832 469.738727 
L 328.253394 469.738727 
Q 329.108082 469.738727 329.712769 470.037165 
Q 330.319019 470.33404 330.636207 470.905915 
Q 330.953394 471.47779 330.953394 472.282477 
L 330.953394 474.294977 
Q 330.953394 475.099665 330.636207 475.67154 
Q 330.319019 476.243415 329.711207 476.541852 
Q 329.103394 476.838727 328.248707 476.838727 
L 326.676832 476.838727 
L 326.676832 475.891852 
z
M 326.003394 469.738727 
L 326.998707 469.738727 
L 326.998707 476.838727 
L 326.003394 476.838727 
L 326.003394 469.738727 
z
M 336.086207 470.62779 
L 334.250269 476.838727 
L 333.190894 476.838727 
L 335.026832 470.685602 
L 333.219019 470.685602 
L 333.219019 471.707477 
L 332.223707 471.707477 
L 332.223707 469.738727 
L 336.086207 469.738727 
L 336.086207 470.62779 
z
M 341.368824 473.093415 
L 341.368824 474.04029 
L 337.404761 474.04029 
L 337.404761 473.093415 
L 341.368824 473.093415 
z
M 339.884449 475.549665 
L 338.889136 475.549665 
L 338.889136 471.58404 
L 339.884449 471.58404 
L 339.884449 475.549665 
z
M 349.445386 473.01529 
L 349.445386 474.255915 
Q 349.445386 475.04654 349.137574 475.649665 
Q 348.829761 476.25279 348.265699 476.582477 
Q 347.701636 476.912165 346.959449 476.912165 
Q 346.207886 476.912165 345.639136 476.60279 
Q 345.070386 476.291852 344.757886 475.726227 
Q 344.445386 475.15904 344.445386 474.412165 
L 344.445386 472.316852 
Q 344.445386 471.526227 344.753199 470.926227 
Q 345.061011 470.324665 345.623511 469.994977 
Q 346.187574 469.66529 346.929761 469.66529 
Q 347.540699 469.66529 348.054761 469.92779 
Q 348.570386 470.188727 348.917261 470.666852 
Q 349.264136 471.144977 349.386011 471.774665 
L 349.386011 471.774665 
L 348.307886 471.774665 
L 348.307886 471.774665 
Q 348.218824 471.418415 348.009449 471.162165 
Q 347.800074 470.905915 347.515699 470.77154 
Q 347.232886 470.637165 346.929761 470.637165 
Q 346.490699 470.637165 346.157886 470.848102 
Q 345.826636 471.057477 345.645386 471.435602 
Q 345.465699 471.813727 345.465699 472.316852 
L 345.465699 474.412165 
Q 345.465699 474.87154 345.650074 475.21529 
Q 345.836011 475.55904 346.175074 475.749665 
Q 346.515699 475.94029 346.959449 475.94029 
Q 347.398511 475.94029 347.729761 475.743415 
Q 348.062574 475.544977 348.243824 475.169977 
Q 348.425074 474.793415 348.425074 474.274665 
L 348.425074 473.966852 
L 346.984449 473.966852 
L 346.984449 473.01529 
L 349.445386 473.01529 
z
M 353.033667 476.912165 
Q 352.330542 476.912165 351.832105 476.648102 
Q 351.33523 476.38404 351.07273 475.874665 
Q 350.811792 475.363727 350.811792 474.641852 
L 350.811792 474.069977 
Q 350.811792 473.318415 351.063355 472.787165 
Q 351.314917 472.254352 351.793042 471.976227 
Q 352.27273 471.69654 352.946167 471.69654 
Q 353.580542 471.69654 354.02898 472.01529 
Q 354.47898 472.332477 354.714917 472.932477 
Q 354.952417 473.532477 354.952417 474.373102 
L 354.952417 474.704352 
L 351.53523 474.704352 
L 351.53523 473.904352 
L 354.005542 473.904352 
L 354.005542 473.904352 
Q 353.961792 473.28404 353.68523 472.94029 
Q 353.41023 472.594977 352.946167 472.594977 
Q 352.37898 472.594977 352.069605 472.966852 
Q 351.76023 473.337165 351.76023 474.016852 
L 351.76023 474.660602 
Q 351.76023 475.29029 352.09148 475.62779 
Q 352.424292 475.96529 353.033667 475.96529 
Q 353.336792 475.96529 353.633667 475.843415 
Q 353.932105 475.719977 354.16648 475.501227 
L 354.16648 475.501227 
L 354.821167 476.154352 
L 354.821167 476.154352 
Q 354.444605 476.516852 353.975855 476.71529 
Q 353.507105 476.912165 353.033667 476.912165 
z
M 356.319996 471.769977 
L 357.316871 471.769977 
L 357.316871 476.838727 
L 356.319996 476.838727 
L 356.319996 471.769977 
z
M 359.396558 473.766852 
Q 359.396558 473.230915 359.118433 472.938727 
Q 358.840308 472.644977 358.337183 472.644977 
Q 357.848121 472.644977 357.582496 472.904352 
Q 357.316871 473.162165 357.316871 473.630915 
L 357.213746 472.654352 
Q 357.448121 472.194977 357.826246 471.94654 
Q 358.204371 471.69654 358.663746 471.69654 
Q 359.488746 471.69654 359.940308 472.237165 
Q 360.391871 472.776227 360.391871 473.762165 
L 360.391871 476.838727 
L 359.396558 476.838727 
L 359.396558 473.766852 
z
M 361.749683 475.974665 
L 364.224683 472.673102 
Q 364.440308 472.39029 364.559058 472.085602 
Q 364.679371 471.779352 364.679371 471.516852 
L 364.679371 471.505915 
Q 364.679371 471.082477 364.429371 470.848102 
Q 364.180933 470.613727 363.723121 470.613727 
Q 363.287183 470.613727 363.018433 470.869977 
Q 362.751246 471.126227 362.691871 471.594977 
L 362.691871 471.599665 
L 361.662183 471.599665 
L 361.662183 471.594977 
Q 361.749683 470.98404 362.019996 470.55279 
Q 362.291871 470.119977 362.721558 469.893415 
Q 363.151246 469.66529 363.712183 469.66529 
Q 364.348121 469.66529 364.796558 469.882477 
Q 365.246558 470.099665 365.480933 470.51529 
Q 365.715308 470.930915 365.715308 471.516852 
L 365.715308 471.52154 
Q 365.715308 471.89654 365.559058 472.307477 
Q 365.402808 472.716852 365.123121 473.098102 
L 363.068433 475.891852 
L 365.754371 475.891852 
L 365.754371 476.838727 
L 361.749683 476.838727 
L 361.749683 475.974665 
z
" style="fill: #ffffff; stroke: #000000"/>
    <path d="M 321.97898 476.912165 
Q 321.46648 476.912165 321.007105 476.81529 
Q 320.549292 476.716852 320.150855 476.52154 
Q 319.752417 476.326227 319.405542 476.032477 
L 319.405542 476.032477 
L 320.025855 475.27154 
L 320.025855 475.27154 
Q 320.432105 475.623102 320.919605 475.799665 
Q 321.408667 475.974665 321.97898 475.974665 
Q 322.750855 475.974665 323.175855 475.688727 
Q 323.600855 475.40279 323.600855 474.880915 
L 323.600855 474.876227 
Q 323.600855 474.504352 323.407105 474.287165 
Q 323.214917 474.069977 322.908667 473.96529 
Q 322.60398 473.860602 322.121167 473.77154 
Q 322.105542 473.766852 322.088355 473.766852 
Q 322.07273 473.766852 322.057105 473.762165 
L 321.983667 473.748102 
Q 321.271167 473.626227 320.824292 473.473102 
Q 320.377417 473.318415 320.06023 472.910602 
Q 319.743042 472.50279 319.743042 471.751227 
L 319.743042 471.74654 
Q 319.743042 471.087165 320.038355 470.62154 
Q 320.333667 470.154352 320.899292 469.910602 
Q 321.46648 469.66529 322.261792 469.66529 
Q 322.643042 469.66529 323.011792 469.749665 
Q 323.380542 469.832477 323.738355 469.99654 
Q 324.09773 470.15904 324.444605 470.407477 
L 324.444605 470.407477 
L 323.87898 471.199665 
L 323.87898 471.199665 
Q 323.47273 470.901227 323.069605 470.75279 
Q 322.668042 470.60279 322.261792 470.60279 
Q 321.53523 470.60279 321.132105 470.893415 
Q 320.72898 471.18404 320.72898 471.716852 
L 320.72898 471.72154 
Q 320.72898 472.087165 320.936792 472.298102 
Q 321.144605 472.507477 321.45398 472.607477 
Q 321.764917 472.707477 322.31648 472.81529 
Q 322.33523 472.819977 322.352417 472.823102 
Q 322.369605 472.824665 322.389917 472.829352 
Q 322.413355 472.83404 322.443042 472.84029 
Q 322.47273 472.844977 322.496167 472.849665 
Q 323.14148 472.980915 323.57273 473.162165 
Q 324.005542 473.341852 324.296167 473.744977 
Q 324.586792 474.148102 324.586792 474.84654 
L 324.586792 474.855915 
Q 324.586792 475.505915 324.27898 475.966852 
Q 323.971167 476.42779 323.386792 476.669977 
Q 322.80398 476.912165 321.97898 476.912165 
z
M 326.676832 475.891852 
L 328.283082 475.891852 
Q 329.069019 475.891852 329.500269 475.48404 
Q 329.933082 475.076227 329.933082 474.33404 
L 329.933082 472.243415 
Q 329.933082 471.501227 329.500269 471.093415 
Q 329.069019 470.685602 328.283082 470.685602 
L 326.676832 470.685602 
L 326.676832 469.738727 
L 328.253394 469.738727 
Q 329.108082 469.738727 329.712769 470.037165 
Q 330.319019 470.33404 330.636207 470.905915 
Q 330.953394 471.47779 330.953394 472.282477 
L 330.953394 474.294977 
Q 330.953394 475.099665 330.636207 475.67154 
Q 330.319019 476.243415 329.711207 476.541852 
Q 329.103394 476.838727 328.248707 476.838727 
L 326.676832 476.838727 
L 326.676832 475.891852 
z
M 326.003394 469.738727 
L 326.998707 469.738727 
L 326.998707 476.838727 
L 326.003394 476.838727 
L 326.003394 469.738727 
z
M 336.086207 470.62779 
L 334.250269 476.838727 
L 333.190894 476.838727 
L 335.026832 470.685602 
L 333.219019 470.685602 
L 333.219019 471.707477 
L 332.223707 471.707477 
L 332.223707 469.738727 
L 336.086207 469.738727 
L 336.086207 470.62779 
z
M 341.368824 473.093415 
L 341.368824 474.04029 
L 337.404761 474.04029 
L 337.404761 473.093415 
L 341.368824 473.093415 
z
M 339.884449 475.549665 
L 338.889136 475.549665 
L 338.889136 471.58404 
L 339.884449 471.58404 
L 339.884449 475.549665 
z
M 349.445386 473.01529 
L 349.445386 474.255915 
Q 349.445386 475.04654 349.137574 475.649665 
Q 348.829761 476.25279 348.265699 476.582477 
Q 347.701636 476.912165 346.959449 476.912165 
Q 346.207886 476.912165 345.639136 476.60279 
Q 345.070386 476.291852 344.757886 475.726227 
Q 344.445386 475.15904 344.445386 474.412165 
L 344.445386 472.316852 
Q 344.445386 471.526227 344.753199 470.926227 
Q 345.061011 470.324665 345.623511 469.994977 
Q 346.187574 469.66529 346.929761 469.66529 
Q 347.540699 469.66529 348.054761 469.92779 
Q 348.570386 470.188727 348.917261 470.666852 
Q 349.264136 471.144977 349.386011 471.774665 
L 349.386011 471.774665 
L 348.307886 471.774665 
L 348.307886 471.774665 
Q 348.218824 471.418415 348.009449 471.162165 
Q 347.800074 470.905915 347.515699 470.77154 
Q 347.232886 470.637165 346.929761 470.637165 
Q 346.490699 470.637165 346.157886 470.848102 
Q 345.826636 471.057477 345.645386 471.435602 
Q 345.465699 471.813727 345.465699 472.316852 
L 345.465699 474.412165 
Q 345.465699 474.87154 345.650074 475.21529 
Q 345.836011 475.55904 346.175074 475.749665 
Q 346.515699 475.94029 346.959449 475.94029 
Q 347.398511 475.94029 347.729761 475.743415 
Q 348.062574 475.544977 348.243824 475.169977 
Q 348.425074 474.793415 348.425074 474.274665 
L 348.425074 473.966852 
L 346.984449 473.966852 
L 346.984449 473.01529 
L 349.445386 473.01529 
z
M 353.033667 476.912165 
Q 352.330542 476.912165 351.832105 476.648102 
Q 351.33523 476.38404 351.07273 475.874665 
Q 350.811792 475.363727 350.811792 474.641852 
L 350.811792 474.069977 
Q 350.811792 473.318415 351.063355 472.787165 
Q 351.314917 472.254352 351.793042 471.976227 
Q 352.27273 471.69654 352.946167 471.69654 
Q 353.580542 471.69654 354.02898 472.01529 
Q 354.47898 472.332477 354.714917 472.932477 
Q 354.952417 473.532477 354.952417 474.373102 
L 354.952417 474.704352 
L 351.53523 474.704352 
L 351.53523 473.904352 
L 354.005542 473.904352 
L 354.005542 473.904352 
Q 353.961792 473.28404 353.68523 472.94029 
Q 353.41023 472.594977 352.946167 472.594977 
Q 352.37898 472.594977 352.069605 472.966852 
Q 351.76023 473.337165 351.76023 474.016852 
L 351.76023 474.660602 
Q 351.76023 475.29029 352.09148 475.62779 
Q 352.424292 475.96529 353.033667 475.96529 
Q 353.336792 475.96529 353.633667 475.843415 
Q 353.932105 475.719977 354.16648 475.501227 
L 354.16648 475.501227 
L 354.821167 476.154352 
L 354.821167 476.154352 
Q 354.444605 476.516852 353.975855 476.71529 
Q 353.507105 476.912165 353.033667 476.912165 
z
M 356.319996 471.769977 
L 357.316871 471.769977 
L 357.316871 476.838727 
L 356.319996 476.838727 
L 356.319996 471.769977 
z
M 359.396558 473.766852 
Q 359.396558 473.230915 359.118433 472.938727 
Q 358.840308 472.644977 358.337183 472.644977 
Q 357.848121 472.644977 357.582496 472.904352 
Q 357.316871 473.162165 357.316871 473.630915 
L 357.213746 472.654352 
Q 357.448121 472.194977 357.826246 471.94654 
Q 358.204371 471.69654 358.663746 471.69654 
Q 359.488746 471.69654 359.940308 472.237165 
Q 360.391871 472.776227 360.391871 473.762165 
L 360.391871 476.838727 
L 359.396558 476.838727 
L 359.396558 473.766852 
z
M 361.749683 475.974665 
L 364.224683 472.673102 
Q 364.440308 472.39029 364.559058 472.085602 
Q 364.679371 471.779352 364.679371 471.516852 
L 364.679371 471.505915 
Q 364.679371 471.082477 364.429371 470.848102 
Q 364.180933 470.613727 363.723121 470.613727 
Q 363.287183 470.613727 363.018433 470.869977 
Q 362.751246 471.126227 362.691871 471.594977 
L 362.691871 471.599665 
L 361.662183 471.599665 
L 361.662183 471.594977 
Q 361.749683 470.98404 362.019996 470.55279 
Q 362.291871 470.119977 362.721558 469.893415 
Q 363.151246 469.66529 363.712183 469.66529 
Q 364.348121 469.66529 364.796558 469.882477 
Q 365.246558 470.099665 365.480933 470.51529 
Q 365.715308 470.930915 365.715308 471.516852 
L 365.715308 471.52154 
Q 365.715308 471.89654 365.559058 472.307477 
Q 365.402808 472.716852 365.123121 473.098102 
L 363.068433 475.891852 
L 365.754371 475.891852 
L 365.754371 476.838727 
L 361.749683 476.838727 
L 361.749683 475.974665 
z
" style="fill: #ffffff"/>
   </g>
  </g>
 </g>
 <defs>
  <clipPath id="p4ec6aaa432">
   <rect x="144" y="77.76" width="892.8" height="498.96"/>
  </clipPath>
 </defs>
</svg>
