<?xml version="1.0" encoding="utf-8" standalone="no"?>
<!DOCTYPE svg PUBLIC "-//W3C//DTD SVG 1.1//EN"
  "http://www.w3.org/Graphics/SVG/1.1/DTD/svg11.dtd">
<svg xmlns:xlink="http://www.w3.org/1999/xlink" width="1152pt" height="648pt" viewBox="0 0 1152 648" xmlns="http://www.w3.org/2000/svg" version="1.1">
 <metadata>
  <rdf:RDF xmlns:dc="http://purl.org/dc/elements/1.1/" xmlns:cc="http://creativecommons.org/ns#" xmlns:rdf="http://www.w3.org/1999/02/22-rdf-syntax-ns#">
   <cc:Work>
    <dc:type rdf:resource="http://purl.org/dc/dcmitype/StillImage"/>
    <dc:date>2024-10-09T18:10:38.983788</dc:date>
    <dc:format>image/svg+xml</dc:format>
    <dc:creator>
     <cc:Agent>
      <dc:title>Matplotlib v3.8.1, https://matplotlib.org/</dc:title>
     </cc:Agent>
    </dc:creator>
   </cc:Work>
  </rdf:RDF>
 </metadata>
 <defs>
  <style type="text/css">*{stroke-linejoin: round; stroke-linecap: butt}</style>
 </defs>
 <g id="figure_1">
  <g id="patch_1">
   <path d="M 0 648 
L 1152 648 
L 1152 0 
L 0 0 
L 0 648 
z
" style="fill: none"/>
  </g>
  <g id="axes_1">
   <g id="line2d_1">
    <path d="M 213.75 548.724399 
L 216.455455 546.464134 
L 219.160909 544.23074 
L 221.866364 542.023899 
L 224.571818 539.843296 
L 227.277273 537.688621 
L 229.982727 535.559567 
L 232.688182 533.455829 
L 235.393636 531.377109 
L 238.099091 529.32311 
L 240.804545 527.293539 
L 243.51 525.288106 
L 246.215455 523.306526 
L 248.920909 521.348516 
L 251.626364 519.413796 
L 254.331818 517.502091 
L 257.037273 515.613128 
L 259.742727 513.746637 
L 262.448182 511.902351 
L 265.153636 510.080008 
L 267.859091 508.279347 
L 270.564545 506.500112 
L 273.27 504.742047 
L 275.975455 503.004902 
L 278.680909 501.288429 
L 281.386364 499.592382 
L 284.091818 497.91652 
L 286.797273 496.260603 
L 289.502727 494.624394 
L 292.208182 493.007659 
L 294.913636 491.410167 
L 297.619091 489.83169 
L 300.324545 488.272002 
L 303.03 486.73088 
L 305.735455 485.208104 
L 308.440909 483.703456 
L 311.146364 482.216721 
L 313.851818 480.747686 
L 316.557273 479.296141 
L 319.262727 477.861878 
L 321.968182 476.444693 
L 324.673636 475.044381 
L 327.379091 473.660743 
L 330.084545 472.293582 
L 332.79 470.9427 
L 335.495455 469.607905 
L 338.200909 468.289006 
L 340.906364 466.985813 
L 343.611818 465.698141 
L 346.317273 464.425805 
L 349.022727 463.168622 
L 351.728182 461.926413 
L 354.433636 460.698999 
L 357.139091 459.486205 
L 359.844545 458.287857 
L 362.55 457.103784 
L 365.255455 455.933815 
L 367.960909 454.777783 
L 370.666364 453.635522 
L 373.371818 452.506869 
L 376.077273 451.391662 
L 378.782727 450.289741 
L 381.488182 449.200949 
L 384.193636 448.125128 
L 386.899091 447.062124 
L 389.604545 446.011786 
L 392.31 444.973963 
L 395.015455 443.948506 
L 397.720909 442.935267 
L 400.426364 441.934102 
L 403.131818 440.944867 
L 405.837273 439.96742 
L 408.542727 439.00162 
L 411.248182 438.04733 
L 413.953636 437.104412 
L 416.659091 436.172731 
L 419.364545 435.252153 
L 422.07 434.342547 
L 424.775455 433.443781 
L 427.480909 432.555727 
L 430.186364 431.678258 
L 432.891818 430.811246 
L 435.597273 429.954568 
L 438.302727 429.108102 
L 441.008182 428.271724 
L 443.713636 427.445316 
L 446.419091 426.628759 
L 449.124545 425.821935 
L 451.83 425.024728 
L 454.535455 424.237025 
L 457.240909 423.458712 
L 459.946364 422.689676 
L 462.651818 421.929809 
L 465.357273 421.179 
L 468.062727 420.437142 
L 470.768182 419.704128 
L 473.473636 418.979852 
L 476.179091 418.264212 
L 478.884545 417.557104 
L 481.59 416.858426 
" clip-path="url(#pcce8dcbb8f)" style="fill: none; stroke: #30b1f2; stroke-width: 3; stroke-linecap: round"/>
   </g>
   <g id="text_1">
    <path d="M 489.391855 411.986244 
L 490.387167 411.986244 
L 490.387167 418.504994 
L 489.391855 418.504994 
L 489.391855 411.986244 
z
M 487.384042 411.404994 
L 492.39498 411.404994 
L 492.39498 412.351869 
L 487.384042 412.351869 
L 487.384042 411.404994 
z
M 495.153183 418.578432 
Q 494.450058 418.578432 493.951621 418.314369 
Q 493.454746 418.050307 493.192246 417.540932 
Q 492.931308 417.029994 492.931308 416.308119 
L 492.931308 415.736244 
Q 492.931308 414.984682 493.182871 414.453432 
Q 493.434433 413.920619 493.912558 413.642494 
Q 494.392246 413.362807 495.065683 413.362807 
Q 495.700058 413.362807 496.148496 413.681557 
Q 496.598496 413.998744 496.834433 414.598744 
Q 497.071933 415.198744 497.071933 416.039369 
L 497.071933 416.370619 
L 493.654746 416.370619 
L 493.654746 415.570619 
L 496.125058 415.570619 
L 496.125058 415.570619 
Q 496.081308 414.950307 495.804746 414.606557 
Q 495.529746 414.261244 495.065683 414.261244 
Q 494.498496 414.261244 494.189121 414.633119 
Q 493.879746 415.003432 493.879746 415.683119 
L 493.879746 416.326869 
Q 493.879746 416.956557 494.210996 417.294057 
Q 494.543808 417.631557 495.153183 417.631557 
Q 495.456308 417.631557 495.753183 417.509682 
Q 496.051621 417.386244 496.285996 417.167494 
L 496.285996 417.167494 
L 496.940683 417.820619 
L 496.940683 417.820619 
Q 496.564121 418.183119 496.095371 418.381557 
Q 495.626621 418.578432 495.153183 418.578432 
z
M 498.439511 413.436244 
L 499.436386 413.436244 
L 499.436386 418.504994 
L 498.439511 418.504994 
L 498.439511 413.436244 
z
M 501.516074 415.433119 
Q 501.516074 414.897182 501.237949 414.604994 
Q 500.959824 414.311244 500.456699 414.311244 
Q 499.967636 414.311244 499.702011 414.570619 
Q 499.436386 414.828432 499.436386 415.297182 
L 499.333261 414.320619 
Q 499.567636 413.861244 499.945761 413.612807 
Q 500.323886 413.362807 500.783261 413.362807 
Q 501.608261 413.362807 502.059824 413.903432 
Q 502.511386 414.442494 502.511386 415.428432 
L 502.511386 418.504994 
L 501.516074 418.504994 
L 501.516074 415.433119 
z
M 505.817636 418.578432 
Q 505.367636 418.578432 504.973886 418.490932 
Q 504.581699 418.401869 504.239511 418.226869 
Q 503.898886 418.050307 503.609824 417.787807 
L 503.609824 417.787807 
L 504.202011 417.059682 
L 504.202011 417.059682 
Q 504.611386 417.372182 505.016074 417.528432 
Q 505.422324 417.684682 505.817636 417.684682 
Q 506.408261 417.684682 506.703574 417.501869 
Q 506.998886 417.319057 506.998886 416.951869 
Q 506.998886 416.708119 506.837949 416.586244 
Q 506.677011 416.464369 506.437949 416.423744 
Q 506.198886 416.381557 505.764511 416.347182 
Q 505.725449 416.347182 505.680136 416.345619 
Q 505.636386 416.342494 505.597324 416.336244 
Q 505.578574 416.336244 505.558261 416.334682 
Q 505.539511 416.331557 505.519199 416.331557 
Q 505.027011 416.292494 504.684824 416.187807 
Q 504.342636 416.083119 504.116074 415.795619 
Q 503.889511 415.506557 503.889511 414.969057 
Q 503.889511 414.433119 504.108261 414.076869 
Q 504.328574 413.719057 504.762949 413.540932 
Q 505.197324 413.362807 505.852011 413.362807 
Q 506.247324 413.362807 506.605136 413.436244 
Q 506.964511 413.509682 507.291074 413.653432 
Q 507.619199 413.797182 507.922324 414.017494 
L 507.922324 414.017494 
L 507.320761 414.745619 
L 507.320761 414.745619 
Q 506.941074 414.500307 506.572324 414.378432 
Q 506.203574 414.256557 505.852011 414.256557 
Q 505.344199 414.256557 505.089511 414.429994 
Q 504.836386 414.603432 504.836386 414.950307 
Q 504.836386 415.154994 504.980136 415.258119 
Q 505.123886 415.359682 505.342636 415.394057 
Q 505.562949 415.428432 505.969199 415.453432 
Q 505.998886 415.458119 506.030136 415.458119 
Q 506.061386 415.458119 506.095761 415.462807 
Q 506.109824 415.462807 506.123886 415.462807 
Q 506.139511 415.462807 506.155136 415.467494 
Q 506.686386 415.501869 507.059824 415.609682 
Q 507.433261 415.717494 507.686386 416.034682 
Q 507.941074 416.351869 507.941074 416.951869 
Q 507.941074 417.498744 507.706699 417.858119 
Q 507.472324 418.217494 507.000449 418.398744 
Q 506.530136 418.578432 505.817636 418.578432 
z
M 511.154746 418.578432 
Q 510.495371 418.578432 510.026621 418.320619 
Q 509.557871 418.061244 509.310996 417.565932 
Q 509.064121 417.069057 509.064121 416.370619 
L 509.064121 415.545619 
Q 509.064121 414.858119 509.310996 414.367494 
Q 509.557871 413.875307 510.026621 413.619057 
Q 510.495371 413.362807 511.154746 413.362807 
Q 511.814121 413.362807 512.282871 413.619057 
Q 512.751621 413.875307 512.996933 414.367494 
Q 513.243808 414.858119 513.243808 415.545619 
L 513.243808 416.386244 
Q 513.243808 417.078432 512.996933 417.570619 
Q 512.751621 418.061244 512.282871 418.320619 
Q 511.814121 418.578432 511.154746 418.578432 
z
M 511.154746 417.631557 
Q 511.676621 417.631557 511.962558 417.304994 
Q 512.248496 416.976869 512.248496 416.386244 
L 512.248496 415.545619 
Q 512.248496 414.954994 511.962558 414.633119 
Q 511.676621 414.311244 511.154746 414.311244 
Q 510.631308 414.311244 510.345371 414.633119 
Q 510.060996 414.954994 510.060996 415.545619 
L 510.060996 416.386244 
Q 510.060996 416.976869 510.345371 417.304994 
Q 510.631308 417.631557 511.154746 417.631557 
z
M 514.660214 413.436244 
L 515.657089 413.436244 
L 515.657089 418.504994 
L 514.660214 418.504994 
L 514.660214 413.436244 
z
M 517.447714 414.637807 
Q 517.316464 414.476869 517.116464 414.394057 
Q 516.916464 414.311244 516.652402 414.311244 
Q 516.178964 414.311244 515.918027 414.572182 
Q 515.657089 414.833119 515.657089 415.297182 
L 515.553964 414.320619 
Q 515.788339 413.865932 516.158652 413.614369 
Q 516.530527 413.362807 516.978964 413.362807 
Q 517.325839 413.362807 517.607089 413.462807 
Q 517.888339 413.562807 518.097714 413.758119 
L 517.447714 414.637807 
z
M 525.588339 414.681557 
L 525.588339 415.922182 
Q 525.588339 416.712807 525.280527 417.315932 
Q 524.972714 417.919057 524.408652 418.248744 
Q 523.844589 418.578432 523.102402 418.578432 
Q 522.350839 418.578432 521.782089 418.269057 
Q 521.213339 417.958119 520.900839 417.392494 
Q 520.588339 416.825307 520.588339 416.078432 
L 520.588339 413.983119 
Q 520.588339 413.192494 520.896152 412.592494 
Q 521.203964 411.990932 521.766464 411.661244 
Q 522.330527 411.331557 523.072714 411.331557 
Q 523.683652 411.331557 524.197714 411.594057 
Q 524.713339 411.854994 525.060214 412.333119 
Q 525.407089 412.811244 525.528964 413.440932 
L 525.528964 413.440932 
L 524.450839 413.440932 
L 524.450839 413.440932 
Q 524.361777 413.084682 524.152402 412.828432 
Q 523.943027 412.572182 523.658652 412.437807 
Q 523.375839 412.303432 523.072714 412.303432 
Q 522.633652 412.303432 522.300839 412.514369 
Q 521.969589 412.723744 521.788339 413.101869 
Q 521.608652 413.479994 521.608652 413.983119 
L 521.608652 416.078432 
Q 521.608652 416.537807 521.793027 416.881557 
Q 521.978964 417.225307 522.318027 417.415932 
Q 522.658652 417.606557 523.102402 417.606557 
Q 523.541464 417.606557 523.872714 417.409682 
Q 524.205527 417.211244 524.386777 416.836244 
Q 524.568027 416.459682 524.568027 415.940932 
L 524.568027 415.633119 
L 523.127402 415.633119 
L 523.127402 414.681557 
L 525.588339 414.681557 
z
M 528.889121 418.578432 
Q 528.293808 418.578432 527.839121 418.361244 
Q 527.384433 418.144057 527.107871 417.731557 
Q 526.832871 417.319057 526.759433 416.737807 
L 526.759433 416.737807 
L 527.775058 416.737807 
L 527.775058 416.737807 
Q 527.818808 417.039369 527.965683 417.234682 
Q 528.112558 417.429994 528.343808 417.525307 
Q 528.576621 417.620619 528.889121 417.620619 
Q 529.381308 417.620619 529.654746 417.358119 
Q 529.928183 417.094057 529.928183 416.615932 
L 529.928183 416.400307 
Q 529.928183 415.867494 529.668808 415.578432 
Q 529.410996 415.287807 528.937558 415.287807 
L 528.434433 415.287807 
L 528.434433 414.339369 
L 528.937558 414.339369 
Q 529.353183 414.339369 529.581308 414.090932 
Q 529.810996 413.842494 529.810996 413.387807 
L 529.810996 413.167494 
Q 529.810996 412.748744 529.568808 412.519057 
Q 529.328183 412.289369 528.884433 412.289369 
Q 528.629746 412.289369 528.429746 412.384682 
Q 528.229746 412.479994 528.090683 412.678432 
Q 527.951621 412.875307 527.887558 413.172182 
L 527.887558 413.172182 
L 526.876621 413.172182 
L 526.876621 413.172182 
Q 526.975058 412.592494 527.245371 412.176869 
Q 527.517246 411.761244 527.931308 411.547182 
Q 528.346933 411.331557 528.884433 411.331557 
Q 529.801621 411.331557 530.304746 411.815932 
Q 530.807871 412.298744 530.807871 413.178432 
L 530.807871 413.295619 
Q 530.807871 413.826869 530.518808 414.222182 
Q 530.231308 414.617494 529.704746 414.798744 
Q 530.285996 414.925307 530.604746 415.370619 
Q 530.925058 415.814369 530.925058 416.503432 
L 530.925058 416.620619 
Q 530.925058 417.240932 530.685996 417.679994 
Q 530.446933 418.119057 529.989121 418.348744 
Q 529.532871 418.578432 528.889121 418.578432 
z
" style="fill: #ffffff; stroke: #000000"/>
    <path d="M 489.391855 411.986244 
L 490.387167 411.986244 
L 490.387167 418.504994 
L 489.391855 418.504994 
L 489.391855 411.986244 
z
M 487.384042 411.404994 
L 492.39498 411.404994 
L 492.39498 412.351869 
L 487.384042 412.351869 
L 487.384042 411.404994 
z
M 495.153183 418.578432 
Q 494.450058 418.578432 493.951621 418.314369 
Q 493.454746 418.050307 493.192246 417.540932 
Q 492.931308 417.029994 492.931308 416.308119 
L 492.931308 415.736244 
Q 492.931308 414.984682 493.182871 414.453432 
Q 493.434433 413.920619 493.912558 413.642494 
Q 494.392246 413.362807 495.065683 413.362807 
Q 495.700058 413.362807 496.148496 413.681557 
Q 496.598496 413.998744 496.834433 414.598744 
Q 497.071933 415.198744 497.071933 416.039369 
L 497.071933 416.370619 
L 493.654746 416.370619 
L 493.654746 415.570619 
L 496.125058 415.570619 
L 496.125058 415.570619 
Q 496.081308 414.950307 495.804746 414.606557 
Q 495.529746 414.261244 495.065683 414.261244 
Q 494.498496 414.261244 494.189121 414.633119 
Q 493.879746 415.003432 493.879746 415.683119 
L 493.879746 416.326869 
Q 493.879746 416.956557 494.210996 417.294057 
Q 494.543808 417.631557 495.153183 417.631557 
Q 495.456308 417.631557 495.753183 417.509682 
Q 496.051621 417.386244 496.285996 417.167494 
L 496.285996 417.167494 
L 496.940683 417.820619 
L 496.940683 417.820619 
Q 496.564121 418.183119 496.095371 418.381557 
Q 495.626621 418.578432 495.153183 418.578432 
z
M 498.439511 413.436244 
L 499.436386 413.436244 
L 499.436386 418.504994 
L 498.439511 418.504994 
L 498.439511 413.436244 
z
M 501.516074 415.433119 
Q 501.516074 414.897182 501.237949 414.604994 
Q 500.959824 414.311244 500.456699 414.311244 
Q 499.967636 414.311244 499.702011 414.570619 
Q 499.436386 414.828432 499.436386 415.297182 
L 499.333261 414.320619 
Q 499.567636 413.861244 499.945761 413.612807 
Q 500.323886 413.362807 500.783261 413.362807 
Q 501.608261 413.362807 502.059824 413.903432 
Q 502.511386 414.442494 502.511386 415.428432 
L 502.511386 418.504994 
L 501.516074 418.504994 
L 501.516074 415.433119 
z
M 505.817636 418.578432 
Q 505.367636 418.578432 504.973886 418.490932 
Q 504.581699 418.401869 504.239511 418.226869 
Q 503.898886 418.050307 503.609824 417.787807 
L 503.609824 417.787807 
L 504.202011 417.059682 
L 504.202011 417.059682 
Q 504.611386 417.372182 505.016074 417.528432 
Q 505.422324 417.684682 505.817636 417.684682 
Q 506.408261 417.684682 506.703574 417.501869 
Q 506.998886 417.319057 506.998886 416.951869 
Q 506.998886 416.708119 506.837949 416.586244 
Q 506.677011 416.464369 506.437949 416.423744 
Q 506.198886 416.381557 505.764511 416.347182 
Q 505.725449 416.347182 505.680136 416.345619 
Q 505.636386 416.342494 505.597324 416.336244 
Q 505.578574 416.336244 505.558261 416.334682 
Q 505.539511 416.331557 505.519199 416.331557 
Q 505.027011 416.292494 504.684824 416.187807 
Q 504.342636 416.083119 504.116074 415.795619 
Q 503.889511 415.506557 503.889511 414.969057 
Q 503.889511 414.433119 504.108261 414.076869 
Q 504.328574 413.719057 504.762949 413.540932 
Q 505.197324 413.362807 505.852011 413.362807 
Q 506.247324 413.362807 506.605136 413.436244 
Q 506.964511 413.509682 507.291074 413.653432 
Q 507.619199 413.797182 507.922324 414.017494 
L 507.922324 414.017494 
L 507.320761 414.745619 
L 507.320761 414.745619 
Q 506.941074 414.500307 506.572324 414.378432 
Q 506.203574 414.256557 505.852011 414.256557 
Q 505.344199 414.256557 505.089511 414.429994 
Q 504.836386 414.603432 504.836386 414.950307 
Q 504.836386 415.154994 504.980136 415.258119 
Q 505.123886 415.359682 505.342636 415.394057 
Q 505.562949 415.428432 505.969199 415.453432 
Q 505.998886 415.458119 506.030136 415.458119 
Q 506.061386 415.458119 506.095761 415.462807 
Q 506.109824 415.462807 506.123886 415.462807 
Q 506.139511 415.462807 506.155136 415.467494 
Q 506.686386 415.501869 507.059824 415.609682 
Q 507.433261 415.717494 507.686386 416.034682 
Q 507.941074 416.351869 507.941074 416.951869 
Q 507.941074 417.498744 507.706699 417.858119 
Q 507.472324 418.217494 507.000449 418.398744 
Q 506.530136 418.578432 505.817636 418.578432 
z
M 511.154746 418.578432 
Q 510.495371 418.578432 510.026621 418.320619 
Q 509.557871 418.061244 509.310996 417.565932 
Q 509.064121 417.069057 509.064121 416.370619 
L 509.064121 415.545619 
Q 509.064121 414.858119 509.310996 414.367494 
Q 509.557871 413.875307 510.026621 413.619057 
Q 510.495371 413.362807 511.154746 413.362807 
Q 511.814121 413.362807 512.282871 413.619057 
Q 512.751621 413.875307 512.996933 414.367494 
Q 513.243808 414.858119 513.243808 415.545619 
L 513.243808 416.386244 
Q 513.243808 417.078432 512.996933 417.570619 
Q 512.751621 418.061244 512.282871 418.320619 
Q 511.814121 418.578432 511.154746 418.578432 
z
M 511.154746 417.631557 
Q 511.676621 417.631557 511.962558 417.304994 
Q 512.248496 416.976869 512.248496 416.386244 
L 512.248496 415.545619 
Q 512.248496 414.954994 511.962558 414.633119 
Q 511.676621 414.311244 511.154746 414.311244 
Q 510.631308 414.311244 510.345371 414.633119 
Q 510.060996 414.954994 510.060996 415.545619 
L 510.060996 416.386244 
Q 510.060996 416.976869 510.345371 417.304994 
Q 510.631308 417.631557 511.154746 417.631557 
z
M 514.660214 413.436244 
L 515.657089 413.436244 
L 515.657089 418.504994 
L 514.660214 418.504994 
L 514.660214 413.436244 
z
M 517.447714 414.637807 
Q 517.316464 414.476869 517.116464 414.394057 
Q 516.916464 414.311244 516.652402 414.311244 
Q 516.178964 414.311244 515.918027 414.572182 
Q 515.657089 414.833119 515.657089 415.297182 
L 515.553964 414.320619 
Q 515.788339 413.865932 516.158652 413.614369 
Q 516.530527 413.362807 516.978964 413.362807 
Q 517.325839 413.362807 517.607089 413.462807 
Q 517.888339 413.562807 518.097714 413.758119 
L 517.447714 414.637807 
z
M 525.588339 414.681557 
L 525.588339 415.922182 
Q 525.588339 416.712807 525.280527 417.315932 
Q 524.972714 417.919057 524.408652 418.248744 
Q 523.844589 418.578432 523.102402 418.578432 
Q 522.350839 418.578432 521.782089 418.269057 
Q 521.213339 417.958119 520.900839 417.392494 
Q 520.588339 416.825307 520.588339 416.078432 
L 520.588339 413.983119 
Q 520.588339 413.192494 520.896152 412.592494 
Q 521.203964 411.990932 521.766464 411.661244 
Q 522.330527 411.331557 523.072714 411.331557 
Q 523.683652 411.331557 524.197714 411.594057 
Q 524.713339 411.854994 525.060214 412.333119 
Q 525.407089 412.811244 525.528964 413.440932 
L 525.528964 413.440932 
L 524.450839 413.440932 
L 524.450839 413.440932 
Q 524.361777 413.084682 524.152402 412.828432 
Q 523.943027 412.572182 523.658652 412.437807 
Q 523.375839 412.303432 523.072714 412.303432 
Q 522.633652 412.303432 522.300839 412.514369 
Q 521.969589 412.723744 521.788339 413.101869 
Q 521.608652 413.479994 521.608652 413.983119 
L 521.608652 416.078432 
Q 521.608652 416.537807 521.793027 416.881557 
Q 521.978964 417.225307 522.318027 417.415932 
Q 522.658652 417.606557 523.102402 417.606557 
Q 523.541464 417.606557 523.872714 417.409682 
Q 524.205527 417.211244 524.386777 416.836244 
Q 524.568027 416.459682 524.568027 415.940932 
L 524.568027 415.633119 
L 523.127402 415.633119 
L 523.127402 414.681557 
L 525.588339 414.681557 
z
M 528.889121 418.578432 
Q 528.293808 418.578432 527.839121 418.361244 
Q 527.384433 418.144057 527.107871 417.731557 
Q 526.832871 417.319057 526.759433 416.737807 
L 526.759433 416.737807 
L 527.775058 416.737807 
L 527.775058 416.737807 
Q 527.818808 417.039369 527.965683 417.234682 
Q 528.112558 417.429994 528.343808 417.525307 
Q 528.576621 417.620619 528.889121 417.620619 
Q 529.381308 417.620619 529.654746 417.358119 
Q 529.928183 417.094057 529.928183 416.615932 
L 529.928183 416.400307 
Q 529.928183 415.867494 529.668808 415.578432 
Q 529.410996 415.287807 528.937558 415.287807 
L 528.434433 415.287807 
L 528.434433 414.339369 
L 528.937558 414.339369 
Q 529.353183 414.339369 529.581308 414.090932 
Q 529.810996 413.842494 529.810996 413.387807 
L 529.810996 413.167494 
Q 529.810996 412.748744 529.568808 412.519057 
Q 529.328183 412.289369 528.884433 412.289369 
Q 528.629746 412.289369 528.429746 412.384682 
Q 528.229746 412.479994 528.090683 412.678432 
Q 527.951621 412.875307 527.887558 413.172182 
L 527.887558 413.172182 
L 526.876621 413.172182 
L 526.876621 413.172182 
Q 526.975058 412.592494 527.245371 412.176869 
Q 527.517246 411.761244 527.931308 411.547182 
Q 528.346933 411.331557 528.884433 411.331557 
Q 529.801621 411.331557 530.304746 411.815932 
Q 530.807871 412.298744 530.807871 413.178432 
L 530.807871 413.295619 
Q 530.807871 413.826869 530.518808 414.222182 
Q 530.231308 414.617494 529.704746 414.798744 
Q 530.285996 414.925307 530.604746 415.370619 
Q 530.925058 415.814369 530.925058 416.503432 
L 530.925058 416.620619 
Q 530.925058 417.240932 530.685996 417.679994 
Q 530.446933 418.119057 529.989121 418.348744 
Q 529.532871 418.578432 528.889121 418.578432 
z
" style="fill: #ffffff"/>
   </g>
  </g>
 </g>
 <defs>
  <clipPath id="pcce8dcbb8f">
   <rect x="144" y="77.76" width="892.8" height="498.96"/>
  </clipPath>
 </defs>
</svg>
