<?xml version="1.0" encoding="utf-8"?>
<!-- Generator: Adobe Illustrator 28.0.0, SVG Export Plug-In . SVG Version: 6.00 Build 0)  -->
<svg version="1.1" id="图层_1" xmlns="http://www.w3.org/2000/svg" xmlns:xlink="http://www.w3.org/1999/xlink" x="0px" y="0px"
	 viewBox="0 0 1152 648" style="enable-background:new 0 0 1152 648;" xml:space="preserve">
<style type="text/css">
	.st0{display:none;}
	.st1{fill:none;stroke:#4C4C4C;stroke-width:0.8;stroke-linejoin:round;}
	.st2{fill:none;stroke:#FFFFFF;stroke-width:0.8;stroke-linecap:square;}
	.st3{fill:#FFFFFF;}
	.st4{font-family:'HarmonyOS_Sans_SC_Bold';}
	.st5{font-size:12.8994px;}
	.st6{fill:#999999;}
	.st7{font-family:'HarmonyOS_Sans_SC_Medium';}
	.st8{font-size:20px;}
</style>
<g id="背景_00000044881165513875465450000002497834275302006168_">
	<path class="st0" d="M0,648h1152V0H0V648z"/>
	<path class="st0" d="M144,576.7h892.8V77.9H144V576.7z"/>
</g>
<g id="坐标">
	<g>
		<path id="竖线1" class="st1" d="M243.2,77.9v502.4"/>
		<path id="竖线2" class="st1" d="M342.4,77.8v502.5"/>
		<path id="竖线3" class="st1" d="M441.6,77.8v502.5"/>
		<path id="竖线4" class="st1" d="M540.8,77.8v502.5"/>
		<path id="竖线5" class="st1" d="M640,77.8v502.5"/>
		<path id="竖线5_00000124133621107614808710000007401213055759772043_" class="st1" d="M739.2,77.8v502.5"/>
		<path id="竖线6" class="st1" d="M838.4,77.8v502.5"/>
		<path id="竖线6_00000106867217864162278620000002101055455771615167_" class="st1" d="M937.6,77.8v502.5"/>
		<path id="竖线7" class="st1" d="M1036.8,77.8v502.5"/>
		<path id="横线1_00000023963703896097454090000017463111772352334742_" class="st1" d="M1036.8,514.3H140.5"/>
		<path id="横线2_00000065034588197212691760000008682041273498640299_" class="st1" d="M1037.2,452H140.5"/>
		<path id="横线3" class="st1" d="M1037.2,389.6H140.5"/>
		<path id="横线4" class="st1" d="M1037.2,327.2H140.5"/>
		<path id="横线5" class="st1" d="M1037.2,264.9H140.5"/>
		<path id="横线6" class="st1" d="M1037.2,202.5H140.5"/>
		<path id="横线6_00000073684566658321168090000014948991538764731307_" class="st1" d="M1037.2,140.2H140.5"/>
		<path id="横线7" class="st1" d="M1037.2,77.8H140.5"/>
	</g>
	<path id="横坐标" class="st2" d="M144,576.7h892.8"/>
	<path id="纵坐标" class="st2" d="M144,576.7V77.8"/>
	<g id="左上更好">
		<path class="st3" d="M204.6,97.6h-39.3c-0.8,0-1.4,0.6-1.4,1.4v39.3c0,1.3,1.5,1.9,2.4,1l3.9-3.9c0.6-0.6,1.5-0.6,2,0l12,12
			c0.6,0.6,1.5,0.6,2,0l27.4-27.4c0.6-0.6,0.6-1.5,0-2l-12-12c-0.6-0.6-0.6-1.5,0-2l3.9-3.9C206.5,99.2,205.8,97.6,204.6,97.6z"/>
		<text transform="matrix(0.7071 -0.7071 0.7071 0.7071 174.5124 126.503)" class="st4 st5">左上</text>
		<text transform="matrix(0.7071 -0.7071 0.7071 0.7071 185.4726 137.463)" class="st4 st5">更好</text>
	</g>
</g>
<g>
	<g>
		<path class="st6" d="M100.9,43.1h4.9v2.5c0,1.1-0.2,2-0.6,2.8s-1,1.4-1.7,1.9s-1.6,0.7-2.6,0.7s-1.9-0.2-2.6-0.6s-1.3-1-1.8-1.7
			s-0.6-1.6-0.6-2.6v-4.2c0-1.1,0.2-2,0.6-2.8s1-1.4,1.7-1.9s1.6-0.7,2.6-0.7c0.8,0,1.6,0.2,2.3,0.5s1.3,0.8,1.7,1.5
			s0.8,1.4,0.9,2.2h-2.2c-0.2-0.7-0.5-1.3-1.1-1.7s-1.1-0.6-1.7-0.6c-0.9,0-1.6,0.3-2.1,0.9s-0.8,1.4-0.8,2.4v4.2
			c0,0.9,0.3,1.7,0.8,2.2s1.3,0.8,2.2,0.8c0.9,0,1.6-0.3,2.1-0.9s0.8-1.4,0.8-2.5V45h-2.9L100.9,43.1L100.9,43.1z"/>
		<path class="st6" d="M113,50.9c-1.4,0-2.5-0.4-3.3-1.2s-1.2-1.9-1.2-3.4v-1.1c0-1.5,0.4-2.7,1.1-3.5s1.8-1.2,3.1-1.2
			c1.3,0,2.3,0.5,3,1.4s1,2.3,1,3.9v0.7H110v-1.6h4.9c-0.1-0.8-0.3-1.5-0.6-1.9s-0.9-0.7-1.5-0.7c-0.7,0-1.3,0.2-1.7,0.7
			s-0.6,1.2-0.6,2.1v1.3c0,0.8,0.2,1.5,0.7,1.9s1.1,0.7,1.9,0.7c0.4,0,0.8-0.1,1.2-0.2s0.8-0.4,1.1-0.7l1.3,1.3
			c-0.5,0.5-1.1,0.9-1.7,1.1S113.6,50.9,113,50.9z"/>
		<path class="st6" d="M123.7,50.9c-1.4,0-2.5-0.4-3.3-1.2s-1.2-1.9-1.2-3.4v-1.1c0-1.5,0.4-2.7,1.1-3.5s1.8-1.2,3.1-1.2
			c1.3,0,2.3,0.5,3,1.4s1,2.3,1,3.9v0.7h-6.8v-1.6h4.9c-0.1-0.8-0.3-1.5-0.6-1.9s-0.9-0.7-1.5-0.7c-0.7,0-1.3,0.2-1.7,0.7
			s-0.6,1.2-0.6,2.1v1.3c0,0.8,0.2,1.5,0.7,1.9s1.1,0.7,1.9,0.7c0.4,0,0.8-0.1,1.2-0.2s0.8-0.4,1.1-0.7l1.3,1.3
			c-0.5,0.5-1.1,0.9-1.7,1.1S124.3,50.9,123.7,50.9z"/>
		<path class="st6" d="M130.3,50.7V36.5h2v14.2H130.3z M131,49.2l0.1-2.4l5.2-6.3h2.3L131,49.2z M137,50.7l-3.5-5.8l1.3-1.3l4.4,7.2
			H137V50.7z"/>
		<path class="st6" d="M140.8,50.7V36.5h2v14.2H140.8z M145.4,50.9c-0.6,0-1.2-0.2-1.7-0.5s-0.8-0.7-1-1.3l0.1-2.1
			c0,0.4,0.1,0.8,0.2,1.1s0.4,0.5,0.7,0.7s0.7,0.2,1.1,0.2c0.7,0,1.2-0.2,1.5-0.6s0.5-1,0.5-1.7v-2.2c0-0.7-0.2-1.3-0.5-1.7
			s-0.9-0.6-1.5-0.6c-0.4,0-0.8,0.1-1.1,0.2s-0.5,0.4-0.7,0.7s-0.2,0.7-0.2,1.1l-0.2-2c0.3-0.6,0.7-1,1.2-1.4s1-0.5,1.7-0.5
			c1.1,0,1.9,0.4,2.5,1.1s0.9,1.7,0.9,3.1v2.2c0,1.3-0.3,2.3-0.9,3S146.5,50.9,145.4,50.9z"/>
		<path class="st6" d="M155.9,50.9c-1.4,0-2.5-0.4-3.3-1.2s-1.2-1.9-1.2-3.4v-1.1c0-1.5,0.4-2.7,1.1-3.5s1.8-1.2,3.1-1.2
			s2.3,0.5,3,1.4s1,2.3,1,3.9v0.7h-6.8v-1.6h4.9c-0.1-0.8-0.3-1.5-0.6-1.9s-0.9-0.7-1.5-0.7c-0.7,0-1.3,0.2-1.7,0.7
			s-0.6,1.2-0.6,2.1v1.3c0,0.8,0.2,1.5,0.7,1.9s1.1,0.7,1.9,0.7c0.4,0,0.8-0.1,1.2-0.2s0.8-0.4,1.1-0.7l1.3,1.3
			c-0.5,0.5-1.1,0.9-1.7,1.1S156.5,50.9,155.9,50.9z"/>
		<path class="st6" d="M162.4,50.7V40.6h2v10.1C164.4,50.7,162.4,50.7,162.4,50.7z M168.6,50.7v-6.1c0-0.7-0.2-1.3-0.6-1.7
			s-0.9-0.6-1.6-0.6c-0.7,0-1.2,0.2-1.5,0.5s-0.5,0.8-0.5,1.5l-0.2-2c0.3-0.6,0.7-1.1,1.2-1.4s1.1-0.5,1.7-0.5c1.1,0,2,0.4,2.6,1.1
			s0.9,1.7,0.9,3.1v6.2L168.6,50.7L168.6,50.7z"/>
		<path class="st6" d="M177.7,50.9c-1.4,0-2.5-0.4-3.2-1.2s-1.1-1.9-1.1-3.3v-1.7c0-1.4,0.4-2.5,1.1-3.2s1.8-1.1,3.2-1.1
			c0.8,0,1.5,0.1,2.1,0.4s1.1,0.7,1.5,1.2l-1.4,1.3c-0.3-0.3-0.6-0.6-1-0.8s-0.8-0.3-1.2-0.3c-0.8,0-1.4,0.2-1.8,0.6s-0.6,1-0.6,1.8
			v1.7c0,0.8,0.2,1.4,0.6,1.9s1,0.7,1.8,0.7c0.4,0,0.8-0.1,1.2-0.3s0.7-0.5,1-0.8l1.4,1.4c-0.4,0.5-0.9,0.9-1.5,1.2
			S178.5,50.9,177.7,50.9z"/>
		<path class="st6" d="M183.6,50.7V36.5h2v14.2H183.6z M189.7,50.7v-6.1c0-0.7-0.2-1.3-0.6-1.7s-0.9-0.6-1.6-0.6
			c-0.7,0-1.2,0.2-1.5,0.5s-0.5,0.8-0.5,1.4l-0.2-2c0.3-0.6,0.7-1.1,1.2-1.4s1.1-0.5,1.7-0.5c1.1,0,2,0.4,2.6,1.1s0.9,1.7,0.9,3.1
			v6.2H189.7z"/>
		<path class="st6" d="M204,50.9c-1.1,0-2-0.3-2.7-0.9s-1.1-1.5-1.3-2.6l0,0h2l0,0c0.1,0.5,0.3,0.9,0.6,1.2s0.8,0.4,1.3,0.4
			c0.6,0,1.1-0.2,1.5-0.6s0.5-1,0.5-1.8v-1.2c0-0.8-0.2-1.4-0.5-1.8s-0.8-0.6-1.5-0.6c-0.3,0-0.7,0.1-1,0.3s-0.6,0.5-0.8,0.8h-1.8
			v-7.5h7.2v1.9h-5.2v3.2c0.2-0.2,0.5-0.4,0.8-0.5s0.6-0.2,0.9-0.2c1.2,0,2.2,0.4,2.9,1.1s1,1.8,1,3.2v1.2c0,1.4-0.3,2.5-1,3.2
			S205.2,50.9,204,50.9z"/>
		<path class="st6" d="M233.4,43v1.6c-1.2,1.5-2.5,2.8-3.8,3.8s-3,1.8-4.9,2.4c-2,0.6-4.4,1.1-7.4,1.3l-0.9-1.7
			c2.7-0.2,5-0.6,6.9-1.1c1.8-0.5,3.3-1.1,4.5-1.9c1.2-0.8,2.2-1.7,3.1-2.9h-6.2c-0.2,0.2-0.7,0.5-1.4,1c1.2,0.7,2,1.1,2.5,1.4
			l-1.3,1.3l-2.9-1.8c-1,0.6-2.2,1.1-3.5,1.7l-1-1.5c1.8-0.7,3.4-1.5,4.9-2.4s2.8-1.9,3.8-2.9c-2.4,1.1-5.3,1.9-8.7,2.6l-0.8-1.6
			c2.9-0.5,5.5-1.2,7.7-2.1c2.2-0.9,4-1.9,5.6-3.2h-6.7c-0.4,0.3-0.7,0.5-0.8,0.6l2.4,1.3l-1.2,1.2c-0.9-0.5-1.8-1-2.7-1.5
			c-0.8,0.5-1.7,0.9-2.6,1.3l-1-1.4c1.5-0.7,2.9-1.5,4.2-2.3c1.3-0.9,2.5-1.8,3.4-2.7l1.7,0.7c-0.4,0.4-0.8,0.8-1.2,1.3h7.4v1.7
			c-1.7,1.5-3.6,2.8-5.8,3.9l1.3,0.7c-0.5,0.5-0.9,0.9-1.3,1.3L233.4,43L233.4,43z"/>
		<path class="st6" d="M241.5,45.1c-0.4-0.7-0.9-1.4-1.4-2.1v9.4h-1.8v-9.1c-0.6,1.5-1.3,3-2.1,4.4l-0.9-1.8
			c1.3-2.2,2.2-4.3,2.9-6.3H236v-1.8h2.4v-3.6h1.8v3.6h2.1v1.8h-2.1v1.1c0.6,0.7,1.4,1.6,2.3,2.7l0.3,0.4L241.5,45.1z M252,39.7
			c-1.2,1.9-2.5,3.6-3.9,5c-1.5,1.4-3.2,2.7-5.3,3.8l-1-1.5c1.2-0.7,2.3-1.3,3.2-2s1.7-1.4,2.4-2.1c-1.3,0.2-2.2,0.4-2.8,0.5
			c-0.2,0-0.7,0.1-1.3,0.2l-0.5-1.6c0.3-0.1,0.4-0.2,0.6-0.2s0.2-0.2,0.3-0.3c0.3-0.3,0.6-0.8,1-1.4s0.8-1.2,1.1-1.8h-3.2v-1.7h4.7
			c-0.4-1-0.7-1.8-0.9-2.2l1.9-0.5c0.4,0.9,0.7,1.8,1,2.7h4.6v1.7h-6c-0.4,0.7-0.8,1.3-1.2,2s-0.8,1.2-1.1,1.5l3.3-0.5
			c0.5-0.6,1-1.4,1.6-2.4L252,39.7z M252.7,52.4c-1.3-1.2-2.6-2.3-4-3.5c-1.5,1.2-3.3,2.4-5.6,3.4l-1.1-1.6c1.6-0.7,3-1.4,4.1-2.2
			c1.1-0.7,2.2-1.5,3.1-2.4c0.9-0.9,1.8-2,2.7-3.3l1.4,0.9c-1.1,1.7-2.2,3-3.3,4.1c1.3,1,2.6,2,3.9,3L252.7,52.4z"/>
		<path class="st6" d="M262.4,38.5c0.6-1.6,1.5-2.9,2.6-4h2c-1.1,1.3-1.9,2.7-2.5,4.2s-0.9,3.2-0.9,5c0,1.9,0.3,3.6,0.9,5.1
			s1.4,2.9,2.5,4.2h-2c-1.1-1.1-2-2.5-2.6-4c-0.6-1.6-0.9-3.3-0.9-5.2C261.5,41.8,261.8,40,262.4,38.5z"/>
		<path class="st6" d="M285.7,43.4c-0.9-0.6-1.8-1.2-2.6-1.9c-0.1,2.4-0.3,4.9-0.7,7.4c-0.1,0.7-0.3,1.3-0.5,1.7s-0.6,0.7-1,0.9
			s-1,0.3-1.8,0.3h-0.7c-0.9,0-1.7,0-2.4-0.1l-0.4-1.8c0.9,0.1,1.9,0.2,2.8,0.2c0.5,0,0.8,0,1.1-0.1c0.3-0.1,0.4-0.3,0.6-0.5
			s0.2-0.6,0.3-1.1c0.1-0.7,0.2-1.6,0.3-2.5c0.1-0.9,0.1-1.7,0.2-2.3h-5.4l-0.1,1c-0.1,1.3-0.3,2.3-0.7,3.2
			c-0.3,0.9-0.9,1.7-1.7,2.5c-0.8,0.8-1.9,1.6-3.4,2.4l-1.3-1.6c1.3-0.7,2.3-1.3,3-1.9c0.7-0.6,1.2-1.3,1.5-2s0.5-1.6,0.6-2.6l0.1-1
			H271V42c-0.6,0.6-1.3,1.1-1.9,1.6l-1.1-1.7c1.4-1,2.7-2.1,3.8-3.4c1.1-1.3,2-2.7,2.6-4.2l1.8,0.7c-0.6,1.3-1.3,2.6-2.1,3.7
			c-0.8,1.1-1.7,2.2-2.8,3.2h11.8c-1.1-0.9-2-2-2.7-3.1s-1.4-2.5-1.9-4l1.8-0.6c0.6,1.8,1.5,3.3,2.5,4.5s2.4,2.3,4.1,3.4L285.7,43.4
			z"/>
		<path class="st6" d="M292.2,48.9c-0.6,1.6-1.5,2.9-2.6,4h-2c1.1-1.3,1.9-2.7,2.5-4.2s0.9-3.2,0.9-5.1c0-1.9-0.3-3.5-0.9-5
			s-1.4-2.9-2.5-4.2h2c1.1,1.1,2,2.5,2.6,4c0.6,1.6,0.9,3.3,0.9,5.2C293.2,45.6,292.9,47.3,292.2,48.9z"/>
	</g>
</g>
<text transform="matrix(1 0 0 1 926.2354 632.9998)" class="st6 st7 st8">主板功耗 (W)</text>
<g>
	<g>
		<path class="st6" d="M1032.6,583.6V598h-2v-12.2l-2,1.3V585l2-1.4H1032.6z"/>
		<path class="st6" d="M1040.1,598.1c-0.9,0-1.6-0.2-2.3-0.5s-1.2-0.8-1.5-1.4c-0.4-0.6-0.5-1.3-0.5-2.1v-0.2c0-0.7,0.2-1.4,0.5-2
			c0.4-0.6,0.8-1.1,1.4-1.4c-0.5-0.3-0.9-0.7-1.2-1.2c-0.3-0.5-0.5-1.1-0.5-1.7v-0.3c0-1.1,0.4-2.1,1.1-2.7c0.7-0.7,1.7-1,2.9-1
			c1.2,0,2.2,0.3,2.9,1c0.7,0.7,1.1,1.6,1.1,2.7v0.3c0,0.6-0.2,1.1-0.5,1.7c-0.3,0.5-0.7,0.9-1.2,1.2c0.6,0.3,1.1,0.8,1.5,1.4
			s0.5,1.3,0.5,2v0.2c0,0.8-0.2,1.5-0.5,2.1s-0.9,1.1-1.5,1.4C1041.7,598,1041,598.1,1040.1,598.1z M1040.1,596.2
			c0.7,0,1.3-0.2,1.7-0.6c0.4-0.4,0.6-0.9,0.6-1.6v-0.1c0-0.7-0.2-1.2-0.6-1.6c-0.4-0.4-1-0.6-1.7-0.6s-1.3,0.2-1.7,0.6
			c-0.4,0.4-0.6,0.9-0.6,1.6v0.1c0,0.7,0.2,1.2,0.6,1.6C1038.8,596,1039.4,596.2,1040.1,596.2z M1040.1,589.7c0.6,0,1.1-0.2,1.5-0.6
			c0.4-0.4,0.6-0.9,0.6-1.5v-0.1c0-0.6-0.2-1.1-0.6-1.5c-0.4-0.4-0.9-0.6-1.5-0.6c-0.6,0-1.1,0.2-1.5,0.6c-0.4,0.4-0.6,0.9-0.6,1.5
			v0.1c0,0.6,0.2,1.1,0.6,1.5S1039.5,589.7,1040.1,589.7z"/>
	</g>
</g>
<g>
	<g>
		<path class="st6" d="M934,583.6V598h-2v-12.2l-2,1.3V585l2-1.4H934z"/>
		<path class="st6" d="M940.9,598.1c-1.3,0-2.3-0.4-3-1.1c-0.7-0.8-1-1.8-1-3.2v0c0-0.6,0.1-1.3,0.3-2c0.2-0.7,0.4-1.4,0.7-2
			l3.1-6.2h2.2l-3.7,7.2l0-0.4c0.3-0.7,1-1,1.8-1c1.1,0,2,0.4,2.6,1.1c0.6,0.7,0.9,1.8,0.9,3.2v0c0,1.4-0.3,2.5-1,3.2
			S942.2,598.1,940.9,598.1z M940.9,596.2c0.6,0,1.1-0.2,1.5-0.6s0.5-1,0.5-1.7v0c0-0.8-0.2-1.4-0.5-1.9c-0.4-0.4-0.9-0.7-1.5-0.7
			c-0.6,0-1.1,0.2-1.4,0.7c-0.3,0.4-0.5,1.1-0.5,1.9v0c0,0.7,0.2,1.3,0.5,1.7S940.3,596.2,940.9,596.2z"/>
	</g>
</g>
<g>
	<g>
		<path class="st6" d="M834.2,583.6V598h-2v-12.2l-2,1.3V585l2-1.4H834.2z"/>
		<path class="st6" d="M837.3,595.8V594l4.8-10.4h2.1l-4.7,10.3h7v1.9H837.3z M843.5,598v-8.4h2v8.4H843.5z"/>
	</g>
</g>
<g>
	<g>
		<path class="st6" d="M735.6,583.6V598h-2v-12.2l-2,1.3V585l2-1.4H735.6z"/>
		<path class="st6" d="M738.6,598v-1.7l5-6.7c0.3-0.4,0.5-0.8,0.7-1.2s0.2-0.8,0.2-1.2v0c0-0.6-0.2-1-0.5-1.3
			c-0.3-0.3-0.8-0.5-1.4-0.5c-0.6,0-1.1,0.2-1.4,0.5s-0.6,0.8-0.7,1.5v0h-2.1v0c0.2-1.2,0.6-2.2,1.4-2.9c0.7-0.7,1.7-1,2.8-1
			c1.3,0,2.3,0.3,3,1s1.1,1.6,1.1,2.8v0c0,0.5-0.1,1-0.3,1.6c-0.2,0.6-0.5,1.1-0.9,1.6l-4.2,5.6h5.4v1.9H738.6z"/>
	</g>
</g>
<g>
	<g>
		<path class="st6" d="M636,583.6V598h-2v-12.2l-2,1.3V585l2-1.4H636z"/>
		<path class="st6" d="M643.4,598.1c-1.4,0-2.4-0.4-3.1-1.1c-0.7-0.7-1-1.7-1-3v-6.5c0-1.3,0.3-2.3,1-3c0.7-0.7,1.7-1.1,3.1-1.1
			c1.4,0,2.4,0.4,3.1,1.1c0.7,0.7,1,1.7,1,3v6.5c0,1.3-0.3,2.3-1,3C645.8,597.8,644.7,598.1,643.4,598.1z M643.4,596.2
			c0.7,0,1.3-0.2,1.6-0.6c0.3-0.4,0.5-0.9,0.5-1.6v-6.5c0-0.7-0.2-1.2-0.5-1.6c-0.3-0.4-0.9-0.6-1.6-0.6s-1.3,0.2-1.6,0.6
			c-0.3,0.4-0.5,0.9-0.5,1.6v6.5c0,0.7,0.2,1.2,0.5,1.6C642.1,596,642.7,596.2,643.4,596.2z"/>
	</g>
</g>
<g>
	<g>
		<path class="st6" d="M540.9,598.1c-0.9,0-1.6-0.2-2.3-0.5s-1.2-0.8-1.5-1.4c-0.4-0.6-0.5-1.3-0.5-2.1v-0.2c0-0.7,0.2-1.4,0.5-2
			c0.4-0.6,0.8-1.1,1.4-1.4c-0.5-0.3-0.9-0.7-1.2-1.2c-0.3-0.5-0.5-1.1-0.5-1.7v-0.3c0-1.1,0.4-2.1,1.1-2.7c0.7-0.7,1.7-1,2.9-1
			c1.2,0,2.2,0.3,2.9,1c0.7,0.7,1.1,1.6,1.1,2.7v0.3c0,0.6-0.2,1.1-0.5,1.7c-0.3,0.5-0.7,0.9-1.2,1.2c0.6,0.3,1.1,0.8,1.5,1.4
			s0.5,1.3,0.5,2v0.2c0,0.8-0.2,1.5-0.5,2.1s-0.9,1.1-1.5,1.4C542.5,598,541.7,598.1,540.9,598.1z M540.9,596.2
			c0.7,0,1.3-0.2,1.7-0.6c0.4-0.4,0.6-0.9,0.6-1.6v-0.1c0-0.7-0.2-1.2-0.6-1.6c-0.4-0.4-1-0.6-1.7-0.6s-1.3,0.2-1.7,0.6
			c-0.4,0.4-0.6,0.9-0.6,1.6v0.1c0,0.7,0.2,1.2,0.6,1.6C539.6,596,540.1,596.2,540.9,596.2z M540.9,589.7c0.6,0,1.1-0.2,1.5-0.6
			c0.4-0.4,0.6-0.9,0.6-1.5v-0.1c0-0.6-0.2-1.1-0.6-1.5c-0.4-0.4-0.9-0.6-1.5-0.6c-0.6,0-1.1,0.2-1.5,0.6c-0.4,0.4-0.6,0.9-0.6,1.5
			v0.1c0,0.6,0.2,1.1,0.6,1.5S540.2,589.7,540.9,589.7z"/>
	</g>
</g>
<g>
	<g>
		<path class="st6" d="M441.7,598.1c-1.3,0-2.3-0.4-3-1.1c-0.7-0.8-1-1.8-1-3.2v0c0-0.6,0.1-1.3,0.3-2c0.2-0.7,0.4-1.4,0.7-2
			l3.1-6.2h2.2l-3.7,7.2l0-0.4c0.3-0.7,1-1,1.8-1c1.1,0,2,0.4,2.6,1.1c0.6,0.7,0.9,1.8,0.9,3.2v0c0,1.4-0.3,2.5-1,3.2
			S442.9,598.1,441.7,598.1z M441.7,596.2c0.6,0,1.1-0.2,1.5-0.6s0.5-1,0.5-1.7v0c0-0.8-0.2-1.4-0.5-1.9c-0.4-0.4-0.9-0.7-1.5-0.7
			c-0.6,0-1.1,0.2-1.4,0.7c-0.3,0.4-0.5,1.1-0.5,1.9v0c0,0.7,0.2,1.3,0.5,1.7S441,596.2,441.7,596.2z"/>
	</g>
</g>
<g>
	<g>
		<path class="st6" d="M338,595.8V594l4.8-10.4h2.1l-4.7,10.3h7v1.9H338z M344.2,598v-8.4h2v8.4H344.2z"/>
	</g>
</g>
<g>
	<g>
		<path class="st6" d="M239.4,598v-1.7l5-6.7c0.3-0.4,0.5-0.8,0.7-1.2s0.2-0.8,0.2-1.2v0c0-0.6-0.2-1-0.5-1.3
			c-0.3-0.3-0.8-0.5-1.4-0.5c-0.6,0-1.1,0.2-1.4,0.5s-0.6,0.8-0.7,1.5v0h-2.1v0c0.2-1.2,0.6-2.2,1.4-2.9c0.7-0.7,1.7-1,2.8-1
			c1.3,0,2.3,0.3,3,1s1.1,1.6,1.1,2.8v0c0,0.5-0.1,1-0.3,1.6c-0.2,0.6-0.5,1.1-0.9,1.6l-4.2,5.6h5.4v1.9H239.4z"/>
	</g>
</g>
<g>
	<g>
		<path class="st6" d="M144.1,598.1c-1.4,0-2.4-0.4-3.1-1.1c-0.7-0.7-1-1.7-1-3v-6.5c0-1.3,0.3-2.3,1-3c0.7-0.7,1.7-1.1,3.1-1.1
			c1.4,0,2.4,0.4,3.1,1.1c0.7,0.7,1,1.7,1,3v6.5c0,1.3-0.3,2.3-1,3C146.5,597.8,145.5,598.1,144.1,598.1z M144.1,596.2
			c0.7,0,1.3-0.2,1.6-0.6c0.3-0.4,0.5-0.9,0.5-1.6v-6.5c0-0.7-0.2-1.2-0.5-1.6c-0.3-0.4-0.9-0.6-1.6-0.6s-1.3,0.2-1.6,0.6
			c-0.3,0.4-0.5,0.9-0.5,1.6v6.5c0,0.7,0.2,1.2,0.5,1.6C142.9,596,143.4,596.2,144.1,596.2z"/>
	</g>
</g>
<g>
	<g>
		<path class="st6" d="M97.4,84.6c-0.9,0-1.7-0.2-2.4-0.5s-1.2-0.8-1.6-1.4s-0.6-1.4-0.6-2.2v-0.2c0-0.7,0.2-1.4,0.6-2.1
			c0.4-0.7,0.9-1.2,1.5-1.5c-0.5-0.3-0.9-0.7-1.3-1.2c-0.3-0.5-0.5-1.1-0.5-1.7v-0.4c0-1.2,0.4-2.1,1.2-2.8c0.8-0.7,1.8-1.1,3.1-1.1
			s2.3,0.4,3.1,1.1c0.8,0.7,1.2,1.7,1.2,2.8v0.4c0,0.6-0.2,1.2-0.5,1.7c-0.3,0.5-0.8,1-1.3,1.2c0.6,0.3,1.1,0.8,1.5,1.5
			c0.4,0.7,0.6,1.4,0.6,2.1v0.2c0,0.8-0.2,1.6-0.6,2.2s-0.9,1.1-1.6,1.4S98.3,84.6,97.4,84.6z M97.4,82.5c0.7,0,1.3-0.2,1.8-0.6
			c0.4-0.4,0.7-1,0.7-1.7v-0.1c0-0.7-0.2-1.2-0.7-1.7c-0.4-0.4-1-0.6-1.8-0.6S96,78,95.6,78.4c-0.4,0.4-0.7,1-0.7,1.7v0.2
			c0,0.7,0.2,1.2,0.7,1.6C96,82.3,96.6,82.5,97.4,82.5z M97.4,75.8c0.6,0,1.1-0.2,1.5-0.6s0.6-0.9,0.6-1.6v-0.1
			c0-0.6-0.2-1.1-0.6-1.5s-0.9-0.6-1.5-0.6s-1.1,0.2-1.5,0.6s-0.6,0.9-0.6,1.5v0.2c0,0.7,0.2,1.2,0.6,1.6
			C96.2,75.6,96.7,75.8,97.4,75.8z"/>
		<path class="st6" d="M109.1,84.6c-1.4,0-2.5-0.4-3.2-1.1c-0.7-0.8-1.1-1.8-1.1-3.1v-6.8c0-1.3,0.4-2.4,1.1-3.1s1.8-1.1,3.2-1.1
			c1.4,0,2.5,0.4,3.2,1.1c0.7,0.7,1.1,1.8,1.1,3.1v6.8c0,1.3-0.4,2.4-1.1,3.1C111.5,84.2,110.5,84.6,109.1,84.6z M109.1,82.6
			c0.8,0,1.3-0.2,1.7-0.6c0.3-0.4,0.5-0.9,0.5-1.6v-6.8c0-0.7-0.2-1.3-0.5-1.7c-0.3-0.4-0.9-0.6-1.7-0.6s-1.3,0.2-1.7,0.6
			c-0.3,0.4-0.5,0.9-0.5,1.7v6.8c0,0.7,0.2,1.2,0.5,1.6C107.7,82.4,108.3,82.6,109.1,82.6z"/>
		<path class="st6" d="M120.6,84.6c-1.4,0-2.5-0.4-3.2-1.1c-0.7-0.8-1.1-1.8-1.1-3.1v-6.8c0-1.3,0.4-2.4,1.1-3.1s1.8-1.1,3.2-1.1
			c1.4,0,2.5,0.4,3.2,1.1c0.7,0.7,1.1,1.8,1.1,3.1v6.8c0,1.3-0.4,2.4-1.1,3.1C123.1,84.2,122.1,84.6,120.6,84.6z M120.6,82.6
			c0.8,0,1.3-0.2,1.7-0.6c0.3-0.4,0.5-0.9,0.5-1.6v-6.8c0-0.7-0.2-1.3-0.5-1.7c-0.3-0.4-0.9-0.6-1.7-0.6s-1.3,0.2-1.7,0.6
			c-0.3,0.4-0.5,0.9-0.5,1.7v6.8c0,0.7,0.2,1.2,0.5,1.6C119.3,82.4,119.9,82.6,120.6,82.6z"/>
		<path class="st6" d="M132.2,84.6c-1.4,0-2.5-0.4-3.2-1.1c-0.7-0.8-1.1-1.8-1.1-3.1v-6.8c0-1.3,0.4-2.4,1.1-3.1s1.8-1.1,3.2-1.1
			c1.4,0,2.5,0.4,3.2,1.1c0.7,0.7,1.1,1.8,1.1,3.1v6.8c0,1.3-0.4,2.4-1.1,3.1C134.7,84.2,133.6,84.6,132.2,84.6z M132.2,82.6
			c0.8,0,1.3-0.2,1.7-0.6c0.3-0.4,0.5-0.9,0.5-1.6v-6.8c0-0.7-0.2-1.3-0.5-1.7c-0.3-0.4-0.9-0.6-1.7-0.6s-1.3,0.2-1.7,0.6
			c-0.3,0.4-0.5,0.9-0.5,1.7v6.8c0,0.7,0.2,1.2,0.5,1.6C130.9,82.4,131.5,82.6,132.2,82.6z"/>
	</g>
</g>
<g>
	<g>
		<path class="st6" d="M101.9,131.9v1.9l-3.9,13h-2.2l3.9-12.9h-3.8v2.1h-2.1v-4.1H101.9z"/>
		<path class="st6" d="M109.1,147c-1.4,0-2.5-0.4-3.2-1.1c-0.7-0.8-1.1-1.8-1.1-3.1V136c0-1.3,0.4-2.4,1.1-3.1s1.8-1.1,3.2-1.1
			c1.4,0,2.5,0.4,3.2,1.1c0.7,0.7,1.1,1.8,1.1,3.1v6.8c0,1.3-0.4,2.4-1.1,3.1C111.5,146.6,110.5,147,109.1,147z M109.1,145
			c0.8,0,1.3-0.2,1.7-0.6c0.3-0.4,0.5-0.9,0.5-1.6V136c0-0.7-0.2-1.3-0.5-1.7c-0.3-0.4-0.9-0.6-1.7-0.6s-1.3,0.2-1.7,0.6
			c-0.3,0.4-0.5,0.9-0.5,1.7v6.8c0,0.7,0.2,1.2,0.5,1.6C107.7,144.8,108.3,145,109.1,145z"/>
		<path class="st6" d="M120.6,147c-1.4,0-2.5-0.4-3.2-1.1c-0.7-0.8-1.1-1.8-1.1-3.1V136c0-1.3,0.4-2.4,1.1-3.1s1.8-1.1,3.2-1.1
			c1.4,0,2.5,0.4,3.2,1.1c0.7,0.7,1.1,1.8,1.1,3.1v6.8c0,1.3-0.4,2.4-1.1,3.1C123.1,146.6,122.1,147,120.6,147z M120.6,145
			c0.8,0,1.3-0.2,1.7-0.6c0.3-0.4,0.5-0.9,0.5-1.6V136c0-0.7-0.2-1.3-0.5-1.7c-0.3-0.4-0.9-0.6-1.7-0.6s-1.3,0.2-1.7,0.6
			c-0.3,0.4-0.5,0.9-0.5,1.7v6.8c0,0.7,0.2,1.2,0.5,1.6C119.3,144.8,119.9,145,120.6,145z"/>
		<path class="st6" d="M132.2,147c-1.4,0-2.5-0.4-3.2-1.1c-0.7-0.8-1.1-1.8-1.1-3.1V136c0-1.3,0.4-2.4,1.1-3.1s1.8-1.1,3.2-1.1
			c1.4,0,2.5,0.4,3.2,1.1c0.7,0.7,1.1,1.8,1.1,3.1v6.8c0,1.3-0.4,2.4-1.1,3.1C134.7,146.6,133.6,147,132.2,147z M132.2,145
			c0.8,0,1.3-0.2,1.7-0.6c0.3-0.4,0.5-0.9,0.5-1.6V136c0-0.7-0.2-1.3-0.5-1.7c-0.3-0.4-0.9-0.6-1.7-0.6s-1.3,0.2-1.7,0.6
			c-0.3,0.4-0.5,0.9-0.5,1.7v6.8c0,0.7,0.2,1.2,0.5,1.6C130.9,144.8,131.5,145,132.2,145z"/>
	</g>
</g>
<g>
	<g>
		<path class="st6" d="M97.9,209.4c-1.3,0-2.3-0.4-3.1-1.2s-1.1-1.9-1.1-3.3v0c0-0.6,0.1-1.3,0.3-2s0.4-1.4,0.8-2.1l3.2-6.4h2.3
			l-3.8,7.4l0-0.4c0.4-0.7,1-1,1.9-1c1.2,0,2.1,0.4,2.7,1.2s1,1.9,1,3.3v0c0,1.4-0.4,2.6-1.1,3.4C100.2,209,99.2,209.4,97.9,209.4z
			 M97.9,207.4c0.7,0,1.2-0.2,1.5-0.6s0.5-1,0.5-1.8v0c0-0.8-0.2-1.5-0.6-1.9c-0.4-0.5-0.9-0.7-1.6-0.7c-0.6,0-1.1,0.2-1.4,0.7
			s-0.5,1.1-0.5,1.9v0c0,0.8,0.2,1.3,0.5,1.7C96.7,207.2,97.2,207.4,97.9,207.4z"/>
		<path class="st6" d="M109.1,209.4c-1.4,0-2.5-0.4-3.2-1.1c-0.7-0.8-1.1-1.8-1.1-3.1v-6.8c0-1.3,0.4-2.4,1.1-3.1s1.8-1.1,3.2-1.1
			c1.4,0,2.5,0.4,3.2,1.1c0.7,0.7,1.1,1.8,1.1,3.1v6.8c0,1.3-0.4,2.4-1.1,3.1C111.5,209.1,110.5,209.4,109.1,209.4z M109.1,207.4
			c0.8,0,1.3-0.2,1.7-0.6c0.3-0.4,0.5-0.9,0.5-1.6v-6.8c0-0.7-0.2-1.3-0.5-1.7c-0.3-0.4-0.9-0.6-1.7-0.6s-1.3,0.2-1.7,0.6
			c-0.3,0.4-0.5,0.9-0.5,1.7v6.8c0,0.7,0.2,1.2,0.5,1.6C107.7,207.2,108.3,207.4,109.1,207.4z"/>
		<path class="st6" d="M120.6,209.4c-1.4,0-2.5-0.4-3.2-1.1c-0.7-0.8-1.1-1.8-1.1-3.1v-6.8c0-1.3,0.4-2.4,1.1-3.1s1.8-1.1,3.2-1.1
			c1.4,0,2.5,0.4,3.2,1.1c0.7,0.7,1.1,1.8,1.1,3.1v6.8c0,1.3-0.4,2.4-1.1,3.1C123.1,209.1,122.1,209.4,120.6,209.4z M120.6,207.4
			c0.8,0,1.3-0.2,1.7-0.6c0.3-0.4,0.5-0.9,0.5-1.6v-6.8c0-0.7-0.2-1.3-0.5-1.7c-0.3-0.4-0.9-0.6-1.7-0.6s-1.3,0.2-1.7,0.6
			c-0.3,0.4-0.5,0.9-0.5,1.7v6.8c0,0.7,0.2,1.2,0.5,1.6C119.3,207.2,119.9,207.4,120.6,207.4z"/>
		<path class="st6" d="M132.2,209.4c-1.4,0-2.5-0.4-3.2-1.1c-0.7-0.8-1.1-1.8-1.1-3.1v-6.8c0-1.3,0.4-2.4,1.1-3.1s1.8-1.1,3.2-1.1
			c1.4,0,2.5,0.4,3.2,1.1c0.7,0.7,1.1,1.8,1.1,3.1v6.8c0,1.3-0.4,2.4-1.1,3.1C134.7,209.1,133.6,209.4,132.2,209.4z M132.2,207.4
			c0.8,0,1.3-0.2,1.7-0.6c0.3-0.4,0.5-0.9,0.5-1.6v-6.8c0-0.7-0.2-1.3-0.5-1.7c-0.3-0.4-0.9-0.6-1.7-0.6s-1.3,0.2-1.7,0.6
			c-0.3,0.4-0.5,0.9-0.5,1.7v6.8c0,0.7,0.2,1.2,0.5,1.6C130.9,207.2,131.5,207.4,132.2,207.4z"/>
	</g>
</g>
<g>
	<g>
		<path class="st6" d="M97.5,271.9c-1.1,0-2.1-0.3-2.8-1c-0.7-0.7-1.2-1.6-1.4-2.8v0h2.1v0c0.1,0.5,0.3,1,0.7,1.3
			c0.4,0.3,0.8,0.5,1.4,0.5c0.7,0,1.2-0.2,1.6-0.7c0.4-0.4,0.5-1.1,0.5-1.9V266c0-0.8-0.2-1.4-0.5-1.9c-0.4-0.4-0.9-0.7-1.6-0.7
			c-0.4,0-0.7,0.1-1,0.3s-0.6,0.5-0.9,0.9h-1.9v-7.9h7.6v2h-5.5v3.4c0.3-0.2,0.6-0.4,0.9-0.5s0.6-0.2,1-0.2c1.3,0,2.3,0.4,3,1.2
			c0.7,0.8,1.1,1.9,1.1,3.4v1.3c0,1.5-0.4,2.6-1.1,3.4C99.9,271.5,98.9,271.9,97.5,271.9z"/>
		<path class="st6" d="M109.1,271.9c-1.4,0-2.5-0.4-3.2-1.1c-0.7-0.8-1.1-1.8-1.1-3.1v-6.8c0-1.3,0.4-2.4,1.1-3.1s1.8-1.1,3.2-1.1
			c1.4,0,2.5,0.4,3.2,1.1c0.7,0.7,1.1,1.8,1.1,3.1v6.8c0,1.3-0.4,2.4-1.1,3.1C111.5,271.5,110.5,271.9,109.1,271.9z M109.1,269.9
			c0.8,0,1.3-0.2,1.7-0.6c0.3-0.4,0.5-0.9,0.5-1.6v-6.8c0-0.7-0.2-1.3-0.5-1.7c-0.3-0.4-0.9-0.6-1.7-0.6s-1.3,0.2-1.7,0.6
			c-0.3,0.4-0.5,0.9-0.5,1.7v6.8c0,0.7,0.2,1.2,0.5,1.6C107.7,269.7,108.3,269.9,109.1,269.9z"/>
		<path class="st6" d="M120.6,271.9c-1.4,0-2.5-0.4-3.2-1.1c-0.7-0.8-1.1-1.8-1.1-3.1v-6.8c0-1.3,0.4-2.4,1.1-3.1s1.8-1.1,3.2-1.1
			c1.4,0,2.5,0.4,3.2,1.1c0.7,0.7,1.1,1.8,1.1,3.1v6.8c0,1.3-0.4,2.4-1.1,3.1C123.1,271.5,122.1,271.9,120.6,271.9z M120.6,269.9
			c0.8,0,1.3-0.2,1.7-0.6c0.3-0.4,0.5-0.9,0.5-1.6v-6.8c0-0.7-0.2-1.3-0.5-1.7c-0.3-0.4-0.9-0.6-1.7-0.6s-1.3,0.2-1.7,0.6
			c-0.3,0.4-0.5,0.9-0.5,1.7v6.8c0,0.7,0.2,1.2,0.5,1.6C119.3,269.7,119.9,269.9,120.6,269.9z"/>
		<path class="st6" d="M132.2,271.9c-1.4,0-2.5-0.4-3.2-1.1c-0.7-0.8-1.1-1.8-1.1-3.1v-6.8c0-1.3,0.4-2.4,1.1-3.1s1.8-1.1,3.2-1.1
			c1.4,0,2.5,0.4,3.2,1.1c0.7,0.7,1.1,1.8,1.1,3.1v6.8c0,1.3-0.4,2.4-1.1,3.1C134.7,271.5,133.6,271.9,132.2,271.9z M132.2,269.9
			c0.8,0,1.3-0.2,1.7-0.6c0.3-0.4,0.5-0.9,0.5-1.6v-6.8c0-0.7-0.2-1.3-0.5-1.7c-0.3-0.4-0.9-0.6-1.7-0.6s-1.3,0.2-1.7,0.6
			c-0.3,0.4-0.5,0.9-0.5,1.7v6.8c0,0.7,0.2,1.2,0.5,1.6C130.9,269.7,131.5,269.9,132.2,269.9z"/>
	</g>
</g>
<g>
	<g>
		<path class="st6" d="M92.7,331.9V330l5-10.8h2.2l-4.9,10.7h7.3v1.9H92.7z M99.1,334.2v-8.8h2v8.8H99.1z"/>
		<path class="st6" d="M109.1,334.3c-1.4,0-2.5-0.4-3.2-1.1c-0.7-0.8-1.1-1.8-1.1-3.1v-6.8c0-1.3,0.4-2.4,1.1-3.1s1.8-1.1,3.2-1.1
			c1.4,0,2.5,0.4,3.2,1.1c0.7,0.7,1.1,1.8,1.1,3.1v6.8c0,1.3-0.4,2.4-1.1,3.1C111.5,333.9,110.5,334.3,109.1,334.3z M109.1,332.3
			c0.8,0,1.3-0.2,1.7-0.6c0.3-0.4,0.5-0.9,0.5-1.6v-6.8c0-0.7-0.2-1.3-0.5-1.7c-0.3-0.4-0.9-0.6-1.7-0.6s-1.3,0.2-1.7,0.6
			c-0.3,0.4-0.5,0.9-0.5,1.7v6.8c0,0.7,0.2,1.2,0.5,1.6C107.7,332.1,108.3,332.3,109.1,332.3z"/>
		<path class="st6" d="M120.6,334.3c-1.4,0-2.5-0.4-3.2-1.1c-0.7-0.8-1.1-1.8-1.1-3.1v-6.8c0-1.3,0.4-2.4,1.1-3.1s1.8-1.1,3.2-1.1
			c1.4,0,2.5,0.4,3.2,1.1c0.7,0.7,1.1,1.8,1.1,3.1v6.8c0,1.3-0.4,2.4-1.1,3.1C123.1,333.9,122.1,334.3,120.6,334.3z M120.6,332.3
			c0.8,0,1.3-0.2,1.7-0.6c0.3-0.4,0.5-0.9,0.5-1.6v-6.8c0-0.7-0.2-1.3-0.5-1.7c-0.3-0.4-0.9-0.6-1.7-0.6s-1.3,0.2-1.7,0.6
			c-0.3,0.4-0.5,0.9-0.5,1.7v6.8c0,0.7,0.2,1.2,0.5,1.6C119.3,332.1,119.9,332.3,120.6,332.3z"/>
		<path class="st6" d="M132.2,334.3c-1.4,0-2.5-0.4-3.2-1.1c-0.7-0.8-1.1-1.8-1.1-3.1v-6.8c0-1.3,0.4-2.4,1.1-3.1s1.8-1.1,3.2-1.1
			c1.4,0,2.5,0.4,3.2,1.1c0.7,0.7,1.1,1.8,1.1,3.1v6.8c0,1.3-0.4,2.4-1.1,3.1C134.7,333.9,133.6,334.3,132.2,334.3z M132.2,332.3
			c0.8,0,1.3-0.2,1.7-0.6c0.3-0.4,0.5-0.9,0.5-1.6v-6.8c0-0.7-0.2-1.3-0.5-1.7c-0.3-0.4-0.9-0.6-1.7-0.6s-1.3,0.2-1.7,0.6
			c-0.3,0.4-0.5,0.9-0.5,1.7v6.8c0,0.7,0.2,1.2,0.5,1.6C130.9,332.1,131.5,332.3,132.2,332.3z"/>
	</g>
</g>
<g>
	<g>
		<path class="st6" d="M97.6,396.7c-0.8,0-1.6-0.2-2.2-0.5c-0.6-0.3-1.1-0.7-1.5-1.3s-0.6-1.3-0.7-2.1h2.1c0.1,0.6,0.3,1.1,0.8,1.4
			c0.4,0.3,0.9,0.4,1.6,0.4c0.7,0,1.2-0.2,1.6-0.6s0.6-0.9,0.6-1.6v-0.5c0-0.7-0.2-1.3-0.5-1.7c-0.4-0.4-0.9-0.6-1.5-0.6h-1.1v-2
			h1.1c0.6,0,1-0.2,1.4-0.5c0.3-0.3,0.5-0.8,0.5-1.5v-0.5c0-0.6-0.2-1-0.5-1.4c-0.3-0.3-0.8-0.5-1.4-0.5c-0.5,0-1,0.1-1.3,0.4
			c-0.4,0.3-0.6,0.8-0.8,1.4h-2.1c0.2-1.2,0.7-2.2,1.4-2.9c0.7-0.7,1.7-1,2.8-1c1.3,0,2.3,0.3,3,1s1.1,1.6,1.1,2.9v0.2
			c0,0.7-0.2,1.4-0.6,1.9c-0.4,0.6-1,1-1.7,1.2c0.8,0.2,1.4,0.6,1.9,1.2c0.4,0.6,0.7,1.4,0.7,2.4v0.2c0,1.3-0.4,2.3-1.1,3
			S98.9,396.7,97.6,396.7z"/>
		<path class="st6" d="M109.1,396.7c-1.4,0-2.5-0.4-3.2-1.1c-0.7-0.8-1.1-1.8-1.1-3.1v-6.8c0-1.3,0.4-2.4,1.1-3.1s1.8-1.1,3.2-1.1
			c1.4,0,2.5,0.4,3.2,1.1c0.7,0.7,1.1,1.8,1.1,3.1v6.8c0,1.3-0.4,2.4-1.1,3.1C111.5,396.4,110.5,396.7,109.1,396.7z M109.1,394.8
			c0.8,0,1.3-0.2,1.7-0.6c0.3-0.4,0.5-0.9,0.5-1.6v-6.8c0-0.7-0.2-1.3-0.5-1.7c-0.3-0.4-0.9-0.6-1.7-0.6s-1.3,0.2-1.7,0.6
			c-0.3,0.4-0.5,0.9-0.5,1.7v6.8c0,0.7,0.2,1.2,0.5,1.6C107.7,394.6,108.3,394.8,109.1,394.8z"/>
		<path class="st6" d="M120.6,396.7c-1.4,0-2.5-0.4-3.2-1.1c-0.7-0.8-1.1-1.8-1.1-3.1v-6.8c0-1.3,0.4-2.4,1.1-3.1s1.8-1.1,3.2-1.1
			c1.4,0,2.5,0.4,3.2,1.1c0.7,0.7,1.1,1.8,1.1,3.1v6.8c0,1.3-0.4,2.4-1.1,3.1C123.1,396.4,122.1,396.7,120.6,396.7z M120.6,394.8
			c0.8,0,1.3-0.2,1.7-0.6c0.3-0.4,0.5-0.9,0.5-1.6v-6.8c0-0.7-0.2-1.3-0.5-1.7c-0.3-0.4-0.9-0.6-1.7-0.6s-1.3,0.2-1.7,0.6
			c-0.3,0.4-0.5,0.9-0.5,1.7v6.8c0,0.7,0.2,1.2,0.5,1.6C119.3,394.6,119.9,394.8,120.6,394.8z"/>
		<path class="st6" d="M132.2,396.7c-1.4,0-2.5-0.4-3.2-1.1c-0.7-0.8-1.1-1.8-1.1-3.1v-6.8c0-1.3,0.4-2.4,1.1-3.1s1.8-1.1,3.2-1.1
			c1.4,0,2.5,0.4,3.2,1.1c0.7,0.7,1.1,1.8,1.1,3.1v6.8c0,1.3-0.4,2.4-1.1,3.1C134.7,396.4,133.6,396.7,132.2,396.7z M132.2,394.8
			c0.8,0,1.3-0.2,1.7-0.6c0.3-0.4,0.5-0.9,0.5-1.6v-6.8c0-0.7-0.2-1.3-0.5-1.7c-0.3-0.4-0.9-0.6-1.7-0.6s-1.3,0.2-1.7,0.6
			c-0.3,0.4-0.5,0.9-0.5,1.7v6.8c0,0.7,0.2,1.2,0.5,1.6C130.9,394.6,131.5,394.8,132.2,394.8z"/>
	</g>
</g>
<g>
	<g>
		<path class="st6" d="M93.7,459v-1.8l5.2-6.9c0.3-0.4,0.5-0.8,0.7-1.2c0.2-0.4,0.3-0.8,0.3-1.2v0c0-0.6-0.2-1.1-0.5-1.4
			s-0.8-0.5-1.5-0.5c-0.6,0-1.1,0.2-1.5,0.5c-0.4,0.4-0.6,0.9-0.7,1.5v0h-2.2v0c0.2-1.3,0.7-2.3,1.4-3c0.8-0.7,1.7-1.1,2.9-1.1
			c1.3,0,2.4,0.3,3.1,1s1.1,1.6,1.1,2.9v0c0,0.5-0.1,1.1-0.3,1.7c-0.2,0.6-0.5,1.1-0.9,1.7l-4.3,5.9h5.6v2H93.7z"/>
		<path class="st6" d="M109.1,459.2c-1.4,0-2.5-0.4-3.2-1.1c-0.7-0.8-1.1-1.8-1.1-3.1v-6.8c0-1.3,0.4-2.4,1.1-3.1s1.8-1.1,3.2-1.1
			c1.4,0,2.5,0.4,3.2,1.1c0.7,0.7,1.1,1.8,1.1,3.1v6.8c0,1.3-0.4,2.4-1.1,3.1C111.5,458.8,110.5,459.2,109.1,459.2z M109.1,457.2
			c0.8,0,1.3-0.2,1.7-0.6c0.3-0.4,0.5-0.9,0.5-1.6v-6.8c0-0.7-0.2-1.3-0.5-1.7c-0.3-0.4-0.9-0.6-1.7-0.6s-1.3,0.2-1.7,0.6
			c-0.3,0.4-0.5,0.9-0.5,1.7v6.8c0,0.7,0.2,1.2,0.5,1.6C107.7,457,108.3,457.2,109.1,457.2z"/>
		<path class="st6" d="M120.6,459.2c-1.4,0-2.5-0.4-3.2-1.1c-0.7-0.8-1.1-1.8-1.1-3.1v-6.8c0-1.3,0.4-2.4,1.1-3.1s1.8-1.1,3.2-1.1
			c1.4,0,2.5,0.4,3.2,1.1c0.7,0.7,1.1,1.8,1.1,3.1v6.8c0,1.3-0.4,2.4-1.1,3.1C123.1,458.8,122.1,459.2,120.6,459.2z M120.6,457.2
			c0.8,0,1.3-0.2,1.7-0.6c0.3-0.4,0.5-0.9,0.5-1.6v-6.8c0-0.7-0.2-1.3-0.5-1.7c-0.3-0.4-0.9-0.6-1.7-0.6s-1.3,0.2-1.7,0.6
			c-0.3,0.4-0.5,0.9-0.5,1.7v6.8c0,0.7,0.2,1.2,0.5,1.6C119.3,457,119.9,457.2,120.6,457.2z"/>
		<path class="st6" d="M132.2,459.2c-1.4,0-2.5-0.4-3.2-1.1c-0.7-0.8-1.1-1.8-1.1-3.1v-6.8c0-1.3,0.4-2.4,1.1-3.1s1.8-1.1,3.2-1.1
			c1.4,0,2.5,0.4,3.2,1.1c0.7,0.7,1.1,1.8,1.1,3.1v6.8c0,1.3-0.4,2.4-1.1,3.1C134.7,458.8,133.6,459.2,132.2,459.2z M132.2,457.2
			c0.8,0,1.3-0.2,1.7-0.6c0.3-0.4,0.5-0.9,0.5-1.6v-6.8c0-0.7-0.2-1.3-0.5-1.7c-0.3-0.4-0.9-0.6-1.7-0.6s-1.3,0.2-1.7,0.6
			c-0.3,0.4-0.5,0.9-0.5,1.7v6.8c0,0.7,0.2,1.2,0.5,1.6C130.9,457,131.5,457.2,132.2,457.2z"/>
	</g>
</g>
<g>
	<g>
		<path class="st6" d="M101.4,506.6v14.9h-2.1v-12.6l-2.1,1.3V508l2.1-1.4H101.4z"/>
		<path class="st6" d="M109.1,521.6c-1.4,0-2.5-0.4-3.2-1.1c-0.7-0.8-1.1-1.8-1.1-3.1v-6.8c0-1.3,0.4-2.4,1.1-3.1s1.8-1.1,3.2-1.1
			c1.4,0,2.5,0.4,3.2,1.1c0.7,0.7,1.1,1.8,1.1,3.1v6.8c0,1.3-0.4,2.4-1.1,3.1C111.5,521.2,110.5,521.6,109.1,521.6z M109.1,519.6
			c0.8,0,1.3-0.2,1.7-0.6c0.3-0.4,0.5-0.9,0.5-1.6v-6.8c0-0.7-0.2-1.3-0.5-1.7c-0.3-0.4-0.9-0.6-1.7-0.6s-1.3,0.2-1.7,0.6
			c-0.3,0.4-0.5,0.9-0.5,1.7v6.8c0,0.7,0.2,1.2,0.5,1.6C107.7,519.4,108.3,519.6,109.1,519.6z"/>
		<path class="st6" d="M120.6,521.6c-1.4,0-2.5-0.4-3.2-1.1c-0.7-0.8-1.1-1.8-1.1-3.1v-6.8c0-1.3,0.4-2.4,1.1-3.1s1.8-1.1,3.2-1.1
			c1.4,0,2.5,0.4,3.2,1.1c0.7,0.7,1.1,1.8,1.1,3.1v6.8c0,1.3-0.4,2.4-1.1,3.1C123.1,521.2,122.1,521.6,120.6,521.6z M120.6,519.6
			c0.8,0,1.3-0.2,1.7-0.6c0.3-0.4,0.5-0.9,0.5-1.6v-6.8c0-0.7-0.2-1.3-0.5-1.7c-0.3-0.4-0.9-0.6-1.7-0.6s-1.3,0.2-1.7,0.6
			c-0.3,0.4-0.5,0.9-0.5,1.7v6.8c0,0.7,0.2,1.2,0.5,1.6C119.3,519.4,119.9,519.6,120.6,519.6z"/>
		<path class="st6" d="M132.2,521.6c-1.4,0-2.5-0.4-3.2-1.1c-0.7-0.8-1.1-1.8-1.1-3.1v-6.8c0-1.3,0.4-2.4,1.1-3.1s1.8-1.1,3.2-1.1
			c1.4,0,2.5,0.4,3.2,1.1c0.7,0.7,1.1,1.8,1.1,3.1v6.8c0,1.3-0.4,2.4-1.1,3.1C134.7,521.2,133.6,521.6,132.2,521.6z M132.2,519.6
			c0.8,0,1.3-0.2,1.7-0.6c0.3-0.4,0.5-0.9,0.5-1.6v-6.8c0-0.7-0.2-1.3-0.5-1.7c-0.3-0.4-0.9-0.6-1.7-0.6s-1.3,0.2-1.7,0.6
			c-0.3,0.4-0.5,0.9-0.5,1.7v6.8c0,0.7,0.2,1.2,0.5,1.6C130.9,519.4,131.5,519.6,132.2,519.6z"/>
	</g>
</g>
<g>
	<g>
		<path class="st6" d="M132.2,584.1c-1.4,0-2.5-0.4-3.2-1.1c-0.7-0.8-1.1-1.8-1.1-3.1V573c0-1.3,0.4-2.4,1.1-3.1s1.8-1.1,3.2-1.1
			c1.4,0,2.5,0.4,3.2,1.1c0.7,0.7,1.1,1.8,1.1,3.1v6.8c0,1.3-0.4,2.4-1.1,3.1C134.7,583.7,133.6,584.1,132.2,584.1z M132.2,582.1
			c0.8,0,1.3-0.2,1.7-0.6c0.3-0.4,0.5-0.9,0.5-1.6V573c0-0.7-0.2-1.3-0.5-1.7c-0.3-0.4-0.9-0.6-1.7-0.6s-1.3,0.2-1.7,0.6
			c-0.3,0.4-0.5,0.9-0.5,1.7v6.8c0,0.7,0.2,1.2,0.5,1.6C130.9,581.9,131.5,582.1,132.2,582.1z"/>
	</g>
</g>
</svg>
