<?xml version="1.0" encoding="UTF-8"?>
<svg xmlns="http://www.w3.org/2000/svg" version="1.1" viewBox="0 0 1152 648">
  <defs>
    <style>
      .cls-1 {
        fill: #fff;
      }

      .cls-2 {
        font-family: 'HarmonyOS_Sans_SC_Bold', 'HarmonyOS Sans SC';
        font-size: 12.9px;
        isolation: isolate;
      }

      .cls-3 {
        stroke: #4c4c4c;
        stroke-linejoin: round;
      }

      .cls-3, .cls-4 {
        fill: none;
        stroke-width: .8px;
      }

      .cls-5 {
        fill: #999;
      }

      .cls-4 {
        stroke: #fff;
        stroke-linecap: square;
      }

      .cls-6 {
        display: none;
      }
    </style>
  </defs>
  <!-- Generator: Adobe Illustrator 28.7.1, SVG Export Plug-In . SVG Version: 1.2.0 Build 142)  -->
  <g>
    <g id="_图层_1" data-name="图层_1">
      <g id="_背景" data-name="背景">
        <path class="cls-6" d="M144,576.7h892.8V77.9H144v498.8Z"/>
      </g>
      <path id="_竖线1" data-name="竖线1" class="cls-3" d="M255.6,77.9v502.4"/>
      <path id="_竖线1-2" data-name="竖线1" class="cls-3" d="M367.2,77.9v502.4"/>
      <path id="_竖线2" data-name="竖线2" class="cls-3" d="M478.8,77.8v502.5"/>
      <path id="_竖线2-2" data-name="竖线2" class="cls-3" d="M590.4,77.8v502.5"/>
      <path id="_竖线3" data-name="竖线3" class="cls-3" d="M702,77.8v502.5"/>
      <path id="_竖线3-2" data-name="竖线3" class="cls-3" d="M813.6,77.8v502.5"/>
      <path id="_竖线4" data-name="竖线4" class="cls-3" d="M925.2,77.8v502.5"/>
      <path id="_竖线7" data-name="竖线7" class="cls-3" d="M1036.8,77.8v502.5"/>
      <path id="_横线1" data-name="横线1" class="cls-3" d="M1036.8,535.1H140.5"/>
      <path id="_横线2" data-name="横线2" class="cls-3" d="M1037.2,493.6H140.5"/>
      <path id="_横线3" data-name="横线3" class="cls-3" d="M1037.2,452H140.5"/>
      <path id="_横线4" data-name="横线4" class="cls-3" d="M1037.2,410.4H140.5"/>
      <path id="_横线5" data-name="横线5" class="cls-3" d="M1037.2,368.8H140.5"/>
      <path id="_横线6" data-name="横线6" class="cls-3" d="M1037.2,327.3H140.5"/>
      <path id="_横线7" data-name="横线7" class="cls-3" d="M1037.2,77.8H140.5"/>
      <path id="_横线7-2" data-name="横线7" class="cls-3" d="M1037.2,285.7H140.5"/>
      <path id="_横线7-3" data-name="横线7" class="cls-3" d="M1037.2,244.1H140.5"/>
      <path id="_横线7-4" data-name="横线7" class="cls-3" d="M1037.2,202.5H140.5"/>
      <path id="_横线7-5" data-name="横线7" class="cls-3" d="M1037.2,161H140.5"/>
      <path id="_横线7-6" data-name="横线7" class="cls-3" d="M1037.2,119.4H140.5"/>
      <path id="_横坐标" data-name="横坐标" class="cls-4" d="M144,576.7h892.8"/>
      <path id="_纵坐标" data-name="纵坐标" class="cls-4" d="M144,576.7V77.8"/>
      <g id="_左上更好" data-name="左上更好">
        <path class="cls-1" d="M204.6,97.6h-39.3c-.8,0-1.4.6-1.4,1.4v39.3c0,1.3,1.5,1.9,2.4,1l3.9-3.9c.6-.6,1.5-.6,2,0l12,12c.6.6,1.5.6,2,0l27.4-27.4c.6-.6.6-1.5,0-2l-12-12c-.6-.6-.6-1.5,0-2l3.9-3.9c1-.9.3-2.5-.9-2.5Z"/>
        <text class="cls-2" transform="translate(174.5 126.5) rotate(-45)"><tspan x="0" y="0">左上</tspan></text>
        <text class="cls-2" transform="translate(185.5 137.5) rotate(-45)"><tspan x="0" y="0">更好</tspan></text>
      </g>
      <g>
        <path class="cls-5" d="M98.8,48.9c-.8,0-1.5-.1-2.1-.4-.6-.3-1.1-.7-1.5-1.3s-.6-1.2-.7-2h2.1c0,.6.3,1.1.7,1.4.4.3.9.4,1.5.4s1.2-.2,1.6-.5.6-.9.6-1.5v-.4c0-.7-.2-1.3-.5-1.7-.3-.4-.8-.6-1.5-.6h-1v-1.9h1c.6,0,1-.2,1.3-.5.3-.3.5-.8.5-1.4v-.4c0-.6-.2-1-.5-1.3-.3-.3-.8-.5-1.4-.5s-.9.1-1.3.4c-.4.3-.6.7-.7,1.4h-2c.2-1.2.7-2.1,1.4-2.8.7-.6,1.6-1,2.7-1s2.2.3,2.9,1,1,1.6,1,2.8v.2c0,.7-.2,1.3-.6,1.9-.4.5-.9.9-1.7,1.2.8.2,1.4.5,1.8,1.2s.6,1.4.6,2.3v.2c0,1.3-.4,2.2-1.1,2.9s-1.7,1-3,1Z"/>
        <path class="cls-5" d="M106.1,48.8v-14.4h2v14.4h-2ZM107.4,48.8v-1.9h3.3c1.1,0,1.9-.3,2.5-.8.6-.6.9-1.3.9-2.3v-4.2c0-1-.3-1.8-.9-2.3-.6-.5-1.4-.8-2.5-.8h-3.3v-1.9h3.2c1.7,0,3.1.4,4,1.3,1,.9,1.4,2.2,1.4,3.8v4.1c0,1.1-.2,2-.6,2.8-.4.8-1.1,1.4-1.9,1.8-.8.4-1.8.6-3,.6h-3.2Z"/>
        <path class="cls-5" d="M125.3,43.9l4.2-9.5h1.9v14.4h-2v-10.8.6c0,0-3.4,8.1-3.4,8.1h-1.4l-3.5-7.9v-.8c0,0,0,10.8,0,10.8h-2v-14.4h1.9l4.2,9.5Z"/>
        <path class="cls-5" d="M138,48.9c-1.3,0-2.2-.3-2.8-.8-.6-.5-.9-1.3-.9-2.4s.3-1.8.9-2.3c.6-.5,1.4-.8,2.6-.8h2.9v1.6c.1,0-2.9,0-2.9,0-.5,0-.9.1-1.2.4s-.4.6-.4,1.1.2.9.5,1.2c.3.3.9.4,1.6.4s1.3,0,1.7-.2c.4-.2.6-.4.6-.8l.2,1.4c-.2.3-.4.5-.7.7-.3.2-.6.3-.9.4-.3,0-.7.1-1.2.1ZM140.5,48.8v-6.5c0-.7-.2-1.2-.5-1.6-.4-.4-.9-.6-1.5-.6s-.8,0-1.2.2c-.4.1-.7.3-1.1.5l-1.5-1c.4-.5.9-.8,1.5-1.1.6-.3,1.3-.4,2.1-.4,1.3,0,2.3.3,3,1s1.1,1.6,1.1,2.8v6.6h-1.9Z"/>
        <path class="cls-5" d="M145.5,48.8v-10.3h2v10.3h-2ZM151.1,41c-.2-.2-.4-.4-.7-.5-.3-.1-.6-.2-.9-.2-.6,0-1.1.2-1.5.5s-.5.8-.5,1.5l-.2-2c.3-.6.7-1.1,1.2-1.4.5-.3,1.1-.5,1.7-.5s.9,0,1.3.2.7.3,1,.6l-1.3,1.8Z"/>
        <path class="cls-5" d="M154.1,48.8v-14.4h2v14.4h-2ZM154.9,47.3v-2.4c.1,0,5.4-6.4,5.4-6.4h2.4l-7.8,8.8ZM161,48.8l-3.6-5.9,1.3-1.3,4.5,7.3h-2.2Z"/>
        <path class="cls-5" d="M174.8,48.9c-.7,0-1.4,0-2-.2s-1.2-.3-1.7-.6c-.5-.3-1-.6-1.5-1l1.3-1.5c.5.5,1.2.8,1.8,1.1.7.2,1.4.4,2.1.4s1.8-.2,2.4-.6.9-.9.9-1.6h0c0-.6-.1-1-.4-1.3s-.7-.5-1.1-.6-1-.3-1.5-.4c-.5,0-1.1-.2-1.6-.3s-1.1-.3-1.5-.6c-.5-.3-.8-.7-1.1-1.2-.3-.5-.4-1.2-.4-2h0c0-1.3.4-2.4,1.3-3.1.9-.7,2.1-1.1,3.8-1.1s1.5.1,2.3.4c.7.2,1.5.6,2.2,1.1l-1.1,1.6c-.5-.4-1.1-.7-1.6-.9-.5-.2-1.1-.3-1.6-.3-1,0-1.7.2-2.3.6-.5.4-.8.9-.8,1.7h0c0,.6.2,1,.5,1.2s.7.5,1.2.6c.5.1,1.1.3,1.6.4.5.1,1.1.2,1.6.4.5.1,1,.4,1.4.6.4.3.8.7,1,1.2.3.5.4,1.1.4,1.9h0c0,1.3-.5,2.4-1.4,3.1-.9.7-2.2,1.1-3.9,1.1Z"/>
        <path class="cls-5" d="M182,40.4v-1.8h4.6v1.8h-4.6ZM185.4,48.8c-.8,0-1.5-.2-1.8-.7s-.6-1.1-.6-2v-10.6h2v10.6c0,.2,0,.4.1.6,0,.1.2.2.4.2h1v1.9h-1.2Z"/>
        <path class="cls-5" d="M193.6,48.9c-1.4,0-2.5-.4-3.3-1.2s-1.2-1.9-1.2-3.4v-1.2c0-1.5.4-2.7,1.1-3.5.8-.8,1.8-1.3,3.2-1.3s2.3.5,3,1.4c.7.9,1.1,2.3,1.1,4v.7h-6.9v-1.6h5c0-.8-.3-1.5-.6-1.9-.4-.5-.9-.7-1.5-.7s-1.3.3-1.8.8c-.4.5-.6,1.2-.6,2.1v1.3c0,.9.2,1.5.7,2,.5.5,1.1.7,1.9.7s.8,0,1.2-.2.8-.4,1.1-.7l1.3,1.3c-.5.5-1.1.9-1.7,1.1-.6.3-1.3.4-1.9.4Z"/>
        <path class="cls-5" d="M204.4,48.9c-1.4,0-2.5-.4-3.3-1.2s-1.2-1.9-1.2-3.4v-1.2c0-1.5.4-2.7,1.1-3.5.8-.8,1.8-1.3,3.2-1.3s2.3.5,3,1.4c.7.9,1.1,2.3,1.1,4v.7h-6.9v-1.6h5c0-.8-.3-1.5-.6-1.9-.4-.5-.9-.7-1.5-.7s-1.3.3-1.8.8c-.4.5-.6,1.2-.6,2.1v1.3c0,.9.2,1.5.7,2,.5.5,1.1.7,1.9.7s.8,0,1.2-.2.8-.4,1.1-.7l1.3,1.3c-.5.5-1.1.9-1.7,1.1-.6.3-1.3.4-1.9.4Z"/>
        <path class="cls-5" d="M213.1,34.4v11.7c0,.2,0,.4.2.6.1.1.3.2.5.2h.9v1.9h-1.2c-.8,0-1.3-.2-1.8-.7-.4-.5-.6-1.1-.6-2v-11.7h2Z"/>
        <path class="cls-5" d="M222.6,48.8v-14.4h1.8l7,11.1-.2.3v-11.4h2v14.4h-1.8l-7-10.9.2-.3v11.2h-2Z"/>
        <path class="cls-5" d="M240.5,48.9c-1.3,0-2.4-.4-3.1-1.2-.7-.8-1.1-1.9-1.1-3.3v-1.7c0-1.4.4-2.5,1.1-3.3.7-.8,1.8-1.2,3.1-1.2s2.4.4,3.1,1.2c.7.8,1.1,1.9,1.1,3.3v1.7c0,1.4-.4,2.5-1.1,3.3s-1.8,1.2-3.1,1.2ZM240.5,47c.7,0,1.3-.2,1.6-.7.4-.4.6-1.1.6-1.9v-1.7c0-.8-.2-1.4-.6-1.8s-.9-.7-1.6-.7-1.2.2-1.6.7c-.4.4-.6,1.1-.6,1.8v1.7c0,.8.2,1.4.6,1.9.4.4.9.7,1.6.7Z"/>
        <path class="cls-5" d="M247.6,48.8v-10.3h2v10.3h-2ZM253.7,48.8v-6.2c0-.7-.2-1.3-.5-1.7s-.9-.6-1.5-.6-1.2.2-1.5.5c-.4.3-.5.8-.5,1.5l-.2-2c.3-.6.7-1.1,1.2-1.4.5-.3,1.1-.5,1.7-.5,1.1,0,1.9.4,2.5,1.1.6.7.9,1.8.9,3.1v6.2h-2ZM259.8,48.8v-6.2c0-.7-.2-1.3-.6-1.7-.4-.4-.9-.6-1.6-.6s-1.1.2-1.5.6-.5.9-.5,1.6l-.4-2c.3-.7.8-1.2,1.3-1.6s1.1-.6,1.8-.6c1.1,0,2,.4,2.6,1.1.6.7.9,1.8.9,3.1v6.2h-2Z"/>
        <path class="cls-5" d="M268.2,48.9c-1.3,0-2.2-.3-2.8-.8-.6-.5-.9-1.3-.9-2.4s.3-1.8.9-2.3c.6-.5,1.4-.8,2.6-.8h2.9v1.6c.1,0-2.9,0-2.9,0-.5,0-.9.1-1.2.4s-.4.6-.4,1.1.2.9.5,1.2c.3.3.9.4,1.6.4s1.3,0,1.7-.2c.4-.2.6-.4.6-.8l.2,1.4c-.2.3-.4.5-.7.7-.3.2-.6.3-.9.4-.3,0-.7.1-1.2.1ZM270.7,48.8v-6.5c0-.7-.2-1.2-.5-1.6-.4-.4-.9-.6-1.5-.6s-.8,0-1.2.2c-.4.1-.7.3-1.1.5l-1.5-1c.4-.5.9-.8,1.5-1.1.6-.3,1.3-.4,2.1-.4,1.3,0,2.3.3,3,1s1.1,1.6,1.1,2.8v6.6h-1.9Z"/>
        <path class="cls-5" d="M278.9,49c-1.1,0-2-.4-2.6-1.1-.6-.7-.9-1.8-.9-3.1v-2.3c0-1.3.3-2.4.9-3.1.6-.7,1.5-1.1,2.5-1.1s1.2.2,1.7.5c.5.3.9.8,1.2,1.3l-.2,2.1c0-.4,0-.8-.2-1.1-.2-.3-.4-.5-.7-.7-.3-.2-.7-.2-1.1-.2-.7,0-1.2.2-1.5.6-.4.4-.5,1-.5,1.8v2.2c0,.7.2,1.3.5,1.7.4.4.9.6,1.5.6s.8,0,1.1-.3c.3-.2.5-.4.7-.7s.2-.7.2-1.1v2.2c0,.5-.4.9-.8,1.2-.5.4-1,.5-1.8.5ZM281.5,48.8v-14.4h2v14.4h-2Z"/>
        <path class="cls-5" d="M292.2,48.8v-14.4h2v14.4h-2ZM293.2,48.8v-1.9h8.2v1.9h-8.2Z"/>
        <path class="cls-5" d="M303.6,36.4v-2h2v2h-2ZM303.6,48.8v-10.3h2v10.3h-2Z"/>
        <path class="cls-5" d="M312,49c-1.1,0-2-.4-2.6-1.1-.6-.7-.9-1.8-.9-3.1v-2.3c0-1.3.3-2.4.9-3.1.6-.7,1.5-1.1,2.5-1.1s1.2.2,1.7.5c.5.3.9.8,1.2,1.3l-.2,2.1c0-.4,0-.8-.2-1.1-.2-.3-.4-.5-.7-.7-.3-.2-.7-.2-1.1-.2-.7,0-1.2.2-1.5.6-.4.4-.5,1-.5,1.8v2.2c0,.7.2,1.3.5,1.7.4.4.9.6,1.5.6s.8,0,1.1-.3c.3-.2.5-.4.7-.7s.2-.7.2-1.1v2.2c0,.5-.4.9-.8,1.2-.5.4-1,.5-1.8.5ZM312.2,53c-.8,0-1.5-.1-2.1-.4-.6-.3-1.1-.7-1.4-1.2l1.4-1.2c.3.4.6.6.9.8s.7.3,1.2.3c.8,0,1.4-.2,1.8-.6.4-.4.6-1,.6-1.8v-10.3h2v10c0,1.4-.4,2.5-1.2,3.3-.8.8-1.9,1.2-3.3,1.2Z"/>
        <path class="cls-5" d="M319.6,48.8v-14.4h2v14.4h-2ZM325.9,48.8v-6.2c0-.7-.2-1.3-.6-1.7-.4-.4-.9-.6-1.6-.6s-1.2.2-1.5.5c-.4.3-.5.8-.5,1.5l-.2-2c.3-.6.7-1.1,1.2-1.4.5-.3,1.1-.5,1.7-.5,1.1,0,2,.4,2.6,1.1.6.7.9,1.8.9,3.1v6.2h-2Z"/>
        <path class="cls-5" d="M330.2,40.4v-1.8h4.6v1.8h-4.6ZM333.6,48.8c-.8,0-1.5-.2-1.8-.7s-.6-1.1-.6-2v-10.6h2v10.6c0,.2,0,.4.1.6,0,.1.2.2.4.2h1v1.9h-1.2Z"/>
        <path class="cls-5" d="M346.7,51.9c-1.2-1.3-2.1-2.7-2.6-4.3-.6-1.6-.9-3.3-.9-5.2s.3-3.6.9-5.2c.6-1.6,1.5-3,2.6-4.3l1.4,1.3c-1,1.1-1.7,2.3-2.2,3.7-.5,1.4-.7,2.9-.7,4.5s.2,3.2.7,4.5c.5,1.4,1.2,2.6,2.2,3.7l-1.4,1.2Z"/>
        <path class="cls-5" d="M357.1,32.4c-1.5,3.5-3.7,6.1-6.8,8.4l-.9-1.3c2.7-1.9,4.9-4.6,6.3-7.7l1.4.6ZM352.1,41.1v-1.4h11.8c0,1.5-.4,5.6-.5,7.2-.2,2.1-1.1,2.7-3.4,2.7h-2.7l-.3-1.5h2.5c1.7,0,2.2-.3,2.3-1.9.1-1.1.4-4.4.4-5.1h-5.7c0,.3,0,.7,0,1.2-.2,3.6-1.3,5.5-5.6,8l-1.1-1.4c4-2,4.9-3.6,5.2-6.7,0-.4,0-.8.1-1.2h-3ZM360.9,31.5c1.4,3.7,3.2,5.9,6.5,7.9l-.9,1.5c-3.5-2.3-5.6-4.6-7.1-8.8l1.4-.5Z"/>
        <path class="cls-5" d="M370.1,51.9l-1.4-1.2c1-1.1,1.7-2.4,2.2-3.7.5-1.4.7-2.9.7-4.5s-.2-3.2-.7-4.5c-.5-1.4-1.2-2.6-2.2-3.7l1.4-1.3c1.2,1.3,2.1,2.7,2.6,4.3.6,1.6.9,3.3.9,5.2s-.3,3.6-.9,5.2c-.6,1.6-1.5,3-2.6,4.3Z"/>
      </g>
      <g>
        <path class="cls-5" d="M939.8,628.4h7.9v1.5h-17.4v-1.5h7.9v-5h-6.4v-1.6h6.4v-4.4h-7.2v-1.6h16.1v1.6h-7.3v4.4h6.4v1.6h-6.4v5ZM939,615.7c-.5-1-1.2-2.2-1.7-3l1.5-.6c.5.9,1.2,1.9,1.7,2.9l-1.5.7Z"/>
        <path class="cls-5" d="M956.2,623.3c-.6-.6-1.2-1.3-1.9-1.8v9.4h-1.4v-9.6c-.6,1.6-1.4,3.3-2.2,4.7l-.5-1.9c.9-1.3,2.1-4,2.7-6.4h-2.3v-1.5h2.4v-3.8h1.4v3.8h2.4v1.5h-2.4v2c.8.7,2,1.7,2.7,2.4l-.8,1.2ZM968.3,629.3l-.8,1.5c-1.7-1-3.1-2.2-4.2-3.4-1.2,1.3-2.7,2.4-4.7,3.5l-.9-1.4c2-1.1,3.5-2.2,4.6-3.3-1.3-1.9-2.1-4-2.7-6.4h-.7c0,5.2-.7,8.1-2.7,11.1l-1.3-1c1.9-2.7,2.6-5.3,2.6-10.5v-5.1c3.3-.2,6.8-.7,9.9-1.3l.3,1.5c-2.8.5-6.1,1-8.7,1.2v2.6h8.2v1.5c-.6,2.7-1.5,4.7-2.9,6.5,1,1.2,2.3,2.2,4,3.1ZM961.1,619.7c.5,2,1.3,3.7,2.3,5.2,1.1-1.5,1.8-3.2,2.2-5.2h-4.5Z"/>
        <path class="cls-5" d="M978,626c-.8.2-6.4,1.5-7.2,1.7l-.3-1.6,3-.7v-9.4h-2.7v-1.5h6.8v1.5h-2.6v9c1.3-.3,2.5-.6,2.8-.7l.2,1.6ZM987.4,616.5c0,1.6-.3,9.1-.4,10.7-.1,2.6-.8,3.1-3.5,3.1h-2.1l-.3-1.5h1.9c2,0,2.4-.3,2.5-2.2,0-1.5.3-6.9.3-8.5h-4c-.2,7-.9,9.1-5.1,13l-1.3-1.1c4.2-3.8,4.7-5.4,4.8-11.9h-2.4v-1.6h2.4c0-1.4,0-3.6.1-4.2h1.5v4.2c0,0,5.5,0,5.5,0Z"/>
        <path class="cls-5" d="M995.4,622.7v.9c.8.6,2.3,1.8,3.1,2.4l-.8,1.3c-.7-.6-1.6-1.4-2.3-2v5.5h-1.4v-5.5c-.6,1.4-1.5,2.7-2.5,3.8l-.8-1.3c1.2-1.4,2.4-3.3,3.1-5.1h-2.9v-1.4h3.1v-1.9h-2.6v-1.3h2.6v-1.9h-2.9v-1.4h2.9v-2.3h1.4v2.3h2.7v1.4h-2.7v1.9h2.4v1.3h-2.4v1.9h2.9v1.4h-2.9ZM1007,625.5l1.4.4c0,.3,0,1.7-.1,2.3-.1,1.7-.7,2.2-2.6,2.2h-1.8c-1.6,0-2.3-.6-2.3-2.5v-3.1l-3.6.3v-1.5s3.6-.3,3.6-.3v-3.1l-2.9.3v-1.5c0,0,2.9-.3,2.9-.3v-3.1c-1,.1-1.9.3-2.8.4v-1.4c2.6-.3,6.4-1,8.5-1.4l.3,1.4c-1.1.3-2.8.6-4.5.8v3.2l4.6-.4v1.4c.1,0-4.6.4-4.6.4v3.1l5.6-.5v1.5c0,0-5.6.5-5.6.5v2.9c0,1.1.3,1.3,1.2,1.3h1.2c1.1,0,1.3-.2,1.4-1.2,0-.5,0-1.9,0-2.2Z"/>
        <path class="cls-5" d="M1020.6,632.6c-1.2-1.3-2.1-2.7-2.6-4.3-.6-1.6-.9-3.3-.9-5.2s.3-3.6.9-5.2c.6-1.6,1.5-3,2.6-4.3l1.4,1.3c-1,1.1-1.7,2.3-2.2,3.7-.5,1.4-.7,2.9-.7,4.5s.2,3.2.7,4.5c.5,1.4,1.2,2.6,2.2,3.7l-1.4,1.2Z"/>
        <path class="cls-5" d="M1027.1,626.4l2.9-11.3h1.4l2.9,11.3,2.5-11.3h2.1l-3.5,14.4h-2.1l-2.6-10-2.8,10h-2.1l-3.5-14.4h2.1l2.5,11.3Z"/>
        <path class="cls-5" d="M1040.9,632.6l-1.4-1.2c1-1.1,1.7-2.4,2.2-3.7.5-1.4.7-2.9.7-4.5s-.2-3.2-.7-4.5c-.5-1.4-1.2-2.6-2.2-3.7l1.4-1.3c1.2,1.3,2.1,2.7,2.6,4.3.6,1.6.9,3.3.9,5.2s-.3,3.6-.9,5.2c-.6,1.6-1.5,3-2.6,4.3Z"/>
      </g>
      <g>
        <path class="cls-5" d="M98.8,85.1c-.8,0-1.5-.1-2.1-.4-.6-.3-1.1-.7-1.5-1.3s-.6-1.2-.7-2h2.1c0,.6.3,1.1.7,1.4.4.3.9.4,1.5.4s1.2-.2,1.6-.5.6-.9.6-1.5v-.4c0-.7-.2-1.3-.5-1.7-.3-.4-.8-.6-1.5-.6h-1v-1.9h1c.6,0,1-.2,1.3-.5.3-.3.5-.8.5-1.4v-.4c0-.6-.2-1-.5-1.3-.3-.3-.8-.5-1.4-.5s-.9.1-1.3.4c-.4.3-.6.7-.7,1.4h-2c.2-1.2.7-2.1,1.4-2.8.7-.6,1.6-1,2.7-1s2.2.3,2.9,1,1,1.6,1,2.8v.2c0,.7-.2,1.3-.6,1.9-.4.5-.9.9-1.7,1.2.8.2,1.4.5,1.8,1.2s.6,1.4.6,2.3v.2c0,1.3-.4,2.2-1.1,2.9s-1.7,1-3,1Z"/>
        <path class="cls-5" d="M109.9,85.1c-1.4,0-2.4-.4-3.1-1.1s-1-1.7-1-3v-6.5c0-1.3.3-2.3,1-3s1.7-1.1,3.1-1.1,2.4.4,3.1,1.1c.7.7,1,1.7,1,3v6.5c0,1.3-.3,2.3-1,3-.7.7-1.7,1.1-3.1,1.1ZM109.9,83.2c.7,0,1.3-.2,1.6-.6.3-.4.5-.9.5-1.6v-6.5c0-.7-.2-1.2-.5-1.6s-.9-.6-1.6-.6-1.3.2-1.6.6-.5.9-.5,1.6v6.5c0,.7.2,1.2.5,1.6.3.4.9.6,1.6.6Z"/>
        <path class="cls-5" d="M120.6,85.1c-1.4,0-2.4-.4-3.1-1.1s-1-1.7-1-3v-6.5c0-1.3.3-2.3,1-3s1.7-1.1,3.1-1.1,2.4.4,3.1,1.1c.7.7,1,1.7,1,3v6.5c0,1.3-.3,2.3-1,3-.7.7-1.7,1.1-3.1,1.1ZM120.6,83.2c.7,0,1.3-.2,1.6-.6.3-.4.5-.9.5-1.6v-6.5c0-.7-.2-1.2-.5-1.6s-.9-.6-1.6-.6-1.3.2-1.6.6-.5.9-.5,1.6v6.5c0,.7.2,1.2.5,1.6.3.4.9.6,1.6.6Z"/>
        <path class="cls-5" d="M131.4,85.1c-1.4,0-2.4-.4-3.1-1.1s-1-1.7-1-3v-6.5c0-1.3.3-2.3,1-3s1.7-1.1,3.1-1.1,2.4.4,3.1,1.1c.7.7,1,1.7,1,3v6.5c0,1.3-.3,2.3-1,3-.7.7-1.7,1.1-3.1,1.1ZM131.4,83.2c.7,0,1.3-.2,1.6-.6.3-.4.5-.9.5-1.6v-6.5c0-.7-.2-1.2-.5-1.6s-.9-.6-1.6-.6-1.3.2-1.6.6-.5.9-.5,1.6v6.5c0,.7.2,1.2.5,1.6.3.4.9.6,1.6.6Z"/>
      </g>
      <g>
        <path class="cls-5" d="M94.8,168v-1.8l5-6.7c.3-.4.5-.8.7-1.2s.2-.8.2-1.2h0c0-.6-.2-1-.5-1.4-.3-.3-.8-.5-1.4-.5s-1.1.2-1.4.5-.6.8-.7,1.5h0s-2.1,0-2.1,0h0c.2-1.2.6-2.2,1.4-2.9.7-.7,1.7-1,2.8-1s2.3.3,3,1,1.1,1.6,1.1,2.8h0c0,.5-.1,1-.3,1.6-.2.6-.5,1.1-.9,1.6l-4.2,5.7h5.4v1.9h-8.1Z"/>
        <path class="cls-5" d="M109.5,168.2c-1.1,0-2-.3-2.7-.9-.7-.6-1.1-1.5-1.3-2.7h0s2,0,2,0h0c0,.5.3.9.6,1.2.3.3.8.4,1.4.4s1.1-.2,1.5-.6c.4-.4.5-1,.5-1.8v-1.2c0-.8-.2-1.4-.5-1.8-.4-.4-.9-.6-1.5-.6s-.7,0-1,.3c-.3.2-.6.5-.9.8h-1.8v-7.6h7.3v1.9h-5.3v3.2c.3-.2.5-.4.8-.5.3-.1.6-.2.9-.2,1.3,0,2.2.4,2.9,1.2.7.8,1,1.9,1,3.2v1.2c0,1.4-.4,2.5-1.1,3.3-.7.8-1.7,1.2-3,1.2Z"/>
        <path class="cls-5" d="M120.6,168.2c-1.4,0-2.4-.4-3.1-1.1s-1-1.7-1-3v-6.5c0-1.3.3-2.3,1-3s1.7-1.1,3.1-1.1,2.4.4,3.1,1.1c.7.7,1,1.7,1,3v6.5c0,1.3-.3,2.3-1,3-.7.7-1.7,1.1-3.1,1.1ZM120.6,166.2c.7,0,1.3-.2,1.6-.6.3-.4.5-.9.5-1.6v-6.5c0-.7-.2-1.2-.5-1.6s-.9-.6-1.6-.6-1.3.2-1.6.6-.5.9-.5,1.6v6.5c0,.7.2,1.2.5,1.6.3.4.9.6,1.6.6Z"/>
        <path class="cls-5" d="M131.4,168.2c-1.4,0-2.4-.4-3.1-1.1s-1-1.7-1-3v-6.5c0-1.3.3-2.3,1-3s1.7-1.1,3.1-1.1,2.4.4,3.1,1.1c.7.7,1,1.7,1,3v6.5c0,1.3-.3,2.3-1,3-.7.7-1.7,1.1-3.1,1.1ZM131.4,166.2c.7,0,1.3-.2,1.6-.6.3-.4.5-.9.5-1.6v-6.5c0-.7-.2-1.2-.5-1.6s-.9-.6-1.6-.6-1.3.2-1.6.6-.5.9-.5,1.6v6.5c0,.7.2,1.2.5,1.6.3.4.9.6,1.6.6Z"/>
      </g>
      <g>
        <path class="cls-5" d="M95.1,251v-1.8l5-6.7c.3-.4.5-.8.7-1.2s.2-.8.2-1.2h0c0-.6-.2-1-.5-1.4-.3-.3-.8-.5-1.4-.5s-1.1.2-1.4.5-.6.8-.7,1.5h0s-2.1,0-2.1,0h0c.2-1.2.6-2.2,1.4-2.9.7-.7,1.7-1,2.8-1s2.3.3,3,1,1.1,1.6,1.1,2.8h0c0,.5-.1,1-.3,1.6-.2.6-.5,1.1-.9,1.6l-4.2,5.7h5.4v1.9h-8.1Z"/>
        <path class="cls-5" d="M109.9,251.2c-1.4,0-2.4-.4-3.1-1.1s-1-1.7-1-3v-6.5c0-1.3.3-2.3,1-3s1.7-1.1,3.1-1.1,2.4.4,3.1,1.1c.7.7,1,1.7,1,3v6.5c0,1.3-.3,2.3-1,3-.7.7-1.7,1.1-3.1,1.1ZM109.9,249.3c.7,0,1.3-.2,1.6-.6.3-.4.5-.9.5-1.6v-6.5c0-.7-.2-1.2-.5-1.6s-.9-.6-1.6-.6-1.3.2-1.6.6-.5.9-.5,1.6v6.5c0,.7.2,1.2.5,1.6.3.4.9.6,1.6.6Z"/>
        <path class="cls-5" d="M120.6,251.2c-1.4,0-2.4-.4-3.1-1.1s-1-1.7-1-3v-6.5c0-1.3.3-2.3,1-3s1.7-1.1,3.1-1.1,2.4.4,3.1,1.1c.7.7,1,1.7,1,3v6.5c0,1.3-.3,2.3-1,3-.7.7-1.7,1.1-3.1,1.1ZM120.6,249.3c.7,0,1.3-.2,1.6-.6.3-.4.5-.9.5-1.6v-6.5c0-.7-.2-1.2-.5-1.6s-.9-.6-1.6-.6-1.3.2-1.6.6-.5.9-.5,1.6v6.5c0,.7.2,1.2.5,1.6.3.4.9.6,1.6.6Z"/>
        <path class="cls-5" d="M131.4,251.2c-1.4,0-2.4-.4-3.1-1.1s-1-1.7-1-3v-6.5c0-1.3.3-2.3,1-3s1.7-1.1,3.1-1.1,2.4.4,3.1,1.1c.7.7,1,1.7,1,3v6.5c0,1.3-.3,2.3-1,3-.7.7-1.7,1.1-3.1,1.1ZM131.4,249.3c.7,0,1.3-.2,1.6-.6.3-.4.5-.9.5-1.6v-6.5c0-.7-.2-1.2-.5-1.6s-.9-.6-1.6-.6-1.3.2-1.6.6-.5.9-.5,1.6v6.5c0,.7.2,1.2.5,1.6.3.4.9.6,1.6.6Z"/>
      </g>
      <g>
        <path class="cls-5" d="M102.3,319.7v14.4h-2v-12.2l-2,1.3v-2.1l2-1.4h2Z"/>
        <path class="cls-5" d="M109.5,334.2c-1.1,0-2-.3-2.7-.9-.7-.6-1.1-1.5-1.3-2.7h0s2,0,2,0h0c0,.5.3.9.6,1.2.3.3.8.4,1.4.4s1.1-.2,1.5-.6.5-1,.5-1.8v-1.2c0-.8-.2-1.4-.5-1.8s-.9-.6-1.5-.6-.7,0-1,.3c-.3.2-.6.5-.9.8h-1.8v-7.6h7.3v1.9h-5.3v3.2c.3-.2.5-.4.8-.5.3-.1.6-.2.9-.2,1.3,0,2.2.4,2.9,1.2s1,1.9,1,3.2v1.2c0,1.4-.4,2.5-1.1,3.3s-1.7,1.2-3,1.2Z"/>
        <path class="cls-5" d="M120.6,334.2c-1.4,0-2.4-.4-3.1-1.1-.7-.7-1-1.7-1-3v-6.5c0-1.3.3-2.3,1-3s1.7-1.1,3.1-1.1,2.4.4,3.1,1.1c.7.7,1,1.7,1,3v6.5c0,1.3-.3,2.3-1,3-.7.7-1.7,1.1-3.1,1.1ZM120.6,332.3c.7,0,1.3-.2,1.6-.6.3-.4.5-.9.5-1.6v-6.5c0-.7-.2-1.2-.5-1.6s-.9-.6-1.6-.6-1.3.2-1.6.6-.5.9-.5,1.6v6.5c0,.7.2,1.2.5,1.6.3.4.9.6,1.6.6Z"/>
        <path class="cls-5" d="M131.4,334.2c-1.4,0-2.4-.4-3.1-1.1-.7-.7-1-1.7-1-3v-6.5c0-1.3.3-2.3,1-3s1.7-1.1,3.1-1.1,2.4.4,3.1,1.1c.7.7,1,1.7,1,3v6.5c0,1.3-.3,2.3-1,3-.7.7-1.7,1.1-3.1,1.1ZM131.4,332.3c.7,0,1.3-.2,1.6-.6.3-.4.5-.9.5-1.6v-6.5c0-.7-.2-1.2-.5-1.6s-.9-.6-1.6-.6-1.3.2-1.6.6-.5.9-.5,1.6v6.5c0,.7.2,1.2.5,1.6.3.4.9.6,1.6.6Z"/>
      </g>
      <g>
        <path class="cls-5" d="M102.5,402.7v14.4h-2v-12.2l-2,1.3v-2.1l2-1.4h2Z"/>
        <path class="cls-5" d="M109.9,417.2c-1.4,0-2.4-.4-3.1-1.1-.7-.7-1-1.7-1-3v-6.5c0-1.3.3-2.3,1-3,.7-.7,1.7-1.1,3.1-1.1s2.4.4,3.1,1.1c.7.7,1,1.7,1,3v6.5c0,1.3-.3,2.3-1,3-.7.7-1.7,1.1-3.1,1.1ZM109.9,415.3c.7,0,1.3-.2,1.6-.6.3-.4.5-.9.5-1.6v-6.5c0-.7-.2-1.2-.5-1.6-.3-.4-.9-.6-1.6-.6s-1.3.2-1.6.6c-.3.4-.5.9-.5,1.6v6.5c0,.7.2,1.2.5,1.6.3.4.9.6,1.6.6Z"/>
        <path class="cls-5" d="M120.6,417.2c-1.4,0-2.4-.4-3.1-1.1-.7-.7-1-1.7-1-3v-6.5c0-1.3.3-2.3,1-3,.7-.7,1.7-1.1,3.1-1.1s2.4.4,3.1,1.1c.7.7,1,1.7,1,3v6.5c0,1.3-.3,2.3-1,3-.7.7-1.7,1.1-3.1,1.1ZM120.6,415.3c.7,0,1.3-.2,1.6-.6.3-.4.5-.9.5-1.6v-6.5c0-.7-.2-1.2-.5-1.6-.3-.4-.9-.6-1.6-.6s-1.3.2-1.6.6c-.3.4-.5.9-.5,1.6v6.5c0,.7.2,1.2.5,1.6.3.4.9.6,1.6.6Z"/>
        <path class="cls-5" d="M131.4,417.2c-1.4,0-2.4-.4-3.1-1.1-.7-.7-1-1.7-1-3v-6.5c0-1.3.3-2.3,1-3,.7-.7,1.7-1.1,3.1-1.1s2.4.4,3.1,1.1c.7.7,1,1.7,1,3v6.5c0,1.3-.3,2.3-1,3-.7.7-1.7,1.1-3.1,1.1ZM131.4,415.3c.7,0,1.3-.2,1.6-.6.3-.4.5-.9.5-1.6v-6.5c0-.7-.2-1.2-.5-1.6-.3-.4-.9-.6-1.6-.6s-1.3.2-1.6.6c-.3.4-.5.9-.5,1.6v6.5c0,.7.2,1.2.5,1.6.3.4.9.6,1.6.6Z"/>
      </g>
      <g>
        <path class="cls-5" d="M109.5,500.2c-1.1,0-2-.3-2.7-.9-.7-.6-1.1-1.5-1.3-2.7h0s2,0,2,0h0c0,.5.3.9.6,1.2.3.3.8.4,1.4.4s1.1-.2,1.5-.6.5-1,.5-1.8v-1.2c0-.8-.2-1.4-.5-1.8-.4-.4-.9-.6-1.5-.6s-.7,0-1,.3c-.3.2-.6.5-.9.8h-1.8v-7.6h7.3v1.9h-5.3v3.2c.3-.2.5-.4.8-.5.3-.1.6-.2.9-.2,1.3,0,2.2.4,2.9,1.2s1,1.9,1,3.2v1.2c0,1.4-.4,2.5-1.1,3.3s-1.7,1.2-3,1.2Z"/>
        <path class="cls-5" d="M120.6,500.2c-1.4,0-2.4-.4-3.1-1.1-.7-.7-1-1.7-1-3v-6.5c0-1.3.3-2.3,1-3,.7-.7,1.7-1.1,3.1-1.1s2.4.4,3.1,1.1c.7.7,1,1.7,1,3v6.5c0,1.3-.3,2.3-1,3-.7.7-1.7,1.1-3.1,1.1ZM120.6,498.3c.7,0,1.3-.2,1.6-.6s.5-.9.5-1.6v-6.5c0-.7-.2-1.2-.5-1.6-.3-.4-.9-.6-1.6-.6s-1.3.2-1.6.6c-.3.4-.5.9-.5,1.6v6.5c0,.7.2,1.2.5,1.6s.9.6,1.6.6Z"/>
        <path class="cls-5" d="M131.4,500.2c-1.4,0-2.4-.4-3.1-1.1-.7-.7-1-1.7-1-3v-6.5c0-1.3.3-2.3,1-3,.7-.7,1.7-1.1,3.1-1.1s2.4.4,3.1,1.1c.7.7,1,1.7,1,3v6.5c0,1.3-.3,2.3-1,3-.7.7-1.7,1.1-3.1,1.1ZM131.4,498.3c.7,0,1.3-.2,1.6-.6s.5-.9.5-1.6v-6.5c0-.7-.2-1.2-.5-1.6-.3-.4-.9-.6-1.6-.6s-1.3.2-1.6.6c-.3.4-.5.9-.5,1.6v6.5c0,.7.2,1.2.5,1.6s.9.6,1.6.6Z"/>
      </g>
      <path class="cls-5" d="M131.4,583.3c-1.4,0-2.4-.4-3.1-1.1-.7-.7-1-1.7-1-3v-6.5c0-1.3.3-2.3,1-3,.7-.7,1.7-1.1,3.1-1.1s2.4.4,3.1,1.1c.7.7,1,1.7,1,3v6.5c0,1.3-.3,2.3-1,3-.7.7-1.7,1.1-3.1,1.1ZM131.4,581.4c.7,0,1.3-.2,1.6-.6s.5-.9.5-1.6v-6.5c0-.7-.2-1.2-.5-1.6-.3-.4-.9-.6-1.6-.6s-1.3.2-1.6.6c-.3.4-.5.9-.5,1.6v6.5c0,.7.2,1.2.5,1.6s.9.6,1.6.6Z"/>
      <path class="cls-5" d="M143.9,598.1c-1.4,0-2.4-.4-3.1-1.1-.7-.7-1-1.7-1-3v-6.5c0-1.3.3-2.3,1-3,.7-.7,1.7-1.1,3.1-1.1s2.4.4,3.1,1.1c.7.7,1,1.7,1,3v6.5c0,1.3-.3,2.3-1,3-.7.7-1.7,1.1-3.1,1.1ZM143.9,596.2c.7,0,1.3-.2,1.6-.6.3-.4.5-.9.5-1.6v-6.5c0-.7-.2-1.2-.5-1.6-.3-.4-.9-.6-1.6-.6s-1.3.2-1.6.6c-.3.4-.5.9-.5,1.6v6.5c0,.7.2,1.2.5,1.6.3.4.9.6,1.6.6Z"/>
      <path class="cls-5" d="M362.4,595.7v-1.7l4.8-10.4h2.1l-4.7,10.3h7v1.9h-9.2ZM368.6,597.9v-8.5h2v8.5h-2Z"/>
      <path class="cls-5" d="M589.9,598.1c-.9,0-1.6-.2-2.3-.5-.7-.3-1.2-.8-1.5-1.4-.4-.6-.5-1.3-.5-2.1v-.2c0-.7.2-1.4.5-2,.4-.6.8-1.1,1.4-1.4-.5-.3-.9-.7-1.2-1.2-.3-.5-.5-1.1-.5-1.7v-.3c0-1.1.4-2.1,1.1-2.7.7-.7,1.7-1,3-1s2.2.3,3,1,1.1,1.6,1.1,2.7v.3c0,.6-.2,1.2-.5,1.7-.3.5-.7.9-1.2,1.2.6.3,1.1.8,1.5,1.4.4.6.5,1.3.5,2v.2c0,.8-.2,1.5-.5,2.1-.4.6-.9,1.1-1.5,1.4-.7.3-1.4.5-2.3.5ZM589.9,596.1c.7,0,1.3-.2,1.7-.6s.6-.9.6-1.6h0c0-.8-.2-1.3-.6-1.7s-1-.6-1.7-.6-1.3.2-1.7.6-.6.9-.6,1.6h0c0,.8.2,1.3.6,1.7s1,.6,1.7.6ZM589.9,589.6c.6,0,1.1-.2,1.5-.6.4-.4.6-.9.6-1.5h0c0-.8-.2-1.2-.6-1.6-.4-.4-.9-.6-1.5-.6s-1.1.2-1.5.6c-.4.4-.6.9-.6,1.5h0c0,.8.2,1.3.6,1.7.4.4.9.6,1.5.6Z"/>
      <g>
        <path class="cls-5" d="M809.3,583.5v14.4h-2v-12.2l-2,1.3v-2.1l2-1.4h2Z"/>
        <path class="cls-5" d="M812.3,597.9v-1.8l5-6.7c.3-.4.5-.8.7-1.2.2-.4.2-.8.2-1.2h0c0-.6-.2-1-.5-1.4s-.8-.5-1.4-.5-1.1.2-1.4.5c-.4.3-.6.8-.7,1.5h0s-2.1,0-2.1,0h0c.2-1.2.6-2.2,1.4-2.9.7-.7,1.7-1,2.8-1s2.3.3,3,1,1.1,1.6,1.1,2.8h0c0,.5-.1,1-.3,1.6-.2.6-.5,1.1-.9,1.6l-4.2,5.7h5.4v1.9h-8.1Z"/>
      </g>
      <g>
        <path class="cls-5" d="M1032.3,583.5v14.4h-2v-12.2l-2,1.3v-2.1l2-1.4h2Z"/>
        <path class="cls-5" d="M1039.3,598.1c-1.3,0-2.3-.4-3-1.1-.7-.8-1-1.8-1-3.2h0c0-.6,0-1.3.3-2,.2-.7.4-1.4.7-2l3.1-6.2h2.2l-3.7,7.2v-.4c.4-.7,1-1,1.8-1s2,.4,2.6,1.1c.6.7.9,1.8.9,3.2h0c0,1.4-.3,2.5-1,3.2-.7.8-1.7,1.2-3,1.2ZM1039.3,596.1c.6,0,1.1-.2,1.5-.6s.5-1,.5-1.7h0c0-.8-.2-1.4-.5-1.9-.4-.4-.9-.7-1.6-.7s-1.1.2-1.4.7c-.3.4-.5,1.1-.5,1.9h0c0,.7.2,1.3.5,1.7.3.4.8.6,1.5.6Z"/>
      </g>
    </g>
  </g>
</svg>